<?xml version="1.0" encoding="UTF-8" standalone="no"?>
<!DOCTYPE svg PUBLIC "-//W3C//DTD SVG 1.1//EN"
 "http://www.w3.org/Graphics/SVG/1.1/DTD/svg11.dtd">
<!-- Generated by graphviz version 2.38.0 (20140413.2041)
 -->
<!-- Title: TestCollapsingBootstrap Pages: 1 -->
<svg width="158pt" height="298pt"
 viewBox="0.00 0.00 158.00 298.00" xmlns="http://www.w3.org/2000/svg" xmlns:xlink="http://www.w3.org/1999/xlink">
<g id="graph0" class="graph" transform="scale(1 1) rotate(0) translate(4 294)">
<title>TestCollapsingBootstrap</title>
<polygon fill="white" stroke="none" points="-4,4 -4,-294 154,-294 154,4 -4,4"/>
<!-- Node1 -->
<g id="node1" class="node"><title>Node1</title>
<polygon fill="#bfbfbf" stroke="black" points="-1.42109e-14,-0.5 -1.42109e-14,-90.5 150,-90.5 150,-0.5 -1.42109e-14,-0.5"/>
<text text-anchor="middle" x="75" y="-78.5" font-family="Helvetica,sans-Serif" font-size="10.00">TestCollapsingBootstrap</text>
<polyline fill="none" stroke="black" points="-1.42109e-14,-71.5 150,-71.5 "/>
<text text-anchor="start" x="8" y="-59.5" font-family="Helvetica,sans-Serif" font-size="10.00">+ num_threads</text>
<text text-anchor="start" x="8" y="-48.5" font-family="Helvetica,sans-Serif" font-size="10.00">+ NUM_ALLOCS</text>
<polyline fill="none" stroke="black" points="-1.42109e-14,-41.5 150,-41.5 "/>
<text text-anchor="start" x="8" y="-29.5" font-family="Helvetica,sans-Serif" font-size="10.00">+ TestCollapsingBootstrap()</text>
<text text-anchor="start" x="8" y="-18.5" font-family="Helvetica,sans-Serif" font-size="10.00">+ operator()()</text>
<text text-anchor="start" x="8" y="-7.5" font-family="Helvetica,sans-Serif" font-size="10.00">+ check()</text>
</g>
<!-- Node2 -->
<g id="node2" class="node"><title>Node2</title>
<g id="a_node2"><a xlink:href="../../db/def/classSimpleBarrier.html" target="_top" xlink:title="{SimpleBarrier\n|# barrier\l|+ initBarrier()\l}">
<polygon fill="white" stroke="black" points="34,-127.5 34,-184.5 116,-184.5 116,-127.5 34,-127.5"/>
<text text-anchor="middle" x="75" y="-172.5" font-family="Helvetica,sans-Serif" font-size="10.00">SimpleBarrier</text>
<polyline fill="none" stroke="black" points="34,-165.5 116,-165.5 "/>
<text text-anchor="start" x="42" y="-153.5" font-family="Helvetica,sans-Serif" font-size="10.00"># barrier</text>
<polyline fill="none" stroke="black" points="34,-146.5 116,-146.5 "/>
<text text-anchor="start" x="42" y="-134.5" font-family="Helvetica,sans-Serif" font-size="10.00">+ initBarrier()</text>
</a>
</g>
</g>
<!-- Node2&#45;&gt;Node1 -->
<g id="edge1" class="edge"><title>Node2&#45;&gt;Node1</title>
<path fill="none" stroke="midnightblue" d="M75,-117.214C75,-108.609 75,-99.3943 75,-90.5541"/>
<polygon fill="none" stroke="midnightblue" points="71.5001,-117.34 75,-127.34 78.5001,-117.34 71.5001,-117.34"/>
</g>
<!-- Node3 -->
<g id="node3" class="node"><title>Node3</title>
<g id="a_node3"><a xlink:href="../../d8/dab/classNoAssign.html" target="_top" xlink:title="Base class for prohibiting compiler&#45;generated operator=. ">
<polygon fill="white" stroke="black" points="35,-221.5 35,-289.5 115,-289.5 115,-221.5 35,-221.5"/>
<text text-anchor="middle" x="75" y="-277.5" font-family="Helvetica,sans-Serif" font-size="10.00">NoAssign</text>
<polyline fill="none" stroke="black" points="35,-270.5 115,-270.5 "/>
<text text-anchor="middle" x="75" y="-258.5" font-family="Helvetica,sans-Serif" font-size="10.00"> </text>
<polyline fill="none" stroke="black" points="35,-251.5 115,-251.5 "/>
<text text-anchor="start" x="43" y="-239.5" font-family="Helvetica,sans-Serif" font-size="10.00">+ NoAssign()</text>
<text text-anchor="start" x="43" y="-228.5" font-family="Helvetica,sans-Serif" font-size="10.00">&#45; operator=()</text>
</a>
</g>
</g>
<!-- Node3&#45;&gt;Node2 -->
<g id="edge2" class="edge"><title>Node3&#45;&gt;Node2</title>
<path fill="none" stroke="#8b1a1a" d="M75,-211.454C75,-202.404 75,-193.088 75,-184.777"/>
<polygon fill="none" stroke="#8b1a1a" points="71.5001,-211.491 75,-221.491 78.5001,-211.491 71.5001,-211.491"/>
</g>
</g>
</svg>
