<?xml version="1.0" encoding="UTF-8" standalone="no"?>
<!DOCTYPE svg PUBLIC "-//W3C//DTD SVG 1.1//EN"
 "http://www.w3.org/Graphics/SVG/1.1/DTD/svg11.dtd">
<!-- Generated by graphviz version 2.38.0 (20140413.2041)
 -->
<!-- Title: extvol Pages: 1 -->
<svg width="262pt" height="518pt"
 viewBox="0.00 0.00 261.50 518.00" xmlns="http://www.w3.org/2000/svg" xmlns:xlink="http://www.w3.org/1999/xlink">
<g id="graph0" class="graph" transform="scale(1 1) rotate(0) translate(4 514)">
<title>extvol</title>
<polygon fill="white" stroke="none" points="-4,4 -4,-514 257.5,-514 257.5,4 -4,4"/>
<!-- Node1 -->
<g id="node1" class="node"><title>Node1</title>
<polygon fill="#bfbfbf" stroke="black" points="63,-0.5 63,-123.5 136,-123.5 136,-0.5 63,-0.5"/>
<text text-anchor="middle" x="99.5" y="-111.5" font-family="Helvetica,sans-Serif" font-size="10.00">extvol</text>
<polyline fill="none" stroke="black" points="63,-104.5 136,-104.5 "/>
<text text-anchor="start" x="71" y="-92.5" font-family="Helvetica,sans-Serif" font-size="10.00">+ id</text>
<text text-anchor="start" x="71" y="-81.5" font-family="Helvetica,sans-Serif" font-size="10.00">+ nextobj</text>
<text text-anchor="start" x="71" y="-70.5" font-family="Helvetica,sans-Serif" font-size="10.00">+ ambient</text>
<text text-anchor="start" x="71" y="-59.5" font-family="Helvetica,sans-Serif" font-size="10.00">+ diffuse</text>
<text text-anchor="start" x="71" y="-48.5" font-family="Helvetica,sans-Serif" font-size="10.00">+ opacity</text>
<text text-anchor="start" x="71" y="-37.5" font-family="Helvetica,sans-Serif" font-size="10.00">+ samples</text>
<text text-anchor="start" x="71" y="-26.5" font-family="Helvetica,sans-Serif" font-size="10.00">+ evaluator</text>
<polyline fill="none" stroke="black" points="63,-19.5 136,-19.5 "/>
<text text-anchor="middle" x="99.5" y="-7.5" font-family="Helvetica,sans-Serif" font-size="10.00"> </text>
</g>
<!-- Node2 -->
<g id="node2" class="node"><title>Node2</title>
<g id="a_node2"><a xlink:href="../../d4/db4/structvector.html" target="_top" xlink:title="{vector\n|+ x\l+ y\l+ z\l|}">
<polygon fill="white" stroke="black" points="0,-430.5 0,-509.5 47,-509.5 47,-430.5 0,-430.5"/>
<text text-anchor="middle" x="23.5" y="-497.5" font-family="Helvetica,sans-Serif" font-size="10.00">vector</text>
<polyline fill="none" stroke="black" points="0,-490.5 47,-490.5 "/>
<text text-anchor="start" x="8" y="-478.5" font-family="Helvetica,sans-Serif" font-size="10.00">+ x</text>
<text text-anchor="start" x="8" y="-467.5" font-family="Helvetica,sans-Serif" font-size="10.00">+ y</text>
<text text-anchor="start" x="8" y="-456.5" font-family="Helvetica,sans-Serif" font-size="10.00">+ z</text>
<polyline fill="none" stroke="black" points="0,-449.5 47,-449.5 "/>
<text text-anchor="middle" x="23.5" y="-437.5" font-family="Helvetica,sans-Serif" font-size="10.00"> </text>
</a>
</g>
</g>
<!-- Node2&#45;&gt;Node1 -->
<g id="edge1" class="edge"><title>Node2&#45;&gt;Node1</title>
<path fill="none" stroke="#404040" d="M14.838,-430.132C3.64606,-372.028 -11.1165,-259.849 18.5,-171 26.0042,-148.487 40.243,-126.888 54.7154,-109.002"/>
<polygon fill="none" stroke="#404040" points="55.0134,-108.648 55.8149,-101.481 62.7384,-99.465 61.9368,-106.631 55.0134,-108.648"/>
<text text-anchor="middle" x="33.5" y="-258" font-family="Helvetica,sans-Serif" font-size="10.00"> +min</text>
<text text-anchor="middle" x="33.5" y="-247" font-family="Helvetica,sans-Serif" font-size="10.00">+max</text>
</g>
<!-- Node3 -->
<g id="node3" class="node"><title>Node3</title>
<g id="a_node3"><a xlink:href="../../dd/db6/structtexture.html" target="_top" xlink:title="{texture\n|+ shadowcast\l+ islight\l+ ambient\l+ diffuse\l+ phong\l+ phongexp\l+ phongtype\l+ specular\l+ opacity\l+ img\l+ obj\l|}">
<polygon fill="white" stroke="black" points="57.5,-171.5 57.5,-338.5 141.5,-338.5 141.5,-171.5 57.5,-171.5"/>
<text text-anchor="middle" x="99.5" y="-326.5" font-family="Helvetica,sans-Serif" font-size="10.00">texture</text>
<polyline fill="none" stroke="black" points="57.5,-319.5 141.5,-319.5 "/>
<text text-anchor="start" x="65.5" y="-307.5" font-family="Helvetica,sans-Serif" font-size="10.00">+ shadowcast</text>
<text text-anchor="start" x="65.5" y="-296.5" font-family="Helvetica,sans-Serif" font-size="10.00">+ islight</text>
<text text-anchor="start" x="65.5" y="-285.5" font-family="Helvetica,sans-Serif" font-size="10.00">+ ambient</text>
<text text-anchor="start" x="65.5" y="-274.5" font-family="Helvetica,sans-Serif" font-size="10.00">+ diffuse</text>
<text text-anchor="start" x="65.5" y="-263.5" font-family="Helvetica,sans-Serif" font-size="10.00">+ phong</text>
<text text-anchor="start" x="65.5" y="-252.5" font-family="Helvetica,sans-Serif" font-size="10.00">+ phongexp</text>
<text text-anchor="start" x="65.5" y="-241.5" font-family="Helvetica,sans-Serif" font-size="10.00">+ phongtype</text>
<text text-anchor="start" x="65.5" y="-230.5" font-family="Helvetica,sans-Serif" font-size="10.00">+ specular</text>
<text text-anchor="start" x="65.5" y="-219.5" font-family="Helvetica,sans-Serif" font-size="10.00">+ opacity</text>
<text text-anchor="start" x="65.5" y="-208.5" font-family="Helvetica,sans-Serif" font-size="10.00">+ img</text>
<text text-anchor="start" x="65.5" y="-197.5" font-family="Helvetica,sans-Serif" font-size="10.00">+ obj</text>
<polyline fill="none" stroke="black" points="57.5,-190.5 141.5,-190.5 "/>
<text text-anchor="middle" x="99.5" y="-178.5" font-family="Helvetica,sans-Serif" font-size="10.00"> </text>
</a>
</g>
</g>
<!-- Node2&#45;&gt;Node3 -->
<g id="edge3" class="edge"><title>Node2&#45;&gt;Node3</title>
<path fill="none" stroke="#404040" d="M36.2913,-430.275C43.5199,-408.655 52.8219,-381.264 61.5,-357 62.3379,-354.657 63.1912,-352.286 64.056,-349.894"/>
<polygon fill="none" stroke="#404040" points="64.064,-349.872 62.3598,-342.865 68.1723,-338.597 69.8764,-345.604 64.064,-349.872"/>
<text text-anchor="middle" x="78.5" y="-404" font-family="Helvetica,sans-Serif" font-size="10.00"> +vaxs</text>
<text text-anchor="middle" x="78.5" y="-393" font-family="Helvetica,sans-Serif" font-size="10.00">+uaxs</text>
<text text-anchor="middle" x="78.5" y="-382" font-family="Helvetica,sans-Serif" font-size="10.00">+ctr</text>
<text text-anchor="middle" x="78.5" y="-371" font-family="Helvetica,sans-Serif" font-size="10.00">+rot</text>
<text text-anchor="middle" x="78.5" y="-360" font-family="Helvetica,sans-Serif" font-size="10.00">+scale</text>
</g>
<!-- Node3&#45;&gt;Node1 -->
<g id="edge2" class="edge"><title>Node3&#45;&gt;Node1</title>
<path fill="none" stroke="#404040" d="M99.5,-171.335C99.5,-159.563 99.5,-147.526 99.5,-135.957"/>
<polygon fill="none" stroke="#404040" points="99.5001,-135.621 95.5,-129.621 99.5,-123.621 103.5,-129.621 99.5001,-135.621"/>
<text text-anchor="middle" x="113" y="-145" font-family="Helvetica,sans-Serif" font-size="10.00"> +tex</text>
</g>
<!-- Node4 -->
<g id="node4" class="node"><title>Node4</title>
<g id="a_node4"><a xlink:href="../../d0/d91/structcolor.html" target="_top" xlink:title="{color\n|+ r\l+ g\l+ b\l|}">
<polygon fill="white" stroke="black" points="79.5,-430.5 79.5,-509.5 119.5,-509.5 119.5,-430.5 79.5,-430.5"/>
<text text-anchor="middle" x="99.5" y="-497.5" font-family="Helvetica,sans-Serif" font-size="10.00">color</text>
<polyline fill="none" stroke="black" points="79.5,-490.5 119.5,-490.5 "/>
<text text-anchor="start" x="87.5" y="-478.5" font-family="Helvetica,sans-Serif" font-size="10.00">+ r</text>
<text text-anchor="start" x="87.5" y="-467.5" font-family="Helvetica,sans-Serif" font-size="10.00">+ g</text>
<text text-anchor="start" x="87.5" y="-456.5" font-family="Helvetica,sans-Serif" font-size="10.00">+ b</text>
<polyline fill="none" stroke="black" points="79.5,-449.5 119.5,-449.5 "/>
<text text-anchor="middle" x="99.5" y="-437.5" font-family="Helvetica,sans-Serif" font-size="10.00"> </text>
</a>
</g>
</g>
<!-- Node4&#45;&gt;Node3 -->
<g id="edge4" class="edge"><title>Node4&#45;&gt;Node3</title>
<path fill="none" stroke="#404040" d="M99.5,-430.427C99.5,-408.184 99.5,-379.155 99.5,-351.18"/>
<polygon fill="none" stroke="#404040" points="99.5001,-350.855 95.5,-344.855 99.5,-338.855 103.5,-344.855 99.5001,-350.855"/>
<text text-anchor="middle" x="121.5" y="-387.5" font-family="Helvetica,sans-Serif" font-size="10.00"> +col</text>
<text text-anchor="middle" x="121.5" y="-376.5" font-family="Helvetica,sans-Serif" font-size="10.00">+texfunc</text>
</g>
<!-- Node5 -->
<g id="node5" class="node"><title>Node5</title>
<g id="a_node5"><a xlink:href="../../d4/d8b/structobject__methods.html" target="_top" xlink:title="{object_methods\n|+ intersect\l+ normal\l+ bbox\l+ free\l|}">
<polygon fill="white" stroke="black" points="159.5,-210 159.5,-300 253.5,-300 253.5,-210 159.5,-210"/>
<text text-anchor="middle" x="206.5" y="-288" font-family="Helvetica,sans-Serif" font-size="10.00">object_methods</text>
<polyline fill="none" stroke="black" points="159.5,-281 253.5,-281 "/>
<text text-anchor="start" x="167.5" y="-269" font-family="Helvetica,sans-Serif" font-size="10.00">+ intersect</text>
<text text-anchor="start" x="167.5" y="-258" font-family="Helvetica,sans-Serif" font-size="10.00">+ normal</text>
<text text-anchor="start" x="167.5" y="-247" font-family="Helvetica,sans-Serif" font-size="10.00">+ bbox</text>
<text text-anchor="start" x="167.5" y="-236" font-family="Helvetica,sans-Serif" font-size="10.00">+ free</text>
<polyline fill="none" stroke="black" points="159.5,-229 253.5,-229 "/>
<text text-anchor="middle" x="206.5" y="-217" font-family="Helvetica,sans-Serif" font-size="10.00"> </text>
</a>
</g>
</g>
<!-- Node5&#45;&gt;Node1 -->
<g id="edge5" class="edge"><title>Node5&#45;&gt;Node1</title>
<path fill="none" stroke="#404040" d="M181.683,-209.701C169.151,-187.33 153.637,-159.637 139.476,-134.359"/>
<polygon fill="none" stroke="#404040" points="139.367,-134.165 132.945,-130.886 133.502,-123.696 139.925,-126.976 139.367,-134.165"/>
<text text-anchor="middle" x="178" y="-145" font-family="Helvetica,sans-Serif" font-size="10.00"> +methods</text>
</g>
</g>
</svg>
