<?xml version="1.0" encoding="UTF-8" standalone="no"?>
<!DOCTYPE svg PUBLIC "-//W3C//DTD SVG 1.1//EN"
 "http://www.w3.org/Graphics/SVG/1.1/DTD/svg11.dtd">
<!-- Generated by graphviz version 2.38.0 (20140413.2041)
 -->
<!-- Title: /home/travis/build/ComPWA/ComPWA/Physics/BuilderXML.cpp Pages: 1 -->
<!--zoomable 475 -->
<svg id="main" version="1.1" xmlns="http://www.w3.org/2000/svg" xmlns:xlink="http://www.w3.org/1999/xlink" xml:space="preserve" onload="init(evt)">
<style type="text/css"><![CDATA[
.edge:hover path { stroke: red; }
.edge:hover polygon { stroke: red; fill: red; }
]]></style>
<script type="text/javascript"><![CDATA[
var edges = document.getElementsByTagName('g');
if (edges && edges.length) {
  for (var i=0;i<edges.length;i++) {
    if (edges[i].id.substr(0,4)=='edge') {
      edges[i].setAttribute('class','edge');
    }
  }
}
]]></script>
        <defs>
                <circle id="rim" cx="0" cy="0" r="7"/>
                <circle id="rim2" cx="0" cy="0" r="3.5"/>
                <g id="zoomPlus">
                        <use xlink:href="#rim" fill="#404040">
                                <set attributeName="fill" to="#808080" begin="zoomplus.mouseover" end="zoomplus.mouseout"/>
                        </use>
                        <path d="M-4,0h8M0,-4v8" fill="none" stroke="white" stroke-width="1.5" pointer-events="none"/>
                </g>
                <g id="zoomMin">
                        <use xlink:href="#rim" fill="#404040">
                                <set attributeName="fill" to="#808080" begin="zoomminus.mouseover" end="zoomminus.mouseout"/>
                        </use>
                        <path d="M-4,0h8" fill="none" stroke="white" stroke-width="1.5" pointer-events="none"/>
                </g>
                <g id="dirArrow">
                        <path fill="none" stroke="white" stroke-width="1.5" d="M0,-3.0v7 M-2.5,-0.5L0,-3.0L2.5,-0.5"/>
                </g>
               <g id="resetDef">
                       <use xlink:href="#rim2" fill="#404040">
                               <set attributeName="fill" to="#808080" begin="reset.mouseover" end="reset.mouseout"/>
                       </use>
               </g>
        </defs>

<script type="text/javascript">
var viewWidth = 1834;
var viewHeight = 475;
var sectionId = 'dynsection-0';
</script>
<script xlink:href="../../svgpan.js"/>
<svg id="graph" class="graph">
<g id="viewport">
<title>/home/travis/build/ComPWA/ComPWA/Physics/BuilderXML.cpp</title>
<polygon fill="white" stroke="none" points="-4,4 -4,-471 1830.45,-471 1830.45,4 -4,4"/>
<!-- Node1 -->
<g id="node1" class="node"><title>Node1</title>
<polygon fill="#bfbfbf" stroke="black" points="1047.95,-425.5 1047.95,-466.5 1193.95,-466.5 1193.95,-425.5 1047.95,-425.5"/>
<text text-anchor="start" x="1055.95" y="-454.5" font-family="Helvetica,sans-Serif" font-size="10.00">/home/travis/build</text>
<text text-anchor="start" x="1055.95" y="-443.5" font-family="Helvetica,sans-Serif" font-size="10.00">/ComPWA/ComPWA/Physics</text>
<text text-anchor="middle" x="1120.95" y="-432.5" font-family="Helvetica,sans-Serif" font-size="10.00">/BuilderXML.cpp</text>
</g>
<!-- Node2 -->
<g id="node2" class="node"><title>Node2</title>
<g id="a_node2"><a xlink:href="../../db/dcb/BuilderXML_8hpp.html" target="_top" xlink:title="BuilderXML.hpp">
<polygon fill="white" stroke="black" points="468.948,-196 468.948,-215 558.948,-215 558.948,-196 468.948,-196"/>
<text text-anchor="middle" x="513.948" y="-203" font-family="Helvetica,sans-Serif" font-size="10.00">BuilderXML.hpp</text>
</a>
</g>
</g>
<!-- Node1&#45;&gt;Node2 -->
<g id="edge1" class="edge"><title>Node1&#45;&gt;Node2</title>
<path fill="none" stroke="midnightblue" d="M1047.9,-443.375C974.185,-439.492 858.365,-427.164 765.948,-389 665.686,-347.596 567.659,-258.853 530.054,-222.515"/>
<polygon fill="midnightblue" stroke="midnightblue" points="532.181,-219.7 522.584,-215.212 527.288,-224.706 532.181,-219.7"/>
</g>
<!-- Node9 -->
<g id="node9" class="node"><title>Node9</title>
<g id="a_node9"><a xlink:href="../../d7/d5a/DataSet_8hpp.html" target="_top" xlink:title="Data/DataSet.hpp">
<polygon fill="white" stroke="red" points="583.948,-129 583.948,-148 687.948,-148 687.948,-129 583.948,-129"/>
<text text-anchor="middle" x="635.948" y="-136" font-family="Helvetica,sans-Serif" font-size="10.00">Data/DataSet.hpp</text>
</a>
</g>
</g>
<!-- Node1&#45;&gt;Node9 -->
<g id="edge25" class="edge"><title>Node1&#45;&gt;Node9</title>
<path fill="none" stroke="midnightblue" d="M1047.79,-434.146C947.598,-417.184 779.948,-380.379 779.948,-324 779.948,-324 779.948,-324 779.948,-266 779.948,-207.653 712.394,-169.888 669.825,-151.883"/>
<polygon fill="midnightblue" stroke="midnightblue" points="670.957,-148.565 660.376,-148.035 668.317,-155.048 670.957,-148.565"/>
</g>
<!-- Node11 -->
<g id="node11" class="node"><title>Node11</title>
<g id="a_node11"><a xlink:href="../../dc/ded/Properties_8hpp.html" target="_top" xlink:title="Core/Properties.hpp">
<polygon fill="white" stroke="red" points="1517.95,-67.5 1517.95,-86.5 1629.95,-86.5 1629.95,-67.5 1517.95,-67.5"/>
<text text-anchor="middle" x="1573.95" y="-74.5" font-family="Helvetica,sans-Serif" font-size="10.00">Core/Properties.hpp</text>
</a>
</g>
</g>
<!-- Node1&#45;&gt;Node11 -->
<g id="edge24" class="edge"><title>Node1&#45;&gt;Node11</title>
<path fill="none" stroke="midnightblue" d="M1194.2,-441.305C1320.23,-434.23 1567.3,-416.946 1594.95,-389 1675.23,-307.846 1608.95,-149.281 1583.13,-95.9728"/>
<polygon fill="midnightblue" stroke="midnightblue" points="1586.15,-94.1696 1578.56,-86.7687 1579.88,-97.2821 1586.15,-94.1696"/>
</g>
<!-- Node12 -->
<g id="node12" class="node"><title>Node12</title>
<g id="a_node12"><a xlink:href="../../d2/de9/Exceptions_8hpp.html" target="_top" xlink:title="ComPWA exceptions. ">
<polygon fill="white" stroke="red" points="1580.45,-6 1580.45,-25 1695.45,-25 1695.45,-6 1580.45,-6"/>
<text text-anchor="middle" x="1637.95" y="-13" font-family="Helvetica,sans-Serif" font-size="10.00">Core/Exceptions.hpp</text>
</a>
</g>
</g>
<!-- Node1&#45;&gt;Node12 -->
<g id="edge22" class="edge"><title>Node1&#45;&gt;Node12</title>
<path fill="none" stroke="midnightblue" d="M1194.1,-445.195C1315.02,-444.15 1549.82,-435.919 1615.95,-389 1638.65,-372.892 1701.95,-269.731 1701.95,-206.5 1701.95,-206.5 1701.95,-206.5 1701.95,-137.5 1701.95,-95.9605 1672.11,-54.7352 1653.18,-32.7614"/>
<polygon fill="midnightblue" stroke="midnightblue" points="1655.59,-30.2002 1646.31,-25.0728 1650.37,-34.8629 1655.59,-30.2002"/>
</g>
<!-- Node13 -->
<g id="node13" class="node"><title>Node13</title>
<polygon fill="white" stroke="#bfbfbf" points="1449.95,-0.5 1449.95,-30.5 1561.95,-30.5 1561.95,-0.5 1449.95,-0.5"/>
<text text-anchor="start" x="1457.95" y="-18.5" font-family="Helvetica,sans-Serif" font-size="10.00">boost/property_tree</text>
<text text-anchor="middle" x="1505.95" y="-7.5" font-family="Helvetica,sans-Serif" font-size="10.00">/ptree.hpp</text>
</g>
<!-- Node1&#45;&gt;Node13 -->
<g id="edge67" class="edge"><title>Node1&#45;&gt;Node13</title>
<path fill="none" stroke="midnightblue" d="M1194.1,-445.195C1315.02,-444.15 1549.82,-435.919 1615.95,-389 1684.35,-340.467 1663.95,-290.37 1663.95,-206.5 1663.95,-206.5 1663.95,-206.5 1663.95,-137.5 1663.95,-104.255 1662.19,-90.7662 1638.95,-67 1628.04,-55.8474 1595.51,-43.4043 1565.35,-33.6603"/>
<polygon fill="midnightblue" stroke="midnightblue" points="1566.27,-30.2782 1555.68,-30.5965 1564.15,-36.9517 1566.27,-30.2782"/>
</g>
<!-- Node15 -->
<g id="node15" class="node"><title>Node15</title>
<g id="a_node15"><a xlink:href="../../da/db4/Logging_8hpp.html" target="_top" xlink:title="Core/Logging.hpp">
<polygon fill="white" stroke="red" points="1725.45,-369.5 1725.45,-388.5 1826.45,-388.5 1826.45,-369.5 1725.45,-369.5"/>
<text text-anchor="middle" x="1775.95" y="-376.5" font-family="Helvetica,sans-Serif" font-size="10.00">Core/Logging.hpp</text>
</a>
</g>
</g>
<!-- Node1&#45;&gt;Node15 -->
<g id="edge23" class="edge"><title>Node1&#45;&gt;Node15</title>
<path fill="none" stroke="midnightblue" d="M1194.18,-439.067C1305.82,-429.793 1525.2,-410.664 1710.95,-389 1712.25,-388.848 1713.57,-388.691 1714.9,-388.531"/>
<polygon fill="midnightblue" stroke="midnightblue" points="1715.75,-391.952 1725.23,-387.236 1714.88,-385.007 1715.75,-391.952"/>
</g>
<!-- Node16 -->
<g id="node16" class="node"><title>Node16</title>
<g id="a_node16"><a xlink:href="../../d0/dab/HelicityKinematics_8hpp.html" target="_top" xlink:title="Physics/HelicityFormalism\l/HelicityKinematics.hpp">
<polygon fill="white" stroke="black" points="935.948,-190.5 935.948,-220.5 1075.95,-220.5 1075.95,-190.5 935.948,-190.5"/>
<text text-anchor="start" x="943.948" y="-208.5" font-family="Helvetica,sans-Serif" font-size="10.00">Physics/HelicityFormalism</text>
<text text-anchor="middle" x="1005.95" y="-197.5" font-family="Helvetica,sans-Serif" font-size="10.00">/HelicityKinematics.hpp</text>
</a>
</g>
</g>
<!-- Node1&#45;&gt;Node16 -->
<g id="edge26" class="edge"><title>Node1&#45;&gt;Node16</title>
<path fill="none" stroke="midnightblue" d="M1088.63,-425.286C1074.78,-415.647 1059.23,-403.085 1047.95,-389 1010.57,-342.354 1005.22,-268.58 1005.17,-230.701"/>
<polygon fill="midnightblue" stroke="midnightblue" points="1008.67,-230.633 1005.28,-220.594 1001.67,-230.553 1008.67,-230.633"/>
</g>
<!-- Node19 -->
<g id="node19" class="node"><title>Node19</title>
<g id="a_node19"><a xlink:href="../../d0/d27/Integration_8hpp.html" target="_top" xlink:title="Tools/Integration.hpp">
<polygon fill="white" stroke="black" points="113.948,-313.5 113.948,-332.5 229.948,-332.5 229.948,-313.5 113.948,-313.5"/>
<text text-anchor="middle" x="171.948" y="-320.5" font-family="Helvetica,sans-Serif" font-size="10.00">Tools/Integration.hpp</text>
</a>
</g>
</g>
<!-- Node1&#45;&gt;Node19 -->
<g id="edge34" class="edge"><title>Node1&#45;&gt;Node19</title>
<path fill="none" stroke="midnightblue" d="M1047.93,-439.599C938.851,-431.138 726.986,-413.191 547.948,-389 432.266,-373.37 297.691,-348.46 225.042,-334.451"/>
<polygon fill="midnightblue" stroke="midnightblue" points="225.693,-331.013 215.21,-332.549 224.363,-337.885 225.693,-331.013"/>
</g>
<!-- Node20 -->
<g id="node20" class="node"><title>Node20</title>
<g id="a_node20"><a xlink:href="../../d7/d30/Flatte_8hpp.html" target="_top" xlink:title="Physics/Dynamics/Flatte.hpp">
<polygon fill="white" stroke="black" points="1432.45,-369.5 1432.45,-388.5 1585.45,-388.5 1585.45,-369.5 1432.45,-369.5"/>
<text text-anchor="middle" x="1508.95" y="-376.5" font-family="Helvetica,sans-Serif" font-size="10.00">Physics/Dynamics/Flatte.hpp</text>
</a>
</g>
</g>
<!-- Node1&#45;&gt;Node20 -->
<g id="edge36" class="edge"><title>Node1&#45;&gt;Node20</title>
<path fill="none" stroke="midnightblue" d="M1194.38,-432.698C1267.73,-420.41 1379.18,-401.74 1447.85,-390.236"/>
<polygon fill="midnightblue" stroke="midnightblue" points="1448.79,-393.627 1458.07,-388.523 1447.63,-386.723 1448.79,-393.627"/>
</g>
<!-- Node22 -->
<g id="node22" class="node"><title>Node22</title>
<g id="a_node22"><a xlink:href="../../de/dc9/FormFactor_8hpp.html" target="_top" xlink:title="FormFactor.hpp">
<polygon fill="white" stroke="red" points="1366.45,-196 1366.45,-215 1457.45,-215 1457.45,-196 1366.45,-196"/>
<text text-anchor="middle" x="1411.95" y="-203" font-family="Helvetica,sans-Serif" font-size="10.00">FormFactor.hpp</text>
</a>
</g>
</g>
<!-- Node1&#45;&gt;Node22 -->
<g id="edge53" class="edge"><title>Node1&#45;&gt;Node22</title>
<path fill="none" stroke="midnightblue" d="M1117.92,-425.042C1114.81,-396.783 1113.61,-344.996 1139.95,-313 1170.77,-275.561 1197.66,-294.343 1242.95,-277 1292.8,-257.908 1349.97,-233.529 1383.4,-219.013"/>
<polygon fill="midnightblue" stroke="midnightblue" points="1384.81,-222.218 1392.58,-215.018 1382.02,-215.8 1384.81,-222.218"/>
</g>
<!-- Node25 -->
<g id="node25" class="node"><title>Node25</title>
<g id="a_node25"><a xlink:href="../../d6/da5/RelativisticBreitWigner_8hpp.html" target="_top" xlink:title="RelativisticBreitWigner.hpp">
<polygon fill="white" stroke="black" points="1345.45,-313.5 1345.45,-332.5 1486.45,-332.5 1486.45,-313.5 1345.45,-313.5"/>
<text text-anchor="middle" x="1415.95" y="-320.5" font-family="Helvetica,sans-Serif" font-size="10.00">RelativisticBreitWigner.hpp</text>
</a>
</g>
</g>
<!-- Node1&#45;&gt;Node25 -->
<g id="edge56" class="edge"><title>Node1&#45;&gt;Node25</title>
<path fill="none" stroke="midnightblue" d="M1193.96,-442.341C1246.71,-437.317 1317.6,-423.905 1369.95,-389 1387.33,-377.41 1400.22,-356.852 1407.87,-341.953"/>
<polygon fill="midnightblue" stroke="midnightblue" points="1411.12,-343.251 1412.31,-332.722 1404.82,-340.214 1411.12,-343.251"/>
</g>
<!-- Node26 -->
<g id="node26" class="node"><title>Node26</title>
<g id="a_node26"><a xlink:href="../../d4/db6/NonResonant_8hpp.html" target="_top" xlink:title="Physics/Dynamics/NonResonant.hpp">
<polygon fill="white" stroke="black" points="1043.95,-257.5 1043.95,-276.5 1233.95,-276.5 1233.95,-257.5 1043.95,-257.5"/>
<text text-anchor="middle" x="1138.95" y="-264.5" font-family="Helvetica,sans-Serif" font-size="10.00">Physics/Dynamics/NonResonant.hpp</text>
</a>
</g>
</g>
<!-- Node1&#45;&gt;Node26 -->
<g id="edge54" class="edge"><title>Node1&#45;&gt;Node26</title>
<path fill="none" stroke="midnightblue" d="M1113.95,-425.256C1105.73,-398.995 1094.68,-351.418 1106.95,-313 1110.29,-302.538 1117.05,-292.428 1123.5,-284.45"/>
<polygon fill="midnightblue" stroke="midnightblue" points="1126.3,-286.564 1130.2,-276.714 1121,-281.981 1126.3,-286.564"/>
</g>
<!-- Node27 -->
<g id="node27" class="node"><title>Node27</title>
<g id="a_node27"><a xlink:href="../../d7/d5b/Voigtian_8hpp.html" target="_top" xlink:title="This file contains the declaration of the Voigtian class, which is used the implementation of voigt f...">
<polygon fill="white" stroke="black" points="1196.95,-369.5 1196.95,-388.5 1360.95,-388.5 1360.95,-369.5 1196.95,-369.5"/>
<text text-anchor="middle" x="1278.95" y="-376.5" font-family="Helvetica,sans-Serif" font-size="10.00">Physics/Dynamics/Voigtian.hpp</text>
</a>
</g>
</g>
<!-- Node1&#45;&gt;Node27 -->
<g id="edge57" class="edge"><title>Node1&#45;&gt;Node27</title>
<path fill="none" stroke="midnightblue" d="M1168.35,-425.498C1194.32,-414.813 1225.75,-401.885 1248.45,-392.545"/>
<polygon fill="midnightblue" stroke="midnightblue" points="1250,-395.694 1257.92,-388.652 1247.34,-389.22 1250,-395.694"/>
</g>
<!-- Node29 -->
<g id="node29" class="node"><title>Node29</title>
<g id="a_node29"><a xlink:href="../../d6/d8e/WignerD_8hpp.html" target="_top" xlink:title="Physics/HelicityFormalism\l/WignerD.hpp">
<polygon fill="white" stroke="black" points="1093.95,-190.5 1093.95,-220.5 1233.95,-220.5 1233.95,-190.5 1093.95,-190.5"/>
<text text-anchor="start" x="1101.95" y="-208.5" font-family="Helvetica,sans-Serif" font-size="10.00">Physics/HelicityFormalism</text>
<text text-anchor="middle" x="1163.95" y="-197.5" font-family="Helvetica,sans-Serif" font-size="10.00">/WignerD.hpp</text>
</a>
</g>
</g>
<!-- Node1&#45;&gt;Node29 -->
<g id="edge62" class="edge"><title>Node1&#45;&gt;Node29</title>
<path fill="none" stroke="midnightblue" d="M1099.37,-425.468C1062.85,-390.004 996.407,-313.476 1034.95,-257 1043.2,-244.908 1072.78,-232.896 1101.53,-223.623"/>
<polygon fill="midnightblue" stroke="midnightblue" points="1102.72,-226.918 1111.22,-220.587 1100.63,-220.238 1102.72,-226.918"/>
</g>
<!-- Node30 -->
<g id="node30" class="node"><title>Node30</title>
<g id="a_node30"><a xlink:href="../../d9/d6e/WignerD_8h.html" target="_top" xlink:title="Some utility functions. ">
<polygon fill="white" stroke="red" points="923.948,-129 923.948,-148 1021.95,-148 1021.95,-129 923.948,-129"/>
<text text-anchor="middle" x="972.948" y="-136" font-family="Helvetica,sans-Serif" font-size="10.00">qft++/WignerD.h</text>
</a>
</g>
</g>
<!-- Node1&#45;&gt;Node30 -->
<g id="edge68" class="edge"><title>Node1&#45;&gt;Node30</title>
<path fill="none" stroke="midnightblue" d="M1047.94,-434.208C986.284,-420.471 907.948,-390.027 907.948,-324 907.948,-324 907.948,-324 907.948,-266 907.948,-231.183 910.504,-220.689 926.948,-190 934.037,-176.77 945.36,-164.278 954.997,-155.029"/>
<polygon fill="midnightblue" stroke="midnightblue" points="957.569,-157.419 962.567,-148.076 952.834,-152.263 957.569,-157.419"/>
</g>
<!-- Node3 -->
<g id="node3" class="node"><title>Node3</title>
<polygon fill="white" stroke="#bfbfbf" points="549.448,-67.5 549.448,-86.5 606.448,-86.5 606.448,-67.5 549.448,-67.5"/>
<text text-anchor="middle" x="577.948" y="-74.5" font-family="Helvetica,sans-Serif" font-size="10.00">memory</text>
</g>
<!-- Node2&#45;&gt;Node3 -->
<g id="edge2" class="edge"><title>Node2&#45;&gt;Node3</title>
<path fill="none" stroke="midnightblue" d="M518.347,-195.805C528.714,-175.313 554.855,-123.645 568.82,-96.0416"/>
<polygon fill="midnightblue" stroke="midnightblue" points="572.127,-97.2588 573.518,-86.7557 565.881,-94.0987 572.127,-97.2588"/>
</g>
<!-- Node4 -->
<g id="node4" class="node"><title>Node4</title>
<polygon fill="white" stroke="#bfbfbf" points="186.448,-129 186.448,-148 227.448,-148 227.448,-129 186.448,-129"/>
<text text-anchor="middle" x="206.948" y="-136" font-family="Helvetica,sans-Serif" font-size="10.00">tuple</text>
</g>
<!-- Node2&#45;&gt;Node4 -->
<g id="edge3" class="edge"><title>Node2&#45;&gt;Node4</title>
<path fill="none" stroke="midnightblue" d="M468.897,-200.067C413.313,-193.744 316.418,-179.92 236.948,-154 235.322,-153.47 233.672,-152.869 232.024,-152.22"/>
<polygon fill="midnightblue" stroke="midnightblue" points="233.37,-148.988 222.809,-148.149 230.542,-155.392 233.37,-148.988"/>
</g>
<!-- Node5 -->
<g id="node5" class="node"><title>Node5</title>
<polygon fill="white" stroke="#bfbfbf" points="961.448,-6 961.448,-25 1008.45,-25 1008.45,-6 961.448,-6"/>
<text text-anchor="middle" x="984.948" y="-13" font-family="Helvetica,sans-Serif" font-size="10.00">vector</text>
</g>
<!-- Node2&#45;&gt;Node5 -->
<g id="edge4" class="edge"><title>Node2&#45;&gt;Node5</title>
<path fill="none" stroke="midnightblue" d="M559.116,-197.437C597.377,-190.216 652.877,-176.763 696.948,-154 716.313,-143.998 716.293,-134.272 734.948,-123 807.856,-78.9485 902.285,-44.0569 951.607,-27.3182"/>
<polygon fill="midnightblue" stroke="midnightblue" points="952.771,-30.6198 961.137,-24.1201 950.543,-23.9835 952.771,-30.6198"/>
</g>
<!-- Node6 -->
<g id="node6" class="node"><title>Node6</title>
<g id="a_node6"><a xlink:href="../../d4/d59/Function_8hpp.html" target="_top" xlink:title="Core/Function.hpp">
<polygon fill="white" stroke="red" points="44.448,-67.5 44.448,-86.5 147.448,-86.5 147.448,-67.5 44.448,-67.5"/>
<text text-anchor="middle" x="95.948" y="-74.5" font-family="Helvetica,sans-Serif" font-size="10.00">Core/Function.hpp</text>
</a>
</g>
</g>
<!-- Node2&#45;&gt;Node6 -->
<g id="edge5" class="edge"><title>Node2&#45;&gt;Node6</title>
<path fill="none" stroke="midnightblue" d="M468.574,-203.306C351.289,-199.755 45.0913,-187.348 14.948,-154 5.7091,-143.779 7.96089,-134.875 14.948,-123 23.8658,-107.844 39.9366,-97.4264 55.4256,-90.464"/>
<polygon fill="midnightblue" stroke="midnightblue" points="57.0039,-93.5996 64.9254,-86.5639 54.3454,-87.124 57.0039,-93.5996"/>
</g>
<!-- Node7 -->
<g id="node7" class="node"><title>Node7</title>
<g id="a_node7"><a xlink:href="../../d0/db0/FunctionTreeIntensity_8hpp.html" target="_top" xlink:title="Core/FunctionTree/Function\lTreeIntensity.hpp">
<polygon fill="white" stroke="red" points="23.948,-123.5 23.948,-153.5 167.948,-153.5 167.948,-123.5 23.948,-123.5"/>
<text text-anchor="start" x="31.948" y="-141.5" font-family="Helvetica,sans-Serif" font-size="10.00">Core/FunctionTree/Function</text>
<text text-anchor="middle" x="95.948" y="-130.5" font-family="Helvetica,sans-Serif" font-size="10.00">TreeIntensity.hpp</text>
</a>
</g>
</g>
<!-- Node2&#45;&gt;Node7 -->
<g id="edge7" class="edge"><title>Node2&#45;&gt;Node7</title>
<path fill="none" stroke="midnightblue" d="M468.913,-198.166C406.121,-189.243 288.449,-172.191 178.304,-154.198"/>
<polygon fill="midnightblue" stroke="midnightblue" points="178.789,-150.731 168.354,-152.567 177.656,-157.639 178.789,-150.731"/>
</g>
<!-- Node8 -->
<g id="node8" class="node"><title>Node8</title>
<g id="a_node8"><a xlink:href="../../de/dfd/Value_8hpp.html" target="_top" xlink:title="Template implementation of Parameter for simple values. ">
<polygon fill="white" stroke="red" points="245.948,-129 245.948,-148 397.948,-148 397.948,-129 245.948,-129"/>
<text text-anchor="middle" x="321.948" y="-136" font-family="Helvetica,sans-Serif" font-size="10.00">Core/FunctionTree/Value.hpp</text>
</a>
</g>
</g>
<!-- Node2&#45;&gt;Node8 -->
<g id="edge10" class="edge"><title>Node2&#45;&gt;Node8</title>
<path fill="none" stroke="midnightblue" d="M488.452,-195.869C454.648,-184.424 394.851,-164.181 356.869,-151.322"/>
<polygon fill="midnightblue" stroke="midnightblue" points="357.838,-147.955 347.244,-148.064 355.593,-154.586 357.838,-147.955"/>
</g>
<!-- Node2&#45;&gt;Node9 -->
<g id="edge11" class="edge"><title>Node2&#45;&gt;Node9</title>
<path fill="none" stroke="midnightblue" d="M530.149,-195.869C550.748,-184.893 586.539,-165.824 610.725,-152.938"/>
<polygon fill="midnightblue" stroke="midnightblue" points="612.501,-155.958 619.68,-148.167 609.209,-149.78 612.501,-155.958"/>
</g>
<!-- Node10 -->
<g id="node10" class="node"><title>Node10</title>
<g id="a_node10"><a xlink:href="../../d9/de5/ParticleStateTransitionKinematicsInfo_8hpp.html" target="_top" xlink:title="Physics/ParticleStateTransition\lKinematicsInfo.hpp">
<polygon fill="white" stroke="red" points="744.448,-123.5 744.448,-153.5 905.448,-153.5 905.448,-123.5 744.448,-123.5"/>
<text text-anchor="start" x="752.448" y="-141.5" font-family="Helvetica,sans-Serif" font-size="10.00">Physics/ParticleStateTransition</text>
<text text-anchor="middle" x="824.948" y="-130.5" font-family="Helvetica,sans-Serif" font-size="10.00">KinematicsInfo.hpp</text>
</a>
</g>
</g>
<!-- Node2&#45;&gt;Node10 -->
<g id="edge15" class="edge"><title>Node2&#45;&gt;Node10</title>
<path fill="none" stroke="midnightblue" d="M554.926,-195.936C603.83,-185.714 686.645,-168.406 747.696,-155.646"/>
<polygon fill="midnightblue" stroke="midnightblue" points="748.608,-159.031 757.68,-153.559 747.176,-152.179 748.608,-159.031"/>
</g>
<!-- Node14 -->
<g id="node14" class="node"><title>Node14</title>
<polygon fill="white" stroke="#bfbfbf" points="415.948,-123.5 415.948,-153.5 527.948,-153.5 527.948,-123.5 415.948,-123.5"/>
<text text-anchor="start" x="423.948" y="-141.5" font-family="Helvetica,sans-Serif" font-size="10.00">boost/property_tree</text>
<text text-anchor="middle" x="471.948" y="-130.5" font-family="Helvetica,sans-Serif" font-size="10.00">/ptree_fwd.hpp</text>
</g>
<!-- Node2&#45;&gt;Node14 -->
<g id="edge21" class="edge"><title>Node2&#45;&gt;Node14</title>
<path fill="none" stroke="midnightblue" d="M508.284,-195.734C502.717,-187.118 493.988,-173.61 486.481,-161.992"/>
<polygon fill="midnightblue" stroke="midnightblue" points="489.419,-160.089 481.052,-153.589 483.539,-163.888 489.419,-160.089"/>
</g>
<!-- Node6&#45;&gt;Node5 -->
<g id="edge6" class="edge"><title>Node6&#45;&gt;Node5</title>
<path fill="none" stroke="midnightblue" d="M147.587,-72.5438C311.212,-61.5926 815.376,-27.8493 951.036,-18.7697"/>
<polygon fill="midnightblue" stroke="midnightblue" points="951.489,-22.2473 961.233,-18.0872 951.022,-15.2629 951.489,-22.2473"/>
</g>
<!-- Node7&#45;&gt;Node3 -->
<g id="edge8" class="edge"><title>Node7&#45;&gt;Node3</title>
<path fill="none" stroke="midnightblue" d="M168.333,-124.3C171.24,-123.847 174.121,-123.411 176.948,-123 309.159,-103.769 466.927,-88.2172 538.802,-81.5354"/>
<polygon fill="midnightblue" stroke="midnightblue" points="539.541,-84.9821 549.177,-80.5772 538.898,-78.0118 539.541,-84.9821"/>
</g>
<!-- Node7&#45;&gt;Node6 -->
<g id="edge9" class="edge"><title>Node7&#45;&gt;Node6</title>
<path fill="none" stroke="midnightblue" d="M95.948,-123.399C95.948,-115.466 95.948,-105.458 95.948,-96.8583"/>
<polygon fill="midnightblue" stroke="midnightblue" points="99.4481,-96.6577 95.948,-86.6578 92.4481,-96.6578 99.4481,-96.6577"/>
</g>
<!-- Node9&#45;&gt;Node3 -->
<g id="edge12" class="edge"><title>Node9&#45;&gt;Node3</title>
<path fill="none" stroke="midnightblue" d="M627.638,-128.975C618.766,-119.873 604.502,-105.241 593.528,-93.983"/>
<polygon fill="midnightblue" stroke="midnightblue" points="595.729,-91.2268 586.243,-86.5091 590.717,-96.113 595.729,-91.2268"/>
</g>
<!-- Node9&#45;&gt;Node5 -->
<g id="edge13" class="edge"><title>Node9&#45;&gt;Node5</title>
<path fill="none" stroke="midnightblue" d="M641.264,-128.89C651.158,-113.673 673.954,-82.2016 701.948,-67 783.361,-22.791 895.501,-16.1425 951.004,-15.828"/>
<polygon fill="midnightblue" stroke="midnightblue" points="951.319,-19.3283 961.323,-15.8403 951.328,-12.3283 951.319,-19.3283"/>
</g>
<!-- Node9&#45;&gt;Node6 -->
<g id="edge14" class="edge"><title>Node9&#45;&gt;Node6</title>
<path fill="none" stroke="midnightblue" d="M583.856,-129.434C568.743,-127.212 552.204,-124.895 536.948,-123 401.91,-106.229 243.036,-91.1584 157.669,-83.4394"/>
<polygon fill="midnightblue" stroke="midnightblue" points="157.903,-79.9464 147.63,-82.5349 157.275,-86.9182 157.903,-79.9464"/>
</g>
<!-- Node10&#45;&gt;Node5 -->
<g id="edge16" class="edge"><title>Node10&#45;&gt;Node5</title>
<path fill="none" stroke="midnightblue" d="M843.615,-123.383C874.076,-100.347 934.187,-54.8881 965.282,-31.372"/>
<polygon fill="midnightblue" stroke="midnightblue" points="967.722,-33.9157 973.586,-25.0922 963.499,-28.3325 967.722,-33.9157"/>
</g>
<!-- Node10&#45;&gt;Node11 -->
<g id="edge17" class="edge"><title>Node10&#45;&gt;Node11</title>
<path fill="none" stroke="midnightblue" d="M905.851,-124.093C908.92,-123.703 911.96,-123.337 914.948,-123 1161.02,-95.2748 1224.03,-105.779 1470.95,-87 1482.83,-86.0961 1495.48,-85.0555 1507.7,-84.01"/>
<polygon fill="midnightblue" stroke="midnightblue" points="1508.18,-87.4821 1517.84,-83.1335 1507.57,-80.5082 1508.18,-87.4821"/>
</g>
<!-- Node11&#45;&gt;Node5 -->
<g id="edge20" class="edge"><title>Node11&#45;&gt;Node5</title>
<path fill="none" stroke="midnightblue" d="M1517.8,-68.6264C1513.12,-68.0583 1508.45,-67.5086 1503.95,-67 1321.03,-46.3468 1101.26,-26.6427 1018.58,-19.4099"/>
<polygon fill="midnightblue" stroke="midnightblue" points="1018.78,-15.9141 1008.51,-18.5317 1018.17,-22.8876 1018.78,-15.9141"/>
</g>
<!-- Node11&#45;&gt;Node12 -->
<g id="edge18" class="edge"><title>Node11&#45;&gt;Node12</title>
<path fill="none" stroke="midnightblue" d="M1583.12,-67.4751C1593.1,-58.1966 1609.26,-43.1706 1621.46,-31.831"/>
<polygon fill="midnightblue" stroke="midnightblue" points="1623.85,-34.3814 1628.8,-25.0091 1619.09,-29.2547 1623.85,-34.3814"/>
</g>
<!-- Node11&#45;&gt;Node13 -->
<g id="edge19" class="edge"><title>Node11&#45;&gt;Node13</title>
<path fill="none" stroke="midnightblue" d="M1564.21,-67.4751C1555.25,-59.6426 1541.62,-47.7145 1529.79,-37.3656"/>
<polygon fill="midnightblue" stroke="midnightblue" points="1531.8,-34.474 1521.97,-30.523 1527.2,-39.7421 1531.8,-34.474"/>
</g>
<!-- Node16&#45;&gt;Node5 -->
<g id="edge27" class="edge"><title>Node16&#45;&gt;Node5</title>
<path fill="none" stroke="midnightblue" d="M1016.95,-190.358C1028.73,-173.37 1044.05,-144.477 1030.95,-123 1012.73,-93.1366 979.171,-116.863 960.948,-87 950.686,-70.1826 961.143,-48.4084 971.29,-33.5361"/>
<polygon fill="midnightblue" stroke="midnightblue" points="974.264,-35.4003 977.38,-25.274 968.629,-31.2469 974.264,-35.4003"/>
</g>
<!-- Node16&#45;&gt;Node10 -->
<g id="edge30" class="edge"><title>Node16&#45;&gt;Node10</title>
<path fill="none" stroke="midnightblue" d="M966.674,-190.396C939.397,-180.601 902.864,-167.481 873.721,-157.015"/>
<polygon fill="midnightblue" stroke="midnightblue" points="874.74,-153.662 864.146,-153.577 872.374,-160.25 874.74,-153.662"/>
</g>
<!-- Node17 -->
<g id="node17" class="node"><title>Node17</title>
<g id="a_node17"><a xlink:href="../../d4/d37/Kinematics_8hpp.html" target="_top" xlink:title="Core/Kinematics.hpp">
<polygon fill="white" stroke="red" points="969.948,-67.5 969.948,-86.5 1085.95,-86.5 1085.95,-67.5 969.948,-67.5"/>
<text text-anchor="middle" x="1027.95" y="-74.5" font-family="Helvetica,sans-Serif" font-size="10.00">Core/Kinematics.hpp</text>
</a>
</g>
</g>
<!-- Node16&#45;&gt;Node17 -->
<g id="edge28" class="edge"><title>Node16&#45;&gt;Node17</title>
<path fill="none" stroke="midnightblue" d="M1030.54,-190.295C1043.04,-181.585 1057.03,-169.189 1063.95,-154 1069.66,-141.46 1068.51,-136.001 1063.95,-123 1060.16,-112.209 1052.58,-102.084 1045.35,-94.1808"/>
<polygon fill="midnightblue" stroke="midnightblue" points="1047.62,-91.4943 1038.11,-86.8145 1042.62,-96.4005 1047.62,-91.4943"/>
</g>
<!-- Node18 -->
<g id="node18" class="node"><title>Node18</title>
<g id="a_node18"><a xlink:href="../../dd/df5/SubSystem_8hpp.html" target="_top" xlink:title="Contains SubSystem class. ">
<polygon fill="white" stroke="black" points="1104.45,-67.5 1104.45,-86.5 1235.45,-86.5 1235.45,-67.5 1104.45,-67.5"/>
<text text-anchor="middle" x="1169.95" y="-74.5" font-family="Helvetica,sans-Serif" font-size="10.00">Physics/SubSystem.hpp</text>
</a>
</g>
</g>
<!-- Node16&#45;&gt;Node18 -->
<g id="edge31" class="edge"><title>Node16&#45;&gt;Node18</title>
<path fill="none" stroke="midnightblue" d="M1027.73,-190.483C1042.69,-180.65 1062.86,-166.991 1079.95,-154 1106.11,-134.109 1134.89,-109.242 1152.69,-93.4848"/>
<polygon fill="midnightblue" stroke="midnightblue" points="1155.35,-95.8063 1160.49,-86.5429 1150.7,-90.5779 1155.35,-95.8063"/>
</g>
<!-- Node17&#45;&gt;Node5 -->
<g id="edge29" class="edge"><title>Node17&#45;&gt;Node5</title>
<path fill="none" stroke="midnightblue" d="M1021.79,-67.4751C1015.34,-58.5501 1005.04,-44.3071 996.975,-33.1425"/>
<polygon fill="midnightblue" stroke="midnightblue" points="999.792,-31.064 991.097,-25.0091 994.118,-35.1642 999.792,-31.064"/>
</g>
<!-- Node18&#45;&gt;Node5 -->
<g id="edge33" class="edge"><title>Node18&#45;&gt;Node5</title>
<path fill="none" stroke="midnightblue" d="M1143.44,-67.4751C1110.38,-56.8425 1053.86,-38.6624 1018,-27.1311"/>
<polygon fill="midnightblue" stroke="midnightblue" points="1019.07,-23.7968 1008.48,-24.0669 1016.92,-30.4606 1019.07,-23.7968"/>
</g>
<!-- Node18&#45;&gt;Node13 -->
<g id="edge32" class="edge"><title>Node18&#45;&gt;Node13</title>
<path fill="none" stroke="midnightblue" d="M1218.09,-67.4751C1276.22,-57.1808 1374.31,-39.8118 1439.59,-28.2517"/>
<polygon fill="midnightblue" stroke="midnightblue" points="1440.53,-31.6384 1449.77,-26.4482 1439.31,-24.7456 1440.53,-31.6384"/>
</g>
<!-- Node19&#45;&gt;Node6 -->
<g id="edge35" class="edge"><title>Node19&#45;&gt;Node6</title>
<path fill="none" stroke="midnightblue" d="M157.784,-313.463C123.564,-291.892 36.8593,-231.367 4.94798,-154 -0.30554,-141.263 -2.32122,-134.704 4.94798,-123 14.6646,-107.355 31.6101,-96.9849 48.2645,-90.1896"/>
<polygon fill="midnightblue" stroke="midnightblue" points="49.8194,-93.346 57.9798,-86.5889 47.3867,-86.7823 49.8194,-93.346"/>
</g>
<!-- Node21 -->
<g id="node21" class="node"><title>Node21</title>
<g id="a_node21"><a xlink:href="../../d1/dba/Coupling_8hpp.html" target="_top" xlink:title="Coupling.hpp">
<polygon fill="white" stroke="red" points="1518.45,-257.5 1518.45,-276.5 1597.45,-276.5 1597.45,-257.5 1518.45,-257.5"/>
<text text-anchor="middle" x="1557.95" y="-264.5" font-family="Helvetica,sans-Serif" font-size="10.00">Coupling.hpp</text>
</a>
</g>
</g>
<!-- Node20&#45;&gt;Node21 -->
<g id="edge37" class="edge"><title>Node20&#45;&gt;Node21</title>
<path fill="none" stroke="midnightblue" d="M1512.79,-369.368C1520.77,-351.456 1539.27,-309.923 1549.95,-285.948"/>
<polygon fill="midnightblue" stroke="midnightblue" points="1553.25,-287.15 1554.12,-276.591 1546.85,-284.302 1553.25,-287.15"/>
</g>
<!-- Node20&#45;&gt;Node22 -->
<g id="edge47" class="edge"><title>Node20&#45;&gt;Node22</title>
<path fill="none" stroke="midnightblue" d="M1508.49,-369.188C1507.53,-356.301 1504.63,-331.806 1495.95,-313 1479.2,-276.735 1447.77,-241.77 1428.46,-222.304"/>
<polygon fill="midnightblue" stroke="midnightblue" points="1430.82,-219.713 1421.24,-215.178 1425.9,-224.695 1430.82,-219.713"/>
</g>
<!-- Node20&#45;&gt;Node25 -->
<g id="edge48" class="edge"><title>Node20&#45;&gt;Node25</title>
<path fill="none" stroke="midnightblue" d="M1494.01,-369.324C1479.36,-360.822 1456.81,-347.729 1439.71,-337.797"/>
<polygon fill="midnightblue" stroke="midnightblue" points="1441.26,-334.649 1430.85,-332.655 1437.74,-340.703 1441.26,-334.649"/>
</g>
<!-- Node21&#45;&gt;Node11 -->
<g id="edge38" class="edge"><title>Node21&#45;&gt;Node11</title>
<path fill="none" stroke="midnightblue" d="M1558.68,-257.434C1561.1,-228.928 1568.94,-136.822 1572.35,-96.8263"/>
<polygon fill="midnightblue" stroke="midnightblue" points="1575.85,-96.8776 1573.21,-86.6168 1568.88,-96.284 1575.85,-96.8776"/>
</g>
<!-- Node21&#45;&gt;Node22 -->
<g id="edge39" class="edge"><title>Node21&#45;&gt;Node22</title>
<path fill="none" stroke="midnightblue" d="M1537.03,-257.475C1512.2,-247.357 1470.6,-230.405 1442.25,-218.851"/>
<polygon fill="midnightblue" stroke="midnightblue" points="1443.41,-215.542 1432.83,-215.009 1440.77,-222.024 1443.41,-215.542"/>
</g>
<!-- Node23 -->
<g id="node23" class="node"><title>Node23</title>
<g id="a_node23"><a xlink:href="../../da/db2/FunctionTree_8hpp.html" target="_top" xlink:title="FunctionTree class. ">
<polygon fill="white" stroke="red" points="1191.95,-123.5 1191.95,-153.5 1335.95,-153.5 1335.95,-123.5 1191.95,-123.5"/>
<text text-anchor="start" x="1199.95" y="-141.5" font-family="Helvetica,sans-Serif" font-size="10.00">Core/FunctionTree/Function</text>
<text text-anchor="middle" x="1263.95" y="-130.5" font-family="Helvetica,sans-Serif" font-size="10.00">Tree.hpp</text>
</a>
</g>
</g>
<!-- Node22&#45;&gt;Node23 -->
<g id="edge40" class="edge"><title>Node22&#45;&gt;Node23</title>
<path fill="none" stroke="midnightblue" d="M1392.29,-195.869C1370.18,-186.157 1333.64,-170.109 1305.19,-157.615"/>
<polygon fill="midnightblue" stroke="midnightblue" points="1306.45,-154.345 1295.89,-153.528 1303.64,-160.754 1306.45,-154.345"/>
</g>
<!-- Node24 -->
<g id="node24" class="node"><title>Node24</title>
<g id="a_node24"><a xlink:href="../../dc/d66/Functions_8hpp.html" target="_top" xlink:title="This file contains Functions implementing the Strategy interface so they can be used inside a node of...">
<polygon fill="white" stroke="red" points="1291.95,-67.5 1291.95,-86.5 1461.95,-86.5 1461.95,-67.5 1291.95,-67.5"/>
<text text-anchor="middle" x="1376.95" y="-74.5" font-family="Helvetica,sans-Serif" font-size="10.00">Core/FunctionTree/Functions.hpp</text>
</a>
</g>
</g>
<!-- Node22&#45;&gt;Node24 -->
<g id="edge46" class="edge"><title>Node22&#45;&gt;Node24</title>
<path fill="none" stroke="midnightblue" d="M1409.54,-195.805C1403.9,-175.404 1389.7,-124.1 1382.04,-96.4078"/>
<polygon fill="midnightblue" stroke="midnightblue" points="1385.41,-95.4603 1379.37,-86.7557 1378.66,-97.3269 1385.41,-95.4603"/>
</g>
<!-- Node23&#45;&gt;Node3 -->
<g id="edge41" class="edge"><title>Node23&#45;&gt;Node3</title>
<path fill="none" stroke="midnightblue" d="M1191.83,-131.245C1047.53,-118.729 727.629,-90.9826 616.713,-81.3623"/>
<polygon fill="midnightblue" stroke="midnightblue" points="616.909,-77.8663 606.644,-80.489 616.305,-84.8401 616.909,-77.8663"/>
</g>
<!-- Node23&#45;&gt;Node5 -->
<g id="edge42" class="edge"><title>Node23&#45;&gt;Node5</title>
<path fill="none" stroke="midnightblue" d="M1264.28,-123.38C1263.85,-107.338 1260.53,-81.5115 1244.95,-67 1212.5,-36.788 1081.4,-23.4367 1018.69,-18.6878"/>
<polygon fill="midnightblue" stroke="midnightblue" points="1018.75,-15.1833 1008.52,-17.9484 1018.24,-22.1648 1018.75,-15.1833"/>
</g>
<!-- Node23&#45;&gt;Node24 -->
<g id="edge43" class="edge"><title>Node23&#45;&gt;Node24</title>
<path fill="none" stroke="midnightblue" d="M1290.73,-123.399C1309.01,-113.773 1333.1,-101.09 1351.16,-91.5772"/>
<polygon fill="midnightblue" stroke="midnightblue" points="1353.29,-94.4138 1360.51,-86.6578 1350.03,-88.22 1353.29,-94.4138"/>
</g>
<!-- Node24&#45;&gt;Node5 -->
<g id="edge44" class="edge"><title>Node24&#45;&gt;Node5</title>
<path fill="none" stroke="midnightblue" d="M1320.78,-67.4751C1238.19,-54.9389 1086.48,-31.9111 1018.93,-21.6587"/>
<polygon fill="midnightblue" stroke="midnightblue" points="1019.25,-18.1669 1008.84,-20.1265 1018.2,-25.0876 1019.25,-18.1669"/>
</g>
<!-- Node24&#45;&gt;Node12 -->
<g id="edge45" class="edge"><title>Node24&#45;&gt;Node12</title>
<path fill="none" stroke="midnightblue" d="M1414.34,-67.4751C1460.76,-56.8932 1539.97,-38.8356 1590.59,-27.2966"/>
<polygon fill="midnightblue" stroke="midnightblue" points="1591.65,-30.6443 1600.62,-25.0091 1590.09,-23.8194 1591.65,-30.6443"/>
</g>
<!-- Node25&#45;&gt;Node5 -->
<g id="edge52" class="edge"><title>Node25&#45;&gt;Node5</title>
<path fill="none" stroke="midnightblue" d="M1426.55,-313.362C1447.01,-295.646 1489.95,-252.939 1489.95,-206.5 1489.95,-206.5 1489.95,-206.5 1489.95,-137.5 1489.95,-105.049 1495.65,-88.0429 1470.95,-67 1436.57,-37.7173 1123.14,-22.2092 1018.66,-17.8204"/>
<polygon fill="midnightblue" stroke="midnightblue" points="1018.79,-14.3229 1008.65,-17.4074 1018.5,-21.3169 1018.79,-14.3229"/>
</g>
<!-- Node25&#45;&gt;Node21 -->
<g id="edge50" class="edge"><title>Node25&#45;&gt;Node21</title>
<path fill="none" stroke="midnightblue" d="M1438.45,-313.444C1462.03,-304.478 1499.27,-290.314 1525.91,-280.183"/>
<polygon fill="midnightblue" stroke="midnightblue" points="1527.45,-283.342 1535.55,-276.516 1524.96,-276.8 1527.45,-283.342"/>
</g>
<!-- Node25&#45;&gt;Node22 -->
<g id="edge51" class="edge"><title>Node25&#45;&gt;Node22</title>
<path fill="none" stroke="midnightblue" d="M1415.65,-313.319C1415,-294.757 1413.48,-250.839 1412.61,-225.473"/>
<polygon fill="midnightblue" stroke="midnightblue" points="1416.1,-225.155 1412.25,-215.282 1409.1,-225.397 1416.1,-225.155"/>
</g>
<!-- Node25&#45;&gt;Node23 -->
<g id="edge49" class="edge"><title>Node25&#45;&gt;Node23</title>
<path fill="none" stroke="midnightblue" d="M1408.62,-313.198C1385.86,-285.877 1315.96,-201.95 1282.36,-161.606"/>
<polygon fill="midnightblue" stroke="midnightblue" points="1284.86,-159.139 1275.77,-153.695 1279.48,-163.619 1284.86,-159.139"/>
</g>
<!-- Node26&#45;&gt;Node23 -->
<g id="edge55" class="edge"><title>Node26&#45;&gt;Node23</title>
<path fill="none" stroke="midnightblue" d="M1179.96,-257.472C1201.6,-250.949 1226.9,-239.767 1242.95,-221 1256.55,-205.088 1261.5,-181.461 1263.23,-163.738"/>
<polygon fill="midnightblue" stroke="midnightblue" points="1266.73,-163.806 1263.94,-153.587 1259.75,-163.32 1266.73,-163.806"/>
</g>
<!-- Node27&#45;&gt;Node22 -->
<g id="edge59" class="edge"><title>Node27&#45;&gt;Node22</title>
<path fill="none" stroke="midnightblue" d="M1285.73,-369.26C1306.81,-342.076 1371.46,-258.708 1399.15,-223.006"/>
<polygon fill="midnightblue" stroke="midnightblue" points="1401.98,-225.066 1405.34,-215.019 1396.45,-220.777 1401.98,-225.066"/>
</g>
<!-- Node27&#45;&gt;Node24 -->
<g id="edge58" class="edge"><title>Node27&#45;&gt;Node24</title>
<path fill="none" stroke="midnightblue" d="M1281.78,-369.345C1295.16,-328.37 1352.29,-153.486 1370.99,-96.2276"/>
<polygon fill="midnightblue" stroke="midnightblue" points="1374.33,-97.2825 1374.11,-86.69 1367.68,-95.1088 1374.33,-97.2825"/>
</g>
<!-- Node27&#45;&gt;Node25 -->
<g id="edge60" class="edge"><title>Node27&#45;&gt;Node25</title>
<path fill="none" stroke="midnightblue" d="M1300.66,-369.444C1323.3,-360.517 1359.02,-346.439 1384.7,-336.317"/>
<polygon fill="midnightblue" stroke="midnightblue" points="1386.32,-339.44 1394.34,-332.516 1383.75,-332.927 1386.32,-339.44"/>
</g>
<!-- Node28 -->
<g id="node28" class="node"><title>Node28</title>
<g id="a_node28"><a xlink:href="../../d2/d7d/Faddeeva_8hh.html" target="_top" xlink:title="This file contains the declaration of the Faddeeva package, which is used only in the Voigtian class ...">
<polygon fill="white" stroke="red" points="1149.45,-313.5 1149.45,-332.5 1250.45,-332.5 1250.45,-313.5 1149.45,-313.5"/>
<text text-anchor="middle" x="1199.95" y="-320.5" font-family="Helvetica,sans-Serif" font-size="10.00">Utils/Faddeeva.hh</text>
</a>
</g>
</g>
<!-- Node27&#45;&gt;Node28 -->
<g id="edge61" class="edge"><title>Node27&#45;&gt;Node28</title>
<path fill="none" stroke="midnightblue" d="M1266.26,-369.324C1254.05,-360.979 1235.37,-348.212 1220.95,-338.352"/>
<polygon fill="midnightblue" stroke="midnightblue" points="1222.84,-335.408 1212.61,-332.655 1218.89,-341.187 1222.84,-335.408"/>
</g>
<!-- Node29&#45;&gt;Node23 -->
<g id="edge63" class="edge"><title>Node29&#45;&gt;Node23</title>
<path fill="none" stroke="midnightblue" d="M1185.65,-190.396C1199.67,-181.282 1218.12,-169.29 1233.58,-159.236"/>
<polygon fill="midnightblue" stroke="midnightblue" points="1235.81,-161.961 1242.29,-153.577 1232,-156.092 1235.81,-161.961"/>
</g>
<!-- Node29&#45;&gt;Node24 -->
<g id="edge64" class="edge"><title>Node29&#45;&gt;Node24</title>
<path fill="none" stroke="midnightblue" d="M1163.04,-190.27C1162.71,-172.096 1165.06,-140.866 1182.95,-123 1199.13,-106.837 1250.39,-95.3622 1296.16,-88.046"/>
<polygon fill="midnightblue" stroke="midnightblue" points="1296.78,-91.4914 1306.13,-86.5025 1295.71,-84.5738 1296.78,-91.4914"/>
</g>
<!-- Node29&#45;&gt;Node30 -->
<g id="edge65" class="edge"><title>Node29&#45;&gt;Node30</title>
<path fill="none" stroke="midnightblue" d="M1122.5,-190.396C1088.1,-178.688 1039.74,-162.231 1007.43,-151.234"/>
<polygon fill="midnightblue" stroke="midnightblue" points="1008.54,-147.915 997.945,-148.007 1006.28,-154.542 1008.54,-147.915"/>
</g>
<!-- Node30&#45;&gt;Node5 -->
<g id="edge66" class="edge"><title>Node30&#45;&gt;Node5</title>
<path fill="none" stroke="midnightblue" d="M960.568,-128.851C943.826,-116.006 917.221,-90.8342 927.948,-67 934.716,-51.9626 948.419,-39.5905 960.694,-30.8561"/>
<polygon fill="midnightblue" stroke="midnightblue" points="962.875,-33.6085 969.259,-25.153 958.996,-27.7819 962.875,-33.6085"/>
</g>
</g>
</svg>
        <g id="navigator" transform="translate(0 0)" fill="#404254">
                <rect fill="#f2f5e9" fill-opacity="0.5" stroke="#606060" stroke-width=".5" x="0" y="0" width="60" height="60"/>
                <use id="zoomplus" xlink:href="#zoomPlus" x="17" y="9" onmousedown="handleZoom(evt,'in')"/>
                <use id="zoomminus" xlink:href="#zoomMin" x="42" y="9" onmousedown="handleZoom(evt,'out')"/>
                <use id="reset" xlink:href="#resetDef" x="30" y="36" onmousedown="handleReset()"/>
                <g id="arrowUp" xlink:href="#dirArrow" transform="translate(30 24)" onmousedown="handlePan(0,-1)">
                  <use xlink:href="#rim" fill="#404040">
                        <set attributeName="fill" to="#808080" begin="arrowUp.mouseover" end="arrowUp.mouseout"/>
                  </use>
                  <path fill="none" stroke="white" stroke-width="1.5" d="M0,-3.0v7 M-2.5,-0.5L0,-3.0L2.5,-0.5"/>
                </g>
                <g id="arrowRight" xlink:href="#dirArrow" transform="rotate(90) translate(36 -43)" onmousedown="handlePan(1,0)">
                  <use xlink:href="#rim" fill="#404040">
                        <set attributeName="fill" to="#808080" begin="arrowRight.mouseover" end="arrowRight.mouseout"/>
                  </use>
                  <path fill="none" stroke="white" stroke-width="1.5" d="M0,-3.0v7 M-2.5,-0.5L0,-3.0L2.5,-0.5"/>
                </g>
                <g id="arrowDown" xlink:href="#dirArrow" transform="rotate(180) translate(-30 -48)" onmousedown="handlePan(0,1)">
                  <use xlink:href="#rim" fill="#404040">
                        <set attributeName="fill" to="#808080" begin="arrowDown.mouseover" end="arrowDown.mouseout"/>
                  </use>
                  <path fill="none" stroke="white" stroke-width="1.5" d="M0,-3.0v7 M-2.5,-0.5L0,-3.0L2.5,-0.5"/>
                </g>
                <g id="arrowLeft" xlink:href="#dirArrow" transform="rotate(270) translate(-36 17)" onmousedown="handlePan(-1,0)">
                  <use xlink:href="#rim" fill="#404040">
                        <set attributeName="fill" to="#808080" begin="arrowLeft.mouseover" end="arrowLeft.mouseout"/>
                  </use>
                  <path fill="none" stroke="white" stroke-width="1.5" d="M0,-3.0v7 M-2.5,-0.5L0,-3.0L2.5,-0.5"/>
                </g>
        </g>
        <svg viewBox="0 0 15 15" width="100%" height="30px" preserveAspectRatio="xMaxYMin meet">
         <g id="arrow_out" transform="scale(0.3 0.3)">
          <a xlink:href="BuilderXML_8cpp__incl_org.svg" target="_base">
           <rect id="button" ry="5" rx="5" y="6" x="6" height="38" width="38"
                fill="#f2f5e9" fill-opacity="0.5" stroke="#606060" stroke-width="1.0"/>
           <path id="arrow"
             d="M 11.500037,31.436501 C 11.940474,20.09759 22.043105,11.32322 32.158766,21.979434 L 37.068811,17.246167 C 37.068811,17.246167 37.088388,32 37.088388,32 L 22.160133,31.978069 C 22.160133,31.978069 26.997745,27.140456 26.997745,27.140456 C 18.528582,18.264221 13.291696,25.230495 11.500037,31.436501 z"
             style="fill:#404040;"/>
          </a>
         </g>
        </svg>
</svg>
