<?xml version="1.0" encoding="UTF-8" standalone="no"?>
<!DOCTYPE svg PUBLIC "-//W3C//DTD SVG 1.1//EN"
 "http://www.w3.org/Graphics/SVG/1.1/DTD/svg11.dtd">
<!-- Generated by graphviz version 2.38.0 (20140413.2041)
 -->
<!-- Title: inc_functor&lt; OutputType &gt; Pages: 1 -->
<svg width="190pt" height="398pt"
 viewBox="0.00 0.00 190.00 398.00" xmlns="http://www.w3.org/2000/svg" xmlns:xlink="http://www.w3.org/1999/xlink">
<g id="graph0" class="graph" transform="scale(1 1) rotate(0) translate(4 394)">
<title>inc_functor&lt; OutputType &gt;</title>
<polygon fill="white" stroke="none" points="-4,4 -4,-394 186,-394 186,4 -4,4"/>
<!-- Node1 -->
<g id="node1" class="node"><title>Node1</title>
<polygon fill="#bfbfbf" stroke="black" points="0,-0.5 0,-167.5 146,-167.5 146,-0.5 0,-0.5"/>
<text text-anchor="middle" x="73" y="-155.5" font-family="Helvetica,sans-Serif" font-size="10.00">inc_functor&lt; OutputType &gt;</text>
<polyline fill="none" stroke="black" points="0,-148.5 146,-148.5 "/>
<text text-anchor="middle" x="73" y="-136.5" font-family="Helvetica,sans-Serif" font-size="10.00"> </text>
<polyline fill="none" stroke="black" points="0,-129.5 146,-129.5 "/>
<text text-anchor="start" x="8" y="-117.5" font-family="Helvetica,sans-Serif" font-size="10.00">+ inc_functor()</text>
<text text-anchor="start" x="8" y="-106.5" font-family="Helvetica,sans-Serif" font-size="10.00">+ inc_functor()</text>
<text text-anchor="start" x="8" y="-95.5" font-family="Helvetica,sans-Serif" font-size="10.00">+ operator=()</text>
<text text-anchor="start" x="8" y="-84.5" font-family="Helvetica,sans-Serif" font-size="10.00">+ operator()()</text>
<text text-anchor="start" x="8" y="-73.5" font-family="Helvetica,sans-Serif" font-size="10.00">+ inc_functor()</text>
<text text-anchor="start" x="8" y="-62.5" font-family="Helvetica,sans-Serif" font-size="10.00">+ inc_functor()</text>
<text text-anchor="start" x="8" y="-51.5" font-family="Helvetica,sans-Serif" font-size="10.00">+ operator=()</text>
<text text-anchor="start" x="8" y="-40.5" font-family="Helvetica,sans-Serif" font-size="10.00">+ operator()()</text>
<text text-anchor="start" x="8" y="-29.5" font-family="Helvetica,sans-Serif" font-size="10.00">+ inc_functor()</text>
<text text-anchor="start" x="8" y="-18.5" font-family="Helvetica,sans-Serif" font-size="10.00">+ inc_functor()</text>
<text text-anchor="start" x="8" y="-7.5" font-family="Helvetica,sans-Serif" font-size="10.00">+ operator()()</text>
</g>
<!-- Node2 -->
<g id="node2" class="node"><title>Node2</title>
<g id="a_node2"><a xlink:href="../../d4/d32/structtbb_1_1atomic.html" target="_top" xlink:title="{tbb::atomic\&lt; size_t \&gt;\n||+ operator=()\l+ operator=()\l}">
<polygon fill="white" stroke="black" points="12,-215.5 12,-283.5 134,-283.5 134,-215.5 12,-215.5"/>
<text text-anchor="middle" x="73" y="-271.5" font-family="Helvetica,sans-Serif" font-size="10.00">tbb::atomic&lt; size_t &gt;</text>
<polyline fill="none" stroke="black" points="12,-264.5 134,-264.5 "/>
<text text-anchor="middle" x="73" y="-252.5" font-family="Helvetica,sans-Serif" font-size="10.00"> </text>
<polyline fill="none" stroke="black" points="12,-245.5 134,-245.5 "/>
<text text-anchor="start" x="20" y="-233.5" font-family="Helvetica,sans-Serif" font-size="10.00">+ operator=()</text>
<text text-anchor="start" x="20" y="-222.5" font-family="Helvetica,sans-Serif" font-size="10.00">+ operator=()</text>
</a>
</g>
</g>
<!-- Node2&#45;&gt;Node1 -->
<g id="edge1" class="edge"><title>Node2&#45;&gt;Node1</title>
<path fill="none" stroke="#404040" d="M73,-215.413C73,-204.877 73,-192.646 73,-179.979"/>
<polygon fill="none" stroke="#404040" points="73.0001,-179.742 69,-173.742 73,-167.742 77,-173.742 73.0001,-179.742"/>
<text text-anchor="middle" x="127.5" y="-189" font-family="Helvetica,sans-Serif" font-size="10.00"> +local_execute_count</text>
</g>
<!-- Node3 -->
<g id="node3" class="node"><title>Node3</title>
<polygon fill="white" stroke="#bfbfbf" points="14.5,-321.5 14.5,-389.5 131.5,-389.5 131.5,-321.5 14.5,-321.5"/>
<text text-anchor="start" x="22.5" y="-377.5" font-family="Helvetica,sans-Serif" font-size="10.00">internal::atomic_impl</text>
<text text-anchor="middle" x="73" y="-366.5" font-family="Helvetica,sans-Serif" font-size="10.00">&lt; size_t &gt;</text>
<polyline fill="none" stroke="#bfbfbf" points="14.5,-359.5 131.5,-359.5 "/>
<text text-anchor="middle" x="73" y="-347.5" font-family="Helvetica,sans-Serif" font-size="10.00"> </text>
<polyline fill="none" stroke="#bfbfbf" points="14.5,-340.5 131.5,-340.5 "/>
<text text-anchor="middle" x="73" y="-328.5" font-family="Helvetica,sans-Serif" font-size="10.00"> </text>
</g>
<!-- Node3&#45;&gt;Node2 -->
<g id="edge2" class="edge"><title>Node3&#45;&gt;Node2</title>
<path fill="none" stroke="midnightblue" d="M73,-311.174C73,-302.002 73,-292.461 73,-283.734"/>
<polygon fill="none" stroke="midnightblue" points="69.5001,-311.308 73,-321.308 76.5001,-311.308 69.5001,-311.308"/>
</g>
</g>
</svg>
