<?xml version="1.0" encoding="UTF-8" standalone="no"?>
<!DOCTYPE svg PUBLIC "-//W3C//DTD SVG 1.1//EN"
 "http://www.w3.org/Graphics/SVG/1.1/DTD/svg11.dtd">
<!-- Generated by graphviz version 2.38.0 (20140413.2041)
 -->
<!-- Title: /home/travis/build/ComPWA/ComPWA/ThirdParty/tbb/examples/parallel_for/tachyon/src/jpeg.cpp Pages: 1 -->
<svg width="497pt" height="229pt"
 viewBox="0.00 0.00 497.00 229.00" xmlns="http://www.w3.org/2000/svg" xmlns:xlink="http://www.w3.org/1999/xlink">
<g id="graph0" class="graph" transform="scale(1 1) rotate(0) translate(4 225)">
<title>/home/travis/build/ComPWA/ComPWA/ThirdParty/tbb/examples/parallel_for/tachyon/src/jpeg.cpp</title>
<polygon fill="white" stroke="none" points="-4,4 -4,-225 493,-225 493,4 -4,4"/>
<!-- Node1 -->
<g id="node1" class="node"><title>Node1</title>
<polygon fill="#bfbfbf" stroke="black" points="141.5,-168.5 141.5,-220.5 299.5,-220.5 299.5,-168.5 141.5,-168.5"/>
<text text-anchor="start" x="149.5" y="-208.5" font-family="Helvetica,sans-Serif" font-size="10.00">/home/travis/build</text>
<text text-anchor="start" x="149.5" y="-197.5" font-family="Helvetica,sans-Serif" font-size="10.00">/ComPWA/ComPWA/ThirdParty</text>
<text text-anchor="start" x="149.5" y="-186.5" font-family="Helvetica,sans-Serif" font-size="10.00">/tbb/examples/parallel_for</text>
<text text-anchor="middle" x="220.5" y="-175.5" font-family="Helvetica,sans-Serif" font-size="10.00">/tachyon/src/jpeg.cpp</text>
</g>
<!-- Node2 -->
<g id="node2" class="node"><title>Node2</title>
<polygon fill="white" stroke="#bfbfbf" points="0,-0.5 0,-19.5 49,-19.5 49,-0.5 0,-0.5"/>
<text text-anchor="middle" x="24.5" y="-7.5" font-family="Helvetica,sans-Serif" font-size="10.00">stdio.h</text>
</g>
<!-- Node1&#45;&gt;Node2 -->
<g id="edge1" class="edge"><title>Node1&#45;&gt;Node2</title>
<path fill="none" stroke="midnightblue" d="M156.927,-168.352C137.749,-158.828 117.549,-146.67 101.5,-132 68.5476,-101.879 43.9827,-54.5962 32.2206,-28.9662"/>
<polygon fill="midnightblue" stroke="midnightblue" points="35.3634,-27.4199 28.0996,-19.7071 28.9682,-30.2663 35.3634,-27.4199"/>
</g>
<!-- Node3 -->
<g id="node3" class="node"><title>Node3</title>
<g id="a_node3"><a xlink:href="../../da/d8f/machine_8h.html" target="_top" xlink:title="machine.h">
<polygon fill="white" stroke="black" points="169,-56.5 169,-75.5 236,-75.5 236,-56.5 169,-56.5"/>
<text text-anchor="middle" x="202.5" y="-63.5" font-family="Helvetica,sans-Serif" font-size="10.00">machine.h</text>
</a>
</g>
</g>
<!-- Node1&#45;&gt;Node3 -->
<g id="edge2" class="edge"><title>Node1&#45;&gt;Node3</title>
<path fill="none" stroke="midnightblue" d="M216.901,-168.205C213.424,-143.768 208.24,-107.337 205.132,-85.4987"/>
<polygon fill="midnightblue" stroke="midnightblue" points="208.59,-84.9569 203.717,-75.5497 201.66,-85.9431 208.59,-84.9569"/>
</g>
<!-- Node10 -->
<g id="node10" class="node"><title>Node10</title>
<g id="a_node10"><a xlink:href="../../d9/d49/types_8h.html" target="_top" xlink:title="types.h">
<polygon fill="white" stroke="black" points="110.5,-112.5 110.5,-131.5 162.5,-131.5 162.5,-112.5 110.5,-112.5"/>
<text text-anchor="middle" x="136.5" y="-119.5" font-family="Helvetica,sans-Serif" font-size="10.00">types.h</text>
</a>
</g>
</g>
<!-- Node1&#45;&gt;Node10 -->
<g id="edge10" class="edge"><title>Node1&#45;&gt;Node10</title>
<path fill="none" stroke="midnightblue" d="M190.648,-168.446C178.592,-158.328 165.076,-146.983 154.562,-138.16"/>
<polygon fill="midnightblue" stroke="midnightblue" points="156.77,-135.443 146.861,-131.695 152.27,-140.805 156.77,-135.443"/>
</g>
<!-- Node12 -->
<g id="node12" class="node"><title>Node12</title>
<g id="a_node12"><a xlink:href="../../d8/d3c/util_8h.html" target="_top" xlink:title="util.h">
<polygon fill="white" stroke="black" points="224.5,-112.5 224.5,-131.5 264.5,-131.5 264.5,-112.5 224.5,-112.5"/>
<text text-anchor="middle" x="244.5" y="-119.5" font-family="Helvetica,sans-Serif" font-size="10.00">util.h</text>
</a>
</g>
</g>
<!-- Node1&#45;&gt;Node12 -->
<g id="edge12" class="edge"><title>Node1&#45;&gt;Node12</title>
<path fill="none" stroke="midnightblue" d="M229.029,-168.446C232.064,-159.53 235.424,-149.661 238.234,-141.405"/>
<polygon fill="midnightblue" stroke="midnightblue" points="241.63,-142.29 241.54,-131.695 235.004,-140.034 241.63,-142.29"/>
</g>
<!-- Node15 -->
<g id="node15" class="node"><title>Node15</title>
<g id="a_node15"><a xlink:href="../../d5/d5d/imageio_8h.html" target="_top" xlink:title="imageio.h">
<polygon fill="white" stroke="black" points="282.5,-112.5 282.5,-131.5 346.5,-131.5 346.5,-112.5 282.5,-112.5"/>
<text text-anchor="middle" x="314.5" y="-119.5" font-family="Helvetica,sans-Serif" font-size="10.00">imageio.h</text>
</a>
</g>
</g>
<!-- Node1&#45;&gt;Node15 -->
<g id="edge16" class="edge"><title>Node1&#45;&gt;Node15</title>
<path fill="none" stroke="midnightblue" d="M253.906,-168.446C267.53,-158.227 282.822,-146.758 294.636,-137.898"/>
<polygon fill="midnightblue" stroke="midnightblue" points="297.006,-140.496 302.906,-131.695 292.806,-134.896 297.006,-140.496"/>
</g>
<!-- Node16 -->
<g id="node16" class="node"><title>Node16</title>
<g id="a_node16"><a xlink:href="../../d3/d31/jpeg_8h.html" target="_top" xlink:title="jpeg.h">
<polygon fill="white" stroke="black" points="364.5,-112.5 364.5,-131.5 410.5,-131.5 410.5,-112.5 364.5,-112.5"/>
<text text-anchor="middle" x="387.5" y="-119.5" font-family="Helvetica,sans-Serif" font-size="10.00">jpeg.h</text>
</a>
</g>
</g>
<!-- Node1&#45;&gt;Node16 -->
<g id="edge17" class="edge"><title>Node1&#45;&gt;Node16</title>
<path fill="none" stroke="midnightblue" d="M279.848,-168.446C306.352,-157.257 336.408,-144.569 358.013,-135.448"/>
<polygon fill="midnightblue" stroke="midnightblue" points="359.45,-138.641 367.301,-131.527 356.727,-132.192 359.45,-138.641"/>
</g>
<!-- Node3&#45;&gt;Node2 -->
<g id="edge3" class="edge"><title>Node3&#45;&gt;Node2</title>
<path fill="none" stroke="midnightblue" d="M174.295,-56.4435C143.024,-46.9567 92.5709,-31.6507 58.9776,-21.4595"/>
<polygon fill="midnightblue" stroke="midnightblue" points="59.7187,-18.0269 49.1333,-18.473 57.6865,-24.7254 59.7187,-18.0269"/>
</g>
<!-- Node4 -->
<g id="node4" class="node"><title>Node4</title>
<polygon fill="white" stroke="#bfbfbf" points="442,-0.5 442,-19.5 489,-19.5 489,-0.5 442,-0.5"/>
<text text-anchor="middle" x="465.5" y="-7.5" font-family="Helvetica,sans-Serif" font-size="10.00">cstdlib</text>
</g>
<!-- Node3&#45;&gt;Node4 -->
<g id="edge4" class="edge"><title>Node3&#45;&gt;Node4</title>
<path fill="none" stroke="midnightblue" d="M236.291,-57.8739C239.403,-57.2337 242.509,-56.6009 245.5,-56 325.4,-39.9486 348.371,-39.1848 431.835,-20.0072"/>
<polygon fill="midnightblue" stroke="midnightblue" points="432.811,-23.374 441.762,-17.7059 431.23,-16.5549 432.811,-23.374"/>
</g>
<!-- Node5 -->
<g id="node5" class="node"><title>Node5</title>
<polygon fill="white" stroke="#bfbfbf" points="67,-0.5 67,-19.5 120,-19.5 120,-0.5 67,-0.5"/>
<text text-anchor="middle" x="93.5" y="-7.5" font-family="Helvetica,sans-Serif" font-size="10.00">string.h</text>
</g>
<!-- Node3&#45;&gt;Node5 -->
<g id="edge5" class="edge"><title>Node3&#45;&gt;Node5</title>
<path fill="none" stroke="midnightblue" d="M184.987,-56.324C167.428,-47.6247 140.169,-34.1202 119.969,-24.113"/>
<polygon fill="midnightblue" stroke="midnightblue" points="121.484,-20.9575 110.969,-19.6545 118.376,-27.23 121.484,-20.9575"/>
</g>
<!-- Node6 -->
<g id="node6" class="node"><title>Node6</title>
<polygon fill="white" stroke="#bfbfbf" points="138,-0.5 138,-19.5 189,-19.5 189,-0.5 138,-0.5"/>
<text text-anchor="middle" x="163.5" y="-7.5" font-family="Helvetica,sans-Serif" font-size="10.00">math.h</text>
</g>
<!-- Node3&#45;&gt;Node6 -->
<g id="edge6" class="edge"><title>Node3&#45;&gt;Node6</title>
<path fill="none" stroke="midnightblue" d="M196.06,-56.083C190.551,-48.4554 182.469,-37.2645 175.735,-27.9408"/>
<polygon fill="midnightblue" stroke="midnightblue" points="178.513,-25.8087 169.82,-19.7511 172.838,-29.9071 178.513,-25.8087"/>
</g>
<!-- Node7 -->
<g id="node7" class="node"><title>Node7</title>
<polygon fill="white" stroke="#bfbfbf" points="207,-0.5 207,-19.5 278,-19.5 278,-0.5 207,-0.5"/>
<text text-anchor="middle" x="242.5" y="-7.5" font-family="Helvetica,sans-Serif" font-size="10.00">sys/types.h</text>
</g>
<!-- Node3&#45;&gt;Node7 -->
<g id="edge7" class="edge"><title>Node3&#45;&gt;Node7</title>
<path fill="none" stroke="midnightblue" d="M209.105,-56.083C214.755,-48.4554 223.045,-37.2645 229.951,-27.9408"/>
<polygon fill="midnightblue" stroke="midnightblue" points="232.878,-29.87 236.018,-19.7511 227.253,-25.7034 232.878,-29.87"/>
</g>
<!-- Node8 -->
<g id="node8" class="node"><title>Node8</title>
<polygon fill="white" stroke="#bfbfbf" points="296,-0.5 296,-19.5 359,-19.5 359,-0.5 296,-0.5"/>
<text text-anchor="middle" x="327.5" y="-7.5" font-family="Helvetica,sans-Serif" font-size="10.00">sys/stat.h</text>
</g>
<!-- Node3&#45;&gt;Node8 -->
<g id="edge8" class="edge"><title>Node3&#45;&gt;Node8</title>
<path fill="none" stroke="midnightblue" d="M222.307,-56.4435C242.787,-47.5961 274.983,-33.6875 298.365,-23.5865"/>
<polygon fill="midnightblue" stroke="midnightblue" points="299.994,-26.6953 307.786,-19.5164 297.218,-20.2692 299.994,-26.6953"/>
</g>
<!-- Node9 -->
<g id="node9" class="node"><title>Node9</title>
<polygon fill="white" stroke="#bfbfbf" points="377.5,-0.5 377.5,-19.5 423.5,-19.5 423.5,-0.5 377.5,-0.5"/>
<text text-anchor="middle" x="400.5" y="-7.5" font-family="Helvetica,sans-Serif" font-size="10.00">fcntl.h</text>
</g>
<!-- Node3&#45;&gt;Node9 -->
<g id="edge9" class="edge"><title>Node3&#45;&gt;Node9</title>
<path fill="none" stroke="midnightblue" d="M234.348,-56.4623C265.824,-48.0031 315.605,-34.5683 367.687,-20.2065"/>
<polygon fill="midnightblue" stroke="midnightblue" points="368.727,-23.5504 377.435,-17.515 366.864,-16.8028 368.727,-23.5504"/>
</g>
<!-- Node11 -->
<g id="node11" class="node"><title>Node11</title>
<polygon fill="white" stroke="#bfbfbf" points="98,-56.5 98,-75.5 151,-75.5 151,-56.5 98,-56.5"/>
<text text-anchor="middle" x="124.5" y="-63.5" font-family="Helvetica,sans-Serif" font-size="10.00">alloca.h</text>
</g>
<!-- Node10&#45;&gt;Node11 -->
<g id="edge11" class="edge"><title>Node10&#45;&gt;Node11</title>
<path fill="none" stroke="midnightblue" d="M134.518,-112.083C132.928,-104.927 130.641,-94.6353 128.654,-85.6911"/>
<polygon fill="midnightblue" stroke="midnightblue" points="132.031,-84.7537 126.445,-75.7511 125.197,-86.2722 132.031,-84.7537"/>
</g>
<!-- Node12&#45;&gt;Node3 -->
<g id="edge13" class="edge"><title>Node12&#45;&gt;Node3</title>
<path fill="none" stroke="midnightblue" d="M237.565,-112.083C231.571,-104.377 222.748,-93.0333 215.452,-83.6531"/>
<polygon fill="midnightblue" stroke="midnightblue" points="218.209,-81.4958 209.306,-75.7511 212.683,-85.7934 218.209,-81.4958"/>
</g>
<!-- Node13 -->
<g id="node13" class="node"><title>Node13</title>
<polygon fill="white" stroke="#bfbfbf" points="327.5,-56.5 327.5,-75.5 393.5,-75.5 393.5,-56.5 327.5,-56.5"/>
<text text-anchor="middle" x="360.5" y="-63.5" font-family="Helvetica,sans-Serif" font-size="10.00">sys/time.h</text>
</g>
<!-- Node12&#45;&gt;Node13 -->
<g id="edge14" class="edge"><title>Node12&#45;&gt;Node13</title>
<path fill="none" stroke="midnightblue" d="M262.881,-112.444C281.716,-103.675 311.231,-89.9355 332.879,-79.8579"/>
<polygon fill="midnightblue" stroke="midnightblue" points="334.617,-82.9098 342.205,-75.5164 331.662,-76.5637 334.617,-82.9098"/>
</g>
<!-- Node14 -->
<g id="node14" class="node"><title>Node14</title>
<polygon fill="white" stroke="#bfbfbf" points="254,-56.5 254,-75.5 309,-75.5 309,-56.5 254,-56.5"/>
<text text-anchor="middle" x="281.5" y="-63.5" font-family="Helvetica,sans-Serif" font-size="10.00">unistd.h</text>
</g>
<!-- Node12&#45;&gt;Node14 -->
<g id="edge15" class="edge"><title>Node12&#45;&gt;Node14</title>
<path fill="none" stroke="midnightblue" d="M250.61,-112.083C255.782,-104.534 263.346,-93.4948 269.694,-84.2298"/>
<polygon fill="midnightblue" stroke="midnightblue" points="272.739,-85.9787 275.504,-75.7511 266.964,-82.0221 272.739,-85.9787"/>
</g>
</g>
</svg>
