<?xml version="1.0" encoding="UTF-8" standalone="no"?>
<!DOCTYPE svg PUBLIC "-//W3C//DTD SVG 1.1//EN"
 "http://www.w3.org/Graphics/SVG/1.1/DTD/svg11.dtd">
<!-- Generated by graphviz version 2.38.0 (20140413.2041)
 -->
<!-- Title: /home/travis/build/ComPWA/ComPWA/ThirdParty/tbb/include/tbb/concurrent_queue.h Pages: 1 -->
<svg width="1086pt" height="239pt"
 viewBox="0.00 0.00 1086.00 239.00" xmlns="http://www.w3.org/2000/svg" xmlns:xlink="http://www.w3.org/1999/xlink">
<g id="graph0" class="graph" transform="scale(1 1) rotate(0) translate(4 235)">
<title>/home/travis/build/ComPWA/ComPWA/ThirdParty/tbb/include/tbb/concurrent_queue.h</title>
<polygon fill="white" stroke="none" points="-4,4 -4,-235 1082,-235 1082,4 -4,4"/>
<!-- Node1 -->
<g id="node1" class="node"><title>Node1</title>
<polygon fill="#bfbfbf" stroke="black" points="568,-178.5 568,-230.5 726,-230.5 726,-178.5 568,-178.5"/>
<text text-anchor="start" x="576" y="-218.5" font-family="Helvetica,sans-Serif" font-size="10.00">/home/travis/build</text>
<text text-anchor="start" x="576" y="-207.5" font-family="Helvetica,sans-Serif" font-size="10.00">/ComPWA/ComPWA/ThirdParty</text>
<text text-anchor="start" x="576" y="-196.5" font-family="Helvetica,sans-Serif" font-size="10.00">/tbb/include/tbb/concurrent</text>
<text text-anchor="middle" x="647" y="-185.5" font-family="Helvetica,sans-Serif" font-size="10.00">_queue.h</text>
</g>
<!-- Node2 -->
<g id="node2" class="node"><title>Node2</title>
<g id="a_node2"><a xlink:href="../../d7/ddb/Fibonacci_8cpp.html" target="_top" xlink:title="/home/travis/build\l/ComPWA/ComPWA/ThirdParty\l/tbb/examples/test_all/fibonacci\l/Fibonacci.cpp">
<polygon fill="white" stroke="black" points="207.5,-89.5 207.5,-141.5 374.5,-141.5 374.5,-89.5 207.5,-89.5"/>
<text text-anchor="start" x="215.5" y="-129.5" font-family="Helvetica,sans-Serif" font-size="10.00">/home/travis/build</text>
<text text-anchor="start" x="215.5" y="-118.5" font-family="Helvetica,sans-Serif" font-size="10.00">/ComPWA/ComPWA/ThirdParty</text>
<text text-anchor="start" x="215.5" y="-107.5" font-family="Helvetica,sans-Serif" font-size="10.00">/tbb/examples/test_all/fibonacci</text>
<text text-anchor="middle" x="291" y="-96.5" font-family="Helvetica,sans-Serif" font-size="10.00">/Fibonacci.cpp</text>
</a>
</g>
</g>
<!-- Node1&#45;&gt;Node2 -->
<g id="edge1" class="edge"><title>Node1&#45;&gt;Node2</title>
<path fill="none" stroke="midnightblue" d="M557.892,-183.71C506.613,-172.08 441.035,-156.796 383,-142 380.27,-141.304 377.496,-140.588 374.698,-139.857"/>
<polygon fill="midnightblue" stroke="midnightblue" points="557.424,-187.193 567.95,-185.986 558.969,-180.365 557.424,-187.193"/>
</g>
<!-- Node3 -->
<g id="node3" class="node"><title>Node3</title>
<g id="a_node3"><a xlink:href="../../d8/dc1/tbb_8h.html" target="_top" xlink:title="/home/travis/build\l/ComPWA/ComPWA/ThirdParty\l/tbb/include/tbb/tbb.h">
<polygon fill="white" stroke="black" points="392,-95 392,-136 550,-136 550,-95 392,-95"/>
<text text-anchor="start" x="400" y="-124" font-family="Helvetica,sans-Serif" font-size="10.00">/home/travis/build</text>
<text text-anchor="start" x="400" y="-113" font-family="Helvetica,sans-Serif" font-size="10.00">/ComPWA/ComPWA/ThirdParty</text>
<text text-anchor="middle" x="471" y="-102" font-family="Helvetica,sans-Serif" font-size="10.00">/tbb/include/tbb/tbb.h</text>
</a>
</g>
</g>
<!-- Node1&#45;&gt;Node3 -->
<g id="edge2" class="edge"><title>Node1&#45;&gt;Node3</title>
<path fill="none" stroke="midnightblue" d="M586.976,-173.829C561.759,-161.364 533.123,-147.208 510.614,-136.082"/>
<polygon fill="midnightblue" stroke="midnightblue" points="585.578,-177.042 596.094,-178.336 588.68,-170.767 585.578,-177.042"/>
</g>
<!-- Node8 -->
<g id="node8" class="node"><title>Node8</title>
<g id="a_node8"><a xlink:href="../../d0/d7f/test__async__node_8cpp.html" target="_top" xlink:title="/home/travis/build\l/ComPWA/ComPWA/ThirdParty\l/tbb/src/test/test_async\l_node.cpp">
<polygon fill="white" stroke="black" points="568,-89.5 568,-141.5 726,-141.5 726,-89.5 568,-89.5"/>
<text text-anchor="start" x="576" y="-129.5" font-family="Helvetica,sans-Serif" font-size="10.00">/home/travis/build</text>
<text text-anchor="start" x="576" y="-118.5" font-family="Helvetica,sans-Serif" font-size="10.00">/ComPWA/ComPWA/ThirdParty</text>
<text text-anchor="start" x="576" y="-107.5" font-family="Helvetica,sans-Serif" font-size="10.00">/tbb/src/test/test_async</text>
<text text-anchor="middle" x="647" y="-96.5" font-family="Helvetica,sans-Serif" font-size="10.00">_node.cpp</text>
</a>
</g>
</g>
<!-- Node1&#45;&gt;Node8 -->
<g id="edge7" class="edge"><title>Node1&#45;&gt;Node8</title>
<path fill="none" stroke="midnightblue" d="M647,-168.191C647,-159.282 647,-149.899 647,-141.607"/>
<polygon fill="midnightblue" stroke="midnightblue" points="643.5,-168.336 647,-178.336 650.5,-168.336 643.5,-168.336"/>
</g>
<!-- Node9 -->
<g id="node9" class="node"><title>Node9</title>
<g id="a_node9"><a xlink:href="../../dc/d1d/test__concurrent__queue_8cpp.html" target="_top" xlink:title="/home/travis/build\l/ComPWA/ComPWA/ThirdParty\l/tbb/src/test/test_concurrent\l_queue.cpp">
<polygon fill="white" stroke="black" points="744,-89.5 744,-141.5 902,-141.5 902,-89.5 744,-89.5"/>
<text text-anchor="start" x="752" y="-129.5" font-family="Helvetica,sans-Serif" font-size="10.00">/home/travis/build</text>
<text text-anchor="start" x="752" y="-118.5" font-family="Helvetica,sans-Serif" font-size="10.00">/ComPWA/ComPWA/ThirdParty</text>
<text text-anchor="start" x="752" y="-107.5" font-family="Helvetica,sans-Serif" font-size="10.00">/tbb/src/test/test_concurrent</text>
<text text-anchor="middle" x="823" y="-96.5" font-family="Helvetica,sans-Serif" font-size="10.00">_queue.cpp</text>
</a>
</g>
</g>
<!-- Node1&#45;&gt;Node9 -->
<g id="edge8" class="edge"><title>Node1&#45;&gt;Node9</title>
<path fill="none" stroke="midnightblue" d="M707.131,-173.776C728.305,-163.309 751.88,-151.656 772.208,-141.607"/>
<polygon fill="midnightblue" stroke="midnightblue" points="705.32,-170.767 697.906,-178.336 708.422,-177.042 705.32,-170.767"/>
</g>
<!-- Node10 -->
<g id="node10" class="node"><title>Node10</title>
<g id="a_node10"><a xlink:href="../../d2/d86/test__concurrent__queue__whitebox_8cpp.html" target="_top" xlink:title="/home/travis/build\l/ComPWA/ComPWA/ThirdParty\l/tbb/src/test/test_concurrent\l_queue_whitebox.cpp">
<polygon fill="white" stroke="black" points="920,-89.5 920,-141.5 1078,-141.5 1078,-89.5 920,-89.5"/>
<text text-anchor="start" x="928" y="-129.5" font-family="Helvetica,sans-Serif" font-size="10.00">/home/travis/build</text>
<text text-anchor="start" x="928" y="-118.5" font-family="Helvetica,sans-Serif" font-size="10.00">/ComPWA/ComPWA/ThirdParty</text>
<text text-anchor="start" x="928" y="-107.5" font-family="Helvetica,sans-Serif" font-size="10.00">/tbb/src/test/test_concurrent</text>
<text text-anchor="middle" x="999" y="-96.5" font-family="Helvetica,sans-Serif" font-size="10.00">_queue_whitebox.cpp</text>
</a>
</g>
</g>
<!-- Node1&#45;&gt;Node10 -->
<g id="edge9" class="edge"><title>Node1&#45;&gt;Node10</title>
<path fill="none" stroke="midnightblue" d="M736.175,-183.967C787.474,-172.42 853.052,-157.134 911,-142 913.924,-141.236 916.899,-140.446 919.901,-139.636"/>
<polygon fill="midnightblue" stroke="midnightblue" points="735.102,-180.62 726.112,-186.225 736.635,-187.45 735.102,-180.62"/>
</g>
<!-- Node4 -->
<g id="node4" class="node"><title>Node4</title>
<g id="a_node4"><a xlink:href="../../d0/d75/DirectXPage_8xaml_8cpp.html" target="_top" xlink:title="/home/travis/build\l/ComPWA/ComPWA/ThirdParty\l/tbb/examples/parallel_for\l/tachyon/msvs/win8ui/DirectXPage.xaml.cpp">
<polygon fill="white" stroke="black" points="0,-0.5 0,-52.5 226,-52.5 226,-0.5 0,-0.5"/>
<text text-anchor="start" x="8" y="-40.5" font-family="Helvetica,sans-Serif" font-size="10.00">/home/travis/build</text>
<text text-anchor="start" x="8" y="-29.5" font-family="Helvetica,sans-Serif" font-size="10.00">/ComPWA/ComPWA/ThirdParty</text>
<text text-anchor="start" x="8" y="-18.5" font-family="Helvetica,sans-Serif" font-size="10.00">/tbb/examples/parallel_for</text>
<text text-anchor="middle" x="113" y="-7.5" font-family="Helvetica,sans-Serif" font-size="10.00">/tachyon/msvs/win8ui/DirectXPage.xaml.cpp</text>
</a>
</g>
</g>
<!-- Node3&#45;&gt;Node4 -->
<g id="edge3" class="edge"><title>Node3&#45;&gt;Node4</title>
<path fill="none" stroke="midnightblue" d="M396.308,-92.2834C392.151,-91.1482 388.028,-90.0462 384,-89 332.402,-75.5971 274.856,-62.3064 226.111,-51.5282"/>
<polygon fill="midnightblue" stroke="midnightblue" points="395.466,-95.682 406.038,-94.9818 397.337,-88.9366 395.466,-95.682"/>
</g>
<!-- Node5 -->
<g id="node5" class="node"><title>Node5</title>
<g id="a_node5"><a xlink:href="../../dd/dc5/tbbTachyonRenderer_8cpp.html" target="_top" xlink:title="/home/travis/build\l/ComPWA/ComPWA/ThirdParty\l/tbb/examples/parallel_for\l/tachyon/msvs/win8ui/tbbTachyonRenderer.cpp">
<polygon fill="white" stroke="black" points="244,-0.5 244,-52.5 482,-52.5 482,-0.5 244,-0.5"/>
<text text-anchor="start" x="252" y="-40.5" font-family="Helvetica,sans-Serif" font-size="10.00">/home/travis/build</text>
<text text-anchor="start" x="252" y="-29.5" font-family="Helvetica,sans-Serif" font-size="10.00">/ComPWA/ComPWA/ThirdParty</text>
<text text-anchor="start" x="252" y="-18.5" font-family="Helvetica,sans-Serif" font-size="10.00">/tbb/examples/parallel_for</text>
<text text-anchor="middle" x="363" y="-7.5" font-family="Helvetica,sans-Serif" font-size="10.00">/tachyon/msvs/win8ui/tbbTachyonRenderer.cpp</text>
</a>
</g>
</g>
<!-- Node3&#45;&gt;Node5 -->
<g id="edge4" class="edge"><title>Node3&#45;&gt;Node5</title>
<path fill="none" stroke="midnightblue" d="M438.761,-88.5294C424.639,-77.1538 408.133,-63.8575 394.14,-52.5847"/>
<polygon fill="midnightblue" stroke="midnightblue" points="436.779,-91.4278 446.763,-94.9755 441.171,-85.9765 436.779,-91.4278"/>
</g>
<!-- Node6 -->
<g id="node6" class="node"><title>Node6</title>
<g id="a_node6"><a xlink:href="../../dd/d29/trace_8simple_8cpp.html" target="_top" xlink:title="/home/travis/build\l/ComPWA/ComPWA/ThirdParty\l/tbb/examples/parallel_for\l/tachyon/src/trace.simple.cpp">
<polygon fill="white" stroke="black" points="500,-0.5 500,-52.5 658,-52.5 658,-0.5 500,-0.5"/>
<text text-anchor="start" x="508" y="-40.5" font-family="Helvetica,sans-Serif" font-size="10.00">/home/travis/build</text>
<text text-anchor="start" x="508" y="-29.5" font-family="Helvetica,sans-Serif" font-size="10.00">/ComPWA/ComPWA/ThirdParty</text>
<text text-anchor="start" x="508" y="-18.5" font-family="Helvetica,sans-Serif" font-size="10.00">/tbb/examples/parallel_for</text>
<text text-anchor="middle" x="579" y="-7.5" font-family="Helvetica,sans-Serif" font-size="10.00">/tachyon/src/trace.simple.cpp</text>
</a>
</g>
</g>
<!-- Node3&#45;&gt;Node6 -->
<g id="edge5" class="edge"><title>Node3&#45;&gt;Node6</title>
<path fill="none" stroke="midnightblue" d="M503.239,-88.5294C517.361,-77.1538 533.867,-63.8575 547.86,-52.5847"/>
<polygon fill="midnightblue" stroke="midnightblue" points="500.829,-85.9765 495.237,-94.9755 505.221,-91.4278 500.829,-85.9765"/>
</g>
<!-- Node7 -->
<g id="node7" class="node"><title>Node7</title>
<g id="a_node7"><a xlink:href="../../db/d56/test__tbb__header_8cpp.html" target="_top" xlink:title="/home/travis/build\l/ComPWA/ComPWA/ThirdParty\l/tbb/src/test/test_tbb_header.cpp">
<polygon fill="white" stroke="black" points="676,-6 676,-47 852,-47 852,-6 676,-6"/>
<text text-anchor="start" x="684" y="-35" font-family="Helvetica,sans-Serif" font-size="10.00">/home/travis/build</text>
<text text-anchor="start" x="684" y="-24" font-family="Helvetica,sans-Serif" font-size="10.00">/ComPWA/ComPWA/ThirdParty</text>
<text text-anchor="middle" x="764" y="-13" font-family="Helvetica,sans-Serif" font-size="10.00">/tbb/src/test/test_tbb_header.cpp</text>
</a>
</g>
</g>
<!-- Node3&#45;&gt;Node7 -->
<g id="edge6" class="edge"><title>Node3&#45;&gt;Node7</title>
<path fill="none" stroke="midnightblue" d="M546.566,-92.0625C593.498,-78.1269 653.233,-60.39 698.212,-47.0344"/>
<polygon fill="midnightblue" stroke="midnightblue" points="545.345,-88.7738 536.755,-94.9755 547.338,-95.4842 545.345,-88.7738"/>
</g>
</g>
</svg>
