<?xml version="1.0" encoding="UTF-8" standalone="no"?>
<!DOCTYPE svg PUBLIC "-//W3C//DTD SVG 1.1//EN"
 "http://www.w3.org/Graphics/SVG/1.1/DTD/svg11.dtd">
<!-- Generated by graphviz version 2.38.0 (20140413.2041)
 -->
<!-- Title: internal::node_cache&lt; T, M &gt; Pages: 1 -->
<svg width="129pt" height="259pt"
 viewBox="0.00 0.00 129.00 259.00" xmlns="http://www.w3.org/2000/svg" xmlns:xlink="http://www.w3.org/1999/xlink">
<g id="graph0" class="graph" transform="scale(1 1) rotate(0) translate(4 255)">
<title>internal::node_cache&lt; T, M &gt;</title>
<polygon fill="white" stroke="none" points="-4,4 -4,-255 125,-255 125,4 -4,4"/>
<!-- Node1 -->
<g id="node1" class="node"><title>Node1</title>
<polygon fill="#bfbfbf" stroke="black" points="-7.10543e-15,-0.5 -7.10543e-15,-145.5 116,-145.5 116,-0.5 -7.10543e-15,-0.5"/>
<text text-anchor="start" x="8" y="-133.5" font-family="Helvetica,sans-Serif" font-size="10.00">internal::node_cache</text>
<text text-anchor="middle" x="58" y="-122.5" font-family="Helvetica,sans-Serif" font-size="10.00">&lt; T, M &gt;</text>
<polyline fill="none" stroke="black" points="-7.10543e-15,-115.5 116,-115.5 "/>
<text text-anchor="start" x="8" y="-103.5" font-family="Helvetica,sans-Serif" font-size="10.00"># my_q</text>
<polyline fill="none" stroke="black" points="-7.10543e-15,-96.5 116,-96.5 "/>
<text text-anchor="start" x="8" y="-84.5" font-family="Helvetica,sans-Serif" font-size="10.00">+ empty()</text>
<text text-anchor="start" x="8" y="-73.5" font-family="Helvetica,sans-Serif" font-size="10.00">+ add()</text>
<text text-anchor="start" x="8" y="-62.5" font-family="Helvetica,sans-Serif" font-size="10.00">+ remove()</text>
<text text-anchor="start" x="8" y="-51.5" font-family="Helvetica,sans-Serif" font-size="10.00">+ clear()</text>
<text text-anchor="start" x="8" y="-40.5" font-family="Helvetica,sans-Serif" font-size="10.00"># internal_empty()</text>
<text text-anchor="start" x="8" y="-29.5" font-family="Helvetica,sans-Serif" font-size="10.00"># internal_size()</text>
<text text-anchor="start" x="8" y="-18.5" font-family="Helvetica,sans-Serif" font-size="10.00"># internal_push()</text>
<text text-anchor="start" x="8" y="-7.5" font-family="Helvetica,sans-Serif" font-size="10.00"># internal_pop()</text>
</g>
<!-- Node2 -->
<g id="node2" class="node"><title>Node2</title>
<polygon fill="white" stroke="#bfbfbf" points="43.5,-193.5 43.5,-250.5 72.5,-250.5 72.5,-193.5 43.5,-193.5"/>
<text text-anchor="middle" x="58" y="-238.5" font-family="Helvetica,sans-Serif" font-size="10.00">M</text>
<polyline fill="none" stroke="#bfbfbf" points="43.5,-231.5 72.5,-231.5 "/>
<text text-anchor="middle" x="58" y="-219.5" font-family="Helvetica,sans-Serif" font-size="10.00"> </text>
<polyline fill="none" stroke="#bfbfbf" points="43.5,-212.5 72.5,-212.5 "/>
<text text-anchor="middle" x="58" y="-200.5" font-family="Helvetica,sans-Serif" font-size="10.00"> </text>
</g>
<!-- Node2&#45;&gt;Node1 -->
<g id="edge1" class="edge"><title>Node2&#45;&gt;Node1</title>
<path fill="none" stroke="#404040" d="M58,-193.35C58,-183.014 58,-170.664 58,-157.886"/>
<polygon fill="none" stroke="#404040" points="58.0001,-157.555 54,-151.556 58,-145.555 62,-151.555 58.0001,-157.555"/>
<text text-anchor="middle" x="89.5" y="-167" font-family="Helvetica,sans-Serif" font-size="10.00"> #my_mutex</text>
</g>
</g>
</svg>
