<?xml version="1.0" encoding="UTF-8" standalone="no"?>
<!DOCTYPE svg PUBLIC "-//W3C//DTD SVG 1.1//EN"
 "http://www.w3.org/Graphics/SVG/1.1/DTD/svg11.dtd">
<!-- Generated by graphviz version 2.38.0 (20140413.2041)
 -->
<!-- Title: /home/travis/build/ComPWA/ComPWA/ThirdParty/tbb/src/test/harness_iterator.h Pages: 1 -->
<svg width="348pt" height="162pt"
 viewBox="0.00 0.00 347.50 162.00" xmlns="http://www.w3.org/2000/svg" xmlns:xlink="http://www.w3.org/1999/xlink">
<g id="graph0" class="graph" transform="scale(1 1) rotate(0) translate(4 158)">
<title>/home/travis/build/ComPWA/ComPWA/ThirdParty/tbb/src/test/harness_iterator.h</title>
<polygon fill="white" stroke="none" points="-4,4 -4,-158 343.5,-158 343.5,4 -4,4"/>
<!-- Node1 -->
<g id="node1" class="node"><title>Node1</title>
<polygon fill="#bfbfbf" stroke="black" points="59,-112.5 59,-153.5 223,-153.5 223,-112.5 59,-112.5"/>
<text text-anchor="start" x="67" y="-141.5" font-family="Helvetica,sans-Serif" font-size="10.00">/home/travis/build</text>
<text text-anchor="start" x="67" y="-130.5" font-family="Helvetica,sans-Serif" font-size="10.00">/ComPWA/ComPWA/ThirdParty</text>
<text text-anchor="middle" x="141" y="-119.5" font-family="Helvetica,sans-Serif" font-size="10.00">/tbb/src/test/harness_iterator.h</text>
</g>
<!-- Node2 -->
<g id="node2" class="node"><title>Node2</title>
<polygon fill="white" stroke="#bfbfbf" points="0,-56.5 0,-75.5 52,-75.5 52,-56.5 0,-56.5"/>
<text text-anchor="middle" x="26" y="-63.5" font-family="Helvetica,sans-Serif" font-size="10.00">iterator</text>
</g>
<!-- Node1&#45;&gt;Node2 -->
<g id="edge1" class="edge"><title>Node1&#45;&gt;Node2</title>
<path fill="none" stroke="midnightblue" d="M106.496,-112.498C88.3559,-102.245 66.5597,-89.925 50.2255,-80.6927"/>
<polygon fill="midnightblue" stroke="midnightblue" points="51.7361,-77.5261 41.3083,-75.6525 48.2917,-83.6201 51.7361,-77.5261"/>
</g>
<!-- Node3 -->
<g id="node3" class="node"><title>Node3</title>
<polygon fill="white" stroke="#bfbfbf" points="70.5,-56.5 70.5,-75.5 127.5,-75.5 127.5,-56.5 70.5,-56.5"/>
<text text-anchor="middle" x="99" y="-63.5" font-family="Helvetica,sans-Serif" font-size="10.00">memory</text>
</g>
<!-- Node1&#45;&gt;Node3 -->
<g id="edge2" class="edge"><title>Node1&#45;&gt;Node3</title>
<path fill="none" stroke="midnightblue" d="M128.399,-112.498C122.578,-103.49 115.728,-92.8881 110.104,-84.1852"/>
<polygon fill="midnightblue" stroke="midnightblue" points="112.958,-82.1522 104.591,-75.6525 107.078,-85.9512 112.958,-82.1522"/>
</g>
<!-- Node4 -->
<g id="node4" class="node"><title>Node4</title>
<g id="a_node4"><a xlink:href="../../dd/d02/atomic_8h.html" target="_top" xlink:title="tbb/atomic.h">
<polygon fill="white" stroke="black" points="145.5,-56.5 145.5,-75.5 222.5,-75.5 222.5,-56.5 145.5,-56.5"/>
<text text-anchor="middle" x="184" y="-63.5" font-family="Helvetica,sans-Serif" font-size="10.00">tbb/atomic.h</text>
</a>
</g>
</g>
<!-- Node1&#45;&gt;Node4 -->
<g id="edge3" class="edge"><title>Node1&#45;&gt;Node4</title>
<path fill="none" stroke="midnightblue" d="M153.901,-112.498C159.86,-103.49 166.874,-92.8881 172.631,-84.1852"/>
<polygon fill="midnightblue" stroke="midnightblue" points="175.678,-85.9238 178.276,-75.6525 169.84,-82.0616 175.678,-85.9238"/>
</g>
<!-- Node7 -->
<g id="node7" class="node"><title>Node7</title>
<g id="a_node7"><a xlink:href="../../d3/df7/harness__assert_8h.html" target="_top" xlink:title="harness_assert.h">
<polygon fill="white" stroke="black" points="240.5,-56.5 240.5,-75.5 339.5,-75.5 339.5,-56.5 240.5,-56.5"/>
<text text-anchor="middle" x="290" y="-63.5" font-family="Helvetica,sans-Serif" font-size="10.00">harness_assert.h</text>
</a>
</g>
</g>
<!-- Node1&#45;&gt;Node7 -->
<g id="edge6" class="edge"><title>Node1&#45;&gt;Node7</title>
<path fill="none" stroke="midnightblue" d="M185.705,-112.498C210.087,-101.861 239.567,-89.001 260.955,-79.6705"/>
<polygon fill="midnightblue" stroke="midnightblue" points="262.4,-82.8591 270.166,-75.6525 259.601,-76.443 262.4,-82.8591"/>
</g>
<!-- Node5 -->
<g id="node5" class="node"><title>Node5</title>
<polygon fill="white" stroke="#bfbfbf" points="114,-0.5 114,-19.5 166,-19.5 166,-0.5 114,-0.5"/>
<text text-anchor="middle" x="140" y="-7.5" font-family="Helvetica,sans-Serif" font-size="10.00">cstddef</text>
</g>
<!-- Node4&#45;&gt;Node5 -->
<g id="edge4" class="edge"><title>Node4&#45;&gt;Node5</title>
<path fill="none" stroke="midnightblue" d="M176.734,-56.083C170.455,-48.3768 161.212,-37.0333 153.569,-27.6531"/>
<polygon fill="midnightblue" stroke="midnightblue" points="156.161,-25.2926 147.131,-19.7511 150.734,-29.7143 156.161,-25.2926"/>
</g>
<!-- Node6 -->
<g id="node6" class="node"><title>Node6</title>
<g id="a_node6"><a xlink:href="../../d1/d09/tbb__machine_8h.html" target="_top" xlink:title="tbb_machine.h">
<polygon fill="white" stroke="red" points="184,-0.5 184,-19.5 272,-19.5 272,-0.5 184,-0.5"/>
<text text-anchor="middle" x="228" y="-7.5" font-family="Helvetica,sans-Serif" font-size="10.00">tbb_machine.h</text>
</a>
</g>
</g>
<!-- Node4&#45;&gt;Node6 -->
<g id="edge5" class="edge"><title>Node4&#45;&gt;Node6</title>
<path fill="none" stroke="midnightblue" d="M191.266,-56.083C197.545,-48.3768 206.788,-37.0333 214.431,-27.6531"/>
<polygon fill="midnightblue" stroke="midnightblue" points="217.266,-29.7143 220.869,-19.7511 211.839,-25.2926 217.266,-29.7143"/>
</g>
</g>
</svg>
