<?xml version="1.0" encoding="UTF-8" standalone="no"?>
<!DOCTYPE svg PUBLIC "-//W3C//DTD SVG 1.1//EN"
 "http://www.w3.org/Graphics/SVG/1.1/DTD/svg11.dtd">
<!-- Generated by graphviz version 2.38.0 (20140413.2041)
 -->
<!-- Title: Hammer&lt; RWMutex &gt; Pages: 1 -->
<svg width="142pt" height="193pt"
 viewBox="0.00 0.00 142.00 193.00" xmlns="http://www.w3.org/2000/svg" xmlns:xlink="http://www.w3.org/1999/xlink">
<g id="graph0" class="graph" transform="scale(1 1) rotate(0) translate(4 189)">
<title>Hammer&lt; RWMutex &gt;</title>
<polygon fill="white" stroke="none" points="-4,4 -4,-189 138,-189 138,4 -4,4"/>
<!-- Node1 -->
<g id="node1" class="node"><title>Node1</title>
<polygon fill="#bfbfbf" stroke="black" points="0,-0.5 0,-79.5 134,-79.5 134,-0.5 0,-0.5"/>
<text text-anchor="middle" x="67" y="-67.5" font-family="Helvetica,sans-Serif" font-size="10.00">Hammer&lt; RWMutex &gt;</text>
<polyline fill="none" stroke="black" points="0,-60.5 134,-60.5 "/>
<text text-anchor="start" x="8" y="-48.5" font-family="Helvetica,sans-Serif" font-size="10.00">+ MutexProtectingCount</text>
<text text-anchor="start" x="8" y="-37.5" font-family="Helvetica,sans-Serif" font-size="10.00">+ dummy</text>
<polyline fill="none" stroke="black" points="0,-30.5 134,-30.5 "/>
<text text-anchor="start" x="8" y="-18.5" font-family="Helvetica,sans-Serif" font-size="10.00">+ Hammer()</text>
<text text-anchor="start" x="8" y="-7.5" font-family="Helvetica,sans-Serif" font-size="10.00">+ operator()()</text>
</g>
<!-- Node2 -->
<g id="node2" class="node"><title>Node2</title>
<g id="a_node2"><a xlink:href="../../d8/dab/classNoAssign.html" target="_top" xlink:title="Base class for prohibiting compiler&#45;generated operator=. ">
<polygon fill="white" stroke="black" points="27,-116.5 27,-184.5 107,-184.5 107,-116.5 27,-116.5"/>
<text text-anchor="middle" x="67" y="-172.5" font-family="Helvetica,sans-Serif" font-size="10.00">NoAssign</text>
<polyline fill="none" stroke="black" points="27,-165.5 107,-165.5 "/>
<text text-anchor="middle" x="67" y="-153.5" font-family="Helvetica,sans-Serif" font-size="10.00"> </text>
<polyline fill="none" stroke="black" points="27,-146.5 107,-146.5 "/>
<text text-anchor="start" x="35" y="-134.5" font-family="Helvetica,sans-Serif" font-size="10.00">+ NoAssign()</text>
<text text-anchor="start" x="35" y="-123.5" font-family="Helvetica,sans-Serif" font-size="10.00">&#45; operator=()</text>
</a>
</g>
</g>
<!-- Node2&#45;&gt;Node1 -->
<g id="edge1" class="edge"><title>Node2&#45;&gt;Node1</title>
<path fill="none" stroke="midnightblue" d="M67,-106.274C67,-97.4764 67,-88.2753 67,-79.6493"/>
<polygon fill="none" stroke="midnightblue" points="63.5001,-106.357 67,-116.357 70.5001,-106.357 63.5001,-106.357"/>
</g>
</g>
</svg>
