<?xml version="1.0" encoding="UTF-8" standalone="no"?>
<!DOCTYPE svg PUBLIC "-//W3C//DTD SVG 1.1//EN"
 "http://www.w3.org/Graphics/SVG/1.1/DTD/svg11.dtd">
<!-- Generated by graphviz version 2.38.0 (20140413.2041)
 -->
<!-- Title: ThreadLevelRecorder Pages: 1 -->
<!--zoomable 463 -->
<svg id="main" version="1.1" xmlns="http://www.w3.org/2000/svg" xmlns:xlink="http://www.w3.org/1999/xlink" xml:space="preserve" onload="init(evt)">
<style type="text/css"><![CDATA[
.edge:hover path { stroke: red; }
.edge:hover polygon { stroke: red; fill: red; }
]]></style>
<script type="text/javascript"><![CDATA[
var edges = document.getElementsByTagName('g');
if (edges && edges.length) {
  for (var i=0;i<edges.length;i++) {
    if (edges[i].id.substr(0,4)=='edge') {
      edges[i].setAttribute('class','edge');
    }
  }
}
]]></script>
        <defs>
                <circle id="rim" cx="0" cy="0" r="7"/>
                <circle id="rim2" cx="0" cy="0" r="3.5"/>
                <g id="zoomPlus">
                        <use xlink:href="#rim" fill="#404040">
                                <set attributeName="fill" to="#808080" begin="zoomplus.mouseover" end="zoomplus.mouseout"/>
                        </use>
                        <path d="M-4,0h8M0,-4v8" fill="none" stroke="white" stroke-width="1.5" pointer-events="none"/>
                </g>
                <g id="zoomMin">
                        <use xlink:href="#rim" fill="#404040">
                                <set attributeName="fill" to="#808080" begin="zoomminus.mouseover" end="zoomminus.mouseout"/>
                        </use>
                        <path d="M-4,0h8" fill="none" stroke="white" stroke-width="1.5" pointer-events="none"/>
                </g>
                <g id="dirArrow">
                        <path fill="none" stroke="white" stroke-width="1.5" d="M0,-3.0v7 M-2.5,-0.5L0,-3.0L2.5,-0.5"/>
                </g>
               <g id="resetDef">
                       <use xlink:href="#rim2" fill="#404040">
                               <set attributeName="fill" to="#808080" begin="reset.mouseover" end="reset.mouseout"/>
                       </use>
               </g>
        </defs>

<script type="text/javascript">
var viewWidth = 421;
var viewHeight = 463;
var sectionId = 'dynsection-0';
</script>
<script xlink:href="../../svgpan.js"/>
<svg id="graph" class="graph">
<g id="viewport">
<title>ThreadLevelRecorder</title>
<polygon fill="white" stroke="none" points="-4,4 -4,-459 417,-459 417,4 -4,4"/>
<!-- Node1 -->
<g id="node1" class="node"><title>Node1</title>
<polygon fill="#bfbfbf" stroke="black" points="135.5,-0.5 135.5,-123.5 251.5,-123.5 251.5,-0.5 135.5,-0.5"/>
<text text-anchor="middle" x="193.5" y="-111.5" font-family="Helvetica,sans-Serif" font-size="10.00">ThreadLevelRecorder</text>
<polyline fill="none" stroke="black" points="135.5,-104.5 251.5,-104.5 "/>
<text text-anchor="start" x="143.5" y="-92.5" font-family="Helvetica,sans-Serif" font-size="10.00">&#45; max_threads</text>
<text text-anchor="start" x="143.5" y="-81.5" font-family="Helvetica,sans-Serif" font-size="10.00">&#45; fail</text>
<text text-anchor="start" x="143.5" y="-70.5" font-family="Helvetica,sans-Serif" font-size="10.00">&#45; max_record_count</text>
<polyline fill="none" stroke="black" points="135.5,-63.5 251.5,-63.5 "/>
<text text-anchor="start" x="143.5" y="-51.5" font-family="Helvetica,sans-Serif" font-size="10.00">+ change_level()</text>
<text text-anchor="start" x="143.5" y="-40.5" font-family="Helvetica,sans-Serif" font-size="10.00">+ dump()</text>
<text text-anchor="start" x="143.5" y="-29.5" font-family="Helvetica,sans-Serif" font-size="10.00">+ init()</text>
<text text-anchor="start" x="143.5" y="-18.5" font-family="Helvetica,sans-Serif" font-size="10.00">+ change_level()</text>
<text text-anchor="start" x="143.5" y="-7.5" font-family="Helvetica,sans-Serif" font-size="10.00">+ dump()</text>
</g>
<!-- Node2 -->
<g id="node2" class="node"><title>Node2</title>
<g id="a_node2"><a xlink:href="../../d4/d32/structtbb_1_1atomic.html" target="_top" xlink:title="{tbb::atomic\&lt; int \&gt;\n||+ operator=()\l+ operator=()\l}">
<polygon fill="white" stroke="black" points="5.5,-237.5 5.5,-305.5 111.5,-305.5 111.5,-237.5 5.5,-237.5"/>
<text text-anchor="middle" x="58.5" y="-293.5" font-family="Helvetica,sans-Serif" font-size="10.00">tbb::atomic&lt; int &gt;</text>
<polyline fill="none" stroke="black" points="5.5,-286.5 111.5,-286.5 "/>
<text text-anchor="middle" x="58.5" y="-274.5" font-family="Helvetica,sans-Serif" font-size="10.00"> </text>
<polyline fill="none" stroke="black" points="5.5,-267.5 111.5,-267.5 "/>
<text text-anchor="start" x="13.5" y="-255.5" font-family="Helvetica,sans-Serif" font-size="10.00">+ operator=()</text>
<text text-anchor="start" x="13.5" y="-244.5" font-family="Helvetica,sans-Serif" font-size="10.00">+ operator=()</text>
</a>
</g>
</g>
<!-- Node2&#45;&gt;Node1 -->
<g id="edge1" class="edge"><title>Node2&#45;&gt;Node1</title>
<path fill="none" stroke="#404040" d="M65.8722,-237.282C72.9958,-210.034 85.663,-171.313 105.5,-142 111.584,-133.009 118.909,-124.363 126.703,-116.301"/>
<polygon fill="none" stroke="#404040" points="126.774,-116.231 128.228,-109.168 135.307,-107.795 133.853,-114.858 126.774,-116.231"/>
<text text-anchor="middle" x="147.5" y="-189" font-family="Helvetica,sans-Serif" font-size="10.00"> &#45;tbb_inner_level</text>
<text text-anchor="middle" x="147.5" y="-178" font-family="Helvetica,sans-Serif" font-size="10.00">&#45;level</text>
<text text-anchor="middle" x="147.5" y="-167" font-family="Helvetica,sans-Serif" font-size="10.00">&#45;omp_inner_level</text>
<text text-anchor="middle" x="147.5" y="-156" font-family="Helvetica,sans-Serif" font-size="10.00">&#45;tbb_outer_level</text>
<text text-anchor="middle" x="147.5" y="-145" font-family="Helvetica,sans-Serif" font-size="10.00">&#45;omp_outer_level</text>
</g>
<!-- Node3 -->
<g id="node3" class="node"><title>Node3</title>
<polygon fill="white" stroke="#bfbfbf" points="0,-381 0,-449 117,-449 117,-381 0,-381"/>
<text text-anchor="start" x="8" y="-437" font-family="Helvetica,sans-Serif" font-size="10.00">internal::atomic_impl</text>
<text text-anchor="middle" x="58.5" y="-426" font-family="Helvetica,sans-Serif" font-size="10.00">&lt; int &gt;</text>
<polyline fill="none" stroke="#bfbfbf" points="0,-419 117,-419 "/>
<text text-anchor="middle" x="58.5" y="-407" font-family="Helvetica,sans-Serif" font-size="10.00"> </text>
<polyline fill="none" stroke="#bfbfbf" points="0,-400 117,-400 "/>
<text text-anchor="middle" x="58.5" y="-388" font-family="Helvetica,sans-Serif" font-size="10.00"> </text>
</g>
<!-- Node3&#45;&gt;Node2 -->
<g id="edge2" class="edge"><title>Node3&#45;&gt;Node2</title>
<path fill="none" stroke="midnightblue" d="M58.5,-370.643C58.5,-349.838 58.5,-325.296 58.5,-305.958"/>
<polygon fill="none" stroke="midnightblue" points="55.0001,-370.825 58.5,-380.825 62.0001,-370.825 55.0001,-370.825"/>
</g>
<!-- Node4 -->
<g id="node4" class="node"><title>Node4</title>
<g id="a_node4"><a xlink:href="../../d1/d86/structThreadLevelRecorder_1_1record.html" target="_top" xlink:title="{ThreadLevelRecorder\l::record\n|+ n_tbb_outer_thread\l+ n_tbb_inner_thread\l+ n_omp_outer_thread\l+ n_omp_inner_thread\l+ nthread\l|}">
<polygon fill="white" stroke="black" points="129.5,-215.5 129.5,-327.5 257.5,-327.5 257.5,-215.5 129.5,-215.5"/>
<text text-anchor="start" x="137.5" y="-315.5" font-family="Helvetica,sans-Serif" font-size="10.00">ThreadLevelRecorder</text>
<text text-anchor="middle" x="193.5" y="-304.5" font-family="Helvetica,sans-Serif" font-size="10.00">::record</text>
<polyline fill="none" stroke="black" points="129.5,-297.5 257.5,-297.5 "/>
<text text-anchor="start" x="137.5" y="-285.5" font-family="Helvetica,sans-Serif" font-size="10.00">+ n_tbb_outer_thread</text>
<text text-anchor="start" x="137.5" y="-274.5" font-family="Helvetica,sans-Serif" font-size="10.00">+ n_tbb_inner_thread</text>
<text text-anchor="start" x="137.5" y="-263.5" font-family="Helvetica,sans-Serif" font-size="10.00">+ n_omp_outer_thread</text>
<text text-anchor="start" x="137.5" y="-252.5" font-family="Helvetica,sans-Serif" font-size="10.00">+ n_omp_inner_thread</text>
<text text-anchor="start" x="137.5" y="-241.5" font-family="Helvetica,sans-Serif" font-size="10.00">+ nthread</text>
<polyline fill="none" stroke="black" points="129.5,-234.5 257.5,-234.5 "/>
<text text-anchor="middle" x="193.5" y="-222.5" font-family="Helvetica,sans-Serif" font-size="10.00"> </text>
</a>
</g>
</g>
<!-- Node4&#45;&gt;Node1 -->
<g id="edge3" class="edge"><title>Node4&#45;&gt;Node1</title>
<path fill="none" stroke="#404040" d="M193.5,-215.439C193.5,-191.081 193.5,-162.093 193.5,-135.968"/>
<polygon fill="none" stroke="#404040" points="193.5,-135.801 189.5,-129.801 193.5,-123.801 197.5,-129.801 193.5,-135.801"/>
<text text-anchor="middle" x="209.5" y="-167" font-family="Helvetica,sans-Serif" font-size="10.00"> &#45;array</text>
</g>
<!-- Node5 -->
<g id="node5" class="node"><title>Node5</title>
<g id="a_node5"><a xlink:href="../../d3/dce/classtbb_1_1tick__count.html" target="_top" xlink:title="Absolute timestamp. ">
<polygon fill="white" stroke="black" points="150,-375.5 150,-454.5 237,-454.5 237,-375.5 150,-375.5"/>
<text text-anchor="middle" x="193.5" y="-442.5" font-family="Helvetica,sans-Serif" font-size="10.00">tbb::tick_count</text>
<polyline fill="none" stroke="black" points="150,-435.5 237,-435.5 "/>
<text text-anchor="start" x="158" y="-423.5" font-family="Helvetica,sans-Serif" font-size="10.00">&#45; my_count</text>
<polyline fill="none" stroke="black" points="150,-416.5 237,-416.5 "/>
<text text-anchor="start" x="158" y="-404.5" font-family="Helvetica,sans-Serif" font-size="10.00">+ tick_count()</text>
<text text-anchor="start" x="158" y="-393.5" font-family="Helvetica,sans-Serif" font-size="10.00">+ now()</text>
<text text-anchor="start" x="158" y="-382.5" font-family="Helvetica,sans-Serif" font-size="10.00">+ resolution()</text>
</a>
</g>
</g>
<!-- Node5&#45;&gt;Node4 -->
<g id="edge4" class="edge"><title>Node5&#45;&gt;Node4</title>
<path fill="none" stroke="#404040" d="M193.5,-375.335C193.5,-364.288 193.5,-351.917 193.5,-339.689"/>
<polygon fill="none" stroke="#404040" points="193.5,-339.562 189.5,-333.562 193.5,-327.562 197.5,-333.562 193.5,-339.562"/>
<text text-anchor="middle" x="210.5" y="-349" font-family="Helvetica,sans-Serif" font-size="10.00"> +time</text>
</g>
<!-- Node6 -->
<g id="node6" class="node"><title>Node6</title>
<g id="a_node6"><a xlink:href="../../d4/d32/structtbb_1_1atomic.html" target="_top" xlink:title="{tbb::atomic\&lt; unsigned \&gt;\n||+ operator=()\l+ operator=()\l}">
<polygon fill="white" stroke="black" points="276,-237.5 276,-305.5 413,-305.5 413,-237.5 276,-237.5"/>
<text text-anchor="middle" x="344.5" y="-293.5" font-family="Helvetica,sans-Serif" font-size="10.00">tbb::atomic&lt; unsigned &gt;</text>
<polyline fill="none" stroke="black" points="276,-286.5 413,-286.5 "/>
<text text-anchor="middle" x="344.5" y="-274.5" font-family="Helvetica,sans-Serif" font-size="10.00"> </text>
<polyline fill="none" stroke="black" points="276,-267.5 413,-267.5 "/>
<text text-anchor="start" x="284" y="-255.5" font-family="Helvetica,sans-Serif" font-size="10.00">+ operator=()</text>
<text text-anchor="start" x="284" y="-244.5" font-family="Helvetica,sans-Serif" font-size="10.00">+ operator=()</text>
</a>
</g>
</g>
<!-- Node6&#45;&gt;Node1 -->
<g id="edge5" class="edge"><title>Node6&#45;&gt;Node1</title>
<path fill="none" stroke="#404040" d="M320.239,-237.162C299.969,-209.307 270.369,-168.632 244.872,-133.594"/>
<polygon fill="none" stroke="#404040" points="244.861,-133.579 238.097,-131.082 237.801,-123.877 244.565,-126.374 244.861,-133.579"/>
<text text-anchor="middle" x="301.5" y="-167" font-family="Helvetica,sans-Serif" font-size="10.00"> &#45;next</text>
</g>
<!-- Node7 -->
<g id="node7" class="node"><title>Node7</title>
<polygon fill="white" stroke="#bfbfbf" points="286,-381 286,-449 403,-449 403,-381 286,-381"/>
<text text-anchor="start" x="294" y="-437" font-family="Helvetica,sans-Serif" font-size="10.00">internal::atomic_impl</text>
<text text-anchor="middle" x="344.5" y="-426" font-family="Helvetica,sans-Serif" font-size="10.00">&lt; unsigned &gt;</text>
<polyline fill="none" stroke="#bfbfbf" points="286,-419 403,-419 "/>
<text text-anchor="middle" x="344.5" y="-407" font-family="Helvetica,sans-Serif" font-size="10.00"> </text>
<polyline fill="none" stroke="#bfbfbf" points="286,-400 403,-400 "/>
<text text-anchor="middle" x="344.5" y="-388" font-family="Helvetica,sans-Serif" font-size="10.00"> </text>
</g>
<!-- Node7&#45;&gt;Node6 -->
<g id="edge6" class="edge"><title>Node7&#45;&gt;Node6</title>
<path fill="none" stroke="midnightblue" d="M344.5,-370.643C344.5,-349.838 344.5,-325.296 344.5,-305.958"/>
<polygon fill="none" stroke="midnightblue" points="341,-370.825 344.5,-380.825 348,-370.825 341,-370.825"/>
</g>
</g>
</svg>
        <g id="navigator" transform="translate(0 0)" fill="#404254">
                <rect fill="#f2f5e9" fill-opacity="0.5" stroke="#606060" stroke-width=".5" x="0" y="0" width="60" height="60"/>
                <use id="zoomplus" xlink:href="#zoomPlus" x="17" y="9" onmousedown="handleZoom(evt,'in')"/>
                <use id="zoomminus" xlink:href="#zoomMin" x="42" y="9" onmousedown="handleZoom(evt,'out')"/>
                <use id="reset" xlink:href="#resetDef" x="30" y="36" onmousedown="handleReset()"/>
                <g id="arrowUp" xlink:href="#dirArrow" transform="translate(30 24)" onmousedown="handlePan(0,-1)">
                  <use xlink:href="#rim" fill="#404040">
                        <set attributeName="fill" to="#808080" begin="arrowUp.mouseover" end="arrowUp.mouseout"/>
                  </use>
                  <path fill="none" stroke="white" stroke-width="1.5" d="M0,-3.0v7 M-2.5,-0.5L0,-3.0L2.5,-0.5"/>
                </g>
                <g id="arrowRight" xlink:href="#dirArrow" transform="rotate(90) translate(36 -43)" onmousedown="handlePan(1,0)">
                  <use xlink:href="#rim" fill="#404040">
                        <set attributeName="fill" to="#808080" begin="arrowRight.mouseover" end="arrowRight.mouseout"/>
                  </use>
                  <path fill="none" stroke="white" stroke-width="1.5" d="M0,-3.0v7 M-2.5,-0.5L0,-3.0L2.5,-0.5"/>
                </g>
                <g id="arrowDown" xlink:href="#dirArrow" transform="rotate(180) translate(-30 -48)" onmousedown="handlePan(0,1)">
                  <use xlink:href="#rim" fill="#404040">
                        <set attributeName="fill" to="#808080" begin="arrowDown.mouseover" end="arrowDown.mouseout"/>
                  </use>
                  <path fill="none" stroke="white" stroke-width="1.5" d="M0,-3.0v7 M-2.5,-0.5L0,-3.0L2.5,-0.5"/>
                </g>
                <g id="arrowLeft" xlink:href="#dirArrow" transform="rotate(270) translate(-36 17)" onmousedown="handlePan(-1,0)">
                  <use xlink:href="#rim" fill="#404040">
                        <set attributeName="fill" to="#808080" begin="arrowLeft.mouseover" end="arrowLeft.mouseout"/>
                  </use>
                  <path fill="none" stroke="white" stroke-width="1.5" d="M0,-3.0v7 M-2.5,-0.5L0,-3.0L2.5,-0.5"/>
                </g>
        </g>
        <svg viewBox="0 0 15 15" width="100%" height="30px" preserveAspectRatio="xMaxYMin meet">
         <g id="arrow_out" transform="scale(0.3 0.3)">
          <a xlink:href="classThreadLevelRecorder__coll__graph_org.svg" target="_base">
           <rect id="button" ry="5" rx="5" y="6" x="6" height="38" width="38"
                fill="#f2f5e9" fill-opacity="0.5" stroke="#606060" stroke-width="1.0"/>
           <path id="arrow"
             d="M 11.500037,31.436501 C 11.940474,20.09759 22.043105,11.32322 32.158766,21.979434 L 37.068811,17.246167 C 37.068811,17.246167 37.088388,32 37.088388,32 L 22.160133,31.978069 C 22.160133,31.978069 26.997745,27.140456 26.997745,27.140456 C 18.528582,18.264221 13.291696,25.230495 11.500037,31.436501 z"
             style="fill:#404040;"/>
          </a>
         </g>
        </svg>
</svg>
