<?xml version="1.0" encoding="UTF-8" standalone="no"?>
<!DOCTYPE svg PUBLIC "-//W3C//DTD SVG 1.1//EN"
 "http://www.w3.org/Graphics/SVG/1.1/DTD/svg11.dtd">
<!-- Generated by graphviz version 2.38.0 (20140413.2041)
 -->
<!-- Title: algorithm_depend Pages: 1 -->
<svg width="130pt" height="310pt"
 viewBox="0.00 0.00 130.00 310.00" xmlns="http://www.w3.org/2000/svg" xmlns:xlink="http://www.w3.org/1999/xlink">
<g id="graph0" class="graph" transform="scale(1 1) rotate(0) translate(4 306)">
<title>algorithm_depend</title>
<polygon fill="white" stroke="none" points="-4,4 -4,-306 126,-306 126,4 -4,4"/>
<!-- Node1 -->
<g id="node1" class="node"><title>Node1</title>
<polygon fill="#bfbfbf" stroke="black" points="0,-0.5 0,-68.5 122,-68.5 122,-0.5 0,-0.5"/>
<text text-anchor="middle" x="61" y="-56.5" font-family="Helvetica,sans-Serif" font-size="10.00">algorithm_depend</text>
<polyline fill="none" stroke="black" points="0,-49.5 122,-49.5 "/>
<text text-anchor="middle" x="61" y="-37.5" font-family="Helvetica,sans-Serif" font-size="10.00"> </text>
<polyline fill="none" stroke="black" points="0,-30.5 122,-30.5 "/>
<text text-anchor="start" x="8" y="-18.5" font-family="Helvetica,sans-Serif" font-size="10.00">+ algorithm_depend()</text>
<text text-anchor="start" x="8" y="-7.5" font-family="Helvetica,sans-Serif" font-size="10.00"># func()</text>
</g>
<!-- Node2 -->
<g id="node2" class="node"><title>Node2</title>
<g id="a_node2"><a xlink:href="../../d3/dfc/classalgorithm.html" target="_top" xlink:title="{algorithm\n|&#45; is_tiled\l|+ algorithm()\l+ operator()()\l# func()\l&#45; check_if_valid()\l}">
<polygon fill="white" stroke="black" points="13,-106.5 13,-196.5 109,-196.5 109,-106.5 13,-106.5"/>
<text text-anchor="middle" x="61" y="-184.5" font-family="Helvetica,sans-Serif" font-size="10.00">algorithm</text>
<polyline fill="none" stroke="black" points="13,-177.5 109,-177.5 "/>
<text text-anchor="start" x="21" y="-165.5" font-family="Helvetica,sans-Serif" font-size="10.00">&#45; is_tiled</text>
<polyline fill="none" stroke="black" points="13,-158.5 109,-158.5 "/>
<text text-anchor="start" x="21" y="-146.5" font-family="Helvetica,sans-Serif" font-size="10.00">+ algorithm()</text>
<text text-anchor="start" x="21" y="-135.5" font-family="Helvetica,sans-Serif" font-size="10.00">+ operator()()</text>
<text text-anchor="start" x="21" y="-124.5" font-family="Helvetica,sans-Serif" font-size="10.00"># func()</text>
<text text-anchor="start" x="21" y="-113.5" font-family="Helvetica,sans-Serif" font-size="10.00">&#45; check_if_valid()</text>
</a>
</g>
</g>
<!-- Node2&#45;&gt;Node1 -->
<g id="edge1" class="edge"><title>Node2&#45;&gt;Node1</title>
<path fill="none" stroke="midnightblue" d="M61,-96.2309C61,-86.8035 61,-77.2599 61,-68.6181"/>
<polygon fill="none" stroke="midnightblue" points="57.5001,-96.3669 61,-106.367 64.5001,-96.3669 57.5001,-96.3669"/>
</g>
<!-- Node3 -->
<g id="node3" class="node"><title>Node3</title>
<polygon fill="white" stroke="#bfbfbf" points="39,-244.5 39,-301.5 83,-301.5 83,-244.5 39,-244.5"/>
<text text-anchor="middle" x="61" y="-289.5" font-family="Helvetica,sans-Serif" font-size="10.00">string</text>
<polyline fill="none" stroke="#bfbfbf" points="39,-282.5 83,-282.5 "/>
<text text-anchor="middle" x="61" y="-270.5" font-family="Helvetica,sans-Serif" font-size="10.00"> </text>
<polyline fill="none" stroke="#bfbfbf" points="39,-263.5 83,-263.5 "/>
<text text-anchor="middle" x="61" y="-251.5" font-family="Helvetica,sans-Serif" font-size="10.00"> </text>
</g>
<!-- Node3&#45;&gt;Node2 -->
<g id="edge2" class="edge"><title>Node3&#45;&gt;Node2</title>
<path fill="none" stroke="#404040" d="M61,-244.284C61,-233.735 61,-221.294 61,-209.035"/>
<polygon fill="none" stroke="#404040" points="61.0001,-208.912 57,-202.912 61,-196.912 65,-202.912 61.0001,-208.912"/>
<text text-anchor="middle" x="78.5" y="-218" font-family="Helvetica,sans-Serif" font-size="10.00"> &#45;name</text>
</g>
</g>
</svg>
