<?xml version="1.0" encoding="UTF-8" standalone="no"?>
<!DOCTYPE svg PUBLIC "-//W3C//DTD SVG 1.1//EN"
 "http://www.w3.org/Graphics/SVG/1.1/DTD/svg11.dtd">
<!-- Generated by graphviz version 2.38.0 (20140413.2041)
 -->
<!-- Title: /home/travis/build/ComPWA/ComPWA/ThirdParty/tbb/include/tbb/parallel_do.h Pages: 1 -->
<svg width="732pt" height="239pt"
 viewBox="0.00 0.00 732.00 239.00" xmlns="http://www.w3.org/2000/svg" xmlns:xlink="http://www.w3.org/1999/xlink">
<g id="graph0" class="graph" transform="scale(1 1) rotate(0) translate(4 235)">
<title>/home/travis/build/ComPWA/ComPWA/ThirdParty/tbb/include/tbb/parallel_do.h</title>
<polygon fill="white" stroke="none" points="-4,4 -4,-235 728,-235 728,4 -4,4"/>
<!-- Node1 -->
<g id="node1" class="node"><title>Node1</title>
<polygon fill="#bfbfbf" stroke="black" points="160,-189.5 160,-230.5 318,-230.5 318,-189.5 160,-189.5"/>
<text text-anchor="start" x="168" y="-218.5" font-family="Helvetica,sans-Serif" font-size="10.00">/home/travis/build</text>
<text text-anchor="start" x="168" y="-207.5" font-family="Helvetica,sans-Serif" font-size="10.00">/ComPWA/ComPWA/ThirdParty</text>
<text text-anchor="middle" x="239" y="-196.5" font-family="Helvetica,sans-Serif" font-size="10.00">/tbb/include/tbb/parallel_do.h</text>
</g>
<!-- Node2 -->
<g id="node2" class="node"><title>Node2</title>
<g id="a_node2"><a xlink:href="../../db/d71/parallel__preorder_8cpp.html" target="_top" xlink:title="/home/travis/build\l/ComPWA/ComPWA/ThirdParty\l/tbb/examples/parallel_do\l/parallel_preorder/parallel\l_preorder.cpp">
<polygon fill="white" stroke="black" points="0,-89.5 0,-152.5 158,-152.5 158,-89.5 0,-89.5"/>
<text text-anchor="start" x="8" y="-140.5" font-family="Helvetica,sans-Serif" font-size="10.00">/home/travis/build</text>
<text text-anchor="start" x="8" y="-129.5" font-family="Helvetica,sans-Serif" font-size="10.00">/ComPWA/ComPWA/ThirdParty</text>
<text text-anchor="start" x="8" y="-118.5" font-family="Helvetica,sans-Serif" font-size="10.00">/tbb/examples/parallel_do</text>
<text text-anchor="start" x="8" y="-107.5" font-family="Helvetica,sans-Serif" font-size="10.00">/parallel_preorder/parallel</text>
<text text-anchor="middle" x="79" y="-96.5" font-family="Helvetica,sans-Serif" font-size="10.00">_preorder.cpp</text>
</a>
</g>
</g>
<!-- Node1&#45;&gt;Node2 -->
<g id="edge1" class="edge"><title>Node1&#45;&gt;Node2</title>
<path fill="none" stroke="midnightblue" d="M194.114,-184.593C175.834,-174.653 154.502,-163.054 135.203,-152.561"/>
<polygon fill="midnightblue" stroke="midnightblue" points="192.636,-187.773 203.093,-189.476 195.98,-181.624 192.636,-187.773"/>
</g>
<!-- Node3 -->
<g id="node3" class="node"><title>Node3</title>
<g id="a_node3"><a xlink:href="../../dd/dde/parallel__for__each_8h.html" target="_top" xlink:title="/home/travis/build\l/ComPWA/ComPWA/ThirdParty\l/tbb/include/tbb/parallel\l_for_each.h">
<polygon fill="white" stroke="black" points="214,-95 214,-147 372,-147 372,-95 214,-95"/>
<text text-anchor="start" x="222" y="-135" font-family="Helvetica,sans-Serif" font-size="10.00">/home/travis/build</text>
<text text-anchor="start" x="222" y="-124" font-family="Helvetica,sans-Serif" font-size="10.00">/ComPWA/ComPWA/ThirdParty</text>
<text text-anchor="start" x="222" y="-113" font-family="Helvetica,sans-Serif" font-size="10.00">/tbb/include/tbb/parallel</text>
<text text-anchor="middle" x="293" y="-102" font-family="Helvetica,sans-Serif" font-size="10.00">_for_each.h</text>
</a>
</g>
</g>
<!-- Node1&#45;&gt;Node3 -->
<g id="edge2" class="edge"><title>Node1&#45;&gt;Node3</title>
<path fill="none" stroke="midnightblue" d="M256.608,-180.631C263.278,-169.885 270.821,-157.732 277.304,-147.288"/>
<polygon fill="midnightblue" stroke="midnightblue" points="253.553,-178.916 251.253,-189.258 259.501,-182.608 253.553,-178.916"/>
</g>
<!-- Node5 -->
<g id="node5" class="node"><title>Node5</title>
<g id="a_node5"><a xlink:href="../../d8/dc1/tbb_8h.html" target="_top" xlink:title="/home/travis/build\l/ComPWA/ComPWA/ThirdParty\l/tbb/include/tbb/tbb.h">
<polygon fill="white" stroke="red" points="38,-6 38,-47 196,-47 196,-6 38,-6"/>
<text text-anchor="start" x="46" y="-35" font-family="Helvetica,sans-Serif" font-size="10.00">/home/travis/build</text>
<text text-anchor="start" x="46" y="-24" font-family="Helvetica,sans-Serif" font-size="10.00">/ComPWA/ComPWA/ThirdParty</text>
<text text-anchor="middle" x="117" y="-13" font-family="Helvetica,sans-Serif" font-size="10.00">/tbb/include/tbb/tbb.h</text>
</a>
</g>
</g>
<!-- Node1&#45;&gt;Node5 -->
<g id="edge7" class="edge"><title>Node1&#45;&gt;Node5</title>
<path fill="none" stroke="midnightblue" d="M221.655,-180.553C216.297,-171.733 210.388,-161.974 205,-153 187.971,-124.639 185.93,-116.129 167,-89 156.842,-74.4424 144.226,-58.94 134.207,-47.1414"/>
<polygon fill="midnightblue" stroke="midnightblue" points="218.807,-182.607 226.994,-189.332 224.788,-178.97 218.807,-182.607"/>
</g>
<!-- Node8 -->
<g id="node8" class="node"><title>Node8</title>
<g id="a_node8"><a xlink:href="../../d6/d20/test__parallel__do_8cpp.html" target="_top" xlink:title="/home/travis/build\l/ComPWA/ComPWA/ThirdParty\l/tbb/src/test/test_parallel_do.cpp">
<polygon fill="white" stroke="black" points="390.5,-100.5 390.5,-141.5 563.5,-141.5 563.5,-100.5 390.5,-100.5"/>
<text text-anchor="start" x="398.5" y="-129.5" font-family="Helvetica,sans-Serif" font-size="10.00">/home/travis/build</text>
<text text-anchor="start" x="398.5" y="-118.5" font-family="Helvetica,sans-Serif" font-size="10.00">/ComPWA/ComPWA/ThirdParty</text>
<text text-anchor="middle" x="477" y="-107.5" font-family="Helvetica,sans-Serif" font-size="10.00">/tbb/src/test/test_parallel_do.cpp</text>
</a>
</g>
</g>
<!-- Node1&#45;&gt;Node8 -->
<g id="edge8" class="edge"><title>Node1&#45;&gt;Node8</title>
<path fill="none" stroke="midnightblue" d="M301.804,-186.042C339.633,-172.214 387.297,-154.791 423.355,-141.61"/>
<polygon fill="midnightblue" stroke="midnightblue" points="300.602,-182.755 292.412,-189.476 303.006,-189.329 300.602,-182.755"/>
</g>
<!-- Node4 -->
<g id="node4" class="node"><title>Node4</title>
<g id="a_node4"><a xlink:href="../../d5/d7d/ppl_8h.html" target="_top" xlink:title="/home/travis/build\l/ComPWA/ComPWA/ThirdParty\l/tbb/include/tbb/compat/ppl.h">
<polygon fill="white" stroke="red" points="214,-6 214,-47 372,-47 372,-6 214,-6"/>
<text text-anchor="start" x="222" y="-35" font-family="Helvetica,sans-Serif" font-size="10.00">/home/travis/build</text>
<text text-anchor="start" x="222" y="-24" font-family="Helvetica,sans-Serif" font-size="10.00">/ComPWA/ComPWA/ThirdParty</text>
<text text-anchor="middle" x="293" y="-13" font-family="Helvetica,sans-Serif" font-size="10.00">/tbb/include/tbb/compat/ppl.h</text>
</a>
</g>
</g>
<!-- Node3&#45;&gt;Node4 -->
<g id="edge3" class="edge"><title>Node3&#45;&gt;Node4</title>
<path fill="none" stroke="midnightblue" d="M293,-84.45C293,-71.7959 293,-58.0112 293,-47.1735"/>
<polygon fill="midnightblue" stroke="midnightblue" points="289.5,-84.7239 293,-94.724 296.5,-84.724 289.5,-84.7239"/>
</g>
<!-- Node3&#45;&gt;Node5 -->
<g id="edge4" class="edge"><title>Node3&#45;&gt;Node5</title>
<path fill="none" stroke="midnightblue" d="M236.448,-90.2782C209.575,-76.1543 178.195,-59.6624 154.344,-47.127"/>
<polygon fill="midnightblue" stroke="midnightblue" points="234.892,-93.414 245.372,-94.9682 238.148,-87.2177 234.892,-93.414"/>
</g>
<!-- Node6 -->
<g id="node6" class="node"><title>Node6</title>
<g id="a_node6"><a xlink:href="../../d2/df5/time__parallel__for__each_8cpp.html" target="_top" xlink:title="/home/travis/build\l/ComPWA/ComPWA/ThirdParty\l/tbb/src/perf/time_parallel\l_for_each.cpp">
<polygon fill="white" stroke="black" points="390,-0.5 390,-52.5 548,-52.5 548,-0.5 390,-0.5"/>
<text text-anchor="start" x="398" y="-40.5" font-family="Helvetica,sans-Serif" font-size="10.00">/home/travis/build</text>
<text text-anchor="start" x="398" y="-29.5" font-family="Helvetica,sans-Serif" font-size="10.00">/ComPWA/ComPWA/ThirdParty</text>
<text text-anchor="start" x="398" y="-18.5" font-family="Helvetica,sans-Serif" font-size="10.00">/tbb/src/perf/time_parallel</text>
<text text-anchor="middle" x="469" y="-7.5" font-family="Helvetica,sans-Serif" font-size="10.00">_for_each.cpp</text>
</a>
</g>
</g>
<!-- Node3&#45;&gt;Node6 -->
<g id="edge5" class="edge"><title>Node3&#45;&gt;Node6</title>
<path fill="none" stroke="midnightblue" d="M349.644,-90.2297C372.77,-78.0753 399.22,-64.1741 421.334,-52.5518"/>
<polygon fill="midnightblue" stroke="midnightblue" points="347.852,-87.2177 340.628,-94.9682 351.108,-93.414 347.852,-87.2177"/>
</g>
<!-- Node7 -->
<g id="node7" class="node"><title>Node7</title>
<g id="a_node7"><a xlink:href="../../dd/d41/test__parallel__for__each_8cpp.html" target="_top" xlink:title="/home/travis/build\l/ComPWA/ComPWA/ThirdParty\l/tbb/src/test/test_parallel\l_for_each.cpp">
<polygon fill="white" stroke="black" points="566,-0.5 566,-52.5 724,-52.5 724,-0.5 566,-0.5"/>
<text text-anchor="start" x="574" y="-40.5" font-family="Helvetica,sans-Serif" font-size="10.00">/home/travis/build</text>
<text text-anchor="start" x="574" y="-29.5" font-family="Helvetica,sans-Serif" font-size="10.00">/ComPWA/ComPWA/ThirdParty</text>
<text text-anchor="start" x="574" y="-18.5" font-family="Helvetica,sans-Serif" font-size="10.00">/tbb/src/test/test_parallel</text>
<text text-anchor="middle" x="645" y="-7.5" font-family="Helvetica,sans-Serif" font-size="10.00">_for_each.cpp</text>
</a>
</g>
</g>
<!-- Node3&#45;&gt;Node7 -->
<g id="edge6" class="edge"><title>Node3&#45;&gt;Node7</title>
<path fill="none" stroke="midnightblue" d="M371.86,-91.9207C375.275,-90.8983 378.665,-89.9194 382,-89 458.55,-67.8942 479.916,-72.0653 557,-53 559.934,-52.2744 562.917,-51.516 565.926,-50.7337"/>
<polygon fill="midnightblue" stroke="midnightblue" points="370.721,-88.6093 362.198,-94.9037 372.786,-95.2978 370.721,-88.6093"/>
</g>
</g>
</svg>
