<?xml version="1.0" encoding="UTF-8" standalone="no"?>
<!DOCTYPE svg PUBLIC "-//W3C//DTD SVG 1.1//EN"
 "http://www.w3.org/Graphics/SVG/1.1/DTD/svg11.dtd">
<!-- Generated by graphviz version 2.38.0 (20140413.2041)
 -->
<!-- Title: /home/travis/build/ComPWA/ComPWA/ThirdParty/EvtGen/EvtVector3R.cpp Pages: 1 -->
<svg width="346pt" height="162pt"
 viewBox="0.00 0.00 345.50 162.00" xmlns="http://www.w3.org/2000/svg" xmlns:xlink="http://www.w3.org/1999/xlink">
<g id="graph0" class="graph" transform="scale(1 1) rotate(0) translate(4 158)">
<title>/home/travis/build/ComPWA/ComPWA/ThirdParty/EvtGen/EvtVector3R.cpp</title>
<polygon fill="white" stroke="none" points="-4,4 -4,-158 341.5,-158 341.5,4 -4,4"/>
<!-- Node1 -->
<g id="node1" class="node"><title>Node1</title>
<polygon fill="#bfbfbf" stroke="black" points="89,-112.5 89,-153.5 247,-153.5 247,-112.5 89,-112.5"/>
<text text-anchor="start" x="97" y="-141.5" font-family="Helvetica,sans-Serif" font-size="10.00">/home/travis/build</text>
<text text-anchor="start" x="97" y="-130.5" font-family="Helvetica,sans-Serif" font-size="10.00">/ComPWA/ComPWA/ThirdParty</text>
<text text-anchor="middle" x="168" y="-119.5" font-family="Helvetica,sans-Serif" font-size="10.00">/EvtGen/EvtVector3R.cpp</text>
</g>
<!-- Node2 -->
<g id="node2" class="node"><title>Node2</title>
<g id="a_node2"><a xlink:href="../../df/ddd/EvtPatches_8hh.html" target="_top" xlink:title="EvtPatches.hh">
<polygon fill="white" stroke="black" points="-7.10543e-15,-56.5 -7.10543e-15,-75.5 84,-75.5 84,-56.5 -7.10543e-15,-56.5"/>
<text text-anchor="middle" x="42" y="-63.5" font-family="Helvetica,sans-Serif" font-size="10.00">EvtPatches.hh</text>
</a>
</g>
</g>
<!-- Node1&#45;&gt;Node2 -->
<g id="edge1" class="edge"><title>Node1&#45;&gt;Node2</title>
<path fill="none" stroke="midnightblue" d="M130.196,-112.498C110.135,-102.149 85.9926,-89.6946 68.0425,-80.4346"/>
<polygon fill="midnightblue" stroke="midnightblue" points="69.2643,-77.1267 58.7725,-75.6525 66.055,-83.3477 69.2643,-77.1267"/>
</g>
<!-- Node3 -->
<g id="node3" class="node"><title>Node3</title>
<polygon fill="white" stroke="#bfbfbf" points="102.5,-56.5 102.5,-75.5 161.5,-75.5 161.5,-56.5 102.5,-56.5"/>
<text text-anchor="middle" x="132" y="-63.5" font-family="Helvetica,sans-Serif" font-size="10.00">iostream</text>
</g>
<!-- Node1&#45;&gt;Node3 -->
<g id="edge2" class="edge"><title>Node1&#45;&gt;Node3</title>
<path fill="none" stroke="midnightblue" d="M157.199,-112.498C152.263,-103.586 146.463,-93.1135 141.672,-84.4636"/>
<polygon fill="midnightblue" stroke="midnightblue" points="144.699,-82.7046 136.792,-75.6525 138.575,-86.0962 144.699,-82.7046"/>
</g>
<!-- Node4 -->
<g id="node4" class="node"><title>Node4</title>
<polygon fill="white" stroke="#bfbfbf" points="179.5,-56.5 179.5,-75.5 230.5,-75.5 230.5,-56.5 179.5,-56.5"/>
<text text-anchor="middle" x="205" y="-63.5" font-family="Helvetica,sans-Serif" font-size="10.00">math.h</text>
</g>
<!-- Node1&#45;&gt;Node4 -->
<g id="edge3" class="edge"><title>Node1&#45;&gt;Node4</title>
<path fill="none" stroke="midnightblue" d="M179.101,-112.498C184.174,-103.586 190.135,-93.1135 195.059,-84.4636"/>
<polygon fill="midnightblue" stroke="midnightblue" points="198.169,-86.0746 200.075,-75.6525 192.086,-82.6117 198.169,-86.0746"/>
</g>
<!-- Node5 -->
<g id="node5" class="node"><title>Node5</title>
<g id="a_node5"><a xlink:href="../../dc/d30/EvtVector3R_8hh.html" target="_top" xlink:title="EvtVector3R.hh">
<polygon fill="white" stroke="black" points="248.5,-56.5 248.5,-75.5 337.5,-75.5 337.5,-56.5 248.5,-56.5"/>
<text text-anchor="middle" x="293" y="-63.5" font-family="Helvetica,sans-Serif" font-size="10.00">EvtVector3R.hh</text>
</a>
</g>
</g>
<!-- Node1&#45;&gt;Node5 -->
<g id="edge4" class="edge"><title>Node1&#45;&gt;Node5</title>
<path fill="none" stroke="midnightblue" d="M205.504,-112.498C225.406,-102.149 249.357,-89.6946 267.164,-80.4346"/>
<polygon fill="midnightblue" stroke="midnightblue" points="269.103,-83.3713 276.361,-75.6525 265.874,-77.1608 269.103,-83.3713"/>
</g>
<!-- Node6 -->
<g id="node6" class="node"><title>Node6</title>
<polygon fill="white" stroke="#bfbfbf" points="270,-0.5 270,-19.5 316,-19.5 316,-0.5 270,-0.5"/>
<text text-anchor="middle" x="293" y="-7.5" font-family="Helvetica,sans-Serif" font-size="10.00">iosfwd</text>
</g>
<!-- Node5&#45;&gt;Node6 -->
<g id="edge5" class="edge"><title>Node5&#45;&gt;Node6</title>
<path fill="none" stroke="midnightblue" d="M293,-56.083C293,-49.0059 293,-38.8611 293,-29.9865"/>
<polygon fill="midnightblue" stroke="midnightblue" points="296.5,-29.751 293,-19.7511 289.5,-29.7511 296.5,-29.751"/>
</g>
</g>
</svg>
