<?xml version="1.0" encoding="UTF-8" standalone="no"?>
<!DOCTYPE svg PUBLIC "-//W3C//DTD SVG 1.1//EN"
 "http://www.w3.org/Graphics/SVG/1.1/DTD/svg11.dtd">
<!-- Generated by graphviz version 2.38.0 (20140413.2041)
 -->
<!-- Title: /home/travis/build/ComPWA/ComPWA/ThirdParty/tbb/src/tbb/mutex.cpp Pages: 1 -->
<svg width="405pt" height="218pt"
 viewBox="0.00 0.00 405.00 218.00" xmlns="http://www.w3.org/2000/svg" xmlns:xlink="http://www.w3.org/1999/xlink">
<g id="graph0" class="graph" transform="scale(1 1) rotate(0) translate(4 214)">
<title>/home/travis/build/ComPWA/ComPWA/ThirdParty/tbb/src/tbb/mutex.cpp</title>
<polygon fill="white" stroke="none" points="-4,4 -4,-214 401,-214 401,4 -4,4"/>
<!-- Node1 -->
<g id="node1" class="node"><title>Node1</title>
<polygon fill="#bfbfbf" stroke="black" points="209.5,-168.5 209.5,-209.5 367.5,-209.5 367.5,-168.5 209.5,-168.5"/>
<text text-anchor="start" x="217.5" y="-197.5" font-family="Helvetica,sans-Serif" font-size="10.00">/home/travis/build</text>
<text text-anchor="start" x="217.5" y="-186.5" font-family="Helvetica,sans-Serif" font-size="10.00">/ComPWA/ComPWA/ThirdParty</text>
<text text-anchor="middle" x="288.5" y="-175.5" font-family="Helvetica,sans-Serif" font-size="10.00">/tbb/src/tbb/mutex.cpp</text>
</g>
<!-- Node2 -->
<g id="node2" class="node"><title>Node2</title>
<g id="a_node2"><a xlink:href="../../d0/df8/mutex_8h.html" target="_top" xlink:title="tbb/mutex.h">
<polygon fill="white" stroke="black" points="176,-112.5 176,-131.5 251,-131.5 251,-112.5 176,-112.5"/>
<text text-anchor="middle" x="213.5" y="-119.5" font-family="Helvetica,sans-Serif" font-size="10.00">tbb/mutex.h</text>
</a>
</g>
</g>
<!-- Node1&#45;&gt;Node2 -->
<g id="edge1" class="edge"><title>Node1&#45;&gt;Node2</title>
<path fill="none" stroke="midnightblue" d="M265.998,-168.498C254.83,-158.82 241.539,-147.3 231.124,-138.274"/>
<polygon fill="midnightblue" stroke="midnightblue" points="233.333,-135.557 223.484,-131.652 228.748,-140.847 233.333,-135.557"/>
</g>
<!-- Node8 -->
<g id="node8" class="node"><title>Node8</title>
<g id="a_node8"><a xlink:href="../../d0/d58/itt__notify_8h.html" target="_top" xlink:title="itt_notify.h">
<polygon fill="white" stroke="black" points="332,-112.5 332,-131.5 397,-131.5 397,-112.5 332,-112.5"/>
<text text-anchor="middle" x="364.5" y="-119.5" font-family="Helvetica,sans-Serif" font-size="10.00">itt_notify.h</text>
</a>
</g>
</g>
<!-- Node1&#45;&gt;Node8 -->
<g id="edge8" class="edge"><title>Node1&#45;&gt;Node8</title>
<path fill="none" stroke="midnightblue" d="M311.303,-168.498C322.619,-158.82 336.087,-147.3 346.641,-138.274"/>
<polygon fill="midnightblue" stroke="midnightblue" points="349.058,-140.812 354.383,-131.652 344.509,-135.492 349.058,-140.812"/>
</g>
<!-- Node3 -->
<g id="node3" class="node"><title>Node3</title>
<polygon fill="white" stroke="#bfbfbf" points="0,-56.5 0,-75.5 63,-75.5 63,-56.5 0,-56.5"/>
<text text-anchor="middle" x="31.5" y="-63.5" font-family="Helvetica,sans-Serif" font-size="10.00">pthread.h</text>
</g>
<!-- Node2&#45;&gt;Node3 -->
<g id="edge2" class="edge"><title>Node2&#45;&gt;Node3</title>
<path fill="none" stroke="midnightblue" d="M184.662,-112.444C153.644,-103.241 104.171,-88.5617 69.8816,-78.3879"/>
<polygon fill="midnightblue" stroke="midnightblue" points="70.786,-75.0055 60.2035,-75.5164 68.7949,-81.7164 70.786,-75.0055"/>
</g>
<!-- Node4 -->
<g id="node4" class="node"><title>Node4</title>
<polygon fill="white" stroke="#bfbfbf" points="81,-56.5 81,-75.5 116,-75.5 116,-56.5 81,-56.5"/>
<text text-anchor="middle" x="98.5" y="-63.5" font-family="Helvetica,sans-Serif" font-size="10.00">new</text>
</g>
<!-- Node2&#45;&gt;Node4 -->
<g id="edge3" class="edge"><title>Node2&#45;&gt;Node4</title>
<path fill="none" stroke="midnightblue" d="M195.278,-112.444C176.495,-103.624 146.999,-89.7736 125.505,-79.6805"/>
<polygon fill="midnightblue" stroke="midnightblue" points="126.798,-76.4213 116.259,-75.339 123.823,-82.7576 126.798,-76.4213"/>
</g>
<!-- Node5 -->
<g id="node5" class="node"><title>Node5</title>
<g id="a_node5"><a xlink:href="../../dd/d69/aligned__space_8h.html" target="_top" xlink:title="aligned_space.h">
<polygon fill="white" stroke="red" points="134.5,-56.5 134.5,-75.5 228.5,-75.5 228.5,-56.5 134.5,-56.5"/>
<text text-anchor="middle" x="181.5" y="-63.5" font-family="Helvetica,sans-Serif" font-size="10.00">aligned_space.h</text>
</a>
</g>
</g>
<!-- Node2&#45;&gt;Node5 -->
<g id="edge4" class="edge"><title>Node2&#45;&gt;Node5</title>
<path fill="none" stroke="midnightblue" d="M208.216,-112.083C203.789,-104.613 197.337,-93.7244 191.882,-84.5199"/>
<polygon fill="midnightblue" stroke="midnightblue" points="194.795,-82.5697 186.686,-75.7511 188.773,-86.1383 194.795,-82.5697"/>
</g>
<!-- Node6 -->
<g id="node6" class="node"><title>Node6</title>
<g id="a_node6"><a xlink:href="../../d2/d98/tbb__stddef_8h.html" target="_top" xlink:title="tbb_stddef.h">
<polygon fill="white" stroke="red" points="218.5,-0.5 218.5,-19.5 294.5,-19.5 294.5,-0.5 218.5,-0.5"/>
<text text-anchor="middle" x="256.5" y="-7.5" font-family="Helvetica,sans-Serif" font-size="10.00">tbb_stddef.h</text>
</a>
</g>
</g>
<!-- Node2&#45;&gt;Node6 -->
<g id="edge6" class="edge"><title>Node2&#45;&gt;Node6</title>
<path fill="none" stroke="midnightblue" d="M218.837,-112.296C224.113,-103.417 232.151,-89.1181 237.5,-76 243.742,-60.6906 248.86,-42.5869 252.205,-29.3785"/>
<polygon fill="midnightblue" stroke="midnightblue" points="255.62,-30.1476 254.583,-19.6035 248.818,-28.4925 255.62,-30.1476"/>
</g>
<!-- Node7 -->
<g id="node7" class="node"><title>Node7</title>
<g id="a_node7"><a xlink:href="../../d0/dc3/tbb__profiling_8h.html" target="_top" xlink:title="tbb_profiling.h">
<polygon fill="white" stroke="red" points="284.5,-56.5 284.5,-75.5 368.5,-75.5 368.5,-56.5 284.5,-56.5"/>
<text text-anchor="middle" x="326.5" y="-63.5" font-family="Helvetica,sans-Serif" font-size="10.00">tbb_profiling.h</text>
</a>
</g>
</g>
<!-- Node2&#45;&gt;Node7 -->
<g id="edge7" class="edge"><title>Node2&#45;&gt;Node7</title>
<path fill="none" stroke="midnightblue" d="M231.405,-112.444C249.754,-103.675 278.505,-89.9355 299.594,-79.8579"/>
<polygon fill="midnightblue" stroke="midnightblue" points="301.165,-82.9862 308.679,-75.5164 298.147,-76.6703 301.165,-82.9862"/>
</g>
<!-- Node5&#45;&gt;Node6 -->
<g id="edge5" class="edge"><title>Node5&#45;&gt;Node6</title>
<path fill="none" stroke="midnightblue" d="M193.55,-56.324C204.963,-48.1066 222.331,-35.6017 235.935,-25.8069"/>
<polygon fill="midnightblue" stroke="midnightblue" points="238.16,-28.5174 244.231,-19.8339 234.07,-22.8366 238.16,-28.5174"/>
</g>
<!-- Node8&#45;&gt;Node6 -->
<g id="edge9" class="edge"><title>Node8&#45;&gt;Node6</title>
<path fill="none" stroke="midnightblue" d="M370.127,-112.158C377.84,-98.7962 389.454,-73.1989 377.5,-56 361.126,-32.4412 330.874,-21.1913 304.716,-15.831"/>
<polygon fill="midnightblue" stroke="midnightblue" points="305.021,-12.3295 294.557,-13.9927 303.774,-19.2176 305.021,-12.3295"/>
</g>
</g>
</svg>
