<?xml version="1.0" encoding="UTF-8" standalone="no"?>
<!DOCTYPE svg PUBLIC "-//W3C//DTD SVG 1.1//EN"
 "http://www.w3.org/Graphics/SVG/1.1/DTD/svg11.dtd">
<!-- Generated by graphviz version 2.38.0 (20140413.2041)
 -->
<!-- Title: /home/travis/build/ComPWA/ComPWA/ThirdParty/tbb/include/tbb/internal/_flow_graph_item_buffer_impl.h Pages: 1 -->
<svg width="178pt" height="128pt"
 viewBox="0.00 0.00 178.00 128.00" xmlns="http://www.w3.org/2000/svg" xmlns:xlink="http://www.w3.org/1999/xlink">
<g id="graph0" class="graph" transform="scale(1 1) rotate(0) translate(4 124)">
<title>/home/travis/build/ComPWA/ComPWA/ThirdParty/tbb/include/tbb/internal/_flow_graph_item_buffer_impl.h</title>
<polygon fill="white" stroke="none" points="-4,4 -4,-124 174,-124 174,4 -4,4"/>
<!-- Node1 -->
<g id="node1" class="node"><title>Node1</title>
<polygon fill="#bfbfbf" stroke="black" points="0,-67.5 0,-119.5 170,-119.5 170,-67.5 0,-67.5"/>
<text text-anchor="start" x="8" y="-107.5" font-family="Helvetica,sans-Serif" font-size="10.00">/home/travis/build</text>
<text text-anchor="start" x="8" y="-96.5" font-family="Helvetica,sans-Serif" font-size="10.00">/ComPWA/ComPWA/ThirdParty</text>
<text text-anchor="start" x="8" y="-85.5" font-family="Helvetica,sans-Serif" font-size="10.00">/tbb/include/tbb/internal</text>
<text text-anchor="middle" x="85" y="-74.5" font-family="Helvetica,sans-Serif" font-size="10.00">/_flow_graph_item_buffer_impl.h</text>
</g>
<!-- Node2 -->
<g id="node2" class="node"><title>Node2</title>
<g id="a_node2"><a xlink:href="__flow__graph__types__impl_8h.html" target="_top" xlink:title="tbb/internal/_flow\l_graph_types_impl.h">
<polygon fill="white" stroke="black" points="27,-0.5 27,-30.5 143,-30.5 143,-0.5 27,-0.5"/>
<text text-anchor="start" x="35" y="-18.5" font-family="Helvetica,sans-Serif" font-size="10.00">tbb/internal/_flow</text>
<text text-anchor="middle" x="85" y="-7.5" font-family="Helvetica,sans-Serif" font-size="10.00">_graph_types_impl.h</text>
</a>
</g>
</g>
<!-- Node1&#45;&gt;Node2 -->
<g id="edge1" class="edge"><title>Node1&#45;&gt;Node2</title>
<path fill="none" stroke="midnightblue" d="M85,-67.1931C85,-58.7864 85,-49.4433 85,-41.0914"/>
<polygon fill="midnightblue" stroke="midnightblue" points="88.5001,-40.8452 85,-30.8453 81.5001,-40.8453 88.5001,-40.8452"/>
</g>
</g>
</svg>
