<?xml version="1.0" encoding="UTF-8" standalone="no"?>
<!DOCTYPE svg PUBLIC "-//W3C//DTD SVG 1.1//EN"
 "http://www.w3.org/Graphics/SVG/1.1/DTD/svg11.dtd">
<!-- Generated by graphviz version 2.38.0 (20140413.2041)
 -->
<!-- Title: /home/travis/build/ComPWA/ComPWA/ThirdParty/tbb/include/tbb/aligned_space.h Pages: 1 -->
<svg width="193pt" height="285pt"
 viewBox="0.00 0.00 193.00 285.00" xmlns="http://www.w3.org/2000/svg" xmlns:xlink="http://www.w3.org/1999/xlink">
<g id="graph0" class="graph" transform="scale(1 1) rotate(0) translate(4 281)">
<title>/home/travis/build/ComPWA/ComPWA/ThirdParty/tbb/include/tbb/aligned_space.h</title>
<polygon fill="white" stroke="none" points="-4,4 -4,-281 189,-281 189,4 -4,4"/>
<!-- Node1 -->
<g id="node1" class="node"><title>Node1</title>
<polygon fill="#bfbfbf" stroke="black" points="24.5,-224.5 24.5,-276.5 182.5,-276.5 182.5,-224.5 24.5,-224.5"/>
<text text-anchor="start" x="32.5" y="-264.5" font-family="Helvetica,sans-Serif" font-size="10.00">/home/travis/build</text>
<text text-anchor="start" x="32.5" y="-253.5" font-family="Helvetica,sans-Serif" font-size="10.00">/ComPWA/ComPWA/ThirdParty</text>
<text text-anchor="start" x="32.5" y="-242.5" font-family="Helvetica,sans-Serif" font-size="10.00">/tbb/include/tbb/aligned</text>
<text text-anchor="middle" x="103.5" y="-231.5" font-family="Helvetica,sans-Serif" font-size="10.00">_space.h</text>
</g>
<!-- Node2 -->
<g id="node2" class="node"><title>Node2</title>
<g id="a_node2"><a xlink:href="tbb__stddef_8h.html" target="_top" xlink:title="tbb_stddef.h">
<polygon fill="white" stroke="black" points="65.5,-112.5 65.5,-131.5 141.5,-131.5 141.5,-112.5 65.5,-112.5"/>
<text text-anchor="middle" x="103.5" y="-119.5" font-family="Helvetica,sans-Serif" font-size="10.00">tbb_stddef.h</text>
</a>
</g>
</g>
<!-- Node1&#45;&gt;Node2 -->
<g id="edge1" class="edge"><title>Node1&#45;&gt;Node2</title>
<path fill="none" stroke="midnightblue" d="M93.1064,-224.233C87.7704,-208.17 83.047,-186.911 86.5,-168 88.1876,-158.757 91.675,-148.948 95.0544,-140.855"/>
<polygon fill="midnightblue" stroke="midnightblue" points="98.2635,-142.252 99.1337,-131.693 91.8687,-139.405 98.2635,-142.252"/>
</g>
<!-- Node6 -->
<g id="node6" class="node"><title>Node6</title>
<g id="a_node6"><a xlink:href="tbb__machine_8h.html" target="_top" xlink:title="tbb_machine.h">
<polygon fill="white" stroke="black" points="95.5,-168.5 95.5,-187.5 183.5,-187.5 183.5,-168.5 95.5,-168.5"/>
<text text-anchor="middle" x="139.5" y="-175.5" font-family="Helvetica,sans-Serif" font-size="10.00">tbb_machine.h</text>
</a>
</g>
</g>
<!-- Node1&#45;&gt;Node6 -->
<g id="edge6" class="edge"><title>Node1&#45;&gt;Node6</title>
<path fill="none" stroke="midnightblue" d="M116.294,-224.446C120.949,-215.329 126.112,-205.217 130.385,-196.851"/>
<polygon fill="midnightblue" stroke="midnightblue" points="133.629,-198.193 135.06,-187.695 127.395,-195.01 133.629,-198.193"/>
</g>
<!-- Node3 -->
<g id="node3" class="node"><title>Node3</title>
<g id="a_node3"><a xlink:href="tbb__config_8h.html" target="_top" xlink:title="tbb_config.h">
<polygon fill="white" stroke="black" points="0,-56.5 0,-75.5 75,-75.5 75,-56.5 0,-56.5"/>
<text text-anchor="middle" x="37.5" y="-63.5" font-family="Helvetica,sans-Serif" font-size="10.00">tbb_config.h</text>
</a>
</g>
</g>
<!-- Node2&#45;&gt;Node3 -->
<g id="edge2" class="edge"><title>Node2&#45;&gt;Node3</title>
<path fill="none" stroke="midnightblue" d="M92.896,-112.324C83.0438,-104.263 68.1491,-92.0765 56.2849,-82.3695"/>
<polygon fill="midnightblue" stroke="midnightblue" points="58.2529,-79.4575 48.297,-75.8339 53.8202,-84.8752 58.2529,-79.4575"/>
</g>
<!-- Node4 -->
<g id="node4" class="node"><title>Node4</title>
<polygon fill="white" stroke="#bfbfbf" points="44.5,-0.5 44.5,-19.5 96.5,-19.5 96.5,-0.5 44.5,-0.5"/>
<text text-anchor="middle" x="70.5" y="-7.5" font-family="Helvetica,sans-Serif" font-size="10.00">cstddef</text>
</g>
<!-- Node2&#45;&gt;Node4 -->
<g id="edge4" class="edge"><title>Node2&#45;&gt;Node4</title>
<path fill="none" stroke="midnightblue" d="M100.911,-112.368C95.561,-94.5366 83.1886,-53.2953 75.9815,-29.2717"/>
<polygon fill="midnightblue" stroke="midnightblue" points="79.3034,-28.1639 73.0774,-19.5914 72.5986,-30.1754 79.3034,-28.1639"/>
</g>
<!-- Node5 -->
<g id="node5" class="node"><title>Node5</title>
<polygon fill="white" stroke="#bfbfbf" points="132,-56.5 132,-75.5 185,-75.5 185,-56.5 132,-56.5"/>
<text text-anchor="middle" x="158.5" y="-63.5" font-family="Helvetica,sans-Serif" font-size="10.00">stdint.h</text>
</g>
<!-- Node2&#45;&gt;Node5 -->
<g id="edge5" class="edge"><title>Node2&#45;&gt;Node5</title>
<path fill="none" stroke="midnightblue" d="M112.582,-112.083C120.671,-104.141 132.695,-92.3354 142.41,-82.7973"/>
<polygon fill="midnightblue" stroke="midnightblue" points="144.903,-85.2545 149.587,-75.7511 139.999,-80.2595 144.903,-85.2545"/>
</g>
<!-- Node3&#45;&gt;Node4 -->
<g id="edge3" class="edge"><title>Node3&#45;&gt;Node4</title>
<path fill="none" stroke="midnightblue" d="M42.9493,-56.083C47.5145,-48.6127 54.1684,-37.7244 59.7934,-28.5199"/>
<polygon fill="midnightblue" stroke="midnightblue" points="62.9241,-30.109 65.1521,-19.7511 56.9511,-26.4588 62.9241,-30.109"/>
</g>
<!-- Node6&#45;&gt;Node2 -->
<g id="edge7" class="edge"><title>Node6&#45;&gt;Node2</title>
<path fill="none" stroke="midnightblue" d="M133.555,-168.083C128.523,-160.534 121.163,-149.495 114.987,-140.23"/>
<polygon fill="midnightblue" stroke="midnightblue" points="117.793,-138.13 109.334,-131.751 111.969,-142.013 117.793,-138.13"/>
</g>
</g>
</svg>
