<?xml version="1.0" encoding="UTF-8" standalone="no"?>
<!DOCTYPE svg PUBLIC "-//W3C//DTD SVG 1.1//EN"
 "http://www.w3.org/Graphics/SVG/1.1/DTD/svg11.dtd">
<!-- Generated by graphviz version 2.38.0 (20140413.2041)
 -->
<!-- Title: Data/Ascii/AsciiHeaderIO.cpp Pages: 1 -->
<svg width="554pt" height="140pt"
 viewBox="0.00 0.00 554.00 140.00" xmlns="http://www.w3.org/2000/svg" xmlns:xlink="http://www.w3.org/1999/xlink">
<g id="graph0" class="graph" transform="scale(1 1) rotate(0) translate(4 136)">
<title>Data/Ascii/AsciiHeaderIO.cpp</title>
<polygon fill="white" stroke="none" points="-4,4 -4,-136 550,-136 550,4 -4,4"/>
<!-- Node1 -->
<g id="node1" class="node"><title>Node1</title>
<polygon fill="#bfbfbf" stroke="black" points="121,-112.5 121,-131.5 269,-131.5 269,-112.5 121,-112.5"/>
<text text-anchor="middle" x="195" y="-119.5" font-family="Helvetica,sans-Serif" font-size="10.00">Data/Ascii/AsciiHeaderIO.cpp</text>
</g>
<!-- Node2 -->
<g id="node2" class="node"><title>Node2</title>
<polygon fill="white" stroke="#bfbfbf" points="0,-56.5 0,-75.5 56,-75.5 56,-56.5 0,-56.5"/>
<text text-anchor="middle" x="28" y="-63.5" font-family="Helvetica,sans-Serif" font-size="10.00">algorithm</text>
</g>
<!-- Node1&#45;&gt;Node2 -->
<g id="edge1" class="edge"><title>Node1&#45;&gt;Node2</title>
<path fill="none" stroke="midnightblue" d="M168.538,-112.444C140.322,-103.32 95.4595,-88.8133 64.0315,-78.6509"/>
<polygon fill="midnightblue" stroke="midnightblue" points="64.9296,-75.263 54.3378,-75.5164 62.7759,-81.9234 64.9296,-75.263"/>
</g>
<!-- Node3 -->
<g id="node3" class="node"><title>Node3</title>
<polygon fill="white" stroke="#bfbfbf" points="74,-56.5 74,-75.5 124,-75.5 124,-56.5 74,-56.5"/>
<text text-anchor="middle" x="99" y="-63.5" font-family="Helvetica,sans-Serif" font-size="10.00">fstream</text>
</g>
<!-- Node1&#45;&gt;Node3 -->
<g id="edge2" class="edge"><title>Node1&#45;&gt;Node3</title>
<path fill="none" stroke="midnightblue" d="M179.576,-112.324C164.46,-103.822 141.185,-90.7288 123.529,-80.7975"/>
<polygon fill="midnightblue" stroke="midnightblue" points="124.817,-77.5066 114.386,-75.6545 121.386,-83.6077 124.817,-77.5066"/>
</g>
<!-- Node4 -->
<g id="node4" class="node"><title>Node4</title>
<polygon fill="white" stroke="#bfbfbf" points="142.5,-56.5 142.5,-75.5 183.5,-75.5 183.5,-56.5 142.5,-56.5"/>
<text text-anchor="middle" x="163" y="-63.5" font-family="Helvetica,sans-Serif" font-size="10.00">regex</text>
</g>
<!-- Node1&#45;&gt;Node4 -->
<g id="edge3" class="edge"><title>Node1&#45;&gt;Node4</title>
<path fill="none" stroke="midnightblue" d="M189.716,-112.083C185.289,-104.613 178.837,-93.7244 173.382,-84.5199"/>
<polygon fill="midnightblue" stroke="midnightblue" points="176.295,-82.5697 168.186,-75.7511 170.273,-86.1383 176.295,-82.5697"/>
</g>
<!-- Node5 -->
<g id="node5" class="node"><title>Node5</title>
<polygon fill="white" stroke="#bfbfbf" points="202,-56.5 202,-75.5 254,-75.5 254,-56.5 202,-56.5"/>
<text text-anchor="middle" x="228" y="-63.5" font-family="Helvetica,sans-Serif" font-size="10.00">sstream</text>
</g>
<!-- Node1&#45;&gt;Node5 -->
<g id="edge4" class="edge"><title>Node1&#45;&gt;Node5</title>
<path fill="none" stroke="midnightblue" d="M200.449,-112.083C205.014,-104.613 211.668,-93.7244 217.293,-84.5199"/>
<polygon fill="midnightblue" stroke="midnightblue" points="220.424,-86.109 222.652,-75.7511 214.451,-82.4588 220.424,-86.109"/>
</g>
<!-- Node6 -->
<g id="node6" class="node"><title>Node6</title>
<g id="a_node6"><a xlink:href="Exceptions_8hpp.html" target="_top" xlink:title="ComPWA exceptions. ">
<polygon fill="white" stroke="black" points="272,-56.5 272,-75.5 380,-75.5 380,-56.5 272,-56.5"/>
<text text-anchor="middle" x="326" y="-63.5" font-family="Helvetica,sans-Serif" font-size="10.00">Core/Exceptions.hpp</text>
</a>
</g>
</g>
<!-- Node1&#45;&gt;Node6 -->
<g id="edge5" class="edge"><title>Node1&#45;&gt;Node6</title>
<path fill="none" stroke="midnightblue" d="M215.757,-112.444C237.316,-103.557 271.263,-89.5632 295.794,-79.4514"/>
<polygon fill="midnightblue" stroke="midnightblue" points="297.428,-82.5634 305.34,-75.5164 294.761,-76.0917 297.428,-82.5634"/>
</g>
<!-- Node9 -->
<g id="node9" class="node"><title>Node9</title>
<g id="a_node9"><a xlink:href="AsciiHeaderIO_8hpp.html" target="_top" xlink:title="Data/Ascii/AsciiHeaderIO.hpp">
<polygon fill="white" stroke="black" points="398,-56.5 398,-75.5 546,-75.5 546,-56.5 398,-56.5"/>
<text text-anchor="middle" x="472" y="-63.5" font-family="Helvetica,sans-Serif" font-size="10.00">Data/Ascii/AsciiHeaderIO.hpp</text>
</a>
</g>
</g>
<!-- Node1&#45;&gt;Node9 -->
<g id="edge8" class="edge"><title>Node1&#45;&gt;Node9</title>
<path fill="none" stroke="midnightblue" d="M238.891,-112.444C287.517,-102.964 365.946,-87.6747 418.224,-77.4835"/>
<polygon fill="midnightblue" stroke="midnightblue" points="419.168,-80.8653 428.314,-75.5164 417.829,-73.9946 419.168,-80.8653"/>
</g>
<!-- Node7 -->
<g id="node7" class="node"><title>Node7</title>
<polygon fill="white" stroke="#bfbfbf" points="296.5,-0.5 296.5,-19.5 355.5,-19.5 355.5,-0.5 296.5,-0.5"/>
<text text-anchor="middle" x="326" y="-7.5" font-family="Helvetica,sans-Serif" font-size="10.00">exception</text>
</g>
<!-- Node6&#45;&gt;Node7 -->
<g id="edge6" class="edge"><title>Node6&#45;&gt;Node7</title>
<path fill="none" stroke="midnightblue" d="M326,-56.083C326,-49.0059 326,-38.8611 326,-29.9865"/>
<polygon fill="midnightblue" stroke="midnightblue" points="329.5,-29.751 326,-19.7511 322.5,-29.7511 329.5,-29.751"/>
</g>
<!-- Node8 -->
<g id="node8" class="node"><title>Node8</title>
<polygon fill="white" stroke="#bfbfbf" points="381.5,-0.5 381.5,-19.5 422.5,-19.5 422.5,-0.5 381.5,-0.5"/>
<text text-anchor="middle" x="402" y="-7.5" font-family="Helvetica,sans-Serif" font-size="10.00">string</text>
</g>
<!-- Node6&#45;&gt;Node8 -->
<g id="edge7" class="edge"><title>Node6&#45;&gt;Node8</title>
<path fill="none" stroke="midnightblue" d="M338.211,-56.324C349.776,-48.1066 367.375,-35.6017 381.161,-25.8069"/>
<polygon fill="midnightblue" stroke="midnightblue" points="383.443,-28.4791 389.567,-19.8339 379.388,-22.7729 383.443,-28.4791"/>
</g>
<!-- Node9&#45;&gt;Node8 -->
<g id="edge9" class="edge"><title>Node9&#45;&gt;Node8</title>
<path fill="none" stroke="midnightblue" d="M460.753,-56.324C450.203,-48.1849 434.199,-35.8395 421.558,-26.0874"/>
<polygon fill="midnightblue" stroke="midnightblue" points="423.507,-23.1707 413.451,-19.8339 419.231,-28.7132 423.507,-23.1707"/>
</g>
<!-- Node10 -->
<g id="node10" class="node"><title>Node10</title>
<polygon fill="white" stroke="#bfbfbf" points="450,-0.5 450,-19.5 494,-19.5 494,-0.5 450,-0.5"/>
<text text-anchor="middle" x="472" y="-7.5" font-family="Helvetica,sans-Serif" font-size="10.00">vector</text>
</g>
<!-- Node9&#45;&gt;Node10 -->
<g id="edge10" class="edge"><title>Node9&#45;&gt;Node10</title>
<path fill="none" stroke="midnightblue" d="M472,-56.083C472,-49.0059 472,-38.8611 472,-29.9865"/>
<polygon fill="midnightblue" stroke="midnightblue" points="475.5,-29.751 472,-19.7511 468.5,-29.7511 475.5,-29.751"/>
</g>
</g>
</svg>
