<?xml version="1.0" encoding="UTF-8" standalone="no"?>
<!DOCTYPE svg PUBLIC "-//W3C//DTD SVG 1.1//EN"
 "http://www.w3.org/Graphics/SVG/1.1/DTD/svg11.dtd">
<!-- Generated by graphviz version 2.40.1 (20161225.0304)
 -->
<!-- Title: Data/Ascii/AsciiDataIO.cpp Pages: 1 -->
<!--zoomable 207 -->
<svg id="main" version="1.1" xmlns="http://www.w3.org/2000/svg" xmlns:xlink="http://www.w3.org/1999/xlink" xml:space="preserve" onload="init(evt)">
<style type="text/css"><![CDATA[
.edge:hover path { stroke: red; }
.edge:hover polygon { stroke: red; fill: red; }
]]></style>
<script type="text/javascript"><![CDATA[
var edges = document.getElementsByTagName('g');
if (edges && edges.length) {
  for (var i=0;i<edges.length;i++) {
    if (edges[i].id.substr(0,4)=='edge') {
      edges[i].setAttribute('class','edge');
    }
  }
}
]]></script>
        <defs>
                <circle id="rim" cx="0" cy="0" r="7"/>
                <circle id="rim2" cx="0" cy="0" r="3.5"/>
                <g id="zoomPlus">
                        <use xlink:href="#rim" fill="#404040">
                                <set attributeName="fill" to="#808080" begin="zoomplus.mouseover" end="zoomplus.mouseout"/>
                        </use>
                        <path d="M-4,0h8M0,-4v8" fill="none" stroke="white" stroke-width="1.5" pointer-events="none"/>
                </g>
                <g id="zoomMin">
                        <use xlink:href="#rim" fill="#404040">
                                <set attributeName="fill" to="#808080" begin="zoomminus.mouseover" end="zoomminus.mouseout"/>
                        </use>
                        <path d="M-4,0h8" fill="none" stroke="white" stroke-width="1.5" pointer-events="none"/>
                </g>
                <g id="dirArrow">
                        <path fill="none" stroke="white" stroke-width="1.5" d="M0,-3.0v7 M-2.5,-0.5L0,-3.0L2.5,-0.5"/>
                </g>
               <g id="resetDef">
                       <use xlink:href="#rim2" fill="#404040">
                               <set attributeName="fill" to="#808080" begin="reset.mouseover" end="reset.mouseout"/>
                       </use>
               </g>
        </defs>

<script type="text/javascript">
var viewWidth = 795;
var viewHeight = 207;
var sectionId = 'dynsection-0';
</script>
<script xlink:href="svgpan.js"/>
<svg id="graph" class="graph">
<g id="viewport">
<title>Data/Ascii/AsciiDataIO.cpp</title>
<polygon fill="#ffffff" stroke="transparent" points="-4,4 -4,-203 790.5,-203 790.5,4 -4,4"/>
<!-- Node0 -->
<g id="node1" class="node">
<title>Node0</title>
<polygon fill="#bfbfbf" stroke="#000000" points="188.5,-179.5 188.5,-198.5 334.5,-198.5 334.5,-179.5 188.5,-179.5"/>
<text text-anchor="middle" x="261.5" y="-186.5" font-family="Helvetica,sans-Serif" font-size="10.00" fill="#000000">Data/Ascii/AsciiDataIO.cpp</text>
</g>
<!-- Node1 -->
<g id="node2" class="node">
<title>Node1</title>
<polygon fill="#ffffff" stroke="#bfbfbf" points="0,-123.5 0,-142.5 55,-142.5 55,-123.5 0,-123.5"/>
<text text-anchor="middle" x="27.5" y="-130.5" font-family="Helvetica,sans-Serif" font-size="10.00" fill="#000000">fstream</text>
</g>
<!-- Node0&#45;&gt;Node1 -->
<g id="edge1" class="edge">
<title>Node0&#45;&gt;Node1</title>
<path fill="none" stroke="#191970" d="M218.7412,-179.4639C180.8757,-170.9186 123.8672,-157.8095 65.1692,-143.1081"/>
<polygon fill="#191970" stroke="#191970" points="65.9051,-139.6843 55.3533,-140.6386 64.1971,-146.4727 65.9051,-139.6843"/>
</g>
<!-- Node2 -->
<g id="node3" class="node">
<title>Node2</title>
<polygon fill="#ffffff" stroke="#bfbfbf" points="73.5,-123.5 73.5,-142.5 129.5,-142.5 129.5,-123.5 73.5,-123.5"/>
<text text-anchor="middle" x="101.5" y="-130.5" font-family="Helvetica,sans-Serif" font-size="10.00" fill="#000000">sstream</text>
</g>
<!-- Node0&#45;&gt;Node2 -->
<g id="edge2" class="edge">
<title>Node0&#45;&gt;Node2</title>
<path fill="none" stroke="#191970" d="M233.995,-179.3733C207.6198,-170.1419 167.6149,-156.1402 138.4642,-145.9375"/>
<polygon fill="#191970" stroke="#191970" points="139.2409,-142.5012 128.6461,-142.5011 136.9284,-149.1082 139.2409,-142.5012"/>
</g>
<!-- Node3 -->
<g id="node4" class="node">
<title>Node3</title>
<polygon fill="#ffffff" stroke="#bfbfbf" points="148,-123.5 148,-142.5 193,-142.5 193,-123.5 148,-123.5"/>
<text text-anchor="middle" x="170.5" y="-130.5" font-family="Helvetica,sans-Serif" font-size="10.00" fill="#000000">utility</text>
</g>
<!-- Node0&#45;&gt;Node3 -->
<g id="edge3" class="edge">
<title>Node0&#45;&gt;Node3</title>
<path fill="none" stroke="#191970" d="M245.649,-179.2455C231.6868,-170.6534 211.1272,-158.0014 195.0404,-148.1018"/>
<polygon fill="#191970" stroke="#191970" points="196.5203,-144.9029 186.1693,-142.6427 192.8516,-150.8645 196.5203,-144.9029"/>
</g>
<!-- Node4 -->
<g id="node5" class="node">
<title>Node4</title>
<g id="a_node5"><a xlink:href="Exceptions_8hpp.html" target="_top" xlink:title="ComPWA exceptions. ">
<polygon fill="#ffffff" stroke="#000000" points="330.5,-123.5 330.5,-142.5 446.5,-142.5 446.5,-123.5 330.5,-123.5"/>
<text text-anchor="middle" x="388.5" y="-130.5" font-family="Helvetica,sans-Serif" font-size="10.00" fill="#000000">Core/Exceptions.hpp</text>
</a>
</g>
</g>
<!-- Node0&#45;&gt;Node4 -->
<g id="edge4" class="edge">
<title>Node0&#45;&gt;Node4</title>
<path fill="none" stroke="#191970" d="M283.3321,-179.3733C303.8103,-170.3435 334.6399,-156.7494 357.6319,-146.6111"/>
<polygon fill="#191970" stroke="#191970" points="359.215,-149.7383 366.9528,-142.5011 356.3907,-143.3333 359.215,-149.7383"/>
</g>
<!-- Node7 -->
<g id="node8" class="node">
<title>Node7</title>
<g id="a_node8"><a xlink:href="Logging_8hpp.html" target="_top" xlink:title="Core/Logging.hpp">
<polygon fill="#ffffff" stroke="#000000" points="211,-123.5 211,-142.5 312,-142.5 312,-123.5 211,-123.5"/>
<text text-anchor="middle" x="261.5" y="-130.5" font-family="Helvetica,sans-Serif" font-size="10.00" fill="#000000">Core/Logging.hpp</text>
</a>
</g>
</g>
<!-- Node0&#45;&gt;Node7 -->
<g id="edge7" class="edge">
<title>Node0&#45;&gt;Node7</title>
<path fill="none" stroke="#191970" d="M261.5,-179.2455C261.5,-171.9382 261.5,-161.6944 261.5,-152.7046"/>
<polygon fill="#191970" stroke="#191970" points="265.0001,-152.6426 261.5,-142.6427 258.0001,-152.6427 265.0001,-152.6426"/>
</g>
<!-- Node9 -->
<g id="node10" class="node">
<title>Node9</title>
<g id="a_node10"><a xlink:href="AsciiDataIO_8hpp.html" target="_top" xlink:title="Data/Ascii/AsciiDataIO.hpp">
<polygon fill="#ffffff" stroke="#000000" points="640.5,-123.5 640.5,-142.5 786.5,-142.5 786.5,-123.5 640.5,-123.5"/>
<text text-anchor="middle" x="713.5" y="-130.5" font-family="Helvetica,sans-Serif" font-size="10.00" fill="#000000">Data/Ascii/AsciiDataIO.hpp</text>
</a>
</g>
</g>
<!-- Node0&#45;&gt;Node9 -->
<g id="edge9" class="edge">
<title>Node0&#45;&gt;Node9</title>
<path fill="none" stroke="#191970" d="M334.624,-179.9404C415.536,-169.9159 545.6635,-153.7939 630.3812,-143.2979"/>
<polygon fill="#191970" stroke="#191970" points="630.9874,-146.7497 640.4811,-142.0466 630.1266,-139.8028 630.9874,-146.7497"/>
</g>
<!-- Node30 -->
<g id="node14" class="node">
<title>Node30</title>
<g id="a_node14"><a xlink:href="AsciiHeaderIO_8hpp.html" target="_top" xlink:title="Data/Ascii/AsciiHeaderIO.hpp">
<polygon fill="#ffffff" stroke="#000000" points="464.5,-123.5 464.5,-142.5 622.5,-142.5 622.5,-123.5 464.5,-123.5"/>
<text text-anchor="middle" x="543.5" y="-130.5" font-family="Helvetica,sans-Serif" font-size="10.00" fill="#000000">Data/Ascii/AsciiHeaderIO.hpp</text>
</a>
</g>
</g>
<!-- Node0&#45;&gt;Node30 -->
<g id="edge14" class="edge">
<title>Node0&#45;&gt;Node30</title>
<path fill="none" stroke="#191970" d="M309.6571,-179.4369C358.3248,-169.7724 433.5575,-154.8326 485.4821,-144.5213"/>
<polygon fill="#191970" stroke="#191970" points="486.4148,-147.9045 495.5415,-142.5237 485.0513,-141.0386 486.4148,-147.9045"/>
</g>
<!-- Node5 -->
<g id="node6" class="node">
<title>Node5</title>
<polygon fill="#ffffff" stroke="#bfbfbf" points="356,-62 356,-81 421,-81 421,-62 356,-62"/>
<text text-anchor="middle" x="388.5" y="-69" font-family="Helvetica,sans-Serif" font-size="10.00" fill="#000000">exception</text>
</g>
<!-- Node4&#45;&gt;Node5 -->
<g id="edge5" class="edge">
<title>Node4&#45;&gt;Node5</title>
<path fill="none" stroke="#191970" d="M388.5,-123.3906C388.5,-114.8657 388.5,-102.1392 388.5,-91.4235"/>
<polygon fill="#191970" stroke="#191970" points="392.0001,-91.2448 388.5,-81.2449 385.0001,-91.2449 392.0001,-91.2448"/>
</g>
<!-- Node6 -->
<g id="node7" class="node">
<title>Node6</title>
<polygon fill="#ffffff" stroke="#bfbfbf" points="456.5,-62 456.5,-81 500.5,-81 500.5,-62 456.5,-62"/>
<text text-anchor="middle" x="478.5" y="-69" font-family="Helvetica,sans-Serif" font-size="10.00" fill="#000000">string</text>
</g>
<!-- Node4&#45;&gt;Node6 -->
<g id="edge6" class="edge">
<title>Node4&#45;&gt;Node6</title>
<path fill="none" stroke="#191970" d="M402.5625,-123.3906C416.8286,-113.6421 439.135,-98.3994 455.8872,-86.9521"/>
<polygon fill="#191970" stroke="#191970" points="458.2545,-89.5736 464.5362,-81.0419 454.3051,-83.7941 458.2545,-89.5736"/>
</g>
<!-- Node8 -->
<g id="node9" class="node">
<title>Node8</title>
<polygon fill="#ffffff" stroke="#bfbfbf" points="191.5,-56.5 191.5,-86.5 331.5,-86.5 331.5,-56.5 191.5,-56.5"/>
<text text-anchor="start" x="199.5" y="-74.5" font-family="Helvetica,sans-Serif" font-size="10.00" fill="#000000">ThirdParty/easyloggingpp</text>
<text text-anchor="middle" x="261.5" y="-63.5" font-family="Helvetica,sans-Serif" font-size="10.00" fill="#000000">/easylogging++.h</text>
</g>
<!-- Node7&#45;&gt;Node8 -->
<g id="edge8" class="edge">
<title>Node7&#45;&gt;Node8</title>
<path fill="none" stroke="#191970" d="M261.5,-123.3906C261.5,-116.2234 261.5,-106.0862 261.5,-96.671"/>
<polygon fill="#191970" stroke="#191970" points="265.0001,-96.5446 261.5,-86.5446 258.0001,-96.5446 265.0001,-96.5446"/>
</g>
<!-- Node10 -->
<g id="node11" class="node">
<title>Node10</title>
<polygon fill="#ffffff" stroke="#bfbfbf" points="683.5,-62 683.5,-81 741.5,-81 741.5,-62 683.5,-62"/>
<text text-anchor="middle" x="712.5" y="-69" font-family="Helvetica,sans-Serif" font-size="10.00" fill="#000000">memory</text>
</g>
<!-- Node9&#45;&gt;Node10 -->
<g id="edge10" class="edge">
<title>Node9&#45;&gt;Node10</title>
<path fill="none" stroke="#191970" d="M713.3438,-123.3906C713.2051,-114.8657 712.9982,-102.1392 712.824,-91.4235"/>
<polygon fill="#191970" stroke="#191970" points="716.3207,-91.1866 712.6585,-81.2449 709.3216,-91.3005 716.3207,-91.1866"/>
</g>
<!-- Node11 -->
<g id="node12" class="node">
<title>Node11</title>
<polygon fill="#ffffff" stroke="#bfbfbf" points="596,-.5 596,-19.5 643,-19.5 643,-.5 596,-.5"/>
<text text-anchor="middle" x="619.5" y="-7.5" font-family="Helvetica,sans-Serif" font-size="10.00" fill="#000000">vector</text>
</g>
<!-- Node9&#45;&gt;Node11 -->
<g id="edge11" class="edge">
<title>Node9&#45;&gt;Node11</title>
<path fill="none" stroke="#191970" d="M724.3785,-123.4372C740.2617,-108.3024 766.2795,-78.265 750.5,-56 738.9879,-39.7563 687.7853,-25.3221 652.9092,-17.1259"/>
<polygon fill="#191970" stroke="#191970" points="653.6409,-13.703 643.1123,-14.8854 652.0803,-20.5268 653.6409,-13.703"/>
</g>
<!-- Node12 -->
<g id="node13" class="node">
<title>Node12</title>
<g id="a_node13"><a xlink:href="Event_8hpp.html" target="_top" xlink:title="Core/Event.hpp">
<polygon fill="#ffffff" stroke="#ff0000" points="574,-62 574,-81 665,-81 665,-62 574,-62"/>
<text text-anchor="middle" x="619.5" y="-69" font-family="Helvetica,sans-Serif" font-size="10.00" fill="#000000">Core/Event.hpp</text>
</a>
</g>
</g>
<!-- Node9&#45;&gt;Node12 -->
<g id="edge12" class="edge">
<title>Node9&#45;&gt;Node12</title>
<path fill="none" stroke="#191970" d="M698.8125,-123.3906C683.7744,-113.5519 660.1824,-98.1167 642.6333,-86.6351"/>
<polygon fill="#191970" stroke="#191970" points="644.3687,-83.588 634.0844,-81.0419 640.5363,-89.4457 644.3687,-83.588"/>
</g>
<!-- Node12&#45;&gt;Node11 -->
<g id="edge13" class="edge">
<title>Node12&#45;&gt;Node11</title>
<path fill="none" stroke="#191970" d="M619.5,-61.8906C619.5,-53.3657 619.5,-40.6392 619.5,-29.9235"/>
<polygon fill="#191970" stroke="#191970" points="623.0001,-29.7448 619.5,-19.7449 616.0001,-29.7449 623.0001,-29.7448"/>
</g>
<!-- Node30&#45;&gt;Node6 -->
<g id="edge15" class="edge">
<title>Node30&#45;&gt;Node6</title>
<path fill="none" stroke="#191970" d="M533.3438,-123.3906C523.4801,-114.0581 508.2945,-99.6902 496.4013,-88.4374"/>
<polygon fill="#191970" stroke="#191970" points="498.4689,-85.5753 488.7994,-81.2449 493.6579,-90.6601 498.4689,-85.5753"/>
</g>
<!-- Node30&#45;&gt;Node11 -->
<g id="edge16" class="edge">
<title>Node30&#45;&gt;Node11</title>
<path fill="none" stroke="#191970" d="M544.4569,-123.2587C546.3483,-107.8792 551.6574,-77.5127 565.5,-56 573.1012,-44.187 584.649,-33.7688 595.1175,-25.8475"/>
<polygon fill="#191970" stroke="#191970" points="597.4584,-28.4759 603.5469,-19.8052 593.3802,-22.7866 597.4584,-28.4759"/>
</g>
</g>
</svg>
        <g id="navigator" transform="translate(0 0)" fill="#404254">
                <rect fill="#f2f5e9" fill-opacity="0.5" stroke="#606060" stroke-width=".5" x="0" y="0" width="60" height="60"/>
                <use id="zoomplus" xlink:href="#zoomPlus" x="17" y="9" onmousedown="handleZoom(evt,'in')"/>
                <use id="zoomminus" xlink:href="#zoomMin" x="42" y="9" onmousedown="handleZoom(evt,'out')"/>
                <use id="reset" xlink:href="#resetDef" x="30" y="36" onmousedown="handleReset()"/>
                <g id="arrowUp" xlink:href="#dirArrow" transform="translate(30 24)" onmousedown="handlePan(0,-1)">
                  <use xlink:href="#rim" fill="#404040">
                        <set attributeName="fill" to="#808080" begin="arrowUp.mouseover" end="arrowUp.mouseout"/>
                  </use>
                  <path fill="none" stroke="white" stroke-width="1.5" d="M0,-3.0v7 M-2.5,-0.5L0,-3.0L2.5,-0.5"/>
                </g>
                <g id="arrowRight" xlink:href="#dirArrow" transform="rotate(90) translate(36 -43)" onmousedown="handlePan(1,0)">
                  <use xlink:href="#rim" fill="#404040">
                        <set attributeName="fill" to="#808080" begin="arrowRight.mouseover" end="arrowRight.mouseout"/>
                  </use>
                  <path fill="none" stroke="white" stroke-width="1.5" d="M0,-3.0v7 M-2.5,-0.5L0,-3.0L2.5,-0.5"/>
                </g>
                <g id="arrowDown" xlink:href="#dirArrow" transform="rotate(180) translate(-30 -48)" onmousedown="handlePan(0,1)">
                  <use xlink:href="#rim" fill="#404040">
                        <set attributeName="fill" to="#808080" begin="arrowDown.mouseover" end="arrowDown.mouseout"/>
                  </use>
                  <path fill="none" stroke="white" stroke-width="1.5" d="M0,-3.0v7 M-2.5,-0.5L0,-3.0L2.5,-0.5"/>
                </g>
                <g id="arrowLeft" xlink:href="#dirArrow" transform="rotate(270) translate(-36 17)" onmousedown="handlePan(-1,0)">
                  <use xlink:href="#rim" fill="#404040">
                        <set attributeName="fill" to="#808080" begin="arrowLeft.mouseover" end="arrowLeft.mouseout"/>
                  </use>
                  <path fill="none" stroke="white" stroke-width="1.5" d="M0,-3.0v7 M-2.5,-0.5L0,-3.0L2.5,-0.5"/>
                </g>
        </g>
        <svg viewBox="0 0 15 15" width="100%" height="30px" preserveAspectRatio="xMaxYMin meet">
         <g id="arrow_out" transform="scale(0.3 0.3)">
          <a xlink:href="AsciiDataIO_8cpp__incl_org.svg" target="_base">
           <rect id="button" ry="5" rx="5" y="6" x="6" height="38" width="38"
                fill="#f2f5e9" fill-opacity="0.5" stroke="#606060" stroke-width="1.0"/>
           <path id="arrow"
             d="M 11.500037,31.436501 C 11.940474,20.09759 22.043105,11.32322 32.158766,21.979434 L 37.068811,17.246167 C 37.068811,17.246167 37.088388,32 37.088388,32 L 22.160133,31.978069 C 22.160133,31.978069 26.997745,27.140456 26.997745,27.140456 C 18.528582,18.264221 13.291696,25.230495 11.500037,31.436501 z"
             style="fill:#404040;"/>
          </a>
         </g>
        </svg>
</svg>
