<?xml version="1.0" encoding="UTF-8" standalone="no"?>
<!DOCTYPE svg PUBLIC "-//W3C//DTD SVG 1.1//EN"
 "http://www.w3.org/Graphics/SVG/1.1/DTD/svg11.dtd">
<!-- Generated by graphviz version 2.38.0 (20140413.2041)
 -->
<!-- Title: /home/travis/build/ComPWA/ComPWA/ThirdParty/tbb/include/tbb/atomic.h Pages: 1 -->
<svg width="167pt" height="218pt"
 viewBox="0.00 0.00 167.00 218.00" xmlns="http://www.w3.org/2000/svg" xmlns:xlink="http://www.w3.org/1999/xlink">
<g id="graph0" class="graph" transform="scale(1 1) rotate(0) translate(4 214)">
<title>/home/travis/build/ComPWA/ComPWA/ThirdParty/tbb/include/tbb/atomic.h</title>
<polygon fill="white" stroke="none" points="-4,4 -4,-214 163,-214 163,4 -4,4"/>
<!-- Node1 -->
<g id="node1" class="node"><title>Node1</title>
<polygon fill="#bfbfbf" stroke="black" points="-1.42109e-14,-168.5 -1.42109e-14,-209.5 158,-209.5 158,-168.5 -1.42109e-14,-168.5"/>
<text text-anchor="start" x="8" y="-197.5" font-family="Helvetica,sans-Serif" font-size="10.00">/home/travis/build</text>
<text text-anchor="start" x="8" y="-186.5" font-family="Helvetica,sans-Serif" font-size="10.00">/ComPWA/ComPWA/ThirdParty</text>
<text text-anchor="middle" x="79" y="-175.5" font-family="Helvetica,sans-Serif" font-size="10.00">/tbb/include/tbb/atomic.h</text>
</g>
<!-- Node2 -->
<g id="node2" class="node"><title>Node2</title>
<polygon fill="white" stroke="#bfbfbf" points="51,-0.5 51,-19.5 103,-19.5 103,-0.5 51,-0.5"/>
<text text-anchor="middle" x="77" y="-7.5" font-family="Helvetica,sans-Serif" font-size="10.00">cstddef</text>
</g>
<!-- Node1&#45;&gt;Node2 -->
<g id="edge1" class="edge"><title>Node1&#45;&gt;Node2</title>
<path fill="none" stroke="midnightblue" d="M71.4881,-168.37C67.8311,-157.772 63.835,-144.362 62,-132 59.5576,-115.547 62.6271,-70.984 65,-56 66.4086,-47.1056 68.8628,-37.433 71.1863,-29.3427"/>
<polygon fill="midnightblue" stroke="midnightblue" points="74.6144,-30.0983 74.1631,-19.5131 67.9149,-28.0694 74.6144,-30.0983"/>
</g>
<!-- Node3 -->
<g id="node3" class="node"><title>Node3</title>
<g id="a_node3"><a xlink:href="tbb__machine_8h.html" target="_top" xlink:title="tbb_machine.h">
<polygon fill="white" stroke="black" points="71,-112.5 71,-131.5 159,-131.5 159,-112.5 71,-112.5"/>
<text text-anchor="middle" x="115" y="-119.5" font-family="Helvetica,sans-Serif" font-size="10.00">tbb_machine.h</text>
</a>
</g>
</g>
<!-- Node1&#45;&gt;Node3 -->
<g id="edge2" class="edge"><title>Node1&#45;&gt;Node3</title>
<path fill="none" stroke="midnightblue" d="M89.8012,-168.498C94.7369,-159.586 100.537,-149.113 105.328,-140.464"/>
<polygon fill="midnightblue" stroke="midnightblue" points="108.425,-142.096 110.208,-131.652 102.301,-138.705 108.425,-142.096"/>
</g>
<!-- Node4 -->
<g id="node4" class="node"><title>Node4</title>
<g id="a_node4"><a xlink:href="tbb__stddef_8h.html" target="_top" xlink:title="tbb_stddef.h">
<polygon fill="white" stroke="red" points="74,-56.5 74,-75.5 150,-75.5 150,-56.5 74,-56.5"/>
<text text-anchor="middle" x="112" y="-63.5" font-family="Helvetica,sans-Serif" font-size="10.00">tbb_stddef.h</text>
</a>
</g>
</g>
<!-- Node3&#45;&gt;Node4 -->
<g id="edge3" class="edge"><title>Node3&#45;&gt;Node4</title>
<path fill="none" stroke="midnightblue" d="M114.505,-112.083C114.111,-105.006 113.548,-94.8611 113.055,-85.9865"/>
<polygon fill="midnightblue" stroke="midnightblue" points="116.536,-85.5415 112.486,-75.7511 109.546,-85.9299 116.536,-85.5415"/>
</g>
<!-- Node4&#45;&gt;Node2 -->
<g id="edge4" class="edge"><title>Node4&#45;&gt;Node2</title>
<path fill="none" stroke="midnightblue" d="M106.22,-56.083C101.328,-48.5341 94.1726,-37.4948 88.1674,-28.2298"/>
<polygon fill="midnightblue" stroke="midnightblue" points="91.048,-26.239 82.672,-19.7511 85.174,-30.0463 91.048,-26.239"/>
</g>
</g>
</svg>
