<?xml version="1.0" encoding="UTF-8" standalone="no"?>
<!DOCTYPE svg PUBLIC "-//W3C//DTD SVG 1.1//EN"
 "http://www.w3.org/Graphics/SVG/1.1/DTD/svg11.dtd">
<!-- Generated by graphviz version 2.38.0 (20140413.2041)
 -->
<!-- Title: /home/travis/build/ComPWA/ComPWA/ThirdParty/tbb/examples/parallel_for/tachyon/src/box.cpp Pages: 1 -->
<svg width="508pt" height="229pt"
 viewBox="0.00 0.00 508.00 229.00" xmlns="http://www.w3.org/2000/svg" xmlns:xlink="http://www.w3.org/1999/xlink">
<g id="graph0" class="graph" transform="scale(1 1) rotate(0) translate(4 225)">
<title>/home/travis/build/ComPWA/ComPWA/ThirdParty/tbb/examples/parallel_for/tachyon/src/box.cpp</title>
<polygon fill="white" stroke="none" points="-4,4 -4,-225 504,-225 504,4 -4,4"/>
<!-- Node1 -->
<g id="node1" class="node"><title>Node1</title>
<polygon fill="#bfbfbf" stroke="black" points="135.5,-168.5 135.5,-220.5 293.5,-220.5 293.5,-168.5 135.5,-168.5"/>
<text text-anchor="start" x="143.5" y="-208.5" font-family="Helvetica,sans-Serif" font-size="10.00">/home/travis/build</text>
<text text-anchor="start" x="143.5" y="-197.5" font-family="Helvetica,sans-Serif" font-size="10.00">/ComPWA/ComPWA/ThirdParty</text>
<text text-anchor="start" x="143.5" y="-186.5" font-family="Helvetica,sans-Serif" font-size="10.00">/tbb/examples/parallel_for</text>
<text text-anchor="middle" x="214.5" y="-175.5" font-family="Helvetica,sans-Serif" font-size="10.00">/tachyon/src/box.cpp</text>
</g>
<!-- Node2 -->
<g id="node2" class="node"><title>Node2</title>
<g id="a_node2"><a xlink:href="machine_8h.html" target="_top" xlink:title="machine.h">
<polygon fill="white" stroke="black" points="195,-56.5 195,-75.5 262,-75.5 262,-56.5 195,-56.5"/>
<text text-anchor="middle" x="228.5" y="-63.5" font-family="Helvetica,sans-Serif" font-size="10.00">machine.h</text>
</a>
</g>
</g>
<!-- Node1&#45;&gt;Node2 -->
<g id="edge1" class="edge"><title>Node1&#45;&gt;Node2</title>
<path fill="none" stroke="midnightblue" d="M139.101,-168.458C109.976,-154.523 87.1409,-135.276 103.5,-112 121.75,-86.0341 156.495,-74.9808 184.73,-70.3107"/>
<polygon fill="midnightblue" stroke="midnightblue" points="185.395,-73.7511 194.795,-68.8632 184.399,-66.8224 185.395,-73.7511"/>
</g>
<!-- Node10 -->
<g id="node10" class="node"><title>Node10</title>
<g id="a_node10"><a xlink:href="types_8h.html" target="_top" xlink:title="types.h">
<polygon fill="white" stroke="black" points="4.5,-112.5 4.5,-131.5 56.5,-131.5 56.5,-112.5 4.5,-112.5"/>
<text text-anchor="middle" x="30.5" y="-119.5" font-family="Helvetica,sans-Serif" font-size="10.00">types.h</text>
</a>
</g>
</g>
<!-- Node1&#45;&gt;Node10 -->
<g id="edge9" class="edge"><title>Node1&#45;&gt;Node10</title>
<path fill="none" stroke="midnightblue" d="M149.11,-168.446C119.646,-157.156 86.1964,-144.34 62.3481,-135.203"/>
<polygon fill="midnightblue" stroke="midnightblue" points="63.3451,-131.837 52.7548,-131.527 60.8405,-138.373 63.3451,-131.837"/>
</g>
<!-- Node12 -->
<g id="node12" class="node"><title>Node12</title>
<g id="a_node12"><a xlink:href="macros_8h.html" target="_top" xlink:title="macros.h">
<polygon fill="white" stroke="black" points="112.5,-112.5 112.5,-131.5 174.5,-131.5 174.5,-112.5 112.5,-112.5"/>
<text text-anchor="middle" x="143.5" y="-119.5" font-family="Helvetica,sans-Serif" font-size="10.00">macros.h</text>
</a>
</g>
</g>
<!-- Node1&#45;&gt;Node12 -->
<g id="edge11" class="edge"><title>Node1&#45;&gt;Node12</title>
<path fill="none" stroke="midnightblue" d="M189.268,-168.446C179.381,-158.628 168.331,-147.656 159.566,-138.952"/>
<polygon fill="midnightblue" stroke="midnightblue" points="161.819,-136.258 152.257,-131.695 156.887,-141.225 161.819,-136.258"/>
</g>
<!-- Node13 -->
<g id="node13" class="node"><title>Node13</title>
<g id="a_node13"><a xlink:href="box_8h.html" target="_top" xlink:title="box.h">
<polygon fill="white" stroke="black" points="193,-112.5 193,-131.5 236,-131.5 236,-112.5 193,-112.5"/>
<text text-anchor="middle" x="214.5" y="-119.5" font-family="Helvetica,sans-Serif" font-size="10.00">box.h</text>
</a>
</g>
</g>
<!-- Node1&#45;&gt;Node13 -->
<g id="edge12" class="edge"><title>Node1&#45;&gt;Node13</title>
<path fill="none" stroke="midnightblue" d="M214.5,-168.446C214.5,-159.73 214.5,-150.104 214.5,-141.964"/>
<polygon fill="midnightblue" stroke="midnightblue" points="218,-141.695 214.5,-131.695 211,-141.696 218,-141.695"/>
</g>
<!-- Node14 -->
<g id="node14" class="node"><title>Node14</title>
<g id="a_node14"><a xlink:href="vector_8h.html" target="_top" xlink:title="vector.h">
<polygon fill="white" stroke="black" points="254,-112.5 254,-131.5 309,-131.5 309,-112.5 254,-112.5"/>
<text text-anchor="middle" x="281.5" y="-119.5" font-family="Helvetica,sans-Serif" font-size="10.00">vector.h</text>
</a>
</g>
</g>
<!-- Node1&#45;&gt;Node14 -->
<g id="edge13" class="edge"><title>Node1&#45;&gt;Node14</title>
<path fill="none" stroke="midnightblue" d="M238.31,-168.446C247.641,-158.628 258.068,-147.656 266.34,-138.952"/>
<polygon fill="midnightblue" stroke="midnightblue" points="268.884,-141.355 273.236,-131.695 263.81,-136.533 268.884,-141.355"/>
</g>
<!-- Node15 -->
<g id="node15" class="node"><title>Node15</title>
<g id="a_node15"><a xlink:href="intersect_8h.html" target="_top" xlink:title="intersect.h">
<polygon fill="white" stroke="black" points="327.5,-112.5 327.5,-131.5 395.5,-131.5 395.5,-112.5 327.5,-112.5"/>
<text text-anchor="middle" x="361.5" y="-119.5" font-family="Helvetica,sans-Serif" font-size="10.00">intersect.h</text>
</a>
</g>
</g>
<!-- Node1&#45;&gt;Node15 -->
<g id="edge14" class="edge"><title>Node1&#45;&gt;Node15</title>
<path fill="none" stroke="midnightblue" d="M266.741,-168.446C289.65,-157.459 315.574,-145.026 334.509,-135.945"/>
<polygon fill="midnightblue" stroke="midnightblue" points="336.217,-139.007 343.72,-131.527 333.19,-132.696 336.217,-139.007"/>
</g>
<!-- Node16 -->
<g id="node16" class="node"><title>Node16</title>
<g id="a_node16"><a xlink:href="util_8h.html" target="_top" xlink:title="util.h">
<polygon fill="white" stroke="black" points="413.5,-112.5 413.5,-131.5 453.5,-131.5 453.5,-112.5 413.5,-112.5"/>
<text text-anchor="middle" x="433.5" y="-119.5" font-family="Helvetica,sans-Serif" font-size="10.00">util.h</text>
</a>
</g>
</g>
<!-- Node1&#45;&gt;Node16 -->
<g id="edge15" class="edge"><title>Node1&#45;&gt;Node16</title>
<path fill="none" stroke="midnightblue" d="M292.328,-168.446C330.871,-156.038 375.141,-141.787 403.675,-132.601"/>
<polygon fill="midnightblue" stroke="midnightblue" points="404.99,-135.855 413.436,-129.459 402.844,-129.192 404.99,-135.855"/>
</g>
<!-- Node3 -->
<g id="node3" class="node"><title>Node3</title>
<polygon fill="white" stroke="#bfbfbf" points="0,-0.5 0,-19.5 49,-19.5 49,-0.5 0,-0.5"/>
<text text-anchor="middle" x="24.5" y="-7.5" font-family="Helvetica,sans-Serif" font-size="10.00">stdio.h</text>
</g>
<!-- Node2&#45;&gt;Node3 -->
<g id="edge2" class="edge"><title>Node2&#45;&gt;Node3</title>
<path fill="none" stroke="midnightblue" d="M195.695,-56.46C163.272,-47.999 111.993,-34.5627 58.927,-20.3669"/>
<polygon fill="midnightblue" stroke="midnightblue" points="59.5668,-16.9149 49.0017,-17.7084 57.7557,-23.6766 59.5668,-16.9149"/>
</g>
<!-- Node4 -->
<g id="node4" class="node"><title>Node4</title>
<polygon fill="white" stroke="#bfbfbf" points="67,-0.5 67,-19.5 114,-19.5 114,-0.5 67,-0.5"/>
<text text-anchor="middle" x="90.5" y="-7.5" font-family="Helvetica,sans-Serif" font-size="10.00">cstdlib</text>
</g>
<!-- Node2&#45;&gt;Node4 -->
<g id="edge3" class="edge"><title>Node2&#45;&gt;Node4</title>
<path fill="none" stroke="midnightblue" d="M206.633,-56.4435C183.721,-47.4776 147.525,-33.314 121.634,-23.1827"/>
<polygon fill="midnightblue" stroke="midnightblue" points="122.852,-19.9011 112.264,-19.5164 120.301,-26.4198 122.852,-19.9011"/>
</g>
<!-- Node5 -->
<g id="node5" class="node"><title>Node5</title>
<polygon fill="white" stroke="#bfbfbf" points="132,-0.5 132,-19.5 185,-19.5 185,-0.5 132,-0.5"/>
<text text-anchor="middle" x="158.5" y="-7.5" font-family="Helvetica,sans-Serif" font-size="10.00">string.h</text>
</g>
<!-- Node2&#45;&gt;Node5 -->
<g id="edge4" class="edge"><title>Node2&#45;&gt;Node5</title>
<path fill="none" stroke="midnightblue" d="M217.253,-56.324C206.703,-48.1849 190.699,-35.8395 178.058,-26.0874"/>
<polygon fill="midnightblue" stroke="midnightblue" points="180.007,-23.1707 169.951,-19.8339 175.731,-28.7132 180.007,-23.1707"/>
</g>
<!-- Node6 -->
<g id="node6" class="node"><title>Node6</title>
<polygon fill="white" stroke="#bfbfbf" points="203,-0.5 203,-19.5 254,-19.5 254,-0.5 203,-0.5"/>
<text text-anchor="middle" x="228.5" y="-7.5" font-family="Helvetica,sans-Serif" font-size="10.00">math.h</text>
</g>
<!-- Node2&#45;&gt;Node6 -->
<g id="edge5" class="edge"><title>Node2&#45;&gt;Node6</title>
<path fill="none" stroke="midnightblue" d="M228.5,-56.083C228.5,-49.0059 228.5,-38.8611 228.5,-29.9865"/>
<polygon fill="midnightblue" stroke="midnightblue" points="232,-29.751 228.5,-19.7511 225,-29.7511 232,-29.751"/>
</g>
<!-- Node7 -->
<g id="node7" class="node"><title>Node7</title>
<polygon fill="white" stroke="#bfbfbf" points="272,-0.5 272,-19.5 343,-19.5 343,-0.5 272,-0.5"/>
<text text-anchor="middle" x="307.5" y="-7.5" font-family="Helvetica,sans-Serif" font-size="10.00">sys/types.h</text>
</g>
<!-- Node2&#45;&gt;Node7 -->
<g id="edge6" class="edge"><title>Node2&#45;&gt;Node7</title>
<path fill="none" stroke="midnightblue" d="M241.193,-56.324C253.401,-47.979 272.078,-35.2122 286.503,-25.3524"/>
<polygon fill="midnightblue" stroke="midnightblue" points="288.558,-28.1871 294.839,-19.6545 284.608,-22.4082 288.558,-28.1871"/>
</g>
<!-- Node8 -->
<g id="node8" class="node"><title>Node8</title>
<polygon fill="white" stroke="#bfbfbf" points="361,-0.5 361,-19.5 424,-19.5 424,-0.5 361,-0.5"/>
<text text-anchor="middle" x="392.5" y="-7.5" font-family="Helvetica,sans-Serif" font-size="10.00">sys/stat.h</text>
</g>
<!-- Node2&#45;&gt;Node8 -->
<g id="edge7" class="edge"><title>Node2&#45;&gt;Node8</title>
<path fill="none" stroke="midnightblue" d="M254.486,-56.4435C282.196,-47.3196 326.252,-32.8133 357.116,-22.6509"/>
<polygon fill="midnightblue" stroke="midnightblue" points="358.232,-25.9684 366.635,-19.5164 356.042,-19.3196 358.232,-25.9684"/>
</g>
<!-- Node9 -->
<g id="node9" class="node"><title>Node9</title>
<polygon fill="white" stroke="#bfbfbf" points="442.5,-0.5 442.5,-19.5 488.5,-19.5 488.5,-0.5 442.5,-0.5"/>
<text text-anchor="middle" x="465.5" y="-7.5" font-family="Helvetica,sans-Serif" font-size="10.00">fcntl.h</text>
</g>
<!-- Node2&#45;&gt;Node9 -->
<g id="edge8" class="edge"><title>Node2&#45;&gt;Node9</title>
<path fill="none" stroke="midnightblue" d="M262.016,-58.2662C300.817,-50.3341 366.847,-36.416 432.751,-20.0772"/>
<polygon fill="midnightblue" stroke="midnightblue" points="433.617,-23.4686 442.471,-17.6495 431.92,-16.6773 433.617,-23.4686"/>
</g>
<!-- Node11 -->
<g id="node11" class="node"><title>Node11</title>
<polygon fill="white" stroke="#bfbfbf" points="4,-56.5 4,-75.5 57,-75.5 57,-56.5 4,-56.5"/>
<text text-anchor="middle" x="30.5" y="-63.5" font-family="Helvetica,sans-Serif" font-size="10.00">alloca.h</text>
</g>
<!-- Node10&#45;&gt;Node11 -->
<g id="edge10" class="edge"><title>Node10&#45;&gt;Node11</title>
<path fill="none" stroke="midnightblue" d="M30.5,-112.083C30.5,-105.006 30.5,-94.8611 30.5,-85.9865"/>
<polygon fill="midnightblue" stroke="midnightblue" points="34.0001,-85.751 30.5,-75.7511 27.0001,-85.7511 34.0001,-85.751"/>
</g>
<!-- Node16&#45;&gt;Node2 -->
<g id="edge16" class="edge"><title>Node16&#45;&gt;Node2</title>
<path fill="none" stroke="midnightblue" d="M413.257,-114.575C410.326,-113.686 407.341,-112.803 404.5,-112 359.615,-99.3057 307.848,-86.2593 272.133,-77.5047"/>
<polygon fill="midnightblue" stroke="midnightblue" points="272.593,-74.0141 262.048,-75.042 270.932,-80.8143 272.593,-74.0141"/>
</g>
<!-- Node17 -->
<g id="node17" class="node"><title>Node17</title>
<polygon fill="white" stroke="#bfbfbf" points="360.5,-56.5 360.5,-75.5 426.5,-75.5 426.5,-56.5 360.5,-56.5"/>
<text text-anchor="middle" x="393.5" y="-63.5" font-family="Helvetica,sans-Serif" font-size="10.00">sys/time.h</text>
</g>
<!-- Node16&#45;&gt;Node17 -->
<g id="edge17" class="edge"><title>Node16&#45;&gt;Node17</title>
<path fill="none" stroke="midnightblue" d="M426.895,-112.083C421.245,-104.455 412.955,-93.2645 406.049,-83.9408"/>
<polygon fill="midnightblue" stroke="midnightblue" points="408.747,-81.7034 399.982,-75.7511 403.122,-85.87 408.747,-81.7034"/>
</g>
<!-- Node18 -->
<g id="node18" class="node"><title>Node18</title>
<polygon fill="white" stroke="#bfbfbf" points="445,-56.5 445,-75.5 500,-75.5 500,-56.5 445,-56.5"/>
<text text-anchor="middle" x="472.5" y="-63.5" font-family="Helvetica,sans-Serif" font-size="10.00">unistd.h</text>
</g>
<!-- Node16&#45;&gt;Node18 -->
<g id="edge18" class="edge"><title>Node16&#45;&gt;Node18</title>
<path fill="none" stroke="midnightblue" d="M439.94,-112.083C445.449,-104.455 453.531,-93.2645 460.265,-83.9408"/>
<polygon fill="midnightblue" stroke="midnightblue" points="463.162,-85.9071 466.18,-75.7511 457.487,-81.8087 463.162,-85.9071"/>
</g>
</g>
</svg>
