<?xml version="1.0" encoding="UTF-8" standalone="no"?>
<!DOCTYPE svg PUBLIC "-//W3C//DTD SVG 1.1//EN"
 "http://www.w3.org/Graphics/SVG/1.1/DTD/svg11.dtd">
<!-- Generated by graphviz version 2.38.0 (20140413.2041)
 -->
<!-- Title: Physics/BuilderXML.cpp Pages: 1 -->
<!--zoomable 464 -->
<svg id="main" version="1.1" xmlns="http://www.w3.org/2000/svg" xmlns:xlink="http://www.w3.org/1999/xlink" xml:space="preserve" onload="init(evt)">
<style type="text/css"><![CDATA[
.edge:hover path { stroke: red; }
.edge:hover polygon { stroke: red; fill: red; }
]]></style>
<script type="text/javascript"><![CDATA[
var edges = document.getElementsByTagName('g');
if (edges && edges.length) {
  for (var i=0;i<edges.length;i++) {
    if (edges[i].id.substr(0,4)=='edge') {
      edges[i].setAttribute('class','edge');
    }
  }
}
]]></script>
        <defs>
                <circle id="rim" cx="0" cy="0" r="7"/>
                <circle id="rim2" cx="0" cy="0" r="3.5"/>
                <g id="zoomPlus">
                        <use xlink:href="#rim" fill="#404040">
                                <set attributeName="fill" to="#808080" begin="zoomplus.mouseover" end="zoomplus.mouseout"/>
                        </use>
                        <path d="M-4,0h8M0,-4v8" fill="none" stroke="white" stroke-width="1.5" pointer-events="none"/>
                </g>
                <g id="zoomMin">
                        <use xlink:href="#rim" fill="#404040">
                                <set attributeName="fill" to="#808080" begin="zoomminus.mouseover" end="zoomminus.mouseout"/>
                        </use>
                        <path d="M-4,0h8" fill="none" stroke="white" stroke-width="1.5" pointer-events="none"/>
                </g>
                <g id="dirArrow">
                        <path fill="none" stroke="white" stroke-width="1.5" d="M0,-3.0v7 M-2.5,-0.5L0,-3.0L2.5,-0.5"/>
                </g>
               <g id="resetDef">
                       <use xlink:href="#rim2" fill="#404040">
                               <set attributeName="fill" to="#808080" begin="reset.mouseover" end="reset.mouseout"/>
                       </use>
               </g>
        </defs>

<script type="text/javascript">
var viewWidth = 2157;
var viewHeight = 464;
var sectionId = 'dynsection-0';
</script>
<script xlink:href="svgpan.js"/>
<svg id="graph" class="graph">
<g id="viewport">
<title>Physics/BuilderXML.cpp</title>
<polygon fill="white" stroke="none" points="-4,4 -4,-460 2153.09,-460 2153.09,4 -4,4"/>
<!-- Node1 -->
<g id="node1" class="node"><title>Node1</title>
<polygon fill="#bfbfbf" stroke="black" points="1469.59,-436.5 1469.59,-455.5 1593.59,-455.5 1593.59,-436.5 1469.59,-436.5"/>
<text text-anchor="middle" x="1531.59" y="-443.5" font-family="Helvetica,sans-Serif" font-size="10.00">Physics/BuilderXML.cpp</text>
</g>
<!-- Node2 -->
<g id="node2" class="node"><title>Node2</title>
<g id="a_node2"><a xlink:href="BuilderXML_8hpp.html" target="_top" xlink:title="BuilderXML.hpp">
<polygon fill="white" stroke="black" points="493.592,-196 493.592,-215 579.592,-215 579.592,-196 493.592,-196"/>
<text text-anchor="middle" x="536.592" y="-203" font-family="Helvetica,sans-Serif" font-size="10.00">BuilderXML.hpp</text>
</a>
</g>
</g>
<!-- Node1&#45;&gt;Node2 -->
<g id="edge1" class="edge"><title>Node1&#45;&gt;Node2</title>
<path fill="none" stroke="midnightblue" d="M1469.45,-444.976C1321.55,-444.278 952.275,-438.599 835.592,-400 715.617,-360.312 596.637,-260.667 553.529,-222.091"/>
<polygon fill="midnightblue" stroke="midnightblue" points="555.704,-219.34 545.941,-215.227 551.008,-224.531 555.704,-219.34"/>
</g>
<!-- Node8 -->
<g id="node8" class="node"><title>Node8</title>
<g id="a_node8"><a xlink:href="DataSet_8hpp.html" target="_top" xlink:title="Data/DataSet.hpp">
<polygon fill="white" stroke="red" points="764.092,-129 764.092,-148 859.092,-148 859.092,-129 764.092,-129"/>
<text text-anchor="middle" x="811.592" y="-136" font-family="Helvetica,sans-Serif" font-size="10.00">Data/DataSet.hpp</text>
</a>
</g>
</g>
<!-- Node1&#45;&gt;Node8 -->
<g id="edge37" class="edge"><title>Node1&#45;&gt;Node8</title>
<path fill="none" stroke="midnightblue" d="M1469.56,-440.499C1301.44,-427.475 849.592,-386.644 849.592,-324 849.592,-324 849.592,-324 849.592,-266 849.592,-225.85 831.816,-181.446 820.58,-157.389"/>
<polygon fill="midnightblue" stroke="midnightblue" points="823.604,-155.604 816.1,-148.125 817.303,-158.652 823.604,-155.604"/>
</g>
<!-- Node11 -->
<g id="node11" class="node"><title>Node11</title>
<g id="a_node11"><a xlink:href="Properties_8hpp.html" target="_top" xlink:title="Core/Properties.hpp">
<polygon fill="white" stroke="red" points="1281.59,-67.5 1281.59,-86.5 1385.59,-86.5 1385.59,-67.5 1281.59,-67.5"/>
<text text-anchor="middle" x="1333.59" y="-74.5" font-family="Helvetica,sans-Serif" font-size="10.00">Core/Properties.hpp</text>
</a>
</g>
</g>
<!-- Node1&#45;&gt;Node11 -->
<g id="edge36" class="edge"><title>Node1&#45;&gt;Node11</title>
<path fill="none" stroke="midnightblue" d="M1469.49,-437.879C1418,-430.79 1350.03,-418.309 1329.59,-400 1241.18,-320.801 1302.17,-151.487 1325.56,-96.0096"/>
<polygon fill="midnightblue" stroke="midnightblue" points="1328.8,-97.324 1329.56,-86.7564 1322.38,-94.5443 1328.8,-97.324"/>
</g>
<!-- Node12 -->
<g id="node12" class="node"><title>Node12</title>
<g id="a_node12"><a xlink:href="Exceptions_8hpp.html" target="_top" xlink:title="ComPWA exceptions. ">
<polygon fill="white" stroke="red" points="1562.59,-6 1562.59,-25 1670.59,-25 1670.59,-6 1562.59,-6"/>
<text text-anchor="middle" x="1616.59" y="-13" font-family="Helvetica,sans-Serif" font-size="10.00">Core/Exceptions.hpp</text>
</a>
</g>
</g>
<!-- Node1&#45;&gt;Node12 -->
<g id="edge34" class="edge"><title>Node1&#45;&gt;Node12</title>
<path fill="none" stroke="midnightblue" d="M1593.68,-444.905C1682.99,-443.496 1841.68,-435.842 1884.59,-400 1911.78,-377.293 1908.59,-359.422 1908.59,-324 1908.59,-324 1908.59,-324 1908.59,-137.5 1908.59,-104.401 1909.6,-88.687 1884.59,-67 1854.76,-41.1281 1750.03,-27.5317 1680.67,-21.1977"/>
<polygon fill="midnightblue" stroke="midnightblue" points="1680.97,-17.7112 1670.7,-20.3153 1680.36,-24.6839 1680.97,-17.7112"/>
</g>
<!-- Node13 -->
<g id="node13" class="node"><title>Node13</title>
<polygon fill="white" stroke="#bfbfbf" points="1283.09,-0.5 1283.09,-30.5 1384.09,-30.5 1384.09,-0.5 1283.09,-0.5"/>
<text text-anchor="start" x="1291.09" y="-18.5" font-family="Helvetica,sans-Serif" font-size="10.00">boost/property_tree</text>
<text text-anchor="middle" x="1333.59" y="-7.5" font-family="Helvetica,sans-Serif" font-size="10.00">/ptree.hpp</text>
</g>
<!-- Node1&#45;&gt;Node13 -->
<g id="edge73" class="edge"><title>Node1&#45;&gt;Node13</title>
<path fill="none" stroke="midnightblue" d="M1593.75,-440.891C1642.92,-435.851 1712.42,-424.682 1768.59,-400 1820.35,-377.258 1870.59,-380.534 1870.59,-324 1870.59,-324 1870.59,-324 1870.59,-137.5 1870.59,-100.918 2025.26,-148.901 1706.59,-67 1598.69,-39.2689 1469.08,-26.0767 1394.53,-20.3575"/>
<polygon fill="midnightblue" stroke="midnightblue" points="1394.62,-16.8543 1384.39,-19.5993 1394.1,-23.8348 1394.62,-16.8543"/>
</g>
<!-- Node19 -->
<g id="node19" class="node"><title>Node19</title>
<g id="a_node19"><a xlink:href="Logging_8hpp.html" target="_top" xlink:title="Core/Logging.hpp">
<polygon fill="white" stroke="red" points="1937.09,-375 1937.09,-394 2030.09,-394 2030.09,-375 1937.09,-375"/>
<text text-anchor="middle" x="1983.59" y="-382" font-family="Helvetica,sans-Serif" font-size="10.00">Core/Logging.hpp</text>
</a>
</g>
</g>
<!-- Node1&#45;&gt;Node19 -->
<g id="edge35" class="edge"><title>Node1&#45;&gt;Node19</title>
<path fill="none" stroke="midnightblue" d="M1593.88,-440.13C1671.32,-433.548 1807.34,-420.256 1922.59,-400 1928.5,-398.962 1934.69,-397.699 1940.76,-396.356"/>
<polygon fill="midnightblue" stroke="midnightblue" points="1941.85,-399.697 1950.82,-394.046 1940.29,-392.875 1941.85,-399.697"/>
</g>
<!-- Node20 -->
<g id="node20" class="node"><title>Node20</title>
<g id="a_node20"><a xlink:href="HelicityKinematics_8hpp.html" target="_top" xlink:title="Physics/HelicityFormalism\l/HelicityKinematics.hpp">
<polygon fill="white" stroke="black" points="1106.59,-190.5 1106.59,-220.5 1240.59,-220.5 1240.59,-190.5 1106.59,-190.5"/>
<text text-anchor="start" x="1114.59" y="-208.5" font-family="Helvetica,sans-Serif" font-size="10.00">Physics/HelicityFormalism</text>
<text text-anchor="middle" x="1173.59" y="-197.5" font-family="Helvetica,sans-Serif" font-size="10.00">/HelicityKinematics.hpp</text>
</a>
</g>
</g>
<!-- Node1&#45;&gt;Node20 -->
<g id="edge38" class="edge"><title>Node1&#45;&gt;Node20</title>
<path fill="none" stroke="midnightblue" d="M1469.51,-441.837C1398.26,-437.039 1287.06,-425.604 1254.59,-400 1200.64,-357.462 1182.22,-272.545 1176.26,-230.804"/>
<polygon fill="midnightblue" stroke="midnightblue" points="1179.71,-230.173 1174.94,-220.709 1172.77,-231.078 1179.71,-230.173"/>
</g>
<!-- Node22 -->
<g id="node22" class="node"><title>Node22</title>
<g id="a_node22"><a xlink:href="Integration_8hpp.html" target="_top" xlink:title="Tools/Integration.hpp">
<polygon fill="white" stroke="black" points="985.592,-257.5 985.592,-276.5 1093.59,-276.5 1093.59,-257.5 985.592,-257.5"/>
<text text-anchor="middle" x="1039.59" y="-264.5" font-family="Helvetica,sans-Serif" font-size="10.00">Tools/Integration.hpp</text>
</a>
</g>
</g>
<!-- Node1&#45;&gt;Node22 -->
<g id="edge44" class="edge"><title>Node1&#45;&gt;Node22</title>
<path fill="none" stroke="midnightblue" d="M1469.43,-441.014C1385.45,-434.904 1240.73,-421.608 1192.59,-400 1131.97,-372.79 1077.3,-313.586 1052.96,-284.626"/>
<polygon fill="midnightblue" stroke="midnightblue" points="1055.47,-282.167 1046.41,-276.678 1050.07,-286.62 1055.47,-282.167"/>
</g>
<!-- Node23 -->
<g id="node23" class="node"><title>Node23</title>
<g id="a_node23"><a xlink:href="Flatte_8hpp.html" target="_top" xlink:title="Physics/Dynamics/Flatte.hpp">
<polygon fill="white" stroke="black" points="1338.59,-375 1338.59,-394 1484.59,-394 1484.59,-375 1338.59,-375"/>
<text text-anchor="middle" x="1411.59" y="-382" font-family="Helvetica,sans-Serif" font-size="10.00">Physics/Dynamics/Flatte.hpp</text>
</a>
</g>
</g>
<!-- Node1&#45;&gt;Node23 -->
<g id="edge46" class="edge"><title>Node1&#45;&gt;Node23</title>
<path fill="none" stroke="midnightblue" d="M1514.4,-436.475C1494.35,-426.534 1460.99,-409.995 1437.73,-398.461"/>
<polygon fill="midnightblue" stroke="midnightblue" points="1439.27,-395.316 1428.75,-394.009 1436.16,-401.587 1439.27,-395.316"/>
</g>
<!-- Node25 -->
<g id="node25" class="node"><title>Node25</title>
<g id="a_node25"><a xlink:href="FormFactor_8hpp.html" target="_top" xlink:title="FormFactor.hpp">
<polygon fill="white" stroke="red" points="1469.59,-196 1469.59,-215 1555.59,-215 1555.59,-196 1469.59,-196"/>
<text text-anchor="middle" x="1512.59" y="-203" font-family="Helvetica,sans-Serif" font-size="10.00">FormFactor.hpp</text>
</a>
</g>
</g>
<!-- Node1&#45;&gt;Node25 -->
<g id="edge62" class="edge"><title>Node1&#45;&gt;Node25</title>
<path fill="none" stroke="midnightblue" d="M1532.22,-436.308C1534.01,-409.434 1538.28,-325.38 1527.59,-257 1525.89,-246.101 1522.46,-234.263 1519.31,-224.789"/>
<polygon fill="midnightblue" stroke="midnightblue" points="1522.59,-223.556 1515.98,-215.274 1515.98,-225.869 1522.59,-223.556"/>
</g>
<!-- Node28 -->
<g id="node28" class="node"><title>Node28</title>
<g id="a_node28"><a xlink:href="RelativisticBreitWigner_8hpp.html" target="_top" xlink:title="RelativisticBreitWigner.hpp">
<polygon fill="white" stroke="black" points="1349.09,-313.5 1349.09,-332.5 1484.09,-332.5 1484.09,-313.5 1349.09,-313.5"/>
<text text-anchor="middle" x="1416.59" y="-320.5" font-family="Helvetica,sans-Serif" font-size="10.00">RelativisticBreitWigner.hpp</text>
</a>
</g>
</g>
<!-- Node1&#45;&gt;Node28 -->
<g id="edge63" class="edge"><title>Node1&#45;&gt;Node28</title>
<path fill="none" stroke="midnightblue" d="M1528.99,-436.046C1524.16,-420.74 1512.55,-389.24 1493.59,-369 1480.79,-355.338 1462.91,-344.543 1447.6,-336.955"/>
<polygon fill="midnightblue" stroke="midnightblue" points="1449,-333.748 1438.46,-332.647 1446.01,-340.079 1449,-333.748"/>
</g>
<!-- Node29 -->
<g id="node29" class="node"><title>Node29</title>
<g id="a_node29"><a xlink:href="Voigtian_8hpp.html" target="_top" xlink:title="This file contains the declaration of the Voigtian class, which is used the implementation of voigt f...">
<polygon fill="white" stroke="black" points="1578.59,-375 1578.59,-394 1734.59,-394 1734.59,-375 1578.59,-375"/>
<text text-anchor="middle" x="1656.59" y="-382" font-family="Helvetica,sans-Serif" font-size="10.00">Physics/Dynamics/Voigtian.hpp</text>
</a>
</g>
</g>
<!-- Node1&#45;&gt;Node29 -->
<g id="edge64" class="edge"><title>Node1&#45;&gt;Node29</title>
<path fill="none" stroke="midnightblue" d="M1549.5,-436.475C1570.48,-426.49 1605.44,-409.848 1629.69,-398.307"/>
<polygon fill="midnightblue" stroke="midnightblue" points="1631.19,-401.467 1638.72,-394.009 1628.18,-395.147 1631.19,-401.467"/>
</g>
<!-- Node31 -->
<g id="node31" class="node"><title>Node31</title>
<g id="a_node31"><a xlink:href="WignerD_8hpp.html" target="_top" xlink:title="Physics/HelicityFormalism\l/WignerD.hpp">
<polygon fill="white" stroke="black" points="1695.59,-190.5 1695.59,-220.5 1829.59,-220.5 1829.59,-190.5 1695.59,-190.5"/>
<text text-anchor="start" x="1703.59" y="-208.5" font-family="Helvetica,sans-Serif" font-size="10.00">Physics/HelicityFormalism</text>
<text text-anchor="middle" x="1762.59" y="-197.5" font-family="Helvetica,sans-Serif" font-size="10.00">/WignerD.hpp</text>
</a>
</g>
</g>
<!-- Node1&#45;&gt;Node31 -->
<g id="edge69" class="edge"><title>Node1&#45;&gt;Node31</title>
<path fill="none" stroke="midnightblue" d="M1593.82,-439.512C1648.8,-433.333 1723.29,-421.262 1743.59,-400 1787.45,-354.053 1777.1,-271.097 1768.53,-230.37"/>
<polygon fill="midnightblue" stroke="midnightblue" points="1771.93,-229.509 1766.32,-220.52 1765.1,-231.044 1771.93,-229.509"/>
</g>
<!-- Node33 -->
<g id="node33" class="node"><title>Node33</title>
<polygon fill="white" stroke="#bfbfbf" points="2048.09,-369.5 2048.09,-399.5 2149.09,-399.5 2149.09,-369.5 2048.09,-369.5"/>
<text text-anchor="start" x="2056.09" y="-387.5" font-family="Helvetica,sans-Serif" font-size="10.00">boost/property_tree</text>
<text text-anchor="middle" x="2098.59" y="-376.5" font-family="Helvetica,sans-Serif" font-size="10.00">/xml_parser.hpp</text>
</g>
<!-- Node1&#45;&gt;Node33 -->
<g id="edge74" class="edge"><title>Node1&#45;&gt;Node33</title>
<path fill="none" stroke="midnightblue" d="M1593.62,-442.467C1687.67,-437.971 1872.07,-426.598 2038.06,-399.909"/>
<polygon fill="midnightblue" stroke="midnightblue" points="2038.65,-403.359 2047.96,-398.296 2037.53,-396.45 2038.65,-403.359"/>
</g>
<!-- Node3 -->
<g id="node3" class="node"><title>Node3</title>
<g id="a_node3"><a xlink:href="Function_8hpp.html" target="_top" xlink:title="Core/Function.hpp">
<polygon fill="white" stroke="red" points="768.092,-67.5 768.092,-86.5 865.092,-86.5 865.092,-67.5 768.092,-67.5"/>
<text text-anchor="middle" x="816.592" y="-74.5" font-family="Helvetica,sans-Serif" font-size="10.00">Core/Function.hpp</text>
</a>
</g>
</g>
<!-- Node2&#45;&gt;Node3 -->
<g id="edge2" class="edge"><title>Node2&#45;&gt;Node3</title>
<path fill="none" stroke="midnightblue" d="M579.593,-204.568C660.589,-203.683 830.945,-196.662 867.592,-154 884.609,-134.19 858.754,-108.49 838.062,-92.6294"/>
<polygon fill="midnightblue" stroke="midnightblue" points="840.065,-89.7582 829.929,-86.6749 835.93,-95.4063 840.065,-89.7582"/>
</g>
<!-- Node4 -->
<g id="node4" class="node"><title>Node4</title>
<polygon fill="white" stroke="#bfbfbf" points="1002.59,-6 1002.59,-25 1046.59,-25 1046.59,-6 1002.59,-6"/>
<text text-anchor="middle" x="1024.59" y="-13" font-family="Helvetica,sans-Serif" font-size="10.00">vector</text>
</g>
<!-- Node2&#45;&gt;Node4 -->
<g id="edge33" class="edge"><title>Node2&#45;&gt;Node4</title>
<path fill="none" stroke="midnightblue" d="M493.319,-202.815C386.531,-198.216 117.163,-183.749 90.5915,-154 81.4136,-143.724 81.4132,-133.276 90.5915,-123 211.714,12.6017 722.993,-52.0391 903.592,-31 933.614,-27.5025 967.809,-23.3931 992.171,-20.4438"/>
<polygon fill="midnightblue" stroke="midnightblue" points="992.789,-23.8946 1002.3,-19.2164 991.947,-16.9455 992.789,-23.8946"/>
</g>
<!-- Node5 -->
<g id="node5" class="node"><title>Node5</title>
<g id="a_node5"><a xlink:href="FunctionTreeIntensity_8hpp.html" target="_top" xlink:title="Core/FunctionTree/Function\lTreeIntensity.hpp">
<polygon fill="white" stroke="red" points="607.592,-123.5 607.592,-153.5 745.592,-153.5 745.592,-123.5 607.592,-123.5"/>
<text text-anchor="start" x="615.592" y="-141.5" font-family="Helvetica,sans-Serif" font-size="10.00">Core/FunctionTree/Function</text>
<text text-anchor="middle" x="676.592" y="-130.5" font-family="Helvetica,sans-Serif" font-size="10.00">TreeIntensity.hpp</text>
</a>
</g>
</g>
<!-- Node2&#45;&gt;Node5 -->
<g id="edge4" class="edge"><title>Node2&#45;&gt;Node5</title>
<path fill="none" stroke="midnightblue" d="M555.182,-195.869C576.008,-186.199 610.364,-170.249 637.224,-157.778"/>
<polygon fill="midnightblue" stroke="midnightblue" points="638.781,-160.914 646.377,-153.528 635.833,-154.565 638.781,-160.914"/>
</g>
<!-- Node6 -->
<g id="node6" class="node"><title>Node6</title>
<polygon fill="white" stroke="#bfbfbf" points="650.592,-67.5 650.592,-86.5 702.592,-86.5 702.592,-67.5 650.592,-67.5"/>
<text text-anchor="middle" x="676.592" y="-74.5" font-family="Helvetica,sans-Serif" font-size="10.00">memory</text>
</g>
<!-- Node2&#45;&gt;Node6 -->
<g id="edge30" class="edge"><title>Node2&#45;&gt;Node6</title>
<path fill="none" stroke="midnightblue" d="M541.475,-195.995C550.906,-180.121 572.971,-145.555 598.592,-123 613.265,-110.082 632.214,-99.047 647.761,-91.1378"/>
<polygon fill="midnightblue" stroke="midnightblue" points="649.503,-94.1814 656.932,-86.6282 646.414,-87.8997 649.503,-94.1814"/>
</g>
<!-- Node7 -->
<g id="node7" class="node"><title>Node7</title>
<g id="a_node7"><a xlink:href="Value_8hpp.html" target="_top" xlink:title="Template implementation of Parameter for simple values. ">
<polygon fill="white" stroke="red" points="99.5915,-129 99.5915,-148 243.592,-148 243.592,-129 99.5915,-129"/>
<text text-anchor="middle" x="171.592" y="-136" font-family="Helvetica,sans-Serif" font-size="10.00">Core/FunctionTree/Value.hpp</text>
</a>
</g>
</g>
<!-- Node2&#45;&gt;Node7 -->
<g id="edge7" class="edge"><title>Node2&#45;&gt;Node7</title>
<path fill="none" stroke="midnightblue" d="M493.286,-196.816C437.594,-186.93 337.881,-169.217 252.592,-154 244.977,-152.641 236.961,-151.209 229.053,-149.795"/>
<polygon fill="midnightblue" stroke="midnightblue" points="229.592,-146.336 219.132,-148.02 228.36,-153.226 229.592,-146.336"/>
</g>
<!-- Node2&#45;&gt;Node8 -->
<g id="edge8" class="edge"><title>Node2&#45;&gt;Node8</title>
<path fill="none" stroke="midnightblue" d="M574.457,-195.988C617.986,-186.142 691.547,-169.319 754.592,-154 759.187,-152.883 763.985,-151.696 768.762,-150.501"/>
<polygon fill="midnightblue" stroke="midnightblue" points="769.626,-153.893 778.467,-148.054 767.915,-147.105 769.626,-153.893"/>
</g>
<!-- Node9 -->
<g id="node9" class="node"><title>Node9</title>
<g id="a_node9"><a xlink:href="ParticleStateTransitionKinematicsInfo_8hpp.html" target="_top" xlink:title="Physics/ParticleStateTransition\lKinematicsInfo.hpp">
<polygon fill="white" stroke="red" points="953.592,-123.5 953.592,-153.5 1107.59,-153.5 1107.59,-123.5 953.592,-123.5"/>
<text text-anchor="start" x="961.592" y="-141.5" font-family="Helvetica,sans-Serif" font-size="10.00">Physics/ParticleStateTransition</text>
<text text-anchor="middle" x="1030.59" y="-130.5" font-family="Helvetica,sans-Serif" font-size="10.00">KinematicsInfo.hpp</text>
</a>
</g>
</g>
<!-- Node2&#45;&gt;Node9 -->
<g id="edge11" class="edge"><title>Node2&#45;&gt;Node9</title>
<path fill="none" stroke="midnightblue" d="M579.998,-198.789C661.081,-188.12 836.952,-164.979 943.41,-150.971"/>
<polygon fill="midnightblue" stroke="midnightblue" points="944.032,-154.42 953.49,-149.645 943.119,-147.479 944.032,-154.42"/>
</g>
<!-- Node10 -->
<g id="node10" class="node"><title>Node10</title>
<polygon fill="white" stroke="#bfbfbf" points="631.092,-6 631.092,-25 666.092,-25 666.092,-6 631.092,-6"/>
<text text-anchor="middle" x="648.592" y="-13" font-family="Helvetica,sans-Serif" font-size="10.00">map</text>
</g>
<!-- Node2&#45;&gt;Node10 -->
<g id="edge29" class="edge"><title>Node2&#45;&gt;Node10</title>
<path fill="none" stroke="midnightblue" d="M493.488,-203.537C375.031,-200.447 51.2124,-188.86 19.5915,-154 -6.38694,-125.36 -6.63307,-95.4145 19.5915,-67 60.8446,-22.3021 503.905,-17.151 620.571,-16.5707"/>
<polygon fill="midnightblue" stroke="midnightblue" points="620.833,-20.0697 630.818,-16.5276 620.804,-13.0697 620.833,-20.0697"/>
</g>
<!-- Node14 -->
<g id="node14" class="node"><title>Node14</title>
<polygon fill="white" stroke="#bfbfbf" points="864.592,-6 864.592,-25 894.592,-25 894.592,-6 864.592,-6"/>
<text text-anchor="middle" x="879.592" y="-13" font-family="Helvetica,sans-Serif" font-size="10.00">set</text>
</g>
<!-- Node2&#45;&gt;Node14 -->
<g id="edge31" class="edge"><title>Node2&#45;&gt;Node14</title>
<path fill="none" stroke="midnightblue" d="M493.438,-203.179C381.143,-199.299 86.5072,-186.124 57.5915,-154 31.7231,-125.261 31.0583,-95.1265 57.5915,-67 104.715,-17.0473 606.062,-35.4227 674.592,-31 739.242,-26.8277 815.313,-21.2794 854.08,-18.406"/>
<polygon fill="midnightblue" stroke="midnightblue" points="854.71,-21.869 864.423,-17.6372 854.191,-14.8882 854.71,-21.869"/>
</g>
<!-- Node15 -->
<g id="node15" class="node"><title>Node15</title>
<g id="a_node15"><a xlink:href="SubSystem_8hpp.html" target="_top" xlink:title="Contains SubSystem class. ">
<polygon fill="white" stroke="red" points="1138.09,-67.5 1138.09,-86.5 1263.09,-86.5 1263.09,-67.5 1138.09,-67.5"/>
<text text-anchor="middle" x="1200.59" y="-74.5" font-family="Helvetica,sans-Serif" font-size="10.00">Physics/SubSystem.hpp</text>
</a>
</g>
</g>
<!-- Node2&#45;&gt;Node15 -->
<g id="edge20" class="edge"><title>Node2&#45;&gt;Node15</title>
<path fill="none" stroke="midnightblue" d="M579.954,-204.271C697.567,-203.092 1020.23,-196.012 1116.59,-154 1146.65,-140.896 1173.18,-112.627 1188.03,-94.5025"/>
<polygon fill="midnightblue" stroke="midnightblue" points="1190.88,-96.5422 1194.35,-86.5309 1185.4,-92.1946 1190.88,-96.5422"/>
</g>
<!-- Node16 -->
<g id="node16" class="node"><title>Node16</title>
<g id="a_node16"><a xlink:href="FitFractions_8hpp.html" target="_top" xlink:title="Tools/FitFractions.hpp">
<polygon fill="white" stroke="red" points="437.592,-129 437.592,-148 551.592,-148 551.592,-129 437.592,-129"/>
<text text-anchor="middle" x="494.592" y="-136" font-family="Helvetica,sans-Serif" font-size="10.00">Tools/FitFractions.hpp</text>
</a>
</g>
</g>
<!-- Node2&#45;&gt;Node16 -->
<g id="edge23" class="edge"><title>Node2&#45;&gt;Node16</title>
<path fill="none" stroke="midnightblue" d="M530.927,-195.734C524.504,-185.793 513.871,-169.338 505.763,-156.789"/>
<polygon fill="midnightblue" stroke="midnightblue" points="508.533,-154.627 500.166,-148.127 502.654,-158.426 508.533,-154.627"/>
</g>
<!-- Node17 -->
<g id="node17" class="node"><title>Node17</title>
<polygon fill="white" stroke="#bfbfbf" points="262.092,-123.5 262.092,-153.5 363.092,-153.5 363.092,-123.5 262.092,-123.5"/>
<text text-anchor="start" x="270.092" y="-141.5" font-family="Helvetica,sans-Serif" font-size="10.00">boost/property_tree</text>
<text text-anchor="middle" x="312.592" y="-130.5" font-family="Helvetica,sans-Serif" font-size="10.00">/ptree_fwd.hpp</text>
</g>
<!-- Node2&#45;&gt;Node17 -->
<g id="edge28" class="edge"><title>Node2&#45;&gt;Node17</title>
<path fill="none" stroke="midnightblue" d="M506.846,-195.869C472.216,-185.819 414.202,-168.985 370.571,-156.324"/>
<polygon fill="midnightblue" stroke="midnightblue" points="371.514,-152.954 360.934,-153.528 369.563,-159.676 371.514,-152.954"/>
</g>
<!-- Node18 -->
<g id="node18" class="node"><title>Node18</title>
<polygon fill="white" stroke="#bfbfbf" points="381.592,-129 381.592,-148 419.592,-148 419.592,-129 381.592,-129"/>
<text text-anchor="middle" x="400.592" y="-136" font-family="Helvetica,sans-Serif" font-size="10.00">tuple</text>
</g>
<!-- Node2&#45;&gt;Node18 -->
<g id="edge32" class="edge"><title>Node2&#45;&gt;Node18</title>
<path fill="none" stroke="midnightblue" d="M517.752,-195.97C496.113,-186.109 459.602,-169.272 428.592,-154 427.754,-153.587 426.903,-153.165 426.045,-152.737"/>
<polygon fill="midnightblue" stroke="midnightblue" points="427.322,-149.46 416.822,-148.046 424.148,-155.699 427.322,-149.46"/>
</g>
<!-- Node3&#45;&gt;Node4 -->
<g id="edge3" class="edge"><title>Node3&#45;&gt;Node4</title>
<path fill="none" stroke="midnightblue" d="M846.393,-67.4751C885.247,-56.3605 952.933,-36.9986 992.761,-25.6053"/>
<polygon fill="midnightblue" stroke="midnightblue" points="993.84,-28.9371 1002.49,-22.8218 991.915,-22.2071 993.84,-28.9371"/>
</g>
<!-- Node5&#45;&gt;Node3 -->
<g id="edge6" class="edge"><title>Node5&#45;&gt;Node3</title>
<path fill="none" stroke="midnightblue" d="M709.77,-123.399C733.154,-113.461 764.203,-100.265 786.797,-90.6625"/>
<polygon fill="midnightblue" stroke="midnightblue" points="788.386,-93.7904 796.22,-86.6578 785.648,-87.3481 788.386,-93.7904"/>
</g>
<!-- Node5&#45;&gt;Node6 -->
<g id="edge5" class="edge"><title>Node5&#45;&gt;Node6</title>
<path fill="none" stroke="midnightblue" d="M676.592,-123.399C676.592,-115.466 676.592,-105.458 676.592,-96.8583"/>
<polygon fill="midnightblue" stroke="midnightblue" points="680.092,-96.6577 676.592,-86.6578 673.092,-96.6578 680.092,-96.6577"/>
</g>
<!-- Node8&#45;&gt;Node3 -->
<g id="edge10" class="edge"><title>Node8&#45;&gt;Node3</title>
<path fill="none" stroke="midnightblue" d="M812.308,-128.975C813.013,-120.58 814.114,-107.481 815.023,-96.6631"/>
<polygon fill="midnightblue" stroke="midnightblue" points="818.527,-96.7671 815.876,-86.5091 811.551,-96.1808 818.527,-96.7671"/>
</g>
<!-- Node8&#45;&gt;Node6 -->
<g id="edge9" class="edge"><title>Node8&#45;&gt;Node6</title>
<path fill="none" stroke="midnightblue" d="M792.249,-128.975C769.493,-118.945 731.5,-102.2 705.304,-90.6546"/>
<polygon fill="midnightblue" stroke="midnightblue" points="706.46,-87.3395 695.898,-86.5091 703.637,-93.7449 706.46,-87.3395"/>
</g>
<!-- Node9&#45;&gt;Node4 -->
<g id="edge13" class="edge"><title>Node9&#45;&gt;Node4</title>
<path fill="none" stroke="midnightblue" d="M1004.45,-123.371C991.386,-114.757 976.848,-102.427 969.592,-87 959.393,-65.3166 981.489,-44.1503 1000.64,-30.761"/>
<polygon fill="midnightblue" stroke="midnightblue" points="1002.69,-33.607 1009.11,-25.1824 998.834,-27.7617 1002.69,-33.607"/>
</g>
<!-- Node9&#45;&gt;Node10 -->
<g id="edge12" class="edge"><title>Node9&#45;&gt;Node10</title>
<path fill="none" stroke="midnightblue" d="M1003.75,-123.437C973.007,-107.811 920.792,-82.7163 873.592,-67 804.084,-43.8561 718.981,-27.9959 676.093,-20.8321"/>
<polygon fill="midnightblue" stroke="midnightblue" points="676.569,-17.3634 666.134,-19.199 675.436,-24.2712 676.569,-17.3634"/>
</g>
<!-- Node9&#45;&gt;Node11 -->
<g id="edge14" class="edge"><title>Node9&#45;&gt;Node11</title>
<path fill="none" stroke="midnightblue" d="M1102.01,-123.475C1156.69,-112.739 1230.88,-98.1696 1280.4,-88.4445"/>
<polygon fill="midnightblue" stroke="midnightblue" points="1281.14,-91.8678 1290.27,-86.5064 1279.79,-84.9989 1281.14,-91.8678"/>
</g>
<!-- Node11&#45;&gt;Node4 -->
<g id="edge19" class="edge"><title>Node11&#45;&gt;Node4</title>
<path fill="none" stroke="midnightblue" d="M1289.32,-67.4751C1226.3,-55.3396 1112.21,-33.3723 1056.69,-22.6801"/>
<polygon fill="midnightblue" stroke="midnightblue" points="1057.19,-19.213 1046.71,-20.7589 1055.87,-26.0867 1057.19,-19.213"/>
</g>
<!-- Node11&#45;&gt;Node10 -->
<g id="edge17" class="edge"><title>Node11&#45;&gt;Node10</title>
<path fill="none" stroke="midnightblue" d="M1281.53,-68.1984C1278.17,-67.7705 1274.83,-67.3664 1271.59,-67 1153.52,-53.6584 781.534,-26.1862 676.473,-18.5237"/>
<polygon fill="midnightblue" stroke="midnightblue" points="676.572,-15.0218 666.345,-17.7861 676.064,-22.0033 676.572,-15.0218"/>
</g>
<!-- Node11&#45;&gt;Node12 -->
<g id="edge15" class="edge"><title>Node11&#45;&gt;Node12</title>
<path fill="none" stroke="midnightblue" d="M1374.14,-67.4751C1424.78,-56.8269 1511.43,-38.6092 1566.27,-27.0806"/>
<polygon fill="midnightblue" stroke="midnightblue" points="1567.05,-30.4918 1576.12,-25.0091 1565.61,-23.6415 1567.05,-30.4918"/>
</g>
<!-- Node11&#45;&gt;Node13 -->
<g id="edge16" class="edge"><title>Node11&#45;&gt;Node13</title>
<path fill="none" stroke="midnightblue" d="M1333.59,-67.4751C1333.59,-60.471 1333.59,-50.1919 1333.59,-40.6956"/>
<polygon fill="midnightblue" stroke="midnightblue" points="1337.09,-40.5229 1333.59,-30.523 1330.09,-40.523 1337.09,-40.5229"/>
</g>
<!-- Node11&#45;&gt;Node14 -->
<g id="edge18" class="edge"><title>Node11&#45;&gt;Node14</title>
<path fill="none" stroke="midnightblue" d="M1281.5,-68.3772C1278.15,-67.9055 1274.82,-67.4428 1271.59,-67 1235.23,-62.0192 985.877,-30.0949 904.917,-19.7386"/>
<polygon fill="midnightblue" stroke="midnightblue" points="905.014,-16.2225 894.651,-18.4255 904.126,-23.166 905.014,-16.2225"/>
</g>
<!-- Node15&#45;&gt;Node4 -->
<g id="edge21" class="edge"><title>Node15&#45;&gt;Node4</title>
<path fill="none" stroke="midnightblue" d="M1175.38,-67.4751C1143.97,-56.8587 1090.31,-38.7178 1056.19,-27.1839"/>
<polygon fill="midnightblue" stroke="midnightblue" points="1057.3,-23.862 1046.7,-23.975 1055.05,-30.4933 1057.3,-23.862"/>
</g>
<!-- Node15&#45;&gt;Node13 -->
<g id="edge22" class="edge"><title>Node15&#45;&gt;Node13</title>
<path fill="none" stroke="midnightblue" d="M1219.65,-67.4751C1238.67,-58.9648 1268.5,-45.6193 1292.87,-34.718"/>
<polygon fill="midnightblue" stroke="midnightblue" points="1294.55,-37.8016 1302.25,-30.523 1291.69,-31.4118 1294.55,-37.8016"/>
</g>
<!-- Node16&#45;&gt;Node3 -->
<g id="edge24" class="edge"><title>Node16&#45;&gt;Node3</title>
<path fill="none" stroke="midnightblue" d="M540.726,-128.975C598.71,-118.261 698.171,-99.8821 760.493,-88.3661"/>
<polygon fill="midnightblue" stroke="midnightblue" points="761.345,-91.768 770.542,-86.5091 760.073,-84.8845 761.345,-91.768"/>
</g>
<!-- Node16&#45;&gt;Node4 -->
<g id="edge27" class="edge"><title>Node16&#45;&gt;Node4</title>
<path fill="none" stroke="midnightblue" d="M508.587,-128.916C534.04,-113.741 590.046,-82.3337 641.592,-67 658.386,-62.0039 903.044,-31.5052 992.306,-20.4757"/>
<polygon fill="midnightblue" stroke="midnightblue" points="992.9,-23.9291 1002.4,-19.2302 992.042,-16.9818 992.9,-23.9291"/>
</g>
<!-- Node16&#45;&gt;Node6 -->
<g id="edge26" class="edge"><title>Node16&#45;&gt;Node6</title>
<path fill="none" stroke="midnightblue" d="M520.668,-128.975C552.157,-118.68 605.289,-101.31 640.65,-89.7502"/>
<polygon fill="midnightblue" stroke="midnightblue" points="642.146,-92.9433 650.564,-86.5091 639.971,-86.2898 642.146,-92.9433"/>
</g>
<!-- Node16&#45;&gt;Node10 -->
<g id="edge25" class="edge"><title>Node16&#45;&gt;Node10</title>
<path fill="none" stroke="midnightblue" d="M505.667,-128.798C531.639,-108.391 596.728,-57.2497 629.339,-31.6267"/>
<polygon fill="midnightblue" stroke="midnightblue" points="631.916,-34.0535 637.617,-25.1232 627.591,-28.5493 631.916,-34.0535"/>
</g>
<!-- Node20&#45;&gt;Node4 -->
<g id="edge39" class="edge"><title>Node20&#45;&gt;Node4</title>
<path fill="none" stroke="midnightblue" d="M1167.25,-190.243C1158.44,-172.039 1140.81,-140.777 1116.59,-123 1073.76,-91.5606 1034,-129.856 1002.59,-87 990.917,-71.0706 1001.26,-48.7874 1011.34,-33.5633"/>
<polygon fill="midnightblue" stroke="midnightblue" points="1014.42,-35.2841 1017.39,-25.1162 1008.73,-31.208 1014.42,-35.2841"/>
</g>
<!-- Node20&#45;&gt;Node9 -->
<g id="edge42" class="edge"><title>Node20&#45;&gt;Node9</title>
<path fill="none" stroke="midnightblue" d="M1142.56,-190.396C1121.58,-180.856 1093.65,-168.163 1070.94,-157.84"/>
<polygon fill="midnightblue" stroke="midnightblue" points="1072.11,-154.528 1061.56,-153.577 1069.22,-160.901 1072.11,-154.528"/>
</g>
<!-- Node20&#45;&gt;Node15 -->
<g id="edge43" class="edge"><title>Node20&#45;&gt;Node15</title>
<path fill="none" stroke="midnightblue" d="M1194.89,-190.377C1206.32,-181.461 1219.32,-168.836 1225.59,-154 1233.92,-134.294 1223.18,-110.788 1213.3,-95.1885"/>
<polygon fill="midnightblue" stroke="midnightblue" points="1215.96,-92.8868 1207.43,-86.6021 1210.18,-96.8342 1215.96,-92.8868"/>
</g>
<!-- Node21 -->
<g id="node21" class="node"><title>Node21</title>
<g id="a_node21"><a xlink:href="Kinematics_8hpp.html" target="_top" xlink:title="Core/Kinematics.hpp">
<polygon fill="white" stroke="red" points="1011.59,-67.5 1011.59,-86.5 1119.59,-86.5 1119.59,-67.5 1011.59,-67.5"/>
<text text-anchor="middle" x="1065.59" y="-74.5" font-family="Helvetica,sans-Serif" font-size="10.00">Core/Kinematics.hpp</text>
</a>
</g>
</g>
<!-- Node20&#45;&gt;Node21 -->
<g id="edge40" class="edge"><title>Node20&#45;&gt;Node21</title>
<path fill="none" stroke="midnightblue" d="M1172.71,-190.292C1170.93,-172.708 1165.6,-142.684 1149.59,-123 1137.55,-108.192 1119.3,-97.592 1102.89,-90.4144"/>
<polygon fill="midnightblue" stroke="midnightblue" points="1104.08,-87.1194 1093.5,-86.5779 1101.43,-93.5996 1104.08,-87.1194"/>
</g>
<!-- Node21&#45;&gt;Node4 -->
<g id="edge41" class="edge"><title>Node21&#45;&gt;Node4</title>
<path fill="none" stroke="midnightblue" d="M1059.72,-67.4751C1053.63,-58.6384 1043.95,-44.5886 1036.29,-33.475"/>
<polygon fill="midnightblue" stroke="midnightblue" points="1039.01,-31.2575 1030.45,-25.0091 1033.25,-35.2294 1039.01,-31.2575"/>
</g>
<!-- Node22&#45;&gt;Node3 -->
<g id="edge45" class="edge"><title>Node22&#45;&gt;Node3</title>
<path fill="none" stroke="midnightblue" d="M1031.28,-257.428C1008.77,-234.396 944.236,-169.758 884.592,-123 870.199,-111.717 853.015,-100.362 839.523,-91.8807"/>
<polygon fill="midnightblue" stroke="midnightblue" points="841.195,-88.7993 830.852,-86.5047 837.507,-94.7487 841.195,-88.7993"/>
</g>
<!-- Node24 -->
<g id="node24" class="node"><title>Node24</title>
<g id="a_node24"><a xlink:href="Coupling_8hpp.html" target="_top" xlink:title="Coupling.hpp">
<polygon fill="white" stroke="red" points="1296.59,-257.5 1296.59,-276.5 1370.59,-276.5 1370.59,-257.5 1296.59,-257.5"/>
<text text-anchor="middle" x="1333.59" y="-264.5" font-family="Helvetica,sans-Serif" font-size="10.00">Coupling.hpp</text>
</a>
</g>
</g>
<!-- Node23&#45;&gt;Node24 -->
<g id="edge47" class="edge"><title>Node23&#45;&gt;Node24</title>
<path fill="none" stroke="midnightblue" d="M1390.69,-374.885C1373.83,-366.744 1351.08,-352.811 1339.59,-333 1331.51,-319.061 1330.55,-300.554 1331.3,-286.854"/>
<polygon fill="midnightblue" stroke="midnightblue" points="1334.81,-286.954 1332.21,-276.681 1327.83,-286.329 1334.81,-286.954"/>
</g>
<!-- Node23&#45;&gt;Node25 -->
<g id="edge56" class="edge"><title>Node23&#45;&gt;Node25</title>
<path fill="none" stroke="midnightblue" d="M1435.82,-374.876C1454.43,-366.945 1479.14,-353.309 1492.59,-333 1514.52,-299.898 1515.59,-251.424 1514.23,-225.131"/>
<polygon fill="midnightblue" stroke="midnightblue" points="1517.71,-224.769 1513.52,-215.037 1510.73,-225.256 1517.71,-224.769"/>
</g>
<!-- Node23&#45;&gt;Node28 -->
<g id="edge57" class="edge"><title>Node23&#45;&gt;Node28</title>
<path fill="none" stroke="midnightblue" d="M1412.31,-374.975C1413.01,-366.58 1414.11,-353.481 1415.02,-342.663"/>
<polygon fill="midnightblue" stroke="midnightblue" points="1418.53,-342.767 1415.88,-332.509 1411.55,-342.181 1418.53,-342.767"/>
</g>
<!-- Node24&#45;&gt;Node11 -->
<g id="edge48" class="edge"><title>Node24&#45;&gt;Node11</title>
<path fill="none" stroke="midnightblue" d="M1333.59,-257.434C1333.59,-228.928 1333.59,-136.822 1333.59,-96.8263"/>
<polygon fill="midnightblue" stroke="midnightblue" points="1337.09,-96.6168 1333.59,-86.6168 1330.09,-96.6168 1337.09,-96.6168"/>
</g>
<!-- Node24&#45;&gt;Node25 -->
<g id="edge49" class="edge"><title>Node24&#45;&gt;Node25</title>
<path fill="none" stroke="midnightblue" d="M1359.24,-257.475C1390.21,-247.18 1442.46,-229.81 1477.24,-218.25"/>
<polygon fill="midnightblue" stroke="midnightblue" points="1478.61,-221.485 1486.99,-215.009 1476.4,-214.842 1478.61,-221.485"/>
</g>
<!-- Node26 -->
<g id="node26" class="node"><title>Node26</title>
<g id="a_node26"><a xlink:href="Functions_8hpp.html" target="_top" xlink:title="This file contains Functions implementing the Strategy interface so they can be used inside a node of...">
<polygon fill="white" stroke="red" points="1535.59,-67.5 1535.59,-86.5 1697.59,-86.5 1697.59,-67.5 1535.59,-67.5"/>
<text text-anchor="middle" x="1616.59" y="-74.5" font-family="Helvetica,sans-Serif" font-size="10.00">Core/FunctionTree/Functions.hpp</text>
</a>
</g>
</g>
<!-- Node25&#45;&gt;Node26 -->
<g id="edge50" class="edge"><title>Node25&#45;&gt;Node26</title>
<path fill="none" stroke="midnightblue" d="M1537.5,-195.839C1556.74,-187.888 1582.53,-174.241 1597.59,-154 1610,-137.335 1614.36,-113.499 1615.87,-96.9832"/>
<polygon fill="midnightblue" stroke="midnightblue" points="1619.37,-97.1004 1616.51,-86.8966 1612.38,-96.6517 1619.37,-97.1004"/>
</g>
<!-- Node27 -->
<g id="node27" class="node"><title>Node27</title>
<g id="a_node27"><a xlink:href="TreeNode_8hpp.html" target="_top" xlink:title="TreeNode class. ">
<polygon fill="white" stroke="red" points="1426.59,-129 1426.59,-148 1588.59,-148 1588.59,-129 1426.59,-129"/>
<text text-anchor="middle" x="1507.59" y="-136" font-family="Helvetica,sans-Serif" font-size="10.00">Core/FunctionTree/TreeNode.hpp</text>
</a>
</g>
</g>
<!-- Node25&#45;&gt;Node27 -->
<g id="edge53" class="edge"><title>Node25&#45;&gt;Node27</title>
<path fill="none" stroke="midnightblue" d="M1511.92,-195.734C1511.18,-186.183 1509.99,-170.618 1509.04,-158.283"/>
<polygon fill="midnightblue" stroke="midnightblue" points="1512.51,-157.829 1508.26,-148.127 1505.53,-158.366 1512.51,-157.829"/>
</g>
<!-- Node26&#45;&gt;Node4 -->
<g id="edge51" class="edge"><title>Node26&#45;&gt;Node4</title>
<path fill="none" stroke="midnightblue" d="M1535.52,-67.8515C1403.3,-54.5628 1146.95,-28.7981 1056.85,-19.7425"/>
<polygon fill="midnightblue" stroke="midnightblue" points="1057.01,-16.2406 1046.71,-18.723 1056.31,-23.2055 1057.01,-16.2406"/>
</g>
<!-- Node26&#45;&gt;Node12 -->
<g id="edge52" class="edge"><title>Node26&#45;&gt;Node12</title>
<path fill="none" stroke="midnightblue" d="M1616.59,-67.4751C1616.59,-59.0803 1616.59,-45.9806 1616.59,-35.1631"/>
<polygon fill="midnightblue" stroke="midnightblue" points="1620.09,-35.0091 1616.59,-25.0091 1613.09,-35.0091 1620.09,-35.0091"/>
</g>
<!-- Node27&#45;&gt;Node6 -->
<g id="edge54" class="edge"><title>Node27&#45;&gt;Node6</title>
<path fill="none" stroke="midnightblue" d="M1426.32,-133.141C1288.73,-125.512 1001.2,-108.483 758.592,-87 743.553,-85.6684 726.996,-83.9074 712.721,-82.2964"/>
<polygon fill="midnightblue" stroke="midnightblue" points="713.117,-78.819 702.784,-81.1582 712.32,-85.7735 713.117,-78.819"/>
</g>
<!-- Node27&#45;&gt;Node26 -->
<g id="edge55" class="edge"><title>Node27&#45;&gt;Node26</title>
<path fill="none" stroke="midnightblue" d="M1523.21,-128.975C1541.18,-119.166 1570.91,-102.935 1592,-91.425"/>
<polygon fill="midnightblue" stroke="midnightblue" points="1593.9,-94.3726 1601,-86.5091 1590.55,-88.2284 1593.9,-94.3726"/>
</g>
<!-- Node28&#45;&gt;Node4 -->
<g id="edge61" class="edge"><title>Node28&#45;&gt;Node4</title>
<path fill="none" stroke="midnightblue" d="M1416.47,-313.348C1415.81,-270.817 1411.94,-85.2275 1394.59,-67 1371.42,-42.6508 1142.99,-24.6116 1057.05,-18.6379"/>
<polygon fill="midnightblue" stroke="midnightblue" points="1057.05,-15.1297 1046.84,-17.938 1056.57,-22.1133 1057.05,-15.1297"/>
</g>
<!-- Node28&#45;&gt;Node24 -->
<g id="edge59" class="edge"><title>Node28&#45;&gt;Node24</title>
<path fill="none" stroke="midnightblue" d="M1403.26,-313.324C1390.43,-304.979 1370.81,-292.212 1355.65,-282.352"/>
<polygon fill="midnightblue" stroke="midnightblue" points="1357.18,-279.174 1346.89,-276.655 1353.37,-285.042 1357.18,-279.174"/>
</g>
<!-- Node28&#45;&gt;Node25 -->
<g id="edge60" class="edge"><title>Node28&#45;&gt;Node25</title>
<path fill="none" stroke="midnightblue" d="M1423.81,-313.319C1439.72,-294.172 1478.06,-248.044 1498.77,-223.131"/>
<polygon fill="midnightblue" stroke="midnightblue" points="1501.59,-225.21 1505.29,-215.282 1496.21,-220.735 1501.59,-225.21"/>
</g>
<!-- Node28&#45;&gt;Node27 -->
<g id="edge58" class="edge"><title>Node28&#45;&gt;Node27</title>
<path fill="none" stroke="midnightblue" d="M1418.13,-313.441C1422.31,-291.612 1435.32,-232.585 1460.59,-190 1468.33,-176.965 1479.9,-164.475 1489.63,-155.178"/>
<polygon fill="midnightblue" stroke="midnightblue" points="1492.25,-157.523 1497.24,-148.177 1487.51,-152.371 1492.25,-157.523"/>
</g>
<!-- Node29&#45;&gt;Node25 -->
<g id="edge66" class="edge"><title>Node29&#45;&gt;Node25</title>
<path fill="none" stroke="midnightblue" d="M1664.58,-374.91C1676.23,-361.28 1695.3,-334.084 1683.59,-313 1655.69,-262.754 1593.15,-233.132 1551.94,-218.36"/>
<polygon fill="midnightblue" stroke="midnightblue" points="1553.06,-215.045 1542.47,-215.091 1550.78,-221.662 1553.06,-215.045"/>
</g>
<!-- Node29&#45;&gt;Node26 -->
<g id="edge65" class="edge"><title>Node29&#45;&gt;Node26</title>
<path fill="none" stroke="midnightblue" d="M1667.51,-374.816C1678.02,-365.694 1693.23,-350.29 1699.59,-333 1702.66,-324.658 1701.09,-321.761 1699.59,-313 1685.16,-228.8 1643.62,-134.696 1625.37,-96.048"/>
<polygon fill="midnightblue" stroke="midnightblue" points="1628.36,-94.1809 1620.88,-86.6722 1622.04,-97.2033 1628.36,-94.1809"/>
</g>
<!-- Node29&#45;&gt;Node28 -->
<g id="edge67" class="edge"><title>Node29&#45;&gt;Node28</title>
<path fill="none" stroke="midnightblue" d="M1622.21,-374.975C1579.7,-364.437 1507.29,-346.486 1460.73,-334.941"/>
<polygon fill="midnightblue" stroke="midnightblue" points="1461.46,-331.518 1450.91,-332.509 1459.78,-338.313 1461.46,-331.518"/>
</g>
<!-- Node30 -->
<g id="node30" class="node"><title>Node30</title>
<g id="a_node30"><a xlink:href="Faddeeva_8hh_source.html" target="_top" xlink:title="This file contains the declaration of the Faddeeva package, which is used only in the Voigtian class ...">
<polygon fill="white" stroke="red" points="1578.59,-313.5 1578.59,-332.5 1674.59,-332.5 1674.59,-313.5 1578.59,-313.5"/>
<text text-anchor="middle" x="1626.59" y="-320.5" font-family="Helvetica,sans-Serif" font-size="10.00">Utils/Faddeeva.hh</text>
</a>
</g>
</g>
<!-- Node29&#45;&gt;Node30 -->
<g id="edge68" class="edge"><title>Node29&#45;&gt;Node30</title>
<path fill="none" stroke="midnightblue" d="M1652.29,-374.975C1647.93,-366.315 1641.04,-352.649 1635.49,-341.645"/>
<polygon fill="midnightblue" stroke="midnightblue" points="1638.51,-339.863 1630.88,-332.509 1632.26,-343.014 1638.51,-339.863"/>
</g>
<!-- Node31&#45;&gt;Node26 -->
<g id="edge70" class="edge"><title>Node31&#45;&gt;Node26</title>
<path fill="none" stroke="midnightblue" d="M1746.29,-190.361C1727.55,-174.103 1695.86,-146.617 1668.59,-123 1657.17,-113.107 1644.33,-101.997 1634.27,-93.2916"/>
<polygon fill="midnightblue" stroke="midnightblue" points="1636.42,-90.5195 1626.56,-86.624 1631.84,-95.8135 1636.42,-90.5195"/>
</g>
<!-- Node31&#45;&gt;Node27 -->
<g id="edge71" class="edge"><title>Node31&#45;&gt;Node27</title>
<path fill="none" stroke="midnightblue" d="M1707.57,-190.476C1660.68,-178.521 1594.18,-161.573 1550.97,-150.558"/>
<polygon fill="midnightblue" stroke="midnightblue" points="1551.6,-147.107 1541.05,-148.029 1549.88,-153.89 1551.6,-147.107"/>
</g>
<!-- Node32 -->
<g id="node32" class="node"><title>Node32</title>
<polygon fill="white" stroke="#bfbfbf" points="1720.59,-123.5 1720.59,-153.5 1842.59,-153.5 1842.59,-123.5 1720.59,-123.5"/>
<text text-anchor="start" x="1728.59" y="-141.5" font-family="Helvetica,sans-Serif" font-size="10.00">ThirdParty/qft++/include</text>
<text text-anchor="middle" x="1781.59" y="-130.5" font-family="Helvetica,sans-Serif" font-size="10.00">/qft++/WignerD.h</text>
</g>
<!-- Node31&#45;&gt;Node32 -->
<g id="edge72" class="edge"><title>Node31&#45;&gt;Node32</title>
<path fill="none" stroke="midnightblue" d="M1766.71,-190.396C1769.03,-182.474 1771.98,-172.379 1774.64,-163.271"/>
<polygon fill="midnightblue" stroke="midnightblue" points="1778.03,-164.157 1777.48,-153.577 1771.31,-162.193 1778.03,-164.157"/>
</g>
</g>
</svg>
        <g id="navigator" transform="translate(0 0)" fill="#404254">
                <rect fill="#f2f5e9" fill-opacity="0.5" stroke="#606060" stroke-width=".5" x="0" y="0" width="60" height="60"/>
                <use id="zoomplus" xlink:href="#zoomPlus" x="17" y="9" onmousedown="handleZoom(evt,'in')"/>
                <use id="zoomminus" xlink:href="#zoomMin" x="42" y="9" onmousedown="handleZoom(evt,'out')"/>
                <use id="reset" xlink:href="#resetDef" x="30" y="36" onmousedown="handleReset()"/>
                <g id="arrowUp" xlink:href="#dirArrow" transform="translate(30 24)" onmousedown="handlePan(0,-1)">
                  <use xlink:href="#rim" fill="#404040">
                        <set attributeName="fill" to="#808080" begin="arrowUp.mouseover" end="arrowUp.mouseout"/>
                  </use>
                  <path fill="none" stroke="white" stroke-width="1.5" d="M0,-3.0v7 M-2.5,-0.5L0,-3.0L2.5,-0.5"/>
                </g>
                <g id="arrowRight" xlink:href="#dirArrow" transform="rotate(90) translate(36 -43)" onmousedown="handlePan(1,0)">
                  <use xlink:href="#rim" fill="#404040">
                        <set attributeName="fill" to="#808080" begin="arrowRight.mouseover" end="arrowRight.mouseout"/>
                  </use>
                  <path fill="none" stroke="white" stroke-width="1.5" d="M0,-3.0v7 M-2.5,-0.5L0,-3.0L2.5,-0.5"/>
                </g>
                <g id="arrowDown" xlink:href="#dirArrow" transform="rotate(180) translate(-30 -48)" onmousedown="handlePan(0,1)">
                  <use xlink:href="#rim" fill="#404040">
                        <set attributeName="fill" to="#808080" begin="arrowDown.mouseover" end="arrowDown.mouseout"/>
                  </use>
                  <path fill="none" stroke="white" stroke-width="1.5" d="M0,-3.0v7 M-2.5,-0.5L0,-3.0L2.5,-0.5"/>
                </g>
                <g id="arrowLeft" xlink:href="#dirArrow" transform="rotate(270) translate(-36 17)" onmousedown="handlePan(-1,0)">
                  <use xlink:href="#rim" fill="#404040">
                        <set attributeName="fill" to="#808080" begin="arrowLeft.mouseover" end="arrowLeft.mouseout"/>
                  </use>
                  <path fill="none" stroke="white" stroke-width="1.5" d="M0,-3.0v7 M-2.5,-0.5L0,-3.0L2.5,-0.5"/>
                </g>
        </g>
        <svg viewBox="0 0 15 15" width="100%" height="30px" preserveAspectRatio="xMaxYMin meet">
         <g id="arrow_out" transform="scale(0.3 0.3)">
          <a xlink:href="BuilderXML_8cpp__incl_org.svg" target="_base">
           <rect id="button" ry="5" rx="5" y="6" x="6" height="38" width="38"
                fill="#f2f5e9" fill-opacity="0.5" stroke="#606060" stroke-width="1.0"/>
           <path id="arrow"
             d="M 11.500037,31.436501 C 11.940474,20.09759 22.043105,11.32322 32.158766,21.979434 L 37.068811,17.246167 C 37.068811,17.246167 37.088388,32 37.088388,32 L 22.160133,31.978069 C 22.160133,31.978069 26.997745,27.140456 26.997745,27.140456 C 18.528582,18.264221 13.291696,25.230495 11.500037,31.436501 z"
             style="fill:#404040;"/>
          </a>
         </g>
        </svg>
</svg>
