<?xml version="1.0" encoding="UTF-8" standalone="no"?>
<!DOCTYPE svg PUBLIC "-//W3C//DTD SVG 1.1//EN"
 "http://www.w3.org/Graphics/SVG/1.1/DTD/svg11.dtd">
<!-- Generated by graphviz version 2.38.0 (20140413.2041)
 -->
<!-- Title: Physics/BuilderXML.hpp Pages: 1 -->
<svg width="1216pt" height="285pt"
 viewBox="0.00 0.00 1216.41 285.00" xmlns="http://www.w3.org/2000/svg" xmlns:xlink="http://www.w3.org/1999/xlink">
<g id="graph0" class="graph" transform="scale(1 1) rotate(0) translate(4 281)">
<title>Physics/BuilderXML.hpp</title>
<polygon fill="white" stroke="none" points="-4,4 -4,-281 1212.41,-281 1212.41,4 -4,4"/>
<!-- Node1 -->
<g id="node1" class="node"><title>Node1</title>
<polygon fill="#bfbfbf" stroke="black" points="514.413,-257.5 514.413,-276.5 638.413,-276.5 638.413,-257.5 514.413,-257.5"/>
<text text-anchor="middle" x="576.413" y="-264.5" font-family="Helvetica,sans-Serif" font-size="10.00">Physics/BuilderXML.hpp</text>
</g>
<!-- Node2 -->
<g id="node2" class="node"><title>Node2</title>
<g id="a_node2"><a xlink:href="Function_8hpp.html" target="_top" xlink:title="Core/Function.hpp">
<polygon fill="white" stroke="black" points="328.913,-129 328.913,-148 425.913,-148 425.913,-129 328.913,-129"/>
<text text-anchor="middle" x="377.413" y="-136" font-family="Helvetica,sans-Serif" font-size="10.00">Core/Function.hpp</text>
</a>
</g>
</g>
<!-- Node1&#45;&gt;Node2 -->
<g id="edge1" class="edge"><title>Node1&#45;&gt;Node2</title>
<path fill="none" stroke="midnightblue" d="M514.408,-257.498C469.134,-250.039 412.907,-237.759 396.413,-221 380.125,-204.45 376.769,-176.798 376.547,-158.357"/>
<polygon fill="midnightblue" stroke="midnightblue" points="380.048,-158.307 376.725,-148.247 373.049,-158.184 380.048,-158.307"/>
</g>
<!-- Node5 -->
<g id="node5" class="node"><title>Node5</title>
<polygon fill="white" stroke="#bfbfbf" points="600.413,-6 600.413,-25 644.413,-25 644.413,-6 600.413,-6"/>
<text text-anchor="middle" x="622.413" y="-13" font-family="Helvetica,sans-Serif" font-size="10.00">vector</text>
</g>
<!-- Node1&#45;&gt;Node5 -->
<g id="edge48" class="edge"><title>Node1&#45;&gt;Node5</title>
<path fill="none" stroke="midnightblue" d="M514.276,-264.14C384.709,-259.757 94.6632,-247.125 58.4132,-221 1.62594,-180.074 -21.9512,-118.54 25.4132,-67 63.8474,-25.1773 471.327,-17.9593 590.098,-16.7414"/>
<polygon fill="midnightblue" stroke="midnightblue" points="590.391,-20.2389 600.357,-16.644 590.324,-13.2392 590.391,-20.2389"/>
</g>
<!-- Node6 -->
<g id="node6" class="node"><title>Node6</title>
<g id="a_node6"><a xlink:href="FunctionTreeIntensity_8hpp.html" target="_top" xlink:title="Core/FunctionTree/Function\lTreeIntensity.hpp">
<polygon fill="white" stroke="black" points="132.413,-190.5 132.413,-220.5 270.413,-220.5 270.413,-190.5 132.413,-190.5"/>
<text text-anchor="start" x="140.413" y="-208.5" font-family="Helvetica,sans-Serif" font-size="10.00">Core/FunctionTree/Function</text>
<text text-anchor="middle" x="201.413" y="-197.5" font-family="Helvetica,sans-Serif" font-size="10.00">TreeIntensity.hpp</text>
</a>
</g>
</g>
<!-- Node1&#45;&gt;Node6 -->
<g id="edge5" class="edge"><title>Node1&#45;&gt;Node6</title>
<path fill="none" stroke="midnightblue" d="M519.965,-257.497C461.495,-248.63 367.501,-234.207 286.413,-221 284.474,-220.684 282.51,-220.363 280.529,-220.037"/>
<polygon fill="midnightblue" stroke="midnightblue" points="280.957,-216.56 270.519,-218.378 279.812,-223.466 280.957,-216.56"/>
</g>
<!-- Node7 -->
<g id="node7" class="node"><title>Node7</title>
<polygon fill="white" stroke="#bfbfbf" points="34.4132,-67.5 34.4132,-86.5 86.4132,-86.5 86.4132,-67.5 34.4132,-67.5"/>
<text text-anchor="middle" x="60.4132" y="-74.5" font-family="Helvetica,sans-Serif" font-size="10.00">memory</text>
</g>
<!-- Node1&#45;&gt;Node7 -->
<g id="edge45" class="edge"><title>Node1&#45;&gt;Node7</title>
<path fill="none" stroke="midnightblue" d="M514.259,-264.041C407.23,-259.972 192.929,-248.575 123.413,-221 78.0479,-203.005 57.9602,-197.79 36.4132,-154 26.9147,-134.696 37.8075,-110.806 47.8258,-95.0211"/>
<polygon fill="midnightblue" stroke="midnightblue" points="50.7174,-96.993 53.4625,-86.7599 44.9352,-93.0476 50.7174,-96.993"/>
</g>
<!-- Node9 -->
<g id="node9" class="node"><title>Node9</title>
<polygon fill="white" stroke="#bfbfbf" points="760.913,-67.5 760.913,-86.5 795.913,-86.5 795.913,-67.5 760.913,-67.5"/>
<text text-anchor="middle" x="778.413" y="-74.5" font-family="Helvetica,sans-Serif" font-size="10.00">map</text>
</g>
<!-- Node1&#45;&gt;Node9 -->
<g id="edge44" class="edge"><title>Node1&#45;&gt;Node9</title>
<path fill="none" stroke="midnightblue" d="M590.947,-257.342C604.758,-248.831 625.823,-235.101 642.413,-221 691.175,-179.556 741.182,-122.462 764.658,-94.6187"/>
<polygon fill="midnightblue" stroke="midnightblue" points="767.581,-96.5793 771.312,-86.6634 762.212,-92.088 767.581,-96.5793"/>
</g>
<!-- Node10 -->
<g id="node10" class="node"><title>Node10</title>
<g id="a_node10"><a xlink:href="Value_8hpp.html" target="_top" xlink:title="Template implementation of Parameter for simple values. ">
<polygon fill="white" stroke="red" points="169.413,-67.5 169.413,-86.5 313.413,-86.5 313.413,-67.5 169.413,-67.5"/>
<text text-anchor="middle" x="241.413" y="-74.5" font-family="Helvetica,sans-Serif" font-size="10.00">Core/FunctionTree/Value.hpp</text>
</a>
</g>
</g>
<!-- Node1&#45;&gt;Node10 -->
<g id="edge14" class="edge"><title>Node1&#45;&gt;Node10</title>
<path fill="none" stroke="midnightblue" d="M514.294,-261.344C473.242,-256.083 419.457,-244.874 377.413,-221 362.519,-212.542 287.911,-130.045 255.966,-94.337"/>
<polygon fill="midnightblue" stroke="midnightblue" points="258.43,-91.8411 249.158,-86.7135 253.208,-96.5037 258.43,-91.8411"/>
</g>
<!-- Node11 -->
<g id="node11" class="node"><title>Node11</title>
<g id="a_node11"><a xlink:href="DataSet_8hpp.html" target="_top" xlink:title="Data/DataSet.hpp">
<polygon fill="white" stroke="black" points="405.913,-196 405.913,-215 500.913,-215 500.913,-196 405.913,-196"/>
<text text-anchor="middle" x="453.413" y="-203" font-family="Helvetica,sans-Serif" font-size="10.00">Data/DataSet.hpp</text>
</a>
</g>
</g>
<!-- Node1&#45;&gt;Node11 -->
<g id="edge15" class="edge"><title>Node1&#45;&gt;Node11</title>
<path fill="none" stroke="midnightblue" d="M558.79,-257.475C538.239,-247.534 504.049,-230.995 480.206,-219.461"/>
<polygon fill="midnightblue" stroke="midnightblue" points="481.53,-216.213 471.003,-215.009 478.481,-222.515 481.53,-216.213"/>
</g>
<!-- Node15 -->
<g id="node15" class="node"><title>Node15</title>
<g id="a_node15"><a xlink:href="ParticleStateTransitionKinematicsInfo_8hpp.html" target="_top" xlink:title="Physics/ParticleStateTransition\lKinematicsInfo.hpp">
<polygon fill="white" stroke="black" points="747.413,-190.5 747.413,-220.5 901.413,-220.5 901.413,-190.5 747.413,-190.5"/>
<text text-anchor="start" x="755.413" y="-208.5" font-family="Helvetica,sans-Serif" font-size="10.00">Physics/ParticleStateTransition</text>
<text text-anchor="middle" x="824.413" y="-197.5" font-family="Helvetica,sans-Serif" font-size="10.00">KinematicsInfo.hpp</text>
</a>
</g>
</g>
<!-- Node1&#45;&gt;Node15 -->
<g id="edge23" class="edge"><title>Node1&#45;&gt;Node15</title>
<path fill="none" stroke="midnightblue" d="M611.946,-257.475C649.458,-248.475 709.508,-234.068 756.213,-222.862"/>
<polygon fill="midnightblue" stroke="midnightblue" points="757.057,-226.259 765.964,-220.523 755.424,-219.453 757.057,-226.259"/>
</g>
<!-- Node17 -->
<g id="node17" class="node"><title>Node17</title>
<polygon fill="white" stroke="#bfbfbf" points="928.413,-67.5 928.413,-86.5 958.413,-86.5 958.413,-67.5 928.413,-67.5"/>
<text text-anchor="middle" x="943.413" y="-74.5" font-family="Helvetica,sans-Serif" font-size="10.00">set</text>
</g>
<!-- Node1&#45;&gt;Node17 -->
<g id="edge46" class="edge"><title>Node1&#45;&gt;Node17</title>
<path fill="none" stroke="midnightblue" d="M638.576,-263.035C722.03,-258.144 865.06,-246.29 910.413,-221 944.061,-202.237 952.432,-190.273 965.413,-154 972.475,-134.267 963.304,-111.059 954.742,-95.5279"/>
<polygon fill="midnightblue" stroke="midnightblue" points="957.51,-93.3369 949.379,-86.5439 951.499,-96.9245 957.51,-93.3369"/>
</g>
<!-- Node18 -->
<g id="node18" class="node"><title>Node18</title>
<g id="a_node18"><a xlink:href="SubSystem_8hpp.html" target="_top" xlink:title="Contains SubSystem class. ">
<polygon fill="white" stroke="black" points="975.913,-67.5 975.913,-86.5 1100.91,-86.5 1100.91,-67.5 975.913,-67.5"/>
<text text-anchor="middle" x="1038.41" y="-74.5" font-family="Helvetica,sans-Serif" font-size="10.00">Physics/SubSystem.hpp</text>
</a>
</g>
</g>
<!-- Node1&#45;&gt;Node18 -->
<g id="edge33" class="edge"><title>Node1&#45;&gt;Node18</title>
<path fill="none" stroke="midnightblue" d="M638.597,-264.574C729.637,-261.462 893.779,-251.65 943.413,-221 991.279,-191.442 1020.2,-127.735 1032.1,-96.3025"/>
<polygon fill="midnightblue" stroke="midnightblue" points="1035.48,-97.2335 1035.6,-86.6393 1028.9,-94.8495 1035.48,-97.2335"/>
</g>
<!-- Node20 -->
<g id="node20" class="node"><title>Node20</title>
<g id="a_node20"><a xlink:href="FitFractions_8hpp.html" target="_top" xlink:title="Tools/FitFractions.hpp">
<polygon fill="white" stroke="black" points="519.413,-196 519.413,-215 633.413,-215 633.413,-196 519.413,-196"/>
<text text-anchor="middle" x="576.413" y="-203" font-family="Helvetica,sans-Serif" font-size="10.00">Tools/FitFractions.hpp</text>
</a>
</g>
</g>
<!-- Node1&#45;&gt;Node20 -->
<g id="edge37" class="edge"><title>Node1&#45;&gt;Node20</title>
<path fill="none" stroke="midnightblue" d="M576.413,-257.475C576.413,-249.08 576.413,-235.981 576.413,-225.163"/>
<polygon fill="midnightblue" stroke="midnightblue" points="579.913,-225.009 576.413,-215.009 572.913,-225.009 579.913,-225.009"/>
</g>
<!-- Node21 -->
<g id="node21" class="node"><title>Node21</title>
<polygon fill="white" stroke="#bfbfbf" points="1050.91,-190.5 1050.91,-220.5 1151.91,-220.5 1151.91,-190.5 1050.91,-190.5"/>
<text text-anchor="start" x="1058.91" y="-208.5" font-family="Helvetica,sans-Serif" font-size="10.00">boost/property_tree</text>
<text text-anchor="middle" x="1101.41" y="-197.5" font-family="Helvetica,sans-Serif" font-size="10.00">/ptree_fwd.hpp</text>
</g>
<!-- Node1&#45;&gt;Node21 -->
<g id="edge43" class="edge"><title>Node1&#45;&gt;Node21</title>
<path fill="none" stroke="midnightblue" d="M638.475,-262.34C727.135,-256.566 894.976,-243.607 1036.41,-221 1037.88,-220.766 1039.36,-220.519 1040.85,-220.262"/>
<polygon fill="midnightblue" stroke="midnightblue" points="1041.59,-223.683 1050.79,-218.42 1040.32,-216.8 1041.59,-223.683"/>
</g>
<!-- Node22 -->
<g id="node22" class="node"><title>Node22</title>
<polygon fill="white" stroke="#bfbfbf" points="1170.41,-196 1170.41,-215 1208.41,-215 1208.41,-196 1170.41,-196"/>
<text text-anchor="middle" x="1189.41" y="-203" font-family="Helvetica,sans-Serif" font-size="10.00">tuple</text>
</g>
<!-- Node1&#45;&gt;Node22 -->
<g id="edge47" class="edge"><title>Node1&#45;&gt;Node22</title>
<path fill="none" stroke="midnightblue" d="M638.447,-264.353C768.263,-260.399 1064.54,-248.572 1161.41,-221 1163.08,-220.526 1164.76,-219.948 1166.43,-219.299"/>
<polygon fill="midnightblue" stroke="midnightblue" points="1168.03,-222.414 1175.63,-215.03 1165.08,-216.064 1168.03,-222.414"/>
</g>
<!-- Node3 -->
<g id="node3" class="node"><title>Node3</title>
<polygon fill="white" stroke="#bfbfbf" points="471.913,-67.5 471.913,-86.5 512.913,-86.5 512.913,-67.5 471.913,-67.5"/>
<text text-anchor="middle" x="492.413" y="-74.5" font-family="Helvetica,sans-Serif" font-size="10.00">string</text>
</g>
<!-- Node2&#45;&gt;Node3 -->
<g id="edge2" class="edge"><title>Node2&#45;&gt;Node3</title>
<path fill="none" stroke="midnightblue" d="M393.89,-128.975C413.019,-119.078 444.786,-102.642 467.065,-91.1151"/>
<polygon fill="midnightblue" stroke="midnightblue" points="468.694,-94.213 475.967,-86.5091 465.477,-87.9958 468.694,-94.213"/>
</g>
<!-- Node4 -->
<g id="node4" class="node"><title>Node4</title>
<polygon fill="white" stroke="#bfbfbf" points="331.913,-67.5 331.913,-86.5 414.913,-86.5 414.913,-67.5 331.913,-67.5"/>
<text text-anchor="middle" x="373.413" y="-74.5" font-family="Helvetica,sans-Serif" font-size="10.00">unordered_map</text>
</g>
<!-- Node2&#45;&gt;Node4 -->
<g id="edge3" class="edge"><title>Node2&#45;&gt;Node4</title>
<path fill="none" stroke="midnightblue" d="M376.84,-128.975C376.276,-120.58 375.395,-107.481 374.668,-96.6631"/>
<polygon fill="midnightblue" stroke="midnightblue" points="378.148,-96.2518 373.985,-86.5091 371.164,-96.7214 378.148,-96.2518"/>
</g>
<!-- Node2&#45;&gt;Node5 -->
<g id="edge4" class="edge"><title>Node2&#45;&gt;Node5</title>
<path fill="none" stroke="midnightblue" d="M385.52,-128.871C399.759,-114.186 430.766,-84.251 462.413,-67 503.838,-44.4192 556.893,-30.1966 590.279,-22.7949"/>
<polygon fill="midnightblue" stroke="midnightblue" points="591.343,-26.1466 600.388,-20.6296 589.876,-19.3018 591.343,-26.1466"/>
</g>
<!-- Node6&#45;&gt;Node2 -->
<g id="edge7" class="edge"><title>Node6&#45;&gt;Node2</title>
<path fill="none" stroke="midnightblue" d="M239.603,-190.396C271.03,-178.789 315.096,-162.515 344.869,-151.519"/>
<polygon fill="midnightblue" stroke="midnightblue" points="346.211,-154.755 354.379,-148.007 343.786,-148.188 346.211,-154.755"/>
</g>
<!-- Node6&#45;&gt;Node7 -->
<g id="edge6" class="edge"><title>Node6&#45;&gt;Node7</title>
<path fill="none" stroke="midnightblue" d="M132.352,-199.933C100.789,-193.975 66.1153,-181.141 46.4132,-154 34.1424,-137.097 41.9746,-112.644 49.9967,-96.0765"/>
<polygon fill="midnightblue" stroke="midnightblue" points="53.2591,-97.3942 54.8381,-86.9176 47.0705,-94.1228 53.2591,-97.3942"/>
</g>
<!-- Node8 -->
<g id="node8" class="node"><title>Node8</title>
<g id="a_node8"><a xlink:href="ParameterList_8hpp.html" target="_top" xlink:title="ParameterList class. ">
<polygon fill="white" stroke="red" points="126.413,-123.5 126.413,-153.5 272.413,-153.5 272.413,-123.5 126.413,-123.5"/>
<text text-anchor="start" x="134.413" y="-141.5" font-family="Helvetica,sans-Serif" font-size="10.00">Core/FunctionTree/Parameter</text>
<text text-anchor="middle" x="199.413" y="-130.5" font-family="Helvetica,sans-Serif" font-size="10.00">List.hpp</text>
</a>
</g>
</g>
<!-- Node6&#45;&gt;Node8 -->
<g id="edge8" class="edge"><title>Node6&#45;&gt;Node8</title>
<path fill="none" stroke="midnightblue" d="M200.979,-190.396C200.741,-182.645 200.438,-172.812 200.163,-163.86"/>
<polygon fill="midnightblue" stroke="midnightblue" points="203.652,-163.464 199.846,-153.577 196.656,-163.679 203.652,-163.464"/>
</g>
<!-- Node8&#45;&gt;Node3 -->
<g id="edge11" class="edge"><title>Node8&#45;&gt;Node3</title>
<path fill="none" stroke="midnightblue" d="M268.479,-123.475C329.851,-111.012 416.664,-93.3824 462.064,-84.163"/>
<polygon fill="midnightblue" stroke="midnightblue" points="462.784,-87.5883 471.888,-82.1681 461.391,-80.7283 462.784,-87.5883"/>
</g>
<!-- Node8&#45;&gt;Node5 -->
<g id="edge12" class="edge"><title>Node8&#45;&gt;Node5</title>
<path fill="none" stroke="midnightblue" d="M181.989,-123.346C165.412,-108.209 145.099,-84.0793 160.413,-67 189.095,-35.0125 489.85,-21.2951 590.101,-17.5887"/>
<polygon fill="midnightblue" stroke="midnightblue" points="590.37,-21.0813 600.238,-17.223 590.118,-14.0859 590.37,-21.0813"/>
</g>
<!-- Node8&#45;&gt;Node7 -->
<g id="edge10" class="edge"><title>Node8&#45;&gt;Node7</title>
<path fill="none" stroke="midnightblue" d="M166.472,-123.399C143.254,-113.461 112.427,-100.265 89.9944,-90.6625"/>
<polygon fill="midnightblue" stroke="midnightblue" points="91.2094,-87.3754 80.6389,-86.6578 88.4547,-93.8106 91.2094,-87.3754"/>
</g>
<!-- Node8&#45;&gt;Node9 -->
<g id="edge9" class="edge"><title>Node8&#45;&gt;Node9</title>
<path fill="none" stroke="midnightblue" d="M272.661,-128.211C288.091,-126.377 304.278,-124.545 319.413,-123 507.808,-103.775 560.878,-124.989 750.826,-86.5789"/>
<polygon fill="midnightblue" stroke="midnightblue" points="751.767,-89.9589 760.859,-84.5208 750.36,-83.1016 751.767,-89.9589"/>
</g>
<!-- Node8&#45;&gt;Node10 -->
<g id="edge13" class="edge"><title>Node8&#45;&gt;Node10</title>
<path fill="none" stroke="midnightblue" d="M209.367,-123.399C215.407,-114.842 223.151,-103.871 229.514,-94.857"/>
<polygon fill="midnightblue" stroke="midnightblue" points="232.394,-96.8459 235.302,-86.6578 226.676,-92.8091 232.394,-96.8459"/>
</g>
<!-- Node11&#45;&gt;Node2 -->
<g id="edge22" class="edge"><title>Node11&#45;&gt;Node2</title>
<path fill="none" stroke="midnightblue" d="M443.163,-195.734C430.97,-185.305 410.396,-167.709 395.505,-154.973"/>
<polygon fill="midnightblue" stroke="midnightblue" points="397.375,-151.967 387.5,-148.127 392.825,-157.287 397.375,-151.967"/>
</g>
<!-- Node11&#45;&gt;Node7 -->
<g id="edge16" class="edge"><title>Node11&#45;&gt;Node7</title>
<path fill="none" stroke="midnightblue" d="M405.737,-200.814C311.55,-193.127 108.605,-174.396 84.4132,-154 67.7516,-139.953 62.5073,-114.423 60.9382,-96.8571"/>
<polygon fill="midnightblue" stroke="midnightblue" points="64.4206,-96.4479 60.3548,-86.6642 57.4321,-96.8479 64.4206,-96.4479"/>
</g>
<!-- Node12 -->
<g id="node12" class="node"><title>Node12</title>
<g id="a_node12"><a xlink:href="Event_8hpp.html" target="_top" xlink:title="Core/Event.hpp">
<polygon fill="white" stroke="black" points="520.913,-129 520.913,-148 605.913,-148 605.913,-129 520.913,-129"/>
<text text-anchor="middle" x="563.413" y="-136" font-family="Helvetica,sans-Serif" font-size="10.00">Core/Event.hpp</text>
</a>
</g>
</g>
<!-- Node11&#45;&gt;Node12 -->
<g id="edge17" class="edge"><title>Node11&#45;&gt;Node12</title>
<path fill="none" stroke="midnightblue" d="M468.248,-195.734C486.721,-184.818 518.485,-166.049 540.193,-153.221"/>
<polygon fill="midnightblue" stroke="midnightblue" points="541.984,-156.228 548.813,-148.127 538.423,-150.201 541.984,-156.228"/>
</g>
<!-- Node12&#45;&gt;Node5 -->
<g id="edge21" class="edge"><title>Node12&#45;&gt;Node5</title>
<path fill="none" stroke="midnightblue" d="M567.656,-128.798C577.267,-109.089 600.856,-60.7106 613.713,-34.342"/>
<polygon fill="midnightblue" stroke="midnightblue" points="616.972,-35.6456 618.208,-25.1232 610.68,-32.5776 616.972,-35.6456"/>
</g>
<!-- Node13 -->
<g id="node13" class="node"><title>Node13</title>
<g id="a_node13"><a xlink:href="Particle_8hpp.html" target="_top" xlink:title="Particle and FourMomentum class. ">
<polygon fill="white" stroke="red" points="650.413,-67.5 650.413,-86.5 742.413,-86.5 742.413,-67.5 650.413,-67.5"/>
<text text-anchor="middle" x="696.413" y="-74.5" font-family="Helvetica,sans-Serif" font-size="10.00">Core/Particle.hpp</text>
</a>
</g>
</g>
<!-- Node12&#45;&gt;Node13 -->
<g id="edge18" class="edge"><title>Node12&#45;&gt;Node13</title>
<path fill="none" stroke="midnightblue" d="M582.469,-128.975C604.888,-118.945 642.319,-102.2 668.126,-90.6546"/>
<polygon fill="midnightblue" stroke="midnightblue" points="669.694,-93.7877 677.393,-86.5091 666.835,-87.3979 669.694,-93.7877"/>
</g>
<!-- Node13&#45;&gt;Node5 -->
<g id="edge19" class="edge"><title>Node13&#45;&gt;Node5</title>
<path fill="none" stroke="midnightblue" d="M685.811,-67.4751C674.161,-58.1082 655.227,-42.8839 641.079,-31.5081"/>
<polygon fill="midnightblue" stroke="midnightblue" points="642.982,-28.5477 632.996,-25.0091 638.596,-34.003 642.982,-28.5477"/>
</g>
<!-- Node14 -->
<g id="node14" class="node"><title>Node14</title>
<polygon fill="white" stroke="#bfbfbf" points="849.913,-0.5 849.913,-30.5 950.913,-30.5 950.913,-0.5 849.913,-0.5"/>
<text text-anchor="start" x="857.913" y="-18.5" font-family="Helvetica,sans-Serif" font-size="10.00">boost/property_tree</text>
<text text-anchor="middle" x="900.413" y="-7.5" font-family="Helvetica,sans-Serif" font-size="10.00">/ptree.hpp</text>
</g>
<!-- Node13&#45;&gt;Node14 -->
<g id="edge20" class="edge"><title>Node13&#45;&gt;Node14</title>
<path fill="none" stroke="midnightblue" d="M725.641,-67.4751C755.982,-58.6259 804.246,-44.5487 842.375,-33.4277"/>
<polygon fill="midnightblue" stroke="midnightblue" points="843.714,-36.683 852.334,-30.523 841.754,-29.963 843.714,-36.683"/>
</g>
<!-- Node15&#45;&gt;Node3 -->
<g id="edge25" class="edge"><title>Node15&#45;&gt;Node3</title>
<path fill="none" stroke="midnightblue" d="M747.241,-196.503C660.238,-186.801 528.592,-169.777 511.413,-154 495.636,-139.511 492.081,-114.083 491.68,-96.6606"/>
<polygon fill="midnightblue" stroke="midnightblue" points="495.181,-96.5959 491.776,-86.5631 488.181,-96.5295 495.181,-96.5959"/>
</g>
<!-- Node15&#45;&gt;Node5 -->
<g id="edge26" class="edge"><title>Node15&#45;&gt;Node5</title>
<path fill="none" stroke="midnightblue" d="M826.906,-190.39C830.885,-162.971 835.352,-102.112 804.413,-67 784.713,-44.6416 701.246,-28.5757 654.488,-21.1374"/>
<polygon fill="midnightblue" stroke="midnightblue" points="654.971,-17.6705 644.553,-19.5988 653.899,-24.588 654.971,-17.6705"/>
</g>
<!-- Node15&#45;&gt;Node9 -->
<g id="edge24" class="edge"><title>Node15&#45;&gt;Node9</title>
<path fill="none" stroke="midnightblue" d="M819.315,-190.479C810.964,-167.514 794.373,-121.889 785.093,-96.3699"/>
<polygon fill="midnightblue" stroke="midnightblue" points="788.316,-94.9904 781.609,-86.7885 781.737,-97.3826 788.316,-94.9904"/>
</g>
<!-- Node15&#45;&gt;Node13 -->
<g id="edge27" class="edge"><title>Node15&#45;&gt;Node13</title>
<path fill="none" stroke="midnightblue" d="M810.226,-190.479C786.262,-166.796 737.915,-119.016 712.641,-94.0376"/>
<polygon fill="midnightblue" stroke="midnightblue" points="714.879,-91.3284 705.306,-86.7885 709.958,-96.3073 714.879,-91.3284"/>
</g>
<!-- Node16 -->
<g id="node16" class="node"><title>Node16</title>
<g id="a_node16"><a xlink:href="Properties_8hpp.html" target="_top" xlink:title="Core/Properties.hpp">
<polygon fill="white" stroke="red" points="852.413,-129 852.413,-148 956.413,-148 956.413,-129 852.413,-129"/>
<text text-anchor="middle" x="904.413" y="-136" font-family="Helvetica,sans-Serif" font-size="10.00">Core/Properties.hpp</text>
</a>
</g>
</g>
<!-- Node15&#45;&gt;Node16 -->
<g id="edge28" class="edge"><title>Node15&#45;&gt;Node16</title>
<path fill="none" stroke="midnightblue" d="M841.772,-190.396C854.74,-179.86 872.441,-165.477 885.719,-154.689"/>
<polygon fill="midnightblue" stroke="midnightblue" points="888.158,-157.217 893.712,-148.195 883.744,-151.784 888.158,-157.217"/>
</g>
<!-- Node16&#45;&gt;Node5 -->
<g id="edge32" class="edge"><title>Node16&#45;&gt;Node5</title>
<path fill="none" stroke="midnightblue" d="M898.693,-128.558C888.506,-113.4 865.704,-82.7714 838.413,-67 779.424,-32.9099 698.81,-21.8194 654.631,-18.2205"/>
<polygon fill="midnightblue" stroke="midnightblue" points="654.708,-14.7169 644.479,-17.4744 654.195,-21.698 654.708,-14.7169"/>
</g>
<!-- Node16&#45;&gt;Node9 -->
<g id="edge30" class="edge"><title>Node16&#45;&gt;Node9</title>
<path fill="none" stroke="midnightblue" d="M886.36,-128.975C865.095,-118.933 829.572,-102.158 805.119,-90.6113"/>
<polygon fill="midnightblue" stroke="midnightblue" points="806.563,-87.4225 796.026,-86.3173 803.574,-93.7522 806.563,-87.4225"/>
</g>
<!-- Node16&#45;&gt;Node14 -->
<g id="edge29" class="edge"><title>Node16&#45;&gt;Node14</title>
<path fill="none" stroke="midnightblue" d="M904.125,-128.798C903.524,-110.605 902.115,-67.9833 901.216,-40.7942"/>
<polygon fill="midnightblue" stroke="midnightblue" points="904.706,-40.418 900.877,-30.5392 897.71,-40.6494 904.706,-40.418"/>
</g>
<!-- Node16&#45;&gt;Node17 -->
<g id="edge31" class="edge"><title>Node16&#45;&gt;Node17</title>
<path fill="none" stroke="midnightblue" d="M910.001,-128.975C915.793,-120.138 925.002,-106.089 932.287,-94.975"/>
<polygon fill="midnightblue" stroke="midnightblue" points="935.281,-96.7913 937.836,-86.5091 929.427,-92.9539 935.281,-96.7913"/>
</g>
<!-- Node18&#45;&gt;Node5 -->
<g id="edge35" class="edge"><title>Node18&#45;&gt;Node5</title>
<path fill="none" stroke="midnightblue" d="M978.811,-67.4751C889.487,-54.6992 723.976,-31.0264 654.467,-21.0847"/>
<polygon fill="midnightblue" stroke="midnightblue" points="654.94,-17.6167 644.545,-19.6655 653.949,-24.5462 654.94,-17.6167"/>
</g>
<!-- Node18&#45;&gt;Node14 -->
<g id="edge36" class="edge"><title>Node18&#45;&gt;Node14</title>
<path fill="none" stroke="midnightblue" d="M1018.64,-67.4751C998.816,-58.9271 967.676,-45.5011 942.331,-34.5734"/>
<polygon fill="midnightblue" stroke="midnightblue" points="943.506,-31.2683 932.937,-30.523 940.734,-37.6963 943.506,-31.2683"/>
</g>
<!-- Node19 -->
<g id="node19" class="node"><title>Node19</title>
<polygon fill="white" stroke="#bfbfbf" points="1008.91,-6 1008.91,-25 1067.91,-25 1067.91,-6 1008.91,-6"/>
<text text-anchor="middle" x="1038.41" y="-13" font-family="Helvetica,sans-Serif" font-size="10.00">functional</text>
</g>
<!-- Node18&#45;&gt;Node19 -->
<g id="edge34" class="edge"><title>Node18&#45;&gt;Node19</title>
<path fill="none" stroke="midnightblue" d="M1038.41,-67.4751C1038.41,-59.0803 1038.41,-45.9806 1038.41,-35.1631"/>
<polygon fill="midnightblue" stroke="midnightblue" points="1041.91,-35.0091 1038.41,-25.0091 1034.91,-35.0091 1041.91,-35.0091"/>
</g>
<!-- Node20&#45;&gt;Node2 -->
<g id="edge38" class="edge"><title>Node20&#45;&gt;Node2</title>
<path fill="none" stroke="midnightblue" d="M549.988,-195.869C514.877,-184.4 452.71,-164.094 413.357,-151.24"/>
<polygon fill="midnightblue" stroke="midnightblue" points="414.224,-147.842 403.631,-148.064 412.05,-154.496 414.224,-147.842"/>
</g>
<!-- Node20&#45;&gt;Node3 -->
<g id="edge41" class="edge"><title>Node20&#45;&gt;Node3</title>
<path fill="none" stroke="midnightblue" d="M539.952,-195.945C517.989,-188.709 491.764,-175.899 478.413,-154 467.54,-136.165 475.07,-111.914 482.641,-95.6475"/>
<polygon fill="midnightblue" stroke="midnightblue" points="485.787,-97.1805 487.195,-86.6796 479.546,-94.0106 485.787,-97.1805"/>
</g>
<!-- Node20&#45;&gt;Node5 -->
<g id="edge42" class="edge"><title>Node20&#45;&gt;Node5</title>
<path fill="none" stroke="midnightblue" d="M585.545,-195.824C594.7,-186.478 608.291,-170.688 614.413,-154 629.185,-113.732 627.184,-62.3876 624.662,-35.2588"/>
<polygon fill="midnightblue" stroke="midnightblue" points="628.133,-34.7926 623.597,-25.2176 621.172,-35.5311 628.133,-34.7926"/>
</g>
<!-- Node20&#45;&gt;Node7 -->
<g id="edge40" class="edge"><title>Node20&#45;&gt;Node7</title>
<path fill="none" stroke="midnightblue" d="M540.748,-195.94C530.663,-193.749 519.647,-191.571 509.413,-190 422.949,-176.724 193.783,-196.662 117.413,-154 94.1952,-141.03 77.6115,-114.246 68.5163,-96.1962"/>
<polygon fill="midnightblue" stroke="midnightblue" points="71.5896,-94.5088 64.1359,-86.9794 65.2673,-97.5136 71.5896,-94.5088"/>
</g>
<!-- Node20&#45;&gt;Node9 -->
<g id="edge39" class="edge"><title>Node20&#45;&gt;Node9</title>
<path fill="none" stroke="midnightblue" d="M590.297,-195.805C624.688,-174.269 714.069,-118.295 756.035,-92.014"/>
<polygon fill="midnightblue" stroke="midnightblue" points="758.081,-94.8624 764.699,-86.5884 754.366,-88.9297 758.081,-94.8624"/>
</g>
</g>
</svg>
