<?xml version="1.0" encoding="UTF-8" standalone="no"?>
<!DOCTYPE svg PUBLIC "-//W3C//DTD SVG 1.1//EN"
 "http://www.w3.org/Graphics/SVG/1.1/DTD/svg11.dtd">
<!-- Generated by graphviz version 2.38.0 (20140413.2041)
 -->
<!-- Title: MyObserver Pages: 1 -->
<svg width="187pt" height="365pt"
 viewBox="0.00 0.00 187.00 365.00" xmlns="http://www.w3.org/2000/svg" xmlns:xlink="http://www.w3.org/1999/xlink">
<g id="graph0" class="graph" transform="scale(1 1) rotate(0) translate(4 361)">
<title>MyObserver</title>
<polygon fill="white" stroke="none" points="-4,4 -4,-361 183,-361 183,4 -4,4"/>
<!-- Node1 -->
<g id="node1" class="node"><title>Node1</title>
<polygon fill="#bfbfbf" stroke="black" points="27,-0.5 27,-79.5 152,-79.5 152,-0.5 27,-0.5"/>
<text text-anchor="middle" x="89.5" y="-67.5" font-family="Helvetica,sans-Serif" font-size="10.00">MyObserver</text>
<polyline fill="none" stroke="black" points="27,-60.5 152,-60.5 "/>
<text text-anchor="start" x="35" y="-48.5" font-family="Helvetica,sans-Serif" font-size="10.00">&#45; flags</text>
<polyline fill="none" stroke="black" points="27,-41.5 152,-41.5 "/>
<text text-anchor="start" x="35" y="-29.5" font-family="Helvetica,sans-Serif" font-size="10.00">+ MyObserver()</text>
<text text-anchor="start" x="35" y="-18.5" font-family="Helvetica,sans-Serif" font-size="10.00">&#45; on_scheduler_entry()</text>
<text text-anchor="start" x="35" y="-7.5" font-family="Helvetica,sans-Serif" font-size="10.00">&#45; on_scheduler_exit()</text>
</g>
<!-- Node2 -->
<g id="node2" class="node"><title>Node2</title>
<g id="a_node2"><a xlink:href="classtbb_1_1internal_1_1task__scheduler__observer__v3.html" target="_top" xlink:title="{tbb::task_scheduler\l_observer\n|&#45; my_proxy\l|+ observe()\l+ is_observing()\l+ task_scheduler_observer_v3()\l+ on_scheduler_entry()\l+ on_scheduler_exit()\l+ ~task_scheduler_observer_v3()\l}">
<polygon fill="white" stroke="black" points="0,-117.5 0,-240.5 179,-240.5 179,-117.5 0,-117.5"/>
<text text-anchor="start" x="8" y="-228.5" font-family="Helvetica,sans-Serif" font-size="10.00">tbb::task_scheduler</text>
<text text-anchor="middle" x="89.5" y="-217.5" font-family="Helvetica,sans-Serif" font-size="10.00">_observer</text>
<polyline fill="none" stroke="black" points="0,-210.5 179,-210.5 "/>
<text text-anchor="start" x="8" y="-198.5" font-family="Helvetica,sans-Serif" font-size="10.00">&#45; my_proxy</text>
<polyline fill="none" stroke="black" points="0,-191.5 179,-191.5 "/>
<text text-anchor="start" x="8" y="-179.5" font-family="Helvetica,sans-Serif" font-size="10.00">+ observe()</text>
<text text-anchor="start" x="8" y="-168.5" font-family="Helvetica,sans-Serif" font-size="10.00">+ is_observing()</text>
<text text-anchor="start" x="8" y="-157.5" font-family="Helvetica,sans-Serif" font-size="10.00">+ task_scheduler_observer_v3()</text>
<text text-anchor="start" x="8" y="-146.5" font-family="Helvetica,sans-Serif" font-size="10.00">+ on_scheduler_entry()</text>
<text text-anchor="start" x="8" y="-135.5" font-family="Helvetica,sans-Serif" font-size="10.00">+ on_scheduler_exit()</text>
<text text-anchor="start" x="8" y="-124.5" font-family="Helvetica,sans-Serif" font-size="10.00">+ ~task_scheduler_observer_v3()</text>
</a>
</g>
</g>
<!-- Node2&#45;&gt;Node1 -->
<g id="edge1" class="edge"><title>Node2&#45;&gt;Node1</title>
<path fill="none" stroke="midnightblue" d="M89.5,-106.934C89.5,-97.5462 89.5,-88.2231 89.5,-79.6708"/>
<polygon fill="none" stroke="midnightblue" points="86.0001,-107.112 89.5,-117.112 93.0001,-107.112 86.0001,-107.112"/>
</g>
<!-- Node3 -->
<g id="node3" class="node"><title>Node3</title>
<g id="a_node3"><a xlink:href="structtbb_1_1atomic.html" target="_top" xlink:title="{tbb::atomic\&lt; intptr_t \&gt;\n||+ operator=()\l+ operator=()\l}">
<polygon fill="white" stroke="red" points="25.5,-288.5 25.5,-356.5 153.5,-356.5 153.5,-288.5 25.5,-288.5"/>
<text text-anchor="middle" x="89.5" y="-344.5" font-family="Helvetica,sans-Serif" font-size="10.00">tbb::atomic&lt; intptr_t &gt;</text>
<polyline fill="none" stroke="red" points="25.5,-337.5 153.5,-337.5 "/>
<text text-anchor="middle" x="89.5" y="-325.5" font-family="Helvetica,sans-Serif" font-size="10.00"> </text>
<polyline fill="none" stroke="red" points="25.5,-318.5 153.5,-318.5 "/>
<text text-anchor="start" x="33.5" y="-306.5" font-family="Helvetica,sans-Serif" font-size="10.00">+ operator=()</text>
<text text-anchor="start" x="33.5" y="-295.5" font-family="Helvetica,sans-Serif" font-size="10.00">+ operator=()</text>
</a>
</g>
</g>
<!-- Node3&#45;&gt;Node2 -->
<g id="edge2" class="edge"><title>Node3&#45;&gt;Node2</title>
<path fill="none" stroke="#404040" d="M89.5,-288.325C89.5,-277.665 89.5,-265.401 89.5,-253.045"/>
<polygon fill="none" stroke="#404040" points="89.5001,-252.713 85.5,-246.713 89.5,-240.713 93.5,-246.713 89.5001,-252.713"/>
<text text-anchor="middle" x="130.5" y="-262" font-family="Helvetica,sans-Serif" font-size="10.00"> &#45;my_busy_count</text>
</g>
</g>
</svg>
