<?xml version="1.0" encoding="UTF-8" standalone="no"?>
<!DOCTYPE svg PUBLIC "-//W3C//DTD SVG 1.1//EN"
 "http://www.w3.org/Graphics/SVG/1.1/DTD/svg11.dtd">
<!-- Generated by graphviz version 2.38.0 (20140413.2041)
 -->
<!-- Title: rml::internal::LargeObjectCacheImpl&lt; Props &gt; Pages: 1 -->
<!--zoomable 639 -->
<svg id="main" version="1.1" xmlns="http://www.w3.org/2000/svg" xmlns:xlink="http://www.w3.org/1999/xlink" xml:space="preserve" onload="init(evt)">
<style type="text/css"><![CDATA[
.edge:hover path { stroke: red; }
.edge:hover polygon { stroke: red; fill: red; }
]]></style>
<script type="text/javascript"><![CDATA[
var edges = document.getElementsByTagName('g');
if (edges && edges.length) {
  for (var i=0;i<edges.length;i++) {
    if (edges[i].id.substr(0,4)=='edge') {
      edges[i].setAttribute('class','edge');
    }
  }
}
]]></script>
        <defs>
                <circle id="rim" cx="0" cy="0" r="7"/>
                <circle id="rim2" cx="0" cy="0" r="3.5"/>
                <g id="zoomPlus">
                        <use xlink:href="#rim" fill="#404040">
                                <set attributeName="fill" to="#808080" begin="zoomplus.mouseover" end="zoomplus.mouseout"/>
                        </use>
                        <path d="M-4,0h8M0,-4v8" fill="none" stroke="white" stroke-width="1.5" pointer-events="none"/>
                </g>
                <g id="zoomMin">
                        <use xlink:href="#rim" fill="#404040">
                                <set attributeName="fill" to="#808080" begin="zoomminus.mouseover" end="zoomminus.mouseout"/>
                        </use>
                        <path d="M-4,0h8" fill="none" stroke="white" stroke-width="1.5" pointer-events="none"/>
                </g>
                <g id="dirArrow">
                        <path fill="none" stroke="white" stroke-width="1.5" d="M0,-3.0v7 M-2.5,-0.5L0,-3.0L2.5,-0.5"/>
                </g>
               <g id="resetDef">
                       <use xlink:href="#rim2" fill="#404040">
                               <set attributeName="fill" to="#808080" begin="reset.mouseover" end="reset.mouseout"/>
                       </use>
               </g>
        </defs>

<script type="text/javascript">
var viewWidth = 397;
var viewHeight = 639;
var sectionId = 'dynsection-0';
</script>
<script xlink:href="svgpan.js"/>
<svg id="graph" class="graph">
<g id="viewport">
<title>rml::internal::LargeObjectCacheImpl&lt; Props &gt;</title>
<polygon fill="white" stroke="none" points="-4,4 -4,-635 393,-635 393,4 -4,4"/>
<!-- Node1 -->
<g id="node1" class="node"><title>Node1</title>
<polygon fill="#bfbfbf" stroke="black" points="184,-0.5 184,-167.5 322,-167.5 322,-0.5 184,-0.5"/>
<text text-anchor="start" x="192" y="-155.5" font-family="Helvetica,sans-Serif" font-size="10.00">rml::internal::LargeObject</text>
<text text-anchor="middle" x="253" y="-144.5" font-family="Helvetica,sans-Serif" font-size="10.00">CacheImpl&lt; Props &gt;</text>
<polyline fill="none" stroke="black" points="184,-137.5 322,-137.5 "/>
<text text-anchor="start" x="192" y="-125.5" font-family="Helvetica,sans-Serif" font-size="10.00">&#45; tooLargeLOC</text>
<text text-anchor="start" x="192" y="-114.5" font-family="Helvetica,sans-Serif" font-size="10.00">&#45; numBins</text>
<polyline fill="none" stroke="black" points="184,-107.5 322,-107.5 "/>
<text text-anchor="start" x="192" y="-95.5" font-family="Helvetica,sans-Serif" font-size="10.00">+ putList()</text>
<text text-anchor="start" x="192" y="-84.5" font-family="Helvetica,sans-Serif" font-size="10.00">+ get()</text>
<text text-anchor="start" x="192" y="-73.5" font-family="Helvetica,sans-Serif" font-size="10.00">+ updateCacheState()</text>
<text text-anchor="start" x="192" y="-62.5" font-family="Helvetica,sans-Serif" font-size="10.00">+ regularCleanup()</text>
<text text-anchor="start" x="192" y="-51.5" font-family="Helvetica,sans-Serif" font-size="10.00">+ cleanAll()</text>
<text text-anchor="start" x="192" y="-40.5" font-family="Helvetica,sans-Serif" font-size="10.00">+ reset()</text>
<text text-anchor="start" x="192" y="-29.5" font-family="Helvetica,sans-Serif" font-size="10.00">+ reportStat()</text>
<text text-anchor="start" x="192" y="-18.5" font-family="Helvetica,sans-Serif" font-size="10.00">+ sizeToIdx()</text>
<text text-anchor="start" x="192" y="-7.5" font-family="Helvetica,sans-Serif" font-size="10.00">+ getNumBins()</text>
</g>
<!-- Node2 -->
<g id="node2" class="node"><title>Node2</title>
<g id="a_node2"><a xlink:href="classrml_1_1internal_1_1LargeObjectCacheImpl_1_1CacheBin.html" target="_top" xlink:title="{rml::internal::LargeObject\lCacheImpl\&lt; Props \&gt;::CacheBin\n|&#45; oldest\l&#45; lastCleanedAge\l&#45; ageThreshold\l&#45; usedSize\l&#45; cachedSize\l&#45; meanHitRange\l&#45; lastGet\l|+ init()\l+ putList()\l+ get()\l+ cleanToThreshold()\l+ releaseAllToBackend()\l+ updateUsedSize()\l+ decreaseThreshold()\l+ updateBinsSummary()\l+ getSize()\l+ getUsedSize()\land 11 more...\l&#45; ExecuteOperation()\l&#45; CacheBin()\l}">
<polygon fill="white" stroke="black" points="42.5,-215.5 42.5,-481.5 209.5,-481.5 209.5,-215.5 42.5,-215.5"/>
<text text-anchor="start" x="50.5" y="-469.5" font-family="Helvetica,sans-Serif" font-size="10.00">rml::internal::LargeObject</text>
<text text-anchor="middle" x="126" y="-458.5" font-family="Helvetica,sans-Serif" font-size="10.00">CacheImpl&lt; Props &gt;::CacheBin</text>
<polyline fill="none" stroke="black" points="42.5,-451.5 209.5,-451.5 "/>
<text text-anchor="start" x="50.5" y="-439.5" font-family="Helvetica,sans-Serif" font-size="10.00">&#45; oldest</text>
<text text-anchor="start" x="50.5" y="-428.5" font-family="Helvetica,sans-Serif" font-size="10.00">&#45; lastCleanedAge</text>
<text text-anchor="start" x="50.5" y="-417.5" font-family="Helvetica,sans-Serif" font-size="10.00">&#45; ageThreshold</text>
<text text-anchor="start" x="50.5" y="-406.5" font-family="Helvetica,sans-Serif" font-size="10.00">&#45; usedSize</text>
<text text-anchor="start" x="50.5" y="-395.5" font-family="Helvetica,sans-Serif" font-size="10.00">&#45; cachedSize</text>
<text text-anchor="start" x="50.5" y="-384.5" font-family="Helvetica,sans-Serif" font-size="10.00">&#45; meanHitRange</text>
<text text-anchor="start" x="50.5" y="-373.5" font-family="Helvetica,sans-Serif" font-size="10.00">&#45; lastGet</text>
<polyline fill="none" stroke="black" points="42.5,-366.5 209.5,-366.5 "/>
<text text-anchor="start" x="50.5" y="-354.5" font-family="Helvetica,sans-Serif" font-size="10.00">+ init()</text>
<text text-anchor="start" x="50.5" y="-343.5" font-family="Helvetica,sans-Serif" font-size="10.00">+ putList()</text>
<text text-anchor="start" x="50.5" y="-332.5" font-family="Helvetica,sans-Serif" font-size="10.00">+ get()</text>
<text text-anchor="start" x="50.5" y="-321.5" font-family="Helvetica,sans-Serif" font-size="10.00">+ cleanToThreshold()</text>
<text text-anchor="start" x="50.5" y="-310.5" font-family="Helvetica,sans-Serif" font-size="10.00">+ releaseAllToBackend()</text>
<text text-anchor="start" x="50.5" y="-299.5" font-family="Helvetica,sans-Serif" font-size="10.00">+ updateUsedSize()</text>
<text text-anchor="start" x="50.5" y="-288.5" font-family="Helvetica,sans-Serif" font-size="10.00">+ decreaseThreshold()</text>
<text text-anchor="start" x="50.5" y="-277.5" font-family="Helvetica,sans-Serif" font-size="10.00">+ updateBinsSummary()</text>
<text text-anchor="start" x="50.5" y="-266.5" font-family="Helvetica,sans-Serif" font-size="10.00">+ getSize()</text>
<text text-anchor="start" x="50.5" y="-255.5" font-family="Helvetica,sans-Serif" font-size="10.00">+ getUsedSize()</text>
<text text-anchor="start" x="50.5" y="-244.5" font-family="Helvetica,sans-Serif" font-size="10.00">and 11 more...</text>
<text text-anchor="start" x="50.5" y="-233.5" font-family="Helvetica,sans-Serif" font-size="10.00">&#45; ExecuteOperation()</text>
<text text-anchor="start" x="50.5" y="-222.5" font-family="Helvetica,sans-Serif" font-size="10.00">&#45; CacheBin()</text>
</a>
</g>
</g>
<!-- Node2&#45;&gt;Node1 -->
<g id="edge1" class="edge"><title>Node2&#45;&gt;Node1</title>
<path fill="none" stroke="#404040" d="M189.872,-215.481C195.925,-202.969 201.974,-190.467 207.798,-178.428"/>
<polygon fill="none" stroke="#404040" points="207.852,-178.319 206.864,-171.175 213.078,-167.516 214.065,-174.66 207.852,-178.319"/>
<text text-anchor="middle" x="216" y="-189" font-family="Helvetica,sans-Serif" font-size="10.00"> &#45;bin</text>
</g>
<!-- Node3 -->
<g id="node3" class="node"><title>Node3</title>
<g id="a_node3"><a xlink:href="structMallocAggregator.html" target="_top" xlink:title="{MallocAggregator\&lt; rml\l::internal::CacheBinOperation \&gt;\n||}">
<polygon fill="white" stroke="black" points="0,-551.5 0,-619.5 168,-619.5 168,-551.5 0,-551.5"/>
<text text-anchor="start" x="8" y="-607.5" font-family="Helvetica,sans-Serif" font-size="10.00">MallocAggregator&lt; rml</text>
<text text-anchor="middle" x="84" y="-596.5" font-family="Helvetica,sans-Serif" font-size="10.00">::internal::CacheBinOperation &gt;</text>
<polyline fill="none" stroke="black" points="0,-589.5 168,-589.5 "/>
<text text-anchor="middle" x="84" y="-577.5" font-family="Helvetica,sans-Serif" font-size="10.00"> </text>
<polyline fill="none" stroke="black" points="0,-570.5 168,-570.5 "/>
<text text-anchor="middle" x="84" y="-558.5" font-family="Helvetica,sans-Serif" font-size="10.00"> </text>
</a>
</g>
</g>
<!-- Node3&#45;&gt;Node2 -->
<g id="edge2" class="edge"><title>Node3&#45;&gt;Node2</title>
<path fill="none" stroke="#404040" d="M89.9285,-551.329C92.7712,-535.423 96.3928,-515.159 100.239,-493.638"/>
<polygon fill="none" stroke="#404040" points="100.284,-493.384 97.4025,-486.774 102.396,-481.571 105.278,-488.181 100.284,-493.384"/>
<text text-anchor="middle" x="129.5" y="-508.5" font-family="Helvetica,sans-Serif" font-size="10.00"> &#45;aggregator</text>
</g>
<!-- Node4 -->
<g id="node4" class="node"><title>Node4</title>
<g id="a_node4"><a xlink:href="structrml_1_1internal_1_1LargeMemoryBlock.html" target="_top" xlink:title="{rml::internal::LargeMemory\lBlock\n|+ age\l+ objectSize\l+ unalignedSize\l|}">
<polygon fill="white" stroke="red" points="186,-540.5 186,-630.5 332,-630.5 332,-540.5 186,-540.5"/>
<text text-anchor="start" x="194" y="-618.5" font-family="Helvetica,sans-Serif" font-size="10.00">rml::internal::LargeMemory</text>
<text text-anchor="middle" x="259" y="-607.5" font-family="Helvetica,sans-Serif" font-size="10.00">Block</text>
<polyline fill="none" stroke="red" points="186,-600.5 332,-600.5 "/>
<text text-anchor="start" x="194" y="-588.5" font-family="Helvetica,sans-Serif" font-size="10.00">+ age</text>
<text text-anchor="start" x="194" y="-577.5" font-family="Helvetica,sans-Serif" font-size="10.00">+ objectSize</text>
<text text-anchor="start" x="194" y="-566.5" font-family="Helvetica,sans-Serif" font-size="10.00">+ unalignedSize</text>
<polyline fill="none" stroke="red" points="186,-559.5 332,-559.5 "/>
<text text-anchor="middle" x="259" y="-547.5" font-family="Helvetica,sans-Serif" font-size="10.00"> </text>
</a>
</g>
</g>
<!-- Node4&#45;&gt;Node2 -->
<g id="edge3" class="edge"><title>Node4&#45;&gt;Node2</title>
<path fill="none" stroke="#404040" d="M233.984,-540.298C226.007,-526.205 216.705,-509.769 206.969,-492.565"/>
<polygon fill="none" stroke="#404040" points="206.768,-492.211 200.332,-488.959 200.858,-481.767 207.294,-485.019 206.768,-492.211"/>
<text text-anchor="middle" x="236.5" y="-514" font-family="Helvetica,sans-Serif" font-size="10.00"> &#45;last</text>
<text text-anchor="middle" x="236.5" y="-503" font-family="Helvetica,sans-Serif" font-size="10.00">&#45;first</text>
</g>
<!-- Node4&#45;&gt;Node4 -->
<g id="edge4" class="edge"><title>Node4&#45;&gt;Node4</title>
<path fill="none" stroke="#404040" d="M332.19,-598.02C342.831,-596.033 350,-591.859 350,-585.5 350,-581.923 347.732,-579.037 343.853,-576.844"/>
<polygon fill="none" stroke="#404040" points="343.582,-576.754 336.628,-578.664 332.19,-572.98 339.144,-571.07 343.582,-576.754"/>
<text text-anchor="middle" x="369.5" y="-599.5" font-family="Helvetica,sans-Serif" font-size="10.00"> +gPrev</text>
<text text-anchor="middle" x="369.5" y="-588.5" font-family="Helvetica,sans-Serif" font-size="10.00">+gNext</text>
<text text-anchor="middle" x="369.5" y="-577.5" font-family="Helvetica,sans-Serif" font-size="10.00">+prev</text>
<text text-anchor="middle" x="369.5" y="-566.5" font-family="Helvetica,sans-Serif" font-size="10.00">+next</text>
</g>
<!-- Node5 -->
<g id="node5" class="node"><title>Node5</title>
<g id="a_node5"><a xlink:href="classrml_1_1internal_1_1BitMaskMax.html" target="_top" xlink:title="{rml::internal::BitMaskMax\l\&lt; numBins \&gt;\n||+ set()\l+ getMaxTrue()\l}">
<polygon fill="white" stroke="red" points="227.5,-309 227.5,-388 364.5,-388 364.5,-309 227.5,-309"/>
<text text-anchor="start" x="235.5" y="-376" font-family="Helvetica,sans-Serif" font-size="10.00">rml::internal::BitMaskMax</text>
<text text-anchor="middle" x="296" y="-365" font-family="Helvetica,sans-Serif" font-size="10.00">&lt; numBins &gt;</text>
<polyline fill="none" stroke="red" points="227.5,-358 364.5,-358 "/>
<text text-anchor="middle" x="296" y="-346" font-family="Helvetica,sans-Serif" font-size="10.00"> </text>
<polyline fill="none" stroke="red" points="227.5,-339 364.5,-339 "/>
<text text-anchor="start" x="235.5" y="-327" font-family="Helvetica,sans-Serif" font-size="10.00">+ set()</text>
<text text-anchor="start" x="235.5" y="-316" font-family="Helvetica,sans-Serif" font-size="10.00">+ getMaxTrue()</text>
</a>
</g>
</g>
<!-- Node5&#45;&gt;Node1 -->
<g id="edge5" class="edge"><title>Node5&#45;&gt;Node1</title>
<path fill="none" stroke="#404040" d="M289.655,-308.767C284.102,-274.867 275.804,-224.212 268.507,-179.667"/>
<polygon fill="none" stroke="#404040" points="268.468,-179.429 263.551,-174.154 266.528,-167.587 271.446,-172.861 268.468,-179.429"/>
<text text-anchor="middle" x="292" y="-189" font-family="Helvetica,sans-Serif" font-size="10.00"> &#45;bitMask</text>
</g>
</g>
</svg>
        <g id="navigator" transform="translate(0 0)" fill="#404254">
                <rect fill="#f2f5e9" fill-opacity="0.5" stroke="#606060" stroke-width=".5" x="0" y="0" width="60" height="60"/>
                <use id="zoomplus" xlink:href="#zoomPlus" x="17" y="9" onmousedown="handleZoom(evt,'in')"/>
                <use id="zoomminus" xlink:href="#zoomMin" x="42" y="9" onmousedown="handleZoom(evt,'out')"/>
                <use id="reset" xlink:href="#resetDef" x="30" y="36" onmousedown="handleReset()"/>
                <g id="arrowUp" xlink:href="#dirArrow" transform="translate(30 24)" onmousedown="handlePan(0,-1)">
                  <use xlink:href="#rim" fill="#404040">
                        <set attributeName="fill" to="#808080" begin="arrowUp.mouseover" end="arrowUp.mouseout"/>
                  </use>
                  <path fill="none" stroke="white" stroke-width="1.5" d="M0,-3.0v7 M-2.5,-0.5L0,-3.0L2.5,-0.5"/>
                </g>
                <g id="arrowRight" xlink:href="#dirArrow" transform="rotate(90) translate(36 -43)" onmousedown="handlePan(1,0)">
                  <use xlink:href="#rim" fill="#404040">
                        <set attributeName="fill" to="#808080" begin="arrowRight.mouseover" end="arrowRight.mouseout"/>
                  </use>
                  <path fill="none" stroke="white" stroke-width="1.5" d="M0,-3.0v7 M-2.5,-0.5L0,-3.0L2.5,-0.5"/>
                </g>
                <g id="arrowDown" xlink:href="#dirArrow" transform="rotate(180) translate(-30 -48)" onmousedown="handlePan(0,1)">
                  <use xlink:href="#rim" fill="#404040">
                        <set attributeName="fill" to="#808080" begin="arrowDown.mouseover" end="arrowDown.mouseout"/>
                  </use>
                  <path fill="none" stroke="white" stroke-width="1.5" d="M0,-3.0v7 M-2.5,-0.5L0,-3.0L2.5,-0.5"/>
                </g>
                <g id="arrowLeft" xlink:href="#dirArrow" transform="rotate(270) translate(-36 17)" onmousedown="handlePan(-1,0)">
                  <use xlink:href="#rim" fill="#404040">
                        <set attributeName="fill" to="#808080" begin="arrowLeft.mouseover" end="arrowLeft.mouseout"/>
                  </use>
                  <path fill="none" stroke="white" stroke-width="1.5" d="M0,-3.0v7 M-2.5,-0.5L0,-3.0L2.5,-0.5"/>
                </g>
        </g>
        <svg viewBox="0 0 15 15" width="100%" height="30px" preserveAspectRatio="xMaxYMin meet">
         <g id="arrow_out" transform="scale(0.3 0.3)">
          <a xlink:href="classrml_1_1internal_1_1LargeObjectCacheImpl__coll__graph_org.svg" target="_base">
           <rect id="button" ry="5" rx="5" y="6" x="6" height="38" width="38"
                fill="#f2f5e9" fill-opacity="0.5" stroke="#606060" stroke-width="1.0"/>
           <path id="arrow"
             d="M 11.500037,31.436501 C 11.940474,20.09759 22.043105,11.32322 32.158766,21.979434 L 37.068811,17.246167 C 37.068811,17.246167 37.088388,32 37.088388,32 L 22.160133,31.978069 C 22.160133,31.978069 26.997745,27.140456 26.997745,27.140456 C 18.528582,18.264221 13.291696,25.230495 11.500037,31.436501 z"
             style="fill:#404040;"/>
          </a>
         </g>
        </svg>
</svg>
