<?xml version="1.0" encoding="UTF-8" standalone="no"?>
<!DOCTYPE svg PUBLIC "-//W3C//DTD SVG 1.1//EN"
 "http://www.w3.org/Graphics/SVG/1.1/DTD/svg11.dtd">
<!-- Generated by graphviz version 2.38.0 (20140413.2041)
 -->
<!-- Title: el::base::Writer Pages: 1 -->
<!--zoomable 826 -->
<svg id="main" version="1.1" xmlns="http://www.w3.org/2000/svg" xmlns:xlink="http://www.w3.org/1999/xlink" xml:space="preserve" onload="init(evt)">
<style type="text/css"><![CDATA[
.edge:hover path { stroke: red; }
.edge:hover polygon { stroke: red; fill: red; }
]]></style>
<script type="text/javascript"><![CDATA[
var edges = document.getElementsByTagName('g');
if (edges && edges.length) {
  for (var i=0;i<edges.length;i++) {
    if (edges[i].id.substr(0,4)=='edge') {
      edges[i].setAttribute('class','edge');
    }
  }
}
]]></script>
        <defs>
                <circle id="rim" cx="0" cy="0" r="7"/>
                <circle id="rim2" cx="0" cy="0" r="3.5"/>
                <g id="zoomPlus">
                        <use xlink:href="#rim" fill="#404040">
                                <set attributeName="fill" to="#808080" begin="zoomplus.mouseover" end="zoomplus.mouseout"/>
                        </use>
                        <path d="M-4,0h8M0,-4v8" fill="none" stroke="white" stroke-width="1.5" pointer-events="none"/>
                </g>
                <g id="zoomMin">
                        <use xlink:href="#rim" fill="#404040">
                                <set attributeName="fill" to="#808080" begin="zoomminus.mouseover" end="zoomminus.mouseout"/>
                        </use>
                        <path d="M-4,0h8" fill="none" stroke="white" stroke-width="1.5" pointer-events="none"/>
                </g>
                <g id="dirArrow">
                        <path fill="none" stroke="white" stroke-width="1.5" d="M0,-3.0v7 M-2.5,-0.5L0,-3.0L2.5,-0.5"/>
                </g>
               <g id="resetDef">
                       <use xlink:href="#rim2" fill="#404040">
                               <set attributeName="fill" to="#808080" begin="reset.mouseover" end="reset.mouseout"/>
                       </use>
               </g>
        </defs>

<script type="text/javascript">
var viewWidth = 486;
var viewHeight = 826;
var sectionId = 'dynsection-1';
</script>
<script xlink:href="svgpan.js"/>
<svg id="graph" class="graph">
<g id="viewport">
<title>el::base::Writer</title>
<polygon fill="white" stroke="none" points="-4,4 -4,-822 481.5,-822 481.5,4 -4,4"/>
<!-- Node1 -->
<g id="node1" class="node"><title>Node1</title>
<polygon fill="#bfbfbf" stroke="black" points="121.5,-0.5 121.5,-244.5 236.5,-244.5 236.5,-0.5 121.5,-0.5"/>
<text text-anchor="middle" x="179" y="-232.5" font-family="Helvetica,sans-Serif" font-size="10.00">el::base::Writer</text>
<polyline fill="none" stroke="black" points="121.5,-225.5 236.5,-225.5 "/>
<text text-anchor="start" x="129.5" y="-213.5" font-family="Helvetica,sans-Serif" font-size="10.00"># m_level</text>
<text text-anchor="start" x="129.5" y="-202.5" font-family="Helvetica,sans-Serif" font-size="10.00"># m_file</text>
<text text-anchor="start" x="129.5" y="-191.5" font-family="Helvetica,sans-Serif" font-size="10.00"># m_line</text>
<text text-anchor="start" x="129.5" y="-180.5" font-family="Helvetica,sans-Serif" font-size="10.00"># m_func</text>
<text text-anchor="start" x="129.5" y="-169.5" font-family="Helvetica,sans-Serif" font-size="10.00"># m_verboseLevel</text>
<text text-anchor="start" x="129.5" y="-158.5" font-family="Helvetica,sans-Serif" font-size="10.00"># m_proceed</text>
<text text-anchor="start" x="129.5" y="-147.5" font-family="Helvetica,sans-Serif" font-size="10.00"># m_dispatchAction</text>
<text text-anchor="start" x="129.5" y="-136.5" font-family="Helvetica,sans-Serif" font-size="10.00"># m_loggerIds</text>
<polyline fill="none" stroke="black" points="121.5,-129.5 236.5,-129.5 "/>
<text text-anchor="start" x="129.5" y="-117.5" font-family="Helvetica,sans-Serif" font-size="10.00">+ Writer()</text>
<text text-anchor="start" x="129.5" y="-106.5" font-family="Helvetica,sans-Serif" font-size="10.00">+ Writer()</text>
<text text-anchor="start" x="129.5" y="-95.5" font-family="Helvetica,sans-Serif" font-size="10.00">+ ~Writer()</text>
<text text-anchor="start" x="129.5" y="-84.5" font-family="Helvetica,sans-Serif" font-size="10.00">+ operator&lt;&lt;()</text>
<text text-anchor="start" x="129.5" y="-73.5" font-family="Helvetica,sans-Serif" font-size="10.00">+ operator&lt;&lt;()</text>
<text text-anchor="start" x="129.5" y="-62.5" font-family="Helvetica,sans-Serif" font-size="10.00">+ operator bool()</text>
<text text-anchor="start" x="129.5" y="-51.5" font-family="Helvetica,sans-Serif" font-size="10.00">+ construct()</text>
<text text-anchor="start" x="129.5" y="-40.5" font-family="Helvetica,sans-Serif" font-size="10.00">+ construct()</text>
<text text-anchor="start" x="129.5" y="-29.5" font-family="Helvetica,sans-Serif" font-size="10.00"># initializeLogger()</text>
<text text-anchor="start" x="129.5" y="-18.5" font-family="Helvetica,sans-Serif" font-size="10.00"># processDispatch()</text>
<text text-anchor="start" x="129.5" y="-7.5" font-family="Helvetica,sans-Serif" font-size="10.00"># triggerDispatch()</text>
</g>
<!-- Node2 -->
<g id="node2" class="node"><title>Node2</title>
<g id="a_node2"><a xlink:href="classel_1_1base_1_1NoCopy.html" target="_top" xlink:title="Internal helper class that prevent copy constructor for class. ">
<polygon fill="white" stroke="black" points="0,-347.5 0,-426.5 98,-426.5 98,-347.5 0,-347.5"/>
<text text-anchor="middle" x="49" y="-414.5" font-family="Helvetica,sans-Serif" font-size="10.00">el::base::NoCopy</text>
<polyline fill="none" stroke="black" points="0,-407.5 98,-407.5 "/>
<text text-anchor="middle" x="49" y="-395.5" font-family="Helvetica,sans-Serif" font-size="10.00"> </text>
<polyline fill="none" stroke="black" points="0,-388.5 98,-388.5 "/>
<text text-anchor="start" x="8" y="-376.5" font-family="Helvetica,sans-Serif" font-size="10.00"># NoCopy()</text>
<text text-anchor="start" x="8" y="-365.5" font-family="Helvetica,sans-Serif" font-size="10.00">&#45; NoCopy()</text>
<text text-anchor="start" x="8" y="-354.5" font-family="Helvetica,sans-Serif" font-size="10.00">&#45; operator=()</text>
</a>
</g>
</g>
<!-- Node2&#45;&gt;Node1 -->
<g id="edge1" class="edge"><title>Node2&#45;&gt;Node1</title>
<path fill="none" stroke="#8b1a1a" d="M72.6606,-338.224C86.361,-310.559 104.25,-274.438 121.436,-239.735"/>
<polygon fill="none" stroke="#8b1a1a" points="69.4835,-336.753 68.1819,-347.267 75.7564,-339.859 69.4835,-336.753"/>
</g>
<!-- Node3 -->
<g id="node3" class="node"><title>Node3</title>
<g id="a_node3"><a xlink:href="classel_1_1base_1_1MessageBuilder.html" target="_top" xlink:title="{el::base::MessageBuilder\n|&#45; m_containerLogSeperator\l|+ MessageBuilder()\l+ initialize()\l+ operator\&lt;\&lt;()\l+ operator\&lt;\&lt;()\l+ operator\&lt;\&lt;()\l+ operator\&lt;\&lt;()\l&#45; writeIterator()\l}">
<polygon fill="white" stroke="black" points="209.5,-325.5 209.5,-448.5 358.5,-448.5 358.5,-325.5 209.5,-325.5"/>
<text text-anchor="middle" x="284" y="-436.5" font-family="Helvetica,sans-Serif" font-size="10.00">el::base::MessageBuilder</text>
<polyline fill="none" stroke="black" points="209.5,-429.5 358.5,-429.5 "/>
<text text-anchor="start" x="217.5" y="-417.5" font-family="Helvetica,sans-Serif" font-size="10.00">&#45; m_containerLogSeperator</text>
<polyline fill="none" stroke="black" points="209.5,-410.5 358.5,-410.5 "/>
<text text-anchor="start" x="217.5" y="-398.5" font-family="Helvetica,sans-Serif" font-size="10.00">+ MessageBuilder()</text>
<text text-anchor="start" x="217.5" y="-387.5" font-family="Helvetica,sans-Serif" font-size="10.00">+ initialize()</text>
<text text-anchor="start" x="217.5" y="-376.5" font-family="Helvetica,sans-Serif" font-size="10.00">+ operator&lt;&lt;()</text>
<text text-anchor="start" x="217.5" y="-365.5" font-family="Helvetica,sans-Serif" font-size="10.00">+ operator&lt;&lt;()</text>
<text text-anchor="start" x="217.5" y="-354.5" font-family="Helvetica,sans-Serif" font-size="10.00">+ operator&lt;&lt;()</text>
<text text-anchor="start" x="217.5" y="-343.5" font-family="Helvetica,sans-Serif" font-size="10.00">+ operator&lt;&lt;()</text>
<text text-anchor="start" x="217.5" y="-332.5" font-family="Helvetica,sans-Serif" font-size="10.00">&#45; writeIterator()</text>
</a>
</g>
</g>
<!-- Node3&#45;&gt;Node1 -->
<g id="edge2" class="edge"><title>Node3&#45;&gt;Node1</title>
<path fill="none" stroke="#404040" d="M259.779,-325.448C251.402,-304.505 241.656,-280.139 231.891,-255.729"/>
<polygon fill="none" stroke="#404040" points="231.865,-255.663 225.923,-251.578 227.409,-244.522 233.351,-248.607 231.865,-255.663"/>
<text text-anchor="middle" x="290" y="-266" font-family="Helvetica,sans-Serif" font-size="10.00"> #m_messageBuilder</text>
</g>
<!-- Node4 -->
<g id="node4" class="node"><title>Node4</title>
<g id="a_node4"><a xlink:href="classel_1_1Logger.html" target="_top" xlink:title="Represents a logger holding ID and configurations we need to write logs. ">
<polygon fill="white" stroke="red" points="205.5,-529.5 205.5,-817.5 362.5,-817.5 362.5,-529.5 205.5,-529.5"/>
<text text-anchor="middle" x="284" y="-805.5" font-family="Helvetica,sans-Serif" font-size="10.00">el::Logger</text>
<polyline fill="none" stroke="red" points="205.5,-798.5 362.5,-798.5 "/>
<text text-anchor="start" x="213.5" y="-786.5" font-family="Helvetica,sans-Serif" font-size="10.00">&#45; m_id</text>
<text text-anchor="start" x="213.5" y="-775.5" font-family="Helvetica,sans-Serif" font-size="10.00">&#45; m_stream</text>
<text text-anchor="start" x="213.5" y="-764.5" font-family="Helvetica,sans-Serif" font-size="10.00">&#45; m_parentApplicationName</text>
<text text-anchor="start" x="213.5" y="-753.5" font-family="Helvetica,sans-Serif" font-size="10.00">&#45; m_isConfigured</text>
<text text-anchor="start" x="213.5" y="-742.5" font-family="Helvetica,sans-Serif" font-size="10.00">&#45; m_unflushedCount</text>
<text text-anchor="start" x="213.5" y="-731.5" font-family="Helvetica,sans-Serif" font-size="10.00">&#45; m_logStreamsReference</text>
<text text-anchor="start" x="213.5" y="-720.5" font-family="Helvetica,sans-Serif" font-size="10.00">&#45; m_logBuilder</text>
<polyline fill="none" stroke="red" points="205.5,-713.5 362.5,-713.5 "/>
<text text-anchor="start" x="213.5" y="-701.5" font-family="Helvetica,sans-Serif" font-size="10.00">+ Logger()</text>
<text text-anchor="start" x="213.5" y="-690.5" font-family="Helvetica,sans-Serif" font-size="10.00">+ Logger()</text>
<text text-anchor="start" x="213.5" y="-679.5" font-family="Helvetica,sans-Serif" font-size="10.00">+ Logger()</text>
<text text-anchor="start" x="213.5" y="-668.5" font-family="Helvetica,sans-Serif" font-size="10.00">+ operator=()</text>
<text text-anchor="start" x="213.5" y="-657.5" font-family="Helvetica,sans-Serif" font-size="10.00">+ ~Logger()</text>
<text text-anchor="start" x="213.5" y="-646.5" font-family="Helvetica,sans-Serif" font-size="10.00">+ log()</text>
<text text-anchor="start" x="213.5" y="-635.5" font-family="Helvetica,sans-Serif" font-size="10.00">+ configure()</text>
<text text-anchor="start" x="213.5" y="-624.5" font-family="Helvetica,sans-Serif" font-size="10.00">+ reconfigure()</text>
<text text-anchor="start" x="213.5" y="-613.5" font-family="Helvetica,sans-Serif" font-size="10.00">+ id()</text>
<text text-anchor="start" x="213.5" y="-602.5" font-family="Helvetica,sans-Serif" font-size="10.00">+ parentApplicationName()</text>
<text text-anchor="start" x="213.5" y="-591.5" font-family="Helvetica,sans-Serif" font-size="10.00">and 9 more...</text>
<text text-anchor="start" x="213.5" y="-580.5" font-family="Helvetica,sans-Serif" font-size="10.00">+ isValidId()</text>
<text text-anchor="start" x="213.5" y="-569.5" font-family="Helvetica,sans-Serif" font-size="10.00">&#45; Logger()</text>
<text text-anchor="start" x="213.5" y="-558.5" font-family="Helvetica,sans-Serif" font-size="10.00">&#45; initUnflushedCount()</text>
<text text-anchor="start" x="213.5" y="-547.5" font-family="Helvetica,sans-Serif" font-size="10.00">&#45; stream()</text>
<text text-anchor="start" x="213.5" y="-536.5" font-family="Helvetica,sans-Serif" font-size="10.00">&#45; resolveLoggerFormatSpec()</text>
</a>
</g>
</g>
<!-- Node4&#45;&gt;Node1 -->
<g id="edge6" class="edge"><title>Node4&#45;&gt;Node1</title>
<path fill="none" stroke="#404040" d="M205.467,-590.495C180.466,-559.068 155.953,-521.272 143,-482 119.2,-409.839 126.092,-325.442 139.907,-256.668"/>
<polygon fill="none" stroke="#404040" points="139.913,-256.64 137.226,-249.949 142.37,-244.895 145.057,-251.587 139.913,-256.64"/>
<text text-anchor="middle" x="171.5" y="-384.5" font-family="Helvetica,sans-Serif" font-size="10.00"> #m_logger</text>
</g>
<!-- Node4&#45;&gt;Node3 -->
<g id="edge3" class="edge"><title>Node4&#45;&gt;Node3</title>
<path fill="none" stroke="#404040" d="M284,-529.417C284,-505.589 284,-481.792 284,-460.701"/>
<polygon fill="none" stroke="#404040" points="284,-460.615 280,-454.615 284,-448.615 288,-454.615 284,-460.615"/>
<text text-anchor="middle" x="310" y="-503" font-family="Helvetica,sans-Serif" font-size="10.00"> &#45;m_logger</text>
</g>
<!-- Node5 -->
<g id="node5" class="node"><title>Node5</title>
<g id="a_node5"><a xlink:href="classel_1_1LogMessage.html" target="_top" xlink:title="{el::LogMessage\n|&#45; m_level\l&#45; m_file\l&#45; m_line\l&#45; m_func\l&#45; m_verboseLevel\l&#45; m_message\l|+ LogMessage()\l+ level()\l+ file()\l+ line()\l+ func()\l+ verboseLevel()\l+ logger()\l+ message()\l}">
<polygon fill="white" stroke="black" points="376.5,-292.5 376.5,-481.5 477.5,-481.5 477.5,-292.5 376.5,-292.5"/>
<text text-anchor="middle" x="427" y="-469.5" font-family="Helvetica,sans-Serif" font-size="10.00">el::LogMessage</text>
<polyline fill="none" stroke="black" points="376.5,-462.5 477.5,-462.5 "/>
<text text-anchor="start" x="384.5" y="-450.5" font-family="Helvetica,sans-Serif" font-size="10.00">&#45; m_level</text>
<text text-anchor="start" x="384.5" y="-439.5" font-family="Helvetica,sans-Serif" font-size="10.00">&#45; m_file</text>
<text text-anchor="start" x="384.5" y="-428.5" font-family="Helvetica,sans-Serif" font-size="10.00">&#45; m_line</text>
<text text-anchor="start" x="384.5" y="-417.5" font-family="Helvetica,sans-Serif" font-size="10.00">&#45; m_func</text>
<text text-anchor="start" x="384.5" y="-406.5" font-family="Helvetica,sans-Serif" font-size="10.00">&#45; m_verboseLevel</text>
<text text-anchor="start" x="384.5" y="-395.5" font-family="Helvetica,sans-Serif" font-size="10.00">&#45; m_message</text>
<polyline fill="none" stroke="black" points="376.5,-388.5 477.5,-388.5 "/>
<text text-anchor="start" x="384.5" y="-376.5" font-family="Helvetica,sans-Serif" font-size="10.00">+ LogMessage()</text>
<text text-anchor="start" x="384.5" y="-365.5" font-family="Helvetica,sans-Serif" font-size="10.00">+ level()</text>
<text text-anchor="start" x="384.5" y="-354.5" font-family="Helvetica,sans-Serif" font-size="10.00">+ file()</text>
<text text-anchor="start" x="384.5" y="-343.5" font-family="Helvetica,sans-Serif" font-size="10.00">+ line()</text>
<text text-anchor="start" x="384.5" y="-332.5" font-family="Helvetica,sans-Serif" font-size="10.00">+ func()</text>
<text text-anchor="start" x="384.5" y="-321.5" font-family="Helvetica,sans-Serif" font-size="10.00">+ verboseLevel()</text>
<text text-anchor="start" x="384.5" y="-310.5" font-family="Helvetica,sans-Serif" font-size="10.00">+ logger()</text>
<text text-anchor="start" x="384.5" y="-299.5" font-family="Helvetica,sans-Serif" font-size="10.00">+ message()</text>
</a>
</g>
</g>
<!-- Node4&#45;&gt;Node5 -->
<g id="edge5" class="edge"><title>Node4&#45;&gt;Node5</title>
<path fill="none" stroke="#404040" d="M355.919,-529.417C362.149,-517.021 368.375,-504.635 374.408,-492.633"/>
<polygon fill="none" stroke="#404040" points="374.499,-492.452 373.619,-485.295 379.888,-481.73 380.767,-488.888 374.499,-492.452"/>
<text text-anchor="middle" x="395" y="-503" font-family="Helvetica,sans-Serif" font-size="10.00"> &#45;m_logger</text>
</g>
<!-- Node5&#45;&gt;Node1 -->
<g id="edge4" class="edge"><title>Node5&#45;&gt;Node1</title>
<path fill="none" stroke="#404040" d="M376.419,-306.044C373.26,-301.273 370.104,-296.562 367,-292 358.049,-278.843 356.857,-274.635 346,-263 315.753,-230.585 278.141,-198.572 246.274,-173.406"/>
<polygon fill="none" stroke="#404040" points="246.034,-173.218 238.844,-172.67 236.583,-165.823 243.774,-166.37 246.034,-173.218"/>
<text text-anchor="middle" x="380" y="-266" font-family="Helvetica,sans-Serif" font-size="10.00"> #m_msg</text>
</g>
</g>
</svg>
        <g id="navigator" transform="translate(0 0)" fill="#404254">
                <rect fill="#f2f5e9" fill-opacity="0.5" stroke="#606060" stroke-width=".5" x="0" y="0" width="60" height="60"/>
                <use id="zoomplus" xlink:href="#zoomPlus" x="17" y="9" onmousedown="handleZoom(evt,'in')"/>
                <use id="zoomminus" xlink:href="#zoomMin" x="42" y="9" onmousedown="handleZoom(evt,'out')"/>
                <use id="reset" xlink:href="#resetDef" x="30" y="36" onmousedown="handleReset()"/>
                <g id="arrowUp" xlink:href="#dirArrow" transform="translate(30 24)" onmousedown="handlePan(0,-1)">
                  <use xlink:href="#rim" fill="#404040">
                        <set attributeName="fill" to="#808080" begin="arrowUp.mouseover" end="arrowUp.mouseout"/>
                  </use>
                  <path fill="none" stroke="white" stroke-width="1.5" d="M0,-3.0v7 M-2.5,-0.5L0,-3.0L2.5,-0.5"/>
                </g>
                <g id="arrowRight" xlink:href="#dirArrow" transform="rotate(90) translate(36 -43)" onmousedown="handlePan(1,0)">
                  <use xlink:href="#rim" fill="#404040">
                        <set attributeName="fill" to="#808080" begin="arrowRight.mouseover" end="arrowRight.mouseout"/>
                  </use>
                  <path fill="none" stroke="white" stroke-width="1.5" d="M0,-3.0v7 M-2.5,-0.5L0,-3.0L2.5,-0.5"/>
                </g>
                <g id="arrowDown" xlink:href="#dirArrow" transform="rotate(180) translate(-30 -48)" onmousedown="handlePan(0,1)">
                  <use xlink:href="#rim" fill="#404040">
                        <set attributeName="fill" to="#808080" begin="arrowDown.mouseover" end="arrowDown.mouseout"/>
                  </use>
                  <path fill="none" stroke="white" stroke-width="1.5" d="M0,-3.0v7 M-2.5,-0.5L0,-3.0L2.5,-0.5"/>
                </g>
                <g id="arrowLeft" xlink:href="#dirArrow" transform="rotate(270) translate(-36 17)" onmousedown="handlePan(-1,0)">
                  <use xlink:href="#rim" fill="#404040">
                        <set attributeName="fill" to="#808080" begin="arrowLeft.mouseover" end="arrowLeft.mouseout"/>
                  </use>
                  <path fill="none" stroke="white" stroke-width="1.5" d="M0,-3.0v7 M-2.5,-0.5L0,-3.0L2.5,-0.5"/>
                </g>
        </g>
        <svg viewBox="0 0 15 15" width="100%" height="30px" preserveAspectRatio="xMaxYMin meet">
         <g id="arrow_out" transform="scale(0.3 0.3)">
          <a xlink:href="classel_1_1base_1_1Writer__coll__graph_org.svg" target="_base">
           <rect id="button" ry="5" rx="5" y="6" x="6" height="38" width="38"
                fill="#f2f5e9" fill-opacity="0.5" stroke="#606060" stroke-width="1.0"/>
           <path id="arrow"
             d="M 11.500037,31.436501 C 11.940474,20.09759 22.043105,11.32322 32.158766,21.979434 L 37.068811,17.246167 C 37.068811,17.246167 37.088388,32 37.088388,32 L 22.160133,31.978069 C 22.160133,31.978069 26.997745,27.140456 26.997745,27.140456 C 18.528582,18.264221 13.291696,25.230495 11.500037,31.436501 z"
             style="fill:#404040;"/>
          </a>
         </g>
        </svg>
</svg>
