<?xml version="1.0" encoding="UTF-8" standalone="no"?>
<!DOCTYPE svg PUBLIC "-//W3C//DTD SVG 1.1//EN"
 "http://www.w3.org/Graphics/SVG/1.1/DTD/svg11.dtd">
<!-- Generated by graphviz version 2.38.0 (20140413.2041)
 -->
<!-- Title: internal::multifunction_body_leaf&lt; Input, OutputSet, B &gt; Pages: 1 -->
<svg width="190pt" height="342pt"
 viewBox="0.00 0.00 190.00 342.00" xmlns="http://www.w3.org/2000/svg" xmlns:xlink="http://www.w3.org/1999/xlink">
<g id="graph0" class="graph" transform="scale(1 1) rotate(0) translate(4 338)">
<title>internal::multifunction_body_leaf&lt; Input, OutputSet, B &gt;</title>
<polygon fill="white" stroke="none" points="-4,4 -4,-338 186,-338 186,4 -4,4"/>
<!-- Node1 -->
<g id="node1" class="node"><title>Node1</title>
<polygon fill="#bfbfbf" stroke="black" points="0,-0.5 0,-101.5 182,-101.5 182,-0.5 0,-0.5"/>
<text text-anchor="start" x="8" y="-89.5" font-family="Helvetica,sans-Serif" font-size="10.00">internal::multifunction</text>
<text text-anchor="middle" x="91" y="-78.5" font-family="Helvetica,sans-Serif" font-size="10.00">_body_leaf&lt; Input, OutputSet, B &gt;</text>
<polyline fill="none" stroke="black" points="0,-71.5 182,-71.5 "/>
<text text-anchor="start" x="8" y="-59.5" font-family="Helvetica,sans-Serif" font-size="10.00">&#45; body</text>
<polyline fill="none" stroke="black" points="0,-52.5 182,-52.5 "/>
<text text-anchor="start" x="8" y="-40.5" font-family="Helvetica,sans-Serif" font-size="10.00">+ multifunction_body_leaf()</text>
<text text-anchor="start" x="8" y="-29.5" font-family="Helvetica,sans-Serif" font-size="10.00">+ operator()()</text>
<text text-anchor="start" x="8" y="-18.5" font-family="Helvetica,sans-Serif" font-size="10.00">+ get_body_ptr()</text>
<text text-anchor="start" x="8" y="-7.5" font-family="Helvetica,sans-Serif" font-size="10.00">+ clone()</text>
</g>
<!-- Node2 -->
<g id="node2" class="node"><title>Node2</title>
<g id="a_node2"><a xlink:href="classinternal_1_1multifunction__body.html" target="_top" xlink:title="function_body that takes an Input and a set of output ports ">
<polygon fill="white" stroke="black" points="17.5,-138.5 17.5,-239.5 164.5,-239.5 164.5,-138.5 17.5,-138.5"/>
<text text-anchor="start" x="25.5" y="-227.5" font-family="Helvetica,sans-Serif" font-size="10.00">internal::multifunction</text>
<text text-anchor="middle" x="91" y="-216.5" font-family="Helvetica,sans-Serif" font-size="10.00">_body&lt; Input, OutputSet &gt;</text>
<polyline fill="none" stroke="black" points="17.5,-209.5 164.5,-209.5 "/>
<text text-anchor="middle" x="91" y="-197.5" font-family="Helvetica,sans-Serif" font-size="10.00"> </text>
<polyline fill="none" stroke="black" points="17.5,-190.5 164.5,-190.5 "/>
<text text-anchor="start" x="25.5" y="-178.5" font-family="Helvetica,sans-Serif" font-size="10.00">+ ~multifunction_body()</text>
<text text-anchor="start" x="25.5" y="-167.5" font-family="Helvetica,sans-Serif" font-size="10.00">+ operator()()</text>
<text text-anchor="start" x="25.5" y="-156.5" font-family="Helvetica,sans-Serif" font-size="10.00">+ clone()</text>
<text text-anchor="start" x="25.5" y="-145.5" font-family="Helvetica,sans-Serif" font-size="10.00">+ get_body_ptr()</text>
</a>
</g>
</g>
<!-- Node2&#45;&gt;Node1 -->
<g id="edge1" class="edge"><title>Node2&#45;&gt;Node1</title>
<path fill="none" stroke="midnightblue" d="M91,-128C91,-119.271 91,-110.363 91,-101.863"/>
<polygon fill="none" stroke="midnightblue" points="87.5001,-128.131 91,-138.131 94.5001,-128.131 87.5001,-128.131"/>
</g>
<!-- Node3 -->
<g id="node3" class="node"><title>Node3</title>
<polygon fill="white" stroke="#bfbfbf" points="58.5,-276.5 58.5,-333.5 123.5,-333.5 123.5,-276.5 58.5,-276.5"/>
<text text-anchor="middle" x="91" y="-321.5" font-family="Helvetica,sans-Serif" font-size="10.00">no_assign</text>
<polyline fill="none" stroke="#bfbfbf" points="58.5,-314.5 123.5,-314.5 "/>
<text text-anchor="middle" x="91" y="-302.5" font-family="Helvetica,sans-Serif" font-size="10.00"> </text>
<polyline fill="none" stroke="#bfbfbf" points="58.5,-295.5 123.5,-295.5 "/>
<text text-anchor="middle" x="91" y="-283.5" font-family="Helvetica,sans-Serif" font-size="10.00"> </text>
</g>
<!-- Node3&#45;&gt;Node2 -->
<g id="edge2" class="edge"><title>Node3&#45;&gt;Node2</title>
<path fill="none" stroke="#8b1a1a" d="M91,-266.354C91,-257.796 91,-248.578 91,-239.608"/>
<polygon fill="none" stroke="#8b1a1a" points="87.5001,-266.404 91,-276.404 94.5001,-266.404 87.5001,-266.404"/>
</g>
</g>
</svg>
