<?xml version="1.0" encoding="UTF-8" standalone="no"?>
<!DOCTYPE svg PUBLIC "-//W3C//DTD SVG 1.1//EN"
 "http://www.w3.org/Graphics/SVG/1.1/DTD/svg11.dtd">
<!-- Generated by graphviz version 2.38.0 (20140413.2041)
 -->
<!-- Title: tbb::task_group Pages: 1 -->
<svg width="148pt" height="397pt"
 viewBox="0.00 0.00 148.00 397.00" xmlns="http://www.w3.org/2000/svg" xmlns:xlink="http://www.w3.org/1999/xlink">
<g id="graph0" class="graph" transform="scale(1 1) rotate(0) translate(4 393)">
<title>tbb::task_group</title>
<polygon fill="white" stroke="none" points="-4,4 -4,-393 144,-393 144,4 -4,4"/>
<!-- Node1 -->
<g id="node1" class="node"><title>Node1</title>
<polygon fill="#bfbfbf" stroke="black" points="21,-0.5 21,-90.5 119,-90.5 119,-0.5 21,-0.5"/>
<text text-anchor="middle" x="70" y="-78.5" font-family="Helvetica,sans-Serif" font-size="10.00">tbb::task_group</text>
<polyline fill="none" stroke="black" points="21,-71.5 119,-71.5 "/>
<text text-anchor="middle" x="70" y="-59.5" font-family="Helvetica,sans-Serif" font-size="10.00"> </text>
<polyline fill="none" stroke="black" points="21,-52.5 119,-52.5 "/>
<text text-anchor="start" x="29" y="-40.5" font-family="Helvetica,sans-Serif" font-size="10.00">+ task_group()</text>
<text text-anchor="start" x="29" y="-29.5" font-family="Helvetica,sans-Serif" font-size="10.00">+ run()</text>
<text text-anchor="start" x="29" y="-18.5" font-family="Helvetica,sans-Serif" font-size="10.00">+ run_and_wait()</text>
<text text-anchor="start" x="29" y="-7.5" font-family="Helvetica,sans-Serif" font-size="10.00">+ run_and_wait()</text>
</g>
<!-- Node2 -->
<g id="node2" class="node"><title>Node2</title>
<g id="a_node2"><a xlink:href="classtbb_1_1internal_1_1task__group__base.html" target="_top" xlink:title="{tbb::internal::task\l_group_base\n|# my_root\l# my_context\l|+ task_group_base()\l+ ~task_group_base()\l+ run()\l+ wait()\l+ is_canceling()\l+ cancel()\l# owner()\l# internal_run_and_wait()\l# internal_run()\l}">
<polygon fill="white" stroke="black" points="0,-127.5 0,-294.5 140,-294.5 140,-127.5 0,-127.5"/>
<text text-anchor="start" x="8" y="-282.5" font-family="Helvetica,sans-Serif" font-size="10.00">tbb::internal::task</text>
<text text-anchor="middle" x="70" y="-271.5" font-family="Helvetica,sans-Serif" font-size="10.00">_group_base</text>
<polyline fill="none" stroke="black" points="0,-264.5 140,-264.5 "/>
<text text-anchor="start" x="8" y="-252.5" font-family="Helvetica,sans-Serif" font-size="10.00"># my_root</text>
<text text-anchor="start" x="8" y="-241.5" font-family="Helvetica,sans-Serif" font-size="10.00"># my_context</text>
<polyline fill="none" stroke="black" points="0,-234.5 140,-234.5 "/>
<text text-anchor="start" x="8" y="-222.5" font-family="Helvetica,sans-Serif" font-size="10.00">+ task_group_base()</text>
<text text-anchor="start" x="8" y="-211.5" font-family="Helvetica,sans-Serif" font-size="10.00">+ ~task_group_base()</text>
<text text-anchor="start" x="8" y="-200.5" font-family="Helvetica,sans-Serif" font-size="10.00">+ run()</text>
<text text-anchor="start" x="8" y="-189.5" font-family="Helvetica,sans-Serif" font-size="10.00">+ wait()</text>
<text text-anchor="start" x="8" y="-178.5" font-family="Helvetica,sans-Serif" font-size="10.00">+ is_canceling()</text>
<text text-anchor="start" x="8" y="-167.5" font-family="Helvetica,sans-Serif" font-size="10.00">+ cancel()</text>
<text text-anchor="start" x="8" y="-156.5" font-family="Helvetica,sans-Serif" font-size="10.00"># owner()</text>
<text text-anchor="start" x="8" y="-145.5" font-family="Helvetica,sans-Serif" font-size="10.00"># internal_run_and_wait()</text>
<text text-anchor="start" x="8" y="-134.5" font-family="Helvetica,sans-Serif" font-size="10.00"># internal_run()</text>
</a>
</g>
</g>
<!-- Node2&#45;&gt;Node1 -->
<g id="edge1" class="edge"><title>Node2&#45;&gt;Node1</title>
<path fill="none" stroke="midnightblue" d="M70,-117.223C70,-107.991 70,-98.9507 70,-90.5839"/>
<polygon fill="none" stroke="midnightblue" points="66.5001,-117.292 70,-127.292 73.5001,-117.292 66.5001,-117.292"/>
</g>
<!-- Node3 -->
<g id="node3" class="node"><title>Node3</title>
<polygon fill="white" stroke="#bfbfbf" points="42,-331.5 42,-388.5 98,-388.5 98,-331.5 42,-331.5"/>
<text text-anchor="middle" x="70" y="-376.5" font-family="Helvetica,sans-Serif" font-size="10.00">no_copy</text>
<polyline fill="none" stroke="#bfbfbf" points="42,-369.5 98,-369.5 "/>
<text text-anchor="middle" x="70" y="-357.5" font-family="Helvetica,sans-Serif" font-size="10.00"> </text>
<polyline fill="none" stroke="#bfbfbf" points="42,-350.5 98,-350.5 "/>
<text text-anchor="middle" x="70" y="-338.5" font-family="Helvetica,sans-Serif" font-size="10.00"> </text>
</g>
<!-- Node3&#45;&gt;Node2 -->
<g id="edge2" class="edge"><title>Node3&#45;&gt;Node2</title>
<path fill="none" stroke="#8b1a1a" d="M70,-321.35C70,-313.08 70,-304.008 70,-294.738"/>
<polygon fill="none" stroke="#8b1a1a" points="66.5001,-321.35 70,-331.35 73.5001,-321.35 66.5001,-321.35"/>
</g>
</g>
</svg>
