<?xml version="1.0" encoding="UTF-8" standalone="no"?>
<!DOCTYPE svg PUBLIC "-//W3C//DTD SVG 1.1//EN"
 "http://www.w3.org/Graphics/SVG/1.1/DTD/svg11.dtd">
<!-- Generated by graphviz version 2.38.0 (20140413.2041)
 -->
<!-- Title: rml::versioned_object Pages: 1 -->
<!--zoomable 342 -->
<svg id="main" version="1.1" xmlns="http://www.w3.org/2000/svg" xmlns:xlink="http://www.w3.org/1999/xlink" xml:space="preserve" onload="init(evt)">
<style type="text/css"><![CDATA[
.edge:hover path { stroke: red; }
.edge:hover polygon { stroke: red; fill: red; }
]]></style>
<script type="text/javascript"><![CDATA[
var edges = document.getElementsByTagName('g');
if (edges && edges.length) {
  for (var i=0;i<edges.length;i++) {
    if (edges[i].id.substr(0,4)=='edge') {
      edges[i].setAttribute('class','edge');
    }
  }
}
]]></script>
        <defs>
                <circle id="rim" cx="0" cy="0" r="7"/>
                <circle id="rim2" cx="0" cy="0" r="3.5"/>
                <g id="zoomPlus">
                        <use xlink:href="#rim" fill="#404040">
                                <set attributeName="fill" to="#808080" begin="zoomplus.mouseover" end="zoomplus.mouseout"/>
                        </use>
                        <path d="M-4,0h8M0,-4v8" fill="none" stroke="white" stroke-width="1.5" pointer-events="none"/>
                </g>
                <g id="zoomMin">
                        <use xlink:href="#rim" fill="#404040">
                                <set attributeName="fill" to="#808080" begin="zoomminus.mouseover" end="zoomminus.mouseout"/>
                        </use>
                        <path d="M-4,0h8" fill="none" stroke="white" stroke-width="1.5" pointer-events="none"/>
                </g>
                <g id="dirArrow">
                        <path fill="none" stroke="white" stroke-width="1.5" d="M0,-3.0v7 M-2.5,-0.5L0,-3.0L2.5,-0.5"/>
                </g>
               <g id="resetDef">
                       <use xlink:href="#rim2" fill="#404040">
                               <set attributeName="fill" to="#808080" begin="reset.mouseover" end="reset.mouseout"/>
                       </use>
               </g>
        </defs>

<script type="text/javascript">
var viewWidth = 584;
var viewHeight = 342;
var sectionId = 'dynsection-0';
</script>
<script xlink:href="svgpan.js"/>
<svg id="graph" class="graph">
<g id="viewport">
<title>rml::versioned_object</title>
<polygon fill="white" stroke="none" points="-4,4 -4,-338 580,-338 580,4 -4,4"/>
<!-- Node1 -->
<g id="node1" class="node"><title>Node1</title>
<polygon fill="#bfbfbf" stroke="black" points="200.5,-276.5 200.5,-333.5 319.5,-333.5 319.5,-276.5 200.5,-276.5"/>
<text text-anchor="middle" x="260" y="-321.5" font-family="Helvetica,sans-Serif" font-size="10.00">rml::versioned_object</text>
<polyline fill="none" stroke="black" points="200.5,-314.5 319.5,-314.5 "/>
<text text-anchor="middle" x="260" y="-302.5" font-family="Helvetica,sans-Serif" font-size="10.00"> </text>
<polyline fill="none" stroke="black" points="200.5,-295.5 319.5,-295.5 "/>
<text text-anchor="middle" x="260" y="-283.5" font-family="Helvetica,sans-Serif" font-size="10.00"> </text>
</g>
<!-- Node2 -->
<g id="node2" class="node"><title>Node2</title>
<g id="a_node2"><a xlink:href="classrml_1_1client.html" target="_top" xlink:title="Information that client provides to server when asking for a server. ">
<polygon fill="white" stroke="black" points="162,-155 162,-212 226,-212 226,-155 162,-155"/>
<text text-anchor="middle" x="194" y="-200" font-family="Helvetica,sans-Serif" font-size="10.00">rml::client</text>
<polyline fill="none" stroke="black" points="162,-193 226,-193 "/>
<text text-anchor="middle" x="194" y="-181" font-family="Helvetica,sans-Serif" font-size="10.00"> </text>
<polyline fill="none" stroke="black" points="162,-174 226,-174 "/>
<text text-anchor="middle" x="194" y="-162" font-family="Helvetica,sans-Serif" font-size="10.00"> </text>
</a>
</g>
</g>
<!-- Node1&#45;&gt;Node2 -->
<g id="edge1" class="edge"><title>Node1&#45;&gt;Node2</title>
<path fill="none" stroke="midnightblue" d="M239.736,-267.31C229.903,-249.507 218.289,-228.478 209.225,-212.066"/>
<polygon fill="none" stroke="midnightblue" points="236.794,-269.222 244.692,-276.284 242.921,-265.838 236.794,-269.222"/>
</g>
<!-- Node5 -->
<g id="node5" class="node"><title>Node5</title>
<g id="a_node5"><a xlink:href="classrml_1_1server.html" target="_top" xlink:title="{rml::server\n||+ request_close_connection()\l+ yield()\l+ independent_thread\l_number_changed()\l+ default_concurrency()\l# scratch_ptr()\l}">
<polygon fill="white" stroke="black" points="247,-127.5 247,-239.5 407,-239.5 407,-127.5 247,-127.5"/>
<text text-anchor="middle" x="327" y="-227.5" font-family="Helvetica,sans-Serif" font-size="10.00">rml::server</text>
<polyline fill="none" stroke="black" points="247,-220.5 407,-220.5 "/>
<text text-anchor="middle" x="327" y="-208.5" font-family="Helvetica,sans-Serif" font-size="10.00"> </text>
<polyline fill="none" stroke="black" points="247,-201.5 407,-201.5 "/>
<text text-anchor="start" x="255" y="-189.5" font-family="Helvetica,sans-Serif" font-size="10.00">+ request_close_connection()</text>
<text text-anchor="start" x="255" y="-178.5" font-family="Helvetica,sans-Serif" font-size="10.00">+ yield()</text>
<text text-anchor="start" x="255" y="-167.5" font-family="Helvetica,sans-Serif" font-size="10.00">+ independent_thread</text>
<text text-anchor="start" x="255" y="-156.5" font-family="Helvetica,sans-Serif" font-size="10.00">_number_changed()</text>
<text text-anchor="start" x="255" y="-145.5" font-family="Helvetica,sans-Serif" font-size="10.00">+ default_concurrency()</text>
<text text-anchor="start" x="255" y="-134.5" font-family="Helvetica,sans-Serif" font-size="10.00"># scratch_ptr()</text>
</a>
</g>
</g>
<!-- Node1&#45;&gt;Node5 -->
<g id="edge4" class="edge"><title>Node1&#45;&gt;Node5</title>
<path fill="none" stroke="midnightblue" d="M280.467,-267.495C285.37,-258.751 290.714,-249.219 295.976,-239.834"/>
<polygon fill="none" stroke="midnightblue" points="277.377,-265.85 275.54,-276.284 283.483,-269.273 277.377,-265.85"/>
</g>
<!-- Node3 -->
<g id="node3" class="node"><title>Node3</title>
<g id="a_node3"><a xlink:href="class____kmp_1_1rml_1_1omp__client.html" target="_top" xlink:title="{__kmp::rml::omp_client\n||}">
<polygon fill="white" stroke="black" points="0,-17 0,-74 128,-74 128,-17 0,-17"/>
<text text-anchor="middle" x="64" y="-62" font-family="Helvetica,sans-Serif" font-size="10.00">__kmp::rml::omp_client</text>
<polyline fill="none" stroke="black" points="0,-55 128,-55 "/>
<text text-anchor="middle" x="64" y="-43" font-family="Helvetica,sans-Serif" font-size="10.00"> </text>
<polyline fill="none" stroke="black" points="0,-36 128,-36 "/>
<text text-anchor="middle" x="64" y="-24" font-family="Helvetica,sans-Serif" font-size="10.00"> </text>
</a>
</g>
</g>
<!-- Node2&#45;&gt;Node3 -->
<g id="edge2" class="edge"><title>Node2&#45;&gt;Node3</title>
<path fill="none" stroke="midnightblue" d="M160.587,-147.545C138.875,-124.83 110.949,-95.6159 90.7145,-74.4475"/>
<polygon fill="none" stroke="midnightblue" points="158.253,-150.168 167.693,-154.978 163.313,-145.331 158.253,-150.168"/>
</g>
<!-- Node4 -->
<g id="node4" class="node"><title>Node4</title>
<g id="a_node4"><a xlink:href="classtbb_1_1internal_1_1rml_1_1tbb__client.html" target="_top" xlink:title="{tbb::internal::rml\l::tbb_client\n||}">
<polygon fill="white" stroke="red" points="146,-11.5 146,-79.5 242,-79.5 242,-11.5 146,-11.5"/>
<text text-anchor="start" x="154" y="-67.5" font-family="Helvetica,sans-Serif" font-size="10.00">tbb::internal::rml</text>
<text text-anchor="middle" x="194" y="-56.5" font-family="Helvetica,sans-Serif" font-size="10.00">::tbb_client</text>
<polyline fill="none" stroke="red" points="146,-49.5 242,-49.5 "/>
<text text-anchor="middle" x="194" y="-37.5" font-family="Helvetica,sans-Serif" font-size="10.00"> </text>
<polyline fill="none" stroke="red" points="146,-30.5 242,-30.5 "/>
<text text-anchor="middle" x="194" y="-18.5" font-family="Helvetica,sans-Serif" font-size="10.00"> </text>
</a>
</g>
</g>
<!-- Node2&#45;&gt;Node4 -->
<g id="edge3" class="edge"><title>Node2&#45;&gt;Node4</title>
<path fill="none" stroke="midnightblue" d="M194,-144.78C194,-124.38 194,-99.4125 194,-79.7476"/>
<polygon fill="none" stroke="midnightblue" points="190.5,-144.978 194,-154.978 197.5,-144.978 190.5,-144.978"/>
</g>
<!-- Node6 -->
<g id="node6" class="node"><title>Node6</title>
<g id="a_node6"><a xlink:href="class____kmp_1_1rml_1_1omp__server.html" target="_top" xlink:title="Represents a set of omp worker threads provided by the server. ">
<polygon fill="white" stroke="red" points="260.5,-0.5 260.5,-90.5 393.5,-90.5 393.5,-0.5 260.5,-0.5"/>
<text text-anchor="middle" x="327" y="-78.5" font-family="Helvetica,sans-Serif" font-size="10.00">__kmp::rml::omp_server</text>
<polyline fill="none" stroke="red" points="260.5,-71.5 393.5,-71.5 "/>
<text text-anchor="middle" x="327" y="-59.5" font-family="Helvetica,sans-Serif" font-size="10.00"> </text>
<polyline fill="none" stroke="red" points="260.5,-52.5 393.5,-52.5 "/>
<text text-anchor="start" x="268.5" y="-40.5" font-family="Helvetica,sans-Serif" font-size="10.00">+ current_balance()</text>
<text text-anchor="start" x="268.5" y="-29.5" font-family="Helvetica,sans-Serif" font-size="10.00">+ try_increase_load()</text>
<text text-anchor="start" x="268.5" y="-18.5" font-family="Helvetica,sans-Serif" font-size="10.00">+ decrease_load()</text>
<text text-anchor="start" x="268.5" y="-7.5" font-family="Helvetica,sans-Serif" font-size="10.00">+ get_threads()</text>
</a>
</g>
</g>
<!-- Node5&#45;&gt;Node6 -->
<g id="edge5" class="edge"><title>Node5&#45;&gt;Node6</title>
<path fill="none" stroke="midnightblue" d="M327,-117.076C327,-108.072 327,-99.0069 327,-90.5144"/>
<polygon fill="none" stroke="midnightblue" points="323.5,-117.184 327,-127.184 330.5,-117.184 323.5,-117.184"/>
</g>
<!-- Node7 -->
<g id="node7" class="node"><title>Node7</title>
<g id="a_node7"><a xlink:href="classtbb_1_1internal_1_1rml_1_1tbb__server.html" target="_top" xlink:title="Represents a set of tbb worker threads provided by the server. ">
<polygon fill="white" stroke="red" points="412,-11.5 412,-79.5 576,-79.5 576,-11.5 412,-11.5"/>
<text text-anchor="start" x="420" y="-67.5" font-family="Helvetica,sans-Serif" font-size="10.00">tbb::internal::rml</text>
<text text-anchor="middle" x="494" y="-56.5" font-family="Helvetica,sans-Serif" font-size="10.00">::tbb_server</text>
<polyline fill="none" stroke="red" points="412,-49.5 576,-49.5 "/>
<text text-anchor="middle" x="494" y="-37.5" font-family="Helvetica,sans-Serif" font-size="10.00"> </text>
<polyline fill="none" stroke="red" points="412,-30.5 576,-30.5 "/>
<text text-anchor="start" x="420" y="-18.5" font-family="Helvetica,sans-Serif" font-size="10.00">+ adjust_job_count_estimate()</text>
</a>
</g>
</g>
<!-- Node5&#45;&gt;Node7 -->
<g id="edge6" class="edge"><title>Node5&#45;&gt;Node7</title>
<path fill="none" stroke="midnightblue" d="M402.894,-120.694C420.331,-106.494 438.214,-91.9305 453.467,-79.5086"/>
<polygon fill="none" stroke="midnightblue" points="400.469,-118.155 394.925,-127.184 404.889,-123.583 400.469,-118.155"/>
</g>
</g>
</svg>
        <g id="navigator" transform="translate(0 0)" fill="#404254">
                <rect fill="#f2f5e9" fill-opacity="0.5" stroke="#606060" stroke-width=".5" x="0" y="0" width="60" height="60"/>
                <use id="zoomplus" xlink:href="#zoomPlus" x="17" y="9" onmousedown="handleZoom(evt,'in')"/>
                <use id="zoomminus" xlink:href="#zoomMin" x="42" y="9" onmousedown="handleZoom(evt,'out')"/>
                <use id="reset" xlink:href="#resetDef" x="30" y="36" onmousedown="handleReset()"/>
                <g id="arrowUp" xlink:href="#dirArrow" transform="translate(30 24)" onmousedown="handlePan(0,-1)">
                  <use xlink:href="#rim" fill="#404040">
                        <set attributeName="fill" to="#808080" begin="arrowUp.mouseover" end="arrowUp.mouseout"/>
                  </use>
                  <path fill="none" stroke="white" stroke-width="1.5" d="M0,-3.0v7 M-2.5,-0.5L0,-3.0L2.5,-0.5"/>
                </g>
                <g id="arrowRight" xlink:href="#dirArrow" transform="rotate(90) translate(36 -43)" onmousedown="handlePan(1,0)">
                  <use xlink:href="#rim" fill="#404040">
                        <set attributeName="fill" to="#808080" begin="arrowRight.mouseover" end="arrowRight.mouseout"/>
                  </use>
                  <path fill="none" stroke="white" stroke-width="1.5" d="M0,-3.0v7 M-2.5,-0.5L0,-3.0L2.5,-0.5"/>
                </g>
                <g id="arrowDown" xlink:href="#dirArrow" transform="rotate(180) translate(-30 -48)" onmousedown="handlePan(0,1)">
                  <use xlink:href="#rim" fill="#404040">
                        <set attributeName="fill" to="#808080" begin="arrowDown.mouseover" end="arrowDown.mouseout"/>
                  </use>
                  <path fill="none" stroke="white" stroke-width="1.5" d="M0,-3.0v7 M-2.5,-0.5L0,-3.0L2.5,-0.5"/>
                </g>
                <g id="arrowLeft" xlink:href="#dirArrow" transform="rotate(270) translate(-36 17)" onmousedown="handlePan(-1,0)">
                  <use xlink:href="#rim" fill="#404040">
                        <set attributeName="fill" to="#808080" begin="arrowLeft.mouseover" end="arrowLeft.mouseout"/>
                  </use>
                  <path fill="none" stroke="white" stroke-width="1.5" d="M0,-3.0v7 M-2.5,-0.5L0,-3.0L2.5,-0.5"/>
                </g>
        </g>
        <svg viewBox="0 0 15 15" width="100%" height="30px" preserveAspectRatio="xMaxYMin meet">
         <g id="arrow_out" transform="scale(0.3 0.3)">
          <a xlink:href="classrml_1_1versioned__object__inherit__graph_org.svg" target="_base">
           <rect id="button" ry="5" rx="5" y="6" x="6" height="38" width="38"
                fill="#f2f5e9" fill-opacity="0.5" stroke="#606060" stroke-width="1.0"/>
           <path id="arrow"
             d="M 11.500037,31.436501 C 11.940474,20.09759 22.043105,11.32322 32.158766,21.979434 L 37.068811,17.246167 C 37.068811,17.246167 37.088388,32 37.088388,32 L 22.160133,31.978069 C 22.160133,31.978069 26.997745,27.140456 26.997745,27.140456 C 18.528582,18.264221 13.291696,25.230495 11.500037,31.436501 z"
             style="fill:#404040;"/>
          </a>
         </g>
        </svg>
</svg>
