<?xml version="1.0" encoding="UTF-8" standalone="no"?>
<!DOCTYPE svg PUBLIC "-//W3C//DTD SVG 1.1//EN"
 "http://www.w3.org/Graphics/SVG/1.1/DTD/svg11.dtd">
<!-- Generated by graphviz version 2.38.0 (20140413.2041)
 -->
<!-- Title: rml::internal::omp_connection_v2 Pages: 1 -->
<!--zoomable 932 -->
<svg id="main" version="1.1" xmlns="http://www.w3.org/2000/svg" xmlns:xlink="http://www.w3.org/1999/xlink" xml:space="preserve" onload="init(evt)">
<style type="text/css"><![CDATA[
.edge:hover path { stroke: red; }
.edge:hover polygon { stroke: red; fill: red; }
]]></style>
<script type="text/javascript"><![CDATA[
var edges = document.getElementsByTagName('g');
if (edges && edges.length) {
  for (var i=0;i<edges.length;i++) {
    if (edges[i].id.substr(0,4)=='edge') {
      edges[i].setAttribute('class','edge');
    }
  }
}
]]></script>
        <defs>
                <circle id="rim" cx="0" cy="0" r="7"/>
                <circle id="rim2" cx="0" cy="0" r="3.5"/>
                <g id="zoomPlus">
                        <use xlink:href="#rim" fill="#404040">
                                <set attributeName="fill" to="#808080" begin="zoomplus.mouseover" end="zoomplus.mouseout"/>
                        </use>
                        <path d="M-4,0h8M0,-4v8" fill="none" stroke="white" stroke-width="1.5" pointer-events="none"/>
                </g>
                <g id="zoomMin">
                        <use xlink:href="#rim" fill="#404040">
                                <set attributeName="fill" to="#808080" begin="zoomminus.mouseover" end="zoomminus.mouseout"/>
                        </use>
                        <path d="M-4,0h8" fill="none" stroke="white" stroke-width="1.5" pointer-events="none"/>
                </g>
                <g id="dirArrow">
                        <path fill="none" stroke="white" stroke-width="1.5" d="M0,-3.0v7 M-2.5,-0.5L0,-3.0L2.5,-0.5"/>
                </g>
               <g id="resetDef">
                       <use xlink:href="#rim2" fill="#404040">
                               <set attributeName="fill" to="#808080" begin="reset.mouseover" end="reset.mouseout"/>
                       </use>
               </g>
        </defs>

<script type="text/javascript">
var viewWidth = 563;
var viewHeight = 932;
var sectionId = 'dynsection-1';
</script>
<script xlink:href="svgpan.js"/>
<svg id="graph" class="graph">
<g id="viewport">
<title>rml::internal::omp_connection_v2</title>
<polygon fill="white" stroke="none" points="-4,4 -4,-928 558.5,-928 558.5,4 -4,4"/>
<!-- Node1 -->
<g id="node1" class="node"><title>Node1</title>
<polygon fill="#bfbfbf" stroke="black" points="126.5,-0.5 126.5,-123.5 266.5,-123.5 266.5,-0.5 126.5,-0.5"/>
<text text-anchor="start" x="134.5" y="-111.5" font-family="Helvetica,sans-Serif" font-size="10.00">rml::internal::omp</text>
<text text-anchor="middle" x="196.5" y="-100.5" font-family="Helvetica,sans-Serif" font-size="10.00">_connection_v2</text>
<polyline fill="none" stroke="black" points="126.5,-93.5 266.5,-93.5 "/>
<text text-anchor="middle" x="196.5" y="-81.5" font-family="Helvetica,sans-Serif" font-size="10.00"> </text>
<polyline fill="none" stroke="black" points="126.5,-74.5 266.5,-74.5 "/>
<text text-anchor="start" x="134.5" y="-62.5" font-family="Helvetica,sans-Serif" font-size="10.00">+ omp_connection_v2()</text>
<text text-anchor="start" x="134.5" y="-51.5" font-family="Helvetica,sans-Serif" font-size="10.00">+ ~omp_connection_v2()</text>
<text text-anchor="start" x="134.5" y="-40.5" font-family="Helvetica,sans-Serif" font-size="10.00">&#45; current_balance()</text>
<text text-anchor="start" x="134.5" y="-29.5" font-family="Helvetica,sans-Serif" font-size="10.00">&#45; try_increase_load()</text>
<text text-anchor="start" x="134.5" y="-18.5" font-family="Helvetica,sans-Serif" font-size="10.00">&#45; decrease_load()</text>
<text text-anchor="start" x="134.5" y="-7.5" font-family="Helvetica,sans-Serif" font-size="10.00">&#45; get_threads()</text>
</g>
<!-- Node2 -->
<g id="node2" class="node"><title>Node2</title>
<g id="a_node2"><a xlink:href="classrml_1_1internal_1_1generic__connection.html" target="_top" xlink:title="{rml::internal::generic\l_connection\&lt; omp_server,\l omp_client \&gt;\n|# my_ec\l|+ client()\l+ set_scratch_ptr()\l+ add_server_ref()\l+ remove_server_ref()\l+ remove_client_ref()\l+ make_job()\l+ get_addr()\l# do_open()\l# request_close_connection()\l# ~generic_connection()\l# generic_connection()\l&#45; version()\l&#45; yield()\l&#45; independent_thread\l_number_changed()\l&#45; default_concurrency()\l}">
<polygon fill="white" stroke="black" points="116.5,-161.5 116.5,-405.5 276.5,-405.5 276.5,-161.5 116.5,-161.5"/>
<text text-anchor="start" x="124.5" y="-393.5" font-family="Helvetica,sans-Serif" font-size="10.00">rml::internal::generic</text>
<text text-anchor="start" x="124.5" y="-382.5" font-family="Helvetica,sans-Serif" font-size="10.00">_connection&lt; omp_server,</text>
<text text-anchor="middle" x="196.5" y="-371.5" font-family="Helvetica,sans-Serif" font-size="10.00"> omp_client &gt;</text>
<polyline fill="none" stroke="black" points="116.5,-364.5 276.5,-364.5 "/>
<text text-anchor="start" x="124.5" y="-352.5" font-family="Helvetica,sans-Serif" font-size="10.00"># my_ec</text>
<polyline fill="none" stroke="black" points="116.5,-345.5 276.5,-345.5 "/>
<text text-anchor="start" x="124.5" y="-333.5" font-family="Helvetica,sans-Serif" font-size="10.00">+ client()</text>
<text text-anchor="start" x="124.5" y="-322.5" font-family="Helvetica,sans-Serif" font-size="10.00">+ set_scratch_ptr()</text>
<text text-anchor="start" x="124.5" y="-311.5" font-family="Helvetica,sans-Serif" font-size="10.00">+ add_server_ref()</text>
<text text-anchor="start" x="124.5" y="-300.5" font-family="Helvetica,sans-Serif" font-size="10.00">+ remove_server_ref()</text>
<text text-anchor="start" x="124.5" y="-289.5" font-family="Helvetica,sans-Serif" font-size="10.00">+ remove_client_ref()</text>
<text text-anchor="start" x="124.5" y="-278.5" font-family="Helvetica,sans-Serif" font-size="10.00">+ make_job()</text>
<text text-anchor="start" x="124.5" y="-267.5" font-family="Helvetica,sans-Serif" font-size="10.00">+ get_addr()</text>
<text text-anchor="start" x="124.5" y="-256.5" font-family="Helvetica,sans-Serif" font-size="10.00"># do_open()</text>
<text text-anchor="start" x="124.5" y="-245.5" font-family="Helvetica,sans-Serif" font-size="10.00"># request_close_connection()</text>
<text text-anchor="start" x="124.5" y="-234.5" font-family="Helvetica,sans-Serif" font-size="10.00"># ~generic_connection()</text>
<text text-anchor="start" x="124.5" y="-223.5" font-family="Helvetica,sans-Serif" font-size="10.00"># generic_connection()</text>
<text text-anchor="start" x="124.5" y="-212.5" font-family="Helvetica,sans-Serif" font-size="10.00">&#45; version()</text>
<text text-anchor="start" x="124.5" y="-201.5" font-family="Helvetica,sans-Serif" font-size="10.00">&#45; yield()</text>
<text text-anchor="start" x="124.5" y="-190.5" font-family="Helvetica,sans-Serif" font-size="10.00">&#45; independent_thread</text>
<text text-anchor="start" x="124.5" y="-179.5" font-family="Helvetica,sans-Serif" font-size="10.00">_number_changed()</text>
<text text-anchor="start" x="124.5" y="-168.5" font-family="Helvetica,sans-Serif" font-size="10.00">&#45; default_concurrency()</text>
</a>
</g>
</g>
<!-- Node2&#45;&gt;Node1 -->
<g id="edge1" class="edge"><title>Node2&#45;&gt;Node1</title>
<path fill="none" stroke="midnightblue" d="M196.5,-150.904C196.5,-141.489 196.5,-132.297 196.5,-123.622"/>
<polygon fill="none" stroke="midnightblue" points="193,-151.194 196.5,-161.194 200,-151.194 193,-151.194"/>
</g>
<!-- Node3 -->
<g id="node3" class="node"><title>Node3</title>
<g id="a_node3"><a xlink:href="class____kmp_1_1rml_1_1omp__server.html" target="_top" xlink:title="Represents a set of omp worker threads provided by the server. ">
<polygon fill="white" stroke="red" points="0,-525 0,-615 133,-615 133,-525 0,-525"/>
<text text-anchor="middle" x="66.5" y="-603" font-family="Helvetica,sans-Serif" font-size="10.00">__kmp::rml::omp_server</text>
<polyline fill="none" stroke="red" points="0,-596 133,-596 "/>
<text text-anchor="middle" x="66.5" y="-584" font-family="Helvetica,sans-Serif" font-size="10.00"> </text>
<polyline fill="none" stroke="red" points="0,-577 133,-577 "/>
<text text-anchor="start" x="8" y="-565" font-family="Helvetica,sans-Serif" font-size="10.00">+ current_balance()</text>
<text text-anchor="start" x="8" y="-554" font-family="Helvetica,sans-Serif" font-size="10.00">+ try_increase_load()</text>
<text text-anchor="start" x="8" y="-543" font-family="Helvetica,sans-Serif" font-size="10.00">+ decrease_load()</text>
<text text-anchor="start" x="8" y="-532" font-family="Helvetica,sans-Serif" font-size="10.00">+ get_threads()</text>
</a>
</g>
</g>
<!-- Node3&#45;&gt;Node2 -->
<g id="edge2" class="edge"><title>Node3&#45;&gt;Node2</title>
<path fill="none" stroke="midnightblue" d="M90.9315,-515.533C105.127,-484.466 123.624,-443.987 141.161,-405.607"/>
<polygon fill="none" stroke="midnightblue" points="87.6426,-514.309 86.6699,-524.859 94.0094,-517.218 87.6426,-514.309"/>
</g>
<!-- Node4 -->
<g id="node4" class="node"><title>Node4</title>
<g id="a_node4"><a xlink:href="classrml_1_1no__copy.html" target="_top" xlink:title="Base class for denying assignment and copy constructor. ">
<polygon fill="white" stroke="black" points="151.5,-789.5 151.5,-868.5 231.5,-868.5 231.5,-789.5 151.5,-789.5"/>
<text text-anchor="middle" x="191.5" y="-856.5" font-family="Helvetica,sans-Serif" font-size="10.00">rml::no_copy</text>
<polyline fill="none" stroke="black" points="151.5,-849.5 231.5,-849.5 "/>
<text text-anchor="middle" x="191.5" y="-837.5" font-family="Helvetica,sans-Serif" font-size="10.00"> </text>
<polyline fill="none" stroke="black" points="151.5,-830.5 231.5,-830.5 "/>
<text text-anchor="start" x="159.5" y="-818.5" font-family="Helvetica,sans-Serif" font-size="10.00">+ no_copy()</text>
<text text-anchor="start" x="159.5" y="-807.5" font-family="Helvetica,sans-Serif" font-size="10.00">&#45; operator=()</text>
<text text-anchor="start" x="159.5" y="-796.5" font-family="Helvetica,sans-Serif" font-size="10.00">&#45; no_copy()</text>
</a>
</g>
</g>
<!-- Node4&#45;&gt;Node2 -->
<g id="edge3" class="edge"><title>Node4&#45;&gt;Node2</title>
<path fill="none" stroke="#8b1a1a" d="M186.772,-779.42C184.365,-752.263 181.699,-717.784 180.5,-687 176.452,-583.079 175.579,-556.884 180.5,-453 181.223,-437.737 182.312,-421.722 183.59,-405.891"/>
<polygon fill="none" stroke="#8b1a1a" points="183.292,-779.803 187.678,-789.447 190.264,-779.172 183.292,-779.803"/>
</g>
<!-- Node6 -->
<g id="node6" class="node"><title>Node6</title>
<g id="a_node6"><a xlink:href="classrml_1_1internal_1_1generic__connection.html" target="_top" xlink:title="{rml::internal::generic\l_connection\&lt; Server, Client \&gt;\n|# my_ec\l|+ client()\l+ set_scratch_ptr()\l+ add_server_ref()\l+ remove_server_ref()\l+ remove_client_ref()\l+ make_job()\l+ get_addr()\l# do_open()\l# request_close_connection()\l# ~generic_connection()\l# generic_connection()\l&#45; version()\l&#45; yield()\l&#45; independent_thread\l_number_changed()\l&#45; default_concurrency()\l}">
<polygon fill="white" stroke="red" points="190,-453.5 190,-686.5 351,-686.5 351,-453.5 190,-453.5"/>
<text text-anchor="start" x="198" y="-674.5" font-family="Helvetica,sans-Serif" font-size="10.00">rml::internal::generic</text>
<text text-anchor="middle" x="270.5" y="-663.5" font-family="Helvetica,sans-Serif" font-size="10.00">_connection&lt; Server, Client &gt;</text>
<polyline fill="none" stroke="red" points="190,-656.5 351,-656.5 "/>
<text text-anchor="start" x="198" y="-644.5" font-family="Helvetica,sans-Serif" font-size="10.00"># my_ec</text>
<polyline fill="none" stroke="red" points="190,-637.5 351,-637.5 "/>
<text text-anchor="start" x="198" y="-625.5" font-family="Helvetica,sans-Serif" font-size="10.00">+ client()</text>
<text text-anchor="start" x="198" y="-614.5" font-family="Helvetica,sans-Serif" font-size="10.00">+ set_scratch_ptr()</text>
<text text-anchor="start" x="198" y="-603.5" font-family="Helvetica,sans-Serif" font-size="10.00">+ add_server_ref()</text>
<text text-anchor="start" x="198" y="-592.5" font-family="Helvetica,sans-Serif" font-size="10.00">+ remove_server_ref()</text>
<text text-anchor="start" x="198" y="-581.5" font-family="Helvetica,sans-Serif" font-size="10.00">+ remove_client_ref()</text>
<text text-anchor="start" x="198" y="-570.5" font-family="Helvetica,sans-Serif" font-size="10.00">+ make_job()</text>
<text text-anchor="start" x="198" y="-559.5" font-family="Helvetica,sans-Serif" font-size="10.00">+ get_addr()</text>
<text text-anchor="start" x="198" y="-548.5" font-family="Helvetica,sans-Serif" font-size="10.00"># do_open()</text>
<text text-anchor="start" x="198" y="-537.5" font-family="Helvetica,sans-Serif" font-size="10.00"># request_close_connection()</text>
<text text-anchor="start" x="198" y="-526.5" font-family="Helvetica,sans-Serif" font-size="10.00"># ~generic_connection()</text>
<text text-anchor="start" x="198" y="-515.5" font-family="Helvetica,sans-Serif" font-size="10.00"># generic_connection()</text>
<text text-anchor="start" x="198" y="-504.5" font-family="Helvetica,sans-Serif" font-size="10.00">&#45; version()</text>
<text text-anchor="start" x="198" y="-493.5" font-family="Helvetica,sans-Serif" font-size="10.00">&#45; yield()</text>
<text text-anchor="start" x="198" y="-482.5" font-family="Helvetica,sans-Serif" font-size="10.00">&#45; independent_thread</text>
<text text-anchor="start" x="198" y="-471.5" font-family="Helvetica,sans-Serif" font-size="10.00">_number_changed()</text>
<text text-anchor="start" x="198" y="-460.5" font-family="Helvetica,sans-Serif" font-size="10.00">&#45; default_concurrency()</text>
</a>
</g>
</g>
<!-- Node4&#45;&gt;Node6 -->
<g id="edge6" class="edge"><title>Node4&#45;&gt;Node6</title>
<path fill="none" stroke="#8b1a1a" d="M206.4,-779.529C214.501,-753.173 224.896,-719.356 234.947,-686.659"/>
<polygon fill="none" stroke="#8b1a1a" points="203.005,-778.659 203.413,-789.246 209.696,-780.716 203.005,-778.659"/>
</g>
<!-- Node5 -->
<g id="node5" class="node"><title>Node5</title>
<g id="a_node5"><a xlink:href="classrml_1_1internal_1_1thread__map.html" target="_top" xlink:title="Type&#45;independent part of class generic_connection. ">
<polygon fill="white" stroke="red" points="322.5,-734.5 322.5,-923.5 464.5,-923.5 464.5,-734.5 322.5,-734.5"/>
<text text-anchor="middle" x="393.5" y="-911.5" font-family="Helvetica,sans-Serif" font-size="10.00">rml::internal::thread_map</text>
<polyline fill="none" stroke="red" points="322.5,-904.5 464.5,-904.5 "/>
<text text-anchor="start" x="330.5" y="-892.5" font-family="Helvetica,sans-Serif" font-size="10.00">&#45; all_visited_at_least_once</text>
<text text-anchor="start" x="330.5" y="-881.5" font-family="Helvetica,sans-Serif" font-size="10.00">&#45; my_array</text>
<text text-anchor="start" x="330.5" y="-870.5" font-family="Helvetica,sans-Serif" font-size="10.00">&#45; my_min_stack_size</text>
<polyline fill="none" stroke="red" points="322.5,-863.5 464.5,-863.5 "/>
<text text-anchor="start" x="330.5" y="-851.5" font-family="Helvetica,sans-Serif" font-size="10.00">+ thread_map()</text>
<text text-anchor="start" x="330.5" y="-840.5" font-family="Helvetica,sans-Serif" font-size="10.00">+ ~thread_map()</text>
<text text-anchor="start" x="330.5" y="-829.5" font-family="Helvetica,sans-Serif" font-size="10.00">+ begin()</text>
<text text-anchor="start" x="330.5" y="-818.5" font-family="Helvetica,sans-Serif" font-size="10.00">+ end()</text>
<text text-anchor="start" x="330.5" y="-807.5" font-family="Helvetica,sans-Serif" font-size="10.00">+ bind()</text>
<text text-anchor="start" x="330.5" y="-796.5" font-family="Helvetica,sans-Serif" font-size="10.00">+ unbind()</text>
<text text-anchor="start" x="330.5" y="-785.5" font-family="Helvetica,sans-Serif" font-size="10.00">+ assist_cleanup()</text>
<text text-anchor="start" x="330.5" y="-774.5" font-family="Helvetica,sans-Serif" font-size="10.00">+ wakeup_tbb_threads()</text>
<text text-anchor="start" x="330.5" y="-763.5" font-family="Helvetica,sans-Serif" font-size="10.00">+ wakeup_next_thread()</text>
<text text-anchor="start" x="330.5" y="-752.5" font-family="Helvetica,sans-Serif" font-size="10.00">+ release_tbb_threads()</text>
<text text-anchor="start" x="330.5" y="-741.5" font-family="Helvetica,sans-Serif" font-size="10.00">and 8 more...</text>
</a>
</g>
</g>
<!-- Node5&#45;&gt;Node2 -->
<g id="edge4" class="edge"><title>Node5&#45;&gt;Node2</title>
<path fill="none" stroke="#404040" d="M433.269,-734.392C460.522,-655.083 484.259,-540.62 438.5,-453 406.795,-392.29 342.137,-349.016 287.626,-321.533"/>
<polygon fill="none" stroke="#404040" points="287.29,-321.368 280.141,-322.313 276.519,-316.077 283.668,-315.132 287.29,-321.368"/>
<text text-anchor="middle" x="509" y="-567.5" font-family="Helvetica,sans-Serif" font-size="10.00"> #my_thread_map</text>
</g>
<!-- Node5&#45;&gt;Node6 -->
<g id="edge7" class="edge"><title>Node5&#45;&gt;Node6</title>
<path fill="none" stroke="#404040" d="M348.746,-734.49C343.009,-722.502 337.06,-710.073 331.123,-697.668"/>
<polygon fill="none" stroke="#404040" points="331.094,-697.608 324.896,-693.922 325.914,-686.783 332.112,-690.469 331.094,-697.608"/>
<text text-anchor="middle" x="385" y="-708" font-family="Helvetica,sans-Serif" font-size="10.00"> #my_thread_map</text>
</g>
<!-- Node6&#45;&gt;Node2 -->
<g id="edge5" class="edge"><title>Node6&#45;&gt;Node2</title>
<path fill="none" stroke="#404040" d="M240.401,-453.283C237.34,-441.514 234.214,-429.494 231.11,-417.561"/>
<polygon fill="none" stroke="#404040" points="231.038,-417.283 225.656,-412.483 228.017,-405.669 233.398,-410.469 231.038,-417.283"/>
<text text-anchor="middle" x="264" y="-427" font-family="Helvetica,sans-Serif" font-size="10.00"> #next_conn</text>
</g>
<!-- Node6&#45;&gt;Node6 -->
<g id="edge8" class="edge"><title>Node6&#45;&gt;Node6</title>
<path fill="none" stroke="#404040" d="M351.27,-593.148C361.93,-589.2 369,-581.484 369,-570 369,-563.002 366.375,-557.403 361.911,-553.203"/>
<polygon fill="none" stroke="#404040" points="361.574,-553.002 354.372,-553.362 351.27,-546.852 358.472,-546.492 361.574,-553.002"/>
<text text-anchor="middle" x="399.5" y="-567.5" font-family="Helvetica,sans-Serif" font-size="10.00"> #next_conn</text>
</g>
</g>
</svg>
        <g id="navigator" transform="translate(0 0)" fill="#404254">
                <rect fill="#f2f5e9" fill-opacity="0.5" stroke="#606060" stroke-width=".5" x="0" y="0" width="60" height="60"/>
                <use id="zoomplus" xlink:href="#zoomPlus" x="17" y="9" onmousedown="handleZoom(evt,'in')"/>
                <use id="zoomminus" xlink:href="#zoomMin" x="42" y="9" onmousedown="handleZoom(evt,'out')"/>
                <use id="reset" xlink:href="#resetDef" x="30" y="36" onmousedown="handleReset()"/>
                <g id="arrowUp" xlink:href="#dirArrow" transform="translate(30 24)" onmousedown="handlePan(0,-1)">
                  <use xlink:href="#rim" fill="#404040">
                        <set attributeName="fill" to="#808080" begin="arrowUp.mouseover" end="arrowUp.mouseout"/>
                  </use>
                  <path fill="none" stroke="white" stroke-width="1.5" d="M0,-3.0v7 M-2.5,-0.5L0,-3.0L2.5,-0.5"/>
                </g>
                <g id="arrowRight" xlink:href="#dirArrow" transform="rotate(90) translate(36 -43)" onmousedown="handlePan(1,0)">
                  <use xlink:href="#rim" fill="#404040">
                        <set attributeName="fill" to="#808080" begin="arrowRight.mouseover" end="arrowRight.mouseout"/>
                  </use>
                  <path fill="none" stroke="white" stroke-width="1.5" d="M0,-3.0v7 M-2.5,-0.5L0,-3.0L2.5,-0.5"/>
                </g>
                <g id="arrowDown" xlink:href="#dirArrow" transform="rotate(180) translate(-30 -48)" onmousedown="handlePan(0,1)">
                  <use xlink:href="#rim" fill="#404040">
                        <set attributeName="fill" to="#808080" begin="arrowDown.mouseover" end="arrowDown.mouseout"/>
                  </use>
                  <path fill="none" stroke="white" stroke-width="1.5" d="M0,-3.0v7 M-2.5,-0.5L0,-3.0L2.5,-0.5"/>
                </g>
                <g id="arrowLeft" xlink:href="#dirArrow" transform="rotate(270) translate(-36 17)" onmousedown="handlePan(-1,0)">
                  <use xlink:href="#rim" fill="#404040">
                        <set attributeName="fill" to="#808080" begin="arrowLeft.mouseover" end="arrowLeft.mouseout"/>
                  </use>
                  <path fill="none" stroke="white" stroke-width="1.5" d="M0,-3.0v7 M-2.5,-0.5L0,-3.0L2.5,-0.5"/>
                </g>
        </g>
        <svg viewBox="0 0 15 15" width="100%" height="30px" preserveAspectRatio="xMaxYMin meet">
         <g id="arrow_out" transform="scale(0.3 0.3)">
          <a xlink:href="classrml_1_1internal_1_1omp__connection__v2__coll__graph_org.svg" target="_base">
           <rect id="button" ry="5" rx="5" y="6" x="6" height="38" width="38"
                fill="#f2f5e9" fill-opacity="0.5" stroke="#606060" stroke-width="1.0"/>
           <path id="arrow"
             d="M 11.500037,31.436501 C 11.940474,20.09759 22.043105,11.32322 32.158766,21.979434 L 37.068811,17.246167 C 37.068811,17.246167 37.088388,32 37.088388,32 L 22.160133,31.978069 C 22.160133,31.978069 26.997745,27.140456 26.997745,27.140456 C 18.528582,18.264221 13.291696,25.230495 11.500037,31.436501 z"
             style="fill:#404040;"/>
          </a>
         </g>
        </svg>
</svg>
