<?xml version="1.0" encoding="UTF-8" standalone="no"?>
<!DOCTYPE svg PUBLIC "-//W3C//DTD SVG 1.1//EN"
 "http://www.w3.org/Graphics/SVG/1.1/DTD/svg11.dtd">
<!-- Generated by graphviz version 2.38.0 (20140413.2041)
 -->
<!-- Title: internal::hash_buffer&lt; Key, ValueType, ValueToKey, HashCompare, Allocator &gt; Pages: 1 -->
<svg width="322pt" height="435pt"
 viewBox="0.00 0.00 322.00 435.00" xmlns="http://www.w3.org/2000/svg" xmlns:xlink="http://www.w3.org/1999/xlink">
<g id="graph0" class="graph" transform="scale(1 1) rotate(0) translate(4 431)">
<title>internal::hash_buffer&lt; Key, ValueType, ValueToKey, HashCompare, Allocator &gt;</title>
<polygon fill="white" stroke="none" points="-4,4 -4,-431 318,-431 318,4 -4,4"/>
<!-- Node1 -->
<g id="node1" class="node"><title>Node1</title>
<polygon fill="#bfbfbf" stroke="black" points="59.5,-0.5 59.5,-266.5 218.5,-266.5 218.5,-0.5 59.5,-0.5"/>
<text text-anchor="start" x="67.5" y="-254.5" font-family="Helvetica,sans-Serif" font-size="10.00">internal::hash_buffer</text>
<text text-anchor="start" x="67.5" y="-243.5" font-family="Helvetica,sans-Serif" font-size="10.00">&lt; Key, ValueType, ValueToKey,</text>
<text text-anchor="middle" x="139" y="-232.5" font-family="Helvetica,sans-Serif" font-size="10.00"> HashCompare, Allocator &gt;</text>
<polyline fill="none" stroke="black" points="59.5,-225.5 218.5,-225.5 "/>
<text text-anchor="start" x="67.5" y="-213.5" font-family="Helvetica,sans-Serif" font-size="10.00">+ INITIAL_SIZE</text>
<text text-anchor="start" x="67.5" y="-202.5" font-family="Helvetica,sans-Serif" font-size="10.00">&#45; my_size</text>
<text text-anchor="start" x="67.5" y="-191.5" font-family="Helvetica,sans-Serif" font-size="10.00">&#45; nelements</text>
<polyline fill="none" stroke="black" points="59.5,-184.5 218.5,-184.5 "/>
<text text-anchor="start" x="67.5" y="-172.5" font-family="Helvetica,sans-Serif" font-size="10.00">+ hash_buffer()</text>
<text text-anchor="start" x="67.5" y="-161.5" font-family="Helvetica,sans-Serif" font-size="10.00">+ ~hash_buffer()</text>
<text text-anchor="start" x="67.5" y="-150.5" font-family="Helvetica,sans-Serif" font-size="10.00">+ reset()</text>
<text text-anchor="start" x="67.5" y="-139.5" font-family="Helvetica,sans-Serif" font-size="10.00">+ set_key_func()</text>
<text text-anchor="start" x="67.5" y="-128.5" font-family="Helvetica,sans-Serif" font-size="10.00">+ get_key_func()</text>
<text text-anchor="start" x="67.5" y="-117.5" font-family="Helvetica,sans-Serif" font-size="10.00">+ insert_with_key()</text>
<text text-anchor="start" x="67.5" y="-106.5" font-family="Helvetica,sans-Serif" font-size="10.00">+ find_ref_with_key()</text>
<text text-anchor="start" x="67.5" y="-95.5" font-family="Helvetica,sans-Serif" font-size="10.00">+ find_with_key()</text>
<text text-anchor="start" x="67.5" y="-84.5" font-family="Helvetica,sans-Serif" font-size="10.00">+ delete_with_key()</text>
<text text-anchor="start" x="67.5" y="-73.5" font-family="Helvetica,sans-Serif" font-size="10.00">&#45; mask()</text>
<text text-anchor="start" x="67.5" y="-62.5" font-family="Helvetica,sans-Serif" font-size="10.00">&#45; set_up_free_list()</text>
<text text-anchor="start" x="67.5" y="-51.5" font-family="Helvetica,sans-Serif" font-size="10.00">&#45; grow_array()</text>
<text text-anchor="start" x="67.5" y="-40.5" font-family="Helvetica,sans-Serif" font-size="10.00">&#45; internal_insert_with_key()</text>
<text text-anchor="start" x="67.5" y="-29.5" font-family="Helvetica,sans-Serif" font-size="10.00">&#45; internal_initialize</text>
<text text-anchor="start" x="67.5" y="-18.5" font-family="Helvetica,sans-Serif" font-size="10.00">_buffer()</text>
<text text-anchor="start" x="67.5" y="-7.5" font-family="Helvetica,sans-Serif" font-size="10.00">&#45; internal_free_buffer()</text>
</g>
<!-- Node2 -->
<g id="node2" class="node"><title>Node2</title>
<polygon fill="white" stroke="#bfbfbf" points="0,-353 0,-410 86,-410 86,-353 0,-353"/>
<text text-anchor="middle" x="43" y="-398" font-family="Helvetica,sans-Serif" font-size="10.00">HashCompare</text>
<polyline fill="none" stroke="#bfbfbf" points="0,-391 86,-391 "/>
<text text-anchor="middle" x="43" y="-379" font-family="Helvetica,sans-Serif" font-size="10.00"> </text>
<polyline fill="none" stroke="#bfbfbf" points="0,-372 86,-372 "/>
<text text-anchor="middle" x="43" y="-360" font-family="Helvetica,sans-Serif" font-size="10.00"> </text>
</g>
<!-- Node2&#45;&gt;Node1 -->
<g id="edge1" class="edge"><title>Node2&#45;&gt;Node1</title>
<path fill="none" stroke="midnightblue" d="M57.5085,-343.322C65.6888,-322.36 76.4565,-294.768 87.4732,-266.537"/>
<polygon fill="none" stroke="midnightblue" points="54.2008,-342.171 53.8258,-352.759 60.7218,-344.716 54.2008,-342.171"/>
</g>
<!-- Node3 -->
<g id="node3" class="node"><title>Node3</title>
<polygon fill="white" stroke="#bfbfbf" points="104.5,-353 104.5,-410 173.5,-410 173.5,-353 104.5,-353"/>
<text text-anchor="middle" x="139" y="-398" font-family="Helvetica,sans-Serif" font-size="10.00">ValueToKey</text>
<polyline fill="none" stroke="#bfbfbf" points="104.5,-391 173.5,-391 "/>
<text text-anchor="middle" x="139" y="-379" font-family="Helvetica,sans-Serif" font-size="10.00"> </text>
<polyline fill="none" stroke="#bfbfbf" points="104.5,-372 173.5,-372 "/>
<text text-anchor="middle" x="139" y="-360" font-family="Helvetica,sans-Serif" font-size="10.00"> </text>
</g>
<!-- Node3&#45;&gt;Node1 -->
<g id="edge2" class="edge"><title>Node3&#45;&gt;Node1</title>
<path fill="none" stroke="#404040" d="M139,-352.759C139,-333.793 139,-307.041 139,-278.742"/>
<polygon fill="none" stroke="#404040" points="139,-278.537 135,-272.537 139,-266.537 143,-272.537 139,-278.537"/>
<text text-anchor="middle" x="161" y="-299" font-family="Helvetica,sans-Serif" font-size="10.00"> &#45;my_key</text>
</g>
<!-- Node4 -->
<g id="node4" class="node"><title>Node4</title>
<g id="a_node4"><a xlink:href="structinternal_1_1type__plus__align.html" target="_top" xlink:title="type mimicking std::pair but with trailing fill to ensure each element of an array ...">
<polygon fill="white" stroke="black" points="192,-336.5 192,-426.5 314,-426.5 314,-336.5 192,-336.5"/>
<text text-anchor="start" x="200" y="-414.5" font-family="Helvetica,sans-Serif" font-size="10.00">internal::type_plus</text>
<text text-anchor="middle" x="253" y="-403.5" font-family="Helvetica,sans-Serif" font-size="10.00">_align&lt; T1, T2, REM &gt;</text>
<polyline fill="none" stroke="black" points="192,-396.5 314,-396.5 "/>
<text text-anchor="start" x="200" y="-384.5" font-family="Helvetica,sans-Serif" font-size="10.00">+ first</text>
<text text-anchor="start" x="200" y="-373.5" font-family="Helvetica,sans-Serif" font-size="10.00">+ second</text>
<text text-anchor="start" x="200" y="-362.5" font-family="Helvetica,sans-Serif" font-size="10.00">+ fill1</text>
<polyline fill="none" stroke="black" points="192,-355.5 314,-355.5 "/>
<text text-anchor="middle" x="253" y="-343.5" font-family="Helvetica,sans-Serif" font-size="10.00"> </text>
</a>
</g>
</g>
<!-- Node4&#45;&gt;Node1 -->
<g id="edge3" class="edge"><title>Node4&#45;&gt;Node1</title>
<path fill="none" stroke="#404040" d="M232.487,-336.236C224.654,-319.332 215.234,-299.006 205.432,-277.853"/>
<polygon fill="none" stroke="#404040" points="205.323,-277.618 199.171,-273.856 200.277,-266.73 206.429,-270.492 205.323,-277.618"/>
<text text-anchor="middle" x="262.5" y="-310" font-family="Helvetica,sans-Serif" font-size="10.00"> &#45;free_list</text>
<text text-anchor="middle" x="262.5" y="-299" font-family="Helvetica,sans-Serif" font-size="10.00">&#45;elements_array</text>
<text text-anchor="middle" x="262.5" y="-288" font-family="Helvetica,sans-Serif" font-size="10.00">&#45;pointer_array</text>
</g>
</g>
</svg>
