<?xml version="1.0" encoding="UTF-8" standalone="no"?>
<!DOCTYPE svg PUBLIC "-//W3C//DTD SVG 1.1//EN"
 "http://www.w3.org/Graphics/SVG/1.1/DTD/svg11.dtd">
<!-- Generated by graphviz version 2.38.0 (20140413.2041)
 -->
<!-- Title: GrowBy Pages: 1 -->
<svg width="269pt" height="618pt"
 viewBox="0.00 0.00 268.50 618.00" xmlns="http://www.w3.org/2000/svg" xmlns:xlink="http://www.w3.org/1999/xlink">
<g id="graph0" class="graph" transform="scale(1 1) rotate(0) translate(4 614)">
<title>GrowBy</title>
<polygon fill="white" stroke="none" points="-4,4 -4,-614 264.5,-614 264.5,4 -4,4"/>
<!-- Node1 -->
<g id="node1" class="node"><title>Node1</title>
<polygon fill="#bfbfbf" stroke="black" points="34.5,-0.5 34.5,-68.5 118.5,-68.5 118.5,-0.5 34.5,-0.5"/>
<text text-anchor="middle" x="76.5" y="-56.5" font-family="Helvetica,sans-Serif" font-size="10.00">GrowBy</text>
<polyline fill="none" stroke="black" points="34.5,-49.5 118.5,-49.5 "/>
<text text-anchor="middle" x="76.5" y="-37.5" font-family="Helvetica,sans-Serif" font-size="10.00"> </text>
<polyline fill="none" stroke="black" points="34.5,-30.5 118.5,-30.5 "/>
<text text-anchor="start" x="42.5" y="-18.5" font-family="Helvetica,sans-Serif" font-size="10.00">+ operator()()</text>
<text text-anchor="start" x="42.5" y="-7.5" font-family="Helvetica,sans-Serif" font-size="10.00">+ GrowBy()</text>
</g>
<!-- Node2 -->
<g id="node2" class="node"><title>Node2</title>
<g id="a_node2"><a xlink:href="classtbb_1_1concurrent__vector.html" target="_top" xlink:title="Concurrent vector container. ">
<polygon fill="white" stroke="black" points="0,-116.5 0,-503.5 153,-503.5 153,-116.5 0,-116.5"/>
<text text-anchor="middle" x="76.5" y="-491.5" font-family="Helvetica,sans-Serif" font-size="10.00">tbb::concurrent_vector&lt; T &gt;</text>
<polyline fill="none" stroke="black" points="0,-484.5 153,-484.5 "/>
<text text-anchor="middle" x="76.5" y="-472.5" font-family="Helvetica,sans-Serif" font-size="10.00"> </text>
<polyline fill="none" stroke="black" points="0,-465.5 153,-465.5 "/>
<text text-anchor="start" x="8" y="-453.5" font-family="Helvetica,sans-Serif" font-size="10.00">+ concurrent_vector()</text>
<text text-anchor="start" x="8" y="-442.5" font-family="Helvetica,sans-Serif" font-size="10.00">+ concurrent_vector()</text>
<text text-anchor="start" x="8" y="-431.5" font-family="Helvetica,sans-Serif" font-size="10.00">+ concurrent_vector()</text>
<text text-anchor="start" x="8" y="-420.5" font-family="Helvetica,sans-Serif" font-size="10.00">+ concurrent_vector()</text>
<text text-anchor="start" x="8" y="-409.5" font-family="Helvetica,sans-Serif" font-size="10.00">+ concurrent_vector()</text>
<text text-anchor="start" x="8" y="-398.5" font-family="Helvetica,sans-Serif" font-size="10.00">+ concurrent_vector()</text>
<text text-anchor="start" x="8" y="-387.5" font-family="Helvetica,sans-Serif" font-size="10.00">+ operator=()</text>
<text text-anchor="start" x="8" y="-376.5" font-family="Helvetica,sans-Serif" font-size="10.00">+ operator=()</text>
<text text-anchor="start" x="8" y="-365.5" font-family="Helvetica,sans-Serif" font-size="10.00">+ grow_by()</text>
<text text-anchor="start" x="8" y="-354.5" font-family="Helvetica,sans-Serif" font-size="10.00">+ grow_by()</text>
<text text-anchor="start" x="8" y="-343.5" font-family="Helvetica,sans-Serif" font-size="10.00">and 67 more...</text>
<text text-anchor="start" x="8" y="-332.5" font-family="Helvetica,sans-Serif" font-size="10.00">&#45; internal_free_segments()</text>
<text text-anchor="start" x="8" y="-321.5" font-family="Helvetica,sans-Serif" font-size="10.00">&#45; internal_subscript()</text>
<text text-anchor="start" x="8" y="-310.5" font-family="Helvetica,sans-Serif" font-size="10.00">&#45; internal_subscript</text>
<text text-anchor="start" x="8" y="-299.5" font-family="Helvetica,sans-Serif" font-size="10.00">_with_exceptions()</text>
<text text-anchor="start" x="8" y="-288.5" font-family="Helvetica,sans-Serif" font-size="10.00">&#45; internal_assign_n()</text>
<text text-anchor="start" x="8" y="-277.5" font-family="Helvetica,sans-Serif" font-size="10.00">&#45; internal_assign_range()</text>
<text text-anchor="start" x="8" y="-266.5" font-family="Helvetica,sans-Serif" font-size="10.00">&#45; internal_assign_range()</text>
<text text-anchor="start" x="8" y="-255.5" font-family="Helvetica,sans-Serif" font-size="10.00">&#45; internal_assign_iterators()</text>
<text text-anchor="start" x="8" y="-244.5" font-family="Helvetica,sans-Serif" font-size="10.00">&#45; internal_subscript()</text>
<text text-anchor="start" x="8" y="-233.5" font-family="Helvetica,sans-Serif" font-size="10.00">&#45; internal_allocator()</text>
<text text-anchor="start" x="8" y="-222.5" font-family="Helvetica,sans-Serif" font-size="10.00">&#45; initialize_array()</text>
<text text-anchor="start" x="8" y="-211.5" font-family="Helvetica,sans-Serif" font-size="10.00">&#45; initialize_array_by()</text>
<text text-anchor="start" x="8" y="-200.5" font-family="Helvetica,sans-Serif" font-size="10.00">&#45; copy_array()</text>
<text text-anchor="start" x="8" y="-189.5" font-family="Helvetica,sans-Serif" font-size="10.00">&#45; copy_range()</text>
<text text-anchor="start" x="8" y="-178.5" font-family="Helvetica,sans-Serif" font-size="10.00">&#45; assign_array()</text>
<text text-anchor="start" x="8" y="-167.5" font-family="Helvetica,sans-Serif" font-size="10.00">&#45; destroy_array()</text>
<text text-anchor="start" x="8" y="-156.5" font-family="Helvetica,sans-Serif" font-size="10.00">&#45; initialize_array()</text>
<text text-anchor="start" x="8" y="-145.5" font-family="Helvetica,sans-Serif" font-size="10.00">&#45; copy_array()</text>
<text text-anchor="start" x="8" y="-134.5" font-family="Helvetica,sans-Serif" font-size="10.00">&#45; assign_array()</text>
<text text-anchor="start" x="8" y="-123.5" font-family="Helvetica,sans-Serif" font-size="10.00">&#45; destroy_array()</text>
</a>
</g>
</g>
<!-- Node2&#45;&gt;Node1 -->
<g id="edge1" class="edge"><title>Node2&#45;&gt;Node1</title>
<path fill="none" stroke="#404040" d="M76.5,-116.449C76.5,-103.705 76.5,-91.742 76.5,-81.1239"/>
<polygon fill="none" stroke="#404040" points="76.5001,-80.8772 72.5,-74.8772 76.5,-68.8772 80.5,-74.8772 76.5001,-80.8772"/>
<text text-anchor="middle" x="105.5" y="-90" font-family="Helvetica,sans-Serif" font-size="10.00"> &#45;my_vector</text>
</g>
<!-- Node3 -->
<g id="node3" class="node"><title>Node3</title>
<polygon fill="white" stroke="#bfbfbf" points="10.5,-547 10.5,-604 142.5,-604 142.5,-547 10.5,-547"/>
<text text-anchor="middle" x="76.5" y="-592" font-family="Helvetica,sans-Serif" font-size="10.00">concurrent_vector_base</text>
<polyline fill="none" stroke="#bfbfbf" points="10.5,-585 142.5,-585 "/>
<text text-anchor="middle" x="76.5" y="-573" font-family="Helvetica,sans-Serif" font-size="10.00"> </text>
<polyline fill="none" stroke="#bfbfbf" points="10.5,-566 142.5,-566 "/>
<text text-anchor="middle" x="76.5" y="-554" font-family="Helvetica,sans-Serif" font-size="10.00"> </text>
</g>
<!-- Node3&#45;&gt;Node2 -->
<g id="edge2" class="edge"><title>Node3&#45;&gt;Node2</title>
<path fill="none" stroke="#8b1a1a" d="M71.5997,-536.752C71.1165,-526.944 70.7281,-515.685 70.4342,-503.544"/>
<polygon fill="none" stroke="#8b1a1a" points="68.1085,-537.01 72.1611,-546.799 75.0976,-536.619 68.1085,-537.01"/>
</g>
<!-- Node3&#45;&gt;Node2 -->
<g id="edge4" class="edge"><title>Node3&#45;&gt;Node2</title>
<path fill="none" stroke="#8b1a1a" d="M81.4003,-536.752C81.8835,-526.944 82.2719,-515.685 82.5658,-503.544"/>
<polygon fill="none" stroke="#8b1a1a" points="77.9024,-536.619 80.8389,-546.799 84.8915,-537.01 77.9024,-536.619"/>
</g>
<!-- Node4 -->
<g id="node4" class="node"><title>Node4</title>
<polygon fill="white" stroke="#bfbfbf" points="160.5,-541.5 160.5,-609.5 260.5,-609.5 260.5,-541.5 160.5,-541.5"/>
<text text-anchor="start" x="168.5" y="-597.5" font-family="Helvetica,sans-Serif" font-size="10.00">internal::allocator</text>
<text text-anchor="middle" x="210.5" y="-586.5" font-family="Helvetica,sans-Serif" font-size="10.00">_base&lt; T, A &gt;</text>
<polyline fill="none" stroke="#bfbfbf" points="160.5,-579.5 260.5,-579.5 "/>
<text text-anchor="middle" x="210.5" y="-567.5" font-family="Helvetica,sans-Serif" font-size="10.00"> </text>
<polyline fill="none" stroke="#bfbfbf" points="160.5,-560.5 260.5,-560.5 "/>
<text text-anchor="middle" x="210.5" y="-548.5" font-family="Helvetica,sans-Serif" font-size="10.00"> </text>
</g>
<!-- Node4&#45;&gt;Node2 -->
<g id="edge3" class="edge"><title>Node4&#45;&gt;Node2</title>
<path fill="none" stroke="darkgreen" d="M189.083,-532.386C179.009,-512.575 166.32,-487.623 153.122,-461.67"/>
<polygon fill="none" stroke="darkgreen" points="186.012,-534.067 193.664,-541.394 192.251,-530.894 186.012,-534.067"/>
</g>
</g>
</svg>
