<?xml version="1.0" encoding="UTF-8" standalone="no"?>
<!DOCTYPE svg PUBLIC "-//W3C//DTD SVG 1.1//EN"
 "http://www.w3.org/Graphics/SVG/1.1/DTD/svg11.dtd">
<!-- Generated by graphviz version 2.38.0 (20140413.2041)
 -->
<!-- Title: ComPWA::Exception Pages: 1 -->
<svg width="1331pt" height="331pt"
 viewBox="0.00 0.00 1331.00 331.00" xmlns="http://www.w3.org/2000/svg" xmlns:xlink="http://www.w3.org/1999/xlink">
<g id="graph0" class="graph" transform="scale(1 1) rotate(0) translate(4 327)">
<title>ComPWA::Exception</title>
<polygon fill="white" stroke="none" points="-4,4 -4,-327 1327,-327 1327,4 -4,4"/>
<!-- Node1 -->
<g id="node1" class="node"><title>Node1</title>
<polygon fill="#bfbfbf" stroke="black" points="558.5,-116.5 558.5,-228.5 668.5,-228.5 668.5,-116.5 558.5,-116.5"/>
<text text-anchor="middle" x="613.5" y="-216.5" font-family="Helvetica,sans-Serif" font-size="10.00">ComPWA::Exception</text>
<polyline fill="none" stroke="black" points="558.5,-209.5 668.5,-209.5 "/>
<text text-anchor="start" x="566.5" y="-197.5" font-family="Helvetica,sans-Serif" font-size="10.00"># what_</text>
<polyline fill="none" stroke="black" points="558.5,-190.5 668.5,-190.5 "/>
<text text-anchor="start" x="566.5" y="-178.5" font-family="Helvetica,sans-Serif" font-size="10.00">+ Exception()</text>
<text text-anchor="start" x="566.5" y="-167.5" font-family="Helvetica,sans-Serif" font-size="10.00">+ operator=()</text>
<text text-anchor="start" x="566.5" y="-156.5" font-family="Helvetica,sans-Serif" font-size="10.00">+ ~Exception()</text>
<text text-anchor="start" x="566.5" y="-145.5" font-family="Helvetica,sans-Serif" font-size="10.00">+ what()</text>
<text text-anchor="start" x="566.5" y="-134.5" font-family="Helvetica,sans-Serif" font-size="10.00"># Exception()</text>
<text text-anchor="start" x="566.5" y="-123.5" font-family="Helvetica,sans-Serif" font-size="10.00"># Exception()</text>
</g>
<!-- Node3 -->
<g id="node3" class="node"><title>Node3</title>
<g id="a_node3"><a xlink:href="classComPWA_1_1BadConfig.html" target="_top" xlink:title="Config is not complete. ">
<polygon fill="white" stroke="black" points="0,-0.5 0,-79.5 113,-79.5 113,-0.5 0,-0.5"/>
<text text-anchor="middle" x="56.5" y="-67.5" font-family="Helvetica,sans-Serif" font-size="10.00">ComPWA::BadConfig</text>
<polyline fill="none" stroke="black" points="0,-60.5 113,-60.5 "/>
<text text-anchor="middle" x="56.5" y="-48.5" font-family="Helvetica,sans-Serif" font-size="10.00"> </text>
<polyline fill="none" stroke="black" points="0,-41.5 113,-41.5 "/>
<text text-anchor="start" x="8" y="-29.5" font-family="Helvetica,sans-Serif" font-size="10.00">+ BadConfig()</text>
<text text-anchor="start" x="8" y="-18.5" font-family="Helvetica,sans-Serif" font-size="10.00">+ BadConfig()</text>
<text text-anchor="start" x="8" y="-7.5" font-family="Helvetica,sans-Serif" font-size="10.00">+ ~BadConfig()</text>
</a>
</g>
</g>
<!-- Node1&#45;&gt;Node3 -->
<g id="edge2" class="edge"><title>Node1&#45;&gt;Node3</title>
<path fill="none" stroke="midnightblue" d="M548.304,-166.62C452.384,-157.84 268.78,-134.889 122.5,-80 119.385,-78.8311 116.249,-77.5185 113.125,-76.1015"/>
<polygon fill="none" stroke="midnightblue" points="548.162,-170.121 558.434,-167.524 548.785,-163.149 548.162,-170.121"/>
</g>
<!-- Node4 -->
<g id="node4" class="node"><title>Node4</title>
<g id="a_node4"><a xlink:href="classComPWA_1_1BadIndex.html" target="_top" xlink:title="Index out of range. ">
<polygon fill="white" stroke="black" points="131.5,-0.5 131.5,-79.5 239.5,-79.5 239.5,-0.5 131.5,-0.5"/>
<text text-anchor="middle" x="185.5" y="-67.5" font-family="Helvetica,sans-Serif" font-size="10.00">ComPWA::BadIndex</text>
<polyline fill="none" stroke="black" points="131.5,-60.5 239.5,-60.5 "/>
<text text-anchor="middle" x="185.5" y="-48.5" font-family="Helvetica,sans-Serif" font-size="10.00"> </text>
<polyline fill="none" stroke="black" points="131.5,-41.5 239.5,-41.5 "/>
<text text-anchor="start" x="139.5" y="-29.5" font-family="Helvetica,sans-Serif" font-size="10.00">+ BadIndex()</text>
<text text-anchor="start" x="139.5" y="-18.5" font-family="Helvetica,sans-Serif" font-size="10.00">+ BadIndex()</text>
<text text-anchor="start" x="139.5" y="-7.5" font-family="Helvetica,sans-Serif" font-size="10.00">+ ~BadIndex()</text>
</a>
</g>
</g>
<!-- Node1&#45;&gt;Node4 -->
<g id="edge3" class="edge"><title>Node1&#45;&gt;Node4</title>
<path fill="none" stroke="midnightblue" d="M548.13,-161.393C473.548,-148.445 348.928,-122.456 248.5,-80 245.538,-78.7478 242.554,-77.3682 239.579,-75.8981"/>
<polygon fill="none" stroke="midnightblue" points="547.867,-164.898 558.314,-163.133 549.046,-157.998 547.867,-164.898"/>
</g>
<!-- Node5 -->
<g id="node5" class="node"><title>Node5</title>
<g id="a_node5"><a xlink:href="classComPWA_1_1BadParameter.html" target="_top" xlink:title="Parameter not existing. ">
<polygon fill="white" stroke="black" points="258,-0.5 258,-79.5 387,-79.5 387,-0.5 258,-0.5"/>
<text text-anchor="middle" x="322.5" y="-67.5" font-family="Helvetica,sans-Serif" font-size="10.00">ComPWA::BadParameter</text>
<polyline fill="none" stroke="black" points="258,-60.5 387,-60.5 "/>
<text text-anchor="middle" x="322.5" y="-48.5" font-family="Helvetica,sans-Serif" font-size="10.00"> </text>
<polyline fill="none" stroke="black" points="258,-41.5 387,-41.5 "/>
<text text-anchor="start" x="266" y="-29.5" font-family="Helvetica,sans-Serif" font-size="10.00">+ BadParameter()</text>
<text text-anchor="start" x="266" y="-18.5" font-family="Helvetica,sans-Serif" font-size="10.00">+ BadParameter()</text>
<text text-anchor="start" x="266" y="-7.5" font-family="Helvetica,sans-Serif" font-size="10.00">+ ~BadParameter()</text>
</a>
</g>
</g>
<!-- Node1&#45;&gt;Node5 -->
<g id="edge4" class="edge"><title>Node1&#45;&gt;Node5</title>
<path fill="none" stroke="midnightblue" d="M548.753,-145.901C505.277,-128.297 446.939,-103.871 396.5,-80 393.481,-78.5712 390.407,-77.0843 387.313,-75.5613"/>
<polygon fill="none" stroke="midnightblue" points="547.492,-149.166 558.075,-149.663 550.111,-142.675 547.492,-149.166"/>
</g>
<!-- Node6 -->
<g id="node6" class="node"><title>Node6</title>
<g id="a_node6"><a xlink:href="classComPWA_1_1BeyondPhsp.html" target="_top" xlink:title="Data beyond phasespace requested. ">
<polygon fill="white" stroke="black" points="405.5,-0.5 405.5,-79.5 527.5,-79.5 527.5,-0.5 405.5,-0.5"/>
<text text-anchor="middle" x="466.5" y="-67.5" font-family="Helvetica,sans-Serif" font-size="10.00">ComPWA::BeyondPhsp</text>
<polyline fill="none" stroke="black" points="405.5,-60.5 527.5,-60.5 "/>
<text text-anchor="middle" x="466.5" y="-48.5" font-family="Helvetica,sans-Serif" font-size="10.00"> </text>
<polyline fill="none" stroke="black" points="405.5,-41.5 527.5,-41.5 "/>
<text text-anchor="start" x="413.5" y="-29.5" font-family="Helvetica,sans-Serif" font-size="10.00">+ BeyondPhsp()</text>
<text text-anchor="start" x="413.5" y="-18.5" font-family="Helvetica,sans-Serif" font-size="10.00">+ BeyondPhsp()</text>
<text text-anchor="start" x="413.5" y="-7.5" font-family="Helvetica,sans-Serif" font-size="10.00">+ ~BeyondPhsp()</text>
</a>
</g>
</g>
<!-- Node1&#45;&gt;Node6 -->
<g id="edge5" class="edge"><title>Node1&#45;&gt;Node6</title>
<path fill="none" stroke="midnightblue" d="M550.782,-115.821C537.051,-103.632 522.807,-90.9872 510.024,-79.6384"/>
<polygon fill="none" stroke="midnightblue" points="548.542,-118.514 558.344,-122.535 553.19,-113.279 548.542,-118.514"/>
</g>
<!-- Node7 -->
<g id="node7" class="node"><title>Node7</title>
<g id="a_node7"><a xlink:href="classComPWA_1_1ParameterFixed.html" target="_top" xlink:title="Parameter cannot be changed. ">
<polygon fill="white" stroke="black" points="545.5,-0.5 545.5,-79.5 681.5,-79.5 681.5,-0.5 545.5,-0.5"/>
<text text-anchor="middle" x="613.5" y="-67.5" font-family="Helvetica,sans-Serif" font-size="10.00">ComPWA::ParameterFixed</text>
<polyline fill="none" stroke="black" points="545.5,-60.5 681.5,-60.5 "/>
<text text-anchor="middle" x="613.5" y="-48.5" font-family="Helvetica,sans-Serif" font-size="10.00"> </text>
<polyline fill="none" stroke="black" points="545.5,-41.5 681.5,-41.5 "/>
<text text-anchor="start" x="553.5" y="-29.5" font-family="Helvetica,sans-Serif" font-size="10.00">+ ParameterFixed()</text>
<text text-anchor="start" x="553.5" y="-18.5" font-family="Helvetica,sans-Serif" font-size="10.00">+ ParameterFixed()</text>
<text text-anchor="start" x="553.5" y="-7.5" font-family="Helvetica,sans-Serif" font-size="10.00">+ ~ParameterFixed()</text>
</a>
</g>
</g>
<!-- Node1&#45;&gt;Node7 -->
<g id="edge6" class="edge"><title>Node1&#45;&gt;Node7</title>
<path fill="none" stroke="midnightblue" d="M613.5,-106.056C613.5,-97.0806 613.5,-88.1097 613.5,-79.823"/>
<polygon fill="none" stroke="midnightblue" points="610,-106.156 613.5,-116.156 617,-106.156 610,-106.156"/>
</g>
<!-- Node8 -->
<g id="node8" class="node"><title>Node8</title>
<g id="a_node8"><a xlink:href="classComPWA_1_1ParameterOutOfBound.html" target="_top" xlink:title="Parameter out of bound. ">
<polygon fill="white" stroke="black" points="699.5,-0.5 699.5,-79.5 865.5,-79.5 865.5,-0.5 699.5,-0.5"/>
<text text-anchor="middle" x="782.5" y="-67.5" font-family="Helvetica,sans-Serif" font-size="10.00">ComPWA::ParameterOutOfBound</text>
<polyline fill="none" stroke="black" points="699.5,-60.5 865.5,-60.5 "/>
<text text-anchor="middle" x="782.5" y="-48.5" font-family="Helvetica,sans-Serif" font-size="10.00"> </text>
<polyline fill="none" stroke="black" points="699.5,-41.5 865.5,-41.5 "/>
<text text-anchor="start" x="707.5" y="-29.5" font-family="Helvetica,sans-Serif" font-size="10.00">+ ParameterOutOfBound()</text>
<text text-anchor="start" x="707.5" y="-18.5" font-family="Helvetica,sans-Serif" font-size="10.00">+ ParameterOutOfBound()</text>
<text text-anchor="start" x="707.5" y="-7.5" font-family="Helvetica,sans-Serif" font-size="10.00">+ ~ParameterOutOfBound()</text>
</a>
</g>
</g>
<!-- Node1&#45;&gt;Node8 -->
<g id="edge7" class="edge"><title>Node1&#45;&gt;Node8</title>
<path fill="none" stroke="midnightblue" d="M677.131,-122.364C695.427,-108.237 715.114,-93.0348 732.463,-79.6384"/>
<polygon fill="none" stroke="midnightblue" points="674.613,-119.887 668.837,-128.769 678.891,-125.428 674.613,-119.887"/>
</g>
<!-- Node9 -->
<g id="node9" class="node"><title>Node9</title>
<g id="a_node9"><a xlink:href="classComPWA_1_1TreeBuildError.html" target="_top" xlink:title="Error in tree at construction. ">
<polygon fill="white" stroke="black" points="884,-0.5 884,-79.5 1013,-79.5 1013,-0.5 884,-0.5"/>
<text text-anchor="middle" x="948.5" y="-67.5" font-family="Helvetica,sans-Serif" font-size="10.00">ComPWA::TreeBuildError</text>
<polyline fill="none" stroke="black" points="884,-60.5 1013,-60.5 "/>
<text text-anchor="middle" x="948.5" y="-48.5" font-family="Helvetica,sans-Serif" font-size="10.00"> </text>
<polyline fill="none" stroke="black" points="884,-41.5 1013,-41.5 "/>
<text text-anchor="start" x="892" y="-29.5" font-family="Helvetica,sans-Serif" font-size="10.00">+ TreeBuildError()</text>
<text text-anchor="start" x="892" y="-18.5" font-family="Helvetica,sans-Serif" font-size="10.00">+ TreeBuildError()</text>
<text text-anchor="start" x="892" y="-7.5" font-family="Helvetica,sans-Serif" font-size="10.00">+ ~TreeBuildError()</text>
</a>
</g>
</g>
<!-- Node1&#45;&gt;Node9 -->
<g id="edge8" class="edge"><title>Node1&#45;&gt;Node9</title>
<path fill="none" stroke="midnightblue" d="M678.333,-151.723C731.774,-134.723 809.134,-108.496 874.5,-80 877.562,-78.6652 880.671,-77.2554 883.794,-75.795"/>
<polygon fill="none" stroke="midnightblue" points="677.12,-148.436 668.641,-154.789 679.231,-155.11 677.12,-148.436"/>
</g>
<!-- Node10 -->
<g id="node10" class="node"><title>Node10</title>
<g id="a_node10"><a xlink:href="classComPWA_1_1WrongParType.html" target="_top" xlink:title="Parameter of wrong type. ">
<polygon fill="white" stroke="black" points="1031.5,-0.5 1031.5,-79.5 1163.5,-79.5 1163.5,-0.5 1031.5,-0.5"/>
<text text-anchor="middle" x="1097.5" y="-67.5" font-family="Helvetica,sans-Serif" font-size="10.00">ComPWA::WrongParType</text>
<polyline fill="none" stroke="black" points="1031.5,-60.5 1163.5,-60.5 "/>
<text text-anchor="middle" x="1097.5" y="-48.5" font-family="Helvetica,sans-Serif" font-size="10.00"> </text>
<polyline fill="none" stroke="black" points="1031.5,-41.5 1163.5,-41.5 "/>
<text text-anchor="start" x="1039.5" y="-29.5" font-family="Helvetica,sans-Serif" font-size="10.00">+ WrongParType()</text>
<text text-anchor="start" x="1039.5" y="-18.5" font-family="Helvetica,sans-Serif" font-size="10.00">+ WrongParType()</text>
<text text-anchor="start" x="1039.5" y="-7.5" font-family="Helvetica,sans-Serif" font-size="10.00">+ ~WrongParType()</text>
</a>
</g>
</g>
<!-- Node1&#45;&gt;Node10 -->
<g id="edge9" class="edge"><title>Node1&#45;&gt;Node10</title>
<path fill="none" stroke="midnightblue" d="M678.628,-162.281C760.592,-149.474 904.878,-122.909 1022.5,-80 1025.4,-78.9438 1028.32,-77.7984 1031.25,-76.5856"/>
<polygon fill="none" stroke="midnightblue" points="678.054,-158.828 668.704,-163.812 679.121,-165.746 678.054,-158.828"/>
</g>
<!-- Node11 -->
<g id="node11" class="node"><title>Node11</title>
<g id="a_node11"><a xlink:href="classComPWA_1_1WrongVariableID.html" target="_top" xlink:title="Variable not found. ">
<polygon fill="white" stroke="black" points="1182,-0.5 1182,-79.5 1323,-79.5 1323,-0.5 1182,-0.5"/>
<text text-anchor="middle" x="1252.5" y="-67.5" font-family="Helvetica,sans-Serif" font-size="10.00">ComPWA::WrongVariableID</text>
<polyline fill="none" stroke="black" points="1182,-60.5 1323,-60.5 "/>
<text text-anchor="middle" x="1252.5" y="-48.5" font-family="Helvetica,sans-Serif" font-size="10.00"> </text>
<polyline fill="none" stroke="black" points="1182,-41.5 1323,-41.5 "/>
<text text-anchor="start" x="1190" y="-29.5" font-family="Helvetica,sans-Serif" font-size="10.00">+ WrongVariableID()</text>
<text text-anchor="start" x="1190" y="-18.5" font-family="Helvetica,sans-Serif" font-size="10.00">+ WrongVariableID()</text>
<text text-anchor="start" x="1190" y="-7.5" font-family="Helvetica,sans-Serif" font-size="10.00">+ ~WrongVariableID()</text>
</a>
</g>
</g>
<!-- Node1&#45;&gt;Node11 -->
<g id="edge10" class="edge"><title>Node1&#45;&gt;Node11</title>
<path fill="none" stroke="midnightblue" d="M678.903,-166.992C784.765,-158.33 999.273,-135.093 1172.5,-80 1175.59,-79.0166 1178.72,-77.9321 1181.84,-76.7696"/>
<polygon fill="none" stroke="midnightblue" points="678.383,-163.522 668.694,-167.809 678.942,-170.5 678.383,-163.522"/>
</g>
<!-- Node2 -->
<g id="node2" class="node"><title>Node2</title>
<polygon fill="white" stroke="#bfbfbf" points="574.5,-265.5 574.5,-322.5 652.5,-322.5 652.5,-265.5 574.5,-265.5"/>
<text text-anchor="middle" x="613.5" y="-310.5" font-family="Helvetica,sans-Serif" font-size="10.00">std::exception</text>
<polyline fill="none" stroke="#bfbfbf" points="574.5,-303.5 652.5,-303.5 "/>
<text text-anchor="middle" x="613.5" y="-291.5" font-family="Helvetica,sans-Serif" font-size="10.00"> </text>
<polyline fill="none" stroke="#bfbfbf" points="574.5,-284.5 652.5,-284.5 "/>
<text text-anchor="middle" x="613.5" y="-272.5" font-family="Helvetica,sans-Serif" font-size="10.00"> </text>
</g>
<!-- Node2&#45;&gt;Node1 -->
<g id="edge1" class="edge"><title>Node2&#45;&gt;Node1</title>
<path fill="none" stroke="midnightblue" d="M613.5,-255.108C613.5,-246.748 613.5,-237.725 613.5,-228.834"/>
<polygon fill="none" stroke="midnightblue" points="610,-255.284 613.5,-265.284 617,-255.284 610,-255.284"/>
</g>
</g>
</svg>
