<?xml version="1.0" encoding="UTF-8" standalone="no"?>
<!DOCTYPE svg PUBLIC "-//W3C//DTD SVG 1.1//EN"
 "http://www.w3.org/Graphics/SVG/1.1/DTD/svg11.dtd">
<!-- Generated by graphviz version 2.38.0 (20140413.2041)
 -->
<!-- Title: Test_PFor_Skewed Pages: 1 -->
<svg width="168pt" height="386pt"
 viewBox="0.00 0.00 168.00 386.00" xmlns="http://www.w3.org/2000/svg" xmlns:xlink="http://www.w3.org/1999/xlink">
<g id="graph0" class="graph" transform="scale(1 1) rotate(0) translate(4 382)">
<title>Test_PFor_Skewed</title>
<polygon fill="white" stroke="none" points="-4,4 -4,-382 164,-382 164,4 -4,4"/>
<!-- Node1 -->
<g id="node1" class="node"><title>Node1</title>
<polygon fill="#bfbfbf" stroke="black" points="19,-0.5 19,-79.5 141,-79.5 141,-0.5 19,-0.5"/>
<text text-anchor="middle" x="80" y="-67.5" font-family="Helvetica,sans-Serif" font-size="10.00">Test_PFor_Skewed</text>
<polyline fill="none" stroke="black" points="19,-60.5 141,-60.5 "/>
<text text-anchor="middle" x="80" y="-48.5" font-family="Helvetica,sans-Serif" font-size="10.00"> </text>
<polyline fill="none" stroke="black" points="19,-41.5 141,-41.5 "/>
<text text-anchor="start" x="27" y="-29.5" font-family="Helvetica,sans-Serif" font-size="10.00">+ Test_PFor_Skewed()</text>
<text text-anchor="start" x="27" y="-18.5" font-family="Helvetica,sans-Serif" font-size="10.00"># Name()</text>
<text text-anchor="start" x="27" y="-7.5" font-family="Helvetica,sans-Serif" font-size="10.00"># SetWorkload()</text>
</g>
<!-- Node2 -->
<g id="node2" class="node"><title>Node2</title>
<g id="a_node2"><a xlink:href="classTest__PFor.html" target="_top" xlink:title="{Test_PFor\&lt; SkewedForBody \&gt;\n||+ Test_PFor()\l# Run()\l# RunSerial()\l}">
<polygon fill="white" stroke="black" points="0,-116.5 0,-195.5 160,-195.5 160,-116.5 0,-116.5"/>
<text text-anchor="middle" x="80" y="-183.5" font-family="Helvetica,sans-Serif" font-size="10.00">Test_PFor&lt; SkewedForBody &gt;</text>
<polyline fill="none" stroke="black" points="0,-176.5 160,-176.5 "/>
<text text-anchor="middle" x="80" y="-164.5" font-family="Helvetica,sans-Serif" font-size="10.00"> </text>
<polyline fill="none" stroke="black" points="0,-157.5 160,-157.5 "/>
<text text-anchor="start" x="8" y="-145.5" font-family="Helvetica,sans-Serif" font-size="10.00">+ Test_PFor()</text>
<text text-anchor="start" x="8" y="-134.5" font-family="Helvetica,sans-Serif" font-size="10.00"># Run()</text>
<text text-anchor="start" x="8" y="-123.5" font-family="Helvetica,sans-Serif" font-size="10.00"># RunSerial()</text>
</a>
</g>
</g>
<!-- Node2&#45;&gt;Node1 -->
<g id="edge1" class="edge"><title>Node2&#45;&gt;Node1</title>
<path fill="none" stroke="midnightblue" d="M80,-106.146C80,-97.256 80,-88.0961 80,-79.5555"/>
<polygon fill="none" stroke="midnightblue" points="76.5001,-106.405 80,-116.405 83.5001,-106.405 76.5001,-106.405"/>
</g>
<!-- Node3 -->
<g id="node3" class="node"><title>Node3</title>
<g id="a_node3"><a xlink:href="classTest__Algs.html" target="_top" xlink:title="{Test_Algs\n|# my_simplePartitioner\l# my_autoPartitioner\l# my_partitionerType\l# numWorkloads\l# algRanges\l# algGrains\l|+ Test_Algs()\l# UseAutoPartitioner()\l# NumWorkloads()\l# SetWorkload()\l}">
<polygon fill="white" stroke="red" points="16,-232.5 16,-377.5 144,-377.5 144,-232.5 16,-232.5"/>
<text text-anchor="middle" x="80" y="-365.5" font-family="Helvetica,sans-Serif" font-size="10.00">Test_Algs</text>
<polyline fill="none" stroke="red" points="16,-358.5 144,-358.5 "/>
<text text-anchor="start" x="24" y="-346.5" font-family="Helvetica,sans-Serif" font-size="10.00"># my_simplePartitioner</text>
<text text-anchor="start" x="24" y="-335.5" font-family="Helvetica,sans-Serif" font-size="10.00"># my_autoPartitioner</text>
<text text-anchor="start" x="24" y="-324.5" font-family="Helvetica,sans-Serif" font-size="10.00"># my_partitionerType</text>
<text text-anchor="start" x="24" y="-313.5" font-family="Helvetica,sans-Serif" font-size="10.00"># numWorkloads</text>
<text text-anchor="start" x="24" y="-302.5" font-family="Helvetica,sans-Serif" font-size="10.00"># algRanges</text>
<text text-anchor="start" x="24" y="-291.5" font-family="Helvetica,sans-Serif" font-size="10.00"># algGrains</text>
<polyline fill="none" stroke="red" points="16,-284.5 144,-284.5 "/>
<text text-anchor="start" x="24" y="-272.5" font-family="Helvetica,sans-Serif" font-size="10.00">+ Test_Algs()</text>
<text text-anchor="start" x="24" y="-261.5" font-family="Helvetica,sans-Serif" font-size="10.00"># UseAutoPartitioner()</text>
<text text-anchor="start" x="24" y="-250.5" font-family="Helvetica,sans-Serif" font-size="10.00"># NumWorkloads()</text>
<text text-anchor="start" x="24" y="-239.5" font-family="Helvetica,sans-Serif" font-size="10.00"># SetWorkload()</text>
</a>
</g>
</g>
<!-- Node3&#45;&gt;Node2 -->
<g id="edge2" class="edge"><title>Node3&#45;&gt;Node2</title>
<path fill="none" stroke="midnightblue" d="M80,-221.954C80,-212.899 80,-204.019 80,-195.875"/>
<polygon fill="none" stroke="midnightblue" points="76.5001,-222.222 80,-232.223 83.5001,-222.223 76.5001,-222.222"/>
</g>
</g>
</svg>
