<?xml version="1.0" encoding="UTF-8" standalone="no"?>
<!DOCTYPE svg PUBLIC "-//W3C//DTD SVG 1.1//EN"
 "http://www.w3.org/Graphics/SVG/1.1/DTD/svg11.dtd">
<!-- Generated by graphviz version 2.38.0 (20140413.2041)
 -->
<!-- Title: ComPWA::StdUniformRealGenerator Pages: 1 -->
<svg width="199pt" height="259pt"
 viewBox="0.00 0.00 199.00 259.00" xmlns="http://www.w3.org/2000/svg" xmlns:xlink="http://www.w3.org/1999/xlink">
<g id="graph0" class="graph" transform="scale(1 1) rotate(0) translate(4 255)">
<title>ComPWA::StdUniformRealGenerator</title>
<polygon fill="white" stroke="none" points="-4,4 -4,-255 195,-255 195,4 -4,4"/>
<!-- Node1 -->
<g id="node1" class="node"><title>Node1</title>
<polygon fill="#bfbfbf" stroke="black" points="0,-0.5 0,-112.5 191,-112.5 191,-0.5 0,-0.5"/>
<text text-anchor="middle" x="95.5" y="-100.5" font-family="Helvetica,sans-Serif" font-size="10.00">ComPWA::StdUniformRealGenerator</text>
<polyline fill="none" stroke="black" points="0,-93.5 191,-93.5 "/>
<text text-anchor="start" x="8" y="-81.5" font-family="Helvetica,sans-Serif" font-size="10.00">&#45; MersenneTwisterRandomGenerator</text>
<text text-anchor="start" x="8" y="-70.5" font-family="Helvetica,sans-Serif" font-size="10.00">&#45; UniformDistribution</text>
<text text-anchor="start" x="8" y="-59.5" font-family="Helvetica,sans-Serif" font-size="10.00">&#45; Seed</text>
<polyline fill="none" stroke="black" points="0,-52.5 191,-52.5 "/>
<text text-anchor="start" x="8" y="-40.5" font-family="Helvetica,sans-Serif" font-size="10.00">+ StdUniformRealGenerator()</text>
<text text-anchor="start" x="8" y="-29.5" font-family="Helvetica,sans-Serif" font-size="10.00">+ operator()()</text>
<text text-anchor="start" x="8" y="-18.5" font-family="Helvetica,sans-Serif" font-size="10.00">+ getSeed()</text>
<text text-anchor="start" x="8" y="-7.5" font-family="Helvetica,sans-Serif" font-size="10.00">+ setSeed()</text>
</g>
<!-- Node2 -->
<g id="node2" class="node"><title>Node2</title>
<g id="a_node2"><a xlink:href="classComPWA_1_1UniformRealNumberGenerator.html" target="_top" xlink:title="{ComPWA::UniformRealNumber\lGenerator\n||+ ~UniformRealNumberGenerator()\l+ operator()()\l+ getSeed()\l+ setSeed()\l}">
<polygon fill="white" stroke="black" points="1,-149.5 1,-250.5 190,-250.5 190,-149.5 1,-149.5"/>
<text text-anchor="start" x="9" y="-238.5" font-family="Helvetica,sans-Serif" font-size="10.00">ComPWA::UniformRealNumber</text>
<text text-anchor="middle" x="95.5" y="-227.5" font-family="Helvetica,sans-Serif" font-size="10.00">Generator</text>
<polyline fill="none" stroke="black" points="1,-220.5 190,-220.5 "/>
<text text-anchor="middle" x="95.5" y="-208.5" font-family="Helvetica,sans-Serif" font-size="10.00"> </text>
<polyline fill="none" stroke="black" points="1,-201.5 190,-201.5 "/>
<text text-anchor="start" x="9" y="-189.5" font-family="Helvetica,sans-Serif" font-size="10.00">+ ~UniformRealNumberGenerator()</text>
<text text-anchor="start" x="9" y="-178.5" font-family="Helvetica,sans-Serif" font-size="10.00">+ operator()()</text>
<text text-anchor="start" x="9" y="-167.5" font-family="Helvetica,sans-Serif" font-size="10.00">+ getSeed()</text>
<text text-anchor="start" x="9" y="-156.5" font-family="Helvetica,sans-Serif" font-size="10.00">+ setSeed()</text>
</a>
</g>
</g>
<!-- Node2&#45;&gt;Node1 -->
<g id="edge1" class="edge"><title>Node2&#45;&gt;Node1</title>
<path fill="none" stroke="midnightblue" d="M95.5,-139.008C95.5,-130.286 95.5,-121.34 95.5,-112.717"/>
<polygon fill="none" stroke="midnightblue" points="92.0001,-139.112 95.5,-149.112 99.0001,-139.112 92.0001,-139.112"/>
</g>
</g>
</svg>
