<?xml version="1.0" encoding="UTF-8" standalone="no"?>
<!DOCTYPE svg PUBLIC "-//W3C//DTD SVG 1.1//EN"
 "http://www.w3.org/Graphics/SVG/1.1/DTD/svg11.dtd">
<!-- Generated by graphviz version 2.38.0 (20140413.2041)
 -->
<!-- Title: tbb::internal::arena Pages: 1 -->
<!--zoomable 541 -->
<svg id="main" version="1.1" xmlns="http://www.w3.org/2000/svg" xmlns:xlink="http://www.w3.org/1999/xlink" xml:space="preserve" onload="init(evt)">
<style type="text/css"><![CDATA[
.edge:hover path { stroke: red; }
.edge:hover polygon { stroke: red; fill: red; }
]]></style>
<script type="text/javascript"><![CDATA[
var edges = document.getElementsByTagName('g');
if (edges && edges.length) {
  for (var i=0;i<edges.length;i++) {
    if (edges[i].id.substr(0,4)=='edge') {
      edges[i].setAttribute('class','edge');
    }
  }
}
]]></script>
        <defs>
                <circle id="rim" cx="0" cy="0" r="7"/>
                <circle id="rim2" cx="0" cy="0" r="3.5"/>
                <g id="zoomPlus">
                        <use xlink:href="#rim" fill="#404040">
                                <set attributeName="fill" to="#808080" begin="zoomplus.mouseover" end="zoomplus.mouseout"/>
                        </use>
                        <path d="M-4,0h8M0,-4v8" fill="none" stroke="white" stroke-width="1.5" pointer-events="none"/>
                </g>
                <g id="zoomMin">
                        <use xlink:href="#rim" fill="#404040">
                                <set attributeName="fill" to="#808080" begin="zoomminus.mouseover" end="zoomminus.mouseout"/>
                        </use>
                        <path d="M-4,0h8" fill="none" stroke="white" stroke-width="1.5" pointer-events="none"/>
                </g>
                <g id="dirArrow">
                        <path fill="none" stroke="white" stroke-width="1.5" d="M0,-3.0v7 M-2.5,-0.5L0,-3.0L2.5,-0.5"/>
                </g>
               <g id="resetDef">
                       <use xlink:href="#rim2" fill="#404040">
                               <set attributeName="fill" to="#808080" begin="reset.mouseover" end="reset.mouseout"/>
                       </use>
               </g>
        </defs>

<script type="text/javascript">
var viewWidth = 354;
var viewHeight = 541;
var sectionId = 'dynsection-1';
</script>
<script xlink:href="svgpan.js"/>
<svg id="graph" class="graph">
<g id="viewport">
<title>tbb::internal::arena</title>
<polygon fill="white" stroke="none" points="-4,4 -4,-537 349.5,-537 349.5,4 -4,4"/>
<!-- Node1 -->
<g id="node1" class="node"><title>Node1</title>
<polygon fill="#bfbfbf" stroke="black" points="41,-0.5 41,-299.5 184,-299.5 184,-0.5 41,-0.5"/>
<text text-anchor="middle" x="112.5" y="-287.5" font-family="Helvetica,sans-Serif" font-size="10.00">tbb::internal::arena</text>
<polyline fill="none" stroke="black" points="41,-280.5 184,-280.5 "/>
<text text-anchor="start" x="49" y="-268.5" font-family="Helvetica,sans-Serif" font-size="10.00">+ SNAPSHOT_EMPTY</text>
<text text-anchor="start" x="49" y="-257.5" font-family="Helvetica,sans-Serif" font-size="10.00">+ SNAPSHOT_FULL</text>
<text text-anchor="start" x="49" y="-246.5" font-family="Helvetica,sans-Serif" font-size="10.00">+ ref_external_bits</text>
<text text-anchor="start" x="49" y="-235.5" font-family="Helvetica,sans-Serif" font-size="10.00">+ ref_external</text>
<text text-anchor="start" x="49" y="-224.5" font-family="Helvetica,sans-Serif" font-size="10.00">+ ref_worker</text>
<text text-anchor="start" x="49" y="-213.5" font-family="Helvetica,sans-Serif" font-size="10.00">+ out_of_arena</text>
<polyline fill="none" stroke="black" points="41,-206.5 184,-206.5 "/>
<text text-anchor="start" x="49" y="-194.5" font-family="Helvetica,sans-Serif" font-size="10.00">+ arena()</text>
<text text-anchor="start" x="49" y="-183.5" font-family="Helvetica,sans-Serif" font-size="10.00">+ mailbox()</text>
<text text-anchor="start" x="49" y="-172.5" font-family="Helvetica,sans-Serif" font-size="10.00">+ free_arena()</text>
<text text-anchor="start" x="49" y="-161.5" font-family="Helvetica,sans-Serif" font-size="10.00">+ num_workers_active()</text>
<text text-anchor="start" x="49" y="-150.5" font-family="Helvetica,sans-Serif" font-size="10.00">+ advertise_new_work()</text>
<text text-anchor="start" x="49" y="-139.5" font-family="Helvetica,sans-Serif" font-size="10.00">+ is_out_of_work()</text>
<text text-anchor="start" x="49" y="-128.5" font-family="Helvetica,sans-Serif" font-size="10.00">+ enqueue_task()</text>
<text text-anchor="start" x="49" y="-117.5" font-family="Helvetica,sans-Serif" font-size="10.00">+ process()</text>
<text text-anchor="start" x="49" y="-106.5" font-family="Helvetica,sans-Serif" font-size="10.00">+ on_thread_leaving()</text>
<text text-anchor="start" x="49" y="-95.5" font-family="Helvetica,sans-Serif" font-size="10.00">+ has_enqueued_tasks()</text>
<text text-anchor="start" x="49" y="-84.5" font-family="Helvetica,sans-Serif" font-size="10.00">+ occupy_free_slot()</text>
<text text-anchor="start" x="49" y="-73.5" font-family="Helvetica,sans-Serif" font-size="10.00">+ occupy_free_slot_in</text>
<text text-anchor="start" x="49" y="-62.5" font-family="Helvetica,sans-Serif" font-size="10.00">_range()</text>
<text text-anchor="start" x="49" y="-51.5" font-family="Helvetica,sans-Serif" font-size="10.00">+ allocate_arena()</text>
<text text-anchor="start" x="49" y="-40.5" font-family="Helvetica,sans-Serif" font-size="10.00">+ num_arena_slots()</text>
<text text-anchor="start" x="49" y="-29.5" font-family="Helvetica,sans-Serif" font-size="10.00">+ allocation_size()</text>
<text text-anchor="start" x="49" y="-18.5" font-family="Helvetica,sans-Serif" font-size="10.00">+ is_busy_or_empty()</text>
<text text-anchor="start" x="49" y="-7.5" font-family="Helvetica,sans-Serif" font-size="10.00">&#45; restore_priority_if_need()</text>
</g>
<!-- Node2 -->
<g id="node2" class="node"><title>Node2</title>
<polygon fill="white" stroke="#bfbfbf" points="0,-358.5 0,-415.5 131,-415.5 131,-358.5 0,-358.5"/>
<text text-anchor="middle" x="65.5" y="-403.5" font-family="Helvetica,sans-Serif" font-size="10.00">padded&lt; arena_base &gt;</text>
<polyline fill="none" stroke="#bfbfbf" points="0,-396.5 131,-396.5 "/>
<text text-anchor="middle" x="65.5" y="-384.5" font-family="Helvetica,sans-Serif" font-size="10.00"> </text>
<polyline fill="none" stroke="#bfbfbf" points="0,-377.5 131,-377.5 "/>
<text text-anchor="middle" x="65.5" y="-365.5" font-family="Helvetica,sans-Serif" font-size="10.00"> </text>
</g>
<!-- Node2&#45;&gt;Node1 -->
<g id="edge1" class="edge"><title>Node2&#45;&gt;Node1</title>
<path fill="none" stroke="midnightblue" d="M73.0863,-348.069C75.8655,-334.173 79.2047,-317.476 82.7485,-299.757"/>
<polygon fill="none" stroke="midnightblue" points="69.6053,-347.627 71.0761,-358.12 76.4694,-349 69.6053,-347.627"/>
</g>
<!-- Node3 -->
<g id="node3" class="node"><title>Node3</title>
<g id="a_node3"><a xlink:href="structtbb_1_1internal_1_1arena__slot.html" target="_top" xlink:title="{tbb::internal::arena_slot\n||+ fill_with_canary_pattern()\l+ allocate_task_pool()\l+ free_task_pool()\l}">
<polygon fill="white" stroke="black" points="149,-347.5 149,-426.5 296,-426.5 296,-347.5 149,-347.5"/>
<text text-anchor="middle" x="222.5" y="-414.5" font-family="Helvetica,sans-Serif" font-size="10.00">tbb::internal::arena_slot</text>
<polyline fill="none" stroke="black" points="149,-407.5 296,-407.5 "/>
<text text-anchor="middle" x="222.5" y="-395.5" font-family="Helvetica,sans-Serif" font-size="10.00"> </text>
<polyline fill="none" stroke="black" points="149,-388.5 296,-388.5 "/>
<text text-anchor="start" x="157" y="-376.5" font-family="Helvetica,sans-Serif" font-size="10.00">+ fill_with_canary_pattern()</text>
<text text-anchor="start" x="157" y="-365.5" font-family="Helvetica,sans-Serif" font-size="10.00">+ allocate_task_pool()</text>
<text text-anchor="start" x="157" y="-354.5" font-family="Helvetica,sans-Serif" font-size="10.00">+ free_task_pool()</text>
</a>
</g>
</g>
<!-- Node3&#45;&gt;Node1 -->
<g id="edge2" class="edge"><title>Node3&#45;&gt;Node1</title>
<path fill="none" stroke="#404040" d="M204.459,-347.458C199.361,-336.567 193.475,-323.991 187.193,-310.572"/>
<polygon fill="none" stroke="#404040" points="187.166,-310.514 181,-306.775 182.079,-299.646 188.245,-303.384 187.166,-310.514"/>
<text text-anchor="middle" x="220" y="-321" font-family="Helvetica,sans-Serif" font-size="10.00"> +my_slots</text>
</g>
<!-- Node4 -->
<g id="node4" class="node"><title>Node4</title>
<polygon fill="white" stroke="#bfbfbf" points="99.5,-464.5 99.5,-532.5 213.5,-532.5 213.5,-464.5 99.5,-464.5"/>
<text text-anchor="start" x="107.5" y="-520.5" font-family="Helvetica,sans-Serif" font-size="10.00">padded&lt; arena_slot</text>
<text text-anchor="middle" x="156.5" y="-509.5" font-family="Helvetica,sans-Serif" font-size="10.00">_line1 &gt;</text>
<polyline fill="none" stroke="#bfbfbf" points="99.5,-502.5 213.5,-502.5 "/>
<text text-anchor="middle" x="156.5" y="-490.5" font-family="Helvetica,sans-Serif" font-size="10.00"> </text>
<polyline fill="none" stroke="#bfbfbf" points="99.5,-483.5 213.5,-483.5 "/>
<text text-anchor="middle" x="156.5" y="-471.5" font-family="Helvetica,sans-Serif" font-size="10.00"> </text>
</g>
<!-- Node4&#45;&gt;Node3 -->
<g id="edge3" class="edge"><title>Node4&#45;&gt;Node3</title>
<path fill="none" stroke="midnightblue" d="M181.81,-455.508C187.496,-446.075 193.504,-436.107 199.107,-426.81"/>
<polygon fill="none" stroke="midnightblue" points="178.646,-453.978 176.481,-464.349 184.641,-457.591 178.646,-453.978"/>
</g>
<!-- Node5 -->
<g id="node5" class="node"><title>Node5</title>
<polygon fill="white" stroke="#bfbfbf" points="231.5,-464.5 231.5,-532.5 345.5,-532.5 345.5,-464.5 231.5,-464.5"/>
<text text-anchor="start" x="239.5" y="-520.5" font-family="Helvetica,sans-Serif" font-size="10.00">padded&lt; arena_slot</text>
<text text-anchor="middle" x="288.5" y="-509.5" font-family="Helvetica,sans-Serif" font-size="10.00">_line2 &gt;</text>
<polyline fill="none" stroke="#bfbfbf" points="231.5,-502.5 345.5,-502.5 "/>
<text text-anchor="middle" x="288.5" y="-490.5" font-family="Helvetica,sans-Serif" font-size="10.00"> </text>
<polyline fill="none" stroke="#bfbfbf" points="231.5,-483.5 345.5,-483.5 "/>
<text text-anchor="middle" x="288.5" y="-471.5" font-family="Helvetica,sans-Serif" font-size="10.00"> </text>
</g>
<!-- Node5&#45;&gt;Node3 -->
<g id="edge4" class="edge"><title>Node5&#45;&gt;Node3</title>
<path fill="none" stroke="midnightblue" d="M263.19,-455.508C257.504,-446.075 251.496,-436.107 245.893,-426.81"/>
<polygon fill="none" stroke="midnightblue" points="260.359,-457.591 268.519,-464.349 266.354,-453.978 260.359,-457.591"/>
</g>
</g>
</svg>
        <g id="navigator" transform="translate(0 0)" fill="#404254">
                <rect fill="#f2f5e9" fill-opacity="0.5" stroke="#606060" stroke-width=".5" x="0" y="0" width="60" height="60"/>
                <use id="zoomplus" xlink:href="#zoomPlus" x="17" y="9" onmousedown="handleZoom(evt,'in')"/>
                <use id="zoomminus" xlink:href="#zoomMin" x="42" y="9" onmousedown="handleZoom(evt,'out')"/>
                <use id="reset" xlink:href="#resetDef" x="30" y="36" onmousedown="handleReset()"/>
                <g id="arrowUp" xlink:href="#dirArrow" transform="translate(30 24)" onmousedown="handlePan(0,-1)">
                  <use xlink:href="#rim" fill="#404040">
                        <set attributeName="fill" to="#808080" begin="arrowUp.mouseover" end="arrowUp.mouseout"/>
                  </use>
                  <path fill="none" stroke="white" stroke-width="1.5" d="M0,-3.0v7 M-2.5,-0.5L0,-3.0L2.5,-0.5"/>
                </g>
                <g id="arrowRight" xlink:href="#dirArrow" transform="rotate(90) translate(36 -43)" onmousedown="handlePan(1,0)">
                  <use xlink:href="#rim" fill="#404040">
                        <set attributeName="fill" to="#808080" begin="arrowRight.mouseover" end="arrowRight.mouseout"/>
                  </use>
                  <path fill="none" stroke="white" stroke-width="1.5" d="M0,-3.0v7 M-2.5,-0.5L0,-3.0L2.5,-0.5"/>
                </g>
                <g id="arrowDown" xlink:href="#dirArrow" transform="rotate(180) translate(-30 -48)" onmousedown="handlePan(0,1)">
                  <use xlink:href="#rim" fill="#404040">
                        <set attributeName="fill" to="#808080" begin="arrowDown.mouseover" end="arrowDown.mouseout"/>
                  </use>
                  <path fill="none" stroke="white" stroke-width="1.5" d="M0,-3.0v7 M-2.5,-0.5L0,-3.0L2.5,-0.5"/>
                </g>
                <g id="arrowLeft" xlink:href="#dirArrow" transform="rotate(270) translate(-36 17)" onmousedown="handlePan(-1,0)">
                  <use xlink:href="#rim" fill="#404040">
                        <set attributeName="fill" to="#808080" begin="arrowLeft.mouseover" end="arrowLeft.mouseout"/>
                  </use>
                  <path fill="none" stroke="white" stroke-width="1.5" d="M0,-3.0v7 M-2.5,-0.5L0,-3.0L2.5,-0.5"/>
                </g>
        </g>
        <svg viewBox="0 0 15 15" width="100%" height="30px" preserveAspectRatio="xMaxYMin meet">
         <g id="arrow_out" transform="scale(0.3 0.3)">
          <a xlink:href="classtbb_1_1internal_1_1arena__coll__graph_org.svg" target="_base">
           <rect id="button" ry="5" rx="5" y="6" x="6" height="38" width="38"
                fill="#f2f5e9" fill-opacity="0.5" stroke="#606060" stroke-width="1.0"/>
           <path id="arrow"
             d="M 11.500037,31.436501 C 11.940474,20.09759 22.043105,11.32322 32.158766,21.979434 L 37.068811,17.246167 C 37.068811,17.246167 37.088388,32 37.088388,32 L 22.160133,31.978069 C 22.160133,31.978069 26.997745,27.140456 26.997745,27.140456 C 18.528582,18.264221 13.291696,25.230495 11.500037,31.436501 z"
             style="fill:#404040;"/>
          </a>
         </g>
        </svg>
</svg>
