<?xml version="1.0" encoding="UTF-8" standalone="no"?>
<!DOCTYPE svg PUBLIC "-//W3C//DTD SVG 1.1//EN"
 "http://www.w3.org/Graphics/SVG/1.1/DTD/svg11.dtd">
<!-- Generated by graphviz version 2.38.0 (20140413.2041)
 -->
<!-- Title: rml::internal::server_thread Pages: 1 -->
<!--zoomable 678 -->
<svg id="main" version="1.1" xmlns="http://www.w3.org/2000/svg" xmlns:xlink="http://www.w3.org/1999/xlink" xml:space="preserve" onload="init(evt)">
<style type="text/css"><![CDATA[
.edge:hover path { stroke: red; }
.edge:hover polygon { stroke: red; fill: red; }
]]></style>
<script type="text/javascript"><![CDATA[
var edges = document.getElementsByTagName('g');
if (edges && edges.length) {
  for (var i=0;i<edges.length;i++) {
    if (edges[i].id.substr(0,4)=='edge') {
      edges[i].setAttribute('class','edge');
    }
  }
}
]]></script>
        <defs>
                <circle id="rim" cx="0" cy="0" r="7"/>
                <circle id="rim2" cx="0" cy="0" r="3.5"/>
                <g id="zoomPlus">
                        <use xlink:href="#rim" fill="#404040">
                                <set attributeName="fill" to="#808080" begin="zoomplus.mouseover" end="zoomplus.mouseout"/>
                        </use>
                        <path d="M-4,0h8M0,-4v8" fill="none" stroke="white" stroke-width="1.5" pointer-events="none"/>
                </g>
                <g id="zoomMin">
                        <use xlink:href="#rim" fill="#404040">
                                <set attributeName="fill" to="#808080" begin="zoomminus.mouseover" end="zoomminus.mouseout"/>
                        </use>
                        <path d="M-4,0h8" fill="none" stroke="white" stroke-width="1.5" pointer-events="none"/>
                </g>
                <g id="dirArrow">
                        <path fill="none" stroke="white" stroke-width="1.5" d="M0,-3.0v7 M-2.5,-0.5L0,-3.0L2.5,-0.5"/>
                </g>
               <g id="resetDef">
                       <use xlink:href="#rim2" fill="#404040">
                               <set attributeName="fill" to="#808080" begin="reset.mouseover" end="reset.mouseout"/>
                       </use>
               </g>
        </defs>

<script type="text/javascript">
var viewWidth = 141;
var viewHeight = 678;
var sectionId = 'dynsection-0';
</script>
<script xlink:href="svgpan.js"/>
<svg id="graph" class="graph">
<g id="viewport">
<title>rml::internal::server_thread</title>
<polygon fill="white" stroke="none" points="-4,4 -4,-674 137,-674 137,4 -4,4"/>
<!-- Node1 -->
<g id="node1" class="node"><title>Node1</title>
<polygon fill="#bfbfbf" stroke="black" points="8,-105.5 8,-415.5 125,-415.5 125,-105.5 8,-105.5"/>
<text text-anchor="start" x="16" y="-403.5" font-family="Helvetica,sans-Serif" font-size="10.00">rml::internal::server</text>
<text text-anchor="middle" x="66.5" y="-392.5" font-family="Helvetica,sans-Serif" font-size="10.00">_thread</text>
<polyline fill="none" stroke="black" points="8,-385.5 125,-385.5 "/>
<text text-anchor="start" x="16" y="-373.5" font-family="Helvetica,sans-Serif" font-size="10.00">+ monitor</text>
<text text-anchor="start" x="16" y="-362.5" font-family="Helvetica,sans-Serif" font-size="10.00">&#45; state</text>
<text text-anchor="start" x="16" y="-351.5" font-family="Helvetica,sans-Serif" font-size="10.00">&#45; is_omp_thread</text>
<text text-anchor="start" x="16" y="-340.5" font-family="Helvetica,sans-Serif" font-size="10.00">&#45; my_extra_state</text>
<text text-anchor="start" x="16" y="-329.5" font-family="Helvetica,sans-Serif" font-size="10.00">&#45; link</text>
<text text-anchor="start" x="16" y="-318.5" font-family="Helvetica,sans-Serif" font-size="10.00">&#45; my_map_pos</text>
<text text-anchor="start" x="16" y="-307.5" font-family="Helvetica,sans-Serif" font-size="10.00">&#45; my_conn</text>
<text text-anchor="start" x="16" y="-296.5" font-family="Helvetica,sans-Serif" font-size="10.00">&#45; my_job</text>
<text text-anchor="start" x="16" y="-285.5" font-family="Helvetica,sans-Serif" font-size="10.00">&#45; my_ja</text>
<text text-anchor="start" x="16" y="-274.5" font-family="Helvetica,sans-Serif" font-size="10.00">&#45; my_index</text>
<text text-anchor="start" x="16" y="-263.5" font-family="Helvetica,sans-Serif" font-size="10.00">&#45; terminate</text>
<text text-anchor="start" x="16" y="-252.5" font-family="Helvetica,sans-Serif" font-size="10.00">&#45; omp_dispatch</text>
<polyline fill="none" stroke="black" points="8,-245.5 125,-245.5 "/>
<text text-anchor="start" x="16" y="-233.5" font-family="Helvetica,sans-Serif" font-size="10.00">+ server_thread()</text>
<text text-anchor="start" x="16" y="-222.5" font-family="Helvetica,sans-Serif" font-size="10.00">+ ~server_thread()</text>
<text text-anchor="start" x="16" y="-211.5" font-family="Helvetica,sans-Serif" font-size="10.00">+ read_state()</text>
<text text-anchor="start" x="16" y="-200.5" font-family="Helvetica,sans-Serif" font-size="10.00">+ read_extra_state()</text>
<text text-anchor="start" x="16" y="-189.5" font-family="Helvetica,sans-Serif" font-size="10.00">+ launch()</text>
<text text-anchor="start" x="16" y="-178.5" font-family="Helvetica,sans-Serif" font-size="10.00">+ wakeup()</text>
<text text-anchor="start" x="16" y="-167.5" font-family="Helvetica,sans-Serif" font-size="10.00">+ try_grab_for()</text>
<text text-anchor="start" x="16" y="-156.5" font-family="Helvetica,sans-Serif" font-size="10.00">&#45; sleep_perhaps()</text>
<text text-anchor="start" x="16" y="-145.5" font-family="Helvetica,sans-Serif" font-size="10.00">&#45; destroy_job()</text>
<text text-anchor="start" x="16" y="-134.5" font-family="Helvetica,sans-Serif" font-size="10.00">&#45; do_termination()</text>
<text text-anchor="start" x="16" y="-123.5" font-family="Helvetica,sans-Serif" font-size="10.00">&#45; loop()</text>
<text text-anchor="start" x="16" y="-112.5" font-family="Helvetica,sans-Serif" font-size="10.00">&#45; thread_routine()</text>
</g>
<!-- Node4 -->
<g id="node4" class="node"><title>Node4</title>
<g id="a_node4"><a xlink:href="structrml_1_1internal_1_1private__thread__bag_1_1list__thread.html" target="_top" xlink:title="{rml::internal::private\l_thread_bag::list_thread\n|+ next\l|}">
<polygon fill="white" stroke="black" points="0,-0.5 0,-68.5 133,-68.5 133,-0.5 0,-0.5"/>
<text text-anchor="start" x="8" y="-56.5" font-family="Helvetica,sans-Serif" font-size="10.00">rml::internal::private</text>
<text text-anchor="middle" x="66.5" y="-45.5" font-family="Helvetica,sans-Serif" font-size="10.00">_thread_bag::list_thread</text>
<polyline fill="none" stroke="black" points="0,-38.5 133,-38.5 "/>
<text text-anchor="start" x="8" y="-26.5" font-family="Helvetica,sans-Serif" font-size="10.00">+ next</text>
<polyline fill="none" stroke="black" points="0,-19.5 133,-19.5 "/>
<text text-anchor="middle" x="66.5" y="-7.5" font-family="Helvetica,sans-Serif" font-size="10.00"> </text>
</a>
</g>
</g>
<!-- Node1&#45;&gt;Node4 -->
<g id="edge3" class="edge"><title>Node1&#45;&gt;Node4</title>
<path fill="none" stroke="midnightblue" d="M66.5,-95.1898C66.5,-85.5561 66.5,-76.5883 66.5,-68.6829"/>
<polygon fill="none" stroke="midnightblue" points="63.0001,-95.4536 66.5,-105.454 70.0001,-95.4536 63.0001,-95.4536"/>
</g>
<!-- Node2 -->
<g id="node2" class="node"><title>Node2</title>
<g id="a_node2"><a xlink:href="classrml_1_1internal_1_1ref__count.html" target="_top" xlink:title="A reference count. ">
<polygon fill="white" stroke="black" points="20,-452.5 20,-553.5 113,-553.5 113,-452.5 20,-452.5"/>
<text text-anchor="start" x="28" y="-541.5" font-family="Helvetica,sans-Serif" font-size="10.00">rml::internal::ref</text>
<text text-anchor="middle" x="66.5" y="-530.5" font-family="Helvetica,sans-Serif" font-size="10.00">_count</text>
<polyline fill="none" stroke="black" points="20,-523.5 113,-523.5 "/>
<text text-anchor="start" x="28" y="-511.5" font-family="Helvetica,sans-Serif" font-size="10.00">&#45; my_ref_count</text>
<polyline fill="none" stroke="black" points="20,-504.5 113,-504.5 "/>
<text text-anchor="start" x="28" y="-492.5" font-family="Helvetica,sans-Serif" font-size="10.00">+ ref_count()</text>
<text text-anchor="start" x="28" y="-481.5" font-family="Helvetica,sans-Serif" font-size="10.00">+ ~ref_count()</text>
<text text-anchor="start" x="28" y="-470.5" font-family="Helvetica,sans-Serif" font-size="10.00">+ add_ref()</text>
<text text-anchor="start" x="28" y="-459.5" font-family="Helvetica,sans-Serif" font-size="10.00">+ remove_ref()</text>
</a>
</g>
</g>
<!-- Node2&#45;&gt;Node1 -->
<g id="edge1" class="edge"><title>Node2&#45;&gt;Node1</title>
<path fill="none" stroke="midnightblue" d="M66.5,-442.226C66.5,-433.912 66.5,-425.077 66.5,-415.956"/>
<polygon fill="none" stroke="midnightblue" points="63.0001,-442.46 66.5,-452.46 70.0001,-442.46 63.0001,-442.46"/>
</g>
<!-- Node3 -->
<g id="node3" class="node"><title>Node3</title>
<g id="a_node3"><a xlink:href="classrml_1_1no__copy.html" target="_top" xlink:title="Base class for denying assignment and copy constructor. ">
<polygon fill="white" stroke="black" points="26.5,-590.5 26.5,-669.5 106.5,-669.5 106.5,-590.5 26.5,-590.5"/>
<text text-anchor="middle" x="66.5" y="-657.5" font-family="Helvetica,sans-Serif" font-size="10.00">rml::no_copy</text>
<polyline fill="none" stroke="black" points="26.5,-650.5 106.5,-650.5 "/>
<text text-anchor="middle" x="66.5" y="-638.5" font-family="Helvetica,sans-Serif" font-size="10.00"> </text>
<polyline fill="none" stroke="black" points="26.5,-631.5 106.5,-631.5 "/>
<text text-anchor="start" x="34.5" y="-619.5" font-family="Helvetica,sans-Serif" font-size="10.00">+ no_copy()</text>
<text text-anchor="start" x="34.5" y="-608.5" font-family="Helvetica,sans-Serif" font-size="10.00">&#45; operator=()</text>
<text text-anchor="start" x="34.5" y="-597.5" font-family="Helvetica,sans-Serif" font-size="10.00">&#45; no_copy()</text>
</a>
</g>
</g>
<!-- Node3&#45;&gt;Node2 -->
<g id="edge2" class="edge"><title>Node3&#45;&gt;Node2</title>
<path fill="none" stroke="#8b1a1a" d="M66.5,-580.406C66.5,-571.639 66.5,-562.488 66.5,-553.691"/>
<polygon fill="none" stroke="#8b1a1a" points="63.0001,-580.476 66.5,-590.476 70.0001,-580.476 63.0001,-580.476"/>
</g>
</g>
</svg>
        <g id="navigator" transform="translate(0 0)" fill="#404254">
                <rect fill="#f2f5e9" fill-opacity="0.5" stroke="#606060" stroke-width=".5" x="0" y="0" width="60" height="60"/>
                <use id="zoomplus" xlink:href="#zoomPlus" x="17" y="9" onmousedown="handleZoom(evt,'in')"/>
                <use id="zoomminus" xlink:href="#zoomMin" x="42" y="9" onmousedown="handleZoom(evt,'out')"/>
                <use id="reset" xlink:href="#resetDef" x="30" y="36" onmousedown="handleReset()"/>
                <g id="arrowUp" xlink:href="#dirArrow" transform="translate(30 24)" onmousedown="handlePan(0,-1)">
                  <use xlink:href="#rim" fill="#404040">
                        <set attributeName="fill" to="#808080" begin="arrowUp.mouseover" end="arrowUp.mouseout"/>
                  </use>
                  <path fill="none" stroke="white" stroke-width="1.5" d="M0,-3.0v7 M-2.5,-0.5L0,-3.0L2.5,-0.5"/>
                </g>
                <g id="arrowRight" xlink:href="#dirArrow" transform="rotate(90) translate(36 -43)" onmousedown="handlePan(1,0)">
                  <use xlink:href="#rim" fill="#404040">
                        <set attributeName="fill" to="#808080" begin="arrowRight.mouseover" end="arrowRight.mouseout"/>
                  </use>
                  <path fill="none" stroke="white" stroke-width="1.5" d="M0,-3.0v7 M-2.5,-0.5L0,-3.0L2.5,-0.5"/>
                </g>
                <g id="arrowDown" xlink:href="#dirArrow" transform="rotate(180) translate(-30 -48)" onmousedown="handlePan(0,1)">
                  <use xlink:href="#rim" fill="#404040">
                        <set attributeName="fill" to="#808080" begin="arrowDown.mouseover" end="arrowDown.mouseout"/>
                  </use>
                  <path fill="none" stroke="white" stroke-width="1.5" d="M0,-3.0v7 M-2.5,-0.5L0,-3.0L2.5,-0.5"/>
                </g>
                <g id="arrowLeft" xlink:href="#dirArrow" transform="rotate(270) translate(-36 17)" onmousedown="handlePan(-1,0)">
                  <use xlink:href="#rim" fill="#404040">
                        <set attributeName="fill" to="#808080" begin="arrowLeft.mouseover" end="arrowLeft.mouseout"/>
                  </use>
                  <path fill="none" stroke="white" stroke-width="1.5" d="M0,-3.0v7 M-2.5,-0.5L0,-3.0L2.5,-0.5"/>
                </g>
        </g>
        <svg viewBox="0 0 15 15" width="100%" height="30px" preserveAspectRatio="xMaxYMin meet">
         <g id="arrow_out" transform="scale(0.3 0.3)">
          <a xlink:href="classrml_1_1internal_1_1server__thread__inherit__graph_org.svg" target="_base">
           <rect id="button" ry="5" rx="5" y="6" x="6" height="38" width="38"
                fill="#f2f5e9" fill-opacity="0.5" stroke="#606060" stroke-width="1.0"/>
           <path id="arrow"
             d="M 11.500037,31.436501 C 11.940474,20.09759 22.043105,11.32322 32.158766,21.979434 L 37.068811,17.246167 C 37.068811,17.246167 37.088388,32 37.088388,32 L 22.160133,31.978069 C 22.160133,31.978069 26.997745,27.140456 26.997745,27.140456 C 18.528582,18.264221 13.291696,25.230495 11.500037,31.436501 z"
             style="fill:#404040;"/>
          </a>
         </g>
        </svg>
</svg>
