<?xml version="1.0" encoding="UTF-8" standalone="no"?>
<!DOCTYPE svg PUBLIC "-//W3C//DTD SVG 1.1//EN"
 "http://www.w3.org/Graphics/SVG/1.1/DTD/svg11.dtd">
<!-- Generated by graphviz version 2.38.0 (20140413.2041)
 -->
<!-- Title: internal::reserving_port&lt; T &gt; Pages: 1 -->
<svg width="672pt" height="540pt"
 viewBox="0.00 0.00 672.00 540.00" xmlns="http://www.w3.org/2000/svg" xmlns:xlink="http://www.w3.org/1999/xlink">
<g id="graph0" class="graph" transform="scale(1 1) rotate(0) translate(4 536)">
<title>internal::reserving_port&lt; T &gt;</title>
<polygon fill="white" stroke="none" points="-4,4 -4,-536 668,-536 668,4 -4,4"/>
<!-- Node1 -->
<g id="node1" class="node"><title>Node1</title>
<polygon fill="#bfbfbf" stroke="black" points="267.5,-0.5 267.5,-189.5 407.5,-189.5 407.5,-0.5 267.5,-0.5"/>
<text text-anchor="start" x="275.5" y="-177.5" font-family="Helvetica,sans-Serif" font-size="10.00">internal::reserving</text>
<text text-anchor="middle" x="337.5" y="-166.5" font-family="Helvetica,sans-Serif" font-size="10.00">_port&lt; T &gt;</text>
<polyline fill="none" stroke="black" points="267.5,-159.5 407.5,-159.5 "/>
<text text-anchor="start" x="275.5" y="-147.5" font-family="Helvetica,sans-Serif" font-size="10.00">&#45; reserved</text>
<polyline fill="none" stroke="black" points="267.5,-140.5 407.5,-140.5 "/>
<text text-anchor="start" x="275.5" y="-128.5" font-family="Helvetica,sans-Serif" font-size="10.00">+ reserving_port()</text>
<text text-anchor="start" x="275.5" y="-117.5" font-family="Helvetica,sans-Serif" font-size="10.00">+ reserving_port()</text>
<text text-anchor="start" x="275.5" y="-106.5" font-family="Helvetica,sans-Serif" font-size="10.00">+ set_join_node_pointer()</text>
<text text-anchor="start" x="275.5" y="-95.5" font-family="Helvetica,sans-Serif" font-size="10.00">+ register_predecessor()</text>
<text text-anchor="start" x="275.5" y="-84.5" font-family="Helvetica,sans-Serif" font-size="10.00">+ remove_predecessor()</text>
<text text-anchor="start" x="275.5" y="-73.5" font-family="Helvetica,sans-Serif" font-size="10.00">+ reserve()</text>
<text text-anchor="start" x="275.5" y="-62.5" font-family="Helvetica,sans-Serif" font-size="10.00">+ release()</text>
<text text-anchor="start" x="275.5" y="-51.5" font-family="Helvetica,sans-Serif" font-size="10.00">+ consume()</text>
<text text-anchor="start" x="275.5" y="-40.5" font-family="Helvetica,sans-Serif" font-size="10.00">+ reset_receiver()</text>
<text text-anchor="start" x="275.5" y="-29.5" font-family="Helvetica,sans-Serif" font-size="10.00"># try_put_task()</text>
<text text-anchor="start" x="275.5" y="-18.5" font-family="Helvetica,sans-Serif" font-size="10.00"># graph_reference()</text>
<text text-anchor="start" x="275.5" y="-7.5" font-family="Helvetica,sans-Serif" font-size="10.00">&#45; handle_operations()</text>
</g>
<!-- Node2 -->
<g id="node2" class="node"><title>Node2</title>
<polygon fill="white" stroke="#bfbfbf" points="0,-281.5 0,-338.5 143,-338.5 143,-281.5 0,-281.5"/>
<text text-anchor="middle" x="71.5" y="-326.5" font-family="Helvetica,sans-Serif" font-size="10.00">interface10::receiver&lt; T &gt;</text>
<polyline fill="none" stroke="#bfbfbf" points="0,-319.5 143,-319.5 "/>
<text text-anchor="middle" x="71.5" y="-307.5" font-family="Helvetica,sans-Serif" font-size="10.00"> </text>
<polyline fill="none" stroke="#bfbfbf" points="0,-300.5 143,-300.5 "/>
<text text-anchor="middle" x="71.5" y="-288.5" font-family="Helvetica,sans-Serif" font-size="10.00"> </text>
</g>
<!-- Node2&#45;&gt;Node1 -->
<g id="edge1" class="edge"><title>Node2&#45;&gt;Node1</title>
<path fill="none" stroke="midnightblue" d="M108.581,-274.447C121.901,-262.353 137.173,-248.842 151.5,-237 188.824,-206.15 231.831,-173.377 267.084,-147.199"/>
<polygon fill="none" stroke="midnightblue" points="106.012,-272.054 100.986,-281.381 110.731,-277.223 106.012,-272.054"/>
</g>
<!-- Node3 -->
<g id="node3" class="node"><title>Node3</title>
<g id="a_node3"><a xlink:href="classinternal_1_1reservable__predecessor__cache.html" target="_top" xlink:title="{internal::reservable\l_predecessor_cache\&lt; T,\l null_mutex \&gt;\n||+ reservable_predecessor\l_cache()\l+ try_reserve()\l+ try_release()\l+ try_consume()\l+ reset()\l+ clear()\l}">
<polygon fill="white" stroke="black" points="161,-237.5 161,-382.5 304,-382.5 304,-237.5 161,-237.5"/>
<text text-anchor="start" x="169" y="-370.5" font-family="Helvetica,sans-Serif" font-size="10.00">internal::reservable</text>
<text text-anchor="start" x="169" y="-359.5" font-family="Helvetica,sans-Serif" font-size="10.00">_predecessor_cache&lt; T,</text>
<text text-anchor="middle" x="232.5" y="-348.5" font-family="Helvetica,sans-Serif" font-size="10.00"> null_mutex &gt;</text>
<polyline fill="none" stroke="black" points="161,-341.5 304,-341.5 "/>
<text text-anchor="middle" x="232.5" y="-329.5" font-family="Helvetica,sans-Serif" font-size="10.00"> </text>
<polyline fill="none" stroke="black" points="161,-322.5 304,-322.5 "/>
<text text-anchor="start" x="169" y="-310.5" font-family="Helvetica,sans-Serif" font-size="10.00">+ reservable_predecessor</text>
<text text-anchor="start" x="169" y="-299.5" font-family="Helvetica,sans-Serif" font-size="10.00">_cache()</text>
<text text-anchor="start" x="169" y="-288.5" font-family="Helvetica,sans-Serif" font-size="10.00">+ try_reserve()</text>
<text text-anchor="start" x="169" y="-277.5" font-family="Helvetica,sans-Serif" font-size="10.00">+ try_release()</text>
<text text-anchor="start" x="169" y="-266.5" font-family="Helvetica,sans-Serif" font-size="10.00">+ try_consume()</text>
<text text-anchor="start" x="169" y="-255.5" font-family="Helvetica,sans-Serif" font-size="10.00">+ reset()</text>
<text text-anchor="start" x="169" y="-244.5" font-family="Helvetica,sans-Serif" font-size="10.00">+ clear()</text>
</a>
</g>
</g>
<!-- Node3&#45;&gt;Node1 -->
<g id="edge2" class="edge"><title>Node3&#45;&gt;Node1</title>
<path fill="none" stroke="#404040" d="M267.06,-237.494C271.891,-227.578 276.807,-217.529 281.5,-208 282.69,-205.584 283.896,-203.139 285.114,-200.674"/>
<polygon fill="none" stroke="#404040" points="285.191,-200.518 284.268,-193.366 290.515,-189.764 291.438,-196.915 285.191,-200.518"/>
<text text-anchor="middle" x="327.5" y="-211" font-family="Helvetica,sans-Serif" font-size="10.00"> &#45;my_predecessors</text>
</g>
<!-- Node4 -->
<g id="node4" class="node"><title>Node4</title>
<g id="a_node4"><a xlink:href="classinternal_1_1predecessor__cache.html" target="_top" xlink:title="{internal::predecessor\l_cache\&lt; T, null_mutex \&gt;\n||+ predecessor_cache()\l+ set_owner()\l+ get_item()\l+ reset()\l}">
<polygon fill="white" stroke="red" points="108,-430.5 108,-531.5 245,-531.5 245,-430.5 108,-430.5"/>
<text text-anchor="start" x="116" y="-519.5" font-family="Helvetica,sans-Serif" font-size="10.00">internal::predecessor</text>
<text text-anchor="middle" x="176.5" y="-508.5" font-family="Helvetica,sans-Serif" font-size="10.00">_cache&lt; T, null_mutex &gt;</text>
<polyline fill="none" stroke="red" points="108,-501.5 245,-501.5 "/>
<text text-anchor="middle" x="176.5" y="-489.5" font-family="Helvetica,sans-Serif" font-size="10.00"> </text>
<polyline fill="none" stroke="red" points="108,-482.5 245,-482.5 "/>
<text text-anchor="start" x="116" y="-470.5" font-family="Helvetica,sans-Serif" font-size="10.00">+ predecessor_cache()</text>
<text text-anchor="start" x="116" y="-459.5" font-family="Helvetica,sans-Serif" font-size="10.00">+ set_owner()</text>
<text text-anchor="start" x="116" y="-448.5" font-family="Helvetica,sans-Serif" font-size="10.00">+ get_item()</text>
<text text-anchor="start" x="116" y="-437.5" font-family="Helvetica,sans-Serif" font-size="10.00">+ reset()</text>
</a>
</g>
</g>
<!-- Node4&#45;&gt;Node3 -->
<g id="edge3" class="edge"><title>Node4&#45;&gt;Node3</title>
<path fill="none" stroke="midnightblue" d="M196.192,-420.571C200.252,-408.32 204.568,-395.296 208.753,-382.664"/>
<polygon fill="none" stroke="midnightblue" points="192.822,-419.615 192.999,-430.208 199.467,-421.817 192.822,-419.615"/>
</g>
<!-- Node5 -->
<g id="node5" class="node"><title>Node5</title>
<polygon fill="white" stroke="#bfbfbf" points="263.5,-452.5 263.5,-509.5 313.5,-509.5 313.5,-452.5 263.5,-452.5"/>
<text text-anchor="middle" x="288.5" y="-497.5" font-family="Helvetica,sans-Serif" font-size="10.00">sender</text>
<polyline fill="none" stroke="#bfbfbf" points="263.5,-490.5 313.5,-490.5 "/>
<text text-anchor="middle" x="288.5" y="-478.5" font-family="Helvetica,sans-Serif" font-size="10.00"> </text>
<polyline fill="none" stroke="#bfbfbf" points="263.5,-471.5 313.5,-471.5 "/>
<text text-anchor="middle" x="288.5" y="-459.5" font-family="Helvetica,sans-Serif" font-size="10.00"> </text>
</g>
<!-- Node5&#45;&gt;Node3 -->
<g id="edge4" class="edge"><title>Node5&#45;&gt;Node3</title>
<path fill="none" stroke="#404040" d="M279.378,-452.471C274.07,-436.451 267.067,-415.317 260.097,-394.283"/>
<polygon fill="none" stroke="#404040" points="260.014,-394.032 254.33,-389.595 256.239,-382.642 261.923,-387.079 260.014,-394.032"/>
<text text-anchor="middle" x="301" y="-404" font-family="Helvetica,sans-Serif" font-size="10.00"> &#45;reserved_src</text>
</g>
<!-- Node6 -->
<g id="node6" class="node"><title>Node6</title>
<polygon fill="white" stroke="#bfbfbf" points="322,-270.5 322,-349.5 501,-349.5 501,-270.5 322,-270.5"/>
<text text-anchor="start" x="330" y="-337.5" font-family="Helvetica,sans-Serif" font-size="10.00">aggregator&lt; handler</text>
<text text-anchor="start" x="330" y="-326.5" font-family="Helvetica,sans-Serif" font-size="10.00">_type, internal::reserving</text>
<text text-anchor="middle" x="411.5" y="-315.5" font-family="Helvetica,sans-Serif" font-size="10.00">_port::reserving_port_operation &gt;</text>
<polyline fill="none" stroke="#bfbfbf" points="322,-308.5 501,-308.5 "/>
<text text-anchor="middle" x="411.5" y="-296.5" font-family="Helvetica,sans-Serif" font-size="10.00"> </text>
<polyline fill="none" stroke="#bfbfbf" points="322,-289.5 501,-289.5 "/>
<text text-anchor="middle" x="411.5" y="-277.5" font-family="Helvetica,sans-Serif" font-size="10.00"> </text>
</g>
<!-- Node6&#45;&gt;Node1 -->
<g id="edge5" class="edge"><title>Node6&#45;&gt;Node1</title>
<path fill="none" stroke="#404040" d="M398.099,-270.427C391.273,-250.778 382.607,-225.835 373.979,-201.001"/>
<polygon fill="none" stroke="#404040" points="373.963,-200.953 368.215,-196.598 370.024,-189.617 375.772,-193.972 373.963,-200.953"/>
<text text-anchor="middle" x="420" y="-211" font-family="Helvetica,sans-Serif" font-size="10.00"> &#45;my_aggregator</text>
</g>
<!-- Node7 -->
<g id="node7" class="node"><title>Node7</title>
<g id="a_node7"><a xlink:href="structinternal_1_1forwarding__base.html" target="_top" xlink:title="{internal::forwarding_base\n|+ graph_ref\l|+ forwarding_base()\l+ ~forwarding_base()\l+ decrement_port_count()\l+ increment_port_count()\l}">
<polygon fill="white" stroke="black" points="519,-265 519,-355 664,-355 664,-265 519,-265"/>
<text text-anchor="middle" x="591.5" y="-343" font-family="Helvetica,sans-Serif" font-size="10.00">internal::forwarding_base</text>
<polyline fill="none" stroke="black" points="519,-336 664,-336 "/>
<text text-anchor="start" x="527" y="-324" font-family="Helvetica,sans-Serif" font-size="10.00">+ graph_ref</text>
<polyline fill="none" stroke="black" points="519,-317 664,-317 "/>
<text text-anchor="start" x="527" y="-305" font-family="Helvetica,sans-Serif" font-size="10.00">+ forwarding_base()</text>
<text text-anchor="start" x="527" y="-294" font-family="Helvetica,sans-Serif" font-size="10.00">+ ~forwarding_base()</text>
<text text-anchor="start" x="527" y="-283" font-family="Helvetica,sans-Serif" font-size="10.00">+ decrement_port_count()</text>
<text text-anchor="start" x="527" y="-272" font-family="Helvetica,sans-Serif" font-size="10.00">+ increment_port_count()</text>
</a>
</g>
</g>
<!-- Node7&#45;&gt;Node1 -->
<g id="edge6" class="edge"><title>Node7&#45;&gt;Node1</title>
<path fill="none" stroke="#404040" d="M541.867,-264.942C531.244,-255.647 520.045,-245.948 509.5,-237 479.612,-211.64 446.382,-184.222 417.16,-160.365"/>
<polygon fill="none" stroke="#404040" points="417.123,-160.334 409.945,-159.643 407.822,-152.751 415,-153.443 417.123,-160.334"/>
<text text-anchor="middle" x="508.5" y="-211" font-family="Helvetica,sans-Serif" font-size="10.00"> &#45;my_join</text>
</g>
<!-- Node8 -->
<g id="node8" class="node"><title>Node8</title>
<polygon fill="white" stroke="#bfbfbf" points="559,-452.5 559,-509.5 624,-509.5 624,-452.5 559,-452.5"/>
<text text-anchor="middle" x="591.5" y="-497.5" font-family="Helvetica,sans-Serif" font-size="10.00">no_assign</text>
<polyline fill="none" stroke="#bfbfbf" points="559,-490.5 624,-490.5 "/>
<text text-anchor="middle" x="591.5" y="-478.5" font-family="Helvetica,sans-Serif" font-size="10.00"> </text>
<polyline fill="none" stroke="#bfbfbf" points="559,-471.5 624,-471.5 "/>
<text text-anchor="middle" x="591.5" y="-459.5" font-family="Helvetica,sans-Serif" font-size="10.00"> </text>
</g>
<!-- Node8&#45;&gt;Node7 -->
<g id="edge7" class="edge"><title>Node8&#45;&gt;Node7</title>
<path fill="none" stroke="midnightblue" d="M591.5,-442.321C591.5,-416.488 591.5,-382.124 591.5,-355.029"/>
<polygon fill="none" stroke="midnightblue" points="588,-442.471 591.5,-452.471 595,-442.471 588,-442.471"/>
</g>
</g>
</svg>
