<?xml version="1.0" encoding="UTF-8" standalone="no"?>
<!DOCTYPE svg PUBLIC "-//W3C//DTD SVG 1.1//EN"
 "http://www.w3.org/Graphics/SVG/1.1/DTD/svg11.dtd">
<!-- Generated by graphviz version 2.38.0 (20140413.2041)
 -->
<!-- Title: tbb::interface7::internal::delegated_task Pages: 1 -->
<!--zoomable 756 -->
<svg id="main" version="1.1" xmlns="http://www.w3.org/2000/svg" xmlns:xlink="http://www.w3.org/1999/xlink" xml:space="preserve" onload="init(evt)">
<style type="text/css"><![CDATA[
.edge:hover path { stroke: red; }
.edge:hover polygon { stroke: red; fill: red; }
]]></style>
<script type="text/javascript"><![CDATA[
var edges = document.getElementsByTagName('g');
if (edges && edges.length) {
  for (var i=0;i<edges.length;i++) {
    if (edges[i].id.substr(0,4)=='edge') {
      edges[i].setAttribute('class','edge');
    }
  }
}
]]></script>
        <defs>
                <circle id="rim" cx="0" cy="0" r="7"/>
                <circle id="rim2" cx="0" cy="0" r="3.5"/>
                <g id="zoomPlus">
                        <use xlink:href="#rim" fill="#404040">
                                <set attributeName="fill" to="#808080" begin="zoomplus.mouseover" end="zoomplus.mouseout"/>
                        </use>
                        <path d="M-4,0h8M0,-4v8" fill="none" stroke="white" stroke-width="1.5" pointer-events="none"/>
                </g>
                <g id="zoomMin">
                        <use xlink:href="#rim" fill="#404040">
                                <set attributeName="fill" to="#808080" begin="zoomminus.mouseover" end="zoomminus.mouseout"/>
                        </use>
                        <path d="M-4,0h8" fill="none" stroke="white" stroke-width="1.5" pointer-events="none"/>
                </g>
                <g id="dirArrow">
                        <path fill="none" stroke="white" stroke-width="1.5" d="M0,-3.0v7 M-2.5,-0.5L0,-3.0L2.5,-0.5"/>
                </g>
               <g id="resetDef">
                       <use xlink:href="#rim2" fill="#404040">
                               <set attributeName="fill" to="#808080" begin="reset.mouseover" end="reset.mouseout"/>
                       </use>
               </g>
        </defs>

<script type="text/javascript">
var viewWidth = 354;
var viewHeight = 756;
var sectionId = 'dynsection-1';
</script>
<script xlink:href="svgpan.js"/>
<svg id="graph" class="graph">
<g id="viewport">
<title>tbb::interface7::internal::delegated_task</title>
<polygon fill="white" stroke="none" points="-4,4 -4,-752 350,-752 350,4 -4,4"/>
<!-- Node1 -->
<g id="node1" class="node"><title>Node1</title>
<polygon fill="#bfbfbf" stroke="black" points="0,-0.5 0,-112.5 128,-112.5 128,-0.5 0,-0.5"/>
<text text-anchor="start" x="8" y="-100.5" font-family="Helvetica,sans-Serif" font-size="10.00">tbb::interface7::internal</text>
<text text-anchor="middle" x="64" y="-89.5" font-family="Helvetica,sans-Serif" font-size="10.00">::delegated_task</text>
<polyline fill="none" stroke="black" points="0,-82.5 128,-82.5 "/>
<text text-anchor="start" x="8" y="-70.5" font-family="Helvetica,sans-Serif" font-size="10.00">&#45; my_delegate</text>
<text text-anchor="start" x="8" y="-59.5" font-family="Helvetica,sans-Serif" font-size="10.00">&#45; my_root</text>
<polyline fill="none" stroke="black" points="0,-52.5 128,-52.5 "/>
<text text-anchor="start" x="8" y="-40.5" font-family="Helvetica,sans-Serif" font-size="10.00">+ delegated_task()</text>
<text text-anchor="start" x="8" y="-29.5" font-family="Helvetica,sans-Serif" font-size="10.00">+ operator()()</text>
<text text-anchor="start" x="8" y="-18.5" font-family="Helvetica,sans-Serif" font-size="10.00">&#45; execute()</text>
<text text-anchor="start" x="8" y="-7.5" font-family="Helvetica,sans-Serif" font-size="10.00">&#45; ~delegated_task()</text>
</g>
<!-- Node2 -->
<g id="node2" class="node"><title>Node2</title>
<polygon fill="white" stroke="#bfbfbf" points="11.5,-243 11.5,-300 48.5,-300 48.5,-243 11.5,-243"/>
<text text-anchor="middle" x="30" y="-288" font-family="Helvetica,sans-Serif" font-size="10.00">task</text>
<polyline fill="none" stroke="#bfbfbf" points="11.5,-281 48.5,-281 "/>
<text text-anchor="middle" x="30" y="-269" font-family="Helvetica,sans-Serif" font-size="10.00"> </text>
<polyline fill="none" stroke="#bfbfbf" points="11.5,-262 48.5,-262 "/>
<text text-anchor="middle" x="30" y="-250" font-family="Helvetica,sans-Serif" font-size="10.00"> </text>
</g>
<!-- Node2&#45;&gt;Node1 -->
<g id="edge1" class="edge"><title>Node2&#45;&gt;Node1</title>
<path fill="none" stroke="midnightblue" d="M36.0769,-232.43C41.387,-199.164 49.1633,-150.448 55.1619,-112.868"/>
<polygon fill="none" stroke="midnightblue" points="32.565,-232.227 34.4449,-242.654 39.4775,-233.331 32.565,-232.227"/>
</g>
<!-- Node3 -->
<g id="node3" class="node"><title>Node3</title>
<g id="a_node3"><a xlink:href="classtbb_1_1internal_1_1concurrent__monitor.html" target="_top" xlink:title="concurrent_monitor ">
<polygon fill="white" stroke="black" points="67,-160.5 67,-382.5 205,-382.5 205,-160.5 67,-160.5"/>
<text text-anchor="start" x="75" y="-370.5" font-family="Helvetica,sans-Serif" font-size="10.00">tbb::internal::concurrent</text>
<text text-anchor="middle" x="136" y="-359.5" font-family="Helvetica,sans-Serif" font-size="10.00">_monitor</text>
<polyline fill="none" stroke="black" points="67,-352.5 205,-352.5 "/>
<text text-anchor="start" x="75" y="-340.5" font-family="Helvetica,sans-Serif" font-size="10.00">&#45; epoch</text>
<polyline fill="none" stroke="black" points="67,-333.5 205,-333.5 "/>
<text text-anchor="start" x="75" y="-321.5" font-family="Helvetica,sans-Serif" font-size="10.00">+ concurrent_monitor()</text>
<text text-anchor="start" x="75" y="-310.5" font-family="Helvetica,sans-Serif" font-size="10.00">+ ~concurrent_monitor()</text>
<text text-anchor="start" x="75" y="-299.5" font-family="Helvetica,sans-Serif" font-size="10.00">+ prepare_wait()</text>
<text text-anchor="start" x="75" y="-288.5" font-family="Helvetica,sans-Serif" font-size="10.00">+ commit_wait()</text>
<text text-anchor="start" x="75" y="-277.5" font-family="Helvetica,sans-Serif" font-size="10.00">+ cancel_wait()</text>
<text text-anchor="start" x="75" y="-266.5" font-family="Helvetica,sans-Serif" font-size="10.00">+ wait()</text>
<text text-anchor="start" x="75" y="-255.5" font-family="Helvetica,sans-Serif" font-size="10.00">+ notify_one()</text>
<text text-anchor="start" x="75" y="-244.5" font-family="Helvetica,sans-Serif" font-size="10.00">+ notify_one_relaxed()</text>
<text text-anchor="start" x="75" y="-233.5" font-family="Helvetica,sans-Serif" font-size="10.00">+ notify_all()</text>
<text text-anchor="start" x="75" y="-222.5" font-family="Helvetica,sans-Serif" font-size="10.00">+ notify_all_relaxed()</text>
<text text-anchor="start" x="75" y="-211.5" font-family="Helvetica,sans-Serif" font-size="10.00">+ notify()</text>
<text text-anchor="start" x="75" y="-200.5" font-family="Helvetica,sans-Serif" font-size="10.00">+ notify_relaxed()</text>
<text text-anchor="start" x="75" y="-189.5" font-family="Helvetica,sans-Serif" font-size="10.00">+ abort_all()</text>
<text text-anchor="start" x="75" y="-178.5" font-family="Helvetica,sans-Serif" font-size="10.00">+ abort_all_relaxed()</text>
<text text-anchor="start" x="75" y="-167.5" font-family="Helvetica,sans-Serif" font-size="10.00">&#45; to_thread_context()</text>
</a>
</g>
</g>
<!-- Node3&#45;&gt;Node1 -->
<g id="edge2" class="edge"><title>Node3&#45;&gt;Node1</title>
<path fill="none" stroke="#404040" d="M98.7346,-160.257C94.5835,-147.976 90.4548,-135.762 86.5698,-124.269"/>
<polygon fill="none" stroke="#404040" points="86.4614,-123.948 80.7506,-119.545 82.6186,-112.58 88.3294,-116.983 86.4614,-123.948"/>
<text text-anchor="middle" x="124.5" y="-134" font-family="Helvetica,sans-Serif" font-size="10.00"> &#45;my_monitor</text>
</g>
<!-- Node4 -->
<g id="node4" class="node"><title>Node4</title>
<polygon fill="white" stroke="#bfbfbf" points="40,-690.5 40,-747.5 96,-747.5 96,-690.5 40,-690.5"/>
<text text-anchor="middle" x="68" y="-735.5" font-family="Helvetica,sans-Serif" font-size="10.00">no_copy</text>
<polyline fill="none" stroke="#bfbfbf" points="40,-728.5 96,-728.5 "/>
<text text-anchor="middle" x="68" y="-716.5" font-family="Helvetica,sans-Serif" font-size="10.00"> </text>
<polyline fill="none" stroke="#bfbfbf" points="40,-709.5 96,-709.5 "/>
<text text-anchor="middle" x="68" y="-697.5" font-family="Helvetica,sans-Serif" font-size="10.00"> </text>
</g>
<!-- Node4&#45;&gt;Node3 -->
<g id="edge3" class="edge"><title>Node4&#45;&gt;Node3</title>
<path fill="none" stroke="#8b1a1a" d="M60.1653,-680.008C50.1043,-624.309 36.2625,-517.597 57,-430 60.735,-414.223 66.3096,-398.228 72.8019,-382.781"/>
<polygon fill="none" stroke="#8b1a1a" points="56.7778,-680.935 62.0532,-690.123 63.6589,-679.65 56.7778,-680.935"/>
</g>
<!-- Node5 -->
<g id="node5" class="node"><title>Node5</title>
<g id="a_node5"><a xlink:href="classtbb_1_1internal_1_1circular__doubly__linked__list__with__sentinel.html" target="_top" xlink:title="Circular doubly&#45;linked list with sentinel. ">
<polygon fill="white" stroke="red" points="66,-430.5 66,-652.5 206,-652.5 206,-430.5 66,-430.5"/>
<text text-anchor="start" x="74" y="-640.5" font-family="Helvetica,sans-Serif" font-size="10.00">tbb::internal::circular</text>
<text text-anchor="start" x="74" y="-629.5" font-family="Helvetica,sans-Serif" font-size="10.00">_doubly_linked_list_with</text>
<text text-anchor="middle" x="136" y="-618.5" font-family="Helvetica,sans-Serif" font-size="10.00">_sentinel</text>
<polyline fill="none" stroke="red" points="66,-611.5 206,-611.5 "/>
<text text-anchor="start" x="74" y="-599.5" font-family="Helvetica,sans-Serif" font-size="10.00">&#45; count</text>
<polyline fill="none" stroke="red" points="66,-592.5 206,-592.5 "/>
<text text-anchor="start" x="74" y="-580.5" font-family="Helvetica,sans-Serif" font-size="10.00">+ circular_doubly_linked</text>
<text text-anchor="start" x="74" y="-569.5" font-family="Helvetica,sans-Serif" font-size="10.00">_list_with_sentinel()</text>
<text text-anchor="start" x="74" y="-558.5" font-family="Helvetica,sans-Serif" font-size="10.00">+ ~circular_doubly_linked</text>
<text text-anchor="start" x="74" y="-547.5" font-family="Helvetica,sans-Serif" font-size="10.00">_list_with_sentinel()</text>
<text text-anchor="start" x="74" y="-536.5" font-family="Helvetica,sans-Serif" font-size="10.00">+ size()</text>
<text text-anchor="start" x="74" y="-525.5" font-family="Helvetica,sans-Serif" font-size="10.00">+ empty()</text>
<text text-anchor="start" x="74" y="-514.5" font-family="Helvetica,sans-Serif" font-size="10.00">+ front()</text>
<text text-anchor="start" x="74" y="-503.5" font-family="Helvetica,sans-Serif" font-size="10.00">+ last()</text>
<text text-anchor="start" x="74" y="-492.5" font-family="Helvetica,sans-Serif" font-size="10.00">+ begin()</text>
<text text-anchor="start" x="74" y="-481.5" font-family="Helvetica,sans-Serif" font-size="10.00">+ end()</text>
<text text-anchor="start" x="74" y="-470.5" font-family="Helvetica,sans-Serif" font-size="10.00">+ add()</text>
<text text-anchor="start" x="74" y="-459.5" font-family="Helvetica,sans-Serif" font-size="10.00">+ remove()</text>
<text text-anchor="start" x="74" y="-448.5" font-family="Helvetica,sans-Serif" font-size="10.00">+ flush_to()</text>
<text text-anchor="start" x="74" y="-437.5" font-family="Helvetica,sans-Serif" font-size="10.00">+ clear()</text>
</a>
</g>
</g>
<!-- Node4&#45;&gt;Node5 -->
<g id="edge5" class="edge"><title>Node4&#45;&gt;Node5</title>
<path fill="none" stroke="#8b1a1a" d="M82.4798,-680.629C85.7933,-672.078 89.4809,-662.56 93.3271,-652.634"/>
<polygon fill="none" stroke="#8b1a1a" points="79.1242,-679.602 78.7748,-690.192 85.6514,-682.132 79.1242,-679.602"/>
</g>
<!-- Node5&#45;&gt;Node3 -->
<g id="edge4" class="edge"><title>Node5&#45;&gt;Node3</title>
<path fill="none" stroke="#404040" d="M136,-430.334C136,-418.655 136,-406.726 136,-394.917"/>
<polygon fill="none" stroke="#404040" points="136,-394.671 132,-388.671 136,-382.671 140,-388.671 136,-394.671"/>
<text text-anchor="middle" x="165" y="-404" font-family="Helvetica,sans-Serif" font-size="10.00"> &#45;waitset_ec</text>
</g>
<!-- Node6 -->
<g id="node6" class="node"><title>Node6</title>
<g id="a_node6"><a xlink:href="classtbb_1_1spin__mutex.html" target="_top" xlink:title="A lock that occupies a single byte. ">
<polygon fill="white" stroke="red" points="224,-474.5 224,-608.5 346,-608.5 346,-474.5 224,-474.5"/>
<text text-anchor="middle" x="285" y="-596.5" font-family="Helvetica,sans-Serif" font-size="10.00">tbb::spin_mutex</text>
<polyline fill="none" stroke="red" points="224,-589.5 346,-589.5 "/>
<text text-anchor="start" x="232" y="-577.5" font-family="Helvetica,sans-Serif" font-size="10.00">+ is_rw_mutex</text>
<text text-anchor="start" x="232" y="-566.5" font-family="Helvetica,sans-Serif" font-size="10.00">+ is_recursive_mutex</text>
<text text-anchor="start" x="232" y="-555.5" font-family="Helvetica,sans-Serif" font-size="10.00">+ is_fair_mutex</text>
<text text-anchor="start" x="232" y="-544.5" font-family="Helvetica,sans-Serif" font-size="10.00">&#45; flag</text>
<polyline fill="none" stroke="red" points="224,-537.5 346,-537.5 "/>
<text text-anchor="start" x="232" y="-525.5" font-family="Helvetica,sans-Serif" font-size="10.00">+ spin_mutex()</text>
<text text-anchor="start" x="232" y="-514.5" font-family="Helvetica,sans-Serif" font-size="10.00">+ internal_construct()</text>
<text text-anchor="start" x="232" y="-503.5" font-family="Helvetica,sans-Serif" font-size="10.00">+ lock()</text>
<text text-anchor="start" x="232" y="-492.5" font-family="Helvetica,sans-Serif" font-size="10.00">+ try_lock()</text>
<text text-anchor="start" x="232" y="-481.5" font-family="Helvetica,sans-Serif" font-size="10.00">+ unlock()</text>
</a>
</g>
</g>
<!-- Node6&#45;&gt;Node3 -->
<g id="edge6" class="edge"><title>Node6&#45;&gt;Node3</title>
<path fill="none" stroke="#404040" d="M248.169,-474.253C234.528,-449.719 218.602,-421.073 203.106,-393.202"/>
<polygon fill="none" stroke="#404040" points="203.025,-393.056 196.614,-389.756 197.194,-382.568 203.606,-385.868 203.025,-393.056"/>
<text text-anchor="middle" x="238.5" y="-404" font-family="Helvetica,sans-Serif" font-size="10.00"> &#45;mutex_ec</text>
</g>
</g>
</svg>
        <g id="navigator" transform="translate(0 0)" fill="#404254">
                <rect fill="#f2f5e9" fill-opacity="0.5" stroke="#606060" stroke-width=".5" x="0" y="0" width="60" height="60"/>
                <use id="zoomplus" xlink:href="#zoomPlus" x="17" y="9" onmousedown="handleZoom(evt,'in')"/>
                <use id="zoomminus" xlink:href="#zoomMin" x="42" y="9" onmousedown="handleZoom(evt,'out')"/>
                <use id="reset" xlink:href="#resetDef" x="30" y="36" onmousedown="handleReset()"/>
                <g id="arrowUp" xlink:href="#dirArrow" transform="translate(30 24)" onmousedown="handlePan(0,-1)">
                  <use xlink:href="#rim" fill="#404040">
                        <set attributeName="fill" to="#808080" begin="arrowUp.mouseover" end="arrowUp.mouseout"/>
                  </use>
                  <path fill="none" stroke="white" stroke-width="1.5" d="M0,-3.0v7 M-2.5,-0.5L0,-3.0L2.5,-0.5"/>
                </g>
                <g id="arrowRight" xlink:href="#dirArrow" transform="rotate(90) translate(36 -43)" onmousedown="handlePan(1,0)">
                  <use xlink:href="#rim" fill="#404040">
                        <set attributeName="fill" to="#808080" begin="arrowRight.mouseover" end="arrowRight.mouseout"/>
                  </use>
                  <path fill="none" stroke="white" stroke-width="1.5" d="M0,-3.0v7 M-2.5,-0.5L0,-3.0L2.5,-0.5"/>
                </g>
                <g id="arrowDown" xlink:href="#dirArrow" transform="rotate(180) translate(-30 -48)" onmousedown="handlePan(0,1)">
                  <use xlink:href="#rim" fill="#404040">
                        <set attributeName="fill" to="#808080" begin="arrowDown.mouseover" end="arrowDown.mouseout"/>
                  </use>
                  <path fill="none" stroke="white" stroke-width="1.5" d="M0,-3.0v7 M-2.5,-0.5L0,-3.0L2.5,-0.5"/>
                </g>
                <g id="arrowLeft" xlink:href="#dirArrow" transform="rotate(270) translate(-36 17)" onmousedown="handlePan(-1,0)">
                  <use xlink:href="#rim" fill="#404040">
                        <set attributeName="fill" to="#808080" begin="arrowLeft.mouseover" end="arrowLeft.mouseout"/>
                  </use>
                  <path fill="none" stroke="white" stroke-width="1.5" d="M0,-3.0v7 M-2.5,-0.5L0,-3.0L2.5,-0.5"/>
                </g>
        </g>
        <svg viewBox="0 0 15 15" width="100%" height="30px" preserveAspectRatio="xMaxYMin meet">
         <g id="arrow_out" transform="scale(0.3 0.3)">
          <a xlink:href="classtbb_1_1interface7_1_1internal_1_1delegated__task__coll__graph_org.svg" target="_base">
           <rect id="button" ry="5" rx="5" y="6" x="6" height="38" width="38"
                fill="#f2f5e9" fill-opacity="0.5" stroke="#606060" stroke-width="1.0"/>
           <path id="arrow"
             d="M 11.500037,31.436501 C 11.940474,20.09759 22.043105,11.32322 32.158766,21.979434 L 37.068811,17.246167 C 37.068811,17.246167 37.088388,32 37.088388,32 L 22.160133,31.978069 C 22.160133,31.978069 26.997745,27.140456 26.997745,27.140456 C 18.528582,18.264221 13.291696,25.230495 11.500037,31.436501 z"
             style="fill:#404040;"/>
          </a>
         </g>
        </svg>
</svg>
