<?xml version="1.0" encoding="UTF-8" standalone="no"?>
<!DOCTYPE svg PUBLIC "-//W3C//DTD SVG 1.1//EN"
 "http://www.w3.org/Graphics/SVG/1.1/DTD/svg11.dtd">
<!-- Generated by graphviz version 2.38.0 (20140413.2041)
 -->
<!-- Title: tbb::internal::pipeline_root_task Pages: 1 -->
<svg width="465pt" height="628pt"
 viewBox="0.00 0.00 465.00 628.00" xmlns="http://www.w3.org/2000/svg" xmlns:xlink="http://www.w3.org/1999/xlink">
<g id="graph0" class="graph" transform="scale(1 1) rotate(0) translate(4 624)">
<title>tbb::internal::pipeline_root_task</title>
<polygon fill="white" stroke="none" points="-4,4 -4,-624 461,-624 461,4 -4,4"/>
<!-- Node1 -->
<g id="node1" class="node"><title>Node1</title>
<polygon fill="#bfbfbf" stroke="black" points="0,-88.5 0,-167.5 131,-167.5 131,-88.5 0,-88.5"/>
<text text-anchor="start" x="8" y="-155.5" font-family="Helvetica,sans-Serif" font-size="10.00">tbb::internal::pipeline</text>
<text text-anchor="middle" x="65.5" y="-144.5" font-family="Helvetica,sans-Serif" font-size="10.00">_root_task</text>
<polyline fill="none" stroke="black" points="0,-137.5 131,-137.5 "/>
<text text-anchor="start" x="8" y="-125.5" font-family="Helvetica,sans-Serif" font-size="10.00">&#45; do_segment_scanning</text>
<polyline fill="none" stroke="black" points="0,-118.5 131,-118.5 "/>
<text text-anchor="start" x="8" y="-106.5" font-family="Helvetica,sans-Serif" font-size="10.00">+ pipeline_root_task()</text>
<text text-anchor="start" x="8" y="-95.5" font-family="Helvetica,sans-Serif" font-size="10.00">&#45; execute()</text>
</g>
<!-- Node2 -->
<g id="node2" class="node"><title>Node2</title>
<polygon fill="white" stroke="#bfbfbf" points="31,-369.5 31,-426.5 68,-426.5 68,-369.5 31,-369.5"/>
<text text-anchor="middle" x="49.5" y="-414.5" font-family="Helvetica,sans-Serif" font-size="10.00">task</text>
<polyline fill="none" stroke="#bfbfbf" points="31,-407.5 68,-407.5 "/>
<text text-anchor="middle" x="49.5" y="-395.5" font-family="Helvetica,sans-Serif" font-size="10.00"> </text>
<polyline fill="none" stroke="#bfbfbf" points="31,-388.5 68,-388.5 "/>
<text text-anchor="middle" x="49.5" y="-376.5" font-family="Helvetica,sans-Serif" font-size="10.00"> </text>
</g>
<!-- Node2&#45;&gt;Node1 -->
<g id="edge1" class="edge"><title>Node2&#45;&gt;Node1</title>
<path fill="none" stroke="midnightblue" d="M51.7615,-359.119C54.7905,-308.384 60.1364,-218.841 63.1899,-167.694"/>
<polygon fill="none" stroke="midnightblue" points="48.2543,-359.138 51.152,-369.329 55.2418,-359.555 48.2543,-359.138"/>
</g>
<!-- Node3 -->
<g id="node3" class="node"><title>Node3</title>
<g id="a_node3"><a xlink:href="classtbb_1_1pipeline.html" target="_top" xlink:title="A processing pipeline that applies filters to items. ">
<polygon fill="white" stroke="black" points="97.5,-314.5 97.5,-481.5 241.5,-481.5 241.5,-314.5 97.5,-314.5"/>
<text text-anchor="middle" x="169.5" y="-469.5" font-family="Helvetica,sans-Serif" font-size="10.00">tbb::pipeline</text>
<polyline fill="none" stroke="black" points="97.5,-462.5 241.5,-462.5 "/>
<text text-anchor="start" x="105.5" y="-450.5" font-family="Helvetica,sans-Serif" font-size="10.00">&#45; end_counter</text>
<text text-anchor="start" x="105.5" y="-439.5" font-family="Helvetica,sans-Serif" font-size="10.00">&#45; end_of_input</text>
<text text-anchor="start" x="105.5" y="-428.5" font-family="Helvetica,sans-Serif" font-size="10.00">&#45; has_thread_bound_filters</text>
<polyline fill="none" stroke="black" points="97.5,-421.5 241.5,-421.5 "/>
<text text-anchor="start" x="105.5" y="-409.5" font-family="Helvetica,sans-Serif" font-size="10.00">+ pipeline()</text>
<text text-anchor="start" x="105.5" y="-398.5" font-family="Helvetica,sans-Serif" font-size="10.00">+ ~pipeline()</text>
<text text-anchor="start" x="105.5" y="-387.5" font-family="Helvetica,sans-Serif" font-size="10.00">+ add_filter()</text>
<text text-anchor="start" x="105.5" y="-376.5" font-family="Helvetica,sans-Serif" font-size="10.00">+ run()</text>
<text text-anchor="start" x="105.5" y="-365.5" font-family="Helvetica,sans-Serif" font-size="10.00">+ run()</text>
<text text-anchor="start" x="105.5" y="-354.5" font-family="Helvetica,sans-Serif" font-size="10.00">+ clear()</text>
<text text-anchor="start" x="105.5" y="-343.5" font-family="Helvetica,sans-Serif" font-size="10.00">&#45; remove_filter()</text>
<text text-anchor="start" x="105.5" y="-332.5" font-family="Helvetica,sans-Serif" font-size="10.00">&#45; inject_token()</text>
<text text-anchor="start" x="105.5" y="-321.5" font-family="Helvetica,sans-Serif" font-size="10.00">&#45; clear_filters()</text>
</a>
</g>
</g>
<!-- Node3&#45;&gt;Node1 -->
<g id="edge2" class="edge"><title>Node3&#45;&gt;Node1</title>
<path fill="none" stroke="#404040" d="M104.646,-314.437C101.253,-308.368 98.1553,-302.193 95.5,-296 79.5795,-258.867 72.107,-213.586 68.6001,-179.548"/>
<polygon fill="none" stroke="#404040" points="68.5957,-179.5 64.0548,-173.898 67.4792,-167.552 72.0201,-173.153 68.5957,-179.5"/>
<text text-anchor="middle" x="127.5" y="-282.5" font-family="Helvetica,sans-Serif" font-size="10.00"> &#45;my_pipeline</text>
</g>
<!-- Node5 -->
<g id="node5" class="node"><title>Node5</title>
<g id="a_node5"><a xlink:href="classtbb_1_1filter.html" target="_top" xlink:title="A stage in a pipeline. ">
<polygon fill="white" stroke="red" points="160,-0.5 160,-255.5 329,-255.5 329,-0.5 160,-0.5"/>
<text text-anchor="middle" x="244.5" y="-243.5" font-family="Helvetica,sans-Serif" font-size="10.00">tbb::filter</text>
<polyline fill="none" stroke="red" points="160,-236.5 329,-236.5 "/>
<text text-anchor="start" x="168" y="-224.5" font-family="Helvetica,sans-Serif" font-size="10.00"># filter_is_serial</text>
<text text-anchor="start" x="168" y="-213.5" font-family="Helvetica,sans-Serif" font-size="10.00"># filter_is_out_of_order</text>
<text text-anchor="start" x="168" y="-202.5" font-family="Helvetica,sans-Serif" font-size="10.00"># filter_is_bound</text>
<text text-anchor="start" x="168" y="-191.5" font-family="Helvetica,sans-Serif" font-size="10.00"># filter_may_emit_null</text>
<text text-anchor="start" x="168" y="-180.5" font-family="Helvetica,sans-Serif" font-size="10.00"># exact_exception_propagation</text>
<text text-anchor="start" x="168" y="-169.5" font-family="Helvetica,sans-Serif" font-size="10.00"># current_version</text>
<text text-anchor="start" x="168" y="-158.5" font-family="Helvetica,sans-Serif" font-size="10.00"># version_mask</text>
<text text-anchor="start" x="168" y="-147.5" font-family="Helvetica,sans-Serif" font-size="10.00">&#45; my_filter_mode</text>
<polyline fill="none" stroke="red" points="160,-140.5 329,-140.5 "/>
<text text-anchor="start" x="168" y="-128.5" font-family="Helvetica,sans-Serif" font-size="10.00">+ is_serial()</text>
<text text-anchor="start" x="168" y="-117.5" font-family="Helvetica,sans-Serif" font-size="10.00">+ is_ordered()</text>
<text text-anchor="start" x="168" y="-106.5" font-family="Helvetica,sans-Serif" font-size="10.00">+ is_bound()</text>
<text text-anchor="start" x="168" y="-95.5" font-family="Helvetica,sans-Serif" font-size="10.00">+ object_may_be_null()</text>
<text text-anchor="start" x="168" y="-84.5" font-family="Helvetica,sans-Serif" font-size="10.00">+ operator()()</text>
<text text-anchor="start" x="168" y="-73.5" font-family="Helvetica,sans-Serif" font-size="10.00">+ ~filter()</text>
<text text-anchor="start" x="168" y="-62.5" font-family="Helvetica,sans-Serif" font-size="10.00">+ finalize()</text>
<text text-anchor="start" x="168" y="-51.5" font-family="Helvetica,sans-Serif" font-size="10.00"># filter()</text>
<text text-anchor="start" x="168" y="-40.5" font-family="Helvetica,sans-Serif" font-size="10.00"># filter()</text>
<text text-anchor="start" x="168" y="-29.5" font-family="Helvetica,sans-Serif" font-size="10.00"># set_end_of_input()</text>
<text text-anchor="start" x="168" y="-18.5" font-family="Helvetica,sans-Serif" font-size="10.00">&#45; has_more_work()</text>
<text text-anchor="start" x="168" y="-7.5" font-family="Helvetica,sans-Serif" font-size="10.00">&#45; not_in_pipeline()</text>
</a>
</g>
</g>
<!-- Node3&#45;&gt;Node5 -->
<g id="edge5" class="edge"><title>Node3&#45;&gt;Node5</title>
<path fill="none" stroke="#404040" d="M161.369,-314.274C161.773,-300.679 163.265,-286.842 166.5,-274 167.076,-271.713 167.696,-269.423 168.356,-267.133"/>
<polygon fill="none" stroke="#404040" points="168.358,-267.127 166.355,-260.199 171.979,-255.686 173.982,-262.614 168.358,-267.127"/>
<text text-anchor="middle" x="198.5" y="-282.5" font-family="Helvetica,sans-Serif" font-size="10.00"> &#45;my_pipeline</text>
</g>
<!-- Node4 -->
<g id="node4" class="node"><title>Node4</title>
<g id="a_node4"><a xlink:href="structtbb_1_1atomic.html" target="_top" xlink:title="{tbb::atomic\&lt; internal\l::Token \&gt;\n||+ operator=()\l+ operator=()\l}">
<polygon fill="white" stroke="red" points="110,-540.5 110,-619.5 229,-619.5 229,-540.5 110,-540.5"/>
<text text-anchor="start" x="118" y="-607.5" font-family="Helvetica,sans-Serif" font-size="10.00">tbb::atomic&lt; internal</text>
<text text-anchor="middle" x="169.5" y="-596.5" font-family="Helvetica,sans-Serif" font-size="10.00">::Token &gt;</text>
<polyline fill="none" stroke="red" points="110,-589.5 229,-589.5 "/>
<text text-anchor="middle" x="169.5" y="-577.5" font-family="Helvetica,sans-Serif" font-size="10.00"> </text>
<polyline fill="none" stroke="red" points="110,-570.5 229,-570.5 "/>
<text text-anchor="start" x="118" y="-558.5" font-family="Helvetica,sans-Serif" font-size="10.00">+ operator=()</text>
<text text-anchor="start" x="118" y="-547.5" font-family="Helvetica,sans-Serif" font-size="10.00">+ operator=()</text>
</a>
</g>
</g>
<!-- Node4&#45;&gt;Node3 -->
<g id="edge3" class="edge"><title>Node4&#45;&gt;Node3</title>
<path fill="none" stroke="#404040" d="M169.5,-540.385C169.5,-526.504 169.5,-510.169 169.5,-493.625"/>
<polygon fill="none" stroke="#404040" points="169.5,-493.574 165.5,-487.574 169.5,-481.574 173.5,-487.574 169.5,-493.574"/>
<text text-anchor="middle" x="206" y="-514" font-family="Helvetica,sans-Serif" font-size="10.00"> &#45;input_tokens</text>
<text text-anchor="middle" x="206" y="-503" font-family="Helvetica,sans-Serif" font-size="10.00">&#45;token_counter</text>
</g>
<!-- Node5&#45;&gt;Node3 -->
<g id="edge4" class="edge"><title>Node5&#45;&gt;Node3</title>
<path fill="none" stroke="#404040" d="M243.798,-255.679C241.696,-269.478 238.695,-283.162 234.5,-296 233.716,-298.4 232.86,-300.799 231.942,-303.192"/>
<polygon fill="none" stroke="#404040" points="231.906,-303.277 233.244,-310.363 227.219,-314.324 225.88,-307.238 231.906,-303.277"/>
<text text-anchor="middle" x="265.5" y="-288" font-family="Helvetica,sans-Serif" font-size="10.00"> &#45;filter_end</text>
<text text-anchor="middle" x="265.5" y="-277" font-family="Helvetica,sans-Serif" font-size="10.00">&#45;filter_list</text>
</g>
<!-- Node5&#45;&gt;Node5 -->
<g id="edge6" class="edge"><title>Node5&#45;&gt;Node5</title>
<path fill="none" stroke="#404040" d="M329.336,-153.472C339.989,-148.983 347,-140.492 347,-128 347,-120.192 344.261,-113.948 339.606,-109.266"/>
<polygon fill="none" stroke="#404040" points="339.369,-109.11 332.158,-109.164 329.336,-102.528 336.546,-102.475 339.369,-109.11"/>
<text text-anchor="middle" x="402" y="-136.5" font-family="Helvetica,sans-Serif" font-size="10.00"> &#45;next_filter_in_pipeline</text>
<text text-anchor="middle" x="402" y="-125.5" font-family="Helvetica,sans-Serif" font-size="10.00">&#45;next_segment</text>
<text text-anchor="middle" x="402" y="-114.5" font-family="Helvetica,sans-Serif" font-size="10.00">&#45;prev_filter_in_pipeline</text>
</g>
</g>
</svg>
