<?xml version="1.0" encoding="UTF-8" standalone="no"?>
<!DOCTYPE svg PUBLIC "-//W3C//DTD SVG 1.1//EN"
 "http://www.w3.org/Graphics/SVG/1.1/DTD/svg11.dtd">
<!-- Generated by graphviz version 2.38.0 (20140413.2041)
 -->
<!-- Title: rml::internal::BackendSync Pages: 1 -->
<!--zoomable 1096 -->
<svg id="main" version="1.1" xmlns="http://www.w3.org/2000/svg" xmlns:xlink="http://www.w3.org/1999/xlink" xml:space="preserve" onload="init(evt)">
<style type="text/css"><![CDATA[
.edge:hover path { stroke: red; }
.edge:hover polygon { stroke: red; fill: red; }
]]></style>
<script type="text/javascript"><![CDATA[
var edges = document.getElementsByTagName('g');
if (edges && edges.length) {
  for (var i=0;i<edges.length;i++) {
    if (edges[i].id.substr(0,4)=='edge') {
      edges[i].setAttribute('class','edge');
    }
  }
}
]]></script>
        <defs>
                <circle id="rim" cx="0" cy="0" r="7"/>
                <circle id="rim2" cx="0" cy="0" r="3.5"/>
                <g id="zoomPlus">
                        <use xlink:href="#rim" fill="#404040">
                                <set attributeName="fill" to="#808080" begin="zoomplus.mouseover" end="zoomplus.mouseout"/>
                        </use>
                        <path d="M-4,0h8M0,-4v8" fill="none" stroke="white" stroke-width="1.5" pointer-events="none"/>
                </g>
                <g id="zoomMin">
                        <use xlink:href="#rim" fill="#404040">
                                <set attributeName="fill" to="#808080" begin="zoomminus.mouseover" end="zoomminus.mouseout"/>
                        </use>
                        <path d="M-4,0h8" fill="none" stroke="white" stroke-width="1.5" pointer-events="none"/>
                </g>
                <g id="dirArrow">
                        <path fill="none" stroke="white" stroke-width="1.5" d="M0,-3.0v7 M-2.5,-0.5L0,-3.0L2.5,-0.5"/>
                </g>
               <g id="resetDef">
                       <use xlink:href="#rim2" fill="#404040">
                               <set attributeName="fill" to="#808080" begin="reset.mouseover" end="reset.mouseout"/>
                       </use>
               </g>
        </defs>

<script type="text/javascript">
var viewWidth = 1301;
var viewHeight = 1096;
var sectionId = 'dynsection-0';
</script>
<script xlink:href="svgpan.js"/>
<svg id="graph" class="graph">
<g id="viewport">
<title>rml::internal::BackendSync</title>
<polygon fill="white" stroke="none" points="-4,4 -4,-1092 1297.49,-1092 1297.49,4 -4,4"/>
<!-- Node1 -->
<g id="node1" class="node"><title>Node1</title>
<polygon fill="#bfbfbf" stroke="black" points="91.9929,-964.5 91.9929,-1087.5 236.993,-1087.5 236.993,-964.5 91.9929,-964.5"/>
<text text-anchor="middle" x="164.493" y="-1075.5" font-family="Helvetica,sans-Serif" font-size="10.00">rml::internal::BackendSync</text>
<polyline fill="none" stroke="black" points="91.9929,-1068.5 236.993,-1068.5 "/>
<text text-anchor="start" x="99.9929" y="-1056.5" font-family="Helvetica,sans-Serif" font-size="10.00">&#45; inFlyBlocks</text>
<text text-anchor="start" x="99.9929" y="-1045.5" font-family="Helvetica,sans-Serif" font-size="10.00">&#45; binsModifications</text>
<polyline fill="none" stroke="black" points="91.9929,-1038.5 236.993,-1038.5 "/>
<text text-anchor="start" x="99.9929" y="-1026.5" font-family="Helvetica,sans-Serif" font-size="10.00">+ init()</text>
<text text-anchor="start" x="99.9929" y="-1015.5" font-family="Helvetica,sans-Serif" font-size="10.00">+ blockConsumed()</text>
<text text-anchor="start" x="99.9929" y="-1004.5" font-family="Helvetica,sans-Serif" font-size="10.00">+ binsModified()</text>
<text text-anchor="start" x="99.9929" y="-993.5" font-family="Helvetica,sans-Serif" font-size="10.00">+ blockReleased()</text>
<text text-anchor="start" x="99.9929" y="-982.5" font-family="Helvetica,sans-Serif" font-size="10.00">+ getNumOfMods()</text>
<text text-anchor="start" x="99.9929" y="-971.5" font-family="Helvetica,sans-Serif" font-size="10.00">+ waitTillBlockReleased()</text>
</g>
<!-- Node2 -->
<g id="node2" class="node"><title>Node2</title>
<g id="a_node2"><a xlink:href="classrml_1_1internal_1_1Backend.html" target="_top" xlink:title="{rml::internal::Backend\n|+ freeBinsNum\l+ numOfSlabAllocOnMiss\l&#45; totalMemSize\l&#45; memSoftLimit\l&#45; bootsrapMemStatus\l&#45; maxRequestedSize\l|+ scanCoalescQ()\l+ blocksInCoalescing()\l+ verify()\l+ init()\l+ reset()\l+ destroy()\l+ clean()\l+ reportStat()\l+ getSlabBlock()\l+ putSlabBlock()\land 9 more...\l&#45; addNewRegion()\l&#45; findBlockInRegion()\l&#45; startUseBlock()\l&#45; releaseRegion()\l&#45; releaseMemInCaches()\l&#45; requestBootstrapMem()\l&#45; askMemFromOS()\l&#45; genericGetBlock()\l&#45; genericPutBlock()\l&#45; splitUnalignedBlock()\land 9 more...\l&#45; sizeToBin()\l&#45; toAlignedBin()\l}">
<polygon fill="white" stroke="black" points="471.993,-325.5 471.993,-690.5 610.993,-690.5 610.993,-325.5 471.993,-325.5"/>
<text text-anchor="middle" x="541.493" y="-678.5" font-family="Helvetica,sans-Serif" font-size="10.00">rml::internal::Backend</text>
<polyline fill="none" stroke="black" points="471.993,-671.5 610.993,-671.5 "/>
<text text-anchor="start" x="479.993" y="-659.5" font-family="Helvetica,sans-Serif" font-size="10.00">+ freeBinsNum</text>
<text text-anchor="start" x="479.993" y="-648.5" font-family="Helvetica,sans-Serif" font-size="10.00">+ numOfSlabAllocOnMiss</text>
<text text-anchor="start" x="479.993" y="-637.5" font-family="Helvetica,sans-Serif" font-size="10.00">&#45; totalMemSize</text>
<text text-anchor="start" x="479.993" y="-626.5" font-family="Helvetica,sans-Serif" font-size="10.00">&#45; memSoftLimit</text>
<text text-anchor="start" x="479.993" y="-615.5" font-family="Helvetica,sans-Serif" font-size="10.00">&#45; bootsrapMemStatus</text>
<text text-anchor="start" x="479.993" y="-604.5" font-family="Helvetica,sans-Serif" font-size="10.00">&#45; maxRequestedSize</text>
<polyline fill="none" stroke="black" points="471.993,-597.5 610.993,-597.5 "/>
<text text-anchor="start" x="479.993" y="-585.5" font-family="Helvetica,sans-Serif" font-size="10.00">+ scanCoalescQ()</text>
<text text-anchor="start" x="479.993" y="-574.5" font-family="Helvetica,sans-Serif" font-size="10.00">+ blocksInCoalescing()</text>
<text text-anchor="start" x="479.993" y="-563.5" font-family="Helvetica,sans-Serif" font-size="10.00">+ verify()</text>
<text text-anchor="start" x="479.993" y="-552.5" font-family="Helvetica,sans-Serif" font-size="10.00">+ init()</text>
<text text-anchor="start" x="479.993" y="-541.5" font-family="Helvetica,sans-Serif" font-size="10.00">+ reset()</text>
<text text-anchor="start" x="479.993" y="-530.5" font-family="Helvetica,sans-Serif" font-size="10.00">+ destroy()</text>
<text text-anchor="start" x="479.993" y="-519.5" font-family="Helvetica,sans-Serif" font-size="10.00">+ clean()</text>
<text text-anchor="start" x="479.993" y="-508.5" font-family="Helvetica,sans-Serif" font-size="10.00">+ reportStat()</text>
<text text-anchor="start" x="479.993" y="-497.5" font-family="Helvetica,sans-Serif" font-size="10.00">+ getSlabBlock()</text>
<text text-anchor="start" x="479.993" y="-486.5" font-family="Helvetica,sans-Serif" font-size="10.00">+ putSlabBlock()</text>
<text text-anchor="start" x="479.993" y="-475.5" font-family="Helvetica,sans-Serif" font-size="10.00">and 9 more...</text>
<text text-anchor="start" x="479.993" y="-464.5" font-family="Helvetica,sans-Serif" font-size="10.00">&#45; addNewRegion()</text>
<text text-anchor="start" x="479.993" y="-453.5" font-family="Helvetica,sans-Serif" font-size="10.00">&#45; findBlockInRegion()</text>
<text text-anchor="start" x="479.993" y="-442.5" font-family="Helvetica,sans-Serif" font-size="10.00">&#45; startUseBlock()</text>
<text text-anchor="start" x="479.993" y="-431.5" font-family="Helvetica,sans-Serif" font-size="10.00">&#45; releaseRegion()</text>
<text text-anchor="start" x="479.993" y="-420.5" font-family="Helvetica,sans-Serif" font-size="10.00">&#45; releaseMemInCaches()</text>
<text text-anchor="start" x="479.993" y="-409.5" font-family="Helvetica,sans-Serif" font-size="10.00">&#45; requestBootstrapMem()</text>
<text text-anchor="start" x="479.993" y="-398.5" font-family="Helvetica,sans-Serif" font-size="10.00">&#45; askMemFromOS()</text>
<text text-anchor="start" x="479.993" y="-387.5" font-family="Helvetica,sans-Serif" font-size="10.00">&#45; genericGetBlock()</text>
<text text-anchor="start" x="479.993" y="-376.5" font-family="Helvetica,sans-Serif" font-size="10.00">&#45; genericPutBlock()</text>
<text text-anchor="start" x="479.993" y="-365.5" font-family="Helvetica,sans-Serif" font-size="10.00">&#45; splitUnalignedBlock()</text>
<text text-anchor="start" x="479.993" y="-354.5" font-family="Helvetica,sans-Serif" font-size="10.00">and 9 more...</text>
<text text-anchor="start" x="479.993" y="-343.5" font-family="Helvetica,sans-Serif" font-size="10.00">&#45; sizeToBin()</text>
<text text-anchor="start" x="479.993" y="-332.5" font-family="Helvetica,sans-Serif" font-size="10.00">&#45; toAlignedBin()</text>
</a>
</g>
</g>
<!-- Node1&#45;&gt;Node2 -->
<g id="edge11" class="edge"><title>Node1&#45;&gt;Node2</title>
<path fill="none" stroke="#404040" d="M91.8527,-986.215C66.6692,-968.701 41.3051,-945.476 27.4929,-917 -5.09267,-849.819 -12.6095,-811.983 27.4929,-749 123.249,-598.608 340.614,-540.9 459.708,-519.999"/>
<polygon fill="none" stroke="#404040" points="459.792,-519.985 465.037,-515.036 471.622,-517.974 466.377,-522.923 459.792,-519.985"/>
<text text-anchor="middle" x="54.4929" y="-830.5" font-family="Helvetica,sans-Serif" font-size="10.00"> &#45;bkndSync</text>
</g>
<!-- Node5 -->
<g id="node5" class="node"><title>Node5</title>
<g id="a_node5"><a xlink:href="classrml_1_1internal_1_1CoalRequestQ.html" target="_top" xlink:title="{rml::internal::CoalRequestQ\n|&#45; inFlyBlocks\l|+ init()\l+ getAll()\l+ putBlock()\l+ blockWasProcessed()\l+ blocksInFly()\l}">
<polygon fill="white" stroke="red" points="90.9929,-782.5 90.9929,-883.5 237.993,-883.5 237.993,-782.5 90.9929,-782.5"/>
<text text-anchor="middle" x="164.493" y="-871.5" font-family="Helvetica,sans-Serif" font-size="10.00">rml::internal::CoalRequestQ</text>
<polyline fill="none" stroke="red" points="90.9929,-864.5 237.993,-864.5 "/>
<text text-anchor="start" x="98.9929" y="-852.5" font-family="Helvetica,sans-Serif" font-size="10.00">&#45; inFlyBlocks</text>
<polyline fill="none" stroke="red" points="90.9929,-845.5 237.993,-845.5 "/>
<text text-anchor="start" x="98.9929" y="-833.5" font-family="Helvetica,sans-Serif" font-size="10.00">+ init()</text>
<text text-anchor="start" x="98.9929" y="-822.5" font-family="Helvetica,sans-Serif" font-size="10.00">+ getAll()</text>
<text text-anchor="start" x="98.9929" y="-811.5" font-family="Helvetica,sans-Serif" font-size="10.00">+ putBlock()</text>
<text text-anchor="start" x="98.9929" y="-800.5" font-family="Helvetica,sans-Serif" font-size="10.00">+ blockWasProcessed()</text>
<text text-anchor="start" x="98.9929" y="-789.5" font-family="Helvetica,sans-Serif" font-size="10.00">+ blocksInFly()</text>
</a>
</g>
</g>
<!-- Node1&#45;&gt;Node5 -->
<g id="edge5" class="edge"><title>Node1&#45;&gt;Node5</title>
<path fill="none" stroke="#404040" d="M164.493,-964.304C164.493,-942.47 164.493,-917.824 164.493,-895.89"/>
<polygon fill="none" stroke="#404040" points="164.493,-895.676 160.493,-889.676 164.493,-883.676 168.493,-889.676 164.493,-895.676"/>
<text text-anchor="middle" x="191.493" y="-938" font-family="Helvetica,sans-Serif" font-size="10.00"> &#45;bkndSync</text>
</g>
<!-- Node2&#45;&gt;Node1 -->
<g id="edge1" class="edge"><title>Node2&#45;&gt;Node1</title>
<path fill="none" stroke="#404040" d="M471.775,-555.248C412.474,-598.337 329.779,-668 283.493,-749 245.56,-815.382 278.58,-847.603 246.493,-917 240.588,-929.771 232.971,-942.465 224.763,-954.423"/>
<polygon fill="none" stroke="#404040" points="224.708,-954.5 224.491,-961.708 217.754,-964.279 217.971,-957.071 224.708,-954.5"/>
<text text-anchor="middle" x="307.493" y="-830.5" font-family="Helvetica,sans-Serif" font-size="10.00"> &#45;backend</text>
</g>
<!-- Node8 -->
<g id="node8" class="node"><title>Node8</title>
<g id="a_node8"><a xlink:href="structrml_1_1internal_1_1ExtMemoryPool.html" target="_top" xlink:title="{rml::internal::ExtMemoryPool\n|+ poolId\l+ rawAlloc\l+ rawFree\l+ granularity\l+ keepAllMemory\l+ delayRegsReleasing\l+ fixedPool\l|+ init()\l+ initTLS()\l+ userPool()\l+ softCachesCleanup()\l+ releaseAllLocalCaches()\l+ hardCachesCleanup()\l+ remap()\l+ reset()\l+ destroy()\l+ delayRegionsReleasing()\l+ regionsAreReleaseable()\l+ mallocLargeObject()\l+ freeLargeObject()\l+ freeLargeObjectList()\l+ isPoolValid()\l}">
<polygon fill="white" stroke="red" points="463.993,-0.5 463.993,-277.5 618.993,-277.5 618.993,-0.5 463.993,-0.5"/>
<text text-anchor="middle" x="541.493" y="-265.5" font-family="Helvetica,sans-Serif" font-size="10.00">rml::internal::ExtMemoryPool</text>
<polyline fill="none" stroke="red" points="463.993,-258.5 618.993,-258.5 "/>
<text text-anchor="start" x="471.993" y="-246.5" font-family="Helvetica,sans-Serif" font-size="10.00">+ poolId</text>
<text text-anchor="start" x="471.993" y="-235.5" font-family="Helvetica,sans-Serif" font-size="10.00">+ rawAlloc</text>
<text text-anchor="start" x="471.993" y="-224.5" font-family="Helvetica,sans-Serif" font-size="10.00">+ rawFree</text>
<text text-anchor="start" x="471.993" y="-213.5" font-family="Helvetica,sans-Serif" font-size="10.00">+ granularity</text>
<text text-anchor="start" x="471.993" y="-202.5" font-family="Helvetica,sans-Serif" font-size="10.00">+ keepAllMemory</text>
<text text-anchor="start" x="471.993" y="-191.5" font-family="Helvetica,sans-Serif" font-size="10.00">+ delayRegsReleasing</text>
<text text-anchor="start" x="471.993" y="-180.5" font-family="Helvetica,sans-Serif" font-size="10.00">+ fixedPool</text>
<polyline fill="none" stroke="red" points="463.993,-173.5 618.993,-173.5 "/>
<text text-anchor="start" x="471.993" y="-161.5" font-family="Helvetica,sans-Serif" font-size="10.00">+ init()</text>
<text text-anchor="start" x="471.993" y="-150.5" font-family="Helvetica,sans-Serif" font-size="10.00">+ initTLS()</text>
<text text-anchor="start" x="471.993" y="-139.5" font-family="Helvetica,sans-Serif" font-size="10.00">+ userPool()</text>
<text text-anchor="start" x="471.993" y="-128.5" font-family="Helvetica,sans-Serif" font-size="10.00">+ softCachesCleanup()</text>
<text text-anchor="start" x="471.993" y="-117.5" font-family="Helvetica,sans-Serif" font-size="10.00">+ releaseAllLocalCaches()</text>
<text text-anchor="start" x="471.993" y="-106.5" font-family="Helvetica,sans-Serif" font-size="10.00">+ hardCachesCleanup()</text>
<text text-anchor="start" x="471.993" y="-95.5" font-family="Helvetica,sans-Serif" font-size="10.00">+ remap()</text>
<text text-anchor="start" x="471.993" y="-84.5" font-family="Helvetica,sans-Serif" font-size="10.00">+ reset()</text>
<text text-anchor="start" x="471.993" y="-73.5" font-family="Helvetica,sans-Serif" font-size="10.00">+ destroy()</text>
<text text-anchor="start" x="471.993" y="-62.5" font-family="Helvetica,sans-Serif" font-size="10.00">+ delayRegionsReleasing()</text>
<text text-anchor="start" x="471.993" y="-51.5" font-family="Helvetica,sans-Serif" font-size="10.00">+ regionsAreReleaseable()</text>
<text text-anchor="start" x="471.993" y="-40.5" font-family="Helvetica,sans-Serif" font-size="10.00">+ mallocLargeObject()</text>
<text text-anchor="start" x="471.993" y="-29.5" font-family="Helvetica,sans-Serif" font-size="10.00">+ freeLargeObject()</text>
<text text-anchor="start" x="471.993" y="-18.5" font-family="Helvetica,sans-Serif" font-size="10.00">+ freeLargeObjectList()</text>
<text text-anchor="start" x="471.993" y="-7.5" font-family="Helvetica,sans-Serif" font-size="10.00">+ isPoolValid()</text>
</a>
</g>
</g>
<!-- Node2&#45;&gt;Node8 -->
<g id="edge9" class="edge"><title>Node2&#45;&gt;Node8</title>
<path fill="none" stroke="#404040" d="M499.708,-325.377C499.725,-315.458 500.279,-305.618 501.493,-296 501.752,-293.95 502.029,-291.888 502.323,-289.817"/>
<polygon fill="none" stroke="#404040" points="502.337,-289.728 499.309,-283.183 504.186,-277.871 507.214,-284.416 502.337,-289.728"/>
<text text-anchor="middle" x="527.493" y="-299" font-family="Helvetica,sans-Serif" font-size="10.00"> +backend</text>
</g>
<!-- Node3 -->
<g id="node3" class="node"><title>Node3</title>
<g id="a_node3"><a xlink:href="classrml_1_1internal_1_1Backend_1_1UsedAddressRange.html" target="_top" xlink:title="{rml::internal::Backend\l::UsedAddressRange\n||+ init()\l+ registerAlloc()\l+ registerFree()\l+ inRange()\l}">
<polygon fill="white" stroke="black" points="340.493,-782.5 340.493,-883.5 462.493,-883.5 462.493,-782.5 340.493,-782.5"/>
<text text-anchor="start" x="348.493" y="-871.5" font-family="Helvetica,sans-Serif" font-size="10.00">rml::internal::Backend</text>
<text text-anchor="middle" x="401.493" y="-860.5" font-family="Helvetica,sans-Serif" font-size="10.00">::UsedAddressRange</text>
<polyline fill="none" stroke="black" points="340.493,-853.5 462.493,-853.5 "/>
<text text-anchor="middle" x="401.493" y="-841.5" font-family="Helvetica,sans-Serif" font-size="10.00"> </text>
<polyline fill="none" stroke="black" points="340.493,-834.5 462.493,-834.5 "/>
<text text-anchor="start" x="348.493" y="-822.5" font-family="Helvetica,sans-Serif" font-size="10.00">+ init()</text>
<text text-anchor="start" x="348.493" y="-811.5" font-family="Helvetica,sans-Serif" font-size="10.00">+ registerAlloc()</text>
<text text-anchor="start" x="348.493" y="-800.5" font-family="Helvetica,sans-Serif" font-size="10.00">+ registerFree()</text>
<text text-anchor="start" x="348.493" y="-789.5" font-family="Helvetica,sans-Serif" font-size="10.00">+ inRange()</text>
</a>
</g>
</g>
<!-- Node3&#45;&gt;Node2 -->
<g id="edge2" class="edge"><title>Node3&#45;&gt;Node2</title>
<path fill="none" stroke="#404040" d="M422.858,-782.31C432.504,-759.903 444.054,-733.112 454.493,-709 458.592,-699.532 462.804,-689.815 467.058,-680.007"/>
<polygon fill="none" stroke="#404040" points="467.099,-679.913 465.818,-672.817 471.876,-668.905 473.157,-676.001 467.099,-679.913"/>
<text text-anchor="middle" x="495.993" y="-717.5" font-family="Helvetica,sans-Serif" font-size="10.00"> &#45;usedAddrRange</text>
</g>
<!-- Node4 -->
<g id="node4" class="node"><title>Node4</title>
<g id="a_node4"><a xlink:href="classrml_1_1internal_1_1Backend_1_1AdvRegionsBins.html" target="_top" xlink:title="{rml::internal::Backend\l::AdvRegionsBins\n||+ registerBin()\l+ getMinUsedBin()\l+ reset()\l}">
<polygon fill="white" stroke="red" points="480.493,-788 480.493,-878 602.493,-878 602.493,-788 480.493,-788"/>
<text text-anchor="start" x="488.493" y="-866" font-family="Helvetica,sans-Serif" font-size="10.00">rml::internal::Backend</text>
<text text-anchor="middle" x="541.493" y="-855" font-family="Helvetica,sans-Serif" font-size="10.00">::AdvRegionsBins</text>
<polyline fill="none" stroke="red" points="480.493,-848 602.493,-848 "/>
<text text-anchor="middle" x="541.493" y="-836" font-family="Helvetica,sans-Serif" font-size="10.00"> </text>
<polyline fill="none" stroke="red" points="480.493,-829 602.493,-829 "/>
<text text-anchor="start" x="488.493" y="-817" font-family="Helvetica,sans-Serif" font-size="10.00">+ registerBin()</text>
<text text-anchor="start" x="488.493" y="-806" font-family="Helvetica,sans-Serif" font-size="10.00">+ getMinUsedBin()</text>
<text text-anchor="start" x="488.493" y="-795" font-family="Helvetica,sans-Serif" font-size="10.00">+ reset()</text>
</a>
</g>
</g>
<!-- Node4&#45;&gt;Node2 -->
<g id="edge3" class="edge"><title>Node4&#45;&gt;Node2</title>
<path fill="none" stroke="#404040" d="M541.493,-787.765C541.493,-764.708 541.493,-734.732 541.493,-703.01"/>
<polygon fill="none" stroke="#404040" points="541.493,-702.778 537.493,-696.778 541.493,-690.778 545.493,-696.778 541.493,-702.778"/>
<text text-anchor="middle" x="572.493" y="-717.5" font-family="Helvetica,sans-Serif" font-size="10.00"> &#45;advRegBins</text>
</g>
<!-- Node5&#45;&gt;Node2 -->
<g id="edge4" class="edge"><title>Node5&#45;&gt;Node2</title>
<path fill="none" stroke="#404040" d="M174.484,-782.262C181.25,-758.156 192.204,-729.962 209.493,-709 276.586,-627.653 385.942,-570.955 460.679,-539.21"/>
<polygon fill="none" stroke="#404040" points="460.833,-539.146 464.826,-533.142 471.905,-534.519 467.911,-540.523 460.833,-539.146"/>
<text text-anchor="middle" x="234.993" y="-717.5" font-family="Helvetica,sans-Serif" font-size="10.00"> &#45;coalescQ</text>
</g>
<!-- Node6 -->
<g id="node6" class="node"><title>Node6</title>
<g id="a_node6"><a xlink:href="classrml_1_1internal_1_1MemRegionList.html" target="_top" xlink:title="{rml::internal::MemRegionList\n||+ add()\l+ remove()\l+ reportStat()\l}">
<polygon fill="white" stroke="red" points="791.493,-793.5 791.493,-872.5 943.493,-872.5 943.493,-793.5 791.493,-793.5"/>
<text text-anchor="middle" x="867.493" y="-860.5" font-family="Helvetica,sans-Serif" font-size="10.00">rml::internal::MemRegionList</text>
<polyline fill="none" stroke="red" points="791.493,-853.5 943.493,-853.5 "/>
<text text-anchor="middle" x="867.493" y="-841.5" font-family="Helvetica,sans-Serif" font-size="10.00"> </text>
<polyline fill="none" stroke="red" points="791.493,-834.5 943.493,-834.5 "/>
<text text-anchor="start" x="799.493" y="-822.5" font-family="Helvetica,sans-Serif" font-size="10.00">+ add()</text>
<text text-anchor="start" x="799.493" y="-811.5" font-family="Helvetica,sans-Serif" font-size="10.00">+ remove()</text>
<text text-anchor="start" x="799.493" y="-800.5" font-family="Helvetica,sans-Serif" font-size="10.00">+ reportStat()</text>
</a>
</g>
</g>
<!-- Node6&#45;&gt;Node2 -->
<g id="edge6" class="edge"><title>Node6&#45;&gt;Node2</title>
<path fill="none" stroke="#404040" d="M828.493,-793.359C777.14,-742.478 685.656,-651.836 619.761,-586.548"/>
<polygon fill="none" stroke="#404040" points="619.571,-586.36 612.493,-584.978 611.047,-577.914 618.124,-579.295 619.571,-586.36"/>
<text text-anchor="middle" x="789.493" y="-717.5" font-family="Helvetica,sans-Serif" font-size="10.00"> &#45;regionList</text>
</g>
<!-- Node7 -->
<g id="node7" class="node"><title>Node7</title>
<g id="a_node7"><a xlink:href="classMallocMutex.html" target="_top" xlink:title="Stripped down version of spin_mutex. ">
<polygon fill="white" stroke="red" points="616.493,-997.5 616.493,-1054.5 692.493,-1054.5 692.493,-997.5 616.493,-997.5"/>
<text text-anchor="middle" x="654.493" y="-1042.5" font-family="Helvetica,sans-Serif" font-size="10.00">MallocMutex</text>
<polyline fill="none" stroke="red" points="616.493,-1035.5 692.493,-1035.5 "/>
<text text-anchor="start" x="624.493" y="-1023.5" font-family="Helvetica,sans-Serif" font-size="10.00">&#45; flag</text>
<polyline fill="none" stroke="red" points="616.493,-1016.5 692.493,-1016.5 "/>
<text text-anchor="middle" x="654.493" y="-1004.5" font-family="Helvetica,sans-Serif" font-size="10.00"> </text>
</a>
</g>
</g>
<!-- Node7&#45;&gt;Node2 -->
<g id="edge10" class="edge"><title>Node7&#45;&gt;Node2</title>
<path fill="none" stroke="#404040" d="M651.975,-997.223C646.601,-941.838 632.423,-813.959 607.493,-709 606.977,-706.827 606.447,-704.643 605.906,-702.451"/>
<polygon fill="none" stroke="#404040" points="605.864,-702.287 600.507,-697.46 602.902,-690.658 608.26,-695.485 605.864,-702.287"/>
<text text-anchor="middle" x="710.993" y="-830.5" font-family="Helvetica,sans-Serif" font-size="10.00"> &#45;bootsrapMemStatusMutex</text>
</g>
<!-- Node7&#45;&gt;Node6 -->
<g id="edge7" class="edge"><title>Node7&#45;&gt;Node6</title>
<path fill="none" stroke="#404040" d="M686.28,-997.465C711.227,-975.764 746.758,-944.658 777.493,-917 790.334,-905.445 804.092,-892.861 816.892,-881.066"/>
<polygon fill="none" stroke="#404040" points="817.198,-880.783 818.894,-873.774 826.016,-872.643 824.32,-879.652 817.198,-880.783"/>
<text text-anchor="middle" x="792.493" y="-938" font-family="Helvetica,sans-Serif" font-size="10.00"> &#45;regionListLock</text>
</g>
<!-- Node8&#45;&gt;Node2 -->
<g id="edge8" class="edge"><title>Node8&#45;&gt;Node2</title>
<path fill="none" stroke="#404040" d="M556.392,-277.748C556.815,-283.912 557.187,-290.018 557.493,-296 557.785,-301.718 557.983,-307.523 558.096,-313.381"/>
<polygon fill="none" stroke="#404040" points="558.097,-313.472 562.155,-319.433 558.213,-325.472 554.155,-319.511 558.097,-313.472"/>
<text text-anchor="middle" x="591.993" y="-299" font-family="Helvetica,sans-Serif" font-size="10.00"> &#45;extMemPool</text>
</g>
<!-- Node9 -->
<g id="node9" class="node"><title>Node9</title>
<g id="a_node9"><a xlink:href="classrml_1_1internal_1_1Backend_1_1IndexedBins.html" target="_top" xlink:title="{rml::internal::Backend\l::IndexedBins\n||+ findBlock()\l+ tryReleaseRegions()\l+ lockRemoveBlock()\l+ addBlock()\l+ tryAddBlock()\l+ getMinNonemptyBin()\l+ verify()\l+ reset()\l+ reportStat()\l&#45; getFromBin()\l}">
<polygon fill="white" stroke="red" points="961.993,-749.5 961.993,-916.5 1094.99,-916.5 1094.99,-749.5 961.993,-749.5"/>
<text text-anchor="start" x="969.993" y="-904.5" font-family="Helvetica,sans-Serif" font-size="10.00">rml::internal::Backend</text>
<text text-anchor="middle" x="1028.49" y="-893.5" font-family="Helvetica,sans-Serif" font-size="10.00">::IndexedBins</text>
<polyline fill="none" stroke="red" points="961.993,-886.5 1094.99,-886.5 "/>
<text text-anchor="middle" x="1028.49" y="-874.5" font-family="Helvetica,sans-Serif" font-size="10.00"> </text>
<polyline fill="none" stroke="red" points="961.993,-867.5 1094.99,-867.5 "/>
<text text-anchor="start" x="969.993" y="-855.5" font-family="Helvetica,sans-Serif" font-size="10.00">+ findBlock()</text>
<text text-anchor="start" x="969.993" y="-844.5" font-family="Helvetica,sans-Serif" font-size="10.00">+ tryReleaseRegions()</text>
<text text-anchor="start" x="969.993" y="-833.5" font-family="Helvetica,sans-Serif" font-size="10.00">+ lockRemoveBlock()</text>
<text text-anchor="start" x="969.993" y="-822.5" font-family="Helvetica,sans-Serif" font-size="10.00">+ addBlock()</text>
<text text-anchor="start" x="969.993" y="-811.5" font-family="Helvetica,sans-Serif" font-size="10.00">+ tryAddBlock()</text>
<text text-anchor="start" x="969.993" y="-800.5" font-family="Helvetica,sans-Serif" font-size="10.00">+ getMinNonemptyBin()</text>
<text text-anchor="start" x="969.993" y="-789.5" font-family="Helvetica,sans-Serif" font-size="10.00">+ verify()</text>
<text text-anchor="start" x="969.993" y="-778.5" font-family="Helvetica,sans-Serif" font-size="10.00">+ reset()</text>
<text text-anchor="start" x="969.993" y="-767.5" font-family="Helvetica,sans-Serif" font-size="10.00">+ reportStat()</text>
<text text-anchor="start" x="969.993" y="-756.5" font-family="Helvetica,sans-Serif" font-size="10.00">&#45; getFromBin()</text>
</a>
</g>
</g>
<!-- Node9&#45;&gt;Node2 -->
<g id="edge12" class="edge"><title>Node9&#45;&gt;Node2</title>
<path fill="none" stroke="#404040" d="M961.565,-756.697C958.564,-754.031 955.534,-751.454 952.493,-749 847.197,-664.032 708.45,-589.569 622.124,-546.936"/>
<polygon fill="none" stroke="#404040" points="622.114,-546.931 614.965,-547.877 611.342,-541.642 618.491,-540.696 622.114,-546.931"/>
<text text-anchor="middle" x="961.993" y="-723" font-family="Helvetica,sans-Serif" font-size="10.00"> &#45;freeLargeBins</text>
<text text-anchor="middle" x="961.993" y="-712" font-family="Helvetica,sans-Serif" font-size="10.00">&#45;freeAlignedBins</text>
</g>
<!-- Node10 -->
<g id="node10" class="node"><title>Node10</title>
<g id="a_node10"><a xlink:href="classrml_1_1internal_1_1MemExtendingSema.html" target="_top" xlink:title="{rml::internal::MemExtendingSema\n|&#45; active\l|+ wait()\l+ signal()\l}">
<polygon fill="white" stroke="black" points="1113.49,-799 1113.49,-867 1293.49,-867 1293.49,-799 1113.49,-799"/>
<text text-anchor="middle" x="1203.49" y="-855" font-family="Helvetica,sans-Serif" font-size="10.00">rml::internal::MemExtendingSema</text>
<polyline fill="none" stroke="black" points="1113.49,-848 1293.49,-848 "/>
<text text-anchor="start" x="1121.49" y="-836" font-family="Helvetica,sans-Serif" font-size="10.00">&#45; active</text>
<polyline fill="none" stroke="black" points="1113.49,-829 1293.49,-829 "/>
<text text-anchor="start" x="1121.49" y="-817" font-family="Helvetica,sans-Serif" font-size="10.00">+ wait()</text>
<text text-anchor="start" x="1121.49" y="-806" font-family="Helvetica,sans-Serif" font-size="10.00">+ signal()</text>
</a>
</g>
</g>
<!-- Node10&#45;&gt;Node2 -->
<g id="edge13" class="edge"><title>Node10&#45;&gt;Node2</title>
<path fill="none" stroke="#404040" d="M1168.83,-798.968C1150.41,-782.548 1126.79,-763.227 1103.49,-749 943.016,-651.011 735.382,-573.671 622.797,-535.353"/>
<polygon fill="none" stroke="#404040" points="622.574,-535.278 615.609,-537.144 611.207,-531.432 618.173,-529.566 622.574,-535.278"/>
<text text-anchor="middle" x="1115.99" y="-717.5" font-family="Helvetica,sans-Serif" font-size="10.00"> &#45;memExtendingSema</text>
</g>
</g>
</svg>
        <g id="navigator" transform="translate(0 0)" fill="#404254">
                <rect fill="#f2f5e9" fill-opacity="0.5" stroke="#606060" stroke-width=".5" x="0" y="0" width="60" height="60"/>
                <use id="zoomplus" xlink:href="#zoomPlus" x="17" y="9" onmousedown="handleZoom(evt,'in')"/>
                <use id="zoomminus" xlink:href="#zoomMin" x="42" y="9" onmousedown="handleZoom(evt,'out')"/>
                <use id="reset" xlink:href="#resetDef" x="30" y="36" onmousedown="handleReset()"/>
                <g id="arrowUp" xlink:href="#dirArrow" transform="translate(30 24)" onmousedown="handlePan(0,-1)">
                  <use xlink:href="#rim" fill="#404040">
                        <set attributeName="fill" to="#808080" begin="arrowUp.mouseover" end="arrowUp.mouseout"/>
                  </use>
                  <path fill="none" stroke="white" stroke-width="1.5" d="M0,-3.0v7 M-2.5,-0.5L0,-3.0L2.5,-0.5"/>
                </g>
                <g id="arrowRight" xlink:href="#dirArrow" transform="rotate(90) translate(36 -43)" onmousedown="handlePan(1,0)">
                  <use xlink:href="#rim" fill="#404040">
                        <set attributeName="fill" to="#808080" begin="arrowRight.mouseover" end="arrowRight.mouseout"/>
                  </use>
                  <path fill="none" stroke="white" stroke-width="1.5" d="M0,-3.0v7 M-2.5,-0.5L0,-3.0L2.5,-0.5"/>
                </g>
                <g id="arrowDown" xlink:href="#dirArrow" transform="rotate(180) translate(-30 -48)" onmousedown="handlePan(0,1)">
                  <use xlink:href="#rim" fill="#404040">
                        <set attributeName="fill" to="#808080" begin="arrowDown.mouseover" end="arrowDown.mouseout"/>
                  </use>
                  <path fill="none" stroke="white" stroke-width="1.5" d="M0,-3.0v7 M-2.5,-0.5L0,-3.0L2.5,-0.5"/>
                </g>
                <g id="arrowLeft" xlink:href="#dirArrow" transform="rotate(270) translate(-36 17)" onmousedown="handlePan(-1,0)">
                  <use xlink:href="#rim" fill="#404040">
                        <set attributeName="fill" to="#808080" begin="arrowLeft.mouseover" end="arrowLeft.mouseout"/>
                  </use>
                  <path fill="none" stroke="white" stroke-width="1.5" d="M0,-3.0v7 M-2.5,-0.5L0,-3.0L2.5,-0.5"/>
                </g>
        </g>
        <svg viewBox="0 0 15 15" width="100%" height="30px" preserveAspectRatio="xMaxYMin meet">
         <g id="arrow_out" transform="scale(0.3 0.3)">
          <a xlink:href="classrml_1_1internal_1_1BackendSync__coll__graph_org.svg" target="_base">
           <rect id="button" ry="5" rx="5" y="6" x="6" height="38" width="38"
                fill="#f2f5e9" fill-opacity="0.5" stroke="#606060" stroke-width="1.0"/>
           <path id="arrow"
             d="M 11.500037,31.436501 C 11.940474,20.09759 22.043105,11.32322 32.158766,21.979434 L 37.068811,17.246167 C 37.068811,17.246167 37.088388,32 37.088388,32 L 22.160133,31.978069 C 22.160133,31.978069 26.997745,27.140456 26.997745,27.140456 C 18.528582,18.264221 13.291696,25.230495 11.500037,31.436501 z"
             style="fill:#404040;"/>
          </a>
         </g>
        </svg>
</svg>
