<?xml version="1.0" encoding="UTF-8" standalone="no"?>
<!DOCTYPE svg PUBLIC "-//W3C//DTD SVG 1.1//EN"
 "http://www.w3.org/Graphics/SVG/1.1/DTD/svg11.dtd">
<!-- Generated by graphviz version 2.40.1 (20161225.0304)
 -->
<!-- Title: ComPWA::BadConfig Pages: 1 -->
<svg width="124pt" height="331pt"
 viewBox="0.00 0.00 124.00 331.00" xmlns="http://www.w3.org/2000/svg" xmlns:xlink="http://www.w3.org/1999/xlink">
<g id="graph0" class="graph" transform="scale(1 1) rotate(0) translate(4 327)">
<title>ComPWA::BadConfig</title>
<polygon fill="#ffffff" stroke="transparent" points="-4,4 -4,-327 120,-327 120,4 -4,4"/>
<!-- Node0 -->
<g id="node1" class="node">
<title>Node0</title>
<polygon fill="#bfbfbf" stroke="#000000" points="0,-.5 0,-79.5 116,-79.5 116,-.5 0,-.5"/>
<text text-anchor="middle" x="58" y="-67.5" font-family="Helvetica,sans-Serif" font-size="10.00" fill="#000000">ComPWA::BadConfig</text>
<polyline fill="none" stroke="#000000" points="0,-60.5 116,-60.5 "/>
<text text-anchor="middle" x="58" y="-48.5" font-family="Helvetica,sans-Serif" font-size="10.00" fill="#000000"> </text>
<polyline fill="none" stroke="#000000" points="0,-41.5 116,-41.5 "/>
<text text-anchor="start" x="8" y="-29.5" font-family="Helvetica,sans-Serif" font-size="10.00" fill="#000000">+ BadConfig()</text>
<text text-anchor="start" x="8" y="-18.5" font-family="Helvetica,sans-Serif" font-size="10.00" fill="#000000">+ BadConfig()</text>
<text text-anchor="start" x="8" y="-7.5" font-family="Helvetica,sans-Serif" font-size="10.00" fill="#000000">+ ~BadConfig()</text>
</g>
<!-- Node1 -->
<g id="node2" class="node">
<title>Node1</title>
<g id="a_node2"><a xlink:href="classComPWA_1_1Exception.html" target="_top" xlink:title="ComPWA Exceptions base class. ">
<polygon fill="#ffffff" stroke="#000000" points=".5,-116.5 .5,-228.5 115.5,-228.5 115.5,-116.5 .5,-116.5"/>
<text text-anchor="middle" x="58" y="-216.5" font-family="Helvetica,sans-Serif" font-size="10.00" fill="#000000">ComPWA::Exception</text>
<polyline fill="none" stroke="#000000" points=".5,-209.5 115.5,-209.5 "/>
<text text-anchor="start" x="8.5" y="-197.5" font-family="Helvetica,sans-Serif" font-size="10.00" fill="#000000"># what_</text>
<polyline fill="none" stroke="#000000" points=".5,-190.5 115.5,-190.5 "/>
<text text-anchor="start" x="8.5" y="-178.5" font-family="Helvetica,sans-Serif" font-size="10.00" fill="#000000">+ Exception()</text>
<text text-anchor="start" x="8.5" y="-167.5" font-family="Helvetica,sans-Serif" font-size="10.00" fill="#000000">+ operator=()</text>
<text text-anchor="start" x="8.5" y="-156.5" font-family="Helvetica,sans-Serif" font-size="10.00" fill="#000000">+ ~Exception()</text>
<text text-anchor="start" x="8.5" y="-145.5" font-family="Helvetica,sans-Serif" font-size="10.00" fill="#000000">+ what()</text>
<text text-anchor="start" x="8.5" y="-134.5" font-family="Helvetica,sans-Serif" font-size="10.00" fill="#000000"># Exception()</text>
<text text-anchor="start" x="8.5" y="-123.5" font-family="Helvetica,sans-Serif" font-size="10.00" fill="#000000"># Exception()</text>
</a>
</g>
</g>
<!-- Node1&#45;&gt;Node0 -->
<g id="edge1" class="edge">
<title>Node1&#45;&gt;Node0</title>
<path fill="none" stroke="#191970" d="M58,-106.1704C58,-97.1605 58,-88.1527 58,-79.8133"/>
<polygon fill="none" stroke="#191970" points="54.5001,-106.308 58,-116.3081 61.5001,-106.3081 54.5001,-106.308"/>
</g>
<!-- Node2 -->
<g id="node3" class="node">
<title>Node2</title>
<polygon fill="#ffffff" stroke="#bfbfbf" points="15,-265.5 15,-322.5 101,-322.5 101,-265.5 15,-265.5"/>
<text text-anchor="middle" x="58" y="-310.5" font-family="Helvetica,sans-Serif" font-size="10.00" fill="#000000">std::exception</text>
<polyline fill="none" stroke="#bfbfbf" points="15,-303.5 101,-303.5 "/>
<text text-anchor="middle" x="58" y="-291.5" font-family="Helvetica,sans-Serif" font-size="10.00" fill="#000000"> </text>
<polyline fill="none" stroke="#bfbfbf" points="15,-284.5 101,-284.5 "/>
<text text-anchor="middle" x="58" y="-272.5" font-family="Helvetica,sans-Serif" font-size="10.00" fill="#000000"> </text>
</g>
<!-- Node2&#45;&gt;Node1 -->
<g id="edge2" class="edge">
<title>Node2&#45;&gt;Node1</title>
<path fill="none" stroke="#191970" d="M58,-255.0021C58,-246.6329 58,-237.6292 58,-228.7541"/>
<polygon fill="none" stroke="#191970" points="54.5001,-255.2062 58,-265.2062 61.5001,-255.2062 54.5001,-255.2062"/>
</g>
</g>
</svg>
