<?xml version="1.0" encoding="UTF-8" standalone="no"?>
<!DOCTYPE svg PUBLIC "-//W3C//DTD SVG 1.1//EN"
 "http://www.w3.org/Graphics/SVG/1.1/DTD/svg11.dtd">
<!-- Generated by graphviz version 2.38.0 (20140413.2041)
 -->
<!-- Title: MyObserver Pages: 1 -->
<svg width="187pt" height="259pt"
 viewBox="0.00 0.00 187.00 259.00" xmlns="http://www.w3.org/2000/svg" xmlns:xlink="http://www.w3.org/1999/xlink">
<g id="graph0" class="graph" transform="scale(1 1) rotate(0) translate(4 255)">
<title>MyObserver</title>
<polygon fill="white" stroke="none" points="-4,4 -4,-255 183,-255 183,4 -4,4"/>
<!-- Node1 -->
<g id="node1" class="node"><title>Node1</title>
<polygon fill="#bfbfbf" stroke="black" points="27,-0.5 27,-79.5 152,-79.5 152,-0.5 27,-0.5"/>
<text text-anchor="middle" x="89.5" y="-67.5" font-family="Helvetica,sans-Serif" font-size="10.00">MyObserver</text>
<polyline fill="none" stroke="black" points="27,-60.5 152,-60.5 "/>
<text text-anchor="start" x="35" y="-48.5" font-family="Helvetica,sans-Serif" font-size="10.00">&#45; flags</text>
<polyline fill="none" stroke="black" points="27,-41.5 152,-41.5 "/>
<text text-anchor="start" x="35" y="-29.5" font-family="Helvetica,sans-Serif" font-size="10.00">+ MyObserver()</text>
<text text-anchor="start" x="35" y="-18.5" font-family="Helvetica,sans-Serif" font-size="10.00">&#45; on_scheduler_entry()</text>
<text text-anchor="start" x="35" y="-7.5" font-family="Helvetica,sans-Serif" font-size="10.00">&#45; on_scheduler_exit()</text>
</g>
<!-- Node2 -->
<g id="node2" class="node"><title>Node2</title>
<g id="a_node2"><a xlink:href="classtbb_1_1internal_1_1task__scheduler__observer__v3.html" target="_top" xlink:title="{tbb::task_scheduler\l_observer\n|&#45; my_proxy\l&#45; my_busy_count\l|+ observe()\l+ is_observing()\l+ task_scheduler_observer_v3()\l+ on_scheduler_entry()\l+ on_scheduler_exit()\l+ ~task_scheduler_observer_v3()\l}">
<polygon fill="white" stroke="black" points="0,-116.5 0,-250.5 179,-250.5 179,-116.5 0,-116.5"/>
<text text-anchor="start" x="8" y="-238.5" font-family="Helvetica,sans-Serif" font-size="10.00">tbb::task_scheduler</text>
<text text-anchor="middle" x="89.5" y="-227.5" font-family="Helvetica,sans-Serif" font-size="10.00">_observer</text>
<polyline fill="none" stroke="black" points="0,-220.5 179,-220.5 "/>
<text text-anchor="start" x="8" y="-208.5" font-family="Helvetica,sans-Serif" font-size="10.00">&#45; my_proxy</text>
<text text-anchor="start" x="8" y="-197.5" font-family="Helvetica,sans-Serif" font-size="10.00">&#45; my_busy_count</text>
<polyline fill="none" stroke="black" points="0,-190.5 179,-190.5 "/>
<text text-anchor="start" x="8" y="-178.5" font-family="Helvetica,sans-Serif" font-size="10.00">+ observe()</text>
<text text-anchor="start" x="8" y="-167.5" font-family="Helvetica,sans-Serif" font-size="10.00">+ is_observing()</text>
<text text-anchor="start" x="8" y="-156.5" font-family="Helvetica,sans-Serif" font-size="10.00">+ task_scheduler_observer_v3()</text>
<text text-anchor="start" x="8" y="-145.5" font-family="Helvetica,sans-Serif" font-size="10.00">+ on_scheduler_entry()</text>
<text text-anchor="start" x="8" y="-134.5" font-family="Helvetica,sans-Serif" font-size="10.00">+ on_scheduler_exit()</text>
<text text-anchor="start" x="8" y="-123.5" font-family="Helvetica,sans-Serif" font-size="10.00">+ ~task_scheduler_observer_v3()</text>
</a>
</g>
</g>
<!-- Node2&#45;&gt;Node1 -->
<g id="edge1" class="edge"><title>Node2&#45;&gt;Node1</title>
<path fill="none" stroke="midnightblue" d="M89.5,-106.03C89.5,-96.9466 89.5,-87.9896 89.5,-79.7634"/>
<polygon fill="none" stroke="midnightblue" points="86.0001,-106.307 89.5,-116.307 93.0001,-106.307 86.0001,-106.307"/>
</g>
</g>
</svg>
