<?xml version="1.0" encoding="UTF-8" standalone="no"?>
<!DOCTYPE svg PUBLIC "-//W3C//DTD SVG 1.1//EN"
 "http://www.w3.org/Graphics/SVG/1.1/DTD/svg11.dtd">
<!-- Generated by graphviz version 2.38.0 (20140413.2041)
 -->
<!-- Title: rml::internal::BitMaskBasic&lt; NUM &gt; Pages: 1 -->
<svg width="595pt" height="237pt"
 viewBox="0.00 0.00 595.00 237.00" xmlns="http://www.w3.org/2000/svg" xmlns:xlink="http://www.w3.org/1999/xlink">
<g id="graph0" class="graph" transform="scale(1 1) rotate(0) translate(4 233)">
<title>rml::internal::BitMaskBasic&lt; NUM &gt;</title>
<polygon fill="white" stroke="none" points="-4,4 -4,-233 591,-233 591,4 -4,4"/>
<!-- Node1 -->
<g id="node1" class="node"><title>Node1</title>
<polygon fill="#bfbfbf" stroke="black" points="220.5,-116.5 220.5,-228.5 363.5,-228.5 363.5,-116.5 220.5,-116.5"/>
<text text-anchor="start" x="228.5" y="-216.5" font-family="Helvetica,sans-Serif" font-size="10.00">rml::internal::BitMaskBasic</text>
<text text-anchor="middle" x="292" y="-205.5" font-family="Helvetica,sans-Serif" font-size="10.00">&lt; NUM &gt;</text>
<polyline fill="none" stroke="black" points="220.5,-198.5 363.5,-198.5 "/>
<text text-anchor="start" x="228.5" y="-186.5" font-family="Helvetica,sans-Serif" font-size="10.00">&#45; mask</text>
<text text-anchor="start" x="228.5" y="-175.5" font-family="Helvetica,sans-Serif" font-size="10.00">&#45; SZ</text>
<text text-anchor="start" x="228.5" y="-164.5" font-family="Helvetica,sans-Serif" font-size="10.00">&#45; WORD_LEN</text>
<polyline fill="none" stroke="black" points="220.5,-157.5 363.5,-157.5 "/>
<text text-anchor="start" x="228.5" y="-145.5" font-family="Helvetica,sans-Serif" font-size="10.00">+ reset()</text>
<text text-anchor="start" x="228.5" y="-134.5" font-family="Helvetica,sans-Serif" font-size="10.00"># set()</text>
<text text-anchor="start" x="228.5" y="-123.5" font-family="Helvetica,sans-Serif" font-size="10.00"># getMinTrue()</text>
</g>
<!-- Node2 -->
<g id="node2" class="node"><title>Node2</title>
<g id="a_node2"><a xlink:href="classrml_1_1internal_1_1BitMaskMax.html" target="_top" xlink:title="{BitMaskMax\&lt; numBins \&gt;\n||+ set()\l+ getMaxTrue()\l}">
<polygon fill="white" stroke="black" points="0,-6 0,-74 138,-74 138,-6 0,-6"/>
<text text-anchor="middle" x="69" y="-62" font-family="Helvetica,sans-Serif" font-size="10.00">BitMaskMax&lt; numBins &gt;</text>
<polyline fill="none" stroke="black" points="0,-55 138,-55 "/>
<text text-anchor="middle" x="69" y="-43" font-family="Helvetica,sans-Serif" font-size="10.00"> </text>
<polyline fill="none" stroke="black" points="0,-36 138,-36 "/>
<text text-anchor="start" x="8" y="-24" font-family="Helvetica,sans-Serif" font-size="10.00">+ set()</text>
<text text-anchor="start" x="8" y="-13" font-family="Helvetica,sans-Serif" font-size="10.00">+ getMaxTrue()</text>
</a>
</g>
</g>
<!-- Node1&#45;&gt;Node2 -->
<g id="edge1" class="edge"><title>Node1&#45;&gt;Node2</title>
<path fill="none" stroke="midnightblue" d="M211.471,-124.374C182.967,-107.694 151.53,-89.2968 125.455,-74.0374"/>
<polygon fill="none" stroke="midnightblue" points="209.815,-127.461 220.214,-129.491 213.351,-121.419 209.815,-127.461"/>
</g>
<!-- Node3 -->
<g id="node3" class="node"><title>Node3</title>
<g id="a_node3"><a xlink:href="classrml_1_1internal_1_1BitMaskMin.html" target="_top" xlink:title="{BitMaskMin\&lt; Backend\l::freeBinsNum \&gt;\n||+ set()\l+ getMinTrue()\l}">
<polygon fill="white" stroke="black" points="156.5,-0.5 156.5,-79.5 279.5,-79.5 279.5,-0.5 156.5,-0.5"/>
<text text-anchor="start" x="164.5" y="-67.5" font-family="Helvetica,sans-Serif" font-size="10.00">BitMaskMin&lt; Backend</text>
<text text-anchor="middle" x="218" y="-56.5" font-family="Helvetica,sans-Serif" font-size="10.00">::freeBinsNum &gt;</text>
<polyline fill="none" stroke="black" points="156.5,-49.5 279.5,-49.5 "/>
<text text-anchor="middle" x="218" y="-37.5" font-family="Helvetica,sans-Serif" font-size="10.00"> </text>
<polyline fill="none" stroke="black" points="156.5,-30.5 279.5,-30.5 "/>
<text text-anchor="start" x="164.5" y="-18.5" font-family="Helvetica,sans-Serif" font-size="10.00">+ set()</text>
<text text-anchor="start" x="164.5" y="-7.5" font-family="Helvetica,sans-Serif" font-size="10.00">+ getMinTrue()</text>
</a>
</g>
</g>
<!-- Node1&#45;&gt;Node3 -->
<g id="edge2" class="edge"><title>Node1&#45;&gt;Node3</title>
<path fill="none" stroke="midnightblue" d="M255.547,-107.215C250.239,-97.8536 244.916,-88.4661 240.015,-79.823"/>
<polygon fill="none" stroke="midnightblue" points="252.64,-109.184 260.617,-116.156 258.729,-105.731 252.64,-109.184"/>
</g>
<!-- Node4 -->
<g id="node4" class="node"><title>Node4</title>
<g id="a_node4"><a xlink:href="classrml_1_1internal_1_1BitMaskMax.html" target="_top" xlink:title="{rml::internal::BitMaskMax\l\&lt; NUM \&gt;\n||+ set()\l+ getMaxTrue()\l}">
<polygon fill="white" stroke="black" points="297.5,-0.5 297.5,-79.5 434.5,-79.5 434.5,-0.5 297.5,-0.5"/>
<text text-anchor="start" x="305.5" y="-67.5" font-family="Helvetica,sans-Serif" font-size="10.00">rml::internal::BitMaskMax</text>
<text text-anchor="middle" x="366" y="-56.5" font-family="Helvetica,sans-Serif" font-size="10.00">&lt; NUM &gt;</text>
<polyline fill="none" stroke="black" points="297.5,-49.5 434.5,-49.5 "/>
<text text-anchor="middle" x="366" y="-37.5" font-family="Helvetica,sans-Serif" font-size="10.00"> </text>
<polyline fill="none" stroke="black" points="297.5,-30.5 434.5,-30.5 "/>
<text text-anchor="start" x="305.5" y="-18.5" font-family="Helvetica,sans-Serif" font-size="10.00">+ set()</text>
<text text-anchor="start" x="305.5" y="-7.5" font-family="Helvetica,sans-Serif" font-size="10.00">+ getMaxTrue()</text>
</a>
</g>
</g>
<!-- Node1&#45;&gt;Node4 -->
<g id="edge3" class="edge"><title>Node1&#45;&gt;Node4</title>
<path fill="none" stroke="midnightblue" d="M328.453,-107.215C333.761,-97.8536 339.084,-88.4661 343.985,-79.823"/>
<polygon fill="none" stroke="midnightblue" points="325.271,-105.731 323.383,-116.156 331.36,-109.184 325.271,-105.731"/>
</g>
<!-- Node5 -->
<g id="node5" class="node"><title>Node5</title>
<g id="a_node5"><a xlink:href="classrml_1_1internal_1_1BitMaskMin.html" target="_top" xlink:title="{rml::internal::BitMaskMin\l\&lt; NUM \&gt;\n||+ set()\l+ getMinTrue()\l}">
<polygon fill="white" stroke="black" points="453,-0.5 453,-79.5 587,-79.5 587,-0.5 453,-0.5"/>
<text text-anchor="start" x="461" y="-67.5" font-family="Helvetica,sans-Serif" font-size="10.00">rml::internal::BitMaskMin</text>
<text text-anchor="middle" x="520" y="-56.5" font-family="Helvetica,sans-Serif" font-size="10.00">&lt; NUM &gt;</text>
<polyline fill="none" stroke="black" points="453,-49.5 587,-49.5 "/>
<text text-anchor="middle" x="520" y="-37.5" font-family="Helvetica,sans-Serif" font-size="10.00"> </text>
<polyline fill="none" stroke="black" points="453,-30.5 587,-30.5 "/>
<text text-anchor="start" x="461" y="-18.5" font-family="Helvetica,sans-Serif" font-size="10.00">+ set()</text>
<text text-anchor="start" x="461" y="-7.5" font-family="Helvetica,sans-Serif" font-size="10.00">+ getMinTrue()</text>
</a>
</g>
</g>
<!-- Node1&#45;&gt;Node5 -->
<g id="edge4" class="edge"><title>Node1&#45;&gt;Node5</title>
<path fill="none" stroke="midnightblue" d="M372.308,-125.534C398.559,-110.509 427.428,-93.985 452.626,-79.5627"/>
<polygon fill="none" stroke="midnightblue" points="370.455,-122.562 363.515,-130.567 373.933,-128.637 370.455,-122.562"/>
</g>
</g>
</svg>
