<?xml version="1.0" encoding="UTF-8" standalone="no"?>
<!DOCTYPE svg PUBLIC "-//W3C//DTD SVG 1.1//EN"
 "http://www.w3.org/Graphics/SVG/1.1/DTD/svg11.dtd">
<!-- Generated by graphviz version 2.38.0 (20140413.2041)
 -->
<!-- Title: tbb::interface5::concurrent_hash_map&lt; Key, T, HashCompare, Allocator &gt;::accessor Pages: 1 -->
<svg width="306pt" height="453pt"
 viewBox="0.00 0.00 305.50 453.00" xmlns="http://www.w3.org/2000/svg" xmlns:xlink="http://www.w3.org/1999/xlink">
<g id="graph0" class="graph" transform="scale(1 1) rotate(0) translate(4 449)">
<title>tbb::interface5::concurrent_hash_map&lt; Key, T, HashCompare, Allocator &gt;::accessor</title>
<polygon fill="white" stroke="none" points="-4,4 -4,-449 301.5,-449 301.5,4 -4,4"/>
<!-- Node1 -->
<g id="node1" class="node"><title>Node1</title>
<polygon fill="#bfbfbf" stroke="black" points="29.5,-0.5 29.5,-90.5 218.5,-90.5 218.5,-0.5 29.5,-0.5"/>
<text text-anchor="start" x="37.5" y="-78.5" font-family="Helvetica,sans-Serif" font-size="10.00">tbb::interface5::concurrent</text>
<text text-anchor="start" x="37.5" y="-67.5" font-family="Helvetica,sans-Serif" font-size="10.00">_hash_map&lt; Key, T, HashCompare,</text>
<text text-anchor="middle" x="124" y="-56.5" font-family="Helvetica,sans-Serif" font-size="10.00"> Allocator &gt;::accessor</text>
<polyline fill="none" stroke="black" points="29.5,-49.5 218.5,-49.5 "/>
<text text-anchor="middle" x="124" y="-37.5" font-family="Helvetica,sans-Serif" font-size="10.00"> </text>
<polyline fill="none" stroke="black" points="29.5,-30.5 218.5,-30.5 "/>
<text text-anchor="start" x="37.5" y="-18.5" font-family="Helvetica,sans-Serif" font-size="10.00">+ operator*()</text>
<text text-anchor="start" x="37.5" y="-7.5" font-family="Helvetica,sans-Serif" font-size="10.00">+ operator&#45;&gt;()</text>
</g>
<!-- Node2 -->
<g id="node2" class="node"><title>Node2</title>
<g id="a_node2"><a xlink:href="classtbb_1_1interface5_1_1concurrent__hash__map_1_1const__accessor.html" target="_top" xlink:title="Combines data access, locking, and garbage collection. ">
<polygon fill="white" stroke="black" points="29.5,-128.5 29.5,-273.5 218.5,-273.5 218.5,-128.5 29.5,-128.5"/>
<text text-anchor="start" x="37.5" y="-261.5" font-family="Helvetica,sans-Serif" font-size="10.00">tbb::interface5::concurrent</text>
<text text-anchor="start" x="37.5" y="-250.5" font-family="Helvetica,sans-Serif" font-size="10.00">_hash_map&lt; Key, T, HashCompare,</text>
<text text-anchor="middle" x="124" y="-239.5" font-family="Helvetica,sans-Serif" font-size="10.00"> Allocator &gt;::const_accessor</text>
<polyline fill="none" stroke="black" points="29.5,-232.5 218.5,-232.5 "/>
<text text-anchor="start" x="37.5" y="-220.5" font-family="Helvetica,sans-Serif" font-size="10.00"># my_hash</text>
<polyline fill="none" stroke="black" points="29.5,-213.5 218.5,-213.5 "/>
<text text-anchor="start" x="37.5" y="-201.5" font-family="Helvetica,sans-Serif" font-size="10.00">+ empty()</text>
<text text-anchor="start" x="37.5" y="-190.5" font-family="Helvetica,sans-Serif" font-size="10.00">+ release()</text>
<text text-anchor="start" x="37.5" y="-179.5" font-family="Helvetica,sans-Serif" font-size="10.00">+ operator*()</text>
<text text-anchor="start" x="37.5" y="-168.5" font-family="Helvetica,sans-Serif" font-size="10.00">+ operator&#45;&gt;()</text>
<text text-anchor="start" x="37.5" y="-157.5" font-family="Helvetica,sans-Serif" font-size="10.00">+ const_accessor()</text>
<text text-anchor="start" x="37.5" y="-146.5" font-family="Helvetica,sans-Serif" font-size="10.00">+ ~const_accessor()</text>
<text text-anchor="start" x="37.5" y="-135.5" font-family="Helvetica,sans-Serif" font-size="10.00"># is_writer()</text>
</a>
</g>
</g>
<!-- Node2&#45;&gt;Node1 -->
<g id="edge1" class="edge"><title>Node2&#45;&gt;Node1</title>
<path fill="none" stroke="midnightblue" d="M124,-117.984C124,-108.589 124,-99.2999 124,-90.683"/>
<polygon fill="none" stroke="midnightblue" points="120.5,-118.194 124,-128.194 127.5,-118.194 120.5,-118.194"/>
</g>
<!-- Node3 -->
<g id="node3" class="node"><title>Node3</title>
<polygon fill="white" stroke="#bfbfbf" points="0,-354.5 0,-411.5 90,-411.5 90,-354.5 0,-354.5"/>
<text text-anchor="middle" x="45" y="-399.5" font-family="Helvetica,sans-Serif" font-size="10.00">node::scoped_t</text>
<polyline fill="none" stroke="#bfbfbf" points="0,-392.5 90,-392.5 "/>
<text text-anchor="middle" x="45" y="-380.5" font-family="Helvetica,sans-Serif" font-size="10.00"> </text>
<polyline fill="none" stroke="#bfbfbf" points="0,-373.5 90,-373.5 "/>
<text text-anchor="middle" x="45" y="-361.5" font-family="Helvetica,sans-Serif" font-size="10.00"> </text>
</g>
<!-- Node3&#45;&gt;Node2 -->
<g id="edge2" class="edge"><title>Node3&#45;&gt;Node2</title>
<path fill="none" stroke="#8b1a1a" d="M61.2562,-344.961C70.2811,-324.397 81.8189,-298.109 92.5333,-273.696"/>
<polygon fill="none" stroke="#8b1a1a" points="57.9846,-343.706 57.1706,-354.269 64.3945,-346.519 57.9846,-343.706"/>
</g>
<!-- Node4 -->
<g id="node4" class="node"><title>Node4</title>
<g id="a_node4"><a xlink:href="structtbb_1_1interface5_1_1concurrent__hash__map_1_1node.html" target="_top" xlink:title="{tbb::interface5::concurrent\l_hash_map\&lt; Key, T, HashCompare,\l Allocator \&gt;::node\n|+ item\l|+ node()\l+ node()\l+ node()\l+ operator new()\l+ operator delete()\l}">
<polygon fill="white" stroke="red" points="108.5,-321.5 108.5,-444.5 297.5,-444.5 297.5,-321.5 108.5,-321.5"/>
<text text-anchor="start" x="116.5" y="-432.5" font-family="Helvetica,sans-Serif" font-size="10.00">tbb::interface5::concurrent</text>
<text text-anchor="start" x="116.5" y="-421.5" font-family="Helvetica,sans-Serif" font-size="10.00">_hash_map&lt; Key, T, HashCompare,</text>
<text text-anchor="middle" x="203" y="-410.5" font-family="Helvetica,sans-Serif" font-size="10.00"> Allocator &gt;::node</text>
<polyline fill="none" stroke="red" points="108.5,-403.5 297.5,-403.5 "/>
<text text-anchor="start" x="116.5" y="-391.5" font-family="Helvetica,sans-Serif" font-size="10.00">+ item</text>
<polyline fill="none" stroke="red" points="108.5,-384.5 297.5,-384.5 "/>
<text text-anchor="start" x="116.5" y="-372.5" font-family="Helvetica,sans-Serif" font-size="10.00">+ node()</text>
<text text-anchor="start" x="116.5" y="-361.5" font-family="Helvetica,sans-Serif" font-size="10.00">+ node()</text>
<text text-anchor="start" x="116.5" y="-350.5" font-family="Helvetica,sans-Serif" font-size="10.00">+ node()</text>
<text text-anchor="start" x="116.5" y="-339.5" font-family="Helvetica,sans-Serif" font-size="10.00">+ operator new()</text>
<text text-anchor="start" x="116.5" y="-328.5" font-family="Helvetica,sans-Serif" font-size="10.00">+ operator delete()</text>
</a>
</g>
</g>
<!-- Node4&#45;&gt;Node2 -->
<g id="edge3" class="edge"><title>Node4&#45;&gt;Node2</title>
<path fill="none" stroke="#404040" d="M176.364,-321.311C171.22,-309.59 165.749,-297.124 160.356,-284.837"/>
<polygon fill="none" stroke="#404040" points="160.261,-284.619 154.186,-280.732 155.438,-273.631 161.512,-277.517 160.261,-284.619"/>
<text text-anchor="middle" x="197" y="-295" font-family="Helvetica,sans-Serif" font-size="10.00"> #my_node</text>
</g>
</g>
</svg>
