<?xml version="1.0" encoding="UTF-8" standalone="no"?>
<!DOCTYPE svg PUBLIC "-//W3C//DTD SVG 1.1//EN"
 "http://www.w3.org/Graphics/SVG/1.1/DTD/svg11.dtd">
<!-- Generated by graphviz version 2.38.0 (20140413.2041)
 -->
<!-- Title: Test_ShallowTree Pages: 1 -->
<!--zoomable 486 -->
<svg id="main" version="1.1" xmlns="http://www.w3.org/2000/svg" xmlns:xlink="http://www.w3.org/1999/xlink" xml:space="preserve" onload="init(evt)">
<style type="text/css"><![CDATA[
.edge:hover path { stroke: red; }
.edge:hover polygon { stroke: red; fill: red; }
]]></style>
<script type="text/javascript"><![CDATA[
var edges = document.getElementsByTagName('g');
if (edges && edges.length) {
  for (var i=0;i<edges.length;i++) {
    if (edges[i].id.substr(0,4)=='edge') {
      edges[i].setAttribute('class','edge');
    }
  }
}
]]></script>
        <defs>
                <circle id="rim" cx="0" cy="0" r="7"/>
                <circle id="rim2" cx="0" cy="0" r="3.5"/>
                <g id="zoomPlus">
                        <use xlink:href="#rim" fill="#404040">
                                <set attributeName="fill" to="#808080" begin="zoomplus.mouseover" end="zoomplus.mouseout"/>
                        </use>
                        <path d="M-4,0h8M0,-4v8" fill="none" stroke="white" stroke-width="1.5" pointer-events="none"/>
                </g>
                <g id="zoomMin">
                        <use xlink:href="#rim" fill="#404040">
                                <set attributeName="fill" to="#808080" begin="zoomminus.mouseover" end="zoomminus.mouseout"/>
                        </use>
                        <path d="M-4,0h8" fill="none" stroke="white" stroke-width="1.5" pointer-events="none"/>
                </g>
                <g id="dirArrow">
                        <path fill="none" stroke="white" stroke-width="1.5" d="M0,-3.0v7 M-2.5,-0.5L0,-3.0L2.5,-0.5"/>
                </g>
               <g id="resetDef">
                       <use xlink:href="#rim2" fill="#404040">
                               <set attributeName="fill" to="#808080" begin="reset.mouseover" end="reset.mouseout"/>
                       </use>
               </g>
        </defs>

<script type="text/javascript">
var viewWidth = 242;
var viewHeight = 486;
var sectionId = 'dynsection-1';
</script>
<script xlink:href="svgpan.js"/>
<svg id="graph" class="graph">
<g id="viewport">
<title>Test_ShallowTree</title>
<polygon fill="white" stroke="none" points="-4,4 -4,-482 238,-482 238,4 -4,4"/>
<!-- Node1 -->
<g id="node1" class="node"><title>Node1</title>
<polygon fill="#bfbfbf" stroke="black" points="73,-0.5 73,-79.5 169,-79.5 169,-0.5 73,-0.5"/>
<text text-anchor="middle" x="121" y="-67.5" font-family="Helvetica,sans-Serif" font-size="10.00">Test_ShallowTree</text>
<polyline fill="none" stroke="black" points="73,-60.5 169,-60.5 "/>
<text text-anchor="middle" x="121" y="-48.5" font-family="Helvetica,sans-Serif" font-size="10.00"> </text>
<polyline fill="none" stroke="black" points="73,-41.5 169,-41.5 "/>
<text text-anchor="start" x="81" y="-29.5" font-family="Helvetica,sans-Serif" font-size="10.00">&#45; Name()</text>
<text text-anchor="start" x="81" y="-18.5" font-family="Helvetica,sans-Serif" font-size="10.00">&#45; SetWorkload()</text>
<text text-anchor="start" x="81" y="-7.5" font-family="Helvetica,sans-Serif" font-size="10.00">&#45; Run()</text>
</g>
<!-- Node2 -->
<g id="node2" class="node"><title>Node2</title>
<g id="a_node2"><a xlink:href="classTest__SPMC.html" target="_top" xlink:title="{Test_SPMC\n|# numWorkloads\l# workloads\l|+ Test_SPMC()\l# Name()\l# NumWorkloads()\l# SetWorkload()\l# Run()\l# RunSerial()\l}">
<polygon fill="white" stroke="black" points="67.5,-117.5 67.5,-240.5 174.5,-240.5 174.5,-117.5 67.5,-117.5"/>
<text text-anchor="middle" x="121" y="-228.5" font-family="Helvetica,sans-Serif" font-size="10.00">Test_SPMC</text>
<polyline fill="none" stroke="black" points="67.5,-221.5 174.5,-221.5 "/>
<text text-anchor="start" x="75.5" y="-209.5" font-family="Helvetica,sans-Serif" font-size="10.00"># numWorkloads</text>
<text text-anchor="start" x="75.5" y="-198.5" font-family="Helvetica,sans-Serif" font-size="10.00"># workloads</text>
<polyline fill="none" stroke="black" points="67.5,-191.5 174.5,-191.5 "/>
<text text-anchor="start" x="75.5" y="-179.5" font-family="Helvetica,sans-Serif" font-size="10.00">+ Test_SPMC()</text>
<text text-anchor="start" x="75.5" y="-168.5" font-family="Helvetica,sans-Serif" font-size="10.00"># Name()</text>
<text text-anchor="start" x="75.5" y="-157.5" font-family="Helvetica,sans-Serif" font-size="10.00"># NumWorkloads()</text>
<text text-anchor="start" x="75.5" y="-146.5" font-family="Helvetica,sans-Serif" font-size="10.00"># SetWorkload()</text>
<text text-anchor="start" x="75.5" y="-135.5" font-family="Helvetica,sans-Serif" font-size="10.00"># Run()</text>
<text text-anchor="start" x="75.5" y="-124.5" font-family="Helvetica,sans-Serif" font-size="10.00"># RunSerial()</text>
</a>
</g>
</g>
<!-- Node2&#45;&gt;Node1 -->
<g id="edge1" class="edge"><title>Node2&#45;&gt;Node1</title>
<path fill="none" stroke="midnightblue" d="M121,-106.934C121,-97.5462 121,-88.2231 121,-79.6708"/>
<polygon fill="none" stroke="midnightblue" points="117.5,-107.112 121,-117.112 124.5,-107.112 117.5,-107.112"/>
</g>
<!-- Node3 -->
<g id="node3" class="node"><title>Node3</title>
<g id="a_node3"><a xlink:href="classPerf_1_1Test.html" target="_top" xlink:title="{Perf::Test\n||+ ~Test()\l+ NumWorkloads()\l+ SetWorkload()\l+ Run()\l+ Name()\l+ MinNumMasters()\l+ MaxNumMasters()\l+ RunSerial()\l+ OnStart()\l+ OnFinish()\l+ Baseline()\l+ Description()\l+ HistogramName()\l}">
<polygon fill="white" stroke="black" points="0,-288.5 0,-477.5 116,-477.5 116,-288.5 0,-288.5"/>
<text text-anchor="middle" x="58" y="-465.5" font-family="Helvetica,sans-Serif" font-size="10.00">Perf::Test</text>
<polyline fill="none" stroke="black" points="0,-458.5 116,-458.5 "/>
<text text-anchor="middle" x="58" y="-446.5" font-family="Helvetica,sans-Serif" font-size="10.00"> </text>
<polyline fill="none" stroke="black" points="0,-439.5 116,-439.5 "/>
<text text-anchor="start" x="8" y="-427.5" font-family="Helvetica,sans-Serif" font-size="10.00">+ ~Test()</text>
<text text-anchor="start" x="8" y="-416.5" font-family="Helvetica,sans-Serif" font-size="10.00">+ NumWorkloads()</text>
<text text-anchor="start" x="8" y="-405.5" font-family="Helvetica,sans-Serif" font-size="10.00">+ SetWorkload()</text>
<text text-anchor="start" x="8" y="-394.5" font-family="Helvetica,sans-Serif" font-size="10.00">+ Run()</text>
<text text-anchor="start" x="8" y="-383.5" font-family="Helvetica,sans-Serif" font-size="10.00">+ Name()</text>
<text text-anchor="start" x="8" y="-372.5" font-family="Helvetica,sans-Serif" font-size="10.00">+ MinNumMasters()</text>
<text text-anchor="start" x="8" y="-361.5" font-family="Helvetica,sans-Serif" font-size="10.00">+ MaxNumMasters()</text>
<text text-anchor="start" x="8" y="-350.5" font-family="Helvetica,sans-Serif" font-size="10.00">+ RunSerial()</text>
<text text-anchor="start" x="8" y="-339.5" font-family="Helvetica,sans-Serif" font-size="10.00">+ OnStart()</text>
<text text-anchor="start" x="8" y="-328.5" font-family="Helvetica,sans-Serif" font-size="10.00">+ OnFinish()</text>
<text text-anchor="start" x="8" y="-317.5" font-family="Helvetica,sans-Serif" font-size="10.00">+ Baseline()</text>
<text text-anchor="start" x="8" y="-306.5" font-family="Helvetica,sans-Serif" font-size="10.00">+ Description()</text>
<text text-anchor="start" x="8" y="-295.5" font-family="Helvetica,sans-Serif" font-size="10.00">+ HistogramName()</text>
</a>
</g>
</g>
<!-- Node3&#45;&gt;Node2 -->
<g id="edge2" class="edge"><title>Node3&#45;&gt;Node2</title>
<path fill="none" stroke="midnightblue" d="M90.2795,-278.501C94.3149,-265.562 98.3333,-252.677 102.069,-240.698"/>
<polygon fill="none" stroke="midnightblue" points="86.8309,-277.803 87.1947,-288.392 93.5134,-279.887 86.8309,-277.803"/>
</g>
<!-- Node4 -->
<g id="node4" class="node"><title>Node4</title>
<g id="a_node4"><a xlink:href="classLeafTaskBase.html" target="_top" xlink:title="{LeafTaskBase\n|+ my_ID\l|+ LeafTaskBase()\l+ LeafTaskBase()\l}">
<polygon fill="white" stroke="red" points="134,-349 134,-417 234,-417 234,-349 134,-349"/>
<text text-anchor="middle" x="184" y="-405" font-family="Helvetica,sans-Serif" font-size="10.00">LeafTaskBase</text>
<polyline fill="none" stroke="red" points="134,-398 234,-398 "/>
<text text-anchor="start" x="142" y="-386" font-family="Helvetica,sans-Serif" font-size="10.00">+ my_ID</text>
<polyline fill="none" stroke="red" points="134,-379 234,-379 "/>
<text text-anchor="start" x="142" y="-367" font-family="Helvetica,sans-Serif" font-size="10.00">+ LeafTaskBase()</text>
<text text-anchor="start" x="142" y="-356" font-family="Helvetica,sans-Serif" font-size="10.00">+ LeafTaskBase()</text>
</a>
</g>
</g>
<!-- Node4&#45;&gt;Node2 -->
<g id="edge3" class="edge"><title>Node4&#45;&gt;Node2</title>
<path fill="none" stroke="#404040" d="M173.597,-348.644C165.473,-322.596 153.884,-285.438 143.651,-252.628"/>
<polygon fill="none" stroke="#404040" points="143.524,-252.221 137.919,-247.684 139.951,-240.765 145.557,-245.302 143.524,-252.221"/>
<text text-anchor="middle" x="190.5" y="-262" font-family="Helvetica,sans-Serif" font-size="10.00"> #my_leafTaskPtr</text>
</g>
</g>
</svg>
        <g id="navigator" transform="translate(0 0)" fill="#404254">
                <rect fill="#f2f5e9" fill-opacity="0.5" stroke="#606060" stroke-width=".5" x="0" y="0" width="60" height="60"/>
                <use id="zoomplus" xlink:href="#zoomPlus" x="17" y="9" onmousedown="handleZoom(evt,'in')"/>
                <use id="zoomminus" xlink:href="#zoomMin" x="42" y="9" onmousedown="handleZoom(evt,'out')"/>
                <use id="reset" xlink:href="#resetDef" x="30" y="36" onmousedown="handleReset()"/>
                <g id="arrowUp" xlink:href="#dirArrow" transform="translate(30 24)" onmousedown="handlePan(0,-1)">
                  <use xlink:href="#rim" fill="#404040">
                        <set attributeName="fill" to="#808080" begin="arrowUp.mouseover" end="arrowUp.mouseout"/>
                  </use>
                  <path fill="none" stroke="white" stroke-width="1.5" d="M0,-3.0v7 M-2.5,-0.5L0,-3.0L2.5,-0.5"/>
                </g>
                <g id="arrowRight" xlink:href="#dirArrow" transform="rotate(90) translate(36 -43)" onmousedown="handlePan(1,0)">
                  <use xlink:href="#rim" fill="#404040">
                        <set attributeName="fill" to="#808080" begin="arrowRight.mouseover" end="arrowRight.mouseout"/>
                  </use>
                  <path fill="none" stroke="white" stroke-width="1.5" d="M0,-3.0v7 M-2.5,-0.5L0,-3.0L2.5,-0.5"/>
                </g>
                <g id="arrowDown" xlink:href="#dirArrow" transform="rotate(180) translate(-30 -48)" onmousedown="handlePan(0,1)">
                  <use xlink:href="#rim" fill="#404040">
                        <set attributeName="fill" to="#808080" begin="arrowDown.mouseover" end="arrowDown.mouseout"/>
                  </use>
                  <path fill="none" stroke="white" stroke-width="1.5" d="M0,-3.0v7 M-2.5,-0.5L0,-3.0L2.5,-0.5"/>
                </g>
                <g id="arrowLeft" xlink:href="#dirArrow" transform="rotate(270) translate(-36 17)" onmousedown="handlePan(-1,0)">
                  <use xlink:href="#rim" fill="#404040">
                        <set attributeName="fill" to="#808080" begin="arrowLeft.mouseover" end="arrowLeft.mouseout"/>
                  </use>
                  <path fill="none" stroke="white" stroke-width="1.5" d="M0,-3.0v7 M-2.5,-0.5L0,-3.0L2.5,-0.5"/>
                </g>
        </g>
        <svg viewBox="0 0 15 15" width="100%" height="30px" preserveAspectRatio="xMaxYMin meet">
         <g id="arrow_out" transform="scale(0.3 0.3)">
          <a xlink:href="classTest__ShallowTree__coll__graph_org.svg" target="_base">
           <rect id="button" ry="5" rx="5" y="6" x="6" height="38" width="38"
                fill="#f2f5e9" fill-opacity="0.5" stroke="#606060" stroke-width="1.0"/>
           <path id="arrow"
             d="M 11.500037,31.436501 C 11.940474,20.09759 22.043105,11.32322 32.158766,21.979434 L 37.068811,17.246167 C 37.068811,17.246167 37.088388,32 37.088388,32 L 22.160133,31.978069 C 22.160133,31.978069 26.997745,27.140456 26.997745,27.140456 C 18.528582,18.264221 13.291696,25.230495 11.500037,31.436501 z"
             style="fill:#404040;"/>
          </a>
         </g>
        </svg>
</svg>
