<?xml version="1.0" encoding="UTF-8" standalone="no"?>
<!DOCTYPE svg PUBLIC "-//W3C//DTD SVG 1.1//EN"
 "http://www.w3.org/Graphics/SVG/1.1/DTD/svg11.dtd">
<!-- Generated by graphviz version 2.38.0 (20140413.2041)
 -->
<!-- Title: SimpleLeafTask Pages: 1 -->
<svg width="117pt" height="276pt"
 viewBox="0.00 0.00 117.00 276.00" xmlns="http://www.w3.org/2000/svg" xmlns:xlink="http://www.w3.org/1999/xlink">
<g id="graph0" class="graph" transform="scale(1 1) rotate(0) translate(4 272)">
<title>SimpleLeafTask</title>
<polygon fill="white" stroke="none" points="-4,4 -4,-272 113,-272 113,4 -4,4"/>
<!-- Node1 -->
<g id="node1" class="node"><title>Node1</title>
<polygon fill="#bfbfbf" stroke="black" points="0,-0.5 0,-68.5 109,-68.5 109,-0.5 0,-0.5"/>
<text text-anchor="middle" x="54.5" y="-56.5" font-family="Helvetica,sans-Serif" font-size="10.00">SimpleLeafTask</text>
<polyline fill="none" stroke="black" points="0,-49.5 109,-49.5 "/>
<text text-anchor="middle" x="54.5" y="-37.5" font-family="Helvetica,sans-Serif" font-size="10.00"> </text>
<polyline fill="none" stroke="black" points="0,-30.5 109,-30.5 "/>
<text text-anchor="start" x="8" y="-18.5" font-family="Helvetica,sans-Serif" font-size="10.00">+ SimpleLeafTask()</text>
<text text-anchor="start" x="8" y="-7.5" font-family="Helvetica,sans-Serif" font-size="10.00">&#45; execute()</text>
</g>
<!-- Node2 -->
<g id="node2" class="node"><title>Node2</title>
<g id="a_node2"><a xlink:href="classLeafTaskBase.html" target="_top" xlink:title="{LeafTaskBase\n|+ my_ID\l|+ LeafTaskBase()\l+ LeafTaskBase()\l}">
<polygon fill="white" stroke="black" points="4.5,-105.5 4.5,-173.5 104.5,-173.5 104.5,-105.5 4.5,-105.5"/>
<text text-anchor="middle" x="54.5" y="-161.5" font-family="Helvetica,sans-Serif" font-size="10.00">LeafTaskBase</text>
<polyline fill="none" stroke="black" points="4.5,-154.5 104.5,-154.5 "/>
<text text-anchor="start" x="12.5" y="-142.5" font-family="Helvetica,sans-Serif" font-size="10.00">+ my_ID</text>
<polyline fill="none" stroke="black" points="4.5,-135.5 104.5,-135.5 "/>
<text text-anchor="start" x="12.5" y="-123.5" font-family="Helvetica,sans-Serif" font-size="10.00">+ LeafTaskBase()</text>
<text text-anchor="start" x="12.5" y="-112.5" font-family="Helvetica,sans-Serif" font-size="10.00">+ LeafTaskBase()</text>
</a>
</g>
</g>
<!-- Node2&#45;&gt;Node1 -->
<g id="edge1" class="edge"><title>Node2&#45;&gt;Node1</title>
<path fill="none" stroke="midnightblue" d="M54.5,-95.1362C54.5,-86.256 54.5,-77.0447 54.5,-68.5947"/>
<polygon fill="none" stroke="midnightblue" points="51.0001,-95.3432 54.5,-105.343 58.0001,-95.3432 51.0001,-95.3432"/>
</g>
<!-- Node3 -->
<g id="node3" class="node"><title>Node3</title>
<polygon fill="white" stroke="#bfbfbf" points="36,-210.5 36,-267.5 73,-267.5 73,-210.5 36,-210.5"/>
<text text-anchor="middle" x="54.5" y="-255.5" font-family="Helvetica,sans-Serif" font-size="10.00">task</text>
<polyline fill="none" stroke="#bfbfbf" points="36,-248.5 73,-248.5 "/>
<text text-anchor="middle" x="54.5" y="-236.5" font-family="Helvetica,sans-Serif" font-size="10.00"> </text>
<polyline fill="none" stroke="#bfbfbf" points="36,-229.5 73,-229.5 "/>
<text text-anchor="middle" x="54.5" y="-217.5" font-family="Helvetica,sans-Serif" font-size="10.00"> </text>
</g>
<!-- Node3&#45;&gt;Node2 -->
<g id="edge2" class="edge"><title>Node3&#45;&gt;Node2</title>
<path fill="none" stroke="midnightblue" d="M54.5,-200.063C54.5,-191.393 54.5,-182.243 54.5,-173.786"/>
<polygon fill="none" stroke="midnightblue" points="51.0001,-200.321 54.5,-210.321 58.0001,-200.321 51.0001,-200.321"/>
</g>
</g>
</svg>
