<?xml version="1.0" encoding="UTF-8" standalone="no"?>
<!DOCTYPE svg PUBLIC "-//W3C//DTD SVG 1.1//EN"
 "http://www.w3.org/Graphics/SVG/1.1/DTD/svg11.dtd">
<!-- Generated by graphviz version 2.38.0 (20140413.2041)
 -->
<!-- Title: Test_SPMC Pages: 1 -->
<svg width="280pt" height="507pt"
 viewBox="0.00 0.00 279.50 507.00" xmlns="http://www.w3.org/2000/svg" xmlns:xlink="http://www.w3.org/1999/xlink">
<g id="graph0" class="graph" transform="scale(1 1) rotate(0) translate(4 503)">
<title>Test_SPMC</title>
<polygon fill="white" stroke="none" points="-4,4 -4,-503 275.5,-503 275.5,4 -4,4"/>
<!-- Node1 -->
<g id="node1" class="node"><title>Node1</title>
<polygon fill="#bfbfbf" stroke="black" points="66.5,-138.5 66.5,-272.5 173.5,-272.5 173.5,-138.5 66.5,-138.5"/>
<text text-anchor="middle" x="120" y="-260.5" font-family="Helvetica,sans-Serif" font-size="10.00">Test_SPMC</text>
<polyline fill="none" stroke="black" points="66.5,-253.5 173.5,-253.5 "/>
<text text-anchor="start" x="74.5" y="-241.5" font-family="Helvetica,sans-Serif" font-size="10.00"># my_leafTaskPtr</text>
<text text-anchor="start" x="74.5" y="-230.5" font-family="Helvetica,sans-Serif" font-size="10.00"># numWorkloads</text>
<text text-anchor="start" x="74.5" y="-219.5" font-family="Helvetica,sans-Serif" font-size="10.00"># workloads</text>
<polyline fill="none" stroke="black" points="66.5,-212.5 173.5,-212.5 "/>
<text text-anchor="start" x="74.5" y="-200.5" font-family="Helvetica,sans-Serif" font-size="10.00">+ Test_SPMC()</text>
<text text-anchor="start" x="74.5" y="-189.5" font-family="Helvetica,sans-Serif" font-size="10.00"># Name()</text>
<text text-anchor="start" x="74.5" y="-178.5" font-family="Helvetica,sans-Serif" font-size="10.00"># NumWorkloads()</text>
<text text-anchor="start" x="74.5" y="-167.5" font-family="Helvetica,sans-Serif" font-size="10.00"># SetWorkload()</text>
<text text-anchor="start" x="74.5" y="-156.5" font-family="Helvetica,sans-Serif" font-size="10.00"># Run()</text>
<text text-anchor="start" x="74.5" y="-145.5" font-family="Helvetica,sans-Serif" font-size="10.00"># RunSerial()</text>
</g>
<!-- Node3 -->
<g id="node3" class="node"><title>Node3</title>
<g id="a_node3"><a xlink:href="classTest__ShallowTree.html" target="_top" xlink:title="{Test_ShallowTree\n||&#45; Name()\l&#45; SetWorkload()\l&#45; Run()\l}">
<polygon fill="white" stroke="black" points="0,-11.5 0,-90.5 96,-90.5 96,-11.5 0,-11.5"/>
<text text-anchor="middle" x="48" y="-78.5" font-family="Helvetica,sans-Serif" font-size="10.00">Test_ShallowTree</text>
<polyline fill="none" stroke="black" points="0,-71.5 96,-71.5 "/>
<text text-anchor="middle" x="48" y="-59.5" font-family="Helvetica,sans-Serif" font-size="10.00"> </text>
<polyline fill="none" stroke="black" points="0,-52.5 96,-52.5 "/>
<text text-anchor="start" x="8" y="-40.5" font-family="Helvetica,sans-Serif" font-size="10.00">&#45; Name()</text>
<text text-anchor="start" x="8" y="-29.5" font-family="Helvetica,sans-Serif" font-size="10.00">&#45; SetWorkload()</text>
<text text-anchor="start" x="8" y="-18.5" font-family="Helvetica,sans-Serif" font-size="10.00">&#45; Run()</text>
</a>
</g>
</g>
<!-- Node1&#45;&gt;Node3 -->
<g id="edge2" class="edge"><title>Node1&#45;&gt;Node3</title>
<path fill="none" stroke="midnightblue" d="M84.498,-129.305C78.2101,-115.987 71.902,-102.626 66.3411,-90.8474"/>
<polygon fill="none" stroke="midnightblue" points="81.4041,-130.95 88.8385,-138.498 87.734,-127.961 81.4041,-130.95"/>
</g>
<!-- Node4 -->
<g id="node4" class="node"><title>Node4</title>
<g id="a_node4"><a xlink:href="classTest__ShallowTree__Skewed.html" target="_top" xlink:title="{Test_ShallowTree_Skewed\n|&#45; SerialTaskBody\l|+ Test_ShallowTree_Skewed()\l&#45; Name()\l&#45; NumWorkloads()\l&#45; SetWorkload()\l&#45; Run()\l}">
<polygon fill="white" stroke="black" points="114.5,-0.5 114.5,-101.5 271.5,-101.5 271.5,-0.5 114.5,-0.5"/>
<text text-anchor="middle" x="193" y="-89.5" font-family="Helvetica,sans-Serif" font-size="10.00">Test_ShallowTree_Skewed</text>
<polyline fill="none" stroke="black" points="114.5,-82.5 271.5,-82.5 "/>
<text text-anchor="start" x="122.5" y="-70.5" font-family="Helvetica,sans-Serif" font-size="10.00">&#45; SerialTaskBody</text>
<polyline fill="none" stroke="black" points="114.5,-63.5 271.5,-63.5 "/>
<text text-anchor="start" x="122.5" y="-51.5" font-family="Helvetica,sans-Serif" font-size="10.00">+ Test_ShallowTree_Skewed()</text>
<text text-anchor="start" x="122.5" y="-40.5" font-family="Helvetica,sans-Serif" font-size="10.00">&#45; Name()</text>
<text text-anchor="start" x="122.5" y="-29.5" font-family="Helvetica,sans-Serif" font-size="10.00">&#45; NumWorkloads()</text>
<text text-anchor="start" x="122.5" y="-18.5" font-family="Helvetica,sans-Serif" font-size="10.00">&#45; SetWorkload()</text>
<text text-anchor="start" x="122.5" y="-7.5" font-family="Helvetica,sans-Serif" font-size="10.00">&#45; Run()</text>
</a>
</g>
</g>
<!-- Node1&#45;&gt;Node4 -->
<g id="edge3" class="edge"><title>Node1&#45;&gt;Node4</title>
<path fill="none" stroke="midnightblue" d="M155.928,-129.446C160.461,-119.976 165.006,-110.481 169.282,-101.547"/>
<polygon fill="none" stroke="midnightblue" points="152.755,-127.967 151.594,-138.498 159.069,-130.99 152.755,-127.967"/>
</g>
<!-- Node2 -->
<g id="node2" class="node"><title>Node2</title>
<g id="a_node2"><a xlink:href="classPerf_1_1Test.html" target="_top" xlink:title="{Perf::Test\n||+ ~Test()\l+ NumWorkloads()\l+ SetWorkload()\l+ Run()\l+ Name()\l+ MinNumMasters()\l+ MaxNumMasters()\l+ RunSerial()\l+ OnStart()\l+ OnFinish()\l+ Baseline()\l+ Description()\l+ HistogramName()\l}">
<polygon fill="white" stroke="black" points="62,-309.5 62,-498.5 178,-498.5 178,-309.5 62,-309.5"/>
<text text-anchor="middle" x="120" y="-486.5" font-family="Helvetica,sans-Serif" font-size="10.00">Perf::Test</text>
<polyline fill="none" stroke="black" points="62,-479.5 178,-479.5 "/>
<text text-anchor="middle" x="120" y="-467.5" font-family="Helvetica,sans-Serif" font-size="10.00"> </text>
<polyline fill="none" stroke="black" points="62,-460.5 178,-460.5 "/>
<text text-anchor="start" x="70" y="-448.5" font-family="Helvetica,sans-Serif" font-size="10.00">+ ~Test()</text>
<text text-anchor="start" x="70" y="-437.5" font-family="Helvetica,sans-Serif" font-size="10.00">+ NumWorkloads()</text>
<text text-anchor="start" x="70" y="-426.5" font-family="Helvetica,sans-Serif" font-size="10.00">+ SetWorkload()</text>
<text text-anchor="start" x="70" y="-415.5" font-family="Helvetica,sans-Serif" font-size="10.00">+ Run()</text>
<text text-anchor="start" x="70" y="-404.5" font-family="Helvetica,sans-Serif" font-size="10.00">+ Name()</text>
<text text-anchor="start" x="70" y="-393.5" font-family="Helvetica,sans-Serif" font-size="10.00">+ MinNumMasters()</text>
<text text-anchor="start" x="70" y="-382.5" font-family="Helvetica,sans-Serif" font-size="10.00">+ MaxNumMasters()</text>
<text text-anchor="start" x="70" y="-371.5" font-family="Helvetica,sans-Serif" font-size="10.00">+ RunSerial()</text>
<text text-anchor="start" x="70" y="-360.5" font-family="Helvetica,sans-Serif" font-size="10.00">+ OnStart()</text>
<text text-anchor="start" x="70" y="-349.5" font-family="Helvetica,sans-Serif" font-size="10.00">+ OnFinish()</text>
<text text-anchor="start" x="70" y="-338.5" font-family="Helvetica,sans-Serif" font-size="10.00">+ Baseline()</text>
<text text-anchor="start" x="70" y="-327.5" font-family="Helvetica,sans-Serif" font-size="10.00">+ Description()</text>
<text text-anchor="start" x="70" y="-316.5" font-family="Helvetica,sans-Serif" font-size="10.00">+ HistogramName()</text>
</a>
</g>
</g>
<!-- Node2&#45;&gt;Node1 -->
<g id="edge1" class="edge"><title>Node2&#45;&gt;Node1</title>
<path fill="none" stroke="midnightblue" d="M120,-299.212C120,-290.239 120,-281.327 120,-272.778"/>
<polygon fill="none" stroke="midnightblue" points="116.5,-299.354 120,-309.354 123.5,-299.354 116.5,-299.354"/>
</g>
</g>
</svg>
