<?xml version="1.0" encoding="UTF-8" standalone="no"?>
<!DOCTYPE svg PUBLIC "-//W3C//DTD SVG 1.1//EN"
 "http://www.w3.org/Graphics/SVG/1.1/DTD/svg11.dtd">
<!-- Generated by graphviz version 2.38.0 (20140413.2041)
 -->
<!-- Title: OptimizedSumTask Pages: 1 -->
<svg width="217pt" height="226pt"
 viewBox="0.00 0.00 216.50 226.00" xmlns="http://www.w3.org/2000/svg" xmlns:xlink="http://www.w3.org/1999/xlink">
<g id="graph0" class="graph" transform="scale(1 1) rotate(0) translate(4 222)">
<title>OptimizedSumTask</title>
<polygon fill="white" stroke="none" points="-4,4 -4,-222 212.5,-222 212.5,4 -4,4"/>
<!-- Node1 -->
<g id="node1" class="node"><title>Node1</title>
<polygon fill="#bfbfbf" stroke="black" points="0,-0.5 0,-101.5 127,-101.5 127,-0.5 0,-0.5"/>
<text text-anchor="middle" x="63.5" y="-89.5" font-family="Helvetica,sans-Serif" font-size="10.00">OptimizedSumTask</text>
<polyline fill="none" stroke="black" points="0,-82.5 127,-82.5 "/>
<text text-anchor="start" x="8" y="-70.5" font-family="Helvetica,sans-Serif" font-size="10.00">&#45; sum</text>
<text text-anchor="start" x="8" y="-59.5" font-family="Helvetica,sans-Serif" font-size="10.00">&#45; is_continuation</text>
<text text-anchor="start" x="8" y="-48.5" font-family="Helvetica,sans-Serif" font-size="10.00">&#45; x</text>
<text text-anchor="start" x="8" y="-37.5" font-family="Helvetica,sans-Serif" font-size="10.00">&#45; y</text>
<polyline fill="none" stroke="black" points="0,-30.5 127,-30.5 "/>
<text text-anchor="start" x="8" y="-18.5" font-family="Helvetica,sans-Serif" font-size="10.00">+ OptimizedSumTask()</text>
<text text-anchor="start" x="8" y="-7.5" font-family="Helvetica,sans-Serif" font-size="10.00">+ execute()</text>
</g>
<!-- Node2 -->
<g id="node2" class="node"><title>Node2</title>
<polygon fill="white" stroke="#bfbfbf" points="17,-155 17,-212 54,-212 54,-155 17,-155"/>
<text text-anchor="middle" x="35.5" y="-200" font-family="Helvetica,sans-Serif" font-size="10.00">task</text>
<polyline fill="none" stroke="#bfbfbf" points="17,-193 54,-193 "/>
<text text-anchor="middle" x="35.5" y="-181" font-family="Helvetica,sans-Serif" font-size="10.00"> </text>
<polyline fill="none" stroke="#bfbfbf" points="17,-174 54,-174 "/>
<text text-anchor="middle" x="35.5" y="-162" font-family="Helvetica,sans-Serif" font-size="10.00"> </text>
</g>
<!-- Node2&#45;&gt;Node1 -->
<g id="edge1" class="edge"><title>Node2&#45;&gt;Node1</title>
<path fill="none" stroke="midnightblue" d="M43.566,-144.907C46.4693,-131.375 49.7903,-115.897 52.8782,-101.505"/>
<polygon fill="none" stroke="midnightblue" points="40.1139,-144.313 41.4381,-154.824 46.9581,-145.781 40.1139,-144.313"/>
</g>
<!-- Node3 -->
<g id="node3" class="node"><title>Node3</title>
<g id="a_node3"><a xlink:href="structTreeNode.html" target="_top" xlink:title="{TreeNode\n|+ node_count\l+ value\l|}">
<polygon fill="white" stroke="black" points="72.5,-149.5 72.5,-217.5 156.5,-217.5 156.5,-149.5 72.5,-149.5"/>
<text text-anchor="middle" x="114.5" y="-205.5" font-family="Helvetica,sans-Serif" font-size="10.00">TreeNode</text>
<polyline fill="none" stroke="black" points="72.5,-198.5 156.5,-198.5 "/>
<text text-anchor="start" x="80.5" y="-186.5" font-family="Helvetica,sans-Serif" font-size="10.00">+ node_count</text>
<text text-anchor="start" x="80.5" y="-175.5" font-family="Helvetica,sans-Serif" font-size="10.00">+ value</text>
<polyline fill="none" stroke="black" points="72.5,-168.5 156.5,-168.5 "/>
<text text-anchor="middle" x="114.5" y="-156.5" font-family="Helvetica,sans-Serif" font-size="10.00"> </text>
</a>
</g>
</g>
<!-- Node3&#45;&gt;Node1 -->
<g id="edge2" class="edge"><title>Node3&#45;&gt;Node1</title>
<path fill="none" stroke="#404040" d="M101.499,-149.232C97.2055,-138.247 92.2846,-125.655 87.4391,-113.256"/>
<polygon fill="none" stroke="#404040" points="87.3985,-113.152 81.4889,-109.02 83.0305,-101.975 88.9401,-106.108 87.3985,-113.152"/>
<text text-anchor="middle" x="107" y="-123" font-family="Helvetica,sans-Serif" font-size="10.00"> &#45;root</text>
</g>
<!-- Node3&#45;&gt;Node3 -->
<g id="edge3" class="edge"><title>Node3&#45;&gt;Node3</title>
<path fill="none" stroke="#404040" d="M156.556,-194.205C166.844,-193.412 174.5,-189.844 174.5,-183.5 174.5,-180.031 172.21,-177.392 168.452,-175.582"/>
<polygon fill="none" stroke="#404040" points="168.239,-175.533 161.485,-178.058 156.556,-172.795 163.31,-170.269 168.239,-175.533"/>
<text text-anchor="middle" x="191.5" y="-186.5" font-family="Helvetica,sans-Serif" font-size="10.00"> +right</text>
<text text-anchor="middle" x="191.5" y="-175.5" font-family="Helvetica,sans-Serif" font-size="10.00">+left</text>
</g>
</g>
</svg>
