<?xml version="1.0" encoding="UTF-8" standalone="no"?>
<!DOCTYPE svg PUBLIC "-//W3C//DTD SVG 1.1//EN"
 "http://www.w3.org/Graphics/SVG/1.1/DTD/svg11.dtd">
<!-- Generated by graphviz version 2.38.0 (20140413.2041)
 -->
<!-- Title: tbb::internal::intrusive_list_base&lt; List, T &gt;::const_iterator Pages: 1 -->
<svg width="252pt" height="475pt"
 viewBox="0.00 0.00 252.00 475.00" xmlns="http://www.w3.org/2000/svg" xmlns:xlink="http://www.w3.org/1999/xlink">
<g id="graph0" class="graph" transform="scale(1 1) rotate(0) translate(4 471)">
<title>tbb::internal::intrusive_list_base&lt; List, T &gt;::const_iterator</title>
<polygon fill="white" stroke="none" points="-4,4 -4,-471 248,-471 248,4 -4,4"/>
<!-- Node1 -->
<g id="node1" class="node"><title>Node1</title>
<polygon fill="#bfbfbf" stroke="black" points="23,-0.5 23,-112.5 144,-112.5 144,-0.5 23,-0.5"/>
<text text-anchor="start" x="31" y="-100.5" font-family="Helvetica,sans-Serif" font-size="10.00">tbb::internal::intrusive</text>
<text text-anchor="start" x="31" y="-89.5" font-family="Helvetica,sans-Serif" font-size="10.00">_list_base&lt; List, T &gt;::</text>
<text text-anchor="middle" x="83.5" y="-78.5" font-family="Helvetica,sans-Serif" font-size="10.00">const_iterator</text>
<polyline fill="none" stroke="black" points="23,-71.5 144,-71.5 "/>
<text text-anchor="middle" x="83.5" y="-59.5" font-family="Helvetica,sans-Serif" font-size="10.00"> </text>
<polyline fill="none" stroke="black" points="23,-52.5 144,-52.5 "/>
<text text-anchor="start" x="31" y="-40.5" font-family="Helvetica,sans-Serif" font-size="10.00">+ const_iterator()</text>
<text text-anchor="start" x="31" y="-29.5" font-family="Helvetica,sans-Serif" font-size="10.00">+ const_iterator()</text>
<text text-anchor="start" x="31" y="-18.5" font-family="Helvetica,sans-Serif" font-size="10.00">+ operator&#45;&gt;()</text>
<text text-anchor="start" x="31" y="-7.5" font-family="Helvetica,sans-Serif" font-size="10.00">+ operator*()</text>
</g>
<!-- Node2 -->
<g id="node2" class="node"><title>Node2</title>
<g id="a_node2"><a xlink:href="classtbb_1_1internal_1_1intrusive__list__base_1_1iterator__impl.html" target="_top" xlink:title="{tbb::internal::intrusive\l_list_base\&lt; List, T \&gt;::\literator_impl\&lt; const_iterator \&gt;\n||+ iterator_impl()\l+ operator=()\l+ operator=()\l+ operator==()\l+ operator!=()\l+ operator++()\l+ operator++()\l+ operator&#45;&#45;()\l+ operator&#45;&#45;()\l# iterator_impl()\l# item()\l&#45; self()\l}">
<polygon fill="white" stroke="black" points="-1.42109e-14,-150.5 -1.42109e-14,-350.5 167,-350.5 167,-150.5 -1.42109e-14,-150.5"/>
<text text-anchor="start" x="8" y="-338.5" font-family="Helvetica,sans-Serif" font-size="10.00">tbb::internal::intrusive</text>
<text text-anchor="start" x="8" y="-327.5" font-family="Helvetica,sans-Serif" font-size="10.00">_list_base&lt; List, T &gt;::</text>
<text text-anchor="middle" x="83.5" y="-316.5" font-family="Helvetica,sans-Serif" font-size="10.00">iterator_impl&lt; const_iterator &gt;</text>
<polyline fill="none" stroke="black" points="-1.42109e-14,-309.5 167,-309.5 "/>
<text text-anchor="middle" x="83.5" y="-297.5" font-family="Helvetica,sans-Serif" font-size="10.00"> </text>
<polyline fill="none" stroke="black" points="-1.42109e-14,-290.5 167,-290.5 "/>
<text text-anchor="start" x="8" y="-278.5" font-family="Helvetica,sans-Serif" font-size="10.00">+ iterator_impl()</text>
<text text-anchor="start" x="8" y="-267.5" font-family="Helvetica,sans-Serif" font-size="10.00">+ operator=()</text>
<text text-anchor="start" x="8" y="-256.5" font-family="Helvetica,sans-Serif" font-size="10.00">+ operator=()</text>
<text text-anchor="start" x="8" y="-245.5" font-family="Helvetica,sans-Serif" font-size="10.00">+ operator==()</text>
<text text-anchor="start" x="8" y="-234.5" font-family="Helvetica,sans-Serif" font-size="10.00">+ operator!=()</text>
<text text-anchor="start" x="8" y="-223.5" font-family="Helvetica,sans-Serif" font-size="10.00">+ operator++()</text>
<text text-anchor="start" x="8" y="-212.5" font-family="Helvetica,sans-Serif" font-size="10.00">+ operator++()</text>
<text text-anchor="start" x="8" y="-201.5" font-family="Helvetica,sans-Serif" font-size="10.00">+ operator&#45;&#45;()</text>
<text text-anchor="start" x="8" y="-190.5" font-family="Helvetica,sans-Serif" font-size="10.00">+ operator&#45;&#45;()</text>
<text text-anchor="start" x="8" y="-179.5" font-family="Helvetica,sans-Serif" font-size="10.00"># iterator_impl()</text>
<text text-anchor="start" x="8" y="-168.5" font-family="Helvetica,sans-Serif" font-size="10.00"># item()</text>
<text text-anchor="start" x="8" y="-157.5" font-family="Helvetica,sans-Serif" font-size="10.00">&#45; self()</text>
</a>
</g>
</g>
<!-- Node2&#45;&gt;Node1 -->
<g id="edge1" class="edge"><title>Node2&#45;&gt;Node1</title>
<path fill="none" stroke="midnightblue" d="M83.5,-140.368C83.5,-130.781 83.5,-121.371 83.5,-112.533"/>
<polygon fill="none" stroke="midnightblue" points="80.0001,-140.407 83.5,-150.407 87.0001,-140.407 80.0001,-140.407"/>
</g>
<!-- Node3 -->
<g id="node3" class="node"><title>Node3</title>
<g id="a_node3"><a xlink:href="structtbb_1_1internal_1_1intrusive__list__node.html" target="_top" xlink:title="Data structure to be inherited by the types that can form intrusive lists. ">
<polygon fill="white" stroke="black" points="23,-398.5 23,-466.5 144,-466.5 144,-398.5 23,-398.5"/>
<text text-anchor="start" x="31" y="-454.5" font-family="Helvetica,sans-Serif" font-size="10.00">tbb::internal::intrusive</text>
<text text-anchor="middle" x="83.5" y="-443.5" font-family="Helvetica,sans-Serif" font-size="10.00">_list_node</text>
<polyline fill="none" stroke="black" points="23,-436.5 144,-436.5 "/>
<text text-anchor="middle" x="83.5" y="-424.5" font-family="Helvetica,sans-Serif" font-size="10.00"> </text>
<polyline fill="none" stroke="black" points="23,-417.5 144,-417.5 "/>
<text text-anchor="middle" x="83.5" y="-405.5" font-family="Helvetica,sans-Serif" font-size="10.00"> </text>
</a>
</g>
</g>
<!-- Node3&#45;&gt;Node2 -->
<g id="edge2" class="edge"><title>Node3&#45;&gt;Node2</title>
<path fill="none" stroke="#404040" d="M83.5,-398.485C83.5,-387.917 83.5,-375.569 83.5,-362.6"/>
<polygon fill="none" stroke="#404040" points="83.5001,-362.55 79.5,-356.55 83.5,-350.55 87.5,-356.55 83.5001,-362.55"/>
<text text-anchor="middle" x="106" y="-372" font-family="Helvetica,sans-Serif" font-size="10.00"> &#45;my_pos</text>
</g>
<!-- Node3&#45;&gt;Node3 -->
<g id="edge3" class="edge"><title>Node3&#45;&gt;Node3</title>
<path fill="none" stroke="#404040" d="M144.062,-442.695C154.641,-441.336 162,-437.938 162,-432.5 162,-429.441 159.671,-427.028 155.751,-425.26"/>
<polygon fill="none" stroke="#404040" points="155.696,-425.246 148.898,-427.653 144.062,-422.305 150.859,-419.897 155.696,-425.246"/>
<text text-anchor="middle" x="203" y="-435.5" font-family="Helvetica,sans-Serif" font-size="10.00"> +my_next_node</text>
<text text-anchor="middle" x="203" y="-424.5" font-family="Helvetica,sans-Serif" font-size="10.00">+my_prev_node</text>
</g>
</g>
</svg>
