<?xml version="1.0" encoding="UTF-8" standalone="no"?>
<!DOCTYPE svg PUBLIC "-//W3C//DTD SVG 1.1//EN"
 "http://www.w3.org/Graphics/SVG/1.1/DTD/svg11.dtd">
<!-- Generated by graphviz version 2.38.0 (20140413.2041)
 -->
<!-- Title: tbb::internal::pipeline_cleaner Pages: 1 -->
<svg width="129pt" height="182pt"
 viewBox="0.00 0.00 129.00 182.00" xmlns="http://www.w3.org/2000/svg" xmlns:xlink="http://www.w3.org/1999/xlink">
<g id="graph0" class="graph" transform="scale(1 1) rotate(0) translate(4 178)">
<title>tbb::internal::pipeline_cleaner</title>
<polygon fill="white" stroke="none" points="-4,4 -4,-178 125,-178 125,4 -4,4"/>
<!-- Node1 -->
<g id="node1" class="node"><title>Node1</title>
<polygon fill="#bfbfbf" stroke="black" points="-7.10543e-15,-0.5 -7.10543e-15,-79.5 121,-79.5 121,-0.5 -7.10543e-15,-0.5"/>
<text text-anchor="start" x="8" y="-67.5" font-family="Helvetica,sans-Serif" font-size="10.00">tbb::internal::pipeline</text>
<text text-anchor="middle" x="60.5" y="-56.5" font-family="Helvetica,sans-Serif" font-size="10.00">_cleaner</text>
<polyline fill="none" stroke="black" points="-7.10543e-15,-49.5 121,-49.5 "/>
<text text-anchor="start" x="8" y="-37.5" font-family="Helvetica,sans-Serif" font-size="10.00">&#45; my_pipeline</text>
<polyline fill="none" stroke="black" points="-7.10543e-15,-30.5 121,-30.5 "/>
<text text-anchor="start" x="8" y="-18.5" font-family="Helvetica,sans-Serif" font-size="10.00">+ pipeline_cleaner()</text>
<text text-anchor="start" x="8" y="-7.5" font-family="Helvetica,sans-Serif" font-size="10.00">+ ~pipeline_cleaner()</text>
</g>
<!-- Node2 -->
<g id="node2" class="node"><title>Node2</title>
<polygon fill="white" stroke="#bfbfbf" points="32.5,-116.5 32.5,-173.5 88.5,-173.5 88.5,-116.5 32.5,-116.5"/>
<text text-anchor="middle" x="60.5" y="-161.5" font-family="Helvetica,sans-Serif" font-size="10.00">no_copy</text>
<polyline fill="none" stroke="#bfbfbf" points="32.5,-154.5 88.5,-154.5 "/>
<text text-anchor="middle" x="60.5" y="-142.5" font-family="Helvetica,sans-Serif" font-size="10.00"> </text>
<polyline fill="none" stroke="#bfbfbf" points="32.5,-135.5 88.5,-135.5 "/>
<text text-anchor="middle" x="60.5" y="-123.5" font-family="Helvetica,sans-Serif" font-size="10.00"> </text>
</g>
<!-- Node2&#45;&gt;Node1 -->
<g id="edge1" class="edge"><title>Node2&#45;&gt;Node1</title>
<path fill="none" stroke="#8b1a1a" d="M60.5,-106.156C60.5,-97.4733 60.5,-88.2318 60.5,-79.5205"/>
<polygon fill="none" stroke="#8b1a1a" points="57.0001,-106.398 60.5,-116.398 64.0001,-106.398 57.0001,-106.398"/>
</g>
</g>
</svg>
