<?xml version="1.0" encoding="UTF-8" standalone="no"?>
<!DOCTYPE svg PUBLIC "-//W3C//DTD SVG 1.1//EN"
 "http://www.w3.org/Graphics/SVG/1.1/DTD/svg11.dtd">
<!-- Generated by graphviz version 2.38.0 (20140413.2041)
 -->
<!-- Title: el::LoggerRegistrationCallback Pages: 1 -->
<svg width="168pt" height="342pt"
 viewBox="0.00 0.00 168.00 342.00" xmlns="http://www.w3.org/2000/svg" xmlns:xlink="http://www.w3.org/1999/xlink">
<g id="graph0" class="graph" transform="scale(1 1) rotate(0) translate(4 338)">
<title>el::LoggerRegistrationCallback</title>
<polygon fill="white" stroke="none" points="-4,4 -4,-338 164,-338 164,4 -4,4"/>
<!-- Node1 -->
<g id="node1" class="node"><title>Node1</title>
<polygon fill="#bfbfbf" stroke="black" points="0,-0.5 0,-57.5 160,-57.5 160,-0.5 0,-0.5"/>
<text text-anchor="middle" x="80" y="-45.5" font-family="Helvetica,sans-Serif" font-size="10.00">el::LoggerRegistrationCallback</text>
<polyline fill="none" stroke="black" points="0,-38.5 160,-38.5 "/>
<text text-anchor="middle" x="80" y="-26.5" font-family="Helvetica,sans-Serif" font-size="10.00"> </text>
<polyline fill="none" stroke="black" points="0,-19.5 160,-19.5 "/>
<text text-anchor="middle" x="80" y="-7.5" font-family="Helvetica,sans-Serif" font-size="10.00"> </text>
</g>
<!-- Node2 -->
<g id="node2" class="node"><title>Node2</title>
<g id="a_node2"><a xlink:href="classel_1_1Callback.html" target="_top" xlink:title="{el::Callback\&lt; Logger \&gt;\n|&#45; m_enabled\l|+ Callback()\l+ enabled()\l+ setEnabled()\l# handle()\l}">
<polygon fill="white" stroke="black" points="17,-94.5 17,-184.5 143,-184.5 143,-94.5 17,-94.5"/>
<text text-anchor="middle" x="80" y="-172.5" font-family="Helvetica,sans-Serif" font-size="10.00">el::Callback&lt; Logger &gt;</text>
<polyline fill="none" stroke="black" points="17,-165.5 143,-165.5 "/>
<text text-anchor="start" x="25" y="-153.5" font-family="Helvetica,sans-Serif" font-size="10.00">&#45; m_enabled</text>
<polyline fill="none" stroke="black" points="17,-146.5 143,-146.5 "/>
<text text-anchor="start" x="25" y="-134.5" font-family="Helvetica,sans-Serif" font-size="10.00">+ Callback()</text>
<text text-anchor="start" x="25" y="-123.5" font-family="Helvetica,sans-Serif" font-size="10.00">+ enabled()</text>
<text text-anchor="start" x="25" y="-112.5" font-family="Helvetica,sans-Serif" font-size="10.00">+ setEnabled()</text>
<text text-anchor="start" x="25" y="-101.5" font-family="Helvetica,sans-Serif" font-size="10.00"># handle()</text>
</a>
</g>
</g>
<!-- Node2&#45;&gt;Node1 -->
<g id="edge1" class="edge"><title>Node2&#45;&gt;Node1</title>
<path fill="none" stroke="midnightblue" d="M80,-84.3531C80,-75.074 80,-65.7909 80,-57.5896"/>
<polygon fill="none" stroke="midnightblue" points="76.5001,-84.3689 80,-94.3689 83.5001,-84.3689 76.5001,-84.3689"/>
</g>
<!-- Node3 -->
<g id="node3" class="node"><title>Node3</title>
<g id="a_node3"><a xlink:href="classel_1_1base_1_1threading_1_1ThreadSafe.html" target="_top" xlink:title="Base of thread safe class, this class is inheritable&#45;only. ">
<polygon fill="white" stroke="red" points="27,-221.5 27,-333.5 133,-333.5 133,-221.5 27,-221.5"/>
<text text-anchor="start" x="35" y="-321.5" font-family="Helvetica,sans-Serif" font-size="10.00">el::base::threading</text>
<text text-anchor="middle" x="80" y="-310.5" font-family="Helvetica,sans-Serif" font-size="10.00">::ThreadSafe</text>
<polyline fill="none" stroke="red" points="27,-303.5 133,-303.5 "/>
<text text-anchor="middle" x="80" y="-291.5" font-family="Helvetica,sans-Serif" font-size="10.00"> </text>
<polyline fill="none" stroke="red" points="27,-284.5 133,-284.5 "/>
<text text-anchor="start" x="35" y="-272.5" font-family="Helvetica,sans-Serif" font-size="10.00">+ acquireLock()</text>
<text text-anchor="start" x="35" y="-261.5" font-family="Helvetica,sans-Serif" font-size="10.00">+ releaseLock()</text>
<text text-anchor="start" x="35" y="-250.5" font-family="Helvetica,sans-Serif" font-size="10.00">+ lock()</text>
<text text-anchor="start" x="35" y="-239.5" font-family="Helvetica,sans-Serif" font-size="10.00"># ThreadSafe()</text>
<text text-anchor="start" x="35" y="-228.5" font-family="Helvetica,sans-Serif" font-size="10.00"># ~ThreadSafe()</text>
</a>
</g>
</g>
<!-- Node3&#45;&gt;Node2 -->
<g id="edge2" class="edge"><title>Node3&#45;&gt;Node2</title>
<path fill="none" stroke="darkgreen" d="M80,-211.076C80,-202.072 80,-193.007 80,-184.514"/>
<polygon fill="none" stroke="darkgreen" points="76.5001,-211.184 80,-221.184 83.5001,-211.184 76.5001,-211.184"/>
</g>
</g>
</svg>
