<?xml version="1.0" encoding="UTF-8" standalone="no"?>
<!DOCTYPE svg PUBLIC "-//W3C//DTD SVG 1.1//EN"
 "http://www.w3.org/Graphics/SVG/1.1/DTD/svg11.dtd">
<!-- Generated by graphviz version 2.38.0 (20140413.2041)
 -->
<!-- Title: el::base::utils::OS Pages: 1 -->
<svg width="158pt" height="226pt"
 viewBox="0.00 0.00 158.00 226.00" xmlns="http://www.w3.org/2000/svg" xmlns:xlink="http://www.w3.org/1999/xlink">
<g id="graph0" class="graph" transform="scale(1 1) rotate(0) translate(4 222)">
<title>el::base::utils::OS</title>
<polygon fill="white" stroke="none" points="-4,4 -4,-222 154,-222 154,4 -4,4"/>
<!-- Node1 -->
<g id="node1" class="node"><title>Node1</title>
<polygon fill="#bfbfbf" stroke="black" points="-1.42109e-14,-0.5 -1.42109e-14,-101.5 150,-101.5 150,-0.5 -1.42109e-14,-0.5"/>
<text text-anchor="middle" x="75" y="-89.5" font-family="Helvetica,sans-Serif" font-size="10.00">el::base::utils::OS</text>
<polyline fill="none" stroke="black" points="-1.42109e-14,-82.5 150,-82.5 "/>
<text text-anchor="middle" x="75" y="-70.5" font-family="Helvetica,sans-Serif" font-size="10.00"> </text>
<polyline fill="none" stroke="black" points="-1.42109e-14,-63.5 150,-63.5 "/>
<text text-anchor="start" x="8" y="-51.5" font-family="Helvetica,sans-Serif" font-size="10.00">+ getBashOutput()</text>
<text text-anchor="start" x="8" y="-40.5" font-family="Helvetica,sans-Serif" font-size="10.00">+ getEnvironmentVariable()</text>
<text text-anchor="start" x="8" y="-29.5" font-family="Helvetica,sans-Serif" font-size="10.00">+ currentUser()</text>
<text text-anchor="start" x="8" y="-18.5" font-family="Helvetica,sans-Serif" font-size="10.00">+ currentHost()</text>
<text text-anchor="start" x="8" y="-7.5" font-family="Helvetica,sans-Serif" font-size="10.00">+ termSupportsColor()</text>
</g>
<!-- Node2 -->
<g id="node2" class="node"><title>Node2</title>
<g id="a_node2"><a xlink:href="classel_1_1base_1_1StaticClass.html" target="_top" xlink:title="Internal helper class that makes all default constructors private. ">
<polygon fill="white" stroke="black" points="18.5,-138.5 18.5,-217.5 131.5,-217.5 131.5,-138.5 18.5,-138.5"/>
<text text-anchor="middle" x="75" y="-205.5" font-family="Helvetica,sans-Serif" font-size="10.00">el::base::StaticClass</text>
<polyline fill="none" stroke="black" points="18.5,-198.5 131.5,-198.5 "/>
<text text-anchor="middle" x="75" y="-186.5" font-family="Helvetica,sans-Serif" font-size="10.00"> </text>
<polyline fill="none" stroke="black" points="18.5,-179.5 131.5,-179.5 "/>
<text text-anchor="start" x="26.5" y="-167.5" font-family="Helvetica,sans-Serif" font-size="10.00">&#45; StaticClass()</text>
<text text-anchor="start" x="26.5" y="-156.5" font-family="Helvetica,sans-Serif" font-size="10.00">&#45; StaticClass()</text>
<text text-anchor="start" x="26.5" y="-145.5" font-family="Helvetica,sans-Serif" font-size="10.00">&#45; operator=()</text>
</a>
</g>
</g>
<!-- Node2&#45;&gt;Node1 -->
<g id="edge1" class="edge"><title>Node2&#45;&gt;Node1</title>
<path fill="none" stroke="#8b1a1a" d="M75,-128.406C75,-119.639 75,-110.488 75,-101.691"/>
<polygon fill="none" stroke="#8b1a1a" points="71.5001,-128.476 75,-138.476 78.5001,-128.476 71.5001,-128.476"/>
</g>
</g>
</svg>
