<?xml version="1.0" encoding="UTF-8" standalone="no"?>
<!DOCTYPE svg PUBLIC "-//W3C//DTD SVG 1.1//EN"
 "http://www.w3.org/Graphics/SVG/1.1/DTD/svg11.dtd">
<!-- Generated by graphviz version 2.38.0 (20140413.2041)
 -->
<!-- Title: rml::internal::LocalLOCImpl&lt; LOW_MARK, HIGH_MARK &gt; Pages: 1 -->
<!--zoomable 496 -->
<svg id="main" version="1.1" xmlns="http://www.w3.org/2000/svg" xmlns:xlink="http://www.w3.org/1999/xlink" xml:space="preserve" onload="init(evt)">
<style type="text/css"><![CDATA[
.edge:hover path { stroke: red; }
.edge:hover polygon { stroke: red; fill: red; }
]]></style>
<script type="text/javascript"><![CDATA[
var edges = document.getElementsByTagName('g');
if (edges && edges.length) {
  for (var i=0;i<edges.length;i++) {
    if (edges[i].id.substr(0,4)=='edge') {
      edges[i].setAttribute('class','edge');
    }
  }
}
]]></script>
        <defs>
                <circle id="rim" cx="0" cy="0" r="7"/>
                <circle id="rim2" cx="0" cy="0" r="3.5"/>
                <g id="zoomPlus">
                        <use xlink:href="#rim" fill="#404040">
                                <set attributeName="fill" to="#808080" begin="zoomplus.mouseover" end="zoomplus.mouseout"/>
                        </use>
                        <path d="M-4,0h8M0,-4v8" fill="none" stroke="white" stroke-width="1.5" pointer-events="none"/>
                </g>
                <g id="zoomMin">
                        <use xlink:href="#rim" fill="#404040">
                                <set attributeName="fill" to="#808080" begin="zoomminus.mouseover" end="zoomminus.mouseout"/>
                        </use>
                        <path d="M-4,0h8" fill="none" stroke="white" stroke-width="1.5" pointer-events="none"/>
                </g>
                <g id="dirArrow">
                        <path fill="none" stroke="white" stroke-width="1.5" d="M0,-3.0v7 M-2.5,-0.5L0,-3.0L2.5,-0.5"/>
                </g>
               <g id="resetDef">
                       <use xlink:href="#rim2" fill="#404040">
                               <set attributeName="fill" to="#808080" begin="reset.mouseover" end="reset.mouseout"/>
                       </use>
               </g>
        </defs>

<script type="text/javascript">
var viewWidth = 475;
var viewHeight = 496;
var sectionId = 'dynsection-0';
</script>
<script xlink:href="svgpan.js"/>
<svg id="graph" class="graph">
<g id="viewport">
<title>rml::internal::LocalLOCImpl&lt; LOW_MARK, HIGH_MARK &gt;</title>
<polygon fill="white" stroke="none" points="-4,4 -4,-492 471,-492 471,4 -4,4"/>
<!-- Node1 -->
<g id="node1" class="node"><title>Node1</title>
<polygon fill="#bfbfbf" stroke="black" points="114.5,-0.5 114.5,-112.5 269.5,-112.5 269.5,-0.5 114.5,-0.5"/>
<text text-anchor="start" x="122.5" y="-100.5" font-family="Helvetica,sans-Serif" font-size="10.00">rml::internal::LocalLOCImpl</text>
<text text-anchor="middle" x="192" y="-89.5" font-family="Helvetica,sans-Serif" font-size="10.00">&lt; LOW_MARK, HIGH_MARK &gt;</text>
<polyline fill="none" stroke="black" points="114.5,-82.5 269.5,-82.5 "/>
<text text-anchor="start" x="122.5" y="-70.5" font-family="Helvetica,sans-Serif" font-size="10.00">&#45; totalSize</text>
<text text-anchor="start" x="122.5" y="-59.5" font-family="Helvetica,sans-Serif" font-size="10.00">&#45; numOfBlocks</text>
<text text-anchor="start" x="122.5" y="-48.5" font-family="Helvetica,sans-Serif" font-size="10.00">&#45; MAX_TOTAL_SIZE</text>
<polyline fill="none" stroke="black" points="114.5,-41.5 269.5,-41.5 "/>
<text text-anchor="start" x="122.5" y="-29.5" font-family="Helvetica,sans-Serif" font-size="10.00">+ put()</text>
<text text-anchor="start" x="122.5" y="-18.5" font-family="Helvetica,sans-Serif" font-size="10.00">+ get()</text>
<text text-anchor="start" x="122.5" y="-7.5" font-family="Helvetica,sans-Serif" font-size="10.00">+ externalCleanup()</text>
</g>
<!-- Node2 -->
<g id="node2" class="node"><title>Node2</title>
<g id="a_node2"><a xlink:href="structrml_1_1internal_1_1LargeMemoryBlock.html" target="_top" xlink:title="{rml::internal::LargeMemory\lBlock\n|+ age\l+ objectSize\l+ unalignedSize\l|}">
<polygon fill="white" stroke="black" points="119,-171.5 119,-261.5 265,-261.5 265,-171.5 119,-171.5"/>
<text text-anchor="start" x="127" y="-249.5" font-family="Helvetica,sans-Serif" font-size="10.00">rml::internal::LargeMemory</text>
<text text-anchor="middle" x="192" y="-238.5" font-family="Helvetica,sans-Serif" font-size="10.00">Block</text>
<polyline fill="none" stroke="black" points="119,-231.5 265,-231.5 "/>
<text text-anchor="start" x="127" y="-219.5" font-family="Helvetica,sans-Serif" font-size="10.00">+ age</text>
<text text-anchor="start" x="127" y="-208.5" font-family="Helvetica,sans-Serif" font-size="10.00">+ objectSize</text>
<text text-anchor="start" x="127" y="-197.5" font-family="Helvetica,sans-Serif" font-size="10.00">+ unalignedSize</text>
<polyline fill="none" stroke="black" points="119,-190.5 265,-190.5 "/>
<text text-anchor="middle" x="192" y="-178.5" font-family="Helvetica,sans-Serif" font-size="10.00"> </text>
</a>
</g>
</g>
<!-- Node2&#45;&gt;Node1 -->
<g id="edge1" class="edge"><title>Node2&#45;&gt;Node1</title>
<path fill="none" stroke="#404040" d="M192,-171.488C192,-157.078 192,-140.722 192,-124.988"/>
<polygon fill="none" stroke="#404040" points="192,-124.553 188,-118.553 192,-112.553 196,-118.553 192,-124.553"/>
<text text-anchor="middle" x="207.5" y="-145" font-family="Helvetica,sans-Serif" font-size="10.00"> &#45;head</text>
<text text-anchor="middle" x="207.5" y="-134" font-family="Helvetica,sans-Serif" font-size="10.00">&#45;tail</text>
</g>
<!-- Node2&#45;&gt;Node2 -->
<g id="edge6" class="edge"><title>Node2&#45;&gt;Node2</title>
<path fill="none" stroke="#404040" d="M265.19,-228.005C275.831,-226.179 283,-222.344 283,-216.5 283,-213.213 280.732,-210.561 276.853,-208.545"/>
<polygon fill="none" stroke="#404040" points="276.67,-208.49 269.765,-210.569 265.19,-204.995 272.095,-202.916 276.67,-208.49"/>
<text text-anchor="middle" x="302.5" y="-230.5" font-family="Helvetica,sans-Serif" font-size="10.00"> +gPrev</text>
<text text-anchor="middle" x="302.5" y="-219.5" font-family="Helvetica,sans-Serif" font-size="10.00">+gNext</text>
<text text-anchor="middle" x="302.5" y="-208.5" font-family="Helvetica,sans-Serif" font-size="10.00">+prev</text>
<text text-anchor="middle" x="302.5" y="-197.5" font-family="Helvetica,sans-Serif" font-size="10.00">+next</text>
</g>
<!-- Node3 -->
<g id="node3" class="node"><title>Node3</title>
<g id="a_node3"><a xlink:href="classrml_1_1internal_1_1BlockI.html" target="_top" xlink:title="{rml::internal::BlockI\n|&#45; blockState\l|}">
<polygon fill="white" stroke="black" points="0,-370 0,-427 108,-427 108,-370 0,-370"/>
<text text-anchor="middle" x="54" y="-415" font-family="Helvetica,sans-Serif" font-size="10.00">rml::internal::BlockI</text>
<polyline fill="none" stroke="black" points="0,-408 108,-408 "/>
<text text-anchor="start" x="8" y="-396" font-family="Helvetica,sans-Serif" font-size="10.00">&#45; blockState</text>
<polyline fill="none" stroke="black" points="0,-389 108,-389 "/>
<text text-anchor="middle" x="54" y="-377" font-family="Helvetica,sans-Serif" font-size="10.00"> </text>
</a>
</g>
</g>
<!-- Node3&#45;&gt;Node2 -->
<g id="edge2" class="edge"><title>Node3&#45;&gt;Node2</title>
<path fill="none" stroke="midnightblue" d="M79.1329,-361.021C90.4569,-344.894 104.147,-325.815 117,-309 128.975,-293.334 142.515,-276.55 154.763,-261.69"/>
<polygon fill="none" stroke="midnightblue" points="75.9663,-359.442 73.1057,-369.643 81.7036,-363.452 75.9663,-359.442"/>
</g>
<!-- Node4 -->
<g id="node4" class="node"><title>Node4</title>
<g id="a_node4"><a xlink:href="classrml_1_1internal_1_1BackRefIdx.html" target="_top" xlink:title="{rml::internal::BackRefIdx\n||}">
<polygon fill="white" stroke="black" points="126.5,-370 126.5,-427 257.5,-427 257.5,-370 126.5,-370"/>
<text text-anchor="middle" x="192" y="-415" font-family="Helvetica,sans-Serif" font-size="10.00">rml::internal::BackRefIdx</text>
<polyline fill="none" stroke="black" points="126.5,-408 257.5,-408 "/>
<text text-anchor="middle" x="192" y="-396" font-family="Helvetica,sans-Serif" font-size="10.00"> </text>
<polyline fill="none" stroke="black" points="126.5,-389 257.5,-389 "/>
<text text-anchor="middle" x="192" y="-377" font-family="Helvetica,sans-Serif" font-size="10.00"> </text>
</a>
</g>
</g>
<!-- Node4&#45;&gt;Node2 -->
<g id="edge3" class="edge"><title>Node4&#45;&gt;Node2</title>
<path fill="none" stroke="#404040" d="M192,-369.769C192,-344.348 192,-305.926 192,-274.038"/>
<polygon fill="none" stroke="#404040" points="192,-273.731 188,-267.731 192,-261.731 196,-267.731 192,-273.731"/>
<text text-anchor="middle" x="223" y="-283" font-family="Helvetica,sans-Serif" font-size="10.00"> +backRefIdx</text>
</g>
<!-- Node5 -->
<g id="node5" class="node"><title>Node5</title>
<g id="a_node5"><a xlink:href="classrml_1_1internal_1_1MemoryPool.html" target="_top" xlink:title="{rml::internal::MemoryPool\n|&#45; defaultGranularity\l|+ init()\l+ reset()\l+ destroy()\l+ onThreadShutdown()\l+ getTLS()\l+ clearTLS()\l+ getEmptyBlock()\l+ returnEmptyBlock()\l+ getFromLLOCache()\l+ putToLLOCache()\l+ initDefaultPool()\l&#45; MemoryPool()\l}">
<polygon fill="white" stroke="red" points="276,-309.5 276,-487.5 416,-487.5 416,-309.5 276,-309.5"/>
<text text-anchor="middle" x="346" y="-475.5" font-family="Helvetica,sans-Serif" font-size="10.00">rml::internal::MemoryPool</text>
<polyline fill="none" stroke="red" points="276,-468.5 416,-468.5 "/>
<text text-anchor="start" x="284" y="-456.5" font-family="Helvetica,sans-Serif" font-size="10.00">&#45; defaultGranularity</text>
<polyline fill="none" stroke="red" points="276,-449.5 416,-449.5 "/>
<text text-anchor="start" x="284" y="-437.5" font-family="Helvetica,sans-Serif" font-size="10.00">+ init()</text>
<text text-anchor="start" x="284" y="-426.5" font-family="Helvetica,sans-Serif" font-size="10.00">+ reset()</text>
<text text-anchor="start" x="284" y="-415.5" font-family="Helvetica,sans-Serif" font-size="10.00">+ destroy()</text>
<text text-anchor="start" x="284" y="-404.5" font-family="Helvetica,sans-Serif" font-size="10.00">+ onThreadShutdown()</text>
<text text-anchor="start" x="284" y="-393.5" font-family="Helvetica,sans-Serif" font-size="10.00">+ getTLS()</text>
<text text-anchor="start" x="284" y="-382.5" font-family="Helvetica,sans-Serif" font-size="10.00">+ clearTLS()</text>
<text text-anchor="start" x="284" y="-371.5" font-family="Helvetica,sans-Serif" font-size="10.00">+ getEmptyBlock()</text>
<text text-anchor="start" x="284" y="-360.5" font-family="Helvetica,sans-Serif" font-size="10.00">+ returnEmptyBlock()</text>
<text text-anchor="start" x="284" y="-349.5" font-family="Helvetica,sans-Serif" font-size="10.00">+ getFromLLOCache()</text>
<text text-anchor="start" x="284" y="-338.5" font-family="Helvetica,sans-Serif" font-size="10.00">+ putToLLOCache()</text>
<text text-anchor="start" x="284" y="-327.5" font-family="Helvetica,sans-Serif" font-size="10.00">+ initDefaultPool()</text>
<text text-anchor="start" x="284" y="-316.5" font-family="Helvetica,sans-Serif" font-size="10.00">&#45; MemoryPool()</text>
</a>
</g>
</g>
<!-- Node5&#45;&gt;Node2 -->
<g id="edge4" class="edge"><title>Node5&#45;&gt;Node2</title>
<path fill="none" stroke="#404040" d="M282.484,-309.245C274.487,-299.18 266.222,-289.23 258,-280 255.186,-276.841 252.237,-273.657 249.212,-270.49"/>
<polygon fill="none" stroke="#404040" points="248.937,-270.21 241.881,-268.724 240.538,-261.639 247.595,-263.124 248.937,-270.21"/>
<text text-anchor="middle" x="282" y="-283" font-family="Helvetica,sans-Serif" font-size="10.00"> +pool</text>
</g>
<!-- Node5&#45;&gt;Node5 -->
<g id="edge5" class="edge"><title>Node5&#45;&gt;Node5</title>
<path fill="none" stroke="#404040" d="M416.071,-417.649C426.749,-414.727 434,-408.344 434,-398.5 434,-392.655 431.444,-388.031 427.132,-384.626"/>
<polygon fill="none" stroke="#404040" points="426.902,-384.516 419.765,-385.544 416.071,-379.351 423.208,-378.323 426.902,-384.516"/>
<text text-anchor="middle" x="450.5" y="-401.5" font-family="Helvetica,sans-Serif" font-size="10.00"> +prev</text>
<text text-anchor="middle" x="450.5" y="-390.5" font-family="Helvetica,sans-Serif" font-size="10.00">+next</text>
</g>
</g>
</svg>
        <g id="navigator" transform="translate(0 0)" fill="#404254">
                <rect fill="#f2f5e9" fill-opacity="0.5" stroke="#606060" stroke-width=".5" x="0" y="0" width="60" height="60"/>
                <use id="zoomplus" xlink:href="#zoomPlus" x="17" y="9" onmousedown="handleZoom(evt,'in')"/>
                <use id="zoomminus" xlink:href="#zoomMin" x="42" y="9" onmousedown="handleZoom(evt,'out')"/>
                <use id="reset" xlink:href="#resetDef" x="30" y="36" onmousedown="handleReset()"/>
                <g id="arrowUp" xlink:href="#dirArrow" transform="translate(30 24)" onmousedown="handlePan(0,-1)">
                  <use xlink:href="#rim" fill="#404040">
                        <set attributeName="fill" to="#808080" begin="arrowUp.mouseover" end="arrowUp.mouseout"/>
                  </use>
                  <path fill="none" stroke="white" stroke-width="1.5" d="M0,-3.0v7 M-2.5,-0.5L0,-3.0L2.5,-0.5"/>
                </g>
                <g id="arrowRight" xlink:href="#dirArrow" transform="rotate(90) translate(36 -43)" onmousedown="handlePan(1,0)">
                  <use xlink:href="#rim" fill="#404040">
                        <set attributeName="fill" to="#808080" begin="arrowRight.mouseover" end="arrowRight.mouseout"/>
                  </use>
                  <path fill="none" stroke="white" stroke-width="1.5" d="M0,-3.0v7 M-2.5,-0.5L0,-3.0L2.5,-0.5"/>
                </g>
                <g id="arrowDown" xlink:href="#dirArrow" transform="rotate(180) translate(-30 -48)" onmousedown="handlePan(0,1)">
                  <use xlink:href="#rim" fill="#404040">
                        <set attributeName="fill" to="#808080" begin="arrowDown.mouseover" end="arrowDown.mouseout"/>
                  </use>
                  <path fill="none" stroke="white" stroke-width="1.5" d="M0,-3.0v7 M-2.5,-0.5L0,-3.0L2.5,-0.5"/>
                </g>
                <g id="arrowLeft" xlink:href="#dirArrow" transform="rotate(270) translate(-36 17)" onmousedown="handlePan(-1,0)">
                  <use xlink:href="#rim" fill="#404040">
                        <set attributeName="fill" to="#808080" begin="arrowLeft.mouseover" end="arrowLeft.mouseout"/>
                  </use>
                  <path fill="none" stroke="white" stroke-width="1.5" d="M0,-3.0v7 M-2.5,-0.5L0,-3.0L2.5,-0.5"/>
                </g>
        </g>
        <svg viewBox="0 0 15 15" width="100%" height="30px" preserveAspectRatio="xMaxYMin meet">
         <g id="arrow_out" transform="scale(0.3 0.3)">
          <a xlink:href="classrml_1_1internal_1_1LocalLOCImpl__coll__graph_org.svg" target="_base">
           <rect id="button" ry="5" rx="5" y="6" x="6" height="38" width="38"
                fill="#f2f5e9" fill-opacity="0.5" stroke="#606060" stroke-width="1.0"/>
           <path id="arrow"
             d="M 11.500037,31.436501 C 11.940474,20.09759 22.043105,11.32322 32.158766,21.979434 L 37.068811,17.246167 C 37.068811,17.246167 37.088388,32 37.088388,32 L 22.160133,31.978069 C 22.160133,31.978069 26.997745,27.140456 26.997745,27.140456 C 18.528582,18.264221 13.291696,25.230495 11.500037,31.436501 z"
             style="fill:#404040;"/>
          </a>
         </g>
        </svg>
</svg>
