<?xml version="1.0" encoding="UTF-8" standalone="no"?>
<!DOCTYPE svg PUBLIC "-//W3C//DTD SVG 1.1//EN"
 "http://www.w3.org/Graphics/SVG/1.1/DTD/svg11.dtd">
<!-- Generated by graphviz version 2.38.0 (20140413.2041)
 -->
<!-- Title: ComPWA::WrongVariableID Pages: 1 -->
<svg width="151pt" height="331pt"
 viewBox="0.00 0.00 151.00 331.00" xmlns="http://www.w3.org/2000/svg" xmlns:xlink="http://www.w3.org/1999/xlink">
<g id="graph0" class="graph" transform="scale(1 1) rotate(0) translate(4 327)">
<title>ComPWA::WrongVariableID</title>
<polygon fill="white" stroke="none" points="-4,4 -4,-327 147,-327 147,4 -4,4"/>
<!-- Node1 -->
<g id="node1" class="node"><title>Node1</title>
<polygon fill="#bfbfbf" stroke="black" points="0,-0.5 0,-79.5 143,-79.5 143,-0.5 0,-0.5"/>
<text text-anchor="middle" x="71.5" y="-67.5" font-family="Helvetica,sans-Serif" font-size="10.00">ComPWA::WrongVariableID</text>
<polyline fill="none" stroke="black" points="0,-60.5 143,-60.5 "/>
<text text-anchor="middle" x="71.5" y="-48.5" font-family="Helvetica,sans-Serif" font-size="10.00"> </text>
<polyline fill="none" stroke="black" points="0,-41.5 143,-41.5 "/>
<text text-anchor="start" x="8" y="-29.5" font-family="Helvetica,sans-Serif" font-size="10.00">+ WrongVariableID()</text>
<text text-anchor="start" x="8" y="-18.5" font-family="Helvetica,sans-Serif" font-size="10.00">+ WrongVariableID()</text>
<text text-anchor="start" x="8" y="-7.5" font-family="Helvetica,sans-Serif" font-size="10.00">+ ~WrongVariableID()</text>
</g>
<!-- Node2 -->
<g id="node2" class="node"><title>Node2</title>
<g id="a_node2"><a xlink:href="classComPWA_1_1Exception.html" target="_top" xlink:title="ComPWA Exceptions base class. ">
<polygon fill="white" stroke="black" points="15.5,-116.5 15.5,-228.5 127.5,-228.5 127.5,-116.5 15.5,-116.5"/>
<text text-anchor="middle" x="71.5" y="-216.5" font-family="Helvetica,sans-Serif" font-size="10.00">ComPWA::Exception</text>
<polyline fill="none" stroke="black" points="15.5,-209.5 127.5,-209.5 "/>
<text text-anchor="start" x="23.5" y="-197.5" font-family="Helvetica,sans-Serif" font-size="10.00"># what_</text>
<polyline fill="none" stroke="black" points="15.5,-190.5 127.5,-190.5 "/>
<text text-anchor="start" x="23.5" y="-178.5" font-family="Helvetica,sans-Serif" font-size="10.00">+ Exception()</text>
<text text-anchor="start" x="23.5" y="-167.5" font-family="Helvetica,sans-Serif" font-size="10.00">+ operator=()</text>
<text text-anchor="start" x="23.5" y="-156.5" font-family="Helvetica,sans-Serif" font-size="10.00">+ ~Exception()</text>
<text text-anchor="start" x="23.5" y="-145.5" font-family="Helvetica,sans-Serif" font-size="10.00">+ what()</text>
<text text-anchor="start" x="23.5" y="-134.5" font-family="Helvetica,sans-Serif" font-size="10.00"># Exception()</text>
<text text-anchor="start" x="23.5" y="-123.5" font-family="Helvetica,sans-Serif" font-size="10.00"># Exception()</text>
</a>
</g>
</g>
<!-- Node2&#45;&gt;Node1 -->
<g id="edge1" class="edge"><title>Node2&#45;&gt;Node1</title>
<path fill="none" stroke="midnightblue" d="M71.5,-106.056C71.5,-97.0806 71.5,-88.1097 71.5,-79.823"/>
<polygon fill="none" stroke="midnightblue" points="68.0001,-106.156 71.5,-116.156 75.0001,-106.156 68.0001,-106.156"/>
</g>
<!-- Node3 -->
<g id="node3" class="node"><title>Node3</title>
<polygon fill="white" stroke="#bfbfbf" points="40,-265.5 40,-322.5 103,-322.5 103,-265.5 40,-265.5"/>
<text text-anchor="middle" x="71.5" y="-310.5" font-family="Helvetica,sans-Serif" font-size="10.00">exception</text>
<polyline fill="none" stroke="#bfbfbf" points="40,-303.5 103,-303.5 "/>
<text text-anchor="middle" x="71.5" y="-291.5" font-family="Helvetica,sans-Serif" font-size="10.00"> </text>
<polyline fill="none" stroke="#bfbfbf" points="40,-284.5 103,-284.5 "/>
<text text-anchor="middle" x="71.5" y="-272.5" font-family="Helvetica,sans-Serif" font-size="10.00"> </text>
</g>
<!-- Node3&#45;&gt;Node2 -->
<g id="edge2" class="edge"><title>Node3&#45;&gt;Node2</title>
<path fill="none" stroke="midnightblue" d="M71.5,-255.108C71.5,-246.748 71.5,-237.725 71.5,-228.834"/>
<polygon fill="none" stroke="midnightblue" points="68.0001,-255.284 71.5,-265.284 75.0001,-255.284 68.0001,-255.284"/>
</g>
</g>
</svg>
