<?xml version="1.0" encoding="UTF-8" standalone="no"?>
<!DOCTYPE svg PUBLIC "-//W3C//DTD SVG 1.1//EN"
 "http://www.w3.org/Graphics/SVG/1.1/DTD/svg11.dtd">
<!-- Generated by graphviz version 2.38.0 (20140413.2041)
 -->
<!-- Title: internal::join_node_FE&lt; reserving, InputTuple, OutputTuple &gt; Pages: 1 -->
<svg width="166pt" height="452pt"
 viewBox="0.00 0.00 166.00 452.00" xmlns="http://www.w3.org/2000/svg" xmlns:xlink="http://www.w3.org/1999/xlink">
<g id="graph0" class="graph" transform="scale(1 1) rotate(0) translate(4 448)">
<title>internal::join_node_FE&lt; reserving, InputTuple, OutputTuple &gt;</title>
<polygon fill="white" stroke="none" points="-4,4 -4,-448 162,-448 162,4 -4,4"/>
<!-- Node1 -->
<g id="node1" class="node"><title>Node1</title>
<polygon fill="#bfbfbf" stroke="black" points="-1.42109e-14,-0.5 -1.42109e-14,-222.5 158,-222.5 158,-0.5 -1.42109e-14,-0.5"/>
<text text-anchor="start" x="8" y="-210.5" font-family="Helvetica,sans-Serif" font-size="10.00">internal::join_node</text>
<text text-anchor="start" x="8" y="-199.5" font-family="Helvetica,sans-Serif" font-size="10.00">_FE&lt; reserving, InputTuple,</text>
<text text-anchor="middle" x="79" y="-188.5" font-family="Helvetica,sans-Serif" font-size="10.00"> OutputTuple &gt;</text>
<polyline fill="none" stroke="black" points="-1.42109e-14,-181.5 158,-181.5 "/>
<text text-anchor="start" x="8" y="-169.5" font-family="Helvetica,sans-Serif" font-size="10.00">+ N</text>
<text text-anchor="start" x="8" y="-158.5" font-family="Helvetica,sans-Serif" font-size="10.00"># my_inputs</text>
<text text-anchor="start" x="8" y="-147.5" font-family="Helvetica,sans-Serif" font-size="10.00"># my_node</text>
<text text-anchor="start" x="8" y="-136.5" font-family="Helvetica,sans-Serif" font-size="10.00"># ports_with_no_inputs</text>
<polyline fill="none" stroke="black" points="-1.42109e-14,-129.5 158,-129.5 "/>
<text text-anchor="start" x="8" y="-117.5" font-family="Helvetica,sans-Serif" font-size="10.00">+ join_node_FE()</text>
<text text-anchor="start" x="8" y="-106.5" font-family="Helvetica,sans-Serif" font-size="10.00">+ join_node_FE()</text>
<text text-anchor="start" x="8" y="-95.5" font-family="Helvetica,sans-Serif" font-size="10.00">+ set_my_node()</text>
<text text-anchor="start" x="8" y="-84.5" font-family="Helvetica,sans-Serif" font-size="10.00">+ increment_port_count()</text>
<text text-anchor="start" x="8" y="-73.5" font-family="Helvetica,sans-Serif" font-size="10.00">+ decrement_port_count()</text>
<text text-anchor="start" x="8" y="-62.5" font-family="Helvetica,sans-Serif" font-size="10.00">+ input_ports()</text>
<text text-anchor="start" x="8" y="-51.5" font-family="Helvetica,sans-Serif" font-size="10.00"># reset()</text>
<text text-anchor="start" x="8" y="-40.5" font-family="Helvetica,sans-Serif" font-size="10.00"># tuple_build_may_succeed()</text>
<text text-anchor="start" x="8" y="-29.5" font-family="Helvetica,sans-Serif" font-size="10.00"># try_to_make_tuple()</text>
<text text-anchor="start" x="8" y="-18.5" font-family="Helvetica,sans-Serif" font-size="10.00"># tuple_accepted()</text>
<text text-anchor="start" x="8" y="-7.5" font-family="Helvetica,sans-Serif" font-size="10.00"># tuple_rejected()</text>
</g>
<!-- Node2 -->
<g id="node2" class="node"><title>Node2</title>
<g id="a_node2"><a xlink:href="structinternal_1_1forwarding__base.html" target="_top" xlink:title="{internal::forwarding_base\n|+ graph_ref\l|+ forwarding_base()\l+ ~forwarding_base()\l+ decrement_port_count()\l+ increment_port_count()\l}">
<polygon fill="white" stroke="black" points="6.5,-259.5 6.5,-349.5 151.5,-349.5 151.5,-259.5 6.5,-259.5"/>
<text text-anchor="middle" x="79" y="-337.5" font-family="Helvetica,sans-Serif" font-size="10.00">internal::forwarding_base</text>
<polyline fill="none" stroke="black" points="6.5,-330.5 151.5,-330.5 "/>
<text text-anchor="start" x="14.5" y="-318.5" font-family="Helvetica,sans-Serif" font-size="10.00">+ graph_ref</text>
<polyline fill="none" stroke="black" points="6.5,-311.5 151.5,-311.5 "/>
<text text-anchor="start" x="14.5" y="-299.5" font-family="Helvetica,sans-Serif" font-size="10.00">+ forwarding_base()</text>
<text text-anchor="start" x="14.5" y="-288.5" font-family="Helvetica,sans-Serif" font-size="10.00">+ ~forwarding_base()</text>
<text text-anchor="start" x="14.5" y="-277.5" font-family="Helvetica,sans-Serif" font-size="10.00">+ decrement_port_count()</text>
<text text-anchor="start" x="14.5" y="-266.5" font-family="Helvetica,sans-Serif" font-size="10.00">+ increment_port_count()</text>
</a>
</g>
</g>
<!-- Node2&#45;&gt;Node1 -->
<g id="edge1" class="edge"><title>Node2&#45;&gt;Node1</title>
<path fill="none" stroke="midnightblue" d="M79,-248.964C79,-240.647 79,-231.819 79,-222.81"/>
<polygon fill="none" stroke="midnightblue" points="75.5001,-249.201 79,-259.201 82.5001,-249.201 75.5001,-249.201"/>
</g>
<!-- Node3 -->
<g id="node3" class="node"><title>Node3</title>
<polygon fill="white" stroke="#bfbfbf" points="46.5,-386.5 46.5,-443.5 111.5,-443.5 111.5,-386.5 46.5,-386.5"/>
<text text-anchor="middle" x="79" y="-431.5" font-family="Helvetica,sans-Serif" font-size="10.00">no_assign</text>
<polyline fill="none" stroke="#bfbfbf" points="46.5,-424.5 111.5,-424.5 "/>
<text text-anchor="middle" x="79" y="-412.5" font-family="Helvetica,sans-Serif" font-size="10.00"> </text>
<polyline fill="none" stroke="#bfbfbf" points="46.5,-405.5 111.5,-405.5 "/>
<text text-anchor="middle" x="79" y="-393.5" font-family="Helvetica,sans-Serif" font-size="10.00"> </text>
</g>
<!-- Node3&#45;&gt;Node2 -->
<g id="edge2" class="edge"><title>Node3&#45;&gt;Node2</title>
<path fill="none" stroke="midnightblue" d="M79,-376.214C79,-367.609 79,-358.394 79,-349.554"/>
<polygon fill="none" stroke="midnightblue" points="75.5001,-376.34 79,-386.34 82.5001,-376.34 75.5001,-376.34"/>
</g>
</g>
</svg>
