<?xml version="1.0" encoding="UTF-8" standalone="no"?>
<!DOCTYPE svg PUBLIC "-//W3C//DTD SVG 1.1//EN"
 "http://www.w3.org/Graphics/SVG/1.1/DTD/svg11.dtd">
<!-- Generated by graphviz version 2.38.0 (20140413.2041)
 -->
<!-- Title: rml::internal::CacheBinFunctor&lt; Props &gt;::OperationPreprocessor Pages: 1 -->
<!--zoomable 485 -->
<svg id="main" version="1.1" xmlns="http://www.w3.org/2000/svg" xmlns:xlink="http://www.w3.org/1999/xlink" xml:space="preserve" onload="init(evt)">
<style type="text/css"><![CDATA[
.edge:hover path { stroke: red; }
.edge:hover polygon { stroke: red; fill: red; }
]]></style>
<script type="text/javascript"><![CDATA[
var edges = document.getElementsByTagName('g');
if (edges && edges.length) {
  for (var i=0;i<edges.length;i++) {
    if (edges[i].id.substr(0,4)=='edge') {
      edges[i].setAttribute('class','edge');
    }
  }
}
]]></script>
        <defs>
                <circle id="rim" cx="0" cy="0" r="7"/>
                <circle id="rim2" cx="0" cy="0" r="3.5"/>
                <g id="zoomPlus">
                        <use xlink:href="#rim" fill="#404040">
                                <set attributeName="fill" to="#808080" begin="zoomplus.mouseover" end="zoomplus.mouseout"/>
                        </use>
                        <path d="M-4,0h8M0,-4v8" fill="none" stroke="white" stroke-width="1.5" pointer-events="none"/>
                </g>
                <g id="zoomMin">
                        <use xlink:href="#rim" fill="#404040">
                                <set attributeName="fill" to="#808080" begin="zoomminus.mouseover" end="zoomminus.mouseout"/>
                        </use>
                        <path d="M-4,0h8" fill="none" stroke="white" stroke-width="1.5" pointer-events="none"/>
                </g>
                <g id="dirArrow">
                        <path fill="none" stroke="white" stroke-width="1.5" d="M0,-3.0v7 M-2.5,-0.5L0,-3.0L2.5,-0.5"/>
                </g>
               <g id="resetDef">
                       <use xlink:href="#rim2" fill="#404040">
                               <set attributeName="fill" to="#808080" begin="reset.mouseover" end="reset.mouseout"/>
                       </use>
               </g>
        </defs>

<script type="text/javascript">
var viewWidth = 492;
var viewHeight = 485;
var sectionId = 'dynsection-0';
</script>
<script xlink:href="svgpan.js"/>
<svg id="graph" class="graph">
<g id="viewport">
<title>rml::internal::CacheBinFunctor&lt; Props &gt;::OperationPreprocessor</title>
<polygon fill="white" stroke="none" points="-4,4 -4,-481 488,-481 488,4 -4,4"/>
<!-- Node1 -->
<g id="node1" class="node"><title>Node1</title>
<polygon fill="#bfbfbf" stroke="black" points="174,-0.5 174,-211.5 356,-211.5 356,-0.5 174,-0.5"/>
<text text-anchor="start" x="182" y="-199.5" font-family="Helvetica,sans-Serif" font-size="10.00">rml::internal::CacheBinFunctor</text>
<text text-anchor="middle" x="265" y="-188.5" font-family="Helvetica,sans-Serif" font-size="10.00">&lt; Props &gt;::OperationPreprocessor</text>
<polyline fill="none" stroke="black" points="174,-181.5 356,-181.5 "/>
<text text-anchor="start" x="182" y="-169.5" font-family="Helvetica,sans-Serif" font-size="10.00">&#45; bin</text>
<text text-anchor="start" x="182" y="-158.5" font-family="Helvetica,sans-Serif" font-size="10.00">&#45; lclTime</text>
<text text-anchor="start" x="182" y="-147.5" font-family="Helvetica,sans-Serif" font-size="10.00">&#45; cleanTime</text>
<text text-anchor="start" x="182" y="-136.5" font-family="Helvetica,sans-Serif" font-size="10.00">&#45; lastGetOpTime</text>
<text text-anchor="start" x="182" y="-125.5" font-family="Helvetica,sans-Serif" font-size="10.00">&#45; lastGet</text>
<text text-anchor="start" x="182" y="-114.5" font-family="Helvetica,sans-Serif" font-size="10.00">&#45; updateUsedSize</text>
<text text-anchor="start" x="182" y="-103.5" font-family="Helvetica,sans-Serif" font-size="10.00">&#45; putListNum</text>
<text text-anchor="start" x="182" y="-92.5" font-family="Helvetica,sans-Serif" font-size="10.00">&#45; isCleanAll</text>
<polyline fill="none" stroke="black" points="174,-85.5 356,-85.5 "/>
<text text-anchor="start" x="182" y="-73.5" font-family="Helvetica,sans-Serif" font-size="10.00">+ OperationPreprocessor()</text>
<text text-anchor="start" x="182" y="-62.5" font-family="Helvetica,sans-Serif" font-size="10.00">+ operator()()</text>
<text text-anchor="start" x="182" y="-51.5" font-family="Helvetica,sans-Serif" font-size="10.00">+ getTimeRange()</text>
<text text-anchor="start" x="182" y="-40.5" font-family="Helvetica,sans-Serif" font-size="10.00">&#45; commitOperation()</text>
<text text-anchor="start" x="182" y="-29.5" font-family="Helvetica,sans-Serif" font-size="10.00">&#45; addOpToOpList()</text>
<text text-anchor="start" x="182" y="-18.5" font-family="Helvetica,sans-Serif" font-size="10.00">&#45; getFromPutList()</text>
<text text-anchor="start" x="182" y="-7.5" font-family="Helvetica,sans-Serif" font-size="10.00">&#45; addToPutList()</text>
</g>
<!-- Node2 -->
<g id="node2" class="node"><title>Node2</title>
<g id="a_node2"><a xlink:href="structrml_1_1internal_1_1CacheBinOperation.html" target="_top" xlink:title="{rml::internal::CacheBinOperation\n|+ type\l|+ CacheBinOperation()\l}">
<polygon fill="white" stroke="black" points="89.5,-287 89.5,-344 262.5,-344 262.5,-287 89.5,-287"/>
<text text-anchor="middle" x="176" y="-332" font-family="Helvetica,sans-Serif" font-size="10.00">rml::internal::CacheBinOperation</text>
<polyline fill="none" stroke="black" points="89.5,-325 262.5,-325 "/>
<text text-anchor="start" x="97.5" y="-313" font-family="Helvetica,sans-Serif" font-size="10.00">+ type</text>
<polyline fill="none" stroke="black" points="89.5,-306 262.5,-306 "/>
<text text-anchor="start" x="97.5" y="-294" font-family="Helvetica,sans-Serif" font-size="10.00">+ CacheBinOperation()</text>
</a>
</g>
</g>
<!-- Node2&#45;&gt;Node1 -->
<g id="edge1" class="edge"><title>Node2&#45;&gt;Node1</title>
<path fill="none" stroke="#404040" d="M187.819,-286.946C195.117,-269.929 205.03,-246.817 215.318,-222.832"/>
<polygon fill="none" stroke="#404040" points="215.333,-222.797 214.022,-215.706 220.063,-211.769 221.374,-218.86 215.333,-222.797"/>
<text text-anchor="middle" x="231.5" y="-244" font-family="Helvetica,sans-Serif" font-size="10.00"> &#45;opGet</text>
<text text-anchor="middle" x="231.5" y="-233" font-family="Helvetica,sans-Serif" font-size="10.00">&#45;opClean</text>
</g>
<!-- Node3 -->
<g id="node3" class="node"><title>Node3</title>
<polygon fill="white" stroke="#bfbfbf" points="0,-408.5 0,-476.5 158,-476.5 158,-408.5 0,-408.5"/>
<text text-anchor="start" x="8" y="-464.5" font-family="Helvetica,sans-Serif" font-size="10.00">MallocAggregatedOperation</text>
<text text-anchor="middle" x="79" y="-453.5" font-family="Helvetica,sans-Serif" font-size="10.00">&lt; CacheBinOperation &gt;::type</text>
<polyline fill="none" stroke="#bfbfbf" points="0,-446.5 158,-446.5 "/>
<text text-anchor="middle" x="79" y="-434.5" font-family="Helvetica,sans-Serif" font-size="10.00"> </text>
<polyline fill="none" stroke="#bfbfbf" points="0,-427.5 158,-427.5 "/>
<text text-anchor="middle" x="79" y="-415.5" font-family="Helvetica,sans-Serif" font-size="10.00"> </text>
</g>
<!-- Node3&#45;&gt;Node2 -->
<g id="edge2" class="edge"><title>Node3&#45;&gt;Node2</title>
<path fill="none" stroke="midnightblue" d="M111.103,-400.13C125.324,-381.804 141.678,-360.73 154.41,-344.322"/>
<polygon fill="none" stroke="midnightblue" points="108.105,-398.284 104.74,-408.33 113.635,-402.576 108.105,-398.284"/>
</g>
<!-- Node4 -->
<g id="node4" class="node"><title>Node4</title>
<g id="a_node4"><a xlink:href="unionrml_1_1internal_1_1CacheBinOperationData.html" target="_top" xlink:title="{rml::internal::CacheBinOperationData\n||}">
<polygon fill="white" stroke="red" points="176,-414 176,-471 372,-471 372,-414 176,-414"/>
<text text-anchor="middle" x="274" y="-459" font-family="Helvetica,sans-Serif" font-size="10.00">rml::internal::CacheBinOperationData</text>
<polyline fill="none" stroke="red" points="176,-452 372,-452 "/>
<text text-anchor="middle" x="274" y="-440" font-family="Helvetica,sans-Serif" font-size="10.00"> </text>
<polyline fill="none" stroke="red" points="176,-433 372,-433 "/>
<text text-anchor="middle" x="274" y="-421" font-family="Helvetica,sans-Serif" font-size="10.00"> </text>
</a>
</g>
</g>
<!-- Node4&#45;&gt;Node2 -->
<g id="edge3" class="edge"><title>Node4&#45;&gt;Node2</title>
<path fill="none" stroke="#404040" d="M252.251,-413.758C238.421,-396.119 220.345,-373.062 205.264,-353.826"/>
<polygon fill="none" stroke="#404040" points="205.092,-353.608 198.243,-351.354 197.689,-344.164 204.538,-346.418 205.092,-353.608"/>
<text text-anchor="middle" x="245.5" y="-382" font-family="Helvetica,sans-Serif" font-size="10.00"> &#45;data</text>
</g>
<!-- Node5 -->
<g id="node5" class="node"><title>Node5</title>
<g id="a_node5"><a xlink:href="structrml_1_1internal_1_1LargeMemoryBlock.html" target="_top" xlink:title="{rml::internal::LargeMemory\lBlock\n|+ age\l+ objectSize\l+ unalignedSize\l|}">
<polygon fill="white" stroke="red" points="281,-270.5 281,-360.5 427,-360.5 427,-270.5 281,-270.5"/>
<text text-anchor="start" x="289" y="-348.5" font-family="Helvetica,sans-Serif" font-size="10.00">rml::internal::LargeMemory</text>
<text text-anchor="middle" x="354" y="-337.5" font-family="Helvetica,sans-Serif" font-size="10.00">Block</text>
<polyline fill="none" stroke="red" points="281,-330.5 427,-330.5 "/>
<text text-anchor="start" x="289" y="-318.5" font-family="Helvetica,sans-Serif" font-size="10.00">+ age</text>
<text text-anchor="start" x="289" y="-307.5" font-family="Helvetica,sans-Serif" font-size="10.00">+ objectSize</text>
<text text-anchor="start" x="289" y="-296.5" font-family="Helvetica,sans-Serif" font-size="10.00">+ unalignedSize</text>
<polyline fill="none" stroke="red" points="281,-289.5 427,-289.5 "/>
<text text-anchor="middle" x="354" y="-277.5" font-family="Helvetica,sans-Serif" font-size="10.00"> </text>
</a>
</g>
</g>
<!-- Node5&#45;&gt;Node1 -->
<g id="edge4" class="edge"><title>Node5&#45;&gt;Node1</title>
<path fill="none" stroke="#404040" d="M335.125,-270.495C329.014,-256.247 321.925,-239.719 314.65,-222.756"/>
<polygon fill="none" stroke="#404040" points="314.581,-222.595 308.539,-218.658 309.85,-211.567 315.892,-215.504 314.581,-222.595"/>
<text text-anchor="middle" x="340.5" y="-244" font-family="Helvetica,sans-Serif" font-size="10.00"> &#45;head</text>
<text text-anchor="middle" x="340.5" y="-233" font-family="Helvetica,sans-Serif" font-size="10.00">&#45;tail</text>
</g>
<!-- Node5&#45;&gt;Node5 -->
<g id="edge5" class="edge"><title>Node5&#45;&gt;Node5</title>
<path fill="none" stroke="#404040" d="M427.19,-327.005C437.831,-325.179 445,-321.344 445,-315.5 445,-312.213 442.732,-309.561 438.853,-307.545"/>
<polygon fill="none" stroke="#404040" points="438.67,-307.49 431.765,-309.569 427.19,-303.995 434.095,-301.916 438.67,-307.49"/>
<text text-anchor="middle" x="464.5" y="-329.5" font-family="Helvetica,sans-Serif" font-size="10.00"> +gPrev</text>
<text text-anchor="middle" x="464.5" y="-318.5" font-family="Helvetica,sans-Serif" font-size="10.00">+gNext</text>
<text text-anchor="middle" x="464.5" y="-307.5" font-family="Helvetica,sans-Serif" font-size="10.00">+prev</text>
<text text-anchor="middle" x="464.5" y="-296.5" font-family="Helvetica,sans-Serif" font-size="10.00">+next</text>
</g>
</g>
</svg>
        <g id="navigator" transform="translate(0 0)" fill="#404254">
                <rect fill="#f2f5e9" fill-opacity="0.5" stroke="#606060" stroke-width=".5" x="0" y="0" width="60" height="60"/>
                <use id="zoomplus" xlink:href="#zoomPlus" x="17" y="9" onmousedown="handleZoom(evt,'in')"/>
                <use id="zoomminus" xlink:href="#zoomMin" x="42" y="9" onmousedown="handleZoom(evt,'out')"/>
                <use id="reset" xlink:href="#resetDef" x="30" y="36" onmousedown="handleReset()"/>
                <g id="arrowUp" xlink:href="#dirArrow" transform="translate(30 24)" onmousedown="handlePan(0,-1)">
                  <use xlink:href="#rim" fill="#404040">
                        <set attributeName="fill" to="#808080" begin="arrowUp.mouseover" end="arrowUp.mouseout"/>
                  </use>
                  <path fill="none" stroke="white" stroke-width="1.5" d="M0,-3.0v7 M-2.5,-0.5L0,-3.0L2.5,-0.5"/>
                </g>
                <g id="arrowRight" xlink:href="#dirArrow" transform="rotate(90) translate(36 -43)" onmousedown="handlePan(1,0)">
                  <use xlink:href="#rim" fill="#404040">
                        <set attributeName="fill" to="#808080" begin="arrowRight.mouseover" end="arrowRight.mouseout"/>
                  </use>
                  <path fill="none" stroke="white" stroke-width="1.5" d="M0,-3.0v7 M-2.5,-0.5L0,-3.0L2.5,-0.5"/>
                </g>
                <g id="arrowDown" xlink:href="#dirArrow" transform="rotate(180) translate(-30 -48)" onmousedown="handlePan(0,1)">
                  <use xlink:href="#rim" fill="#404040">
                        <set attributeName="fill" to="#808080" begin="arrowDown.mouseover" end="arrowDown.mouseout"/>
                  </use>
                  <path fill="none" stroke="white" stroke-width="1.5" d="M0,-3.0v7 M-2.5,-0.5L0,-3.0L2.5,-0.5"/>
                </g>
                <g id="arrowLeft" xlink:href="#dirArrow" transform="rotate(270) translate(-36 17)" onmousedown="handlePan(-1,0)">
                  <use xlink:href="#rim" fill="#404040">
                        <set attributeName="fill" to="#808080" begin="arrowLeft.mouseover" end="arrowLeft.mouseout"/>
                  </use>
                  <path fill="none" stroke="white" stroke-width="1.5" d="M0,-3.0v7 M-2.5,-0.5L0,-3.0L2.5,-0.5"/>
                </g>
        </g>
        <svg viewBox="0 0 15 15" width="100%" height="30px" preserveAspectRatio="xMaxYMin meet">
         <g id="arrow_out" transform="scale(0.3 0.3)">
          <a xlink:href="classrml_1_1internal_1_1CacheBinFunctor_1_1OperationPreprocessor__coll__graph_org.svg" target="_base">
           <rect id="button" ry="5" rx="5" y="6" x="6" height="38" width="38"
                fill="#f2f5e9" fill-opacity="0.5" stroke="#606060" stroke-width="1.0"/>
           <path id="arrow"
             d="M 11.500037,31.436501 C 11.940474,20.09759 22.043105,11.32322 32.158766,21.979434 L 37.068811,17.246167 C 37.068811,17.246167 37.088388,32 37.088388,32 L 22.160133,31.978069 C 22.160133,31.978069 26.997745,27.140456 26.997745,27.140456 C 18.528582,18.264221 13.291696,25.230495 11.500037,31.436501 z"
             style="fill:#404040;"/>
          </a>
         </g>
        </svg>
</svg>
