<?xml version="1.0" encoding="UTF-8" standalone="no"?>
<!DOCTYPE svg PUBLIC "-//W3C//DTD SVG 1.1//EN"
 "http://www.w3.org/Graphics/SVG/1.1/DTD/svg11.dtd">
<!-- Generated by graphviz version 2.38.0 (20140413.2041)
 -->
<!-- Title: video Pages: 1 -->
<svg width="506pt" height="501pt"
 viewBox="0.00 0.00 506.00 501.00" xmlns="http://www.w3.org/2000/svg" xmlns:xlink="http://www.w3.org/1999/xlink">
<g id="graph0" class="graph" transform="scale(1 1) rotate(0) translate(4 497)">
<title>video</title>
<polygon fill="white" stroke="none" points="-4,4 -4,-497 502,-497 502,4 -4,4"/>
<!-- Node1 -->
<g id="node1" class="node"><title>Node1</title>
<polygon fill="#bfbfbf" stroke="black" points="186,-171.5 186,-492.5 325,-492.5 325,-171.5 186,-171.5"/>
<text text-anchor="middle" x="255.5" y="-480.5" font-family="Helvetica,sans-Serif" font-size="10.00">video</text>
<polyline fill="none" stroke="black" points="186,-473.5 325,-473.5 "/>
<text text-anchor="start" x="194" y="-461.5" font-family="Helvetica,sans-Serif" font-size="10.00">+ title</text>
<text text-anchor="start" x="194" y="-450.5" font-family="Helvetica,sans-Serif" font-size="10.00">+ calc_fps</text>
<text text-anchor="start" x="194" y="-439.5" font-family="Helvetica,sans-Serif" font-size="10.00">+ threaded</text>
<text text-anchor="start" x="194" y="-428.5" font-family="Helvetica,sans-Serif" font-size="10.00">+ running</text>
<text text-anchor="start" x="194" y="-417.5" font-family="Helvetica,sans-Serif" font-size="10.00">+ updating</text>
<text text-anchor="start" x="194" y="-406.5" font-family="Helvetica,sans-Serif" font-size="10.00">+ esc_key</text>
<text text-anchor="start" x="194" y="-395.5" font-family="Helvetica,sans-Serif" font-size="10.00">&#45; depth</text>
<text text-anchor="start" x="194" y="-384.5" font-family="Helvetica,sans-Serif" font-size="10.00">&#45; red_shift</text>
<text text-anchor="start" x="194" y="-373.5" font-family="Helvetica,sans-Serif" font-size="10.00">&#45; green_shift</text>
<text text-anchor="start" x="194" y="-362.5" font-family="Helvetica,sans-Serif" font-size="10.00">&#45; blue_shift</text>
<text text-anchor="start" x="194" y="-351.5" font-family="Helvetica,sans-Serif" font-size="10.00">&#45; red_mask</text>
<text text-anchor="start" x="194" y="-340.5" font-family="Helvetica,sans-Serif" font-size="10.00">&#45; green_mask</text>
<text text-anchor="start" x="194" y="-329.5" font-family="Helvetica,sans-Serif" font-size="10.00">&#45; blue_mask</text>
<polyline fill="none" stroke="black" points="186,-322.5 325,-322.5 "/>
<text text-anchor="start" x="194" y="-310.5" font-family="Helvetica,sans-Serif" font-size="10.00">+ video()</text>
<text text-anchor="start" x="194" y="-299.5" font-family="Helvetica,sans-Serif" font-size="10.00">+ ~video()</text>
<text text-anchor="start" x="194" y="-288.5" font-family="Helvetica,sans-Serif" font-size="10.00">+ init_window()</text>
<text text-anchor="start" x="194" y="-277.5" font-family="Helvetica,sans-Serif" font-size="10.00">+ init_console()</text>
<text text-anchor="start" x="194" y="-266.5" font-family="Helvetica,sans-Serif" font-size="10.00">+ terminate()</text>
<text text-anchor="start" x="194" y="-255.5" font-family="Helvetica,sans-Serif" font-size="10.00">+ main_loop()</text>
<text text-anchor="start" x="194" y="-244.5" font-family="Helvetica,sans-Serif" font-size="10.00">+ next_frame()</text>
<text text-anchor="start" x="194" y="-233.5" font-family="Helvetica,sans-Serif" font-size="10.00">+ show_title()</text>
<text text-anchor="start" x="194" y="-222.5" font-family="Helvetica,sans-Serif" font-size="10.00">+ get_color()</text>
<text text-anchor="start" x="194" y="-211.5" font-family="Helvetica,sans-Serif" font-size="10.00">+ get_drawing_memory()</text>
<text text-anchor="start" x="194" y="-200.5" font-family="Helvetica,sans-Serif" font-size="10.00">+ on_mouse()</text>
<text text-anchor="start" x="194" y="-189.5" font-family="Helvetica,sans-Serif" font-size="10.00">+ on_key()</text>
<text text-anchor="start" x="194" y="-178.5" font-family="Helvetica,sans-Serif" font-size="10.00">+ on_process()</text>
</g>
<!-- Node2 -->
<g id="node2" class="node"><title>Node2</title>
<g id="a_node2"><a xlink:href="classfractal__video.html" target="_top" xlink:title="{fractal_video\n|&#45; fg\l|+ fractal_video()\l+ set_fractal_group()\l&#45; on_mouse()\l&#45; on_key()\l&#45; on_process()\l}">
<polygon fill="white" stroke="black" points="0,-17 0,-118 119,-118 119,-17 0,-17"/>
<text text-anchor="middle" x="59.5" y="-106" font-family="Helvetica,sans-Serif" font-size="10.00">fractal_video</text>
<polyline fill="none" stroke="black" points="0,-99 119,-99 "/>
<text text-anchor="start" x="8" y="-87" font-family="Helvetica,sans-Serif" font-size="10.00">&#45; fg</text>
<polyline fill="none" stroke="black" points="0,-80 119,-80 "/>
<text text-anchor="start" x="8" y="-68" font-family="Helvetica,sans-Serif" font-size="10.00">+ fractal_video()</text>
<text text-anchor="start" x="8" y="-57" font-family="Helvetica,sans-Serif" font-size="10.00">+ set_fractal_group()</text>
<text text-anchor="start" x="8" y="-46" font-family="Helvetica,sans-Serif" font-size="10.00">&#45; on_mouse()</text>
<text text-anchor="start" x="8" y="-35" font-family="Helvetica,sans-Serif" font-size="10.00">&#45; on_key()</text>
<text text-anchor="start" x="8" y="-24" font-family="Helvetica,sans-Serif" font-size="10.00">&#45; on_process()</text>
</a>
</g>
</g>
<!-- Node1&#45;&gt;Node2 -->
<g id="edge1" class="edge"><title>Node1&#45;&gt;Node2</title>
<path fill="none" stroke="midnightblue" d="M179.792,-229.605C151.212,-191.329 119.962,-149.476 96.4777,-118.024"/>
<polygon fill="none" stroke="midnightblue" points="177.058,-231.794 185.846,-237.713 182.667,-227.606 177.058,-231.794"/>
</g>
<!-- Node3 -->
<g id="node3" class="node"><title>Node3</title>
<g id="a_node3"><a xlink:href="classpover__video.html" target="_top" xlink:title="{pover_video\n||+ graphic_display()\l&#45; on_process()\l}">
<polygon fill="white" stroke="black" points="137,-33.5 137,-101.5 246,-101.5 246,-33.5 137,-33.5"/>
<text text-anchor="middle" x="191.5" y="-89.5" font-family="Helvetica,sans-Serif" font-size="10.00">pover_video</text>
<polyline fill="none" stroke="black" points="137,-82.5 246,-82.5 "/>
<text text-anchor="middle" x="191.5" y="-70.5" font-family="Helvetica,sans-Serif" font-size="10.00"> </text>
<polyline fill="none" stroke="black" points="137,-63.5 246,-63.5 "/>
<text text-anchor="start" x="145" y="-51.5" font-family="Helvetica,sans-Serif" font-size="10.00">+ graphic_display()</text>
<text text-anchor="start" x="145" y="-40.5" font-family="Helvetica,sans-Serif" font-size="10.00">&#45; on_process()</text>
</a>
</g>
</g>
<!-- Node1&#45;&gt;Node3 -->
<g id="edge2" class="edge"><title>Node1&#45;&gt;Node3</title>
<path fill="none" stroke="midnightblue" d="M214.217,-161.674C208.683,-138.978 203.555,-117.945 199.577,-101.627"/>
<polygon fill="none" stroke="midnightblue" points="210.842,-162.607 216.611,-171.494 217.642,-160.949 210.842,-162.607"/>
</g>
<!-- Node4 -->
<g id="node4" class="node"><title>Node4</title>
<g id="a_node4"><a xlink:href="classSeismicVideo.html" target="_top" xlink:title="{SeismicVideo\n|&#45; initIsParallel\l&#45; u_\l&#45; numberOfFrames_\l&#45; threadsHigh\l&#45; titles\l|+ SeismicVideo()\l&#45; on_mouse()\l&#45; on_process()\l&#45; on_key()\l}">
<polygon fill="white" stroke="black" points="264.5,-0.5 264.5,-134.5 376.5,-134.5 376.5,-0.5 264.5,-0.5"/>
<text text-anchor="middle" x="320.5" y="-122.5" font-family="Helvetica,sans-Serif" font-size="10.00">SeismicVideo</text>
<polyline fill="none" stroke="black" points="264.5,-115.5 376.5,-115.5 "/>
<text text-anchor="start" x="272.5" y="-103.5" font-family="Helvetica,sans-Serif" font-size="10.00">&#45; initIsParallel</text>
<text text-anchor="start" x="272.5" y="-92.5" font-family="Helvetica,sans-Serif" font-size="10.00">&#45; u_</text>
<text text-anchor="start" x="272.5" y="-81.5" font-family="Helvetica,sans-Serif" font-size="10.00">&#45; numberOfFrames_</text>
<text text-anchor="start" x="272.5" y="-70.5" font-family="Helvetica,sans-Serif" font-size="10.00">&#45; threadsHigh</text>
<text text-anchor="start" x="272.5" y="-59.5" font-family="Helvetica,sans-Serif" font-size="10.00">&#45; titles</text>
<polyline fill="none" stroke="black" points="264.5,-52.5 376.5,-52.5 "/>
<text text-anchor="start" x="272.5" y="-40.5" font-family="Helvetica,sans-Serif" font-size="10.00">+ SeismicVideo()</text>
<text text-anchor="start" x="272.5" y="-29.5" font-family="Helvetica,sans-Serif" font-size="10.00">&#45; on_mouse()</text>
<text text-anchor="start" x="272.5" y="-18.5" font-family="Helvetica,sans-Serif" font-size="10.00">&#45; on_process()</text>
<text text-anchor="start" x="272.5" y="-7.5" font-family="Helvetica,sans-Serif" font-size="10.00">&#45; on_key()</text>
</a>
</g>
</g>
<!-- Node1&#45;&gt;Node4 -->
<g id="edge3" class="edge"><title>Node1&#45;&gt;Node4</title>
<path fill="none" stroke="midnightblue" d="M297.443,-161.614C299.768,-152.225 302.023,-143.12 304.153,-134.517"/>
<polygon fill="none" stroke="midnightblue" points="294.003,-160.945 294.997,-171.494 300.798,-162.628 294.003,-160.945"/>
</g>
<!-- Node5 -->
<g id="node5" class="node"><title>Node5</title>
<g id="a_node5"><a xlink:href="classtachyon__video.html" target="_top" xlink:title="{tachyon_video\n|+ updating_mode\l+ recycling\l+ pausing\l|+ on_process()\l+ on_key()\l}">
<polygon fill="white" stroke="black" points="395,-22.5 395,-112.5 498,-112.5 498,-22.5 395,-22.5"/>
<text text-anchor="middle" x="446.5" y="-100.5" font-family="Helvetica,sans-Serif" font-size="10.00">tachyon_video</text>
<polyline fill="none" stroke="black" points="395,-93.5 498,-93.5 "/>
<text text-anchor="start" x="403" y="-81.5" font-family="Helvetica,sans-Serif" font-size="10.00">+ updating_mode</text>
<text text-anchor="start" x="403" y="-70.5" font-family="Helvetica,sans-Serif" font-size="10.00">+ recycling</text>
<text text-anchor="start" x="403" y="-59.5" font-family="Helvetica,sans-Serif" font-size="10.00">+ pausing</text>
<polyline fill="none" stroke="black" points="395,-52.5 498,-52.5 "/>
<text text-anchor="start" x="403" y="-40.5" font-family="Helvetica,sans-Serif" font-size="10.00">+ on_process()</text>
<text text-anchor="start" x="403" y="-29.5" font-family="Helvetica,sans-Serif" font-size="10.00">+ on_key()</text>
</a>
</g>
</g>
<!-- Node1&#45;&gt;Node5 -->
<g id="edge4" class="edge"><title>Node1&#45;&gt;Node5</title>
<path fill="none" stroke="midnightblue" d="M331.384,-226.709C360.25,-187.038 391.615,-143.932 414.304,-112.748"/>
<polygon fill="none" stroke="midnightblue" points="328.32,-224.972 325.266,-235.117 333.98,-229.09 328.32,-224.972"/>
</g>
</g>
</svg>
