<?xml version="1.0" encoding="UTF-8" standalone="no"?>
<!DOCTYPE svg PUBLIC "-//W3C//DTD SVG 1.1//EN"
 "http://www.w3.org/Graphics/SVG/1.1/DTD/svg11.dtd">
<!-- Generated by graphviz version 2.38.0 (20140413.2041)
 -->
<!-- Title: ComPWA::Data::EvtGen::EvtGenStdRandomEngine Pages: 1 -->
<svg width="320pt" height="248pt"
 viewBox="0.00 0.00 319.50 248.00" xmlns="http://www.w3.org/2000/svg" xmlns:xlink="http://www.w3.org/1999/xlink">
<g id="graph0" class="graph" transform="scale(1 1) rotate(0) translate(4 244)">
<title>ComPWA::Data::EvtGen::EvtGenStdRandomEngine</title>
<polygon fill="white" stroke="none" points="-4,4 -4,-244 315.5,-244 315.5,4 -4,4"/>
<!-- Node1 -->
<g id="node1" class="node"><title>Node1</title>
<polygon fill="#bfbfbf" stroke="black" points="45,-0.5 45,-90.5 223,-90.5 223,-0.5 45,-0.5"/>
<text text-anchor="start" x="53" y="-78.5" font-family="Helvetica,sans-Serif" font-size="10.00">ComPWA::Data::EvtGen</text>
<text text-anchor="middle" x="134" y="-67.5" font-family="Helvetica,sans-Serif" font-size="10.00">::EvtGenStdRandomEngine</text>
<polyline fill="none" stroke="black" points="45,-60.5 223,-60.5 "/>
<text text-anchor="middle" x="134" y="-48.5" font-family="Helvetica,sans-Serif" font-size="10.00"> </text>
<polyline fill="none" stroke="black" points="45,-41.5 223,-41.5 "/>
<text text-anchor="start" x="53" y="-29.5" font-family="Helvetica,sans-Serif" font-size="10.00">+ EvtGenStdRandomEngine()</text>
<text text-anchor="start" x="53" y="-18.5" font-family="Helvetica,sans-Serif" font-size="10.00">+ setRandomNumberGenerator()</text>
<text text-anchor="start" x="53" y="-7.5" font-family="Helvetica,sans-Serif" font-size="10.00">+ random()</text>
</g>
<!-- Node2 -->
<g id="node2" class="node"><title>Node2</title>
<polygon fill="white" stroke="#bfbfbf" points="0,-160.5 0,-217.5 104,-217.5 104,-160.5 0,-160.5"/>
<text text-anchor="middle" x="52" y="-205.5" font-family="Helvetica,sans-Serif" font-size="10.00">EvtRandomEngine</text>
<polyline fill="none" stroke="#bfbfbf" points="0,-198.5 104,-198.5 "/>
<text text-anchor="middle" x="52" y="-186.5" font-family="Helvetica,sans-Serif" font-size="10.00"> </text>
<polyline fill="none" stroke="#bfbfbf" points="0,-179.5 104,-179.5 "/>
<text text-anchor="middle" x="52" y="-167.5" font-family="Helvetica,sans-Serif" font-size="10.00"> </text>
</g>
<!-- Node2&#45;&gt;Node1 -->
<g id="edge1" class="edge"><title>Node2&#45;&gt;Node1</title>
<path fill="none" stroke="midnightblue" d="M73.0737,-151.635C83.8325,-133.07 97.0099,-110.33 108.354,-90.7545"/>
<polygon fill="none" stroke="midnightblue" points="69.9908,-149.974 68.0051,-160.381 76.0474,-153.484 69.9908,-149.974"/>
</g>
<!-- Node3 -->
<g id="node3" class="node"><title>Node3</title>
<g id="a_node3"><a xlink:href="classComPWA_1_1UniformRealNumberGenerator.html" target="_top" xlink:title="{ComPWA::UniformRealNumber\lGenerator\n||+ ~UniformRealNumberGenerator()\l+ operator()()\l+ getSeed()\l+ setSeed()\l}">
<polygon fill="white" stroke="black" points="122.5,-138.5 122.5,-239.5 311.5,-239.5 311.5,-138.5 122.5,-138.5"/>
<text text-anchor="start" x="130.5" y="-227.5" font-family="Helvetica,sans-Serif" font-size="10.00">ComPWA::UniformRealNumber</text>
<text text-anchor="middle" x="217" y="-216.5" font-family="Helvetica,sans-Serif" font-size="10.00">Generator</text>
<polyline fill="none" stroke="black" points="122.5,-209.5 311.5,-209.5 "/>
<text text-anchor="middle" x="217" y="-197.5" font-family="Helvetica,sans-Serif" font-size="10.00"> </text>
<polyline fill="none" stroke="black" points="122.5,-190.5 311.5,-190.5 "/>
<text text-anchor="start" x="130.5" y="-178.5" font-family="Helvetica,sans-Serif" font-size="10.00">+ ~UniformRealNumberGenerator()</text>
<text text-anchor="start" x="130.5" y="-167.5" font-family="Helvetica,sans-Serif" font-size="10.00">+ operator()()</text>
<text text-anchor="start" x="130.5" y="-156.5" font-family="Helvetica,sans-Serif" font-size="10.00">+ getSeed()</text>
<text text-anchor="start" x="130.5" y="-145.5" font-family="Helvetica,sans-Serif" font-size="10.00">+ setSeed()</text>
</a>
</g>
</g>
<!-- Node3&#45;&gt;Node1 -->
<g id="edge2" class="edge"><title>Node3&#45;&gt;Node1</title>
<path fill="none" stroke="#404040" d="M187.737,-138.112C180.734,-126.173 173.221,-113.364 166.097,-101.22"/>
<polygon fill="none" stroke="#404040" points="166.032,-101.108 159.546,-97.9568 159.96,-90.7576 166.446,-93.9091 166.032,-101.108"/>
<text text-anchor="middle" x="223.5" y="-112" font-family="Helvetica,sans-Serif" font-size="10.00"> &#45;NumberGenerator</text>
</g>
</g>
</svg>
