<?xml version="1.0" encoding="UTF-8" standalone="no"?>
<!DOCTYPE svg PUBLIC "-//W3C//DTD SVG 1.1//EN"
 "http://www.w3.org/Graphics/SVG/1.1/DTD/svg11.dtd">
<!-- Generated by graphviz version 2.40.1 (20161225.0304)
 -->
<!-- Title: ComPWA::Estimator::MinLogLH Pages: 1 -->
<svg width="171pt" height="364pt"
 viewBox="0.00 0.00 171.00 364.00" xmlns="http://www.w3.org/2000/svg" xmlns:xlink="http://www.w3.org/1999/xlink">
<g id="graph0" class="graph" transform="scale(1 1) rotate(0) translate(4 360)">
<title>ComPWA::Estimator::MinLogLH</title>
<polygon fill="#ffffff" stroke="transparent" points="-4,4 -4,-360 167,-360 167,4 -4,4"/>
<!-- Node0 -->
<g id="node1" class="node">
<title>Node0</title>
<polygon fill="#bfbfbf" stroke="#000000" points="7,-.5 7,-123.5 156,-123.5 156,-.5 7,-.5"/>
<text text-anchor="start" x="15" y="-111.5" font-family="Helvetica,sans-Serif" font-size="10.00" fill="#000000">ComPWA::Estimator::</text>
<text text-anchor="middle" x="81.5" y="-100.5" font-family="Helvetica,sans-Serif" font-size="10.00" fill="#000000">MinLogLH</text>
<polyline fill="none" stroke="#000000" points="7,-93.5 156,-93.5 "/>
<text text-anchor="start" x="15" y="-81.5" font-family="Helvetica,sans-Serif" font-size="10.00" fill="#000000">&#45; Intensity</text>
<text text-anchor="start" x="15" y="-70.5" font-family="Helvetica,sans-Serif" font-size="10.00" fill="#000000">&#45; DataSample</text>
<text text-anchor="start" x="15" y="-59.5" font-family="Helvetica,sans-Serif" font-size="10.00" fill="#000000">&#45; PhspDataSample</text>
<polyline fill="none" stroke="#000000" points="7,-52.5 156,-52.5 "/>
<text text-anchor="start" x="15" y="-40.5" font-family="Helvetica,sans-Serif" font-size="10.00" fill="#000000">+ MinLogLH()</text>
<text text-anchor="start" x="15" y="-29.5" font-family="Helvetica,sans-Serif" font-size="10.00" fill="#000000">+ evaluate()</text>
<text text-anchor="start" x="15" y="-18.5" font-family="Helvetica,sans-Serif" font-size="10.00" fill="#000000">+ updateParametersFrom()</text>
<text text-anchor="start" x="15" y="-7.5" font-family="Helvetica,sans-Serif" font-size="10.00" fill="#000000">+ getParameters()</text>
</g>
<!-- Node1 -->
<g id="node2" class="node">
<title>Node1</title>
<g id="a_node2"><a xlink:href="classComPWA_1_1Estimator_1_1Estimator.html" target="_top" xlink:title="{ComPWA::Estimator::\lEstimator\&lt; double \&gt;\n||}">
<polygon fill="#ffffff" stroke="#000000" points="21.5,-160.5 21.5,-228.5 141.5,-228.5 141.5,-160.5 21.5,-160.5"/>
<text text-anchor="start" x="29.5" y="-216.5" font-family="Helvetica,sans-Serif" font-size="10.00" fill="#000000">ComPWA::Estimator::</text>
<text text-anchor="middle" x="81.5" y="-205.5" font-family="Helvetica,sans-Serif" font-size="10.00" fill="#000000">Estimator&lt; double &gt;</text>
<polyline fill="none" stroke="#000000" points="21.5,-198.5 141.5,-198.5 "/>
<text text-anchor="middle" x="81.5" y="-186.5" font-family="Helvetica,sans-Serif" font-size="10.00" fill="#000000"> </text>
<polyline fill="none" stroke="#000000" points="21.5,-179.5 141.5,-179.5 "/>
<text text-anchor="middle" x="81.5" y="-167.5" font-family="Helvetica,sans-Serif" font-size="10.00" fill="#000000"> </text>
</a>
</g>
</g>
<!-- Node1&#45;&gt;Node0 -->
<g id="edge1" class="edge">
<title>Node1&#45;&gt;Node0</title>
<path fill="none" stroke="#191970" d="M81.5,-150.2382C81.5,-141.6629 81.5,-132.5334 81.5,-123.5211"/>
<polygon fill="none" stroke="#191970" points="78.0001,-150.3779 81.5,-160.378 85.0001,-150.378 78.0001,-150.3779"/>
</g>
<!-- Node2 -->
<g id="node3" class="node">
<title>Node2</title>
<g id="a_node3"><a xlink:href="classComPWA_1_1Function.html" target="_top" xlink:title="{ComPWA::Function\&lt; double \&gt;\n||+ ~Function()\l+ evaluate()\l+ updateParametersFrom()\l+ getParameters()\l}">
<polygon fill="#ffffff" stroke="#000000" points="0,-265.5 0,-355.5 163,-355.5 163,-265.5 0,-265.5"/>
<text text-anchor="middle" x="81.5" y="-343.5" font-family="Helvetica,sans-Serif" font-size="10.00" fill="#000000">ComPWA::Function&lt; double &gt;</text>
<polyline fill="none" stroke="#000000" points="0,-336.5 163,-336.5 "/>
<text text-anchor="middle" x="81.5" y="-324.5" font-family="Helvetica,sans-Serif" font-size="10.00" fill="#000000"> </text>
<polyline fill="none" stroke="#000000" points="0,-317.5 163,-317.5 "/>
<text text-anchor="start" x="8" y="-305.5" font-family="Helvetica,sans-Serif" font-size="10.00" fill="#000000">+ ~Function()</text>
<text text-anchor="start" x="8" y="-294.5" font-family="Helvetica,sans-Serif" font-size="10.00" fill="#000000">+ evaluate()</text>
<text text-anchor="start" x="8" y="-283.5" font-family="Helvetica,sans-Serif" font-size="10.00" fill="#000000">+ updateParametersFrom()</text>
<text text-anchor="start" x="8" y="-272.5" font-family="Helvetica,sans-Serif" font-size="10.00" fill="#000000">+ getParameters()</text>
</a>
</g>
</g>
<!-- Node2&#45;&gt;Node1 -->
<g id="edge2" class="edge">
<title>Node2&#45;&gt;Node1</title>
<path fill="none" stroke="#191970" d="M81.5,-255.1681C81.5,-246.1024 81.5,-236.9497 81.5,-228.5982"/>
<polygon fill="none" stroke="#191970" points="78.0001,-255.3192 81.5,-265.3192 85.0001,-255.3192 78.0001,-255.3192"/>
</g>
</g>
</svg>
