<?xml version="1.0" encoding="UTF-8" standalone="no"?>
<!DOCTYPE svg PUBLIC "-//W3C//DTD SVG 1.1//EN"
 "http://www.w3.org/Graphics/SVG/1.1/DTD/svg11.dtd">
<!-- Generated by graphviz version 2.38.0 (20140413.2041)
 -->
<!-- Title: Body Pages: 1 -->
<!--zoomable 497 -->
<svg id="main" version="1.1" xmlns="http://www.w3.org/2000/svg" xmlns:xlink="http://www.w3.org/1999/xlink" xml:space="preserve" onload="init(evt)">
<style type="text/css"><![CDATA[
.edge:hover path { stroke: red; }
.edge:hover polygon { stroke: red; fill: red; }
]]></style>
<script type="text/javascript"><![CDATA[
var edges = document.getElementsByTagName('g');
if (edges && edges.length) {
  for (var i=0;i<edges.length;i++) {
    if (edges[i].id.substr(0,4)=='edge') {
      edges[i].setAttribute('class','edge');
    }
  }
}
]]></script>
        <defs>
                <circle id="rim" cx="0" cy="0" r="7"/>
                <circle id="rim2" cx="0" cy="0" r="3.5"/>
                <g id="zoomPlus">
                        <use xlink:href="#rim" fill="#404040">
                                <set attributeName="fill" to="#808080" begin="zoomplus.mouseover" end="zoomplus.mouseout"/>
                        </use>
                        <path d="M-4,0h8M0,-4v8" fill="none" stroke="white" stroke-width="1.5" pointer-events="none"/>
                </g>
                <g id="zoomMin">
                        <use xlink:href="#rim" fill="#404040">
                                <set attributeName="fill" to="#808080" begin="zoomminus.mouseover" end="zoomminus.mouseout"/>
                        </use>
                        <path d="M-4,0h8" fill="none" stroke="white" stroke-width="1.5" pointer-events="none"/>
                </g>
                <g id="dirArrow">
                        <path fill="none" stroke="white" stroke-width="1.5" d="M0,-3.0v7 M-2.5,-0.5L0,-3.0L2.5,-0.5"/>
                </g>
               <g id="resetDef">
                       <use xlink:href="#rim2" fill="#404040">
                               <set attributeName="fill" to="#808080" begin="reset.mouseover" end="reset.mouseout"/>
                       </use>
               </g>
        </defs>

<script type="text/javascript">
var viewWidth = 242;
var viewHeight = 497;
var sectionId = 'dynsection-1';
</script>
<script xlink:href="svgpan.js"/>
<svg id="graph" class="graph">
<g id="viewport">
<title>Body</title>
<polygon fill="white" stroke="none" points="-4,4 -4,-493 237.5,-493 237.5,4 -4,4"/>
<!-- Node1 -->
<g id="node1" class="node"><title>Node1</title>
<polygon fill="#bfbfbf" stroke="black" points="28,-0.5 28,-90.5 112,-90.5 112,-0.5 28,-0.5"/>
<text text-anchor="middle" x="70" y="-78.5" font-family="Helvetica,sans-Serif" font-size="10.00">Body</text>
<polyline fill="none" stroke="black" points="28,-71.5 112,-71.5 "/>
<text text-anchor="start" x="36" y="-59.5" font-family="Helvetica,sans-Serif" font-size="10.00">+ nthread</text>
<polyline fill="none" stroke="black" points="28,-52.5 112,-52.5 "/>
<text text-anchor="start" x="36" y="-40.5" font-family="Helvetica,sans-Serif" font-size="10.00">+ Body()</text>
<text text-anchor="start" x="36" y="-29.5" font-family="Helvetica,sans-Serif" font-size="10.00">+ operator()()</text>
<text text-anchor="start" x="36" y="-18.5" font-family="Helvetica,sans-Serif" font-size="10.00">+ Body()</text>
<text text-anchor="start" x="36" y="-7.5" font-family="Helvetica,sans-Serif" font-size="10.00">+ operator()()</text>
</g>
<!-- Node2 -->
<g id="node2" class="node"><title>Node2</title>
<polygon fill="white" stroke="#bfbfbf" points="0,-232 0,-289 62,-289 62,-232 0,-232"/>
<text text-anchor="middle" x="31" y="-277" font-family="Helvetica,sans-Serif" font-size="10.00">NoAssign</text>
<polyline fill="none" stroke="#bfbfbf" points="0,-270 62,-270 "/>
<text text-anchor="middle" x="31" y="-258" font-family="Helvetica,sans-Serif" font-size="10.00"> </text>
<polyline fill="none" stroke="#bfbfbf" points="0,-251 62,-251 "/>
<text text-anchor="middle" x="31" y="-239" font-family="Helvetica,sans-Serif" font-size="10.00"> </text>
</g>
<!-- Node2&#45;&gt;Node1 -->
<g id="edge1" class="edge"><title>Node2&#45;&gt;Node1</title>
<path fill="none" stroke="midnightblue" d="M37.9812,-221.372C44.6985,-184.685 54.8494,-129.246 61.9147,-90.658"/>
<polygon fill="none" stroke="midnightblue" points="34.4569,-221.187 36.0986,-231.654 41.3425,-222.448 34.4569,-221.187"/>
</g>
<!-- Node3 -->
<g id="node3" class="node"><title>Node3</title>
<g id="a_node3"><a xlink:href="classtbb_1_1concurrent__queue.html" target="_top" xlink:title="{tbb::concurrent_queue\l\&lt; Foo \&gt;\n||+ concurrent_queue()\l+ ~concurrent_queue()\l+ push()\l+ pop()\l+ push_if_not_full()\l+ pop_if_present()\l+ size()\l+ empty()\l+ capacity()\l+ set_capacity()\l+ begin()\l+ begin()\l+ end()\l+ end()\l&#45; get_ref()\l&#45; copy_item()\l&#45; assign_and_destroy_item()\l}">
<polygon fill="white" stroke="black" points="80.5,-138.5 80.5,-382.5 233.5,-382.5 233.5,-138.5 80.5,-138.5"/>
<text text-anchor="start" x="88.5" y="-370.5" font-family="Helvetica,sans-Serif" font-size="10.00">tbb::concurrent_queue</text>
<text text-anchor="middle" x="157" y="-359.5" font-family="Helvetica,sans-Serif" font-size="10.00">&lt; Foo &gt;</text>
<polyline fill="none" stroke="black" points="80.5,-352.5 233.5,-352.5 "/>
<text text-anchor="middle" x="157" y="-340.5" font-family="Helvetica,sans-Serif" font-size="10.00"> </text>
<polyline fill="none" stroke="black" points="80.5,-333.5 233.5,-333.5 "/>
<text text-anchor="start" x="88.5" y="-321.5" font-family="Helvetica,sans-Serif" font-size="10.00">+ concurrent_queue()</text>
<text text-anchor="start" x="88.5" y="-310.5" font-family="Helvetica,sans-Serif" font-size="10.00">+ ~concurrent_queue()</text>
<text text-anchor="start" x="88.5" y="-299.5" font-family="Helvetica,sans-Serif" font-size="10.00">+ push()</text>
<text text-anchor="start" x="88.5" y="-288.5" font-family="Helvetica,sans-Serif" font-size="10.00">+ pop()</text>
<text text-anchor="start" x="88.5" y="-277.5" font-family="Helvetica,sans-Serif" font-size="10.00">+ push_if_not_full()</text>
<text text-anchor="start" x="88.5" y="-266.5" font-family="Helvetica,sans-Serif" font-size="10.00">+ pop_if_present()</text>
<text text-anchor="start" x="88.5" y="-255.5" font-family="Helvetica,sans-Serif" font-size="10.00">+ size()</text>
<text text-anchor="start" x="88.5" y="-244.5" font-family="Helvetica,sans-Serif" font-size="10.00">+ empty()</text>
<text text-anchor="start" x="88.5" y="-233.5" font-family="Helvetica,sans-Serif" font-size="10.00">+ capacity()</text>
<text text-anchor="start" x="88.5" y="-222.5" font-family="Helvetica,sans-Serif" font-size="10.00">+ set_capacity()</text>
<text text-anchor="start" x="88.5" y="-211.5" font-family="Helvetica,sans-Serif" font-size="10.00">+ begin()</text>
<text text-anchor="start" x="88.5" y="-200.5" font-family="Helvetica,sans-Serif" font-size="10.00">+ begin()</text>
<text text-anchor="start" x="88.5" y="-189.5" font-family="Helvetica,sans-Serif" font-size="10.00">+ end()</text>
<text text-anchor="start" x="88.5" y="-178.5" font-family="Helvetica,sans-Serif" font-size="10.00">+ end()</text>
<text text-anchor="start" x="88.5" y="-167.5" font-family="Helvetica,sans-Serif" font-size="10.00">&#45; get_ref()</text>
<text text-anchor="start" x="88.5" y="-156.5" font-family="Helvetica,sans-Serif" font-size="10.00">&#45; copy_item()</text>
<text text-anchor="start" x="88.5" y="-145.5" font-family="Helvetica,sans-Serif" font-size="10.00">&#45; assign_and_destroy_item()</text>
</a>
</g>
</g>
<!-- Node3&#45;&gt;Node1 -->
<g id="edge2" class="edge"><title>Node3&#45;&gt;Node1</title>
<path fill="none" stroke="#404040" d="M107.527,-138.377C102.36,-125.725 97.3067,-113.354 92.6676,-101.997"/>
<polygon fill="none" stroke="#404040" points="92.5331,-101.667 86.5613,-97.6251 87.9955,-90.558 93.9673,-94.6 92.5331,-101.667"/>
<text text-anchor="middle" x="119" y="-112" font-family="Helvetica,sans-Serif" font-size="10.00"> +queue</text>
</g>
<!-- Node4 -->
<g id="node4" class="node"><title>Node4</title>
<polygon fill="white" stroke="#bfbfbf" points="102,-420.5 102,-488.5 212,-488.5 212,-420.5 102,-420.5"/>
<text text-anchor="start" x="110" y="-476.5" font-family="Helvetica,sans-Serif" font-size="10.00">internal::concurrent</text>
<text text-anchor="middle" x="157" y="-465.5" font-family="Helvetica,sans-Serif" font-size="10.00">_queue_base</text>
<polyline fill="none" stroke="#bfbfbf" points="102,-458.5 212,-458.5 "/>
<text text-anchor="middle" x="157" y="-446.5" font-family="Helvetica,sans-Serif" font-size="10.00"> </text>
<polyline fill="none" stroke="#bfbfbf" points="102,-439.5 212,-439.5 "/>
<text text-anchor="middle" x="157" y="-427.5" font-family="Helvetica,sans-Serif" font-size="10.00"> </text>
</g>
<!-- Node4&#45;&gt;Node3 -->
<g id="edge3" class="edge"><title>Node4&#45;&gt;Node3</title>
<path fill="none" stroke="midnightblue" d="M157,-410.448C157,-401.853 157,-392.433 157,-382.638"/>
<polygon fill="none" stroke="midnightblue" points="153.5,-410.494 157,-420.494 160.5,-410.494 153.5,-410.494"/>
</g>
</g>
</svg>
        <g id="navigator" transform="translate(0 0)" fill="#404254">
                <rect fill="#f2f5e9" fill-opacity="0.5" stroke="#606060" stroke-width=".5" x="0" y="0" width="60" height="60"/>
                <use id="zoomplus" xlink:href="#zoomPlus" x="17" y="9" onmousedown="handleZoom(evt,'in')"/>
                <use id="zoomminus" xlink:href="#zoomMin" x="42" y="9" onmousedown="handleZoom(evt,'out')"/>
                <use id="reset" xlink:href="#resetDef" x="30" y="36" onmousedown="handleReset()"/>
                <g id="arrowUp" xlink:href="#dirArrow" transform="translate(30 24)" onmousedown="handlePan(0,-1)">
                  <use xlink:href="#rim" fill="#404040">
                        <set attributeName="fill" to="#808080" begin="arrowUp.mouseover" end="arrowUp.mouseout"/>
                  </use>
                  <path fill="none" stroke="white" stroke-width="1.5" d="M0,-3.0v7 M-2.5,-0.5L0,-3.0L2.5,-0.5"/>
                </g>
                <g id="arrowRight" xlink:href="#dirArrow" transform="rotate(90) translate(36 -43)" onmousedown="handlePan(1,0)">
                  <use xlink:href="#rim" fill="#404040">
                        <set attributeName="fill" to="#808080" begin="arrowRight.mouseover" end="arrowRight.mouseout"/>
                  </use>
                  <path fill="none" stroke="white" stroke-width="1.5" d="M0,-3.0v7 M-2.5,-0.5L0,-3.0L2.5,-0.5"/>
                </g>
                <g id="arrowDown" xlink:href="#dirArrow" transform="rotate(180) translate(-30 -48)" onmousedown="handlePan(0,1)">
                  <use xlink:href="#rim" fill="#404040">
                        <set attributeName="fill" to="#808080" begin="arrowDown.mouseover" end="arrowDown.mouseout"/>
                  </use>
                  <path fill="none" stroke="white" stroke-width="1.5" d="M0,-3.0v7 M-2.5,-0.5L0,-3.0L2.5,-0.5"/>
                </g>
                <g id="arrowLeft" xlink:href="#dirArrow" transform="rotate(270) translate(-36 17)" onmousedown="handlePan(-1,0)">
                  <use xlink:href="#rim" fill="#404040">
                        <set attributeName="fill" to="#808080" begin="arrowLeft.mouseover" end="arrowLeft.mouseout"/>
                  </use>
                  <path fill="none" stroke="white" stroke-width="1.5" d="M0,-3.0v7 M-2.5,-0.5L0,-3.0L2.5,-0.5"/>
                </g>
        </g>
        <svg viewBox="0 0 15 15" width="100%" height="30px" preserveAspectRatio="xMaxYMin meet">
         <g id="arrow_out" transform="scale(0.3 0.3)">
          <a xlink:href="classBody__coll__graph_org.svg" target="_base">
           <rect id="button" ry="5" rx="5" y="6" x="6" height="38" width="38"
                fill="#f2f5e9" fill-opacity="0.5" stroke="#606060" stroke-width="1.0"/>
           <path id="arrow"
             d="M 11.500037,31.436501 C 11.940474,20.09759 22.043105,11.32322 32.158766,21.979434 L 37.068811,17.246167 C 37.068811,17.246167 37.088388,32 37.088388,32 L 22.160133,31.978069 C 22.160133,31.978069 26.997745,27.140456 26.997745,27.140456 C 18.528582,18.264221 13.291696,25.230495 11.500037,31.436501 z"
             style="fill:#404040;"/>
          </a>
         </g>
        </svg>
</svg>
