<?xml version="1.0" encoding="UTF-8" standalone="no"?>
<!DOCTYPE svg PUBLIC "-//W3C//DTD SVG 1.1//EN"
 "http://www.w3.org/Graphics/SVG/1.1/DTD/svg11.dtd">
<!-- Generated by graphviz version 2.38.0 (20140413.2041)
 -->
<!-- Title: tbb::spin_mutex Pages: 1 -->
<svg width="143pt" height="248pt"
 viewBox="0.00 0.00 143.00 248.00" xmlns="http://www.w3.org/2000/svg" xmlns:xlink="http://www.w3.org/1999/xlink">
<g id="graph0" class="graph" transform="scale(1 1) rotate(0) translate(4 244)">
<title>tbb::spin_mutex</title>
<polygon fill="white" stroke="none" points="-4,4 -4,-244 139,-244 139,4 -4,4"/>
<!-- Node1 -->
<g id="node1" class="node"><title>Node1</title>
<polygon fill="#bfbfbf" stroke="black" points="6.5,-0.5 6.5,-134.5 128.5,-134.5 128.5,-0.5 6.5,-0.5"/>
<text text-anchor="middle" x="67.5" y="-122.5" font-family="Helvetica,sans-Serif" font-size="10.00">tbb::spin_mutex</text>
<polyline fill="none" stroke="black" points="6.5,-115.5 128.5,-115.5 "/>
<text text-anchor="start" x="14.5" y="-103.5" font-family="Helvetica,sans-Serif" font-size="10.00">+ is_rw_mutex</text>
<text text-anchor="start" x="14.5" y="-92.5" font-family="Helvetica,sans-Serif" font-size="10.00">+ is_recursive_mutex</text>
<text text-anchor="start" x="14.5" y="-81.5" font-family="Helvetica,sans-Serif" font-size="10.00">+ is_fair_mutex</text>
<text text-anchor="start" x="14.5" y="-70.5" font-family="Helvetica,sans-Serif" font-size="10.00">&#45; flag</text>
<polyline fill="none" stroke="black" points="6.5,-63.5 128.5,-63.5 "/>
<text text-anchor="start" x="14.5" y="-51.5" font-family="Helvetica,sans-Serif" font-size="10.00">+ spin_mutex()</text>
<text text-anchor="start" x="14.5" y="-40.5" font-family="Helvetica,sans-Serif" font-size="10.00">+ internal_construct()</text>
<text text-anchor="start" x="14.5" y="-29.5" font-family="Helvetica,sans-Serif" font-size="10.00">+ lock()</text>
<text text-anchor="start" x="14.5" y="-18.5" font-family="Helvetica,sans-Serif" font-size="10.00">+ try_lock()</text>
<text text-anchor="start" x="14.5" y="-7.5" font-family="Helvetica,sans-Serif" font-size="10.00">+ unlock()</text>
</g>
<!-- Node2 -->
<g id="node2" class="node"><title>Node2</title>
<polygon fill="white" stroke="#bfbfbf" points="0,-171.5 0,-239.5 135,-239.5 135,-171.5 0,-171.5"/>
<text text-anchor="start" x="8" y="-227.5" font-family="Helvetica,sans-Serif" font-size="10.00">mutex_copy_deprecated</text>
<text text-anchor="middle" x="67.5" y="-216.5" font-family="Helvetica,sans-Serif" font-size="10.00">_and_disabled</text>
<polyline fill="none" stroke="#bfbfbf" points="0,-209.5 135,-209.5 "/>
<text text-anchor="middle" x="67.5" y="-197.5" font-family="Helvetica,sans-Serif" font-size="10.00"> </text>
<polyline fill="none" stroke="#bfbfbf" points="0,-190.5 135,-190.5 "/>
<text text-anchor="middle" x="67.5" y="-178.5" font-family="Helvetica,sans-Serif" font-size="10.00"> </text>
</g>
<!-- Node2&#45;&gt;Node1 -->
<g id="edge1" class="edge"><title>Node2&#45;&gt;Node1</title>
<path fill="none" stroke="#8b1a1a" d="M67.5,-160.956C67.5,-152.567 67.5,-143.604 67.5,-134.683"/>
<polygon fill="none" stroke="#8b1a1a" points="64.0001,-161.231 67.5,-171.231 71.0001,-161.231 64.0001,-161.231"/>
</g>
</g>
</svg>
