<?xml version="1.0" encoding="UTF-8" standalone="no"?>
<!DOCTYPE svg PUBLIC "-//W3C//DTD SVG 1.1//EN"
 "http://www.w3.org/Graphics/SVG/1.1/DTD/svg11.dtd">
<!-- Generated by graphviz version 2.38.0 (20140413.2041)
 -->
<!-- Title: rml::internal::ipc_thread_monitor Pages: 1 -->
<svg width="404pt" height="420pt"
 viewBox="0.00 0.00 403.50 420.00" xmlns="http://www.w3.org/2000/svg" xmlns:xlink="http://www.w3.org/1999/xlink">
<g id="graph0" class="graph" transform="scale(1 1) rotate(0) translate(4 416)">
<title>rml::internal::ipc_thread_monitor</title>
<polygon fill="white" stroke="none" points="-4,4 -4,-416 399.5,-416 399.5,4 -4,4"/>
<!-- Node1 -->
<g id="node1" class="node"><title>Node1</title>
<polygon fill="#bfbfbf" stroke="black" points="124,-0.5 124,-68.5 252,-68.5 252,-0.5 124,-0.5"/>
<text text-anchor="start" x="132" y="-56.5" font-family="Helvetica,sans-Serif" font-size="10.00">rml::internal::ipc</text>
<text text-anchor="middle" x="188" y="-45.5" font-family="Helvetica,sans-Serif" font-size="10.00">_thread_monitor</text>
<polyline fill="none" stroke="black" points="124,-38.5 252,-38.5 "/>
<text text-anchor="middle" x="188" y="-26.5" font-family="Helvetica,sans-Serif" font-size="10.00"> </text>
<polyline fill="none" stroke="black" points="124,-19.5 252,-19.5 "/>
<text text-anchor="start" x="132" y="-7.5" font-family="Helvetica,sans-Serif" font-size="10.00">+ ipc_thread_monitor()</text>
</g>
<!-- Node2 -->
<g id="node2" class="node"><title>Node2</title>
<g id="a_node2"><a xlink:href="classrml_1_1internal_1_1thread__monitor.html" target="_top" xlink:title="Monitor with limited two&#45;phase commit form of wait. ">
<polygon fill="white" stroke="black" points="129,-106.5 129,-262.5 247,-262.5 247,-106.5 129,-106.5"/>
<text text-anchor="start" x="137" y="-250.5" font-family="Helvetica,sans-Serif" font-size="10.00">rml::internal::thread</text>
<text text-anchor="middle" x="188" y="-239.5" font-family="Helvetica,sans-Serif" font-size="10.00">_monitor</text>
<polyline fill="none" stroke="black" points="129,-232.5 247,-232.5 "/>
<text text-anchor="start" x="137" y="-220.5" font-family="Helvetica,sans-Serif" font-size="10.00">&#45; skipped_wakeup</text>
<polyline fill="none" stroke="black" points="129,-213.5 247,-213.5 "/>
<text text-anchor="start" x="137" y="-201.5" font-family="Helvetica,sans-Serif" font-size="10.00">+ thread_monitor()</text>
<text text-anchor="start" x="137" y="-190.5" font-family="Helvetica,sans-Serif" font-size="10.00">+ ~thread_monitor()</text>
<text text-anchor="start" x="137" y="-179.5" font-family="Helvetica,sans-Serif" font-size="10.00">+ notify()</text>
<text text-anchor="start" x="137" y="-168.5" font-family="Helvetica,sans-Serif" font-size="10.00">+ prepare_wait()</text>
<text text-anchor="start" x="137" y="-157.5" font-family="Helvetica,sans-Serif" font-size="10.00">+ commit_wait()</text>
<text text-anchor="start" x="137" y="-146.5" font-family="Helvetica,sans-Serif" font-size="10.00">+ cancel_wait()</text>
<text text-anchor="start" x="137" y="-135.5" font-family="Helvetica,sans-Serif" font-size="10.00">+ yield()</text>
<text text-anchor="start" x="137" y="-124.5" font-family="Helvetica,sans-Serif" font-size="10.00">+ join()</text>
<text text-anchor="start" x="137" y="-113.5" font-family="Helvetica,sans-Serif" font-size="10.00">+ detach_thread()</text>
</a>
</g>
</g>
<!-- Node2&#45;&gt;Node1 -->
<g id="edge1" class="edge"><title>Node2&#45;&gt;Node1</title>
<path fill="none" stroke="midnightblue" d="M188,-96.2001C188,-86.4319 188,-76.9833 188,-68.5658"/>
<polygon fill="none" stroke="midnightblue" points="184.5,-96.4656 188,-106.466 191.5,-96.4656 184.5,-96.4656"/>
</g>
<!-- Node3 -->
<g id="node3" class="node"><title>Node3</title>
<g id="a_node3"><a xlink:href="structtbb_1_1atomic.html" target="_top" xlink:title="{tbb::atomic\&lt; bool \&gt;\n||+ operator=()\l+ operator=()\l}">
<polygon fill="white" stroke="red" points="0,-327 0,-395 114,-395 114,-327 0,-327"/>
<text text-anchor="middle" x="57" y="-383" font-family="Helvetica,sans-Serif" font-size="10.00">tbb::atomic&lt; bool &gt;</text>
<polyline fill="none" stroke="red" points="0,-376 114,-376 "/>
<text text-anchor="middle" x="57" y="-364" font-family="Helvetica,sans-Serif" font-size="10.00"> </text>
<polyline fill="none" stroke="red" points="0,-357 114,-357 "/>
<text text-anchor="start" x="8" y="-345" font-family="Helvetica,sans-Serif" font-size="10.00">+ operator=()</text>
<text text-anchor="start" x="8" y="-334" font-family="Helvetica,sans-Serif" font-size="10.00">+ operator=()</text>
</a>
</g>
</g>
<!-- Node3&#45;&gt;Node2 -->
<g id="edge2" class="edge"><title>Node3&#45;&gt;Node2</title>
<path fill="none" stroke="#404040" d="M81.9484,-326.767C93.6335,-311.202 108.157,-291.855 122.67,-272.523"/>
<polygon fill="none" stroke="#404040" points="122.807,-272.341 123.21,-265.142 130.011,-262.745 129.608,-269.945 122.807,-272.341"/>
<text text-anchor="middle" x="135" y="-284" font-family="Helvetica,sans-Serif" font-size="10.00"> &#45;in_wait</text>
</g>
<!-- Node4 -->
<g id="node4" class="node"><title>Node4</title>
<g id="a_node4"><a xlink:href="classrml_1_1internal_1_1thread__monitor_1_1cookie.html" target="_top" xlink:title="{rml::internal::thread\l_monitor::cookie\n||}">
<polygon fill="white" stroke="red" points="132,-327 132,-395 244,-395 244,-327 132,-327"/>
<text text-anchor="start" x="140" y="-383" font-family="Helvetica,sans-Serif" font-size="10.00">rml::internal::thread</text>
<text text-anchor="middle" x="188" y="-372" font-family="Helvetica,sans-Serif" font-size="10.00">_monitor::cookie</text>
<polyline fill="none" stroke="red" points="132,-365 244,-365 "/>
<text text-anchor="middle" x="188" y="-353" font-family="Helvetica,sans-Serif" font-size="10.00"> </text>
<polyline fill="none" stroke="red" points="132,-346 244,-346 "/>
<text text-anchor="middle" x="188" y="-334" font-family="Helvetica,sans-Serif" font-size="10.00"> </text>
</a>
</g>
</g>
<!-- Node4&#45;&gt;Node2 -->
<g id="edge3" class="edge"><title>Node4&#45;&gt;Node2</title>
<path fill="none" stroke="#404040" d="M188,-326.767C188,-311.842 188,-293.439 188,-274.907"/>
<polygon fill="none" stroke="#404040" points="188,-274.745 184,-268.745 188,-262.745 192,-268.745 188,-274.745"/>
<text text-anchor="middle" x="217" y="-284" font-family="Helvetica,sans-Serif" font-size="10.00"> &#45;my_cookie</text>
</g>
<!-- Node5 -->
<g id="node5" class="node"><title>Node5</title>
<g id="a_node5"><a xlink:href="classtbb_1_1internal_1_1binary__semaphore.html" target="_top" xlink:title="binary_semaphore for concurrent monitor ">
<polygon fill="white" stroke="red" points="262.5,-310.5 262.5,-411.5 395.5,-411.5 395.5,-310.5 262.5,-310.5"/>
<text text-anchor="start" x="270.5" y="-399.5" font-family="Helvetica,sans-Serif" font-size="10.00">tbb::internal::binary</text>
<text text-anchor="middle" x="329" y="-388.5" font-family="Helvetica,sans-Serif" font-size="10.00">_semaphore</text>
<polyline fill="none" stroke="red" points="262.5,-381.5 395.5,-381.5 "/>
<text text-anchor="start" x="270.5" y="-369.5" font-family="Helvetica,sans-Serif" font-size="10.00">&#45; my_sem</text>
<polyline fill="none" stroke="red" points="262.5,-362.5 395.5,-362.5 "/>
<text text-anchor="start" x="270.5" y="-350.5" font-family="Helvetica,sans-Serif" font-size="10.00">+ binary_semaphore()</text>
<text text-anchor="start" x="270.5" y="-339.5" font-family="Helvetica,sans-Serif" font-size="10.00">+ ~binary_semaphore()</text>
<text text-anchor="start" x="270.5" y="-328.5" font-family="Helvetica,sans-Serif" font-size="10.00">+ P()</text>
<text text-anchor="start" x="270.5" y="-317.5" font-family="Helvetica,sans-Serif" font-size="10.00">+ V()</text>
</a>
</g>
</g>
<!-- Node5&#45;&gt;Node2 -->
<g id="edge4" class="edge"><title>Node5&#45;&gt;Node2</title>
<path fill="none" stroke="#404040" d="M288.972,-310.462C278.286,-297.237 266.444,-282.581 254.739,-268.096"/>
<polygon fill="none" stroke="#404040" points="254.624,-267.953 247.741,-265.8 247.082,-258.619 253.964,-260.772 254.624,-267.953"/>
<text text-anchor="middle" x="299.5" y="-284" font-family="Helvetica,sans-Serif" font-size="10.00"> &#45;my_sema</text>
</g>
</g>
</svg>
