<?xml version="1.0" encoding="UTF-8" standalone="no"?>
<!DOCTYPE svg PUBLIC "-//W3C//DTD SVG 1.1//EN"
 "http://www.w3.org/Graphics/SVG/1.1/DTD/svg11.dtd">
<!-- Generated by graphviz version 2.38.0 (20140413.2041)
 -->
<!-- Title: tbb::flow::interface10::graph::run_and_put_task&lt; Receiver, Body &gt; Pages: 1 -->
<svg width="270pt" height="529pt"
 viewBox="0.00 0.00 269.50 529.00" xmlns="http://www.w3.org/2000/svg" xmlns:xlink="http://www.w3.org/1999/xlink">
<g id="graph0" class="graph" transform="scale(1 1) rotate(0) translate(4 525)">
<title>tbb::flow::interface10::graph::run_and_put_task&lt; Receiver, Body &gt;</title>
<polygon fill="white" stroke="none" points="-4,4 -4,-525 265.5,-525 265.5,4 -4,4"/>
<!-- Node1 -->
<g id="node1" class="node"><title>Node1</title>
<polygon fill="#bfbfbf" stroke="black" points="0,-0.5 0,-90.5 142,-90.5 142,-0.5 0,-0.5"/>
<text text-anchor="start" x="8" y="-78.5" font-family="Helvetica,sans-Serif" font-size="10.00">tbb::flow::interface10</text>
<text text-anchor="start" x="8" y="-67.5" font-family="Helvetica,sans-Serif" font-size="10.00">::graph::run_and_put_task</text>
<text text-anchor="middle" x="71" y="-56.5" font-family="Helvetica,sans-Serif" font-size="10.00">&lt; Receiver, Body &gt;</text>
<polyline fill="none" stroke="black" points="0,-49.5 142,-49.5 "/>
<text text-anchor="start" x="8" y="-37.5" font-family="Helvetica,sans-Serif" font-size="10.00">&#45; my_receiver</text>
<polyline fill="none" stroke="black" points="0,-30.5 142,-30.5 "/>
<text text-anchor="start" x="8" y="-18.5" font-family="Helvetica,sans-Serif" font-size="10.00">+ run_and_put_task()</text>
<text text-anchor="start" x="8" y="-7.5" font-family="Helvetica,sans-Serif" font-size="10.00">+ execute()</text>
</g>
<!-- Node2 -->
<g id="node2" class="node"><title>Node2</title>
<polygon fill="white" stroke="#bfbfbf" points="24.5,-155 24.5,-212 61.5,-212 61.5,-155 24.5,-155"/>
<text text-anchor="middle" x="43" y="-200" font-family="Helvetica,sans-Serif" font-size="10.00">task</text>
<polyline fill="none" stroke="#bfbfbf" points="24.5,-193 61.5,-193 "/>
<text text-anchor="middle" x="43" y="-181" font-family="Helvetica,sans-Serif" font-size="10.00"> </text>
<polyline fill="none" stroke="#bfbfbf" points="24.5,-174 61.5,-174 "/>
<text text-anchor="middle" x="43" y="-162" font-family="Helvetica,sans-Serif" font-size="10.00"> </text>
</g>
<!-- Node2&#45;&gt;Node1 -->
<g id="edge1" class="edge"><title>Node2&#45;&gt;Node1</title>
<path fill="none" stroke="midnightblue" d="M50.7313,-144.948C54.1986,-128.107 58.3125,-108.125 61.9249,-90.579"/>
<polygon fill="none" stroke="midnightblue" points="47.2547,-144.478 48.6662,-154.978 54.1109,-145.89 47.2547,-144.478"/>
</g>
<!-- Node3 -->
<g id="node3" class="node"><title>Node3</title>
<g id="a_node3"><a xlink:href="classBody.html" target="_top" xlink:title="{Body\n|+ nthread\l|+ Body()\l+ operator()()\l+ Body()\l+ operator()()\l}">
<polygon fill="white" stroke="black" points="80,-138.5 80,-228.5 164,-228.5 164,-138.5 80,-138.5"/>
<text text-anchor="middle" x="122" y="-216.5" font-family="Helvetica,sans-Serif" font-size="10.00">Body</text>
<polyline fill="none" stroke="black" points="80,-209.5 164,-209.5 "/>
<text text-anchor="start" x="88" y="-197.5" font-family="Helvetica,sans-Serif" font-size="10.00">+ nthread</text>
<polyline fill="none" stroke="black" points="80,-190.5 164,-190.5 "/>
<text text-anchor="start" x="88" y="-178.5" font-family="Helvetica,sans-Serif" font-size="10.00">+ Body()</text>
<text text-anchor="start" x="88" y="-167.5" font-family="Helvetica,sans-Serif" font-size="10.00">+ operator()()</text>
<text text-anchor="start" x="88" y="-156.5" font-family="Helvetica,sans-Serif" font-size="10.00">+ Body()</text>
<text text-anchor="start" x="88" y="-145.5" font-family="Helvetica,sans-Serif" font-size="10.00">+ operator()()</text>
</a>
</g>
</g>
<!-- Node3&#45;&gt;Node1 -->
<g id="edge2" class="edge"><title>Node3&#45;&gt;Node1</title>
<path fill="none" stroke="#404040" d="M105.442,-138.345C101.122,-126.824 96.4096,-114.259 91.8964,-102.224"/>
<polygon fill="none" stroke="#404040" points="91.8632,-102.135 86.0111,-97.9216 87.6497,-90.8992 93.5018,-95.1126 91.8632,-102.135"/>
<text text-anchor="middle" x="124.5" y="-112" font-family="Helvetica,sans-Serif" font-size="10.00"> &#45;my_body</text>
</g>
<!-- Node4 -->
<g id="node4" class="node"><title>Node4</title>
<polygon fill="white" stroke="#bfbfbf" points="28,-370 28,-427 90,-427 90,-370 28,-370"/>
<text text-anchor="middle" x="59" y="-415" font-family="Helvetica,sans-Serif" font-size="10.00">NoAssign</text>
<polyline fill="none" stroke="#bfbfbf" points="28,-408 90,-408 "/>
<text text-anchor="middle" x="59" y="-396" font-family="Helvetica,sans-Serif" font-size="10.00"> </text>
<polyline fill="none" stroke="#bfbfbf" points="28,-389 90,-389 "/>
<text text-anchor="middle" x="59" y="-377" font-family="Helvetica,sans-Serif" font-size="10.00"> </text>
</g>
<!-- Node4&#45;&gt;Node3 -->
<g id="edge3" class="edge"><title>Node4&#45;&gt;Node3</title>
<path fill="none" stroke="midnightblue" d="M70.1379,-359.843C80.9875,-323.161 97.477,-267.411 108.939,-228.658"/>
<polygon fill="none" stroke="midnightblue" points="66.7162,-359.072 67.2361,-369.654 73.4288,-361.057 66.7162,-359.072"/>
</g>
<!-- Node5 -->
<g id="node5" class="node"><title>Node5</title>
<g id="a_node5"><a xlink:href="classtbb_1_1concurrent__queue.html" target="_top" xlink:title="{tbb::concurrent_queue\l\&lt; Foo \&gt;\n||+ concurrent_queue()\l+ ~concurrent_queue()\l+ push()\l+ pop()\l+ push_if_not_full()\l+ pop_if_present()\l+ size()\l+ empty()\l+ capacity()\l+ set_capacity()\l+ begin()\l+ begin()\l+ end()\l+ end()\l&#45; get_ref()\l&#45; copy_item()\l&#45; assign_and_destroy_item()\l}">
<polygon fill="white" stroke="red" points="108.5,-276.5 108.5,-520.5 261.5,-520.5 261.5,-276.5 108.5,-276.5"/>
<text text-anchor="start" x="116.5" y="-508.5" font-family="Helvetica,sans-Serif" font-size="10.00">tbb::concurrent_queue</text>
<text text-anchor="middle" x="185" y="-497.5" font-family="Helvetica,sans-Serif" font-size="10.00">&lt; Foo &gt;</text>
<polyline fill="none" stroke="red" points="108.5,-490.5 261.5,-490.5 "/>
<text text-anchor="middle" x="185" y="-478.5" font-family="Helvetica,sans-Serif" font-size="10.00"> </text>
<polyline fill="none" stroke="red" points="108.5,-471.5 261.5,-471.5 "/>
<text text-anchor="start" x="116.5" y="-459.5" font-family="Helvetica,sans-Serif" font-size="10.00">+ concurrent_queue()</text>
<text text-anchor="start" x="116.5" y="-448.5" font-family="Helvetica,sans-Serif" font-size="10.00">+ ~concurrent_queue()</text>
<text text-anchor="start" x="116.5" y="-437.5" font-family="Helvetica,sans-Serif" font-size="10.00">+ push()</text>
<text text-anchor="start" x="116.5" y="-426.5" font-family="Helvetica,sans-Serif" font-size="10.00">+ pop()</text>
<text text-anchor="start" x="116.5" y="-415.5" font-family="Helvetica,sans-Serif" font-size="10.00">+ push_if_not_full()</text>
<text text-anchor="start" x="116.5" y="-404.5" font-family="Helvetica,sans-Serif" font-size="10.00">+ pop_if_present()</text>
<text text-anchor="start" x="116.5" y="-393.5" font-family="Helvetica,sans-Serif" font-size="10.00">+ size()</text>
<text text-anchor="start" x="116.5" y="-382.5" font-family="Helvetica,sans-Serif" font-size="10.00">+ empty()</text>
<text text-anchor="start" x="116.5" y="-371.5" font-family="Helvetica,sans-Serif" font-size="10.00">+ capacity()</text>
<text text-anchor="start" x="116.5" y="-360.5" font-family="Helvetica,sans-Serif" font-size="10.00">+ set_capacity()</text>
<text text-anchor="start" x="116.5" y="-349.5" font-family="Helvetica,sans-Serif" font-size="10.00">+ begin()</text>
<text text-anchor="start" x="116.5" y="-338.5" font-family="Helvetica,sans-Serif" font-size="10.00">+ begin()</text>
<text text-anchor="start" x="116.5" y="-327.5" font-family="Helvetica,sans-Serif" font-size="10.00">+ end()</text>
<text text-anchor="start" x="116.5" y="-316.5" font-family="Helvetica,sans-Serif" font-size="10.00">+ end()</text>
<text text-anchor="start" x="116.5" y="-305.5" font-family="Helvetica,sans-Serif" font-size="10.00">&#45; get_ref()</text>
<text text-anchor="start" x="116.5" y="-294.5" font-family="Helvetica,sans-Serif" font-size="10.00">&#45; copy_item()</text>
<text text-anchor="start" x="116.5" y="-283.5" font-family="Helvetica,sans-Serif" font-size="10.00">&#45; assign_and_destroy_item()</text>
</a>
</g>
</g>
<!-- Node5&#45;&gt;Node3 -->
<g id="edge4" class="edge"><title>Node5&#45;&gt;Node3</title>
<path fill="none" stroke="#404040" d="M149.175,-276.377C145.472,-263.858 141.851,-251.615 138.521,-240.356"/>
<polygon fill="none" stroke="#404040" points="138.435,-240.065 132.897,-235.446 135.031,-228.558 140.569,-233.177 138.435,-240.065"/>
<text text-anchor="middle" x="163" y="-250" font-family="Helvetica,sans-Serif" font-size="10.00"> +queue</text>
</g>
</g>
</svg>
