<?xml version="1.0" encoding="UTF-8" standalone="no"?>
<!DOCTYPE svg PUBLIC "-//W3C//DTD SVG 1.1//EN"
 "http://www.w3.org/Graphics/SVG/1.1/DTD/svg11.dtd">
<!-- Generated by graphviz version 2.38.0 (20140413.2041)
 -->
<!-- Title: tbb::blocked_range2d&lt; RowValue, ColValue &gt; Pages: 1 -->
<svg width="330pt" height="518pt"
 viewBox="0.00 0.00 330.00 518.00" xmlns="http://www.w3.org/2000/svg" xmlns:xlink="http://www.w3.org/1999/xlink">
<g id="graph0" class="graph" transform="scale(1 1) rotate(0) translate(4 514)">
<title>tbb::blocked_range2d&lt; RowValue, ColValue &gt;</title>
<polygon fill="white" stroke="none" points="-4,4 -4,-514 326,-514 326,4 -4,4"/>
<!-- Node1 -->
<g id="node1" class="node"><title>Node1</title>
<polygon fill="#bfbfbf" stroke="black" points="59,-0.5 59,-156.5 211,-156.5 211,-0.5 59,-0.5"/>
<text text-anchor="start" x="67" y="-144.5" font-family="Helvetica,sans-Serif" font-size="10.00">tbb::blocked_range2d</text>
<text text-anchor="middle" x="135" y="-133.5" font-family="Helvetica,sans-Serif" font-size="10.00">&lt; RowValue, ColValue &gt;</text>
<polyline fill="none" stroke="black" points="59,-126.5 211,-126.5 "/>
<text text-anchor="start" x="67" y="-114.5" font-family="Helvetica,sans-Serif" font-size="10.00">+ is_splittable_in_proportion</text>
<polyline fill="none" stroke="black" points="59,-107.5 211,-107.5 "/>
<text text-anchor="start" x="67" y="-95.5" font-family="Helvetica,sans-Serif" font-size="10.00">+ blocked_range2d()</text>
<text text-anchor="start" x="67" y="-84.5" font-family="Helvetica,sans-Serif" font-size="10.00">+ blocked_range2d()</text>
<text text-anchor="start" x="67" y="-73.5" font-family="Helvetica,sans-Serif" font-size="10.00">+ empty()</text>
<text text-anchor="start" x="67" y="-62.5" font-family="Helvetica,sans-Serif" font-size="10.00">+ is_divisible()</text>
<text text-anchor="start" x="67" y="-51.5" font-family="Helvetica,sans-Serif" font-size="10.00">+ blocked_range2d()</text>
<text text-anchor="start" x="67" y="-40.5" font-family="Helvetica,sans-Serif" font-size="10.00">+ blocked_range2d()</text>
<text text-anchor="start" x="67" y="-29.5" font-family="Helvetica,sans-Serif" font-size="10.00">+ rows()</text>
<text text-anchor="start" x="67" y="-18.5" font-family="Helvetica,sans-Serif" font-size="10.00">+ cols()</text>
<text text-anchor="start" x="67" y="-7.5" font-family="Helvetica,sans-Serif" font-size="10.00">&#45; do_split()</text>
</g>
<!-- Node2 -->
<g id="node2" class="node"><title>Node2</title>
<g id="a_node2"><a xlink:href="classtbb_1_1blocked__range.html" target="_top" xlink:title="{tbb::blocked_range\l\&lt; ColValue \&gt;\n|+ is_splittable_in_proportion\l&#45; my_end\l&#45; my_begin\l|+ blocked_range()\l+ blocked_range()\l+ blocked_range()\l+ begin()\l+ end()\l+ size()\l+ grainsize()\l+ empty()\l+ is_divisible()\l&#45; do_split()\l&#45; do_split()\l}">
<polygon fill="white" stroke="black" points="0,-204.5 0,-404.5 152,-404.5 152,-204.5 0,-204.5"/>
<text text-anchor="start" x="8" y="-392.5" font-family="Helvetica,sans-Serif" font-size="10.00">tbb::blocked_range</text>
<text text-anchor="middle" x="76" y="-381.5" font-family="Helvetica,sans-Serif" font-size="10.00">&lt; ColValue &gt;</text>
<polyline fill="none" stroke="black" points="0,-374.5 152,-374.5 "/>
<text text-anchor="start" x="8" y="-362.5" font-family="Helvetica,sans-Serif" font-size="10.00">+ is_splittable_in_proportion</text>
<text text-anchor="start" x="8" y="-351.5" font-family="Helvetica,sans-Serif" font-size="10.00">&#45; my_end</text>
<text text-anchor="start" x="8" y="-340.5" font-family="Helvetica,sans-Serif" font-size="10.00">&#45; my_begin</text>
<polyline fill="none" stroke="black" points="0,-333.5 152,-333.5 "/>
<text text-anchor="start" x="8" y="-321.5" font-family="Helvetica,sans-Serif" font-size="10.00">+ blocked_range()</text>
<text text-anchor="start" x="8" y="-310.5" font-family="Helvetica,sans-Serif" font-size="10.00">+ blocked_range()</text>
<text text-anchor="start" x="8" y="-299.5" font-family="Helvetica,sans-Serif" font-size="10.00">+ blocked_range()</text>
<text text-anchor="start" x="8" y="-288.5" font-family="Helvetica,sans-Serif" font-size="10.00">+ begin()</text>
<text text-anchor="start" x="8" y="-277.5" font-family="Helvetica,sans-Serif" font-size="10.00">+ end()</text>
<text text-anchor="start" x="8" y="-266.5" font-family="Helvetica,sans-Serif" font-size="10.00">+ size()</text>
<text text-anchor="start" x="8" y="-255.5" font-family="Helvetica,sans-Serif" font-size="10.00">+ grainsize()</text>
<text text-anchor="start" x="8" y="-244.5" font-family="Helvetica,sans-Serif" font-size="10.00">+ empty()</text>
<text text-anchor="start" x="8" y="-233.5" font-family="Helvetica,sans-Serif" font-size="10.00">+ is_divisible()</text>
<text text-anchor="start" x="8" y="-222.5" font-family="Helvetica,sans-Serif" font-size="10.00">&#45; do_split()</text>
<text text-anchor="start" x="8" y="-211.5" font-family="Helvetica,sans-Serif" font-size="10.00">&#45; do_split()</text>
</a>
</g>
</g>
<!-- Node2&#45;&gt;Node1 -->
<g id="edge1" class="edge"><title>Node2&#45;&gt;Node1</title>
<path fill="none" stroke="#404040" d="M102.136,-204.272C105.28,-192.336 108.475,-180.203 111.577,-168.427"/>
<polygon fill="none" stroke="#404040" points="111.586,-168.393 109.246,-161.572 114.643,-156.789 116.982,-163.61 111.586,-168.393"/>
<text text-anchor="middle" x="133" y="-178" font-family="Helvetica,sans-Serif" font-size="10.00"> &#45;my_cols</text>
</g>
<!-- Node3 -->
<g id="node3" class="node"><title>Node3</title>
<polygon fill="white" stroke="#bfbfbf" points="148,-452.5 148,-509.5 192,-509.5 192,-452.5 148,-452.5"/>
<text text-anchor="middle" x="170" y="-497.5" font-family="Helvetica,sans-Serif" font-size="10.00">size_t</text>
<polyline fill="none" stroke="#bfbfbf" points="148,-490.5 192,-490.5 "/>
<text text-anchor="middle" x="170" y="-478.5" font-family="Helvetica,sans-Serif" font-size="10.00"> </text>
<polyline fill="none" stroke="#bfbfbf" points="148,-471.5 192,-471.5 "/>
<text text-anchor="middle" x="170" y="-459.5" font-family="Helvetica,sans-Serif" font-size="10.00"> </text>
</g>
<!-- Node3&#45;&gt;Node2 -->
<g id="edge2" class="edge"><title>Node3&#45;&gt;Node2</title>
<path fill="none" stroke="#404040" d="M147.907,-465.69C136.93,-457.574 124.278,-446.539 116,-434 112.165,-428.191 108.681,-421.995 105.519,-415.579"/>
<polygon fill="none" stroke="#404040" points="105.489,-415.515 99.3547,-411.725 100.494,-404.604 106.629,-408.395 105.489,-415.515"/>
<text text-anchor="middle" x="151" y="-426" font-family="Helvetica,sans-Serif" font-size="10.00"> &#45;my_grainsize</text>
</g>
<!-- Node4 -->
<g id="node4" class="node"><title>Node4</title>
<g id="a_node4"><a xlink:href="classtbb_1_1blocked__range.html" target="_top" xlink:title="{tbb::blocked_range\l\&lt; RowValue \&gt;\n|+ is_splittable_in_proportion\l&#45; my_end\l&#45; my_begin\l|+ blocked_range()\l+ blocked_range()\l+ blocked_range()\l+ begin()\l+ end()\l+ size()\l+ grainsize()\l+ empty()\l+ is_divisible()\l&#45; do_split()\l&#45; do_split()\l}">
<polygon fill="white" stroke="black" points="170,-204.5 170,-404.5 322,-404.5 322,-204.5 170,-204.5"/>
<text text-anchor="start" x="178" y="-392.5" font-family="Helvetica,sans-Serif" font-size="10.00">tbb::blocked_range</text>
<text text-anchor="middle" x="246" y="-381.5" font-family="Helvetica,sans-Serif" font-size="10.00">&lt; RowValue &gt;</text>
<polyline fill="none" stroke="black" points="170,-374.5 322,-374.5 "/>
<text text-anchor="start" x="178" y="-362.5" font-family="Helvetica,sans-Serif" font-size="10.00">+ is_splittable_in_proportion</text>
<text text-anchor="start" x="178" y="-351.5" font-family="Helvetica,sans-Serif" font-size="10.00">&#45; my_end</text>
<text text-anchor="start" x="178" y="-340.5" font-family="Helvetica,sans-Serif" font-size="10.00">&#45; my_begin</text>
<polyline fill="none" stroke="black" points="170,-333.5 322,-333.5 "/>
<text text-anchor="start" x="178" y="-321.5" font-family="Helvetica,sans-Serif" font-size="10.00">+ blocked_range()</text>
<text text-anchor="start" x="178" y="-310.5" font-family="Helvetica,sans-Serif" font-size="10.00">+ blocked_range()</text>
<text text-anchor="start" x="178" y="-299.5" font-family="Helvetica,sans-Serif" font-size="10.00">+ blocked_range()</text>
<text text-anchor="start" x="178" y="-288.5" font-family="Helvetica,sans-Serif" font-size="10.00">+ begin()</text>
<text text-anchor="start" x="178" y="-277.5" font-family="Helvetica,sans-Serif" font-size="10.00">+ end()</text>
<text text-anchor="start" x="178" y="-266.5" font-family="Helvetica,sans-Serif" font-size="10.00">+ size()</text>
<text text-anchor="start" x="178" y="-255.5" font-family="Helvetica,sans-Serif" font-size="10.00">+ grainsize()</text>
<text text-anchor="start" x="178" y="-244.5" font-family="Helvetica,sans-Serif" font-size="10.00">+ empty()</text>
<text text-anchor="start" x="178" y="-233.5" font-family="Helvetica,sans-Serif" font-size="10.00">+ is_divisible()</text>
<text text-anchor="start" x="178" y="-222.5" font-family="Helvetica,sans-Serif" font-size="10.00">&#45; do_split()</text>
<text text-anchor="start" x="178" y="-211.5" font-family="Helvetica,sans-Serif" font-size="10.00">&#45; do_split()</text>
</a>
</g>
</g>
<!-- Node3&#45;&gt;Node4 -->
<g id="edge4" class="edge"><title>Node3&#45;&gt;Node4</title>
<path fill="none" stroke="#404040" d="M182.042,-452.35C186.555,-441.989 192.003,-429.48 197.792,-416.187"/>
<polygon fill="none" stroke="#404040" points="197.931,-415.869 196.66,-408.77 202.723,-404.867 203.994,-411.965 197.931,-415.869"/>
<text text-anchor="middle" x="229" y="-426" font-family="Helvetica,sans-Serif" font-size="10.00"> &#45;my_grainsize</text>
</g>
<!-- Node4&#45;&gt;Node1 -->
<g id="edge3" class="edge"><title>Node4&#45;&gt;Node1</title>
<path fill="none" stroke="#404040" d="M196.829,-204.272C190.791,-192.087 184.652,-179.698 178.702,-167.691"/>
<polygon fill="none" stroke="#404040" points="178.628,-167.541 172.379,-163.941 173.299,-156.789 179.548,-160.389 178.628,-167.541"/>
<text text-anchor="middle" x="211.5" y="-178" font-family="Helvetica,sans-Serif" font-size="10.00"> &#45;my_rows</text>
</g>
</g>
</svg>
