<?xml version="1.0" encoding="UTF-8" standalone="no"?>
<!DOCTYPE svg PUBLIC "-//W3C//DTD SVG 1.1//EN"
 "http://www.w3.org/Graphics/SVG/1.1/DTD/svg11.dtd">
<!-- Generated by graphviz version 2.38.0 (20140413.2041)
 -->
<!-- Title: /home/travis/build/ComPWA/ComPWA/ThirdParty/tbb/src/perf/coarse_grained_raii_lru_cache.h Pages: 1 -->
<svg width="619pt" height="341pt"
 viewBox="0.00 0.00 618.72 341.00" xmlns="http://www.w3.org/2000/svg" xmlns:xlink="http://www.w3.org/1999/xlink">
<g id="graph0" class="graph" transform="scale(1 1) rotate(0) translate(4 337)">
<title>/home/travis/build/ComPWA/ComPWA/ThirdParty/tbb/src/perf/coarse_grained_raii_lru_cache.h</title>
<polygon fill="white" stroke="none" points="-4,4 -4,-337 614.719,-337 614.719,4 -4,4"/>
<!-- Node1 -->
<g id="node1" class="node"><title>Node1</title>
<polygon fill="#bfbfbf" stroke="black" points="81,-280.5 81,-332.5 239,-332.5 239,-280.5 81,-280.5"/>
<text text-anchor="start" x="89" y="-320.5" font-family="Helvetica,sans-Serif" font-size="10.00">/home/travis/build</text>
<text text-anchor="start" x="89" y="-309.5" font-family="Helvetica,sans-Serif" font-size="10.00">/ComPWA/ComPWA/ThirdParty</text>
<text text-anchor="start" x="89" y="-298.5" font-family="Helvetica,sans-Serif" font-size="10.00">/tbb/src/perf/coarse_grained</text>
<text text-anchor="middle" x="160" y="-287.5" font-family="Helvetica,sans-Serif" font-size="10.00">_raii_lru_cache.h</text>
</g>
<!-- Node2 -->
<g id="node2" class="node"><title>Node2</title>
<polygon fill="white" stroke="#bfbfbf" points="0,-224.5 0,-243.5 38,-243.5 38,-224.5 0,-224.5"/>
<text text-anchor="middle" x="19" y="-231.5" font-family="Helvetica,sans-Serif" font-size="10.00">map</text>
</g>
<!-- Node1&#45;&gt;Node2 -->
<g id="edge1" class="edge"><title>Node1&#45;&gt;Node2</title>
<path fill="none" stroke="midnightblue" d="M109.892,-280.446C88.119,-269.56 63.5074,-257.254 45.391,-248.196"/>
<polygon fill="midnightblue" stroke="midnightblue" points="46.5635,-244.869 36.0539,-243.527 43.433,-251.13 46.5635,-244.869"/>
</g>
<!-- Node3 -->
<g id="node3" class="node"><title>Node3</title>
<polygon fill="white" stroke="#bfbfbf" points="56,-224.5 56,-243.5 86,-243.5 86,-224.5 56,-224.5"/>
<text text-anchor="middle" x="71" y="-231.5" font-family="Helvetica,sans-Serif" font-size="10.00">list</text>
</g>
<!-- Node1&#45;&gt;Node3 -->
<g id="edge2" class="edge"><title>Node1&#45;&gt;Node3</title>
<path fill="none" stroke="midnightblue" d="M128.371,-280.446C115.598,-270.328 101.276,-258.983 90.1376,-250.16"/>
<polygon fill="midnightblue" stroke="midnightblue" points="91.9892,-247.161 81.9773,-243.695 87.6427,-252.648 91.9892,-247.161"/>
</g>
<!-- Node4 -->
<g id="node4" class="node"><title>Node4</title>
<polygon fill="white" stroke="#bfbfbf" points="104,-224.5 104,-243.5 146,-243.5 146,-224.5 104,-224.5"/>
<text text-anchor="middle" x="125" y="-231.5" font-family="Helvetica,sans-Serif" font-size="10.00">utility</text>
</g>
<!-- Node1&#45;&gt;Node4 -->
<g id="edge3" class="edge"><title>Node1&#45;&gt;Node4</title>
<path fill="none" stroke="midnightblue" d="M147.562,-280.446C143.036,-271.329 138.016,-261.217 133.862,-252.851"/>
<polygon fill="midnightblue" stroke="midnightblue" points="136.899,-251.096 129.317,-243.695 130.629,-254.209 136.899,-251.096"/>
</g>
<!-- Node5 -->
<g id="node5" class="node"><title>Node5</title>
<polygon fill="white" stroke="#bfbfbf" points="164,-224.5 164,-243.5 226,-243.5 226,-224.5 164,-224.5"/>
<text text-anchor="middle" x="195" y="-231.5" font-family="Helvetica,sans-Serif" font-size="10.00">algorithm</text>
</g>
<!-- Node1&#45;&gt;Node5 -->
<g id="edge4" class="edge"><title>Node1&#45;&gt;Node5</title>
<path fill="none" stroke="midnightblue" d="M172.438,-280.446C176.964,-271.329 181.984,-261.217 186.138,-252.851"/>
<polygon fill="midnightblue" stroke="midnightblue" points="189.371,-254.209 190.683,-243.695 183.101,-251.096 189.371,-254.209"/>
</g>
<!-- Node6 -->
<g id="node6" class="node"><title>Node6</title>
<g id="a_node6"><a xlink:href="spin__mutex_8h.html" target="_top" xlink:title="tbb/spin_mutex.h">
<polygon fill="white" stroke="black" points="244,-224.5 244,-243.5 344,-243.5 344,-224.5 244,-224.5"/>
<text text-anchor="middle" x="294" y="-231.5" font-family="Helvetica,sans-Serif" font-size="10.00">tbb/spin_mutex.h</text>
</a>
</g>
</g>
<!-- Node1&#45;&gt;Node6 -->
<g id="edge5" class="edge"><title>Node1&#45;&gt;Node6</title>
<path fill="none" stroke="midnightblue" d="M207.621,-280.446C228.312,-269.56 251.702,-257.254 268.919,-248.196"/>
<polygon fill="midnightblue" stroke="midnightblue" points="270.572,-251.281 277.793,-243.527 267.313,-245.086 270.572,-251.281"/>
</g>
<!-- Node10 -->
<g id="node10" class="node"><title>Node10</title>
<g id="a_node10"><a xlink:href="tbb__stddef_8h.html" target="_top" xlink:title="tbb_stddef.h">
<polygon fill="white" stroke="red" points="203,-56.5 203,-75.5 279,-75.5 279,-56.5 203,-56.5"/>
<text text-anchor="middle" x="241" y="-63.5" font-family="Helvetica,sans-Serif" font-size="10.00">tbb_stddef.h</text>
</a>
</g>
</g>
<!-- Node1&#45;&gt;Node10 -->
<g id="edge17" class="edge"><title>Node1&#45;&gt;Node10</title>
<path fill="none" stroke="midnightblue" d="M239.229,-295.655C352.764,-279.736 552.85,-244.318 596,-188 676.645,-82.7439 404.348,-68.3786 289.594,-66.9054"/>
<polygon fill="midnightblue" stroke="midnightblue" points="289.357,-63.4029 279.322,-66.8027 289.287,-70.4026 289.357,-63.4029"/>
</g>
<!-- Node7 -->
<g id="node7" class="node"><title>Node7</title>
<polygon fill="white" stroke="#bfbfbf" points="130,-0.5 130,-19.5 182,-19.5 182,-0.5 130,-0.5"/>
<text text-anchor="middle" x="156" y="-7.5" font-family="Helvetica,sans-Serif" font-size="10.00">cstddef</text>
</g>
<!-- Node6&#45;&gt;Node7 -->
<g id="edge6" class="edge"><title>Node6&#45;&gt;Node7</title>
<path fill="none" stroke="midnightblue" d="M243.922,-225.286C186.702,-215.964 99.6685,-200.034 90,-188 49.6653,-137.798 110.036,-60.4739 140.355,-27.1699"/>
<polygon fill="midnightblue" stroke="midnightblue" points="143.069,-29.3921 147.336,-19.6946 137.953,-24.6143 143.069,-29.3921"/>
</g>
<!-- Node8 -->
<g id="node8" class="node"><title>Node8</title>
<polygon fill="white" stroke="#bfbfbf" points="99.5,-168.5 99.5,-187.5 134.5,-187.5 134.5,-168.5 99.5,-168.5"/>
<text text-anchor="middle" x="117" y="-175.5" font-family="Helvetica,sans-Serif" font-size="10.00">new</text>
</g>
<!-- Node6&#45;&gt;Node8 -->
<g id="edge7" class="edge"><title>Node6&#45;&gt;Node8</title>
<path fill="none" stroke="midnightblue" d="M264.602,-224.467C236.195,-216.158 191.732,-202.989 144.231,-188.004"/>
<polygon fill="midnightblue" stroke="midnightblue" points="145.284,-184.666 134.694,-184.983 143.17,-191.339 145.284,-184.666"/>
</g>
<!-- Node9 -->
<g id="node9" class="node"><title>Node9</title>
<g id="a_node9"><a xlink:href="aligned__space_8h.html" target="_top" xlink:title="aligned_space.h">
<polygon fill="white" stroke="black" points="153,-168.5 153,-187.5 247,-187.5 247,-168.5 153,-168.5"/>
<text text-anchor="middle" x="200" y="-175.5" font-family="Helvetica,sans-Serif" font-size="10.00">aligned_space.h</text>
</a>
</g>
</g>
<!-- Node6&#45;&gt;Node9 -->
<g id="edge8" class="edge"><title>Node6&#45;&gt;Node9</title>
<path fill="none" stroke="midnightblue" d="M278.897,-224.324C264.097,-215.822 241.306,-202.729 224.018,-192.797"/>
<polygon fill="midnightblue" stroke="midnightblue" points="225.48,-189.601 215.065,-187.655 221.993,-195.671 225.48,-189.601"/>
</g>
<!-- Node6&#45;&gt;Node10 -->
<g id="edge13" class="edge"><title>Node6&#45;&gt;Node10</title>
<path fill="none" stroke="midnightblue" d="M296.379,-224.26C301.518,-203.583 311.822,-150.51 294,-112 288.08,-99.2072 276.532,-88.7216 265.722,-81.1003"/>
<polygon fill="midnightblue" stroke="midnightblue" points="267.618,-78.1581 257.334,-75.613 263.786,-84.0161 267.618,-78.1581"/>
</g>
<!-- Node11 -->
<g id="node11" class="node"><title>Node11</title>
<g id="a_node11"><a xlink:href="tbb__machine_8h.html" target="_top" xlink:title="tbb_machine.h">
<polygon fill="white" stroke="black" points="197,-112.5 197,-131.5 285,-131.5 285,-112.5 197,-112.5"/>
<text text-anchor="middle" x="241" y="-119.5" font-family="Helvetica,sans-Serif" font-size="10.00">tbb_machine.h</text>
</a>
</g>
</g>
<!-- Node6&#45;&gt;Node11 -->
<g id="edge14" class="edge"><title>Node6&#45;&gt;Node11</title>
<path fill="none" stroke="midnightblue" d="M289.841,-224.368C281.172,-206.376 261.02,-164.55 249.493,-140.627"/>
<polygon fill="midnightblue" stroke="midnightblue" points="252.633,-139.081 245.14,-131.591 246.327,-142.119 252.633,-139.081"/>
</g>
<!-- Node12 -->
<g id="node12" class="node"><title>Node12</title>
<g id="a_node12"><a xlink:href="tbb__profiling_8h.html" target="_top" xlink:title="tbb_profiling.h">
<polygon fill="white" stroke="red" points="341,-168.5 341,-187.5 425,-187.5 425,-168.5 341,-168.5"/>
<text text-anchor="middle" x="383" y="-175.5" font-family="Helvetica,sans-Serif" font-size="10.00">tbb_profiling.h</text>
</a>
</g>
</g>
<!-- Node6&#45;&gt;Node12 -->
<g id="edge15" class="edge"><title>Node6&#45;&gt;Node12</title>
<path fill="none" stroke="midnightblue" d="M308.299,-224.324C322.183,-215.9 343.492,-202.971 359.804,-193.074"/>
<polygon fill="midnightblue" stroke="midnightblue" points="362.002,-195.834 368.736,-187.655 358.371,-189.85 362.002,-195.834"/>
</g>
<!-- Node13 -->
<g id="node13" class="node"><title>Node13</title>
<g id="a_node13"><a xlink:href="__mutex__padding_8h.html" target="_top" xlink:title="internal/_mutex_padding.h">
<polygon fill="white" stroke="black" points="443,-168.5 443,-187.5 587,-187.5 587,-168.5 443,-168.5"/>
<text text-anchor="middle" x="515" y="-175.5" font-family="Helvetica,sans-Serif" font-size="10.00">internal/_mutex_padding.h</text>
</a>
</g>
</g>
<!-- Node6&#45;&gt;Node13 -->
<g id="edge16" class="edge"><title>Node6&#45;&gt;Node13</title>
<path fill="none" stroke="midnightblue" d="M329.018,-224.444C367.248,-215.102 428.567,-200.119 470.257,-189.933"/>
<polygon fill="midnightblue" stroke="midnightblue" points="471.262,-193.29 480.146,-187.516 469.601,-186.49 471.262,-193.29"/>
</g>
<!-- Node9&#45;&gt;Node10 -->
<g id="edge9" class="edge"><title>Node9&#45;&gt;Node10</title>
<path fill="none" stroke="midnightblue" d="M195.161,-168.172C188.782,-155.265 179.325,-130.746 188,-112 193.92,-99.2072 205.468,-88.7216 216.278,-81.1003"/>
<polygon fill="midnightblue" stroke="midnightblue" points="218.214,-84.0161 224.666,-75.613 214.382,-78.1581 218.214,-84.0161"/>
</g>
<!-- Node9&#45;&gt;Node11 -->
<g id="edge11" class="edge"><title>Node9&#45;&gt;Node11</title>
<path fill="none" stroke="midnightblue" d="M206.77,-168.083C212.562,-160.455 221.058,-149.264 228.138,-139.941"/>
<polygon fill="midnightblue" stroke="midnightblue" points="231.096,-141.832 234.356,-131.751 225.521,-137.599 231.096,-141.832"/>
</g>
<!-- Node10&#45;&gt;Node7 -->
<g id="edge10" class="edge"><title>Node10&#45;&gt;Node7</title>
<path fill="none" stroke="midnightblue" d="M227.343,-56.324C214.084,-47.9002 193.732,-34.9709 178.154,-25.0741"/>
<polygon fill="midnightblue" stroke="midnightblue" points="179.94,-22.0626 169.623,-19.6545 176.187,-27.9711 179.94,-22.0626"/>
</g>
<!-- Node11&#45;&gt;Node10 -->
<g id="edge12" class="edge"><title>Node11&#45;&gt;Node10</title>
<path fill="none" stroke="midnightblue" d="M241,-112.083C241,-105.006 241,-94.8611 241,-85.9865"/>
<polygon fill="midnightblue" stroke="midnightblue" points="244.5,-85.751 241,-75.7511 237.5,-85.7511 244.5,-85.751"/>
</g>
</g>
</svg>
