<?xml version="1.0" encoding="UTF-8" standalone="no"?>
<!DOCTYPE svg PUBLIC "-//W3C//DTD SVG 1.1//EN"
 "http://www.w3.org/Graphics/SVG/1.1/DTD/svg11.dtd">
<!-- Generated by graphviz version 2.38.0 (20140413.2041)
 -->
<!-- Title: /home/travis/build/ComPWA/ComPWA/ThirdParty/tbb/examples/parallel_reduce/convex_hull/convex_hull.h Pages: 1 -->
<!--zoomable 184 -->
<svg id="main" version="1.1" xmlns="http://www.w3.org/2000/svg" xmlns:xlink="http://www.w3.org/1999/xlink" xml:space="preserve" onload="init(evt)">
<style type="text/css"><![CDATA[
.edge:hover path { stroke: red; }
.edge:hover polygon { stroke: red; fill: red; }
]]></style>
<script type="text/javascript"><![CDATA[
var edges = document.getElementsByTagName('g');
if (edges && edges.length) {
  for (var i=0;i<edges.length;i++) {
    if (edges[i].id.substr(0,4)=='edge') {
      edges[i].setAttribute('class','edge');
    }
  }
}
]]></script>
        <defs>
                <circle id="rim" cx="0" cy="0" r="7"/>
                <circle id="rim2" cx="0" cy="0" r="3.5"/>
                <g id="zoomPlus">
                        <use xlink:href="#rim" fill="#404040">
                                <set attributeName="fill" to="#808080" begin="zoomplus.mouseover" end="zoomplus.mouseout"/>
                        </use>
                        <path d="M-4,0h8M0,-4v8" fill="none" stroke="white" stroke-width="1.5" pointer-events="none"/>
                </g>
                <g id="zoomMin">
                        <use xlink:href="#rim" fill="#404040">
                                <set attributeName="fill" to="#808080" begin="zoomminus.mouseover" end="zoomminus.mouseout"/>
                        </use>
                        <path d="M-4,0h8" fill="none" stroke="white" stroke-width="1.5" pointer-events="none"/>
                </g>
                <g id="dirArrow">
                        <path fill="none" stroke="white" stroke-width="1.5" d="M0,-3.0v7 M-2.5,-0.5L0,-3.0L2.5,-0.5"/>
                </g>
               <g id="resetDef">
                       <use xlink:href="#rim2" fill="#404040">
                               <set attributeName="fill" to="#808080" begin="reset.mouseover" end="reset.mouseout"/>
                       </use>
               </g>
        </defs>

<script type="text/javascript">
var viewWidth = 1247;
var viewHeight = 184;
var sectionId = 'dynsection-0';
</script>
<script xlink:href="svgpan.js"/>
<svg id="graph" class="graph">
<g id="viewport">
<title>/home/travis/build/ComPWA/ComPWA/ThirdParty/tbb/examples/parallel_reduce/convex_hull/convex_hull.h</title>
<polygon fill="white" stroke="none" points="-4,4 -4,-180 1243,-180 1243,4 -4,4"/>
<!-- Node1 -->
<g id="node1" class="node"><title>Node1</title>
<polygon fill="#bfbfbf" stroke="black" points="413.5,-123.5 413.5,-175.5 574.5,-175.5 574.5,-123.5 413.5,-123.5"/>
<text text-anchor="start" x="421.5" y="-163.5" font-family="Helvetica,sans-Serif" font-size="10.00">/home/travis/build</text>
<text text-anchor="start" x="421.5" y="-152.5" font-family="Helvetica,sans-Serif" font-size="10.00">/ComPWA/ComPWA/ThirdParty</text>
<text text-anchor="start" x="421.5" y="-141.5" font-family="Helvetica,sans-Serif" font-size="10.00">/tbb/examples/parallel_reduce</text>
<text text-anchor="middle" x="494" y="-130.5" font-family="Helvetica,sans-Serif" font-size="10.00">/convex_hull/convex_hull.h</text>
</g>
<!-- Node2 -->
<g id="node2" class="node"><title>Node2</title>
<polygon fill="white" stroke="#bfbfbf" points="0,-0.5 0,-19.5 52,-19.5 52,-0.5 0,-0.5"/>
<text text-anchor="middle" x="26" y="-7.5" font-family="Helvetica,sans-Serif" font-size="10.00">cassert</text>
</g>
<!-- Node1&#45;&gt;Node2 -->
<g id="edge1" class="edge"><title>Node1&#45;&gt;Node2</title>
<path fill="none" stroke="midnightblue" d="M413.375,-139.973C346.745,-131.333 250.387,-115.129 170,-87 124.174,-70.9646 75.022,-42.2375 47.6334,-25.066"/>
<polygon fill="midnightblue" stroke="midnightblue" points="49.212,-21.9223 38.8945,-19.5139 45.4582,-27.8307 49.212,-21.9223"/>
</g>
<!-- Node3 -->
<g id="node3" class="node"><title>Node3</title>
<polygon fill="white" stroke="#bfbfbf" points="70.5,-0.5 70.5,-19.5 117.5,-19.5 117.5,-0.5 70.5,-0.5"/>
<text text-anchor="middle" x="94" y="-7.5" font-family="Helvetica,sans-Serif" font-size="10.00">cstdlib</text>
</g>
<!-- Node1&#45;&gt;Node3 -->
<g id="edge2" class="edge"><title>Node1&#45;&gt;Node3</title>
<path fill="none" stroke="midnightblue" d="M413.229,-134.316C362.305,-124.087 295.692,-108.32 239,-87 193.349,-69.8318 143.747,-41.5311 116.003,-24.7366"/>
<polygon fill="midnightblue" stroke="midnightblue" points="117.826,-21.7489 107.47,-19.5149 114.173,-27.7198 117.826,-21.7489"/>
</g>
<!-- Node4 -->
<g id="node4" class="node"><title>Node4</title>
<polygon fill="white" stroke="#bfbfbf" points="135.5,-0.5 135.5,-19.5 194.5,-19.5 194.5,-0.5 135.5,-0.5"/>
<text text-anchor="middle" x="165" y="-7.5" font-family="Helvetica,sans-Serif" font-size="10.00">iostream</text>
</g>
<!-- Node1&#45;&gt;Node4 -->
<g id="edge3" class="edge"><title>Node1&#45;&gt;Node4</title>
<path fill="none" stroke="midnightblue" d="M413.26,-125.789C379.309,-115.33 339.713,-101.921 305,-87 262.043,-68.5353 214.764,-41.3121 187.608,-24.9522"/>
<polygon fill="midnightblue" stroke="midnightblue" points="189.245,-21.8516 178.881,-19.6507 185.61,-27.8341 189.245,-21.8516"/>
</g>
<!-- Node5 -->
<g id="node5" class="node"><title>Node5</title>
<polygon fill="white" stroke="#bfbfbf" points="603.5,-62 603.5,-81 658.5,-81 658.5,-62 603.5,-62"/>
<text text-anchor="middle" x="631" y="-69" font-family="Helvetica,sans-Serif" font-size="10.00">iomanip</text>
</g>
<!-- Node1&#45;&gt;Node5 -->
<g id="edge4" class="edge"><title>Node1&#45;&gt;Node5</title>
<path fill="none" stroke="midnightblue" d="M539.239,-123.404C561.775,-110.902 588.122,-96.2861 606.789,-85.9308"/>
<polygon fill="midnightblue" stroke="midnightblue" points="608.49,-88.9896 615.537,-81.0779 605.095,-82.8684 608.49,-88.9896"/>
</g>
<!-- Node6 -->
<g id="node6" class="node"><title>Node6</title>
<polygon fill="white" stroke="#bfbfbf" points="213,-0.5 213,-19.5 269,-19.5 269,-0.5 213,-0.5"/>
<text text-anchor="middle" x="241" y="-7.5" font-family="Helvetica,sans-Serif" font-size="10.00">sstream</text>
</g>
<!-- Node1&#45;&gt;Node6 -->
<g id="edge5" class="edge"><title>Node1&#45;&gt;Node6</title>
<path fill="none" stroke="midnightblue" d="M433.464,-123.473C409.559,-112.987 382.1,-100.178 358,-87 322.728,-67.7134 284.014,-41.4906 261.147,-25.4317"/>
<polygon fill="midnightblue" stroke="midnightblue" points="263.108,-22.532 252.923,-19.6139 259.065,-28.2466 263.108,-22.532"/>
</g>
<!-- Node7 -->
<g id="node7" class="node"><title>Node7</title>
<polygon fill="white" stroke="#bfbfbf" points="287.5,-0.5 287.5,-19.5 334.5,-19.5 334.5,-0.5 287.5,-0.5"/>
<text text-anchor="middle" x="311" y="-7.5" font-family="Helvetica,sans-Serif" font-size="10.00">vector</text>
</g>
<!-- Node1&#45;&gt;Node7 -->
<g id="edge6" class="edge"><title>Node1&#45;&gt;Node7</title>
<path fill="none" stroke="midnightblue" d="M451.984,-123.469C434.854,-112.783 415.097,-99.8327 398,-87 372.361,-67.7555 344.822,-42.9136 327.75,-26.9669"/>
<polygon fill="midnightblue" stroke="midnightblue" points="329.944,-24.2252 320.265,-19.9166 325.145,-29.3208 329.944,-24.2252"/>
</g>
<!-- Node8 -->
<g id="node8" class="node"><title>Node8</title>
<polygon fill="white" stroke="#bfbfbf" points="353,-0.5 353,-19.5 397,-19.5 397,-0.5 353,-0.5"/>
<text text-anchor="middle" x="375" y="-7.5" font-family="Helvetica,sans-Serif" font-size="10.00">string</text>
</g>
<!-- Node1&#45;&gt;Node8 -->
<g id="edge7" class="edge"><title>Node1&#45;&gt;Node8</title>
<path fill="none" stroke="midnightblue" d="M461.595,-123.279C449.12,-112.766 435.194,-99.9894 424,-87 408.044,-68.4853 393.373,-44.3815 384.325,-28.3343"/>
<polygon fill="midnightblue" stroke="midnightblue" points="387.35,-26.5727 379.457,-19.5058 381.221,-29.9528 387.35,-26.5727"/>
</g>
<!-- Node9 -->
<g id="node9" class="node"><title>Node9</title>
<polygon fill="white" stroke="#bfbfbf" points="415.5,-0.5 415.5,-19.5 464.5,-19.5 464.5,-0.5 415.5,-0.5"/>
<text text-anchor="middle" x="440" y="-7.5" font-family="Helvetica,sans-Serif" font-size="10.00">cstring</text>
</g>
<!-- Node1&#45;&gt;Node9 -->
<g id="edge8" class="edge"><title>Node1&#45;&gt;Node9</title>
<path fill="none" stroke="midnightblue" d="M459.485,-123.412C448.566,-113.441 437.83,-100.995 432,-87 424.29,-68.4915 428.471,-45.35 433.19,-29.4955"/>
<polygon fill="midnightblue" stroke="midnightblue" points="436.57,-30.4235 436.404,-19.83 429.927,-28.2148 436.57,-30.4235"/>
</g>
<!-- Node10 -->
<g id="node10" class="node"><title>Node10</title>
<polygon fill="white" stroke="#bfbfbf" points="881,-0.5 881,-19.5 943,-19.5 943,-0.5 881,-0.5"/>
<text text-anchor="middle" x="912" y="-7.5" font-family="Helvetica,sans-Serif" font-size="10.00">algorithm</text>
</g>
<!-- Node1&#45;&gt;Node10 -->
<g id="edge9" class="edge"><title>Node1&#45;&gt;Node10</title>
<path fill="none" stroke="midnightblue" d="M519.575,-123.312C546.176,-97.3656 585.164,-60.1342 594,-56 703.871,-4.59414 747.028,-39.7309 870.409,-20.0711"/>
<polygon fill="midnightblue" stroke="midnightblue" points="871.334,-23.4647 880.613,-18.3505 870.17,-16.5621 871.334,-23.4647"/>
</g>
<!-- Node11 -->
<g id="node11" class="node"><title>Node11</title>
<polygon fill="white" stroke="#bfbfbf" points="676.5,-62 676.5,-81 739.5,-81 739.5,-62 676.5,-62"/>
<text text-anchor="middle" x="708" y="-69" font-family="Helvetica,sans-Serif" font-size="10.00">functional</text>
</g>
<!-- Node1&#45;&gt;Node11 -->
<g id="edge10" class="edge"><title>Node1&#45;&gt;Node11</title>
<path fill="none" stroke="midnightblue" d="M564.665,-123.404C601.474,-110.331 644.794,-94.9468 674.099,-84.5396"/>
<polygon fill="midnightblue" stroke="midnightblue" points="675.594,-87.7228 683.846,-81.0779 673.252,-81.1264 675.594,-87.7228"/>
</g>
<!-- Node12 -->
<g id="node12" class="node"><title>Node12</title>
<polygon fill="white" stroke="#bfbfbf" points="757.5,-62 757.5,-81 804.5,-81 804.5,-62 757.5,-62"/>
<text text-anchor="middle" x="781" y="-69" font-family="Helvetica,sans-Serif" font-size="10.00">climits</text>
</g>
<!-- Node1&#45;&gt;Node12 -->
<g id="edge11" class="edge"><title>Node1&#45;&gt;Node12</title>
<path fill="none" stroke="midnightblue" d="M574.54,-132.804C625.004,-122.039 691.045,-106.24 748,-87 749.868,-86.3691 751.775,-85.674 753.685,-84.9399"/>
<polygon fill="midnightblue" stroke="midnightblue" points="755.165,-88.1153 763.072,-81.0627 752.493,-81.6454 755.165,-88.1153"/>
</g>
<!-- Node13 -->
<g id="node13" class="node"><title>Node13</title>
<g id="a_node13"><a xlink:href="tick__count_8h.html" target="_top" xlink:title="tbb/tick_count.h">
<polygon fill="white" stroke="black" points="1022.5,-62 1022.5,-81 1115.5,-81 1115.5,-62 1022.5,-62"/>
<text text-anchor="middle" x="1069" y="-69" font-family="Helvetica,sans-Serif" font-size="10.00">tbb/tick_count.h</text>
</a>
</g>
</g>
<!-- Node1&#45;&gt;Node13 -->
<g id="edge12" class="edge"><title>Node1&#45;&gt;Node13</title>
<path fill="none" stroke="midnightblue" d="M574.531,-142.361C677.003,-133.771 859.173,-115.892 1013,-87 1018.37,-85.992 1023.98,-84.758 1029.49,-83.4396"/>
<polygon fill="midnightblue" stroke="midnightblue" points="1030.38,-86.8256 1039.23,-81.0056 1028.68,-80.0344 1030.38,-86.8256"/>
</g>
<!-- Node16 -->
<g id="node16" class="node"><title>Node16</title>
<g id="a_node16"><a xlink:href="task__scheduler__init_8h.html" target="_top" xlink:title="tbb/task_scheduler\l_init.h">
<polygon fill="white" stroke="black" points="897.5,-56.5 897.5,-86.5 1004.5,-86.5 1004.5,-56.5 897.5,-56.5"/>
<text text-anchor="start" x="905.5" y="-74.5" font-family="Helvetica,sans-Serif" font-size="10.00">tbb/task_scheduler</text>
<text text-anchor="middle" x="951" y="-63.5" font-family="Helvetica,sans-Serif" font-size="10.00">_init.h</text>
</a>
</g>
</g>
<!-- Node1&#45;&gt;Node16 -->
<g id="edge15" class="edge"><title>Node1&#45;&gt;Node16</title>
<path fill="none" stroke="midnightblue" d="M574.65,-135.088C663.819,-120.259 805.629,-96.6755 887.333,-83.0879"/>
<polygon fill="midnightblue" stroke="midnightblue" points="887.945,-86.5344 897.235,-81.4412 886.796,-79.6292 887.945,-86.5344"/>
</g>
<!-- Node18 -->
<g id="node18" class="node"><title>Node18</title>
<g id="a_node18"><a xlink:href="utility_8h.html" target="_top" xlink:title="../../common/utility\l/utility.h">
<polygon fill="white" stroke="black" points="441,-56.5 441,-86.5 547,-86.5 547,-56.5 441,-56.5"/>
<text text-anchor="start" x="449" y="-74.5" font-family="Helvetica,sans-Serif" font-size="10.00">../../common/utility</text>
<text text-anchor="middle" x="494" y="-63.5" font-family="Helvetica,sans-Serif" font-size="10.00">/utility.h</text>
</a>
</g>
</g>
<!-- Node1&#45;&gt;Node18 -->
<g id="edge18" class="edge"><title>Node1&#45;&gt;Node18</title>
<path fill="none" stroke="midnightblue" d="M494,-123.193C494,-114.786 494,-105.443 494,-97.0914"/>
<polygon fill="midnightblue" stroke="midnightblue" points="497.5,-96.8452 494,-86.8453 490.5,-96.8453 497.5,-96.8452"/>
</g>
<!-- Node25 -->
<g id="node25" class="node"><title>Node25</title>
<g id="a_node25"><a xlink:href="fast__random_8h.html" target="_top" xlink:title="../../common/utility\l/fast_random.h">
<polygon fill="white" stroke="black" points="1133,-56.5 1133,-86.5 1239,-86.5 1239,-56.5 1133,-56.5"/>
<text text-anchor="start" x="1141" y="-74.5" font-family="Helvetica,sans-Serif" font-size="10.00">../../common/utility</text>
<text text-anchor="middle" x="1186" y="-63.5" font-family="Helvetica,sans-Serif" font-size="10.00">/fast_random.h</text>
</a>
</g>
</g>
<!-- Node1&#45;&gt;Node25 -->
<g id="edge33" class="edge"><title>Node1&#45;&gt;Node25</title>
<path fill="none" stroke="midnightblue" d="M574.5,-144.065C692.782,-136.789 920.526,-119.893 1123.06,-87.0121"/>
<polygon fill="midnightblue" stroke="midnightblue" points="1123.69,-90.4559 1132.99,-85.3837 1122.56,-83.5482 1123.69,-90.4559"/>
</g>
<!-- Node14 -->
<g id="node14" class="node"><title>Node14</title>
<g id="a_node14"><a xlink:href="tbb__stddef_8h.html" target="_top" xlink:title="tbb_stddef.h">
<polygon fill="white" stroke="red" points="1031,-0.5 1031,-19.5 1107,-19.5 1107,-0.5 1031,-0.5"/>
<text text-anchor="middle" x="1069" y="-7.5" font-family="Helvetica,sans-Serif" font-size="10.00">tbb_stddef.h</text>
</a>
</g>
</g>
<!-- Node13&#45;&gt;Node14 -->
<g id="edge13" class="edge"><title>Node13&#45;&gt;Node14</title>
<path fill="none" stroke="midnightblue" d="M1069,-61.9751C1069,-53.5803 1069,-40.4806 1069,-29.6631"/>
<polygon fill="midnightblue" stroke="midnightblue" points="1072.5,-29.5091 1069,-19.5091 1065.5,-29.5091 1072.5,-29.5091"/>
</g>
<!-- Node15 -->
<g id="node15" class="node"><title>Node15</title>
<polygon fill="white" stroke="#bfbfbf" points="1125,-0.5 1125,-19.5 1191,-19.5 1191,-0.5 1125,-0.5"/>
<text text-anchor="middle" x="1158" y="-7.5" font-family="Helvetica,sans-Serif" font-size="10.00">sys/time.h</text>
</g>
<!-- Node13&#45;&gt;Node15 -->
<g id="edge14" class="edge"><title>Node13&#45;&gt;Node15</title>
<path fill="none" stroke="midnightblue" d="M1081.75,-61.9751C1096.03,-52.4315 1119.4,-36.8073 1136.51,-25.3683"/>
<polygon fill="midnightblue" stroke="midnightblue" points="1138.9,-27.9766 1145.27,-19.5091 1135.01,-22.1572 1138.9,-27.9766"/>
</g>
<!-- Node16&#45;&gt;Node14 -->
<g id="edge16" class="edge"><title>Node16&#45;&gt;Node14</title>
<path fill="none" stroke="midnightblue" d="M978.964,-56.3993C998.321,-46.6391 1023.91,-33.7373 1042.86,-24.1826"/>
<polygon fill="midnightblue" stroke="midnightblue" points="1044.48,-27.2854 1051.83,-19.6578 1041.33,-21.035 1044.48,-27.2854"/>
</g>
<!-- Node17 -->
<g id="node17" class="node"><title>Node17</title>
<polygon fill="white" stroke="#bfbfbf" points="961.5,-0.5 961.5,-19.5 1012.5,-19.5 1012.5,-0.5 961.5,-0.5"/>
<text text-anchor="middle" x="987" y="-7.5" font-family="Helvetica,sans-Serif" font-size="10.00">limits.h</text>
</g>
<!-- Node16&#45;&gt;Node17 -->
<g id="edge17" class="edge"><title>Node16&#45;&gt;Node17</title>
<path fill="none" stroke="midnightblue" d="M959.531,-56.3993C964.601,-48.0207 971.071,-37.3269 976.458,-28.4229"/>
<polygon fill="midnightblue" stroke="midnightblue" points="979.58,-30.0255 981.762,-19.6578 973.59,-26.4018 979.58,-30.0255"/>
</g>
<!-- Node18&#45;&gt;Node2 -->
<g id="edge30" class="edge"><title>Node18&#45;&gt;Node2</title>
<path fill="none" stroke="midnightblue" d="M440.998,-66.6479C360.952,-60.3198 204.354,-45.9515 62.4764,-20.052"/>
<polygon fill="midnightblue" stroke="midnightblue" points="62.7578,-16.5448 52.2879,-18.1673 61.4844,-23.428 62.7578,-16.5448"/>
</g>
<!-- Node18&#45;&gt;Node3 -->
<g id="edge32" class="edge"><title>Node18&#45;&gt;Node3</title>
<path fill="none" stroke="midnightblue" d="M440.895,-65.5342C370.975,-58.4834 244.134,-43.9263 127.488,-20.084"/>
<polygon fill="midnightblue" stroke="midnightblue" points="128.178,-16.6528 117.676,-18.0512 126.758,-23.5072 128.178,-16.6528"/>
</g>
<!-- Node18&#45;&gt;Node4 -->
<g id="edge31" class="edge"><title>Node18&#45;&gt;Node4</title>
<path fill="none" stroke="midnightblue" d="M440.92,-62.146C384.751,-53.1064 293.304,-37.8236 204.722,-20.0551"/>
<polygon fill="midnightblue" stroke="midnightblue" points="205.269,-16.595 194.774,-18.0465 203.884,-23.4565 205.269,-16.595"/>
</g>
<!-- Node18&#45;&gt;Node6 -->
<g id="edge26" class="edge"><title>Node18&#45;&gt;Node6</title>
<path fill="none" stroke="midnightblue" d="M440.709,-58.1804C399.193,-48.5511 339.843,-34.7159 279.043,-20.2345"/>
<polygon fill="midnightblue" stroke="midnightblue" points="279.815,-16.8204 269.275,-17.9053 278.191,-23.6295 279.815,-16.8204"/>
</g>
<!-- Node18&#45;&gt;Node7 -->
<g id="edge22" class="edge"><title>Node18&#45;&gt;Node7</title>
<path fill="none" stroke="midnightblue" d="M450.632,-56.3993C418.06,-45.8092 374.114,-31.5206 344.285,-21.8221"/>
<polygon fill="midnightblue" stroke="midnightblue" points="345.339,-18.4845 334.747,-18.7209 343.174,-25.1415 345.339,-18.4845"/>
</g>
<!-- Node18&#45;&gt;Node8 -->
<g id="edge20" class="edge"><title>Node18&#45;&gt;Node8</title>
<path fill="none" stroke="midnightblue" d="M465.799,-56.3993C446.278,-46.6391 420.475,-33.7373 401.365,-24.1826"/>
<polygon fill="midnightblue" stroke="midnightblue" points="402.825,-20.9995 392.316,-19.6578 399.695,-27.2605 402.825,-20.9995"/>
</g>
<!-- Node18&#45;&gt;Node9 -->
<g id="edge21" class="edge"><title>Node18&#45;&gt;Node9</title>
<path fill="none" stroke="midnightblue" d="M481.203,-56.3993C473.275,-47.6641 463.064,-36.4126 454.79,-27.2962"/>
<polygon fill="midnightblue" stroke="midnightblue" points="457.17,-24.7106 447.857,-19.6578 451.986,-29.415 457.17,-24.7106"/>
</g>
<!-- Node18&#45;&gt;Node10 -->
<g id="edge25" class="edge"><title>Node18&#45;&gt;Node10</title>
<path fill="none" stroke="midnightblue" d="M547.303,-58.4717C551.925,-57.5784 556.538,-56.7392 561,-56 695.057,-33.7897 733.052,-42.8518 870.545,-20.086"/>
<polygon fill="midnightblue" stroke="midnightblue" points="871.339,-23.5018 880.62,-18.391 870.177,-16.5988 871.339,-23.5018"/>
</g>
<!-- Node19 -->
<g id="node19" class="node"><title>Node19</title>
<polygon fill="white" stroke="#bfbfbf" points="715,-0.5 715,-19.5 757,-19.5 757,-0.5 715,-0.5"/>
<text text-anchor="middle" x="736" y="-7.5" font-family="Helvetica,sans-Serif" font-size="10.00">utility</text>
</g>
<!-- Node18&#45;&gt;Node19 -->
<g id="edge19" class="edge"><title>Node18&#45;&gt;Node19</title>
<path fill="none" stroke="midnightblue" d="M547.071,-58.5357C589.846,-48.7152 651.473,-34.1669 705,-20 705.098,-19.974 705.197,-19.9479 705.295,-19.9218"/>
<polygon fill="midnightblue" stroke="midnightblue" points="705.982,-23.3631 714.692,-17.3309 704.121,-16.6149 705.982,-23.3631"/>
</g>
<!-- Node20 -->
<g id="node20" class="node"><title>Node20</title>
<polygon fill="white" stroke="#bfbfbf" points="775,-0.5 775,-19.5 813,-19.5 813,-0.5 775,-0.5"/>
<text text-anchor="middle" x="794" y="-7.5" font-family="Helvetica,sans-Serif" font-size="10.00">map</text>
</g>
<!-- Node18&#45;&gt;Node20 -->
<g id="edge23" class="edge"><title>Node18&#45;&gt;Node20</title>
<path fill="none" stroke="midnightblue" d="M547.355,-58.7554C551.965,-57.8005 556.562,-56.8696 561,-56 648.676,-38.8211 674.453,-41.9584 764.962,-19.9776"/>
<polygon fill="midnightblue" stroke="midnightblue" points="765.948,-23.3393 774.82,-17.5476 764.273,-16.5428 765.948,-23.3393"/>
</g>
<!-- Node21 -->
<g id="node21" class="node"><title>Node21</title>
<polygon fill="white" stroke="#bfbfbf" points="831,-0.5 831,-19.5 863,-19.5 863,-0.5 831,-0.5"/>
<text text-anchor="middle" x="847" y="-7.5" font-family="Helvetica,sans-Serif" font-size="10.00">set</text>
</g>
<!-- Node18&#45;&gt;Node21 -->
<g id="edge24" class="edge"><title>Node18&#45;&gt;Node21</title>
<path fill="none" stroke="midnightblue" d="M547.321,-58.5775C551.939,-57.6613 556.547,-56.7878 561,-56 673.155,-36.1587 706.483,-47.331 820.899,-19.8169"/>
<polygon fill="midnightblue" stroke="midnightblue" points="821.865,-23.1837 830.744,-17.4032 820.198,-16.3851 821.865,-23.1837"/>
</g>
<!-- Node22 -->
<g id="node22" class="node"><title>Node22</title>
<polygon fill="white" stroke="#bfbfbf" points="483,-0.5 483,-19.5 539,-19.5 539,-0.5 483,-0.5"/>
<text text-anchor="middle" x="511" y="-7.5" font-family="Helvetica,sans-Serif" font-size="10.00">numeric</text>
</g>
<!-- Node18&#45;&gt;Node22 -->
<g id="edge27" class="edge"><title>Node18&#45;&gt;Node22</title>
<path fill="none" stroke="midnightblue" d="M498.029,-56.3993C500.346,-48.2881 503.284,-38.0071 505.777,-29.2807"/>
<polygon fill="midnightblue" stroke="midnightblue" points="509.144,-30.2346 508.526,-19.6578 502.414,-28.3115 509.144,-30.2346"/>
</g>
<!-- Node23 -->
<g id="node23" class="node"><title>Node23</title>
<polygon fill="white" stroke="#bfbfbf" points="557,-0.5 557,-19.5 621,-19.5 621,-0.5 557,-0.5"/>
<text text-anchor="middle" x="589" y="-7.5" font-family="Helvetica,sans-Serif" font-size="10.00">stdexcept</text>
</g>
<!-- Node18&#45;&gt;Node23 -->
<g id="edge28" class="edge"><title>Node18&#45;&gt;Node23</title>
<path fill="none" stroke="midnightblue" d="M516.514,-56.3993C531.599,-46.9511 551.385,-34.5589 566.473,-25.1089"/>
<polygon fill="midnightblue" stroke="midnightblue" points="568.559,-27.9321 575.177,-19.6578 564.844,-21.9996 568.559,-27.9321"/>
</g>
<!-- Node24 -->
<g id="node24" class="node"><title>Node24</title>
<polygon fill="white" stroke="#bfbfbf" points="639.5,-0.5 639.5,-19.5 696.5,-19.5 696.5,-0.5 639.5,-0.5"/>
<text text-anchor="middle" x="668" y="-7.5" font-family="Helvetica,sans-Serif" font-size="10.00">memory</text>
</g>
<!-- Node18&#45;&gt;Node24 -->
<g id="edge29" class="edge"><title>Node18&#45;&gt;Node24</title>
<path fill="none" stroke="midnightblue" d="M535.236,-56.3993C565.171,-46.1627 605.213,-32.4703 633.469,-22.8082"/>
<polygon fill="midnightblue" stroke="midnightblue" points="634.606,-26.1183 642.935,-19.5709 632.341,-19.4949 634.606,-26.1183"/>
</g>
</g>
</svg>
        <g id="navigator" transform="translate(0 0)" fill="#404254">
                <rect fill="#f2f5e9" fill-opacity="0.5" stroke="#606060" stroke-width=".5" x="0" y="0" width="60" height="60"/>
                <use id="zoomplus" xlink:href="#zoomPlus" x="17" y="9" onmousedown="handleZoom(evt,'in')"/>
                <use id="zoomminus" xlink:href="#zoomMin" x="42" y="9" onmousedown="handleZoom(evt,'out')"/>
                <use id="reset" xlink:href="#resetDef" x="30" y="36" onmousedown="handleReset()"/>
                <g id="arrowUp" xlink:href="#dirArrow" transform="translate(30 24)" onmousedown="handlePan(0,-1)">
                  <use xlink:href="#rim" fill="#404040">
                        <set attributeName="fill" to="#808080" begin="arrowUp.mouseover" end="arrowUp.mouseout"/>
                  </use>
                  <path fill="none" stroke="white" stroke-width="1.5" d="M0,-3.0v7 M-2.5,-0.5L0,-3.0L2.5,-0.5"/>
                </g>
                <g id="arrowRight" xlink:href="#dirArrow" transform="rotate(90) translate(36 -43)" onmousedown="handlePan(1,0)">
                  <use xlink:href="#rim" fill="#404040">
                        <set attributeName="fill" to="#808080" begin="arrowRight.mouseover" end="arrowRight.mouseout"/>
                  </use>
                  <path fill="none" stroke="white" stroke-width="1.5" d="M0,-3.0v7 M-2.5,-0.5L0,-3.0L2.5,-0.5"/>
                </g>
                <g id="arrowDown" xlink:href="#dirArrow" transform="rotate(180) translate(-30 -48)" onmousedown="handlePan(0,1)">
                  <use xlink:href="#rim" fill="#404040">
                        <set attributeName="fill" to="#808080" begin="arrowDown.mouseover" end="arrowDown.mouseout"/>
                  </use>
                  <path fill="none" stroke="white" stroke-width="1.5" d="M0,-3.0v7 M-2.5,-0.5L0,-3.0L2.5,-0.5"/>
                </g>
                <g id="arrowLeft" xlink:href="#dirArrow" transform="rotate(270) translate(-36 17)" onmousedown="handlePan(-1,0)">
                  <use xlink:href="#rim" fill="#404040">
                        <set attributeName="fill" to="#808080" begin="arrowLeft.mouseover" end="arrowLeft.mouseout"/>
                  </use>
                  <path fill="none" stroke="white" stroke-width="1.5" d="M0,-3.0v7 M-2.5,-0.5L0,-3.0L2.5,-0.5"/>
                </g>
        </g>
        <svg viewBox="0 0 15 15" width="100%" height="30px" preserveAspectRatio="xMaxYMin meet">
         <g id="arrow_out" transform="scale(0.3 0.3)">
          <a xlink:href="convex__hull_8h__incl_org.svg" target="_base">
           <rect id="button" ry="5" rx="5" y="6" x="6" height="38" width="38"
                fill="#f2f5e9" fill-opacity="0.5" stroke="#606060" stroke-width="1.0"/>
           <path id="arrow"
             d="M 11.500037,31.436501 C 11.940474,20.09759 22.043105,11.32322 32.158766,21.979434 L 37.068811,17.246167 C 37.068811,17.246167 37.088388,32 37.088388,32 L 22.160133,31.978069 C 22.160133,31.978069 26.997745,27.140456 26.997745,27.140456 C 18.528582,18.264221 13.291696,25.230495 11.500037,31.436501 z"
             style="fill:#404040;"/>
          </a>
         </g>
        </svg>
</svg>
