<?xml version="1.0" encoding="UTF-8" standalone="no"?>
<!DOCTYPE svg PUBLIC "-//W3C//DTD SVG 1.1//EN"
 "http://www.w3.org/Graphics/SVG/1.1/DTD/svg11.dtd">
<!-- Generated by graphviz version 2.38.0 (20140413.2041)
 -->
<!-- Title: /home/travis/build/ComPWA/ComPWA/Data/CorrectionTable.cpp Pages: 1 -->
<svg width="765pt" height="285pt"
 viewBox="0.00 0.00 764.50 285.00" xmlns="http://www.w3.org/2000/svg" xmlns:xlink="http://www.w3.org/1999/xlink">
<g id="graph0" class="graph" transform="scale(1 1) rotate(0) translate(4 281)">
<title>/home/travis/build/ComPWA/ComPWA/Data/CorrectionTable.cpp</title>
<polygon fill="white" stroke="none" points="-4,4 -4,-281 760.5,-281 760.5,4 -4,4"/>
<!-- Node1 -->
<g id="node1" class="node"><title>Node1</title>
<polygon fill="#bfbfbf" stroke="black" points="382.5,-235.5 382.5,-276.5 516.5,-276.5 516.5,-235.5 382.5,-235.5"/>
<text text-anchor="start" x="390.5" y="-264.5" font-family="Helvetica,sans-Serif" font-size="10.00">/home/travis/build</text>
<text text-anchor="start" x="390.5" y="-253.5" font-family="Helvetica,sans-Serif" font-size="10.00">/ComPWA/ComPWA/Data</text>
<text text-anchor="middle" x="449.5" y="-242.5" font-family="Helvetica,sans-Serif" font-size="10.00">/CorrectionTable.cpp</text>
</g>
<!-- Node2 -->
<g id="node2" class="node"><title>Node2</title>
<g id="a_node2"><a xlink:href="CorrectionTable_8hpp.html" target="_top" xlink:title="Correction table. ">
<polygon fill="white" stroke="black" points="118,-123.5 118,-142.5 255,-142.5 255,-123.5 118,-123.5"/>
<text text-anchor="middle" x="186.5" y="-130.5" font-family="Helvetica,sans-Serif" font-size="10.00">Data/CorrectionTable.hpp</text>
</a>
</g>
</g>
<!-- Node1&#45;&gt;Node2 -->
<g id="edge1" class="edge"><title>Node1&#45;&gt;Node2</title>
<path fill="none" stroke="midnightblue" d="M382.241,-240.275C347.398,-231.131 304.86,-217.544 269.5,-199 244.103,-185.681 218.701,-164.316 202.815,-149.744"/>
<polygon fill="midnightblue" stroke="midnightblue" points="205.117,-147.103 195.426,-142.821 200.331,-152.212 205.117,-147.103"/>
</g>
<!-- Node7 -->
<g id="node7" class="node"><title>Node7</title>
<polygon fill="white" stroke="#bfbfbf" points="299.5,-67.5 299.5,-86.5 343.5,-86.5 343.5,-67.5 299.5,-67.5"/>
<text text-anchor="middle" x="321.5" y="-74.5" font-family="Helvetica,sans-Serif" font-size="10.00">string</text>
</g>
<!-- Node1&#45;&gt;Node7 -->
<g id="edge9" class="edge"><title>Node1&#45;&gt;Node7</title>
<path fill="none" stroke="midnightblue" d="M415.339,-235.35C400.997,-225.804 385.011,-213.298 373.5,-199 348.145,-167.506 333.007,-121.787 326.069,-96.5226"/>
<polygon fill="midnightblue" stroke="midnightblue" points="329.433,-95.5541 323.521,-86.7625 322.66,-97.3223 329.433,-95.5541"/>
</g>
<!-- Node9 -->
<g id="node9" class="node"><title>Node9</title>
<polygon fill="white" stroke="#bfbfbf" points="563,-67.5 563,-86.5 620,-86.5 620,-67.5 563,-67.5"/>
<text text-anchor="middle" x="591.5" y="-74.5" font-family="Helvetica,sans-Serif" font-size="10.00">ostream</text>
</g>
<!-- Node1&#45;&gt;Node9 -->
<g id="edge8" class="edge"><title>Node1&#45;&gt;Node9</title>
<path fill="none" stroke="midnightblue" d="M499.99,-235.322C538.012,-217.5 587.399,-187.211 610.5,-143 618.386,-127.907 611.266,-109.085 603.596,-95.5853"/>
<polygon fill="midnightblue" stroke="midnightblue" points="606.389,-93.4501 598.121,-86.8256 600.453,-97.1605 606.389,-93.4501"/>
</g>
<!-- Node10 -->
<g id="node10" class="node"><title>Node10</title>
<g id="a_node10"><a xlink:href="Logging_8hpp.html" target="_top" xlink:title="Core/Logging.hpp">
<polygon fill="white" stroke="black" points="638,-67.5 638,-86.5 739,-86.5 739,-67.5 638,-67.5"/>
<text text-anchor="middle" x="688.5" y="-74.5" font-family="Helvetica,sans-Serif" font-size="10.00">Core/Logging.hpp</text>
</a>
</g>
</g>
<!-- Node1&#45;&gt;Node10 -->
<g id="edge10" class="edge"><title>Node1&#45;&gt;Node10</title>
<path fill="none" stroke="midnightblue" d="M515.232,-235.462C539.002,-226.565 565.206,-214.5 586.5,-199 626.879,-169.608 661.342,-120.949 677.932,-95.2039"/>
<polygon fill="midnightblue" stroke="midnightblue" points="681.018,-96.8725 683.39,-86.5467 675.096,-93.1392 681.018,-96.8725"/>
</g>
<!-- Node12 -->
<g id="node12" class="node"><title>Node12</title>
<g id="a_node12"><a xlink:href="TableFormatter_8hpp.html" target="_top" xlink:title="Core/TableFormatter.hpp">
<polygon fill="white" stroke="black" points="382.5,-179.5 382.5,-198.5 516.5,-198.5 516.5,-179.5 382.5,-179.5"/>
<text text-anchor="middle" x="449.5" y="-186.5" font-family="Helvetica,sans-Serif" font-size="10.00">Core/TableFormatter.hpp</text>
</a>
</g>
</g>
<!-- Node1&#45;&gt;Node12 -->
<g id="edge12" class="edge"><title>Node1&#45;&gt;Node12</title>
<path fill="none" stroke="midnightblue" d="M449.5,-235.498C449.5,-227.065 449.5,-217.235 449.5,-208.874"/>
<polygon fill="midnightblue" stroke="midnightblue" points="453,-208.652 449.5,-198.652 446,-208.653 453,-208.652"/>
</g>
<!-- Node3 -->
<g id="node3" class="node"><title>Node3</title>
<polygon fill="white" stroke="#bfbfbf" points="0,-67.5 0,-86.5 47,-86.5 47,-67.5 0,-67.5"/>
<text text-anchor="middle" x="23.5" y="-74.5" font-family="Helvetica,sans-Serif" font-size="10.00">cmath</text>
</g>
<!-- Node2&#45;&gt;Node3 -->
<g id="edge2" class="edge"><title>Node2&#45;&gt;Node3</title>
<path fill="none" stroke="midnightblue" d="M160.672,-123.444C132.605,-114.145 87.6652,-99.2572 56.9255,-89.0735"/>
<polygon fill="midnightblue" stroke="midnightblue" points="57.6834,-85.6375 47.09,-85.8151 55.482,-92.2824 57.6834,-85.6375"/>
</g>
<!-- Node4 -->
<g id="node4" class="node"><title>Node4</title>
<polygon fill="white" stroke="#bfbfbf" points="65,-67.5 65,-86.5 124,-86.5 124,-67.5 65,-67.5"/>
<text text-anchor="middle" x="94.5" y="-74.5" font-family="Helvetica,sans-Serif" font-size="10.00">iostream</text>
</g>
<!-- Node2&#45;&gt;Node4 -->
<g id="edge3" class="edge"><title>Node2&#45;&gt;Node4</title>
<path fill="none" stroke="midnightblue" d="M171.719,-123.324C157.233,-114.822 134.927,-101.729 118.007,-91.7975"/>
<polygon fill="midnightblue" stroke="midnightblue" points="119.641,-88.6981 109.245,-86.6545 116.097,-94.735 119.641,-88.6981"/>
</g>
<!-- Node5 -->
<g id="node5" class="node"><title>Node5</title>
<polygon fill="white" stroke="#bfbfbf" points="142,-67.5 142,-86.5 199,-86.5 199,-67.5 142,-67.5"/>
<text text-anchor="middle" x="170.5" y="-74.5" font-family="Helvetica,sans-Serif" font-size="10.00">memory</text>
</g>
<!-- Node2&#45;&gt;Node5 -->
<g id="edge4" class="edge"><title>Node2&#45;&gt;Node5</title>
<path fill="none" stroke="midnightblue" d="M183.858,-123.083C181.714,-115.849 178.621,-105.409 175.951,-96.3968"/>
<polygon fill="midnightblue" stroke="midnightblue" points="179.29,-95.3447 173.093,-86.7511 172.578,-97.3334 179.29,-95.3447"/>
</g>
<!-- Node6 -->
<g id="node6" class="node"><title>Node6</title>
<polygon fill="white" stroke="#bfbfbf" points="217.5,-67.5 217.5,-86.5 281.5,-86.5 281.5,-67.5 217.5,-67.5"/>
<text text-anchor="middle" x="249.5" y="-74.5" font-family="Helvetica,sans-Serif" font-size="10.00">stdexcept</text>
</g>
<!-- Node2&#45;&gt;Node6 -->
<g id="edge5" class="edge"><title>Node2&#45;&gt;Node6</title>
<path fill="none" stroke="midnightblue" d="M196.622,-123.324C206.026,-115.263 220.244,-103.077 231.569,-93.3695"/>
<polygon fill="midnightblue" stroke="midnightblue" points="233.879,-95.9993 239.194,-86.8339 229.323,-90.6844 233.879,-95.9993"/>
</g>
<!-- Node2&#45;&gt;Node7 -->
<g id="edge6" class="edge"><title>Node2&#45;&gt;Node7</title>
<path fill="none" stroke="midnightblue" d="M207.891,-123.444C230.207,-114.517 265.403,-100.439 290.708,-90.3168"/>
<polygon fill="midnightblue" stroke="midnightblue" points="292.224,-93.4801 300.209,-86.5164 289.624,-86.9807 292.224,-93.4801"/>
</g>
<!-- Node8 -->
<g id="node8" class="node"><title>Node8</title>
<polygon fill="white" stroke="#bfbfbf" points="362,-67.5 362,-86.5 409,-86.5 409,-67.5 362,-67.5"/>
<text text-anchor="middle" x="385.5" y="-74.5" font-family="Helvetica,sans-Serif" font-size="10.00">vector</text>
</g>
<!-- Node2&#45;&gt;Node8 -->
<g id="edge7" class="edge"><title>Node2&#45;&gt;Node8</title>
<path fill="none" stroke="midnightblue" d="M218.018,-123.471C249.455,-114.961 299.39,-101.434 351.881,-87.1653"/>
<polygon fill="midnightblue" stroke="midnightblue" points="352.977,-90.4945 361.708,-84.4933 351.14,-83.7398 352.977,-90.4945"/>
</g>
<!-- Node11 -->
<g id="node11" class="node"><title>Node11</title>
<polygon fill="white" stroke="#bfbfbf" points="620.5,-0.5 620.5,-30.5 756.5,-30.5 756.5,-0.5 620.5,-0.5"/>
<text text-anchor="start" x="628.5" y="-18.5" font-family="Helvetica,sans-Serif" font-size="10.00">ThirdParty/easyloggingpp</text>
<text text-anchor="middle" x="688.5" y="-7.5" font-family="Helvetica,sans-Serif" font-size="10.00">/easylogging++.h</text>
</g>
<!-- Node10&#45;&gt;Node11 -->
<g id="edge11" class="edge"><title>Node10&#45;&gt;Node11</title>
<path fill="none" stroke="midnightblue" d="M688.5,-67.4751C688.5,-60.471 688.5,-50.1919 688.5,-40.6956"/>
<polygon fill="midnightblue" stroke="midnightblue" points="692,-40.5229 688.5,-30.523 685,-40.523 692,-40.5229"/>
</g>
<!-- Node12&#45;&gt;Node7 -->
<g id="edge15" class="edge"><title>Node12&#45;&gt;Node7</title>
<path fill="none" stroke="midnightblue" d="M429.565,-179.443C412.667,-171.567 388.398,-158.739 370.5,-143 354.807,-129.2 340.894,-109.654 331.941,-95.6058"/>
<polygon fill="midnightblue" stroke="midnightblue" points="334.8,-93.5735 326.574,-86.8961 328.841,-97.2457 334.8,-93.5735"/>
</g>
<!-- Node12&#45;&gt;Node8 -->
<g id="edge16" class="edge"><title>Node12&#45;&gt;Node8</title>
<path fill="none" stroke="midnightblue" d="M424.339,-179.378C408.081,-172.343 388.207,-160.645 378.5,-143 370.643,-128.719 373.804,-110.005 378.094,-96.3267"/>
<polygon fill="midnightblue" stroke="midnightblue" points="381.495,-97.2113 381.588,-86.6168 374.909,-94.8415 381.495,-97.2113"/>
</g>
<!-- Node12&#45;&gt;Node9 -->
<g id="edge14" class="edge"><title>Node12&#45;&gt;Node9</title>
<path fill="none" stroke="midnightblue" d="M516.854,-183.833C544.937,-178.361 575.026,-166.818 592.5,-143 602.193,-129.788 600.57,-110.655 597.348,-96.567"/>
<polygon fill="midnightblue" stroke="midnightblue" points="600.625,-95.2798 594.608,-86.5593 593.873,-97.1287 600.625,-95.2798"/>
</g>
<!-- Node13 -->
<g id="node13" class="node"><title>Node13</title>
<polygon fill="white" stroke="#bfbfbf" points="529,-123.5 529,-142.5 584,-142.5 584,-123.5 529,-123.5"/>
<text text-anchor="middle" x="556.5" y="-130.5" font-family="Helvetica,sans-Serif" font-size="10.00">iomanip</text>
</g>
<!-- Node12&#45;&gt;Node13 -->
<g id="edge13" class="edge"><title>Node12&#45;&gt;Node13</title>
<path fill="none" stroke="midnightblue" d="M466.691,-179.324C483.851,-170.664 510.446,-157.242 530.247,-147.249"/>
<polygon fill="midnightblue" stroke="midnightblue" points="532.001,-150.285 539.351,-142.655 528.847,-144.035 532.001,-150.285"/>
</g>
<!-- Node14 -->
<g id="node14" class="node"><title>Node14</title>
<g id="a_node14"><a xlink:href="FitParameter_8hpp.html" target="_top" xlink:title="Core/FitParameter.hpp">
<polygon fill="white" stroke="red" points="388,-123.5 388,-142.5 511,-142.5 511,-123.5 388,-123.5"/>
<text text-anchor="middle" x="449.5" y="-130.5" font-family="Helvetica,sans-Serif" font-size="10.00">Core/FitParameter.hpp</text>
</a>
</g>
</g>
<!-- Node12&#45;&gt;Node14 -->
<g id="edge17" class="edge"><title>Node12&#45;&gt;Node14</title>
<path fill="none" stroke="midnightblue" d="M449.5,-179.083C449.5,-172.006 449.5,-161.861 449.5,-152.986"/>
<polygon fill="midnightblue" stroke="midnightblue" points="453,-152.751 449.5,-142.751 446,-152.751 453,-152.751"/>
</g>
<!-- Node14&#45;&gt;Node7 -->
<g id="edge20" class="edge"><title>Node14&#45;&gt;Node7</title>
<path fill="none" stroke="midnightblue" d="M429.218,-123.444C408.153,-114.557 374.983,-100.563 351.014,-90.4514"/>
<polygon fill="midnightblue" stroke="midnightblue" points="352.261,-87.1787 341.687,-86.5164 349.54,-93.6283 352.261,-87.1787"/>
</g>
<!-- Node14&#45;&gt;Node8 -->
<g id="edge21" class="edge"><title>Node14&#45;&gt;Node8</title>
<path fill="none" stroke="midnightblue" d="M439.217,-123.324C429.664,-115.263 415.22,-103.077 403.716,-93.3695"/>
<polygon fill="midnightblue" stroke="midnightblue" points="405.87,-90.6076 395.97,-86.8339 401.356,-95.9577 405.87,-90.6076"/>
</g>
<!-- Node14&#45;&gt;Node9 -->
<g id="edge19" class="edge"><title>Node14&#45;&gt;Node9</title>
<path fill="none" stroke="midnightblue" d="M472,-123.444C495.577,-114.478 532.822,-100.314 559.464,-90.1827"/>
<polygon fill="midnightblue" stroke="midnightblue" points="561.002,-93.3424 569.105,-86.5164 558.514,-86.7995 561.002,-93.3424"/>
</g>
<!-- Node14&#45;&gt;Node10 -->
<g id="edge18" class="edge"><title>Node14&#45;&gt;Node10</title>
<path fill="none" stroke="midnightblue" d="M487.37,-123.444C528.976,-114.043 595.869,-98.9291 640.969,-88.7393"/>
<polygon fill="midnightblue" stroke="midnightblue" points="641.824,-92.1343 650.807,-86.5164 640.281,-85.3064 641.824,-92.1343"/>
</g>
</g>
</svg>
