<?xml version="1.0" encoding="UTF-8" standalone="no"?>
<!DOCTYPE svg PUBLIC "-//W3C//DTD SVG 1.1//EN"
 "http://www.w3.org/Graphics/SVG/1.1/DTD/svg11.dtd">
<!-- Generated by graphviz version 2.38.0 (20140413.2041)
 -->
<!-- Title: /home/travis/build/ComPWA/ComPWA/Physics/EvtGen/DalitzKinematics.cpp Pages: 1 -->
<svg width="998pt" height="296pt"
 viewBox="0.00 0.00 997.50 296.00" xmlns="http://www.w3.org/2000/svg" xmlns:xlink="http://www.w3.org/1999/xlink">
<g id="graph0" class="graph" transform="scale(1 1) rotate(0) translate(4 292)">
<title>/home/travis/build/ComPWA/ComPWA/Physics/EvtGen/DalitzKinematics.cpp</title>
<polygon fill="white" stroke="none" points="-4,4 -4,-292 993.5,-292 993.5,4 -4,4"/>
<!-- Node1 -->
<g id="node1" class="node"><title>Node1</title>
<polygon fill="#bfbfbf" stroke="black" points="577,-246.5 577,-287.5 726,-287.5 726,-246.5 577,-246.5"/>
<text text-anchor="start" x="585" y="-275.5" font-family="Helvetica,sans-Serif" font-size="10.00">/home/travis/build</text>
<text text-anchor="start" x="585" y="-264.5" font-family="Helvetica,sans-Serif" font-size="10.00">/ComPWA/ComPWA/Physics</text>
<text text-anchor="middle" x="651.5" y="-253.5" font-family="Helvetica,sans-Serif" font-size="10.00">/EvtGen/DalitzKinematics.cpp</text>
</g>
<!-- Node2 -->
<g id="node2" class="node"><title>Node2</title>
<g id="a_node2"><a xlink:href="DalitzKinematics_8hpp.html" target="_top" xlink:title="Contains DalitzKinematics class. ">
<polygon fill="white" stroke="black" points="99.5,-185 99.5,-204 283.5,-204 283.5,-185 99.5,-185"/>
<text text-anchor="middle" x="191.5" y="-192" font-family="Helvetica,sans-Serif" font-size="10.00">Physics/EvtGen/DalitzKinematics.hpp</text>
</a>
</g>
</g>
<!-- Node1&#45;&gt;Node2 -->
<g id="edge1" class="edge"><title>Node1&#45;&gt;Node2</title>
<path fill="none" stroke="midnightblue" d="M576.826,-254.555C488.197,-240.972 341.807,-218.536 257.276,-205.581"/>
<polygon fill="midnightblue" stroke="midnightblue" points="257.697,-202.105 247.282,-204.049 256.636,-209.024 257.697,-202.105"/>
</g>
<!-- Node6 -->
<g id="node6" class="node"><title>Node6</title>
<g id="a_node6"><a xlink:href="Particle_8hpp.html" target="_top" xlink:title="Particle and FourMomentum class. ">
<polygon fill="white" stroke="red" points="531.5,-56.5 531.5,-75.5 623.5,-75.5 623.5,-56.5 531.5,-56.5"/>
<text text-anchor="middle" x="577.5" y="-63.5" font-family="Helvetica,sans-Serif" font-size="10.00">Core/Particle.hpp</text>
</a>
</g>
</g>
<!-- Node1&#45;&gt;Node6 -->
<g id="edge18" class="edge"><title>Node1&#45;&gt;Node6</title>
<path fill="none" stroke="midnightblue" d="M644.134,-246.192C629.76,-207.537 598.166,-122.576 584.277,-85.2253"/>
<polygon fill="midnightblue" stroke="midnightblue" points="587.481,-83.7997 580.715,-75.6467 580.92,-86.2395 587.481,-83.7997"/>
</g>
<!-- Node7 -->
<g id="node7" class="node"><title>Node7</title>
<polygon fill="white" stroke="#bfbfbf" points="560.5,-0.5 560.5,-19.5 616.5,-19.5 616.5,-0.5 560.5,-0.5"/>
<text text-anchor="middle" x="588.5" y="-7.5" font-family="Helvetica,sans-Serif" font-size="10.00">algorithm</text>
</g>
<!-- Node1&#45;&gt;Node7 -->
<g id="edge25" class="edge"><title>Node1&#45;&gt;Node7</title>
<path fill="none" stroke="midnightblue" d="M653.931,-246.361C657.82,-207.835 662.247,-120.488 632.5,-56 627.174,-44.4536 617.597,-34.1056 608.736,-26.2525"/>
<polygon fill="midnightblue" stroke="midnightblue" points="610.87,-23.4753 600.941,-19.7791 606.398,-28.8605 610.87,-23.4753"/>
</g>
<!-- Node8 -->
<g id="node8" class="node"><title>Node8</title>
<polygon fill="white" stroke="#bfbfbf" points="656.5,-0.5 656.5,-19.5 700.5,-19.5 700.5,-0.5 656.5,-0.5"/>
<text text-anchor="middle" x="678.5" y="-7.5" font-family="Helvetica,sans-Serif" font-size="10.00">cmath</text>
</g>
<!-- Node1&#45;&gt;Node8 -->
<g id="edge26" class="edge"><title>Node1&#45;&gt;Node8</title>
<path fill="none" stroke="midnightblue" d="M657.297,-246.48C660.236,-235.8 663.58,-222.277 665.5,-210 675.736,-144.54 677.933,-65.7454 678.39,-30.1313"/>
<polygon fill="midnightblue" stroke="midnightblue" points="681.893,-29.823 678.487,-19.7904 674.893,-29.757 681.893,-29.823"/>
</g>
<!-- Node9 -->
<g id="node9" class="node"><title>Node9</title>
<polygon fill="white" stroke="#bfbfbf" points="772,-0.5 772,-19.5 823,-19.5 823,-0.5 772,-0.5"/>
<text text-anchor="middle" x="797.5" y="-7.5" font-family="Helvetica,sans-Serif" font-size="10.00">numeric</text>
</g>
<!-- Node1&#45;&gt;Node9 -->
<g id="edge27" class="edge"><title>Node1&#45;&gt;Node9</title>
<path fill="none" stroke="midnightblue" d="M726.397,-260.672C760.935,-254.017 798.967,-239.82 820.5,-210 860.699,-154.331 825.211,-66.1628 806.871,-28.7374"/>
<polygon fill="midnightblue" stroke="midnightblue" points="809.878,-26.9285 802.23,-19.5963 803.636,-30.0974 809.878,-26.9285"/>
</g>
<!-- Node11 -->
<g id="node11" class="node"><title>Node11</title>
<g id="a_node11"><a xlink:href="Event_8hpp.html" target="_top" xlink:title="Core/Event.hpp">
<polygon fill="white" stroke="black" points="500,-118 500,-137 585,-137 585,-118 500,-118"/>
<text text-anchor="middle" x="542.5" y="-125" font-family="Helvetica,sans-Serif" font-size="10.00">Core/Event.hpp</text>
</a>
</g>
</g>
<!-- Node1&#45;&gt;Node11 -->
<g id="edge14" class="edge"><title>Node1&#45;&gt;Node11</title>
<path fill="none" stroke="midnightblue" d="M632.032,-246.383C621.956,-235.901 609.67,-222.593 599.5,-210 582.451,-188.889 564.854,-162.984 553.806,-146.126"/>
<polygon fill="midnightblue" stroke="midnightblue" points="556.491,-143.834 548.112,-137.351 550.619,-147.645 556.491,-143.834"/>
</g>
<!-- Node12 -->
<g id="node12" class="node"><title>Node12</title>
<g id="a_node12"><a xlink:href="Logging_8hpp.html" target="_top" xlink:title="Core/Logging.hpp">
<polygon fill="white" stroke="red" points="718,-185 718,-204 811,-204 811,-185 718,-185"/>
<text text-anchor="middle" x="764.5" y="-192" font-family="Helvetica,sans-Serif" font-size="10.00">Core/Logging.hpp</text>
</a>
</g>
</g>
<!-- Node1&#45;&gt;Node12 -->
<g id="edge17" class="edge"><title>Node1&#45;&gt;Node12</title>
<path fill="none" stroke="midnightblue" d="M682.977,-246.362C701.711,-234.674 725.045,-220.116 741.943,-209.573"/>
<polygon fill="midnightblue" stroke="midnightblue" points="743.966,-212.436 750.598,-204.173 740.261,-206.497 743.966,-212.436"/>
</g>
<!-- Node13 -->
<g id="node13" class="node"><title>Node13</title>
<g id="a_node13"><a xlink:href="DataSet_8hpp.html" target="_top" xlink:title="Data/DataSet.hpp">
<polygon fill="white" stroke="black" points="419,-185 419,-204 514,-204 514,-185 419,-185"/>
<text text-anchor="middle" x="466.5" y="-192" font-family="Helvetica,sans-Serif" font-size="10.00">Data/DataSet.hpp</text>
</a>
</g>
</g>
<!-- Node1&#45;&gt;Node13 -->
<g id="edge19" class="edge"><title>Node1&#45;&gt;Node13</title>
<path fill="none" stroke="midnightblue" d="M599.967,-246.362C567.592,-234.024 526.827,-218.489 498.92,-207.855"/>
<polygon fill="midnightblue" stroke="midnightblue" points="499.851,-204.464 489.26,-204.173 497.358,-211.005 499.851,-204.464"/>
</g>
<!-- Node16 -->
<g id="node16" class="node"><title>Node16</title>
<polygon fill="white" stroke="#bfbfbf" points="867.5,-179.5 867.5,-209.5 989.5,-209.5 989.5,-179.5 867.5,-179.5"/>
<text text-anchor="start" x="875.5" y="-197.5" font-family="Helvetica,sans-Serif" font-size="10.00">ThirdParty/qft++/include</text>
<text text-anchor="middle" x="928.5" y="-186.5" font-family="Helvetica,sans-Serif" font-size="10.00">/qft++/Vector4.h</text>
</g>
<!-- Node1&#45;&gt;Node16 -->
<g id="edge24" class="edge"><title>Node1&#45;&gt;Node16</title>
<path fill="none" stroke="midnightblue" d="M726.095,-247.015C768.877,-236.126 822.079,-222.586 863.2,-212.12"/>
<polygon fill="midnightblue" stroke="midnightblue" points="864.285,-215.455 873.113,-209.597 862.558,-208.671 864.285,-215.455"/>
</g>
<!-- Node3 -->
<g id="node3" class="node"><title>Node3</title>
<polygon fill="white" stroke="#bfbfbf" points="295.5,-0.5 295.5,-19.5 339.5,-19.5 339.5,-0.5 295.5,-0.5"/>
<text text-anchor="middle" x="317.5" y="-7.5" font-family="Helvetica,sans-Serif" font-size="10.00">vector</text>
</g>
<!-- Node2&#45;&gt;Node3 -->
<g id="edge2" class="edge"><title>Node2&#45;&gt;Node3</title>
<path fill="none" stroke="midnightblue" d="M186.426,-184.73C173.596,-161.275 142.913,-96.1617 172.5,-56 198.175,-21.1494 250.581,-12.4937 284.855,-10.7666"/>
<polygon fill="midnightblue" stroke="midnightblue" points="285.409,-14.2504 295.29,-10.4249 285.18,-7.25419 285.409,-14.2504"/>
</g>
<!-- Node4 -->
<g id="node4" class="node"><title>Node4</title>
<g id="a_node4"><a xlink:href="Kinematics_8hpp.html" target="_top" xlink:title="Core/Kinematics.hpp">
<polygon fill="white" stroke="red" points="181.5,-56.5 181.5,-75.5 289.5,-75.5 289.5,-56.5 181.5,-56.5"/>
<text text-anchor="middle" x="235.5" y="-63.5" font-family="Helvetica,sans-Serif" font-size="10.00">Core/Kinematics.hpp</text>
</a>
</g>
</g>
<!-- Node2&#45;&gt;Node4 -->
<g id="edge3" class="edge"><title>Node2&#45;&gt;Node4</title>
<path fill="none" stroke="midnightblue" d="M192.729,-184.698C195.032,-169.492 200.672,-137.485 210.5,-112 214.198,-102.411 219.619,-92.3558 224.468,-84.1888"/>
<polygon fill="midnightblue" stroke="midnightblue" points="227.489,-85.9582 229.76,-75.6097 221.531,-82.2828 227.489,-85.9582"/>
</g>
<!-- Node5 -->
<g id="node5" class="node"><title>Node5</title>
<g id="a_node5"><a xlink:href="ParticleStateTransitionKinematicsInfo_8hpp.html" target="_top" xlink:title="Physics/ParticleStateTransition\lKinematicsInfo.hpp">
<polygon fill="white" stroke="red" points="219.5,-112.5 219.5,-142.5 373.5,-142.5 373.5,-112.5 219.5,-112.5"/>
<text text-anchor="start" x="227.5" y="-130.5" font-family="Helvetica,sans-Serif" font-size="10.00">Physics/ParticleStateTransition</text>
<text text-anchor="middle" x="296.5" y="-119.5" font-family="Helvetica,sans-Serif" font-size="10.00">KinematicsInfo.hpp</text>
</a>
</g>
</g>
<!-- Node2&#45;&gt;Node5 -->
<g id="edge5" class="edge"><title>Node2&#45;&gt;Node5</title>
<path fill="none" stroke="midnightblue" d="M205.661,-184.734C220.806,-175.358 245.312,-160.188 265.055,-147.966"/>
<polygon fill="midnightblue" stroke="midnightblue" points="267.08,-150.829 273.741,-142.589 263.396,-144.877 267.08,-150.829"/>
</g>
<!-- Node10 -->
<g id="node10" class="node"><title>Node10</title>
<g id="a_node10"><a xlink:href="SubSystem_8hpp.html" target="_top" xlink:title="Contains SubSystem class. ">
<polygon fill="white" stroke="red" points="0,-56.5 0,-75.5 125,-75.5 125,-56.5 0,-56.5"/>
<text text-anchor="middle" x="62.5" y="-63.5" font-family="Helvetica,sans-Serif" font-size="10.00">Physics/SubSystem.hpp</text>
</a>
</g>
</g>
<!-- Node2&#45;&gt;Node10 -->
<g id="edge12" class="edge"><title>Node2&#45;&gt;Node10</title>
<path fill="none" stroke="midnightblue" d="M182.646,-184.944C172.281,-174.917 154.607,-157.79 139.5,-143 118.47,-122.411 94.338,-98.5544 78.779,-83.1432"/>
<polygon fill="midnightblue" stroke="midnightblue" points="81.0528,-80.4689 71.4861,-75.916 76.1255,-85.4411 81.0528,-80.4689"/>
</g>
<!-- Node4&#45;&gt;Node3 -->
<g id="edge4" class="edge"><title>Node4&#45;&gt;Node3</title>
<path fill="none" stroke="midnightblue" d="M248.675,-56.324C261.347,-47.979 280.733,-35.2122 295.706,-25.3524"/>
<polygon fill="midnightblue" stroke="midnightblue" points="297.931,-28.0776 304.358,-19.6545 294.081,-22.2313 297.931,-28.0776"/>
</g>
<!-- Node5&#45;&gt;Node3 -->
<g id="edge6" class="edge"><title>Node5&#45;&gt;Node3</title>
<path fill="none" stroke="midnightblue" d="M299.075,-112.337C302.859,-91.5271 309.925,-52.6632 314.121,-29.5834"/>
<polygon fill="midnightblue" stroke="midnightblue" points="317.578,-30.1343 315.924,-19.6695 310.691,-28.882 317.578,-30.1343"/>
</g>
<!-- Node5&#45;&gt;Node6 -->
<g id="edge7" class="edge"><title>Node5&#45;&gt;Node6</title>
<path fill="none" stroke="midnightblue" d="M362.737,-112.475C413.121,-101.806 481.384,-87.352 527.308,-77.6278"/>
<polygon fill="midnightblue" stroke="midnightblue" points="528.269,-81.002 537.327,-75.5064 526.819,-74.1539 528.269,-81.002"/>
</g>
<!-- Node6&#45;&gt;Node3 -->
<g id="edge11" class="edge"><title>Node6&#45;&gt;Node3</title>
<path fill="none" stroke="midnightblue" d="M536.302,-56.4435C484.518,-45.6884 396.723,-27.4541 349.626,-17.6724"/>
<polygon fill="midnightblue" stroke="midnightblue" points="350.175,-14.2117 339.672,-15.6049 348.751,-21.0654 350.175,-14.2117"/>
</g>
<!-- Node6&#45;&gt;Node7 -->
<g id="edge8" class="edge"><title>Node6&#45;&gt;Node7</title>
<path fill="none" stroke="midnightblue" d="M579.316,-56.083C580.774,-48.9272 582.871,-38.6353 584.693,-29.6911"/>
<polygon fill="midnightblue" stroke="midnightblue" points="588.151,-30.2485 586.717,-19.7511 581.292,-28.8512 588.151,-30.2485"/>
</g>
<!-- Node6&#45;&gt;Node8 -->
<g id="edge9" class="edge"><title>Node6&#45;&gt;Node8</title>
<path fill="none" stroke="midnightblue" d="M593.727,-56.324C609.851,-47.7034 634.8,-34.3643 653.464,-24.3855"/>
<polygon fill="midnightblue" stroke="midnightblue" points="655.144,-27.456 662.313,-19.6545 651.844,-21.283 655.144,-27.456"/>
</g>
<!-- Node6&#45;&gt;Node9 -->
<g id="edge10" class="edge"><title>Node6&#45;&gt;Node9</title>
<path fill="none" stroke="midnightblue" d="M612.36,-56.4435C653.24,-46.4093 720.642,-29.8651 761.858,-19.7486"/>
<polygon fill="midnightblue" stroke="midnightblue" points="762.862,-23.1059 771.74,-17.323 761.194,-16.3077 762.862,-23.1059"/>
</g>
<!-- Node10&#45;&gt;Node3 -->
<g id="edge13" class="edge"><title>Node10&#45;&gt;Node3</title>
<path fill="none" stroke="midnightblue" d="M102.906,-56.4435C153.563,-45.716 239.358,-27.5478 285.635,-17.748"/>
<polygon fill="midnightblue" stroke="midnightblue" points="286.366,-21.1708 295.424,-15.6749 284.916,-14.3226 286.366,-21.1708"/>
</g>
<!-- Node11&#45;&gt;Node3 -->
<g id="edge16" class="edge"><title>Node11&#45;&gt;Node3</title>
<path fill="none" stroke="midnightblue" d="M534.021,-117.93C519.151,-103.333 486.861,-73.5278 454.5,-56 420.778,-37.7352 378.359,-25.2162 349.725,-18.1066"/>
<polygon fill="midnightblue" stroke="midnightblue" points="350.382,-14.6649 339.841,-15.7314 348.747,-21.4712 350.382,-14.6649"/>
</g>
<!-- Node11&#45;&gt;Node6 -->
<g id="edge15" class="edge"><title>Node11&#45;&gt;Node6</title>
<path fill="none" stroke="midnightblue" d="M547.515,-117.975C552.661,-109.227 560.812,-95.3691 567.318,-84.3093"/>
<polygon fill="midnightblue" stroke="midnightblue" points="570.441,-85.903 572.495,-75.5091 564.408,-82.3539 570.441,-85.903"/>
</g>
<!-- Node13&#45;&gt;Node11 -->
<g id="edge21" class="edge"><title>Node13&#45;&gt;Node11</title>
<path fill="none" stroke="midnightblue" d="M476.75,-184.734C488.943,-174.305 509.517,-156.709 524.408,-143.973"/>
<polygon fill="midnightblue" stroke="midnightblue" points="527.088,-146.287 532.413,-137.127 522.538,-140.967 527.088,-146.287"/>
</g>
<!-- Node14 -->
<g id="node14" class="node"><title>Node14</title>
<polygon fill="white" stroke="#bfbfbf" points="429.5,-118 429.5,-137 481.5,-137 481.5,-118 429.5,-118"/>
<text text-anchor="middle" x="455.5" y="-125" font-family="Helvetica,sans-Serif" font-size="10.00">memory</text>
</g>
<!-- Node13&#45;&gt;Node14 -->
<g id="edge20" class="edge"><title>Node13&#45;&gt;Node14</title>
<path fill="none" stroke="midnightblue" d="M465.016,-184.734C463.4,-175.183 460.766,-159.618 458.679,-147.283"/>
<polygon fill="midnightblue" stroke="midnightblue" points="462.08,-146.403 456.96,-137.127 455.178,-147.571 462.08,-146.403"/>
</g>
<!-- Node15 -->
<g id="node15" class="node"><title>Node15</title>
<g id="a_node15"><a xlink:href="Function_8hpp.html" target="_top" xlink:title="Core/Function.hpp">
<polygon fill="white" stroke="red" points="349,-56.5 349,-75.5 446,-75.5 446,-56.5 349,-56.5"/>
<text text-anchor="middle" x="397.5" y="-63.5" font-family="Helvetica,sans-Serif" font-size="10.00">Core/Function.hpp</text>
</a>
</g>
</g>
<!-- Node13&#45;&gt;Node15 -->
<g id="edge22" class="edge"><title>Node13&#45;&gt;Node15</title>
<path fill="none" stroke="midnightblue" d="M456.285,-184.832C445.886,-175.492 429.985,-159.708 420.5,-143 410.314,-125.057 404.176,-102.116 400.836,-86.1553"/>
<polygon fill="midnightblue" stroke="midnightblue" points="404.197,-85.1013 398.879,-75.938 397.322,-86.4178 404.197,-85.1013"/>
</g>
<!-- Node15&#45;&gt;Node3 -->
<g id="edge23" class="edge"><title>Node15&#45;&gt;Node3</title>
<path fill="none" stroke="midnightblue" d="M384.647,-56.324C372.284,-47.979 353.37,-35.2122 338.763,-25.3524"/>
<polygon fill="midnightblue" stroke="midnightblue" points="340.568,-22.3483 330.321,-19.6545 336.652,-28.1503 340.568,-22.3483"/>
</g>
</g>
</svg>
