<?xml version="1.0" encoding="UTF-8" standalone="no"?>
<!DOCTYPE svg PUBLIC "-//W3C//DTD SVG 1.1//EN"
 "http://www.w3.org/Graphics/SVG/1.1/DTD/svg11.dtd">
<!-- Generated by graphviz version 2.38.0 (20140413.2041)
 -->
<!-- Title: /home/travis/build/ComPWA/ComPWA/Data/DataSet.hpp Pages: 1 -->
<svg width="1552pt" height="217pt"
 viewBox="0.00 0.00 1551.50 217.00" xmlns="http://www.w3.org/2000/svg" xmlns:xlink="http://www.w3.org/1999/xlink">
<g id="graph0" class="graph" transform="scale(1 1) rotate(0) translate(4 213)">
<title>/home/travis/build/ComPWA/ComPWA/Data/DataSet.hpp</title>
<polygon fill="white" stroke="none" points="-4,4 -4,-213 1547.5,-213 1547.5,4 -4,4"/>
<!-- Node1 -->
<g id="node1" class="node"><title>Node1</title>
<polygon fill="#bfbfbf" stroke="black" points="689,-167.5 689,-208.5 824,-208.5 824,-167.5 689,-167.5"/>
<text text-anchor="start" x="697" y="-196.5" font-family="Helvetica,sans-Serif" font-size="10.00">/home/travis/build</text>
<text text-anchor="start" x="697" y="-185.5" font-family="Helvetica,sans-Serif" font-size="10.00">/ComPWA/ComPWA/Data</text>
<text text-anchor="middle" x="756.5" y="-174.5" font-family="Helvetica,sans-Serif" font-size="10.00">/DataSet.hpp</text>
</g>
<!-- Node2 -->
<g id="node2" class="node"><title>Node2</title>
<g id="a_node2"><a xlink:href="ParameterList_8cpp.html" target="_top" xlink:title="/home/travis/build\l/ComPWA/ComPWA/Core\l/FunctionTree/ParameterList.cpp">
<polygon fill="white" stroke="black" points="0,-89.5 0,-130.5 159,-130.5 159,-89.5 0,-89.5"/>
<text text-anchor="start" x="8" y="-118.5" font-family="Helvetica,sans-Serif" font-size="10.00">/home/travis/build</text>
<text text-anchor="start" x="8" y="-107.5" font-family="Helvetica,sans-Serif" font-size="10.00">/ComPWA/ComPWA/Core</text>
<text text-anchor="middle" x="79.5" y="-96.5" font-family="Helvetica,sans-Serif" font-size="10.00">/FunctionTree/ParameterList.cpp</text>
</a>
</g>
</g>
<!-- Node1&#45;&gt;Node2 -->
<g id="edge1" class="edge"><title>Node1&#45;&gt;Node2</title>
<path fill="none" stroke="midnightblue" d="M678.266,-182.775C565.053,-175.934 349.201,-160.161 167.5,-131 164.716,-130.553 161.888,-130.07 159.036,-129.559"/>
<polygon fill="midnightblue" stroke="midnightblue" points="678.374,-186.287 688.564,-183.389 678.791,-179.3 678.374,-186.287"/>
</g>
<!-- Node3 -->
<g id="node3" class="node"><title>Node3</title>
<g id="a_node3"><a xlink:href="DataSet_8cpp.html" target="_top" xlink:title="/home/travis/build\l/ComPWA/ComPWA/Data\l/DataSet.cpp">
<polygon fill="white" stroke="black" points="177,-89.5 177,-130.5 312,-130.5 312,-89.5 177,-89.5"/>
<text text-anchor="start" x="185" y="-118.5" font-family="Helvetica,sans-Serif" font-size="10.00">/home/travis/build</text>
<text text-anchor="start" x="185" y="-107.5" font-family="Helvetica,sans-Serif" font-size="10.00">/ComPWA/ComPWA/Data</text>
<text text-anchor="middle" x="244.5" y="-96.5" font-family="Helvetica,sans-Serif" font-size="10.00">/DataSet.cpp</text>
</a>
</g>
</g>
<!-- Node1&#45;&gt;Node3 -->
<g id="edge2" class="edge"><title>Node1&#45;&gt;Node3</title>
<path fill="none" stroke="midnightblue" d="M678.534,-179.955C591.116,-171.364 445.367,-154.961 321.5,-131 318.517,-130.423 315.478,-129.797 312.414,-129.136"/>
<polygon fill="midnightblue" stroke="midnightblue" points="678.346,-183.453 688.638,-180.939 679.024,-176.486 678.346,-183.453"/>
</g>
<!-- Node4 -->
<g id="node4" class="node"><title>Node4</title>
<g id="a_node4"><a xlink:href="Generate_8cpp.html" target="_top" xlink:title="/home/travis/build\l/ComPWA/ComPWA/Data\l/Generate.cpp">
<polygon fill="white" stroke="black" points="330,-89.5 330,-130.5 465,-130.5 465,-89.5 330,-89.5"/>
<text text-anchor="start" x="338" y="-118.5" font-family="Helvetica,sans-Serif" font-size="10.00">/home/travis/build</text>
<text text-anchor="start" x="338" y="-107.5" font-family="Helvetica,sans-Serif" font-size="10.00">/ComPWA/ComPWA/Data</text>
<text text-anchor="middle" x="397.5" y="-96.5" font-family="Helvetica,sans-Serif" font-size="10.00">/Generate.cpp</text>
</a>
</g>
</g>
<!-- Node1&#45;&gt;Node4 -->
<g id="edge3" class="edge"><title>Node1&#45;&gt;Node4</title>
<path fill="none" stroke="midnightblue" d="M678.762,-172.821C621.983,-162.159 543.234,-146.737 474.5,-131 471.403,-130.291 468.242,-129.548 465.052,-128.783"/>
<polygon fill="midnightblue" stroke="midnightblue" points="678.272,-176.29 688.745,-174.689 679.56,-169.409 678.272,-176.29"/>
</g>
<!-- Node5 -->
<g id="node5" class="node"><title>Node5</title>
<g id="a_node5"><a xlink:href="MinLogLH_8cpp.html" target="_top" xlink:title="/home/travis/build\l/ComPWA/ComPWA/Estimator\l/MinLogLH/MinLogLH.cpp">
<polygon fill="white" stroke="black" points="483.5,-89.5 483.5,-130.5 639.5,-130.5 639.5,-89.5 483.5,-89.5"/>
<text text-anchor="start" x="491.5" y="-118.5" font-family="Helvetica,sans-Serif" font-size="10.00">/home/travis/build</text>
<text text-anchor="start" x="491.5" y="-107.5" font-family="Helvetica,sans-Serif" font-size="10.00">/ComPWA/ComPWA/Estimator</text>
<text text-anchor="middle" x="561.5" y="-96.5" font-family="Helvetica,sans-Serif" font-size="10.00">/MinLogLH/MinLogLH.cpp</text>
</a>
</g>
</g>
<!-- Node1&#45;&gt;Node5 -->
<g id="edge4" class="edge"><title>Node1&#45;&gt;Node5</title>
<path fill="none" stroke="midnightblue" d="M696.841,-163.748C669.544,-153.11 637.565,-140.646 611.547,-130.506"/>
<polygon fill="midnightblue" stroke="midnightblue" points="695.694,-167.058 706.283,-167.428 698.236,-160.536 695.694,-167.058"/>
</g>
<!-- Node6 -->
<g id="node6" class="node"><title>Node6</title>
<g id="a_node6"><a xlink:href="DalitzFitApp_8cpp.html" target="_top" xlink:title="Simple Dalitz plot analysis with ComPWA. ">
<polygon fill="white" stroke="black" points="417.5,-6 417.5,-47 575.5,-47 575.5,-6 417.5,-6"/>
<text text-anchor="start" x="425.5" y="-35" font-family="Helvetica,sans-Serif" font-size="10.00">/home/travis/build</text>
<text text-anchor="start" x="425.5" y="-24" font-family="Helvetica,sans-Serif" font-size="10.00">/ComPWA/ComPWA/Examples</text>
<text text-anchor="middle" x="496.5" y="-13" font-family="Helvetica,sans-Serif" font-size="10.00">/DalitzFit/DalitzFitApp.cpp</text>
</a>
</g>
</g>
<!-- Node1&#45;&gt;Node6 -->
<g id="edge5" class="edge"><title>Node1&#45;&gt;Node6</title>
<path fill="none" stroke="midnightblue" d="M729.212,-160.194C703.211,-135.038 665.576,-99.7222 648.5,-89 620.775,-71.5916 587.286,-57.413 558.806,-47.0754"/>
<polygon fill="midnightblue" stroke="midnightblue" points="726.929,-162.856 736.54,-167.314 731.806,-157.835 726.929,-162.856"/>
</g>
<!-- Node7 -->
<g id="node7" class="node"><title>Node7</title>
<g id="a_node7"><a xlink:href="SimFit_8cpp.html" target="_top" xlink:title="/home/travis/build\l/ComPWA/ComPWA/Examples\l/SimFit/SimFit.cpp">
<polygon fill="white" stroke="black" points="593.5,-6 593.5,-47 751.5,-47 751.5,-6 593.5,-6"/>
<text text-anchor="start" x="601.5" y="-35" font-family="Helvetica,sans-Serif" font-size="10.00">/home/travis/build</text>
<text text-anchor="start" x="601.5" y="-24" font-family="Helvetica,sans-Serif" font-size="10.00">/ComPWA/ComPWA/Examples</text>
<text text-anchor="middle" x="672.5" y="-13" font-family="Helvetica,sans-Serif" font-size="10.00">/SimFit/SimFit.cpp</text>
</a>
</g>
</g>
<!-- Node1&#45;&gt;Node7 -->
<g id="edge6" class="edge"><title>Node1&#45;&gt;Node7</title>
<path fill="none" stroke="midnightblue" d="M739.929,-158.685C734.876,-149.87 729.371,-140.081 724.5,-131 709.006,-102.116 692.161,-68.0536 681.967,-47.1175"/>
<polygon fill="midnightblue" stroke="midnightblue" points="736.956,-160.535 744.985,-167.447 743.018,-157.037 736.956,-160.535"/>
</g>
<!-- Node8 -->
<g id="node8" class="node"><title>Node8</title>
<g id="a_node8"><a xlink:href="BuilderXML_8hpp.html" target="_top" xlink:title="/home/travis/build\l/ComPWA/ComPWA/Physics\l/BuilderXML.hpp">
<polygon fill="white" stroke="black" points="733,-89.5 733,-130.5 882,-130.5 882,-89.5 733,-89.5"/>
<text text-anchor="start" x="741" y="-118.5" font-family="Helvetica,sans-Serif" font-size="10.00">/home/travis/build</text>
<text text-anchor="start" x="741" y="-107.5" font-family="Helvetica,sans-Serif" font-size="10.00">/ComPWA/ComPWA/Physics</text>
<text text-anchor="middle" x="807.5" y="-96.5" font-family="Helvetica,sans-Serif" font-size="10.00">/BuilderXML.hpp</text>
</a>
</g>
</g>
<!-- Node1&#45;&gt;Node8 -->
<g id="edge7" class="edge"><title>Node1&#45;&gt;Node8</title>
<path fill="none" stroke="midnightblue" d="M775.258,-159.048C781.62,-149.566 788.587,-139.185 794.411,-130.506"/>
<polygon fill="midnightblue" stroke="midnightblue" points="772.3,-157.174 769.634,-167.428 778.112,-161.075 772.3,-157.174"/>
</g>
<!-- Node10 -->
<g id="node10" class="node"><title>Node10</title>
<g id="a_node10"><a xlink:href="BuilderXML_8cpp.html" target="_top" xlink:title="/home/travis/build\l/ComPWA/ComPWA/Physics\l/BuilderXML.cpp">
<polygon fill="white" stroke="black" points="1105,-6 1105,-47 1254,-47 1254,-6 1105,-6"/>
<text text-anchor="start" x="1113" y="-35" font-family="Helvetica,sans-Serif" font-size="10.00">/home/travis/build</text>
<text text-anchor="start" x="1113" y="-24" font-family="Helvetica,sans-Serif" font-size="10.00">/ComPWA/ComPWA/Physics</text>
<text text-anchor="middle" x="1179.5" y="-13" font-family="Helvetica,sans-Serif" font-size="10.00">/BuilderXML.cpp</text>
</a>
</g>
</g>
<!-- Node1&#45;&gt;Node10 -->
<g id="edge13" class="edge"><title>Node1&#45;&gt;Node10</title>
<path fill="none" stroke="midnightblue" d="M829.615,-163.709C850.634,-155.197 872.887,-144.313 891.5,-131 911.734,-116.527 907.034,-101.573 928.5,-89 994.391,-50.4065 1022.6,-72.2312 1096.5,-53 1103.5,-51.1777 1110.8,-49.1423 1118.03,-47.0378"/>
<polygon fill="midnightblue" stroke="midnightblue" points="828.095,-160.546 820.062,-167.454 830.649,-167.063 828.095,-160.546"/>
</g>
<!-- Node12 -->
<g id="node12" class="node"><title>Node12</title>
<g id="a_node12"><a xlink:href="FitFractions_8cpp.html" target="_top" xlink:title="/home/travis/build\l/ComPWA/ComPWA/Tools\l/FitFractions.cpp">
<polygon fill="white" stroke="black" points="937.5,-89.5 937.5,-130.5 1075.5,-130.5 1075.5,-89.5 937.5,-89.5"/>
<text text-anchor="start" x="945.5" y="-118.5" font-family="Helvetica,sans-Serif" font-size="10.00">/home/travis/build</text>
<text text-anchor="start" x="945.5" y="-107.5" font-family="Helvetica,sans-Serif" font-size="10.00">/ComPWA/ComPWA/Tools</text>
<text text-anchor="middle" x="1006.5" y="-96.5" font-family="Helvetica,sans-Serif" font-size="10.00">/FitFractions.cpp</text>
</a>
</g>
</g>
<!-- Node1&#45;&gt;Node12 -->
<g id="edge14" class="edge"><title>Node1&#45;&gt;Node12</title>
<path fill="none" stroke="midnightblue" d="M830.703,-164.442C866.187,-153.655 908.253,-140.867 942.337,-130.506"/>
<polygon fill="midnightblue" stroke="midnightblue" points="829.431,-161.171 820.881,-167.428 831.467,-167.868 829.431,-161.171"/>
</g>
<!-- Node13 -->
<g id="node13" class="node"><title>Node13</title>
<g id="a_node13"><a xlink:href="Integration_8cpp.html" target="_top" xlink:title="/home/travis/build\l/ComPWA/ComPWA/Tools\l/Integration.cpp">
<polygon fill="white" stroke="black" points="1093.5,-89.5 1093.5,-130.5 1231.5,-130.5 1231.5,-89.5 1093.5,-89.5"/>
<text text-anchor="start" x="1101.5" y="-118.5" font-family="Helvetica,sans-Serif" font-size="10.00">/home/travis/build</text>
<text text-anchor="start" x="1101.5" y="-107.5" font-family="Helvetica,sans-Serif" font-size="10.00">/ComPWA/ComPWA/Tools</text>
<text text-anchor="middle" x="1162.5" y="-96.5" font-family="Helvetica,sans-Serif" font-size="10.00">/Integration.cpp</text>
</a>
</g>
</g>
<!-- Node1&#45;&gt;Node13 -->
<g id="edge15" class="edge"><title>Node1&#45;&gt;Node13</title>
<path fill="none" stroke="midnightblue" d="M834.034,-175.596C900.713,-165.352 999.322,-149.16 1084.5,-131 1087.37,-130.388 1090.3,-129.742 1093.25,-129.071"/>
<polygon fill="midnightblue" stroke="midnightblue" points="833.38,-172.156 824.023,-177.126 834.437,-179.075 833.38,-172.156"/>
</g>
<!-- Node14 -->
<g id="node14" class="node"><title>Node14</title>
<g id="a_node14"><a xlink:href="DalitzPlot_8cpp.html" target="_top" xlink:title="/home/travis/build\l/ComPWA/ComPWA/Tools\l/Plotting/DalitzPlot.cpp">
<polygon fill="white" stroke="black" points="1249.5,-89.5 1249.5,-130.5 1387.5,-130.5 1387.5,-89.5 1249.5,-89.5"/>
<text text-anchor="start" x="1257.5" y="-118.5" font-family="Helvetica,sans-Serif" font-size="10.00">/home/travis/build</text>
<text text-anchor="start" x="1257.5" y="-107.5" font-family="Helvetica,sans-Serif" font-size="10.00">/ComPWA/ComPWA/Tools</text>
<text text-anchor="middle" x="1318.5" y="-96.5" font-family="Helvetica,sans-Serif" font-size="10.00">/Plotting/DalitzPlot.cpp</text>
</a>
</g>
</g>
<!-- Node1&#45;&gt;Node14 -->
<g id="edge16" class="edge"><title>Node1&#45;&gt;Node14</title>
<path fill="none" stroke="midnightblue" d="M834.478,-181.258C930.537,-173.433 1098.46,-157.302 1240.5,-131 1243.39,-130.465 1246.32,-129.884 1249.29,-129.267"/>
<polygon fill="midnightblue" stroke="midnightblue" points="833.955,-177.789 824.268,-182.081 834.517,-184.766 833.955,-177.789"/>
</g>
<!-- Node15 -->
<g id="node15" class="node"><title>Node15</title>
<g id="a_node15"><a xlink:href="RootPlotData_8cpp.html" target="_top" xlink:title="/home/travis/build\l/ComPWA/ComPWA/Tools\l/Plotting/RootPlotData.cpp">
<polygon fill="white" stroke="black" points="1405.5,-89.5 1405.5,-130.5 1543.5,-130.5 1543.5,-89.5 1405.5,-89.5"/>
<text text-anchor="start" x="1413.5" y="-118.5" font-family="Helvetica,sans-Serif" font-size="10.00">/home/travis/build</text>
<text text-anchor="start" x="1413.5" y="-107.5" font-family="Helvetica,sans-Serif" font-size="10.00">/ComPWA/ComPWA/Tools</text>
<text text-anchor="middle" x="1474.5" y="-96.5" font-family="Helvetica,sans-Serif" font-size="10.00">/Plotting/RootPlotData.cpp</text>
</a>
</g>
</g>
<!-- Node1&#45;&gt;Node15 -->
<g id="edge17" class="edge"><title>Node1&#45;&gt;Node15</title>
<path fill="none" stroke="midnightblue" d="M834.506,-184.291C955.566,-179.162 1195.66,-165.298 1396.5,-131 1399.39,-130.506 1402.34,-129.958 1405.3,-129.369"/>
<polygon fill="midnightblue" stroke="midnightblue" points="834.075,-180.805 824.228,-184.717 834.365,-187.799 834.075,-180.805"/>
</g>
<!-- Node8&#45;&gt;Node6 -->
<g id="edge9" class="edge"><title>Node8&#45;&gt;Node6</title>
<path fill="none" stroke="midnightblue" d="M723.129,-88.5727C681.333,-78.2603 630.163,-65.345 584.5,-53 577.59,-51.1319 570.391,-49.1327 563.216,-47.1061"/>
<polygon fill="midnightblue" stroke="midnightblue" points="722.446,-92.0089 732.993,-91.001 724.119,-85.2119 722.446,-92.0089"/>
</g>
<!-- Node8&#45;&gt;Node7 -->
<g id="edge10" class="edge"><title>Node8&#45;&gt;Node7</title>
<path fill="none" stroke="midnightblue" d="M766.4,-84.1878C746.715,-72.3041 723.475,-58.2738 705.04,-47.1445"/>
<polygon fill="midnightblue" stroke="midnightblue" points="764.794,-87.3067 775.164,-89.4787 768.412,-81.3141 764.794,-87.3067"/>
</g>
<!-- Node9 -->
<g id="node9" class="node"><title>Node9</title>
<g id="a_node9"><a xlink:href="DalitzFitD03K_8cpp.html" target="_top" xlink:title="Executable for Dalitz plot analysis of the decay D0 &#45;&gt; K_S K+ K&#45;. ">
<polygon fill="white" stroke="black" points="929.5,-0.5 929.5,-52.5 1087.5,-52.5 1087.5,-0.5 929.5,-0.5"/>
<text text-anchor="start" x="937.5" y="-40.5" font-family="Helvetica,sans-Serif" font-size="10.00">/home/travis/build</text>
<text text-anchor="start" x="937.5" y="-29.5" font-family="Helvetica,sans-Serif" font-size="10.00">/ComPWA/ComPWA/Examples</text>
<text text-anchor="start" x="937.5" y="-18.5" font-family="Helvetica,sans-Serif" font-size="10.00">/DalitzAnalysis_D0KsKK</text>
<text text-anchor="middle" x="1008.5" y="-7.5" font-family="Helvetica,sans-Serif" font-size="10.00">/DalitzFitD03K.cpp</text>
</a>
</g>
</g>
<!-- Node8&#45;&gt;Node9 -->
<g id="edge8" class="edge"><title>Node8&#45;&gt;Node9</title>
<path fill="none" stroke="midnightblue" d="M865.177,-85.6135C890.674,-75.2751 920.695,-63.1027 946.655,-52.5764"/>
<polygon fill="midnightblue" stroke="midnightblue" points="863.597,-82.4776 855.645,-89.4787 866.227,-88.9646 863.597,-82.4776"/>
</g>
<!-- Node8&#45;&gt;Node10 -->
<g id="edge11" class="edge"><title>Node8&#45;&gt;Node10</title>
<path fill="none" stroke="midnightblue" d="M892.256,-89.6635C893.343,-89.4395 894.425,-89.2183 895.5,-89 984.439,-70.9386 1008.3,-74.3655 1096.5,-53 1103.83,-51.2256 1111.46,-49.1716 1118.99,-47.0148"/>
<polygon fill="midnightblue" stroke="midnightblue" points="891.41,-86.2646 882.342,-91.743 892.847,-93.1155 891.41,-86.2646"/>
</g>
<!-- Node11 -->
<g id="node11" class="node"><title>Node11</title>
<g id="a_node11"><a xlink:href="BOSSAdapter_8cpp.html" target="_top" xlink:title="/home/travis/build\l/ComPWA/ComPWA/Tools\l/Adapters/BOSSAdapter.cpp">
<polygon fill="white" stroke="black" points="769.5,-6 769.5,-47 911.5,-47 911.5,-6 769.5,-6"/>
<text text-anchor="start" x="777.5" y="-35" font-family="Helvetica,sans-Serif" font-size="10.00">/home/travis/build</text>
<text text-anchor="start" x="777.5" y="-24" font-family="Helvetica,sans-Serif" font-size="10.00">/ComPWA/ComPWA/Tools</text>
<text text-anchor="middle" x="840.5" y="-13" font-family="Helvetica,sans-Serif" font-size="10.00">/Adapters/BOSSAdapter.cpp</text>
</a>
</g>
</g>
<!-- Node8&#45;&gt;Node11 -->
<g id="edge12" class="edge"><title>Node8&#45;&gt;Node11</title>
<path fill="none" stroke="midnightblue" d="M819.351,-79.7309C823.748,-68.8725 828.624,-56.83 832.585,-47.0472"/>
<polygon fill="midnightblue" stroke="midnightblue" points="815.997,-78.6885 815.488,-89.2711 822.486,-81.3157 815.997,-78.6885"/>
</g>
</g>
</svg>
