<?xml version="1.0" encoding="UTF-8" standalone="no"?>
<!DOCTYPE svg PUBLIC "-//W3C//DTD SVG 1.1//EN"
 "http://www.w3.org/Graphics/SVG/1.1/DTD/svg11.dtd">
<!-- Generated by graphviz version 2.38.0 (20140413.2041)
 -->
<!-- Title: /home/travis/build/ComPWA/ComPWA/ThirdParty/tbb/src/tbb/tools_api Pages: 1 -->
<svg width="116pt" height="183pt"
 viewBox="0.00 0.00 116.00 183.00" xmlns="http://www.w3.org/2000/svg" xmlns:xlink="http://www.w3.org/1999/xlink">
<g id="graph0" class="graph" transform="scale(1 1) rotate(0) translate(4 179)">
<title>/home/travis/build/ComPWA/ComPWA/ThirdParty/tbb/src/tbb/tools_api</title>
<polygon fill="white" stroke="none" points="-4,4 -4,-179 112,-179 112,4 -4,4"/>
<g id="clust1" class="cluster"><title>clusterdir_dcf0c15374d6008202f3019aa24a1906</title>
<g id="a_clust1"><a xlink:href="dir_dcf0c15374d6008202f3019aa24a1906.html" target="_top" xlink:title="tbb">
<polygon fill="#ddddee" stroke="black" points="8,-8 8,-167 100,-167 100,-8 8,-8"/>
<text text-anchor="middle" x="54" y="-155" font-family="Helvetica,sans-Serif" font-size="10.00">tbb</text>
</a>
</g>
</g>
<g id="clust2" class="cluster"><title>clusterdir_37291136fe50ce9e13317a5b63855aeb</title>
<g id="a_clust2"><a xlink:href="dir_37291136fe50ce9e13317a5b63855aeb.html" target="_top">
<polygon fill="#eeeeff" stroke="black" points="16,-16 16,-140 92,-140 92,-16 16,-16"/>
</a>
</g>
</g>
<!-- dir_37291136fe50ce9e13317a5b63855aeb -->
<g id="node1" class="node"><title>dir_37291136fe50ce9e13317a5b63855aeb</title>
<text text-anchor="middle" x="54" y="-111.5" font-family="Helvetica,sans-Serif" font-size="10.00">tools_api</text>
</g>
<!-- dir_b9bd81a6676d086b0708d50fad075bd4 -->
<g id="node2" class="node"><title>dir_b9bd81a6676d086b0708d50fad075bd4</title>
<g id="a_node2"><a xlink:href="dir_b9bd81a6676d086b0708d50fad075bd4.html" target="_top" xlink:title="legacy">
<polygon fill="white" stroke="black" points="81,-60 27,-60 27,-24 81,-24 81,-60"/>
<text text-anchor="middle" x="54" y="-39.5" font-family="Helvetica,sans-Serif" font-size="10.00">legacy</text>
</a>
</g>
</g>
<!-- dir_37291136fe50ce9e13317a5b63855aeb&#45;&gt;dir_b9bd81a6676d086b0708d50fad075bd4 -->
<g id="edge1" class="edge"><title>dir_37291136fe50ce9e13317a5b63855aeb&#45;&gt;dir_b9bd81a6676d086b0708d50fad075bd4</title>
<path fill="none" stroke="black" d="M54,-95.6966C54,-87.9827 54,-78.7125 54,-70.1124"/>
<polygon fill="black" stroke="black" points="57.5001,-70.1043 54,-60.1043 50.5001,-70.1044 57.5001,-70.1043"/>
<g id="a_edge1&#45;headlabel"><a xlink:href="dir_000118_000119.html" target="_top" xlink:title="1">
<text text-anchor="middle" x="60.3393" y="-71.199" font-family="Helvetica,sans-Serif" font-size="10.00">1</text>
</a>
</g>
</g>
</g>
</svg>
