<?xml version="1.0" encoding="UTF-8" standalone="no"?>
<!DOCTYPE svg PUBLIC "-//W3C//DTD SVG 1.1//EN"
 "http://www.w3.org/Graphics/SVG/1.1/DTD/svg11.dtd">
<!-- Generated by graphviz version 2.38.0 (20140413.2041)
 -->
<!-- Title: /home/travis/build/ComPWA/ComPWA/Physics/Dynamics Pages: 1 -->
<svg width="174pt" height="183pt"
 viewBox="0.00 0.00 174.00 183.00" xmlns="http://www.w3.org/2000/svg" xmlns:xlink="http://www.w3.org/1999/xlink">
<g id="graph0" class="graph" transform="scale(1 1) rotate(0) translate(4 179)">
<title>/home/travis/build/ComPWA/ComPWA/Physics/Dynamics</title>
<polygon fill="white" stroke="none" points="-4,4 -4,-179 170,-179 170,4 -4,4"/>
<g id="clust1" class="cluster"><title>clusterdir_fd3a82303f5206df56505f8b5712131f</title>
<g id="a_clust1"><a xlink:href="dir_fd3a82303f5206df56505f8b5712131f.html" target="_top" xlink:title="Physics">
<polygon fill="#ddddee" stroke="black" points="8,-8 8,-167 104,-167 104,-8 8,-8"/>
<text text-anchor="middle" x="56" y="-155" font-family="Helvetica,sans-Serif" font-size="10.00">Physics</text>
</a>
</g>
</g>
<g id="clust2" class="cluster"><title>clusterdir_b81b515296d7f9ec90a4731241afa56b</title>
<g id="a_clust2"><a xlink:href="dir_b81b515296d7f9ec90a4731241afa56b.html" target="_top">
<polygon fill="#eeeeff" stroke="black" points="16,-16 16,-140 96,-140 96,-16 16,-16"/>
</a>
</g>
</g>
<!-- dir_b81b515296d7f9ec90a4731241afa56b -->
<g id="node1" class="node"><title>dir_b81b515296d7f9ec90a4731241afa56b</title>
<text text-anchor="middle" x="56" y="-111.5" font-family="Helvetica,sans-Serif" font-size="10.00">Dynamics</text>
</g>
<!-- dir_dba38d83a669f82d0ee1a3cc97eecb47 -->
<g id="node2" class="node"><title>dir_dba38d83a669f82d0ee1a3cc97eecb47</title>
<g id="a_node2"><a xlink:href="dir_dba38d83a669f82d0ee1a3cc97eecb47.html" target="_top" xlink:title="Utils">
<polygon fill="white" stroke="black" points="83,-60 29,-60 29,-24 83,-24 83,-60"/>
<text text-anchor="middle" x="56" y="-39.5" font-family="Helvetica,sans-Serif" font-size="10.00">Utils</text>
</a>
</g>
</g>
<!-- dir_b81b515296d7f9ec90a4731241afa56b&#45;&gt;dir_dba38d83a669f82d0ee1a3cc97eecb47 -->
<g id="edge2" class="edge"><title>dir_b81b515296d7f9ec90a4731241afa56b&#45;&gt;dir_dba38d83a669f82d0ee1a3cc97eecb47</title>
<path fill="none" stroke="black" d="M56,-95.6966C56,-87.9827 56,-78.7125 56,-70.1124"/>
<polygon fill="black" stroke="black" points="59.5001,-70.1043 56,-60.1043 52.5001,-70.1044 59.5001,-70.1043"/>
<g id="a_edge2&#45;headlabel"><a xlink:href="dir_000018_000019.html" target="_top" xlink:title="1">
<text text-anchor="middle" x="62.3393" y="-71.199" font-family="Helvetica,sans-Serif" font-size="10.00">1</text>
</a>
</g>
</g>
<!-- dir_c6310732a22f63c0c2fc5595561e68f1 -->
<g id="node3" class="node"><title>dir_c6310732a22f63c0c2fc5595561e68f1</title>
<g id="a_node3"><a xlink:href="dir_c6310732a22f63c0c2fc5595561e68f1.html" target="_top" xlink:title="Core">
<polygon fill="white" stroke="red" points="166,-60 112,-60 112,-24 166,-24 166,-60"/>
<text text-anchor="middle" x="139" y="-39.5" font-family="Helvetica,sans-Serif" font-size="10.00">Core</text>
</a>
</g>
</g>
<!-- dir_b81b515296d7f9ec90a4731241afa56b&#45;&gt;dir_c6310732a22f63c0c2fc5595561e68f1 -->
<g id="edge1" class="edge"><title>dir_b81b515296d7f9ec90a4731241afa56b&#45;&gt;dir_c6310732a22f63c0c2fc5595561e68f1</title>
<path fill="none" stroke="black" d="M76.5169,-95.6966C86.8695,-86.9655 99.5863,-76.2405 110.839,-66.7503"/>
<polygon fill="black" stroke="black" points="113.331,-69.2269 118.719,-60.1043 108.818,-63.8759 113.331,-69.2269"/>
<g id="a_edge1&#45;headlabel"><a xlink:href="dir_000018_000000.html" target="_top" xlink:title="7">
<text text-anchor="middle" x="112.414" y="-71.2148" font-family="Helvetica,sans-Serif" font-size="10.00">7</text>
</a>
</g>
</g>
</g>
</svg>
