<?xml version="1.0" encoding="UTF-8" standalone="no"?>
<!DOCTYPE svg PUBLIC "-//W3C//DTD SVG 1.1//EN"
 "http://www.w3.org/Graphics/SVG/1.1/DTD/svg11.dtd">
<!-- Generated by graphviz version 2.38.0 (20140413.2041)
 -->
<!-- Title: /home/travis/build/ComPWA/ComPWA/ThirdParty/tbb/examples/parallel_reduce/primes Pages: 1 -->
<svg width="140pt" height="151pt"
 viewBox="0.00 0.00 139.50 151.00" xmlns="http://www.w3.org/2000/svg" xmlns:xlink="http://www.w3.org/1999/xlink">
<g id="graph0" class="graph" transform="scale(1 1) rotate(0) translate(4 147)">
<title>/home/travis/build/ComPWA/ComPWA/ThirdParty/tbb/examples/parallel_reduce/primes</title>
<polygon fill="white" stroke="none" points="-4,4 -4,-147 135.5,-147 135.5,4 -4,4"/>
<g id="clust1" class="cluster"><title>clusterdir_060cdd97ce0b5bb2616fb71372278692</title>
<g id="a_clust1"><a xlink:href="dir_060cdd97ce0b5bb2616fb71372278692.html" target="_top" xlink:title="parallel_reduce">
<polygon fill="#ddddee" stroke="black" points="20,-64 20,-135 109,-135 109,-64 20,-64"/>
<text text-anchor="middle" x="64.5" y="-123" font-family="Helvetica,sans-Serif" font-size="10.00">parallel_reduce</text>
</a>
</g>
</g>
<!-- dir_3b1624a5fde4cab04c10a610baf59d8c -->
<g id="node1" class="node"><title>dir_3b1624a5fde4cab04c10a610baf59d8c</title>
<g id="a_node1"><a xlink:href="dir_3b1624a5fde4cab04c10a610baf59d8c.html" target="_top" xlink:title="primes">
<polygon fill="#eeeeff" stroke="black" points="91,-108 37,-108 37,-72 91,-72 91,-108"/>
<text text-anchor="middle" x="64" y="-87.5" font-family="Helvetica,sans-Serif" font-size="10.00">primes</text>
</a>
</g>
</g>
<!-- dir_b77d0d54a92a18af8fe1be96c1446f33 -->
<g id="node2" class="node"><title>dir_b77d0d54a92a18af8fe1be96c1446f33</title>
<g id="a_node2"><a xlink:href="dir_b77d0d54a92a18af8fe1be96c1446f33.html" target="_top" xlink:title="include">
<polygon fill="white" stroke="red" points="54,-36 0,-36 0,-0 54,-0 54,-36"/>
<text text-anchor="middle" x="27" y="-15.5" font-family="Helvetica,sans-Serif" font-size="10.00">include</text>
</a>
</g>
</g>
<!-- dir_3b1624a5fde4cab04c10a610baf59d8c&#45;&gt;dir_b77d0d54a92a18af8fe1be96c1446f33 -->
<g id="edge1" class="edge"><title>dir_3b1624a5fde4cab04c10a610baf59d8c&#45;&gt;dir_b77d0d54a92a18af8fe1be96c1446f33</title>
<path fill="none" stroke="black" d="M54.8539,-71.6966C50.5974,-63.6436 45.4442,-53.8945 40.7336,-44.9824"/>
<polygon fill="black" stroke="black" points="43.8083,-43.3097 36.0409,-36.1043 37.6197,-46.5809 43.8083,-43.3097"/>
<g id="a_edge1&#45;headlabel"><a xlink:href="dir_000067_000037.html" target="_top" xlink:title="4">
<text text-anchor="middle" x="47.9982" y="-42.6609" font-family="Helvetica,sans-Serif" font-size="10.00">4</text>
</a>
</g>
</g>
<!-- dir_9dd5d094a796c872fb7ed19e69e87c93 -->
<g id="node3" class="node"><title>dir_9dd5d094a796c872fb7ed19e69e87c93</title>
<g id="a_node3"><a xlink:href="dir_9dd5d094a796c872fb7ed19e69e87c93.html" target="_top" xlink:title="common">
<polygon fill="white" stroke="red" points="131.5,-36 72.5,-36 72.5,-0 131.5,-0 131.5,-36"/>
<text text-anchor="middle" x="102" y="-15.5" font-family="Helvetica,sans-Serif" font-size="10.00">common</text>
</a>
</g>
</g>
<!-- dir_3b1624a5fde4cab04c10a610baf59d8c&#45;&gt;dir_9dd5d094a796c872fb7ed19e69e87c93 -->
<g id="edge2" class="edge"><title>dir_3b1624a5fde4cab04c10a610baf59d8c&#45;&gt;dir_9dd5d094a796c872fb7ed19e69e87c93</title>
<path fill="none" stroke="black" d="M73.3933,-71.6966C77.7649,-63.6436 83.0573,-53.8945 87.8953,-44.9824"/>
<polygon fill="black" stroke="black" points="91.0198,-46.5627 92.7148,-36.1043 84.8678,-43.223 91.0198,-46.5627"/>
<g id="a_edge2&#45;headlabel"><a xlink:href="dir_000067_000042.html" target="_top" xlink:title="1">
<text text-anchor="middle" x="91.8002" y="-48.5764" font-family="Helvetica,sans-Serif" font-size="10.00">1</text>
</a>
</g>
</g>
</g>
</svg>
