<?xml version="1.0" encoding="UTF-8" standalone="no"?>
<!DOCTYPE svg PUBLIC "-//W3C//DTD SVG 1.1//EN"
 "http://www.w3.org/Graphics/SVG/1.1/DTD/svg11.dtd">
<!-- Generated by graphviz version 2.38.0 (20140413.2041)
 -->
<!-- Title: /home/travis/build/ComPWA/ComPWA/ThirdParty/tbb/examples/concurrent_hash_map Pages: 1 -->
<svg width="280pt" height="159pt"
 viewBox="0.00 0.00 280.00 159.00" xmlns="http://www.w3.org/2000/svg" xmlns:xlink="http://www.w3.org/1999/xlink">
<g id="graph0" class="graph" transform="scale(1 1) rotate(0) translate(4 155)">
<title>/home/travis/build/ComPWA/ComPWA/ThirdParty/tbb/examples/concurrent_hash_map</title>
<polygon fill="white" stroke="none" points="-4,4 -4,-155 276,-155 276,4 -4,4"/>
<g id="clust1" class="cluster"><title>clusterdir_9120db56d5c6e3d0054de45954f4726d</title>
<g id="a_clust1"><a xlink:href="dir_9120db56d5c6e3d0054de45954f4726d.html" target="_top" xlink:title="examples">
<polygon fill="#ddddee" stroke="black" points="8,-56 8,-143 264,-143 264,-56 8,-56"/>
<text text-anchor="middle" x="136" y="-131" font-family="Helvetica,sans-Serif" font-size="10.00">examples</text>
</a>
</g>
</g>
<g id="clust2" class="cluster"><title>clusterdir_09c9b540427e3add15a855e11531769e</title>
<g id="a_clust2"><a xlink:href="dir_09c9b540427e3add15a855e11531769e.html" target="_top">
<polygon fill="#eeeeff" stroke="black" points="16,-64 16,-116 256,-116 256,-64 16,-64"/>
</a>
</g>
</g>
<!-- dir_09c9b540427e3add15a855e11531769e -->
<g id="node1" class="node"><title>dir_09c9b540427e3add15a855e11531769e</title>
<text text-anchor="middle" x="186" y="-87.5" font-family="Helvetica,sans-Serif" font-size="10.00">concurrent_hash_map</text>
</g>
<!-- dir_4eed8953d13439a3f4b63e741de50e76 -->
<g id="node2" class="node"><title>dir_4eed8953d13439a3f4b63e741de50e76</title>
<g id="a_node2"><a xlink:href="dir_4eed8953d13439a3f4b63e741de50e76.html" target="_top" xlink:title="count_strings">
<polygon fill="white" stroke="black" points="105.5,-108 24.5,-108 24.5,-72 105.5,-72 105.5,-108"/>
<text text-anchor="middle" x="65" y="-87.5" font-family="Helvetica,sans-Serif" font-size="10.00">count_strings</text>
</a>
</g>
</g>
<!-- dir_b77d0d54a92a18af8fe1be96c1446f33 -->
<g id="node3" class="node"><title>dir_b77d0d54a92a18af8fe1be96c1446f33</title>
<g id="a_node3"><a xlink:href="dir_b77d0d54a92a18af8fe1be96c1446f33.html" target="_top" xlink:title="include">
<polygon fill="white" stroke="red" points="55,-36 1,-36 1,-0 55,-0 55,-36"/>
<text text-anchor="middle" x="28" y="-15.5" font-family="Helvetica,sans-Serif" font-size="10.00">include</text>
</a>
</g>
</g>
<!-- dir_4eed8953d13439a3f4b63e741de50e76&#45;&gt;dir_b77d0d54a92a18af8fe1be96c1446f33 -->
<g id="edge1" class="edge"><title>dir_4eed8953d13439a3f4b63e741de50e76&#45;&gt;dir_b77d0d54a92a18af8fe1be96c1446f33</title>
<path fill="none" stroke="black" d="M55.8539,-71.6966C51.5974,-63.6436 46.4442,-53.8945 41.7336,-44.9824"/>
<polygon fill="black" stroke="black" points="44.8083,-43.3097 37.0409,-36.1043 38.6197,-46.5809 44.8083,-43.3097"/>
<g id="a_edge1&#45;headlabel"><a xlink:href="dir_000060_000049.html" target="_top" xlink:title="5">
<text text-anchor="middle" x="48.9982" y="-42.6609" font-family="Helvetica,sans-Serif" font-size="10.00">5</text>
</a>
</g>
</g>
<!-- dir_9dd5d094a796c872fb7ed19e69e87c93 -->
<g id="node4" class="node"><title>dir_9dd5d094a796c872fb7ed19e69e87c93</title>
<g id="a_node4"><a xlink:href="dir_9dd5d094a796c872fb7ed19e69e87c93.html" target="_top" xlink:title="common">
<polygon fill="white" stroke="red" points="132.5,-36 73.5,-36 73.5,-0 132.5,-0 132.5,-36"/>
<text text-anchor="middle" x="103" y="-15.5" font-family="Helvetica,sans-Serif" font-size="10.00">common</text>
</a>
</g>
</g>
<!-- dir_4eed8953d13439a3f4b63e741de50e76&#45;&gt;dir_9dd5d094a796c872fb7ed19e69e87c93 -->
<g id="edge2" class="edge"><title>dir_4eed8953d13439a3f4b63e741de50e76&#45;&gt;dir_9dd5d094a796c872fb7ed19e69e87c93</title>
<path fill="none" stroke="black" d="M74.3933,-71.6966C78.7649,-63.6436 84.0573,-53.8945 88.8953,-44.9824"/>
<polygon fill="black" stroke="black" points="92.0198,-46.5627 93.7148,-36.1043 85.8678,-43.223 92.0198,-46.5627"/>
<g id="a_edge2&#45;headlabel"><a xlink:href="dir_000060_000054.html" target="_top" xlink:title="1">
<text text-anchor="middle" x="92.8002" y="-48.5764" font-family="Helvetica,sans-Serif" font-size="10.00">1</text>
</a>
</g>
</g>
</g>
</svg>
