<?xml version="1.0" encoding="UTF-8" standalone="no"?>
<!DOCTYPE svg PUBLIC "-//W3C//DTD SVG 1.1//EN"
 "http://www.w3.org/Graphics/SVG/1.1/DTD/svg11.dtd">
<!-- Generated by graphviz version 2.38.0 (20140413.2041)
 -->
<!-- Title: /home/travis/build/ComPWA/ComPWA/Optimizer/Minuit2/test Pages: 1 -->
<svg width="110pt" height="223pt"
 viewBox="0.00 0.00 109.50 223.00" xmlns="http://www.w3.org/2000/svg" xmlns:xlink="http://www.w3.org/1999/xlink">
<g id="graph0" class="graph" transform="scale(1 1) rotate(0) translate(4 219)">
<title>/home/travis/build/ComPWA/ComPWA/Optimizer/Minuit2/test</title>
<polygon fill="white" stroke="none" points="-4,4 -4,-219 105.5,-219 105.5,4 -4,4"/>
<g id="clust1" class="cluster"><title>clusterdir_caa2dac0b56f144f46b244d3175735bb</title>
<g id="a_clust1"><a xlink:href="dir_caa2dac0b56f144f46b244d3175735bb.html" target="_top" xlink:title="Minuit2">
<polygon fill="#ddddee" stroke="black" points="23.5,-136 23.5,-207 93.5,-207 93.5,-136 23.5,-136"/>
<text text-anchor="middle" x="58.5" y="-195" font-family="Helvetica,sans-Serif" font-size="10.00">Minuit2</text>
</a>
</g>
</g>
<!-- dir_9befc42b542c6ca2e5f9110241727c04 -->
<g id="node1" class="node"><title>dir_9befc42b542c6ca2e5f9110241727c04</title>
<g id="a_node1"><a xlink:href="dir_9befc42b542c6ca2e5f9110241727c04.html" target="_top" xlink:title="test">
<polygon fill="#eeeeff" stroke="black" points="85.5,-180 31.5,-180 31.5,-144 85.5,-144 85.5,-180"/>
<text text-anchor="middle" x="58.5" y="-159.5" font-family="Helvetica,sans-Serif" font-size="10.00">test</text>
</a>
</g>
</g>
<!-- dir_c6310732a22f63c0c2fc5595561e68f1 -->
<g id="node2" class="node"><title>dir_c6310732a22f63c0c2fc5595561e68f1</title>
<g id="a_node2"><a xlink:href="dir_c6310732a22f63c0c2fc5595561e68f1.html" target="_top" xlink:title="Core">
<polygon fill="white" stroke="red" points="58.5,-108 4.5,-108 4.5,-72 58.5,-72 58.5,-108"/>
<text text-anchor="middle" x="31.5" y="-87.5" font-family="Helvetica,sans-Serif" font-size="10.00">Core</text>
</a>
</g>
</g>
<!-- dir_9befc42b542c6ca2e5f9110241727c04&#45;&gt;dir_c6310732a22f63c0c2fc5595561e68f1 -->
<g id="edge3" class="edge"><title>dir_9befc42b542c6ca2e5f9110241727c04&#45;&gt;dir_c6310732a22f63c0c2fc5595561e68f1</title>
<path fill="none" stroke="black" d="M51.8258,-143.697C48.7851,-135.813 45.1173,-126.304 41.7393,-117.546"/>
<polygon fill="black" stroke="black" points="44.9617,-116.175 38.0974,-108.104 38.4307,-118.694 44.9617,-116.175"/>
<g id="a_edge3&#45;headlabel"><a xlink:href="dir_000025_000000.html" target="_top" xlink:title="1">
<text text-anchor="middle" x="48.9043" y="-116.007" font-family="Helvetica,sans-Serif" font-size="10.00">1</text>
</a>
</g>
</g>
<!-- dir_82ba6d9578c5e1685169ac2984cb18ca -->
<g id="node3" class="node"><title>dir_82ba6d9578c5e1685169ac2984cb18ca</title>
<g id="a_node3"><a xlink:href="dir_82ba6d9578c5e1685169ac2984cb18ca.html" target="_top" xlink:title="Estimator">
<polygon fill="white" stroke="red" points="63,-36 0,-36 0,-0 63,-0 63,-36"/>
<text text-anchor="middle" x="31.5" y="-15.5" font-family="Helvetica,sans-Serif" font-size="10.00">Estimator</text>
</a>
</g>
</g>
<!-- dir_9befc42b542c6ca2e5f9110241727c04&#45;&gt;dir_82ba6d9578c5e1685169ac2984cb18ca -->
<g id="edge4" class="edge"><title>dir_9befc42b542c6ca2e5f9110241727c04&#45;&gt;dir_82ba6d9578c5e1685169ac2984cb18ca</title>
<path fill="none" stroke="black" d="M64.1461,-143.877C69.2573,-125.661 74.9405,-96.196 67.5,-72 64.4911,-62.2153 58.993,-52.6161 53.1843,-44.3336"/>
<polygon fill="black" stroke="black" points="55.9072,-42.1306 47.1099,-36.2264 50.3052,-46.3279 55.9072,-42.1306"/>
<g id="a_edge4&#45;headlabel"><a xlink:href="dir_000025_000010.html" target="_top" xlink:title="1">
<text text-anchor="middle" x="60.3348" y="-40.8048" font-family="Helvetica,sans-Serif" font-size="10.00">1</text>
</a>
</g>
</g>
<!-- dir_c6310732a22f63c0c2fc5595561e68f1&#45;&gt;dir_82ba6d9578c5e1685169ac2984cb18ca -->
<g id="edge1" class="edge"><title>dir_c6310732a22f63c0c2fc5595561e68f1&#45;&gt;dir_82ba6d9578c5e1685169ac2984cb18ca</title>
<path fill="none" stroke="black" d="M25.5843,-71.6966C24.7886,-63.9827 24.5621,-54.7125 24.9047,-46.1124"/>
<polygon fill="black" stroke="black" points="28.3984,-46.3243 25.605,-36.1043 21.4154,-45.8356 28.3984,-46.3243"/>
<g id="a_edge1&#45;headlabel"><a xlink:href="dir_000000_000010.html" target="_top" xlink:title="1">
<text text-anchor="middle" x="30.9799" y="-47.6083" font-family="Helvetica,sans-Serif" font-size="10.00">1</text>
</a>
</g>
</g>
<!-- dir_82ba6d9578c5e1685169ac2984cb18ca&#45;&gt;dir_c6310732a22f63c0c2fc5595561e68f1 -->
<g id="edge2" class="edge"><title>dir_82ba6d9578c5e1685169ac2984cb18ca&#45;&gt;dir_c6310732a22f63c0c2fc5595561e68f1</title>
<path fill="none" stroke="black" d="M37.395,-36.1043C38.2005,-43.7913 38.4369,-53.0537 38.104,-61.6651"/>
<polygon fill="black" stroke="black" points="34.6085,-61.4805 37.4157,-71.6966 41.5921,-61.9597 34.6085,-61.4805"/>
<g id="a_edge2&#45;headlabel"><a xlink:href="dir_000010_000000.html" target="_top" xlink:title="19">
<text text-anchor="middle" x="32.0219" y="-55.2" font-family="Helvetica,sans-Serif" font-size="10.00">19</text>
</a>
</g>
</g>
</g>
</svg>
