<?xml version="1.0" encoding="UTF-8" standalone="no"?>
<!DOCTYPE svg PUBLIC "-//W3C//DTD SVG 1.1//EN"
 "http://www.w3.org/Graphics/SVG/1.1/DTD/svg11.dtd">
<!-- Generated by graphviz version 2.40.1 (20161225.0304)
 -->
<!-- Title: Tools/Plotting Pages: 1 -->
<svg width="134pt" height="295pt"
 viewBox="0.00 0.00 134.00 295.00" xmlns="http://www.w3.org/2000/svg" xmlns:xlink="http://www.w3.org/1999/xlink">
<g id="graph0" class="graph" transform="scale(1 1) rotate(0) translate(4 291)">
<title>Tools/Plotting</title>
<polygon fill="#ffffff" stroke="transparent" points="-4,4 -4,-291 130,-291 130,4 -4,4"/>
<g id="clust1" class="cluster">
<title>clusterdir_7e461070e7b716e896e0d97cd6a82321</title>
<g id="a_clust1"><a xlink:href="dir_7e461070e7b716e896e0d97cd6a82321.html" target="_top" xlink:title="Tools">
<polygon fill="#ddddee" stroke="#000000" points="48,-208 48,-279 118,-279 118,-208 48,-208"/>
<text text-anchor="middle" x="83" y="-267" font-family="Helvetica,sans-Serif" font-size="10.00" fill="#000000">Tools</text>
</a>
</g>
</g>
<!-- dir_db7498b03d5368fa3321dfdf97dd487a -->
<g id="node1" class="node">
<title>dir_db7498b03d5368fa3321dfdf97dd487a</title>
<g id="a_node1"><a xlink:href="dir_db7498b03d5368fa3321dfdf97dd487a.html" target="_top" xlink:title="Plotting">
<polygon fill="#eeeeff" stroke="#000000" points="110,-252 56,-252 56,-216 110,-216 110,-252"/>
<text text-anchor="middle" x="83" y="-231.5" font-family="Helvetica,sans-Serif" font-size="10.00" fill="#000000">Plotting</text>
</a>
</g>
</g>
<!-- dir_e3d743d0ec9b4013b28b5d69101bc7fb -->
<g id="node2" class="node">
<title>dir_e3d743d0ec9b4013b28b5d69101bc7fb</title>
<g id="a_node2"><a xlink:href="dir_e3d743d0ec9b4013b28b5d69101bc7fb.html" target="_top" xlink:title="Data">
<polygon fill="#ffffff" stroke="#ff0000" points="110,-180 56,-180 56,-144 110,-144 110,-180"/>
<text text-anchor="middle" x="83" y="-159.5" font-family="Helvetica,sans-Serif" font-size="10.00" fill="#000000">Data</text>
</a>
</g>
</g>
<!-- dir_db7498b03d5368fa3321dfdf97dd487a&#45;&gt;dir_e3d743d0ec9b4013b28b5d69101bc7fb -->
<g id="edge6" class="edge">
<title>dir_db7498b03d5368fa3321dfdf97dd487a&#45;&gt;dir_e3d743d0ec9b4013b28b5d69101bc7fb</title>
<path fill="none" stroke="#000000" d="M83,-215.8314C83,-208.131 83,-198.9743 83,-190.4166"/>
<polygon fill="#000000" stroke="#000000" points="86.5001,-190.4132 83,-180.4133 79.5001,-190.4133 86.5001,-190.4132"/>
<g id="a_edge6&#45;headlabel"><a xlink:href="dir_000022_000002.html" target="_top" xlink:title="2">
<text text-anchor="middle" x="89.3393" y="-191.5079" font-family="Helvetica,sans-Serif" font-size="10.00" fill="#000000">2</text>
</a>
</g>
</g>
<!-- dir_fd3a82303f5206df56505f8b5712131f -->
<g id="node3" class="node">
<title>dir_fd3a82303f5206df56505f8b5712131f</title>
<g id="a_node3"><a xlink:href="dir_fd3a82303f5206df56505f8b5712131f.html" target="_top" xlink:title="Physics">
<polygon fill="#ffffff" stroke="#ff0000" points="54,-108 0,-108 0,-72 54,-72 54,-108"/>
<text text-anchor="middle" x="27" y="-87.5" font-family="Helvetica,sans-Serif" font-size="10.00" fill="#000000">Physics</text>
</a>
</g>
</g>
<!-- dir_db7498b03d5368fa3321dfdf97dd487a&#45;&gt;dir_fd3a82303f5206df56505f8b5712131f -->
<g id="edge7" class="edge">
<title>dir_db7498b03d5368fa3321dfdf97dd487a&#45;&gt;dir_fd3a82303f5206df56505f8b5712131f</title>
<path fill="none" stroke="#000000" d="M68.5303,-215.9844C61.1013,-205.9214 52.4837,-192.8504 47,-180 38.545,-160.1866 33.4523,-136.3311 30.5234,-118.1598"/>
<polygon fill="#000000" stroke="#000000" points="33.9738,-117.567 29.0399,-108.1912 27.0501,-118.5974 33.9738,-117.567"/>
<g id="a_edge7&#45;headlabel"><a xlink:href="dir_000022_000015.html" target="_top" xlink:title="2">
<text text-anchor="middle" x="37.3112" y="-118.2046" font-family="Helvetica,sans-Serif" font-size="10.00" fill="#000000">2</text>
</a>
</g>
</g>
<!-- dir_c6310732a22f63c0c2fc5595561e68f1 -->
<g id="node4" class="node">
<title>dir_c6310732a22f63c0c2fc5595561e68f1</title>
<g id="a_node4"><a xlink:href="dir_c6310732a22f63c0c2fc5595561e68f1.html" target="_top" xlink:title="Core">
<polygon fill="#ffffff" stroke="#ff0000" points="118,-36 64,-36 64,0 118,0 118,-36"/>
<text text-anchor="middle" x="91" y="-15.5" font-family="Helvetica,sans-Serif" font-size="10.00" fill="#000000">Core</text>
</a>
</g>
</g>
<!-- dir_db7498b03d5368fa3321dfdf97dd487a&#45;&gt;dir_c6310732a22f63c0c2fc5595561e68f1 -->
<g id="edge8" class="edge">
<title>dir_db7498b03d5368fa3321dfdf97dd487a&#45;&gt;dir_c6310732a22f63c0c2fc5595561e68f1</title>
<path fill="none" stroke="#000000" d="M98.9905,-215.9169C106.6538,-206.0371 115.0166,-193.1563 119,-180 132.9418,-133.9532 116.3843,-78.3096 103.4473,-45.6709"/>
<polygon fill="#000000" stroke="#000000" points="106.6368,-44.2247 99.5863,-36.3164 100.1663,-46.8953 106.6368,-44.2247"/>
<g id="a_edge8&#45;headlabel"><a xlink:href="dir_000022_000000.html" target="_top" xlink:title="14">
<text text-anchor="middle" x="110.6327" y="-43.9642" font-family="Helvetica,sans-Serif" font-size="10.00" fill="#000000">14</text>
</a>
</g>
</g>
<!-- dir_e3d743d0ec9b4013b28b5d69101bc7fb&#45;&gt;dir_fd3a82303f5206df56505f8b5712131f -->
<g id="edge1" class="edge">
<title>dir_e3d743d0ec9b4013b28b5d69101bc7fb&#45;&gt;dir_fd3a82303f5206df56505f8b5712131f</title>
<path fill="none" stroke="#000000" d="M62.9164,-143.8314C55.7324,-135.6232 47.8632,-125.7606 41.2447,-116.7323"/>
<polygon fill="#000000" stroke="#000000" points="43.985,-114.5459 35.3454,-108.4133 38.2749,-118.5951 43.985,-114.5459"/>
<g id="a_edge1&#45;headlabel"><a xlink:href="dir_000002_000015.html" target="_top" xlink:title="2">
<text text-anchor="middle" x="48.3803" y="-113.3357" font-family="Helvetica,sans-Serif" font-size="10.00" fill="#000000">2</text>
</a>
</g>
</g>
<!-- dir_e3d743d0ec9b4013b28b5d69101bc7fb&#45;&gt;dir_c6310732a22f63c0c2fc5595561e68f1 -->
<g id="edge2" class="edge">
<title>dir_e3d743d0ec9b4013b28b5d69101bc7fb&#45;&gt;dir_c6310732a22f63c0c2fc5595561e68f1</title>
<path fill="none" stroke="#000000" d="M79.34,-143.7623C78.2447,-119.201 80.4119,-75.2474 83.9274,-46.3541"/>
<polygon fill="#000000" stroke="#000000" points="87.4438,-46.4728 85.3367,-36.0896 80.5089,-45.5205 87.4438,-46.4728"/>
<g id="a_edge2&#45;headlabel"><a xlink:href="dir_000002_000000.html" target="_top" xlink:title="35">
<text text-anchor="middle" x="89.7678" y="-47.9202" font-family="Helvetica,sans-Serif" font-size="10.00" fill="#000000">35</text>
</a>
</g>
</g>
<!-- dir_fd3a82303f5206df56505f8b5712131f&#45;&gt;dir_e3d743d0ec9b4013b28b5d69101bc7fb -->
<g id="edge3" class="edge">
<title>dir_fd3a82303f5206df56505f8b5712131f&#45;&gt;dir_e3d743d0ec9b4013b28b5d69101bc7fb</title>
<path fill="none" stroke="#000000" d="M47.2974,-108.4133C54.4948,-116.654 62.3583,-126.5245 68.9518,-135.536"/>
<polygon fill="#000000" stroke="#000000" points="66.1881,-137.6897 74.8212,-143.8314 71.9024,-133.6465 66.1881,-137.6897"/>
<g id="a_edge3&#45;headlabel"><a xlink:href="dir_000015_000002.html" target="_top" xlink:title="5">
<text text-anchor="middle" x="61.7942" y="-133.8952" font-family="Helvetica,sans-Serif" font-size="10.00" fill="#000000">5</text>
</a>
</g>
</g>
<!-- dir_fd3a82303f5206df56505f8b5712131f&#45;&gt;dir_c6310732a22f63c0c2fc5595561e68f1 -->
<g id="edge4" class="edge">
<title>dir_fd3a82303f5206df56505f8b5712131f&#45;&gt;dir_c6310732a22f63c0c2fc5595561e68f1</title>
<path fill="none" stroke="#000000" d="M43.1499,-71.8314C50.6717,-63.3694 59.7565,-53.1489 67.9804,-43.8971"/>
<polygon fill="#000000" stroke="#000000" points="70.6049,-46.2127 74.6327,-36.4133 65.373,-41.5621 70.6049,-46.2127"/>
<g id="a_edge4&#45;headlabel"><a xlink:href="dir_000015_000000.html" target="_top" xlink:title="30">
<text text-anchor="middle" x="70.3389" y="-48.2856" font-family="Helvetica,sans-Serif" font-size="10.00" fill="#000000">30</text>
</a>
</g>
</g>
<!-- dir_c6310732a22f63c0c2fc5595561e68f1&#45;&gt;dir_e3d743d0ec9b4013b28b5d69101bc7fb -->
<g id="edge5" class="edge">
<title>dir_c6310732a22f63c0c2fc5595561e68f1&#45;&gt;dir_e3d743d0ec9b4013b28b5d69101bc7fb</title>
<path fill="none" stroke="#000000" d="M94.6533,-36.0896C95.7666,-60.6805 93.5848,-104.905 90.0474,-133.8531"/>
<polygon fill="#000000" stroke="#000000" points="86.5797,-133.379 88.6864,-143.7623 93.5146,-134.3316 86.5797,-133.379"/>
<g id="a_edge5&#45;headlabel"><a xlink:href="dir_000000_000002.html" target="_top" xlink:title="2">
<text text-anchor="middle" x="84.2559" y="-126.9315" font-family="Helvetica,sans-Serif" font-size="10.00" fill="#000000">2</text>
</a>
</g>
</g>
</g>
</svg>
