<?xml version="1.0" encoding="UTF-8" standalone="no"?>
<!DOCTYPE svg PUBLIC "-//W3C//DTD SVG 1.1//EN"
 "http://www.w3.org/Graphics/SVG/1.1/DTD/svg11.dtd">
<!-- Generated by graphviz version 2.38.0 (20140413.2041)
 -->
<!-- Title: /home/travis/build/ComPWA/ComPWA/ThirdParty/tbb/src/test Pages: 1 -->
<svg width="166pt" height="367pt"
 viewBox="0.00 0.00 165.92 367.00" xmlns="http://www.w3.org/2000/svg" xmlns:xlink="http://www.w3.org/1999/xlink">
<g id="graph0" class="graph" transform="scale(1 1) rotate(0) translate(4 363)">
<title>/home/travis/build/ComPWA/ComPWA/ThirdParty/tbb/src/test</title>
<polygon fill="white" stroke="none" points="-4,4 -4,-363 161.918,-363 161.918,4 -4,4"/>
<g id="clust1" class="cluster"><title>clusterdir_099c44ac00260e8ebac22d5a7d1e3544</title>
<g id="a_clust1"><a xlink:href="dir_099c44ac00260e8ebac22d5a7d1e3544.html" target="_top" xlink:title="src">
<polygon fill="#ddddee" stroke="black" points="49.9176,-280 49.9176,-351 119.918,-351 119.918,-280 49.9176,-280"/>
<text text-anchor="middle" x="84.9176" y="-339" font-family="Helvetica,sans-Serif" font-size="10.00">src</text>
</a>
</g>
</g>
<!-- dir_533e44a844cf73b8e8271f16535af18a -->
<g id="node1" class="node"><title>dir_533e44a844cf73b8e8271f16535af18a</title>
<g id="a_node1"><a xlink:href="dir_533e44a844cf73b8e8271f16535af18a.html" target="_top" xlink:title="test">
<polygon fill="#eeeeff" stroke="black" points="111.918,-324 57.9176,-324 57.9176,-288 111.918,-288 111.918,-324"/>
<text text-anchor="middle" x="84.9176" y="-303.5" font-family="Helvetica,sans-Serif" font-size="10.00">test</text>
</a>
</g>
</g>
<!-- dir_b77d0d54a92a18af8fe1be96c1446f33 -->
<g id="node2" class="node"><title>dir_b77d0d54a92a18af8fe1be96c1446f33</title>
<g id="a_node2"><a xlink:href="dir_b77d0d54a92a18af8fe1be96c1446f33.html" target="_top" xlink:title="include">
<polygon fill="white" stroke="red" points="83.9176,-36 29.9176,-36 29.9176,-0 83.9176,-0 83.9176,-36"/>
<text text-anchor="middle" x="56.9176" y="-15.5" font-family="Helvetica,sans-Serif" font-size="10.00">include</text>
</a>
</g>
</g>
<!-- dir_533e44a844cf73b8e8271f16535af18a&#45;&gt;dir_b77d0d54a92a18af8fe1be96c1446f33 -->
<g id="edge7" class="edge"><title>dir_533e44a844cf73b8e8271f16535af18a&#45;&gt;dir_b77d0d54a92a18af8fe1be96c1446f33</title>
<path fill="none" stroke="black" d="M57.8472,-292.717C41.893,-283.879 23.0874,-270.288 13.9176,-252 -20.6941,-182.971 18.5785,-89.8887 41.9881,-45.1488"/>
<polygon fill="black" stroke="black" points="45.1952,-46.5747 46.8495,-36.1098 39.0303,-43.259 45.1952,-46.5747"/>
<g id="a_edge7&#45;headlabel"><a xlink:href="dir_000122_000049.html" target="_top" xlink:title="328">
<text text-anchor="middle" x="45.9932" y="-48.5853" font-family="Helvetica,sans-Serif" font-size="10.00">328</text>
</a>
</g>
</g>
<!-- dir_eeb7c5395a51df82d4eb834344d7c52d -->
<g id="node3" class="node"><title>dir_eeb7c5395a51df82d4eb834344d7c52d</title>
<g id="a_node3"><a xlink:href="dir_eeb7c5395a51df82d4eb834344d7c52d.html" target="_top" xlink:title="tbbmalloc">
<polygon fill="none" stroke="black" points="86.9176,-252 22.9176,-252 22.9176,-216 86.9176,-216 86.9176,-252"/>
<text text-anchor="middle" x="54.9176" y="-231.5" font-family="Helvetica,sans-Serif" font-size="10.00">tbbmalloc</text>
</a>
</g>
</g>
<!-- dir_533e44a844cf73b8e8271f16535af18a&#45;&gt;dir_eeb7c5395a51df82d4eb834344d7c52d -->
<g id="edge8" class="edge"><title>dir_533e44a844cf73b8e8271f16535af18a&#45;&gt;dir_eeb7c5395a51df82d4eb834344d7c52d</title>
<path fill="none" stroke="black" d="M77.5019,-287.697C74.1233,-279.813 70.048,-270.304 66.2947,-261.546"/>
<polygon fill="black" stroke="black" points="69.4043,-259.917 62.2481,-252.104 62.9703,-262.675 69.4043,-259.917"/>
<g id="a_edge8&#45;headlabel"><a xlink:href="dir_000122_000120.html" target="_top" xlink:title="7">
<text text-anchor="middle" x="73.43" y="-259.603" font-family="Helvetica,sans-Serif" font-size="10.00">7</text>
</a>
</g>
</g>
<!-- dir_dcf0c15374d6008202f3019aa24a1906 -->
<g id="node4" class="node"><title>dir_dcf0c15374d6008202f3019aa24a1906</title>
<g id="a_node4"><a xlink:href="dir_dcf0c15374d6008202f3019aa24a1906.html" target="_top" xlink:title="tbb">
<polygon fill="white" stroke="red" points="124.918,-180 70.9176,-180 70.9176,-144 124.918,-144 124.918,-180"/>
<text text-anchor="middle" x="97.9176" y="-159.5" font-family="Helvetica,sans-Serif" font-size="10.00">tbb</text>
</a>
</g>
</g>
<!-- dir_533e44a844cf73b8e8271f16535af18a&#45;&gt;dir_dcf0c15374d6008202f3019aa24a1906 -->
<g id="edge9" class="edge"><title>dir_533e44a844cf73b8e8271f16535af18a&#45;&gt;dir_dcf0c15374d6008202f3019aa24a1906</title>
<path fill="none" stroke="black" d="M89.2827,-287.942C91.7184,-277.616 94.5334,-264.138 95.9176,-252 98.2671,-231.399 98.7033,-207.948 98.5864,-190.292"/>
<polygon fill="black" stroke="black" points="102.084,-190.078 98.4542,-180.125 95.0846,-190.169 102.084,-190.078"/>
<g id="a_edge9&#45;headlabel"><a xlink:href="dir_000122_000116.html" target="_top" xlink:title="30">
<text text-anchor="middle" x="104.97" y="-191.136" font-family="Helvetica,sans-Serif" font-size="10.00">30</text>
</a>
</g>
</g>
<!-- dir_fcb91c671b0e400bf918c1280340715a -->
<g id="node5" class="node"><title>dir_fcb91c671b0e400bf918c1280340715a</title>
<g id="a_node5"><a xlink:href="dir_fcb91c671b0e400bf918c1280340715a.html" target="_top" xlink:title="rml">
<polygon fill="white" stroke="red" points="157.918,-108 103.918,-108 103.918,-72 157.918,-72 157.918,-108"/>
<text text-anchor="middle" x="130.918" y="-87.5" font-family="Helvetica,sans-Serif" font-size="10.00">rml</text>
</a>
</g>
</g>
<!-- dir_533e44a844cf73b8e8271f16535af18a&#45;&gt;dir_fcb91c671b0e400bf918c1280340715a -->
<g id="edge10" class="edge"><title>dir_533e44a844cf73b8e8271f16535af18a&#45;&gt;dir_fcb91c671b0e400bf918c1280340715a</title>
<path fill="none" stroke="black" d="M94.705,-287.692C100.218,-277.506 106.968,-264.256 111.918,-252 124.449,-220.975 128.975,-213.093 133.918,-180 136.281,-164.176 134.37,-159.994 133.918,-144 133.682,-135.673 133.239,-126.619 132.764,-118.389"/>
<polygon fill="black" stroke="black" points="136.243,-117.942 132.136,-108.175 129.256,-118.371 136.243,-117.942"/>
<g id="a_edge10&#45;headlabel"><a xlink:href="dir_000122_000110.html" target="_top" xlink:title="1">
<text text-anchor="middle" x="139.298" y="-118.855" font-family="Helvetica,sans-Serif" font-size="10.00">1</text>
</a>
</g>
</g>
<!-- dir_eeb7c5395a51df82d4eb834344d7c52d&#45;&gt;dir_b77d0d54a92a18af8fe1be96c1446f33 -->
<g id="edge1" class="edge"><title>dir_eeb7c5395a51df82d4eb834344d7c52d&#45;&gt;dir_b77d0d54a92a18af8fe1be96c1446f33</title>
<path fill="none" stroke="black" d="M55.0779,-215.849C55.4239,-178.832 56.2431,-91.1809 56.6617,-46.3863"/>
<polygon fill="black" stroke="black" points="60.1629,-46.2648 56.7566,-36.2325 53.1632,-46.1993 60.1629,-46.2648"/>
<g id="a_edge1&#45;headlabel"><a xlink:href="dir_000120_000049.html" target="_top" xlink:title="7">
<text text-anchor="middle" x="62.9685" y="-47.3857" font-family="Helvetica,sans-Serif" font-size="10.00">7</text>
</a>
</g>
</g>
<!-- dir_eeb7c5395a51df82d4eb834344d7c52d&#45;&gt;dir_dcf0c15374d6008202f3019aa24a1906 -->
<g id="edge2" class="edge"><title>dir_eeb7c5395a51df82d4eb834344d7c52d&#45;&gt;dir_dcf0c15374d6008202f3019aa24a1906</title>
<path fill="none" stroke="black" d="M65.5469,-215.697C70.5458,-207.559 76.6087,-197.689 82.1297,-188.701"/>
<polygon fill="black" stroke="black" points="85.1587,-190.457 87.4107,-180.104 79.1942,-186.793 85.1587,-190.457"/>
<g id="a_edge2&#45;headlabel"><a xlink:href="dir_000120_000116.html" target="_top" xlink:title="3">
<text text-anchor="middle" x="85.6966" y="-192.506" font-family="Helvetica,sans-Serif" font-size="10.00">3</text>
</a>
</g>
</g>
<!-- dir_dcf0c15374d6008202f3019aa24a1906&#45;&gt;dir_b77d0d54a92a18af8fe1be96c1446f33 -->
<g id="edge3" class="edge"><title>dir_dcf0c15374d6008202f3019aa24a1906&#45;&gt;dir_b77d0d54a92a18af8fe1be96c1446f33</title>
<path fill="none" stroke="black" d="M92.9721,-143.871C85.9536,-119.564 73.0343,-74.8187 64.7172,-46.0132"/>
<polygon fill="black" stroke="black" points="68.0175,-44.8259 61.8807,-36.1893 61.2922,-46.7677 68.0175,-44.8259"/>
<g id="a_edge3&#45;headlabel"><a xlink:href="dir_000116_000049.html" target="_top" xlink:title="94">
<text text-anchor="middle" x="71.7424" y="-44.9918" font-family="Helvetica,sans-Serif" font-size="10.00">94</text>
</a>
</g>
</g>
<!-- dir_dcf0c15374d6008202f3019aa24a1906&#45;&gt;dir_fcb91c671b0e400bf918c1280340715a -->
<g id="edge4" class="edge"><title>dir_dcf0c15374d6008202f3019aa24a1906&#45;&gt;dir_fcb91c671b0e400bf918c1280340715a</title>
<path fill="none" stroke="black" d="M100.159,-143.697C103.125,-135.644 107.511,-125.894 112.122,-116.982"/>
<polygon fill="black" stroke="black" points="115.248,-118.56 116.959,-108.104 109.101,-115.211 115.248,-118.56"/>
<g id="a_edge4&#45;headlabel"><a xlink:href="dir_000116_000110.html" target="_top" xlink:title="6">
<text text-anchor="middle" x="116.022" y="-120.575" font-family="Helvetica,sans-Serif" font-size="10.00">6</text>
</a>
</g>
</g>
<!-- dir_fcb91c671b0e400bf918c1280340715a&#45;&gt;dir_b77d0d54a92a18af8fe1be96c1446f33 -->
<g id="edge5" class="edge"><title>dir_fcb91c671b0e400bf918c1280340715a&#45;&gt;dir_b77d0d54a92a18af8fe1be96c1446f33</title>
<path fill="none" stroke="black" d="M112.626,-71.6966C103.485,-63.0503 92.2775,-52.4486 82.3177,-43.027"/>
<polygon fill="black" stroke="black" points="84.6693,-40.4337 74.9994,-36.1043 79.8589,-45.519 84.6693,-40.4337"/>
<g id="a_edge5&#45;headlabel"><a xlink:href="dir_000110_000049.html" target="_top" xlink:title="30">
<text text-anchor="middle" x="89.2318" y="-38.3413" font-family="Helvetica,sans-Serif" font-size="10.00">30</text>
</a>
</g>
</g>
<!-- dir_fcb91c671b0e400bf918c1280340715a&#45;&gt;dir_dcf0c15374d6008202f3019aa24a1906 -->
<g id="edge6" class="edge"><title>dir_fcb91c671b0e400bf918c1280340715a&#45;&gt;dir_dcf0c15374d6008202f3019aa24a1906</title>
<path fill="none" stroke="black" d="M128.749,-108.104C125.807,-116.129 121.435,-125.871 116.827,-134.797"/>
<polygon fill="black" stroke="black" points="113.691,-133.239 111.991,-143.697 119.841,-136.582 113.691,-133.239"/>
<g id="a_edge6&#45;headlabel"><a xlink:href="dir_000110_000116.html" target="_top" xlink:title="8">
<text text-anchor="middle" x="112.912" y="-126.225" font-family="Helvetica,sans-Serif" font-size="10.00">8</text>
</a>
</g>
</g>
</g>
</svg>
