<?xml version="1.0" encoding="UTF-8" standalone="no"?>
<!DOCTYPE svg PUBLIC "-//W3C//DTD SVG 1.1//EN"
 "http://www.w3.org/Graphics/SVG/1.1/DTD/svg11.dtd">
<!-- Generated by graphviz version 2.38.0 (20140413.2041)
 -->
<!-- Title: /home/travis/build/ComPWA/ComPWA/ThirdParty Pages: 1 -->
<svg width="432pt" height="204pt"
 viewBox="0.00 0.00 432.00 204.00" xmlns="http://www.w3.org/2000/svg" xmlns:xlink="http://www.w3.org/1999/xlink">
<g id="graph0" class="graph" transform="scale(1 1) rotate(0) translate(4 200)">
<title>/home/travis/build/ComPWA/ComPWA/ThirdParty</title>
<polygon fill="white" stroke="none" points="-4,4 -4,-200 428,-200 428,4 -4,4"/>
<g id="clust1" class="cluster"><title>clusterdir_ca6cabe6faa89642a99ddef30fe3d137</title>
<g id="a_clust1"><a xlink:href="dir_ca6cabe6faa89642a99ddef30fe3d137.html" target="_top">
<polygon fill="#eeeeff" stroke="black" points="8,-8 8,-132 416,-132 416,-8 8,-8"/>
</a>
</g>
</g>
<!-- dir_ca6cabe6faa89642a99ddef30fe3d137 -->
<g id="node1" class="node"><title>dir_ca6cabe6faa89642a99ddef30fe3d137</title>
<text text-anchor="middle" x="376" y="-103.5" font-family="Helvetica,sans-Serif" font-size="10.00">ThirdParty</text>
</g>
<!-- dir_020dfe95bec47d567f46cc0fc921bd6f -->
<g id="node2" class="node"><title>dir_020dfe95bec47d567f46cc0fc921bd6f</title>
<g id="a_node2"><a xlink:href="dir_020dfe95bec47d567f46cc0fc921bd6f.html" target="_top" xlink:title="easyloggingpp">
<polygon fill="white" stroke="black" points="326,-124 240,-124 240,-88 326,-88 326,-124"/>
<text text-anchor="middle" x="283" y="-103.5" font-family="Helvetica,sans-Serif" font-size="10.00">easyloggingpp</text>
</a>
</g>
</g>
<!-- dir_8967683f30c998f881488b2fe615abb9 -->
<g id="node3" class="node"><title>dir_8967683f30c998f881488b2fe615abb9</title>
<g id="a_node3"><a xlink:href="dir_8967683f30c998f881488b2fe615abb9.html" target="_top" xlink:title="EvtGen">
<polygon fill="white" stroke="black" points="222,-124 168,-124 168,-88 222,-88 222,-124"/>
<text text-anchor="middle" x="195" y="-103.5" font-family="Helvetica,sans-Serif" font-size="10.00">EvtGen</text>
</a>
</g>
</g>
<!-- dir_93ca9b579f0a6b73584dab43acf22db7 -->
<g id="node4" class="node"><title>dir_93ca9b579f0a6b73584dab43acf22db7</title>
<g id="a_node4"><a xlink:href="dir_93ca9b579f0a6b73584dab43acf22db7.html" target="_top" xlink:title="parallelstl">
<polygon fill="white" stroke="red" points="150,-124 88,-124 88,-88 150,-88 150,-124"/>
<text text-anchor="middle" x="119" y="-103.5" font-family="Helvetica,sans-Serif" font-size="10.00">parallelstl</text>
</a>
</g>
</g>
<!-- dir_4ee327cceb5ec3d1099799d35924c881 -->
<g id="node6" class="node"><title>dir_4ee327cceb5ec3d1099799d35924c881</title>
<g id="a_node6"><a xlink:href="dir_4ee327cceb5ec3d1099799d35924c881.html" target="_top" xlink:title="tbb">
<polygon fill="white" stroke="red" points="146,-52 92,-52 92,-16 146,-16 146,-52"/>
<text text-anchor="middle" x="119" y="-31.5" font-family="Helvetica,sans-Serif" font-size="10.00">tbb</text>
</a>
</g>
</g>
<!-- dir_93ca9b579f0a6b73584dab43acf22db7&#45;&gt;dir_4ee327cceb5ec3d1099799d35924c881 -->
<g id="edge1" class="edge"><title>dir_93ca9b579f0a6b73584dab43acf22db7&#45;&gt;dir_4ee327cceb5ec3d1099799d35924c881</title>
<path fill="none" stroke="black" d="M119,-87.6966C119,-79.9827 119,-70.7125 119,-62.1124"/>
<polygon fill="black" stroke="black" points="122.5,-62.1043 119,-52.1043 115.5,-62.1044 122.5,-62.1043"/>
<g id="a_edge1&#45;headlabel"><a xlink:href="dir_000036_000044.html" target="_top" xlink:title="7">
<text text-anchor="middle" x="125.339" y="-63.199" font-family="Helvetica,sans-Serif" font-size="10.00">7</text>
</a>
</g>
</g>
<!-- dir_6f4ccaa38033418448c52954e2831f72 -->
<g id="node5" class="node"><title>dir_6f4ccaa38033418448c52954e2831f72</title>
<g id="a_node5"><a xlink:href="dir_6f4ccaa38033418448c52954e2831f72.html" target="_top" xlink:title="qft++">
<polygon fill="white" stroke="red" points="70,-124 16,-124 16,-88 70,-88 70,-124"/>
<text text-anchor="middle" x="43" y="-103.5" font-family="Helvetica,sans-Serif" font-size="10.00">qft++</text>
</a>
</g>
</g>
<!-- dir_c6310732a22f63c0c2fc5595561e68f1 -->
<g id="node7" class="node"><title>dir_c6310732a22f63c0c2fc5595561e68f1</title>
<g id="a_node7"><a xlink:href="dir_c6310732a22f63c0c2fc5595561e68f1.html" target="_top" xlink:title="Core">
<polygon fill="white" stroke="red" points="310,-196 256,-196 256,-160 310,-160 310,-196"/>
<text text-anchor="middle" x="283" y="-175.5" font-family="Helvetica,sans-Serif" font-size="10.00">Core</text>
</a>
</g>
</g>
<!-- dir_6f4ccaa38033418448c52954e2831f72&#45;&gt;dir_c6310732a22f63c0c2fc5595561e68f1 -->
<g id="edge4" class="edge"><title>dir_6f4ccaa38033418448c52954e2831f72&#45;&gt;dir_c6310732a22f63c0c2fc5595561e68f1</title>
<path fill="none" stroke="black" d="M64.6677,-124.036C69.2162,-127.031 74.1193,-129.867 79,-132 134.298,-156.169 203.898,-167.931 245.844,-173.203"/>
<polygon fill="black" stroke="black" points="245.542,-176.692 255.887,-174.408 246.375,-169.742 245.542,-176.692"/>
<g id="a_edge4&#45;headlabel"><a xlink:href="dir_000051_000000.html" target="_top" xlink:title="1">
<text text-anchor="middle" x="241.634" y="-176.583" font-family="Helvetica,sans-Serif" font-size="10.00">1</text>
</a>
</g>
</g>
<!-- dir_c6310732a22f63c0c2fc5595561e68f1&#45;&gt;dir_ca6cabe6faa89642a99ddef30fe3d137 -->
<g id="edge3" class="edge"><title>dir_c6310732a22f63c0c2fc5595561e68f1&#45;&gt;dir_ca6cabe6faa89642a99ddef30fe3d137</title>
<path fill="none" stroke="black" d="M305.989,-159.697C317.814,-150.796 332.392,-139.823 345.179,-130.199"/>
<polygon fill="black" stroke="black" points="347.391,-132.915 353.276,-124.104 343.181,-127.322 347.391,-132.915"/>
<g id="a_edge3&#45;headlabel"><a xlink:href="dir_000000_000033.html" target="_top" xlink:title="1">
<text text-anchor="middle" x="346.226" y="-134.845" font-family="Helvetica,sans-Serif" font-size="10.00">1</text>
</a>
</g>
</g>
<!-- dir_c6310732a22f63c0c2fc5595561e68f1&#45;&gt;dir_020dfe95bec47d567f46cc0fc921bd6f -->
<g id="edge2" class="edge"><title>dir_c6310732a22f63c0c2fc5595561e68f1&#45;&gt;dir_020dfe95bec47d567f46cc0fc921bd6f</title>
<path fill="none" stroke="black" d="M283,-159.697C283,-151.983 283,-142.712 283,-134.112"/>
<polygon fill="black" stroke="black" points="286.5,-134.104 283,-124.104 279.5,-134.104 286.5,-134.104"/>
<g id="a_edge2&#45;headlabel"><a xlink:href="dir_000000_000034.html" target="_top" xlink:title="1">
<text text-anchor="middle" x="289.339" y="-135.199" font-family="Helvetica,sans-Serif" font-size="10.00">1</text>
</a>
</g>
</g>
</g>
</svg>
