<?xml version="1.0" encoding="UTF-8" standalone="no"?>
<!DOCTYPE svg PUBLIC "-//W3C//DTD SVG 1.1//EN"
 "http://www.w3.org/Graphics/SVG/1.1/DTD/svg11.dtd">
<!-- Generated by graphviz version 2.38.0 (20140413.2041)
 -->
<!-- Title: /home/travis/build/ComPWA/ComPWA/ThirdParty/tbb/examples/GettingStarted Pages: 1 -->
<svg width="260pt" height="159pt"
 viewBox="0.00 0.00 260.00 159.00" xmlns="http://www.w3.org/2000/svg" xmlns:xlink="http://www.w3.org/1999/xlink">
<g id="graph0" class="graph" transform="scale(1 1) rotate(0) translate(4 155)">
<title>/home/travis/build/ComPWA/ComPWA/ThirdParty/tbb/examples/GettingStarted</title>
<polygon fill="white" stroke="none" points="-4,4 -4,-155 256,-155 256,4 -4,4"/>
<g id="clust1" class="cluster"><title>clusterdir_9120db56d5c6e3d0054de45954f4726d</title>
<g id="a_clust1"><a xlink:href="dir_9120db56d5c6e3d0054de45954f4726d.html" target="_top" xlink:title="examples">
<polygon fill="#ddddee" stroke="black" points="8,-56 8,-143 244,-143 244,-56 8,-56"/>
<text text-anchor="middle" x="126" y="-131" font-family="Helvetica,sans-Serif" font-size="10.00">examples</text>
</a>
</g>
</g>
<g id="clust2" class="cluster"><title>clusterdir_5b7eba4fa7a3abc8387f62c35bbb7110</title>
<g id="a_clust2"><a xlink:href="dir_5b7eba4fa7a3abc8387f62c35bbb7110.html" target="_top">
<polygon fill="#eeeeff" stroke="black" points="16,-64 16,-116 236,-116 236,-64 16,-64"/>
</a>
</g>
</g>
<!-- dir_5b7eba4fa7a3abc8387f62c35bbb7110 -->
<g id="node1" class="node"><title>dir_5b7eba4fa7a3abc8387f62c35bbb7110</title>
<text text-anchor="middle" x="184" y="-87.5" font-family="Helvetica,sans-Serif" font-size="10.00">GettingStarted</text>
</g>
<!-- dir_601e876cbcaedaa771d556048f033bb9 -->
<g id="node2" class="node"><title>dir_601e876cbcaedaa771d556048f033bb9</title>
<g id="a_node2"><a xlink:href="dir_601e876cbcaedaa771d556048f033bb9.html" target="_top" xlink:title="sub_string_finder">
<polygon fill="white" stroke="black" points="122,-108 24,-108 24,-72 122,-72 122,-108"/>
<text text-anchor="middle" x="73" y="-87.5" font-family="Helvetica,sans-Serif" font-size="10.00">sub_string_finder</text>
</a>
</g>
</g>
<!-- dir_b77d0d54a92a18af8fe1be96c1446f33 -->
<g id="node3" class="node"><title>dir_b77d0d54a92a18af8fe1be96c1446f33</title>
<g id="a_node3"><a xlink:href="dir_b77d0d54a92a18af8fe1be96c1446f33.html" target="_top" xlink:title="include">
<polygon fill="white" stroke="red" points="100,-36 46,-36 46,-0 100,-0 100,-36"/>
<text text-anchor="middle" x="73" y="-15.5" font-family="Helvetica,sans-Serif" font-size="10.00">include</text>
</a>
</g>
</g>
<!-- dir_601e876cbcaedaa771d556048f033bb9&#45;&gt;dir_b77d0d54a92a18af8fe1be96c1446f33 -->
<g id="edge1" class="edge"><title>dir_601e876cbcaedaa771d556048f033bb9&#45;&gt;dir_b77d0d54a92a18af8fe1be96c1446f33</title>
<path fill="none" stroke="black" d="M73,-71.6966C73,-63.9827 73,-54.7125 73,-46.1124"/>
<polygon fill="black" stroke="black" points="76.5001,-46.1043 73,-36.1043 69.5001,-46.1044 76.5001,-46.1043"/>
<g id="a_edge1&#45;headlabel"><a xlink:href="dir_000052_000037.html" target="_top" xlink:title="4">
<text text-anchor="middle" x="79.3393" y="-47.199" font-family="Helvetica,sans-Serif" font-size="10.00">4</text>
</a>
</g>
</g>
</g>
</svg>
