<?xml version="1.0" encoding="UTF-8" standalone="no"?>
<!DOCTYPE svg PUBLIC "-//W3C//DTD SVG 1.1//EN"
 "http://www.w3.org/Graphics/SVG/1.1/DTD/svg11.dtd">
<!-- Generated by graphviz version 2.38.0 (20140413.2041)
 -->
<!-- Title: /home/travis/build/ComPWA/ComPWA/Data Pages: 1 -->
<svg width="326pt" height="204pt"
 viewBox="0.00 0.00 326.00 204.00" xmlns="http://www.w3.org/2000/svg" xmlns:xlink="http://www.w3.org/1999/xlink">
<g id="graph0" class="graph" transform="scale(1 1) rotate(0) translate(4 200)">
<title>/home/travis/build/ComPWA/ComPWA/Data</title>
<polygon fill="white" stroke="none" points="-4,4 -4,-200 322,-200 322,4 -4,4"/>
<g id="clust1" class="cluster"><title>clusterdir_e3d743d0ec9b4013b28b5d69101bc7fb</title>
<g id="a_clust1"><a xlink:href="dir_e3d743d0ec9b4013b28b5d69101bc7fb.html" target="_top">
<polygon fill="#eeeeff" stroke="black" points="8,-136 8,-188 310,-188 310,-136 8,-136"/>
</a>
</g>
</g>
<!-- dir_e3d743d0ec9b4013b28b5d69101bc7fb -->
<g id="node1" class="node"><title>dir_e3d743d0ec9b4013b28b5d69101bc7fb</title>
<text text-anchor="middle" x="203" y="-159.5" font-family="Helvetica,sans-Serif" font-size="10.00">Data</text>
</g>
<!-- dir_5d5bcffc91688794220ccdc0b9fec0fa -->
<g id="node2" class="node"><title>dir_5d5bcffc91688794220ccdc0b9fec0fa</title>
<g id="a_node2"><a xlink:href="dir_5d5bcffc91688794220ccdc0b9fec0fa.html" target="_top" xlink:title="AsciiReader">
<polygon fill="white" stroke="black" points="86,-180 16,-180 16,-144 86,-144 86,-180"/>
<text text-anchor="middle" x="51" y="-159.5" font-family="Helvetica,sans-Serif" font-size="10.00">AsciiReader</text>
</a>
</g>
</g>
<!-- dir_c6310732a22f63c0c2fc5595561e68f1 -->
<g id="node6" class="node"><title>dir_c6310732a22f63c0c2fc5595561e68f1</title>
<g id="a_node6"><a xlink:href="dir_c6310732a22f63c0c2fc5595561e68f1.html" target="_top" xlink:title="Core">
<polygon fill="white" stroke="red" points="193,-36 139,-36 139,-0 193,-0 193,-36"/>
<text text-anchor="middle" x="166" y="-15.5" font-family="Helvetica,sans-Serif" font-size="10.00">Core</text>
</a>
</g>
</g>
<!-- dir_5d5bcffc91688794220ccdc0b9fec0fa&#45;&gt;dir_c6310732a22f63c0c2fc5595561e68f1 -->
<g id="edge7" class="edge"><title>dir_5d5bcffc91688794220ccdc0b9fec0fa&#45;&gt;dir_c6310732a22f63c0c2fc5595561e68f1</title>
<path fill="none" stroke="black" d="M64.8717,-143.871C84.9893,-119.031 122.392,-72.8464 145.639,-44.1415"/>
<polygon fill="black" stroke="black" points="148.505,-46.1632 152.079,-36.1893 143.066,-41.7577 148.505,-46.1632"/>
<g id="a_edge7&#45;headlabel"><a xlink:href="dir_000003_000000.html" target="_top" xlink:title="2">
<text text-anchor="middle" x="148.45" y="-48.2435" font-family="Helvetica,sans-Serif" font-size="10.00">2</text>
</a>
</g>
</g>
<!-- dir_52d895fbf30778b876025c15dcde8728 -->
<g id="node3" class="node"><title>dir_52d895fbf30778b876025c15dcde8728</title>
<g id="a_node3"><a xlink:href="dir_52d895fbf30778b876025c15dcde8728.html" target="_top" xlink:title="EvtGen">
<polygon fill="white" stroke="black" points="158,-180 104,-180 104,-144 158,-144 158,-180"/>
<text text-anchor="middle" x="131" y="-159.5" font-family="Helvetica,sans-Serif" font-size="10.00">EvtGen</text>
</a>
</g>
</g>
<!-- dir_fd3a82303f5206df56505f8b5712131f -->
<g id="node5" class="node"><title>dir_fd3a82303f5206df56505f8b5712131f</title>
<g id="a_node5"><a xlink:href="dir_fd3a82303f5206df56505f8b5712131f.html" target="_top" xlink:title="Physics">
<polygon fill="white" stroke="red" points="225,-108 171,-108 171,-72 225,-72 225,-108"/>
<text text-anchor="middle" x="198" y="-87.5" font-family="Helvetica,sans-Serif" font-size="10.00">Physics</text>
</a>
</g>
</g>
<!-- dir_52d895fbf30778b876025c15dcde8728&#45;&gt;dir_fd3a82303f5206df56505f8b5712131f -->
<g id="edge1" class="edge"><title>dir_52d895fbf30778b876025c15dcde8728&#45;&gt;dir_fd3a82303f5206df56505f8b5712131f</title>
<path fill="none" stroke="black" d="M147.562,-143.697C155.675,-135.22 165.588,-124.864 174.471,-115.583"/>
<polygon fill="black" stroke="black" points="177.243,-117.749 181.629,-108.104 172.186,-112.908 177.243,-117.749"/>
<g id="a_edge1&#45;headlabel"><a xlink:href="dir_000004_000017.html" target="_top" xlink:title="1">
<text text-anchor="middle" x="176.808" y="-119.809" font-family="Helvetica,sans-Serif" font-size="10.00">1</text>
</a>
</g>
</g>
<!-- dir_52d895fbf30778b876025c15dcde8728&#45;&gt;dir_c6310732a22f63c0c2fc5595561e68f1 -->
<g id="edge2" class="edge"><title>dir_52d895fbf30778b876025c15dcde8728&#45;&gt;dir_c6310732a22f63c0c2fc5595561e68f1</title>
<path fill="none" stroke="black" d="M135.222,-143.871C141.213,-119.564 152.242,-74.8187 159.342,-46.0132"/>
<polygon fill="black" stroke="black" points="162.768,-46.7363 161.763,-36.1893 155.972,-45.061 162.768,-46.7363"/>
<g id="a_edge2&#45;headlabel"><a xlink:href="dir_000004_000000.html" target="_top" xlink:title="4">
<text text-anchor="middle" x="164.665" y="-48.4059" font-family="Helvetica,sans-Serif" font-size="10.00">4</text>
</a>
</g>
</g>
<!-- dir_38ede806b5a81417cb73c367dd92d89d -->
<g id="node4" class="node"><title>dir_38ede806b5a81417cb73c367dd92d89d</title>
<g id="a_node4"><a xlink:href="dir_38ede806b5a81417cb73c367dd92d89d.html" target="_top" xlink:title="Root">
<polygon fill="white" stroke="black" points="302,-180 248,-180 248,-144 302,-144 302,-180"/>
<text text-anchor="middle" x="275" y="-159.5" font-family="Helvetica,sans-Serif" font-size="10.00">Root</text>
</a>
</g>
</g>
<!-- dir_38ede806b5a81417cb73c367dd92d89d&#45;&gt;dir_fd3a82303f5206df56505f8b5712131f -->
<g id="edge5" class="edge"><title>dir_38ede806b5a81417cb73c367dd92d89d&#45;&gt;dir_fd3a82303f5206df56505f8b5712131f</title>
<path fill="none" stroke="black" d="M255.966,-143.697C246.455,-135.05 234.793,-124.449 224.43,-115.027"/>
<polygon fill="black" stroke="black" points="226.569,-112.241 216.815,-108.104 221.86,-117.421 226.569,-112.241"/>
<g id="a_edge5&#45;headlabel"><a xlink:href="dir_000005_000017.html" target="_top" xlink:title="1">
<text text-anchor="middle" x="231.138" y="-110.058" font-family="Helvetica,sans-Serif" font-size="10.00">1</text>
</a>
</g>
</g>
<!-- dir_38ede806b5a81417cb73c367dd92d89d&#45;&gt;dir_c6310732a22f63c0c2fc5595561e68f1 -->
<g id="edge6" class="edge"><title>dir_38ede806b5a81417cb73c367dd92d89d&#45;&gt;dir_c6310732a22f63c0c2fc5595561e68f1</title>
<path fill="none" stroke="black" d="M269.865,-143.94C263.573,-124.983 251.541,-94.1314 234,-72 224.873,-60.4843 212.746,-50.0066 201.262,-41.4643"/>
<polygon fill="black" stroke="black" points="203.235,-38.5723 193.066,-35.599 199.161,-44.2649 203.235,-38.5723"/>
<g id="a_edge6&#45;headlabel"><a xlink:href="dir_000005_000000.html" target="_top" xlink:title="15">
<text text-anchor="middle" x="207.81" y="-35.8552" font-family="Helvetica,sans-Serif" font-size="10.00">15</text>
</a>
</g>
</g>
<!-- dir_fd3a82303f5206df56505f8b5712131f&#45;&gt;dir_e3d743d0ec9b4013b28b5d69101bc7fb -->
<g id="edge3" class="edge"><title>dir_fd3a82303f5206df56505f8b5712131f&#45;&gt;dir_e3d743d0ec9b4013b28b5d69101bc7fb</title>
<path fill="none" stroke="black" d="M199.222,-108.104C199.771,-115.791 200.432,-125.054 201.048,-133.665"/>
<polygon fill="black" stroke="black" points="197.56,-133.971 201.764,-143.697 204.543,-133.473 197.56,-133.971"/>
<g id="a_edge3&#45;headlabel"><a xlink:href="dir_000017_000002.html" target="_top" xlink:title="2">
<text text-anchor="middle" x="194.472" y="-128.088" font-family="Helvetica,sans-Serif" font-size="10.00">2</text>
</a>
</g>
</g>
<!-- dir_fd3a82303f5206df56505f8b5712131f&#45;&gt;dir_c6310732a22f63c0c2fc5595561e68f1 -->
<g id="edge4" class="edge"><title>dir_fd3a82303f5206df56505f8b5712131f&#45;&gt;dir_c6310732a22f63c0c2fc5595561e68f1</title>
<path fill="none" stroke="black" d="M190.09,-71.6966C186.447,-63.7284 182.046,-54.0995 178.006,-45.2641"/>
<polygon fill="black" stroke="black" points="181.16,-43.7439 173.819,-36.1043 174.794,-46.6543 181.16,-43.7439"/>
<g id="a_edge4&#45;headlabel"><a xlink:href="dir_000017_000000.html" target="_top" xlink:title="29">
<text text-anchor="middle" x="185.237" y="-43.3327" font-family="Helvetica,sans-Serif" font-size="10.00">29</text>
</a>
</g>
</g>
</g>
</svg>
