<?xml version="1.0" encoding="UTF-8" standalone="no"?>
<!DOCTYPE svg PUBLIC "-//W3C//DTD SVG 1.1//EN"
 "http://www.w3.org/Graphics/SVG/1.1/DTD/svg11.dtd">
<!-- Generated by graphviz version 2.38.0 (20140413.2041)
 -->
<!-- Title: /home/travis/build/ComPWA/ComPWA/Estimator/Estimator.hpp Pages: 1 -->
<!--zoomable 284 -->
<svg id="main" version="1.1" xmlns="http://www.w3.org/2000/svg" xmlns:xlink="http://www.w3.org/1999/xlink" xml:space="preserve" onload="init(evt)">
<style type="text/css"><![CDATA[
.edge:hover path { stroke: red; }
.edge:hover polygon { stroke: red; fill: red; }
]]></style>
<script type="text/javascript"><![CDATA[
var edges = document.getElementsByTagName('g');
if (edges && edges.length) {
  for (var i=0;i<edges.length;i++) {
    if (edges[i].id.substr(0,4)=='edge') {
      edges[i].setAttribute('class','edge');
    }
  }
}
]]></script>
        <defs>
                <circle id="rim" cx="0" cy="0" r="7"/>
                <circle id="rim2" cx="0" cy="0" r="3.5"/>
                <g id="zoomPlus">
                        <use xlink:href="#rim" fill="#404040">
                                <set attributeName="fill" to="#808080" begin="zoomplus.mouseover" end="zoomplus.mouseout"/>
                        </use>
                        <path d="M-4,0h8M0,-4v8" fill="none" stroke="white" stroke-width="1.5" pointer-events="none"/>
                </g>
                <g id="zoomMin">
                        <use xlink:href="#rim" fill="#404040">
                                <set attributeName="fill" to="#808080" begin="zoomminus.mouseover" end="zoomminus.mouseout"/>
                        </use>
                        <path d="M-4,0h8" fill="none" stroke="white" stroke-width="1.5" pointer-events="none"/>
                </g>
                <g id="dirArrow">
                        <path fill="none" stroke="white" stroke-width="1.5" d="M0,-3.0v7 M-2.5,-0.5L0,-3.0L2.5,-0.5"/>
                </g>
               <g id="resetDef">
                       <use xlink:href="#rim2" fill="#404040">
                               <set attributeName="fill" to="#808080" begin="reset.mouseover" end="reset.mouseout"/>
                       </use>
               </g>
        </defs>

<script type="text/javascript">
var viewWidth = 1364;
var viewHeight = 284;
var sectionId = 'dynsection-1';
</script>
<script xlink:href="svgpan.js"/>
<svg id="graph" class="graph">
<g id="viewport">
<title>/home/travis/build/ComPWA/ComPWA/Estimator/Estimator.hpp</title>
<polygon fill="white" stroke="none" points="-4,4 -4,-280 1360,-280 1360,4 -4,4"/>
<!-- Node1 -->
<g id="node1" class="node"><title>Node1</title>
<polygon fill="#bfbfbf" stroke="black" points="621,-234.5 621,-275.5 777,-275.5 777,-234.5 621,-234.5"/>
<text text-anchor="start" x="629" y="-263.5" font-family="Helvetica,sans-Serif" font-size="10.00">/home/travis/build</text>
<text text-anchor="start" x="629" y="-252.5" font-family="Helvetica,sans-Serif" font-size="10.00">/ComPWA/ComPWA/Estimator</text>
<text text-anchor="middle" x="699" y="-241.5" font-family="Helvetica,sans-Serif" font-size="10.00">/Estimator.hpp</text>
</g>
<!-- Node2 -->
<g id="node2" class="node"><title>Node2</title>
<g id="a_node2"><a xlink:href="FunctionTreeEstimator_8hpp.html" target="_top" xlink:title="/home/travis/build\l/ComPWA/ComPWA/Core\l/FunctionTree/FunctionTreeEstimator.hpp">
<polygon fill="white" stroke="black" points="280.5,-156.5 280.5,-197.5 477.5,-197.5 477.5,-156.5 280.5,-156.5"/>
<text text-anchor="start" x="288.5" y="-185.5" font-family="Helvetica,sans-Serif" font-size="10.00">/home/travis/build</text>
<text text-anchor="start" x="288.5" y="-174.5" font-family="Helvetica,sans-Serif" font-size="10.00">/ComPWA/ComPWA/Core</text>
<text text-anchor="middle" x="379" y="-163.5" font-family="Helvetica,sans-Serif" font-size="10.00">/FunctionTree/FunctionTreeEstimator.hpp</text>
</a>
</g>
</g>
<!-- Node1&#45;&gt;Node2 -->
<g id="edge1" class="edge"><title>Node1&#45;&gt;Node2</title>
<path fill="none" stroke="midnightblue" d="M610.907,-233.078C564.154,-221.974 507.058,-208.414 461.219,-197.527"/>
<polygon fill="midnightblue" stroke="midnightblue" points="610.181,-236.503 620.719,-235.408 611.799,-229.692 610.181,-236.503"/>
</g>
<!-- Node4 -->
<g id="node4" class="node"><title>Node4</title>
<g id="a_node4"><a xlink:href="MinLogLH_8hpp.html" target="_top" xlink:title="/home/travis/build\l/ComPWA/ComPWA/Estimator\l/MinLogLH/MinLogLH.hpp">
<polygon fill="white" stroke="red" points="428,-78.5 428,-119.5 584,-119.5 584,-78.5 428,-78.5"/>
<text text-anchor="start" x="436" y="-107.5" font-family="Helvetica,sans-Serif" font-size="10.00">/home/travis/build</text>
<text text-anchor="start" x="436" y="-96.5" font-family="Helvetica,sans-Serif" font-size="10.00">/ComPWA/ComPWA/Estimator</text>
<text text-anchor="middle" x="506" y="-85.5" font-family="Helvetica,sans-Serif" font-size="10.00">/MinLogLH/MinLogLH.hpp</text>
</a>
</g>
</g>
<!-- Node1&#45;&gt;Node4 -->
<g id="edge10" class="edge"><title>Node1&#45;&gt;Node4</title>
<path fill="none" stroke="midnightblue" d="M610.769,-244.281C579.574,-236.504 546.849,-222.638 525,-198 505.912,-176.475 503.59,-141.659 504.316,-119.84"/>
<polygon fill="midnightblue" stroke="midnightblue" points="610.297,-247.764 620.828,-246.599 611.869,-240.943 610.297,-247.764"/>
</g>
<!-- Node6 -->
<g id="node6" class="node"><title>Node6</title>
<g id="a_node6"><a xlink:href="SumMinLogLH_8hpp.html" target="_top" xlink:title="/home/travis/build\l/ComPWA/ComPWA/Estimator\l/MinLogLH/SumMinLogLH.hpp">
<polygon fill="white" stroke="red" points="0,-78.5 0,-119.5 156,-119.5 156,-78.5 0,-78.5"/>
<text text-anchor="start" x="8" y="-107.5" font-family="Helvetica,sans-Serif" font-size="10.00">/home/travis/build</text>
<text text-anchor="start" x="8" y="-96.5" font-family="Helvetica,sans-Serif" font-size="10.00">/ComPWA/ComPWA/Estimator</text>
<text text-anchor="middle" x="78" y="-85.5" font-family="Helvetica,sans-Serif" font-size="10.00">/MinLogLH/SumMinLogLH.hpp</text>
</a>
</g>
</g>
<!-- Node1&#45;&gt;Node6 -->
<g id="edge11" class="edge"><title>Node1&#45;&gt;Node6</title>
<path fill="none" stroke="midnightblue" d="M610.577,-251.156C522.708,-246.317 384.973,-233.253 271,-198 210.148,-179.178 145.268,-142.318 108.371,-119.558"/>
<polygon fill="midnightblue" stroke="midnightblue" points="610.605,-254.662 620.775,-251.693 610.973,-247.672 610.605,-254.662"/>
</g>
<!-- Node7 -->
<g id="node7" class="node"><title>Node7</title>
<g id="a_node7"><a xlink:href="ChiOneD_8hpp.html" target="_top" xlink:title="This class calculates a simple &#160;of a intensity and a dataset. ">
<polygon fill="white" stroke="black" points="1147,-156.5 1147,-197.5 1303,-197.5 1303,-156.5 1147,-156.5"/>
<text text-anchor="start" x="1155" y="-185.5" font-family="Helvetica,sans-Serif" font-size="10.00">/home/travis/build</text>
<text text-anchor="start" x="1155" y="-174.5" font-family="Helvetica,sans-Serif" font-size="10.00">/ComPWA/ComPWA/Estimator</text>
<text text-anchor="middle" x="1225" y="-163.5" font-family="Helvetica,sans-Serif" font-size="10.00">/ChiOneD/ChiOneD.hpp</text>
</a>
</g>
</g>
<!-- Node1&#45;&gt;Node7 -->
<g id="edge8" class="edge"><title>Node1&#45;&gt;Node7</title>
<path fill="none" stroke="midnightblue" d="M787.316,-241.239C887.889,-226.708 1050.67,-203.188 1146.82,-189.296"/>
<polygon fill="midnightblue" stroke="midnightblue" points="786.576,-237.81 777.18,-242.704 787.577,-244.738 786.576,-237.81"/>
</g>
<!-- Node9 -->
<g id="node9" class="node"><title>Node9</title>
<g id="a_node9"><a xlink:href="GenevaIF_8hpp.html" target="_top" xlink:title="This class provides a wrapper around the Geneva library. ">
<polygon fill="white" stroke="black" points="814,-78.5 814,-119.5 970,-119.5 970,-78.5 814,-78.5"/>
<text text-anchor="start" x="822" y="-107.5" font-family="Helvetica,sans-Serif" font-size="10.00">/home/travis/build</text>
<text text-anchor="start" x="822" y="-96.5" font-family="Helvetica,sans-Serif" font-size="10.00">/ComPWA/ComPWA/Optimizer</text>
<text text-anchor="middle" x="892" y="-85.5" font-family="Helvetica,sans-Serif" font-size="10.00">/Geneva/GenevaIF.hpp</text>
</a>
</g>
</g>
<!-- Node1&#45;&gt;Node9 -->
<g id="edge12" class="edge"><title>Node1&#45;&gt;Node9</title>
<path fill="none" stroke="midnightblue" d="M787.231,-244.281C818.426,-236.504 851.151,-222.638 873,-198 892.088,-176.475 894.41,-141.659 893.684,-119.84"/>
<polygon fill="midnightblue" stroke="midnightblue" points="786.131,-240.943 777.172,-246.599 787.703,-247.764 786.131,-240.943"/>
</g>
<!-- Node11 -->
<g id="node11" class="node"><title>Node11</title>
<g id="a_node11"><a xlink:href="GFMinIndividual_8hpp.html" target="_top" xlink:title="/home/travis/build\l/ComPWA/ComPWA/Optimizer\l/Geneva/GFMinIndividual.hpp">
<polygon fill="white" stroke="black" points="920,-156.5 920,-197.5 1076,-197.5 1076,-156.5 920,-156.5"/>
<text text-anchor="start" x="928" y="-185.5" font-family="Helvetica,sans-Serif" font-size="10.00">/home/travis/build</text>
<text text-anchor="start" x="928" y="-174.5" font-family="Helvetica,sans-Serif" font-size="10.00">/ComPWA/ComPWA/Optimizer</text>
<text text-anchor="middle" x="998" y="-163.5" font-family="Helvetica,sans-Serif" font-size="10.00">/Geneva/GFMinIndividual.hpp</text>
</a>
</g>
</g>
<!-- Node1&#45;&gt;Node11 -->
<g id="edge14" class="edge"><title>Node1&#45;&gt;Node11</title>
<path fill="none" stroke="midnightblue" d="M785.848,-231.925C828.679,-221.038 879.886,-208.022 921.261,-197.506"/>
<polygon fill="midnightblue" stroke="midnightblue" points="784.83,-228.572 776,-234.428 786.554,-235.357 784.83,-228.572"/>
</g>
<!-- Node13 -->
<g id="node13" class="node"><title>Node13</title>
<g id="a_node13"><a xlink:href="MinuitFcn_8hpp.html" target="_top" xlink:title="/home/travis/build\l/ComPWA/ComPWA/Optimizer\l/Minuit2/MinuitFcn.hpp">
<polygon fill="white" stroke="black" points="708,-156.5 708,-197.5 864,-197.5 864,-156.5 708,-156.5"/>
<text text-anchor="start" x="716" y="-185.5" font-family="Helvetica,sans-Serif" font-size="10.00">/home/travis/build</text>
<text text-anchor="start" x="716" y="-174.5" font-family="Helvetica,sans-Serif" font-size="10.00">/ComPWA/ComPWA/Optimizer</text>
<text text-anchor="middle" x="786" y="-163.5" font-family="Helvetica,sans-Serif" font-size="10.00">/Minuit2/MinuitFcn.hpp</text>
</a>
</g>
</g>
<!-- Node1&#45;&gt;Node13 -->
<g id="edge17" class="edge"><title>Node1&#45;&gt;Node13</title>
<path fill="none" stroke="midnightblue" d="M729.017,-227.779C740.39,-217.843 753.128,-206.716 763.671,-197.506"/>
<polygon fill="midnightblue" stroke="midnightblue" points="726.633,-225.213 721.405,-234.428 731.238,-230.485 726.633,-225.213"/>
</g>
<!-- Node15 -->
<g id="node15" class="node"><title>Node15</title>
<g id="a_node15"><a xlink:href="Optimizer_8hpp.html" target="_top" xlink:title="/home/travis/build\l/ComPWA/ComPWA/Optimizer\l/Optimizer.hpp">
<polygon fill="white" stroke="black" points="534,-156.5 534,-197.5 690,-197.5 690,-156.5 534,-156.5"/>
<text text-anchor="start" x="542" y="-185.5" font-family="Helvetica,sans-Serif" font-size="10.00">/home/travis/build</text>
<text text-anchor="start" x="542" y="-174.5" font-family="Helvetica,sans-Serif" font-size="10.00">/ComPWA/ComPWA/Optimizer</text>
<text text-anchor="middle" x="612" y="-163.5" font-family="Helvetica,sans-Serif" font-size="10.00">/Optimizer.hpp</text>
</a>
</g>
</g>
<!-- Node1&#45;&gt;Node15 -->
<g id="edge19" class="edge"><title>Node1&#45;&gt;Node15</title>
<path fill="none" stroke="midnightblue" d="M668.983,-227.779C657.61,-217.843 644.872,-206.716 634.329,-197.506"/>
<polygon fill="midnightblue" stroke="midnightblue" points="666.762,-230.485 676.595,-234.428 671.367,-225.213 666.762,-230.485"/>
</g>
<!-- Node3 -->
<g id="node3" class="node"><title>Node3</title>
<g id="a_node3"><a xlink:href="FunctionTreeEstimator_8cpp.html" target="_top" xlink:title="/home/travis/build\l/ComPWA/ComPWA/Core\l/FunctionTree/FunctionTreeEstimator.cpp">
<polygon fill="white" stroke="black" points="174.5,-78.5 174.5,-119.5 371.5,-119.5 371.5,-78.5 174.5,-78.5"/>
<text text-anchor="start" x="182.5" y="-107.5" font-family="Helvetica,sans-Serif" font-size="10.00">/home/travis/build</text>
<text text-anchor="start" x="182.5" y="-96.5" font-family="Helvetica,sans-Serif" font-size="10.00">/ComPWA/ComPWA/Core</text>
<text text-anchor="middle" x="273" y="-85.5" font-family="Helvetica,sans-Serif" font-size="10.00">/FunctionTree/FunctionTreeEstimator.cpp</text>
</a>
</g>
</g>
<!-- Node2&#45;&gt;Node3 -->
<g id="edge2" class="edge"><title>Node2&#45;&gt;Node3</title>
<path fill="none" stroke="midnightblue" d="M343.225,-150.35C329.169,-140.272 313.298,-128.893 300.205,-119.506"/>
<polygon fill="midnightblue" stroke="midnightblue" points="341.536,-153.446 351.702,-156.428 345.615,-147.757 341.536,-153.446"/>
</g>
<!-- Node2&#45;&gt;Node4 -->
<g id="edge3" class="edge"><title>Node2&#45;&gt;Node4</title>
<path fill="none" stroke="midnightblue" d="M420.437,-151.203C437.625,-140.918 457.274,-129.159 473.405,-119.506"/>
<polygon fill="midnightblue" stroke="midnightblue" points="418.489,-148.29 411.706,-156.428 422.084,-154.296 418.489,-148.29"/>
</g>
<!-- Node5 -->
<g id="node5" class="node"><title>Node5</title>
<g id="a_node5"><a xlink:href="SimFit_8cpp.html" target="_top" xlink:title="/home/travis/build\l/ComPWA/ComPWA/Examples\l/SimFit/SimFit.cpp">
<polygon fill="white" stroke="black" points="374,-0.5 374,-41.5 532,-41.5 532,-0.5 374,-0.5"/>
<text text-anchor="start" x="382" y="-29.5" font-family="Helvetica,sans-Serif" font-size="10.00">/home/travis/build</text>
<text text-anchor="start" x="382" y="-18.5" font-family="Helvetica,sans-Serif" font-size="10.00">/ComPWA/ComPWA/Examples</text>
<text text-anchor="middle" x="453" y="-7.5" font-family="Helvetica,sans-Serif" font-size="10.00">/SimFit/SimFit.cpp</text>
</a>
</g>
</g>
<!-- Node2&#45;&gt;Node5 -->
<g id="edge7" class="edge"><title>Node2&#45;&gt;Node5</title>
<path fill="none" stroke="midnightblue" d="M389.434,-147.051C396.902,-127.253 407.614,-100.605 419,-78 425.293,-65.5056 433.388,-52.0899 440.1,-41.5226"/>
<polygon fill="midnightblue" stroke="midnightblue" points="386.145,-145.853 385.939,-156.446 392.706,-148.294 386.145,-145.853"/>
</g>
<!-- Node2&#45;&gt;Node6 -->
<g id="edge5" class="edge"><title>Node2&#45;&gt;Node6</title>
<path fill="none" stroke="midnightblue" d="M291.571,-153.925C248.454,-143.038 196.904,-130.022 155.252,-119.506"/>
<polygon fill="midnightblue" stroke="midnightblue" points="290.932,-157.373 301.485,-156.428 292.646,-150.586 290.932,-157.373"/>
</g>
<!-- Node4&#45;&gt;Node5 -->
<g id="edge4" class="edge"><title>Node4&#45;&gt;Node5</title>
<path fill="none" stroke="midnightblue" d="M486.507,-70.0476C479.894,-60.5657 472.655,-50.1845 466.603,-41.5056"/>
<polygon fill="midnightblue" stroke="midnightblue" points="483.76,-72.2277 492.351,-78.4281 489.502,-68.2236 483.76,-72.2277"/>
</g>
<!-- Node6&#45;&gt;Node5 -->
<g id="edge6" class="edge"><title>Node6&#45;&gt;Node5</title>
<path fill="none" stroke="midnightblue" d="M166.435,-77.7253C242.249,-61.7481 318.263,-47.1004 373.703,-36.6698"/>
<polygon fill="midnightblue" stroke="midnightblue" points="165.286,-74.3909 156.227,-79.8851 166.735,-81.2394 165.286,-74.3909"/>
</g>
<!-- Node8 -->
<g id="node8" class="node"><title>Node8</title>
<g id="a_node8"><a xlink:href="ChiOneD_8cpp.html" target="_top" xlink:title="/home/travis/build\l/ComPWA/ComPWA/Estimator\l/ChiOneD/ChiOneD.cpp">
<polygon fill="white" stroke="black" points="1200,-78.5 1200,-119.5 1356,-119.5 1356,-78.5 1200,-78.5"/>
<text text-anchor="start" x="1208" y="-107.5" font-family="Helvetica,sans-Serif" font-size="10.00">/home/travis/build</text>
<text text-anchor="start" x="1208" y="-96.5" font-family="Helvetica,sans-Serif" font-size="10.00">/ComPWA/ComPWA/Estimator</text>
<text text-anchor="middle" x="1278" y="-85.5" font-family="Helvetica,sans-Serif" font-size="10.00">/ChiOneD/ChiOneD.cpp</text>
</a>
</g>
</g>
<!-- Node7&#45;&gt;Node8 -->
<g id="edge9" class="edge"><title>Node7&#45;&gt;Node8</title>
<path fill="none" stroke="midnightblue" d="M1244.49,-148.048C1251.11,-138.566 1258.34,-128.185 1264.4,-119.506"/>
<polygon fill="midnightblue" stroke="midnightblue" points="1241.5,-146.224 1238.65,-156.428 1247.24,-150.228 1241.5,-146.224"/>
</g>
<!-- Node10 -->
<g id="node10" class="node"><title>Node10</title>
<g id="a_node10"><a xlink:href="GenevaIF_8cpp.html" target="_top" xlink:title="/home/travis/build\l/ComPWA/ComPWA/Optimizer\l/Geneva/GenevaIF.cpp">
<polygon fill="white" stroke="black" points="867,-0.5 867,-41.5 1023,-41.5 1023,-0.5 867,-0.5"/>
<text text-anchor="start" x="875" y="-29.5" font-family="Helvetica,sans-Serif" font-size="10.00">/home/travis/build</text>
<text text-anchor="start" x="875" y="-18.5" font-family="Helvetica,sans-Serif" font-size="10.00">/ComPWA/ComPWA/Optimizer</text>
<text text-anchor="middle" x="945" y="-7.5" font-family="Helvetica,sans-Serif" font-size="10.00">/Geneva/GenevaIF.cpp</text>
</a>
</g>
</g>
<!-- Node9&#45;&gt;Node10 -->
<g id="edge13" class="edge"><title>Node9&#45;&gt;Node10</title>
<path fill="none" stroke="midnightblue" d="M911.493,-70.0476C918.106,-60.5657 925.345,-50.1845 931.397,-41.5056"/>
<polygon fill="midnightblue" stroke="midnightblue" points="908.498,-68.2236 905.649,-78.4281 914.24,-72.2277 908.498,-68.2236"/>
</g>
<!-- Node11&#45;&gt;Node10 -->
<g id="edge15" class="edge"><title>Node11&#45;&gt;Node10</title>
<path fill="none" stroke="midnightblue" d="M995.015,-146.287C992.357,-126.454 987.521,-100.063 979,-78 974.042,-65.1619 966.175,-51.9492 959.256,-41.5841"/>
<polygon fill="midnightblue" stroke="midnightblue" points="991.55,-146.785 996.246,-156.283 998.497,-145.93 991.55,-146.785"/>
</g>
<!-- Node12 -->
<g id="node12" class="node"><title>Node12</title>
<g id="a_node12"><a xlink:href="GFMinIndividual_8cpp.html" target="_top" xlink:title="/home/travis/build\l/ComPWA/ComPWA/Optimizer\l/Geneva/GFMinIndividual.cpp">
<polygon fill="white" stroke="black" points="1026,-78.5 1026,-119.5 1182,-119.5 1182,-78.5 1026,-78.5"/>
<text text-anchor="start" x="1034" y="-107.5" font-family="Helvetica,sans-Serif" font-size="10.00">/home/travis/build</text>
<text text-anchor="start" x="1034" y="-96.5" font-family="Helvetica,sans-Serif" font-size="10.00">/ComPWA/ComPWA/Optimizer</text>
<text text-anchor="middle" x="1104" y="-85.5" font-family="Helvetica,sans-Serif" font-size="10.00">/Geneva/GFMinIndividual.cpp</text>
</a>
</g>
</g>
<!-- Node11&#45;&gt;Node12 -->
<g id="edge16" class="edge"><title>Node11&#45;&gt;Node12</title>
<path fill="none" stroke="midnightblue" d="M1033.77,-150.35C1047.83,-140.272 1063.7,-128.893 1076.79,-119.506"/>
<polygon fill="midnightblue" stroke="midnightblue" points="1031.39,-147.757 1025.3,-156.428 1035.46,-153.446 1031.39,-147.757"/>
</g>
<!-- Node14 -->
<g id="node14" class="node"><title>Node14</title>
<g id="a_node14"><a xlink:href="MinuitIF_8cpp.html" target="_top" xlink:title="/home/travis/build\l/ComPWA/ComPWA/Optimizer\l/Minuit2/MinuitIF.cpp">
<polygon fill="white" stroke="black" points="647,-0.5 647,-41.5 803,-41.5 803,-0.5 647,-0.5"/>
<text text-anchor="start" x="655" y="-29.5" font-family="Helvetica,sans-Serif" font-size="10.00">/home/travis/build</text>
<text text-anchor="start" x="655" y="-18.5" font-family="Helvetica,sans-Serif" font-size="10.00">/ComPWA/ComPWA/Optimizer</text>
<text text-anchor="middle" x="725" y="-7.5" font-family="Helvetica,sans-Serif" font-size="10.00">/Minuit2/MinuitIF.cpp</text>
</a>
</g>
</g>
<!-- Node13&#45;&gt;Node14 -->
<g id="edge18" class="edge"><title>Node13&#45;&gt;Node14</title>
<path fill="none" stroke="midnightblue" d="M783.758,-146.369C781.414,-126.368 776.65,-99.7544 767,-78 761.136,-64.7804 751.648,-51.7504 743.173,-41.5903"/>
<polygon fill="midnightblue" stroke="midnightblue" points="780.289,-146.859 784.801,-156.445 787.252,-146.138 780.289,-146.859"/>
</g>
<!-- Node15&#45;&gt;Node9 -->
<g id="edge20" class="edge"><title>Node15&#45;&gt;Node9</title>
<path fill="none" stroke="midnightblue" d="M693.836,-153.787C733.842,-142.929 781.555,-129.978 820.137,-119.506"/>
<polygon fill="midnightblue" stroke="midnightblue" points="692.841,-150.431 684.107,-156.428 694.675,-157.186 692.841,-150.431"/>
</g>
<!-- Node16 -->
<g id="node16" class="node"><title>Node16</title>
<g id="a_node16"><a xlink:href="MinuitIF_8hpp.html" target="_top" xlink:title="/home/travis/build\l/ComPWA/ComPWA/Optimizer\l/Minuit2/MinuitIF.hpp">
<polygon fill="white" stroke="red" points="602,-78.5 602,-119.5 758,-119.5 758,-78.5 602,-78.5"/>
<text text-anchor="start" x="610" y="-107.5" font-family="Helvetica,sans-Serif" font-size="10.00">/home/travis/build</text>
<text text-anchor="start" x="610" y="-96.5" font-family="Helvetica,sans-Serif" font-size="10.00">/ComPWA/ComPWA/Optimizer</text>
<text text-anchor="middle" x="680" y="-85.5" font-family="Helvetica,sans-Serif" font-size="10.00">/Minuit2/MinuitIF.hpp</text>
</a>
</g>
</g>
<!-- Node15&#45;&gt;Node16 -->
<g id="edge21" class="edge"><title>Node15&#45;&gt;Node16</title>
<path fill="none" stroke="midnightblue" d="M636.233,-148.916C644.924,-139.203 654.545,-128.45 662.548,-119.506"/>
<polygon fill="midnightblue" stroke="midnightblue" points="633.571,-146.642 629.512,-156.428 638.788,-151.309 633.571,-146.642"/>
</g>
<!-- Node16&#45;&gt;Node5 -->
<g id="edge22" class="edge"><title>Node16&#45;&gt;Node5</title>
<path fill="none" stroke="midnightblue" d="M611.796,-75.1652C579.751,-64.4366 541.944,-51.7786 511.26,-41.5056"/>
<polygon fill="midnightblue" stroke="midnightblue" points="610.948,-78.5722 621.542,-78.4281 613.17,-71.9343 610.948,-78.5722"/>
</g>
<!-- Node16&#45;&gt;Node14 -->
<g id="edge23" class="edge"><title>Node16&#45;&gt;Node14</title>
<path fill="none" stroke="midnightblue" d="M696.723,-69.7571C702.29,-60.354 708.364,-50.096 713.451,-41.5056"/>
<polygon fill="midnightblue" stroke="midnightblue" points="693.672,-68.0401 691.589,-78.4281 699.695,-71.6066 693.672,-68.0401"/>
</g>
</g>
</svg>
        <g id="navigator" transform="translate(0 0)" fill="#404254">
                <rect fill="#f2f5e9" fill-opacity="0.5" stroke="#606060" stroke-width=".5" x="0" y="0" width="60" height="60"/>
                <use id="zoomplus" xlink:href="#zoomPlus" x="17" y="9" onmousedown="handleZoom(evt,'in')"/>
                <use id="zoomminus" xlink:href="#zoomMin" x="42" y="9" onmousedown="handleZoom(evt,'out')"/>
                <use id="reset" xlink:href="#resetDef" x="30" y="36" onmousedown="handleReset()"/>
                <g id="arrowUp" xlink:href="#dirArrow" transform="translate(30 24)" onmousedown="handlePan(0,-1)">
                  <use xlink:href="#rim" fill="#404040">
                        <set attributeName="fill" to="#808080" begin="arrowUp.mouseover" end="arrowUp.mouseout"/>
                  </use>
                  <path fill="none" stroke="white" stroke-width="1.5" d="M0,-3.0v7 M-2.5,-0.5L0,-3.0L2.5,-0.5"/>
                </g>
                <g id="arrowRight" xlink:href="#dirArrow" transform="rotate(90) translate(36 -43)" onmousedown="handlePan(1,0)">
                  <use xlink:href="#rim" fill="#404040">
                        <set attributeName="fill" to="#808080" begin="arrowRight.mouseover" end="arrowRight.mouseout"/>
                  </use>
                  <path fill="none" stroke="white" stroke-width="1.5" d="M0,-3.0v7 M-2.5,-0.5L0,-3.0L2.5,-0.5"/>
                </g>
                <g id="arrowDown" xlink:href="#dirArrow" transform="rotate(180) translate(-30 -48)" onmousedown="handlePan(0,1)">
                  <use xlink:href="#rim" fill="#404040">
                        <set attributeName="fill" to="#808080" begin="arrowDown.mouseover" end="arrowDown.mouseout"/>
                  </use>
                  <path fill="none" stroke="white" stroke-width="1.5" d="M0,-3.0v7 M-2.5,-0.5L0,-3.0L2.5,-0.5"/>
                </g>
                <g id="arrowLeft" xlink:href="#dirArrow" transform="rotate(270) translate(-36 17)" onmousedown="handlePan(-1,0)">
                  <use xlink:href="#rim" fill="#404040">
                        <set attributeName="fill" to="#808080" begin="arrowLeft.mouseover" end="arrowLeft.mouseout"/>
                  </use>
                  <path fill="none" stroke="white" stroke-width="1.5" d="M0,-3.0v7 M-2.5,-0.5L0,-3.0L2.5,-0.5"/>
                </g>
        </g>
        <svg viewBox="0 0 15 15" width="100%" height="30px" preserveAspectRatio="xMaxYMin meet">
         <g id="arrow_out" transform="scale(0.3 0.3)">
          <a xlink:href="Estimator_8hpp__dep__incl_org.svg" target="_base">
           <rect id="button" ry="5" rx="5" y="6" x="6" height="38" width="38"
                fill="#f2f5e9" fill-opacity="0.5" stroke="#606060" stroke-width="1.0"/>
           <path id="arrow"
             d="M 11.500037,31.436501 C 11.940474,20.09759 22.043105,11.32322 32.158766,21.979434 L 37.068811,17.246167 C 37.068811,17.246167 37.088388,32 37.088388,32 L 22.160133,31.978069 C 22.160133,31.978069 26.997745,27.140456 26.997745,27.140456 C 18.528582,18.264221 13.291696,25.230495 11.500037,31.436501 z"
             style="fill:#404040;"/>
          </a>
         </g>
        </svg>
</svg>
