<?xml version="1.0" encoding="UTF-8" standalone="no"?>
<!DOCTYPE svg PUBLIC "-//W3C//DTD SVG 1.1//EN"
 "http://www.w3.org/Graphics/SVG/1.1/DTD/svg11.dtd">
<!-- Generated by graphviz version 2.38.0 (20140413.2041)
 -->
<!-- Title: Core/Event.hpp Pages: 1 -->
<!--zoomable 207 -->
<svg id="main" version="1.1" xmlns="http://www.w3.org/2000/svg" xmlns:xlink="http://www.w3.org/1999/xlink" xml:space="preserve" onload="init(evt)">
<style type="text/css"><![CDATA[
.edge:hover path { stroke: red; }
.edge:hover polygon { stroke: red; fill: red; }
]]></style>
<script type="text/javascript"><![CDATA[
var edges = document.getElementsByTagName('g');
if (edges && edges.length) {
  for (var i=0;i<edges.length;i++) {
    if (edges[i].id.substr(0,4)=='edge') {
      edges[i].setAttribute('class','edge');
    }
  }
}
]]></script>
        <defs>
                <circle id="rim" cx="0" cy="0" r="7"/>
                <circle id="rim2" cx="0" cy="0" r="3.5"/>
                <g id="zoomPlus">
                        <use xlink:href="#rim" fill="#404040">
                                <set attributeName="fill" to="#808080" begin="zoomplus.mouseover" end="zoomplus.mouseout"/>
                        </use>
                        <path d="M-4,0h8M0,-4v8" fill="none" stroke="white" stroke-width="1.5" pointer-events="none"/>
                </g>
                <g id="zoomMin">
                        <use xlink:href="#rim" fill="#404040">
                                <set attributeName="fill" to="#808080" begin="zoomminus.mouseover" end="zoomminus.mouseout"/>
                        </use>
                        <path d="M-4,0h8" fill="none" stroke="white" stroke-width="1.5" pointer-events="none"/>
                </g>
                <g id="dirArrow">
                        <path fill="none" stroke="white" stroke-width="1.5" d="M0,-3.0v7 M-2.5,-0.5L0,-3.0L2.5,-0.5"/>
                </g>
               <g id="resetDef">
                       <use xlink:href="#rim2" fill="#404040">
                               <set attributeName="fill" to="#808080" begin="reset.mouseover" end="reset.mouseout"/>
                       </use>
               </g>
        </defs>

<script type="text/javascript">
var viewWidth = 1099;
var viewHeight = 207;
var sectionId = 'dynsection-0';
</script>
<script xlink:href="svgpan.js"/>
<svg id="graph" class="graph">
<g id="viewport">
<title>Core/Event.hpp</title>
<polygon fill="white" stroke="none" points="-4,4 -4,-203 1094.5,-203 1094.5,4 -4,4"/>
<!-- Node1 -->
<g id="node1" class="node"><title>Node1</title>
<polygon fill="#bfbfbf" stroke="black" points="824.5,-179.5 824.5,-198.5 909.5,-198.5 909.5,-179.5 824.5,-179.5"/>
<text text-anchor="middle" x="867" y="-186.5" font-family="Helvetica,sans-Serif" font-size="10.00">Core/Event.hpp</text>
</g>
<!-- Node2 -->
<g id="node2" class="node"><title>Node2</title>
<g id="a_node2"><a xlink:href="Particle_8hpp.html" target="_top" xlink:title="Particle and FourMomentum class. ">
<polygon fill="white" stroke="black" points="244,-123.5 244,-142.5 336,-142.5 336,-123.5 244,-123.5"/>
<text text-anchor="middle" x="290" y="-130.5" font-family="Helvetica,sans-Serif" font-size="10.00">Core/Particle.hpp</text>
</a>
</g>
</g>
<!-- Node1&#45;&gt;Node2 -->
<g id="edge1" class="edge"><title>Node1&#45;&gt;Node2</title>
<path fill="none" stroke="midnightblue" d="M824.103,-183.985C721.426,-174.376 461.532,-150.053 346.392,-139.278"/>
<polygon fill="midnightblue" stroke="midnightblue" points="346.654,-135.787 336.371,-138.34 346.001,-142.756 346.654,-135.787"/>
</g>
<!-- Node9 -->
<g id="node9" class="node"><title>Node9</title>
<polygon fill="white" stroke="#bfbfbf" points="600,-0.5 600,-19.5 644,-19.5 644,-0.5 600,-0.5"/>
<text text-anchor="middle" x="622" y="-7.5" font-family="Helvetica,sans-Serif" font-size="10.00">vector</text>
</g>
<!-- Node1&#45;&gt;Node9 -->
<g id="edge19" class="edge"><title>Node1&#45;&gt;Node9</title>
<path fill="none" stroke="midnightblue" d="M881.616,-179.199C916.25,-157.3 997.675,-99.0235 960,-56 939.985,-33.1437 734.728,-18.0077 654.185,-12.9075"/>
<polygon fill="midnightblue" stroke="midnightblue" points="654.317,-9.40904 644.119,-12.2815 653.882,-16.3955 654.317,-9.40904"/>
</g>
<!-- Node11 -->
<g id="node11" class="node"><title>Node11</title>
<g id="a_node11"><a xlink:href="Properties_8hpp.html" target="_top" xlink:title="Core/Properties.hpp">
<polygon fill="white" stroke="black" points="704,-123.5 704,-142.5 808,-142.5 808,-123.5 704,-123.5"/>
<text text-anchor="middle" x="756" y="-130.5" font-family="Helvetica,sans-Serif" font-size="10.00">Core/Properties.hpp</text>
</a>
</g>
</g>
<!-- Node1&#45;&gt;Node11 -->
<g id="edge10" class="edge"><title>Node1&#45;&gt;Node11</title>
<path fill="none" stroke="midnightblue" d="M849.166,-179.324C831.284,-170.625 803.525,-157.12 782.954,-147.113"/>
<polygon fill="midnightblue" stroke="midnightblue" points="784.313,-143.882 773.79,-142.655 781.251,-150.177 784.313,-143.882"/>
</g>
<!-- Node16 -->
<g id="node16" class="node"><title>Node16</title>
<polygon fill="white" stroke="#bfbfbf" points="1007.5,-123.5 1007.5,-142.5 1090.5,-142.5 1090.5,-123.5 1007.5,-123.5"/>
<text text-anchor="middle" x="1049" y="-130.5" font-family="Helvetica,sans-Serif" font-size="10.00">unordered_map</text>
</g>
<!-- Node1&#45;&gt;Node16 -->
<g id="edge18" class="edge"><title>Node1&#45;&gt;Node16</title>
<path fill="none" stroke="midnightblue" d="M895.838,-179.444C926.856,-170.241 976.329,-155.562 1010.62,-145.388"/>
<polygon fill="midnightblue" stroke="midnightblue" points="1011.71,-148.716 1020.3,-142.516 1009.71,-142.006 1011.71,-148.716"/>
</g>
<!-- Node3 -->
<g id="node3" class="node"><title>Node3</title>
<polygon fill="white" stroke="#bfbfbf" points="0,-62 0,-81 56,-81 56,-62 0,-62"/>
<text text-anchor="middle" x="28" y="-69" font-family="Helvetica,sans-Serif" font-size="10.00">algorithm</text>
</g>
<!-- Node2&#45;&gt;Node3 -->
<g id="edge2" class="edge"><title>Node2&#45;&gt;Node3</title>
<path fill="none" stroke="midnightblue" d="M243.747,-125.196C197.853,-117.875 125.776,-104.835 65,-87 62.5671,-86.286 60.0702,-85.4783 57.5779,-84.6183"/>
<polygon fill="midnightblue" stroke="midnightblue" points="58.7258,-81.3112 48.1325,-81.131 56.3013,-87.878 58.7258,-81.3112"/>
</g>
<!-- Node4 -->
<g id="node4" class="node"><title>Node4</title>
<polygon fill="white" stroke="#bfbfbf" points="74,-62 74,-81 112,-81 112,-62 74,-62"/>
<text text-anchor="middle" x="93" y="-69" font-family="Helvetica,sans-Serif" font-size="10.00">array</text>
</g>
<!-- Node2&#45;&gt;Node4 -->
<g id="edge3" class="edge"><title>Node2&#45;&gt;Node4</title>
<path fill="none" stroke="midnightblue" d="M247.872,-123.463C213.185,-115.801 163.053,-103.264 121,-87 119.794,-86.5335 118.572,-86.0296 117.347,-85.4992"/>
<polygon fill="midnightblue" stroke="midnightblue" points="118.658,-82.2468 108.126,-81.0948 115.641,-88.5632 118.658,-82.2468"/>
</g>
<!-- Node5 -->
<g id="node5" class="node"><title>Node5</title>
<polygon fill="white" stroke="#bfbfbf" points="130,-62 130,-81 174,-81 174,-62 130,-62"/>
<text text-anchor="middle" x="152" y="-69" font-family="Helvetica,sans-Serif" font-size="10.00">cmath</text>
</g>
<!-- Node2&#45;&gt;Node5 -->
<g id="edge4" class="edge"><title>Node2&#45;&gt;Node5</title>
<path fill="none" stroke="midnightblue" d="M268.982,-123.447C247.33,-114.569 212.654,-100.165 183,-87 181.809,-86.4711 180.594,-85.9264 179.368,-85.3725"/>
<polygon fill="midnightblue" stroke="midnightblue" points="180.524,-82.0518 169.977,-81.0546 177.6,-88.4118 180.524,-82.0518"/>
</g>
<!-- Node6 -->
<g id="node6" class="node"><title>Node6</title>
<polygon fill="white" stroke="#bfbfbf" points="192,-62 192,-81 246,-81 246,-62 192,-62"/>
<text text-anchor="middle" x="219" y="-69" font-family="Helvetica,sans-Serif" font-size="10.00">iostream</text>
</g>
<!-- Node2&#45;&gt;Node6 -->
<g id="edge5" class="edge"><title>Node2&#45;&gt;Node6</title>
<path fill="none" stroke="midnightblue" d="M279.827,-123.475C268.65,-114.108 250.483,-98.8839 236.909,-87.5081"/>
<polygon fill="midnightblue" stroke="midnightblue" points="239.066,-84.7496 229.154,-81.0091 234.57,-90.1148 239.066,-84.7496"/>
</g>
<!-- Node7 -->
<g id="node7" class="node"><title>Node7</title>
<polygon fill="white" stroke="#bfbfbf" points="264.5,-62 264.5,-81 315.5,-81 315.5,-62 264.5,-62"/>
<text text-anchor="middle" x="290" y="-69" font-family="Helvetica,sans-Serif" font-size="10.00">numeric</text>
</g>
<!-- Node2&#45;&gt;Node7 -->
<g id="edge6" class="edge"><title>Node2&#45;&gt;Node7</title>
<path fill="none" stroke="midnightblue" d="M290,-123.475C290,-115.08 290,-101.981 290,-91.1631"/>
<polygon fill="midnightblue" stroke="midnightblue" points="293.5,-91.0091 290,-81.0091 286.5,-91.0091 293.5,-91.0091"/>
</g>
<!-- Node8 -->
<g id="node8" class="node"><title>Node8</title>
<polygon fill="white" stroke="#bfbfbf" points="333.5,-62 333.5,-81 392.5,-81 392.5,-62 333.5,-62"/>
<text text-anchor="middle" x="363" y="-69" font-family="Helvetica,sans-Serif" font-size="10.00">stdexcept</text>
</g>
<!-- Node2&#45;&gt;Node8 -->
<g id="edge7" class="edge"><title>Node2&#45;&gt;Node8</title>
<path fill="none" stroke="midnightblue" d="M300.459,-123.475C311.951,-114.108 330.63,-98.8839 344.587,-87.5081"/>
<polygon fill="midnightblue" stroke="midnightblue" points="347.02,-90.04 352.56,-81.0091 342.598,-84.614 347.02,-90.04"/>
</g>
<!-- Node2&#45;&gt;Node9 -->
<g id="edge8" class="edge"><title>Node2&#45;&gt;Node9</title>
<path fill="none" stroke="midnightblue" d="M316.968,-123.404C340.057,-115.504 373.786,-102.663 401,-87 420.494,-75.7807 420.762,-65.8134 441,-56 489.793,-32.3403 552.206,-20.3783 589.538,-14.9343"/>
<polygon fill="midnightblue" stroke="midnightblue" points="590.399,-18.3485 599.823,-13.5077 589.437,-11.4148 590.399,-18.3485"/>
</g>
<!-- Node10 -->
<g id="node10" class="node"><title>Node10</title>
<polygon fill="white" stroke="#bfbfbf" points="449.5,-56.5 449.5,-86.5 550.5,-86.5 550.5,-56.5 449.5,-56.5"/>
<text text-anchor="start" x="457.5" y="-74.5" font-family="Helvetica,sans-Serif" font-size="10.00">boost/property_tree</text>
<text text-anchor="middle" x="500" y="-63.5" font-family="Helvetica,sans-Serif" font-size="10.00">/ptree.hpp</text>
</g>
<!-- Node2&#45;&gt;Node10 -->
<g id="edge9" class="edge"><title>Node2&#45;&gt;Node10</title>
<path fill="none" stroke="midnightblue" d="M320.088,-123.475C351.453,-114.588 401.428,-100.429 440.756,-89.2859"/>
<polygon fill="midnightblue" stroke="midnightblue" points="441.84,-92.6165 450.507,-86.523 439.932,-85.8816 441.84,-92.6165"/>
</g>
<!-- Node11&#45;&gt;Node9 -->
<g id="edge17" class="edge"><title>Node11&#45;&gt;Node9</title>
<path fill="none" stroke="midnightblue" d="M703.796,-124.025C662.918,-116.587 610.889,-104.072 598,-87 584.775,-69.483 597.154,-44.4946 608.484,-28.0193"/>
<polygon fill="midnightblue" stroke="midnightblue" points="611.393,-29.9722 614.502,-19.8437 605.755,-25.8227 611.393,-29.9722"/>
</g>
<!-- Node11&#45;&gt;Node10 -->
<g id="edge14" class="edge"><title>Node11&#45;&gt;Node10</title>
<path fill="none" stroke="midnightblue" d="M719.321,-123.475C677.932,-113.855 609.96,-98.057 560.643,-86.5947"/>
<polygon fill="midnightblue" stroke="midnightblue" points="561.263,-83.1457 550.73,-84.2908 559.678,-89.9639 561.263,-83.1457"/>
</g>
<!-- Node12 -->
<g id="node12" class="node"><title>Node12</title>
<g id="a_node12"><a xlink:href="Exceptions_8hpp.html" target="_top" xlink:title="ComPWA exceptions. ">
<polygon fill="white" stroke="red" points="789,-62 789,-81 897,-81 897,-62 789,-62"/>
<text text-anchor="middle" x="843" y="-69" font-family="Helvetica,sans-Serif" font-size="10.00">Core/Exceptions.hpp</text>
</a>
</g>
</g>
<!-- Node11&#45;&gt;Node12 -->
<g id="edge11" class="edge"><title>Node11&#45;&gt;Node12</title>
<path fill="none" stroke="midnightblue" d="M768.465,-123.475C782.419,-113.931 805.265,-98.3073 821.991,-86.8683"/>
<polygon fill="midnightblue" stroke="midnightblue" points="824.28,-89.5433 830.558,-81.0091 820.328,-83.7653 824.28,-89.5433"/>
</g>
<!-- Node13 -->
<g id="node13" class="node"><title>Node13</title>
<g id="a_node13"><a xlink:href="FitParameter_8hpp.html" target="_top" xlink:title="Core/FitParameter.hpp">
<polygon fill="white" stroke="red" points="607,-62 607,-81 723,-81 723,-62 607,-62"/>
<text text-anchor="middle" x="665" y="-69" font-family="Helvetica,sans-Serif" font-size="10.00">Core/FitParameter.hpp</text>
</a>
</g>
</g>
<!-- Node11&#45;&gt;Node13 -->
<g id="edge12" class="edge"><title>Node11&#45;&gt;Node13</title>
<path fill="none" stroke="midnightblue" d="M742.962,-123.475C728.231,-113.843 704.027,-98.0175 686.491,-86.5517"/>
<polygon fill="midnightblue" stroke="midnightblue" points="688.299,-83.5522 678.014,-81.0091 684.468,-89.411 688.299,-83.5522"/>
</g>
<!-- Node14 -->
<g id="node14" class="node"><title>Node14</title>
<polygon fill="white" stroke="#bfbfbf" points="915.5,-62 915.5,-81 950.5,-81 950.5,-62 915.5,-62"/>
<text text-anchor="middle" x="933" y="-69" font-family="Helvetica,sans-Serif" font-size="10.00">map</text>
</g>
<!-- Node11&#45;&gt;Node14 -->
<g id="edge15" class="edge"><title>Node11&#45;&gt;Node14</title>
<path fill="none" stroke="midnightblue" d="M791.55,-123.496C822.391,-115.612 867.936,-102.742 906,-87 907.033,-86.573 908.077,-86.1184 909.125,-85.6438"/>
<polygon fill="midnightblue" stroke="midnightblue" points="911.011,-88.6149 918.406,-81.0279 907.894,-82.3473 911.011,-88.6149"/>
</g>
<!-- Node15 -->
<g id="node15" class="node"><title>Node15</title>
<polygon fill="white" stroke="#bfbfbf" points="741,-62 741,-81 771,-81 771,-62 741,-62"/>
<text text-anchor="middle" x="756" y="-69" font-family="Helvetica,sans-Serif" font-size="10.00">set</text>
</g>
<!-- Node11&#45;&gt;Node15 -->
<g id="edge16" class="edge"><title>Node11&#45;&gt;Node15</title>
<path fill="none" stroke="midnightblue" d="M756,-123.475C756,-115.08 756,-101.981 756,-91.1631"/>
<polygon fill="midnightblue" stroke="midnightblue" points="759.5,-91.0091 756,-81.0091 752.5,-91.0091 759.5,-91.0091"/>
</g>
<!-- Node13&#45;&gt;Node9 -->
<g id="edge13" class="edge"><title>Node13&#45;&gt;Node9</title>
<path fill="none" stroke="midnightblue" d="M658.839,-61.9751C652.389,-53.0501 642.096,-38.8071 634.027,-27.6425"/>
<polygon fill="midnightblue" stroke="midnightblue" points="636.844,-25.564 628.149,-19.5091 631.17,-29.6642 636.844,-25.564"/>
</g>
</g>
</svg>
        <g id="navigator" transform="translate(0 0)" fill="#404254">
                <rect fill="#f2f5e9" fill-opacity="0.5" stroke="#606060" stroke-width=".5" x="0" y="0" width="60" height="60"/>
                <use id="zoomplus" xlink:href="#zoomPlus" x="17" y="9" onmousedown="handleZoom(evt,'in')"/>
                <use id="zoomminus" xlink:href="#zoomMin" x="42" y="9" onmousedown="handleZoom(evt,'out')"/>
                <use id="reset" xlink:href="#resetDef" x="30" y="36" onmousedown="handleReset()"/>
                <g id="arrowUp" xlink:href="#dirArrow" transform="translate(30 24)" onmousedown="handlePan(0,-1)">
                  <use xlink:href="#rim" fill="#404040">
                        <set attributeName="fill" to="#808080" begin="arrowUp.mouseover" end="arrowUp.mouseout"/>
                  </use>
                  <path fill="none" stroke="white" stroke-width="1.5" d="M0,-3.0v7 M-2.5,-0.5L0,-3.0L2.5,-0.5"/>
                </g>
                <g id="arrowRight" xlink:href="#dirArrow" transform="rotate(90) translate(36 -43)" onmousedown="handlePan(1,0)">
                  <use xlink:href="#rim" fill="#404040">
                        <set attributeName="fill" to="#808080" begin="arrowRight.mouseover" end="arrowRight.mouseout"/>
                  </use>
                  <path fill="none" stroke="white" stroke-width="1.5" d="M0,-3.0v7 M-2.5,-0.5L0,-3.0L2.5,-0.5"/>
                </g>
                <g id="arrowDown" xlink:href="#dirArrow" transform="rotate(180) translate(-30 -48)" onmousedown="handlePan(0,1)">
                  <use xlink:href="#rim" fill="#404040">
                        <set attributeName="fill" to="#808080" begin="arrowDown.mouseover" end="arrowDown.mouseout"/>
                  </use>
                  <path fill="none" stroke="white" stroke-width="1.5" d="M0,-3.0v7 M-2.5,-0.5L0,-3.0L2.5,-0.5"/>
                </g>
                <g id="arrowLeft" xlink:href="#dirArrow" transform="rotate(270) translate(-36 17)" onmousedown="handlePan(-1,0)">
                  <use xlink:href="#rim" fill="#404040">
                        <set attributeName="fill" to="#808080" begin="arrowLeft.mouseover" end="arrowLeft.mouseout"/>
                  </use>
                  <path fill="none" stroke="white" stroke-width="1.5" d="M0,-3.0v7 M-2.5,-0.5L0,-3.0L2.5,-0.5"/>
                </g>
        </g>
        <svg viewBox="0 0 15 15" width="100%" height="30px" preserveAspectRatio="xMaxYMin meet">
         <g id="arrow_out" transform="scale(0.3 0.3)">
          <a xlink:href="Event_8hpp__incl_org.svg" target="_base">
           <rect id="button" ry="5" rx="5" y="6" x="6" height="38" width="38"
                fill="#f2f5e9" fill-opacity="0.5" stroke="#606060" stroke-width="1.0"/>
           <path id="arrow"
             d="M 11.500037,31.436501 C 11.940474,20.09759 22.043105,11.32322 32.158766,21.979434 L 37.068811,17.246167 C 37.068811,17.246167 37.088388,32 37.088388,32 L 22.160133,31.978069 C 22.160133,31.978069 26.997745,27.140456 26.997745,27.140456 C 18.528582,18.264221 13.291696,25.230495 11.500037,31.436501 z"
             style="fill:#404040;"/>
          </a>
         </g>
        </svg>
</svg>
