<?xml version="1.0" encoding="UTF-8" standalone="no"?>
<!DOCTYPE svg PUBLIC "-//W3C//DTD SVG 1.1//EN"
 "http://www.w3.org/Graphics/SVG/1.1/DTD/svg11.dtd">
<!-- Generated by graphviz version 2.38.0 (20140413.2041)
 -->
<!-- Title: /home/travis/build/ComPWA/ComPWA/Data/EvtGen/EvtGenGenerator.hpp Pages: 1 -->
<svg width="363pt" height="285pt"
 viewBox="0.00 0.00 363.49 285.00" xmlns="http://www.w3.org/2000/svg" xmlns:xlink="http://www.w3.org/1999/xlink">
<g id="graph0" class="graph" transform="scale(1 1) rotate(0) translate(4 281)">
<title>/home/travis/build/ComPWA/ComPWA/Data/EvtGen/EvtGenGenerator.hpp</title>
<polygon fill="white" stroke="none" points="-4,4 -4,-281 359.488,-281 359.488,4 -4,4"/>
<!-- Node1 -->
<g id="node1" class="node"><title>Node1</title>
<polygon fill="#bfbfbf" stroke="black" points="46.4884,-235.5 46.4884,-276.5 207.488,-276.5 207.488,-235.5 46.4884,-235.5"/>
<text text-anchor="start" x="54.4884" y="-264.5" font-family="Helvetica,sans-Serif" font-size="10.00">/home/travis/build</text>
<text text-anchor="start" x="54.4884" y="-253.5" font-family="Helvetica,sans-Serif" font-size="10.00">/ComPWA/ComPWA/Data</text>
<text text-anchor="middle" x="126.988" y="-242.5" font-family="Helvetica,sans-Serif" font-size="10.00">/EvtGen/EvtGenGenerator.hpp</text>
</g>
<!-- Node2 -->
<g id="node2" class="node"><title>Node2</title>
<polygon fill="white" stroke="#bfbfbf" points="6.98836,-56.5 6.98836,-75.5 60.9884,-75.5 60.9884,-56.5 6.98836,-56.5"/>
<text text-anchor="middle" x="33.9884" y="-63.5" font-family="Helvetica,sans-Serif" font-size="10.00">random</text>
</g>
<!-- Node1&#45;&gt;Node2 -->
<g id="edge1" class="edge"><title>Node1&#45;&gt;Node2</title>
<path fill="none" stroke="midnightblue" d="M67.3744,-235.367C49.6881,-226.805 31.8858,-214.975 19.9884,-199 -3.36397,-167.645 -3.44766,-149.677 6.98836,-112 9.78022,-101.921 15.4975,-91.832 20.9551,-83.7694"/>
<polygon fill="midnightblue" stroke="midnightblue" points="23.8132,-85.7899 26.8369,-75.6357 18.1409,-81.6881 23.8132,-85.7899"/>
</g>
<!-- Node3 -->
<g id="node3" class="node"><title>Node3</title>
<g id="a_node3"><a xlink:href="Event_8hpp.html" target="_top" xlink:title="Core/Event.hpp">
<polygon fill="white" stroke="black" points="137.988,-112.5 137.988,-131.5 227.988,-131.5 227.988,-112.5 137.988,-112.5"/>
<text text-anchor="middle" x="182.988" y="-119.5" font-family="Helvetica,sans-Serif" font-size="10.00">Core/Event.hpp</text>
</a>
</g>
</g>
<!-- Node1&#45;&gt;Node3 -->
<g id="edge2" class="edge"><title>Node1&#45;&gt;Node3</title>
<path fill="none" stroke="midnightblue" d="M135.372,-235.238C146.212,-209.688 164.933,-165.56 175.38,-140.934"/>
<polygon fill="midnightblue" stroke="midnightblue" points="178.62,-142.258 179.304,-131.686 172.176,-139.524 178.62,-142.258"/>
</g>
<!-- Node6 -->
<g id="node6" class="node"><title>Node6</title>
<g id="a_node6"><a xlink:href="Generator_8hpp.html" target="_top" xlink:title="Core/Generator.hpp">
<polygon fill="white" stroke="black" points="29.4884,-174 29.4884,-193 140.488,-193 140.488,-174 29.4884,-174"/>
<text text-anchor="middle" x="84.9884" y="-181" font-family="Helvetica,sans-Serif" font-size="10.00">Core/Generator.hpp</text>
</a>
</g>
</g>
<!-- Node1&#45;&gt;Node6 -->
<g id="edge6" class="edge"><title>Node1&#45;&gt;Node6</title>
<path fill="none" stroke="midnightblue" d="M115.289,-235.362C109.035,-224.864 101.402,-212.052 95.3617,-201.912"/>
<polygon fill="midnightblue" stroke="midnightblue" points="98.2804,-199.973 90.1555,-193.173 92.2667,-203.556 98.2804,-199.973"/>
</g>
<!-- Node8 -->
<g id="node8" class="node"><title>Node8</title>
<polygon fill="white" stroke="#bfbfbf" points="196.488,-168.5 196.488,-198.5 355.488,-198.5 355.488,-168.5 196.488,-168.5"/>
<text text-anchor="start" x="204.488" y="-186.5" font-family="Helvetica,sans-Serif" font-size="10.00">ThirdParty/EvtGen/EvtRandom</text>
<text text-anchor="middle" x="275.988" y="-175.5" font-family="Helvetica,sans-Serif" font-size="10.00">Engine.hh</text>
</g>
<!-- Node1&#45;&gt;Node8 -->
<g id="edge10" class="edge"><title>Node1&#45;&gt;Node8</title>
<path fill="none" stroke="midnightblue" d="M168.493,-235.362C189.85,-225.257 215.739,-213.007 236.759,-203.061"/>
<polygon fill="midnightblue" stroke="midnightblue" points="238.498,-206.111 246.04,-198.67 235.504,-199.783 238.498,-206.111"/>
</g>
<!-- Node4 -->
<g id="node4" class="node"><title>Node4</title>
<g id="a_node4"><a xlink:href="Particle_8hpp.html" target="_top" xlink:title="Particle and FourMomentum class. ">
<polygon fill="white" stroke="red" points="90.9884,-56.5 90.9884,-75.5 188.988,-75.5 188.988,-56.5 90.9884,-56.5"/>
<text text-anchor="middle" x="139.988" y="-63.5" font-family="Helvetica,sans-Serif" font-size="10.00">Core/Particle.hpp</text>
</a>
</g>
</g>
<!-- Node3&#45;&gt;Node4 -->
<g id="edge3" class="edge"><title>Node3&#45;&gt;Node4</title>
<path fill="none" stroke="midnightblue" d="M175.888,-112.083C169.751,-104.377 160.719,-93.0333 153.249,-83.6531"/>
<polygon fill="midnightblue" stroke="midnightblue" points="155.924,-81.3936 146.957,-75.7511 150.448,-85.7542 155.924,-81.3936"/>
</g>
<!-- Node5 -->
<g id="node5" class="node"><title>Node5</title>
<polygon fill="white" stroke="#bfbfbf" points="154.488,-0.5 154.488,-19.5 201.488,-19.5 201.488,-0.5 154.488,-0.5"/>
<text text-anchor="middle" x="177.988" y="-7.5" font-family="Helvetica,sans-Serif" font-size="10.00">vector</text>
</g>
<!-- Node3&#45;&gt;Node5 -->
<g id="edge5" class="edge"><title>Node3&#45;&gt;Node5</title>
<path fill="none" stroke="midnightblue" d="M187.509,-112.191C193.344,-99.7133 202.268,-76.1656 197.988,-56 195.992,-46.5915 191.888,-36.7618 187.914,-28.6981"/>
<polygon fill="midnightblue" stroke="midnightblue" points="190.875,-26.8101 183.119,-19.5932 184.682,-30.0721 190.875,-26.8101"/>
</g>
<!-- Node4&#45;&gt;Node5 -->
<g id="edge4" class="edge"><title>Node4&#45;&gt;Node5</title>
<path fill="none" stroke="midnightblue" d="M146.263,-56.083C151.631,-48.4554 159.506,-37.2645 166.067,-27.9408"/>
<polygon fill="midnightblue" stroke="midnightblue" points="168.938,-29.9434 171.83,-19.7511 163.213,-25.9149 168.938,-29.9434"/>
</g>
<!-- Node6&#45;&gt;Node3 -->
<g id="edge7" class="edge"><title>Node6&#45;&gt;Node3</title>
<path fill="none" stroke="midnightblue" d="M99.0294,-173.975C115.039,-164.255 141.439,-148.227 160.362,-136.737"/>
<polygon fill="midnightblue" stroke="midnightblue" points="162.242,-139.691 168.973,-131.509 158.609,-133.707 162.242,-139.691"/>
</g>
<!-- Node7 -->
<g id="node7" class="node"><title>Node7</title>
<g id="a_node7"><a xlink:href="Random_8hpp.html" target="_top" xlink:title="Core/Random.hpp">
<polygon fill="white" stroke="black" points="16.4884,-112.5 16.4884,-131.5 119.488,-131.5 119.488,-112.5 16.4884,-112.5"/>
<text text-anchor="middle" x="67.9884" y="-119.5" font-family="Helvetica,sans-Serif" font-size="10.00">Core/Random.hpp</text>
</a>
</g>
</g>
<!-- Node6&#45;&gt;Node7 -->
<g id="edge8" class="edge"><title>Node6&#45;&gt;Node7</title>
<path fill="none" stroke="midnightblue" d="M82.5527,-173.975C80.1289,-165.492 76.3324,-152.204 73.2233,-141.322"/>
<polygon fill="midnightblue" stroke="midnightblue" points="76.5321,-140.163 70.4195,-131.509 69.8015,-142.086 76.5321,-140.163"/>
</g>
<!-- Node7&#45;&gt;Node2 -->
<g id="edge9" class="edge"><title>Node7&#45;&gt;Node2</title>
<path fill="none" stroke="midnightblue" d="M62.374,-112.083C57.6209,-104.534 50.6703,-93.4948 44.8367,-84.2298"/>
<polygon fill="midnightblue" stroke="midnightblue" points="47.7883,-82.3486 39.4983,-75.7511 41.8647,-86.0783 47.7883,-82.3486"/>
</g>
</g>
</svg>
