<?xml version="1.0" encoding="UTF-8" standalone="no"?>
<!DOCTYPE svg PUBLIC "-//W3C//DTD SVG 1.1//EN"
 "http://www.w3.org/Graphics/SVG/1.1/DTD/svg11.dtd">
<!-- Generated by graphviz version 2.38.0 (20140413.2041)
 -->
<!-- Title: /home/travis/build/ComPWA/ComPWA/Physics/EvtGen/EvtGenIF.cpp Pages: 1 -->
<!--zoomable 229 -->
<svg id="main" version="1.1" xmlns="http://www.w3.org/2000/svg" xmlns:xlink="http://www.w3.org/1999/xlink" xml:space="preserve" onload="init(evt)">
<style type="text/css"><![CDATA[
.edge:hover path { stroke: red; }
.edge:hover polygon { stroke: red; fill: red; }
]]></style>
<script type="text/javascript"><![CDATA[
var edges = document.getElementsByTagName('g');
if (edges && edges.length) {
  for (var i=0;i<edges.length;i++) {
    if (edges[i].id.substr(0,4)=='edge') {
      edges[i].setAttribute('class','edge');
    }
  }
}
]]></script>
        <defs>
                <circle id="rim" cx="0" cy="0" r="7"/>
                <circle id="rim2" cx="0" cy="0" r="3.5"/>
                <g id="zoomPlus">
                        <use xlink:href="#rim" fill="#404040">
                                <set attributeName="fill" to="#808080" begin="zoomplus.mouseover" end="zoomplus.mouseout"/>
                        </use>
                        <path d="M-4,0h8M0,-4v8" fill="none" stroke="white" stroke-width="1.5" pointer-events="none"/>
                </g>
                <g id="zoomMin">
                        <use xlink:href="#rim" fill="#404040">
                                <set attributeName="fill" to="#808080" begin="zoomminus.mouseover" end="zoomminus.mouseout"/>
                        </use>
                        <path d="M-4,0h8" fill="none" stroke="white" stroke-width="1.5" pointer-events="none"/>
                </g>
                <g id="dirArrow">
                        <path fill="none" stroke="white" stroke-width="1.5" d="M0,-3.0v7 M-2.5,-0.5L0,-3.0L2.5,-0.5"/>
                </g>
               <g id="resetDef">
                       <use xlink:href="#rim2" fill="#404040">
                               <set attributeName="fill" to="#808080" begin="reset.mouseover" end="reset.mouseout"/>
                       </use>
               </g>
        </defs>

<script type="text/javascript">
var viewWidth = 1011;
var viewHeight = 229;
var sectionId = 'dynsection-0';
</script>
<script xlink:href="svgpan.js"/>
<svg id="graph" class="graph">
<g id="viewport">
<title>/home/travis/build/ComPWA/ComPWA/Physics/EvtGen/EvtGenIF.cpp</title>
<polygon fill="white" stroke="none" points="-4,4 -4,-225 1006.5,-225 1006.5,4 -4,4"/>
<!-- Node1 -->
<g id="node1" class="node"><title>Node1</title>
<polygon fill="#bfbfbf" stroke="black" points="372,-179.5 372,-220.5 521,-220.5 521,-179.5 372,-179.5"/>
<text text-anchor="start" x="380" y="-208.5" font-family="Helvetica,sans-Serif" font-size="10.00">/home/travis/build</text>
<text text-anchor="start" x="380" y="-197.5" font-family="Helvetica,sans-Serif" font-size="10.00">/ComPWA/ComPWA/Physics</text>
<text text-anchor="middle" x="446.5" y="-186.5" font-family="Helvetica,sans-Serif" font-size="10.00">/EvtGen/EvtGenIF.cpp</text>
</g>
<!-- Node2 -->
<g id="node2" class="node"><title>Node2</title>
<polygon fill="white" stroke="#bfbfbf" points="380,-123.5 380,-142.5 431,-142.5 431,-123.5 380,-123.5"/>
<text text-anchor="middle" x="405.5" y="-130.5" font-family="Helvetica,sans-Serif" font-size="10.00">numeric</text>
</g>
<!-- Node1&#45;&gt;Node2 -->
<g id="edge1" class="edge"><title>Node1&#45;&gt;Node2</title>
<path fill="none" stroke="midnightblue" d="M434.199,-179.498C428.517,-170.49 421.829,-159.888 416.34,-151.185"/>
<polygon fill="midnightblue" stroke="midnightblue" points="419.253,-149.243 410.958,-142.652 413.333,-152.978 419.253,-149.243"/>
</g>
<!-- Node3 -->
<g id="node3" class="node"><title>Node3</title>
<g id="a_node3"><a xlink:href="EvtGenIF_8hpp.html" target="_top" xlink:title="EvtGenIF.hpp">
<polygon fill="white" stroke="black" points="449,-123.5 449,-142.5 526,-142.5 526,-123.5 449,-123.5"/>
<text text-anchor="middle" x="487.5" y="-130.5" font-family="Helvetica,sans-Serif" font-size="10.00">EvtGenIF.hpp</text>
</a>
</g>
</g>
<!-- Node1&#45;&gt;Node3 -->
<g id="edge2" class="edge"><title>Node1&#45;&gt;Node3</title>
<path fill="none" stroke="midnightblue" d="M458.801,-179.498C464.483,-170.49 471.171,-159.888 476.66,-151.185"/>
<polygon fill="midnightblue" stroke="midnightblue" points="479.667,-152.978 482.042,-142.652 473.747,-149.243 479.667,-152.978"/>
</g>
<!-- Node4 -->
<g id="node4" class="node"><title>Node4</title>
<g id="a_node4"><a xlink:href="Event_8hpp.html" target="_top" xlink:title="Core/Event.hpp">
<polygon fill="white" stroke="red" points="0,-62 0,-81 85,-81 85,-62 0,-62"/>
<text text-anchor="middle" x="42.5" y="-69" font-family="Helvetica,sans-Serif" font-size="10.00">Core/Event.hpp</text>
</a>
</g>
</g>
<!-- Node3&#45;&gt;Node4 -->
<g id="edge3" class="edge"><title>Node3&#45;&gt;Node4</title>
<path fill="none" stroke="midnightblue" d="M448.816,-124.321C446.006,-123.846 443.212,-123.4 440.5,-123 287.547,-100.441 246.389,-115.866 94.5,-87 89.6891,-86.0857 84.6759,-84.9406 79.7433,-83.697"/>
<polygon fill="midnightblue" stroke="midnightblue" points="80.3868,-80.2463 69.8224,-81.0483 78.5812,-87.0094 80.3868,-80.2463"/>
</g>
<!-- Node5 -->
<g id="node5" class="node"><title>Node5</title>
<g id="a_node5"><a xlink:href="FunctionTree_2FitParameter_8hpp.html" target="_top" xlink:title="Implementations of Parameter for various data types. ">
<polygon fill="white" stroke="red" points="103.5,-62 103.5,-81 279.5,-81 279.5,-62 103.5,-62"/>
<text text-anchor="middle" x="191.5" y="-69" font-family="Helvetica,sans-Serif" font-size="10.00">Core/FunctionTree/FitParameter.hpp</text>
</a>
</g>
</g>
<!-- Node3&#45;&gt;Node5 -->
<g id="edge4" class="edge"><title>Node3&#45;&gt;Node5</title>
<path fill="none" stroke="midnightblue" d="M448.803,-124.221C396.362,-113.68 302.555,-94.8236 243.857,-83.0246"/>
<polygon fill="midnightblue" stroke="midnightblue" points="244.531,-79.5901 234.038,-81.0506 243.152,-86.4528 244.531,-79.5901"/>
</g>
<!-- Node6 -->
<g id="node6" class="node"><title>Node6</title>
<g id="a_node6"><a xlink:href="Logging_8hpp.html" target="_top" xlink:title="Core/Logging.hpp">
<polygon fill="white" stroke="red" points="199,-0.5 199,-19.5 292,-19.5 292,-0.5 199,-0.5"/>
<text text-anchor="middle" x="245.5" y="-7.5" font-family="Helvetica,sans-Serif" font-size="10.00">Core/Logging.hpp</text>
</a>
</g>
</g>
<!-- Node3&#45;&gt;Node6 -->
<g id="edge6" class="edge"><title>Node3&#45;&gt;Node6</title>
<path fill="none" stroke="midnightblue" d="M448.84,-123.439C408.214,-114.049 347.361,-98.7526 326.5,-87 311.955,-78.8059 280.032,-46.9302 260.892,-27.1551"/>
<polygon fill="midnightblue" stroke="midnightblue" points="263.24,-24.548 253.787,-19.7641 258.194,-29.399 263.24,-24.548"/>
</g>
<!-- Node7 -->
<g id="node7" class="node"><title>Node7</title>
<g id="a_node7"><a xlink:href="DalitzKinematics_8hpp.html" target="_top" xlink:title="Contains DalitzKinematics class. ">
<polygon fill="white" stroke="red" points="335.5,-62 335.5,-81 519.5,-81 519.5,-62 335.5,-62"/>
<text text-anchor="middle" x="427.5" y="-69" font-family="Helvetica,sans-Serif" font-size="10.00">Physics/EvtGen/DalitzKinematics.hpp</text>
</a>
</g>
</g>
<!-- Node3&#45;&gt;Node7 -->
<g id="edge7" class="edge"><title>Node3&#45;&gt;Node7</title>
<path fill="none" stroke="midnightblue" d="M478.903,-123.475C469.636,-114.285 454.683,-99.4563 443.288,-88.156"/>
<polygon fill="midnightblue" stroke="midnightblue" points="445.646,-85.5653 436.081,-81.0091 440.717,-90.5358 445.646,-85.5653"/>
</g>
<!-- Node8 -->
<g id="node8" class="node"><title>Node8</title>
<g id="a_node8"><a xlink:href="SubSystem_8hpp.html" target="_top" xlink:title="Contains SubSystem class. ">
<polygon fill="white" stroke="red" points="425,-0.5 425,-19.5 550,-19.5 550,-0.5 425,-0.5"/>
<text text-anchor="middle" x="487.5" y="-7.5" font-family="Helvetica,sans-Serif" font-size="10.00">Physics/SubSystem.hpp</text>
</a>
</g>
</g>
<!-- Node3&#45;&gt;Node8 -->
<g id="edge9" class="edge"><title>Node3&#45;&gt;Node8</title>
<path fill="none" stroke="midnightblue" d="M499.041,-123.49C508.979,-115.379 522.622,-102.178 528.5,-87 533.475,-74.1519 533.475,-68.8481 528.5,-56 524.046,-44.498 515.132,-34.1311 506.751,-26.2546"/>
<polygon fill="midnightblue" stroke="midnightblue" points="508.872,-23.4599 499.041,-19.5103 504.263,-28.7286 508.872,-23.4599"/>
</g>
<!-- Node9 -->
<g id="node9" class="node"><title>Node9</title>
<polygon fill="white" stroke="#bfbfbf" points="576,-56.5 576,-86.5 717,-86.5 717,-56.5 576,-56.5"/>
<text text-anchor="start" x="584" y="-74.5" font-family="Helvetica,sans-Serif" font-size="10.00">ThirdParty/EvtGen/EvtDalitz</text>
<text text-anchor="middle" x="646.5" y="-63.5" font-family="Helvetica,sans-Serif" font-size="10.00">Plot.hh</text>
</g>
<!-- Node3&#45;&gt;Node9 -->
<g id="edge10" class="edge"><title>Node3&#45;&gt;Node9</title>
<path fill="none" stroke="midnightblue" d="M510.281,-123.475C533.425,-114.814 569.952,-101.145 599.357,-90.1415"/>
<polygon fill="midnightblue" stroke="midnightblue" points="600.888,-93.3058 609.027,-86.523 598.434,-86.7498 600.888,-93.3058"/>
</g>
<!-- Node10 -->
<g id="node10" class="node"><title>Node10</title>
<polygon fill="white" stroke="#bfbfbf" points="735,-56.5 735,-86.5 876,-86.5 876,-56.5 735,-56.5"/>
<text text-anchor="start" x="743" y="-74.5" font-family="Helvetica,sans-Serif" font-size="10.00">ThirdParty/EvtGen/EvtDalitz</text>
<text text-anchor="middle" x="805.5" y="-63.5" font-family="Helvetica,sans-Serif" font-size="10.00">Reso.hh</text>
</g>
<!-- Node3&#45;&gt;Node10 -->
<g id="edge11" class="edge"><title>Node3&#45;&gt;Node10</title>
<path fill="none" stroke="midnightblue" d="M526.175,-124.764C575.274,-115.577 661.238,-99.4924 724.871,-87.5863"/>
<polygon fill="midnightblue" stroke="midnightblue" points="725.697,-90.9925 734.883,-85.713 724.41,-84.1119 725.697,-90.9925"/>
</g>
<!-- Node11 -->
<g id="node11" class="node"><title>Node11</title>
<g id="a_node11"><a xlink:href="Integration_8hpp.html" target="_top" xlink:title="Tools/Integration.hpp">
<polygon fill="white" stroke="red" points="894.5,-62 894.5,-81 1002.5,-81 1002.5,-62 894.5,-62"/>
<text text-anchor="middle" x="948.5" y="-69" font-family="Helvetica,sans-Serif" font-size="10.00">Tools/Integration.hpp</text>
</a>
</g>
</g>
<!-- Node3&#45;&gt;Node11 -->
<g id="edge12" class="edge"><title>Node3&#45;&gt;Node11</title>
<path fill="none" stroke="midnightblue" d="M526.126,-129.101C597.47,-123.42 754.585,-109.392 885.5,-87 891.744,-85.9321 898.296,-84.6303 904.718,-83.2497"/>
<polygon fill="midnightblue" stroke="midnightblue" points="905.64,-86.63 914.639,-81.0375 904.117,-79.7978 905.64,-86.63"/>
</g>
<!-- Node5&#45;&gt;Node6 -->
<g id="edge5" class="edge"><title>Node5&#45;&gt;Node6</title>
<path fill="none" stroke="midnightblue" d="M199.237,-61.9751C207.497,-52.8733 220.777,-38.241 230.994,-26.983"/>
<polygon fill="midnightblue" stroke="midnightblue" points="233.649,-29.2663 237.777,-19.5091 228.465,-24.5619 233.649,-29.2663"/>
</g>
<!-- Node7&#45;&gt;Node8 -->
<g id="edge8" class="edge"><title>Node7&#45;&gt;Node8</title>
<path fill="none" stroke="midnightblue" d="M436.097,-61.9751C445.364,-52.785 460.317,-37.9563 471.712,-26.656"/>
<polygon fill="midnightblue" stroke="midnightblue" points="474.283,-29.0358 478.919,-19.5091 469.354,-24.0653 474.283,-29.0358"/>
</g>
</g>
</svg>
        <g id="navigator" transform="translate(0 0)" fill="#404254">
                <rect fill="#f2f5e9" fill-opacity="0.5" stroke="#606060" stroke-width=".5" x="0" y="0" width="60" height="60"/>
                <use id="zoomplus" xlink:href="#zoomPlus" x="17" y="9" onmousedown="handleZoom(evt,'in')"/>
                <use id="zoomminus" xlink:href="#zoomMin" x="42" y="9" onmousedown="handleZoom(evt,'out')"/>
                <use id="reset" xlink:href="#resetDef" x="30" y="36" onmousedown="handleReset()"/>
                <g id="arrowUp" xlink:href="#dirArrow" transform="translate(30 24)" onmousedown="handlePan(0,-1)">
                  <use xlink:href="#rim" fill="#404040">
                        <set attributeName="fill" to="#808080" begin="arrowUp.mouseover" end="arrowUp.mouseout"/>
                  </use>
                  <path fill="none" stroke="white" stroke-width="1.5" d="M0,-3.0v7 M-2.5,-0.5L0,-3.0L2.5,-0.5"/>
                </g>
                <g id="arrowRight" xlink:href="#dirArrow" transform="rotate(90) translate(36 -43)" onmousedown="handlePan(1,0)">
                  <use xlink:href="#rim" fill="#404040">
                        <set attributeName="fill" to="#808080" begin="arrowRight.mouseover" end="arrowRight.mouseout"/>
                  </use>
                  <path fill="none" stroke="white" stroke-width="1.5" d="M0,-3.0v7 M-2.5,-0.5L0,-3.0L2.5,-0.5"/>
                </g>
                <g id="arrowDown" xlink:href="#dirArrow" transform="rotate(180) translate(-30 -48)" onmousedown="handlePan(0,1)">
                  <use xlink:href="#rim" fill="#404040">
                        <set attributeName="fill" to="#808080" begin="arrowDown.mouseover" end="arrowDown.mouseout"/>
                  </use>
                  <path fill="none" stroke="white" stroke-width="1.5" d="M0,-3.0v7 M-2.5,-0.5L0,-3.0L2.5,-0.5"/>
                </g>
                <g id="arrowLeft" xlink:href="#dirArrow" transform="rotate(270) translate(-36 17)" onmousedown="handlePan(-1,0)">
                  <use xlink:href="#rim" fill="#404040">
                        <set attributeName="fill" to="#808080" begin="arrowLeft.mouseover" end="arrowLeft.mouseout"/>
                  </use>
                  <path fill="none" stroke="white" stroke-width="1.5" d="M0,-3.0v7 M-2.5,-0.5L0,-3.0L2.5,-0.5"/>
                </g>
        </g>
        <svg viewBox="0 0 15 15" width="100%" height="30px" preserveAspectRatio="xMaxYMin meet">
         <g id="arrow_out" transform="scale(0.3 0.3)">
          <a xlink:href="EvtGenIF_8cpp__incl_org.svg" target="_base">
           <rect id="button" ry="5" rx="5" y="6" x="6" height="38" width="38"
                fill="#f2f5e9" fill-opacity="0.5" stroke="#606060" stroke-width="1.0"/>
           <path id="arrow"
             d="M 11.500037,31.436501 C 11.940474,20.09759 22.043105,11.32322 32.158766,21.979434 L 37.068811,17.246167 C 37.068811,17.246167 37.088388,32 37.088388,32 L 22.160133,31.978069 C 22.160133,31.978069 26.997745,27.140456 26.997745,27.140456 C 18.528582,18.264221 13.291696,25.230495 11.500037,31.436501 z"
             style="fill:#404040;"/>
          </a>
         </g>
        </svg>
</svg>
