<?xml version="1.0" encoding="UTF-8" standalone="no"?>
<!DOCTYPE svg PUBLIC "-//W3C//DTD SVG 1.1//EN"
 "http://www.w3.org/Graphics/SVG/1.1/DTD/svg11.dtd">
<!-- Generated by graphviz version 2.38.0 (20140413.2041)
 -->
<!-- Title: /home/travis/build/ComPWA/ComPWA/ThirdParty/EvtGen/EvtTensor3C.hh Pages: 1 -->
<svg width="242pt" height="162pt"
 viewBox="0.00 0.00 242.00 162.00" xmlns="http://www.w3.org/2000/svg" xmlns:xlink="http://www.w3.org/1999/xlink">
<g id="graph0" class="graph" transform="scale(1 1) rotate(0) translate(4 158)">
<title>/home/travis/build/ComPWA/ComPWA/ThirdParty/EvtGen/EvtTensor3C.hh</title>
<polygon fill="white" stroke="none" points="-4,4 -4,-158 238,-158 238,4 -4,4"/>
<!-- Node1 -->
<g id="node1" class="node"><title>Node1</title>
<polygon fill="#bfbfbf" stroke="black" points="-1.42109e-14,-112.5 -1.42109e-14,-153.5 158,-153.5 158,-112.5 -1.42109e-14,-112.5"/>
<text text-anchor="start" x="8" y="-141.5" font-family="Helvetica,sans-Serif" font-size="10.00">/home/travis/build</text>
<text text-anchor="start" x="8" y="-130.5" font-family="Helvetica,sans-Serif" font-size="10.00">/ComPWA/ComPWA/ThirdParty</text>
<text text-anchor="middle" x="79" y="-119.5" font-family="Helvetica,sans-Serif" font-size="10.00">/EvtGen/EvtTensor3C.hh</text>
</g>
<!-- Node2 -->
<g id="node2" class="node"><title>Node2</title>
<polygon fill="white" stroke="#bfbfbf" points="13.5,-0.5 13.5,-19.5 72.5,-19.5 72.5,-0.5 13.5,-0.5"/>
<text text-anchor="middle" x="43" y="-7.5" font-family="Helvetica,sans-Serif" font-size="10.00">iostream</text>
</g>
<!-- Node1&#45;&gt;Node2 -->
<g id="edge1" class="edge"><title>Node1&#45;&gt;Node2</title>
<path fill="none" stroke="midnightblue" d="M73.1359,-112.29C66.287,-89.2703 55.0506,-51.5033 48.4053,-29.1677"/>
<polygon fill="midnightblue" stroke="midnightblue" points="51.7576,-28.1615 45.5512,-19.5748 45.0482,-30.1577 51.7576,-28.1615"/>
</g>
<!-- Node3 -->
<g id="node3" class="node"><title>Node3</title>
<g id="a_node3"><a xlink:href="EvtComplex_8hh.html" target="_top" xlink:title="EvtComplex.hh">
<polygon fill="white" stroke="black" points="71.5,-56.5 71.5,-75.5 160.5,-75.5 160.5,-56.5 71.5,-56.5"/>
<text text-anchor="middle" x="116" y="-63.5" font-family="Helvetica,sans-Serif" font-size="10.00">EvtComplex.hh</text>
</a>
</g>
</g>
<!-- Node1&#45;&gt;Node3 -->
<g id="edge2" class="edge"><title>Node1&#45;&gt;Node3</title>
<path fill="none" stroke="midnightblue" d="M90.1012,-112.498C95.174,-103.586 101.135,-93.1135 106.059,-84.4636"/>
<polygon fill="midnightblue" stroke="midnightblue" points="109.169,-86.0746 111.075,-75.6525 103.086,-82.6117 109.169,-86.0746"/>
</g>
<!-- Node3&#45;&gt;Node2 -->
<g id="edge3" class="edge"><title>Node3&#45;&gt;Node2</title>
<path fill="none" stroke="midnightblue" d="M104.271,-56.324C93.1626,-48.1066 76.2578,-35.6017 63.0167,-25.8069"/>
<polygon fill="midnightblue" stroke="midnightblue" points="65.0631,-22.9671 54.9421,-19.8339 60.9001,-28.5948 65.0631,-22.9671"/>
</g>
<!-- Node4 -->
<g id="node4" class="node"><title>Node4</title>
<polygon fill="white" stroke="#bfbfbf" points="90.5,-0.5 90.5,-19.5 141.5,-19.5 141.5,-0.5 90.5,-0.5"/>
<text text-anchor="middle" x="116" y="-7.5" font-family="Helvetica,sans-Serif" font-size="10.00">math.h</text>
</g>
<!-- Node3&#45;&gt;Node4 -->
<g id="edge4" class="edge"><title>Node3&#45;&gt;Node4</title>
<path fill="none" stroke="midnightblue" d="M116,-56.083C116,-49.0059 116,-38.8611 116,-29.9865"/>
<polygon fill="midnightblue" stroke="midnightblue" points="119.5,-29.751 116,-19.7511 112.5,-29.7511 119.5,-29.751"/>
</g>
<!-- Node5 -->
<g id="node5" class="node"><title>Node5</title>
<g id="a_node5"><a xlink:href="EvtConst_8hh.html" target="_top" xlink:title="EvtConst.hh">
<polygon fill="white" stroke="black" points="160,-0.5 160,-19.5 234,-19.5 234,-0.5 160,-0.5"/>
<text text-anchor="middle" x="197" y="-7.5" font-family="Helvetica,sans-Serif" font-size="10.00">EvtConst.hh</text>
</a>
</g>
</g>
<!-- Node3&#45;&gt;Node5 -->
<g id="edge5" class="edge"><title>Node3&#45;&gt;Node5</title>
<path fill="none" stroke="midnightblue" d="M129.014,-56.324C141.532,-47.979 160.682,-35.2122 175.471,-25.3524"/>
<polygon fill="midnightblue" stroke="midnightblue" points="177.639,-28.1137 184.018,-19.6545 173.756,-22.2894 177.639,-28.1137"/>
</g>
</g>
</svg>
