<?xml version="1.0" encoding="UTF-8" standalone="no"?>
<!DOCTYPE svg PUBLIC "-//W3C//DTD SVG 1.1//EN"
 "http://www.w3.org/Graphics/SVG/1.1/DTD/svg11.dtd">
<!-- Generated by graphviz version 2.38.0 (20140413.2041)
 -->
<!-- Title: /home/travis/build/ComPWA/ComPWA/Tools/FitFractions.hpp Pages: 1 -->
<svg width="845pt" height="217pt"
 viewBox="0.00 0.00 845.00 217.00" xmlns="http://www.w3.org/2000/svg" xmlns:xlink="http://www.w3.org/1999/xlink">
<g id="graph0" class="graph" transform="scale(1 1) rotate(0) translate(4 213)">
<title>/home/travis/build/ComPWA/ComPWA/Tools/FitFractions.hpp</title>
<polygon fill="white" stroke="none" points="-4,4 -4,-213 841,-213 841,4 -4,4"/>
<!-- Node1 -->
<g id="node1" class="node"><title>Node1</title>
<polygon fill="#bfbfbf" stroke="black" points="288,-167.5 288,-208.5 426,-208.5 426,-167.5 288,-167.5"/>
<text text-anchor="start" x="296" y="-196.5" font-family="Helvetica,sans-Serif" font-size="10.00">/home/travis/build</text>
<text text-anchor="start" x="296" y="-185.5" font-family="Helvetica,sans-Serif" font-size="10.00">/ComPWA/ComPWA/Tools</text>
<text text-anchor="middle" x="357" y="-174.5" font-family="Helvetica,sans-Serif" font-size="10.00">/FitFractions.hpp</text>
</g>
<!-- Node2 -->
<g id="node2" class="node"><title>Node2</title>
<g id="a_node2"><a xlink:href="DalitzFitD03K_8cpp.html" target="_top" xlink:title="Executable for Dalitz plot analysis of the decay D0 &#45;&gt; K_S K+ K&#45;. ">
<polygon fill="white" stroke="black" points="0,-0.5 0,-52.5 158,-52.5 158,-0.5 0,-0.5"/>
<text text-anchor="start" x="8" y="-40.5" font-family="Helvetica,sans-Serif" font-size="10.00">/home/travis/build</text>
<text text-anchor="start" x="8" y="-29.5" font-family="Helvetica,sans-Serif" font-size="10.00">/ComPWA/ComPWA/Examples</text>
<text text-anchor="start" x="8" y="-18.5" font-family="Helvetica,sans-Serif" font-size="10.00">/DalitzAnalysis_D0KsKK</text>
<text text-anchor="middle" x="79" y="-7.5" font-family="Helvetica,sans-Serif" font-size="10.00">/DalitzFitD03K.cpp</text>
</a>
</g>
</g>
<!-- Node1&#45;&gt;Node2 -->
<g id="edge1" class="edge"><title>Node1&#45;&gt;Node2</title>
<path fill="none" stroke="midnightblue" d="M311.519,-162.403C293.813,-152.73 273.396,-141.456 255,-131 208.774,-104.726 156.294,-73.708 120.76,-52.5257"/>
<polygon fill="midnightblue" stroke="midnightblue" points="310.05,-165.589 320.506,-167.302 313.401,-159.443 310.05,-165.589"/>
</g>
<!-- Node3 -->
<g id="node3" class="node"><title>Node3</title>
<g id="a_node3"><a xlink:href="DalitzFitApp_8cpp.html" target="_top" xlink:title="Simple Dalitz plot analysis with ComPWA. ">
<polygon fill="white" stroke="black" points="176,-6 176,-47 334,-47 334,-6 176,-6"/>
<text text-anchor="start" x="184" y="-35" font-family="Helvetica,sans-Serif" font-size="10.00">/home/travis/build</text>
<text text-anchor="start" x="184" y="-24" font-family="Helvetica,sans-Serif" font-size="10.00">/ComPWA/ComPWA/Examples</text>
<text text-anchor="middle" x="255" y="-13" font-family="Helvetica,sans-Serif" font-size="10.00">/DalitzFit/DalitzFitApp.cpp</text>
</a>
</g>
</g>
<!-- Node1&#45;&gt;Node3 -->
<g id="edge2" class="edge"><title>Node1&#45;&gt;Node3</title>
<path fill="none" stroke="midnightblue" d="M306.338,-162.062C294.045,-153.767 282.12,-143.409 274,-131 257.295,-105.47 254.3,-69.2041 254.236,-47.0735"/>
<polygon fill="midnightblue" stroke="midnightblue" points="304.547,-165.071 314.865,-167.476 308.299,-159.161 304.547,-165.071"/>
</g>
<!-- Node4 -->
<g id="node4" class="node"><title>Node4</title>
<g id="a_node4"><a xlink:href="EvtGenFit_8cpp.html" target="_top" xlink:title="/home/travis/build\l/ComPWA/ComPWA/Examples\l/EvtGen/EvtGenFit.cpp">
<polygon fill="white" stroke="black" points="449,-89.5 449,-130.5 607,-130.5 607,-89.5 449,-89.5"/>
<text text-anchor="start" x="457" y="-118.5" font-family="Helvetica,sans-Serif" font-size="10.00">/home/travis/build</text>
<text text-anchor="start" x="457" y="-107.5" font-family="Helvetica,sans-Serif" font-size="10.00">/ComPWA/ComPWA/Examples</text>
<text text-anchor="middle" x="528" y="-96.5" font-family="Helvetica,sans-Serif" font-size="10.00">/EvtGen/EvtGenFit.cpp</text>
</a>
</g>
</g>
<!-- Node1&#45;&gt;Node4 -->
<g id="edge3" class="edge"><title>Node1&#45;&gt;Node4</title>
<path fill="none" stroke="midnightblue" d="M410.26,-163.329C433.987,-152.783 461.596,-140.513 484.112,-130.506"/>
<polygon fill="midnightblue" stroke="midnightblue" points="408.753,-160.168 401.037,-167.428 411.596,-166.565 408.753,-160.168"/>
</g>
<!-- Node5 -->
<g id="node5" class="node"><title>Node5</title>
<g id="a_node5"><a xlink:href="BuilderXML_8hpp.html" target="_top" xlink:title="/home/travis/build\l/ComPWA/ComPWA/Physics\l/BuilderXML.hpp">
<polygon fill="white" stroke="black" points="282.5,-89.5 282.5,-130.5 431.5,-130.5 431.5,-89.5 282.5,-89.5"/>
<text text-anchor="start" x="290.5" y="-118.5" font-family="Helvetica,sans-Serif" font-size="10.00">/home/travis/build</text>
<text text-anchor="start" x="290.5" y="-107.5" font-family="Helvetica,sans-Serif" font-size="10.00">/ComPWA/ComPWA/Physics</text>
<text text-anchor="middle" x="357" y="-96.5" font-family="Helvetica,sans-Serif" font-size="10.00">/BuilderXML.hpp</text>
</a>
</g>
</g>
<!-- Node1&#45;&gt;Node5 -->
<g id="edge4" class="edge"><title>Node1&#45;&gt;Node5</title>
<path fill="none" stroke="midnightblue" d="M357,-157.297C357,-148.301 357,-138.653 357,-130.506"/>
<polygon fill="midnightblue" stroke="midnightblue" points="353.5,-157.428 357,-167.428 360.5,-157.428 353.5,-157.428"/>
</g>
<!-- Node9 -->
<g id="node9" class="node"><title>Node9</title>
<g id="a_node9"><a xlink:href="FitFractions_8cpp.html" target="_top" xlink:title="/home/travis/build\l/ComPWA/ComPWA/Tools\l/FitFractions.cpp">
<polygon fill="white" stroke="black" points="625,-89.5 625,-130.5 763,-130.5 763,-89.5 625,-89.5"/>
<text text-anchor="start" x="633" y="-118.5" font-family="Helvetica,sans-Serif" font-size="10.00">/home/travis/build</text>
<text text-anchor="start" x="633" y="-107.5" font-family="Helvetica,sans-Serif" font-size="10.00">/ComPWA/ComPWA/Tools</text>
<text text-anchor="middle" x="694" y="-96.5" font-family="Helvetica,sans-Serif" font-size="10.00">/FitFractions.cpp</text>
</a>
</g>
</g>
<!-- Node1&#45;&gt;Node9 -->
<g id="edge10" class="edge"><title>Node1&#45;&gt;Node9</title>
<path fill="none" stroke="midnightblue" d="M436.184,-170.695C487.553,-159.916 555.872,-145.204 616,-131 618.857,-130.325 621.77,-129.626 624.711,-128.912"/>
<polygon fill="midnightblue" stroke="midnightblue" points="435.214,-167.322 426.143,-172.797 436.648,-174.173 435.214,-167.322"/>
</g>
<!-- Node5&#45;&gt;Node2 -->
<g id="edge5" class="edge"><title>Node5&#45;&gt;Node2</title>
<path fill="none" stroke="midnightblue" d="M280.418,-86.5488C242.394,-75.4015 196.505,-61.9485 158.138,-50.7007"/>
<polygon fill="midnightblue" stroke="midnightblue" points="279.831,-90.024 290.412,-89.4787 281.801,-83.3068 279.831,-90.024"/>
</g>
<!-- Node5&#45;&gt;Node3 -->
<g id="edge6" class="edge"><title>Node5&#45;&gt;Node3</title>
<path fill="none" stroke="midnightblue" d="M324.735,-83.2197C310.127,-71.5478 293.138,-57.973 279.586,-47.1445"/>
<polygon fill="midnightblue" stroke="midnightblue" points="322.571,-85.9708 332.568,-89.4787 326.941,-80.502 322.571,-85.9708"/>
</g>
<!-- Node6 -->
<g id="node6" class="node"><title>Node6</title>
<g id="a_node6"><a xlink:href="SimFit_8cpp.html" target="_top" xlink:title="/home/travis/build\l/ComPWA/ComPWA/Examples\l/SimFit/SimFit.cpp">
<polygon fill="white" stroke="black" points="352,-6 352,-47 510,-47 510,-6 352,-6"/>
<text text-anchor="start" x="360" y="-35" font-family="Helvetica,sans-Serif" font-size="10.00">/home/travis/build</text>
<text text-anchor="start" x="360" y="-24" font-family="Helvetica,sans-Serif" font-size="10.00">/ComPWA/ComPWA/Examples</text>
<text text-anchor="middle" x="431" y="-13" font-family="Helvetica,sans-Serif" font-size="10.00">/SimFit/SimFit.cpp</text>
</a>
</g>
</g>
<!-- Node5&#45;&gt;Node6 -->
<g id="edge7" class="edge"><title>Node5&#45;&gt;Node6</title>
<path fill="none" stroke="midnightblue" d="M381.778,-81.7112C392.088,-70.3556 403.825,-57.4289 413.252,-47.0472"/>
<polygon fill="midnightblue" stroke="midnightblue" points="379.044,-79.5148 374.913,-89.2711 384.227,-84.2204 379.044,-79.5148"/>
</g>
<!-- Node7 -->
<g id="node7" class="node"><title>Node7</title>
<g id="a_node7"><a xlink:href="BuilderXML_8cpp.html" target="_top" xlink:title="/home/travis/build\l/ComPWA/ComPWA/Physics\l/BuilderXML.cpp">
<polygon fill="white" stroke="black" points="527.5,-6 527.5,-47 676.5,-47 676.5,-6 527.5,-6"/>
<text text-anchor="start" x="535.5" y="-35" font-family="Helvetica,sans-Serif" font-size="10.00">/home/travis/build</text>
<text text-anchor="start" x="535.5" y="-24" font-family="Helvetica,sans-Serif" font-size="10.00">/ComPWA/ComPWA/Physics</text>
<text text-anchor="middle" x="602" y="-13" font-family="Helvetica,sans-Serif" font-size="10.00">/BuilderXML.cpp</text>
</a>
</g>
</g>
<!-- Node5&#45;&gt;Node7 -->
<g id="edge8" class="edge"><title>Node5&#45;&gt;Node7</title>
<path fill="none" stroke="midnightblue" d="M425.419,-86.2403C462.521,-73.8981 507.904,-58.8012 543.371,-47.0031"/>
<polygon fill="midnightblue" stroke="midnightblue" points="424.068,-83.0011 415.684,-89.4787 426.277,-89.6433 424.068,-83.0011"/>
</g>
<!-- Node8 -->
<g id="node8" class="node"><title>Node8</title>
<g id="a_node8"><a xlink:href="BOSSAdapter_8cpp.html" target="_top" xlink:title="/home/travis/build\l/ComPWA/ComPWA/Tools\l/Adapters/BOSSAdapter.cpp">
<polygon fill="white" stroke="black" points="695,-6 695,-47 837,-47 837,-6 695,-6"/>
<text text-anchor="start" x="703" y="-35" font-family="Helvetica,sans-Serif" font-size="10.00">/home/travis/build</text>
<text text-anchor="start" x="703" y="-24" font-family="Helvetica,sans-Serif" font-size="10.00">/ComPWA/ComPWA/Tools</text>
<text text-anchor="middle" x="766" y="-13" font-family="Helvetica,sans-Serif" font-size="10.00">/Adapters/BOSSAdapter.cpp</text>
</a>
</g>
</g>
<!-- Node5&#45;&gt;Node8 -->
<g id="edge9" class="edge"><title>Node5&#45;&gt;Node8</title>
<path fill="none" stroke="midnightblue" d="M441.641,-88.779C550.306,-68.5816 581.49,-77.1333 686,-53 693.386,-51.2945 701.072,-49.2297 708.632,-47.022"/>
<polygon fill="midnightblue" stroke="midnightblue" points="440.758,-85.3841 431.587,-90.688 442.064,-92.2612 440.758,-85.3841"/>
</g>
</g>
</svg>
