<?xml version="1.0" encoding="UTF-8" standalone="no"?>
<!DOCTYPE svg PUBLIC "-//W3C//DTD SVG 1.1//EN"
 "http://www.w3.org/Graphics/SVG/1.1/DTD/svg11.dtd">
<!-- Generated by graphviz version 2.38.0 (20140413.2041)
 -->
<!-- Title: /home/travis/build/ComPWA/ComPWA/Core/FunctionTree/FitParameter.cpp Pages: 1 -->
<svg width="1696pt" height="229pt"
 viewBox="0.00 0.00 1696.00 229.00" xmlns="http://www.w3.org/2000/svg" xmlns:xlink="http://www.w3.org/1999/xlink">
<g id="graph0" class="graph" transform="scale(1 1) rotate(0) translate(4 225)">
<title>/home/travis/build/ComPWA/ComPWA/Core/FunctionTree/FitParameter.cpp</title>
<polygon fill="white" stroke="none" points="-4,4 -4,-225 1692,-225 1692,4 -4,4"/>
<!-- Node1 -->
<g id="node1" class="node"><title>Node1</title>
<polygon fill="#bfbfbf" stroke="black" points="514,-179.5 514,-220.5 676,-220.5 676,-179.5 514,-179.5"/>
<text text-anchor="start" x="522" y="-208.5" font-family="Helvetica,sans-Serif" font-size="10.00">/home/travis/build</text>
<text text-anchor="start" x="522" y="-197.5" font-family="Helvetica,sans-Serif" font-size="10.00">/ComPWA/ComPWA/Core</text>
<text text-anchor="middle" x="595" y="-186.5" font-family="Helvetica,sans-Serif" font-size="10.00">/FunctionTree/FitParameter.cpp</text>
</g>
<!-- Node2 -->
<g id="node2" class="node"><title>Node2</title>
<polygon fill="white" stroke="#bfbfbf" points="472.5,-123.5 472.5,-142.5 527.5,-142.5 527.5,-123.5 472.5,-123.5"/>
<text text-anchor="middle" x="500" y="-130.5" font-family="Helvetica,sans-Serif" font-size="10.00">iomanip</text>
</g>
<!-- Node1&#45;&gt;Node2 -->
<g id="edge1" class="edge"><title>Node1&#45;&gt;Node2</title>
<path fill="none" stroke="midnightblue" d="M566.497,-179.498C551.932,-169.532 534.513,-157.614 521.158,-148.476"/>
<polygon fill="midnightblue" stroke="midnightblue" points="522.875,-145.411 512.646,-142.652 518.923,-151.188 522.875,-145.411"/>
</g>
<!-- Node3 -->
<g id="node3" class="node"><title>Node3</title>
<g id="a_node3"><a xlink:href="Utils_8hpp.html" target="_top" xlink:title="Core/Utils.hpp">
<polygon fill="white" stroke="black" points="1148,-123.5 1148,-142.5 1232,-142.5 1232,-123.5 1148,-123.5"/>
<text text-anchor="middle" x="1190" y="-130.5" font-family="Helvetica,sans-Serif" font-size="10.00">Core/Utils.hpp</text>
</a>
</g>
</g>
<!-- Node1&#45;&gt;Node3 -->
<g id="edge2" class="edge"><title>Node1&#45;&gt;Node3</title>
<path fill="none" stroke="midnightblue" d="M676.174,-190.132C800.23,-176.58 1033.53,-151.093 1137.59,-139.726"/>
<polygon fill="midnightblue" stroke="midnightblue" points="1138.28,-143.171 1147.84,-138.605 1137.52,-136.212 1138.28,-143.171"/>
</g>
<!-- Node13 -->
<g id="node13" class="node"><title>Node13</title>
<g id="a_node13"><a xlink:href="FunctionTree_2FitParameter_8hpp.html" target="_top" xlink:title="Implementations of Parameter for various data types. ">
<polygon fill="white" stroke="black" points="546,-123.5 546,-142.5 644,-142.5 644,-123.5 546,-123.5"/>
<text text-anchor="middle" x="595" y="-130.5" font-family="Helvetica,sans-Serif" font-size="10.00">FitParameter.hpp</text>
</a>
</g>
</g>
<!-- Node1&#45;&gt;Node13 -->
<g id="edge12" class="edge"><title>Node1&#45;&gt;Node13</title>
<path fill="none" stroke="midnightblue" d="M595,-179.498C595,-171.065 595,-161.235 595,-152.874"/>
<polygon fill="midnightblue" stroke="midnightblue" points="598.5,-152.652 595,-142.652 591.5,-152.653 598.5,-152.652"/>
</g>
<!-- Node4 -->
<g id="node4" class="node"><title>Node4</title>
<g id="a_node4"><a xlink:href="Logging_8hpp.html" target="_top" xlink:title="Core/Logging.hpp">
<polygon fill="white" stroke="red" points="815.5,-62 815.5,-81 916.5,-81 916.5,-62 815.5,-62"/>
<text text-anchor="middle" x="866" y="-69" font-family="Helvetica,sans-Serif" font-size="10.00">Core/Logging.hpp</text>
</a>
</g>
</g>
<!-- Node3&#45;&gt;Node4 -->
<g id="edge3" class="edge"><title>Node3&#45;&gt;Node4</title>
<path fill="none" stroke="midnightblue" d="M1147.77,-125.712C1095.5,-117.721 1003.87,-103.027 926,-87 920.621,-85.8928 914.99,-84.6479 909.425,-83.3646"/>
<polygon fill="midnightblue" stroke="midnightblue" points="910.083,-79.9238 899.547,-81.0349 908.476,-86.7369 910.083,-79.9238"/>
</g>
<!-- Node5 -->
<g id="node5" class="node"><title>Node5</title>
<polygon fill="white" stroke="#bfbfbf" points="1426,-56.5 1426,-86.5 1548,-86.5 1548,-56.5 1426,-56.5"/>
<text text-anchor="start" x="1434" y="-74.5" font-family="Helvetica,sans-Serif" font-size="10.00">boost/algorithm/string</text>
<text text-anchor="middle" x="1487" y="-63.5" font-family="Helvetica,sans-Serif" font-size="10.00">/predicate.hpp</text>
</g>
<!-- Node3&#45;&gt;Node5 -->
<g id="edge4" class="edge"><title>Node3&#45;&gt;Node5</title>
<path fill="none" stroke="midnightblue" d="M1232.24,-123.538C1279.98,-113.974 1358.49,-98.2455 1415.76,-86.7728"/>
<polygon fill="midnightblue" stroke="midnightblue" points="1416.71,-90.1508 1425.83,-84.7546 1415.34,-83.2872 1416.71,-90.1508"/>
</g>
<!-- Node6 -->
<g id="node6" class="node"><title>Node6</title>
<polygon fill="white" stroke="#bfbfbf" points="1566,-56.5 1566,-86.5 1688,-86.5 1688,-56.5 1566,-56.5"/>
<text text-anchor="start" x="1574" y="-74.5" font-family="Helvetica,sans-Serif" font-size="10.00">boost/algorithm/string</text>
<text text-anchor="middle" x="1627" y="-63.5" font-family="Helvetica,sans-Serif" font-size="10.00">/trim.hpp</text>
</g>
<!-- Node3&#45;&gt;Node6 -->
<g id="edge5" class="edge"><title>Node3&#45;&gt;Node6</title>
<path fill="none" stroke="midnightblue" d="M1232.27,-127.959C1298.91,-121.338 1432.68,-107.041 1555.98,-87.0835"/>
<polygon fill="midnightblue" stroke="midnightblue" points="1556.67,-90.5175 1565.97,-85.4497 1555.54,-83.6093 1556.67,-90.5175"/>
</g>
<!-- Node7 -->
<g id="node7" class="node"><title>Node7</title>
<polygon fill="white" stroke="#bfbfbf" points="1074,-62 1074,-81 1180,-81 1180,-62 1074,-62"/>
<text text-anchor="middle" x="1127" y="-69" font-family="Helvetica,sans-Serif" font-size="10.00">boost/optional.hpp</text>
</g>
<!-- Node3&#45;&gt;Node7 -->
<g id="edge6" class="edge"><title>Node3&#45;&gt;Node7</title>
<path fill="none" stroke="midnightblue" d="M1180.97,-123.475C1171.24,-114.285 1155.54,-99.4563 1143.58,-88.156"/>
<polygon fill="midnightblue" stroke="midnightblue" points="1145.68,-85.3308 1136.01,-81.0091 1140.88,-90.4199 1145.68,-85.3308"/>
</g>
<!-- Node8 -->
<g id="node8" class="node"><title>Node8</title>
<polygon fill="white" stroke="#bfbfbf" points="1198,-56.5 1198,-86.5 1310,-86.5 1310,-56.5 1198,-56.5"/>
<text text-anchor="start" x="1206" y="-74.5" font-family="Helvetica,sans-Serif" font-size="10.00">boost/property_tree</text>
<text text-anchor="middle" x="1254" y="-63.5" font-family="Helvetica,sans-Serif" font-size="10.00">/ptree.hpp</text>
</g>
<!-- Node3&#45;&gt;Node8 -->
<g id="edge7" class="edge"><title>Node3&#45;&gt;Node8</title>
<path fill="none" stroke="midnightblue" d="M1199.17,-123.475C1207.59,-115.643 1220.42,-103.714 1231.56,-93.3656"/>
<polygon fill="midnightblue" stroke="midnightblue" points="1233.98,-95.8953 1238.92,-86.523 1229.21,-90.7685 1233.98,-95.8953"/>
</g>
<!-- Node9 -->
<g id="node9" class="node"><title>Node9</title>
<polygon fill="white" stroke="#bfbfbf" points="934.5,-62 934.5,-81 981.5,-81 981.5,-62 934.5,-62"/>
<text text-anchor="middle" x="958" y="-69" font-family="Helvetica,sans-Serif" font-size="10.00">cmath</text>
</g>
<!-- Node3&#45;&gt;Node9 -->
<g id="edge8" class="edge"><title>Node3&#45;&gt;Node9</title>
<path fill="none" stroke="midnightblue" d="M1147.82,-124.892C1107.1,-117.464 1043.99,-104.453 991,-87 989.128,-86.3833 987.217,-85.6988 985.304,-84.9726"/>
<polygon fill="midnightblue" stroke="midnightblue" points="986.491,-81.6764 975.911,-81.1139 983.831,-88.1513 986.491,-81.6764"/>
</g>
<!-- Node10 -->
<g id="node10" class="node"><title>Node10</title>
<polygon fill="white" stroke="#bfbfbf" points="1328,-62 1328,-81 1370,-81 1370,-62 1328,-62"/>
<text text-anchor="middle" x="1349" y="-69" font-family="Helvetica,sans-Serif" font-size="10.00">limits</text>
</g>
<!-- Node3&#45;&gt;Node10 -->
<g id="edge9" class="edge"><title>Node3&#45;&gt;Node10</title>
<path fill="none" stroke="midnightblue" d="M1217.27,-123.494C1243.61,-115.041 1284.49,-101.304 1319,-87 1320.2,-86.5016 1321.43,-85.9789 1322.66,-85.4398"/>
<polygon fill="midnightblue" stroke="midnightblue" points="1324.4,-88.4884 1332.02,-81.1243 1321.47,-82.1309 1324.4,-88.4884"/>
</g>
<!-- Node11 -->
<g id="node11" class="node"><title>Node11</title>
<polygon fill="white" stroke="#bfbfbf" points="1000,-62 1000,-81 1056,-81 1056,-62 1000,-62"/>
<text text-anchor="middle" x="1028" y="-69" font-family="Helvetica,sans-Serif" font-size="10.00">sstream</text>
</g>
<!-- Node3&#45;&gt;Node11 -->
<g id="edge10" class="edge"><title>Node3&#45;&gt;Node11</title>
<path fill="none" stroke="midnightblue" d="M1165.49,-123.406C1140.24,-114.495 1099.76,-100.065 1065,-87 1063.11,-86.29 1061.17,-85.5529 1059.22,-84.8043"/>
<polygon fill="midnightblue" stroke="midnightblue" points="1060.07,-81.3827 1049.48,-81.0359 1057.54,-87.9105 1060.07,-81.3827"/>
</g>
<!-- Node12 -->
<g id="node12" class="node"><title>Node12</title>
<polygon fill="white" stroke="#bfbfbf" points="889.5,-0.5 889.5,-19.5 936.5,-19.5 936.5,-0.5 889.5,-0.5"/>
<text text-anchor="middle" x="913" y="-7.5" font-family="Helvetica,sans-Serif" font-size="10.00">vector</text>
</g>
<!-- Node3&#45;&gt;Node12 -->
<g id="edge11" class="edge"><title>Node3&#45;&gt;Node12</title>
<path fill="none" stroke="midnightblue" d="M1232.11,-129.205C1300.49,-123.184 1423.76,-105.287 1379,-56 1350.01,-24.073 1048.79,-14.1545 946.654,-11.6965"/>
<polygon fill="midnightblue" stroke="midnightblue" points="946.658,-8.19571 936.579,-11.4629 946.496,-15.1938 946.658,-8.19571"/>
</g>
<!-- Node13&#45;&gt;Node4 -->
<g id="edge27" class="edge"><title>Node13&#45;&gt;Node4</title>
<path fill="none" stroke="midnightblue" d="M636.71,-123.451C679.326,-114.635 747.38,-100.332 806,-87 811.031,-85.8559 816.291,-84.6294 821.517,-83.3918"/>
<polygon fill="midnightblue" stroke="midnightblue" points="822.541,-86.7456 831.454,-81.0172 820.914,-79.9373 822.541,-86.7456"/>
</g>
<!-- Node13&#45;&gt;Node9 -->
<g id="edge13" class="edge"><title>Node13&#45;&gt;Node9</title>
<path fill="none" stroke="midnightblue" d="M644.151,-129.768C709.606,-125.795 828.471,-115.075 926,-87 927.934,-86.4432 929.902,-85.789 931.861,-85.0718"/>
<polygon fill="midnightblue" stroke="midnightblue" points="933.507,-88.1784 941.408,-81.1195 930.83,-81.7108 933.507,-88.1784"/>
</g>
<!-- Node13&#45;&gt;Node11 -->
<g id="edge16" class="edge"><title>Node13&#45;&gt;Node11</title>
<path fill="none" stroke="midnightblue" d="M644.188,-130.512C719.782,-127.312 868.611,-117.382 991,-87 993.67,-86.3372 996.406,-85.5291 999.123,-84.637"/>
<polygon fill="midnightblue" stroke="midnightblue" points="1000.52,-87.853 1008.72,-81.1479 998.129,-81.274 1000.52,-87.853"/>
</g>
<!-- Node14 -->
<g id="node14" class="node"><title>Node14</title>
<polygon fill="white" stroke="#bfbfbf" points="161.5,-0.5 161.5,-19.5 218.5,-19.5 218.5,-0.5 161.5,-0.5"/>
<text text-anchor="middle" x="190" y="-7.5" font-family="Helvetica,sans-Serif" font-size="10.00">complex</text>
</g>
<!-- Node13&#45;&gt;Node14 -->
<g id="edge14" class="edge"><title>Node13&#45;&gt;Node14</title>
<path fill="none" stroke="midnightblue" d="M545.982,-124.179C542.945,-123.761 539.933,-123.364 537,-123 494.253,-117.695 180.01,-118.841 151,-87 134.63,-69.0323 155.207,-42.9197 172.132,-26.4561"/>
<polygon fill="midnightblue" stroke="midnightblue" points="174.541,-28.9949 179.505,-19.6347 169.788,-23.8565 174.541,-28.9949"/>
</g>
<!-- Node15 -->
<g id="node15" class="node"><title>Node15</title>
<polygon fill="white" stroke="#bfbfbf" points="525.5,-62 525.5,-81 584.5,-81 584.5,-62 525.5,-62"/>
<text text-anchor="middle" x="555" y="-69" font-family="Helvetica,sans-Serif" font-size="10.00">iostream</text>
</g>
<!-- Node13&#45;&gt;Node15 -->
<g id="edge15" class="edge"><title>Node13&#45;&gt;Node15</title>
<path fill="none" stroke="midnightblue" d="M589.269,-123.475C583.328,-114.638 573.883,-100.589 566.412,-89.475"/>
<polygon fill="midnightblue" stroke="midnightblue" points="569.204,-87.3554 560.72,-81.0091 563.395,-91.2608 569.204,-87.3554"/>
</g>
<!-- Node16 -->
<g id="node16" class="node"><title>Node16</title>
<polygon fill="white" stroke="#bfbfbf" points="603,-62 603,-81 667,-81 667,-62 603,-62"/>
<text text-anchor="middle" x="635" y="-69" font-family="Helvetica,sans-Serif" font-size="10.00">stdexcept</text>
</g>
<!-- Node13&#45;&gt;Node16 -->
<g id="edge17" class="edge"><title>Node13&#45;&gt;Node16</title>
<path fill="none" stroke="midnightblue" d="M600.731,-123.475C606.672,-114.638 616.117,-100.589 623.588,-89.475"/>
<polygon fill="midnightblue" stroke="midnightblue" points="626.605,-91.2608 629.28,-81.0091 620.796,-87.3554 626.605,-91.2608"/>
</g>
<!-- Node17 -->
<g id="node17" class="node"><title>Node17</title>
<polygon fill="white" stroke="#bfbfbf" points="342,-0.5 342,-19.5 386,-19.5 386,-0.5 342,-0.5"/>
<text text-anchor="middle" x="364" y="-7.5" font-family="Helvetica,sans-Serif" font-size="10.00">string</text>
</g>
<!-- Node13&#45;&gt;Node17 -->
<g id="edge18" class="edge"><title>Node13&#45;&gt;Node17</title>
<path fill="none" stroke="midnightblue" d="M545.776,-124.277C487.162,-114.657 395.671,-98.1329 384,-87 368.532,-72.2452 364.506,-47.083 363.71,-29.7796"/>
<polygon fill="midnightblue" stroke="midnightblue" points="367.21,-29.6807 363.566,-19.732 360.21,-29.7812 367.21,-29.6807"/>
</g>
<!-- Node18 -->
<g id="node18" class="node"><title>Node18</title>
<polygon fill="white" stroke="#bfbfbf" points="685,-56.5 685,-86.5 797,-86.5 797,-56.5 685,-56.5"/>
<text text-anchor="start" x="693" y="-74.5" font-family="Helvetica,sans-Serif" font-size="10.00">boost/property_tree</text>
<text text-anchor="middle" x="741" y="-63.5" font-family="Helvetica,sans-Serif" font-size="10.00">/ptree_fwd.hpp</text>
</g>
<!-- Node13&#45;&gt;Node18 -->
<g id="edge19" class="edge"><title>Node13&#45;&gt;Node18</title>
<path fill="none" stroke="midnightblue" d="M615.918,-123.475C636.986,-114.889 670.128,-101.383 697.006,-90.4291"/>
<polygon fill="midnightblue" stroke="midnightblue" points="698.651,-93.5382 706.591,-86.523 696.009,-87.0558 698.651,-93.5382"/>
</g>
<!-- Node19 -->
<g id="node19" class="node"><title>Node19</title>
<polygon fill="white" stroke="#bfbfbf" points="0,-56.5 0,-86.5 104,-86.5 104,-56.5 0,-56.5"/>
<text text-anchor="start" x="8" y="-74.5" font-family="Helvetica,sans-Serif" font-size="10.00">boost/serialization</text>
<text text-anchor="middle" x="52" y="-63.5" font-family="Helvetica,sans-Serif" font-size="10.00">/utility.hpp</text>
</g>
<!-- Node13&#45;&gt;Node19 -->
<g id="edge20" class="edge"><title>Node13&#45;&gt;Node19</title>
<path fill="none" stroke="midnightblue" d="M545.985,-124.154C542.947,-123.742 539.934,-123.353 537,-123 351.432,-100.657 302.782,-115.113 118,-87 116.728,-86.8064 115.444,-86.6029 114.15,-86.3905"/>
<polygon fill="midnightblue" stroke="midnightblue" points="114.579,-82.9119 104.121,-84.6095 113.355,-89.8041 114.579,-82.9119"/>
</g>
<!-- Node20 -->
<g id="node20" class="node"><title>Node20</title>
<g id="a_node20"><a xlink:href="Exceptions_8hpp.html" target="_top" xlink:title="ComPWA exceptions. ">
<polygon fill="white" stroke="red" points="392.5,-62 392.5,-81 507.5,-81 507.5,-62 392.5,-62"/>
<text text-anchor="middle" x="450" y="-69" font-family="Helvetica,sans-Serif" font-size="10.00">Core/Exceptions.hpp</text>
</a>
</g>
</g>
<!-- Node13&#45;&gt;Node20 -->
<g id="edge21" class="edge"><title>Node13&#45;&gt;Node20</title>
<path fill="none" stroke="midnightblue" d="M574.225,-123.475C549.568,-113.357 508.255,-96.4046 480.098,-84.8507"/>
<polygon fill="midnightblue" stroke="midnightblue" points="481.317,-81.5674 470.736,-81.0091 478.659,-88.0434 481.317,-81.5674"/>
</g>
<!-- Node21 -->
<g id="node21" class="node"><title>Node21</title>
<g id="a_node21"><a xlink:href="Parameter_8hpp.html" target="_top" xlink:title="Parameter base class. ">
<polygon fill="white" stroke="red" points="160.5,-62 160.5,-81 335.5,-81 335.5,-62 160.5,-62"/>
<text text-anchor="middle" x="248" y="-69" font-family="Helvetica,sans-Serif" font-size="10.00">Core/FunctionTree/Parameter.hpp</text>
</a>
</g>
</g>
<!-- Node13&#45;&gt;Node21 -->
<g id="edge23" class="edge"><title>Node13&#45;&gt;Node21</title>
<path fill="none" stroke="midnightblue" d="M545.652,-123.538C483.005,-112.796 375.008,-94.278 307.762,-82.7474"/>
<polygon fill="midnightblue" stroke="midnightblue" points="308.187,-79.2693 297.74,-81.0289 307.004,-86.1686 308.187,-79.2693"/>
</g>
<!-- Node20&#45;&gt;Node17 -->
<g id="edge22" class="edge"><title>Node20&#45;&gt;Node17</title>
<path fill="none" stroke="midnightblue" d="M437.678,-61.9751C423.884,-52.4315 401.301,-36.8073 384.768,-25.3683"/>
<polygon fill="midnightblue" stroke="midnightblue" points="386.514,-22.3205 376.299,-19.5091 382.531,-28.077 386.514,-22.3205"/>
</g>
<!-- Node21&#45;&gt;Node12 -->
<g id="edge26" class="edge"><title>Node21&#45;&gt;Node12</title>
<path fill="none" stroke="midnightblue" d="M325.287,-61.9705C344.464,-59.9339 364.973,-57.8234 384,-56 570.785,-38.1002 795.027,-20.2121 879.034,-13.6364"/>
<polygon fill="midnightblue" stroke="midnightblue" points="879.56,-17.1061 889.257,-12.8379 879.015,-10.1273 879.56,-17.1061"/>
</g>
<!-- Node21&#45;&gt;Node14 -->
<g id="edge24" class="edge"><title>Node21&#45;&gt;Node14</title>
<path fill="none" stroke="midnightblue" d="M239.69,-61.9751C230.818,-52.8733 216.554,-38.241 205.58,-26.983"/>
<polygon fill="midnightblue" stroke="midnightblue" points="207.781,-24.2268 198.295,-19.5091 202.769,-29.113 207.781,-24.2268"/>
</g>
<!-- Node21&#45;&gt;Node17 -->
<g id="edge25" class="edge"><title>Node21&#45;&gt;Node17</title>
<path fill="none" stroke="midnightblue" d="M264.62,-61.9751C283.915,-52.078 315.959,-35.6416 338.431,-24.1151"/>
<polygon fill="midnightblue" stroke="midnightblue" points="340.11,-27.1873 347.411,-19.5091 336.916,-20.9589 340.11,-27.1873"/>
</g>
</g>
</svg>
