<?xml version="1.0" encoding="UTF-8" standalone="no"?>
<!DOCTYPE svg PUBLIC "-//W3C//DTD SVG 1.1//EN"
 "http://www.w3.org/Graphics/SVG/1.1/DTD/svg11.dtd">
<!-- Generated by graphviz version 2.38.0 (20140413.2041)
 -->
<!-- Title: Core/FourMomentum.hpp Pages: 1 -->
<svg width="2130pt" height="285pt"
 viewBox="0.00 0.00 2129.50 285.00" xmlns="http://www.w3.org/2000/svg" xmlns:xlink="http://www.w3.org/1999/xlink">
<g id="graph0" class="graph" transform="scale(1 1) rotate(0) translate(4 281)">
<title>Core/FourMomentum.hpp</title>
<polygon fill="white" stroke="none" points="-4,4 -4,-281 2125.5,-281 2125.5,4 -4,4"/>
<!-- Node1 -->
<g id="node1" class="node"><title>Node1</title>
<polygon fill="#bfbfbf" stroke="black" points="995.5,-257.5 995.5,-276.5 1123.5,-276.5 1123.5,-257.5 995.5,-257.5"/>
<text text-anchor="middle" x="1059.5" y="-264.5" font-family="Helvetica,sans-Serif" font-size="10.00">Core/FourMomentum.hpp</text>
</g>
<!-- Node2 -->
<g id="node2" class="node"><title>Node2</title>
<g id="a_node2"><a xlink:href="Event_8hpp.html" target="_top" xlink:title="Core/Event.hpp">
<polygon fill="white" stroke="black" points="1017,-201.5 1017,-220.5 1102,-220.5 1102,-201.5 1017,-201.5"/>
<text text-anchor="middle" x="1059.5" y="-208.5" font-family="Helvetica,sans-Serif" font-size="10.00">Core/Event.hpp</text>
</a>
</g>
</g>
<!-- Node1&#45;&gt;Node2 -->
<g id="edge1" class="edge"><title>Node1&#45;&gt;Node2</title>
<path fill="none" stroke="midnightblue" d="M1059.5,-246.805C1059.5,-237.91 1059.5,-227.78 1059.5,-220.751"/>
<polygon fill="midnightblue" stroke="midnightblue" points="1056,-247.083 1059.5,-257.083 1063,-247.083 1056,-247.083"/>
</g>
<!-- Node6 -->
<g id="node6" class="node"><title>Node6</title>
<g id="a_node6"><a xlink:href="MinLogLH_8cpp.html" target="_top" xlink:title="Estimator/MinLogLH\l/MinLogLH.cpp">
<polygon fill="white" stroke="black" points="1565.5,-67.5 1565.5,-97.5 1671.5,-97.5 1671.5,-67.5 1565.5,-67.5"/>
<text text-anchor="start" x="1573.5" y="-85.5" font-family="Helvetica,sans-Serif" font-size="10.00">Estimator/MinLogLH</text>
<text text-anchor="middle" x="1618.5" y="-74.5" font-family="Helvetica,sans-Serif" font-size="10.00">/MinLogLH.cpp</text>
</a>
</g>
</g>
<!-- Node1&#45;&gt;Node6 -->
<g id="edge45" class="edge"><title>Node1&#45;&gt;Node6</title>
<path fill="none" stroke="midnightblue" d="M1133.99,-261.921C1266.1,-253.14 1533.76,-227.896 1599.5,-165 1617.87,-147.423 1620,-115.792 1619.51,-97.5352"/>
<polygon fill="midnightblue" stroke="midnightblue" points="1133.7,-258.432 1123.95,-262.574 1134.15,-265.418 1133.7,-258.432"/>
</g>
<!-- Node8 -->
<g id="node8" class="node"><title>Node8</title>
<g id="a_node8"><a xlink:href="DalitzKinematics_8cpp.html" target="_top" xlink:title="Physics/EvtGen/DalitzKinematics.cpp">
<polygon fill="white" stroke="black" points="1937.5,-6 1937.5,-25 2121.5,-25 2121.5,-6 1937.5,-6"/>
<text text-anchor="middle" x="2029.5" y="-13" font-family="Helvetica,sans-Serif" font-size="10.00">Physics/EvtGen/DalitzKinematics.cpp</text>
</a>
</g>
</g>
<!-- Node1&#45;&gt;Node8 -->
<g id="edge48" class="edge"><title>Node1&#45;&gt;Node8</title>
<path fill="none" stroke="midnightblue" d="M1133.91,-263.928C1295.88,-259.021 1675.98,-245.248 1802.5,-221 1880.63,-206.027 1905.75,-208.277 1972.5,-165 2006.29,-143.092 2018.96,-135.556 2033.5,-98 2043.11,-73.1627 2036.45,-40.8517 2032.23,-25.4389"/>
<polygon fill="midnightblue" stroke="midnightblue" points="1133.45,-260.44 1123.56,-264.238 1133.66,-267.437 1133.45,-260.44"/>
</g>
<!-- Node10 -->
<g id="node10" class="node"><title>Node10</title>
<g id="a_node10"><a xlink:href="HelicityKinematics_8cpp.html" target="_top" xlink:title="Physics/HelicityFormalism\l/HelicityKinematics.cpp">
<polygon fill="white" stroke="black" points="1734.5,-0.5 1734.5,-30.5 1868.5,-30.5 1868.5,-0.5 1734.5,-0.5"/>
<text text-anchor="start" x="1742.5" y="-18.5" font-family="Helvetica,sans-Serif" font-size="10.00">Physics/HelicityFormalism</text>
<text text-anchor="middle" x="1801.5" y="-7.5" font-family="Helvetica,sans-Serif" font-size="10.00">/HelicityKinematics.cpp</text>
</a>
</g>
</g>
<!-- Node1&#45;&gt;Node10 -->
<g id="edge49" class="edge"><title>Node1&#45;&gt;Node10</title>
<path fill="none" stroke="midnightblue" d="M1134.06,-266.5C1343.49,-265.982 1927.62,-250.681 2016.5,-98 2023.43,-86.093 2025.06,-77.7989 2016.5,-67 1998.22,-43.9348 1924.57,-30.3735 1868.51,-23.2115"/>
<polygon fill="midnightblue" stroke="midnightblue" points="1133.78,-263 1123.78,-266.514 1133.79,-270 1133.78,-263"/>
</g>
<!-- Node17 -->
<g id="node17" class="node"><title>Node17</title>
<g id="a_node17"><a xlink:href="SumMinLogLH_8cpp.html" target="_top" xlink:title="Estimator/MinLogLH\l/SumMinLogLH.cpp">
<polygon fill="white" stroke="black" points="1441.5,-67.5 1441.5,-97.5 1547.5,-97.5 1547.5,-67.5 1441.5,-67.5"/>
<text text-anchor="start" x="1449.5" y="-85.5" font-family="Helvetica,sans-Serif" font-size="10.00">Estimator/MinLogLH</text>
<text text-anchor="middle" x="1494.5" y="-74.5" font-family="Helvetica,sans-Serif" font-size="10.00">/SumMinLogLH.cpp</text>
</a>
</g>
</g>
<!-- Node1&#45;&gt;Node17 -->
<g id="edge46" class="edge"><title>Node1&#45;&gt;Node17</title>
<path fill="none" stroke="midnightblue" d="M1030.76,-253.106C982.058,-229.603 892.429,-178.141 933.5,-134 971.366,-93.3033 1377.54,-106.355 1432.5,-98 1435.34,-97.568 1438.25,-97.0742 1441.17,-96.5355"/>
<polygon fill="midnightblue" stroke="midnightblue" points="1029.36,-256.319 1039.9,-257.424 1032.35,-249.989 1029.36,-256.319"/>
</g>
<!-- Node24 -->
<g id="node24" class="node"><title>Node24</title>
<g id="a_node24"><a xlink:href="DalitzPlot_8hpp.html" target="_top" xlink:title="Tools/Plotting/DalitzPlot.hpp">
<polygon fill="white" stroke="red" points="0,-140 0,-159 141,-159 141,-140 0,-140"/>
<text text-anchor="middle" x="70.5" y="-147" font-family="Helvetica,sans-Serif" font-size="10.00">Tools/Plotting/DalitzPlot.hpp</text>
</a>
</g>
</g>
<!-- Node1&#45;&gt;Node24 -->
<g id="edge47" class="edge"><title>Node1&#45;&gt;Node24</title>
<path fill="none" stroke="midnightblue" d="M985.116,-258.007C833.225,-241.571 476.501,-202.375 177.5,-165 162.712,-163.151 146.79,-161.053 131.864,-159.037"/>
<polygon fill="midnightblue" stroke="midnightblue" points="984.94,-261.509 995.259,-259.104 985.693,-254.549 984.94,-261.509"/>
</g>
<!-- Node25 -->
<g id="node25" class="node"><title>Node25</title>
<g id="a_node25"><a xlink:href="ParticleStateTransitionKinematicsInfo_8hpp.html" target="_top" xlink:title="Physics/ParticleStateTransition\lKinematicsInfo.hpp">
<polygon fill="white" stroke="black" points="704.5,-134.5 704.5,-164.5 858.5,-164.5 858.5,-134.5 704.5,-134.5"/>
<text text-anchor="start" x="712.5" y="-152.5" font-family="Helvetica,sans-Serif" font-size="10.00">Physics/ParticleStateTransition</text>
<text text-anchor="middle" x="781.5" y="-141.5" font-family="Helvetica,sans-Serif" font-size="10.00">KinematicsInfo.hpp</text>
</a>
</g>
</g>
<!-- Node1&#45;&gt;Node25 -->
<g id="edge37" class="edge"><title>Node1&#45;&gt;Node25</title>
<path fill="none" stroke="midnightblue" d="M985.086,-255.555C949.774,-248.755 907.706,-237.904 872.5,-221 842.233,-206.467 812.501,-180.647 795.637,-164.613"/>
<polygon fill="midnightblue" stroke="midnightblue" points="984.862,-259.073 995.332,-257.453 986.137,-252.191 984.862,-259.073"/>
</g>
<!-- Node3 -->
<g id="node3" class="node"><title>Node3</title>
<g id="a_node3"><a xlink:href="Event_8cpp.html" target="_top" xlink:title="Core/Event.cpp">
<polygon fill="white" stroke="black" points="953,-140 953,-159 1038,-159 1038,-140 953,-140"/>
<text text-anchor="middle" x="995.5" y="-147" font-family="Helvetica,sans-Serif" font-size="10.00">Core/Event.cpp</text>
</a>
</g>
</g>
<!-- Node2&#45;&gt;Node3 -->
<g id="edge2" class="edge"><title>Node2&#45;&gt;Node3</title>
<path fill="none" stroke="midnightblue" d="M1042.99,-194.65C1030.79,-183.306 1014.63,-168.281 1004.65,-159.009"/>
<polygon fill="midnightblue" stroke="midnightblue" points="1040.62,-197.23 1050.33,-201.475 1045.39,-192.103 1040.62,-197.23"/>
</g>
<!-- Node4 -->
<g id="node4" class="node"><title>Node4</title>
<g id="a_node4"><a xlink:href="DataSet_8hpp.html" target="_top" xlink:title="Data/DataSet.hpp">
<polygon fill="white" stroke="red" points="1652,-140 1652,-159 1747,-159 1747,-140 1652,-140"/>
<text text-anchor="middle" x="1699.5" y="-147" font-family="Helvetica,sans-Serif" font-size="10.00">Data/DataSet.hpp</text>
</a>
</g>
</g>
<!-- Node2&#45;&gt;Node4 -->
<g id="edge3" class="edge"><title>Node2&#45;&gt;Node4</title>
<path fill="none" stroke="midnightblue" d="M1112.41,-206.664C1209.24,-200.32 1421.39,-185.315 1599.5,-165 1616.58,-163.052 1635.24,-160.47 1651.76,-158.026"/>
<polygon fill="midnightblue" stroke="midnightblue" points="1112.04,-203.18 1102.29,-207.323 1112.49,-210.166 1112.04,-203.18"/>
</g>
<!-- Node5 -->
<g id="node5" class="node"><title>Node5</title>
<g id="a_node5"><a xlink:href="RootEfficiency_8cpp.html" target="_top" xlink:title="Data/Root/RootEfficiency.cpp">
<polygon fill="white" stroke="black" points="1841.5,-73 1841.5,-92 1989.5,-92 1989.5,-73 1841.5,-73"/>
<text text-anchor="middle" x="1915.5" y="-80" font-family="Helvetica,sans-Serif" font-size="10.00">Data/Root/RootEfficiency.cpp</text>
</a>
</g>
</g>
<!-- Node2&#45;&gt;Node5 -->
<g id="edge28" class="edge"><title>Node2&#45;&gt;Node5</title>
<path fill="none" stroke="midnightblue" d="M1112.32,-209.341C1253.03,-207.146 1634.46,-198.217 1755.5,-165 1814.42,-148.83 1876.91,-109.646 1902.96,-92.1674"/>
<polygon fill="midnightblue" stroke="midnightblue" points="1112.16,-205.842 1102.21,-209.493 1112.26,-212.842 1112.16,-205.842"/>
</g>
<!-- Node2&#45;&gt;Node8 -->
<g id="edge33" class="edge"><title>Node2&#45;&gt;Node8</title>
<path fill="none" stroke="midnightblue" d="M1112.25,-210.322C1272.25,-210.803 1750.14,-208.466 1898.5,-165 1956.38,-148.044 1982.14,-147.56 2016.5,-98 2032.09,-75.5107 2031.66,-41.2122 2030.43,-25.2448"/>
<polygon fill="midnightblue" stroke="midnightblue" points="1112.19,-206.822 1102.18,-210.286 1112.17,-213.822 1112.19,-206.822"/>
</g>
<!-- Node9 -->
<g id="node9" class="node"><title>Node9</title>
<g id="a_node9"><a xlink:href="EvtGenIF_8hpp.html" target="_top" xlink:title="Physics/EvtGen/EvtGenIF.hpp">
<polygon fill="white" stroke="red" points="937.5,-6 937.5,-25 1089.5,-25 1089.5,-6 937.5,-6"/>
<text text-anchor="middle" x="1013.5" y="-13" font-family="Helvetica,sans-Serif" font-size="10.00">Physics/EvtGen/EvtGenIF.hpp</text>
</a>
</g>
</g>
<!-- Node2&#45;&gt;Node9 -->
<g id="edge34" class="edge"><title>Node2&#45;&gt;Node9</title>
<path fill="none" stroke="midnightblue" d="M1006.94,-210.217C861.126,-209.528 457.445,-198.431 384.5,-98 296.387,23.3141 -182.628,-123.004 869.5,-31 891.527,-29.0738 915.426,-26.7585 937.308,-24.5492"/>
<polygon fill="midnightblue" stroke="midnightblue" points="1006.98,-213.717 1016.99,-210.25 1007,-206.717 1006.98,-213.717"/>
</g>
<!-- Node2&#45;&gt;Node10 -->
<g id="edge35" class="edge"><title>Node2&#45;&gt;Node10</title>
<path fill="none" stroke="midnightblue" d="M1112.36,-208.706C1259.79,-204.796 1673.39,-191.699 1806.5,-165 1895.11,-147.225 1946.17,-171.688 1998.5,-98 2006.48,-86.7668 2006.95,-77.885 1998.5,-67 1982.48,-46.3584 1919.14,-32.7051 1868.55,-24.8589"/>
<polygon fill="midnightblue" stroke="midnightblue" points="1112.12,-205.211 1102.22,-208.971 1112.3,-212.208 1112.12,-205.211"/>
</g>
<!-- Node11 -->
<g id="node11" class="node"><title>Node11</title>
<g id="a_node11"><a xlink:href="DalitzPlot_8cpp.html" target="_top" xlink:title="Tools/Plotting/DalitzPlot.cpp">
<polygon fill="white" stroke="black" points="720,-6 720,-25 861,-25 861,-6 720,-6"/>
<text text-anchor="middle" x="790.5" y="-13" font-family="Helvetica,sans-Serif" font-size="10.00">Tools/Plotting/DalitzPlot.cpp</text>
</a>
</g>
</g>
<!-- Node2&#45;&gt;Node11 -->
<g id="edge36" class="edge"><title>Node2&#45;&gt;Node11</title>
<path fill="none" stroke="midnightblue" d="M1006.36,-210.185C874.273,-210.013 534.162,-205.525 429.5,-165 384.642,-147.631 365.494,-141.28 344.5,-98 338.487,-85.6037 335.322,-77.2758 344.5,-67 369.027,-39.5389 600.435,-25.1004 719.882,-19.4237"/>
<polygon fill="midnightblue" stroke="midnightblue" points="1006.63,-213.685 1016.63,-210.19 1006.63,-206.685 1006.63,-213.685"/>
</g>
<!-- Node13 -->
<g id="node13" class="node"><title>Node13</title>
<g id="a_node13"><a xlink:href="Generator_8hpp.html" target="_top" xlink:title="Core/Generator.hpp">
<polygon fill="white" stroke="red" points="197.5,-140 197.5,-159 299.5,-159 299.5,-140 197.5,-140"/>
<text text-anchor="middle" x="248.5" y="-147" font-family="Helvetica,sans-Serif" font-size="10.00">Core/Generator.hpp</text>
</a>
</g>
</g>
<!-- Node2&#45;&gt;Node13 -->
<g id="edge12" class="edge"><title>Node2&#45;&gt;Node13</title>
<path fill="none" stroke="midnightblue" d="M1006.56,-209.694C884.026,-208.356 571.614,-201.339 313.5,-165 303.196,-163.549 292.103,-161.326 282.05,-159.054"/>
<polygon fill="midnightblue" stroke="midnightblue" points="1006.75,-213.196 1016.79,-209.797 1006.82,-206.196 1006.75,-213.196"/>
</g>
<!-- Node14 -->
<g id="node14" class="node"><title>Node14</title>
<g id="a_node14"><a xlink:href="EvtGenGenerator_8hpp.html" target="_top" xlink:title="Data/EvtGen/EvtGenGenerator.hpp">
<polygon fill="white" stroke="black" points="128,-73 128,-92 299,-92 299,-73 128,-73"/>
<text text-anchor="middle" x="213.5" y="-80" font-family="Helvetica,sans-Serif" font-size="10.00">Data/EvtGen/EvtGenGenerator.hpp</text>
</a>
</g>
</g>
<!-- Node2&#45;&gt;Node14 -->
<g id="edge25" class="edge"><title>Node2&#45;&gt;Node14</title>
<path fill="none" stroke="midnightblue" d="M1006.45,-209.25C821.785,-206.385 216.756,-194.753 188.5,-165 168.932,-144.395 192.779,-108.854 205.925,-92.3709"/>
<polygon fill="midnightblue" stroke="midnightblue" points="1006.67,-212.754 1016.72,-209.407 1006.78,-205.755 1006.67,-212.754"/>
</g>
<!-- Node16 -->
<g id="node16" class="node"><title>Node16</title>
<g id="a_node16"><a xlink:href="Kinematics_8hpp.html" target="_top" xlink:title="Core/Kinematics.hpp">
<polygon fill="white" stroke="red" points="1482.5,-140 1482.5,-159 1590.5,-159 1590.5,-140 1482.5,-140"/>
<text text-anchor="middle" x="1536.5" y="-147" font-family="Helvetica,sans-Serif" font-size="10.00">Core/Kinematics.hpp</text>
</a>
</g>
</g>
<!-- Node2&#45;&gt;Node16 -->
<g id="edge15" class="edge"><title>Node2&#45;&gt;Node16</title>
<path fill="none" stroke="midnightblue" d="M1112.21,-206.273C1191.14,-200.241 1344.55,-186.769 1473.5,-165 1483.02,-163.393 1493.25,-161.23 1502.64,-159.065"/>
<polygon fill="midnightblue" stroke="midnightblue" points="1111.75,-202.798 1102.04,-207.041 1112.28,-209.778 1111.75,-202.798"/>
</g>
<!-- Node2&#45;&gt;Node17 -->
<g id="edge30" class="edge"><title>Node2&#45;&gt;Node17</title>
<path fill="none" stroke="midnightblue" d="M1006.82,-203.089C983.344,-197.093 957.809,-185.898 943.5,-165 935.716,-153.632 934.122,-144.094 943.5,-134 980.582,-94.0874 1378.64,-106.228 1432.5,-98 1435.34,-97.5659 1438.24,-97.0704 1441.17,-96.5305"/>
<polygon fill="midnightblue" stroke="midnightblue" points="1006.19,-206.535 1016.72,-205.354 1007.75,-199.711 1006.19,-206.535"/>
</g>
<!-- Node20 -->
<g id="node20" class="node"><title>Node20</title>
<g id="a_node20"><a xlink:href="AsciiDataIO_8hpp.html" target="_top" xlink:title="Data/Ascii/AsciiDataIO.hpp">
<polygon fill="white" stroke="red" points="1056,-140 1056,-159 1193,-159 1193,-140 1056,-140"/>
<text text-anchor="middle" x="1124.5" y="-147" font-family="Helvetica,sans-Serif" font-size="10.00">Data/Ascii/AsciiDataIO.hpp</text>
</a>
</g>
</g>
<!-- Node2&#45;&gt;Node20 -->
<g id="edge24" class="edge"><title>Node2&#45;&gt;Node20</title>
<path fill="none" stroke="midnightblue" d="M1076.27,-194.65C1088.66,-183.306 1105.08,-168.281 1115.2,-159.009"/>
<polygon fill="midnightblue" stroke="midnightblue" points="1073.83,-192.141 1068.81,-201.475 1078.55,-197.305 1073.83,-192.141"/>
</g>
<!-- Node21 -->
<g id="node21" class="node"><title>Node21</title>
<g id="a_node21"><a xlink:href="Generate_8hpp.html" target="_top" xlink:title="Some useful functions for Monte&#45;Carlo event generation. ">
<polygon fill="white" stroke="red" points="1211,-140 1211,-159 1310,-159 1310,-140 1211,-140"/>
<text text-anchor="middle" x="1260.5" y="-147" font-family="Helvetica,sans-Serif" font-size="10.00">Data/Generate.hpp</text>
</a>
</g>
</g>
<!-- Node2&#45;&gt;Node21 -->
<g id="edge26" class="edge"><title>Node2&#45;&gt;Node21</title>
<path fill="none" stroke="midnightblue" d="M1098.25,-198.529C1137.32,-186.965 1196.7,-169.385 1231.76,-159.009"/>
<polygon fill="midnightblue" stroke="midnightblue" points="1096.89,-195.281 1088.3,-201.475 1098.88,-201.993 1096.89,-195.281"/>
</g>
<!-- Node22 -->
<g id="node22" class="node"><title>Node22</title>
<g id="a_node22"><a xlink:href="RootDataIO_8hpp.html" target="_top" xlink:title="Data/Root/RootDataIO.hpp">
<polygon fill="white" stroke="red" points="1328.5,-140 1328.5,-159 1464.5,-159 1464.5,-140 1328.5,-140"/>
<text text-anchor="middle" x="1396.5" y="-147" font-family="Helvetica,sans-Serif" font-size="10.00">Data/Root/RootDataIO.hpp</text>
</a>
</g>
</g>
<!-- Node2&#45;&gt;Node22 -->
<g id="edge27" class="edge"><title>Node2&#45;&gt;Node22</title>
<path fill="none" stroke="midnightblue" d="M1112.21,-201.03C1164.56,-192.074 1247.12,-177.835 1318.5,-165 1329.07,-163.099 1340.45,-161.01 1351.15,-159.024"/>
<polygon fill="midnightblue" stroke="midnightblue" points="1111.42,-197.614 1102.15,-202.748 1112.6,-204.514 1111.42,-197.614"/>
</g>
<!-- Node23 -->
<g id="node23" class="node"><title>Node23</title>
<g id="a_node23"><a xlink:href="RootGenerator_8cpp.html" target="_top" xlink:title="Data/Root/RootGenerator.cpp">
<polygon fill="white" stroke="black" points="394,-73 394,-92 541,-92 541,-73 394,-73"/>
<text text-anchor="middle" x="467.5" y="-80" font-family="Helvetica,sans-Serif" font-size="10.00">Data/Root/RootGenerator.cpp</text>
</a>
</g>
</g>
<!-- Node2&#45;&gt;Node23 -->
<g id="edge29" class="edge"><title>Node2&#45;&gt;Node23</title>
<path fill="none" stroke="midnightblue" d="M1006.84,-207.137C935.474,-202.433 804.445,-190.871 695.5,-165 615.952,-146.11 525.668,-108.878 486.88,-92.0802"/>
<polygon fill="midnightblue" stroke="midnightblue" points="1006.72,-210.637 1016.93,-207.782 1007.17,-203.651 1006.72,-210.637"/>
</g>
<!-- Node2&#45;&gt;Node24 -->
<g id="edge31" class="edge"><title>Node2&#45;&gt;Node24</title>
<path fill="none" stroke="midnightblue" d="M1006.6,-209.567C867.043,-207.948 477.475,-200.349 155.5,-165 142.107,-163.53 127.626,-161.301 114.476,-159.029"/>
<polygon fill="midnightblue" stroke="midnightblue" points="1006.96,-213.071 1017,-209.681 1007.04,-206.071 1006.96,-213.071"/>
</g>
<!-- Node4&#45;&gt;Node5 -->
<g id="edge4" class="edge"><title>Node4&#45;&gt;Node5</title>
<path fill="none" stroke="midnightblue" d="M1737.95,-136.929C1780.72,-124.059 1848.81,-103.57 1887.04,-92.0637"/>
<polygon fill="midnightblue" stroke="midnightblue" points="1736.75,-133.635 1728.18,-139.869 1738.77,-140.338 1736.75,-133.635"/>
</g>
<!-- Node4&#45;&gt;Node6 -->
<g id="edge5" class="edge"><title>Node4&#45;&gt;Node6</title>
<path fill="none" stroke="midnightblue" d="M1680.48,-133.237C1667.04,-122.452 1649.16,-108.102 1636.06,-97.589"/>
<polygon fill="midnightblue" stroke="midnightblue" points="1678.59,-136.205 1688.58,-139.734 1682.97,-130.745 1678.59,-136.205"/>
</g>
<!-- Node7 -->
<g id="node7" class="node"><title>Node7</title>
<g id="a_node7"><a xlink:href="BuilderXML_8hpp.html" target="_top" xlink:title="Physics/BuilderXML.hpp">
<polygon fill="white" stroke="red" points="1123.5,-73 1123.5,-92 1247.5,-92 1247.5,-73 1123.5,-73"/>
<text text-anchor="middle" x="1185.5" y="-80" font-family="Helvetica,sans-Serif" font-size="10.00">Physics/BuilderXML.hpp</text>
</a>
</g>
</g>
<!-- Node4&#45;&gt;Node7 -->
<g id="edge6" class="edge"><title>Node4&#45;&gt;Node7</title>
<path fill="none" stroke="midnightblue" d="M1642.05,-139.774C1628.14,-137.77 1613.3,-135.724 1599.5,-134 1447.4,-114.998 1407.99,-121.363 1256.5,-98 1245.81,-96.3509 1234.29,-94.1734 1223.7,-92.0087"/>
<polygon fill="midnightblue" stroke="midnightblue" points="1641.59,-143.244 1651.99,-141.22 1642.6,-136.317 1641.59,-143.244"/>
</g>
<!-- Node4&#45;&gt;Node8 -->
<g id="edge7" class="edge"><title>Node4&#45;&gt;Node8</title>
<path fill="none" stroke="midnightblue" d="M1721.18,-134.114C1752.71,-113.387 1809.91,-76.5582 1832.5,-67 1880.62,-46.634 1938.95,-32.9377 1979.59,-25.0061"/>
<polygon fill="midnightblue" stroke="midnightblue" points="1719.07,-131.312 1712.65,-139.74 1722.93,-137.155 1719.07,-131.312"/>
</g>
<!-- Node4&#45;&gt;Node9 -->
<g id="edge8" class="edge"><title>Node4&#45;&gt;Node9</title>
<path fill="none" stroke="midnightblue" d="M1709.91,-131.032C1719.33,-112.697 1729.5,-84.1949 1713.5,-67 1671.72,-22.0922 1262.53,-16.5872 1089.81,-16.2826"/>
<polygon fill="midnightblue" stroke="midnightblue" points="1706.83,-129.363 1705.06,-139.807 1712.96,-132.75 1706.83,-129.363"/>
</g>
<!-- Node4&#45;&gt;Node10 -->
<g id="edge9" class="edge"><title>Node4&#45;&gt;Node10</title>
<path fill="none" stroke="midnightblue" d="M1717.6,-132.992C1728.15,-123.476 1741.32,-110.712 1751.5,-98 1769.03,-76.101 1785.21,-47.5973 1794.18,-30.7529"/>
<polygon fill="midnightblue" stroke="midnightblue" points="1715,-130.621 1709.82,-139.864 1719.64,-135.868 1715,-130.621"/>
</g>
<!-- Node4&#45;&gt;Node11 -->
<g id="edge10" class="edge"><title>Node4&#45;&gt;Node11</title>
<path fill="none" stroke="midnightblue" d="M1701.01,-129.786C1701.39,-110.79 1698.61,-82.0917 1680.5,-67 1648.37,-40.222 970.204,-34.1866 928.5,-31 906.642,-29.3298 882.886,-27.0148 861.343,-24.7245"/>
<polygon fill="midnightblue" stroke="midnightblue" points="1697.51,-129.745 1700.48,-139.913 1704.5,-130.106 1697.51,-129.745"/>
</g>
<!-- Node12 -->
<g id="node12" class="node"><title>Node12</title>
<g id="a_node12"><a xlink:href="RootPlotData_8cpp.html" target="_top" xlink:title="Tools/Plotting/RootPlotData.cpp">
<polygon fill="white" stroke="black" points="1265.5,-73 1265.5,-92 1423.5,-92 1423.5,-73 1265.5,-73"/>
<text text-anchor="middle" x="1344.5" y="-80" font-family="Helvetica,sans-Serif" font-size="10.00">Tools/Plotting/RootPlotData.cpp</text>
</a>
</g>
</g>
<!-- Node4&#45;&gt;Node12 -->
<g id="edge11" class="edge"><title>Node4&#45;&gt;Node12</title>
<path fill="none" stroke="midnightblue" d="M1642.79,-138.116C1573.01,-125.341 1455.87,-103.892 1391.1,-92.0317"/>
<polygon fill="midnightblue" stroke="midnightblue" points="1642.26,-141.577 1652.72,-139.936 1643.52,-134.692 1642.26,-141.577"/>
</g>
<!-- Node13&#45;&gt;Node14 -->
<g id="edge13" class="edge"><title>Node13&#45;&gt;Node14</title>
<path fill="none" stroke="midnightblue" d="M238.896,-130.663C232.146,-118.128 223.413,-101.91 218.145,-92.1273"/>
<polygon fill="midnightblue" stroke="midnightblue" points="235.957,-132.588 243.78,-139.734 242.12,-129.27 235.957,-132.588"/>
</g>
<!-- Node15 -->
<g id="node15" class="node"><title>Node15</title>
<g id="a_node15"><a xlink:href="EvtGenGenerator_8cpp.html" target="_top" xlink:title="Data/EvtGen/EvtGenGenerator.cpp">
<polygon fill="white" stroke="black" points="306,-6 306,-25 477,-25 477,-6 306,-6"/>
<text text-anchor="middle" x="391.5" y="-13" font-family="Helvetica,sans-Serif" font-size="10.00">Data/EvtGen/EvtGenGenerator.cpp</text>
</a>
</g>
</g>
<!-- Node14&#45;&gt;Node15 -->
<g id="edge14" class="edge"><title>Node14&#45;&gt;Node15</title>
<path fill="none" stroke="midnightblue" d="M246.536,-69.4363C281.847,-56.5417 336.938,-36.4243 368.049,-25.0637"/>
<polygon fill="midnightblue" stroke="midnightblue" points="245.33,-66.1506 237.137,-72.8685 247.731,-72.726 245.33,-66.1506"/>
</g>
<!-- Node16&#45;&gt;Node6 -->
<g id="edge16" class="edge"><title>Node16&#45;&gt;Node6</title>
<path fill="none" stroke="midnightblue" d="M1555.75,-133.237C1569.36,-122.452 1587.46,-108.102 1600.73,-97.589"/>
<polygon fill="midnightblue" stroke="midnightblue" points="1553.22,-130.779 1547.56,-139.734 1557.57,-136.265 1553.22,-130.779"/>
</g>
<!-- Node16&#45;&gt;Node17 -->
<g id="edge17" class="edge"><title>Node16&#45;&gt;Node17</title>
<path fill="none" stroke="midnightblue" d="M1525.21,-131.035C1518.44,-120.556 1509.94,-107.402 1503.6,-97.589"/>
<polygon fill="midnightblue" stroke="midnightblue" points="1522.47,-133.234 1530.84,-139.734 1528.35,-129.435 1522.47,-133.234"/>
</g>
<!-- Node18 -->
<g id="node18" class="node"><title>Node18</title>
<g id="a_node18"><a xlink:href="HelicityKinematics_8hpp.html" target="_top" xlink:title="Physics/HelicityFormalism\l/HelicityKinematics.hpp">
<polygon fill="white" stroke="red" points="769.5,-67.5 769.5,-97.5 903.5,-97.5 903.5,-67.5 769.5,-67.5"/>
<text text-anchor="start" x="777.5" y="-85.5" font-family="Helvetica,sans-Serif" font-size="10.00">Physics/HelicityFormalism</text>
<text text-anchor="middle" x="836.5" y="-74.5" font-family="Helvetica,sans-Serif" font-size="10.00">/HelicityKinematics.hpp</text>
</a>
</g>
</g>
<!-- Node16&#45;&gt;Node18 -->
<g id="edge18" class="edge"><title>Node16&#45;&gt;Node18</title>
<path fill="none" stroke="midnightblue" d="M1494.14,-137.763C1487.27,-136.309 1480.22,-134.982 1473.5,-134 1226.28,-97.8617 1160.36,-129.473 912.5,-98 909.568,-97.6277 906.579,-97.2124 903.564,-96.7641"/>
<polygon fill="midnightblue" stroke="midnightblue" points="1493.47,-141.2 1503.99,-139.959 1494.99,-134.368 1493.47,-141.2"/>
</g>
<!-- Node19 -->
<g id="node19" class="node"><title>Node19</title>
<g id="a_node19"><a xlink:href="DalitzKinematics_8hpp.html" target="_top" xlink:title="Contains DalitzKinematics class. ">
<polygon fill="white" stroke="black" points="921.5,-73 921.5,-92 1105.5,-92 1105.5,-73 921.5,-73"/>
<text text-anchor="middle" x="1013.5" y="-80" font-family="Helvetica,sans-Serif" font-size="10.00">Physics/EvtGen/DalitzKinematics.hpp</text>
</a>
</g>
</g>
<!-- Node16&#45;&gt;Node19 -->
<g id="edge21" class="edge"><title>Node16&#45;&gt;Node19</title>
<path fill="none" stroke="midnightblue" d="M1492.95,-137.726C1486.46,-136.338 1479.82,-135.04 1473.5,-134 1315.27,-107.965 1273.68,-117.398 1114.5,-98 1099.99,-96.2321 1084.35,-94.0977 1069.8,-92.0168"/>
<polygon fill="midnightblue" stroke="midnightblue" points="1492.46,-141.201 1502.98,-139.958 1493.98,-134.369 1492.46,-141.201"/>
</g>
<!-- Node18&#45;&gt;Node10 -->
<g id="edge19" class="edge"><title>Node18&#45;&gt;Node10</title>
<path fill="none" stroke="midnightblue" d="M913.707,-66.9673C1225.7,-29.162 1587.25,-19.7007 1734.32,-17.299"/>
<polygon fill="midnightblue" stroke="midnightblue" points="913.062,-63.5201 903.561,-68.2089 913.912,-70.4682 913.062,-63.5201"/>
</g>
<!-- Node18&#45;&gt;Node11 -->
<g id="edge20" class="edge"><title>Node18&#45;&gt;Node11</title>
<path fill="none" stroke="midnightblue" d="M820.559,-58.9745C812.32,-47.332 802.742,-33.7985 796.653,-25.1945"/>
<polygon fill="midnightblue" stroke="midnightblue" points="817.885,-61.2551 826.519,-67.396 823.599,-57.2114 817.885,-61.2551"/>
</g>
<!-- Node19&#45;&gt;Node8 -->
<g id="edge22" class="edge"><title>Node19&#45;&gt;Node8</title>
<path fill="none" stroke="midnightblue" d="M1076.09,-71.5658C1088.78,-69.8197 1102.05,-68.185 1114.5,-67 1452.46,-34.8415 1538.87,-55.1265 1877.5,-31 1900.37,-29.3704 1925.14,-27.1866 1947.91,-25.0092"/>
<polygon fill="midnightblue" stroke="midnightblue" points="1075.48,-68.1174 1066.07,-72.9835 1076.46,-75.0484 1075.48,-68.1174"/>
</g>
<!-- Node19&#45;&gt;Node9 -->
<g id="edge23" class="edge"><title>Node19&#45;&gt;Node9</title>
<path fill="none" stroke="midnightblue" d="M1013.5,-62.537C1013.5,-50.1703 1013.5,-34.6198 1013.5,-25.1273"/>
<polygon fill="midnightblue" stroke="midnightblue" points="1010,-62.7338 1013.5,-72.7338 1017,-62.7338 1010,-62.7338"/>
</g>
<!-- Node24&#45;&gt;Node11 -->
<g id="edge32" class="edge"><title>Node24&#45;&gt;Node11</title>
<path fill="none" stroke="midnightblue" d="M75.7106,-130.217C82.2696,-110.895 95.5521,-81.2842 118.5,-67 143.735,-51.2923 552.494,-28.6941 719.876,-20.0481"/>
<polygon fill="midnightblue" stroke="midnightblue" points="72.3048,-129.382 72.6713,-139.971 78.9879,-131.465 72.3048,-129.382"/>
</g>
<!-- Node25&#45;&gt;Node7 -->
<g id="edge40" class="edge"><title>Node25&#45;&gt;Node7</title>
<path fill="none" stroke="midnightblue" d="M869.158,-134.516C870.279,-134.343 871.393,-134.17 872.5,-134 979.971,-117.444 1007.41,-116.886 1114.5,-98 1124.66,-96.2083 1135.6,-94.0767 1145.77,-92.0067"/>
<polygon fill="midnightblue" stroke="midnightblue" points="868.281,-131.11 858.937,-136.105 869.356,-138.027 868.281,-131.11"/>
</g>
<!-- Node25&#45;&gt;Node12 -->
<g id="edge44" class="edge"><title>Node25&#45;&gt;Node12</title>
<path fill="none" stroke="midnightblue" d="M869.146,-134.431C870.271,-134.284 871.389,-134.14 872.5,-134 1042.56,-112.502 1086.5,-119.948 1256.5,-98 1269.55,-96.3149 1283.64,-94.1502 1296.63,-92.0102"/>
<polygon fill="midnightblue" stroke="midnightblue" points="868.337,-131.008 858.897,-135.819 869.276,-137.945 868.337,-131.008"/>
</g>
<!-- Node25&#45;&gt;Node15 -->
<g id="edge38" class="edge"><title>Node25&#45;&gt;Node15</title>
<path fill="none" stroke="midnightblue" d="M694.217,-133.726C660.093,-125.91 621.346,-114.428 588.5,-98 568.697,-88.0955 569.032,-77.4301 549.5,-67 511.777,-46.8558 464.653,-33.0892 431.728,-25.0796"/>
<polygon fill="midnightblue" stroke="midnightblue" points="693.657,-137.187 704.178,-135.935 695.173,-130.353 693.657,-137.187"/>
</g>
<!-- Node25&#45;&gt;Node18 -->
<g id="edge41" class="edge"><title>Node25&#45;&gt;Node18</title>
<path fill="none" stroke="midnightblue" d="M799.916,-126.736C808.053,-117.119 817.386,-106.089 824.589,-97.5765"/>
<polygon fill="midnightblue" stroke="midnightblue" points="797.222,-124.501 793.434,-134.396 802.565,-129.023 797.222,-124.501"/>
</g>
<!-- Node25&#45;&gt;Node19 -->
<g id="edge42" class="edge"><title>Node25&#45;&gt;Node19</title>
<path fill="none" stroke="midnightblue" d="M841.283,-131.751C886.657,-119.038 947.165,-102.085 983.059,-92.0287"/>
<polygon fill="midnightblue" stroke="midnightblue" points="840.24,-128.408 831.555,-134.476 842.128,-135.148 840.24,-128.408"/>
</g>
<!-- Node25&#45;&gt;Node23 -->
<g id="edge39" class="edge"><title>Node25&#45;&gt;Node23</title>
<path fill="none" stroke="midnightblue" d="M703.66,-132.387C641.932,-119.609 558.095,-102.254 508.7,-92.0287"/>
<polygon fill="midnightblue" stroke="midnightblue" points="703.251,-135.876 713.753,-134.476 704.67,-129.021 703.251,-135.876"/>
</g>
<!-- Node26 -->
<g id="node26" class="node"><title>Node26</title>
<g id="a_node26"><a xlink:href="ParticleStateTransitionKinematicsInfo_8cpp.html" target="_top" xlink:title="Physics/ParticleStateTransition\lKinematicsInfo.cpp">
<polygon fill="white" stroke="black" points="597.5,-67.5 597.5,-97.5 751.5,-97.5 751.5,-67.5 597.5,-67.5"/>
<text text-anchor="start" x="605.5" y="-85.5" font-family="Helvetica,sans-Serif" font-size="10.00">Physics/ParticleStateTransition</text>
<text text-anchor="middle" x="674.5" y="-74.5" font-family="Helvetica,sans-Serif" font-size="10.00">KinematicsInfo.cpp</text>
</a>
</g>
</g>
<!-- Node25&#45;&gt;Node26 -->
<g id="edge43" class="edge"><title>Node25&#45;&gt;Node26</title>
<path fill="none" stroke="midnightblue" d="M749.425,-129.015C732.774,-118.9 712.806,-106.77 697.672,-97.5765"/>
<polygon fill="midnightblue" stroke="midnightblue" points="747.919,-132.195 758.283,-134.396 751.553,-126.213 747.919,-132.195"/>
</g>
</g>
</svg>
