<?xml version="1.0" encoding="UTF-8" standalone="no"?>
<!DOCTYPE svg PUBLIC "-//W3C//DTD SVG 1.1//EN"
 "http://www.w3.org/Graphics/SVG/1.1/DTD/svg11.dtd">
<!-- Generated by graphviz version 2.40.1 (20161225.0304)
 -->
<!-- Title: Core/FourMomentum.hpp Pages: 1 -->
<!--zoomable 285 -->
<svg id="main" version="1.1" xmlns="http://www.w3.org/2000/svg" xmlns:xlink="http://www.w3.org/1999/xlink" xml:space="preserve" onload="init(evt)">
<style type="text/css"><![CDATA[
.edge:hover path { stroke: red; }
.edge:hover polygon { stroke: red; fill: red; }
]]></style>
<script type="text/javascript"><![CDATA[
var edges = document.getElementsByTagName('g');
if (edges && edges.length) {
  for (var i=0;i<edges.length;i++) {
    if (edges[i].id.substr(0,4)=='edge') {
      edges[i].setAttribute('class','edge');
    }
  }
}
]]></script>
        <defs>
                <circle id="rim" cx="0" cy="0" r="7"/>
                <circle id="rim2" cx="0" cy="0" r="3.5"/>
                <g id="zoomPlus">
                        <use xlink:href="#rim" fill="#404040">
                                <set attributeName="fill" to="#808080" begin="zoomplus.mouseover" end="zoomplus.mouseout"/>
                        </use>
                        <path d="M-4,0h8M0,-4v8" fill="none" stroke="white" stroke-width="1.5" pointer-events="none"/>
                </g>
                <g id="zoomMin">
                        <use xlink:href="#rim" fill="#404040">
                                <set attributeName="fill" to="#808080" begin="zoomminus.mouseover" end="zoomminus.mouseout"/>
                        </use>
                        <path d="M-4,0h8" fill="none" stroke="white" stroke-width="1.5" pointer-events="none"/>
                </g>
                <g id="dirArrow">
                        <path fill="none" stroke="white" stroke-width="1.5" d="M0,-3.0v7 M-2.5,-0.5L0,-3.0L2.5,-0.5"/>
                </g>
               <g id="resetDef">
                       <use xlink:href="#rim2" fill="#404040">
                               <set attributeName="fill" to="#808080" begin="reset.mouseover" end="reset.mouseout"/>
                       </use>
               </g>
        </defs>

<script type="text/javascript">
var viewWidth = 2239;
var viewHeight = 285;
var sectionId = 'dynsection-1';
</script>
<script xlink:href="svgpan.js"/>
<svg id="graph" class="graph">
<g id="viewport">
<title>Core/FourMomentum.hpp</title>
<polygon fill="#ffffff" stroke="transparent" points="-4,4 -4,-281 2234.7672,-281 2234.7672,4 -4,4"/>
<!-- Node9 -->
<g id="node1" class="node">
<title>Node9</title>
<polygon fill="#bfbfbf" stroke="#000000" points="1324.2672,-257.5 1324.2672,-276.5 1464.2672,-276.5 1464.2672,-257.5 1324.2672,-257.5"/>
<text text-anchor="middle" x="1394.2672" y="-264.5" font-family="Helvetica,sans-Serif" font-size="10.00" fill="#000000">Core/FourMomentum.hpp</text>
</g>
<!-- Node10 -->
<g id="node2" class="node">
<title>Node10</title>
<g id="a_node2"><a xlink:href="Event_8hpp.html" target="_top" xlink:title="Core/Event.hpp">
<polygon fill="#ffffff" stroke="#000000" points="1348.7672,-201.5 1348.7672,-220.5 1439.7672,-220.5 1439.7672,-201.5 1348.7672,-201.5"/>
<text text-anchor="middle" x="1394.2672" y="-208.5" font-family="Helvetica,sans-Serif" font-size="10.00" fill="#000000">Core/Event.hpp</text>
</a>
</g>
</g>
<!-- Node9&#45;&gt;Node10 -->
<g id="edge1" class="edge">
<title>Node9&#45;&gt;Node10</title>
<path fill="none" stroke="#191970" d="M1394.2672,-247.1575C1394.2672,-238.155 1394.2672,-227.9199 1394.2672,-220.6427"/>
<polygon fill="#191970" stroke="#191970" points="1390.7673,-247.2455 1394.2672,-257.2455 1397.7673,-247.2456 1390.7673,-247.2455"/>
</g>
<!-- Node23 -->
<g id="node8" class="node">
<title>Node23</title>
<g id="a_node8"><a xlink:href="MinLogLH_8cpp.html" target="_top" xlink:title="Estimator/MinLogLH\l/MinLogLH.cpp">
<polygon fill="#ffffff" stroke="#000000" points="1755.2672,-67.5 1755.2672,-97.5 1869.2672,-97.5 1869.2672,-67.5 1755.2672,-67.5"/>
<text text-anchor="start" x="1763.2672" y="-85.5" font-family="Helvetica,sans-Serif" font-size="10.00" fill="#000000">Estimator/MinLogLH</text>
<text text-anchor="middle" x="1812.2672" y="-74.5" font-family="Helvetica,sans-Serif" font-size="10.00" fill="#000000">/MinLogLH.cpp</text>
</a>
</g>
</g>
<!-- Node9&#45;&gt;Node23 -->
<g id="edge37" class="edge">
<title>Node9&#45;&gt;Node23</title>
<path fill="none" stroke="#191970" d="M1474.8683,-261.1122C1594.5325,-250.5065 1810.1715,-223.6002 1857.2672,-165 1874.3353,-143.7625 1849.985,-115.1252 1830.991,-97.7802"/>
<polygon fill="#191970" stroke="#191970" points="1474.3163,-257.6469 1464.6563,-261.9984 1474.9215,-264.6207 1474.3163,-257.6469"/>
</g>
<!-- Node24 -->
<g id="node9" class="node">
<title>Node24</title>
<g id="a_node9"><a xlink:href="SumMinLogLH_8cpp.html" target="_top" xlink:title="Estimator/MinLogLH\l/SumMinLogLH.cpp">
<polygon fill="#ffffff" stroke="#000000" points="1925.2672,-67.5 1925.2672,-97.5 2039.2672,-97.5 2039.2672,-67.5 1925.2672,-67.5"/>
<text text-anchor="start" x="1933.2672" y="-85.5" font-family="Helvetica,sans-Serif" font-size="10.00" fill="#000000">Estimator/MinLogLH</text>
<text text-anchor="middle" x="1982.2672" y="-74.5" font-family="Helvetica,sans-Serif" font-size="10.00" fill="#000000">/SumMinLogLH.cpp</text>
</a>
</g>
</g>
<!-- Node9&#45;&gt;Node24 -->
<g id="edge38" class="edge">
<title>Node9&#45;&gt;Node24</title>
<path fill="none" stroke="#191970" d="M1474.3693,-261.8072C1571.6904,-254.7641 1729.7603,-240.7548 1785.2672,-221 1862.0734,-193.6649 1936.1726,-127.6133 1967.1246,-97.6876"/>
<polygon fill="#191970" stroke="#191970" points="1473.9975,-258.3248 1464.2724,-262.5288 1474.4965,-265.307 1473.9975,-258.3248"/>
</g>
<!-- Node26 -->
<g id="node11" class="node">
<title>Node26</title>
<g id="a_node11"><a xlink:href="DalitzKinematics_8cpp.html" target="_top" xlink:title="Physics/EvtGen/DalitzKinematics.cpp">
<polygon fill="#ffffff" stroke="#000000" points="894.2672,-6 894.2672,-25 1092.2672,-25 1092.2672,-6 894.2672,-6"/>
<text text-anchor="middle" x="993.2672" y="-13" font-family="Helvetica,sans-Serif" font-size="10.00" fill="#000000">Physics/EvtGen/DalitzKinematics.cpp</text>
</a>
</g>
</g>
<!-- Node9&#45;&gt;Node26 -->
<g id="edge39" class="edge">
<title>Node9&#45;&gt;Node26</title>
<path fill="none" stroke="#191970" d="M1313.8406,-265.351C1041.4623,-259.1541 164.9129,-233.9886 60.2672,-165 32.2181,-146.5084 33.2758,-130.6275 25.2672,-98 21.9828,-84.6194 15.7871,-76.9978 25.2672,-67 27.1229,-65.043 647.4926,-33.1575 893.992,-20.5615"/>
<polygon fill="#191970" stroke="#191970" points="1313.9689,-268.8546 1324.0452,-265.5806 1314.1265,-261.8564 1313.9689,-268.8546"/>
</g>
<!-- Node31 -->
<g id="node14" class="node">
<title>Node31</title>
<g id="a_node14"><a xlink:href="HelicityKinematics_8cpp.html" target="_top" xlink:title="Physics/HelicityFormalism\l/HelicityKinematics.cpp">
<polygon fill="#ffffff" stroke="#000000" points="526.2672,-.5 526.2672,-30.5 672.2672,-30.5 672.2672,-.5 526.2672,-.5"/>
<text text-anchor="start" x="534.2672" y="-18.5" font-family="Helvetica,sans-Serif" font-size="10.00" fill="#000000">Physics/HelicityFormalism</text>
<text text-anchor="middle" x="599.2672" y="-7.5" font-family="Helvetica,sans-Serif" font-size="10.00" fill="#000000">/HelicityKinematics.cpp</text>
</a>
</g>
</g>
<!-- Node9&#45;&gt;Node31 -->
<g id="edge40" class="edge">
<title>Node9&#45;&gt;Node31</title>
<path fill="none" stroke="#191970" d="M1313.7457,-266.5986C1083.3983,-265.0169 424.7076,-257.3519 212.2672,-221 129.2669,-206.7973 88.3877,-226.8709 31.2672,-165 1.3777,-132.6248 -13.4876,-99.499 16.2672,-67 18.402,-64.6683 369.944,-34.8053 526.0413,-21.6511"/>
<polygon fill="#191970" stroke="#191970" points="1314.0368,-270.1005 1324.0599,-266.6673 1314.0835,-263.1007 1314.0368,-270.1005"/>
</g>
<!-- Node47 -->
<g id="node24" class="node">
<title>Node47</title>
<g id="a_node24"><a xlink:href="DalitzPlot_8hpp.html" target="_top" xlink:title="Tools/Plotting/DalitzPlot.hpp">
<polygon fill="#ffffff" stroke="#ff0000" points="2077.7672,-140 2077.7672,-159 2230.7672,-159 2230.7672,-140 2077.7672,-140"/>
<text text-anchor="middle" x="2154.2672" y="-147" font-family="Helvetica,sans-Serif" font-size="10.00" fill="#000000">Tools/Plotting/DalitzPlot.hpp</text>
</a>
</g>
</g>
<!-- Node9&#45;&gt;Node47 -->
<g id="edge49" class="edge">
<title>Node9&#45;&gt;Node47</title>
<path fill="none" stroke="#191970" d="M1474.4174,-264.1361C1640.1467,-257.8313 2009.5885,-241.6541 2063.2672,-221 2098.5203,-207.4356 2131.0723,-175.2335 2145.8782,-159.0832"/>
<polygon fill="#191970" stroke="#191970" points="1474.1411,-260.644 1464.2804,-264.5191 1474.4054,-267.639 1474.1411,-260.644"/>
</g>
<!-- Node48 -->
<g id="node25" class="node">
<title>Node48</title>
<g id="a_node25"><a xlink:href="ParticleStateTransitionKinematicsInfo_8hpp.html" target="_top" xlink:title="Physics/ParticleStateTransition\lKinematicsInfo.hpp">
<polygon fill="#ffffff" stroke="#000000" points="770.7672,-134.5 770.7672,-164.5 935.7672,-164.5 935.7672,-134.5 770.7672,-134.5"/>
<text text-anchor="start" x="778.7672" y="-152.5" font-family="Helvetica,sans-Serif" font-size="10.00" fill="#000000">Physics/ParticleStateTransition</text>
<text text-anchor="middle" x="853.2672" y="-141.5" font-family="Helvetica,sans-Serif" font-size="10.00" fill="#000000">KinematicsInfo.hpp</text>
</a>
</g>
</g>
<!-- Node9&#45;&gt;Node48 -->
<g id="edge41" class="edge">
<title>Node9&#45;&gt;Node48</title>
<path fill="none" stroke="#191970" d="M1340.3958,-255.2997C1241.6443,-233.8518 1031.7685,-188.2688 922.5574,-164.5492"/>
<polygon fill="#191970" stroke="#191970" points="1339.9381,-258.7818 1350.4531,-257.484 1341.4238,-251.9413 1339.9381,-258.7818"/>
</g>
<!-- Node11 -->
<g id="node3" class="node">
<title>Node11</title>
<g id="a_node3"><a xlink:href="Event_8cpp.html" target="_top" xlink:title="Core/Event.cpp">
<polygon fill="#ffffff" stroke="#000000" points="1152.2672,-140 1152.2672,-159 1242.2672,-159 1242.2672,-140 1152.2672,-140"/>
<text text-anchor="middle" x="1197.2672" y="-147" font-family="Helvetica,sans-Serif" font-size="10.00" fill="#000000">Core/Event.cpp</text>
</a>
</g>
</g>
<!-- Node10&#45;&gt;Node11 -->
<g id="edge2" class="edge">
<title>Node10&#45;&gt;Node11</title>
<path fill="none" stroke="#191970" d="M1353.9064,-198.4001C1316.5156,-186.7273 1261.7173,-169.6202 1227.8323,-159.0419"/>
<polygon fill="#191970" stroke="#191970" points="1352.8972,-201.7515 1363.4859,-201.3906 1354.9833,-195.0696 1352.8972,-201.7515"/>
</g>
<!-- Node12 -->
<g id="node4" class="node">
<title>Node12</title>
<g id="a_node4"><a xlink:href="Generator_8hpp.html" target="_top" xlink:title="Core/Generator.hpp">
<polygon fill="#ffffff" stroke="#ff0000" points="68.7672,-140 68.7672,-159 179.7672,-159 179.7672,-140 68.7672,-140"/>
<text text-anchor="middle" x="124.2672" y="-147" font-family="Helvetica,sans-Serif" font-size="10.00" fill="#000000">Core/Generator.hpp</text>
</a>
</g>
</g>
<!-- Node10&#45;&gt;Node12 -->
<g id="edge3" class="edge">
<title>Node10&#45;&gt;Node12</title>
<path fill="none" stroke="#191970" d="M1338.2775,-210.1885C1132.7155,-207.0013 419.8679,-194.0617 194.2672,-165 183.5269,-163.6164 172.0021,-161.3831 161.4664,-159.0374"/>
<polygon fill="#191970" stroke="#191970" points="1338.4819,-213.692 1348.5345,-210.3459 1338.5894,-206.6928 1338.4819,-213.692"/>
</g>
<!-- Node13 -->
<g id="node5" class="node">
<title>Node13</title>
<g id="a_node5"><a xlink:href="EvtGenGenerator_8hpp.html" target="_top" xlink:title="Data/EvtGen/EvtGenGenerator.hpp">
<polygon fill="#ffffff" stroke="#000000" points="33.7672,-73 33.7672,-92 218.7672,-92 218.7672,-73 33.7672,-73"/>
<text text-anchor="middle" x="126.2672" y="-80" font-family="Helvetica,sans-Serif" font-size="10.00" fill="#000000">Data/EvtGen/EvtGenGenerator.hpp</text>
</a>
</g>
</g>
<!-- Node10&#45;&gt;Node13 -->
<g id="edge25" class="edge">
<title>Node10&#45;&gt;Node13</title>
<path fill="none" stroke="#191970" d="M1338.4099,-210.7908C1120.796,-209.7034 336.6275,-203.1499 232.2672,-165 226.7643,-162.9884 164.5568,-113.2768 138.081,-92.0092"/>
<polygon fill="#191970" stroke="#191970" points="1338.6236,-214.2918 1348.6403,-210.8399 1338.6573,-207.2918 1338.6236,-214.2918"/>
</g>
<!-- Node21 -->
<g id="node7" class="node">
<title>Node21</title>
<g id="a_node7"><a xlink:href="Kinematics_8hpp.html" target="_top" xlink:title="Core/Kinematics.hpp">
<polygon fill="#ffffff" stroke="#ff0000" points="1260.2672,-140 1260.2672,-159 1378.2672,-159 1378.2672,-140 1260.2672,-140"/>
<text text-anchor="middle" x="1319.2672" y="-147" font-family="Helvetica,sans-Serif" font-size="10.00" fill="#000000">Core/Kinematics.hpp</text>
</a>
</g>
</g>
<!-- Node10&#45;&gt;Node21 -->
<g id="edge6" class="edge">
<title>Node10&#45;&gt;Node21</title>
<path fill="none" stroke="#191970" d="M1374.5955,-194.8692C1360.8009,-183.5576 1342.8113,-168.8062 1331.1511,-159.2449"/>
<polygon fill="#191970" stroke="#191970" points="1372.5964,-197.7562 1382.5484,-201.3906 1377.035,-192.3433 1372.5964,-197.7562"/>
</g>
<!-- Node10&#45;&gt;Node24 -->
<g id="edge30" class="edge">
<title>Node10&#45;&gt;Node24</title>
<path fill="none" stroke="#191970" d="M1450.3005,-208.3937C1575.6754,-202.2224 1871.0172,-185.6719 1911.2672,-165 1940.6836,-149.8921 1963.0606,-116.8872 1974.2761,-97.5139"/>
<polygon fill="#191970" stroke="#191970" points="1449.9567,-204.9062 1440.1391,-208.8894 1450.2978,-211.8979 1449.9567,-204.9062"/>
</g>
<!-- Node10&#45;&gt;Node26 -->
<g id="edge31" class="edge">
<title>Node10&#45;&gt;Node26</title>
<path fill="none" stroke="#191970" d="M1338.4709,-209.7609C1124.948,-204.4228 368.3862,-179.8158 303.2672,-98 294.6871,-87.22 293.8944,-77.0984 303.2672,-67 313.1884,-56.3107 705.3284,-32.1916 893.928,-21.1779"/>
<polygon fill="#191970" stroke="#191970" points="1338.4363,-213.2611 1348.5193,-210.0079 1338.6083,-206.2632 1338.4363,-213.2611"/>
</g>
<!-- Node27 -->
<g id="node12" class="node">
<title>Node27</title>
<g id="a_node12"><a xlink:href="EvtGenIF_8hpp.html" target="_top" xlink:title="Physics/EvtGen/EvtGenIF.hpp">
<polygon fill="#ffffff" stroke="#ff0000" points="1272.2672,-6 1272.2672,-25 1430.2672,-25 1430.2672,-6 1272.2672,-6"/>
<text text-anchor="middle" x="1351.2672" y="-13" font-family="Helvetica,sans-Serif" font-size="10.00" fill="#000000">Physics/EvtGen/EvtGenIF.hpp</text>
</a>
</g>
</g>
<!-- Node10&#45;&gt;Node27 -->
<g id="edge32" class="edge">
<title>Node10&#45;&gt;Node27</title>
<path fill="none" stroke="#191970" d="M1449.9791,-208.8743C1566.183,-203.9561 1826.249,-190.2398 1857.2672,-165 1891.8182,-136.8855 1908.1939,-99.9938 1878.2672,-67 1848.7953,-34.5077 1570.2984,-21.838 1430.5096,-17.4946"/>
<polygon fill="#191970" stroke="#191970" points="1449.7067,-205.3825 1439.861,-209.2956 1449.998,-212.3765 1449.7067,-205.3825"/>
</g>
<!-- Node10&#45;&gt;Node31 -->
<g id="edge33" class="edge">
<title>Node10&#45;&gt;Node31</title>
<path fill="none" stroke="#191970" d="M1338.2761,-210.349C1139.281,-207.7752 473.2767,-196.8458 383.2672,-165 335.9191,-148.248 314.9267,-142.8221 292.2672,-98 286.0511,-85.7042 283.3671,-77.5174 292.2672,-67 307.235,-49.3121 439.9285,-32.2103 525.8961,-22.8475"/>
<polygon fill="#191970" stroke="#191970" points="1338.4595,-213.8515 1348.5032,-210.4792 1338.5486,-206.8521 1338.4595,-213.8515"/>
</g>
<!-- Node34 -->
<g id="node15" class="node">
<title>Node34</title>
<g id="a_node15"><a xlink:href="DalitzPlot_8cpp.html" target="_top" xlink:title="Tools/Plotting/DalitzPlot.cpp">
<polygon fill="#ffffff" stroke="#000000" points="1734.2672,-6 1734.2672,-25 1886.2672,-25 1886.2672,-6 1734.2672,-6"/>
<text text-anchor="middle" x="1810.2672" y="-13" font-family="Helvetica,sans-Serif" font-size="10.00" fill="#000000">Tools/Plotting/DalitzPlot.cpp</text>
</a>
</g>
</g>
<!-- Node10&#45;&gt;Node34 -->
<g id="edge36" class="edge">
<title>Node10&#45;&gt;Node34</title>
<path fill="none" stroke="#191970" d="M1450.0348,-209.7138C1570.8256,-206.3808 1853.0165,-195.4879 1943.2672,-165 1995.7133,-147.283 2021.6583,-146.5434 2048.2672,-98 2054.8897,-85.9182 2056.9182,-77.7232 2048.2672,-67 2028.1263,-42.0348 1948.2349,-28.5709 1886.5071,-21.7453"/>
<polygon fill="#191970" stroke="#191970" points="1449.7956,-206.2189 1439.8932,-209.9863 1449.9836,-213.2163 1449.7956,-206.2189"/>
</g>
<!-- Node35 -->
<g id="node16" class="node">
<title>Node35</title>
<g id="a_node16"><a xlink:href="AsciiDataIO_8hpp.html" target="_top" xlink:title="Data/Ascii/AsciiDataIO.hpp">
<polygon fill="#ffffff" stroke="#ff0000" points="1396.2672,-140 1396.2672,-159 1542.2672,-159 1542.2672,-140 1396.2672,-140"/>
<text text-anchor="middle" x="1469.2672" y="-147" font-family="Helvetica,sans-Serif" font-size="10.00" fill="#000000">Data/Ascii/AsciiDataIO.hpp</text>
</a>
</g>
</g>
<!-- Node10&#45;&gt;Node35 -->
<g id="edge15" class="edge">
<title>Node10&#45;&gt;Node35</title>
<path fill="none" stroke="#191970" d="M1413.9389,-194.8692C1427.7335,-183.5576 1445.723,-168.8062 1457.3832,-159.2449"/>
<polygon fill="#191970" stroke="#191970" points="1411.4993,-192.3433 1405.9859,-201.3906 1415.9379,-197.7562 1411.4993,-192.3433"/>
</g>
<!-- Node37 -->
<g id="node17" class="node">
<title>Node37</title>
<g id="a_node17"><a xlink:href="DataSet_8hpp.html" target="_top" xlink:title="Data/DataSet.hpp">
<polygon fill="#ffffff" stroke="#ff0000" points="1030.7672,-140 1030.7672,-159 1133.7672,-159 1133.7672,-140 1030.7672,-140"/>
<text text-anchor="middle" x="1082.2672" y="-147" font-family="Helvetica,sans-Serif" font-size="10.00" fill="#000000">Data/DataSet.hpp</text>
</a>
</g>
</g>
<!-- Node10&#45;&gt;Node37 -->
<g id="edge16" class="edge">
<title>Node10&#45;&gt;Node37</title>
<path fill="none" stroke="#191970" d="M1338.5864,-201.9062C1287.5799,-193.3127 1210.0791,-179.5931 1143.2672,-165 1135.0473,-163.2046 1126.2536,-161.087 1117.9748,-159.0034"/>
<polygon fill="#191970" stroke="#191970" points="1338.2981,-205.4066 1348.7391,-203.6079 1339.4553,-198.5029 1338.2981,-205.4066"/>
</g>
<!-- Node40 -->
<g id="node18" class="node">
<title>Node40</title>
<g id="a_node18"><a xlink:href="RootEfficiency_8cpp.html" target="_top" xlink:title="Data/Root/RootEfficiency.cpp">
<polygon fill="#ffffff" stroke="#000000" points="1581.7672,-73 1581.7672,-92 1736.7672,-92 1736.7672,-73 1581.7672,-73"/>
<text text-anchor="middle" x="1659.2672" y="-80" font-family="Helvetica,sans-Serif" font-size="10.00" fill="#000000">Data/Root/RootEfficiency.cpp</text>
</a>
</g>
</g>
<!-- Node10&#45;&gt;Node40 -->
<g id="edge28" class="edge">
<title>Node10&#45;&gt;Node40</title>
<path fill="none" stroke="#191970" d="M1450.1565,-209.3379C1564.0724,-205.3724 1814.5745,-193.4789 1840.2672,-165 1849.4963,-154.7701 1848.5701,-144.9949 1840.2672,-134 1831.8503,-122.8542 1753.9189,-103.6201 1703.0954,-92.0762"/>
<polygon fill="#191970" stroke="#191970" points="1449.7734,-205.8488 1439.898,-209.6864 1450.0111,-212.8448 1449.7734,-205.8488"/>
</g>
<!-- Node45 -->
<g id="node21" class="node">
<title>Node45</title>
<g id="a_node21"><a xlink:href="Generate_8hpp.html" target="_top" xlink:title="Some useful functions for Monte&#45;Carlo event generation. ">
<polygon fill="#ffffff" stroke="#ff0000" points="1560.7672,-140 1560.7672,-159 1669.7672,-159 1669.7672,-140 1560.7672,-140"/>
<text text-anchor="middle" x="1615.2672" y="-147" font-family="Helvetica,sans-Serif" font-size="10.00" fill="#000000">Data/Generate.hpp</text>
</a>
</g>
</g>
<!-- Node10&#45;&gt;Node45 -->
<g id="edge26" class="edge">
<title>Node10&#45;&gt;Node45</title>
<path fill="none" stroke="#191970" d="M1438.4783,-198.6969C1480.443,-187.0189 1542.6417,-169.7103 1580.9784,-159.0419"/>
<polygon fill="#191970" stroke="#191970" points="1437.494,-195.3377 1428.7984,-201.3906 1439.3707,-202.0815 1437.494,-195.3377"/>
</g>
<!-- Node46 -->
<g id="node22" class="node">
<title>Node46</title>
<g id="a_node22"><a xlink:href="RootDataIO_8hpp.html" target="_top" xlink:title="Data/Root/RootDataIO.hpp">
<polygon fill="#ffffff" stroke="#ff0000" points="1687.7672,-140 1687.7672,-159 1830.7672,-159 1830.7672,-140 1687.7672,-140"/>
<text text-anchor="middle" x="1759.2672" y="-147" font-family="Helvetica,sans-Serif" font-size="10.00" fill="#000000">Data/Root/RootDataIO.hpp</text>
</a>
</g>
</g>
<!-- Node10&#45;&gt;Node46 -->
<g id="edge27" class="edge">
<title>Node10&#45;&gt;Node46</title>
<path fill="none" stroke="#191970" d="M1450.226,-202.4987C1507.7564,-193.6341 1599.8947,-179.0911 1679.2672,-165 1689.7142,-163.1453 1700.9064,-161.047 1711.5104,-159.007"/>
<polygon fill="#191970" stroke="#191970" points="1449.5999,-199.0537 1440.2479,-204.0327 1450.6636,-205.9724 1449.5999,-199.0537"/>
</g>
<!-- Node18 -->
<g id="node23" class="node">
<title>Node18</title>
<g id="a_node23"><a xlink:href="RootGenerator_8cpp.html" target="_top" xlink:title="Data/Root/RootGenerator.cpp">
<polygon fill="#ffffff" stroke="#000000" points="312.2672,-73 312.2672,-92 470.2672,-92 470.2672,-73 312.2672,-73"/>
<text text-anchor="middle" x="391.2672" y="-80" font-family="Helvetica,sans-Serif" font-size="10.00" fill="#000000">Data/Root/RootGenerator.cpp</text>
</a>
</g>
</g>
<!-- Node10&#45;&gt;Node18 -->
<g id="edge29" class="edge">
<title>Node10&#45;&gt;Node18</title>
<path fill="none" stroke="#191970" d="M1338.157,-209.6659C1227.473,-206.4284 973.4205,-195.992 762.2672,-165 637.0859,-146.6266 491.2877,-109.4919 425.9888,-92.0094"/>
<polygon fill="#191970" stroke="#191970" points="1338.3192,-213.1718 1348.4145,-209.9571 1338.5179,-206.1746 1338.3192,-213.1718"/>
</g>
<!-- Node10&#45;&gt;Node47 -->
<g id="edge34" class="edge">
<title>Node10&#45;&gt;Node47</title>
<path fill="none" stroke="#191970" d="M1450.112,-206.9512C1555.2719,-199.264 1789.8651,-181.8163 1987.2672,-165 2016.7149,-162.4914 2049.0639,-159.5354 2077.3844,-156.8812"/>
<polygon fill="#191970" stroke="#191970" points="1449.7619,-203.4673 1440.0433,-207.6862 1450.2716,-210.4487 1449.7619,-203.4673"/>
</g>
<!-- Node12&#45;&gt;Node13 -->
<g id="edge4" class="edge">
<title>Node12&#45;&gt;Node13</title>
<path fill="none" stroke="#191970" d="M124.861,-129.6079C125.2309,-117.214 125.6903,-101.8263 125.9812,-92.0817"/>
<polygon fill="#191970" stroke="#191970" points="121.3538,-129.8005 124.5537,-139.9005 128.3506,-130.0094 121.3538,-129.8005"/>
</g>
<!-- Node14 -->
<g id="node6" class="node">
<title>Node14</title>
<g id="a_node6"><a xlink:href="EvtGenGenerator_8cpp.html" target="_top" xlink:title="Data/EvtGen/EvtGenGenerator.cpp">
<polygon fill="#ffffff" stroke="#000000" points="219.7672,-6 219.7672,-25 404.7672,-25 404.7672,-6 219.7672,-6"/>
<text text-anchor="middle" x="312.2672" y="-13" font-family="Helvetica,sans-Serif" font-size="10.00" fill="#000000">Data/EvtGen/EvtGenGenerator.cpp</text>
</a>
</g>
</g>
<!-- Node13&#45;&gt;Node14 -->
<g id="edge5" class="edge">
<title>Node13&#45;&gt;Node14</title>
<path fill="none" stroke="#191970" d="M162.59,-69.416C198.744,-56.3928 253.3702,-36.7156 285.6673,-25.0817"/>
<polygon fill="#191970" stroke="#191970" points="161.1385,-66.2186 152.9164,-72.9005 163.5108,-72.8044 161.1385,-66.2186"/>
</g>
<!-- Node21&#45;&gt;Node23 -->
<g id="edge7" class="edge">
<title>Node21&#45;&gt;Node23</title>
<path fill="none" stroke="#191970" d="M1367.01,-137.8331C1373.7843,-136.407 1380.6836,-135.0762 1387.2672,-134 1545.5226,-108.1314 1588.0974,-124.3873 1746.2672,-98 1749.1696,-97.5158 1752.1345,-96.9783 1755.1221,-96.4027"/>
<polygon fill="#191970" stroke="#191970" points="1366.2476,-134.417 1357.2259,-139.972 1367.7426,-141.2555 1366.2476,-134.417"/>
</g>
<!-- Node21&#45;&gt;Node24 -->
<g id="edge8" class="edge">
<title>Node21&#45;&gt;Node24</title>
<path fill="none" stroke="#191970" d="M1366.4888,-137.7729C1373.4255,-136.3313 1380.5089,-135.0121 1387.2672,-134 1603.6621,-101.5937 1660.7953,-122.1441 1878.2672,-98 1893.5077,-96.308 1909.9439,-94.0575 1925.1502,-91.7973"/>
<polygon fill="#191970" stroke="#191970" points="1365.512,-134.4036 1356.4857,-139.9513 1367.0015,-141.2433 1365.512,-134.4036"/>
</g>
<!-- Node25 -->
<g id="node10" class="node">
<title>Node25</title>
<g id="a_node10"><a xlink:href="DalitzKinematics_8hpp.html" target="_top" xlink:title="Contains DalitzKinematics class. ">
<polygon fill="#ffffff" stroke="#000000" points="1123.7672,-73 1123.7672,-92 1322.7672,-92 1322.7672,-73 1123.7672,-73"/>
<text text-anchor="middle" x="1223.2672" y="-80" font-family="Helvetica,sans-Serif" font-size="10.00" fill="#000000">Physics/EvtGen/DalitzKinematics.hpp</text>
</a>
</g>
</g>
<!-- Node21&#45;&gt;Node25 -->
<g id="edge9" class="edge">
<title>Node21&#45;&gt;Node25</title>
<path fill="none" stroke="#191970" d="M1297.0728,-134.0102C1278.5274,-121.067 1252.6683,-103.0195 1236.9961,-92.0817"/>
<polygon fill="#191970" stroke="#191970" points="1295.3092,-137.0475 1305.5127,-139.9005 1299.3155,-131.3072 1295.3092,-137.0475"/>
</g>
<!-- Node29 -->
<g id="node13" class="node">
<title>Node29</title>
<g id="a_node13"><a xlink:href="HelicityKinematics_8hpp.html" target="_top" xlink:title="Physics/HelicityFormalism\l/HelicityKinematics.hpp">
<polygon fill="#ffffff" stroke="#ff0000" points="1379.2672,-67.5 1379.2672,-97.5 1525.2672,-97.5 1525.2672,-67.5 1379.2672,-67.5"/>
<text text-anchor="start" x="1387.2672" y="-85.5" font-family="Helvetica,sans-Serif" font-size="10.00" fill="#000000">Physics/HelicityFormalism</text>
<text text-anchor="middle" x="1452.2672" y="-74.5" font-family="Helvetica,sans-Serif" font-size="10.00" fill="#000000">/HelicityKinematics.hpp</text>
</a>
</g>
</g>
<!-- Node21&#45;&gt;Node29 -->
<g id="edge12" class="edge">
<title>Node21&#45;&gt;Node29</title>
<path fill="none" stroke="#191970" d="M1347.4881,-135.2834C1369.511,-124.1892 1400.0272,-108.8164 1422.4479,-97.5218"/>
<polygon fill="#191970" stroke="#191970" points="1345.679,-132.2757 1338.3228,-139.9005 1348.8283,-138.5273 1345.679,-132.2757"/>
</g>
<!-- Node25&#45;&gt;Node26 -->
<g id="edge10" class="edge">
<title>Node25&#45;&gt;Node26</title>
<path fill="none" stroke="#191970" d="M1180.6243,-70.0779C1135.9627,-57.0678 1066.7795,-36.9145 1026.1594,-25.0817"/>
<polygon fill="#191970" stroke="#191970" points="1179.7339,-73.464 1190.3138,-72.9005 1181.6917,-66.7433 1179.7339,-73.464"/>
</g>
<!-- Node25&#45;&gt;Node27 -->
<g id="edge11" class="edge">
<title>Node25&#45;&gt;Node27</title>
<path fill="none" stroke="#191970" d="M1250.5297,-68.2298C1275.379,-55.2227 1311.4008,-36.3676 1332.9619,-25.0817"/>
<polygon fill="#191970" stroke="#191970" points="1248.843,-65.1621 1241.6065,-72.9005 1252.0893,-71.3639 1248.843,-65.1621"/>
</g>
<!-- Node29&#45;&gt;Node31 -->
<g id="edge13" class="edge">
<title>Node29&#45;&gt;Node31</title>
<path fill="none" stroke="#191970" d="M1368.8309,-71.0865C1356.5815,-69.5959 1344.1067,-68.1795 1332.2672,-67 1091.2356,-42.9867 804.5136,-26.2636 672.474,-19.2266"/>
<polygon fill="#191970" stroke="#191970" points="1368.694,-74.5962 1379.0485,-72.3526 1369.5548,-67.6494 1368.694,-74.5962"/>
</g>
<!-- Node29&#45;&gt;Node34 -->
<g id="edge14" class="edge">
<title>Node29&#45;&gt;Node34</title>
<path fill="none" stroke="#191970" d="M1535.5844,-66.9071C1604.7892,-53.9554 1701.0181,-35.9461 1759.2857,-25.0412"/>
<polygon fill="#191970" stroke="#191970" points="1534.7632,-63.5 1525.5777,-68.7799 1536.0509,-70.3805 1534.7632,-63.5"/>
</g>
<!-- Node37&#45;&gt;Node23 -->
<g id="edge18" class="edge">
<title>Node37&#45;&gt;Node23</title>
<path fill="none" stroke="#191970" d="M1125.0165,-137.5534C1131.1052,-136.1694 1137.3186,-134.9248 1143.2672,-134 1408.5575,-92.7563 1480.6132,-136.8326 1746.2672,-98 1749.1788,-97.5744 1752.1511,-97.0841 1755.1445,-96.5458"/>
<polygon fill="#191970" stroke="#191970" points="1123.8553,-134.2331 1114.956,-139.9822 1125.4981,-141.0376 1123.8553,-134.2331"/>
</g>
<!-- Node37&#45;&gt;Node26 -->
<g id="edge20" class="edge">
<title>Node37&#45;&gt;Node26</title>
<path fill="none" stroke="#191970" d="M1084.0469,-129.6698C1084.6682,-111.9233 1083.0954,-85.8705 1071.2672,-67 1058.857,-47.2009 1035.7286,-33.3809 1017.8666,-25.078"/>
<polygon fill="#191970" stroke="#191970" points="1080.5481,-129.5446 1083.4282,-139.7404 1087.5349,-129.9739 1080.5481,-129.5446"/>
</g>
<!-- Node37&#45;&gt;Node27 -->
<g id="edge21" class="edge">
<title>Node37&#45;&gt;Node27</title>
<path fill="none" stroke="#191970" d="M1128.0571,-137.5464C1133.1779,-136.3045 1138.327,-135.0971 1143.2672,-134 1226.7438,-115.4621 1270.6605,-157.301 1332.2672,-98 1352.3867,-78.6335 1353.1073,-42.5696 1352.1416,-25.2615"/>
<polygon fill="#191970" stroke="#191970" points="1127.1744,-134.1592 1118.3069,-139.9573 1128.8547,-140.9545 1127.1744,-134.1592"/>
</g>
<!-- Node37&#45;&gt;Node31 -->
<g id="edge22" class="edge">
<title>Node37&#45;&gt;Node31</title>
<path fill="none" stroke="#191970" d="M1077.7693,-130.0352C1072.2019,-110.6722 1060.7123,-81.7793 1039.2672,-67 1009.7405,-46.6511 789.7117,-28.6184 672.4192,-20.3269"/>
<polygon fill="#191970" stroke="#191970" points="1074.4326,-131.1113 1080.3362,-139.9089 1081.2074,-129.35 1074.4326,-131.1113"/>
</g>
<!-- Node37&#45;&gt;Node34 -->
<g id="edge23" class="edge">
<title>Node37&#45;&gt;Node34</title>
<path fill="none" stroke="#191970" d="M1125.6826,-137.5828C1131.5623,-136.2292 1137.5413,-134.9848 1143.2672,-134 1315.2548,-104.4201 1372.3142,-163.0073 1534.2672,-98 1554.8157,-89.7519 1553.2605,-76.487 1573.2672,-67 1623.9626,-42.9606 1686.0933,-29.9938 1734.0202,-23.0858"/>
<polygon fill="#191970" stroke="#191970" points="1124.8405,-134.1855 1115.9431,-139.9375 1126.4855,-140.9895 1124.8405,-134.1855"/>
</g>
<!-- Node37&#45;&gt;Node40 -->
<g id="edge17" class="edge">
<title>Node37&#45;&gt;Node40</title>
<path fill="none" stroke="#191970" d="M1125.4635,-137.5932C1131.4127,-136.2266 1137.4688,-134.9761 1143.2672,-134 1329.7659,-102.6065 1379.6394,-121.7302 1567.2672,-98 1580.2833,-96.3538 1594.2731,-94.1976 1607.3172,-92.0189"/>
<polygon fill="#191970" stroke="#191970" points="1124.5138,-134.2219 1115.6167,-139.9746 1126.1593,-141.0258 1124.5138,-134.2219"/>
</g>
<!-- Node41 -->
<g id="node19" class="node">
<title>Node41</title>
<g id="a_node19"><a xlink:href="BuilderXML_8hpp.html" target="_top" xlink:title="Physics/BuilderXML.hpp">
<polygon fill="#ffffff" stroke="#ff0000" points="710.2672,-73 710.2672,-92 842.2672,-92 842.2672,-73 710.2672,-73"/>
<text text-anchor="middle" x="776.2672" y="-80" font-family="Helvetica,sans-Serif" font-size="10.00" fill="#000000">Physics/BuilderXML.hpp</text>
</a>
</g>
</g>
<!-- Node37&#45;&gt;Node41 -->
<g id="edge19" class="edge">
<title>Node37&#45;&gt;Node41</title>
<path fill="none" stroke="#191970" d="M1028.8388,-137.8016C969.6134,-124.834 875.1994,-104.1616 820.1299,-92.1039"/>
<polygon fill="#191970" stroke="#191970" points="1028.2326,-141.2517 1038.7498,-139.9717 1029.7299,-134.4137 1028.2326,-141.2517"/>
</g>
<!-- Node44 -->
<g id="node20" class="node">
<title>Node44</title>
<g id="a_node20"><a xlink:href="RootPlotData_8cpp.html" target="_top" xlink:title="Tools/Plotting/RootPlotData.cpp">
<polygon fill="#ffffff" stroke="#000000" points="860.7672,-73 860.7672,-92 1029.7672,-92 1029.7672,-73 860.7672,-73"/>
<text text-anchor="middle" x="945.2672" y="-80" font-family="Helvetica,sans-Serif" font-size="10.00" fill="#000000">Tools/Plotting/RootPlotData.cpp</text>
</a>
</g>
</g>
<!-- Node37&#45;&gt;Node44 -->
<g id="edge24" class="edge">
<title>Node37&#45;&gt;Node44</title>
<path fill="none" stroke="#191970" d="M1053.4385,-135.4013C1026.8312,-122.389 988.0383,-103.4173 964.8595,-92.0817"/>
<polygon fill="#191970" stroke="#191970" points="1052.1175,-138.6513 1062.6384,-139.9005 1055.1928,-132.3631 1052.1175,-138.6513"/>
</g>
<!-- Node47&#45;&gt;Node34 -->
<g id="edge35" class="edge">
<title>Node47&#45;&gt;Node34</title>
<path fill="none" stroke="#191970" d="M2143.3553,-131.2506C2130.8607,-112.0535 2108.5547,-82.5191 2081.2672,-67 2048.6924,-48.4739 1954.6667,-33.3521 1886.4973,-24.396"/>
<polygon fill="#191970" stroke="#191970" points="2140.4004,-133.1266 2148.6796,-139.7376 2146.3301,-129.4065 2140.4004,-133.1266"/>
</g>
<!-- Node48&#45;&gt;Node14 -->
<g id="edge42" class="edge">
<title>Node48&#45;&gt;Node14</title>
<path fill="none" stroke="#191970" d="M760.5033,-140.6296C676.813,-131.654 560.5581,-116.4852 518.2672,-98 497.9785,-89.1319 498.8519,-77.33 479.2672,-67 441.1598,-46.9002 393.9456,-33.2532 359.4522,-25.0846"/>
<polygon fill="#191970" stroke="#191970" points="760.2276,-144.12 770.5408,-141.6933 760.9654,-137.1589 760.2276,-144.12"/>
</g>
<!-- Node48&#45;&gt;Node25 -->
<g id="edge45" class="edge">
<title>Node48&#45;&gt;Node25</title>
<path fill="none" stroke="#191970" d="M945.6902,-132.7639C1016.6824,-119.9086 1112.1785,-102.6161 1170.6412,-92.0296"/>
<polygon fill="#191970" stroke="#191970" points="945.0582,-129.3214 935.8419,-134.5473 946.3055,-136.2094 945.0582,-129.3214"/>
</g>
<!-- Node48&#45;&gt;Node29 -->
<g id="edge46" class="edge">
<title>Node48&#45;&gt;Node29</title>
<path fill="none" stroke="#191970" d="M945.9953,-140.1229C1042.5347,-130.2214 1198.0982,-113.8759 1332.2672,-98 1347.3913,-96.2104 1363.5735,-94.1913 1379.0015,-92.2162"/>
<polygon fill="#191970" stroke="#191970" points="945.5626,-136.6488 935.9713,-141.1496 946.2759,-143.6123 945.5626,-136.6488"/>
</g>
<!-- Node48&#45;&gt;Node41 -->
<g id="edge44" class="edge">
<title>Node48&#45;&gt;Node41</title>
<path fill="none" stroke="#191970" d="M828.0302,-127.5406C814.2265,-115.5296 797.8314,-101.2637 787.2483,-92.055"/>
<polygon fill="#191970" stroke="#191970" points="825.9532,-130.3728 835.7947,-134.2967 830.5482,-125.092 825.9532,-130.3728"/>
</g>
<!-- Node48&#45;&gt;Node44 -->
<g id="edge48" class="edge">
<title>Node48&#45;&gt;Node44</title>
<path fill="none" stroke="#191970" d="M882.4989,-128.2117C899.1784,-116.0646 919.2657,-101.4358 932.1469,-92.055"/>
<polygon fill="#191970" stroke="#191970" points="880.1665,-125.5804 874.1434,-134.2967 884.2874,-131.2389 880.1665,-125.5804"/>
</g>
<!-- Node48&#45;&gt;Node18 -->
<g id="edge43" class="edge">
<title>Node48&#45;&gt;Node18</title>
<path fill="none" stroke="#191970" d="M760.4246,-137.2348C685.7448,-127.2022 578.1566,-112.3734 484.2672,-98 472.1321,-96.1423 459.1252,-94.0427 446.7989,-92.0024"/>
<polygon fill="#191970" stroke="#191970" points="760.3624,-140.7577 770.7389,-138.6181 761.2929,-133.8198 760.3624,-140.7577"/>
</g>
<!-- Node49 -->
<g id="node26" class="node">
<title>Node49</title>
<g id="a_node26"><a xlink:href="ParticleStateTransitionKinematicsInfo_8cpp.html" target="_top" xlink:title="Physics/ParticleStateTransition\lKinematicsInfo.cpp">
<polygon fill="#ffffff" stroke="#000000" points="526.7672,-67.5 526.7672,-97.5 691.7672,-97.5 691.7672,-67.5 526.7672,-67.5"/>
<text text-anchor="start" x="534.7672" y="-85.5" font-family="Helvetica,sans-Serif" font-size="10.00" fill="#000000">Physics/ParticleStateTransition</text>
<text text-anchor="middle" x="609.2672" y="-74.5" font-family="Helvetica,sans-Serif" font-size="10.00" fill="#000000">KinematicsInfo.cpp</text>
</a>
</g>
</g>
<!-- Node48&#45;&gt;Node49 -->
<g id="edge47" class="edge">
<title>Node48&#45;&gt;Node49</title>
<path fill="none" stroke="#191970" d="M788.3859,-131.6842C749.6829,-121.0568 701.075,-107.7095 664.2644,-97.6017"/>
<polygon fill="#191970" stroke="#191970" points="787.939,-135.191 798.5088,-134.4639 789.7925,-128.4409 787.939,-135.191"/>
</g>
</g>
</svg>
        <g id="navigator" transform="translate(0 0)" fill="#404254">
                <rect fill="#f2f5e9" fill-opacity="0.5" stroke="#606060" stroke-width=".5" x="0" y="0" width="60" height="60"/>
                <use id="zoomplus" xlink:href="#zoomPlus" x="17" y="9" onmousedown="handleZoom(evt,'in')"/>
                <use id="zoomminus" xlink:href="#zoomMin" x="42" y="9" onmousedown="handleZoom(evt,'out')"/>
                <use id="reset" xlink:href="#resetDef" x="30" y="36" onmousedown="handleReset()"/>
                <g id="arrowUp" xlink:href="#dirArrow" transform="translate(30 24)" onmousedown="handlePan(0,-1)">
                  <use xlink:href="#rim" fill="#404040">
                        <set attributeName="fill" to="#808080" begin="arrowUp.mouseover" end="arrowUp.mouseout"/>
                  </use>
                  <path fill="none" stroke="white" stroke-width="1.5" d="M0,-3.0v7 M-2.5,-0.5L0,-3.0L2.5,-0.5"/>
                </g>
                <g id="arrowRight" xlink:href="#dirArrow" transform="rotate(90) translate(36 -43)" onmousedown="handlePan(1,0)">
                  <use xlink:href="#rim" fill="#404040">
                        <set attributeName="fill" to="#808080" begin="arrowRight.mouseover" end="arrowRight.mouseout"/>
                  </use>
                  <path fill="none" stroke="white" stroke-width="1.5" d="M0,-3.0v7 M-2.5,-0.5L0,-3.0L2.5,-0.5"/>
                </g>
                <g id="arrowDown" xlink:href="#dirArrow" transform="rotate(180) translate(-30 -48)" onmousedown="handlePan(0,1)">
                  <use xlink:href="#rim" fill="#404040">
                        <set attributeName="fill" to="#808080" begin="arrowDown.mouseover" end="arrowDown.mouseout"/>
                  </use>
                  <path fill="none" stroke="white" stroke-width="1.5" d="M0,-3.0v7 M-2.5,-0.5L0,-3.0L2.5,-0.5"/>
                </g>
                <g id="arrowLeft" xlink:href="#dirArrow" transform="rotate(270) translate(-36 17)" onmousedown="handlePan(-1,0)">
                  <use xlink:href="#rim" fill="#404040">
                        <set attributeName="fill" to="#808080" begin="arrowLeft.mouseover" end="arrowLeft.mouseout"/>
                  </use>
                  <path fill="none" stroke="white" stroke-width="1.5" d="M0,-3.0v7 M-2.5,-0.5L0,-3.0L2.5,-0.5"/>
                </g>
        </g>
        <svg viewBox="0 0 15 15" width="100%" height="30px" preserveAspectRatio="xMaxYMin meet">
         <g id="arrow_out" transform="scale(0.3 0.3)">
          <a xlink:href="FourMomentum_8hpp__dep__incl_org.svg" target="_base">
           <rect id="button" ry="5" rx="5" y="6" x="6" height="38" width="38"
                fill="#f2f5e9" fill-opacity="0.5" stroke="#606060" stroke-width="1.0"/>
           <path id="arrow"
             d="M 11.500037,31.436501 C 11.940474,20.09759 22.043105,11.32322 32.158766,21.979434 L 37.068811,17.246167 C 37.068811,17.246167 37.088388,32 37.088388,32 L 22.160133,31.978069 C 22.160133,31.978069 26.997745,27.140456 26.997745,27.140456 C 18.528582,18.264221 13.291696,25.230495 11.500037,31.436501 z"
             style="fill:#404040;"/>
          </a>
         </g>
        </svg>
</svg>
