<?xml version="1.0" encoding="UTF-8" standalone="no"?>
<!DOCTYPE svg PUBLIC "-//W3C//DTD SVG 1.1//EN"
 "http://www.w3.org/Graphics/SVG/1.1/DTD/svg11.dtd">
<!-- Generated by graphviz version 2.38.0 (20140413.2041)
 -->
<!-- Title: /home/travis/build/ComPWA/ComPWA/ThirdParty/tbb/src/tbbmalloc/frontend.cpp Pages: 1 -->
<!--zoomable 229 -->
<svg id="main" version="1.1" xmlns="http://www.w3.org/2000/svg" xmlns:xlink="http://www.w3.org/1999/xlink" xml:space="preserve" onload="init(evt)">
<style type="text/css"><![CDATA[
.edge:hover path { stroke: red; }
.edge:hover polygon { stroke: red; fill: red; }
]]></style>
<script type="text/javascript"><![CDATA[
var edges = document.getElementsByTagName('g');
if (edges && edges.length) {
  for (var i=0;i<edges.length;i++) {
    if (edges[i].id.substr(0,4)=='edge') {
      edges[i].setAttribute('class','edge');
    }
  }
}
]]></script>
        <defs>
                <circle id="rim" cx="0" cy="0" r="7"/>
                <circle id="rim2" cx="0" cy="0" r="3.5"/>
                <g id="zoomPlus">
                        <use xlink:href="#rim" fill="#404040">
                                <set attributeName="fill" to="#808080" begin="zoomplus.mouseover" end="zoomplus.mouseout"/>
                        </use>
                        <path d="M-4,0h8M0,-4v8" fill="none" stroke="white" stroke-width="1.5" pointer-events="none"/>
                </g>
                <g id="zoomMin">
                        <use xlink:href="#rim" fill="#404040">
                                <set attributeName="fill" to="#808080" begin="zoomminus.mouseover" end="zoomminus.mouseout"/>
                        </use>
                        <path d="M-4,0h8" fill="none" stroke="white" stroke-width="1.5" pointer-events="none"/>
                </g>
                <g id="dirArrow">
                        <path fill="none" stroke="white" stroke-width="1.5" d="M0,-3.0v7 M-2.5,-0.5L0,-3.0L2.5,-0.5"/>
                </g>
               <g id="resetDef">
                       <use xlink:href="#rim2" fill="#404040">
                               <set attributeName="fill" to="#808080" begin="reset.mouseover" end="reset.mouseout"/>
                       </use>
               </g>
        </defs>

<script type="text/javascript">
var viewWidth = 1243;
var viewHeight = 229;
var sectionId = 'dynsection-0';
</script>
<script xlink:href="svgpan.js"/>
<svg id="graph" class="graph">
<g id="viewport">
<title>/home/travis/build/ComPWA/ComPWA/ThirdParty/tbb/src/tbbmalloc/frontend.cpp</title>
<polygon fill="white" stroke="none" points="-4,4 -4,-225 1239,-225 1239,4 -4,4"/>
<!-- Node1 -->
<g id="node1" class="node"><title>Node1</title>
<polygon fill="#bfbfbf" stroke="black" points="791,-179.5 791,-220.5 958,-220.5 958,-179.5 791,-179.5"/>
<text text-anchor="start" x="799" y="-208.5" font-family="Helvetica,sans-Serif" font-size="10.00">/home/travis/build</text>
<text text-anchor="start" x="799" y="-197.5" font-family="Helvetica,sans-Serif" font-size="10.00">/ComPWA/ComPWA/ThirdParty</text>
<text text-anchor="middle" x="874.5" y="-186.5" font-family="Helvetica,sans-Serif" font-size="10.00">/tbb/src/tbbmalloc/frontend.cpp</text>
</g>
<!-- Node2 -->
<g id="node2" class="node"><title>Node2</title>
<g id="a_node2"><a xlink:href="tbbmalloc__internal_8h.html" target="_top" xlink:title="tbbmalloc_internal.h">
<polygon fill="white" stroke="black" points="339.5,-123.5 339.5,-142.5 453.5,-142.5 453.5,-123.5 339.5,-123.5"/>
<text text-anchor="middle" x="396.5" y="-130.5" font-family="Helvetica,sans-Serif" font-size="10.00">tbbmalloc_internal.h</text>
</a>
</g>
</g>
<!-- Node1&#45;&gt;Node2 -->
<g id="edge1" class="edge"><title>Node1&#45;&gt;Node2</title>
<path fill="none" stroke="midnightblue" d="M790.965,-187.641C698.001,-174.999 549.601,-154.819 463.783,-143.149"/>
<polygon fill="midnightblue" stroke="midnightblue" points="464.016,-139.649 453.636,-141.77 463.073,-146.585 464.016,-139.649"/>
</g>
<!-- Node9 -->
<g id="node9" class="node"><title>Node9</title>
<polygon fill="white" stroke="#bfbfbf" points="799,-62 799,-81 852,-81 852,-62 799,-62"/>
<text text-anchor="middle" x="825.5" y="-69" font-family="Helvetica,sans-Serif" font-size="10.00">string.h</text>
</g>
<!-- Node1&#45;&gt;Node9 -->
<g id="edge14" class="edge"><title>Node1&#45;&gt;Node9</title>
<path fill="none" stroke="midnightblue" d="M790.865,-182.413C770.006,-174.113 750.035,-161.665 737.5,-143 732.544,-135.621 733.045,-130.692 737.5,-123 744.143,-111.529 773.389,-96.0922 796.366,-85.3166"/>
<polygon fill="midnightblue" stroke="midnightblue" points="798.119,-88.3632 805.746,-81.009 795.198,-82.0019 798.119,-88.3632"/>
</g>
<!-- Node13 -->
<g id="node13" class="node"><title>Node13</title>
<polygon fill="white" stroke="#bfbfbf" points="747,-123.5 747,-142.5 798,-142.5 798,-123.5 747,-123.5"/>
<text text-anchor="middle" x="772.5" y="-130.5" font-family="Helvetica,sans-Serif" font-size="10.00">errno.h</text>
</g>
<!-- Node1&#45;&gt;Node13 -->
<g id="edge12" class="edge"><title>Node1&#45;&gt;Node13</title>
<path fill="none" stroke="midnightblue" d="M843.897,-179.498C828.108,-169.436 809.196,-157.385 794.804,-148.214"/>
<polygon fill="midnightblue" stroke="midnightblue" points="796.392,-145.075 786.078,-142.652 792.63,-150.978 796.392,-145.075"/>
</g>
<!-- Node14 -->
<g id="node14" class="node"><title>Node14</title>
<polygon fill="white" stroke="#bfbfbf" points="816,-123.5 816,-142.5 851,-142.5 851,-123.5 816,-123.5"/>
<text text-anchor="middle" x="833.5" y="-130.5" font-family="Helvetica,sans-Serif" font-size="10.00">new</text>
</g>
<!-- Node1&#45;&gt;Node14 -->
<g id="edge13" class="edge"><title>Node1&#45;&gt;Node14</title>
<path fill="none" stroke="midnightblue" d="M862.199,-179.498C856.517,-170.49 849.829,-159.888 844.34,-151.185"/>
<polygon fill="midnightblue" stroke="midnightblue" points="847.253,-149.243 838.958,-142.652 841.333,-152.978 847.253,-149.243"/>
</g>
<!-- Node15 -->
<g id="node15" class="node"><title>Node15</title>
<g id="a_node15"><a xlink:href="tbb__version_8h.html" target="_top" xlink:title="../tbb/tbb_version.h">
<polygon fill="white" stroke="black" points="980,-123.5 980,-142.5 1089,-142.5 1089,-123.5 980,-123.5"/>
<text text-anchor="middle" x="1034.5" y="-130.5" font-family="Helvetica,sans-Serif" font-size="10.00">../tbb/tbb_version.h</text>
</a>
</g>
</g>
<!-- Node1&#45;&gt;Node15 -->
<g id="edge15" class="edge"><title>Node1&#45;&gt;Node15</title>
<path fill="none" stroke="midnightblue" d="M922.505,-179.498C948.923,-168.766 980.914,-155.769 1003.93,-146.419"/>
<polygon fill="midnightblue" stroke="midnightblue" points="1005.25,-149.659 1013.2,-142.652 1002.62,-143.174 1005.25,-149.659"/>
</g>
<!-- Node18 -->
<g id="node18" class="node"><title>Node18</title>
<g id="a_node18"><a xlink:href="itt__notify_8h.html" target="_top" xlink:title="../tbb/itt_notify.h">
<polygon fill="white" stroke="black" points="869,-123.5 869,-142.5 962,-142.5 962,-123.5 869,-123.5"/>
<text text-anchor="middle" x="915.5" y="-130.5" font-family="Helvetica,sans-Serif" font-size="10.00">../tbb/itt_notify.h</text>
</a>
</g>
</g>
<!-- Node1&#45;&gt;Node18 -->
<g id="edge19" class="edge"><title>Node1&#45;&gt;Node18</title>
<path fill="none" stroke="midnightblue" d="M886.801,-179.498C892.483,-170.49 899.171,-159.888 904.66,-151.185"/>
<polygon fill="midnightblue" stroke="midnightblue" points="907.667,-152.978 910.042,-142.652 901.747,-149.243 907.667,-152.978"/>
</g>
<!-- Node19 -->
<g id="node19" class="node"><title>Node19</title>
<polygon fill="white" stroke="#bfbfbf" points="1107.5,-123.5 1107.5,-142.5 1161.5,-142.5 1161.5,-123.5 1107.5,-123.5"/>
<text text-anchor="middle" x="1134.5" y="-130.5" font-family="Helvetica,sans-Serif" font-size="10.00">sched.h</text>
</g>
<!-- Node1&#45;&gt;Node19 -->
<g id="edge21" class="edge"><title>Node1&#45;&gt;Node19</title>
<path fill="none" stroke="midnightblue" d="M952.509,-179.498C1000.5,-167.5 1059.81,-152.673 1097.4,-143.274"/>
<polygon fill="midnightblue" stroke="midnightblue" points="1098.55,-146.595 1107.41,-140.774 1096.86,-139.804 1098.55,-146.595"/>
</g>
<!-- Node20 -->
<g id="node20" class="node"><title>Node20</title>
<polygon fill="white" stroke="#bfbfbf" points="1180,-123.5 1180,-142.5 1235,-142.5 1235,-123.5 1180,-123.5"/>
<text text-anchor="middle" x="1207.5" y="-130.5" font-family="Helvetica,sans-Serif" font-size="10.00">unistd.h</text>
</g>
<!-- Node1&#45;&gt;Node20 -->
<g id="edge22" class="edge"><title>Node1&#45;&gt;Node20</title>
<path fill="none" stroke="midnightblue" d="M958.302,-184.336C1015.26,-174.091 1092.54,-159.651 1169.75,-143.075"/>
<polygon fill="midnightblue" stroke="midnightblue" points="1170.62,-146.468 1179.66,-140.936 1169.14,-139.625 1170.62,-146.468"/>
</g>
<!-- Node3 -->
<g id="node3" class="node"><title>Node3</title>
<g id="a_node3"><a xlink:href="TypeDefinitions_8h.html" target="_top" xlink:title="TypeDefinitions.h">
<polygon fill="white" stroke="red" points="0,-62 0,-81 97,-81 97,-62 0,-62"/>
<text text-anchor="middle" x="48.5" y="-69" font-family="Helvetica,sans-Serif" font-size="10.00">TypeDefinitions.h</text>
</a>
</g>
</g>
<!-- Node2&#45;&gt;Node3 -->
<g id="edge2" class="edge"><title>Node2&#45;&gt;Node3</title>
<path fill="none" stroke="midnightblue" d="M339.338,-124.806C280.45,-117.01 186.144,-103.453 105.5,-87 100.379,-85.9551 95.0266,-84.7484 89.7407,-83.4863"/>
<polygon fill="midnightblue" stroke="midnightblue" points="90.2824,-80.0151 79.7352,-81.019 88.6064,-86.8115 90.2824,-80.0151"/>
</g>
<!-- Node4 -->
<g id="node4" class="node"><title>Node4</title>
<polygon fill="white" stroke="#bfbfbf" points="115,-62 115,-81 178,-81 178,-62 115,-62"/>
<text text-anchor="middle" x="146.5" y="-69" font-family="Helvetica,sans-Serif" font-size="10.00">pthread.h</text>
</g>
<!-- Node2&#45;&gt;Node4 -->
<g id="edge3" class="edge"><title>Node2&#45;&gt;Node4</title>
<path fill="none" stroke="midnightblue" d="M352.456,-123.454C310.955,-115.126 247.159,-101.613 192.5,-87 189.08,-86.0856 185.534,-85.0777 181.999,-84.0322"/>
<polygon fill="midnightblue" stroke="midnightblue" points="182.758,-80.6045 172.171,-81.0322 180.714,-87.2995 182.758,-80.6045"/>
</g>
<!-- Node5 -->
<g id="node5" class="node"><title>Node5</title>
<g id="a_node5"><a xlink:href="tbb__config_8h.html" target="_top" xlink:title="tbb_config.h">
<polygon fill="white" stroke="red" points="524,-0.5 524,-19.5 599,-19.5 599,-0.5 524,-0.5"/>
<text text-anchor="middle" x="561.5" y="-7.5" font-family="Helvetica,sans-Serif" font-size="10.00">tbb_config.h</text>
</a>
</g>
</g>
<!-- Node2&#45;&gt;Node5 -->
<g id="edge4" class="edge"><title>Node2&#45;&gt;Node5</title>
<path fill="none" stroke="midnightblue" d="M339.259,-126.104C276.472,-117.44 189.132,-97.5639 225.5,-56 262.378,-13.8532 430.117,-9.50142 513.77,-10.0431"/>
<polygon fill="midnightblue" stroke="midnightblue" points="513.752,-13.543 523.783,-10.134 513.816,-6.54326 513.752,-13.543"/>
</g>
<!-- Node6 -->
<g id="node6" class="node"><title>Node6</title>
<polygon fill="white" stroke="#bfbfbf" points="235,-62 235,-81 284,-81 284,-62 235,-62"/>
<text text-anchor="middle" x="259.5" y="-69" font-family="Helvetica,sans-Serif" font-size="10.00">stdio.h</text>
</g>
<!-- Node2&#45;&gt;Node6 -->
<g id="edge5" class="edge"><title>Node2&#45;&gt;Node6</title>
<path fill="none" stroke="midnightblue" d="M376.548,-123.406C355.601,-114.375 321.714,-99.7386 292.5,-87 291.138,-86.406 289.744,-85.7973 288.337,-85.182"/>
<polygon fill="midnightblue" stroke="midnightblue" points="289.6,-81.9141 279.036,-81.1056 286.79,-88.3254 289.6,-81.9141"/>
</g>
<!-- Node7 -->
<g id="node7" class="node"><title>Node7</title>
<polygon fill="white" stroke="#bfbfbf" points="302,-62 302,-81 353,-81 353,-62 302,-62"/>
<text text-anchor="middle" x="327.5" y="-69" font-family="Helvetica,sans-Serif" font-size="10.00">stdlib.h</text>
</g>
<!-- Node2&#45;&gt;Node7 -->
<g id="edge6" class="edge"><title>Node2&#45;&gt;Node7</title>
<path fill="none" stroke="midnightblue" d="M386.614,-123.475C375.854,-114.197 358.429,-99.1706 345.279,-87.831"/>
<polygon fill="midnightblue" stroke="midnightblue" points="347.227,-84.889 337.368,-81.0091 342.655,-90.1902 347.227,-84.889"/>
</g>
<!-- Node8 -->
<g id="node8" class="node"><title>Node8</title>
<polygon fill="white" stroke="#bfbfbf" points="371,-62 371,-81 422,-81 422,-62 371,-62"/>
<text text-anchor="middle" x="396.5" y="-69" font-family="Helvetica,sans-Serif" font-size="10.00">limits.h</text>
</g>
<!-- Node2&#45;&gt;Node8 -->
<g id="edge7" class="edge"><title>Node2&#45;&gt;Node8</title>
<path fill="none" stroke="midnightblue" d="M396.5,-123.475C396.5,-115.08 396.5,-101.981 396.5,-91.1631"/>
<polygon fill="midnightblue" stroke="midnightblue" points="400,-91.0091 396.5,-81.0091 393,-91.0091 400,-91.0091"/>
</g>
<!-- Node2&#45;&gt;Node9 -->
<g id="edge8" class="edge"><title>Node2&#45;&gt;Node9</title>
<path fill="none" stroke="midnightblue" d="M453.656,-130.256C530.926,-126.817 672.51,-116.68 789.5,-87 792.163,-86.3243 794.892,-85.4959 797.597,-84.5806"/>
<polygon fill="midnightblue" stroke="midnightblue" points="799.001,-87.7922 807.134,-81.0026 796.542,-81.2382 799.001,-87.7922"/>
</g>
<!-- Node10 -->
<g id="node10" class="node"><title>Node10</title>
<g id="a_node10"><a xlink:href="scalable__allocator_8h.html" target="_top" xlink:title="tbb/scalable_allocator.h">
<polygon fill="white" stroke="red" points="440,-62 440,-81 569,-81 569,-62 440,-62"/>
<text text-anchor="middle" x="504.5" y="-69" font-family="Helvetica,sans-Serif" font-size="10.00">tbb/scalable_allocator.h</text>
</a>
</g>
</g>
<!-- Node2&#45;&gt;Node10 -->
<g id="edge9" class="edge"><title>Node2&#45;&gt;Node10</title>
<path fill="none" stroke="midnightblue" d="M411.974,-123.475C429.778,-113.666 459.241,-97.4346 480.132,-85.925"/>
<polygon fill="midnightblue" stroke="midnightblue" points="481.985,-88.9001 489.055,-81.0091 478.607,-82.769 481.985,-88.9001"/>
</g>
<!-- Node11 -->
<g id="node11" class="node"><title>Node11</title>
<g id="a_node11"><a xlink:href="tbbmalloc__internal__api_8h.html" target="_top" xlink:title="tbbmalloc_internal\l_api.h">
<polygon fill="white" stroke="black" points="587,-56.5 587,-86.5 692,-86.5 692,-56.5 587,-56.5"/>
<text text-anchor="start" x="595" y="-74.5" font-family="Helvetica,sans-Serif" font-size="10.00">tbbmalloc_internal</text>
<text text-anchor="middle" x="639.5" y="-63.5" font-family="Helvetica,sans-Serif" font-size="10.00">_api.h</text>
</a>
</g>
</g>
<!-- Node2&#45;&gt;Node11 -->
<g id="edge10" class="edge"><title>Node2&#45;&gt;Node11</title>
<path fill="none" stroke="midnightblue" d="M431.316,-123.475C469.217,-114.195 530.601,-99.1645 576.916,-87.8241"/>
<polygon fill="midnightblue" stroke="midnightblue" points="577.972,-91.1691 586.852,-85.3911 576.307,-84.3699 577.972,-91.1691"/>
</g>
<!-- Node12 -->
<g id="node12" class="node"><title>Node12</title>
<g id="a_node12"><a xlink:href="Statistics_8h.html" target="_top" xlink:title="Statistics.h">
<polygon fill="white" stroke="black" points="710.5,-62 710.5,-81 780.5,-81 780.5,-62 710.5,-62"/>
<text text-anchor="middle" x="745.5" y="-69" font-family="Helvetica,sans-Serif" font-size="10.00">Statistics.h</text>
</a>
</g>
</g>
<!-- Node2&#45;&gt;Node12 -->
<g id="edge11" class="edge"><title>Node2&#45;&gt;Node12</title>
<path fill="none" stroke="midnightblue" d="M453.615,-126.388C515.11,-119.686 615.552,-106.831 700.5,-87 704.152,-86.1475 707.934,-85.1374 711.682,-84.0532"/>
<polygon fill="midnightblue" stroke="midnightblue" points="712.883,-87.3459 721.417,-81.0673 710.83,-80.6536 712.883,-87.3459"/>
</g>
<!-- Node16 -->
<g id="node16" class="node"><title>Node16</title>
<g id="a_node16"><a xlink:href="tbb__stddef_8h.html" target="_top" xlink:title="tbb/tbb_stddef.h">
<polygon fill="white" stroke="red" points="870,-62 870,-81 965,-81 965,-62 870,-62"/>
<text text-anchor="middle" x="917.5" y="-69" font-family="Helvetica,sans-Serif" font-size="10.00">tbb/tbb_stddef.h</text>
</a>
</g>
</g>
<!-- Node15&#45;&gt;Node16 -->
<g id="edge16" class="edge"><title>Node15&#45;&gt;Node16</title>
<path fill="none" stroke="midnightblue" d="M1017.74,-123.475C998.275,-113.578 965.955,-97.1416 943.289,-85.6151"/>
<polygon fill="midnightblue" stroke="midnightblue" points="944.732,-82.4224 934.232,-81.0091 941.559,-88.6619 944.732,-82.4224"/>
</g>
<!-- Node17 -->
<g id="node17" class="node"><title>Node17</title>
<polygon fill="white" stroke="#bfbfbf" points="984,-62 984,-81 1085,-81 1085,-62 984,-62"/>
<text text-anchor="middle" x="1034.5" y="-69" font-family="Helvetica,sans-Serif" font-size="10.00">version_string.ver</text>
</g>
<!-- Node15&#45;&gt;Node17 -->
<g id="edge18" class="edge"><title>Node15&#45;&gt;Node17</title>
<path fill="none" stroke="midnightblue" d="M1034.5,-123.475C1034.5,-115.08 1034.5,-101.981 1034.5,-91.1631"/>
<polygon fill="midnightblue" stroke="midnightblue" points="1038,-91.0091 1034.5,-81.0091 1031,-91.0091 1038,-91.0091"/>
</g>
<!-- Node16&#45;&gt;Node5 -->
<g id="edge17" class="edge"><title>Node16&#45;&gt;Node5</title>
<path fill="none" stroke="midnightblue" d="M886.269,-61.958C877.935,-59.8424 868.908,-57.6977 860.5,-56 772.397,-38.2103 668.394,-24.0872 609.171,-16.684"/>
<polygon fill="midnightblue" stroke="midnightblue" points="609.355,-13.1801 599,-15.4238 608.494,-20.127 609.355,-13.1801"/>
</g>
<!-- Node18&#45;&gt;Node16 -->
<g id="edge20" class="edge"><title>Node18&#45;&gt;Node16</title>
<path fill="none" stroke="midnightblue" d="M915.787,-123.475C916.069,-115.08 916.509,-101.981 916.873,-91.1631"/>
<polygon fill="midnightblue" stroke="midnightblue" points="920.376,-91.1211 917.214,-81.0091 913.38,-90.8858 920.376,-91.1211"/>
</g>
</g>
</svg>
        <g id="navigator" transform="translate(0 0)" fill="#404254">
                <rect fill="#f2f5e9" fill-opacity="0.5" stroke="#606060" stroke-width=".5" x="0" y="0" width="60" height="60"/>
                <use id="zoomplus" xlink:href="#zoomPlus" x="17" y="9" onmousedown="handleZoom(evt,'in')"/>
                <use id="zoomminus" xlink:href="#zoomMin" x="42" y="9" onmousedown="handleZoom(evt,'out')"/>
                <use id="reset" xlink:href="#resetDef" x="30" y="36" onmousedown="handleReset()"/>
                <g id="arrowUp" xlink:href="#dirArrow" transform="translate(30 24)" onmousedown="handlePan(0,-1)">
                  <use xlink:href="#rim" fill="#404040">
                        <set attributeName="fill" to="#808080" begin="arrowUp.mouseover" end="arrowUp.mouseout"/>
                  </use>
                  <path fill="none" stroke="white" stroke-width="1.5" d="M0,-3.0v7 M-2.5,-0.5L0,-3.0L2.5,-0.5"/>
                </g>
                <g id="arrowRight" xlink:href="#dirArrow" transform="rotate(90) translate(36 -43)" onmousedown="handlePan(1,0)">
                  <use xlink:href="#rim" fill="#404040">
                        <set attributeName="fill" to="#808080" begin="arrowRight.mouseover" end="arrowRight.mouseout"/>
                  </use>
                  <path fill="none" stroke="white" stroke-width="1.5" d="M0,-3.0v7 M-2.5,-0.5L0,-3.0L2.5,-0.5"/>
                </g>
                <g id="arrowDown" xlink:href="#dirArrow" transform="rotate(180) translate(-30 -48)" onmousedown="handlePan(0,1)">
                  <use xlink:href="#rim" fill="#404040">
                        <set attributeName="fill" to="#808080" begin="arrowDown.mouseover" end="arrowDown.mouseout"/>
                  </use>
                  <path fill="none" stroke="white" stroke-width="1.5" d="M0,-3.0v7 M-2.5,-0.5L0,-3.0L2.5,-0.5"/>
                </g>
                <g id="arrowLeft" xlink:href="#dirArrow" transform="rotate(270) translate(-36 17)" onmousedown="handlePan(-1,0)">
                  <use xlink:href="#rim" fill="#404040">
                        <set attributeName="fill" to="#808080" begin="arrowLeft.mouseover" end="arrowLeft.mouseout"/>
                  </use>
                  <path fill="none" stroke="white" stroke-width="1.5" d="M0,-3.0v7 M-2.5,-0.5L0,-3.0L2.5,-0.5"/>
                </g>
        </g>
        <svg viewBox="0 0 15 15" width="100%" height="30px" preserveAspectRatio="xMaxYMin meet">
         <g id="arrow_out" transform="scale(0.3 0.3)">
          <a xlink:href="frontend_8cpp__incl_org.svg" target="_base">
           <rect id="button" ry="5" rx="5" y="6" x="6" height="38" width="38"
                fill="#f2f5e9" fill-opacity="0.5" stroke="#606060" stroke-width="1.0"/>
           <path id="arrow"
             d="M 11.500037,31.436501 C 11.940474,20.09759 22.043105,11.32322 32.158766,21.979434 L 37.068811,17.246167 C 37.068811,17.246167 37.088388,32 37.088388,32 L 22.160133,31.978069 C 22.160133,31.978069 26.997745,27.140456 26.997745,27.140456 C 18.528582,18.264221 13.291696,25.230495 11.500037,31.436501 z"
             style="fill:#404040;"/>
          </a>
         </g>
        </svg>
</svg>
