<?xml version="1.0" encoding="UTF-8" standalone="no"?>
<!DOCTYPE svg PUBLIC "-//W3C//DTD SVG 1.1//EN"
 "http://www.w3.org/Graphics/SVG/1.1/DTD/svg11.dtd">
<!-- Generated by graphviz version 2.40.1 (20161225.0304)
 -->
<!-- Title: Core/FunctionTree/FunctionTreeIntensity.cpp Pages: 1 -->
<!--zoomable 285 -->
<svg id="main" version="1.1" xmlns="http://www.w3.org/2000/svg" xmlns:xlink="http://www.w3.org/1999/xlink" xml:space="preserve" onload="init(evt)">
<style type="text/css"><![CDATA[
.edge:hover path { stroke: red; }
.edge:hover polygon { stroke: red; fill: red; }
]]></style>
<script type="text/javascript"><![CDATA[
var edges = document.getElementsByTagName('g');
if (edges && edges.length) {
  for (var i=0;i<edges.length;i++) {
    if (edges[i].id.substr(0,4)=='edge') {
      edges[i].setAttribute('class','edge');
    }
  }
}
]]></script>
        <defs>
                <circle id="rim" cx="0" cy="0" r="7"/>
                <circle id="rim2" cx="0" cy="0" r="3.5"/>
                <g id="zoomPlus">
                        <use xlink:href="#rim" fill="#404040">
                                <set attributeName="fill" to="#808080" begin="zoomplus.mouseover" end="zoomplus.mouseout"/>
                        </use>
                        <path d="M-4,0h8M0,-4v8" fill="none" stroke="white" stroke-width="1.5" pointer-events="none"/>
                </g>
                <g id="zoomMin">
                        <use xlink:href="#rim" fill="#404040">
                                <set attributeName="fill" to="#808080" begin="zoomminus.mouseover" end="zoomminus.mouseout"/>
                        </use>
                        <path d="M-4,0h8" fill="none" stroke="white" stroke-width="1.5" pointer-events="none"/>
                </g>
                <g id="dirArrow">
                        <path fill="none" stroke="white" stroke-width="1.5" d="M0,-3.0v7 M-2.5,-0.5L0,-3.0L2.5,-0.5"/>
                </g>
               <g id="resetDef">
                       <use xlink:href="#rim2" fill="#404040">
                               <set attributeName="fill" to="#808080" begin="reset.mouseover" end="reset.mouseout"/>
                       </use>
               </g>
        </defs>

<script type="text/javascript">
var viewWidth = 841;
var viewHeight = 285;
var sectionId = 'dynsection-0';
</script>
<script xlink:href="svgpan.js"/>
<svg id="graph" class="graph">
<g id="viewport">
<title>Core/FunctionTree/FunctionTreeIntensity.cpp</title>
<polygon fill="#ffffff" stroke="transparent" points="-4,4 -4,-281 836.8911,-281 836.8911,4 -4,4"/>
<!-- Node0 -->
<g id="node1" class="node">
<title>Node0</title>
<polygon fill="#bfbfbf" stroke="#000000" points="368.3911,-246.5 368.3911,-276.5 514.3911,-276.5 514.3911,-246.5 368.3911,-246.5"/>
<text text-anchor="start" x="376.3911" y="-264.5" font-family="Helvetica,sans-Serif" font-size="10.00" fill="#000000">Core/FunctionTree/Function</text>
<text text-anchor="middle" x="441.3911" y="-253.5" font-family="Helvetica,sans-Serif" font-size="10.00" fill="#000000">TreeIntensity.cpp</text>
</g>
<!-- Node1 -->
<g id="node2" class="node">
<title>Node1</title>
<g id="a_node2"><a xlink:href="FunctionTreeIntensity_8hpp.html" target="_top" xlink:title="Core/FunctionTree/Function\lTreeIntensity.hpp">
<polygon fill="#ffffff" stroke="#000000" points="565.3911,-123.5 565.3911,-153.5 711.3911,-153.5 711.3911,-123.5 565.3911,-123.5"/>
<text text-anchor="start" x="573.3911" y="-141.5" font-family="Helvetica,sans-Serif" font-size="10.00" fill="#000000">Core/FunctionTree/Function</text>
<text text-anchor="middle" x="638.3911" y="-130.5" font-family="Helvetica,sans-Serif" font-size="10.00" fill="#000000">TreeIntensity.hpp</text>
</a>
</g>
</g>
<!-- Node0&#45;&gt;Node1 -->
<g id="edge1" class="edge">
<title>Node0&#45;&gt;Node1</title>
<path fill="none" stroke="#191970" d="M465.5472,-246.4178C500.6458,-224.5035 565.8534,-183.79 605.3669,-159.1192"/>
<polygon fill="#191970" stroke="#191970" points="607.7172,-161.778 614.3459,-153.513 604.0099,-155.8403 607.7172,-161.778"/>
</g>
<!-- Node33 -->
<g id="node7" class="node">
<title>Node33</title>
<g id="a_node7"><a xlink:href="Value_8hpp.html" target="_top" xlink:title="Template implementation of Parameter for simple values. ">
<polygon fill="#ffffff" stroke="#ff0000" points="76.3911,-.5 76.3911,-19.5 230.3911,-19.5 230.3911,-.5 76.3911,-.5"/>
<text text-anchor="middle" x="153.3911" y="-7.5" font-family="Helvetica,sans-Serif" font-size="10.00" fill="#000000">Core/FunctionTree/Value.hpp</text>
</a>
</g>
</g>
<!-- Node0&#45;&gt;Node33 -->
<g id="edge18" class="edge">
<title>Node0&#45;&gt;Node33</title>
<path fill="none" stroke="#191970" d="M368.202,-253.9875C257.0626,-240.8999 54.0101,-209.8347 10.3911,-154 -30.6346,-101.4848 67.0247,-47.9626 120.8317,-23.5889"/>
<polygon fill="#191970" stroke="#191970" points="122.2863,-26.7727 130.0099,-19.5204 119.4495,-20.3732 122.2863,-26.7727"/>
</g>
<!-- Node39 -->
<g id="node8" class="node">
<title>Node39</title>
<g id="a_node8"><a xlink:href="TreeNode_8hpp.html" target="_top" xlink:title="TreeNode class. ">
<polygon fill="#ffffff" stroke="#000000" points="297.8911,-190.5 297.8911,-209.5 470.8911,-209.5 470.8911,-190.5 297.8911,-190.5"/>
<text text-anchor="middle" x="384.3911" y="-197.5" font-family="Helvetica,sans-Serif" font-size="10.00" fill="#000000">Core/FunctionTree/TreeNode.hpp</text>
</a>
</g>
</g>
<!-- Node0&#45;&gt;Node39 -->
<g id="edge9" class="edge">
<title>Node0&#45;&gt;Node39</title>
<path fill="none" stroke="#191970" d="M427.3013,-246.2977C419.1418,-237.4941 408.8439,-226.3833 400.3817,-217.2529"/>
<polygon fill="#191970" stroke="#191970" points="402.8823,-214.8021 393.5176,-209.8469 397.7482,-219.5604 402.8823,-214.8021"/>
</g>
<!-- Node42 -->
<g id="node12" class="node">
<title>Node42</title>
<g id="a_node12"><a xlink:href="DataSet_8hpp.html" target="_top" xlink:title="Data/DataSet.hpp">
<polygon fill="#ffffff" stroke="#000000" points="729.8911,-129 729.8911,-148 832.8911,-148 832.8911,-129 729.8911,-129"/>
<text text-anchor="middle" x="781.3911" y="-136" font-family="Helvetica,sans-Serif" font-size="10.00" fill="#000000">Data/DataSet.hpp</text>
</a>
</g>
</g>
<!-- Node0&#45;&gt;Node42 -->
<g id="edge19" class="edge">
<title>Node0&#45;&gt;Node42</title>
<path fill="none" stroke="#191970" d="M483.0818,-246.4178C550.4095,-222.061 681.9311,-174.4812 745.4111,-151.5163"/>
<polygon fill="#191970" stroke="#191970" points="746.7819,-154.7425 754.9948,-148.0493 744.4006,-148.1599 746.7819,-154.7425"/>
</g>
<!-- Node2 -->
<g id="node3" class="node">
<title>Node2</title>
<polygon fill="#ffffff" stroke="#bfbfbf" points="588.3911,-.5 588.3911,-19.5 646.3911,-19.5 646.3911,-.5 588.3911,-.5"/>
<text text-anchor="middle" x="617.3911" y="-7.5" font-family="Helvetica,sans-Serif" font-size="10.00" fill="#000000">memory</text>
</g>
<!-- Node1&#45;&gt;Node2 -->
<g id="edge2" class="edge">
<title>Node1&#45;&gt;Node2</title>
<path fill="none" stroke="#191970" d="M654.6876,-123.246C670.3442,-106.6511 690.0351,-79.3642 678.3911,-56 671.7908,-42.756 659.3585,-32.3192 647.4307,-24.7581"/>
<polygon fill="#191970" stroke="#191970" points="648.911,-21.5691 638.5127,-19.5378 645.3747,-27.6102 648.911,-21.5691"/>
</g>
<!-- Node3 -->
<g id="node4" class="node">
<title>Node3</title>
<g id="a_node4"><a xlink:href="Function_8hpp.html" target="_top" xlink:title="Core/Function.hpp">
<polygon fill="#ffffff" stroke="#ff0000" points="565.3911,-62 565.3911,-81 669.3911,-81 669.3911,-62 565.3911,-62"/>
<text text-anchor="middle" x="617.3911" y="-69" font-family="Helvetica,sans-Serif" font-size="10.00" fill="#000000">Core/Function.hpp</text>
</a>
</g>
</g>
<!-- Node1&#45;&gt;Node3 -->
<g id="edge3" class="edge">
<title>Node1&#45;&gt;Node3</title>
<path fill="none" stroke="#191970" d="M633.6259,-123.2967C630.6082,-113.6685 626.6787,-101.1318 623.4416,-90.8038"/>
<polygon fill="#191970" stroke="#191970" points="626.7167,-89.5504 620.386,-81.055 620.0371,-91.6441 626.7167,-89.5504"/>
</g>
<!-- Node7 -->
<g id="node6" class="node">
<title>Node7</title>
<g id="a_node6"><a xlink:href="ParameterList_8hpp.html" target="_top" xlink:title="ParameterList class. ">
<polygon fill="#ffffff" stroke="#ff0000" points="353.3911,-56.5 353.3911,-86.5 509.3911,-86.5 509.3911,-56.5 353.3911,-56.5"/>
<text text-anchor="start" x="361.3911" y="-74.5" font-family="Helvetica,sans-Serif" font-size="10.00" fill="#000000">Core/FunctionTree/Parameter</text>
<text text-anchor="middle" x="431.3911" y="-63.5" font-family="Helvetica,sans-Serif" font-size="10.00" fill="#000000">List.hpp</text>
</a>
</g>
</g>
<!-- Node1&#45;&gt;Node7 -->
<g id="edge5" class="edge">
<title>Node1&#45;&gt;Node7</title>
<path fill="none" stroke="#191970" d="M591.9363,-123.4639C561.1491,-113.499 520.5687,-100.3642 487.9101,-89.7936"/>
<polygon fill="#191970" stroke="#191970" points="488.6405,-86.3513 478.0486,-86.6017 486.4848,-93.0111 488.6405,-86.3513"/>
</g>
<!-- Node4 -->
<g id="node5" class="node">
<title>Node4</title>
<polygon fill="#ffffff" stroke="#bfbfbf" points="409.3911,-.5 409.3911,-19.5 453.3911,-19.5 453.3911,-.5 409.3911,-.5"/>
<text text-anchor="middle" x="431.3911" y="-7.5" font-family="Helvetica,sans-Serif" font-size="10.00" fill="#000000">string</text>
</g>
<!-- Node3&#45;&gt;Node4 -->
<g id="edge4" class="edge">
<title>Node3&#45;&gt;Node4</title>
<path fill="none" stroke="#191970" d="M588.3286,-61.8906C554.3861,-50.6677 498.4202,-32.1628 463.3,-20.5505"/>
<polygon fill="#191970" stroke="#191970" points="464.1434,-17.1431 453.5502,-17.3268 461.9459,-23.7892 464.1434,-17.1431"/>
</g>
<!-- Node7&#45;&gt;Node2 -->
<g id="edge6" class="edge">
<title>Node7&#45;&gt;Node2</title>
<path fill="none" stroke="#191970" d="M476.8919,-56.4554C508.1987,-46.104 549.322,-32.5067 578.9801,-22.7004"/>
<polygon fill="#191970" stroke="#191970" points="580.1721,-25.9927 588.5677,-19.5303 577.9745,-19.3466 580.1721,-25.9927"/>
</g>
<!-- Node7&#45;&gt;Node4 -->
<g id="edge7" class="edge">
<title>Node7&#45;&gt;Node4</title>
<path fill="none" stroke="#191970" d="M431.3911,-56.2977C431.3911,-48.3834 431.3911,-38.6043 431.3911,-30.0759"/>
<polygon fill="#191970" stroke="#191970" points="434.8912,-29.8469 431.3911,-19.8469 427.8912,-29.847 434.8912,-29.8469"/>
</g>
<!-- Node7&#45;&gt;Node33 -->
<g id="edge8" class="edge">
<title>Node7&#45;&gt;Node33</title>
<path fill="none" stroke="#191970" d="M363.3847,-56.4554C314.9652,-45.7439 250.8353,-31.5569 206.2393,-21.6912"/>
<polygon fill="#191970" stroke="#191970" points="206.9912,-18.273 196.4713,-19.5303 205.4792,-25.1078 206.9912,-18.273"/>
</g>
<!-- Node39&#45;&gt;Node2 -->
<g id="edge11" class="edge">
<title>Node39&#45;&gt;Node2</title>
<path fill="none" stroke="#191970" d="M423.6948,-190.4991C446.8122,-183.3947 475.5088,-171.7886 496.3911,-154 535.2683,-120.8826 522.0672,-93.8162 556.3911,-56 567.0468,-44.2602 581.0506,-33.4548 592.9529,-25.2708"/>
<polygon fill="#191970" stroke="#191970" points="595.1654,-28.0027 601.5547,-19.5512 591.2895,-22.1737 595.1654,-28.0027"/>
</g>
<!-- Node39&#45;&gt;Node4 -->
<g id="edge12" class="edge">
<title>Node39&#45;&gt;Node4</title>
<path fill="none" stroke="#191970" d="M339.5989,-190.4624C317.9817,-183.6914 293.3401,-172.4202 277.3911,-154 248.4039,-120.5212 232.4243,-91.1266 259.3911,-56 276.2943,-33.9821 354.1382,-20.2172 399.0948,-13.9624"/>
<polygon fill="#191970" stroke="#191970" points="399.7794,-17.402 409.2248,-12.6025 398.848,-10.4642 399.7794,-17.402"/>
</g>
<!-- Node39&#45;&gt;Node7 -->
<g id="edge17" class="edge">
<title>Node39&#45;&gt;Node7</title>
<path fill="none" stroke="#191970" d="M427.8743,-190.3976C447.4663,-183.6689 468.7706,-172.4539 480.3911,-154 493.207,-133.6479 475.9827,-110.0119 458.5253,-93.2691"/>
<polygon fill="#191970" stroke="#191970" points="460.8736,-90.6738 451.1162,-86.5453 456.1693,-95.8575 460.8736,-90.6738"/>
</g>
<!-- Node17 -->
<g id="node9" class="node">
<title>Node17</title>
<polygon fill="#ffffff" stroke="#bfbfbf" points="267.8911,-62 267.8911,-81 326.8911,-81 326.8911,-62 267.8911,-62"/>
<text text-anchor="middle" x="297.3911" y="-69" font-family="Helvetica,sans-Serif" font-size="10.00" fill="#000000">complex</text>
</g>
<!-- Node39&#45;&gt;Node17 -->
<g id="edge10" class="edge">
<title>Node39&#45;&gt;Node17</title>
<path fill="none" stroke="#191970" d="M341.8406,-190.4528C322.3151,-183.7153 300.9732,-172.4765 289.3911,-154 277.4359,-134.9281 283.0773,-108.3616 289.2749,-90.5798"/>
<polygon fill="#191970" stroke="#191970" points="292.6293,-91.6083 292.9562,-81.0185 286.0968,-89.0931 292.6293,-91.6083"/>
</g>
<!-- Node40 -->
<g id="node10" class="node">
<title>Node40</title>
<g id="a_node10"><a xlink:href="Functions_8hpp.html" target="_top" xlink:title="This file contains Functions implementing the Strategy interface so they can be used inside a node of...">
<polygon fill="#ffffff" stroke="#ff0000" points="297.8911,-129 297.8911,-148 470.8911,-148 470.8911,-129 297.8911,-129"/>
<text text-anchor="middle" x="384.3911" y="-136" font-family="Helvetica,sans-Serif" font-size="10.00" fill="#000000">Core/FunctionTree/Functions.hpp</text>
</a>
</g>
</g>
<!-- Node39&#45;&gt;Node40 -->
<g id="edge13" class="edge">
<title>Node39&#45;&gt;Node40</title>
<path fill="none" stroke="#191970" d="M384.3911,-190.3906C384.3911,-181.8657 384.3911,-169.1392 384.3911,-158.4235"/>
<polygon fill="#191970" stroke="#191970" points="387.8912,-158.2448 384.3911,-148.2449 380.8912,-158.2449 387.8912,-158.2448"/>
</g>
<!-- Node29 -->
<g id="node11" class="node">
<title>Node29</title>
<g id="a_node11"><a xlink:href="ParObserver_8hpp.html" target="_top" xlink:title="ParObserver class. ">
<polygon fill="#ffffff" stroke="#000000" points="18.8911,-129 18.8911,-148 203.8911,-148 203.8911,-129 18.8911,-129"/>
<text text-anchor="middle" x="111.3911" y="-136" font-family="Helvetica,sans-Serif" font-size="10.00" fill="#000000">Core/FunctionTree/ParObserver.hpp</text>
</a>
</g>
</g>
<!-- Node39&#45;&gt;Node29 -->
<g id="edge16" class="edge">
<title>Node39&#45;&gt;Node29</title>
<path fill="none" stroke="#191970" d="M342.0344,-190.4581C294.0154,-179.6406 215.6901,-161.9959 163.8461,-150.3168"/>
<polygon fill="#191970" stroke="#191970" points="164.372,-146.8476 153.8472,-148.0643 162.8335,-153.6765 164.372,-146.8476"/>
</g>
<!-- Node40&#45;&gt;Node7 -->
<g id="edge15" class="edge">
<title>Node40&#45;&gt;Node7</title>
<path fill="none" stroke="#191970" d="M391.1251,-128.9005C397.3145,-120.0773 406.7416,-106.6387 414.9185,-94.9822"/>
<polygon fill="#191970" stroke="#191970" points="417.9759,-96.7184 420.8535,-86.5218 412.2453,-92.6984 417.9759,-96.7184"/>
</g>
<!-- Node40&#45;&gt;Node17 -->
<g id="edge14" class="edge">
<title>Node40&#45;&gt;Node17</title>
<path fill="none" stroke="#191970" d="M371.9262,-128.9005C357.8424,-118.0544 334.7024,-100.2339 317.9373,-87.3229"/>
<polygon fill="#191970" stroke="#191970" points="319.8914,-84.4102 309.833,-81.0817 315.6203,-89.9562 319.8914,-84.4102"/>
</g>
<!-- Node42&#45;&gt;Node2 -->
<g id="edge20" class="edge">
<title>Node42&#45;&gt;Node2</title>
<path fill="none" stroke="#191970" d="M793.6021,-128.9331C812.6838,-112.8391 845.5057,-79.7791 826.3911,-56 805.5074,-30.02 711.2199,-17.8605 656.689,-12.9111"/>
<polygon fill="#191970" stroke="#191970" points="656.9363,-9.4195 646.6713,-12.0422 656.3314,-16.3933 656.9363,-9.4195"/>
</g>
<!-- Node42&#45;&gt;Node3 -->
<g id="edge22" class="edge">
<title>Node42&#45;&gt;Node3</title>
<path fill="none" stroke="#191970" d="M757.8939,-128.9005C729.6403,-117.3579 682.052,-97.9163 650.1894,-84.8993"/>
<polygon fill="#191970" stroke="#191970" points="651.4257,-81.6236 640.8448,-81.0817 648.7783,-88.1037 651.4257,-81.6236"/>
</g>
<!-- Node43 -->
<g id="node13" class="node">
<title>Node43</title>
<g id="a_node13"><a xlink:href="Event_8hpp.html" target="_top" xlink:title="Core/Event.hpp">
<polygon fill="#ffffff" stroke="#ff0000" points="725.8911,-62 725.8911,-81 816.8911,-81 816.8911,-62 725.8911,-62"/>
<text text-anchor="middle" x="771.3911" y="-69" font-family="Helvetica,sans-Serif" font-size="10.00" fill="#000000">Core/Event.hpp</text>
</a>
</g>
</g>
<!-- Node42&#45;&gt;Node43 -->
<g id="edge21" class="edge">
<title>Node42&#45;&gt;Node43</title>
<path fill="none" stroke="#191970" d="M779.9584,-128.9005C778.4881,-119.0495 776.1591,-103.4451 774.3003,-90.9912"/>
<polygon fill="#191970" stroke="#191970" points="777.7592,-90.4554 772.8212,-81.0817 770.8359,-91.4888 777.7592,-90.4554"/>
</g>
</g>
</svg>
        <g id="navigator" transform="translate(0 0)" fill="#404254">
                <rect fill="#f2f5e9" fill-opacity="0.5" stroke="#606060" stroke-width=".5" x="0" y="0" width="60" height="60"/>
                <use id="zoomplus" xlink:href="#zoomPlus" x="17" y="9" onmousedown="handleZoom(evt,'in')"/>
                <use id="zoomminus" xlink:href="#zoomMin" x="42" y="9" onmousedown="handleZoom(evt,'out')"/>
                <use id="reset" xlink:href="#resetDef" x="30" y="36" onmousedown="handleReset()"/>
                <g id="arrowUp" xlink:href="#dirArrow" transform="translate(30 24)" onmousedown="handlePan(0,-1)">
                  <use xlink:href="#rim" fill="#404040">
                        <set attributeName="fill" to="#808080" begin="arrowUp.mouseover" end="arrowUp.mouseout"/>
                  </use>
                  <path fill="none" stroke="white" stroke-width="1.5" d="M0,-3.0v7 M-2.5,-0.5L0,-3.0L2.5,-0.5"/>
                </g>
                <g id="arrowRight" xlink:href="#dirArrow" transform="rotate(90) translate(36 -43)" onmousedown="handlePan(1,0)">
                  <use xlink:href="#rim" fill="#404040">
                        <set attributeName="fill" to="#808080" begin="arrowRight.mouseover" end="arrowRight.mouseout"/>
                  </use>
                  <path fill="none" stroke="white" stroke-width="1.5" d="M0,-3.0v7 M-2.5,-0.5L0,-3.0L2.5,-0.5"/>
                </g>
                <g id="arrowDown" xlink:href="#dirArrow" transform="rotate(180) translate(-30 -48)" onmousedown="handlePan(0,1)">
                  <use xlink:href="#rim" fill="#404040">
                        <set attributeName="fill" to="#808080" begin="arrowDown.mouseover" end="arrowDown.mouseout"/>
                  </use>
                  <path fill="none" stroke="white" stroke-width="1.5" d="M0,-3.0v7 M-2.5,-0.5L0,-3.0L2.5,-0.5"/>
                </g>
                <g id="arrowLeft" xlink:href="#dirArrow" transform="rotate(270) translate(-36 17)" onmousedown="handlePan(-1,0)">
                  <use xlink:href="#rim" fill="#404040">
                        <set attributeName="fill" to="#808080" begin="arrowLeft.mouseover" end="arrowLeft.mouseout"/>
                  </use>
                  <path fill="none" stroke="white" stroke-width="1.5" d="M0,-3.0v7 M-2.5,-0.5L0,-3.0L2.5,-0.5"/>
                </g>
        </g>
        <svg viewBox="0 0 15 15" width="100%" height="30px" preserveAspectRatio="xMaxYMin meet">
         <g id="arrow_out" transform="scale(0.3 0.3)">
          <a xlink:href="FunctionTreeIntensity_8cpp__incl_org.svg" target="_base">
           <rect id="button" ry="5" rx="5" y="6" x="6" height="38" width="38"
                fill="#f2f5e9" fill-opacity="0.5" stroke="#606060" stroke-width="1.0"/>
           <path id="arrow"
             d="M 11.500037,31.436501 C 11.940474,20.09759 22.043105,11.32322 32.158766,21.979434 L 37.068811,17.246167 C 37.068811,17.246167 37.088388,32 37.088388,32 L 22.160133,31.978069 C 22.160133,31.978069 26.997745,27.140456 26.997745,27.140456 C 18.528582,18.264221 13.291696,25.230495 11.500037,31.436501 z"
             style="fill:#404040;"/>
          </a>
         </g>
        </svg>
</svg>
