<?xml version="1.0" encoding="UTF-8" standalone="no"?>
<!DOCTYPE svg PUBLIC "-//W3C//DTD SVG 1.1//EN"
 "http://www.w3.org/Graphics/SVG/1.1/DTD/svg11.dtd">
<!-- Generated by graphviz version 2.40.1 (20161225.0304)
 -->
<!-- Title: Core/Function.hpp Pages: 1 -->
<!--zoomable 285 -->
<svg id="main" version="1.1" xmlns="http://www.w3.org/2000/svg" xmlns:xlink="http://www.w3.org/1999/xlink" xml:space="preserve" onload="init(evt)">
<style type="text/css"><![CDATA[
.edge:hover path { stroke: red; }
.edge:hover polygon { stroke: red; fill: red; }
]]></style>
<script type="text/javascript"><![CDATA[
var edges = document.getElementsByTagName('g');
if (edges && edges.length) {
  for (var i=0;i<edges.length;i++) {
    if (edges[i].id.substr(0,4)=='edge') {
      edges[i].setAttribute('class','edge');
    }
  }
}
]]></script>
        <defs>
                <circle id="rim" cx="0" cy="0" r="7"/>
                <circle id="rim2" cx="0" cy="0" r="3.5"/>
                <g id="zoomPlus">
                        <use xlink:href="#rim" fill="#404040">
                                <set attributeName="fill" to="#808080" begin="zoomplus.mouseover" end="zoomplus.mouseout"/>
                        </use>
                        <path d="M-4,0h8M0,-4v8" fill="none" stroke="white" stroke-width="1.5" pointer-events="none"/>
                </g>
                <g id="zoomMin">
                        <use xlink:href="#rim" fill="#404040">
                                <set attributeName="fill" to="#808080" begin="zoomminus.mouseover" end="zoomminus.mouseout"/>
                        </use>
                        <path d="M-4,0h8" fill="none" stroke="white" stroke-width="1.5" pointer-events="none"/>
                </g>
                <g id="dirArrow">
                        <path fill="none" stroke="white" stroke-width="1.5" d="M0,-3.0v7 M-2.5,-0.5L0,-3.0L2.5,-0.5"/>
                </g>
               <g id="resetDef">
                       <use xlink:href="#rim2" fill="#404040">
                               <set attributeName="fill" to="#808080" begin="reset.mouseover" end="reset.mouseout"/>
                       </use>
               </g>
        </defs>

<script type="text/javascript">
var viewWidth = 2738;
var viewHeight = 285;
var sectionId = 'dynsection-1';
</script>
<script xlink:href="svgpan.js"/>
<svg id="graph" class="graph">
<g id="viewport">
<title>Core/Function.hpp</title>
<polygon fill="#ffffff" stroke="transparent" points="-4,4 -4,-281 2733.5,-281 2733.5,4 -4,4"/>
<!-- Node4 -->
<g id="node1" class="node">
<title>Node4</title>
<polygon fill="#bfbfbf" stroke="#000000" points="804.5,-257.5 804.5,-276.5 908.5,-276.5 908.5,-257.5 804.5,-257.5"/>
<text text-anchor="middle" x="856.5" y="-264.5" font-family="Helvetica,sans-Serif" font-size="10.00" fill="#000000">Core/Function.hpp</text>
</g>
<!-- Node5 -->
<g id="node2" class="node">
<title>Node5</title>
<g id="a_node2"><a xlink:href="FitParameter_8hpp.html" target="_top" xlink:title="Core/FitParameter.hpp">
<polygon fill="#ffffff" stroke="#000000" points="1413.5,-201.5 1413.5,-220.5 1537.5,-220.5 1537.5,-201.5 1413.5,-201.5"/>
<text text-anchor="middle" x="1475.5" y="-208.5" font-family="Helvetica,sans-Serif" font-size="10.00" fill="#000000">Core/FitParameter.hpp</text>
</a>
</g>
</g>
<!-- Node4&#45;&gt;Node5 -->
<g id="edge1" class="edge">
<title>Node4&#45;&gt;Node5</title>
<path fill="none" stroke="#191970" d="M918.7543,-261.368C1037.3768,-250.6363 1294.5245,-227.3726 1413.1902,-216.6371"/>
<polygon fill="#191970" stroke="#191970" points="918.3861,-257.8869 908.7421,-262.2737 919.0168,-264.8584 918.3861,-257.8869"/>
</g>
<!-- Node6 -->
<g id="node3" class="node">
<title>Node6</title>
<g id="a_node3"><a xlink:href="FitResult_8hpp.html" target="_top" xlink:title="Core/FitResult.hpp">
<polygon fill="#ffffff" stroke="#ff0000" points="381.5,-140 381.5,-159 485.5,-159 485.5,-140 381.5,-140"/>
<text text-anchor="middle" x="433.5" y="-147" font-family="Helvetica,sans-Serif" font-size="10.00" fill="#000000">Core/FitResult.hpp</text>
</a>
</g>
</g>
<!-- Node4&#45;&gt;Node6 -->
<g id="edge28" class="edge">
<title>Node4&#45;&gt;Node6</title>
<path fill="none" stroke="#191970" d="M808.3099,-254.8723C772.6625,-245.8049 722.964,-232.9617 679.5,-221 602.3134,-199.7576 512.0518,-173.0388 465.2618,-159.0467"/>
<polygon fill="#191970" stroke="#191970" points="807.8824,-258.3747 818.4361,-257.4426 809.6046,-251.5899 807.8824,-258.3747"/>
</g>
<!-- Node18 -->
<g id="node4" class="node">
<title>Node18</title>
<g id="a_node4"><a xlink:href="FitFractions_8cpp.html" target="_top" xlink:title="Tools/FitFractions.cpp">
<polygon fill="#ffffff" stroke="#000000" points="370,-73 370,-92 489,-92 489,-73 370,-73"/>
<text text-anchor="middle" x="429.5" y="-80" font-family="Helvetica,sans-Serif" font-size="10.00" fill="#000000">Tools/FitFractions.cpp</text>
</a>
</g>
</g>
<!-- Node4&#45;&gt;Node18 -->
<g id="edge62" class="edge">
<title>Node4&#45;&gt;Node18</title>
<path fill="none" stroke="#191970" d="M794.3442,-263.46C675.7129,-255.2527 424.1799,-230.378 372.5,-165 352.5277,-139.7339 391.1888,-107.9011 414.17,-92.1872"/>
<polygon fill="#191970" stroke="#191970" points="794.1573,-266.9553 804.3701,-264.1358 794.6281,-259.9711 794.1573,-266.9553"/>
</g>
<!-- Node50 -->
<g id="node19" class="node">
<title>Node50</title>
<g id="a_node19"><a xlink:href="DalitzPlot_8hpp.html" target="_top" xlink:title="Tools/Plotting/DalitzPlot.hpp">
<polygon fill="#ffffff" stroke="#ff0000" points="980,-73 980,-92 1133,-92 1133,-73 980,-73"/>
<text text-anchor="middle" x="1056.5" y="-80" font-family="Helvetica,sans-Serif" font-size="10.00" fill="#000000">Tools/Plotting/DalitzPlot.hpp</text>
</a>
</g>
</g>
<!-- Node4&#45;&gt;Node50 -->
<g id="edge68" class="edge">
<title>Node4&#45;&gt;Node50</title>
<path fill="none" stroke="#191970" d="M896.7844,-253.9937C937.073,-238.9213 997.8845,-210.2003 1032.5,-165 1049.5506,-142.7356 1054.5015,-108.6792 1055.9286,-92.1577"/>
<polygon fill="#191970" stroke="#191970" points="895.4719,-250.7465 887.2635,-257.4452 897.8576,-257.3274 895.4719,-250.7465"/>
</g>
<!-- Node87 -->
<g id="node20" class="node">
<title>Node87</title>
<g id="a_node20"><a xlink:href="RootPlotData_8hpp.html" target="_top" xlink:title="Tools/Plotting/RootPlotData.hpp">
<polygon fill="#ffffff" stroke="#ff0000" points="1617.5,-140 1617.5,-159 1787.5,-159 1787.5,-140 1617.5,-140"/>
<text text-anchor="middle" x="1702.5" y="-147" font-family="Helvetica,sans-Serif" font-size="10.00" fill="#000000">Tools/Plotting/RootPlotData.hpp</text>
</a>
</g>
</g>
<!-- Node4&#45;&gt;Node87 -->
<g id="edge69" class="edge">
<title>Node4&#45;&gt;Node87</title>
<path fill="none" stroke="#191970" d="M918.8396,-265.7255C1065.4594,-262.2638 1428.6572,-250.86 1546.5,-221 1600.7941,-207.2425 1659.4756,-175.1309 1686.8193,-159.0423"/>
<polygon fill="#191970" stroke="#191970" points="918.5799,-262.2304 908.6636,-265.9611 918.742,-269.2286 918.5799,-262.2304"/>
</g>
<!-- Node45 -->
<g id="node22" class="node">
<title>Node45</title>
<g id="a_node22"><a xlink:href="FunctionTreeIntensity_8hpp.html" target="_top" xlink:title="Core/FunctionTree/Function\lTreeIntensity.hpp">
<polygon fill="#ffffff" stroke="#ff0000" points="877.5,-134.5 877.5,-164.5 1023.5,-164.5 1023.5,-134.5 877.5,-134.5"/>
<text text-anchor="start" x="885.5" y="-152.5" font-family="Helvetica,sans-Serif" font-size="10.00" fill="#000000">Core/FunctionTree/Function</text>
<text text-anchor="middle" x="950.5" y="-141.5" font-family="Helvetica,sans-Serif" font-size="10.00" fill="#000000">TreeIntensity.hpp</text>
</a>
</g>
</g>
<!-- Node4&#45;&gt;Node45 -->
<g id="edge29" class="edge">
<title>Node4&#45;&gt;Node45</title>
<path fill="none" stroke="#191970" d="M883.1448,-252.0852C895.4774,-244.1343 909.5623,-233.4254 919.5,-221 933.1054,-203.9887 941.859,-180.0945 946.4822,-164.7032"/>
<polygon fill="#191970" stroke="#191970" points="881.2386,-249.1486 874.5588,-257.3724 884.9091,-255.1092 881.2386,-249.1486"/>
</g>
<!-- Node46 -->
<g id="node23" class="node">
<title>Node46</title>
<g id="a_node23"><a xlink:href="BuilderXML_8hpp.html" target="_top" xlink:title="Physics/BuilderXML.hpp">
<polygon fill="#ffffff" stroke="#ff0000" points="583.5,-73 583.5,-92 715.5,-92 715.5,-73 583.5,-73"/>
<text text-anchor="middle" x="649.5" y="-80" font-family="Helvetica,sans-Serif" font-size="10.00" fill="#000000">Physics/BuilderXML.hpp</text>
</a>
</g>
</g>
<!-- Node4&#45;&gt;Node46 -->
<g id="edge57" class="edge">
<title>Node4&#45;&gt;Node46</title>
<path fill="none" stroke="#191970" d="M829.4403,-252.1535C816.9139,-244.2184 802.6046,-233.5031 792.5,-221 765.9784,-188.1831 783.6693,-164.4877 754.5,-134 734.9896,-113.6078 705.7107,-100.1773 683.0233,-92.1604"/>
<polygon fill="#191970" stroke="#191970" points="827.7925,-255.2471 838.1609,-257.4259 831.4142,-249.2569 827.7925,-255.2471"/>
</g>
<!-- Node73 -->
<g id="node24" class="node">
<title>Node73</title>
<g id="a_node24"><a xlink:href="DataSet_8hpp.html" target="_top" xlink:title="Data/DataSet.hpp">
<polygon fill="#ffffff" stroke="#ff0000" points="504,-140 504,-159 607,-159 607,-140 504,-140"/>
<text text-anchor="middle" x="555.5" y="-147" font-family="Helvetica,sans-Serif" font-size="10.00" fill="#000000">Data/DataSet.hpp</text>
</a>
</g>
</g>
<!-- Node4&#45;&gt;Node73 -->
<g id="edge36" class="edge">
<title>Node4&#45;&gt;Node73</title>
<path fill="none" stroke="#191970" d="M820.1253,-253.9755C795.1204,-244.9338 761.1998,-232.4939 731.5,-221 676.2898,-199.6335 611.9743,-173.0778 578.4659,-159.1146"/>
<polygon fill="#191970" stroke="#191970" points="818.9866,-257.2855 829.5809,-257.3864 821.3619,-250.7008 818.9866,-257.2855"/>
</g>
<!-- Node77 -->
<g id="node26" class="node">
<title>Node77</title>
<g id="a_node26"><a xlink:href="Generate_8hpp.html" target="_top" xlink:title="Some useful functions for Monte&#45;Carlo event generation. ">
<polygon fill="#ffffff" stroke="#ff0000" points="802,-201.5 802,-220.5 911,-220.5 911,-201.5 802,-201.5"/>
<text text-anchor="middle" x="856.5" y="-208.5" font-family="Helvetica,sans-Serif" font-size="10.00" fill="#000000">Data/Generate.hpp</text>
</a>
</g>
</g>
<!-- Node4&#45;&gt;Node77 -->
<g id="edge43" class="edge">
<title>Node4&#45;&gt;Node77</title>
<path fill="none" stroke="#191970" d="M856.5,-247.1575C856.5,-238.155 856.5,-227.9199 856.5,-220.6427"/>
<polygon fill="#191970" stroke="#191970" points="853.0001,-247.2455 856.5,-257.2455 860.0001,-247.2456 853.0001,-247.2455"/>
</g>
<!-- Node90 -->
<g id="node27" class="node">
<title>Node90</title>
<g id="a_node27"><a xlink:href="ChiOneD_8cpp.html" target="_top" xlink:title="Estimator/ChiOneD/ChiOne\lD.cpp">
<polygon fill="#ffffff" stroke="#000000" points="2581.5,-67.5 2581.5,-97.5 2729.5,-97.5 2729.5,-67.5 2581.5,-67.5"/>
<text text-anchor="start" x="2589.5" y="-85.5" font-family="Helvetica,sans-Serif" font-size="10.00" fill="#000000">Estimator/ChiOneD/ChiOne</text>
<text text-anchor="middle" x="2655.5" y="-74.5" font-family="Helvetica,sans-Serif" font-size="10.00" fill="#000000">D.cpp</text>
</a>
</g>
</g>
<!-- Node4&#45;&gt;Node90 -->
<g id="edge45" class="edge">
<title>Node4&#45;&gt;Node90</title>
<path fill="none" stroke="#191970" d="M919.1625,-266.4966C1168.15,-264.281 2088.0039,-253.9916 2377.5,-221 2504.0258,-206.5809 2577.7311,-263.4534 2658.5,-165 2673.9536,-146.1628 2667.56,-115.963 2661.5202,-97.7983"/>
<polygon fill="#191970" stroke="#191970" points="918.8214,-262.9994 908.8525,-266.5872 918.8829,-269.9991 918.8214,-262.9994"/>
</g>
<!-- Node91 -->
<g id="node28" class="node">
<title>Node91</title>
<g id="a_node28"><a xlink:href="Estimator_8hpp.html" target="_top" xlink:title="Estimator/Estimator.hpp">
<polygon fill="#ffffff" stroke="#000000" points="2234.5,-201.5 2234.5,-220.5 2368.5,-220.5 2368.5,-201.5 2234.5,-201.5"/>
<text text-anchor="middle" x="2301.5" y="-208.5" font-family="Helvetica,sans-Serif" font-size="10.00" fill="#000000">Estimator/Estimator.hpp</text>
</a>
</g>
</g>
<!-- Node4&#45;&gt;Node91 -->
<g id="edge46" class="edge">
<title>Node4&#45;&gt;Node91</title>
<path fill="none" stroke="#191970" d="M918.899,-264.5818C1154.7542,-255.4414 1990.7803,-223.0417 2234.4113,-213.6"/>
<polygon fill="#191970" stroke="#191970" points="918.6389,-261.0891 908.782,-264.9738 918.9101,-268.0839 918.6389,-261.0891"/>
</g>
<!-- Node94 -->
<g id="node31" class="node">
<title>Node94</title>
<g id="a_node31"><a xlink:href="FitFractions_8hpp.html" target="_top" xlink:title="Tools/FitFractions.hpp">
<polygon fill="#ffffff" stroke="#000000" points="625.5,-140 625.5,-159 745.5,-159 745.5,-140 625.5,-140"/>
<text text-anchor="middle" x="685.5" y="-147" font-family="Helvetica,sans-Serif" font-size="10.00" fill="#000000">Tools/FitFractions.hpp</text>
</a>
</g>
</g>
<!-- Node4&#45;&gt;Node94 -->
<g id="edge58" class="edge">
<title>Node4&#45;&gt;Node94</title>
<path fill="none" stroke="#191970" d="M821.2965,-253.589C802.1926,-245.5203 778.6398,-234.2498 759.5,-221 732.7673,-202.4938 706.6432,-174.1627 693.7739,-159.3301"/>
<polygon fill="#191970" stroke="#191970" points="819.9759,-256.8303 830.5555,-257.3985 822.6394,-250.3568 819.9759,-256.8303"/>
</g>
<!-- Node95 -->
<g id="node32" class="node">
<title>Node95</title>
<g id="a_node32"><a xlink:href="Integration_8hpp.html" target="_top" xlink:title="Tools/Integration.hpp">
<polygon fill="#ffffff" stroke="#000000" points="0,-140 0,-159 119,-159 119,-140 0,-140"/>
<text text-anchor="middle" x="59.5" y="-147" font-family="Helvetica,sans-Serif" font-size="10.00" fill="#000000">Tools/Integration.hpp</text>
</a>
</g>
</g>
<!-- Node4&#45;&gt;Node95 -->
<g id="edge63" class="edge">
<title>Node4&#45;&gt;Node95</title>
<path fill="none" stroke="#191970" d="M794.1354,-264.6985C696.5569,-260.3695 502.1145,-248.8097 339.5,-221 247.5174,-205.2695 141.3869,-174.653 90.2242,-159.0858"/>
<polygon fill="#191970" stroke="#191970" points="794.2678,-268.2075 804.4098,-265.1434 794.5706,-261.214 794.2678,-268.2075"/>
</g>
<!-- Node5&#45;&gt;Node6 -->
<g id="edge2" class="edge">
<title>Node5&#45;&gt;Node6</title>
<path fill="none" stroke="#191970" d="M1403.1978,-209.5038C1207.3915,-205.1495 669.8051,-191.1084 494.5,-165 485.0974,-163.5997 475.0405,-161.361 465.86,-159.0154"/>
<polygon fill="#191970" stroke="#191970" points="1403.3012,-213.0068 1413.376,-209.7282 1403.4556,-206.0085 1403.3012,-213.0068"/>
</g>
<!-- Node19 -->
<g id="node5" class="node">
<title>Node19</title>
<g id="a_node5"><a xlink:href="FunctionTree_2FitParameter_8hpp.html" target="_top" xlink:title="Implementations of Parameter for various data types. ">
<polygon fill="#ffffff" stroke="#ff0000" points="137.5,-140 137.5,-159 325.5,-159 325.5,-140 137.5,-140"/>
<text text-anchor="middle" x="231.5" y="-147" font-family="Helvetica,sans-Serif" font-size="10.00" fill="#000000">Core/FunctionTree/FitParameter.hpp</text>
</a>
</g>
</g>
<!-- Node5&#45;&gt;Node19 -->
<g id="edge4" class="edge">
<title>Node5&#45;&gt;Node19</title>
<path fill="none" stroke="#191970" d="M1403.0192,-209.677C1226.5072,-206.0849 760.3758,-194.3735 372.5,-165 351.9955,-163.4472 329.8662,-161.2584 309.3536,-159.0136"/>
<polygon fill="#191970" stroke="#191970" points="1403.1517,-213.1802 1413.22,-209.8821 1403.2924,-206.1817 1403.1517,-213.1802"/>
</g>
<!-- Node42 -->
<g id="node7" class="node">
<title>Node42</title>
<g id="a_node7"><a xlink:href="FunctionTreeEstimator_8hpp.html" target="_top" xlink:title="Core/FunctionTree/Function\lTreeEstimator.hpp">
<polygon fill="#ffffff" stroke="#ff0000" points="2031.5,-134.5 2031.5,-164.5 2177.5,-164.5 2177.5,-134.5 2031.5,-134.5"/>
<text text-anchor="start" x="2039.5" y="-152.5" font-family="Helvetica,sans-Serif" font-size="10.00" fill="#000000">Core/FunctionTree/Function</text>
<text text-anchor="middle" x="2104.5" y="-141.5" font-family="Helvetica,sans-Serif" font-size="10.00" fill="#000000">TreeEstimator.hpp</text>
</a>
</g>
</g>
<!-- Node5&#45;&gt;Node42 -->
<g id="edge6" class="edge">
<title>Node5&#45;&gt;Node42</title>
<path fill="none" stroke="#191970" d="M1547.823,-207.2943C1652.7612,-201.3794 1853.2081,-188.0562 2022.5,-165 2025.3711,-164.609 2028.2941,-164.1844 2031.2434,-163.734"/>
<polygon fill="#191970" stroke="#191970" points="1547.4519,-203.8095 1537.6622,-207.8606 1547.8415,-210.7986 1547.4519,-203.8095"/>
</g>
<!-- Node43 -->
<g id="node8" class="node">
<title>Node43</title>
<g id="a_node8"><a xlink:href="MinLogLH_8hpp.html" target="_top" xlink:title="Estimator/MinLogLH\l/MinLogLH.hpp">
<polygon fill="#ffffff" stroke="#ff0000" points="1253.5,-67.5 1253.5,-97.5 1367.5,-97.5 1367.5,-67.5 1253.5,-67.5"/>
<text text-anchor="start" x="1261.5" y="-85.5" font-family="Helvetica,sans-Serif" font-size="10.00" fill="#000000">Estimator/MinLogLH</text>
<text text-anchor="middle" x="1310.5" y="-74.5" font-family="Helvetica,sans-Serif" font-size="10.00" fill="#000000">/MinLogLH.hpp</text>
</a>
</g>
</g>
<!-- Node5&#45;&gt;Node43 -->
<g id="edge14" class="edge">
<title>Node5&#45;&gt;Node43</title>
<path fill="none" stroke="#191970" d="M1474.1659,-191.3015C1471.9959,-174.1107 1466.319,-149.5487 1451.5,-134 1439.3636,-121.266 1400.8164,-107.6407 1367.0886,-97.6053"/>
<polygon fill="#191970" stroke="#191970" points="1470.6931,-191.7515 1475.1464,-201.3649 1477.6601,-191.0726 1470.6931,-191.7515"/>
</g>
<!-- Node44 -->
<g id="node10" class="node">
<title>Node44</title>
<g id="a_node10"><a xlink:href="SumMinLogLH_8hpp.html" target="_top" xlink:title="Estimator/MinLogLH\l/SumMinLogLH.hpp">
<polygon fill="#ffffff" stroke="#ff0000" points="2047.5,-67.5 2047.5,-97.5 2161.5,-97.5 2161.5,-67.5 2047.5,-67.5"/>
<text text-anchor="start" x="2055.5" y="-85.5" font-family="Helvetica,sans-Serif" font-size="10.00" fill="#000000">Estimator/MinLogLH</text>
<text text-anchor="middle" x="2104.5" y="-74.5" font-family="Helvetica,sans-Serif" font-size="10.00" fill="#000000">/SumMinLogLH.hpp</text>
</a>
</g>
</g>
<!-- Node5&#45;&gt;Node44 -->
<g id="edge15" class="edge">
<title>Node5&#45;&gt;Node44</title>
<path fill="none" stroke="#191970" d="M1505.6731,-197.0035C1523.4499,-188.4091 1546.1709,-176.8127 1565.5,-165 1585.6029,-152.7144 1586.4843,-142.3887 1608.5,-134 1687.4789,-103.9066 1934.5094,-89.7596 2047.3048,-84.74"/>
<polygon fill="#191970" stroke="#191970" points="1503.8742,-193.9839 1496.3587,-201.4517 1506.8908,-200.3006 1503.8742,-193.9839"/>
</g>
<!-- Node55 -->
<g id="node11" class="node">
<title>Node55</title>
<g id="a_node11"><a xlink:href="Properties_8hpp.html" target="_top" xlink:title="Core/Properties.hpp">
<polygon fill="#ffffff" stroke="#ff0000" points="734,-73 734,-92 847,-92 847,-73 734,-73"/>
<text text-anchor="middle" x="790.5" y="-80" font-family="Helvetica,sans-Serif" font-size="10.00" fill="#000000">Core/Properties.hpp</text>
</a>
</g>
</g>
<!-- Node5&#45;&gt;Node55 -->
<g id="edge10" class="edge">
<title>Node5&#45;&gt;Node55</title>
<path fill="none" stroke="#191970" d="M1403.3081,-208.4464C1252.8469,-202.7039 915.7178,-187.4913 868.5,-165 834.1551,-148.6405 807.2626,-110.0571 796.1065,-92.0577"/>
<polygon fill="#191970" stroke="#191970" points="1403.2529,-211.9467 1413.3781,-208.8272 1403.5175,-204.9517 1403.2529,-211.9467"/>
</g>
<!-- Node82 -->
<g id="node13" class="node">
<title>Node82</title>
<g id="a_node13"><a xlink:href="TableFormatter_8hpp.html" target="_top" xlink:title="Core/TableFormatter.hpp">
<polygon fill="#ffffff" stroke="#ff0000" points="1079.5,-140 1079.5,-159 1215.5,-159 1215.5,-140 1079.5,-140"/>
<text text-anchor="middle" x="1147.5" y="-147" font-family="Helvetica,sans-Serif" font-size="10.00" fill="#000000">Core/TableFormatter.hpp</text>
</a>
</g>
</g>
<!-- Node5&#45;&gt;Node82 -->
<g id="edge13" class="edge">
<title>Node5&#45;&gt;Node82</title>
<path fill="none" stroke="#191970" d="M1412.2283,-199.7185C1361.441,-190.5873 1288.3304,-177.2725 1224.5,-165 1214.7246,-163.1205 1204.2631,-161.0525 1194.3016,-159.0564"/>
<polygon fill="#191970" stroke="#191970" points="1411.6175,-203.1647 1422.0787,-201.4874 1412.8548,-196.2749 1411.6175,-203.1647"/>
</g>
<!-- Node84 -->
<g id="node14" class="node">
<title>Node84</title>
<g id="a_node14"><a xlink:href="GFMinIndividual_8hpp.html" target="_top" xlink:title="Optimizer/Geneva/GFMinIndividual.hpp">
<polygon fill="#ffffff" stroke="#ff0000" points="1806,-140 1806,-159 2013,-159 2013,-140 1806,-140"/>
<text text-anchor="middle" x="1909.5" y="-147" font-family="Helvetica,sans-Serif" font-size="10.00" fill="#000000">Optimizer/Geneva/GFMinIndividual.hpp</text>
</a>
</g>
</g>
<!-- Node5&#45;&gt;Node84 -->
<g id="edge16" class="edge">
<title>Node5&#45;&gt;Node84</title>
<path fill="none" stroke="#191970" d="M1547.6749,-200.7724C1629.7198,-189.1463 1762.5847,-170.3186 1842.4421,-159.0024"/>
<polygon fill="#191970" stroke="#191970" points="1547.0916,-197.32 1537.6816,-202.1885 1548.0738,-204.2508 1547.0916,-197.32"/>
</g>
<!-- Node13 -->
<g id="node15" class="node">
<title>Node13</title>
<g id="a_node15"><a xlink:href="MinuitIF_8hpp.html" target="_top" xlink:title="Optimizer/Minuit2/Minuit\lIF.hpp">
<polygon fill="#ffffff" stroke="#ff0000" points="1386,-67.5 1386,-97.5 1523,-97.5 1523,-67.5 1386,-67.5"/>
<text text-anchor="start" x="1394" y="-85.5" font-family="Helvetica,sans-Serif" font-size="10.00" fill="#000000">Optimizer/Minuit2/Minuit</text>
<text text-anchor="middle" x="1454.5" y="-74.5" font-family="Helvetica,sans-Serif" font-size="10.00" fill="#000000">IF.hpp</text>
</a>
</g>
</g>
<!-- Node5&#45;&gt;Node13 -->
<g id="edge17" class="edge">
<title>Node5&#45;&gt;Node13</title>
<path fill="none" stroke="#191970" d="M1484.0445,-191.6724C1489.8193,-175.9142 1495.408,-153.2039 1489.5,-134 1485.3677,-120.5678 1476.4067,-107.4972 1468.5867,-97.8848"/>
<polygon fill="#191970" stroke="#191970" points="1480.6395,-190.7589 1480.1558,-201.3427 1487.1341,-193.3705 1480.6395,-190.7589"/>
</g>
<!-- Node16 -->
<g id="node16" class="node">
<title>Node16</title>
<g id="a_node16"><a xlink:href="MinuitIF_8cpp.html" target="_top" xlink:title="Optimizer/Minuit2/Minuit\lIF.cpp">
<polygon fill="#ffffff" stroke="#000000" points="1483,-.5 1483,-30.5 1620,-30.5 1620,-.5 1483,-.5"/>
<text text-anchor="start" x="1491" y="-18.5" font-family="Helvetica,sans-Serif" font-size="10.00" fill="#000000">Optimizer/Minuit2/Minuit</text>
<text text-anchor="middle" x="1551.5" y="-7.5" font-family="Helvetica,sans-Serif" font-size="10.00" fill="#000000">IF.cpp</text>
</a>
</g>
</g>
<!-- Node5&#45;&gt;Node16 -->
<g id="edge20" class="edge">
<title>Node5&#45;&gt;Node16</title>
<path fill="none" stroke="#191970" d="M1487.8837,-192.9126C1493.317,-184.5998 1499.5666,-174.4953 1504.5,-165 1519.3796,-136.3613 1522.6208,-128.7243 1532.5,-98 1539.9236,-74.9127 1545.6707,-47.3142 1548.8185,-30.6106"/>
<polygon fill="#191970" stroke="#191970" points="1484.8527,-191.149 1482.2098,-201.4089 1490.6741,-195.0365 1484.8527,-191.149"/>
</g>
<!-- Node86 -->
<g id="node17" class="node">
<title>Node86</title>
<g id="a_node17"><a xlink:href="Optimizer_8hpp.html" target="_top" xlink:title="Optimizer/Optimizer.hpp">
<polygon fill="#ffffff" stroke="#000000" points="2233.5,-140 2233.5,-159 2369.5,-159 2369.5,-140 2233.5,-140"/>
<text text-anchor="middle" x="2301.5" y="-147" font-family="Helvetica,sans-Serif" font-size="10.00" fill="#000000">Optimizer/Optimizer.hpp</text>
</a>
</g>
</g>
<!-- Node5&#45;&gt;Node86 -->
<g id="edge21" class="edge">
<title>Node5&#45;&gt;Node86</title>
<path fill="none" stroke="#191970" d="M1548.0456,-207.9706C1676.8187,-202.2222 1953.7091,-188.1904 2186.5,-165 2202.838,-163.3724 2220.4288,-161.2102 2236.8189,-159.0187"/>
<polygon fill="#191970" stroke="#191970" points="1547.7486,-204.4802 1537.9133,-208.4194 1548.0584,-211.4734 1547.7486,-204.4802"/>
</g>
<!-- Node5&#45;&gt;Node50 -->
<g id="edge24" class="edge">
<title>Node5&#45;&gt;Node50</title>
<path fill="none" stroke="#191970" d="M1467.017,-192.2037C1457.8007,-174.1187 1441.2841,-147.5782 1418.5,-134 1394.4724,-119.6807 1231.9417,-100.6674 1133.0092,-90.2109"/>
<polygon fill="#191970" stroke="#191970" points="1463.8816,-193.7596 1471.3797,-201.2449 1470.186,-190.7175 1463.8816,-193.7596"/>
</g>
<!-- Node5&#45;&gt;Node87 -->
<g id="edge26" class="edge">
<title>Node5&#45;&gt;Node87</title>
<path fill="none" stroke="#191970" d="M1520.6389,-198.7707C1563.7458,-187.092 1627.8197,-169.7328 1667.2803,-159.0419"/>
<polygon fill="#191970" stroke="#191970" points="1519.7055,-195.3974 1510.9688,-201.3906 1521.5361,-202.1538 1519.7055,-195.3974"/>
</g>
<!-- Node88 -->
<g id="node21" class="node">
<title>Node88</title>
<g id="a_node21"><a xlink:href="UpdatePTreeParameter_8hpp.html" target="_top" xlink:title="This file contains functions which will update parameters&#39; value, range etc. ">
<polygon fill="#ffffff" stroke="#ff0000" points="1233.5,-140 1233.5,-159 1409.5,-159 1409.5,-140 1233.5,-140"/>
<text text-anchor="middle" x="1321.5" y="-147" font-family="Helvetica,sans-Serif" font-size="10.00" fill="#000000">Tools/UpdatePTreeParameter.hpp</text>
</a>
</g>
</g>
<!-- Node5&#45;&gt;Node88 -->
<g id="edge27" class="edge">
<title>Node5&#45;&gt;Node88</title>
<path fill="none" stroke="#191970" d="M1442.065,-197.6477C1412.9041,-186.0023 1371.3188,-169.3952 1345.3935,-159.0419"/>
<polygon fill="#191970" stroke="#191970" points="1440.8526,-200.9323 1451.4375,-201.3906 1443.4487,-194.4315 1440.8526,-200.9323"/>
</g>
<!-- Node6&#45;&gt;Node18 -->
<g id="edge3" class="edge">
<title>Node6&#45;&gt;Node18</title>
<path fill="none" stroke="#191970" d="M432.3124,-129.6079C431.5725,-117.214 430.6538,-101.8263 430.072,-92.0817"/>
<polygon fill="#191970" stroke="#191970" points="428.8371,-130.1269 432.9269,-139.9005 435.8246,-129.7097 428.8371,-130.1269"/>
</g>
<!-- Node54 -->
<g id="node6" class="node">
<title>Node54</title>
<g id="a_node6"><a xlink:href="EvtGenIF_8hpp.html" target="_top" xlink:title="Physics/EvtGen/EvtGenIF.hpp">
<polygon fill="#ffffff" stroke="#ff0000" points="193.5,-73 193.5,-92 351.5,-92 351.5,-73 193.5,-73"/>
<text text-anchor="middle" x="272.5" y="-80" font-family="Helvetica,sans-Serif" font-size="10.00" fill="#000000">Physics/EvtGen/EvtGenIF.hpp</text>
</a>
</g>
</g>
<!-- Node19&#45;&gt;Node54 -->
<g id="edge5" class="edge">
<title>Node19&#45;&gt;Node54</title>
<path fill="none" stroke="#191970" d="M242.7536,-131.1099C250.4827,-118.4795 260.4301,-102.2241 266.6366,-92.0817"/>
<polygon fill="#191970" stroke="#191970" points="239.6086,-129.544 237.3743,-139.9005 245.5794,-133.1977 239.6086,-129.544"/>
</g>
<!-- Node42&#45;&gt;Node43 -->
<g id="edge7" class="edge">
<title>Node42&#45;&gt;Node43</title>
<path fill="none" stroke="#191970" d="M2021.0183,-133.9314C1735.6923,-100.1708 1658.4103,-138.0306 1377.5,-98 1374.3087,-97.5452 1371.0452,-97.014 1367.7604,-96.4274"/>
<polygon fill="#191970" stroke="#191970" points="2020.9103,-137.4436 2031.2567,-135.1629 2021.7462,-130.4937 2020.9103,-137.4436"/>
</g>
<!-- Node42&#45;&gt;Node44 -->
<g id="edge9" class="edge">
<title>Node42&#45;&gt;Node44</title>
<path fill="none" stroke="#191970" d="M2104.5,-124.0249C2104.5,-115.128 2104.5,-105.4287 2104.5,-97.6432"/>
<polygon fill="#191970" stroke="#191970" points="2101.0001,-124.2966 2104.5,-134.2967 2108.0001,-124.2967 2101.0001,-124.2966"/>
</g>
<!-- Node14 -->
<g id="node9" class="node">
<title>Node14</title>
<g id="a_node9"><a xlink:href="DalitzFitApp_8cpp.html" target="_top" xlink:title="Simple Dalitz plot analysis with ComPWA. ">
<polygon fill="#ffffff" stroke="#000000" points="860,-.5 860,-30.5 967,-30.5 967,-.5 860,-.5"/>
<text text-anchor="start" x="868" y="-18.5" font-family="Helvetica,sans-Serif" font-size="10.00" fill="#000000">Examples/DalitzFit</text>
<text text-anchor="middle" x="913.5" y="-7.5" font-family="Helvetica,sans-Serif" font-size="10.00" fill="#000000">/DalitzFitApp.cpp</text>
</a>
</g>
</g>
<!-- Node43&#45;&gt;Node14 -->
<g id="edge8" class="edge">
<title>Node43&#45;&gt;Node14</title>
<path fill="none" stroke="#191970" d="M1243.0165,-71.1111C1165.1858,-57.9759 1038.796,-36.6457 967.2851,-24.5771"/>
<polygon fill="#191970" stroke="#191970" points="1242.7537,-74.6162 1253.1968,-72.8292 1243.9187,-67.7138 1242.7537,-74.6162"/>
</g>
<!-- Node55&#45;&gt;Node14 -->
<g id="edge11" class="edge">
<title>Node55&#45;&gt;Node14</title>
<path fill="none" stroke="#191970" d="M817.1489,-67.9839C837.4717,-56.9138 865.3738,-41.7151 885.9227,-30.5218"/>
<polygon fill="#191970" stroke="#191970" points="815.2303,-65.0434 808.1229,-72.9005 818.5788,-71.1906 815.2303,-65.0434"/>
</g>
<!-- Node29 -->
<g id="node12" class="node">
<title>Node29</title>
<g id="a_node12"><a xlink:href="BuilderXML_8cpp.html" target="_top" xlink:title="Physics/BuilderXML.cpp">
<polygon fill="#ffffff" stroke="#000000" points="518,-6 518,-25 649,-25 649,-6 518,-6"/>
<text text-anchor="middle" x="583.5" y="-13" font-family="Helvetica,sans-Serif" font-size="10.00" fill="#000000">Physics/BuilderXML.cpp</text>
</a>
</g>
</g>
<!-- Node55&#45;&gt;Node29 -->
<g id="edge12" class="edge">
<title>Node55&#45;&gt;Node29</title>
<path fill="none" stroke="#191970" d="M751.1034,-69.7484C710.8814,-56.7297 649.3539,-36.815 613.103,-25.0817"/>
<polygon fill="#191970" stroke="#191970" points="750.2501,-73.151 760.8419,-72.9005 752.4057,-66.4911 750.2501,-73.151"/>
</g>
<!-- Node13&#45;&gt;Node14 -->
<g id="edge18" class="edge">
<title>Node13&#45;&gt;Node14</title>
<path fill="none" stroke="#191970" d="M1375.5336,-66.932C1221.539,-43.4767 1051.7807,-27.3463 967.1667,-19.9698"/>
<polygon fill="#191970" stroke="#191970" points="1375.2373,-70.4275 1385.653,-68.4876 1376.3009,-63.5088 1375.2373,-70.4275"/>
</g>
<!-- Node13&#45;&gt;Node16 -->
<g id="edge19" class="edge">
<title>Node13&#45;&gt;Node16</title>
<path fill="none" stroke="#191970" d="M1485.1246,-61.3469C1499.5578,-51.3776 1516.4467,-39.7121 1529.5763,-30.6432"/>
<polygon fill="#191970" stroke="#191970" points="1482.7497,-58.7335 1476.5108,-67.2967 1486.728,-64.4932 1482.7497,-58.7335"/>
</g>
<!-- Node86&#45;&gt;Node13 -->
<g id="edge23" class="edge">
<title>Node86&#45;&gt;Node13</title>
<path fill="none" stroke="#191970" d="M2246.522,-138.172C2237.5206,-136.5871 2228.2711,-135.1201 2219.5,-134 1963.8361,-101.3499 1657.2865,-88.6283 1523.0813,-84.3673"/>
<polygon fill="#191970" stroke="#191970" points="2246.0749,-141.6481 2256.5406,-139.9991 2247.3309,-134.7617 2246.0749,-141.6481"/>
</g>
<!-- Node11 -->
<g id="node18" class="node">
<title>Node11</title>
<g id="a_node18"><a xlink:href="GenevaIF_8hpp.html" target="_top" xlink:title="This class provides a wrapper around the Geneva library. ">
<polygon fill="#ffffff" stroke="#ff0000" points="2214,-73 2214,-92 2387,-92 2387,-73 2214,-73"/>
<text text-anchor="middle" x="2300.5" y="-80" font-family="Helvetica,sans-Serif" font-size="10.00" fill="#000000">Optimizer/Geneva/GenevaIF.hpp</text>
</a>
</g>
</g>
<!-- Node86&#45;&gt;Node11 -->
<g id="edge22" class="edge">
<title>Node86&#45;&gt;Node11</title>
<path fill="none" stroke="#191970" d="M2301.2031,-129.6079C2301.0181,-117.214 2300.7885,-101.8263 2300.643,-92.0817"/>
<polygon fill="#191970" stroke="#191970" points="2297.7078,-129.9539 2301.3567,-139.9005 2304.707,-129.8494 2297.7078,-129.9539"/>
</g>
<!-- Node50&#45;&gt;Node14 -->
<g id="edge25" class="edge">
<title>Node50&#45;&gt;Node14</title>
<path fill="none" stroke="#191970" d="M1026.7921,-68.5809C1003.0676,-57.4653 969.884,-41.9177 945.5614,-30.5218"/>
<polygon fill="#191970" stroke="#191970" points="1025.4713,-71.8271 1036.0116,-72.9005 1028.4412,-65.4884 1025.4713,-71.8271"/>
</g>
<!-- Node45&#45;&gt;Node43 -->
<g id="edge30" class="edge">
<title>Node45&#45;&gt;Node43</title>
<path fill="none" stroke="#191970" d="M1033.9415,-133.9706C1101.2552,-121.4428 1194.1596,-104.1522 1253.2876,-93.1479"/>
<polygon fill="#191970" stroke="#191970" points="1032.9761,-130.5901 1023.7853,-135.8608 1034.2569,-137.4719 1032.9761,-130.5901"/>
</g>
<!-- Node45&#45;&gt;Node14 -->
<g id="edge31" class="edge">
<title>Node45&#45;&gt;Node14</title>
<path fill="none" stroke="#191970" d="M943.6539,-124.706C936.0579,-97.1962 924.0401,-53.6723 917.714,-30.7614"/>
<polygon fill="#191970" stroke="#191970" points="940.2921,-125.6813 946.3276,-134.389 947.0396,-123.8181 940.2921,-125.6813"/>
</g>
<!-- Node45&#45;&gt;Node50 -->
<g id="edge35" class="edge">
<title>Node45&#45;&gt;Node50</title>
<path fill="none" stroke="#191970" d="M982.8625,-129.0445C1002.2974,-116.7601 1026.1199,-101.7025 1041.3057,-92.1039"/>
<polygon fill="#191970" stroke="#191970" points="980.8714,-126.1624 974.2885,-134.4639 984.6115,-132.0795 980.8714,-126.1624"/>
</g>
<!-- Node45&#45;&gt;Node46 -->
<g id="edge32" class="edge">
<title>Node45&#45;&gt;Node46</title>
<path fill="none" stroke="#191970" d="M873.1583,-132.2844C815.5958,-119.4715 739.165,-102.4587 692.2029,-92.0053"/>
<polygon fill="#191970" stroke="#191970" points="872.4281,-135.7075 882.9497,-134.4639 873.9491,-128.8747 872.4281,-135.7075"/>
</g>
<!-- Node46&#45;&gt;Node14 -->
<g id="edge33" class="edge">
<title>Node46&#45;&gt;Node14</title>
<path fill="none" stroke="#191970" d="M697.0027,-70.4444C742.7443,-58.8357 811.8396,-41.3002 859.6137,-29.1757"/>
<polygon fill="#191970" stroke="#191970" points="695.8761,-67.1193 687.0444,-72.9717 697.5981,-73.9042 695.8761,-67.1193"/>
</g>
<!-- Node46&#45;&gt;Node29 -->
<g id="edge34" class="edge">
<title>Node46&#45;&gt;Node29</title>
<path fill="none" stroke="#191970" d="M632.8311,-65.5785C620.2077,-52.7639 603.3215,-35.6218 592.9386,-25.0817"/>
<polygon fill="#191970" stroke="#191970" points="630.5327,-68.2327 640.0438,-72.9005 635.5195,-63.3203 630.5327,-68.2327"/>
</g>
<!-- Node73&#45;&gt;Node18 -->
<g id="edge41" class="edge">
<title>Node73&#45;&gt;Node18</title>
<path fill="none" stroke="#191970" d="M528.3395,-135.0575C503.8902,-122.0567 468.65,-103.3179 447.5192,-92.0817"/>
<polygon fill="#191970" stroke="#191970" points="526.9747,-138.2958 537.4473,-139.9005 530.2612,-132.1152 526.9747,-138.2958"/>
</g>
<!-- Node73&#45;&gt;Node54 -->
<g id="edge40" class="edge">
<title>Node73&#45;&gt;Node54</title>
<path fill="none" stroke="#191970" d="M508.6809,-137.4977C503.8946,-136.3024 499.1022,-135.1184 494.5,-134 432.0249,-118.8178 359.414,-102.1591 314.708,-92.0157"/>
<polygon fill="#191970" stroke="#191970" points="507.8823,-140.9058 518.4339,-139.9498 509.5892,-134.1171 507.8823,-140.9058"/>
</g>
<!-- Node73&#45;&gt;Node14 -->
<g id="edge37" class="edge">
<title>Node73&#45;&gt;Node14</title>
<path fill="none" stroke="#191970" d="M554.235,-129.7564C554.187,-110.8367 557.3714,-82.8804 574.5,-67 595.0993,-47.9018 769.6093,-28.9696 859.8736,-20.3408"/>
<polygon fill="#191970" stroke="#191970" points="550.7429,-130.0573 554.5712,-139.9363 557.7391,-129.8262 550.7429,-130.0573"/>
</g>
<!-- Node73&#45;&gt;Node29 -->
<g id="edge39" class="edge">
<title>Node73&#45;&gt;Node29</title>
<path fill="none" stroke="#191970" d="M546.8253,-130.1413C540.4485,-113.1109 534.0745,-87.854 541.5,-67 547.5373,-50.0446 561.8128,-34.6297 572.0444,-25.174"/>
<polygon fill="#191970" stroke="#191970" points="543.6537,-131.6328 550.6728,-139.569 550.1348,-128.9879 543.6537,-131.6328"/>
</g>
<!-- Node73&#45;&gt;Node46 -->
<g id="edge38" class="edge">
<title>Node73&#45;&gt;Node46</title>
<path fill="none" stroke="#191970" d="M577.232,-134.0102C595.391,-121.067 620.7114,-103.0195 636.0571,-92.0817"/>
<polygon fill="#191970" stroke="#191970" points="575.0796,-131.2462 568.9679,-139.9005 579.1426,-136.9464 575.0796,-131.2462"/>
</g>
<!-- Node75 -->
<g id="node25" class="node">
<title>Node75</title>
<g id="a_node25"><a xlink:href="Integration_8cpp.html" target="_top" xlink:title="Tools/Integration.cpp">
<polygon fill="#ffffff" stroke="#000000" points="57.5,-73 57.5,-92 175.5,-92 175.5,-73 57.5,-73"/>
<text text-anchor="middle" x="116.5" y="-80" font-family="Helvetica,sans-Serif" font-size="10.00" fill="#000000">Tools/Integration.cpp</text>
</a>
</g>
</g>
<!-- Node73&#45;&gt;Node75 -->
<g id="edge42" class="edge">
<title>Node73&#45;&gt;Node75</title>
<path fill="none" stroke="#191970" d="M511.2168,-137.5142C505.6141,-136.2145 499.9401,-135.0024 494.5,-134 358.0927,-108.8648 321.2075,-121.4473 184.5,-98 174.8334,-96.342 164.4762,-94.1815 154.8333,-92.0024"/>
<polygon fill="#191970" stroke="#191970" points="510.6157,-140.9697 521.1586,-139.9218 512.2633,-134.1664 510.6157,-140.9697"/>
</g>
<!-- Node77&#45;&gt;Node14 -->
<g id="edge44" class="edge">
<title>Node77&#45;&gt;Node14</title>
<path fill="none" stroke="#191970" d="M858.1364,-191.2092C859.7819,-175.4674 862.9022,-153.0071 868.5,-134 873.4465,-117.2042 878.036,-114.2722 884.5,-98 893.748,-74.7192 903.122,-47.1766 908.6177,-30.5373"/>
<polygon fill="#191970" stroke="#191970" points="854.6356,-191.0553 857.1846,-201.3389 861.6049,-191.7102 854.6356,-191.0553"/>
</g>
<!-- Node91&#45;&gt;Node42 -->
<g id="edge47" class="edge">
<title>Node91&#45;&gt;Node42</title>
<path fill="none" stroke="#191970" d="M2260.9744,-198.3486C2229.5506,-188.5386 2185.9052,-174.9133 2152.6916,-164.5446"/>
<polygon fill="#191970" stroke="#191970" points="2260.1301,-201.7515 2270.7188,-201.3906 2262.2161,-195.0696 2260.1301,-201.7515"/>
</g>
<!-- Node91&#45;&gt;Node43 -->
<g id="edge50" class="edge">
<title>Node91&#45;&gt;Node43</title>
<path fill="none" stroke="#191970" d="M2275.0741,-196.4859C2259.9302,-187.857 2240.7614,-176.3994 2224.5,-165 2206.6525,-152.4888 2206.8649,-141.7675 2186.5,-134 2018.3595,-69.8688 1555.7963,-122.382 1377.5,-98 1374.3062,-97.5632 1371.0407,-97.0462 1367.7543,-96.4707"/>
<polygon fill="#191970" stroke="#191970" points="2273.4902,-199.6108 2283.9211,-201.4672 2276.9246,-193.5111 2273.4902,-199.6108"/>
</g>
<!-- Node91&#45;&gt;Node44 -->
<g id="edge51" class="edge">
<title>Node91&#45;&gt;Node44</title>
<path fill="none" stroke="#191970" d="M2340.8459,-197.2109C2355.3484,-189.9946 2370.2414,-179.5537 2378.5,-165 2385.2998,-153.0171 2387.2966,-144.6041 2378.5,-134 2371.5757,-125.653 2240.0132,-103.746 2161.7495,-91.3606"/>
<polygon fill="#191970" stroke="#191970" points="2339.0917,-194.1641 2331.4458,-201.4983 2341.9966,-200.5329 2339.0917,-194.1641"/>
</g>
<!-- Node91&#45;&gt;Node84 -->
<g id="edge53" class="edge">
<title>Node91&#45;&gt;Node84</title>
<path fill="none" stroke="#191970" d="M2230.4624,-199.8551C2156.0471,-188.1802 2040.4086,-170.038 1970.14,-159.0137"/>
<polygon fill="#191970" stroke="#191970" points="2230.2584,-203.3658 2240.6801,-201.4581 2231.3434,-196.4504 2230.2584,-203.3658"/>
</g>
<!-- Node91&#45;&gt;Node86 -->
<g id="edge56" class="edge">
<title>Node91&#45;&gt;Node86</title>
<path fill="none" stroke="#191970" d="M2301.5,-191.2462C2301.5,-180.5519 2301.5,-167.814 2301.5,-159.2449"/>
<polygon fill="#191970" stroke="#191970" points="2298.0001,-191.3906 2301.5,-201.3906 2305.0001,-191.3907 2298.0001,-191.3906"/>
</g>
<!-- Node91&#45;&gt;Node11 -->
<g id="edge52" class="edge">
<title>Node91&#45;&gt;Node11</title>
<path fill="none" stroke="#191970" d="M2366.116,-198.0631C2383.7836,-191.2445 2400.9502,-180.8468 2411.5,-165 2419.1351,-153.5313 2418.914,-145.6129 2411.5,-134 2397.4963,-112.0652 2371.4781,-99.3303 2348.1502,-92.0134"/>
<polygon fill="#191970" stroke="#191970" points="2364.5751,-194.8938 2356.288,-201.4948 2366.8828,-201.5025 2364.5751,-194.8938"/>
</g>
<!-- Node92 -->
<g id="node29" class="node">
<title>Node92</title>
<g id="a_node29"><a xlink:href="ChiOneD_8hpp.html" target="_top" xlink:title="This class calculates a simple &#160;of a intensity and a dataset. ">
<polygon fill="#ffffff" stroke="#000000" points="2501.5,-134.5 2501.5,-164.5 2649.5,-164.5 2649.5,-134.5 2501.5,-134.5"/>
<text text-anchor="start" x="2509.5" y="-152.5" font-family="Helvetica,sans-Serif" font-size="10.00" fill="#000000">Estimator/ChiOneD/ChiOne</text>
<text text-anchor="middle" x="2575.5" y="-141.5" font-family="Helvetica,sans-Serif" font-size="10.00" fill="#000000">D.hpp</text>
</a>
</g>
</g>
<!-- Node91&#45;&gt;Node92 -->
<g id="edge48" class="edge">
<title>Node91&#45;&gt;Node92</title>
<path fill="none" stroke="#191970" d="M2353.9241,-199.2333C2397.8988,-189.363 2460.9703,-175.2065 2508.5847,-164.5193"/>
<polygon fill="#191970" stroke="#191970" points="2353.0026,-195.853 2344.0119,-201.4581 2354.5356,-202.683 2353.0026,-195.853"/>
</g>
<!-- Node93 -->
<g id="node30" class="node">
<title>Node93</title>
<g id="a_node30"><a xlink:href="MinuitFcn_8hpp.html" target="_top" xlink:title="Optimizer/Minuit2/Minuit\lFcn.hpp">
<polygon fill="#ffffff" stroke="#000000" points="2405,-67.5 2405,-97.5 2542,-97.5 2542,-67.5 2405,-67.5"/>
<text text-anchor="start" x="2413" y="-85.5" font-family="Helvetica,sans-Serif" font-size="10.00" fill="#000000">Optimizer/Minuit2/Minuit</text>
<text text-anchor="middle" x="2473.5" y="-74.5" font-family="Helvetica,sans-Serif" font-size="10.00" fill="#000000">Fcn.hpp</text>
</a>
</g>
</g>
<!-- Node91&#45;&gt;Node93 -->
<g id="edge54" class="edge">
<title>Node91&#45;&gt;Node93</title>
<path fill="none" stroke="#191970" d="M2361.341,-198.5937C2383.963,-191.624 2408.7464,-180.9925 2427.5,-165 2448.8372,-146.8043 2462.1936,-116.1069 2468.7108,-97.7278"/>
<polygon fill="#191970" stroke="#191970" points="2360.0986,-195.3096 2351.4666,-201.4529 2362.0455,-202.0334 2360.0986,-195.3096"/>
</g>
<!-- Node92&#45;&gt;Node90 -->
<g id="edge49" class="edge">
<title>Node92&#45;&gt;Node90</title>
<path fill="none" stroke="#191970" d="M2601.4333,-127.7808C2613.1856,-117.9383 2626.7944,-106.541 2637.4186,-97.6432"/>
<polygon fill="#191970" stroke="#191970" points="2599.0725,-125.1927 2593.6532,-134.2967 2603.567,-130.5592 2599.0725,-125.1927"/>
</g>
<!-- Node93&#45;&gt;Node16 -->
<g id="edge55" class="edge">
<title>Node93&#45;&gt;Node16</title>
<path fill="none" stroke="#191970" d="M2394.7747,-66.8794C2102.0342,-29.3522 1763.0279,-19.2291 1620.2606,-16.4862"/>
<polygon fill="#191970" stroke="#191970" points="2394.3646,-70.3554 2404.7313,-68.1687 2395.2636,-63.4134 2394.3646,-70.3554"/>
</g>
<!-- Node94&#45;&gt;Node18 -->
<g id="edge61" class="edge">
<title>Node94&#45;&gt;Node18</title>
<path fill="none" stroke="#191970" d="M639.2568,-137.3973C589.6253,-124.4078 511.7909,-104.0371 466.1956,-92.1039"/>
<polygon fill="#191970" stroke="#191970" points="638.533,-140.8257 649.0933,-139.9717 640.3053,-134.0537 638.533,-140.8257"/>
</g>
<!-- Node94&#45;&gt;Node14 -->
<g id="edge59" class="edge">
<title>Node94&#45;&gt;Node14</title>
<path fill="none" stroke="#191970" d="M755.6499,-139.1208C788.302,-131.697 826.2862,-119.126 855.5,-98 879.9022,-80.3535 897.6961,-49.1777 906.746,-30.6184"/>
<polygon fill="#191970" stroke="#191970" points="754.7421,-135.736 745.7033,-141.2632 756.2161,-142.579 754.7421,-135.736"/>
</g>
<!-- Node94&#45;&gt;Node46 -->
<g id="edge60" class="edge">
<title>Node94&#45;&gt;Node46</title>
<path fill="none" stroke="#191970" d="M675.4186,-130.7374C668.6613,-118.1614 660.0446,-102.1246 654.6484,-92.0817"/>
<polygon fill="#191970" stroke="#191970" points="672.5257,-132.7482 680.3421,-139.9005 678.692,-129.435 672.5257,-132.7482"/>
</g>
<!-- Node95&#45;&gt;Node18 -->
<g id="edge66" class="edge">
<title>Node95&#45;&gt;Node18</title>
<path fill="none" stroke="#191970" d="M109.7165,-137.8077C116.0272,-136.4599 122.4046,-135.1562 128.5,-134 231.0171,-114.5541 257.9829,-117.4459 360.5,-98 369.7882,-96.2382 379.7314,-94.1339 389.0952,-92.0526"/>
<polygon fill="#191970" stroke="#191970" points="108.9295,-134.397 99.9048,-139.9474 110.421,-141.2363 108.9295,-134.397"/>
</g>
<!-- Node95&#45;&gt;Node54 -->
<g id="edge65" class="edge">
<title>Node95&#45;&gt;Node54</title>
<path fill="none" stroke="#191970" d="M99.7758,-136.8311C141.1581,-123.8141 204.6583,-103.8399 242.0389,-92.0817"/>
<polygon fill="#191970" stroke="#191970" points="98.5067,-133.5611 90.0177,-139.9005 100.6071,-140.2386 98.5067,-133.5611"/>
</g>
<!-- Node95&#45;&gt;Node29 -->
<g id="edge64" class="edge">
<title>Node95&#45;&gt;Node29</title>
<path fill="none" stroke="#191970" d="M49.5103,-130.7247C41.1702,-112.1707 32.9246,-84.1467 48.5,-67 79.5173,-32.8536 381.8476,-20.7309 517.8256,-16.982"/>
<polygon fill="#191970" stroke="#191970" points="46.471,-132.4775 54.0027,-139.929 52.7618,-129.4071 46.471,-132.4775"/>
</g>
<!-- Node95&#45;&gt;Node75 -->
<g id="edge67" class="edge">
<title>Node95&#45;&gt;Node75</title>
<path fill="none" stroke="#191970" d="M74.2054,-132.2147C85.0726,-119.441 99.466,-102.5224 108.3484,-92.0817"/>
<polygon fill="#191970" stroke="#191970" points="71.4807,-130.016 67.6667,-139.9005 76.8123,-134.5519 71.4807,-130.016"/>
</g>
</g>
</svg>
        <g id="navigator" transform="translate(0 0)" fill="#404254">
                <rect fill="#f2f5e9" fill-opacity="0.5" stroke="#606060" stroke-width=".5" x="0" y="0" width="60" height="60"/>
                <use id="zoomplus" xlink:href="#zoomPlus" x="17" y="9" onmousedown="handleZoom(evt,'in')"/>
                <use id="zoomminus" xlink:href="#zoomMin" x="42" y="9" onmousedown="handleZoom(evt,'out')"/>
                <use id="reset" xlink:href="#resetDef" x="30" y="36" onmousedown="handleReset()"/>
                <g id="arrowUp" xlink:href="#dirArrow" transform="translate(30 24)" onmousedown="handlePan(0,-1)">
                  <use xlink:href="#rim" fill="#404040">
                        <set attributeName="fill" to="#808080" begin="arrowUp.mouseover" end="arrowUp.mouseout"/>
                  </use>
                  <path fill="none" stroke="white" stroke-width="1.5" d="M0,-3.0v7 M-2.5,-0.5L0,-3.0L2.5,-0.5"/>
                </g>
                <g id="arrowRight" xlink:href="#dirArrow" transform="rotate(90) translate(36 -43)" onmousedown="handlePan(1,0)">
                  <use xlink:href="#rim" fill="#404040">
                        <set attributeName="fill" to="#808080" begin="arrowRight.mouseover" end="arrowRight.mouseout"/>
                  </use>
                  <path fill="none" stroke="white" stroke-width="1.5" d="M0,-3.0v7 M-2.5,-0.5L0,-3.0L2.5,-0.5"/>
                </g>
                <g id="arrowDown" xlink:href="#dirArrow" transform="rotate(180) translate(-30 -48)" onmousedown="handlePan(0,1)">
                  <use xlink:href="#rim" fill="#404040">
                        <set attributeName="fill" to="#808080" begin="arrowDown.mouseover" end="arrowDown.mouseout"/>
                  </use>
                  <path fill="none" stroke="white" stroke-width="1.5" d="M0,-3.0v7 M-2.5,-0.5L0,-3.0L2.5,-0.5"/>
                </g>
                <g id="arrowLeft" xlink:href="#dirArrow" transform="rotate(270) translate(-36 17)" onmousedown="handlePan(-1,0)">
                  <use xlink:href="#rim" fill="#404040">
                        <set attributeName="fill" to="#808080" begin="arrowLeft.mouseover" end="arrowLeft.mouseout"/>
                  </use>
                  <path fill="none" stroke="white" stroke-width="1.5" d="M0,-3.0v7 M-2.5,-0.5L0,-3.0L2.5,-0.5"/>
                </g>
        </g>
        <svg viewBox="0 0 15 15" width="100%" height="30px" preserveAspectRatio="xMaxYMin meet">
         <g id="arrow_out" transform="scale(0.3 0.3)">
          <a xlink:href="Function_8hpp__dep__incl_org.svg" target="_base">
           <rect id="button" ry="5" rx="5" y="6" x="6" height="38" width="38"
                fill="#f2f5e9" fill-opacity="0.5" stroke="#606060" stroke-width="1.0"/>
           <path id="arrow"
             d="M 11.500037,31.436501 C 11.940474,20.09759 22.043105,11.32322 32.158766,21.979434 L 37.068811,17.246167 C 37.068811,17.246167 37.088388,32 37.088388,32 L 22.160133,31.978069 C 22.160133,31.978069 26.997745,27.140456 26.997745,27.140456 C 18.528582,18.264221 13.291696,25.230495 11.500037,31.436501 z"
             style="fill:#404040;"/>
          </a>
         </g>
        </svg>
</svg>
