<?xml version="1.0" encoding="UTF-8" standalone="no"?>
<!DOCTYPE svg PUBLIC "-//W3C//DTD SVG 1.1//EN"
 "http://www.w3.org/Graphics/SVG/1.1/DTD/svg11.dtd">
<!-- Generated by graphviz version 2.38.0 (20140413.2041)
 -->
<!-- Title: /home/travis/build/ComPWA/ComPWA/Core/FunctionTree/FunctionTreeEstimator.hpp Pages: 1 -->
<svg width="1286pt" height="295pt"
 viewBox="0.00 0.00 1285.50 295.00" xmlns="http://www.w3.org/2000/svg" xmlns:xlink="http://www.w3.org/1999/xlink">
<g id="graph0" class="graph" transform="scale(1 1) rotate(0) translate(4 291)">
<title>/home/travis/build/ComPWA/ComPWA/Core/FunctionTree/FunctionTreeEstimator.hpp</title>
<polygon fill="white" stroke="none" points="-4,4 -4,-291 1281.5,-291 1281.5,4 -4,4"/>
<!-- Node1 -->
<g id="node1" class="node"><title>Node1</title>
<polygon fill="#bfbfbf" stroke="black" points="169.5,-245.5 169.5,-286.5 377.5,-286.5 377.5,-245.5 169.5,-245.5"/>
<text text-anchor="start" x="177.5" y="-274.5" font-family="Helvetica,sans-Serif" font-size="10.00">/home/travis/build</text>
<text text-anchor="start" x="177.5" y="-263.5" font-family="Helvetica,sans-Serif" font-size="10.00">/ComPWA/ComPWA/Core</text>
<text text-anchor="middle" x="273.5" y="-252.5" font-family="Helvetica,sans-Serif" font-size="10.00">/FunctionTree/FunctionTreeEstimator.hpp</text>
</g>
<!-- Node2 -->
<g id="node2" class="node"><title>Node2</title>
<g id="a_node2"><a xlink:href="FunctionTreeEstimator_8cpp.html" target="_top" xlink:title="/home/travis/build\l/ComPWA/ComPWA/Core\l/FunctionTree/FunctionTreeEstimator.cpp">
<polygon fill="white" stroke="black" points="0,-167.5 0,-208.5 207,-208.5 207,-167.5 0,-167.5"/>
<text text-anchor="start" x="8" y="-196.5" font-family="Helvetica,sans-Serif" font-size="10.00">/home/travis/build</text>
<text text-anchor="start" x="8" y="-185.5" font-family="Helvetica,sans-Serif" font-size="10.00">/ComPWA/ComPWA/Core</text>
<text text-anchor="middle" x="103.5" y="-174.5" font-family="Helvetica,sans-Serif" font-size="10.00">/FunctionTree/FunctionTreeEstimator.cpp</text>
</a>
</g>
</g>
<!-- Node1&#45;&gt;Node2 -->
<g id="edge1" class="edge"><title>Node1&#45;&gt;Node2</title>
<path fill="none" stroke="midnightblue" d="M220.552,-241.329C196.963,-230.783 169.516,-218.513 147.131,-208.506"/>
<polygon fill="midnightblue" stroke="midnightblue" points="219.163,-244.542 229.721,-245.428 222.02,-238.152 219.163,-244.542"/>
</g>
<!-- Node3 -->
<g id="node3" class="node"><title>Node3</title>
<g id="a_node3"><a xlink:href="FunctionTreeIntensity_8hpp.html" target="_top" xlink:title="/home/travis/build\l/ComPWA/ComPWA/Core\l/FunctionTree/FunctionTreeIntensity.hpp">
<polygon fill="white" stroke="black" points="526,-167.5 526,-208.5 727,-208.5 727,-167.5 526,-167.5"/>
<text text-anchor="start" x="534" y="-196.5" font-family="Helvetica,sans-Serif" font-size="10.00">/home/travis/build</text>
<text text-anchor="start" x="534" y="-185.5" font-family="Helvetica,sans-Serif" font-size="10.00">/ComPWA/ComPWA/Core</text>
<text text-anchor="middle" x="626.5" y="-174.5" font-family="Helvetica,sans-Serif" font-size="10.00">/FunctionTree/FunctionTreeIntensity.hpp</text>
</a>
</g>
</g>
<!-- Node1&#45;&gt;Node3 -->
<g id="edge2" class="edge"><title>Node1&#45;&gt;Node3</title>
<path fill="none" stroke="midnightblue" d="M374.439,-243.268C425.325,-232.312 486.541,-219.133 535.902,-208.506"/>
<polygon fill="midnightblue" stroke="midnightblue" points="373.446,-239.902 364.406,-245.428 374.919,-246.745 373.446,-239.902"/>
</g>
<!-- Node5 -->
<g id="node5" class="node"><title>Node5</title>
<g id="a_node5"><a xlink:href="MinLogLH_8hpp.html" target="_top" xlink:title="/home/travis/build\l/ComPWA/ComPWA/Estimator\l/MinLogLH/MinLogLH.hpp">
<polygon fill="white" stroke="red" points="301.5,-89.5 301.5,-130.5 459.5,-130.5 459.5,-89.5 301.5,-89.5"/>
<text text-anchor="start" x="309.5" y="-118.5" font-family="Helvetica,sans-Serif" font-size="10.00">/home/travis/build</text>
<text text-anchor="start" x="309.5" y="-107.5" font-family="Helvetica,sans-Serif" font-size="10.00">/ComPWA/ComPWA/Estimator</text>
<text text-anchor="middle" x="380.5" y="-96.5" font-family="Helvetica,sans-Serif" font-size="10.00">/MinLogLH/MinLogLH.hpp</text>
</a>
</g>
</g>
<!-- Node1&#45;&gt;Node5 -->
<g id="edge20" class="edge"><title>Node1&#45;&gt;Node5</title>
<path fill="none" stroke="midnightblue" d="M292.982,-236.961C314.311,-206.263 347.968,-157.821 366.72,-130.832"/>
<polygon fill="midnightblue" stroke="midnightblue" points="289.883,-235.286 287.052,-245.496 295.632,-239.281 289.883,-235.286"/>
</g>
<!-- Node9 -->
<g id="node9" class="node"><title>Node9</title>
<g id="a_node9"><a xlink:href="SimFit_8cpp.html" target="_top" xlink:title="/home/travis/build\l/ComPWA/ComPWA/Examples\l/SimFit/SimFit.cpp">
<polygon fill="white" stroke="black" points="301.5,-6 301.5,-47 459.5,-47 459.5,-6 301.5,-6"/>
<text text-anchor="start" x="309.5" y="-35" font-family="Helvetica,sans-Serif" font-size="10.00">/home/travis/build</text>
<text text-anchor="start" x="309.5" y="-24" font-family="Helvetica,sans-Serif" font-size="10.00">/ComPWA/ComPWA/Examples</text>
<text text-anchor="middle" x="380.5" y="-13" font-family="Helvetica,sans-Serif" font-size="10.00">/SimFit/SimFit.cpp</text>
</a>
</g>
</g>
<!-- Node1&#45;&gt;Node9 -->
<g id="edge24" class="edge"><title>Node1&#45;&gt;Node9</title>
<path fill="none" stroke="midnightblue" d="M269.603,-235.296C266.261,-198.321 265.583,-134.502 292.5,-89 303.034,-71.1931 320.977,-57.2659 337.924,-47.2018"/>
<polygon fill="midnightblue" stroke="midnightblue" points="266.139,-235.829 270.646,-245.417 273.102,-235.111 266.139,-235.829"/>
</g>
<!-- Node13 -->
<g id="node13" class="node"><title>Node13</title>
<g id="a_node13"><a xlink:href="SumMinLogLH_8hpp.html" target="_top" xlink:title="/home/travis/build\l/ComPWA/ComPWA/Estimator\l/MinLogLH/SumMinLogLH.hpp">
<polygon fill="white" stroke="black" points="87,-89.5 87,-130.5 246,-130.5 246,-89.5 87,-89.5"/>
<text text-anchor="start" x="95" y="-118.5" font-family="Helvetica,sans-Serif" font-size="10.00">/home/travis/build</text>
<text text-anchor="start" x="95" y="-107.5" font-family="Helvetica,sans-Serif" font-size="10.00">/ComPWA/ComPWA/Estimator</text>
<text text-anchor="middle" x="166.5" y="-96.5" font-family="Helvetica,sans-Serif" font-size="10.00">/MinLogLH/SumMinLogLH.hpp</text>
</a>
</g>
</g>
<!-- Node1&#45;&gt;Node13 -->
<g id="edge21" class="edge"><title>Node1&#45;&gt;Node13</title>
<path fill="none" stroke="midnightblue" d="M258.324,-236.245C247.327,-216.234 231.613,-189.258 215.5,-167 206.334,-154.338 194.886,-141.135 185.36,-130.731"/>
<polygon fill="midnightblue" stroke="midnightblue" points="255.329,-238.064 263.178,-245.181 261.481,-234.723 255.329,-238.064"/>
</g>
<!-- Node4 -->
<g id="node4" class="node"><title>Node4</title>
<g id="a_node4"><a xlink:href="FunctionTreeIntensity_8cpp.html" target="_top" xlink:title="/home/travis/build\l/ComPWA/ComPWA/Core\l/FunctionTree/FunctionTreeIntensity.cpp">
<polygon fill="white" stroke="black" points="1077.5,-89.5 1077.5,-130.5 1277.5,-130.5 1277.5,-89.5 1077.5,-89.5"/>
<text text-anchor="start" x="1085.5" y="-118.5" font-family="Helvetica,sans-Serif" font-size="10.00">/home/travis/build</text>
<text text-anchor="start" x="1085.5" y="-107.5" font-family="Helvetica,sans-Serif" font-size="10.00">/ComPWA/ComPWA/Core</text>
<text text-anchor="middle" x="1177.5" y="-96.5" font-family="Helvetica,sans-Serif" font-size="10.00">/FunctionTree/FunctionTreeIntensity.cpp</text>
</a>
</g>
</g>
<!-- Node3&#45;&gt;Node4 -->
<g id="edge3" class="edge"><title>Node3&#45;&gt;Node4</title>
<path fill="none" stroke="midnightblue" d="M737.395,-174.676C826.934,-164.31 956.075,-148.422 1068.5,-131 1071.45,-130.543 1074.44,-130.069 1077.45,-129.58"/>
<polygon fill="midnightblue" stroke="midnightblue" points="736.755,-171.227 727.222,-175.85 737.557,-178.18 736.755,-171.227"/>
</g>
<!-- Node3&#45;&gt;Node5 -->
<g id="edge4" class="edge"><title>Node3&#45;&gt;Node5</title>
<path fill="none" stroke="midnightblue" d="M553.484,-164.442C518.568,-153.655 477.175,-140.867 443.636,-130.506"/>
<polygon fill="midnightblue" stroke="midnightblue" points="552.561,-167.82 563.149,-167.428 554.628,-161.132 552.561,-167.82"/>
</g>
<!-- Node7 -->
<g id="node7" class="node"><title>Node7</title>
<g id="a_node7"><a xlink:href="DalitzFitD03K_8cpp.html" target="_top" xlink:title="Executable for Dalitz plot analysis of the decay D0 &#45;&gt; K_S K+ K&#45;. ">
<polygon fill="white" stroke="black" points="692.5,-0.5 692.5,-52.5 850.5,-52.5 850.5,-0.5 692.5,-0.5"/>
<text text-anchor="start" x="700.5" y="-40.5" font-family="Helvetica,sans-Serif" font-size="10.00">/home/travis/build</text>
<text text-anchor="start" x="700.5" y="-29.5" font-family="Helvetica,sans-Serif" font-size="10.00">/ComPWA/ComPWA/Examples</text>
<text text-anchor="start" x="700.5" y="-18.5" font-family="Helvetica,sans-Serif" font-size="10.00">/DalitzAnalysis_D0KsKK</text>
<text text-anchor="middle" x="771.5" y="-7.5" font-family="Helvetica,sans-Serif" font-size="10.00">/DalitzFitD03K.cpp</text>
</a>
</g>
</g>
<!-- Node3&#45;&gt;Node7 -->
<g id="edge9" class="edge"><title>Node3&#45;&gt;Node7</title>
<path fill="none" stroke="midnightblue" d="M737.38,-173.706C789.887,-164.9 844.579,-151.18 860.5,-131 872.062,-116.345 869.171,-105.531 860.5,-89 852.648,-74.0308 839.317,-61.9856 825.33,-52.6587"/>
<polygon fill="midnightblue" stroke="midnightblue" points="736.576,-170.291 727.266,-175.348 737.698,-177.201 736.576,-170.291"/>
</g>
<!-- Node8 -->
<g id="node8" class="node"><title>Node8</title>
<g id="a_node8"><a xlink:href="DalitzFitApp_8cpp.html" target="_top" xlink:title="Simple Dalitz plot analysis with ComPWA. ">
<polygon fill="white" stroke="black" points="503.5,-6 503.5,-47 661.5,-47 661.5,-6 503.5,-6"/>
<text text-anchor="start" x="511.5" y="-35" font-family="Helvetica,sans-Serif" font-size="10.00">/home/travis/build</text>
<text text-anchor="start" x="511.5" y="-24" font-family="Helvetica,sans-Serif" font-size="10.00">/ComPWA/ComPWA/Examples</text>
<text text-anchor="middle" x="582.5" y="-13" font-family="Helvetica,sans-Serif" font-size="10.00">/DalitzFit/DalitzFitApp.cpp</text>
</a>
</g>
</g>
<!-- Node3&#45;&gt;Node8 -->
<g id="edge10" class="edge"><title>Node3&#45;&gt;Node8</title>
<path fill="none" stroke="midnightblue" d="M573.531,-161.904C561.906,-153.758 551.107,-143.512 544.5,-131 529.842,-103.24 549.56,-68.5711 565.625,-47.238"/>
<polygon fill="midnightblue" stroke="midnightblue" points="571.801,-164.954 582.093,-167.467 575.614,-159.084 571.801,-164.954"/>
</g>
<!-- Node3&#45;&gt;Node9 -->
<g id="edge11" class="edge"><title>Node3&#45;&gt;Node9</title>
<path fill="none" stroke="midnightblue" d="M584.993,-161.903C569.394,-152.355 551.556,-141.296 535.5,-131 490.965,-102.442 440.092,-68.1446 409.142,-47.0878"/>
<polygon fill="midnightblue" stroke="midnightblue" points="583.529,-165.11 593.888,-167.333 587.177,-159.136 583.529,-165.11"/>
</g>
<!-- Node10 -->
<g id="node10" class="node"><title>Node10</title>
<g id="a_node10"><a xlink:href="BuilderXML_8hpp.html" target="_top" xlink:title="/home/travis/build\l/ComPWA/ComPWA/Physics\l/BuilderXML.hpp">
<polygon fill="white" stroke="red" points="553.5,-89.5 553.5,-130.5 699.5,-130.5 699.5,-89.5 553.5,-89.5"/>
<text text-anchor="start" x="561.5" y="-118.5" font-family="Helvetica,sans-Serif" font-size="10.00">/home/travis/build</text>
<text text-anchor="start" x="561.5" y="-107.5" font-family="Helvetica,sans-Serif" font-size="10.00">/ComPWA/ComPWA/Physics</text>
<text text-anchor="middle" x="626.5" y="-96.5" font-family="Helvetica,sans-Serif" font-size="10.00">/BuilderXML.hpp</text>
</a>
</g>
</g>
<!-- Node3&#45;&gt;Node10 -->
<g id="edge12" class="edge"><title>Node3&#45;&gt;Node10</title>
<path fill="none" stroke="midnightblue" d="M626.5,-157.297C626.5,-148.301 626.5,-138.653 626.5,-130.506"/>
<polygon fill="midnightblue" stroke="midnightblue" points="623,-157.428 626.5,-167.428 630,-157.428 623,-157.428"/>
</g>
<!-- Node11 -->
<g id="node11" class="node"><title>Node11</title>
<g id="a_node11"><a xlink:href="BOSSAdapter_8hpp.html" target="_top" xlink:title="/home/travis/build\l/ComPWA/ComPWA/Tools\l/Adapters/BOSSAdapter.hpp">
<polygon fill="white" stroke="red" points="907.5,-89.5 907.5,-130.5 1059.5,-130.5 1059.5,-89.5 907.5,-89.5"/>
<text text-anchor="start" x="915.5" y="-118.5" font-family="Helvetica,sans-Serif" font-size="10.00">/home/travis/build</text>
<text text-anchor="start" x="915.5" y="-107.5" font-family="Helvetica,sans-Serif" font-size="10.00">/ComPWA/ComPWA/Tools</text>
<text text-anchor="middle" x="983.5" y="-96.5" font-family="Helvetica,sans-Serif" font-size="10.00">/Adapters/BOSSAdapter.hpp</text>
</a>
</g>
</g>
<!-- Node3&#45;&gt;Node11 -->
<g id="edge16" class="edge"><title>Node3&#45;&gt;Node11</title>
<path fill="none" stroke="midnightblue" d="M731.124,-165.358C780.416,-155.084 840.01,-142.552 893.5,-131 898.037,-130.02 902.701,-129.006 907.405,-127.977"/>
<polygon fill="midnightblue" stroke="midnightblue" points="730.164,-161.982 721.088,-167.448 731.592,-168.835 730.164,-161.982"/>
</g>
<!-- Node12 -->
<g id="node12" class="node"><title>Node12</title>
<g id="a_node12"><a xlink:href="DalitzPlot_8hpp.html" target="_top" xlink:title="/home/travis/build\l/ComPWA/ComPWA/Tools\l/Plotting/DalitzPlot.hpp">
<polygon fill="white" stroke="red" points="717.5,-89.5 717.5,-130.5 851.5,-130.5 851.5,-89.5 717.5,-89.5"/>
<text text-anchor="start" x="725.5" y="-118.5" font-family="Helvetica,sans-Serif" font-size="10.00">/home/travis/build</text>
<text text-anchor="start" x="725.5" y="-107.5" font-family="Helvetica,sans-Serif" font-size="10.00">/ComPWA/ComPWA/Tools</text>
<text text-anchor="middle" x="784.5" y="-96.5" font-family="Helvetica,sans-Serif" font-size="10.00">/Plotting/DalitzPlot.hpp</text>
</a>
</g>
</g>
<!-- Node3&#45;&gt;Node12 -->
<g id="edge17" class="edge"><title>Node3&#45;&gt;Node12</title>
<path fill="none" stroke="midnightblue" d="M676.294,-163.049C698.085,-152.566 723.328,-140.424 743.949,-130.506"/>
<polygon fill="midnightblue" stroke="midnightblue" points="674.683,-159.939 667.189,-167.428 677.718,-166.247 674.683,-159.939"/>
</g>
<!-- Node6 -->
<g id="node6" class="node"><title>Node6</title>
<g id="a_node6"><a xlink:href="SumMinLogLH_8cpp.html" target="_top" xlink:title="/home/travis/build\l/ComPWA/ComPWA/Estimator\l/MinLogLH/SumMinLogLH.cpp">
<polygon fill="white" stroke="black" points="106.5,-6 106.5,-47 264.5,-47 264.5,-6 106.5,-6"/>
<text text-anchor="start" x="114.5" y="-35" font-family="Helvetica,sans-Serif" font-size="10.00">/home/travis/build</text>
<text text-anchor="start" x="114.5" y="-24" font-family="Helvetica,sans-Serif" font-size="10.00">/ComPWA/ComPWA/Estimator</text>
<text text-anchor="middle" x="185.5" y="-13" font-family="Helvetica,sans-Serif" font-size="10.00">/MinLogLH/SumMinLogLH.cpp</text>
</a>
</g>
</g>
<!-- Node5&#45;&gt;Node6 -->
<g id="edge5" class="edge"><title>Node5&#45;&gt;Node6</title>
<path fill="none" stroke="midnightblue" d="M324.531,-85.6077C295.286,-73.3851 259.912,-58.6003 232.164,-47.0031"/>
<polygon fill="midnightblue" stroke="midnightblue" points="323.216,-88.8517 333.793,-89.4787 325.916,-82.3931 323.216,-88.8517"/>
</g>
<!-- Node5&#45;&gt;Node7 -->
<g id="edge6" class="edge"><title>Node5&#45;&gt;Node7</title>
<path fill="none" stroke="midnightblue" d="M469.67,-93.1294C527.167,-82.564 603.452,-67.9252 670.5,-53 677.649,-51.4085 685.065,-49.6824 692.482,-47.904"/>
<polygon fill="midnightblue" stroke="midnightblue" points="468.729,-89.7435 459.523,-94.9877 469.99,-96.629 468.729,-89.7435"/>
</g>
<!-- Node5&#45;&gt;Node8 -->
<g id="edge7" class="edge"><title>Node5&#45;&gt;Node8</title>
<path fill="none" stroke="midnightblue" d="M438.479,-85.6077C468.772,-73.3851 505.417,-58.6003 534.161,-47.0031"/>
<polygon fill="midnightblue" stroke="midnightblue" points="436.848,-82.4913 428.884,-89.4787 439.467,-88.9828 436.848,-82.4913"/>
</g>
<!-- Node5&#45;&gt;Node9 -->
<g id="edge8" class="edge"><title>Node5&#45;&gt;Node9</title>
<path fill="none" stroke="midnightblue" d="M380.5,-79.0646C380.5,-68.3819 380.5,-56.6303 380.5,-47.0472"/>
<polygon fill="midnightblue" stroke="midnightblue" points="377,-79.2711 380.5,-89.2711 384,-79.2712 377,-79.2711"/>
</g>
<!-- Node10&#45;&gt;Node7 -->
<g id="edge13" class="edge"><title>Node10&#45;&gt;Node7</title>
<path fill="none" stroke="midnightblue" d="M670.311,-84.3754C688.214,-74.3125 708.9,-62.6854 726.885,-52.5764"/>
<polygon fill="midnightblue" stroke="midnightblue" points="668.234,-81.5278 661.231,-89.4787 671.663,-87.63 668.234,-81.5278"/>
</g>
<!-- Node10&#45;&gt;Node8 -->
<g id="edge14" class="edge"><title>Node10&#45;&gt;Node8</title>
<path fill="none" stroke="midnightblue" d="M611.056,-80.3942C605.102,-69.365 598.442,-57.0296 593.053,-47.0472"/>
<polygon fill="midnightblue" stroke="midnightblue" points="608.018,-82.1344 615.849,-89.2711 614.178,-78.8089 608.018,-82.1344"/>
</g>
<!-- Node10&#45;&gt;Node9 -->
<g id="edge15" class="edge"><title>Node10&#45;&gt;Node9</title>
<path fill="none" stroke="midnightblue" d="M557.802,-86.2403C520.548,-73.8981 474.98,-58.8012 439.368,-47.0031"/>
<polygon fill="midnightblue" stroke="midnightblue" points="556.984,-89.6562 567.577,-89.4787 559.185,-83.0113 556.984,-89.6562"/>
</g>
<!-- Node12&#45;&gt;Node7 -->
<g id="edge18" class="edge"><title>Node12&#45;&gt;Node7</title>
<path fill="none" stroke="midnightblue" d="M779.734,-79.1211C778.345,-70.4126 776.842,-60.9894 775.505,-52.6073"/>
<polygon fill="midnightblue" stroke="midnightblue" points="776.321,-79.9473 781.353,-89.2711 783.234,-78.8446 776.321,-79.9473"/>
</g>
<!-- Node12&#45;&gt;Node8 -->
<g id="edge19" class="edge"><title>Node12&#45;&gt;Node8</title>
<path fill="none" stroke="midnightblue" d="M726.521,-85.6077C696.228,-73.3851 659.583,-58.6003 630.839,-47.0031"/>
<polygon fill="midnightblue" stroke="midnightblue" points="725.533,-88.9828 736.116,-89.4787 728.152,-82.4913 725.533,-88.9828"/>
</g>
<!-- Node13&#45;&gt;Node6 -->
<g id="edge22" class="edge"><title>Node13&#45;&gt;Node6</title>
<path fill="none" stroke="midnightblue" d="M173.401,-79.3981C175.912,-68.627 178.686,-56.7302 180.943,-47.0472"/>
<polygon fill="midnightblue" stroke="midnightblue" points="169.961,-78.7376 171.099,-89.2711 176.778,-80.3269 169.961,-78.7376"/>
</g>
<!-- Node13&#45;&gt;Node9 -->
<g id="edge23" class="edge"><title>Node13&#45;&gt;Node9</title>
<path fill="none" stroke="midnightblue" d="M227.506,-85.7663C259.68,-73.5132 298.706,-58.6505 329.289,-47.0031"/>
<polygon fill="midnightblue" stroke="midnightblue" points="225.858,-82.6488 217.758,-89.4787 228.349,-89.1904 225.858,-82.6488"/>
</g>
</g>
</svg>
