<?xml version="1.0" encoding="UTF-8" standalone="no"?>
<!DOCTYPE svg PUBLIC "-//W3C//DTD SVG 1.1//EN"
 "http://www.w3.org/Graphics/SVG/1.1/DTD/svg11.dtd">
<!-- Generated by graphviz version 2.38.0 (20140413.2041)
 -->
<!-- Title: Core/FunctionTree/FunctionTreeEstimator.hpp Pages: 1 -->
<!--zoomable 408 -->
<svg id="main" version="1.1" xmlns="http://www.w3.org/2000/svg" xmlns:xlink="http://www.w3.org/1999/xlink" xml:space="preserve" onload="init(evt)">
<style type="text/css"><![CDATA[
.edge:hover path { stroke: red; }
.edge:hover polygon { stroke: red; fill: red; }
]]></style>
<script type="text/javascript"><![CDATA[
var edges = document.getElementsByTagName('g');
if (edges && edges.length) {
  for (var i=0;i<edges.length;i++) {
    if (edges[i].id.substr(0,4)=='edge') {
      edges[i].setAttribute('class','edge');
    }
  }
}
]]></script>
        <defs>
                <circle id="rim" cx="0" cy="0" r="7"/>
                <circle id="rim2" cx="0" cy="0" r="3.5"/>
                <g id="zoomPlus">
                        <use xlink:href="#rim" fill="#404040">
                                <set attributeName="fill" to="#808080" begin="zoomplus.mouseover" end="zoomplus.mouseout"/>
                        </use>
                        <path d="M-4,0h8M0,-4v8" fill="none" stroke="white" stroke-width="1.5" pointer-events="none"/>
                </g>
                <g id="zoomMin">
                        <use xlink:href="#rim" fill="#404040">
                                <set attributeName="fill" to="#808080" begin="zoomminus.mouseover" end="zoomminus.mouseout"/>
                        </use>
                        <path d="M-4,0h8" fill="none" stroke="white" stroke-width="1.5" pointer-events="none"/>
                </g>
                <g id="dirArrow">
                        <path fill="none" stroke="white" stroke-width="1.5" d="M0,-3.0v7 M-2.5,-0.5L0,-3.0L2.5,-0.5"/>
                </g>
               <g id="resetDef">
                       <use xlink:href="#rim2" fill="#404040">
                               <set attributeName="fill" to="#808080" begin="reset.mouseover" end="reset.mouseout"/>
                       </use>
               </g>
        </defs>

<script type="text/javascript">
var viewWidth = 1465;
var viewHeight = 408;
var sectionId = 'dynsection-0';
</script>
<script xlink:href="svgpan.js"/>
<svg id="graph" class="graph">
<g id="viewport">
<title>Core/FunctionTree/FunctionTreeEstimator.hpp</title>
<polygon fill="white" stroke="none" points="-4,4 -4,-404 1461,-404 1461,4 -4,4"/>
<!-- Node1 -->
<g id="node1" class="node"><title>Node1</title>
<polygon fill="#bfbfbf" stroke="black" points="104,-369.5 104,-399.5 242,-399.5 242,-369.5 104,-369.5"/>
<text text-anchor="start" x="112" y="-387.5" font-family="Helvetica,sans-Serif" font-size="10.00">Core/FunctionTree/Function</text>
<text text-anchor="middle" x="173" y="-376.5" font-family="Helvetica,sans-Serif" font-size="10.00">TreeEstimator.hpp</text>
</g>
<!-- Node2 -->
<g id="node2" class="node"><title>Node2</title>
<polygon fill="white" stroke="#bfbfbf" points="178,-241 178,-260 230,-260 230,-241 178,-241"/>
<text text-anchor="middle" x="204" y="-248" font-family="Helvetica,sans-Serif" font-size="10.00">memory</text>
</g>
<!-- Node1&#45;&gt;Node2 -->
<g id="edge1" class="edge"><title>Node1&#45;&gt;Node2</title>
<path fill="none" stroke="midnightblue" d="M176.318,-369.374C181.948,-345.397 193.374,-296.748 199.642,-270.056"/>
<polygon fill="midnightblue" stroke="midnightblue" points="203.102,-270.633 201.981,-260.097 196.287,-269.032 203.102,-270.633"/>
</g>
<!-- Node3 -->
<g id="node3" class="node"><title>Node3</title>
<g id="a_node3"><a xlink:href="FitParameter_8hpp.html" target="_top" xlink:title="Core/FitParameter.hpp">
<polygon fill="white" stroke="black" points="155,-123.5 155,-142.5 271,-142.5 271,-123.5 155,-123.5"/>
<text text-anchor="middle" x="213" y="-130.5" font-family="Helvetica,sans-Serif" font-size="10.00">Core/FitParameter.hpp</text>
</a>
</g>
</g>
<!-- Node1&#45;&gt;Node3 -->
<g id="edge2" class="edge"><title>Node1&#45;&gt;Node3</title>
<path fill="none" stroke="midnightblue" d="M170.481,-369.386C166.2,-342.77 158.899,-283.477 169,-235 175.445,-204.067 191.896,-170.997 202.754,-151.43"/>
<polygon fill="midnightblue" stroke="midnightblue" points="205.926,-152.932 207.839,-142.511 199.845,-149.464 205.926,-152.932"/>
</g>
<!-- Node11 -->
<g id="node11" class="node"><title>Node11</title>
<g id="a_node11"><a xlink:href="ParameterList_8hpp.html" target="_top" xlink:title="ParameterList class. ">
<polygon fill="white" stroke="black" points="466,-302.5 466,-332.5 612,-332.5 612,-302.5 466,-302.5"/>
<text text-anchor="start" x="474" y="-320.5" font-family="Helvetica,sans-Serif" font-size="10.00">Core/FunctionTree/Parameter</text>
<text text-anchor="middle" x="539" y="-309.5" font-family="Helvetica,sans-Serif" font-size="10.00">List.hpp</text>
</a>
</g>
</g>
<!-- Node1&#45;&gt;Node11 -->
<g id="edge12" class="edge"><title>Node1&#45;&gt;Node11</title>
<path fill="none" stroke="midnightblue" d="M242.272,-371.198C302.959,-360.42 391.292,-344.732 455.795,-333.277"/>
<polygon fill="midnightblue" stroke="midnightblue" points="456.701,-336.671 465.935,-331.476 455.477,-329.779 456.701,-336.671"/>
</g>
<!-- Node24 -->
<g id="node24" class="node"><title>Node24</title>
<g id="a_node24"><a xlink:href="Estimator_8hpp.html" target="_top" xlink:title="Estimator/Estimator.hpp">
<polygon fill="white" stroke="black" points="0,-179.5 0,-198.5 122,-198.5 122,-179.5 0,-179.5"/>
<text text-anchor="middle" x="61" y="-186.5" font-family="Helvetica,sans-Serif" font-size="10.00">Estimator/Estimator.hpp</text>
</a>
</g>
</g>
<!-- Node1&#45;&gt;Node24 -->
<g id="edge38" class="edge"><title>Node1&#45;&gt;Node24</title>
<path fill="none" stroke="midnightblue" d="M161.723,-369.315C154.069,-359.407 143.938,-345.726 136,-333 108.9,-289.551 82.2889,-235.301 69.2663,-207.785"/>
<polygon fill="midnightblue" stroke="midnightblue" points="72.385,-206.192 64.9679,-198.627 66.0482,-209.166 72.385,-206.192"/>
</g>
<!-- Node4 -->
<g id="node4" class="node"><title>Node4</title>
<g id="a_node4"><a xlink:href="Function_8hpp.html" target="_top" xlink:title="Core/Function.hpp">
<polygon fill="white" stroke="red" points="41.5,-62 41.5,-81 138.5,-81 138.5,-62 41.5,-62"/>
<text text-anchor="middle" x="90" y="-69" font-family="Helvetica,sans-Serif" font-size="10.00">Core/Function.hpp</text>
</a>
</g>
</g>
<!-- Node3&#45;&gt;Node4 -->
<g id="edge3" class="edge"><title>Node3&#45;&gt;Node4</title>
<path fill="none" stroke="midnightblue" d="M195.377,-123.475C174.826,-113.534 140.636,-96.9947 116.793,-85.461"/>
<polygon fill="midnightblue" stroke="midnightblue" points="118.116,-82.2131 107.59,-81.0091 115.068,-88.5145 118.116,-82.2131"/>
</g>
<!-- Node5 -->
<g id="node5" class="node"><title>Node5</title>
<polygon fill="white" stroke="#bfbfbf" points="631.5,-0.5 631.5,-19.5 672.5,-19.5 672.5,-0.5 631.5,-0.5"/>
<text text-anchor="middle" x="652" y="-7.5" font-family="Helvetica,sans-Serif" font-size="10.00">string</text>
</g>
<!-- Node3&#45;&gt;Node5 -->
<g id="edge8" class="edge"><title>Node3&#45;&gt;Node5</title>
<path fill="none" stroke="midnightblue" d="M261.271,-123.46C293.342,-116.535 335.701,-104.932 370,-87 389.316,-76.9019 388.219,-65.1521 408,-56 479.6,-22.8732 573.638,-14.1134 621.362,-11.8105"/>
<polygon fill="midnightblue" stroke="midnightblue" points="621.521,-15.307 631.365,-11.391 621.227,-8.3131 621.521,-15.307"/>
</g>
<!-- Node6 -->
<g id="node6" class="node"><title>Node6</title>
<polygon fill="white" stroke="#bfbfbf" points="68,-0.5 68,-19.5 112,-19.5 112,-0.5 68,-0.5"/>
<text text-anchor="middle" x="90" y="-7.5" font-family="Helvetica,sans-Serif" font-size="10.00">vector</text>
</g>
<!-- Node3&#45;&gt;Node6 -->
<g id="edge9" class="edge"><title>Node3&#45;&gt;Node6</title>
<path fill="none" stroke="midnightblue" d="M206.169,-123.094C194.701,-108.392 170.515,-78.4398 147,-56 135.628,-45.1483 121.814,-34.1936 110.633,-25.8099"/>
<polygon fill="midnightblue" stroke="midnightblue" points="112.454,-22.8042 102.328,-19.6885 108.301,-28.4391 112.454,-22.8042"/>
</g>
<!-- Node7 -->
<g id="node7" class="node"><title>Node7</title>
<g id="a_node7"><a xlink:href="Logging_8hpp.html" target="_top" xlink:title="Core/Logging.hpp">
<polygon fill="white" stroke="red" points="417.5,-62 417.5,-81 510.5,-81 510.5,-62 417.5,-62"/>
<text text-anchor="middle" x="464" y="-69" font-family="Helvetica,sans-Serif" font-size="10.00">Core/Logging.hpp</text>
</a>
</g>
</g>
<!-- Node3&#45;&gt;Node7 -->
<g id="edge6" class="edge"><title>Node3&#45;&gt;Node7</title>
<path fill="none" stroke="midnightblue" d="M249.073,-123.466C287.293,-114.421 349.403,-99.7172 403,-87 407.97,-85.8208 413.167,-84.5868 418.341,-83.3576"/>
<polygon fill="midnightblue" stroke="midnightblue" points="419.278,-86.7326 428.198,-81.0156 417.659,-79.9222 419.278,-86.7326"/>
</g>
<!-- Node8 -->
<g id="node8" class="node"><title>Node8</title>
<polygon fill="white" stroke="#bfbfbf" points="309,-62 309,-81 361,-81 361,-62 309,-62"/>
<text text-anchor="middle" x="335" y="-69" font-family="Helvetica,sans-Serif" font-size="10.00">ostream</text>
</g>
<!-- Node3&#45;&gt;Node8 -->
<g id="edge7" class="edge"><title>Node3&#45;&gt;Node8</title>
<path fill="none" stroke="midnightblue" d="M230.48,-123.475C250.863,-113.534 284.775,-96.9947 308.425,-85.461"/>
<polygon fill="midnightblue" stroke="midnightblue" points="310.099,-88.5385 317.553,-81.0091 307.031,-82.2468 310.099,-88.5385"/>
</g>
<!-- Node9 -->
<g id="node9" class="node"><title>Node9</title>
<polygon fill="white" stroke="#bfbfbf" points="195.5,-56.5 195.5,-86.5 290.5,-86.5 290.5,-56.5 195.5,-56.5"/>
<text text-anchor="start" x="203.5" y="-74.5" font-family="Helvetica,sans-Serif" font-size="10.00">boost/serialization</text>
<text text-anchor="middle" x="243" y="-63.5" font-family="Helvetica,sans-Serif" font-size="10.00">/nvp.hpp</text>
</g>
<!-- Node3&#45;&gt;Node9 -->
<g id="edge10" class="edge"><title>Node3&#45;&gt;Node9</title>
<path fill="none" stroke="midnightblue" d="M217.298,-123.475C220.982,-116.17 226.461,-105.302 231.416,-95.475"/>
<polygon fill="midnightblue" stroke="midnightblue" points="234.553,-97.028 235.93,-86.523 228.302,-93.8764 234.553,-97.028"/>
</g>
<!-- Node10 -->
<g id="node10" class="node"><title>Node10</title>
<polygon fill="white" stroke="#bfbfbf" points="528.5,-56.5 528.5,-86.5 623.5,-86.5 623.5,-56.5 528.5,-56.5"/>
<text text-anchor="start" x="536.5" y="-74.5" font-family="Helvetica,sans-Serif" font-size="10.00">boost/serialization</text>
<text text-anchor="middle" x="576" y="-63.5" font-family="Helvetica,sans-Serif" font-size="10.00">/utility.hpp</text>
</g>
<!-- Node3&#45;&gt;Node10 -->
<g id="edge11" class="edge"><title>Node3&#45;&gt;Node10</title>
<path fill="none" stroke="midnightblue" d="M271.116,-125.265C330.725,-117.95 426.297,-105.097 518.441,-86.9756"/>
<polygon fill="midnightblue" stroke="midnightblue" points="519.374,-90.3587 528.498,-84.9738 518.007,-83.4934 519.374,-90.3587"/>
</g>
<!-- Node4&#45;&gt;Node5 -->
<g id="edge4" class="edge"><title>Node4&#45;&gt;Node5</title>
<path fill="none" stroke="midnightblue" d="M138.768,-62.6162C153.883,-60.3121 170.61,-57.9039 186,-56 349.376,-35.7881 545.928,-19.3906 620.895,-13.4234"/>
<polygon fill="midnightblue" stroke="midnightblue" points="621.363,-16.8975 631.055,-12.6195 620.81,-9.91928 621.363,-16.8975"/>
</g>
<!-- Node4&#45;&gt;Node6 -->
<g id="edge5" class="edge"><title>Node4&#45;&gt;Node6</title>
<path fill="none" stroke="midnightblue" d="M90,-61.9751C90,-53.5803 90,-40.4806 90,-29.6631"/>
<polygon fill="midnightblue" stroke="midnightblue" points="93.5001,-29.5091 90,-19.5091 86.5001,-29.5091 93.5001,-29.5091"/>
</g>
<!-- Node11&#45;&gt;Node2 -->
<g id="edge15" class="edge"><title>Node11&#45;&gt;Node2</title>
<path fill="none" stroke="midnightblue" d="M465.788,-307.663C405.618,-299.522 318.469,-285.703 244,-266 241.025,-265.213 237.96,-264.298 234.911,-263.318"/>
<polygon fill="midnightblue" stroke="midnightblue" points="235.961,-259.978 225.366,-260.041 233.688,-266.598 235.961,-259.978"/>
</g>
<!-- Node11&#45;&gt;Node5 -->
<g id="edge17" class="edge"><title>Node11&#45;&gt;Node5</title>
<path fill="none" stroke="midnightblue" d="M612.288,-317.276C796.158,-318.457 1265.73,-316.456 1313,-266 1503.94,-62.197 836.227,-19.3181 682.771,-12.2266"/>
<polygon fill="midnightblue" stroke="midnightblue" points="682.776,-8.72342 672.63,-11.7761 682.465,-15.7165 682.776,-8.72342"/>
</g>
<!-- Node11&#45;&gt;Node6 -->
<g id="edge18" class="edge"><title>Node11&#45;&gt;Node6</title>
<path fill="none" stroke="midnightblue" d="M465.79,-303.32C426.972,-295.044 378.971,-282.732 338,-266 265.068,-236.215 71.1956,-155.337 32,-87 25.1451,-75.0485 25.9393,-68.3732 32,-56 38.5225,-42.6839 51.0959,-32.177 62.8731,-24.6761"/>
<polygon fill="midnightblue" stroke="midnightblue" points="64.7706,-27.6205 71.6106,-19.5294 61.2178,-21.5891 64.7706,-27.6205"/>
</g>
<!-- Node11&#45;&gt;Node7 -->
<g id="edge33" class="edge"><title>Node11&#45;&gt;Node7</title>
<path fill="none" stroke="midnightblue" d="M465.744,-309.504C432.452,-302.943 394.645,-290.301 368,-266 324.522,-226.347 330.087,-200.791 319,-143 317.325,-134.27 313.851,-130.246 319,-123 325.348,-114.067 383.37,-95.7734 424.06,-83.8305"/>
<polygon fill="midnightblue" stroke="midnightblue" points="425.11,-87.1702 433.734,-81.0146 423.154,-80.4492 425.11,-87.1702"/>
</g>
<!-- Node12 -->
<g id="node12" class="node"><title>Node12</title>
<polygon fill="white" stroke="#bfbfbf" points="328,-123.5 328,-142.5 382,-142.5 382,-123.5 328,-123.5"/>
<text text-anchor="middle" x="355" y="-130.5" font-family="Helvetica,sans-Serif" font-size="10.00">iostream</text>
</g>
<!-- Node11&#45;&gt;Node12 -->
<g id="edge13" class="edge"><title>Node11&#45;&gt;Node12</title>
<path fill="none" stroke="midnightblue" d="M465.64,-306.204C438.921,-299.007 410.517,-286.778 391,-266 361.413,-234.501 355.697,-181.105 354.867,-152.844"/>
<polygon fill="midnightblue" stroke="midnightblue" points="358.365,-152.677 354.752,-142.718 351.366,-152.757 358.365,-152.677"/>
</g>
<!-- Node13 -->
<g id="node13" class="node"><title>Node13</title>
<polygon fill="white" stroke="#bfbfbf" points="438.5,-241 438.5,-260 473.5,-260 473.5,-241 438.5,-241"/>
<text text-anchor="middle" x="456" y="-248" font-family="Helvetica,sans-Serif" font-size="10.00">map</text>
</g>
<!-- Node11&#45;&gt;Node13 -->
<g id="edge14" class="edge"><title>Node11&#45;&gt;Node13</title>
<path fill="none" stroke="midnightblue" d="M520.99,-302.396C507.408,-291.759 488.821,-277.203 475.002,-266.381"/>
<polygon fill="midnightblue" stroke="midnightblue" points="477.133,-263.605 467.102,-260.195 472.817,-269.116 477.133,-263.605"/>
</g>
<!-- Node14 -->
<g id="node14" class="node"><title>Node14</title>
<polygon fill="white" stroke="#bfbfbf" points="401,-123.5 401,-142.5 453,-142.5 453,-123.5 401,-123.5"/>
<text text-anchor="middle" x="427" y="-130.5" font-family="Helvetica,sans-Serif" font-size="10.00">sstream</text>
</g>
<!-- Node11&#45;&gt;Node14 -->
<g id="edge16" class="edge"><title>Node11&#45;&gt;Node14</title>
<path fill="none" stroke="midnightblue" d="M482.611,-302.396C460.847,-294.626 437.121,-282.999 420,-266 391.077,-237.283 377.509,-217.461 391,-179 394.785,-168.209 402.367,-158.084 409.6,-150.181"/>
<polygon fill="midnightblue" stroke="midnightblue" points="412.326,-152.4 416.838,-142.815 407.333,-147.494 412.326,-152.4"/>
</g>
<!-- Node15 -->
<g id="node15" class="node"><title>Node15</title>
<polygon fill="white" stroke="#bfbfbf" points="491.5,-235.5 491.5,-265.5 586.5,-265.5 586.5,-235.5 491.5,-235.5"/>
<text text-anchor="start" x="499.5" y="-253.5" font-family="Helvetica,sans-Serif" font-size="10.00">boost/serialization</text>
<text text-anchor="middle" x="539" y="-242.5" font-family="Helvetica,sans-Serif" font-size="10.00">/shared_ptr.hpp</text>
</g>
<!-- Node11&#45;&gt;Node15 -->
<g id="edge19" class="edge"><title>Node11&#45;&gt;Node15</title>
<path fill="none" stroke="midnightblue" d="M539,-302.396C539,-294.645 539,-284.812 539,-275.86"/>
<polygon fill="midnightblue" stroke="midnightblue" points="542.5,-275.576 539,-265.577 535.5,-275.577 542.5,-275.576"/>
</g>
<!-- Node16 -->
<g id="node16" class="node"><title>Node16</title>
<polygon fill="white" stroke="#bfbfbf" points="604.5,-235.5 604.5,-265.5 699.5,-265.5 699.5,-235.5 604.5,-235.5"/>
<text text-anchor="start" x="612.5" y="-253.5" font-family="Helvetica,sans-Serif" font-size="10.00">boost/serialization</text>
<text text-anchor="middle" x="652" y="-242.5" font-family="Helvetica,sans-Serif" font-size="10.00">/vector.hpp</text>
</g>
<!-- Node11&#45;&gt;Node16 -->
<g id="edge20" class="edge"><title>Node11&#45;&gt;Node16</title>
<path fill="none" stroke="midnightblue" d="M563.519,-302.396C579.66,-293.112 600.992,-280.841 618.666,-270.674"/>
<polygon fill="midnightblue" stroke="midnightblue" points="620.605,-273.597 627.529,-265.577 617.115,-267.529 620.605,-273.597"/>
</g>
<!-- Node17 -->
<g id="node17" class="node"><title>Node17</title>
<g id="a_node17"><a xlink:href="Exceptions_8hpp.html" target="_top" xlink:title="ComPWA exceptions. ">
<polygon fill="white" stroke="red" points="1349,-123.5 1349,-142.5 1457,-142.5 1457,-123.5 1349,-123.5"/>
<text text-anchor="middle" x="1403" y="-130.5" font-family="Helvetica,sans-Serif" font-size="10.00">Core/Exceptions.hpp</text>
</a>
</g>
</g>
<!-- Node11&#45;&gt;Node17 -->
<g id="edge21" class="edge"><title>Node11&#45;&gt;Node17</title>
<path fill="none" stroke="midnightblue" d="M612.219,-316.234C799.758,-314.952 1286.83,-307.608 1346,-266 1383.68,-239.509 1396.65,-182.635 1400.96,-152.936"/>
<polygon fill="midnightblue" stroke="midnightblue" points="1404.48,-153.04 1402.26,-142.68 1397.53,-152.162 1404.48,-153.04"/>
</g>
<!-- Node18 -->
<g id="node18" class="node"><title>Node18</title>
<g id="a_node18"><a xlink:href="FunctionTree_2FitParameter_8hpp.html" target="_top" xlink:title="Implementations of Parameter for various data types. ">
<polygon fill="white" stroke="red" points="400,-179.5 400,-198.5 576,-198.5 576,-179.5 400,-179.5"/>
<text text-anchor="middle" x="488" y="-186.5" font-family="Helvetica,sans-Serif" font-size="10.00">Core/FunctionTree/FitParameter.hpp</text>
</a>
</g>
</g>
<!-- Node11&#45;&gt;Node18 -->
<g id="edge23" class="edge"><title>Node11&#45;&gt;Node18</title>
<path fill="none" stroke="midnightblue" d="M478.01,-302.461C459.033,-294.916 440.173,-283.424 429,-266 421.563,-254.402 422.888,-247.348 429,-235 435.603,-221.659 448.265,-211.194 460.171,-203.726"/>
<polygon fill="midnightblue" stroke="midnightblue" points="462.118,-206.643 469.016,-198.602 458.609,-200.587 462.118,-206.643"/>
</g>
<!-- Node19 -->
<g id="node19" class="node"><title>Node19</title>
<g id="a_node19"><a xlink:href="Value_8hpp.html" target="_top" xlink:title="Template implementation of Parameter for simple values. ">
<polygon fill="white" stroke="red" points="1160,-241 1160,-260 1304,-260 1304,-241 1160,-241"/>
<text text-anchor="middle" x="1232" y="-248" font-family="Helvetica,sans-Serif" font-size="10.00">Core/FunctionTree/Value.hpp</text>
</a>
</g>
</g>
<!-- Node11&#45;&gt;Node19 -->
<g id="edge31" class="edge"><title>Node11&#45;&gt;Node19</title>
<path fill="none" stroke="midnightblue" d="M612.247,-312.706C727.308,-306.241 957.277,-291.274 1151,-266 1160.05,-264.819 1169.63,-263.325 1178.91,-261.746"/>
<polygon fill="midnightblue" stroke="midnightblue" points="1179.57,-265.183 1188.82,-260.012 1178.37,-258.288 1179.57,-265.183"/>
</g>
<!-- Node20 -->
<g id="node20" class="node"><title>Node20</title>
<polygon fill="white" stroke="#bfbfbf" points="718,-241 718,-260 812,-260 812,-241 718,-241"/>
<text text-anchor="middle" x="765" y="-248" font-family="Helvetica,sans-Serif" font-size="10.00">boost/version.hpp</text>
</g>
<!-- Node11&#45;&gt;Node20 -->
<g id="edge34" class="edge"><title>Node11&#45;&gt;Node20</title>
<path fill="none" stroke="midnightblue" d="M587.76,-302.476C628.975,-290.622 687.262,-273.858 725.579,-262.838"/>
<polygon fill="midnightblue" stroke="midnightblue" points="726.704,-266.156 735.347,-260.029 724.769,-259.429 726.704,-266.156"/>
</g>
<!-- Node21 -->
<g id="node21" class="node"><title>Node21</title>
<polygon fill="white" stroke="#bfbfbf" points="830.5,-235.5 830.5,-265.5 925.5,-265.5 925.5,-235.5 830.5,-235.5"/>
<text text-anchor="start" x="838.5" y="-253.5" font-family="Helvetica,sans-Serif" font-size="10.00">boost/serialization</text>
<text text-anchor="middle" x="878" y="-242.5" font-family="Helvetica,sans-Serif" font-size="10.00">/split_free.hpp</text>
</g>
<!-- Node11&#45;&gt;Node21 -->
<g id="edge35" class="edge"><title>Node11&#45;&gt;Node21</title>
<path fill="none" stroke="midnightblue" d="M612.025,-304.904C666.783,-295.866 743.766,-282.439 820.616,-265.989"/>
<polygon fill="midnightblue" stroke="midnightblue" points="821.438,-269.392 830.475,-263.862 819.961,-262.55 821.438,-269.392"/>
</g>
<!-- Node22 -->
<g id="node22" class="node"><title>Node22</title>
<polygon fill="white" stroke="#bfbfbf" points="943.5,-241 943.5,-260 1072.5,-260 1072.5,-241 943.5,-241"/>
<text text-anchor="middle" x="1008" y="-248" font-family="Helvetica,sans-Serif" font-size="10.00">boost/unordered_map.hpp</text>
</g>
<!-- Node11&#45;&gt;Node22 -->
<g id="edge36" class="edge"><title>Node11&#45;&gt;Node22</title>
<path fill="none" stroke="midnightblue" d="M612.205,-308.701C691.849,-299.858 822.815,-284.272 935,-266 942.36,-264.801 950.111,-263.406 957.704,-261.964"/>
<polygon fill="midnightblue" stroke="midnightblue" points="958.397,-265.395 967.547,-260.054 957.063,-258.523 958.397,-265.395"/>
</g>
<!-- Node23 -->
<g id="node23" class="node"><title>Node23</title>
<polygon fill="white" stroke="#bfbfbf" points="1090.5,-241 1090.5,-260 1141.5,-260 1141.5,-241 1090.5,-241"/>
<text text-anchor="middle" x="1116" y="-248" font-family="Helvetica,sans-Serif" font-size="10.00">typeinfo</text>
</g>
<!-- Node11&#45;&gt;Node23 -->
<g id="edge37" class="edge"><title>Node11&#45;&gt;Node23</title>
<path fill="none" stroke="midnightblue" d="M612.233,-316.829C717.692,-315.707 917.709,-307.588 1082,-266 1084.36,-265.402 1086.77,-264.663 1089.16,-263.837"/>
<polygon fill="midnightblue" stroke="midnightblue" points="1090.68,-267.001 1098.71,-260.096 1088.13,-260.483 1090.68,-267.001"/>
</g>
<!-- Node17&#45;&gt;Node5 -->
<g id="edge22" class="edge"><title>Node17&#45;&gt;Node5</title>
<path fill="none" stroke="midnightblue" d="M1398.4,-123.433C1389.01,-106.932 1365.88,-71.0433 1335,-56 1275.83,-27.174 807.559,-14.5387 682.574,-11.6596"/>
<polygon fill="midnightblue" stroke="midnightblue" points="682.616,-8.15974 672.539,-11.4326 682.458,-15.1579 682.616,-8.15974"/>
</g>
<!-- Node18&#45;&gt;Node3 -->
<g id="edge29" class="edge"><title>Node18&#45;&gt;Node3</title>
<path fill="none" stroke="midnightblue" d="M444.425,-179.444C396.151,-169.964 318.288,-154.675 266.388,-144.483"/>
<polygon fill="midnightblue" stroke="midnightblue" points="266.858,-141.009 256.371,-142.516 265.509,-147.878 266.858,-141.009"/>
</g>
<!-- Node18&#45;&gt;Node5 -->
<g id="edge26" class="edge"><title>Node18&#45;&gt;Node5</title>
<path fill="none" stroke="midnightblue" d="M508.146,-179.468C539.55,-165.114 599.894,-133.11 632,-87 643.909,-69.8969 648.727,-46.1459 650.676,-29.7695"/>
<polygon fill="midnightblue" stroke="midnightblue" points="654.163,-30.0673 651.619,-19.7825 647.194,-29.4092 654.163,-30.0673"/>
</g>
<!-- Node18&#45;&gt;Node7 -->
<g id="edge30" class="edge"><title>Node18&#45;&gt;Node7</title>
<path fill="none" stroke="midnightblue" d="M486.196,-179.319C482.322,-160.673 473.131,-116.443 467.872,-91.1317"/>
<polygon fill="midnightblue" stroke="midnightblue" points="471.286,-90.3608 465.825,-81.282 464.433,-91.785 471.286,-90.3608"/>
</g>
<!-- Node18&#45;&gt;Node10 -->
<g id="edge27" class="edge"><title>Node18&#45;&gt;Node10</title>
<path fill="none" stroke="midnightblue" d="M494.614,-179.319C508.189,-161.502 539.562,-120.324 559.15,-94.615"/>
<polygon fill="midnightblue" stroke="midnightblue" points="562.022,-96.6208 565.299,-86.5453 556.454,-92.3785 562.022,-96.6208"/>
</g>
<!-- Node18&#45;&gt;Node12 -->
<g id="edge24" class="edge"><title>Node18&#45;&gt;Node12</title>
<path fill="none" stroke="midnightblue" d="M466.926,-179.444C444.94,-170.517 410.266,-156.439 385.336,-146.317"/>
<polygon fill="midnightblue" stroke="midnightblue" points="386.558,-143.035 375.976,-142.516 383.924,-149.521 386.558,-143.035"/>
</g>
<!-- Node18&#45;&gt;Node14 -->
<g id="edge25" class="edge"><title>Node18&#45;&gt;Node14</title>
<path fill="none" stroke="midnightblue" d="M478.199,-179.324C469.182,-171.341 455.594,-159.313 444.682,-149.653"/>
<polygon fill="midnightblue" stroke="midnightblue" points="446.787,-146.842 436.979,-142.834 442.147,-152.083 446.787,-146.842"/>
</g>
<!-- Node18&#45;&gt;Node17 -->
<g id="edge28" class="edge"><title>Node18&#45;&gt;Node17</title>
<path fill="none" stroke="midnightblue" d="M576.149,-182.798C759.458,-171.98 1178.03,-147.277 1338.63,-137.799"/>
<polygon fill="midnightblue" stroke="midnightblue" points="1339.05,-141.28 1348.83,-137.197 1338.64,-134.292 1339.05,-141.28"/>
</g>
<!-- Node19&#45;&gt;Node18 -->
<g id="edge32" class="edge"><title>Node19&#45;&gt;Node18</title>
<path fill="none" stroke="midnightblue" d="M1189.25,-240.946C1176.95,-238.729 1163.48,-236.536 1151,-235 951.44,-210.44 716.317,-198.464 586.541,-193.321"/>
<polygon fill="midnightblue" stroke="midnightblue" points="586.361,-189.811 576.232,-192.918 586.088,-196.806 586.361,-189.811"/>
</g>
<!-- Node24&#45;&gt;Node4 -->
<g id="edge39" class="edge"><title>Node24&#45;&gt;Node4</title>
<path fill="none" stroke="midnightblue" d="M63.1797,-179.319C67.8613,-160.673 78.9667,-116.443 85.3219,-91.1317"/>
<polygon fill="midnightblue" stroke="midnightblue" points="88.7543,-91.8333 87.795,-81.282 81.9651,-90.1286 88.7543,-91.8333"/>
</g>
</g>
</svg>
        <g id="navigator" transform="translate(0 0)" fill="#404254">
                <rect fill="#f2f5e9" fill-opacity="0.5" stroke="#606060" stroke-width=".5" x="0" y="0" width="60" height="60"/>
                <use id="zoomplus" xlink:href="#zoomPlus" x="17" y="9" onmousedown="handleZoom(evt,'in')"/>
                <use id="zoomminus" xlink:href="#zoomMin" x="42" y="9" onmousedown="handleZoom(evt,'out')"/>
                <use id="reset" xlink:href="#resetDef" x="30" y="36" onmousedown="handleReset()"/>
                <g id="arrowUp" xlink:href="#dirArrow" transform="translate(30 24)" onmousedown="handlePan(0,-1)">
                  <use xlink:href="#rim" fill="#404040">
                        <set attributeName="fill" to="#808080" begin="arrowUp.mouseover" end="arrowUp.mouseout"/>
                  </use>
                  <path fill="none" stroke="white" stroke-width="1.5" d="M0,-3.0v7 M-2.5,-0.5L0,-3.0L2.5,-0.5"/>
                </g>
                <g id="arrowRight" xlink:href="#dirArrow" transform="rotate(90) translate(36 -43)" onmousedown="handlePan(1,0)">
                  <use xlink:href="#rim" fill="#404040">
                        <set attributeName="fill" to="#808080" begin="arrowRight.mouseover" end="arrowRight.mouseout"/>
                  </use>
                  <path fill="none" stroke="white" stroke-width="1.5" d="M0,-3.0v7 M-2.5,-0.5L0,-3.0L2.5,-0.5"/>
                </g>
                <g id="arrowDown" xlink:href="#dirArrow" transform="rotate(180) translate(-30 -48)" onmousedown="handlePan(0,1)">
                  <use xlink:href="#rim" fill="#404040">
                        <set attributeName="fill" to="#808080" begin="arrowDown.mouseover" end="arrowDown.mouseout"/>
                  </use>
                  <path fill="none" stroke="white" stroke-width="1.5" d="M0,-3.0v7 M-2.5,-0.5L0,-3.0L2.5,-0.5"/>
                </g>
                <g id="arrowLeft" xlink:href="#dirArrow" transform="rotate(270) translate(-36 17)" onmousedown="handlePan(-1,0)">
                  <use xlink:href="#rim" fill="#404040">
                        <set attributeName="fill" to="#808080" begin="arrowLeft.mouseover" end="arrowLeft.mouseout"/>
                  </use>
                  <path fill="none" stroke="white" stroke-width="1.5" d="M0,-3.0v7 M-2.5,-0.5L0,-3.0L2.5,-0.5"/>
                </g>
        </g>
        <svg viewBox="0 0 15 15" width="100%" height="30px" preserveAspectRatio="xMaxYMin meet">
         <g id="arrow_out" transform="scale(0.3 0.3)">
          <a xlink:href="FunctionTreeEstimator_8hpp__incl_org.svg" target="_base">
           <rect id="button" ry="5" rx="5" y="6" x="6" height="38" width="38"
                fill="#f2f5e9" fill-opacity="0.5" stroke="#606060" stroke-width="1.0"/>
           <path id="arrow"
             d="M 11.500037,31.436501 C 11.940474,20.09759 22.043105,11.32322 32.158766,21.979434 L 37.068811,17.246167 C 37.068811,17.246167 37.088388,32 37.088388,32 L 22.160133,31.978069 C 22.160133,31.978069 26.997745,27.140456 26.997745,27.140456 C 18.528582,18.264221 13.291696,25.230495 11.500037,31.436501 z"
             style="fill:#404040;"/>
          </a>
         </g>
        </svg>
</svg>
