<?xml version="1.0" encoding="UTF-8" standalone="no"?>
<!DOCTYPE svg PUBLIC "-//W3C//DTD SVG 1.1//EN"
 "http://www.w3.org/Graphics/SVG/1.1/DTD/svg11.dtd">
<!-- Generated by graphviz version 2.40.1 (20161225.0304)
 -->
<!-- Title: Core/FunctionTree/FunctionTreeIntensity.hpp Pages: 1 -->
<svg width="1475pt" height="341pt"
 viewBox="0.00 0.00 1474.50 341.00" xmlns="http://www.w3.org/2000/svg" xmlns:xlink="http://www.w3.org/1999/xlink">
<g id="graph0" class="graph" transform="scale(1 1) rotate(0) translate(4 337)">
<title>Core/FunctionTree/FunctionTreeIntensity.hpp</title>
<polygon fill="#ffffff" stroke="transparent" points="-4,4 -4,-337 1470.5,-337 1470.5,4 -4,4"/>
<!-- Node0 -->
<g id="node1" class="node">
<title>Node0</title>
<polygon fill="#bfbfbf" stroke="#000000" points="171.5,-302.5 171.5,-332.5 317.5,-332.5 317.5,-302.5 171.5,-302.5"/>
<text text-anchor="start" x="179.5" y="-320.5" font-family="Helvetica,sans-Serif" font-size="10.00" fill="#000000">Core/FunctionTree/Function</text>
<text text-anchor="middle" x="244.5" y="-309.5" font-family="Helvetica,sans-Serif" font-size="10.00" fill="#000000">TreeIntensity.hpp</text>
</g>
<!-- Node1 -->
<g id="node2" class="node">
<title>Node1</title>
<polygon fill="#ffffff" stroke="#bfbfbf" points="215.5,-174 215.5,-193 273.5,-193 273.5,-174 215.5,-174"/>
<text text-anchor="middle" x="244.5" y="-181" font-family="Helvetica,sans-Serif" font-size="10.00" fill="#000000">memory</text>
</g>
<!-- Node0&#45;&gt;Node1 -->
<g id="edge1" class="edge">
<title>Node0&#45;&gt;Node1</title>
<path fill="none" stroke="#191970" d="M244.5,-302.389C244.5,-278.0735 244.5,-230.2644 244.5,-203.2698"/>
<polygon fill="#191970" stroke="#191970" points="248.0001,-203.1041 244.5,-193.1042 241.0001,-203.1042 248.0001,-203.1041"/>
</g>
<!-- Node2 -->
<g id="node3" class="node">
<title>Node2</title>
<g id="a_node3"><a xlink:href="Function_8hpp.html" target="_top" xlink:title="Core/Function.hpp">
<polygon fill="#ffffff" stroke="#000000" points="91.5,-241 91.5,-260 195.5,-260 195.5,-241 91.5,-241"/>
<text text-anchor="middle" x="143.5" y="-248" font-family="Helvetica,sans-Serif" font-size="10.00" fill="#000000">Core/Function.hpp</text>
</a>
</g>
</g>
<!-- Node0&#45;&gt;Node2 -->
<g id="edge2" class="edge">
<title>Node0&#45;&gt;Node2</title>
<path fill="none" stroke="#191970" d="M221.8336,-302.4639C205.3451,-291.526 183.0996,-276.769 166.5278,-265.7759"/>
<polygon fill="#191970" stroke="#191970" points="168.2455,-262.7153 157.9776,-260.1039 164.3759,-268.5485 168.2455,-262.7153"/>
</g>
<!-- Node6 -->
<g id="node7" class="node">
<title>Node6</title>
<g id="a_node7"><a xlink:href="ParameterList_8hpp.html" target="_top" xlink:title="ParameterList class. ">
<polygon fill="#ffffff" stroke="#000000" points="663.5,-235.5 663.5,-265.5 819.5,-265.5 819.5,-235.5 663.5,-235.5"/>
<text text-anchor="start" x="671.5" y="-253.5" font-family="Helvetica,sans-Serif" font-size="10.00" fill="#000000">Core/FunctionTree/Parameter</text>
<text text-anchor="middle" x="741.5" y="-242.5" font-family="Helvetica,sans-Serif" font-size="10.00" fill="#000000">List.hpp</text>
</a>
</g>
</g>
<!-- Node0&#45;&gt;Node6 -->
<g id="edge6" class="edge">
<title>Node0&#45;&gt;Node6</title>
<path fill="none" stroke="#191970" d="M317.567,-307.6499C406.8218,-295.6176 557.7033,-275.2774 653.3231,-262.387"/>
<polygon fill="#191970" stroke="#191970" points="653.8193,-265.8519 663.262,-261.0472 652.884,-258.9146 653.8193,-265.8519"/>
</g>
<!-- Node3 -->
<g id="node4" class="node">
<title>Node3</title>
<polygon fill="#ffffff" stroke="#bfbfbf" points="735.5,-.5 735.5,-19.5 779.5,-19.5 779.5,-.5 735.5,-.5"/>
<text text-anchor="middle" x="757.5" y="-7.5" font-family="Helvetica,sans-Serif" font-size="10.00" fill="#000000">string</text>
</g>
<!-- Node2&#45;&gt;Node3 -->
<g id="edge3" class="edge">
<title>Node2&#45;&gt;Node3</title>
<path fill="none" stroke="#191970" d="M139.578,-240.9022C133.4412,-224.1682 123.8906,-189.3986 140.5,-168 214.3012,-72.9186 608.7877,-25.2888 725.1628,-13.1662"/>
<polygon fill="#191970" stroke="#191970" points="725.6396,-16.6358 735.2306,-12.1343 724.9258,-9.6723 725.6396,-16.6358"/>
</g>
<!-- Node4 -->
<g id="node5" class="node">
<title>Node4</title>
<polygon fill="#ffffff" stroke="#bfbfbf" points="0,-174 0,-193 93,-193 93,-174 0,-174"/>
<text text-anchor="middle" x="46.5" y="-181" font-family="Helvetica,sans-Serif" font-size="10.00" fill="#000000">unordered_map</text>
</g>
<!-- Node2&#45;&gt;Node4 -->
<g id="edge4" class="edge">
<title>Node2&#45;&gt;Node4</title>
<path fill="none" stroke="#191970" d="M129.6023,-240.9005C113.6836,-229.9052 87.3879,-211.7422 68.6401,-198.7927"/>
<polygon fill="#191970" stroke="#191970" points="70.5892,-195.8852 60.372,-193.0817 66.6108,-201.6448 70.5892,-195.8852"/>
</g>
<!-- Node5 -->
<g id="node6" class="node">
<title>Node5</title>
<polygon fill="#ffffff" stroke="#bfbfbf" points="150,-174 150,-193 197,-193 197,-174 150,-174"/>
<text text-anchor="middle" x="173.5" y="-181" font-family="Helvetica,sans-Serif" font-size="10.00" fill="#000000">vector</text>
</g>
<!-- Node2&#45;&gt;Node5 -->
<g id="edge5" class="edge">
<title>Node2&#45;&gt;Node5</title>
<path fill="none" stroke="#191970" d="M147.7983,-240.9005C152.2983,-230.8505 159.4796,-214.8122 165.1088,-202.2403"/>
<polygon fill="#191970" stroke="#191970" points="168.3174,-203.6389 169.2097,-193.0817 161.9286,-200.7782 168.3174,-203.6389"/>
</g>
<!-- Node6&#45;&gt;Node1 -->
<g id="edge9" class="edge">
<title>Node6&#45;&gt;Node1</title>
<path fill="none" stroke="#191970" d="M663.1764,-248.2568C570.8573,-244.1192 413.4318,-232.3645 282.5,-199 279.8721,-198.3303 277.1855,-197.5172 274.5159,-196.618"/>
<polygon fill="#191970" stroke="#191970" points="275.6495,-193.3052 265.0569,-193.0873 273.2016,-199.8633 275.6495,-193.3052"/>
</g>
<!-- Node6&#45;&gt;Node3 -->
<g id="edge11" class="edge">
<title>Node6&#45;&gt;Node3</title>
<path fill="none" stroke="#191970" d="M725.3989,-235.2826C691.5167,-201.3756 619.1043,-117.7459 658.5,-56 673.0861,-33.1388 702.2948,-21.4627 725.2234,-15.6102"/>
<polygon fill="#191970" stroke="#191970" points="726.2771,-18.9595 735.2411,-13.3118 724.7117,-12.1368 726.2771,-18.9595"/>
</g>
<!-- Node6&#45;&gt;Node5 -->
<g id="edge12" class="edge">
<title>Node6&#45;&gt;Node5</title>
<path fill="none" stroke="#191970" d="M663.4261,-246.2748C536.337,-238.8451 290.4735,-222.018 206.5,-199 204.5313,-198.4604 202.5349,-197.8107 200.5491,-197.0873"/>
<polygon fill="#191970" stroke="#191970" points="201.4593,-193.6733 190.8844,-193.0238 198.7462,-200.1261 201.4593,-193.6733"/>
</g>
<!-- Node7 -->
<g id="node8" class="node">
<title>Node7</title>
<polygon fill="#ffffff" stroke="#bfbfbf" points="787.5,-56.5 787.5,-75.5 847.5,-75.5 847.5,-56.5 787.5,-56.5"/>
<text text-anchor="middle" x="817.5" y="-63.5" font-family="Helvetica,sans-Serif" font-size="10.00" fill="#000000">iostream</text>
</g>
<!-- Node6&#45;&gt;Node7 -->
<g id="edge7" class="edge">
<title>Node6&#45;&gt;Node7</title>
<path fill="none" stroke="#191970" d="M740.7781,-235.2659C740.1862,-208.5324 741.9997,-152.1991 764.5,-112 771.2876,-99.8733 782.5483,-89.4209 792.9485,-81.5582"/>
<polygon fill="#191970" stroke="#191970" points="795.2374,-84.2256 801.3653,-75.5828 791.1851,-78.5178 795.2374,-84.2256"/>
</g>
<!-- Node8 -->
<g id="node9" class="node">
<title>Node8</title>
<polygon fill="#ffffff" stroke="#bfbfbf" points="1055.5,-174 1055.5,-193 1093.5,-193 1093.5,-174 1055.5,-174"/>
<text text-anchor="middle" x="1074.5" y="-181" font-family="Helvetica,sans-Serif" font-size="10.00" fill="#000000">map</text>
</g>
<!-- Node6&#45;&gt;Node8 -->
<g id="edge8" class="edge">
<title>Node6&#45;&gt;Node8</title>
<path fill="none" stroke="#191970" d="M819.615,-242.9233C880.969,-235.5874 968.0228,-222.0969 1041.5,-199 1043.3568,-198.4163 1045.2437,-197.7492 1047.1266,-197.0272"/>
<polygon fill="#191970" stroke="#191970" points="1048.527,-200.235 1056.3507,-193.0908 1045.7794,-193.7968 1048.527,-200.235"/>
</g>
<!-- Node9 -->
<g id="node10" class="node">
<title>Node9</title>
<polygon fill="#ffffff" stroke="#bfbfbf" points="1037.5,-56.5 1037.5,-75.5 1093.5,-75.5 1093.5,-56.5 1037.5,-56.5"/>
<text text-anchor="middle" x="1065.5" y="-63.5" font-family="Helvetica,sans-Serif" font-size="10.00" fill="#000000">sstream</text>
</g>
<!-- Node6&#45;&gt;Node9 -->
<g id="edge10" class="edge">
<title>Node6&#45;&gt;Node9</title>
<path fill="none" stroke="#191970" d="M819.5304,-241.492C882.0586,-232.9915 963.6266,-218.6203 990.5,-199 1029.6076,-170.4475 1051.0907,-114.9273 1060.1899,-85.4609"/>
<polygon fill="#191970" stroke="#191970" points="1063.6394,-86.1339 1063.0818,-75.5538 1056.9198,-84.1724 1063.6394,-86.1339"/>
</g>
<!-- Node10 -->
<g id="node11" class="node">
<title>Node10</title>
<polygon fill="#ffffff" stroke="#bfbfbf" points="1112,-168.5 1112,-198.5 1219,-198.5 1219,-168.5 1112,-168.5"/>
<text text-anchor="start" x="1120" y="-186.5" font-family="Helvetica,sans-Serif" font-size="10.00" fill="#000000">boost/serialization</text>
<text text-anchor="middle" x="1165.5" y="-175.5" font-family="Helvetica,sans-Serif" font-size="10.00" fill="#000000">/shared_ptr.hpp</text>
</g>
<!-- Node6&#45;&gt;Node10 -->
<g id="edge13" class="edge">
<title>Node6&#45;&gt;Node10</title>
<path fill="none" stroke="#191970" d="M819.6883,-241.6253C890.7689,-233.0361 998.698,-218.6956 1101.9844,-198.9807"/>
<polygon fill="#191970" stroke="#191970" points="1102.8077,-202.3865 1111.9639,-197.0561 1101.4821,-195.5132 1102.8077,-202.3865"/>
</g>
<!-- Node11 -->
<g id="node12" class="node">
<title>Node11</title>
<polygon fill="#ffffff" stroke="#bfbfbf" points="1237,-168.5 1237,-198.5 1344,-198.5 1344,-168.5 1237,-168.5"/>
<text text-anchor="start" x="1245" y="-186.5" font-family="Helvetica,sans-Serif" font-size="10.00" fill="#000000">boost/serialization</text>
<text text-anchor="middle" x="1290.5" y="-175.5" font-family="Helvetica,sans-Serif" font-size="10.00" fill="#000000">/vector.hpp</text>
</g>
<!-- Node6&#45;&gt;Node11 -->
<g id="edge14" class="edge">
<title>Node6&#45;&gt;Node11</title>
<path fill="none" stroke="#191970" d="M819.5669,-245.6172C913.9732,-238.9566 1077.7764,-224.9827 1226.5966,-199.2006"/>
<polygon fill="#191970" stroke="#191970" points="1227.5857,-202.5806 1236.8301,-197.4046 1226.3756,-195.6859 1227.5857,-202.5806"/>
</g>
<!-- Node12 -->
<g id="node13" class="node">
<title>Node12</title>
<g id="a_node13"><a xlink:href="Exceptions_8hpp.html" target="_top" xlink:title="ComPWA exceptions. ">
<polygon fill="#ffffff" stroke="#ff0000" points="903.5,-56.5 903.5,-75.5 1019.5,-75.5 1019.5,-56.5 903.5,-56.5"/>
<text text-anchor="middle" x="961.5" y="-63.5" font-family="Helvetica,sans-Serif" font-size="10.00" fill="#000000">Core/Exceptions.hpp</text>
</a>
</g>
</g>
<!-- Node6&#45;&gt;Node12 -->
<g id="edge15" class="edge">
<title>Node6&#45;&gt;Node12</title>
<path fill="none" stroke="#191970" d="M819.6215,-243.2714C878.3149,-236.034 951.693,-222.5063 970.5,-199 996.6537,-166.3113 981.3532,-113.4131 970.1236,-85.1867"/>
<polygon fill="#191970" stroke="#191970" points="973.2222,-83.5267 966.114,-75.6702 966.7714,-86.2447 973.2222,-83.5267"/>
</g>
<!-- Node14 -->
<g id="node14" class="node">
<title>Node14</title>
<g id="a_node14"><a xlink:href="FunctionTree_2FitParameter_8hpp.html" target="_top" xlink:title="Implementations of Parameter for various data types. ">
<polygon fill="#ffffff" stroke="#ff0000" points="773.5,-112.5 773.5,-131.5 961.5,-131.5 961.5,-112.5 773.5,-112.5"/>
<text text-anchor="middle" x="867.5" y="-119.5" font-family="Helvetica,sans-Serif" font-size="10.00" fill="#000000">Core/FunctionTree/FitParameter.hpp</text>
</a>
</g>
</g>
<!-- Node6&#45;&gt;Node14 -->
<g id="edge17" class="edge">
<title>Node6&#45;&gt;Node14</title>
<path fill="none" stroke="#191970" d="M749.6837,-235.2266C759.6166,-217.6294 777.6483,-188.5085 798.5,-168 810.9264,-155.7781 827.0307,-144.8285 840.5554,-136.6811"/>
<polygon fill="#191970" stroke="#191970" points="842.5536,-139.5675 849.4296,-131.5071 839.0278,-133.5203 842.5536,-139.5675"/>
</g>
<!-- Node21 -->
<g id="node15" class="node">
<title>Node21</title>
<g id="a_node15"><a xlink:href="Logging_8hpp.html" target="_top" xlink:title="Core/Logging.hpp">
<polygon fill="#ffffff" stroke="#ff0000" points="668,-56.5 668,-75.5 769,-75.5 769,-56.5 668,-56.5"/>
<text text-anchor="middle" x="718.5" y="-63.5" font-family="Helvetica,sans-Serif" font-size="10.00" fill="#000000">Core/Logging.hpp</text>
</a>
</g>
</g>
<!-- Node6&#45;&gt;Node21 -->
<g id="edge25" class="edge">
<title>Node6&#45;&gt;Node21</title>
<path fill="none" stroke="#191970" d="M736.532,-235.3524C733.409,-225.1848 729.5884,-211.4268 727.5,-199 720.8178,-159.238 719.0624,-111.9981 718.6228,-85.8737"/>
<polygon fill="#191970" stroke="#191970" points="722.1212,-85.7133 718.5024,-75.7557 715.1217,-85.7967 722.1212,-85.7133"/>
</g>
<!-- Node32 -->
<g id="node16" class="node">
<title>Node32</title>
<g id="a_node16"><a xlink:href="Value_8hpp.html" target="_top" xlink:title="Template implementation of Parameter for simple values. ">
<polygon fill="#ffffff" stroke="#ff0000" points="807.5,-174 807.5,-193 961.5,-193 961.5,-174 807.5,-174"/>
<text text-anchor="middle" x="884.5" y="-181" font-family="Helvetica,sans-Serif" font-size="10.00" fill="#000000">Core/FunctionTree/Value.hpp</text>
</a>
</g>
</g>
<!-- Node6&#45;&gt;Node32 -->
<g id="edge23" class="edge">
<title>Node6&#45;&gt;Node32</title>
<path fill="none" stroke="#191970" d="M773.592,-235.4639C797.9098,-224.0702 831.0721,-208.5327 854.7862,-197.4219"/>
<polygon fill="#191970" stroke="#191970" points="856.4317,-200.5161 864.0021,-193.1039 853.4618,-194.1773 856.4317,-200.5161"/>
</g>
<!-- Node34 -->
<g id="node17" class="node">
<title>Node34</title>
<polygon fill="#ffffff" stroke="#bfbfbf" points="1362.5,-174 1362.5,-193 1466.5,-193 1466.5,-174 1362.5,-174"/>
<text text-anchor="middle" x="1414.5" y="-181" font-family="Helvetica,sans-Serif" font-size="10.00" fill="#000000">boost/version.hpp</text>
</g>
<!-- Node6&#45;&gt;Node34 -->
<g id="edge26" class="edge">
<title>Node6&#45;&gt;Node34</title>
<path fill="none" stroke="#191970" d="M819.7836,-248.0407C936.6732,-243.4391 1163.4361,-230.9203 1353.5,-199 1359.2988,-198.0261 1365.3551,-196.7768 1371.3043,-195.4108"/>
<polygon fill="#191970" stroke="#191970" points="1372.2539,-198.7822 1381.1512,-193.03 1370.6087,-191.9782 1372.2539,-198.7822"/>
</g>
<!-- Node35 -->
<g id="node18" class="node">
<title>Node35</title>
<polygon fill="#ffffff" stroke="#bfbfbf" points="292,-168.5 292,-198.5 399,-198.5 399,-168.5 292,-168.5"/>
<text text-anchor="start" x="300" y="-186.5" font-family="Helvetica,sans-Serif" font-size="10.00" fill="#000000">boost/serialization</text>
<text text-anchor="middle" x="345.5" y="-175.5" font-family="Helvetica,sans-Serif" font-size="10.00" fill="#000000">/split_free.hpp</text>
</g>
<!-- Node6&#45;&gt;Node35 -->
<g id="edge27" class="edge">
<title>Node6&#45;&gt;Node35</title>
<path fill="none" stroke="#191970" d="M663.4458,-240.4022C598.0578,-231.4891 502.0941,-217.3546 408.9242,-198.9796"/>
<polygon fill="#191970" stroke="#191970" points="409.5355,-195.5327 399.0446,-197.0129 408.1688,-202.398 409.5355,-195.5327"/>
</g>
<!-- Node36 -->
<g id="node19" class="node">
<title>Node36</title>
<polygon fill="#ffffff" stroke="#bfbfbf" points="417.5,-174 417.5,-193 561.5,-193 561.5,-174 417.5,-174"/>
<text text-anchor="middle" x="489.5" y="-181" font-family="Helvetica,sans-Serif" font-size="10.00" fill="#000000">boost/unordered_map.hpp</text>
</g>
<!-- Node6&#45;&gt;Node36 -->
<g id="edge28" class="edge">
<title>Node6&#45;&gt;Node36</title>
<path fill="none" stroke="#191970" d="M684.9463,-235.4639C639.6726,-223.4269 577.003,-206.7647 534.9485,-195.5835"/>
<polygon fill="#191970" stroke="#191970" points="535.8148,-192.1923 525.2512,-193.0053 534.0161,-198.9573 535.8148,-192.1923"/>
</g>
<!-- Node37 -->
<g id="node20" class="node">
<title>Node37</title>
<polygon fill="#ffffff" stroke="#bfbfbf" points="580,-174 580,-193 637,-193 637,-174 580,-174"/>
<text text-anchor="middle" x="608.5" y="-181" font-family="Helvetica,sans-Serif" font-size="10.00" fill="#000000">typeinfo</text>
</g>
<!-- Node6&#45;&gt;Node37 -->
<g id="edge29" class="edge">
<title>Node6&#45;&gt;Node37</title>
<path fill="none" stroke="#191970" d="M711.6522,-235.4639C689.236,-224.1715 658.7394,-208.8086 636.7262,-197.7192"/>
<polygon fill="#191970" stroke="#191970" points="638.07,-194.4772 627.5645,-193.1039 634.9207,-200.7287 638.07,-194.4772"/>
</g>
<!-- Node12&#45;&gt;Node3 -->
<g id="edge16" class="edge">
<title>Node12&#45;&gt;Node3</title>
<path fill="none" stroke="#191970" d="M926.4311,-56.3733C887.9033,-45.797 826.5651,-28.959 789.3622,-18.7465"/>
<polygon fill="#191970" stroke="#191970" points="790.118,-15.3245 779.5482,-16.0524 788.2649,-22.0748 790.118,-15.3245"/>
</g>
<!-- Node14&#45;&gt;Node3 -->
<g id="edge20" class="edge">
<title>Node14&#45;&gt;Node3</title>
<path fill="none" stroke="#191970" d="M868.5151,-112.4027C869.4565,-98.5091 869.1623,-72.6395 856.5,-56 840.277,-34.6814 811.7867,-22.8809 789.5218,-16.5871"/>
<polygon fill="#191970" stroke="#191970" points="790.3547,-13.1873 779.7966,-14.0684 788.5997,-19.9638 790.3547,-13.1873"/>
</g>
<!-- Node14&#45;&gt;Node7 -->
<g id="edge18" class="edge">
<title>Node14&#45;&gt;Node7</title>
<path fill="none" stroke="#191970" d="M858.7907,-112.2455C851.6927,-104.2958 841.4916,-92.8706 833.005,-83.3656"/>
<polygon fill="#191970" stroke="#191970" points="835.3805,-80.771 826.1095,-75.6427 830.1589,-85.4331 835.3805,-80.771"/>
</g>
<!-- Node14&#45;&gt;Node9 -->
<g id="edge19" class="edge">
<title>Node14&#45;&gt;Node9</title>
<path fill="none" stroke="#191970" d="M901.5374,-112.3733C936.6075,-102.4544 991.1503,-87.0282 1027.5805,-76.7247"/>
<polygon fill="#191970" stroke="#191970" points="1028.6742,-80.0528 1037.3442,-73.9633 1026.7691,-73.317 1028.6742,-80.0528"/>
</g>
<!-- Node14&#45;&gt;Node12 -->
<g id="edge21" class="edge">
<title>Node14&#45;&gt;Node12</title>
<path fill="none" stroke="#191970" d="M883.8736,-112.2455C898.4308,-103.5731 919.931,-90.7645 936.6152,-80.825"/>
<polygon fill="#191970" stroke="#191970" points="938.5144,-83.7676 945.3141,-75.6427 934.9317,-77.7539 938.5144,-83.7676"/>
</g>
<!-- Node14&#45;&gt;Node21 -->
<g id="edge22" class="edge">
<title>Node14&#45;&gt;Node21</title>
<path fill="none" stroke="#191970" d="M841.886,-112.3733C817.4313,-103.1822 780.3946,-89.2624 753.2791,-79.0713"/>
<polygon fill="#191970" stroke="#191970" points="754.3719,-75.7431 743.7798,-75.5011 751.9091,-82.2956 754.3719,-75.7431"/>
</g>
<!-- Node32&#45;&gt;Node14 -->
<g id="edge24" class="edge">
<title>Node32&#45;&gt;Node14</title>
<path fill="none" stroke="#191970" d="M881.8438,-173.8906C879.4625,-165.276 875.8952,-152.3708 872.914,-141.5858"/>
<polygon fill="#191970" stroke="#191970" points="876.2316,-140.4509 870.1937,-131.7449 869.4846,-142.3159 876.2316,-140.4509"/>
</g>
</g>
</svg>
