<?xml version="1.0" encoding="UTF-8" standalone="no"?>
<!DOCTYPE svg PUBLIC "-//W3C//DTD SVG 1.1//EN"
 "http://www.w3.org/Graphics/SVG/1.1/DTD/svg11.dtd">
<!-- Generated by graphviz version 2.38.0 (20140413.2041)
 -->
<!-- Title: /home/travis/build/ComPWA/ComPWA/Core/FunctionTree/FunctionTreeIntensity.hpp Pages: 1 -->
<!--zoomable 217 -->
<svg id="main" version="1.1" xmlns="http://www.w3.org/2000/svg" xmlns:xlink="http://www.w3.org/1999/xlink" xml:space="preserve" onload="init(evt)">
<style type="text/css"><![CDATA[
.edge:hover path { stroke: red; }
.edge:hover polygon { stroke: red; fill: red; }
]]></style>
<script type="text/javascript"><![CDATA[
var edges = document.getElementsByTagName('g');
if (edges && edges.length) {
  for (var i=0;i<edges.length;i++) {
    if (edges[i].id.substr(0,4)=='edge') {
      edges[i].setAttribute('class','edge');
    }
  }
}
]]></script>
        <defs>
                <circle id="rim" cx="0" cy="0" r="7"/>
                <circle id="rim2" cx="0" cy="0" r="3.5"/>
                <g id="zoomPlus">
                        <use xlink:href="#rim" fill="#404040">
                                <set attributeName="fill" to="#808080" begin="zoomplus.mouseover" end="zoomplus.mouseout"/>
                        </use>
                        <path d="M-4,0h8M0,-4v8" fill="none" stroke="white" stroke-width="1.5" pointer-events="none"/>
                </g>
                <g id="zoomMin">
                        <use xlink:href="#rim" fill="#404040">
                                <set attributeName="fill" to="#808080" begin="zoomminus.mouseover" end="zoomminus.mouseout"/>
                        </use>
                        <path d="M-4,0h8" fill="none" stroke="white" stroke-width="1.5" pointer-events="none"/>
                </g>
                <g id="dirArrow">
                        <path fill="none" stroke="white" stroke-width="1.5" d="M0,-3.0v7 M-2.5,-0.5L0,-3.0L2.5,-0.5"/>
                </g>
               <g id="resetDef">
                       <use xlink:href="#rim2" fill="#404040">
                               <set attributeName="fill" to="#808080" begin="reset.mouseover" end="reset.mouseout"/>
                       </use>
               </g>
        </defs>

<script type="text/javascript">
var viewWidth = 1525;
var viewHeight = 217;
var sectionId = 'dynsection-1';
</script>
<script xlink:href="svgpan.js"/>
<svg id="graph" class="graph">
<g id="viewport">
<title>/home/travis/build/ComPWA/ComPWA/Core/FunctionTree/FunctionTreeIntensity.hpp</title>
<polygon fill="white" stroke="none" points="-4,4 -4,-213 1521,-213 1521,4 -4,4"/>
<!-- Node1 -->
<g id="node1" class="node"><title>Node1</title>
<polygon fill="#bfbfbf" stroke="black" points="765.5,-167.5 765.5,-208.5 958.5,-208.5 958.5,-167.5 765.5,-167.5"/>
<text text-anchor="start" x="773.5" y="-196.5" font-family="Helvetica,sans-Serif" font-size="10.00">/home/travis/build</text>
<text text-anchor="start" x="773.5" y="-185.5" font-family="Helvetica,sans-Serif" font-size="10.00">/ComPWA/ComPWA/Core</text>
<text text-anchor="middle" x="862" y="-174.5" font-family="Helvetica,sans-Serif" font-size="10.00">/FunctionTree/FunctionTreeIntensity.hpp</text>
</g>
<!-- Node2 -->
<g id="node2" class="node"><title>Node2</title>
<g id="a_node2"><a xlink:href="FunctionTreeIntensity_8cpp.html" target="_top" xlink:title="/home/travis/build\l/ComPWA/ComPWA/Core\l/FunctionTree/FunctionTreeIntensity.cpp">
<polygon fill="white" stroke="black" points="313.5,-89.5 313.5,-130.5 506.5,-130.5 506.5,-89.5 313.5,-89.5"/>
<text text-anchor="start" x="321.5" y="-118.5" font-family="Helvetica,sans-Serif" font-size="10.00">/home/travis/build</text>
<text text-anchor="start" x="321.5" y="-107.5" font-family="Helvetica,sans-Serif" font-size="10.00">/ComPWA/ComPWA/Core</text>
<text text-anchor="middle" x="410" y="-96.5" font-family="Helvetica,sans-Serif" font-size="10.00">/FunctionTree/FunctionTreeIntensity.cpp</text>
</a>
</g>
</g>
<!-- Node1&#45;&gt;Node2 -->
<g id="edge1" class="edge"><title>Node1&#45;&gt;Node2</title>
<path fill="none" stroke="midnightblue" d="M755.38,-170.478C686.911,-159.687 596.122,-145.04 516,-131 512.956,-130.467 509.865,-129.919 506.744,-129.361"/>
<polygon fill="midnightblue" stroke="midnightblue" points="754.894,-173.945 765.316,-172.042 755.982,-167.03 754.894,-173.945"/>
</g>
<!-- Node3 -->
<g id="node3" class="node"><title>Node3</title>
<g id="a_node3"><a xlink:href="MinLogLH_8hpp.html" target="_top" xlink:title="/home/travis/build\l/ComPWA/ComPWA/Estimator\l/MinLogLH/MinLogLH.hpp">
<polygon fill="white" stroke="black" points="525,-89.5 525,-130.5 681,-130.5 681,-89.5 525,-89.5"/>
<text text-anchor="start" x="533" y="-118.5" font-family="Helvetica,sans-Serif" font-size="10.00">/home/travis/build</text>
<text text-anchor="start" x="533" y="-107.5" font-family="Helvetica,sans-Serif" font-size="10.00">/ComPWA/ComPWA/Estimator</text>
<text text-anchor="middle" x="603" y="-96.5" font-family="Helvetica,sans-Serif" font-size="10.00">/MinLogLH/MinLogLH.hpp</text>
</a>
</g>
</g>
<!-- Node1&#45;&gt;Node3 -->
<g id="edge2" class="edge"><title>Node1&#45;&gt;Node3</title>
<path fill="none" stroke="midnightblue" d="M785.597,-164.58C748.736,-153.764 704.935,-140.911 669.473,-130.506"/>
<polygon fill="midnightblue" stroke="midnightblue" points="784.72,-167.971 795.301,-167.428 786.691,-161.254 784.72,-167.971"/>
</g>
<!-- Node6 -->
<g id="node6" class="node"><title>Node6</title>
<g id="a_node6"><a xlink:href="DalitzFitD03K_8cpp.html" target="_top" xlink:title="Executable for Dalitz plot analysis of the decay D0 &#45;&gt; K_S K+ K&#45;. ">
<polygon fill="white" stroke="black" points="524,-0.5 524,-52.5 682,-52.5 682,-0.5 524,-0.5"/>
<text text-anchor="start" x="532" y="-40.5" font-family="Helvetica,sans-Serif" font-size="10.00">/home/travis/build</text>
<text text-anchor="start" x="532" y="-29.5" font-family="Helvetica,sans-Serif" font-size="10.00">/ComPWA/ComPWA/Examples</text>
<text text-anchor="start" x="532" y="-18.5" font-family="Helvetica,sans-Serif" font-size="10.00">/DalitzAnalysis_D0KsKK</text>
<text text-anchor="middle" x="603" y="-7.5" font-family="Helvetica,sans-Serif" font-size="10.00">/DalitzFitD03K.cpp</text>
</a>
</g>
</g>
<!-- Node1&#45;&gt;Node6 -->
<g id="edge9" class="edge"><title>Node1&#45;&gt;Node6</title>
<path fill="none" stroke="midnightblue" d="M790.142,-163.725C769.106,-155.168 746.744,-144.257 728,-131 707.448,-116.464 708.836,-105.7 690,-89 675.329,-75.993 657.891,-63.2134 642.494,-52.7028"/>
<polygon fill="midnightblue" stroke="midnightblue" points="789.109,-167.08 799.696,-167.491 791.676,-160.568 789.109,-167.08"/>
</g>
<!-- Node7 -->
<g id="node7" class="node"><title>Node7</title>
<g id="a_node7"><a xlink:href="DalitzFitApp_8cpp.html" target="_top" xlink:title="Simple Dalitz plot analysis with ComPWA. ">
<polygon fill="white" stroke="black" points="856,-6 856,-47 1014,-47 1014,-6 856,-6"/>
<text text-anchor="start" x="864" y="-35" font-family="Helvetica,sans-Serif" font-size="10.00">/home/travis/build</text>
<text text-anchor="start" x="864" y="-24" font-family="Helvetica,sans-Serif" font-size="10.00">/ComPWA/ComPWA/Examples</text>
<text text-anchor="middle" x="935" y="-13" font-family="Helvetica,sans-Serif" font-size="10.00">/DalitzFit/DalitzFitApp.cpp</text>
</a>
</g>
</g>
<!-- Node1&#45;&gt;Node7 -->
<g id="edge10" class="edge"><title>Node1&#45;&gt;Node7</title>
<path fill="none" stroke="midnightblue" d="M875.212,-158.133C889.903,-126.034 913.238,-75.0493 925.976,-47.2178"/>
<polygon fill="midnightblue" stroke="midnightblue" points="871.93,-156.893 870.951,-167.442 878.295,-159.806 871.93,-156.893"/>
</g>
<!-- Node9 -->
<g id="node9" class="node"><title>Node9</title>
<g id="a_node9"><a xlink:href="SimFit_8cpp.html" target="_top" xlink:title="/home/travis/build\l/ComPWA/ComPWA/Examples\l/SimFit/SimFit.cpp">
<polygon fill="white" stroke="black" points="1032,-6 1032,-47 1190,-47 1190,-6 1032,-6"/>
<text text-anchor="start" x="1040" y="-35" font-family="Helvetica,sans-Serif" font-size="10.00">/home/travis/build</text>
<text text-anchor="start" x="1040" y="-24" font-family="Helvetica,sans-Serif" font-size="10.00">/ComPWA/ComPWA/Examples</text>
<text text-anchor="middle" x="1111" y="-13" font-family="Helvetica,sans-Serif" font-size="10.00">/SimFit/SimFit.cpp</text>
</a>
</g>
</g>
<!-- Node1&#45;&gt;Node9 -->
<g id="edge11" class="edge"><title>Node1&#45;&gt;Node9</title>
<path fill="none" stroke="midnightblue" d="M901.062,-161.978C950.597,-130.248 1034.99,-76.1889 1080.22,-47.2178"/>
<polygon fill="midnightblue" stroke="midnightblue" points="899.065,-159.101 892.532,-167.442 902.841,-164.995 899.065,-159.101"/>
</g>
<!-- Node10 -->
<g id="node10" class="node"><title>Node10</title>
<g id="a_node10"><a xlink:href="BuilderXML_8hpp.html" target="_top" xlink:title="/home/travis/build\l/ComPWA/ComPWA/Physics\l/BuilderXML.hpp">
<polygon fill="white" stroke="black" points="1023.5,-89.5 1023.5,-130.5 1172.5,-130.5 1172.5,-89.5 1023.5,-89.5"/>
<text text-anchor="start" x="1031.5" y="-118.5" font-family="Helvetica,sans-Serif" font-size="10.00">/home/travis/build</text>
<text text-anchor="start" x="1031.5" y="-107.5" font-family="Helvetica,sans-Serif" font-size="10.00">/ComPWA/ComPWA/Physics</text>
<text text-anchor="middle" x="1098" y="-96.5" font-family="Helvetica,sans-Serif" font-size="10.00">/BuilderXML.hpp</text>
</a>
</g>
</g>
<!-- Node1&#45;&gt;Node10 -->
<g id="edge12" class="edge"><title>Node1&#45;&gt;Node10</title>
<path fill="none" stroke="midnightblue" d="M932.477,-164.304C965.884,-153.546 1005.39,-140.823 1037.43,-130.506"/>
<polygon fill="midnightblue" stroke="midnightblue" points="931.222,-161.031 922.776,-167.428 933.367,-167.694 931.222,-161.031"/>
</g>
<!-- Node13 -->
<g id="node13" class="node"><title>Node13</title>
<g id="a_node13"><a xlink:href="BOSSAdapter_8hpp.html" target="_top" xlink:title="/home/travis/build\l/ComPWA/ComPWA/Tools\l/Adapters/BOSSAdapter.hpp">
<polygon fill="white" stroke="black" points="1276,-89.5 1276,-130.5 1418,-130.5 1418,-89.5 1276,-89.5"/>
<text text-anchor="start" x="1284" y="-118.5" font-family="Helvetica,sans-Serif" font-size="10.00">/home/travis/build</text>
<text text-anchor="start" x="1284" y="-107.5" font-family="Helvetica,sans-Serif" font-size="10.00">/ComPWA/ComPWA/Tools</text>
<text text-anchor="middle" x="1347" y="-96.5" font-family="Helvetica,sans-Serif" font-size="10.00">/Adapters/BOSSAdapter.hpp</text>
</a>
</g>
</g>
<!-- Node1&#45;&gt;Node13 -->
<g id="edge18" class="edge"><title>Node1&#45;&gt;Node13</title>
<path fill="none" stroke="midnightblue" d="M968.723,-170.276C1061.98,-155.663 1194.76,-134.855 1275.68,-122.177"/>
<polygon fill="midnightblue" stroke="midnightblue" points="968.028,-166.842 958.691,-171.848 969.112,-173.758 968.028,-166.842"/>
</g>
<!-- Node14 -->
<g id="node14" class="node"><title>Node14</title>
<g id="a_node14"><a xlink:href="DalitzPlot_8hpp.html" target="_top" xlink:title="/home/travis/build\l/ComPWA/ComPWA/Tools\l/Plotting/DalitzPlot.hpp">
<polygon fill="white" stroke="black" points="737,-89.5 737,-130.5 875,-130.5 875,-89.5 737,-89.5"/>
<text text-anchor="start" x="745" y="-118.5" font-family="Helvetica,sans-Serif" font-size="10.00">/home/travis/build</text>
<text text-anchor="start" x="745" y="-107.5" font-family="Helvetica,sans-Serif" font-size="10.00">/ComPWA/ComPWA/Tools</text>
<text text-anchor="middle" x="806" y="-96.5" font-family="Helvetica,sans-Serif" font-size="10.00">/Plotting/DalitzPlot.hpp</text>
</a>
</g>
</g>
<!-- Node1&#45;&gt;Node14 -->
<g id="edge20" class="edge"><title>Node1&#45;&gt;Node14</title>
<path fill="none" stroke="midnightblue" d="M841.617,-159.338C834.573,-149.778 826.833,-139.273 820.373,-130.506"/>
<polygon fill="midnightblue" stroke="midnightblue" points="838.829,-161.454 847.579,-167.428 844.464,-157.301 838.829,-161.454"/>
</g>
<!-- Node4 -->
<g id="node4" class="node"><title>Node4</title>
<g id="a_node4"><a xlink:href="MinLogLH_8cpp.html" target="_top" xlink:title="/home/travis/build\l/ComPWA/ComPWA/Estimator\l/MinLogLH/MinLogLH.cpp">
<polygon fill="white" stroke="black" points="174,-6 174,-47 330,-47 330,-6 174,-6"/>
<text text-anchor="start" x="182" y="-35" font-family="Helvetica,sans-Serif" font-size="10.00">/home/travis/build</text>
<text text-anchor="start" x="182" y="-24" font-family="Helvetica,sans-Serif" font-size="10.00">/ComPWA/ComPWA/Estimator</text>
<text text-anchor="middle" x="252" y="-13" font-family="Helvetica,sans-Serif" font-size="10.00">/MinLogLH/MinLogLH.cpp</text>
</a>
</g>
</g>
<!-- Node3&#45;&gt;Node4 -->
<g id="edge3" class="edge"><title>Node3&#45;&gt;Node4</title>
<path fill="none" stroke="midnightblue" d="M515.302,-89.0652C515.201,-89.0434 515.101,-89.0217 515,-89 436.956,-72.1517 416.488,-72.2453 339,-53 331.668,-51.1789 324.027,-49.1443 316.45,-47.0401"/>
<polygon fill="midnightblue" stroke="midnightblue" points="514.294,-92.4275 524.81,-91.1368 515.784,-85.588 514.294,-92.4275"/>
</g>
<!-- Node5 -->
<g id="node5" class="node"><title>Node5</title>
<g id="a_node5"><a xlink:href="SumMinLogLH_8cpp.html" target="_top" xlink:title="/home/travis/build\l/ComPWA/ComPWA/Estimator\l/MinLogLH/SumMinLogLH.cpp">
<polygon fill="white" stroke="black" points="0,-6 0,-47 156,-47 156,-6 0,-6"/>
<text text-anchor="start" x="8" y="-35" font-family="Helvetica,sans-Serif" font-size="10.00">/home/travis/build</text>
<text text-anchor="start" x="8" y="-24" font-family="Helvetica,sans-Serif" font-size="10.00">/ComPWA/ComPWA/Estimator</text>
<text text-anchor="middle" x="78" y="-13" font-family="Helvetica,sans-Serif" font-size="10.00">/MinLogLH/SumMinLogLH.cpp</text>
</a>
</g>
</g>
<!-- Node3&#45;&gt;Node5 -->
<g id="edge4" class="edge"><title>Node3&#45;&gt;Node5</title>
<path fill="none" stroke="midnightblue" d="M515.305,-89.0502C515.203,-89.0334 515.101,-89.0167 515,-89 360.696,-63.6255 318.449,-83.1175 165,-53 156.66,-51.3631 147.967,-49.2821 139.442,-47.0172"/>
<polygon fill="midnightblue" stroke="midnightblue" points="514.432,-92.4505 524.887,-90.7313 515.642,-85.5558 514.432,-92.4505"/>
</g>
<!-- Node3&#45;&gt;Node6 -->
<g id="edge5" class="edge"><title>Node3&#45;&gt;Node6</title>
<path fill="none" stroke="midnightblue" d="M603,-79.1211C603,-70.4126 603,-60.9894 603,-52.6073"/>
<polygon fill="midnightblue" stroke="midnightblue" points="599.5,-79.2711 603,-89.2711 606.5,-79.2712 599.5,-79.2711"/>
</g>
<!-- Node3&#45;&gt;Node7 -->
<g id="edge6" class="edge"><title>Node3&#45;&gt;Node7</title>
<path fill="none" stroke="midnightblue" d="M691.067,-90.0474C737.59,-79.7179 795.558,-66.3451 847,-53 854.082,-51.1627 861.461,-49.1623 868.8,-47.1168"/>
<polygon fill="midnightblue" stroke="midnightblue" points="690.026,-86.693 681.018,-92.2708 691.538,-93.5277 690.026,-86.693"/>
</g>
<!-- Node8 -->
<g id="node8" class="node"><title>Node8</title>
<g id="a_node8"><a xlink:href="EvtGenFit_8cpp.html" target="_top" xlink:title="/home/travis/build\l/ComPWA/ComPWA/Examples\l/EvtGen/EvtGenFit.cpp">
<polygon fill="white" stroke="black" points="348,-6 348,-47 506,-47 506,-6 348,-6"/>
<text text-anchor="start" x="356" y="-35" font-family="Helvetica,sans-Serif" font-size="10.00">/home/travis/build</text>
<text text-anchor="start" x="356" y="-24" font-family="Helvetica,sans-Serif" font-size="10.00">/ComPWA/ComPWA/Examples</text>
<text text-anchor="middle" x="427" y="-13" font-family="Helvetica,sans-Serif" font-size="10.00">/EvtGen/EvtGenFit.cpp</text>
</a>
</g>
</g>
<!-- Node3&#45;&gt;Node8 -->
<g id="edge7" class="edge"><title>Node3&#45;&gt;Node8</title>
<path fill="none" stroke="midnightblue" d="M551.453,-85.1302C525.261,-73.0016 493.836,-58.4497 469.117,-47.0031"/>
<polygon fill="midnightblue" stroke="midnightblue" points="550.299,-88.4527 560.844,-89.4787 553.24,-82.1006 550.299,-88.4527"/>
</g>
<!-- Node3&#45;&gt;Node9 -->
<g id="edge8" class="edge"><title>Node3&#45;&gt;Node9</title>
<path fill="none" stroke="midnightblue" d="M691.51,-94.4196C703.757,-92.5245 716.184,-90.6657 728,-89 858.791,-70.5628 893.595,-79.4663 1023,-53 1031.1,-51.3426 1039.55,-49.3065 1047.85,-47.1137"/>
<polygon fill="midnightblue" stroke="midnightblue" points="690.622,-91.0157 681.282,-96.0166 691.702,-97.9319 690.622,-91.0157"/>
</g>
<!-- Node10&#45;&gt;Node6 -->
<g id="edge13" class="edge"><title>Node10&#45;&gt;Node6</title>
<path fill="none" stroke="midnightblue" d="M1013.06,-100.948C930.29,-92.249 801.172,-76.4122 691,-53 688.044,-52.3718 685.042,-51.6964 682.017,-50.9842"/>
<polygon fill="midnightblue" stroke="midnightblue" points="1012.86,-104.446 1023.17,-101.999 1013.59,-97.4834 1012.86,-104.446"/>
</g>
<!-- Node10&#45;&gt;Node7 -->
<g id="edge14" class="edge"><title>Node10&#45;&gt;Node7</title>
<path fill="none" stroke="midnightblue" d="M1049.94,-84.9705C1025.75,-72.8741 996.799,-58.3995 974.006,-47.0031"/>
<polygon fill="midnightblue" stroke="midnightblue" points="1048.45,-88.137 1058.96,-89.4787 1051.58,-81.876 1048.45,-88.137"/>
</g>
<!-- Node10&#45;&gt;Node9 -->
<g id="edge15" class="edge"><title>Node10&#45;&gt;Node9</title>
<path fill="none" stroke="midnightblue" d="M1102.77,-79.0646C1104.48,-68.3819 1106.35,-56.6303 1107.88,-47.0472"/>
<polygon fill="midnightblue" stroke="midnightblue" points="1099.27,-78.8446 1101.15,-89.2711 1106.18,-79.9473 1099.27,-78.8446"/>
</g>
<!-- Node11 -->
<g id="node11" class="node"><title>Node11</title>
<g id="a_node11"><a xlink:href="BuilderXML_8cpp.html" target="_top" xlink:title="/home/travis/build\l/ComPWA/ComPWA/Physics\l/BuilderXML.cpp">
<polygon fill="white" stroke="black" points="1207.5,-6 1207.5,-47 1356.5,-47 1356.5,-6 1207.5,-6"/>
<text text-anchor="start" x="1215.5" y="-35" font-family="Helvetica,sans-Serif" font-size="10.00">/home/travis/build</text>
<text text-anchor="start" x="1215.5" y="-24" font-family="Helvetica,sans-Serif" font-size="10.00">/ComPWA/ComPWA/Physics</text>
<text text-anchor="middle" x="1282" y="-13" font-family="Helvetica,sans-Serif" font-size="10.00">/BuilderXML.cpp</text>
</a>
</g>
</g>
<!-- Node10&#45;&gt;Node11 -->
<g id="edge16" class="edge"><title>Node10&#45;&gt;Node11</title>
<path fill="none" stroke="midnightblue" d="M1151.53,-85.2896C1178.98,-73.1294 1212.01,-58.4999 1237.97,-47.0031"/>
<polygon fill="midnightblue" stroke="midnightblue" points="1149.8,-82.2287 1142.07,-89.4787 1152.63,-88.6289 1149.8,-82.2287"/>
</g>
<!-- Node12 -->
<g id="node12" class="node"><title>Node12</title>
<g id="a_node12"><a xlink:href="BOSSAdapter_8cpp.html" target="_top" xlink:title="/home/travis/build\l/ComPWA/ComPWA/Tools\l/Adapters/BOSSAdapter.cpp">
<polygon fill="white" stroke="black" points="1375,-6 1375,-47 1517,-47 1517,-6 1375,-6"/>
<text text-anchor="start" x="1383" y="-35" font-family="Helvetica,sans-Serif" font-size="10.00">/home/travis/build</text>
<text text-anchor="start" x="1383" y="-24" font-family="Helvetica,sans-Serif" font-size="10.00">/ComPWA/ComPWA/Tools</text>
<text text-anchor="middle" x="1446" y="-13" font-family="Helvetica,sans-Serif" font-size="10.00">/Adapters/BOSSAdapter.cpp</text>
</a>
</g>
</g>
<!-- Node10&#45;&gt;Node12 -->
<g id="edge17" class="edge"><title>Node10&#45;&gt;Node12</title>
<path fill="none" stroke="midnightblue" d="M1182.74,-93.602C1235.73,-83.4045 1305.22,-68.9926 1366,-53 1372.77,-51.2196 1379.81,-49.2103 1386.78,-47.1206"/>
<polygon fill="midnightblue" stroke="midnightblue" points="1181.87,-90.2045 1172.71,-95.5204 1183.18,-97.0799 1181.87,-90.2045"/>
</g>
<!-- Node13&#45;&gt;Node12 -->
<g id="edge19" class="edge"><title>Node13&#45;&gt;Node12</title>
<path fill="none" stroke="midnightblue" d="M1378.71,-82.895C1392.8,-71.2967 1409.11,-57.8727 1422.14,-47.1445"/>
<polygon fill="midnightblue" stroke="midnightblue" points="1376.21,-80.4208 1370.71,-89.4787 1380.66,-85.8251 1376.21,-80.4208"/>
</g>
<!-- Node14&#45;&gt;Node6 -->
<g id="edge21" class="edge"><title>Node14&#45;&gt;Node6</title>
<path fill="none" stroke="midnightblue" d="M748.089,-85.75C722.265,-75.3824 691.795,-63.1491 665.46,-52.5764"/>
<polygon fill="midnightblue" stroke="midnightblue" points="746.792,-89.0009 757.376,-89.4787 749.4,-82.5049 746.792,-89.0009"/>
</g>
<!-- Node14&#45;&gt;Node7 -->
<g id="edge22" class="edge"><title>Node14&#45;&gt;Node7</title>
<path fill="none" stroke="midnightblue" d="M845.528,-84.0271C864.283,-72.1778 886.37,-58.2236 903.906,-47.1445"/>
<polygon fill="midnightblue" stroke="midnightblue" points="843.483,-81.1786 836.899,-89.4787 847.222,-87.0965 843.483,-81.1786"/>
</g>
<!-- Node14&#45;&gt;Node8 -->
<g id="edge23" class="edge"><title>Node14&#45;&gt;Node8</title>
<path fill="none" stroke="midnightblue" d="M726.87,-94.6188C654.961,-81.395 554.294,-62.4528 515,-53 507.577,-51.2142 499.843,-49.2016 492.177,-47.11"/>
<polygon fill="midnightblue" stroke="midnightblue" points="726.349,-98.0815 736.816,-96.4452 727.613,-91.1966 726.349,-98.0815"/>
</g>
<!-- Node15 -->
<g id="node15" class="node"><title>Node15</title>
<g id="a_node15"><a xlink:href="DalitzPlot_8cpp.html" target="_top" xlink:title="/home/travis/build\l/ComPWA/ComPWA/Tools\l/Plotting/DalitzPlot.cpp">
<polygon fill="white" stroke="black" points="700,-6 700,-47 838,-47 838,-6 700,-6"/>
<text text-anchor="start" x="708" y="-35" font-family="Helvetica,sans-Serif" font-size="10.00">/home/travis/build</text>
<text text-anchor="start" x="708" y="-24" font-family="Helvetica,sans-Serif" font-size="10.00">/ComPWA/ComPWA/Tools</text>
<text text-anchor="middle" x="769" y="-13" font-family="Helvetica,sans-Serif" font-size="10.00">/Plotting/DalitzPlot.cpp</text>
</a>
</g>
</g>
<!-- Node14&#45;&gt;Node15 -->
<g id="edge24" class="edge"><title>Node14&#45;&gt;Node15</title>
<path fill="none" stroke="midnightblue" d="M792.863,-80.0629C787.894,-69.1185 782.361,-56.9298 777.874,-47.0472"/>
<polygon fill="midnightblue" stroke="midnightblue" points="789.722,-81.6124 797.043,-89.2711 796.096,-78.7187 789.722,-81.6124"/>
</g>
</g>
</svg>
        <g id="navigator" transform="translate(0 0)" fill="#404254">
                <rect fill="#f2f5e9" fill-opacity="0.5" stroke="#606060" stroke-width=".5" x="0" y="0" width="60" height="60"/>
                <use id="zoomplus" xlink:href="#zoomPlus" x="17" y="9" onmousedown="handleZoom(evt,'in')"/>
                <use id="zoomminus" xlink:href="#zoomMin" x="42" y="9" onmousedown="handleZoom(evt,'out')"/>
                <use id="reset" xlink:href="#resetDef" x="30" y="36" onmousedown="handleReset()"/>
                <g id="arrowUp" xlink:href="#dirArrow" transform="translate(30 24)" onmousedown="handlePan(0,-1)">
                  <use xlink:href="#rim" fill="#404040">
                        <set attributeName="fill" to="#808080" begin="arrowUp.mouseover" end="arrowUp.mouseout"/>
                  </use>
                  <path fill="none" stroke="white" stroke-width="1.5" d="M0,-3.0v7 M-2.5,-0.5L0,-3.0L2.5,-0.5"/>
                </g>
                <g id="arrowRight" xlink:href="#dirArrow" transform="rotate(90) translate(36 -43)" onmousedown="handlePan(1,0)">
                  <use xlink:href="#rim" fill="#404040">
                        <set attributeName="fill" to="#808080" begin="arrowRight.mouseover" end="arrowRight.mouseout"/>
                  </use>
                  <path fill="none" stroke="white" stroke-width="1.5" d="M0,-3.0v7 M-2.5,-0.5L0,-3.0L2.5,-0.5"/>
                </g>
                <g id="arrowDown" xlink:href="#dirArrow" transform="rotate(180) translate(-30 -48)" onmousedown="handlePan(0,1)">
                  <use xlink:href="#rim" fill="#404040">
                        <set attributeName="fill" to="#808080" begin="arrowDown.mouseover" end="arrowDown.mouseout"/>
                  </use>
                  <path fill="none" stroke="white" stroke-width="1.5" d="M0,-3.0v7 M-2.5,-0.5L0,-3.0L2.5,-0.5"/>
                </g>
                <g id="arrowLeft" xlink:href="#dirArrow" transform="rotate(270) translate(-36 17)" onmousedown="handlePan(-1,0)">
                  <use xlink:href="#rim" fill="#404040">
                        <set attributeName="fill" to="#808080" begin="arrowLeft.mouseover" end="arrowLeft.mouseout"/>
                  </use>
                  <path fill="none" stroke="white" stroke-width="1.5" d="M0,-3.0v7 M-2.5,-0.5L0,-3.0L2.5,-0.5"/>
                </g>
        </g>
        <svg viewBox="0 0 15 15" width="100%" height="30px" preserveAspectRatio="xMaxYMin meet">
         <g id="arrow_out" transform="scale(0.3 0.3)">
          <a xlink:href="FunctionTreeIntensity_8hpp__dep__incl_org.svg" target="_base">
           <rect id="button" ry="5" rx="5" y="6" x="6" height="38" width="38"
                fill="#f2f5e9" fill-opacity="0.5" stroke="#606060" stroke-width="1.0"/>
           <path id="arrow"
             d="M 11.500037,31.436501 C 11.940474,20.09759 22.043105,11.32322 32.158766,21.979434 L 37.068811,17.246167 C 37.068811,17.246167 37.088388,32 37.088388,32 L 22.160133,31.978069 C 22.160133,31.978069 26.997745,27.140456 26.997745,27.140456 C 18.528582,18.264221 13.291696,25.230495 11.500037,31.436501 z"
             style="fill:#404040;"/>
          </a>
         </g>
        </svg>
</svg>
