<?xml version="1.0" encoding="UTF-8" standalone="no"?>
<!DOCTYPE svg PUBLIC "-//W3C//DTD SVG 1.1//EN"
 "http://www.w3.org/Graphics/SVG/1.1/DTD/svg11.dtd">
<!-- Generated by graphviz version 2.40.1 (20161225.0304)
 -->
<!-- Title: Core/FunctionTree/Functions.hpp Pages: 1 -->
<!--zoomable 352 -->
<svg id="main" version="1.1" xmlns="http://www.w3.org/2000/svg" xmlns:xlink="http://www.w3.org/1999/xlink" xml:space="preserve" onload="init(evt)">
<style type="text/css"><![CDATA[
.edge:hover path { stroke: red; }
.edge:hover polygon { stroke: red; fill: red; }
]]></style>
<script type="text/javascript"><![CDATA[
var edges = document.getElementsByTagName('g');
if (edges && edges.length) {
  for (var i=0;i<edges.length;i++) {
    if (edges[i].id.substr(0,4)=='edge') {
      edges[i].setAttribute('class','edge');
    }
  }
}
]]></script>
        <defs>
                <circle id="rim" cx="0" cy="0" r="7"/>
                <circle id="rim2" cx="0" cy="0" r="3.5"/>
                <g id="zoomPlus">
                        <use xlink:href="#rim" fill="#404040">
                                <set attributeName="fill" to="#808080" begin="zoomplus.mouseover" end="zoomplus.mouseout"/>
                        </use>
                        <path d="M-4,0h8M0,-4v8" fill="none" stroke="white" stroke-width="1.5" pointer-events="none"/>
                </g>
                <g id="zoomMin">
                        <use xlink:href="#rim" fill="#404040">
                                <set attributeName="fill" to="#808080" begin="zoomminus.mouseover" end="zoomminus.mouseout"/>
                        </use>
                        <path d="M-4,0h8" fill="none" stroke="white" stroke-width="1.5" pointer-events="none"/>
                </g>
                <g id="dirArrow">
                        <path fill="none" stroke="white" stroke-width="1.5" d="M0,-3.0v7 M-2.5,-0.5L0,-3.0L2.5,-0.5"/>
                </g>
               <g id="resetDef">
                       <use xlink:href="#rim2" fill="#404040">
                               <set attributeName="fill" to="#808080" begin="reset.mouseover" end="reset.mouseout"/>
                       </use>
               </g>
        </defs>

<script type="text/javascript">
var viewWidth = 1384;
var viewHeight = 352;
var sectionId = 'dynsection-0';
</script>
<script xlink:href="svgpan.js"/>
<svg id="graph" class="graph">
<g id="viewport">
<title>Core/FunctionTree/Functions.hpp</title>
<polygon fill="#ffffff" stroke="transparent" points="-4,4 -4,-348 1379.5,-348 1379.5,4 -4,4"/>
<!-- Node0 -->
<g id="node1" class="node">
<title>Node0</title>
<polygon fill="#bfbfbf" stroke="#000000" points="924.5,-324.5 924.5,-343.5 1097.5,-343.5 1097.5,-324.5 924.5,-324.5"/>
<text text-anchor="middle" x="1011" y="-331.5" font-family="Helvetica,sans-Serif" font-size="10.00" fill="#000000">Core/FunctionTree/Functions.hpp</text>
</g>
<!-- Node1 -->
<g id="node2" class="node">
<title>Node1</title>
<polygon fill="#ffffff" stroke="#bfbfbf" points="194.5,-6 194.5,-25 253.5,-25 253.5,-6 194.5,-6"/>
<text text-anchor="middle" x="224" y="-13" font-family="Helvetica,sans-Serif" font-size="10.00" fill="#000000">complex</text>
</g>
<!-- Node0&#45;&gt;Node1 -->
<g id="edge1" class="edge">
<title>Node0&#45;&gt;Node1</title>
<path fill="none" stroke="#191970" d="M924.3291,-332.4788C746.109,-328.7851 344.0184,-317.3856 210,-288 112.0496,-266.5229 0,-305.7774 0,-205.5 0,-205.5 0,-205.5 0,-144 0,-104.8031 12.1994,-91.2429 43,-67 89.7735,-30.1849 114.8092,-47.5024 172,-31 176.073,-29.8247 180.3208,-28.5837 184.5561,-27.3364"/>
<polygon fill="#191970" stroke="#191970" points="185.7334,-30.6381 194.3278,-24.4424 183.7456,-23.9262 185.7334,-30.6381"/>
</g>
<!-- Node2 -->
<g id="node3" class="node">
<title>Node2</title>
<polygon fill="#ffffff" stroke="#bfbfbf" points="1324.5,-263 1324.5,-282 1375.5,-282 1375.5,-263 1324.5,-263"/>
<text text-anchor="middle" x="1350" y="-270" font-family="Helvetica,sans-Serif" font-size="10.00" fill="#000000">math.h</text>
</g>
<!-- Node0&#45;&gt;Node2 -->
<g id="edge2" class="edge">
<title>Node0&#45;&gt;Node2</title>
<path fill="none" stroke="#191970" d="M1097.7325,-325.6941C1157.9739,-318.7056 1239.7259,-306.7823 1310,-288 1312.7656,-287.2608 1315.6025,-286.3942 1318.4268,-285.4551"/>
<polygon fill="#191970" stroke="#191970" points="1319.6344,-288.7403 1327.8598,-282.0624 1317.2653,-282.1534 1319.6344,-288.7403"/>
</g>
<!-- Node3 -->
<g id="node4" class="node">
<title>Node3</title>
<polygon fill="#ffffff" stroke="#bfbfbf" points="1166.5,-6 1166.5,-25 1213.5,-25 1213.5,-6 1166.5,-6"/>
<text text-anchor="middle" x="1190" y="-13" font-family="Helvetica,sans-Serif" font-size="10.00" fill="#000000">vector</text>
</g>
<!-- Node0&#45;&gt;Node3 -->
<g id="edge3" class="edge">
<title>Node0&#45;&gt;Node3</title>
<path fill="none" stroke="#191970" d="M1052.4414,-324.4538C1131.4855,-305.0366 1296,-258.2834 1296,-205.5 1296,-205.5 1296,-205.5 1296,-144 1296,-93.4626 1246.6076,-52.044 1215.255,-30.8435"/>
<polygon fill="#191970" stroke="#191970" points="1216.849,-27.7043 1206.5625,-25.167 1213.0216,-33.5653 1216.849,-27.7043"/>
</g>
<!-- Node4 -->
<g id="node5" class="node">
<title>Node4</title>
<g id="a_node5"><a xlink:href="Exceptions_8hpp.html" target="_top" xlink:title="ComPWA exceptions. ">
<polygon fill="#ffffff" stroke="#000000" points="73,-73 73,-92 189,-92 189,-73 73,-73"/>
<text text-anchor="middle" x="131" y="-80" font-family="Helvetica,sans-Serif" font-size="10.00" fill="#000000">Core/Exceptions.hpp</text>
</a>
</g>
</g>
<!-- Node0&#45;&gt;Node4 -->
<g id="edge4" class="edge">
<title>Node0&#45;&gt;Node4</title>
<path fill="none" stroke="#191970" d="M924.4863,-329.3498C710.273,-316.9742 168.5109,-280.0897 114,-221 83.7307,-188.1881 105.8465,-130.8513 120.6156,-101.2976"/>
<polygon fill="#191970" stroke="#191970" points="123.8993,-102.5714 125.4354,-92.0885 117.6973,-99.3255 123.8993,-102.5714"/>
</g>
<!-- Node7 -->
<g id="node8" class="node">
<title>Node7</title>
<g id="a_node8"><a xlink:href="FunctionTree_2FitParameter_8hpp.html" target="_top" xlink:title="Implementations of Parameter for various data types. ">
<polygon fill="#ffffff" stroke="#000000" points="708,-134.5 708,-153.5 896,-153.5 896,-134.5 708,-134.5"/>
<text text-anchor="middle" x="802" y="-141.5" font-family="Helvetica,sans-Serif" font-size="10.00" fill="#000000">Core/FunctionTree/FitParameter.hpp</text>
</a>
</g>
</g>
<!-- Node0&#45;&gt;Node7 -->
<g id="edge7" class="edge">
<title>Node0&#45;&gt;Node7</title>
<path fill="none" stroke="#191970" d="M1036.1267,-324.3426C1090.6479,-302.0466 1211.169,-244.6964 1163,-190 1146.1455,-170.8616 1006.9586,-157.5667 906.4495,-150.357"/>
<polygon fill="#191970" stroke="#191970" points="906.4592,-146.8491 896.2374,-149.6358 905.9659,-153.8317 906.4592,-146.8491"/>
</g>
<!-- Node30 -->
<g id="node20" class="node">
<title>Node30</title>
<g id="a_node20"><a xlink:href="ParameterList_8hpp.html" target="_top" xlink:title="ParameterList class. ">
<polygon fill="#ffffff" stroke="#000000" points="724,-257.5 724,-287.5 880,-287.5 880,-257.5 724,-257.5"/>
<text text-anchor="start" x="732" y="-275.5" font-family="Helvetica,sans-Serif" font-size="10.00" fill="#000000">Core/FunctionTree/Parameter</text>
<text text-anchor="middle" x="802" y="-264.5" font-family="Helvetica,sans-Serif" font-size="10.00" fill="#000000">List.hpp</text>
</a>
</g>
</g>
<!-- Node0&#45;&gt;Node30 -->
<g id="edge29" class="edge">
<title>Node0&#45;&gt;Node30</title>
<path fill="none" stroke="#191970" d="M978.3438,-324.3906C947.5701,-315.3352 900.6854,-301.539 862.9935,-290.4479"/>
<polygon fill="#191970" stroke="#191970" points="863.7085,-287.0099 853.1272,-287.5446 861.7324,-293.7252 863.7085,-287.0099"/>
</g>
<!-- Node5 -->
<g id="node6" class="node">
<title>Node5</title>
<polygon fill="#ffffff" stroke="#bfbfbf" points="98.5,-6 98.5,-25 163.5,-25 163.5,-6 98.5,-6"/>
<text text-anchor="middle" x="131" y="-13" font-family="Helvetica,sans-Serif" font-size="10.00" fill="#000000">exception</text>
</g>
<!-- Node4&#45;&gt;Node5 -->
<g id="edge5" class="edge">
<title>Node4&#45;&gt;Node5</title>
<path fill="none" stroke="#191970" d="M131,-72.9005C131,-63.149 131,-47.7597 131,-35.3695"/>
<polygon fill="#191970" stroke="#191970" points="134.5001,-35.0816 131,-25.0817 127.5001,-35.0817 134.5001,-35.0816"/>
</g>
<!-- Node6 -->
<g id="node7" class="node">
<title>Node6</title>
<polygon fill="#ffffff" stroke="#bfbfbf" points="752,-6 752,-25 796,-25 796,-6 752,-6"/>
<text text-anchor="middle" x="774" y="-13" font-family="Helvetica,sans-Serif" font-size="10.00" fill="#000000">string</text>
</g>
<!-- Node4&#45;&gt;Node6 -->
<g id="edge6" class="edge">
<title>Node4&#45;&gt;Node6</title>
<path fill="none" stroke="#191970" d="M189.0441,-76.4029C216.8591,-73.5066 250.6503,-70.0248 281,-67 447.6075,-50.395 489.6379,-49.9059 656,-31 685.0194,-27.7022 717.9676,-23.3206 741.6588,-20.0575"/>
<polygon fill="#191970" stroke="#191970" points="742.4207,-23.4854 751.8451,-18.6449 741.4591,-16.5518 742.4207,-23.4854"/>
</g>
<!-- Node7&#45;&gt;Node1 -->
<g id="edge9" class="edge">
<title>Node7&#45;&gt;Node1</title>
<path fill="none" stroke="#191970" d="M707.8255,-140.0098C567.7079,-133.4246 316.9033,-118.8982 281,-98 256.513,-83.7469 240.1232,-54.2725 231.4321,-34.6911"/>
<polygon fill="#191970" stroke="#191970" points="234.5692,-33.1203 227.4898,-25.2379 228.1085,-35.8146 234.5692,-33.1203"/>
</g>
<!-- Node7&#45;&gt;Node4 -->
<g id="edge16" class="edge">
<title>Node7&#45;&gt;Node4</title>
<path fill="none" stroke="#191970" d="M707.8249,-140.0628C590.7262,-134.3909 384.9159,-121.8729 210,-98 201.8284,-96.8847 193.2266,-95.4601 184.8271,-93.9279"/>
<polygon fill="#191970" stroke="#191970" points="185.2004,-90.4366 174.7244,-92.0193 183.9008,-97.3149 185.2004,-90.4366"/>
</g>
<!-- Node7&#45;&gt;Node6 -->
<g id="edge13" class="edge">
<title>Node7&#45;&gt;Node6</title>
<path fill="none" stroke="#191970" d="M799.8954,-134.3416C795.3145,-113.3184 784.3632,-63.0598 778.2717,-35.1038"/>
<polygon fill="#191970" stroke="#191970" points="781.6778,-34.296 776.129,-25.2705 774.8383,-35.7864 781.6778,-34.296"/>
</g>
<!-- Node8 -->
<g id="node9" class="node">
<title>Node8</title>
<polygon fill="#ffffff" stroke="#bfbfbf" points="290.5,-73 290.5,-92 337.5,-92 337.5,-73 290.5,-73"/>
<text text-anchor="middle" x="314" y="-80" font-family="Helvetica,sans-Serif" font-size="10.00" fill="#000000">cmath</text>
</g>
<!-- Node7&#45;&gt;Node8 -->
<g id="edge8" class="edge">
<title>Node7&#45;&gt;Node8</title>
<path fill="none" stroke="#191970" d="M707.7052,-138.3788C594.5226,-130.9523 411.747,-116.6075 346,-98 344.0845,-97.4579 342.1437,-96.8063 340.2145,-96.0816"/>
<polygon fill="#191970" stroke="#191970" points="341.4017,-92.7816 330.8347,-92.015 338.6173,-99.204 341.4017,-92.7816"/>
</g>
<!-- Node9 -->
<g id="node10" class="node">
<title>Node9</title>
<polygon fill="#ffffff" stroke="#bfbfbf" points="1058,-73 1058,-92 1118,-92 1118,-73 1058,-73"/>
<text text-anchor="middle" x="1088" y="-80" font-family="Helvetica,sans-Serif" font-size="10.00" fill="#000000">iostream</text>
</g>
<!-- Node7&#45;&gt;Node9 -->
<g id="edge10" class="edge">
<title>Node7&#45;&gt;Node9</title>
<path fill="none" stroke="#191970" d="M866.2868,-134.4927C915.401,-126.5778 984.5386,-114.0264 1044,-98 1047.128,-97.1569 1050.3527,-96.1989 1053.5675,-95.1824"/>
<polygon fill="#191970" stroke="#191970" points="1054.6951,-98.496 1063.0758,-92.0141 1052.4822,-91.8549 1054.6951,-98.496"/>
</g>
<!-- Node10 -->
<g id="node11" class="node">
<title>Node10</title>
<polygon fill="#ffffff" stroke="#bfbfbf" points="1136,-73 1136,-92 1192,-92 1192,-73 1136,-73"/>
<text text-anchor="middle" x="1164" y="-80" font-family="Helvetica,sans-Serif" font-size="10.00" fill="#000000">sstream</text>
</g>
<!-- Node7&#45;&gt;Node10 -->
<g id="edge11" class="edge">
<title>Node7&#45;&gt;Node10</title>
<path fill="none" stroke="#191970" d="M896.1033,-137.0984C961.7,-130.7377 1050.7683,-118.9875 1127,-98 1129.3229,-97.3605 1131.6936,-96.6108 1134.0568,-95.7923"/>
<polygon fill="#191970" stroke="#191970" points="1135.4978,-98.9885 1143.5876,-92.147 1132.9971,-92.4504 1135.4978,-98.9885"/>
</g>
<!-- Node11 -->
<g id="node12" class="node">
<title>Node11</title>
<polygon fill="#ffffff" stroke="#bfbfbf" points="355.5,-73 355.5,-92 420.5,-92 420.5,-73 355.5,-73"/>
<text text-anchor="middle" x="388" y="-80" font-family="Helvetica,sans-Serif" font-size="10.00" fill="#000000">stdexcept</text>
</g>
<!-- Node7&#45;&gt;Node11 -->
<g id="edge12" class="edge">
<title>Node7&#45;&gt;Node11</title>
<path fill="none" stroke="#191970" d="M707.7519,-138.6179C631.6548,-132.7866 522.2757,-121.0311 429,-98 425.9941,-97.2578 422.9079,-96.36 419.8431,-95.3748"/>
<polygon fill="#191970" stroke="#191970" points="420.8446,-92.0171 410.2498,-92.0136 418.53,-98.6234 420.8446,-92.0171"/>
</g>
<!-- Node12 -->
<g id="node13" class="node">
<title>Node12</title>
<polygon fill="#ffffff" stroke="#bfbfbf" points="438.5,-67.5 438.5,-97.5 551.5,-97.5 551.5,-67.5 438.5,-67.5"/>
<text text-anchor="start" x="446.5" y="-85.5" font-family="Helvetica,sans-Serif" font-size="10.00" fill="#000000">boost/property_tree</text>
<text text-anchor="middle" x="495" y="-74.5" font-family="Helvetica,sans-Serif" font-size="10.00" fill="#000000">/ptree_fwd.hpp</text>
</g>
<!-- Node7&#45;&gt;Node12 -->
<g id="edge14" class="edge">
<title>Node7&#45;&gt;Node12</title>
<path fill="none" stroke="#191970" d="M748.7429,-134.4992C702.0202,-126.0137 632.0071,-112.9357 561.7591,-98.1134"/>
<polygon fill="#191970" stroke="#191970" points="562.3563,-94.6623 551.8476,-96.0107 560.9035,-101.5099 562.3563,-94.6623"/>
</g>
<!-- Node13 -->
<g id="node14" class="node">
<title>Node13</title>
<polygon fill="#ffffff" stroke="#bfbfbf" points="834.5,-.5 834.5,-30.5 941.5,-30.5 941.5,-.5 834.5,-.5"/>
<text text-anchor="start" x="842.5" y="-18.5" font-family="Helvetica,sans-Serif" font-size="10.00" fill="#000000">boost/serialization</text>
<text text-anchor="middle" x="888" y="-7.5" font-family="Helvetica,sans-Serif" font-size="10.00" fill="#000000">/utility.hpp</text>
</g>
<!-- Node7&#45;&gt;Node13 -->
<g id="edge15" class="edge">
<title>Node7&#45;&gt;Node13</title>
<path fill="none" stroke="#191970" d="M808.464,-134.3416C821.8583,-114.328 852.9847,-67.8194 872.085,-39.2799"/>
<polygon fill="#191970" stroke="#191970" points="875.1729,-40.9589 877.8262,-30.7016 869.3555,-37.0655 875.1729,-40.9589"/>
</g>
<!-- Node14 -->
<g id="node15" class="node">
<title>Node14</title>
<g id="a_node15"><a xlink:href="FitParameter_8hpp.html" target="_top" xlink:title="Core/FitParameter.hpp">
<polygon fill="#ffffff" stroke="#ff0000" points="878,-73 878,-92 1002,-92 1002,-73 878,-73"/>
<text text-anchor="middle" x="940" y="-80" font-family="Helvetica,sans-Serif" font-size="10.00" fill="#000000">Core/FitParameter.hpp</text>
</a>
</g>
</g>
<!-- Node7&#45;&gt;Node14 -->
<g id="edge17" class="edge">
<title>Node7&#45;&gt;Node14</title>
<path fill="none" stroke="#191970" d="M823.5625,-134.3906C846.5512,-124.1457 883.156,-107.8326 909.1824,-96.2339"/>
<polygon fill="#191970" stroke="#191970" points="910.8796,-99.3095 918.5889,-92.0419 908.0302,-92.9156 910.8796,-99.3095"/>
</g>
<!-- Node17 -->
<g id="node16" class="node">
<title>Node17</title>
<g id="a_node16"><a xlink:href="Logging_8hpp.html" target="_top" xlink:title="Core/Logging.hpp">
<polygon fill="#ffffff" stroke="#ff0000" points="979.5,-6 979.5,-25 1080.5,-25 1080.5,-6 979.5,-6"/>
<text text-anchor="middle" x="1030" y="-13" font-family="Helvetica,sans-Serif" font-size="10.00" fill="#000000">Core/Logging.hpp</text>
</a>
</g>
</g>
<!-- Node7&#45;&gt;Node17 -->
<g id="edge28" class="edge">
<title>Node7&#45;&gt;Node17</title>
<path fill="none" stroke="#191970" d="M887.6643,-134.4689C937.2994,-127.2104 993.379,-115.4507 1011,-98 1027.5094,-81.6502 1030.8743,-54.033 1031.0331,-35.299"/>
<polygon fill="#191970" stroke="#191970" points="1034.5304,-35.1284 1030.8191,-25.2049 1027.532,-35.2768 1034.5304,-35.1284"/>
</g>
<!-- Node21 -->
<g id="node17" class="node">
<title>Node21</title>
<g id="a_node17"><a xlink:href="Parameter_8hpp.html" target="_top" xlink:title="Parameter base class. ">
<polygon fill="#ffffff" stroke="#ff0000" points="570,-73 570,-92 746,-92 746,-73 570,-73"/>
<text text-anchor="middle" x="658" y="-80" font-family="Helvetica,sans-Serif" font-size="10.00" fill="#000000">Core/FunctionTree/Parameter.hpp</text>
</a>
</g>
</g>
<!-- Node7&#45;&gt;Node21 -->
<g id="edge22" class="edge">
<title>Node7&#45;&gt;Node21</title>
<path fill="none" stroke="#191970" d="M779.5,-134.3906C755.4062,-124.1005 716.9787,-107.6888 689.7992,-96.0809"/>
<polygon fill="#191970" stroke="#191970" points="690.9131,-92.7508 680.342,-92.0419 688.1637,-99.1883 690.9131,-92.7508"/>
</g>
<!-- Node14&#45;&gt;Node3 -->
<g id="edge20" class="edge">
<title>Node14&#45;&gt;Node3</title>
<path fill="none" stroke="#191970" d="M975.5534,-72.9717C1023.7802,-60.0469 1109.3099,-37.1249 1156.4678,-24.4866"/>
<polygon fill="#191970" stroke="#191970" points="1157.4456,-27.8482 1166.1987,-21.8787 1155.6335,-21.0868 1157.4456,-27.8482"/>
</g>
<!-- Node14&#45;&gt;Node6 -->
<g id="edge19" class="edge">
<title>Node14&#45;&gt;Node6</title>
<path fill="none" stroke="#191970" d="M916.2162,-72.9005C887.1306,-61.1612 837.8016,-41.2512 805.5631,-28.2393"/>
<polygon fill="#191970" stroke="#191970" points="806.7313,-24.9365 796.1481,-24.4393 804.1113,-31.4278 806.7313,-24.9365"/>
</g>
<!-- Node14&#45;&gt;Node13 -->
<g id="edge21" class="edge">
<title>Node14&#45;&gt;Node13</title>
<path fill="none" stroke="#191970" d="M932.5497,-72.9005C925.6347,-63.9908 915.067,-50.3748 905.9593,-38.6399"/>
<polygon fill="#191970" stroke="#191970" points="908.5549,-36.2757 899.6587,-30.5218 903.025,-40.5676 908.5549,-36.2757"/>
</g>
<!-- Node14&#45;&gt;Node17 -->
<g id="edge18" class="edge">
<title>Node14&#45;&gt;Node17</title>
<path fill="none" stroke="#191970" d="M952.8948,-72.9005C967.4642,-62.0544 991.4022,-44.2339 1008.7454,-31.3229"/>
<polygon fill="#191970" stroke="#191970" points="1011.1978,-33.8606 1017.1291,-25.0817 1007.0177,-28.2457 1011.1978,-33.8606"/>
</g>
<!-- Node21&#45;&gt;Node1 -->
<g id="edge23" class="edge">
<title>Node21&#45;&gt;Node1</title>
<path fill="none" stroke="#191970" d="M598.1483,-72.9872C585.5501,-70.9978 572.3397,-68.9215 560,-67 452.8406,-50.3134 326.3863,-31.0454 263.5589,-21.5008"/>
<polygon fill="#191970" stroke="#191970" points="264.0842,-18.0405 253.672,-19.9993 263.0331,-24.9612 264.0842,-18.0405"/>
</g>
<!-- Node21&#45;&gt;Node3 -->
<g id="edge26" class="edge">
<title>Node21&#45;&gt;Node3</title>
<path fill="none" stroke="#191970" d="M744.7887,-72.9901C831.9057,-63.2419 969.9063,-47.249 1089,-31 1111.4981,-27.9304 1136.7472,-24.0555 1156.3723,-20.948"/>
<polygon fill="#191970" stroke="#191970" points="1157.0356,-24.3866 1166.3599,-19.356 1155.9336,-17.4738 1157.0356,-24.3866"/>
</g>
<!-- Node21&#45;&gt;Node6 -->
<g id="edge25" class="edge">
<title>Node21&#45;&gt;Node6</title>
<path fill="none" stroke="#191970" d="M674.62,-72.9005C694.0012,-61.7062 726.2455,-43.0823 748.7315,-30.0947"/>
<polygon fill="#191970" stroke="#191970" points="750.502,-33.114 757.4109,-25.0817 747.0009,-27.0525 750.502,-33.114"/>
</g>
<!-- Node24 -->
<g id="node18" class="node">
<title>Node24</title>
<polygon fill="#ffffff" stroke="#bfbfbf" points="336,-6 336,-25 394,-25 394,-6 336,-6"/>
<text text-anchor="middle" x="365" y="-13" font-family="Helvetica,sans-Serif" font-size="10.00" fill="#000000">memory</text>
</g>
<!-- Node21&#45;&gt;Node24 -->
<g id="edge24" class="edge">
<title>Node21&#45;&gt;Node24</title>
<path fill="none" stroke="#191970" d="M616.3314,-72.9717C559.6634,-60.0135 459.0496,-37.0062 403.8716,-24.3887"/>
<polygon fill="#191970" stroke="#191970" points="404.6469,-20.9757 394.1183,-22.1584 403.0864,-27.7996 404.6469,-20.9757"/>
</g>
<!-- Node28 -->
<g id="node19" class="node">
<title>Node28</title>
<polygon fill="#ffffff" stroke="#bfbfbf" points="540.5,-.5 540.5,-30.5 647.5,-30.5 647.5,-.5 540.5,-.5"/>
<text text-anchor="start" x="548.5" y="-18.5" font-family="Helvetica,sans-Serif" font-size="10.00" fill="#000000">boost/serialization</text>
<text text-anchor="middle" x="594" y="-7.5" font-family="Helvetica,sans-Serif" font-size="10.00" fill="#000000">/shared_ptr.hpp</text>
</g>
<!-- Node21&#45;&gt;Node28 -->
<g id="edge27" class="edge">
<title>Node21&#45;&gt;Node28</title>
<path fill="none" stroke="#191970" d="M648.8304,-72.9005C640.1544,-63.8178 626.8064,-49.8442 615.4529,-37.9585"/>
<polygon fill="#191970" stroke="#191970" points="617.7874,-35.3353 608.3491,-30.5218 612.7256,-40.1705 617.7874,-35.3353"/>
</g>
<!-- Node30&#45;&gt;Node3 -->
<g id="edge35" class="edge">
<title>Node30&#45;&gt;Node3</title>
<path fill="none" stroke="#191970" d="M880.2244,-270.0401C978.9833,-265.609 1142.0415,-253.4796 1192,-221 1250.6091,-182.8964 1248.5293,-132.4616 1224,-67 1219.4418,-54.8356 1211.5743,-42.6412 1204.5548,-33.1741"/>
<polygon fill="#191970" stroke="#191970" points="1207.1202,-30.7713 1198.2203,-25.023 1201.593,-35.0667 1207.1202,-30.7713"/>
</g>
<!-- Node30&#45;&gt;Node4 -->
<g id="edge38" class="edge">
<title>Node30&#45;&gt;Node4</title>
<path fill="none" stroke="#191970" d="M723.7995,-269.2742C551.5396,-261.7921 152.9777,-242.2647 133,-221 102.7907,-188.8446 114.8547,-131.6424 124.1157,-101.8099"/>
<polygon fill="#191970" stroke="#191970" points="127.492,-102.7478 127.3173,-92.1545 120.8478,-100.5446 127.492,-102.7478"/>
</g>
<!-- Node30&#45;&gt;Node6 -->
<g id="edge34" class="edge">
<title>Node30&#45;&gt;Node6</title>
<path fill="none" stroke="#191970" d="M880.2252,-261.1939C926.5576,-252.718 978.902,-239.4027 993,-221 1001.3788,-210.0628 999.1935,-202.3072 993,-190 962.1519,-128.7013 922.5013,-140.9737 869,-98 841.5548,-75.9553 811.0174,-48.9725 792.1566,-32.0044"/>
<polygon fill="#191970" stroke="#191970" points="794.3655,-29.2832 784.5984,-25.1778 789.6735,-34.478 794.3655,-29.2832"/>
</g>
<!-- Node30&#45;&gt;Node7 -->
<g id="edge39" class="edge">
<title>Node30&#45;&gt;Node7</title>
<path fill="none" stroke="#191970" d="M802,-257.2548C802,-233.9744 802,-189.5607 802,-163.8117"/>
<polygon fill="#191970" stroke="#191970" points="805.5001,-163.7358 802,-153.7358 798.5001,-163.7358 805.5001,-163.7358"/>
</g>
<!-- Node30&#45;&gt;Node9 -->
<g id="edge30" class="edge">
<title>Node30&#45;&gt;Node9</title>
<path fill="none" stroke="#191970" d="M880.076,-262.0737C935.467,-253.3056 1003.7656,-239.274 1026,-221 1045.3751,-205.076 1070.2248,-136.2295 1081.6888,-101.9885"/>
<polygon fill="#191970" stroke="#191970" points="1085.1094,-102.7913 1084.9167,-92.1982 1078.4614,-100.5994 1085.1094,-102.7913"/>
</g>
<!-- Node30&#45;&gt;Node10 -->
<g id="edge33" class="edge">
<title>Node30&#45;&gt;Node10</title>
<path fill="none" stroke="#191970" d="M880.1583,-262.1543C942.0699,-252.8996 1022.6918,-238.1694 1051,-221 1100.3467,-191.0703 1137.6324,-131.532 1154.3378,-101.2003"/>
<polygon fill="#191970" stroke="#191970" points="1157.5658,-102.5863 1159.2018,-92.1186 1151.3951,-99.2814 1157.5658,-102.5863"/>
</g>
<!-- Node30&#45;&gt;Node17 -->
<g id="edge42" class="edge">
<title>Node30&#45;&gt;Node17</title>
<path fill="none" stroke="#191970" d="M880.3707,-265.7741C980.051,-256.5431 1141.8709,-239.0303 1163,-221 1216.6263,-175.2386 1243.0517,-123.5821 1201,-67 1187.574,-48.9349 1134.3734,-34.7956 1090.8331,-25.9398"/>
<polygon fill="#191970" stroke="#191970" points="1091.3467,-22.4737 1080.8577,-23.9672 1089.9887,-29.3407 1091.3467,-22.4737"/>
</g>
<!-- Node30&#45;&gt;Node24 -->
<g id="edge32" class="edge">
<title>Node30&#45;&gt;Node24</title>
<path fill="none" stroke="#191970" d="M723.9495,-271.2354C554.1168,-267.8344 162.3421,-256.2251 114,-221 55.8406,-178.6213 17.6042,-122.0082 64,-67 68.2168,-62.0004 244.8789,-34.0933 325.5529,-21.5765"/>
<polygon fill="#191970" stroke="#191970" points="326.468,-24.9766 335.8144,-19.9871 325.3965,-18.059 326.468,-24.9766"/>
</g>
<!-- Node30&#45;&gt;Node28 -->
<g id="edge36" class="edge">
<title>Node30&#45;&gt;Node28</title>
<path fill="none" stroke="#191970" d="M795.6678,-257.3181C786.9474,-238.3919 769.384,-206.5256 744,-190 568.1761,-75.5345 414.1125,-260.1649 281,-98 272.2584,-87.3505 272.0835,-77.5035 281,-67 296.9414,-48.2213 443.4845,-30.536 530.2901,-21.5882"/>
<polygon fill="#191970" stroke="#191970" points="530.7148,-25.0632 540.3083,-20.567 530.0049,-18.0993 530.7148,-25.0632"/>
</g>
<!-- Node31 -->
<g id="node21" class="node">
<title>Node31</title>
<polygon fill="#ffffff" stroke="#bfbfbf" points="1116,-196 1116,-215 1154,-215 1154,-196 1116,-196"/>
<text text-anchor="middle" x="1135" y="-203" font-family="Helvetica,sans-Serif" font-size="10.00" fill="#000000">map</text>
</g>
<!-- Node30&#45;&gt;Node31 -->
<g id="edge31" class="edge">
<title>Node30&#45;&gt;Node31</title>
<path fill="none" stroke="#191970" d="M880.115,-264.9233C941.469,-257.5874 1028.5228,-244.0969 1102,-221 1103.8568,-220.4163 1105.7437,-219.7492 1107.6266,-219.0272"/>
<polygon fill="#191970" stroke="#191970" points="1109.027,-222.235 1116.8507,-215.0908 1106.2794,-215.7968 1109.027,-222.235"/>
</g>
<!-- Node32 -->
<g id="node22" class="node">
<title>Node32</title>
<polygon fill="#ffffff" stroke="#bfbfbf" points="142.5,-190.5 142.5,-220.5 249.5,-220.5 249.5,-190.5 142.5,-190.5"/>
<text text-anchor="start" x="150.5" y="-208.5" font-family="Helvetica,sans-Serif" font-size="10.00" fill="#000000">boost/serialization</text>
<text text-anchor="middle" x="196" y="-197.5" font-family="Helvetica,sans-Serif" font-size="10.00" fill="#000000">/vector.hpp</text>
</g>
<!-- Node30&#45;&gt;Node32 -->
<g id="edge37" class="edge">
<title>Node30&#45;&gt;Node32</title>
<path fill="none" stroke="#191970" d="M723.7484,-268.6895C619.8145,-262.8232 430.4678,-249.3381 259.4431,-220.9031"/>
<polygon fill="#191970" stroke="#191970" points="259.9467,-217.4387 249.5044,-219.2301 258.7847,-224.3416 259.9467,-217.4387"/>
</g>
<!-- Node33 -->
<g id="node23" class="node">
<title>Node33</title>
<g id="a_node23"><a xlink:href="Value_8hpp.html" target="_top" xlink:title="Template implementation of Parameter for simple values. ">
<polygon fill="#ffffff" stroke="#ff0000" points="830,-196 830,-215 984,-215 984,-196 830,-196"/>
<text text-anchor="middle" x="907" y="-203" font-family="Helvetica,sans-Serif" font-size="10.00" fill="#000000">Core/FunctionTree/Value.hpp</text>
</a>
</g>
</g>
<!-- Node30&#45;&gt;Node33 -->
<g id="edge40" class="edge">
<title>Node30&#45;&gt;Node33</title>
<path fill="none" stroke="#191970" d="M825.564,-257.4639C842.7056,-246.526 865.8321,-231.769 883.0602,-220.7759"/>
<polygon fill="#191970" stroke="#191970" points="885.4018,-223.4336 891.9491,-215.1039 881.6364,-217.5326 885.4018,-223.4336"/>
</g>
<!-- Node35 -->
<g id="node24" class="node">
<title>Node35</title>
<polygon fill="#ffffff" stroke="#bfbfbf" points="268,-196 268,-215 372,-215 372,-196 268,-196"/>
<text text-anchor="middle" x="320" y="-203" font-family="Helvetica,sans-Serif" font-size="10.00" fill="#000000">boost/version.hpp</text>
</g>
<!-- Node30&#45;&gt;Node35 -->
<g id="edge43" class="edge">
<title>Node30&#45;&gt;Node35</title>
<path fill="none" stroke="#191970" d="M723.9516,-265.9463C639.0904,-258.1254 499.6948,-243.2466 381,-221 375.563,-219.981 369.8908,-218.7588 364.2892,-217.4537"/>
<polygon fill="#191970" stroke="#191970" points="364.8918,-213.9984 354.3484,-215.041 363.2407,-220.8009 364.8918,-213.9984"/>
</g>
<!-- Node36 -->
<g id="node25" class="node">
<title>Node36</title>
<polygon fill="#ffffff" stroke="#bfbfbf" points="390.5,-190.5 390.5,-220.5 497.5,-220.5 497.5,-190.5 390.5,-190.5"/>
<text text-anchor="start" x="398.5" y="-208.5" font-family="Helvetica,sans-Serif" font-size="10.00" fill="#000000">boost/serialization</text>
<text text-anchor="middle" x="444" y="-197.5" font-family="Helvetica,sans-Serif" font-size="10.00" fill="#000000">/split_free.hpp</text>
</g>
<!-- Node30&#45;&gt;Node36 -->
<g id="edge44" class="edge">
<title>Node30&#45;&gt;Node36</title>
<path fill="none" stroke="#191970" d="M723.7724,-260.3397C666.6011,-251.1057 586.9903,-237.5318 507.7259,-221.0696"/>
<polygon fill="#191970" stroke="#191970" points="508.0641,-217.5646 497.5592,-218.9416 506.63,-224.4161 508.0641,-217.5646"/>
</g>
<!-- Node37 -->
<g id="node26" class="node">
<title>Node37</title>
<polygon fill="#ffffff" stroke="#bfbfbf" points="516,-196 516,-215 660,-215 660,-196 516,-196"/>
<text text-anchor="middle" x="588" y="-203" font-family="Helvetica,sans-Serif" font-size="10.00" fill="#000000">boost/unordered_map.hpp</text>
</g>
<!-- Node30&#45;&gt;Node37 -->
<g id="edge45" class="edge">
<title>Node30&#45;&gt;Node37</title>
<path fill="none" stroke="#191970" d="M753.9742,-257.4639C716.0142,-245.5792 663.6531,-229.1858 627.9597,-218.0108"/>
<polygon fill="#191970" stroke="#191970" points="628.9491,-214.6531 618.3602,-215.0053 626.8576,-221.3333 628.9491,-214.6531"/>
</g>
<!-- Node38 -->
<g id="node27" class="node">
<title>Node38</title>
<polygon fill="#ffffff" stroke="#bfbfbf" points="678.5,-196 678.5,-215 735.5,-215 735.5,-196 678.5,-196"/>
<text text-anchor="middle" x="707" y="-203" font-family="Helvetica,sans-Serif" font-size="10.00" fill="#000000">typeinfo</text>
</g>
<!-- Node30&#45;&gt;Node38 -->
<g id="edge46" class="edge">
<title>Node30&#45;&gt;Node38</title>
<path fill="none" stroke="#191970" d="M780.443,-257.2967C765.0668,-246.4524 744.4586,-231.9182 728.9862,-221.006"/>
<polygon fill="#191970" stroke="#191970" points="730.7374,-217.9582 720.5481,-215.055 726.703,-223.6787 730.7374,-217.9582"/>
</g>
<!-- Node33&#45;&gt;Node7 -->
<g id="edge41" class="edge">
<title>Node33&#45;&gt;Node7</title>
<path fill="none" stroke="#191970" d="M890.5938,-195.8906C873.5647,-185.9165 846.7159,-170.1908 827.0349,-158.6633"/>
<polygon fill="#191970" stroke="#191970" points="828.6888,-155.5759 818.291,-153.5419 825.151,-161.6161 828.6888,-155.5759"/>
</g>
</g>
</svg>
        <g id="navigator" transform="translate(0 0)" fill="#404254">
                <rect fill="#f2f5e9" fill-opacity="0.5" stroke="#606060" stroke-width=".5" x="0" y="0" width="60" height="60"/>
                <use id="zoomplus" xlink:href="#zoomPlus" x="17" y="9" onmousedown="handleZoom(evt,'in')"/>
                <use id="zoomminus" xlink:href="#zoomMin" x="42" y="9" onmousedown="handleZoom(evt,'out')"/>
                <use id="reset" xlink:href="#resetDef" x="30" y="36" onmousedown="handleReset()"/>
                <g id="arrowUp" xlink:href="#dirArrow" transform="translate(30 24)" onmousedown="handlePan(0,-1)">
                  <use xlink:href="#rim" fill="#404040">
                        <set attributeName="fill" to="#808080" begin="arrowUp.mouseover" end="arrowUp.mouseout"/>
                  </use>
                  <path fill="none" stroke="white" stroke-width="1.5" d="M0,-3.0v7 M-2.5,-0.5L0,-3.0L2.5,-0.5"/>
                </g>
                <g id="arrowRight" xlink:href="#dirArrow" transform="rotate(90) translate(36 -43)" onmousedown="handlePan(1,0)">
                  <use xlink:href="#rim" fill="#404040">
                        <set attributeName="fill" to="#808080" begin="arrowRight.mouseover" end="arrowRight.mouseout"/>
                  </use>
                  <path fill="none" stroke="white" stroke-width="1.5" d="M0,-3.0v7 M-2.5,-0.5L0,-3.0L2.5,-0.5"/>
                </g>
                <g id="arrowDown" xlink:href="#dirArrow" transform="rotate(180) translate(-30 -48)" onmousedown="handlePan(0,1)">
                  <use xlink:href="#rim" fill="#404040">
                        <set attributeName="fill" to="#808080" begin="arrowDown.mouseover" end="arrowDown.mouseout"/>
                  </use>
                  <path fill="none" stroke="white" stroke-width="1.5" d="M0,-3.0v7 M-2.5,-0.5L0,-3.0L2.5,-0.5"/>
                </g>
                <g id="arrowLeft" xlink:href="#dirArrow" transform="rotate(270) translate(-36 17)" onmousedown="handlePan(-1,0)">
                  <use xlink:href="#rim" fill="#404040">
                        <set attributeName="fill" to="#808080" begin="arrowLeft.mouseover" end="arrowLeft.mouseout"/>
                  </use>
                  <path fill="none" stroke="white" stroke-width="1.5" d="M0,-3.0v7 M-2.5,-0.5L0,-3.0L2.5,-0.5"/>
                </g>
        </g>
        <svg viewBox="0 0 15 15" width="100%" height="30px" preserveAspectRatio="xMaxYMin meet">
         <g id="arrow_out" transform="scale(0.3 0.3)">
          <a xlink:href="Functions_8hpp__incl_org.svg" target="_base">
           <rect id="button" ry="5" rx="5" y="6" x="6" height="38" width="38"
                fill="#f2f5e9" fill-opacity="0.5" stroke="#606060" stroke-width="1.0"/>
           <path id="arrow"
             d="M 11.500037,31.436501 C 11.940474,20.09759 22.043105,11.32322 32.158766,21.979434 L 37.068811,17.246167 C 37.068811,17.246167 37.088388,32 37.088388,32 L 22.160133,31.978069 C 22.160133,31.978069 26.997745,27.140456 26.997745,27.140456 C 18.528582,18.264221 13.291696,25.230495 11.500037,31.436501 z"
             style="fill:#404040;"/>
          </a>
         </g>
        </svg>
</svg>
