<?xml version="1.0" encoding="UTF-8" standalone="no"?>
<!DOCTYPE svg PUBLIC "-//W3C//DTD SVG 1.1//EN"
 "http://www.w3.org/Graphics/SVG/1.1/DTD/svg11.dtd">
<!-- Generated by graphviz version 2.40.1 (20161225.0304)
 -->
<!-- Title: Core/FunctionTree/FunctionTreeEstimator.cpp Pages: 1 -->
<!--zoomable 274 -->
<svg id="main" version="1.1" xmlns="http://www.w3.org/2000/svg" xmlns:xlink="http://www.w3.org/1999/xlink" xml:space="preserve" onload="init(evt)">
<style type="text/css"><![CDATA[
.edge:hover path { stroke: red; }
.edge:hover polygon { stroke: red; fill: red; }
]]></style>
<script type="text/javascript"><![CDATA[
var edges = document.getElementsByTagName('g');
if (edges && edges.length) {
  for (var i=0;i<edges.length;i++) {
    if (edges[i].id.substr(0,4)=='edge') {
      edges[i].setAttribute('class','edge');
    }
  }
}
]]></script>
        <defs>
                <circle id="rim" cx="0" cy="0" r="7"/>
                <circle id="rim2" cx="0" cy="0" r="3.5"/>
                <g id="zoomPlus">
                        <use xlink:href="#rim" fill="#404040">
                                <set attributeName="fill" to="#808080" begin="zoomplus.mouseover" end="zoomplus.mouseout"/>
                        </use>
                        <path d="M-4,0h8M0,-4v8" fill="none" stroke="white" stroke-width="1.5" pointer-events="none"/>
                </g>
                <g id="zoomMin">
                        <use xlink:href="#rim" fill="#404040">
                                <set attributeName="fill" to="#808080" begin="zoomminus.mouseover" end="zoomminus.mouseout"/>
                        </use>
                        <path d="M-4,0h8" fill="none" stroke="white" stroke-width="1.5" pointer-events="none"/>
                </g>
                <g id="dirArrow">
                        <path fill="none" stroke="white" stroke-width="1.5" d="M0,-3.0v7 M-2.5,-0.5L0,-3.0L2.5,-0.5"/>
                </g>
               <g id="resetDef">
                       <use xlink:href="#rim2" fill="#404040">
                               <set attributeName="fill" to="#808080" begin="reset.mouseover" end="reset.mouseout"/>
                       </use>
               </g>
        </defs>

<script type="text/javascript">
var viewWidth = 724;
var viewHeight = 274;
var sectionId = 'dynsection-0';
</script>
<script xlink:href="svgpan.js"/>
<svg id="graph" class="graph">
<g id="viewport">
<title>Core/FunctionTree/FunctionTreeEstimator.cpp</title>
<polygon fill="#ffffff" stroke="transparent" points="-4,4 -4,-270 720,-270 720,4 -4,4"/>
<!-- Node0 -->
<g id="node1" class="node">
<title>Node0</title>
<polygon fill="#bfbfbf" stroke="#000000" points="365,-235.5 365,-265.5 511,-265.5 511,-235.5 365,-235.5"/>
<text text-anchor="start" x="373" y="-253.5" font-family="Helvetica,sans-Serif" font-size="10.00" fill="#000000">Core/FunctionTree/Function</text>
<text text-anchor="middle" x="438" y="-242.5" font-family="Helvetica,sans-Serif" font-size="10.00" fill="#000000">TreeEstimator.cpp</text>
</g>
<!-- Node1 -->
<g id="node2" class="node">
<title>Node1</title>
<g id="a_node2"><a xlink:href="FunctionTreeEstimator_8hpp.html" target="_top" xlink:title="FunctionTreeEstimator.hpp">
<polygon fill="#ffffff" stroke="#000000" points="51.5,-123.5 51.5,-142.5 196.5,-142.5 196.5,-123.5 51.5,-123.5"/>
<text text-anchor="middle" x="124" y="-130.5" font-family="Helvetica,sans-Serif" font-size="10.00" fill="#000000">FunctionTreeEstimator.hpp</text>
</a>
</g>
</g>
<!-- Node0&#45;&gt;Node1 -->
<g id="edge1" class="edge">
<title>Node0&#45;&gt;Node1</title>
<path fill="none" stroke="#191970" d="M397.9127,-235.4992C336.0214,-212.3392 218.2081,-168.253 159.3315,-146.2212"/>
<polygon fill="#191970" stroke="#191970" points="160.3196,-142.854 149.7272,-142.6272 157.8663,-149.41 160.3196,-142.854"/>
</g>
<!-- Node33 -->
<g id="node7" class="node">
<title>Node33</title>
<g id="a_node7"><a xlink:href="Value_8hpp.html" target="_top" xlink:title="Template implementation of Parameter for simple values. ">
<polygon fill="#ffffff" stroke="#ff0000" points="562,-.5 562,-19.5 716,-19.5 716,-.5 562,-.5"/>
<text text-anchor="middle" x="639" y="-7.5" font-family="Helvetica,sans-Serif" font-size="10.00" fill="#000000">Core/FunctionTree/Value.hpp</text>
</a>
</g>
</g>
<!-- Node0&#45;&gt;Node33 -->
<g id="edge19" class="edge">
<title>Node0&#45;&gt;Node33</title>
<path fill="none" stroke="#191970" d="M511.0087,-238.7676C566.184,-225.658 638.3133,-198.4702 674,-143 697.4584,-106.5371 670.0266,-54.8832 652.0977,-27.9359"/>
<polygon fill="#191970" stroke="#191970" points="654.8243,-25.7255 646.2514,-19.5001 649.0709,-29.7129 654.8243,-25.7255"/>
</g>
<!-- Node40 -->
<g id="node9" class="node">
<title>Node40</title>
<g id="a_node9"><a xlink:href="TreeNode_8hpp.html" target="_top" xlink:title="TreeNode class. ">
<polygon fill="#ffffff" stroke="#000000" points="396.5,-179.5 396.5,-198.5 479.5,-198.5 479.5,-179.5 396.5,-179.5"/>
<text text-anchor="middle" x="438" y="-186.5" font-family="Helvetica,sans-Serif" font-size="10.00" fill="#000000">TreeNode.hpp</text>
</a>
</g>
</g>
<!-- Node0&#45;&gt;Node40 -->
<g id="edge10" class="edge">
<title>Node0&#45;&gt;Node40</title>
<path fill="none" stroke="#191970" d="M438,-235.2977C438,-227.3834 438,-217.6043 438,-209.0759"/>
<polygon fill="#191970" stroke="#191970" points="441.5001,-208.8469 438,-198.8469 434.5001,-208.847 441.5001,-208.8469"/>
</g>
<!-- Node2 -->
<g id="node3" class="node">
<title>Node2</title>
<polygon fill="#ffffff" stroke="#bfbfbf" points="0,-.5 0,-19.5 58,-19.5 58,-.5 0,-.5"/>
<text text-anchor="middle" x="29" y="-7.5" font-family="Helvetica,sans-Serif" font-size="10.00" fill="#000000">memory</text>
</g>
<!-- Node1&#45;&gt;Node2 -->
<g id="edge2" class="edge">
<title>Node1&#45;&gt;Node2</title>
<path fill="none" stroke="#191970" d="M98.1174,-123.4552C81.4058,-115.9979 60.5203,-104.0207 48,-87 35.8026,-70.4183 31.3717,-46.9436 29.796,-30.2817"/>
<polygon fill="#191970" stroke="#191970" points="33.2677,-29.7444 29.1009,-20.0034 26.2837,-30.2168 33.2677,-29.7444"/>
</g>
<!-- Node3 -->
<g id="node4" class="node">
<title>Node3</title>
<g id="a_node4"><a xlink:href="FitParameter_8hpp.html" target="_top" xlink:title="Core/FitParameter.hpp">
<polygon fill="#ffffff" stroke="#ff0000" points="209,-62 209,-81 333,-81 333,-62 209,-62"/>
<text text-anchor="middle" x="271" y="-69" font-family="Helvetica,sans-Serif" font-size="10.00" fill="#000000">Core/FitParameter.hpp</text>
</a>
</g>
</g>
<!-- Node1&#45;&gt;Node3 -->
<g id="edge3" class="edge">
<title>Node1&#45;&gt;Node3</title>
<path fill="none" stroke="#191970" d="M146.9688,-123.3906C171.6724,-113.0554 211.137,-96.5447 238.9027,-84.9284"/>
<polygon fill="#191970" stroke="#191970" points="240.3182,-88.1303 248.1925,-81.0419 237.6165,-81.6727 240.3182,-88.1303"/>
</g>
<!-- Node13 -->
<g id="node6" class="node">
<title>Node13</title>
<g id="a_node6"><a xlink:href="ParameterList_8hpp.html" target="_top" xlink:title="ParameterList class. ">
<polygon fill="#ffffff" stroke="#ff0000" points="351,-56.5 351,-86.5 507,-86.5 507,-56.5 351,-56.5"/>
<text text-anchor="start" x="359" y="-74.5" font-family="Helvetica,sans-Serif" font-size="10.00" fill="#000000">Core/FunctionTree/Parameter</text>
<text text-anchor="middle" x="429" y="-63.5" font-family="Helvetica,sans-Serif" font-size="10.00" fill="#000000">List.hpp</text>
</a>
</g>
</g>
<!-- Node1&#45;&gt;Node13 -->
<g id="edge5" class="edge">
<title>Node1&#45;&gt;Node13</title>
<path fill="none" stroke="#191970" d="M171.3216,-123.4581C217.4912,-114.1485 288.7381,-99.7823 344.6227,-88.5138"/>
<polygon fill="#191970" stroke="#191970" points="345.4031,-91.9269 354.514,-86.5193 344.0194,-85.0651 345.4031,-91.9269"/>
</g>
<!-- Node39 -->
<g id="node8" class="node">
<title>Node39</title>
<g id="a_node8"><a xlink:href="Estimator_8hpp.html" target="_top" xlink:title="Estimator/Estimator.hpp">
<polygon fill="#ffffff" stroke="#ff0000" points="57,-62 57,-81 191,-81 191,-62 57,-62"/>
<text text-anchor="middle" x="124" y="-69" font-family="Helvetica,sans-Serif" font-size="10.00" fill="#000000">Estimator/Estimator.hpp</text>
</a>
</g>
</g>
<!-- Node1&#45;&gt;Node39 -->
<g id="edge9" class="edge">
<title>Node1&#45;&gt;Node39</title>
<path fill="none" stroke="#191970" d="M124,-123.3906C124,-114.8657 124,-102.1392 124,-91.4235"/>
<polygon fill="#191970" stroke="#191970" points="127.5001,-91.2448 124,-81.2449 120.5001,-91.2449 127.5001,-91.2448"/>
</g>
<!-- Node5 -->
<g id="node5" class="node">
<title>Node5</title>
<polygon fill="#ffffff" stroke="#bfbfbf" points="407,-.5 407,-19.5 451,-19.5 451,-.5 407,-.5"/>
<text text-anchor="middle" x="429" y="-7.5" font-family="Helvetica,sans-Serif" font-size="10.00" fill="#000000">string</text>
</g>
<!-- Node3&#45;&gt;Node5 -->
<g id="edge4" class="edge">
<title>Node3&#45;&gt;Node5</title>
<path fill="none" stroke="#191970" d="M295.6875,-61.8906C323.0575,-51.2371 367.2852,-34.0219 397.2216,-22.3694"/>
<polygon fill="#191970" stroke="#191970" points="398.7317,-25.5375 406.781,-18.6485 396.1925,-19.0143 398.7317,-25.5375"/>
</g>
<!-- Node13&#45;&gt;Node2 -->
<g id="edge6" class="edge">
<title>Node13&#45;&gt;Node2</title>
<path fill="none" stroke="#191970" d="M350.7645,-57.4458C347.8066,-56.9512 344.8772,-56.4676 342,-56 243.8073,-40.0413 127.8784,-23.6379 68.4643,-15.4078"/>
<polygon fill="#191970" stroke="#191970" points="68.7747,-11.9175 58.3897,-14.0156 67.8164,-18.8516 68.7747,-11.9175"/>
</g>
<!-- Node13&#45;&gt;Node5 -->
<g id="edge7" class="edge">
<title>Node13&#45;&gt;Node5</title>
<path fill="none" stroke="#191970" d="M429,-56.2977C429,-48.3834 429,-38.6043 429,-30.0759"/>
<polygon fill="#191970" stroke="#191970" points="432.5001,-29.8469 429,-19.8469 425.5001,-29.847 432.5001,-29.8469"/>
</g>
<!-- Node13&#45;&gt;Node33 -->
<g id="edge8" class="edge">
<title>Node13&#45;&gt;Node33</title>
<path fill="none" stroke="#191970" d="M480.3718,-56.4554C516.0255,-46.0139 562.9561,-32.27 596.5032,-22.4455"/>
<polygon fill="#191970" stroke="#191970" points="597.8442,-25.6998 606.4575,-19.5303 595.8768,-18.982 597.8442,-25.6998"/>
</g>
<!-- Node40&#45;&gt;Node2 -->
<g id="edge12" class="edge">
<title>Node40&#45;&gt;Node2</title>
<path fill="none" stroke="#191970" d="M396.3575,-186.91C299.9581,-181.6879 67.6953,-166.7578 42,-143 10.8836,-114.2299 17.5536,-58.8026 23.9287,-29.4073"/>
<polygon fill="#191970" stroke="#191970" points="27.37,-30.0641 26.2781,-19.5257 20.5598,-28.4449 27.37,-30.0641"/>
</g>
<!-- Node40&#45;&gt;Node5 -->
<g id="edge13" class="edge">
<title>Node40&#45;&gt;Node5</title>
<path fill="none" stroke="#191970" d="M479.6724,-186.2476C536.3982,-181.5334 633.3624,-169.7052 655,-143 672.6598,-121.2043 665.3395,-84.8406 634,-56 609.1305,-33.1135 512.8407,-19.2566 461.5653,-13.3496"/>
<polygon fill="#191970" stroke="#191970" points="461.6753,-9.8402 451.3488,-12.2093 460.8989,-16.797 461.6753,-9.8402"/>
</g>
<!-- Node40&#45;&gt;Node13 -->
<g id="edge18" class="edge">
<title>Node40&#45;&gt;Node13</title>
<path fill="none" stroke="#191970" d="M396.3446,-185.0862C345.1121,-179.3111 262.6232,-166.5554 244,-143 238.4872,-136.0271 238.6231,-130.0782 244,-123 250.8604,-113.9689 302.6945,-99.9885 349.7544,-88.8716"/>
<polygon fill="#191970" stroke="#191970" points="350.7652,-92.2298 359.7061,-86.5457 349.172,-85.4135 350.7652,-92.2298"/>
</g>
<!-- Node23 -->
<g id="node10" class="node">
<title>Node23</title>
<polygon fill="#ffffff" stroke="#bfbfbf" points="566.5,-62 566.5,-81 625.5,-81 625.5,-62 566.5,-62"/>
<text text-anchor="middle" x="596" y="-69" font-family="Helvetica,sans-Serif" font-size="10.00" fill="#000000">complex</text>
</g>
<!-- Node40&#45;&gt;Node23 -->
<g id="edge11" class="edge">
<title>Node40&#45;&gt;Node23</title>
<path fill="none" stroke="#191970" d="M479.5655,-185.4239C532.2526,-179.9301 618.5829,-167.39 638,-143 651.9473,-125.4807 633.44,-102.8544 616.7681,-87.795"/>
<polygon fill="#191970" stroke="#191970" points="618.7604,-84.894 608.8814,-81.0656 614.2167,-90.219 618.7604,-84.894"/>
</g>
<!-- Node41 -->
<g id="node11" class="node">
<title>Node41</title>
<g id="a_node11"><a xlink:href="Functions_8hpp.html" target="_top" xlink:title="This file contains Functions implementing the Strategy interface so they can be used inside a node of...">
<polygon fill="#ffffff" stroke="#ff0000" points="253.5,-123.5 253.5,-142.5 426.5,-142.5 426.5,-123.5 253.5,-123.5"/>
<text text-anchor="middle" x="340" y="-130.5" font-family="Helvetica,sans-Serif" font-size="10.00" fill="#000000">Core/FunctionTree/Functions.hpp</text>
</a>
</g>
</g>
<!-- Node40&#45;&gt;Node41 -->
<g id="edge14" class="edge">
<title>Node40&#45;&gt;Node41</title>
<path fill="none" stroke="#191970" d="M420.9297,-179.2455C405.753,-170.5731 383.3379,-157.7645 365.9437,-147.825"/>
<polygon fill="#191970" stroke="#191970" points="367.2936,-144.5653 356.8747,-142.6427 363.8206,-150.643 367.2936,-144.5653"/>
</g>
<!-- Node29 -->
<g id="node12" class="node">
<title>Node29</title>
<g id="a_node12"><a xlink:href="ParObserver_8hpp.html" target="_top" xlink:title="ParObserver class. ">
<polygon fill="#ffffff" stroke="#000000" points="444.5,-123.5 444.5,-142.5 629.5,-142.5 629.5,-123.5 444.5,-123.5"/>
<text text-anchor="middle" x="537" y="-130.5" font-family="Helvetica,sans-Serif" font-size="10.00" fill="#000000">Core/FunctionTree/ParObserver.hpp</text>
</a>
</g>
</g>
<!-- Node40&#45;&gt;Node29 -->
<g id="edge17" class="edge">
<title>Node40&#45;&gt;Node29</title>
<path fill="none" stroke="#191970" d="M455.2445,-179.2455C470.5761,-170.5731 493.2199,-157.7645 510.7916,-147.825"/>
<polygon fill="#191970" stroke="#191970" points="512.9724,-150.6126 519.9531,-142.6427 509.5259,-144.5198 512.9724,-150.6126"/>
</g>
<!-- Node41&#45;&gt;Node13 -->
<g id="edge16" class="edge">
<title>Node41&#45;&gt;Node13</title>
<path fill="none" stroke="#191970" d="M353.9063,-123.3906C365.8398,-115.1444 383.4626,-102.9669 398.6377,-92.4807"/>
<polygon fill="#191970" stroke="#191970" points="400.9909,-95.1089 407.2282,-86.5446 397.0115,-89.3501 400.9909,-95.1089"/>
</g>
<!-- Node41&#45;&gt;Node23 -->
<g id="edge15" class="edge">
<title>Node41&#45;&gt;Node23</title>
<path fill="none" stroke="#191970" d="M379.7191,-123.4581C427.8382,-111.8983 508.4109,-92.5419 556.4526,-81.0007"/>
<polygon fill="#191970" stroke="#191970" points="557.2812,-84.4012 566.187,-78.6621 555.6461,-77.5949 557.2812,-84.4012"/>
</g>
</g>
</svg>
        <g id="navigator" transform="translate(0 0)" fill="#404254">
                <rect fill="#f2f5e9" fill-opacity="0.5" stroke="#606060" stroke-width=".5" x="0" y="0" width="60" height="60"/>
                <use id="zoomplus" xlink:href="#zoomPlus" x="17" y="9" onmousedown="handleZoom(evt,'in')"/>
                <use id="zoomminus" xlink:href="#zoomMin" x="42" y="9" onmousedown="handleZoom(evt,'out')"/>
                <use id="reset" xlink:href="#resetDef" x="30" y="36" onmousedown="handleReset()"/>
                <g id="arrowUp" xlink:href="#dirArrow" transform="translate(30 24)" onmousedown="handlePan(0,-1)">
                  <use xlink:href="#rim" fill="#404040">
                        <set attributeName="fill" to="#808080" begin="arrowUp.mouseover" end="arrowUp.mouseout"/>
                  </use>
                  <path fill="none" stroke="white" stroke-width="1.5" d="M0,-3.0v7 M-2.5,-0.5L0,-3.0L2.5,-0.5"/>
                </g>
                <g id="arrowRight" xlink:href="#dirArrow" transform="rotate(90) translate(36 -43)" onmousedown="handlePan(1,0)">
                  <use xlink:href="#rim" fill="#404040">
                        <set attributeName="fill" to="#808080" begin="arrowRight.mouseover" end="arrowRight.mouseout"/>
                  </use>
                  <path fill="none" stroke="white" stroke-width="1.5" d="M0,-3.0v7 M-2.5,-0.5L0,-3.0L2.5,-0.5"/>
                </g>
                <g id="arrowDown" xlink:href="#dirArrow" transform="rotate(180) translate(-30 -48)" onmousedown="handlePan(0,1)">
                  <use xlink:href="#rim" fill="#404040">
                        <set attributeName="fill" to="#808080" begin="arrowDown.mouseover" end="arrowDown.mouseout"/>
                  </use>
                  <path fill="none" stroke="white" stroke-width="1.5" d="M0,-3.0v7 M-2.5,-0.5L0,-3.0L2.5,-0.5"/>
                </g>
                <g id="arrowLeft" xlink:href="#dirArrow" transform="rotate(270) translate(-36 17)" onmousedown="handlePan(-1,0)">
                  <use xlink:href="#rim" fill="#404040">
                        <set attributeName="fill" to="#808080" begin="arrowLeft.mouseover" end="arrowLeft.mouseout"/>
                  </use>
                  <path fill="none" stroke="white" stroke-width="1.5" d="M0,-3.0v7 M-2.5,-0.5L0,-3.0L2.5,-0.5"/>
                </g>
        </g>
        <svg viewBox="0 0 15 15" width="100%" height="30px" preserveAspectRatio="xMaxYMin meet">
         <g id="arrow_out" transform="scale(0.3 0.3)">
          <a xlink:href="FunctionTreeEstimator_8cpp__incl_org.svg" target="_base">
           <rect id="button" ry="5" rx="5" y="6" x="6" height="38" width="38"
                fill="#f2f5e9" fill-opacity="0.5" stroke="#606060" stroke-width="1.0"/>
           <path id="arrow"
             d="M 11.500037,31.436501 C 11.940474,20.09759 22.043105,11.32322 32.158766,21.979434 L 37.068811,17.246167 C 37.068811,17.246167 37.088388,32 37.088388,32 L 22.160133,31.978069 C 22.160133,31.978069 26.997745,27.140456 26.997745,27.140456 C 18.528582,18.264221 13.291696,25.230495 11.500037,31.436501 z"
             style="fill:#404040;"/>
          </a>
         </g>
        </svg>
</svg>
