<?xml version="1.0" encoding="UTF-8" standalone="no"?>
<!DOCTYPE svg PUBLIC "-//W3C//DTD SVG 1.1//EN"
 "http://www.w3.org/Graphics/SVG/1.1/DTD/svg11.dtd">
<!-- Generated by graphviz version 2.38.0 (20140413.2041)
 -->
<!-- Title: /home/travis/build/ComPWA/ComPWA/Data/Generate.cpp Pages: 1 -->
<svg width="1147pt" height="240pt"
 viewBox="0.00 0.00 1147.00 240.00" xmlns="http://www.w3.org/2000/svg" xmlns:xlink="http://www.w3.org/1999/xlink">
<g id="graph0" class="graph" transform="scale(1 1) rotate(0) translate(4 236)">
<title>/home/travis/build/ComPWA/ComPWA/Data/Generate.cpp</title>
<polygon fill="white" stroke="none" points="-4,4 -4,-236 1143,-236 1143,4 -4,4"/>
<!-- Node1 -->
<g id="node1" class="node"><title>Node1</title>
<polygon fill="#bfbfbf" stroke="black" points="477.5,-190.5 477.5,-231.5 612.5,-231.5 612.5,-190.5 477.5,-190.5"/>
<text text-anchor="start" x="485.5" y="-219.5" font-family="Helvetica,sans-Serif" font-size="10.00">/home/travis/build</text>
<text text-anchor="start" x="485.5" y="-208.5" font-family="Helvetica,sans-Serif" font-size="10.00">/ComPWA/ComPWA/Data</text>
<text text-anchor="middle" x="545" y="-197.5" font-family="Helvetica,sans-Serif" font-size="10.00">/Generate.cpp</text>
</g>
<!-- Node2 -->
<g id="node2" class="node"><title>Node2</title>
<polygon fill="white" stroke="#bfbfbf" points="0,-129 0,-148 56,-148 56,-129 0,-129"/>
<text text-anchor="middle" x="28" y="-136" font-family="Helvetica,sans-Serif" font-size="10.00">algorithm</text>
</g>
<!-- Node1&#45;&gt;Node2 -->
<g id="edge1" class="edge"><title>Node1&#45;&gt;Node2</title>
<path fill="none" stroke="midnightblue" d="M477.241,-207.576C383.38,-202.985 209.072,-189.994 65,-154 62.331,-153.333 59.5957,-152.522 56.8796,-151.628"/>
<polygon fill="midnightblue" stroke="midnightblue" points="57.8734,-148.266 47.2793,-148.137 55.4806,-154.844 57.8734,-148.266"/>
</g>
<!-- Node3 -->
<g id="node3" class="node"><title>Node3</title>
<g id="a_node3"><a xlink:href="Exceptions_8hpp.html" target="_top" xlink:title="ComPWA exceptions. ">
<polygon fill="white" stroke="black" points="74,-129 74,-148 182,-148 182,-129 74,-129"/>
<text text-anchor="middle" x="128" y="-136" font-family="Helvetica,sans-Serif" font-size="10.00">Core/Exceptions.hpp</text>
</a>
</g>
</g>
<!-- Node1&#45;&gt;Node3 -->
<g id="edge2" class="edge"><title>Node1&#45;&gt;Node3</title>
<path fill="none" stroke="midnightblue" d="M477.487,-198.82C410.006,-187.612 303.289,-169.798 211,-154 203.107,-152.649 194.795,-151.213 186.603,-149.789"/>
<polygon fill="midnightblue" stroke="midnightblue" points="187.159,-146.334 176.707,-148.066 185.958,-153.23 187.159,-146.334"/>
</g>
<!-- Node6 -->
<g id="node6" class="node"><title>Node6</title>
<g id="a_node6"><a xlink:href="Generator_8hpp.html" target="_top" xlink:title="Core/Generator.hpp">
<polygon fill="white" stroke="black" points="494,-129 494,-148 596,-148 596,-129 494,-129"/>
<text text-anchor="middle" x="545" y="-136" font-family="Helvetica,sans-Serif" font-size="10.00">Core/Generator.hpp</text>
</a>
</g>
</g>
<!-- Node1&#45;&gt;Node6 -->
<g id="edge5" class="edge"><title>Node1&#45;&gt;Node6</title>
<path fill="none" stroke="midnightblue" d="M545,-190.362C545,-180.297 545,-168.104 545,-158.18"/>
<polygon fill="midnightblue" stroke="midnightblue" points="548.5,-158.173 545,-148.173 541.5,-158.173 548.5,-158.173"/>
</g>
<!-- Node9 -->
<g id="node9" class="node"><title>Node9</title>
<g id="a_node9"><a xlink:href="Random_8hpp.html" target="_top" xlink:title="Core/Random.hpp">
<polygon fill="white" stroke="red" points="576,-62 576,-81 672,-81 672,-62 576,-62"/>
<text text-anchor="middle" x="624" y="-69" font-family="Helvetica,sans-Serif" font-size="10.00">Core/Random.hpp</text>
</a>
</g>
</g>
<!-- Node1&#45;&gt;Node9 -->
<g id="edge16" class="edge"><title>Node1&#45;&gt;Node9</title>
<path fill="none" stroke="midnightblue" d="M572.394,-190.403C584.078,-180.703 596.866,-168.06 605,-154 616.339,-134.399 620.914,-108.456 622.758,-91.1583"/>
<polygon fill="midnightblue" stroke="midnightblue" points="626.245,-91.4577 623.619,-81.1935 619.271,-90.855 626.245,-91.4577"/>
</g>
<!-- Node10 -->
<g id="node10" class="node"><title>Node10</title>
<g id="a_node10"><a xlink:href="Kinematics_8hpp.html" target="_top" xlink:title="Core/Kinematics.hpp">
<polygon fill="white" stroke="black" points="161,-62 161,-81 269,-81 269,-62 161,-62"/>
<text text-anchor="middle" x="215" y="-69" font-family="Helvetica,sans-Serif" font-size="10.00">Core/Kinematics.hpp</text>
</a>
</g>
</g>
<!-- Node1&#45;&gt;Node10 -->
<g id="edge9" class="edge"><title>Node1&#45;&gt;Node10</title>
<path fill="none" stroke="midnightblue" d="M477.221,-203.9C402.74,-196.006 289.119,-180.08 255,-154 234.692,-138.477 224.062,-109.915 218.997,-91.0635"/>
<polygon fill="midnightblue" stroke="midnightblue" points="222.379,-90.1559 216.627,-81.258 215.575,-91.8004 222.379,-90.1559"/>
</g>
<!-- Node11 -->
<g id="node11" class="node"><title>Node11</title>
<g id="a_node11"><a xlink:href="Logging_8hpp.html" target="_top" xlink:title="Core/Logging.hpp">
<polygon fill="white" stroke="black" points="652.5,-129 652.5,-148 745.5,-148 745.5,-129 652.5,-129"/>
<text text-anchor="middle" x="699" y="-136" font-family="Helvetica,sans-Serif" font-size="10.00">Core/Logging.hpp</text>
</a>
</g>
</g>
<!-- Node1&#45;&gt;Node11 -->
<g id="edge12" class="edge"><title>Node1&#45;&gt;Node11</title>
<path fill="none" stroke="midnightblue" d="M587.898,-190.362C614.375,-178.241 647.593,-163.034 670.78,-152.419"/>
<polygon fill="midnightblue" stroke="midnightblue" points="672.418,-155.518 680.054,-148.173 669.504,-149.154 672.418,-155.518"/>
</g>
<!-- Node13 -->
<g id="node13" class="node"><title>Node13</title>
<g id="a_node13"><a xlink:href="ProgressBar_8hpp.html" target="_top" xlink:title="Core/ProgressBar.hpp">
<polygon fill="white" stroke="black" points="763.5,-129 763.5,-148 876.5,-148 876.5,-129 763.5,-129"/>
<text text-anchor="middle" x="820" y="-136" font-family="Helvetica,sans-Serif" font-size="10.00">Core/ProgressBar.hpp</text>
</a>
</g>
</g>
<!-- Node1&#45;&gt;Node13 -->
<g id="edge14" class="edge"><title>Node1&#45;&gt;Node13</title>
<path fill="none" stroke="midnightblue" d="M612.625,-192.663C663.969,-179.501 733.017,-161.799 777.027,-150.517"/>
<polygon fill="midnightblue" stroke="midnightblue" points="778.017,-153.876 786.835,-148.002 776.279,-147.095 778.017,-153.876"/>
</g>
<!-- Node15 -->
<g id="node15" class="node"><title>Node15</title>
<g id="a_node15"><a xlink:href="DataSet_8hpp.html" target="_top" xlink:title="Data/DataSet.hpp">
<polygon fill="white" stroke="black" points="380.5,-129 380.5,-148 475.5,-148 475.5,-129 380.5,-129"/>
<text text-anchor="middle" x="428" y="-136" font-family="Helvetica,sans-Serif" font-size="10.00">Data/DataSet.hpp</text>
</a>
</g>
</g>
<!-- Node1&#45;&gt;Node15 -->
<g id="edge17" class="edge"><title>Node1&#45;&gt;Node15</title>
<path fill="none" stroke="midnightblue" d="M512.409,-190.362C493.012,-178.674 468.852,-164.116 451.356,-153.573"/>
<polygon fill="midnightblue" stroke="midnightblue" points="452.766,-150.337 442.394,-148.173 449.153,-156.332 452.766,-150.337"/>
</g>
<!-- Node18 -->
<g id="node18" class="node"><title>Node18</title>
<g id="a_node18"><a xlink:href="Generate_8hpp.html" target="_top" xlink:title="Some useful functions for Monte&#45;Carlo event generation. ">
<polygon fill="white" stroke="black" points="263.5,-129 263.5,-148 362.5,-148 362.5,-129 263.5,-129"/>
<text text-anchor="middle" x="313" y="-136" font-family="Helvetica,sans-Serif" font-size="10.00">Data/Generate.hpp</text>
</a>
</g>
</g>
<!-- Node1&#45;&gt;Node18 -->
<g id="edge23" class="edge"><title>Node1&#45;&gt;Node18</title>
<path fill="none" stroke="midnightblue" d="M480.683,-190.455C438.941,-177.771 385.976,-161.676 350.863,-151.006"/>
<polygon fill="midnightblue" stroke="midnightblue" points="351.6,-147.572 341.014,-148.013 349.565,-154.269 351.6,-147.572"/>
</g>
<!-- Node19 -->
<g id="node19" class="node"><title>Node19</title>
<polygon fill="white" stroke="#bfbfbf" points="895,-123.5 895,-153.5 1007,-153.5 1007,-123.5 895,-123.5"/>
<text text-anchor="start" x="903" y="-141.5" font-family="Helvetica,sans-Serif" font-size="10.00">ThirdParty/parallelstl</text>
<text text-anchor="middle" x="951" y="-130.5" font-family="Helvetica,sans-Serif" font-size="10.00">/include/pstl/algorithm</text>
</g>
<!-- Node1&#45;&gt;Node19 -->
<g id="edge27" class="edge"><title>Node1&#45;&gt;Node19</title>
<path fill="none" stroke="midnightblue" d="M612.813,-200.023C679.55,-189.941 784.573,-173.374 884.687,-154.195"/>
<polygon fill="midnightblue" stroke="midnightblue" points="885.514,-157.601 894.671,-152.271 884.189,-150.727 885.514,-157.601"/>
</g>
<!-- Node20 -->
<g id="node20" class="node"><title>Node20</title>
<polygon fill="white" stroke="#bfbfbf" points="1025,-123.5 1025,-153.5 1139,-153.5 1139,-123.5 1025,-123.5"/>
<text text-anchor="start" x="1033" y="-141.5" font-family="Helvetica,sans-Serif" font-size="10.00">ThirdParty/parallelstl</text>
<text text-anchor="middle" x="1082" y="-130.5" font-family="Helvetica,sans-Serif" font-size="10.00">/include/pstl/execution</text>
</g>
<!-- Node1&#45;&gt;Node20 -->
<g id="edge28" class="edge"><title>Node1&#45;&gt;Node20</title>
<path fill="none" stroke="midnightblue" d="M612.765,-204.046C702.481,-195.695 865.754,-178.877 1014.59,-154.137"/>
<polygon fill="midnightblue" stroke="midnightblue" points="1015.55,-157.526 1024.83,-152.419 1014.39,-150.623 1015.55,-157.526"/>
</g>
<!-- Node4 -->
<g id="node4" class="node"><title>Node4</title>
<polygon fill="white" stroke="#bfbfbf" points="83.5,-62 83.5,-81 142.5,-81 142.5,-62 83.5,-62"/>
<text text-anchor="middle" x="113" y="-69" font-family="Helvetica,sans-Serif" font-size="10.00">exception</text>
</g>
<!-- Node3&#45;&gt;Node4 -->
<g id="edge3" class="edge"><title>Node3&#45;&gt;Node4</title>
<path fill="none" stroke="midnightblue" d="M125.977,-128.734C123.75,-119.085 120.108,-103.3 117.248,-90.9063"/>
<polygon fill="midnightblue" stroke="midnightblue" points="120.65,-90.0842 114.991,-81.1273 113.829,-91.6583 120.65,-90.0842"/>
</g>
<!-- Node5 -->
<g id="node5" class="node"><title>Node5</title>
<polygon fill="white" stroke="#bfbfbf" points="194.5,-0.5 194.5,-19.5 235.5,-19.5 235.5,-0.5 194.5,-0.5"/>
<text text-anchor="middle" x="215" y="-7.5" font-family="Helvetica,sans-Serif" font-size="10.00">string</text>
</g>
<!-- Node3&#45;&gt;Node5 -->
<g id="edge4" class="edge"><title>Node3&#45;&gt;Node5</title>
<path fill="none" stroke="midnightblue" d="M114.951,-128.998C93.5278,-113.981 55.0763,-81.9035 74,-56 99.1667,-21.5508 150.998,-12.858 184.321,-11.0028"/>
<polygon fill="midnightblue" stroke="midnightblue" points="184.573,-14.4958 194.432,-10.6168 184.306,-7.50091 184.573,-14.4958"/>
</g>
<!-- Node7 -->
<g id="node7" class="node"><title>Node7</title>
<g id="a_node7"><a xlink:href="Event_8hpp.html" target="_top" xlink:title="Core/Event.hpp">
<polygon fill="white" stroke="red" points="472.5,-62 472.5,-81 557.5,-81 557.5,-62 472.5,-62"/>
<text text-anchor="middle" x="515" y="-69" font-family="Helvetica,sans-Serif" font-size="10.00">Core/Event.hpp</text>
</a>
</g>
</g>
<!-- Node6&#45;&gt;Node7 -->
<g id="edge6" class="edge"><title>Node6&#45;&gt;Node7</title>
<path fill="none" stroke="midnightblue" d="M540.954,-128.734C536.456,-118.988 529.068,-102.981 523.322,-90.5318"/>
<polygon fill="midnightblue" stroke="midnightblue" points="526.35,-88.7402 518.982,-81.1273 519.995,-91.6736 526.35,-88.7402"/>
</g>
<!-- Node6&#45;&gt;Node9 -->
<g id="edge8" class="edge"><title>Node6&#45;&gt;Node9</title>
<path fill="none" stroke="midnightblue" d="M555.654,-128.734C568.447,-118.208 590.116,-100.379 605.627,-87.6174"/>
<polygon fill="midnightblue" stroke="midnightblue" points="608.016,-90.1837 613.515,-81.1273 603.569,-84.7782 608.016,-90.1837"/>
</g>
<!-- Node8 -->
<g id="node8" class="node"><title>Node8</title>
<polygon fill="white" stroke="#bfbfbf" points="384,-0.5 384,-19.5 428,-19.5 428,-0.5 384,-0.5"/>
<text text-anchor="middle" x="406" y="-7.5" font-family="Helvetica,sans-Serif" font-size="10.00">vector</text>
</g>
<!-- Node7&#45;&gt;Node8 -->
<g id="edge7" class="edge"><title>Node7&#45;&gt;Node8</title>
<path fill="none" stroke="midnightblue" d="M499.383,-61.9751C481.414,-52.1664 451.679,-35.9346 430.594,-24.425"/>
<polygon fill="midnightblue" stroke="midnightblue" points="432.042,-21.2284 421.588,-19.5091 428.689,-27.3726 432.042,-21.2284"/>
</g>
<!-- Node10&#45;&gt;Node5 -->
<g id="edge10" class="edge"><title>Node10&#45;&gt;Node5</title>
<path fill="none" stroke="midnightblue" d="M215,-61.9751C215,-53.5803 215,-40.4806 215,-29.6631"/>
<polygon fill="midnightblue" stroke="midnightblue" points="218.5,-29.5091 215,-19.5091 211.5,-29.5091 218.5,-29.5091"/>
</g>
<!-- Node10&#45;&gt;Node8 -->
<g id="edge11" class="edge"><title>Node10&#45;&gt;Node8</title>
<path fill="none" stroke="midnightblue" d="M242.366,-61.9751C277.157,-51.1369 337.123,-32.4565 373.996,-20.9698"/>
<polygon fill="midnightblue" stroke="midnightblue" points="375.237,-24.2491 383.744,-17.9332 373.155,-17.5658 375.237,-24.2491"/>
</g>
<!-- Node12 -->
<g id="node12" class="node"><title>Node12</title>
<polygon fill="white" stroke="#bfbfbf" points="690.5,-56.5 690.5,-86.5 817.5,-86.5 817.5,-56.5 690.5,-56.5"/>
<text text-anchor="start" x="698.5" y="-74.5" font-family="Helvetica,sans-Serif" font-size="10.00">ThirdParty/easyloggingpp</text>
<text text-anchor="middle" x="754" y="-63.5" font-family="Helvetica,sans-Serif" font-size="10.00">/easylogging++.h</text>
</g>
<!-- Node11&#45;&gt;Node12 -->
<g id="edge13" class="edge"><title>Node11&#45;&gt;Node12</title>
<path fill="none" stroke="midnightblue" d="M706.418,-128.734C713.851,-119.949 725.588,-106.078 735.544,-94.3111"/>
<polygon fill="midnightblue" stroke="midnightblue" points="738.291,-96.4837 742.079,-86.589 732.947,-91.9621 738.291,-96.4837"/>
</g>
<!-- Node14 -->
<g id="node14" class="node"><title>Node14</title>
<polygon fill="white" stroke="#bfbfbf" points="835.5,-62 835.5,-81 876.5,-81 876.5,-62 835.5,-62"/>
<text text-anchor="middle" x="856" y="-69" font-family="Helvetica,sans-Serif" font-size="10.00">ctime</text>
</g>
<!-- Node13&#45;&gt;Node14 -->
<g id="edge15" class="edge"><title>Node13&#45;&gt;Node14</title>
<path fill="none" stroke="midnightblue" d="M824.855,-128.734C830.307,-118.89 839.296,-102.66 846.219,-90.1594"/>
<polygon fill="midnightblue" stroke="midnightblue" points="849.439,-91.571 851.222,-81.1273 843.315,-88.1795 849.439,-91.571"/>
</g>
<!-- Node15&#45;&gt;Node7 -->
<g id="edge19" class="edge"><title>Node15&#45;&gt;Node7</title>
<path fill="none" stroke="midnightblue" d="M439.733,-128.734C453.952,-118.111 478.127,-100.049 495.239,-87.2642"/>
<polygon fill="midnightblue" stroke="midnightblue" points="497.536,-89.9165 503.453,-81.1273 493.347,-84.3087 497.536,-89.9165"/>
</g>
<!-- Node16 -->
<g id="node16" class="node"><title>Node16</title>
<polygon fill="white" stroke="#bfbfbf" points="287,-62 287,-81 339,-81 339,-62 287,-62"/>
<text text-anchor="middle" x="313" y="-69" font-family="Helvetica,sans-Serif" font-size="10.00">memory</text>
</g>
<!-- Node15&#45;&gt;Node16 -->
<g id="edge18" class="edge"><title>Node15&#45;&gt;Node16</title>
<path fill="none" stroke="midnightblue" d="M412.491,-128.734C393.092,-117.769 359.674,-98.8809 336.972,-86.0495"/>
<polygon fill="midnightblue" stroke="midnightblue" points="338.692,-83.001 328.264,-81.1273 335.247,-89.0949 338.692,-83.001"/>
</g>
<!-- Node17 -->
<g id="node17" class="node"><title>Node17</title>
<g id="a_node17"><a xlink:href="Function_8hpp.html" target="_top" xlink:title="Core/Function.hpp">
<polygon fill="white" stroke="red" points="357.5,-62 357.5,-81 454.5,-81 454.5,-62 357.5,-62"/>
<text text-anchor="middle" x="406" y="-69" font-family="Helvetica,sans-Serif" font-size="10.00">Core/Function.hpp</text>
</a>
</g>
</g>
<!-- Node15&#45;&gt;Node17 -->
<g id="edge20" class="edge"><title>Node15&#45;&gt;Node17</title>
<path fill="none" stroke="midnightblue" d="M425.033,-128.734C421.767,-119.085 416.425,-103.3 412.23,-90.9063"/>
<polygon fill="midnightblue" stroke="midnightblue" points="415.441,-89.4774 408.92,-81.1273 408.811,-91.7216 415.441,-89.4774"/>
</g>
<!-- Node17&#45;&gt;Node5 -->
<g id="edge21" class="edge"><title>Node17&#45;&gt;Node5</title>
<path fill="none" stroke="midnightblue" d="M378.634,-61.9751C343.277,-50.9606 281.92,-31.8469 245.224,-20.4152"/>
<polygon fill="midnightblue" stroke="midnightblue" points="246.158,-17.0404 235.569,-17.4077 244.076,-23.7236 246.158,-17.0404"/>
</g>
<!-- Node17&#45;&gt;Node8 -->
<g id="edge22" class="edge"><title>Node17&#45;&gt;Node8</title>
<path fill="none" stroke="midnightblue" d="M406,-61.9751C406,-53.5803 406,-40.4806 406,-29.6631"/>
<polygon fill="midnightblue" stroke="midnightblue" points="409.5,-29.5091 406,-19.5091 402.5,-29.5091 409.5,-29.5091"/>
</g>
<!-- Node18&#45;&gt;Node7 -->
<g id="edge25" class="edge"><title>Node18&#45;&gt;Node7</title>
<path fill="none" stroke="midnightblue" d="M339.824,-128.869C375.54,-117.376 438.836,-97.0082 478.769,-84.1586"/>
<polygon fill="midnightblue" stroke="midnightblue" points="479.94,-87.4586 488.387,-81.0637 477.795,-80.7951 479.94,-87.4586"/>
</g>
<!-- Node18&#45;&gt;Node16 -->
<g id="edge24" class="edge"><title>Node18&#45;&gt;Node16</title>
<path fill="none" stroke="midnightblue" d="M313,-128.734C313,-119.183 313,-103.618 313,-91.2829"/>
<polygon fill="midnightblue" stroke="midnightblue" points="316.5,-91.1273 313,-81.1273 309.5,-91.1273 316.5,-91.1273"/>
</g>
<!-- Node18&#45;&gt;Node17 -->
<g id="edge26" class="edge"><title>Node18&#45;&gt;Node17</title>
<path fill="none" stroke="midnightblue" d="M325.542,-128.734C340.881,-118.013 367.059,-99.7165 385.377,-86.9137"/>
<polygon fill="midnightblue" stroke="midnightblue" points="387.465,-89.7248 393.656,-81.1273 383.455,-83.9873 387.465,-89.7248"/>
</g>
</g>
</svg>
