<?xml version="1.0" encoding="UTF-8" standalone="no"?>
<!DOCTYPE svg PUBLIC "-//W3C//DTD SVG 1.1//EN"
 "http://www.w3.org/Graphics/SVG/1.1/DTD/svg11.dtd">
<!-- Generated by graphviz version 2.38.0 (20140413.2041)
 -->
<!-- Title: /home/travis/build/ComPWA/ComPWA/Data/Generate.cpp Pages: 1 -->
<svg width="1166pt" height="240pt"
 viewBox="0.00 0.00 1166.00 240.00" xmlns="http://www.w3.org/2000/svg" xmlns:xlink="http://www.w3.org/1999/xlink">
<g id="graph0" class="graph" transform="scale(1 1) rotate(0) translate(4 236)">
<title>/home/travis/build/ComPWA/ComPWA/Data/Generate.cpp</title>
<polygon fill="white" stroke="none" points="-4,4 -4,-236 1162,-236 1162,4 -4,4"/>
<!-- Node1 -->
<g id="node1" class="node"><title>Node1</title>
<polygon fill="#bfbfbf" stroke="black" points="496.5,-190.5 496.5,-231.5 631.5,-231.5 631.5,-190.5 496.5,-190.5"/>
<text text-anchor="start" x="504.5" y="-219.5" font-family="Helvetica,sans-Serif" font-size="10.00">/home/travis/build</text>
<text text-anchor="start" x="504.5" y="-208.5" font-family="Helvetica,sans-Serif" font-size="10.00">/ComPWA/ComPWA/Data</text>
<text text-anchor="middle" x="564" y="-197.5" font-family="Helvetica,sans-Serif" font-size="10.00">/Generate.cpp</text>
</g>
<!-- Node2 -->
<g id="node2" class="node"><title>Node2</title>
<polygon fill="white" stroke="#bfbfbf" points="0,-129 0,-148 56,-148 56,-129 0,-129"/>
<text text-anchor="middle" x="28" y="-136" font-family="Helvetica,sans-Serif" font-size="10.00">algorithm</text>
</g>
<!-- Node1&#45;&gt;Node2 -->
<g id="edge1" class="edge"><title>Node1&#45;&gt;Node2</title>
<path fill="none" stroke="midnightblue" d="M496.43,-208.007C399.573,-203.897 216.263,-191.438 65,-154 62.1746,-153.301 59.2756,-152.438 56.404,-151.485"/>
<polygon fill="midnightblue" stroke="midnightblue" points="57.4869,-148.154 46.8931,-148.002 55.0796,-154.727 57.4869,-148.154"/>
</g>
<!-- Node3 -->
<g id="node3" class="node"><title>Node3</title>
<g id="a_node3"><a xlink:href="Exceptions_8hpp.html" target="_top" xlink:title="ComPWA exceptions. ">
<polygon fill="white" stroke="black" points="74,-129 74,-148 182,-148 182,-129 74,-129"/>
<text text-anchor="middle" x="128" y="-136" font-family="Helvetica,sans-Serif" font-size="10.00">Core/Exceptions.hpp</text>
</a>
</g>
</g>
<!-- Node1&#45;&gt;Node3 -->
<g id="edge2" class="edge"><title>Node1&#45;&gt;Node3</title>
<path fill="none" stroke="midnightblue" d="M496.277,-199.578C425.177,-188.561 310.155,-170.525 211,-154 202.999,-152.667 194.569,-151.23 186.273,-149.799"/>
<polygon fill="midnightblue" stroke="midnightblue" points="186.707,-146.322 176.256,-148.062 185.511,-153.219 186.707,-146.322"/>
</g>
<!-- Node6 -->
<g id="node6" class="node"><title>Node6</title>
<g id="a_node6"><a xlink:href="Generator_8hpp.html" target="_top" xlink:title="Core/Generator.hpp">
<polygon fill="white" stroke="black" points="513,-129 513,-148 615,-148 615,-129 513,-129"/>
<text text-anchor="middle" x="564" y="-136" font-family="Helvetica,sans-Serif" font-size="10.00">Core/Generator.hpp</text>
</a>
</g>
</g>
<!-- Node1&#45;&gt;Node6 -->
<g id="edge5" class="edge"><title>Node1&#45;&gt;Node6</title>
<path fill="none" stroke="midnightblue" d="M564,-190.362C564,-180.297 564,-168.104 564,-158.18"/>
<polygon fill="midnightblue" stroke="midnightblue" points="567.5,-158.173 564,-148.173 560.5,-158.173 567.5,-158.173"/>
</g>
<!-- Node9 -->
<g id="node9" class="node"><title>Node9</title>
<g id="a_node9"><a xlink:href="Random_8hpp.html" target="_top" xlink:title="Core/Random.hpp">
<polygon fill="white" stroke="red" points="595,-62 595,-81 691,-81 691,-62 595,-62"/>
<text text-anchor="middle" x="643" y="-69" font-family="Helvetica,sans-Serif" font-size="10.00">Core/Random.hpp</text>
</a>
</g>
</g>
<!-- Node1&#45;&gt;Node9 -->
<g id="edge16" class="edge"><title>Node1&#45;&gt;Node9</title>
<path fill="none" stroke="midnightblue" d="M591.394,-190.403C603.078,-180.703 615.866,-168.06 624,-154 635.339,-134.399 639.914,-108.456 641.758,-91.1583"/>
<polygon fill="midnightblue" stroke="midnightblue" points="645.245,-91.4577 642.619,-81.1935 638.271,-90.855 645.245,-91.4577"/>
</g>
<!-- Node10 -->
<g id="node10" class="node"><title>Node10</title>
<g id="a_node10"><a xlink:href="Kinematics_8hpp.html" target="_top" xlink:title="Core/Kinematics.hpp">
<polygon fill="white" stroke="black" points="141,-62 141,-81 249,-81 249,-62 141,-62"/>
<text text-anchor="middle" x="195" y="-69" font-family="Helvetica,sans-Serif" font-size="10.00">Core/Kinematics.hpp</text>
</a>
</g>
</g>
<!-- Node1&#45;&gt;Node10 -->
<g id="edge9" class="edge"><title>Node1&#45;&gt;Node10</title>
<path fill="none" stroke="midnightblue" d="M496.248,-208.348C434.882,-204.287 343.682,-191.694 274,-154 244.955,-138.288 220.084,-108.223 206.368,-89.329"/>
<polygon fill="midnightblue" stroke="midnightblue" points="209.174,-87.234 200.562,-81.0628 203.446,-91.2576 209.174,-87.234"/>
</g>
<!-- Node11 -->
<g id="node11" class="node"><title>Node11</title>
<g id="a_node11"><a xlink:href="Logging_8hpp.html" target="_top" xlink:title="Core/Logging.hpp">
<polygon fill="white" stroke="black" points="671.5,-129 671.5,-148 764.5,-148 764.5,-129 671.5,-129"/>
<text text-anchor="middle" x="718" y="-136" font-family="Helvetica,sans-Serif" font-size="10.00">Core/Logging.hpp</text>
</a>
</g>
</g>
<!-- Node1&#45;&gt;Node11 -->
<g id="edge12" class="edge"><title>Node1&#45;&gt;Node11</title>
<path fill="none" stroke="midnightblue" d="M606.898,-190.362C633.375,-178.241 666.593,-163.034 689.78,-152.419"/>
<polygon fill="midnightblue" stroke="midnightblue" points="691.418,-155.518 699.054,-148.173 688.504,-149.154 691.418,-155.518"/>
</g>
<!-- Node13 -->
<g id="node13" class="node"><title>Node13</title>
<g id="a_node13"><a xlink:href="ProgressBar_8hpp.html" target="_top" xlink:title="Core/ProgressBar.hpp">
<polygon fill="white" stroke="black" points="782.5,-129 782.5,-148 895.5,-148 895.5,-129 782.5,-129"/>
<text text-anchor="middle" x="839" y="-136" font-family="Helvetica,sans-Serif" font-size="10.00">Core/ProgressBar.hpp</text>
</a>
</g>
</g>
<!-- Node1&#45;&gt;Node13 -->
<g id="edge14" class="edge"><title>Node1&#45;&gt;Node13</title>
<path fill="none" stroke="midnightblue" d="M631.625,-192.663C682.969,-179.501 752.017,-161.799 796.027,-150.517"/>
<polygon fill="midnightblue" stroke="midnightblue" points="797.017,-153.876 805.835,-148.002 795.279,-147.095 797.017,-153.876"/>
</g>
<!-- Node15 -->
<g id="node15" class="node"><title>Node15</title>
<g id="a_node15"><a xlink:href="DataSet_8hpp.html" target="_top" xlink:title="Data/DataSet.hpp">
<polygon fill="white" stroke="black" points="399.5,-129 399.5,-148 494.5,-148 494.5,-129 399.5,-129"/>
<text text-anchor="middle" x="447" y="-136" font-family="Helvetica,sans-Serif" font-size="10.00">Data/DataSet.hpp</text>
</a>
</g>
</g>
<!-- Node1&#45;&gt;Node15 -->
<g id="edge17" class="edge"><title>Node1&#45;&gt;Node15</title>
<path fill="none" stroke="midnightblue" d="M531.409,-190.362C512.012,-178.674 487.852,-164.116 470.356,-153.573"/>
<polygon fill="midnightblue" stroke="midnightblue" points="471.766,-150.337 461.394,-148.173 468.153,-156.332 471.766,-150.337"/>
</g>
<!-- Node18 -->
<g id="node18" class="node"><title>Node18</title>
<g id="a_node18"><a xlink:href="Generate_8hpp.html" target="_top" xlink:title="Some useful functions for Monte&#45;Carlo event generation. ">
<polygon fill="white" stroke="black" points="282.5,-129 282.5,-148 381.5,-148 381.5,-129 282.5,-129"/>
<text text-anchor="middle" x="332" y="-136" font-family="Helvetica,sans-Serif" font-size="10.00">Data/Generate.hpp</text>
</a>
</g>
</g>
<!-- Node1&#45;&gt;Node18 -->
<g id="edge24" class="edge"><title>Node1&#45;&gt;Node18</title>
<path fill="none" stroke="midnightblue" d="M499.683,-190.455C457.941,-177.771 404.976,-161.676 369.863,-151.006"/>
<polygon fill="midnightblue" stroke="midnightblue" points="370.6,-147.572 360.014,-148.013 368.565,-154.269 370.6,-147.572"/>
</g>
<!-- Node19 -->
<g id="node19" class="node"><title>Node19</title>
<polygon fill="white" stroke="#bfbfbf" points="914,-123.5 914,-153.5 1026,-153.5 1026,-123.5 914,-123.5"/>
<text text-anchor="start" x="922" y="-141.5" font-family="Helvetica,sans-Serif" font-size="10.00">ThirdParty/parallelstl</text>
<text text-anchor="middle" x="970" y="-130.5" font-family="Helvetica,sans-Serif" font-size="10.00">/include/pstl/algorithm</text>
</g>
<!-- Node1&#45;&gt;Node19 -->
<g id="edge28" class="edge"><title>Node1&#45;&gt;Node19</title>
<path fill="none" stroke="midnightblue" d="M631.813,-200.023C698.55,-189.941 803.573,-173.374 903.687,-154.195"/>
<polygon fill="midnightblue" stroke="midnightblue" points="904.514,-157.601 913.671,-152.271 903.189,-150.727 904.514,-157.601"/>
</g>
<!-- Node20 -->
<g id="node20" class="node"><title>Node20</title>
<polygon fill="white" stroke="#bfbfbf" points="1044,-123.5 1044,-153.5 1158,-153.5 1158,-123.5 1044,-123.5"/>
<text text-anchor="start" x="1052" y="-141.5" font-family="Helvetica,sans-Serif" font-size="10.00">ThirdParty/parallelstl</text>
<text text-anchor="middle" x="1101" y="-130.5" font-family="Helvetica,sans-Serif" font-size="10.00">/include/pstl/execution</text>
</g>
<!-- Node1&#45;&gt;Node20 -->
<g id="edge29" class="edge"><title>Node1&#45;&gt;Node20</title>
<path fill="none" stroke="midnightblue" d="M631.765,-204.046C721.481,-195.695 884.754,-178.877 1033.59,-154.137"/>
<polygon fill="midnightblue" stroke="midnightblue" points="1034.55,-157.526 1043.83,-152.419 1033.39,-150.623 1034.55,-157.526"/>
</g>
<!-- Node4 -->
<g id="node4" class="node"><title>Node4</title>
<polygon fill="white" stroke="#bfbfbf" points="25.5,-62 25.5,-81 84.5,-81 84.5,-62 25.5,-62"/>
<text text-anchor="middle" x="55" y="-69" font-family="Helvetica,sans-Serif" font-size="10.00">exception</text>
</g>
<!-- Node3&#45;&gt;Node4 -->
<g id="edge3" class="edge"><title>Node3&#45;&gt;Node4</title>
<path fill="none" stroke="midnightblue" d="M118.155,-128.734C106.443,-118.305 86.6807,-100.709 72.3776,-87.9732"/>
<polygon fill="midnightblue" stroke="midnightblue" points="74.4851,-85.1634 64.6891,-81.1273 69.8301,-90.3913 74.4851,-85.1634"/>
</g>
<!-- Node5 -->
<g id="node5" class="node"><title>Node5</title>
<polygon fill="white" stroke="#bfbfbf" points="174.5,-0.5 174.5,-19.5 215.5,-19.5 215.5,-0.5 174.5,-0.5"/>
<text text-anchor="middle" x="195" y="-7.5" font-family="Helvetica,sans-Serif" font-size="10.00">string</text>
</g>
<!-- Node3&#45;&gt;Node5 -->
<g id="edge4" class="edge"><title>Node3&#45;&gt;Node5</title>
<path fill="none" stroke="midnightblue" d="M126.135,-128.999C123.188,-113.427 119.033,-79.748 132,-56 139.464,-42.3302 153.079,-31.8157 165.747,-24.4008"/>
<polygon fill="midnightblue" stroke="midnightblue" points="167.577,-27.3898 174.702,-19.5486 164.242,-21.2352 167.577,-27.3898"/>
</g>
<!-- Node7 -->
<g id="node7" class="node"><title>Node7</title>
<g id="a_node7"><a xlink:href="Event_8hpp.html" target="_top" xlink:title="Core/Event.hpp">
<polygon fill="white" stroke="red" points="453.5,-62 453.5,-81 538.5,-81 538.5,-62 453.5,-62"/>
<text text-anchor="middle" x="496" y="-69" font-family="Helvetica,sans-Serif" font-size="10.00">Core/Event.hpp</text>
</a>
</g>
</g>
<!-- Node6&#45;&gt;Node7 -->
<g id="edge6" class="edge"><title>Node6&#45;&gt;Node7</title>
<path fill="none" stroke="midnightblue" d="M554.829,-128.734C544.022,-118.403 525.854,-101.037 512.562,-88.3315"/>
<polygon fill="midnightblue" stroke="midnightblue" points="514.673,-85.5071 505.025,-81.1273 509.836,-90.5672 514.673,-85.5071"/>
</g>
<!-- Node6&#45;&gt;Node9 -->
<g id="edge8" class="edge"><title>Node6&#45;&gt;Node9</title>
<path fill="none" stroke="midnightblue" d="M574.654,-128.734C587.447,-118.208 609.116,-100.379 624.627,-87.6174"/>
<polygon fill="midnightblue" stroke="midnightblue" points="627.016,-90.1837 632.515,-81.1273 622.569,-84.7782 627.016,-90.1837"/>
</g>
<!-- Node8 -->
<g id="node8" class="node"><title>Node8</title>
<polygon fill="white" stroke="#bfbfbf" points="384,-0.5 384,-19.5 428,-19.5 428,-0.5 384,-0.5"/>
<text text-anchor="middle" x="406" y="-7.5" font-family="Helvetica,sans-Serif" font-size="10.00">vector</text>
</g>
<!-- Node7&#45;&gt;Node8 -->
<g id="edge7" class="edge"><title>Node7&#45;&gt;Node8</title>
<path fill="none" stroke="midnightblue" d="M483.105,-61.9751C468.536,-52.3431 444.598,-36.5175 427.255,-25.0517"/>
<polygon fill="midnightblue" stroke="midnightblue" points="429.143,-22.1044 418.871,-19.5091 425.283,-27.9437 429.143,-22.1044"/>
</g>
<!-- Node10&#45;&gt;Node5 -->
<g id="edge10" class="edge"><title>Node10&#45;&gt;Node5</title>
<path fill="none" stroke="midnightblue" d="M195,-61.9751C195,-53.5803 195,-40.4806 195,-29.6631"/>
<polygon fill="midnightblue" stroke="midnightblue" points="198.5,-29.5091 195,-19.5091 191.5,-29.5091 198.5,-29.5091"/>
</g>
<!-- Node10&#45;&gt;Node8 -->
<g id="edge11" class="edge"><title>Node10&#45;&gt;Node8</title>
<path fill="none" stroke="midnightblue" d="M225.231,-61.9751C264.751,-50.8309 333.673,-31.3956 374.033,-20.0145"/>
<polygon fill="midnightblue" stroke="midnightblue" points="375.21,-23.319 383.885,-17.2363 373.31,-16.5818 375.21,-23.319"/>
</g>
<!-- Node12 -->
<g id="node12" class="node"><title>Node12</title>
<polygon fill="white" stroke="#bfbfbf" points="709.5,-56.5 709.5,-86.5 836.5,-86.5 836.5,-56.5 709.5,-56.5"/>
<text text-anchor="start" x="717.5" y="-74.5" font-family="Helvetica,sans-Serif" font-size="10.00">ThirdParty/easyloggingpp</text>
<text text-anchor="middle" x="773" y="-63.5" font-family="Helvetica,sans-Serif" font-size="10.00">/easylogging++.h</text>
</g>
<!-- Node11&#45;&gt;Node12 -->
<g id="edge13" class="edge"><title>Node11&#45;&gt;Node12</title>
<path fill="none" stroke="midnightblue" d="M725.418,-128.734C732.851,-119.949 744.588,-106.078 754.544,-94.3111"/>
<polygon fill="midnightblue" stroke="midnightblue" points="757.291,-96.4837 761.079,-86.589 751.947,-91.9621 757.291,-96.4837"/>
</g>
<!-- Node14 -->
<g id="node14" class="node"><title>Node14</title>
<polygon fill="white" stroke="#bfbfbf" points="854.5,-62 854.5,-81 895.5,-81 895.5,-62 854.5,-62"/>
<text text-anchor="middle" x="875" y="-69" font-family="Helvetica,sans-Serif" font-size="10.00">ctime</text>
</g>
<!-- Node13&#45;&gt;Node14 -->
<g id="edge15" class="edge"><title>Node13&#45;&gt;Node14</title>
<path fill="none" stroke="midnightblue" d="M843.855,-128.734C849.307,-118.89 858.296,-102.66 865.219,-90.1594"/>
<polygon fill="midnightblue" stroke="midnightblue" points="868.439,-91.571 870.222,-81.1273 862.315,-88.1795 868.439,-91.571"/>
</g>
<!-- Node15&#45;&gt;Node7 -->
<g id="edge20" class="edge"><title>Node15&#45;&gt;Node7</title>
<path fill="none" stroke="midnightblue" d="M453.608,-128.734C461.176,-118.695 473.751,-102.014 483.244,-89.4213"/>
<polygon fill="midnightblue" stroke="midnightblue" points="486.272,-91.2194 489.496,-81.1273 480.682,-87.0057 486.272,-91.2194"/>
</g>
<!-- Node15&#45;&gt;Node8 -->
<g id="edge19" class="edge"><title>Node15&#45;&gt;Node8</title>
<path fill="none" stroke="midnightblue" d="M485.558,-128.927C507.968,-121.751 534.395,-109.013 548,-87 555.243,-75.2799 556.139,-67.1169 548,-56 522.981,-21.8256 471.856,-12.9597 438.268,-11.007"/>
<polygon fill="midnightblue" stroke="midnightblue" points="438.167,-7.50016 428.034,-10.5926 437.884,-14.4944 438.167,-7.50016"/>
</g>
<!-- Node16 -->
<g id="node16" class="node"><title>Node16</title>
<polygon fill="white" stroke="#bfbfbf" points="383,-62 383,-81 435,-81 435,-62 383,-62"/>
<text text-anchor="middle" x="409" y="-69" font-family="Helvetica,sans-Serif" font-size="10.00">memory</text>
</g>
<!-- Node15&#45;&gt;Node16 -->
<g id="edge18" class="edge"><title>Node15&#45;&gt;Node16</title>
<path fill="none" stroke="midnightblue" d="M441.875,-128.734C436.063,-118.793 426.444,-102.338 419.108,-89.7892"/>
<polygon fill="midnightblue" stroke="midnightblue" points="422.112,-87.9938 414.044,-81.1273 416.069,-91.5267 422.112,-87.9938"/>
</g>
<!-- Node17 -->
<g id="node17" class="node"><title>Node17</title>
<g id="a_node17"><a xlink:href="Function_8hpp.html" target="_top" xlink:title="Core/Function.hpp">
<polygon fill="white" stroke="black" points="267.5,-62 267.5,-81 364.5,-81 364.5,-62 267.5,-62"/>
<text text-anchor="middle" x="316" y="-69" font-family="Helvetica,sans-Serif" font-size="10.00">Core/Function.hpp</text>
</a>
</g>
</g>
<!-- Node15&#45;&gt;Node17 -->
<g id="edge21" class="edge"><title>Node15&#45;&gt;Node17</title>
<path fill="none" stroke="midnightblue" d="M429.604,-128.869C407.387,-117.845 368.713,-98.6554 342.74,-85.7678"/>
<polygon fill="midnightblue" stroke="midnightblue" points="343.981,-82.4767 333.468,-81.1672 340.87,-88.7473 343.981,-82.4767"/>
</g>
<!-- Node17&#45;&gt;Node5 -->
<g id="edge22" class="edge"><title>Node17&#45;&gt;Node5</title>
<path fill="none" stroke="midnightblue" d="M298.664,-61.9751C278.447,-52.0338 244.813,-35.4947 221.358,-23.961"/>
<polygon fill="midnightblue" stroke="midnightblue" points="222.822,-20.781 212.304,-19.5091 219.733,-27.0627 222.822,-20.781"/>
</g>
<!-- Node17&#45;&gt;Node8 -->
<g id="edge23" class="edge"><title>Node17&#45;&gt;Node8</title>
<path fill="none" stroke="midnightblue" d="M328.895,-61.9751C343.464,-52.3431 367.402,-36.5175 384.745,-25.0517"/>
<polygon fill="midnightblue" stroke="midnightblue" points="386.717,-27.9437 393.129,-19.5091 382.857,-22.1044 386.717,-27.9437"/>
</g>
<!-- Node18&#45;&gt;Node7 -->
<g id="edge26" class="edge"><title>Node18&#45;&gt;Node7</title>
<path fill="none" stroke="midnightblue" d="M353.778,-128.869C382.283,-117.571 432.428,-97.6961 464.92,-84.8183"/>
<polygon fill="midnightblue" stroke="midnightblue" points="466.386,-88.0021 474.393,-81.0637 463.807,-81.4945 466.386,-88.0021"/>
</g>
<!-- Node18&#45;&gt;Node16 -->
<g id="edge25" class="edge"><title>Node18&#45;&gt;Node16</title>
<path fill="none" stroke="midnightblue" d="M342.385,-128.734C354.854,-118.208 375.974,-100.379 391.092,-87.6174"/>
<polygon fill="midnightblue" stroke="midnightblue" points="393.396,-90.2524 398.78,-81.1273 388.881,-84.9034 393.396,-90.2524"/>
</g>
<!-- Node18&#45;&gt;Node17 -->
<g id="edge27" class="edge"><title>Node18&#45;&gt;Node17</title>
<path fill="none" stroke="midnightblue" d="M329.842,-128.734C327.467,-119.085 323.582,-103.3 320.531,-90.9063"/>
<polygon fill="midnightblue" stroke="midnightblue" points="323.912,-90.0009 318.124,-81.1273 317.115,-91.674 323.912,-90.0009"/>
</g>
</g>
</svg>
