<?xml version="1.0" encoding="UTF-8" standalone="no"?>
<!DOCTYPE svg PUBLIC "-//W3C//DTD SVG 1.1//EN"
 "http://www.w3.org/Graphics/SVG/1.1/DTD/svg11.dtd">
<!-- Generated by graphviz version 2.38.0 (20140413.2041)
 -->
<!-- Title: /home/travis/build/ComPWA/ComPWA/Core/Generator.hpp Pages: 1 -->
<svg width="919pt" height="217pt"
 viewBox="0.00 0.00 918.50 217.00" xmlns="http://www.w3.org/2000/svg" xmlns:xlink="http://www.w3.org/1999/xlink">
<g id="graph0" class="graph" transform="scale(1 1) rotate(0) translate(4 213)">
<title>/home/travis/build/ComPWA/ComPWA/Core/Generator.hpp</title>
<polygon fill="white" stroke="none" points="-4,4 -4,-213 914.5,-213 914.5,4 -4,4"/>
<!-- Node1 -->
<g id="node1" class="node"><title>Node1</title>
<polygon fill="#bfbfbf" stroke="black" points="255.5,-167.5 255.5,-208.5 389.5,-208.5 389.5,-167.5 255.5,-167.5"/>
<text text-anchor="start" x="263.5" y="-196.5" font-family="Helvetica,sans-Serif" font-size="10.00">/home/travis/build</text>
<text text-anchor="start" x="263.5" y="-185.5" font-family="Helvetica,sans-Serif" font-size="10.00">/ComPWA/ComPWA/Core</text>
<text text-anchor="middle" x="322.5" y="-174.5" font-family="Helvetica,sans-Serif" font-size="10.00">/Generator.hpp</text>
</g>
<!-- Node2 -->
<g id="node2" class="node"><title>Node2</title>
<g id="a_node2"><a xlink:href="EvtGenGenerator_8hpp.html" target="_top" xlink:title="/home/travis/build\l/ComPWA/ComPWA/Data\l/EvtGen/EvtGenGenerator.hpp">
<polygon fill="white" stroke="black" points="0,-89.5 0,-130.5 161,-130.5 161,-89.5 0,-89.5"/>
<text text-anchor="start" x="8" y="-118.5" font-family="Helvetica,sans-Serif" font-size="10.00">/home/travis/build</text>
<text text-anchor="start" x="8" y="-107.5" font-family="Helvetica,sans-Serif" font-size="10.00">/ComPWA/ComPWA/Data</text>
<text text-anchor="middle" x="80.5" y="-96.5" font-family="Helvetica,sans-Serif" font-size="10.00">/EvtGen/EvtGenGenerator.hpp</text>
</a>
</g>
</g>
<!-- Node1&#45;&gt;Node2 -->
<g id="edge1" class="edge"><title>Node1&#45;&gt;Node2</title>
<path fill="none" stroke="midnightblue" d="M250.231,-164.304C215.975,-153.546 175.462,-140.823 142.61,-130.506"/>
<polygon fill="midnightblue" stroke="midnightblue" points="249.59,-167.771 260.179,-167.428 251.687,-161.093 249.59,-167.771"/>
</g>
<!-- Node4 -->
<g id="node4" class="node"><title>Node4</title>
<g id="a_node4"><a xlink:href="Generate_8cpp.html" target="_top" xlink:title="/home/travis/build\l/ComPWA/ComPWA/Data\l/Generate.cpp">
<polygon fill="white" stroke="black" points="179.5,-89.5 179.5,-130.5 313.5,-130.5 313.5,-89.5 179.5,-89.5"/>
<text text-anchor="start" x="187.5" y="-118.5" font-family="Helvetica,sans-Serif" font-size="10.00">/home/travis/build</text>
<text text-anchor="start" x="187.5" y="-107.5" font-family="Helvetica,sans-Serif" font-size="10.00">/ComPWA/ComPWA/Data</text>
<text text-anchor="middle" x="246.5" y="-96.5" font-family="Helvetica,sans-Serif" font-size="10.00">/Generate.cpp</text>
</a>
</g>
</g>
<!-- Node1&#45;&gt;Node4 -->
<g id="edge3" class="edge"><title>Node1&#45;&gt;Node4</title>
<path fill="none" stroke="midnightblue" d="M295.704,-160.204C285.916,-150.416 275.039,-139.539 266.006,-130.506"/>
<polygon fill="midnightblue" stroke="midnightblue" points="293.382,-162.832 302.928,-167.428 298.332,-157.882 293.382,-162.832"/>
</g>
<!-- Node5 -->
<g id="node5" class="node"><title>Node5</title>
<g id="a_node5"><a xlink:href="RootDataIO_8cpp.html" target="_top" xlink:title="/home/travis/build\l/ComPWA/ComPWA/Data\l/Root/RootDataIO.cpp">
<polygon fill="white" stroke="black" points="331.5,-89.5 331.5,-130.5 465.5,-130.5 465.5,-89.5 331.5,-89.5"/>
<text text-anchor="start" x="339.5" y="-118.5" font-family="Helvetica,sans-Serif" font-size="10.00">/home/travis/build</text>
<text text-anchor="start" x="339.5" y="-107.5" font-family="Helvetica,sans-Serif" font-size="10.00">/ComPWA/ComPWA/Data</text>
<text text-anchor="middle" x="398.5" y="-96.5" font-family="Helvetica,sans-Serif" font-size="10.00">/Root/RootDataIO.cpp</text>
</a>
</g>
</g>
<!-- Node1&#45;&gt;Node5 -->
<g id="edge4" class="edge"><title>Node1&#45;&gt;Node5</title>
<path fill="none" stroke="midnightblue" d="M349.296,-160.204C359.084,-150.416 369.961,-139.539 378.994,-130.506"/>
<polygon fill="midnightblue" stroke="midnightblue" points="346.668,-157.882 342.072,-167.428 351.618,-162.832 346.668,-157.882"/>
</g>
<!-- Node6 -->
<g id="node6" class="node"><title>Node6</title>
<g id="a_node6"><a xlink:href="RootGenerator_8hpp.html" target="_top" xlink:title="/home/travis/build\l/ComPWA/ComPWA/Data\l/Root/RootGenerator.hpp">
<polygon fill="white" stroke="black" points="483.5,-89.5 483.5,-130.5 617.5,-130.5 617.5,-89.5 483.5,-89.5"/>
<text text-anchor="start" x="491.5" y="-118.5" font-family="Helvetica,sans-Serif" font-size="10.00">/home/travis/build</text>
<text text-anchor="start" x="491.5" y="-107.5" font-family="Helvetica,sans-Serif" font-size="10.00">/ComPWA/ComPWA/Data</text>
<text text-anchor="middle" x="550.5" y="-96.5" font-family="Helvetica,sans-Serif" font-size="10.00">/Root/RootGenerator.hpp</text>
</a>
</g>
</g>
<!-- Node1&#45;&gt;Node6 -->
<g id="edge5" class="edge"><title>Node1&#45;&gt;Node6</title>
<path fill="none" stroke="midnightblue" d="M391.004,-164.165C423.19,-153.437 461.164,-140.779 491.983,-130.506"/>
<polygon fill="midnightblue" stroke="midnightblue" points="389.596,-160.945 381.216,-167.428 391.809,-167.586 389.596,-160.945"/>
</g>
<!-- Node3 -->
<g id="node3" class="node"><title>Node3</title>
<g id="a_node3"><a xlink:href="EvtGenGenerator_8cpp.html" target="_top" xlink:title="/home/travis/build\l/ComPWA/ComPWA/Data\l/EvtGen/EvtGenGenerator.cpp">
<polygon fill="white" stroke="black" points="0.5,-6 0.5,-47 160.5,-47 160.5,-6 0.5,-6"/>
<text text-anchor="start" x="8.5" y="-35" font-family="Helvetica,sans-Serif" font-size="10.00">/home/travis/build</text>
<text text-anchor="start" x="8.5" y="-24" font-family="Helvetica,sans-Serif" font-size="10.00">/ComPWA/ComPWA/Data</text>
<text text-anchor="middle" x="80.5" y="-13" font-family="Helvetica,sans-Serif" font-size="10.00">/EvtGen/EvtGenGenerator.cpp</text>
</a>
</g>
</g>
<!-- Node2&#45;&gt;Node3 -->
<g id="edge2" class="edge"><title>Node2&#45;&gt;Node3</title>
<path fill="none" stroke="midnightblue" d="M80.5,-79.0646C80.5,-68.3819 80.5,-56.6303 80.5,-47.0472"/>
<polygon fill="midnightblue" stroke="midnightblue" points="77.0001,-79.2711 80.5,-89.2711 84.0001,-79.2712 77.0001,-79.2711"/>
</g>
<!-- Node7 -->
<g id="node7" class="node"><title>Node7</title>
<g id="a_node7"><a xlink:href="RootGenerator_8cpp.html" target="_top" xlink:title="/home/travis/build\l/ComPWA/ComPWA/Data\l/Root/RootGenerator.cpp">
<polygon fill="white" stroke="black" points="248.5,-6 248.5,-47 382.5,-47 382.5,-6 248.5,-6"/>
<text text-anchor="start" x="256.5" y="-35" font-family="Helvetica,sans-Serif" font-size="10.00">/home/travis/build</text>
<text text-anchor="start" x="256.5" y="-24" font-family="Helvetica,sans-Serif" font-size="10.00">/ComPWA/ComPWA/Data</text>
<text text-anchor="middle" x="315.5" y="-13" font-family="Helvetica,sans-Serif" font-size="10.00">/Root/RootGenerator.cpp</text>
</a>
</g>
</g>
<!-- Node6&#45;&gt;Node7 -->
<g id="edge6" class="edge"><title>Node6&#45;&gt;Node7</title>
<path fill="none" stroke="midnightblue" d="M484.419,-86.0826C448.916,-73.7697 405.61,-58.751 371.736,-47.0031"/>
<polygon fill="midnightblue" stroke="midnightblue" points="483.617,-89.5088 494.212,-89.4787 485.911,-82.8952 483.617,-89.5088"/>
</g>
<!-- Node8 -->
<g id="node8" class="node"><title>Node8</title>
<g id="a_node8"><a xlink:href="DalitzFitD03K_8cpp.html" target="_top" xlink:title="Executable for Dalitz plot analysis of the decay D0 &#45;&gt; K_S K+ K&#45;. ">
<polygon fill="white" stroke="black" points="400.5,-0.5 400.5,-52.5 558.5,-52.5 558.5,-0.5 400.5,-0.5"/>
<text text-anchor="start" x="408.5" y="-40.5" font-family="Helvetica,sans-Serif" font-size="10.00">/home/travis/build</text>
<text text-anchor="start" x="408.5" y="-29.5" font-family="Helvetica,sans-Serif" font-size="10.00">/ComPWA/ComPWA/Examples</text>
<text text-anchor="start" x="408.5" y="-18.5" font-family="Helvetica,sans-Serif" font-size="10.00">/DalitzAnalysis_D0KsKK</text>
<text text-anchor="middle" x="479.5" y="-7.5" font-family="Helvetica,sans-Serif" font-size="10.00">/DalitzFitD03K.cpp</text>
</a>
</g>
</g>
<!-- Node6&#45;&gt;Node8 -->
<g id="edge7" class="edge"><title>Node6&#45;&gt;Node8</title>
<path fill="none" stroke="midnightblue" d="M526.702,-81.6823C518.517,-72.2867 509.397,-61.8184 501.373,-52.6073"/>
<polygon fill="midnightblue" stroke="midnightblue" points="524.105,-84.0301 533.313,-89.2711 529.383,-79.432 524.105,-84.0301"/>
</g>
<!-- Node9 -->
<g id="node9" class="node"><title>Node9</title>
<g id="a_node9"><a xlink:href="DalitzFitApp_8cpp.html" target="_top" xlink:title="Simple Dalitz plot analysis with ComPWA. ">
<polygon fill="white" stroke="black" points="576.5,-6 576.5,-47 734.5,-47 734.5,-6 576.5,-6"/>
<text text-anchor="start" x="584.5" y="-35" font-family="Helvetica,sans-Serif" font-size="10.00">/home/travis/build</text>
<text text-anchor="start" x="584.5" y="-24" font-family="Helvetica,sans-Serif" font-size="10.00">/ComPWA/ComPWA/Examples</text>
<text text-anchor="middle" x="655.5" y="-13" font-family="Helvetica,sans-Serif" font-size="10.00">/DalitzFit/DalitzFitApp.cpp</text>
</a>
</g>
</g>
<!-- Node6&#45;&gt;Node9 -->
<g id="edge8" class="edge"><title>Node6&#45;&gt;Node9</title>
<path fill="none" stroke="midnightblue" d="M583.714,-83.2197C598.751,-71.5478 616.24,-57.973 630.191,-47.1445"/>
<polygon fill="midnightblue" stroke="midnightblue" points="581.404,-80.5822 575.65,-89.4787 585.696,-86.112 581.404,-80.5822"/>
</g>
<!-- Node10 -->
<g id="node10" class="node"><title>Node10</title>
<g id="a_node10"><a xlink:href="SimFit_8cpp.html" target="_top" xlink:title="/home/travis/build\l/ComPWA/ComPWA/Examples\l/SimFit/SimFit.cpp">
<polygon fill="white" stroke="black" points="752.5,-6 752.5,-47 910.5,-47 910.5,-6 752.5,-6"/>
<text text-anchor="start" x="760.5" y="-35" font-family="Helvetica,sans-Serif" font-size="10.00">/home/travis/build</text>
<text text-anchor="start" x="760.5" y="-24" font-family="Helvetica,sans-Serif" font-size="10.00">/ComPWA/ComPWA/Examples</text>
<text text-anchor="middle" x="831.5" y="-13" font-family="Helvetica,sans-Serif" font-size="10.00">/SimFit/SimFit.cpp</text>
</a>
</g>
</g>
<!-- Node6&#45;&gt;Node10 -->
<g id="edge9" class="edge"><title>Node6&#45;&gt;Node10</title>
<path fill="none" stroke="midnightblue" d="M627.617,-86.6332C670.417,-74.2197 723.145,-58.9267 764.256,-47.0031"/>
<polygon fill="midnightblue" stroke="midnightblue" points="626.436,-83.3316 617.807,-89.4787 628.386,-90.0546 626.436,-83.3316"/>
</g>
</g>
</svg>
