<?xml version="1.0" encoding="UTF-8" standalone="no"?>
<!DOCTYPE svg PUBLIC "-//W3C//DTD SVG 1.1//EN"
 "http://www.w3.org/Graphics/SVG/1.1/DTD/svg11.dtd">
<!-- Generated by graphviz version 2.40.1 (20161225.0304)
 -->
<!-- Title: Optimizer/Geneva/GenevaIF.cpp Pages: 1 -->
<svg width="846pt" height="252pt"
 viewBox="0.00 0.00 846.39 252.00" xmlns="http://www.w3.org/2000/svg" xmlns:xlink="http://www.w3.org/1999/xlink">
<g id="graph0" class="graph" transform="scale(1 1) rotate(0) translate(4 248)">
<title>Optimizer/Geneva/GenevaIF.cpp</title>
<polygon fill="#ffffff" stroke="transparent" points="-4,4 -4,-248 842.3946,-248 842.3946,4 -4,4"/>
<!-- Node0 -->
<g id="node1" class="node">
<title>Node0</title>
<polygon fill="#bfbfbf" stroke="#000000" points="402.3946,-224.5 402.3946,-243.5 575.3946,-243.5 575.3946,-224.5 402.3946,-224.5"/>
<text text-anchor="middle" x="488.8946" y="-231.5" font-family="Helvetica,sans-Serif" font-size="10.00" fill="#000000">Optimizer/Geneva/GenevaIF.cpp</text>
</g>
<!-- Node1 -->
<g id="node2" class="node">
<title>Node1</title>
<g id="a_node2"><a xlink:href="GenevaIF_8hpp.html" target="_top" xlink:title="This class provides a wrapper around the Geneva library. ">
<polygon fill="#ffffff" stroke="#000000" points="110.3946,-168.5 110.3946,-187.5 283.3946,-187.5 283.3946,-168.5 110.3946,-168.5"/>
<text text-anchor="middle" x="196.8946" y="-175.5" font-family="Helvetica,sans-Serif" font-size="10.00" fill="#000000">Optimizer/Geneva/GenevaIF.hpp</text>
</a>
</g>
</g>
<!-- Node0&#45;&gt;Node1 -->
<g id="edge1" class="edge">
<title>Node0&#45;&gt;Node1</title>
<path fill="none" stroke="#191970" d="M439.0298,-224.4369C388.5314,-214.7522 310.4111,-199.7703 256.6342,-189.4569"/>
<polygon fill="#191970" stroke="#191970" points="257.0341,-185.9699 246.5538,-187.5237 255.7156,-192.8446 257.0341,-185.9699"/>
</g>
<!-- Node7 -->
<g id="node4" class="node">
<title>Node7</title>
<g id="a_node4"><a xlink:href="GenevaResult_8hpp.html" target="_top" xlink:title="Optimizer/Geneva/GenevaResult.hpp">
<polygon fill="#ffffff" stroke="#ff0000" points="244.3946,-112.5 244.3946,-131.5 441.3946,-131.5 441.3946,-112.5 244.3946,-112.5"/>
<text text-anchor="middle" x="342.8946" y="-119.5" font-family="Helvetica,sans-Serif" font-size="10.00" fill="#000000">Optimizer/Geneva/GenevaResult.hpp</text>
</a>
</g>
</g>
<!-- Node0&#45;&gt;Node7 -->
<g id="edge15" class="edge">
<title>Node0&#45;&gt;Node7</title>
<path fill="none" stroke="#191970" d="M476.4468,-224.4509C451.3415,-205.1921 394.4142,-161.5218 363.6129,-137.8935"/>
<polygon fill="#191970" stroke="#191970" points="365.3757,-134.8345 355.311,-131.5249 361.115,-140.3885 365.3757,-134.8345"/>
</g>
<!-- Node10 -->
<g id="node7" class="node">
<title>Node10</title>
<g id="a_node7"><a xlink:href="Logging_8hpp.html" target="_top" xlink:title="Core/Logging.hpp">
<polygon fill="#ffffff" stroke="#ff0000" points="374.3946,-.5 374.3946,-19.5 475.3946,-19.5 475.3946,-.5 374.3946,-.5"/>
<text text-anchor="middle" x="424.8946" y="-7.5" font-family="Helvetica,sans-Serif" font-size="10.00" fill="#000000">Core/Logging.hpp</text>
</a>
</g>
</g>
<!-- Node0&#45;&gt;Node10 -->
<g id="edge9" class="edge">
<title>Node0&#45;&gt;Node10</title>
<path fill="none" stroke="#191970" d="M487.8899,-224.4481C484.8192,-197.3153 474.3072,-117.7529 450.8946,-56 447.295,-46.5055 441.9475,-36.6218 437.0366,-28.4605"/>
<polygon fill="#191970" stroke="#191970" points="439.8815,-26.4092 431.603,-19.7974 433.9514,-30.1287 439.8815,-26.4092"/>
</g>
<!-- Node19 -->
<g id="node9" class="node">
<title>Node19</title>
<g id="a_node9"><a xlink:href="GFMinIndividual_8hpp.html" target="_top" xlink:title="Optimizer/Geneva/GFMinIndividual.hpp">
<polygon fill="#ffffff" stroke="#000000" points="498.3946,-112.5 498.3946,-131.5 705.3946,-131.5 705.3946,-112.5 498.3946,-112.5"/>
<text text-anchor="middle" x="601.8946" y="-119.5" font-family="Helvetica,sans-Serif" font-size="10.00" fill="#000000">Optimizer/Geneva/GFMinIndividual.hpp</text>
</a>
</g>
</g>
<!-- Node0&#45;&gt;Node19 -->
<g id="edge10" class="edge">
<title>Node0&#45;&gt;Node19</title>
<path fill="none" stroke="#191970" d="M492.7581,-224.0511C498.5239,-210.1891 510.4856,-184.8711 526.8946,-168 539.4749,-155.0655 556.414,-144.2736 571.0108,-136.4009"/>
<polygon fill="#191970" stroke="#191970" points="572.9176,-139.3554 580.1955,-131.6558 569.7046,-133.1363 572.9176,-139.3554"/>
</g>
<!-- Node22 -->
<g id="node12" class="node">
<title>Node22</title>
<polygon fill="#ffffff" stroke="#bfbfbf" points="535.8946,-168.5 535.8946,-187.5 631.8946,-187.5 631.8946,-168.5 535.8946,-168.5"/>
<text text-anchor="middle" x="583.8946" y="-175.5" font-family="Helvetica,sans-Serif" font-size="10.00" fill="#000000">geneva/Go2.hpp</text>
</g>
<!-- Node0&#45;&gt;Node22 -->
<g id="edge16" class="edge">
<title>Node0&#45;&gt;Node22</title>
<path fill="none" stroke="#191970" d="M505.4424,-224.2455C520.1545,-215.5731 541.8834,-202.7645 558.7451,-192.825"/>
<polygon fill="#191970" stroke="#191970" points="560.6992,-195.736 567.5365,-187.6427 557.1445,-189.7057 560.6992,-195.736"/>
</g>
<!-- Node16 -->
<g id="node13" class="node">
<title>Node16</title>
<polygon fill="#ffffff" stroke="#bfbfbf" points="649.8946,-168.5 649.8946,-187.5 699.8946,-187.5 699.8946,-168.5 649.8946,-168.5"/>
<text text-anchor="middle" x="674.8946" y="-175.5" font-family="Helvetica,sans-Serif" font-size="10.00" fill="#000000">chrono</text>
</g>
<!-- Node0&#45;&gt;Node16 -->
<g id="edge17" class="edge">
<title>Node0&#45;&gt;Node16</title>
<path fill="none" stroke="#191970" d="M520.8692,-224.3733C554.1457,-214.3545 606.0851,-198.7168 640.3024,-188.4149"/>
<polygon fill="#191970" stroke="#191970" points="641.3159,-191.765 649.8823,-185.5306 639.2978,-185.0622 641.3159,-191.765"/>
</g>
<!-- Node2 -->
<g id="node3" class="node">
<title>Node2</title>
<g id="a_node3"><a xlink:href="Estimator_8hpp.html" target="_top" xlink:title="Estimator/Estimator.hpp">
<polygon fill="#ffffff" stroke="#ff0000" points="14.8946,-56.5 14.8946,-75.5 148.8946,-75.5 148.8946,-56.5 14.8946,-56.5"/>
<text text-anchor="middle" x="81.8946" y="-63.5" font-family="Helvetica,sans-Serif" font-size="10.00" fill="#000000">Estimator/Estimator.hpp</text>
</a>
</g>
</g>
<!-- Node1&#45;&gt;Node2 -->
<g id="edge2" class="edge">
<title>Node1&#45;&gt;Node2</title>
<path fill="none" stroke="#191970" d="M114.734,-168.4988C69.1305,-161.349 18.8513,-149.6953 4.8946,-132 -11.5888,-111.1009 18.2476,-91.869 45.4455,-79.6233"/>
<polygon fill="#191970" stroke="#191970" points="47.0563,-82.7411 54.8755,-75.5919 44.3046,-76.3047 47.0563,-82.7411"/>
</g>
<!-- Node1&#45;&gt;Node7 -->
<g id="edge3" class="edge">
<title>Node1&#45;&gt;Node7</title>
<path fill="none" stroke="#191970" d="M221.9929,-168.3733C245.8501,-159.2226 281.9282,-145.3844 308.4656,-135.2057"/>
<polygon fill="#191970" stroke="#191970" points="310.0406,-138.3503 318.1239,-131.5011 307.5337,-131.8145 310.0406,-138.3503"/>
</g>
<!-- Node17 -->
<g id="node5" class="node">
<title>Node17</title>
<g id="a_node5"><a xlink:href="Optimizer_8hpp.html" target="_top" xlink:title="Optimizer/Optimizer.hpp">
<polygon fill="#ffffff" stroke="#000000" points="13.8946,-112.5 13.8946,-131.5 149.8946,-131.5 149.8946,-112.5 13.8946,-112.5"/>
<text text-anchor="middle" x="81.8946" y="-119.5" font-family="Helvetica,sans-Serif" font-size="10.00" fill="#000000">Optimizer/Optimizer.hpp</text>
</a>
</g>
</g>
<!-- Node1&#45;&gt;Node17 -->
<g id="edge4" class="edge">
<title>Node1&#45;&gt;Node17</title>
<path fill="none" stroke="#191970" d="M177.1254,-168.3733C158.7477,-159.4241 131.1634,-145.9917 110.4054,-135.8835"/>
<polygon fill="#191970" stroke="#191970" points="111.9289,-132.7325 101.4059,-131.5011 108.8642,-139.026 111.9289,-132.7325"/>
</g>
<!-- Node18 -->
<g id="node8" class="node">
<title>Node18</title>
<polygon fill="#ffffff" stroke="#bfbfbf" points="167.8946,-112.5 167.8946,-131.5 225.8946,-131.5 225.8946,-112.5 167.8946,-112.5"/>
<text text-anchor="middle" x="196.8946" y="-119.5" font-family="Helvetica,sans-Serif" font-size="10.00" fill="#000000">memory</text>
</g>
<!-- Node1&#45;&gt;Node18 -->
<g id="edge8" class="edge">
<title>Node1&#45;&gt;Node18</title>
<path fill="none" stroke="#191970" d="M196.8946,-168.2455C196.8946,-160.9382 196.8946,-150.6944 196.8946,-141.7046"/>
<polygon fill="#191970" stroke="#191970" points="200.3947,-141.6426 196.8946,-131.6427 193.3947,-141.6427 200.3947,-141.6426"/>
</g>
<!-- Node17&#45;&gt;Node2 -->
<g id="edge7" class="edge">
<title>Node17&#45;&gt;Node2</title>
<path fill="none" stroke="#191970" d="M81.8946,-112.2455C81.8946,-104.9382 81.8946,-94.6944 81.8946,-85.7046"/>
<polygon fill="#191970" stroke="#191970" points="85.3947,-85.6426 81.8946,-75.6427 78.3947,-85.6427 85.3947,-85.6426"/>
</g>
<!-- Node9 -->
<g id="node6" class="node">
<title>Node9</title>
<g id="a_node6"><a xlink:href="FitParameter_8hpp.html" target="_top" xlink:title="Core/FitParameter.hpp">
<polygon fill="#ffffff" stroke="#ff0000" points="317.8946,-56.5 317.8946,-75.5 441.8946,-75.5 441.8946,-56.5 317.8946,-56.5"/>
<text text-anchor="middle" x="379.8946" y="-63.5" font-family="Helvetica,sans-Serif" font-size="10.00" fill="#000000">Core/FitParameter.hpp</text>
</a>
</g>
</g>
<!-- Node17&#45;&gt;Node9 -->
<g id="edge5" class="edge">
<title>Node17&#45;&gt;Node9</title>
<path fill="none" stroke="#191970" d="M132.7841,-112.4369C184.4273,-102.7321 264.3773,-87.708 319.2696,-77.3926"/>
<polygon fill="#191970" stroke="#191970" points="320.0336,-80.8104 329.2151,-75.5237 318.7407,-73.9308 320.0336,-80.8104"/>
</g>
<!-- Node9&#45;&gt;Node10 -->
<g id="edge6" class="edge">
<title>Node9&#45;&gt;Node10</title>
<path fill="none" stroke="#191970" d="M387.733,-56.2455C394.0567,-48.3761 403.117,-37.101 410.7082,-27.6542"/>
<polygon fill="#191970" stroke="#191970" points="413.6104,-29.6302 417.1461,-19.6427 408.1538,-25.2454 413.6104,-29.6302"/>
</g>
<!-- Node19&#45;&gt;Node2 -->
<g id="edge12" class="edge">
<title>Node19&#45;&gt;Node2</title>
<path fill="none" stroke="#191970" d="M513.3892,-112.4686C413.8065,-101.7444 253.6374,-84.4954 158.9914,-74.3027"/>
<polygon fill="#191970" stroke="#191970" points="159.2299,-70.8083 148.9126,-73.2173 158.4803,-77.768 159.2299,-70.8083"/>
</g>
<!-- Node19&#45;&gt;Node9 -->
<g id="edge11" class="edge">
<title>Node19&#45;&gt;Node9</title>
<path fill="none" stroke="#191970" d="M563.9837,-112.4369C526.2296,-102.9133 468.1681,-88.2672 427.3682,-77.9753"/>
<polygon fill="#191970" stroke="#191970" points="428.2016,-74.576 417.6492,-75.5237 426.4894,-81.3633 428.2016,-74.576"/>
</g>
<!-- Node20 -->
<g id="node10" class="node">
<title>Node20</title>
<polygon fill="#ffffff" stroke="#bfbfbf" points="679.3946,-56.5 679.3946,-75.5 838.3946,-75.5 838.3946,-56.5 679.3946,-56.5"/>
<text text-anchor="middle" x="758.8946" y="-63.5" font-family="Helvetica,sans-Serif" font-size="10.00" fill="#000000">common/GGlobalDefines.hpp</text>
</g>
<!-- Node19&#45;&gt;Node20 -->
<g id="edge13" class="edge">
<title>Node19&#45;&gt;Node20</title>
<path fill="none" stroke="#191970" d="M628.8839,-112.3733C654.7646,-103.1419 694.0194,-89.1402 722.6235,-78.9375"/>
<polygon fill="#191970" stroke="#191970" points="724.0147,-82.1573 732.2576,-75.5011 721.6629,-75.5642 724.0147,-82.1573"/>
</g>
<!-- Node21 -->
<g id="node11" class="node">
<title>Node21</title>
<polygon fill="#ffffff" stroke="#bfbfbf" points="511.8946,-56.5 511.8946,-75.5 661.8946,-75.5 661.8946,-56.5 511.8946,-56.5"/>
<text text-anchor="middle" x="586.8946" y="-63.5" font-family="Helvetica,sans-Serif" font-size="10.00" fill="#000000">geneva/GParameterSet.hpp</text>
</g>
<!-- Node19&#45;&gt;Node21 -->
<g id="edge14" class="edge">
<title>Node19&#45;&gt;Node21</title>
<path fill="none" stroke="#191970" d="M599.2818,-112.2455C597.303,-104.8579 594.5202,-94.4689 592.0934,-85.4087"/>
<polygon fill="#191970" stroke="#191970" points="595.4458,-84.3966 589.4775,-75.6427 588.6841,-86.2078 595.4458,-84.3966"/>
</g>
</g>
</svg>
