<?xml version="1.0" encoding="UTF-8" standalone="no"?>
<!DOCTYPE svg PUBLIC "-//W3C//DTD SVG 1.1//EN"
 "http://www.w3.org/Graphics/SVG/1.1/DTD/svg11.dtd">
<!-- Generated by graphviz version 2.40.1 (20161225.0304)
 -->
<!-- Title: Optimizer/Geneva/GFMinIndividual.cpp Pages: 1 -->
<!--zoomable 207 -->
<svg id="main" version="1.1" xmlns="http://www.w3.org/2000/svg" xmlns:xlink="http://www.w3.org/1999/xlink" xml:space="preserve" onload="init(evt)">
<style type="text/css"><![CDATA[
.edge:hover path { stroke: red; }
.edge:hover polygon { stroke: red; fill: red; }
]]></style>
<script type="text/javascript"><![CDATA[
var edges = document.getElementsByTagName('g');
if (edges && edges.length) {
  for (var i=0;i<edges.length;i++) {
    if (edges[i].id.substr(0,4)=='edge') {
      edges[i].setAttribute('class','edge');
    }
  }
}
]]></script>
        <defs>
                <circle id="rim" cx="0" cy="0" r="7"/>
                <circle id="rim2" cx="0" cy="0" r="3.5"/>
                <g id="zoomPlus">
                        <use xlink:href="#rim" fill="#404040">
                                <set attributeName="fill" to="#808080" begin="zoomplus.mouseover" end="zoomplus.mouseout"/>
                        </use>
                        <path d="M-4,0h8M0,-4v8" fill="none" stroke="white" stroke-width="1.5" pointer-events="none"/>
                </g>
                <g id="zoomMin">
                        <use xlink:href="#rim" fill="#404040">
                                <set attributeName="fill" to="#808080" begin="zoomminus.mouseover" end="zoomminus.mouseout"/>
                        </use>
                        <path d="M-4,0h8" fill="none" stroke="white" stroke-width="1.5" pointer-events="none"/>
                </g>
                <g id="dirArrow">
                        <path fill="none" stroke="white" stroke-width="1.5" d="M0,-3.0v7 M-2.5,-0.5L0,-3.0L2.5,-0.5"/>
                </g>
               <g id="resetDef">
                       <use xlink:href="#rim2" fill="#404040">
                               <set attributeName="fill" to="#808080" begin="reset.mouseover" end="reset.mouseout"/>
                       </use>
               </g>
        </defs>

<script type="text/javascript">
var viewWidth = 1045;
var viewHeight = 207;
var sectionId = 'dynsection-0';
</script>
<script xlink:href="svgpan.js"/>
<svg id="graph" class="graph">
<g id="viewport">
<title>Optimizer/Geneva/GFMinIndividual.cpp</title>
<polygon fill="#ffffff" stroke="transparent" points="-4,4 -4,-203 1041,-203 1041,4 -4,4"/>
<!-- Node0 -->
<g id="node1" class="node">
<title>Node0</title>
<polygon fill="#bfbfbf" stroke="#000000" points="599,-179.5 599,-198.5 805,-198.5 805,-179.5 599,-179.5"/>
<text text-anchor="middle" x="702" y="-186.5" font-family="Helvetica,sans-Serif" font-size="10.00" fill="#000000">Optimizer/Geneva/GFMinIndividual.cpp</text>
</g>
<!-- Node1 -->
<g id="node2" class="node">
<title>Node1</title>
<g id="a_node2"><a xlink:href="GFMinIndividual_8hpp.html" target="_top" xlink:title="GFMinIndividual.hpp">
<polygon fill="#ffffff" stroke="#000000" points="316,-118 316,-137 432,-137 432,-118 316,-118"/>
<text text-anchor="middle" x="374" y="-125" font-family="Helvetica,sans-Serif" font-size="10.00" fill="#000000">GFMinIndividual.hpp</text>
</a>
</g>
</g>
<!-- Node0&#45;&gt;Node1 -->
<g id="edge1" class="edge">
<title>Node0&#45;&gt;Node1</title>
<path fill="none" stroke="#191970" d="M651.1099,-179.4581C592.7305,-168.512 497.0679,-150.5752 434.8139,-138.9026"/>
<polygon fill="#191970" stroke="#191970" points="435.2134,-135.4166 424.7396,-137.0137 433.9233,-142.2967 435.2134,-135.4166"/>
</g>
<!-- Node7 -->
<g id="node4" class="node">
<title>Node7</title>
<g id="a_node4"><a xlink:href="Logging_8hpp.html" target="_top" xlink:title="Core/Logging.hpp">
<polygon fill="#ffffff" stroke="#ff0000" points="304.5,-.5 304.5,-19.5 405.5,-19.5 405.5,-.5 304.5,-.5"/>
<text text-anchor="middle" x="355" y="-7.5" font-family="Helvetica,sans-Serif" font-size="10.00" fill="#000000">Core/Logging.hpp</text>
</a>
</g>
</g>
<!-- Node0&#45;&gt;Node7 -->
<g id="edge7" class="edge">
<title>Node0&#45;&gt;Node7</title>
<path fill="none" stroke="#191970" d="M693.7538,-179.2172C686.4032,-170.1972 675.6541,-156.2402 668,-143 646.8825,-106.4706 663.2718,-81.9487 630,-56 597.4843,-30.6411 486.4486,-18.6618 415.8062,-13.4852"/>
<polygon fill="#191970" stroke="#191970" points="415.9128,-9.984 405.6908,-12.77 415.4191,-16.9666 415.9128,-9.984"/>
</g>
<!-- Node15 -->
<g id="node8" class="node">
<title>Node15</title>
<polygon fill="#ffffff" stroke="#bfbfbf" points="677,-112.5 677,-142.5 833,-142.5 833,-112.5 677,-112.5"/>
<text text-anchor="start" x="685" y="-130.5" font-family="Helvetica,sans-Serif" font-size="10.00" fill="#000000">geneva/GConstrainedDouble</text>
<text text-anchor="middle" x="755" y="-119.5" font-family="Helvetica,sans-Serif" font-size="10.00" fill="#000000">Object.hpp</text>
</g>
<!-- Node0&#45;&gt;Node15 -->
<g id="edge8" class="edge">
<title>Node0&#45;&gt;Node15</title>
<path fill="none" stroke="#191970" d="M710.2813,-179.3906C716.9892,-171.6068 726.7159,-160.3202 735.3859,-150.2597"/>
<polygon fill="#191970" stroke="#191970" points="738.1578,-152.4046 742.0347,-142.5446 732.8552,-147.8349 738.1578,-152.4046"/>
</g>
<!-- Node16 -->
<g id="node9" class="node">
<title>Node16</title>
<polygon fill="#ffffff" stroke="#bfbfbf" points="851,-118 851,-137 1037,-137 1037,-118 851,-118"/>
<text text-anchor="middle" x="944" y="-125" font-family="Helvetica,sans-Serif" font-size="10.00" fill="#000000">geneva/GDoubleGaussAdaptor.hpp</text>
</g>
<!-- Node0&#45;&gt;Node16 -->
<g id="edge9" class="edge">
<title>Node0&#45;&gt;Node16</title>
<path fill="none" stroke="#191970" d="M739.547,-179.4581C781.8472,-168.7082 850.6777,-151.2162 896.637,-139.5365"/>
<polygon fill="#191970" stroke="#191970" points="897.5351,-142.9196 906.3649,-137.0643 895.8109,-136.1352 897.5351,-142.9196"/>
</g>
<!-- Node2 -->
<g id="node3" class="node">
<title>Node2</title>
<g id="a_node3"><a xlink:href="FitParameter_8hpp.html" target="_top" xlink:title="Core/FitParameter.hpp">
<polygon fill="#ffffff" stroke="#ff0000" points="0,-56.5 0,-75.5 124,-75.5 124,-56.5 0,-56.5"/>
<text text-anchor="middle" x="62" y="-63.5" font-family="Helvetica,sans-Serif" font-size="10.00" fill="#000000">Core/FitParameter.hpp</text>
</a>
</g>
</g>
<!-- Node1&#45;&gt;Node2 -->
<g id="edge2" class="edge">
<title>Node1&#45;&gt;Node2</title>
<path fill="none" stroke="#191970" d="M325.5923,-117.9581C270.1753,-107.0345 179.4397,-89.1492 120.214,-77.4749"/>
<polygon fill="#191970" stroke="#191970" points="120.7526,-74.0138 110.2645,-75.5137 119.3988,-80.8816 120.7526,-74.0138"/>
</g>
<!-- Node12 -->
<g id="node5" class="node">
<title>Node12</title>
<g id="a_node5"><a xlink:href="Estimator_8hpp.html" target="_top" xlink:title="Estimator/Estimator.hpp">
<polygon fill="#ffffff" stroke="#ff0000" points="142,-56.5 142,-75.5 276,-75.5 276,-56.5 142,-56.5"/>
<text text-anchor="middle" x="209" y="-63.5" font-family="Helvetica,sans-Serif" font-size="10.00" fill="#000000">Estimator/Estimator.hpp</text>
</a>
</g>
</g>
<!-- Node1&#45;&gt;Node12 -->
<g id="edge4" class="edge">
<title>Node1&#45;&gt;Node12</title>
<path fill="none" stroke="#191970" d="M348.2188,-117.8906C320.248,-107.4652 275.4181,-90.7559 244.214,-79.1252"/>
<polygon fill="#191970" stroke="#191970" points="245.1929,-75.7549 234.6002,-75.5419 242.7481,-82.3141 245.1929,-75.7549"/>
</g>
<!-- Node13 -->
<g id="node6" class="node">
<title>Node13</title>
<polygon fill="#ffffff" stroke="#bfbfbf" points="294.5,-56.5 294.5,-75.5 453.5,-75.5 453.5,-56.5 294.5,-56.5"/>
<text text-anchor="middle" x="374" y="-63.5" font-family="Helvetica,sans-Serif" font-size="10.00" fill="#000000">common/GGlobalDefines.hpp</text>
</g>
<!-- Node1&#45;&gt;Node13 -->
<g id="edge5" class="edge">
<title>Node1&#45;&gt;Node13</title>
<path fill="none" stroke="#191970" d="M374,-117.8906C374,-109.3657 374,-96.6392 374,-85.9235"/>
<polygon fill="#191970" stroke="#191970" points="377.5001,-85.7448 374,-75.7449 370.5001,-85.7449 377.5001,-85.7448"/>
</g>
<!-- Node14 -->
<g id="node7" class="node">
<title>Node14</title>
<polygon fill="#ffffff" stroke="#bfbfbf" points="471,-56.5 471,-75.5 621,-75.5 621,-56.5 471,-56.5"/>
<text text-anchor="middle" x="546" y="-63.5" font-family="Helvetica,sans-Serif" font-size="10.00" fill="#000000">geneva/GParameterSet.hpp</text>
</g>
<!-- Node1&#45;&gt;Node14 -->
<g id="edge6" class="edge">
<title>Node1&#45;&gt;Node14</title>
<path fill="none" stroke="#191970" d="M400.875,-117.8906C430.1586,-107.42 477.169,-90.6111 509.7137,-78.9745"/>
<polygon fill="#191970" stroke="#191970" points="511.0759,-82.2045 519.3137,-75.5419 508.7191,-75.6131 511.0759,-82.2045"/>
</g>
<!-- Node2&#45;&gt;Node7 -->
<g id="edge3" class="edge">
<title>Node2&#45;&gt;Node7</title>
<path fill="none" stroke="#191970" d="M112.0356,-56.4369C162.707,-46.7522 241.0948,-31.7703 295.0559,-21.4569"/>
<polygon fill="#191970" stroke="#191970" points="296.0057,-24.8388 305.1708,-19.5237 294.6915,-17.9633 296.0057,-24.8388"/>
</g>
</g>
</svg>
        <g id="navigator" transform="translate(0 0)" fill="#404254">
                <rect fill="#f2f5e9" fill-opacity="0.5" stroke="#606060" stroke-width=".5" x="0" y="0" width="60" height="60"/>
                <use id="zoomplus" xlink:href="#zoomPlus" x="17" y="9" onmousedown="handleZoom(evt,'in')"/>
                <use id="zoomminus" xlink:href="#zoomMin" x="42" y="9" onmousedown="handleZoom(evt,'out')"/>
                <use id="reset" xlink:href="#resetDef" x="30" y="36" onmousedown="handleReset()"/>
                <g id="arrowUp" xlink:href="#dirArrow" transform="translate(30 24)" onmousedown="handlePan(0,-1)">
                  <use xlink:href="#rim" fill="#404040">
                        <set attributeName="fill" to="#808080" begin="arrowUp.mouseover" end="arrowUp.mouseout"/>
                  </use>
                  <path fill="none" stroke="white" stroke-width="1.5" d="M0,-3.0v7 M-2.5,-0.5L0,-3.0L2.5,-0.5"/>
                </g>
                <g id="arrowRight" xlink:href="#dirArrow" transform="rotate(90) translate(36 -43)" onmousedown="handlePan(1,0)">
                  <use xlink:href="#rim" fill="#404040">
                        <set attributeName="fill" to="#808080" begin="arrowRight.mouseover" end="arrowRight.mouseout"/>
                  </use>
                  <path fill="none" stroke="white" stroke-width="1.5" d="M0,-3.0v7 M-2.5,-0.5L0,-3.0L2.5,-0.5"/>
                </g>
                <g id="arrowDown" xlink:href="#dirArrow" transform="rotate(180) translate(-30 -48)" onmousedown="handlePan(0,1)">
                  <use xlink:href="#rim" fill="#404040">
                        <set attributeName="fill" to="#808080" begin="arrowDown.mouseover" end="arrowDown.mouseout"/>
                  </use>
                  <path fill="none" stroke="white" stroke-width="1.5" d="M0,-3.0v7 M-2.5,-0.5L0,-3.0L2.5,-0.5"/>
                </g>
                <g id="arrowLeft" xlink:href="#dirArrow" transform="rotate(270) translate(-36 17)" onmousedown="handlePan(-1,0)">
                  <use xlink:href="#rim" fill="#404040">
                        <set attributeName="fill" to="#808080" begin="arrowLeft.mouseover" end="arrowLeft.mouseout"/>
                  </use>
                  <path fill="none" stroke="white" stroke-width="1.5" d="M0,-3.0v7 M-2.5,-0.5L0,-3.0L2.5,-0.5"/>
                </g>
        </g>
        <svg viewBox="0 0 15 15" width="100%" height="30px" preserveAspectRatio="xMaxYMin meet">
         <g id="arrow_out" transform="scale(0.3 0.3)">
          <a xlink:href="GFMinIndividual_8cpp__incl_org.svg" target="_base">
           <rect id="button" ry="5" rx="5" y="6" x="6" height="38" width="38"
                fill="#f2f5e9" fill-opacity="0.5" stroke="#606060" stroke-width="1.0"/>
           <path id="arrow"
             d="M 11.500037,31.436501 C 11.940474,20.09759 22.043105,11.32322 32.158766,21.979434 L 37.068811,17.246167 C 37.068811,17.246167 37.088388,32 37.088388,32 L 22.160133,31.978069 C 22.160133,31.978069 26.997745,27.140456 26.997745,27.140456 C 18.528582,18.264221 13.291696,25.230495 11.500037,31.436501 z"
             style="fill:#404040;"/>
          </a>
         </g>
        </svg>
</svg>
