<?xml version="1.0" encoding="UTF-8" standalone="no"?>
<!DOCTYPE svg PUBLIC "-//W3C//DTD SVG 1.1//EN"
 "http://www.w3.org/Graphics/SVG/1.1/DTD/svg11.dtd">
<!-- Generated by graphviz version 2.38.0 (20140413.2041)
 -->
<!-- Title: /home/travis/build/ComPWA/ComPWA/ThirdParty/parallelstl/include/pstl/internal/glue_memory_defs.h Pages: 1 -->
<svg width="167pt" height="173pt"
 viewBox="0.00 0.00 167.00 173.00" xmlns="http://www.w3.org/2000/svg" xmlns:xlink="http://www.w3.org/1999/xlink">
<g id="graph0" class="graph" transform="scale(1 1) rotate(0) translate(4 169)">
<title>/home/travis/build/ComPWA/ComPWA/ThirdParty/parallelstl/include/pstl/internal/glue_memory_defs.h</title>
<polygon fill="white" stroke="none" points="-4,4 -4,-169 163,-169 163,4 -4,4"/>
<!-- Node1 -->
<g id="node1" class="node"><title>Node1</title>
<polygon fill="#bfbfbf" stroke="black" points="-1.42109e-14,-112.5 -1.42109e-14,-164.5 159,-164.5 159,-112.5 -1.42109e-14,-112.5"/>
<text text-anchor="start" x="8" y="-152.5" font-family="Helvetica,sans-Serif" font-size="10.00">/home/travis/build</text>
<text text-anchor="start" x="8" y="-141.5" font-family="Helvetica,sans-Serif" font-size="10.00">/ComPWA/ComPWA/ThirdParty</text>
<text text-anchor="start" x="8" y="-130.5" font-family="Helvetica,sans-Serif" font-size="10.00">/parallelstl/include/pstl</text>
<text text-anchor="middle" x="79.5" y="-119.5" font-family="Helvetica,sans-Serif" font-size="10.00">/internal/glue_memory_defs.h</text>
</g>
<!-- Node2 -->
<g id="node2" class="node"><title>Node2</title>
<g id="a_node2"><a xlink:href="execution__defs_8h.html" target="_top" xlink:title="execution_defs.h">
<polygon fill="white" stroke="black" points="30.5,-56.5 30.5,-75.5 128.5,-75.5 128.5,-56.5 30.5,-56.5"/>
<text text-anchor="middle" x="79.5" y="-63.5" font-family="Helvetica,sans-Serif" font-size="10.00">execution_defs.h</text>
</a>
</g>
</g>
<!-- Node1&#45;&gt;Node2 -->
<g id="edge1" class="edge"><title>Node1&#45;&gt;Node2</title>
<path fill="none" stroke="midnightblue" d="M79.5,-112.446C79.5,-103.73 79.5,-94.1045 79.5,-85.9641"/>
<polygon fill="midnightblue" stroke="midnightblue" points="83.0001,-85.6954 79.5,-75.6955 76.0001,-85.6955 83.0001,-85.6954"/>
</g>
<!-- Node3 -->
<g id="node3" class="node"><title>Node3</title>
<polygon fill="white" stroke="#bfbfbf" points="45.5,-0.5 45.5,-19.5 113.5,-19.5 113.5,-0.5 45.5,-0.5"/>
<text text-anchor="middle" x="79.5" y="-7.5" font-family="Helvetica,sans-Serif" font-size="10.00">type_traits</text>
</g>
<!-- Node2&#45;&gt;Node3 -->
<g id="edge2" class="edge"><title>Node2&#45;&gt;Node3</title>
<path fill="none" stroke="midnightblue" d="M79.5,-56.083C79.5,-49.0059 79.5,-38.8611 79.5,-29.9865"/>
<polygon fill="midnightblue" stroke="midnightblue" points="83.0001,-29.751 79.5,-19.7511 76.0001,-29.7511 83.0001,-29.751"/>
</g>
</g>
</svg>
