<?xml version="1.0" encoding="UTF-8" standalone="no"?>
<!DOCTYPE svg PUBLIC "-//W3C//DTD SVG 1.1//EN"
 "http://www.w3.org/Graphics/SVG/1.1/DTD/svg11.dtd">
<!-- Generated by graphviz version 2.38.0 (20140413.2041)
 -->
<!-- Title: Physics/HelicityFormalism/HelicityKinematics.cpp Pages: 1 -->
<svg width="959pt" height="341pt"
 viewBox="0.00 0.00 959.19 341.00" xmlns="http://www.w3.org/2000/svg" xmlns:xlink="http://www.w3.org/1999/xlink">
<g id="graph0" class="graph" transform="scale(1 1) rotate(0) translate(4 337)">
<title>Physics/HelicityFormalism/HelicityKinematics.cpp</title>
<polygon fill="white" stroke="none" points="-4,4 -4,-337 955.187,-337 955.187,4 -4,4"/>
<!-- Node1 -->
<g id="node1" class="node"><title>Node1</title>
<polygon fill="#bfbfbf" stroke="black" points="233,-302.5 233,-332.5 367,-332.5 367,-302.5 233,-302.5"/>
<text text-anchor="start" x="241" y="-320.5" font-family="Helvetica,sans-Serif" font-size="10.00">Physics/HelicityFormalism</text>
<text text-anchor="middle" x="300" y="-309.5" font-family="Helvetica,sans-Serif" font-size="10.00">/HelicityKinematics.cpp</text>
</g>
<!-- Node2 -->
<g id="node2" class="node"><title>Node2</title>
<polygon fill="white" stroke="#bfbfbf" points="0,-0.5 0,-19.5 56,-19.5 56,-0.5 0,-0.5"/>
<text text-anchor="middle" x="28" y="-7.5" font-family="Helvetica,sans-Serif" font-size="10.00">algorithm</text>
</g>
<!-- Node1&#45;&gt;Node2 -->
<g id="edge1" class="edge"><title>Node1&#45;&gt;Node2</title>
<path fill="none" stroke="midnightblue" d="M232.977,-316.154C145.38,-311.76 3,-289.339 3,-190 3,-190 3,-190 3,-126.5 3,-91.4137 14.1566,-51.6613 21.5639,-29.1348"/>
<polygon fill="midnightblue" stroke="midnightblue" points="24.9154,-30.1505 24.8337,-19.556 18.2908,-27.889 24.9154,-30.1505"/>
</g>
<!-- Node3 -->
<g id="node3" class="node"><title>Node3</title>
<polygon fill="white" stroke="#bfbfbf" points="87,-0.5 87,-19.5 131,-19.5 131,-0.5 87,-0.5"/>
<text text-anchor="middle" x="109" y="-7.5" font-family="Helvetica,sans-Serif" font-size="10.00">cmath</text>
</g>
<!-- Node1&#45;&gt;Node3 -->
<g id="edge2" class="edge"><title>Node1&#45;&gt;Node3</title>
<path fill="none" stroke="midnightblue" d="M232.813,-307.858C176.214,-299.413 100.775,-285.052 77,-266 47.8337,-242.628 41,-227.376 41,-190 41,-190 41,-190 41,-126.5 41,-86.237 72.0655,-47.6361 92.2019,-26.8445"/>
<polygon fill="midnightblue" stroke="midnightblue" points="94.9211,-29.0765 99.5449,-19.5439 89.9857,-24.1125 94.9211,-29.0765"/>
</g>
<!-- Node4 -->
<g id="node4" class="node"><title>Node4</title>
<polygon fill="white" stroke="#bfbfbf" points="156.5,-0.5 156.5,-19.5 207.5,-19.5 207.5,-0.5 156.5,-0.5"/>
<text text-anchor="middle" x="182" y="-7.5" font-family="Helvetica,sans-Serif" font-size="10.00">numeric</text>
</g>
<!-- Node1&#45;&gt;Node4 -->
<g id="edge3" class="edge"><title>Node1&#45;&gt;Node4</title>
<path fill="none" stroke="midnightblue" d="M232.838,-307.262C181.692,-298.885 116.947,-284.947 98,-266 73.3804,-241.38 79,-224.817 79,-190 79,-190 79,-190 79,-126.5 79,-91.3179 91.6501,-82.3165 115,-56 126.409,-43.141 142.272,-32.2717 155.698,-24.4385"/>
<polygon fill="midnightblue" stroke="midnightblue" points="157.494,-27.4443 164.519,-19.5134 154.082,-21.3323 157.494,-27.4443"/>
</g>
<!-- Node5 -->
<g id="node5" class="node"><title>Node5</title>
<polygon fill="white" stroke="#bfbfbf" points="107,-241 107,-260 159,-260 159,-241 107,-241"/>
<text text-anchor="middle" x="133" y="-248" font-family="Helvetica,sans-Serif" font-size="10.00">sstream</text>
</g>
<!-- Node1&#45;&gt;Node5 -->
<g id="edge4" class="edge"><title>Node1&#45;&gt;Node5</title>
<path fill="none" stroke="midnightblue" d="M263.763,-302.396C234.072,-290.84 192.494,-274.656 164.249,-263.663"/>
<polygon fill="midnightblue" stroke="midnightblue" points="165.445,-260.373 154.856,-260.007 162.906,-266.896 165.445,-260.373"/>
</g>
<!-- Node6 -->
<g id="node6" class="node"><title>Node6</title>
<polygon fill="white" stroke="#bfbfbf" points="238.5,-0.5 238.5,-19.5 297.5,-19.5 297.5,-0.5 238.5,-0.5"/>
<text text-anchor="middle" x="268" y="-7.5" font-family="Helvetica,sans-Serif" font-size="10.00">stdexcept</text>
</g>
<!-- Node1&#45;&gt;Node6 -->
<g id="edge5" class="edge"><title>Node1&#45;&gt;Node6</title>
<path fill="none" stroke="midnightblue" d="M296.426,-302.187C290.922,-278.852 281,-231.085 281,-190 281,-190 281,-190 281,-126.5 281,-92.1481 275.251,-52.4078 271.399,-29.6366"/>
<polygon fill="midnightblue" stroke="midnightblue" points="274.824,-28.8997 269.646,-19.6559 267.929,-30.1106 274.824,-28.8997"/>
</g>
<!-- Node7 -->
<g id="node7" class="node"><title>Node7</title>
<polygon fill="white" stroke="#bfbfbf" points="215,-241 215,-260 253,-260 253,-241 215,-241"/>
<text text-anchor="middle" x="234" y="-248" font-family="Helvetica,sans-Serif" font-size="10.00">tuple</text>
</g>
<!-- Node1&#45;&gt;Node7 -->
<g id="edge6" class="edge"><title>Node1&#45;&gt;Node7</title>
<path fill="none" stroke="midnightblue" d="M285.679,-302.396C275.184,-292.06 260.932,-278.024 250.052,-267.309"/>
<polygon fill="midnightblue" stroke="midnightblue" points="252.409,-264.718 242.828,-260.195 247.497,-269.705 252.409,-264.718"/>
</g>
<!-- Node8 -->
<g id="node8" class="node"><title>Node8</title>
<g id="a_node8"><a xlink:href="Event_8hpp.html" target="_top" xlink:title="Core/Event.hpp">
<polygon fill="white" stroke="black" points="627.5,-118 627.5,-137 712.5,-137 712.5,-118 627.5,-118"/>
<text text-anchor="middle" x="670" y="-125" font-family="Helvetica,sans-Serif" font-size="10.00">Core/Event.hpp</text>
</a>
</g>
</g>
<!-- Node1&#45;&gt;Node8 -->
<g id="edge7" class="edge"><title>Node1&#45;&gt;Node8</title>
<path fill="none" stroke="midnightblue" d="M320.173,-302.321C358.875,-275.571 446.83,-216.943 527,-179 560.848,-162.98 601.226,-149.173 630.43,-140.065"/>
<polygon fill="midnightblue" stroke="midnightblue" points="631.733,-143.326 640.264,-137.043 629.677,-136.634 631.733,-143.326"/>
</g>
<!-- Node9 -->
<g id="node9" class="node"><title>Node9</title>
<g id="a_node9"><a xlink:href="FourMomentum_8hpp.html" target="_top" xlink:title="Core/FourMomentum.hpp">
<polygon fill="white" stroke="red" points="124,-56.5 124,-75.5 252,-75.5 252,-56.5 124,-56.5"/>
<text text-anchor="middle" x="188" y="-63.5" font-family="Helvetica,sans-Serif" font-size="10.00">Core/FourMomentum.hpp</text>
</a>
</g>
</g>
<!-- Node1&#45;&gt;Node9 -->
<g id="edge21" class="edge"><title>Node1&#45;&gt;Node9</title>
<path fill="none" stroke="midnightblue" d="M253.625,-302.333C235.828,-294.502 217.134,-282.846 206,-266 168.732,-209.612 177.767,-123.781 184.21,-85.9902"/>
<polygon fill="midnightblue" stroke="midnightblue" points="187.701,-86.359 186.073,-75.8901 180.817,-85.0897 187.701,-86.359"/>
</g>
<!-- Node11 -->
<g id="node11" class="node"><title>Node11</title>
<g id="a_node11"><a xlink:href="Properties_8hpp.html" target="_top" xlink:title="Core/Properties.hpp">
<polygon fill="white" stroke="red" points="410,-56.5 410,-75.5 514,-75.5 514,-56.5 410,-56.5"/>
<text text-anchor="middle" x="462" y="-63.5" font-family="Helvetica,sans-Serif" font-size="10.00">Core/Properties.hpp</text>
</a>
</g>
</g>
<!-- Node1&#45;&gt;Node11 -->
<g id="edge22" class="edge"><title>Node1&#45;&gt;Node11</title>
<path fill="none" stroke="midnightblue" d="M311.079,-302.166C318.174,-292.415 327.12,-278.973 333,-266 362.336,-201.275 331.289,-167.234 376,-112 388.054,-97.1097 406.362,-86.5699 422.993,-79.4533"/>
<polygon fill="midnightblue" stroke="midnightblue" points="424.537,-82.6054 432.531,-75.6516 421.946,-76.1029 424.537,-82.6054"/>
</g>
<!-- Node12 -->
<g id="node12" class="node"><title>Node12</title>
<g id="a_node12"><a xlink:href="Exceptions_8hpp.html" target="_top" xlink:title="ComPWA exceptions. ">
<polygon fill="white" stroke="red" points="362,-0.5 362,-19.5 470,-19.5 470,-0.5 362,-0.5"/>
<text text-anchor="middle" x="416" y="-7.5" font-family="Helvetica,sans-Serif" font-size="10.00">Core/Exceptions.hpp</text>
</a>
</g>
</g>
<!-- Node1&#45;&gt;Node12 -->
<g id="edge19" class="edge"><title>Node1&#45;&gt;Node12</title>
<path fill="none" stroke="midnightblue" d="M303.574,-302.187C309.078,-278.852 319,-231.085 319,-190 319,-190 319,-190 319,-126.5 319,-81.1336 363.426,-44.2722 392.147,-25.182"/>
<polygon fill="midnightblue" stroke="midnightblue" points="394.305,-27.9565 400.844,-19.6201 390.534,-22.0593 394.305,-27.9565"/>
</g>
<!-- Node14 -->
<g id="node14" class="node"><title>Node14</title>
<g id="a_node14"><a xlink:href="Logging_8hpp.html" target="_top" xlink:title="Core/Logging.hpp">
<polygon fill="white" stroke="red" points="462.5,-241 462.5,-260 555.5,-260 555.5,-241 462.5,-241"/>
<text text-anchor="middle" x="509" y="-248" font-family="Helvetica,sans-Serif" font-size="10.00">Core/Logging.hpp</text>
</a>
</g>
</g>
<!-- Node1&#45;&gt;Node14 -->
<g id="edge20" class="edge"><title>Node1&#45;&gt;Node14</title>
<path fill="none" stroke="midnightblue" d="M345.093,-302.476C382.882,-290.723 436.193,-274.143 471.636,-263.12"/>
<polygon fill="midnightblue" stroke="midnightblue" points="473.068,-266.341 481.577,-260.029 470.989,-259.656 473.068,-266.341"/>
</g>
<!-- Node15 -->
<g id="node15" class="node"><title>Node15</title>
<g id="a_node15"><a xlink:href="DataSet_8hpp.html" target="_top" xlink:title="Data/DataSet.hpp">
<polygon fill="white" stroke="black" points="536.5,-179.5 536.5,-198.5 631.5,-198.5 631.5,-179.5 536.5,-179.5"/>
<text text-anchor="middle" x="584" y="-186.5" font-family="Helvetica,sans-Serif" font-size="10.00">Data/DataSet.hpp</text>
</a>
</g>
</g>
<!-- Node1&#45;&gt;Node15 -->
<g id="edge23" class="edge"><title>Node1&#45;&gt;Node15</title>
<path fill="none" stroke="midnightblue" d="M367.26,-311.712C435.86,-305.456 536.077,-292.078 564,-266 579.705,-251.333 583.656,-225.946 584.371,-208.582"/>
<polygon fill="midnightblue" stroke="midnightblue" points="587.871,-208.555 584.465,-198.523 580.872,-208.489 587.871,-208.555"/>
</g>
<!-- Node18 -->
<g id="node18" class="node"><title>Node18</title>
<g id="a_node18"><a xlink:href="HelicityKinematics_8hpp.html" target="_top" xlink:title="Physics/HelicityFormalism\l/HelicityKinematics.hpp">
<polygon fill="white" stroke="black" points="624,-235.5 624,-265.5 758,-265.5 758,-235.5 624,-235.5"/>
<text text-anchor="start" x="632" y="-253.5" font-family="Helvetica,sans-Serif" font-size="10.00">Physics/HelicityFormalism</text>
<text text-anchor="middle" x="691" y="-242.5" font-family="Helvetica,sans-Serif" font-size="10.00">/HelicityKinematics.hpp</text>
</a>
</g>
</g>
<!-- Node1&#45;&gt;Node18 -->
<g id="edge29" class="edge"><title>Node1&#45;&gt;Node18</title>
<path fill="none" stroke="midnightblue" d="M367.215,-305.326C435.72,-293.938 541.849,-276.295 613.768,-264.339"/>
<polygon fill="midnightblue" stroke="midnightblue" points="614.391,-267.784 623.681,-262.691 613.243,-260.878 614.391,-267.784"/>
</g>
<!-- Node22 -->
<g id="node22" class="node"><title>Node22</title>
<polygon fill="white" stroke="#bfbfbf" points="776.5,-241 776.5,-260 861.5,-260 861.5,-241 776.5,-241"/>
<text text-anchor="middle" x="819" y="-248" font-family="Helvetica,sans-Serif" font-size="10.00">qft++/Vector4.h</text>
</g>
<!-- Node1&#45;&gt;Node22 -->
<g id="edge40" class="edge"><title>Node1&#45;&gt;Node22</title>
<path fill="none" stroke="midnightblue" d="M367.02,-312.722C458.177,-306.795 626.052,-293.082 767,-266 771.809,-265.076 776.821,-263.925 781.753,-262.679"/>
<polygon fill="midnightblue" stroke="midnightblue" points="782.916,-265.991 791.674,-260.027 781.109,-259.228 782.916,-265.991"/>
</g>
<!-- Node8&#45;&gt;Node9 -->
<g id="edge8" class="edge"><title>Node8&#45;&gt;Node9</title>
<path fill="none" stroke="midnightblue" d="M642.677,-117.955C634.778,-115.738 626.102,-113.542 618,-112 494.533,-88.4974 348.619,-76.4881 262.443,-70.9919"/>
<polygon fill="midnightblue" stroke="midnightblue" points="262.435,-67.4846 252.236,-70.3536 261.998,-74.4709 262.435,-67.4846"/>
</g>
<!-- Node10 -->
<g id="node10" class="node"><title>Node10</title>
<polygon fill="white" stroke="#bfbfbf" points="702,-0.5 702,-19.5 746,-19.5 746,-0.5 702,-0.5"/>
<text text-anchor="middle" x="724" y="-7.5" font-family="Helvetica,sans-Serif" font-size="10.00">vector</text>
</g>
<!-- Node8&#45;&gt;Node10 -->
<g id="edge18" class="edge"><title>Node8&#45;&gt;Node10</title>
<path fill="none" stroke="midnightblue" d="M668.275,-117.735C665.99,-103.864 663.293,-76.3443 673,-56 678.959,-43.511 690.149,-33.0264 700.533,-25.3281"/>
<polygon fill="midnightblue" stroke="midnightblue" points="702.688,-28.0932 708.932,-19.5341 698.713,-22.331 702.688,-28.0932"/>
</g>
<!-- Node8&#45;&gt;Node11 -->
<g id="edge14" class="edge"><title>Node8&#45;&gt;Node11</title>
<path fill="none" stroke="midnightblue" d="M640.199,-117.975C603.747,-107.548 541.92,-89.8618 501.526,-78.3066"/>
<polygon fill="midnightblue" stroke="midnightblue" points="502.323,-74.8944 491.746,-75.5091 500.398,-81.6244 502.323,-74.8944"/>
</g>
<!-- Node13 -->
<g id="node13" class="node"><title>Node13</title>
<polygon fill="white" stroke="#bfbfbf" points="682.5,-56.5 682.5,-75.5 765.5,-75.5 765.5,-56.5 682.5,-56.5"/>
<text text-anchor="middle" x="724" y="-63.5" font-family="Helvetica,sans-Serif" font-size="10.00">unordered_map</text>
</g>
<!-- Node8&#45;&gt;Node13 -->
<g id="edge17" class="edge"><title>Node8&#45;&gt;Node13</title>
<path fill="none" stroke="midnightblue" d="M677.737,-117.975C685.997,-108.873 699.277,-94.241 709.494,-82.983"/>
<polygon fill="midnightblue" stroke="midnightblue" points="712.149,-85.2663 716.277,-75.5091 706.965,-80.5619 712.149,-85.2663"/>
</g>
<!-- Node9&#45;&gt;Node2 -->
<g id="edge9" class="edge"><title>Node9&#45;&gt;Node2</title>
<path fill="none" stroke="midnightblue" d="M162.648,-56.4435C135.731,-47.3591 93.0037,-32.9388 62.913,-22.7831"/>
<polygon fill="midnightblue" stroke="midnightblue" points="63.828,-19.3981 53.2339,-19.5164 61.5895,-26.0305 63.828,-19.3981"/>
</g>
<!-- Node9&#45;&gt;Node3 -->
<g id="edge10" class="edge"><title>Node9&#45;&gt;Node3</title>
<path fill="none" stroke="midnightblue" d="M175.307,-56.324C163.099,-47.979 144.422,-35.2122 129.997,-25.3524"/>
<polygon fill="midnightblue" stroke="midnightblue" points="131.892,-22.4082 121.661,-19.6545 127.942,-28.1871 131.892,-22.4082"/>
</g>
<!-- Node9&#45;&gt;Node4 -->
<g id="edge11" class="edge"><title>Node9&#45;&gt;Node4</title>
<path fill="none" stroke="midnightblue" d="M187.009,-56.083C186.214,-48.9272 185.071,-38.6353 184.077,-29.6911"/>
<polygon fill="midnightblue" stroke="midnightblue" points="187.555,-29.3034 182.972,-19.7511 180.598,-30.0765 187.555,-29.3034"/>
</g>
<!-- Node9&#45;&gt;Node6 -->
<g id="edge12" class="edge"><title>Node9&#45;&gt;Node6</title>
<path fill="none" stroke="midnightblue" d="M200.853,-56.324C213.216,-47.979 232.13,-35.2122 246.737,-25.3524"/>
<polygon fill="midnightblue" stroke="midnightblue" points="248.848,-28.1503 255.179,-19.6545 244.932,-22.3483 248.848,-28.1503"/>
</g>
<!-- Node9&#45;&gt;Node10 -->
<g id="edge13" class="edge"><title>Node9&#45;&gt;Node10</title>
<path fill="none" stroke="midnightblue" d="M252.122,-58.54C367.357,-46.9304 605.493,-22.9391 691.839,-14.2401"/>
<polygon fill="midnightblue" stroke="midnightblue" points="692.232,-17.7183 701.831,-13.2335 691.53,-10.7536 692.232,-17.7183"/>
</g>
<!-- Node11&#45;&gt;Node10 -->
<g id="edge16" class="edge"><title>Node11&#45;&gt;Node10</title>
<path fill="none" stroke="midnightblue" d="M503.515,-56.4435C555.831,-45.6607 644.622,-27.3603 691.992,-17.5971"/>
<polygon fill="midnightblue" stroke="midnightblue" points="692.908,-20.982 701.995,-15.5354 691.494,-14.1261 692.908,-20.982"/>
</g>
<!-- Node11&#45;&gt;Node12 -->
<g id="edge15" class="edge"><title>Node11&#45;&gt;Node12</title>
<path fill="none" stroke="midnightblue" d="M454.404,-56.083C447.773,-48.2982 437.979,-36.8015 429.942,-27.3665"/>
<polygon fill="midnightblue" stroke="midnightblue" points="432.604,-25.0939 423.455,-19.7511 427.275,-29.6332 432.604,-25.0939"/>
</g>
<!-- Node15&#45;&gt;Node8 -->
<g id="edge25" class="edge"><title>Node15&#45;&gt;Node8</title>
<path fill="none" stroke="midnightblue" d="M596.322,-179.475C610.116,-169.931 632.699,-154.307 649.232,-142.868"/>
<polygon fill="midnightblue" stroke="midnightblue" points="651.469,-145.577 657.701,-137.009 647.486,-139.82 651.469,-145.577"/>
</g>
<!-- Node16 -->
<g id="node16" class="node"><title>Node16</title>
<polygon fill="white" stroke="#bfbfbf" points="557,-118 557,-137 609,-137 609,-118 557,-118"/>
<text text-anchor="middle" x="583" y="-125" font-family="Helvetica,sans-Serif" font-size="10.00">memory</text>
</g>
<!-- Node15&#45;&gt;Node16 -->
<g id="edge24" class="edge"><title>Node15&#45;&gt;Node16</title>
<path fill="none" stroke="midnightblue" d="M583.857,-179.475C583.716,-171.08 583.495,-157.981 583.314,-147.163"/>
<polygon fill="midnightblue" stroke="midnightblue" points="586.811,-146.949 583.143,-137.009 579.812,-147.067 586.811,-146.949"/>
</g>
<!-- Node17 -->
<g id="node17" class="node"><title>Node17</title>
<g id="a_node17"><a xlink:href="Function_8hpp.html" target="_top" xlink:title="Core/Function.hpp">
<polygon fill="white" stroke="red" points="730.5,-118 730.5,-137 827.5,-137 827.5,-118 730.5,-118"/>
<text text-anchor="middle" x="779" y="-125" font-family="Helvetica,sans-Serif" font-size="10.00">Core/Function.hpp</text>
</a>
</g>
</g>
<!-- Node15&#45;&gt;Node17 -->
<g id="edge26" class="edge"><title>Node15&#45;&gt;Node17</title>
<path fill="none" stroke="midnightblue" d="M611.939,-179.475C645.967,-169.092 703.584,-151.512 741.462,-139.954"/>
<polygon fill="midnightblue" stroke="midnightblue" points="742.57,-143.275 751.113,-137.009 740.527,-136.58 742.57,-143.275"/>
</g>
<!-- Node17&#45;&gt;Node10 -->
<g id="edge28" class="edge"><title>Node17&#45;&gt;Node10</title>
<path fill="none" stroke="midnightblue" d="M780.388,-117.721C782.157,-103.832 783.91,-76.2864 774,-56 767.993,-43.703 757.008,-33.2346 746.862,-25.4975"/>
<polygon fill="midnightblue" stroke="midnightblue" points="748.84,-22.6093 738.663,-19.6605 744.78,-28.3116 748.84,-22.6093"/>
</g>
<!-- Node17&#45;&gt;Node13 -->
<g id="edge27" class="edge"><title>Node17&#45;&gt;Node13</title>
<path fill="none" stroke="midnightblue" d="M771.12,-117.975C762.706,-108.873 749.181,-94.241 738.774,-82.983"/>
<polygon fill="midnightblue" stroke="midnightblue" points="741.224,-80.4766 731.866,-75.5091 736.083,-85.2282 741.224,-80.4766"/>
</g>
<!-- Node18&#45;&gt;Node10 -->
<g id="edge30" class="edge"><title>Node18&#45;&gt;Node10</title>
<path fill="none" stroke="midnightblue" d="M758.264,-236.238C821.459,-223.456 907.078,-205.174 912,-199 947.109,-154.964 1001.96,-190.919 848,-56 821.999,-33.2146 783.544,-21.6538 756.364,-16.0028"/>
<polygon fill="midnightblue" stroke="midnightblue" points="756.672,-12.4982 746.192,-14.0524 755.354,-19.373 756.672,-12.4982"/>
</g>
<!-- Node19 -->
<g id="node19" class="node"><title>Node19</title>
<g id="a_node19"><a xlink:href="Kinematics_8hpp.html" target="_top" xlink:title="Core/Kinematics.hpp">
<polygon fill="white" stroke="red" points="650,-179.5 650,-198.5 758,-198.5 758,-179.5 650,-179.5"/>
<text text-anchor="middle" x="704" y="-186.5" font-family="Helvetica,sans-Serif" font-size="10.00">Core/Kinematics.hpp</text>
</a>
</g>
</g>
<!-- Node18&#45;&gt;Node19 -->
<g id="edge31" class="edge"><title>Node18&#45;&gt;Node19</title>
<path fill="none" stroke="midnightblue" d="M694.081,-235.399C695.834,-227.377 698.05,-217.233 699.943,-208.569"/>
<polygon fill="midnightblue" stroke="midnightblue" points="703.393,-209.174 702.108,-198.658 696.554,-207.68 703.393,-209.174"/>
</g>
<!-- Node20 -->
<g id="node20" class="node"><title>Node20</title>
<g id="a_node20"><a xlink:href="ParticleStateTransitionKinematicsInfo_8hpp.html" target="_top" xlink:title="Physics/ParticleStateTransition\lKinematicsInfo.hpp">
<polygon fill="white" stroke="red" points="385,-112.5 385,-142.5 539,-142.5 539,-112.5 385,-112.5"/>
<text text-anchor="start" x="393" y="-130.5" font-family="Helvetica,sans-Serif" font-size="10.00">Physics/ParticleStateTransition</text>
<text text-anchor="middle" x="462" y="-119.5" font-family="Helvetica,sans-Serif" font-size="10.00">KinematicsInfo.hpp</text>
</a>
</g>
</g>
<!-- Node18&#45;&gt;Node20 -->
<g id="edge34" class="edge"><title>Node18&#45;&gt;Node20</title>
<path fill="none" stroke="midnightblue" d="M623.734,-237.241C592.65,-229.521 556.237,-217.425 527,-199 507.154,-186.493 489.463,-166.396 477.567,-150.853"/>
<polygon fill="midnightblue" stroke="midnightblue" points="480.341,-148.717 471.578,-142.763 474.715,-152.883 480.341,-148.717"/>
</g>
<!-- Node21 -->
<g id="node21" class="node"><title>Node21</title>
<g id="a_node21"><a xlink:href="SubSystem_8hpp.html" target="_top" xlink:title="Contains SubSystem class. ">
<polygon fill="white" stroke="red" points="777.5,-179.5 777.5,-198.5 902.5,-198.5 902.5,-179.5 777.5,-179.5"/>
<text text-anchor="middle" x="840" y="-186.5" font-family="Helvetica,sans-Serif" font-size="10.00">Physics/SubSystem.hpp</text>
</a>
</g>
</g>
<!-- Node18&#45;&gt;Node21 -->
<g id="edge38" class="edge"><title>Node18&#45;&gt;Node21</title>
<path fill="none" stroke="midnightblue" d="M726.311,-235.399C751.422,-225.372 784.837,-212.028 808.935,-202.405"/>
<polygon fill="midnightblue" stroke="midnightblue" points="810.33,-205.617 818.319,-198.658 807.734,-199.116 810.33,-205.617"/>
</g>
<!-- Node19&#45;&gt;Node8 -->
<g id="edge32" class="edge"><title>Node19&#45;&gt;Node8</title>
<path fill="none" stroke="midnightblue" d="M699.129,-179.475C694.13,-170.727 686.211,-156.869 679.891,-145.809"/>
<polygon fill="midnightblue" stroke="midnightblue" points="682.863,-143.955 674.862,-137.009 676.785,-147.428 682.863,-143.955"/>
</g>
<!-- Node19&#45;&gt;Node10 -->
<g id="edge33" class="edge"><title>Node19&#45;&gt;Node10</title>
<path fill="none" stroke="midnightblue" d="M745,-179.482C779.587,-171.366 825.151,-158.161 836,-143 868.846,-97.1007 793.23,-47.5084 750.607,-24.3417"/>
<polygon fill="midnightblue" stroke="midnightblue" points="752.039,-21.1396 741.564,-19.5519 748.763,-27.3255 752.039,-21.1396"/>
</g>
<!-- Node20&#45;&gt;Node9 -->
<g id="edge36" class="edge"><title>Node20&#45;&gt;Node9</title>
<path fill="none" stroke="midnightblue" d="M397.413,-112.475C348.388,-101.829 282.001,-87.4127 237.224,-77.6892"/>
<polygon fill="midnightblue" stroke="midnightblue" points="237.687,-74.2082 227.172,-75.5064 236.202,-81.0488 237.687,-74.2082"/>
</g>
<!-- Node20&#45;&gt;Node10 -->
<g id="edge35" class="edge"><title>Node20&#45;&gt;Node10</title>
<path fill="none" stroke="midnightblue" d="M493.864,-112.453C545.281,-89.7865 645.765,-45.4891 695.171,-23.7088"/>
<polygon fill="midnightblue" stroke="midnightblue" points="696.884,-26.7788 704.623,-19.5423 694.061,-20.3735 696.884,-26.7788"/>
</g>
<!-- Node20&#45;&gt;Node11 -->
<g id="edge37" class="edge"><title>Node20&#45;&gt;Node11</title>
<path fill="none" stroke="midnightblue" d="M462,-112.399C462,-104.466 462,-94.458 462,-85.8583"/>
<polygon fill="midnightblue" stroke="midnightblue" points="465.5,-85.6577 462,-75.6578 458.5,-85.6578 465.5,-85.6577"/>
</g>
<!-- Node21&#45;&gt;Node10 -->
<g id="edge39" class="edge"><title>Node21&#45;&gt;Node10</title>
<path fill="none" stroke="midnightblue" d="M843.6,-179.222C847.056,-170.285 852.033,-155.942 854,-143 860.103,-102.841 855.406,-84.0228 826,-56 806.525,-37.4414 778.131,-25.7701 756.243,-18.978"/>
<polygon fill="midnightblue" stroke="midnightblue" points="756.974,-15.5457 746.395,-16.1102 755.017,-22.2665 756.974,-15.5457"/>
</g>
</g>
</svg>
