<?xml version="1.0" encoding="UTF-8" standalone="no"?>
<!DOCTYPE svg PUBLIC "-//W3C//DTD SVG 1.1//EN"
 "http://www.w3.org/Graphics/SVG/1.1/DTD/svg11.dtd">
<!-- Generated by graphviz version 2.40.1 (20161225.0304)
 -->
<!-- Title: Physics/HelicityFormalism/HelicityKinematics.hpp Pages: 1 -->
<svg width="590pt" height="285pt"
 viewBox="0.00 0.00 590.00 285.00" xmlns="http://www.w3.org/2000/svg" xmlns:xlink="http://www.w3.org/1999/xlink">
<g id="graph0" class="graph" transform="scale(1 1) rotate(0) translate(4 281)">
<title>Physics/HelicityFormalism/HelicityKinematics.hpp</title>
<polygon fill="#ffffff" stroke="transparent" points="-4,4 -4,-281 586,-281 586,4 -4,4"/>
<!-- Node0 -->
<g id="node1" class="node">
<title>Node0</title>
<polygon fill="#bfbfbf" stroke="#000000" points="135.5075,-246.5 135.5075,-276.5 281.5075,-276.5 281.5075,-246.5 135.5075,-246.5"/>
<text text-anchor="start" x="143.5075" y="-264.5" font-family="Helvetica,sans-Serif" font-size="10.00" fill="#000000">Physics/HelicityFormalism</text>
<text text-anchor="middle" x="208.5075" y="-253.5" font-family="Helvetica,sans-Serif" font-size="10.00" fill="#000000">/HelicityKinematics.hpp</text>
</g>
<!-- Node1 -->
<g id="node2" class="node">
<title>Node1</title>
<polygon fill="#ffffff" stroke="#bfbfbf" points="7.0075,-6 7.0075,-25 54.0075,-25 54.0075,-6 7.0075,-6"/>
<text text-anchor="middle" x="30.5075" y="-13" font-family="Helvetica,sans-Serif" font-size="10.00" fill="#000000">vector</text>
</g>
<!-- Node0&#45;&gt;Node1 -->
<g id="edge1" class="edge">
<title>Node0&#45;&gt;Node1</title>
<path fill="none" stroke="#191970" d="M143.9209,-246.4775C118.465,-238.4587 89.9996,-226.7025 67.5075,-210 17.6995,-173.0128 12.1248,-148.1242 1.5075,-87 -.0137,-78.2422 -.7469,-75.5982 1.5075,-67 4.6305,-55.0893 11.1977,-43.029 17.2941,-33.5764"/>
<polygon fill="#191970" stroke="#191970" points="20.3372,-35.3266 23.0884,-25.0952 14.5573,-31.3777 20.3372,-35.3266"/>
</g>
<!-- Node2 -->
<g id="node3" class="node">
<title>Node2</title>
<g id="a_node3"><a xlink:href="Kinematics_8hpp.html" target="_top" xlink:title="Core/Kinematics.hpp">
<polygon fill="#ffffff" stroke="#000000" points="76.5075,-190.5 76.5075,-209.5 194.5075,-209.5 194.5075,-190.5 76.5075,-190.5"/>
<text text-anchor="middle" x="135.5075" y="-197.5" font-family="Helvetica,sans-Serif" font-size="10.00" fill="#000000">Core/Kinematics.hpp</text>
</a>
</g>
</g>
<!-- Node0&#45;&gt;Node2 -->
<g id="edge2" class="edge">
<title>Node0&#45;&gt;Node2</title>
<path fill="none" stroke="#191970" d="M190.4626,-246.2977C179.6961,-237.2274 166.0224,-225.7077 155.008,-216.4285"/>
<polygon fill="#191970" stroke="#191970" points="157.0986,-213.6132 147.1957,-209.8469 152.5885,-218.9667 157.0986,-213.6132"/>
</g>
<!-- Node26 -->
<g id="node10" class="node">
<title>Node26</title>
<g id="a_node10"><a xlink:href="ParticleStateTransitionKinematicsInfo_8hpp.html" target="_top" xlink:title="Physics/ParticleStateTransition\lKinematicsInfo.hpp">
<polygon fill="#ffffff" stroke="#000000" points="184.0075,-123.5 184.0075,-153.5 349.0075,-153.5 349.0075,-123.5 184.0075,-123.5"/>
<text text-anchor="start" x="192.0075" y="-141.5" font-family="Helvetica,sans-Serif" font-size="10.00" fill="#000000">Physics/ParticleStateTransition</text>
<text text-anchor="middle" x="266.5075" y="-130.5" font-family="Helvetica,sans-Serif" font-size="10.00" fill="#000000">KinematicsInfo.hpp</text>
</a>
</g>
</g>
<!-- Node0&#45;&gt;Node26 -->
<g id="edge14" class="edge">
<title>Node0&#45;&gt;Node26</title>
<path fill="none" stroke="#191970" d="M215.6195,-246.4178C225.4467,-225.5772 243.2912,-187.7346 255.0221,-162.8571"/>
<polygon fill="#191970" stroke="#191970" points="258.238,-164.2432 259.3374,-153.7056 251.9066,-161.2577 258.238,-164.2432"/>
</g>
<!-- Node27 -->
<g id="node11" class="node">
<title>Node27</title>
<g id="a_node11"><a xlink:href="SubSystem_8hpp.html" target="_top" xlink:title="Contains SubSystem class. ">
<polygon fill="#ffffff" stroke="#000000" points="410.5075,-67.5 410.5075,-86.5 542.5075,-86.5 542.5075,-67.5 410.5075,-67.5"/>
<text text-anchor="middle" x="476.5075" y="-74.5" font-family="Helvetica,sans-Serif" font-size="10.00" fill="#000000">Physics/SubSystem.hpp</text>
</a>
</g>
</g>
<!-- Node0&#45;&gt;Node27 -->
<g id="edge20" class="edge">
<title>Node0&#45;&gt;Node27</title>
<path fill="none" stroke="#191970" d="M234.0929,-246.4396C267.8285,-226.3306 328.7347,-189.1529 378.5075,-154 406.6815,-134.1017 437.7673,-109.1278 457.2142,-93.115"/>
<polygon fill="#191970" stroke="#191970" points="459.5644,-95.7131 465.0357,-86.6404 455.1007,-90.3209 459.5644,-95.7131"/>
</g>
<!-- Node2&#45;&gt;Node1 -->
<g id="edge13" class="edge">
<title>Node2&#45;&gt;Node1</title>
<path fill="none" stroke="#191970" d="M115.3482,-190.3407C84.3473,-174.1244 26.5561,-138.1083 7.5075,-87 .858,-69.159 9.2764,-48.4093 17.7373,-33.8731"/>
<polygon fill="#191970" stroke="#191970" points="20.7642,-35.6348 23.1455,-25.311 14.846,-31.8965 20.7642,-35.6348"/>
</g>
<!-- Node3 -->
<g id="node4" class="node">
<title>Node3</title>
<g id="a_node4"><a xlink:href="Event_8hpp.html" target="_top" xlink:title="Core/Event.hpp">
<polygon fill="#ffffff" stroke="#ff0000" points="75.0075,-129 75.0075,-148 166.0075,-148 166.0075,-129 75.0075,-129"/>
<text text-anchor="middle" x="120.5075" y="-136" font-family="Helvetica,sans-Serif" font-size="10.00" fill="#000000">Core/Event.hpp</text>
</a>
</g>
</g>
<!-- Node2&#45;&gt;Node3 -->
<g id="edge3" class="edge">
<title>Node2&#45;&gt;Node3</title>
<path fill="none" stroke="#191970" d="M133.1638,-190.3906C131.0626,-181.776 127.915,-168.8708 125.2845,-158.0858"/>
<polygon fill="#191970" stroke="#191970" points="128.6543,-157.1307 122.8843,-148.2449 121.8536,-158.7894 128.6543,-157.1307"/>
</g>
<!-- Node15 -->
<g id="node9" class="node">
<title>Node15</title>
<polygon fill="#ffffff" stroke="#bfbfbf" points="348.5075,-67.5 348.5075,-86.5 392.5075,-86.5 392.5075,-67.5 348.5075,-67.5"/>
<text text-anchor="middle" x="370.5075" y="-74.5" font-family="Helvetica,sans-Serif" font-size="10.00" fill="#000000">string</text>
</g>
<!-- Node2&#45;&gt;Node15 -->
<g id="edge12" class="edge">
<title>Node2&#45;&gt;Node15</title>
<path fill="none" stroke="#191970" d="M194.6417,-195.2069C252.6173,-189.2423 335.4194,-176.9223 357.5075,-154 372.0151,-138.9445 373.7612,-114.0846 372.8565,-96.6967"/>
<polygon fill="#191970" stroke="#191970" points="376.3262,-96.1928 371.9866,-86.5275 369.3517,-96.7895 376.3262,-96.1928"/>
</g>
<!-- Node3&#45;&gt;Node1 -->
<g id="edge11" class="edge">
<title>Node3&#45;&gt;Node1</title>
<path fill="none" stroke="#191970" d="M77.9121,-128.9215C55.5004,-121.4837 29.9487,-108.6549 16.5075,-87 6.5485,-70.9551 12.967,-49.3067 20.0479,-34.0477"/>
<polygon fill="#191970" stroke="#191970" points="23.2033,-35.5643 24.6311,-25.0661 16.9682,-32.3825 23.2033,-35.5643"/>
</g>
<!-- Node4 -->
<g id="node5" class="node">
<title>Node4</title>
<g id="a_node5"><a xlink:href="FourMomentum_8hpp.html" target="_top" xlink:title="Core/FourMomentum.hpp">
<polygon fill="#ffffff" stroke="#ff0000" points="58.5075,-67.5 58.5075,-86.5 198.5075,-86.5 198.5075,-67.5 58.5075,-67.5"/>
<text text-anchor="middle" x="128.5075" y="-74.5" font-family="Helvetica,sans-Serif" font-size="10.00" fill="#000000">Core/FourMomentum.hpp</text>
</a>
</g>
</g>
<!-- Node3&#45;&gt;Node4 -->
<g id="edge4" class="edge">
<title>Node3&#45;&gt;Node4</title>
<path fill="none" stroke="#191970" d="M121.7575,-128.8906C122.8665,-120.3657 124.5219,-107.6392 125.9159,-96.9235"/>
<polygon fill="#191970" stroke="#191970" points="129.4206,-97.1128 127.2399,-86.7449 122.4791,-96.2098 129.4206,-97.1128"/>
</g>
<!-- Node12 -->
<g id="node7" class="node">
<title>Node12</title>
<g id="a_node7"><a xlink:href="Properties_8hpp.html" target="_top" xlink:title="Core/Properties.hpp">
<polygon fill="#ffffff" stroke="#ff0000" points="217.0075,-67.5 217.0075,-86.5 330.0075,-86.5 330.0075,-67.5 217.0075,-67.5"/>
<text text-anchor="middle" x="273.5075" y="-74.5" font-family="Helvetica,sans-Serif" font-size="10.00" fill="#000000">Core/Properties.hpp</text>
</a>
</g>
</g>
<!-- Node3&#45;&gt;Node12 -->
<g id="edge7" class="edge">
<title>Node3&#45;&gt;Node12</title>
<path fill="none" stroke="#191970" d="M144.4138,-128.8906C170.238,-118.5103 211.5602,-101.9004 240.4781,-90.2766"/>
<polygon fill="#191970" stroke="#191970" points="241.796,-93.519 249.7691,-86.5419 239.1853,-87.0241 241.796,-93.519"/>
</g>
<!-- Node4&#45;&gt;Node1 -->
<g id="edge5" class="edge">
<title>Node4&#45;&gt;Node1</title>
<path fill="none" stroke="#191970" d="M113.195,-67.3906C97.4451,-57.5067 72.6952,-41.9749 54.3738,-30.4773"/>
<polygon fill="#191970" stroke="#191970" points="56.0432,-27.3929 45.7125,-25.0419 52.3223,-33.3221 56.0432,-27.3929"/>
</g>
<!-- Node11 -->
<g id="node6" class="node">
<title>Node11</title>
<polygon fill="#ffffff" stroke="#bfbfbf" points="217.0075,-.5 217.0075,-30.5 330.0075,-30.5 330.0075,-.5 217.0075,-.5"/>
<text text-anchor="start" x="225.0075" y="-18.5" font-family="Helvetica,sans-Serif" font-size="10.00" fill="#000000">boost/property_tree</text>
<text text-anchor="middle" x="273.5075" y="-7.5" font-family="Helvetica,sans-Serif" font-size="10.00" fill="#000000">/ptree.hpp</text>
</g>
<!-- Node4&#45;&gt;Node11 -->
<g id="edge6" class="edge">
<title>Node4&#45;&gt;Node11</title>
<path fill="none" stroke="#191970" d="M151.1638,-67.3906C171.7871,-58.6435 202.8399,-45.4728 228.4993,-34.5897"/>
<polygon fill="#191970" stroke="#191970" points="230.197,-37.6715 238.0365,-30.5446 227.4637,-31.2272 230.197,-37.6715"/>
</g>
<!-- Node12&#45;&gt;Node1 -->
<g id="edge10" class="edge">
<title>Node12&#45;&gt;Node1</title>
<path fill="none" stroke="#191970" d="M235.8054,-67.4581C188.8088,-55.5639 109.1987,-35.4157 64.1687,-24.0192"/>
<polygon fill="#191970" stroke="#191970" points="64.8602,-20.5839 54.3071,-21.5234 63.1427,-27.37 64.8602,-20.5839"/>
</g>
<!-- Node12&#45;&gt;Node11 -->
<g id="edge8" class="edge">
<title>Node12&#45;&gt;Node11</title>
<path fill="none" stroke="#191970" d="M273.5075,-67.3906C273.5075,-60.2234 273.5075,-50.0862 273.5075,-40.671"/>
<polygon fill="#191970" stroke="#191970" points="277.0076,-40.5446 273.5075,-30.5446 270.0076,-40.5446 277.0076,-40.5446"/>
</g>
<!-- Node24 -->
<g id="node8" class="node">
<title>Node24</title>
<polygon fill="#ffffff" stroke="#bfbfbf" points="368.5075,-6 368.5075,-25 406.5075,-25 406.5075,-6 368.5075,-6"/>
<text text-anchor="middle" x="387.5075" y="-13" font-family="Helvetica,sans-Serif" font-size="10.00" fill="#000000">map</text>
</g>
<!-- Node12&#45;&gt;Node24 -->
<g id="edge9" class="edge">
<title>Node12&#45;&gt;Node24</title>
<path fill="none" stroke="#191970" d="M291.32,-67.3906C309.976,-57.3262 339.4873,-41.4057 360.9049,-29.8514"/>
<polygon fill="#191970" stroke="#191970" points="362.6809,-32.8702 369.8201,-25.0419 359.3573,-26.7095 362.6809,-32.8702"/>
</g>
<!-- Node26&#45;&gt;Node1 -->
<g id="edge17" class="edge">
<title>Node26&#45;&gt;Node1</title>
<path fill="none" stroke="#191970" d="M185.7603,-123.4896C128.3172,-112.1181 59.5989,-96.8253 49.5075,-87 35.7497,-73.6049 31.5808,-51.4706 30.4933,-35.3725"/>
<polygon fill="#191970" stroke="#191970" points="33.9912,-35.2487 30.1527,-25.3736 26.9953,-35.487 33.9912,-35.2487"/>
</g>
<!-- Node26&#45;&gt;Node4 -->
<g id="edge18" class="edge">
<title>Node26&#45;&gt;Node4</title>
<path fill="none" stroke="#191970" d="M232.7489,-123.4554C210.2282,-113.419 180.8608,-100.3314 159.0383,-90.6061"/>
<polygon fill="#191970" stroke="#191970" points="160.4514,-87.4041 149.8926,-86.5303 157.6019,-93.7979 160.4514,-87.4041"/>
</g>
<!-- Node26&#45;&gt;Node12 -->
<g id="edge19" class="edge">
<title>Node26&#45;&gt;Node12</title>
<path fill="none" stroke="#191970" d="M268.2379,-123.2977C269.1488,-115.2945 270.2768,-105.3843 271.2551,-96.7889"/>
<polygon fill="#191970" stroke="#191970" points="274.7333,-97.1786 272.3867,-86.8469 267.7782,-96.3869 274.7333,-97.1786"/>
</g>
<!-- Node26&#45;&gt;Node24 -->
<g id="edge15" class="edge">
<title>Node26&#45;&gt;Node24</title>
<path fill="none" stroke="#191970" d="M349.3416,-134.9897C424.0948,-129.8765 526.1201,-117.3861 551.5075,-87 605.1948,-22.7419 598.6133,-83.3012 434.5075,-31 428.6339,-29.128 422.3607,-27.0878 416.3733,-25.1207"/>
<polygon fill="#191970" stroke="#191970" points="417.281,-21.7346 406.6878,-21.9219 415.0856,-28.3815 417.281,-21.7346"/>
</g>
<!-- Node26&#45;&gt;Node15 -->
<g id="edge16" class="edge">
<title>Node26&#45;&gt;Node15</title>
<path fill="none" stroke="#191970" d="M291.9488,-123.4554C308.2359,-113.8241 329.2748,-101.3828 345.4805,-91.7996"/>
<polygon fill="#191970" stroke="#191970" points="347.5651,-94.6331 354.3912,-86.5303 344.002,-88.6078 347.5651,-94.6331"/>
</g>
<!-- Node27&#45;&gt;Node1 -->
<g id="edge22" class="edge">
<title>Node27&#45;&gt;Node1</title>
<path fill="none" stroke="#191970" d="M410.2184,-67.8592C313.7725,-54.5601 138.2486,-30.3567 64.538,-20.1925"/>
<polygon fill="#191970" stroke="#191970" points="64.8073,-16.6966 54.4229,-18.7978 63.8511,-23.631 64.8073,-16.6966"/>
</g>
<!-- Node27&#45;&gt;Node11 -->
<g id="edge23" class="edge">
<title>Node27&#45;&gt;Node11</title>
<path fill="none" stroke="#191970" d="M444.7888,-67.3906C414.8985,-58.3352 369.3599,-44.539 332.75,-33.4479"/>
<polygon fill="#191970" stroke="#191970" points="333.7522,-30.0944 323.1669,-30.5446 331.7225,-36.7937 333.7522,-30.0944"/>
</g>
<!-- Node28 -->
<g id="node12" class="node">
<title>Node28</title>
<polygon fill="#ffffff" stroke="#bfbfbf" points="444.0075,-6 444.0075,-25 509.0075,-25 509.0075,-6 444.0075,-6"/>
<text text-anchor="middle" x="476.5075" y="-13" font-family="Helvetica,sans-Serif" font-size="10.00" fill="#000000">functional</text>
</g>
<!-- Node27&#45;&gt;Node28 -->
<g id="edge21" class="edge">
<title>Node27&#45;&gt;Node28</title>
<path fill="none" stroke="#191970" d="M476.5075,-67.3906C476.5075,-58.8657 476.5075,-46.1392 476.5075,-35.4235"/>
<polygon fill="#191970" stroke="#191970" points="480.0076,-35.2448 476.5075,-25.2449 473.0076,-35.2449 480.0076,-35.2448"/>
</g>
</g>
</svg>
