<?xml version="1.0" encoding="UTF-8" standalone="no"?>
<!DOCTYPE svg PUBLIC "-//W3C//DTD SVG 1.1//EN"
 "http://www.w3.org/Graphics/SVG/1.1/DTD/svg11.dtd">
<!-- Generated by graphviz version 2.38.0 (20140413.2041)
 -->
<!-- Title: /home/travis/build/ComPWA/ComPWA/Tools/Plotting/HistTools.hpp Pages: 1 -->
<!--zoomable 173 -->
<svg id="main" version="1.1" xmlns="http://www.w3.org/2000/svg" xmlns:xlink="http://www.w3.org/1999/xlink" xml:space="preserve" onload="init(evt)">
<style type="text/css"><![CDATA[
.edge:hover path { stroke: red; }
.edge:hover polygon { stroke: red; fill: red; }
]]></style>
<script type="text/javascript"><![CDATA[
var edges = document.getElementsByTagName('g');
if (edges && edges.length) {
  for (var i=0;i<edges.length;i++) {
    if (edges[i].id.substr(0,4)=='edge') {
      edges[i].setAttribute('class','edge');
    }
  }
}
]]></script>
        <defs>
                <circle id="rim" cx="0" cy="0" r="7"/>
                <circle id="rim2" cx="0" cy="0" r="3.5"/>
                <g id="zoomPlus">
                        <use xlink:href="#rim" fill="#404040">
                                <set attributeName="fill" to="#808080" begin="zoomplus.mouseover" end="zoomplus.mouseout"/>
                        </use>
                        <path d="M-4,0h8M0,-4v8" fill="none" stroke="white" stroke-width="1.5" pointer-events="none"/>
                </g>
                <g id="zoomMin">
                        <use xlink:href="#rim" fill="#404040">
                                <set attributeName="fill" to="#808080" begin="zoomminus.mouseover" end="zoomminus.mouseout"/>
                        </use>
                        <path d="M-4,0h8" fill="none" stroke="white" stroke-width="1.5" pointer-events="none"/>
                </g>
                <g id="dirArrow">
                        <path fill="none" stroke="white" stroke-width="1.5" d="M0,-3.0v7 M-2.5,-0.5L0,-3.0L2.5,-0.5"/>
                </g>
               <g id="resetDef">
                       <use xlink:href="#rim2" fill="#404040">
                               <set attributeName="fill" to="#808080" begin="reset.mouseover" end="reset.mouseout"/>
                       </use>
               </g>
        </defs>

<script type="text/javascript">
var viewWidth = 1220;
var viewHeight = 173;
var sectionId = 'dynsection-0';
</script>
<script xlink:href="svgpan.js"/>
<svg id="graph" class="graph">
<g id="viewport">
<title>/home/travis/build/ComPWA/ComPWA/Tools/Plotting/HistTools.hpp</title>
<polygon fill="white" stroke="none" points="-4,4 -4,-169 1216,-169 1216,4 -4,4"/>
<!-- Node1 -->
<g id="node1" class="node"><title>Node1</title>
<polygon fill="#bfbfbf" stroke="black" points="515.5,-123.5 515.5,-164.5 653.5,-164.5 653.5,-123.5 515.5,-123.5"/>
<text text-anchor="start" x="523.5" y="-152.5" font-family="Helvetica,sans-Serif" font-size="10.00">/home/travis/build</text>
<text text-anchor="start" x="523.5" y="-141.5" font-family="Helvetica,sans-Serif" font-size="10.00">/ComPWA/ComPWA/Tools</text>
<text text-anchor="middle" x="584.5" y="-130.5" font-family="Helvetica,sans-Serif" font-size="10.00">/Plotting/HistTools.hpp</text>
</g>
<!-- Node2 -->
<g id="node2" class="node"><title>Node2</title>
<polygon fill="white" stroke="#bfbfbf" points="0,-67.5 0,-86.5 65,-86.5 65,-67.5 0,-67.5"/>
<text text-anchor="middle" x="32.5" y="-74.5" font-family="Helvetica,sans-Serif" font-size="10.00">TCanvas.h</text>
</g>
<!-- Node1&#45;&gt;Node2 -->
<g id="edge1" class="edge"><title>Node1&#45;&gt;Node2</title>
<path fill="none" stroke="midnightblue" d="M515.32,-137.651C418.982,-129.703 238.821,-113.033 75.6791,-87.0382"/>
<polygon fill="midnightblue" stroke="midnightblue" points="75.8843,-83.5262 65.4552,-85.3931 74.7722,-90.4373 75.8843,-83.5262"/>
</g>
<!-- Node3 -->
<g id="node3" class="node"><title>Node3</title>
<polygon fill="white" stroke="#bfbfbf" points="83,-67.5 83,-86.5 130,-86.5 130,-67.5 83,-67.5"/>
<text text-anchor="middle" x="106.5" y="-74.5" font-family="Helvetica,sans-Serif" font-size="10.00">TFile.h</text>
</g>
<!-- Node1&#45;&gt;Node3 -->
<g id="edge2" class="edge"><title>Node1&#45;&gt;Node3</title>
<path fill="none" stroke="midnightblue" d="M515.407,-137.35C429.56,-129.651 278.541,-113.883 140.14,-86.8581"/>
<polygon fill="midnightblue" stroke="midnightblue" points="140.687,-83.3986 130.198,-84.8928 139.329,-90.2657 140.687,-83.3986"/>
</g>
<!-- Node4 -->
<g id="node4" class="node"><title>Node4</title>
<polygon fill="white" stroke="#bfbfbf" points="148,-67.5 148,-86.5 205,-86.5 205,-67.5 148,-67.5"/>
<text text-anchor="middle" x="176.5" y="-74.5" font-family="Helvetica,sans-Serif" font-size="10.00">TGraph.h</text>
</g>
<!-- Node1&#45;&gt;Node4 -->
<g id="edge3" class="edge"><title>Node1&#45;&gt;Node4</title>
<path fill="none" stroke="midnightblue" d="M515.334,-134.264C442.968,-124.732 325.891,-108.209 215.093,-86.9709"/>
<polygon fill="midnightblue" stroke="midnightblue" points="215.562,-83.4969 205.079,-85.0351 214.233,-90.3696 215.562,-83.4969"/>
</g>
<!-- Node5 -->
<g id="node5" class="node"><title>Node5</title>
<polygon fill="white" stroke="#bfbfbf" points="223,-67.5 223,-86.5 274,-86.5 274,-67.5 223,-67.5"/>
<text text-anchor="middle" x="248.5" y="-74.5" font-family="Helvetica,sans-Serif" font-size="10.00">TH1D.h</text>
</g>
<!-- Node1&#45;&gt;Node5 -->
<g id="edge4" class="edge"><title>Node1&#45;&gt;Node5</title>
<path fill="none" stroke="midnightblue" d="M515.492,-131.531C456.579,-121.426 369.405,-105.735 283.938,-86.9703"/>
<polygon fill="midnightblue" stroke="midnightblue" points="284.586,-83.529 274.066,-84.7873 283.075,-90.3639 284.586,-83.529"/>
</g>
<!-- Node6 -->
<g id="node6" class="node"><title>Node6</title>
<polygon fill="white" stroke="#bfbfbf" points="292,-67.5 292,-86.5 343,-86.5 343,-67.5 292,-67.5"/>
<text text-anchor="middle" x="317.5" y="-74.5" font-family="Helvetica,sans-Serif" font-size="10.00">TH2D.h</text>
</g>
<!-- Node1&#45;&gt;Node6 -->
<g id="edge5" class="edge"><title>Node1&#45;&gt;Node6</title>
<path fill="none" stroke="midnightblue" d="M515.404,-126.605C471.582,-116.141 413.44,-102.137 352.847,-87.0591"/>
<polygon fill="midnightblue" stroke="midnightblue" points="353.653,-83.6529 343.103,-84.6303 351.96,-90.4451 353.653,-83.6529"/>
</g>
<!-- Node7 -->
<g id="node7" class="node"><title>Node7</title>
<polygon fill="white" stroke="#bfbfbf" points="361,-67.5 361,-86.5 424,-86.5 424,-67.5 361,-67.5"/>
<text text-anchor="middle" x="392.5" y="-74.5" font-family="Helvetica,sans-Serif" font-size="10.00">TH2Poly.h</text>
</g>
<!-- Node1&#45;&gt;Node7 -->
<g id="edge6" class="edge"><title>Node1&#45;&gt;Node7</title>
<path fill="none" stroke="midnightblue" d="M526.894,-123.498C494.626,-112.574 455.43,-99.3043 427.715,-89.9218"/>
<polygon fill="midnightblue" stroke="midnightblue" points="428.652,-86.544 418.058,-86.6525 426.408,-93.1744 428.652,-86.544"/>
</g>
<!-- Node8 -->
<g id="node8" class="node"><title>Node8</title>
<polygon fill="white" stroke="#bfbfbf" points="442,-67.5 442,-86.5 539,-86.5 539,-67.5 442,-67.5"/>
<text text-anchor="middle" x="490.5" y="-74.5" font-family="Helvetica,sans-Serif" font-size="10.00">TKDTreeBinning.h</text>
</g>
<!-- Node1&#45;&gt;Node8 -->
<g id="edge7" class="edge"><title>Node1&#45;&gt;Node8</title>
<path fill="none" stroke="midnightblue" d="M556.297,-123.498C541.885,-113.532 524.65,-101.614 511.435,-92.4764"/>
<polygon fill="midnightblue" stroke="midnightblue" points="513.229,-89.4613 503.013,-86.6525 509.247,-95.2189 513.229,-89.4613"/>
</g>
<!-- Node9 -->
<g id="node9" class="node"><title>Node9</title>
<polygon fill="white" stroke="#bfbfbf" points="557,-67.5 557,-86.5 612,-86.5 612,-67.5 557,-67.5"/>
<text text-anchor="middle" x="584.5" y="-74.5" font-family="Helvetica,sans-Serif" font-size="10.00">TLatex.h</text>
</g>
<!-- Node1&#45;&gt;Node9 -->
<g id="edge8" class="edge"><title>Node1&#45;&gt;Node9</title>
<path fill="none" stroke="midnightblue" d="M584.5,-123.498C584.5,-115.065 584.5,-105.235 584.5,-96.874"/>
<polygon fill="midnightblue" stroke="midnightblue" points="588,-96.6525 584.5,-86.6525 581,-96.6525 588,-96.6525"/>
</g>
<!-- Node10 -->
<g id="node10" class="node"><title>Node10</title>
<polygon fill="white" stroke="#bfbfbf" points="630,-67.5 630,-86.5 683,-86.5 683,-67.5 630,-67.5"/>
<text text-anchor="middle" x="656.5" y="-74.5" font-family="Helvetica,sans-Serif" font-size="10.00">TMath.h</text>
</g>
<!-- Node1&#45;&gt;Node10 -->
<g id="edge9" class="edge"><title>Node1&#45;&gt;Node10</title>
<path fill="none" stroke="midnightblue" d="M606.102,-123.498C616.717,-113.915 629.33,-102.528 639.283,-93.5428"/>
<polygon fill="midnightblue" stroke="midnightblue" points="641.838,-95.9515 646.916,-86.6525 637.148,-90.7556 641.838,-95.9515"/>
</g>
<!-- Node11 -->
<g id="node11" class="node"><title>Node11</title>
<polygon fill="white" stroke="#bfbfbf" points="701,-67.5 701,-86.5 760,-86.5 760,-67.5 701,-67.5"/>
<text text-anchor="middle" x="730.5" y="-74.5" font-family="Helvetica,sans-Serif" font-size="10.00">TObject.h</text>
</g>
<!-- Node1&#45;&gt;Node11 -->
<g id="edge10" class="edge"><title>Node1&#45;&gt;Node11</title>
<path fill="none" stroke="midnightblue" d="M628.305,-123.498C652.088,-112.909 680.822,-100.117 701.756,-90.7968"/>
<polygon fill="midnightblue" stroke="midnightblue" points="703.353,-93.9172 711.065,-86.6525 700.506,-87.5223 703.353,-93.9172"/>
</g>
<!-- Node12 -->
<g id="node12" class="node"><title>Node12</title>
<polygon fill="white" stroke="#bfbfbf" points="778.5,-67.5 778.5,-86.5 826.5,-86.5 826.5,-67.5 778.5,-67.5"/>
<text text-anchor="middle" x="802.5" y="-74.5" font-family="Helvetica,sans-Serif" font-size="10.00">TPad.h</text>
</g>
<!-- Node1&#45;&gt;Node12 -->
<g id="edge11" class="edge"><title>Node1&#45;&gt;Node12</title>
<path fill="none" stroke="midnightblue" d="M649.907,-123.498C689.064,-111.823 737.206,-97.4684 768.815,-88.0436"/>
<polygon fill="midnightblue" stroke="midnightblue" points="769.882,-91.3779 778.465,-85.1664 767.882,-84.6698 769.882,-91.3779"/>
</g>
<!-- Node13 -->
<g id="node13" class="node"><title>Node13</title>
<polygon fill="white" stroke="#bfbfbf" points="845,-67.5 845,-86.5 922,-86.5 922,-67.5 845,-67.5"/>
<text text-anchor="middle" x="883.5" y="-74.5" font-family="Helvetica,sans-Serif" font-size="10.00">TPaveStats.h</text>
</g>
<!-- Node1&#45;&gt;Node13 -->
<g id="edge12" class="edge"><title>Node1&#45;&gt;Node13</title>
<path fill="none" stroke="midnightblue" d="M653.848,-127.924C709.252,-115.88 785.508,-99.3025 834.658,-88.6178"/>
<polygon fill="midnightblue" stroke="midnightblue" points="835.689,-91.9755 844.718,-86.431 834.202,-85.1352 835.689,-91.9755"/>
</g>
<!-- Node14 -->
<g id="node14" class="node"><title>Node14</title>
<polygon fill="white" stroke="#bfbfbf" points="940,-67.5 940,-86.5 1013,-86.5 1013,-67.5 940,-67.5"/>
<text text-anchor="middle" x="976.5" y="-74.5" font-family="Helvetica,sans-Serif" font-size="10.00">TRandom3.h</text>
</g>
<!-- Node1&#45;&gt;Node14 -->
<g id="edge13" class="edge"><title>Node1&#45;&gt;Node14</title>
<path fill="none" stroke="midnightblue" d="M653.759,-132.603C721.632,-122.236 828.274,-105.478 929.583,-87.3001"/>
<polygon fill="midnightblue" stroke="midnightblue" points="930.464,-90.6979 939.684,-85.4796 929.222,-83.8089 930.464,-90.6979"/>
</g>
<!-- Node15 -->
<g id="node15" class="node"><title>Node15</title>
<polygon fill="white" stroke="#bfbfbf" points="1031,-67.5 1031,-86.5 1084,-86.5 1084,-67.5 1031,-67.5"/>
<text text-anchor="middle" x="1057.5" y="-74.5" font-family="Helvetica,sans-Serif" font-size="10.00">TStyle.h</text>
</g>
<!-- Node1&#45;&gt;Node15 -->
<g id="edge14" class="edge"><title>Node1&#45;&gt;Node15</title>
<path fill="none" stroke="midnightblue" d="M653.576,-136.852C738.126,-128.727 885.762,-112.604 1020.72,-87.1526"/>
<polygon fill="midnightblue" stroke="midnightblue" points="1021.66,-90.5365 1030.82,-85.2243 1020.35,-83.6606 1021.66,-90.5365"/>
</g>
<!-- Node16 -->
<g id="node16" class="node"><title>Node16</title>
<g id="a_node16"><a xlink:href="Logging_8hpp.html" target="_top" xlink:title="Core/Logging.hpp">
<polygon fill="white" stroke="black" points="1102,-67.5 1102,-86.5 1195,-86.5 1195,-67.5 1102,-67.5"/>
<text text-anchor="middle" x="1148.5" y="-74.5" font-family="Helvetica,sans-Serif" font-size="10.00">Core/Logging.hpp</text>
</a>
</g>
</g>
<!-- Node1&#45;&gt;Node16 -->
<g id="edge15" class="edge"><title>Node1&#45;&gt;Node16</title>
<path fill="none" stroke="midnightblue" d="M653.798,-136.542C749.867,-127.33 929.17,-109.201 1091.54,-87.2133"/>
<polygon fill="midnightblue" stroke="midnightblue" points="1092.28,-90.6449 1101.72,-85.8272 1091.34,-83.709 1092.28,-90.6449"/>
</g>
<!-- Node17 -->
<g id="node17" class="node"><title>Node17</title>
<polygon fill="white" stroke="#bfbfbf" points="1085,-0.5 1085,-30.5 1212,-30.5 1212,-0.5 1085,-0.5"/>
<text text-anchor="start" x="1093" y="-18.5" font-family="Helvetica,sans-Serif" font-size="10.00">ThirdParty/easyloggingpp</text>
<text text-anchor="middle" x="1148.5" y="-7.5" font-family="Helvetica,sans-Serif" font-size="10.00">/easylogging++.h</text>
</g>
<!-- Node16&#45;&gt;Node17 -->
<g id="edge16" class="edge"><title>Node16&#45;&gt;Node17</title>
<path fill="none" stroke="midnightblue" d="M1148.5,-67.4751C1148.5,-60.471 1148.5,-50.1919 1148.5,-40.6956"/>
<polygon fill="midnightblue" stroke="midnightblue" points="1152,-40.5229 1148.5,-30.523 1145,-40.523 1152,-40.5229"/>
</g>
</g>
</svg>
        <g id="navigator" transform="translate(0 0)" fill="#404254">
                <rect fill="#f2f5e9" fill-opacity="0.5" stroke="#606060" stroke-width=".5" x="0" y="0" width="60" height="60"/>
                <use id="zoomplus" xlink:href="#zoomPlus" x="17" y="9" onmousedown="handleZoom(evt,'in')"/>
                <use id="zoomminus" xlink:href="#zoomMin" x="42" y="9" onmousedown="handleZoom(evt,'out')"/>
                <use id="reset" xlink:href="#resetDef" x="30" y="36" onmousedown="handleReset()"/>
                <g id="arrowUp" xlink:href="#dirArrow" transform="translate(30 24)" onmousedown="handlePan(0,-1)">
                  <use xlink:href="#rim" fill="#404040">
                        <set attributeName="fill" to="#808080" begin="arrowUp.mouseover" end="arrowUp.mouseout"/>
                  </use>
                  <path fill="none" stroke="white" stroke-width="1.5" d="M0,-3.0v7 M-2.5,-0.5L0,-3.0L2.5,-0.5"/>
                </g>
                <g id="arrowRight" xlink:href="#dirArrow" transform="rotate(90) translate(36 -43)" onmousedown="handlePan(1,0)">
                  <use xlink:href="#rim" fill="#404040">
                        <set attributeName="fill" to="#808080" begin="arrowRight.mouseover" end="arrowRight.mouseout"/>
                  </use>
                  <path fill="none" stroke="white" stroke-width="1.5" d="M0,-3.0v7 M-2.5,-0.5L0,-3.0L2.5,-0.5"/>
                </g>
                <g id="arrowDown" xlink:href="#dirArrow" transform="rotate(180) translate(-30 -48)" onmousedown="handlePan(0,1)">
                  <use xlink:href="#rim" fill="#404040">
                        <set attributeName="fill" to="#808080" begin="arrowDown.mouseover" end="arrowDown.mouseout"/>
                  </use>
                  <path fill="none" stroke="white" stroke-width="1.5" d="M0,-3.0v7 M-2.5,-0.5L0,-3.0L2.5,-0.5"/>
                </g>
                <g id="arrowLeft" xlink:href="#dirArrow" transform="rotate(270) translate(-36 17)" onmousedown="handlePan(-1,0)">
                  <use xlink:href="#rim" fill="#404040">
                        <set attributeName="fill" to="#808080" begin="arrowLeft.mouseover" end="arrowLeft.mouseout"/>
                  </use>
                  <path fill="none" stroke="white" stroke-width="1.5" d="M0,-3.0v7 M-2.5,-0.5L0,-3.0L2.5,-0.5"/>
                </g>
        </g>
        <svg viewBox="0 0 15 15" width="100%" height="30px" preserveAspectRatio="xMaxYMin meet">
         <g id="arrow_out" transform="scale(0.3 0.3)">
          <a xlink:href="HistTools_8hpp__incl_org.svg" target="_base">
           <rect id="button" ry="5" rx="5" y="6" x="6" height="38" width="38"
                fill="#f2f5e9" fill-opacity="0.5" stroke="#606060" stroke-width="1.0"/>
           <path id="arrow"
             d="M 11.500037,31.436501 C 11.940474,20.09759 22.043105,11.32322 32.158766,21.979434 L 37.068811,17.246167 C 37.068811,17.246167 37.088388,32 37.088388,32 L 22.160133,31.978069 C 22.160133,31.978069 26.997745,27.140456 26.997745,27.140456 C 18.528582,18.264221 13.291696,25.230495 11.500037,31.436501 z"
             style="fill:#404040;"/>
          </a>
         </g>
        </svg>
</svg>
