<?xml version="1.0" encoding="UTF-8" standalone="no"?>
<!DOCTYPE svg PUBLIC "-//W3C//DTD SVG 1.1//EN"
 "http://www.w3.org/Graphics/SVG/1.1/DTD/svg11.dtd">
<!-- Generated by graphviz version 2.40.1 (20161225.0304)
 -->
<!-- Title: Graphical Class Hierarchy Pages: 1 -->
<svg width="403pt" height="78pt"
 viewBox="0.00 0.00 403.00 77.50" xmlns="http://www.w3.org/2000/svg" xmlns:xlink="http://www.w3.org/1999/xlink">
<g id="graph0" class="graph" transform="scale(1 1) rotate(0) translate(4 73.5)">
<title>Graphical Class Hierarchy</title>
<polygon fill="#ffffff" stroke="transparent" points="-4,4 -4,-73.5 399,-73.5 399,4 -4,4"/>
<!-- Node0 -->
<g id="node1" class="node">
<title>Node0</title>
<g id="a_node1"><a xlink:href="classComPWA_1_1UniformRealNumberGenerator.html" target="_top" xlink:title="ComPWA::UniformRealNumber\lGenerator">
<polygon fill="#ffffff" stroke="#000000" points="0,-17 0,-47 167,-47 167,-17 0,-17"/>
<text text-anchor="start" x="8" y="-35" font-family="Helvetica,sans-Serif" font-size="10.00" fill="#000000">ComPWA::UniformRealNumber</text>
<text text-anchor="middle" x="83.5" y="-24" font-family="Helvetica,sans-Serif" font-size="10.00" fill="#000000">Generator</text>
</a>
</g>
</g>
<!-- Node1 -->
<g id="node2" class="node">
<title>Node1</title>
<g id="a_node2"><a xlink:href="classComPWA_1_1Data_1_1Root_1_1RootUniformRealGenerator.html" target="_top" xlink:title="ComPWA::Data::Root\l::RootUniformRealGenerator">
<polygon fill="#ffffff" stroke="#000000" points="222,-39 222,-69 376,-69 376,-39 222,-39"/>
<text text-anchor="start" x="230" y="-57" font-family="Helvetica,sans-Serif" font-size="10.00" fill="#000000">ComPWA::Data::Root</text>
<text text-anchor="middle" x="299" y="-46" font-family="Helvetica,sans-Serif" font-size="10.00" fill="#000000">::RootUniformRealGenerator</text>
</a>
</g>
</g>
<!-- Node0&#45;&gt;Node1 -->
<g id="edge1" class="edge">
<title>Node0&#45;&gt;Node1</title>
<path fill="none" stroke="#191970" d="M177.3275,-41.5787C192.1657,-43.0935 207.362,-44.6448 221.7655,-46.1153"/>
<polygon fill="#191970" stroke="#191970" points="177.4302,-38.0711 167.1264,-40.5373 176.7192,-45.0349 177.4302,-38.0711"/>
</g>
<!-- Node2 -->
<g id="node3" class="node">
<title>Node2</title>
<g id="a_node3"><a xlink:href="classComPWA_1_1StdUniformRealGenerator.html" target="_top" xlink:title="ComPWA::StdUniformRealGenerator">
<polygon fill="#ffffff" stroke="#000000" points="203,-.5 203,-19.5 395,-19.5 395,-.5 203,-.5"/>
<text text-anchor="middle" x="299" y="-7.5" font-family="Helvetica,sans-Serif" font-size="10.00" fill="#000000">ComPWA::StdUniformRealGenerator</text>
</a>
</g>
</g>
<!-- Node0&#45;&gt;Node2 -->
<g id="edge2" class="edge">
<title>Node0&#45;&gt;Node2</title>
<path fill="none" stroke="#191970" d="M177.2994,-22.4242C186.74,-21.4604 196.3259,-20.4818 205.7607,-19.5186"/>
<polygon fill="#191970" stroke="#191970" points="176.7192,-18.9651 167.1264,-23.4627 177.4302,-25.9289 176.7192,-18.9651"/>
</g>
</g>
</svg>
