<?xml version="1.0" encoding="UTF-8" standalone="no"?>
<!DOCTYPE svg PUBLIC "-//W3C//DTD SVG 1.1//EN"
 "http://www.w3.org/Graphics/SVG/1.1/DTD/svg11.dtd">
<!-- Generated by graphviz version 2.38.0 (20140413.2041)
 -->
<!-- Title: Graphical Class Hierarchy Pages: 1 -->
<svg width="512pt" height="118pt"
 viewBox="0.00 0.00 512.00 117.50" xmlns="http://www.w3.org/2000/svg" xmlns:xlink="http://www.w3.org/1999/xlink">
<g id="graph0" class="graph" transform="scale(1 1) rotate(0) translate(4 113.5)">
<title>Graphical Class Hierarchy</title>
<polygon fill="white" stroke="none" points="-4,4 -4,-113.5 508,-113.5 508,4 -4,4"/>
<!-- Node1 -->
<g id="node1" class="node"><title>Node1</title>
<g id="a_node1"><a xlink:href="d6/db3/classComPWA_1_1QFT_1_1Tensor__Base.html" target="_top" xlink:title="Base class for all Tensor template classes. ">
<polygon fill="white" stroke="black" points="0,-59.5 0,-78.5 149,-78.5 149,-59.5 0,-59.5"/>
<text text-anchor="middle" x="74.5" y="-66.5" font-family="Helvetica,sans-Serif" font-size="10.00">ComPWA::QFT::Tensor_Base</text>
</a>
</g>
</g>
<!-- Node2 -->
<g id="node2" class="node"><title>Node2</title>
<g id="a_node2"><a xlink:href="df/d6d/classComPWA_1_1QFT_1_1Tensor.html" target="_top" xlink:title="General template class for handling tensors and tensor operations. ">
<polygon fill="white" stroke="black" points="185,-79 185,-109 304,-109 304,-79 185,-79"/>
<text text-anchor="start" x="193" y="-97" font-family="Helvetica,sans-Serif" font-size="10.00">ComPWA::QFT::Tensor</text>
<text text-anchor="middle" x="244.5" y="-86" font-family="Helvetica,sans-Serif" font-size="10.00">&lt; _Tp &gt;</text>
</a>
</g>
</g>
<!-- Node1&#45;&gt;Node2 -->
<g id="edge1" class="edge"><title>Node1&#45;&gt;Node2</title>
<path fill="none" stroke="midnightblue" d="M149.397,-79.9966C161.291,-81.7664 173.458,-83.5771 184.927,-85.2838"/>
<polygon fill="midnightblue" stroke="midnightblue" points="149.899,-76.5328 139.493,-78.5227 148.869,-83.4566 149.899,-76.5328"/>
</g>
<!-- Node4 -->
<g id="node4" class="node"><title>Node4</title>
<g id="a_node4"><a xlink:href="df/d6d/classComPWA_1_1QFT_1_1Tensor.html" target="_top" xlink:title="ComPWA::QFT::Tensor\l\&lt; double \&gt;">
<polygon fill="white" stroke="black" points="185,-30 185,-60 304,-60 304,-30 185,-30"/>
<text text-anchor="start" x="193" y="-48" font-family="Helvetica,sans-Serif" font-size="10.00">ComPWA::QFT::Tensor</text>
<text text-anchor="middle" x="244.5" y="-37" font-family="Helvetica,sans-Serif" font-size="10.00">&lt; double &gt;</text>
</a>
</g>
</g>
<!-- Node1&#45;&gt;Node4 -->
<g id="edge3" class="edge"><title>Node1&#45;&gt;Node4</title>
<path fill="none" stroke="midnightblue" d="M152.378,-58.0174C163.337,-56.4519 174.459,-54.863 184.99,-53.3585"/>
<polygon fill="midnightblue" stroke="midnightblue" points="151.785,-54.5665 142.381,-59.4456 152.775,-61.4961 151.785,-54.5665"/>
</g>
<!-- Node3 -->
<g id="node3" class="node"><title>Node3</title>
<g id="a_node3"><a xlink:href="d5/d3e/classComPWA_1_1QFT_1_1Vector4.html" target="_top" xlink:title=" : 4&#45;vectors and 4&#45;momenta. ">
<polygon fill="white" stroke="black" points="359.5,-79 359.5,-109 484.5,-109 484.5,-79 359.5,-79"/>
<text text-anchor="start" x="367.5" y="-97" font-family="Helvetica,sans-Serif" font-size="10.00">ComPWA::QFT::Vector4</text>
<text text-anchor="middle" x="422" y="-86" font-family="Helvetica,sans-Serif" font-size="10.00">&lt; _Tp &gt;</text>
</a>
</g>
</g>
<!-- Node2&#45;&gt;Node3 -->
<g id="edge2" class="edge"><title>Node2&#45;&gt;Node3</title>
<path fill="none" stroke="midnightblue" d="M314.504,-94C329.262,-94 344.762,-94 359.227,-94"/>
<polygon fill="midnightblue" stroke="midnightblue" points="314.427,-90.5001 304.427,-94 314.427,-97.5001 314.427,-90.5001"/>
</g>
<!-- Node5 -->
<g id="node5" class="node"><title>Node5</title>
<g id="a_node5"><a xlink:href="d3/d72/classComPWA_1_1QFT_1_1LeviCivitaTensor.html" target="_top" xlink:title=" : Totally anti&#45;symmetric Levi&#45;Civita tensor ">
<polygon fill="white" stroke="black" points="340,-38.5 340,-57.5 504,-57.5 504,-38.5 340,-38.5"/>
<text text-anchor="middle" x="422" y="-45.5" font-family="Helvetica,sans-Serif" font-size="10.00">ComPWA::QFT::LeviCivitaTensor</text>
</a>
</g>
</g>
<!-- Node4&#45;&gt;Node5 -->
<g id="edge4" class="edge"><title>Node4&#45;&gt;Node5</title>
<path fill="none" stroke="midnightblue" d="M314.432,-46.1783C322.747,-46.3205 331.299,-46.4667 339.77,-46.6115"/>
<polygon fill="midnightblue" stroke="midnightblue" points="314.486,-42.6788 304.427,-46.0073 314.366,-49.6778 314.486,-42.6788"/>
</g>
<!-- Node6 -->
<g id="node6" class="node"><title>Node6</title>
<g id="a_node6"><a xlink:href="dc/dfa/classComPWA_1_1QFT_1_1MetricTensor.html" target="_top" xlink:title=" : The metric tensor for Minkowski space. ">
<polygon fill="white" stroke="black" points="347.5,-0.5 347.5,-19.5 496.5,-19.5 496.5,-0.5 347.5,-0.5"/>
<text text-anchor="middle" x="422" y="-7.5" font-family="Helvetica,sans-Serif" font-size="10.00">ComPWA::QFT::MetricTensor</text>
</a>
</g>
</g>
<!-- Node4&#45;&gt;Node6 -->
<g id="edge5" class="edge"><title>Node4&#45;&gt;Node6</title>
<path fill="none" stroke="midnightblue" d="M314.298,-31.2796C334.041,-27.3422 355.128,-23.1369 373.298,-19.5132"/>
<polygon fill="midnightblue" stroke="midnightblue" points="313.55,-27.8599 304.427,-33.2481 314.919,-34.7247 313.55,-27.8599"/>
</g>
</g>
</svg>
