<?xml version="1.0" encoding="UTF-8" standalone="no"?>
<!DOCTYPE svg PUBLIC "-//W3C//DTD SVG 1.1//EN"
 "http://www.w3.org/Graphics/SVG/1.1/DTD/svg11.dtd">
<!-- Generated by graphviz version 2.38.0 (20140413.2041)
 -->
<!-- Title: Graphical Class Hierarchy Pages: 1 -->
<svg width="435pt" height="78pt"
 viewBox="0.00 0.00 435.00 77.50" xmlns="http://www.w3.org/2000/svg" xmlns:xlink="http://www.w3.org/1999/xlink">
<g id="graph0" class="graph" transform="scale(1 1) rotate(0) translate(4 73.5)">
<title>Graphical Class Hierarchy</title>
<polygon fill="white" stroke="none" points="-4,4 -4,-73.5 431,-73.5 431,4 -4,4"/>
<!-- Node1 -->
<g id="node1" class="node"><title>Node1</title>
<g id="a_node1"><a xlink:href="classComPWA_1_1Efficiency.html" target="_top" xlink:title="Base class for efficiency description over the phase space. ">
<polygon fill="white" stroke="black" points="0,-22.5 0,-41.5 110,-41.5 110,-22.5 0,-22.5"/>
<text text-anchor="middle" x="55" y="-29.5" font-family="Helvetica,sans-Serif" font-size="10.00">ComPWA::Efficiency</text>
</a>
</g>
</g>
<!-- Node2 -->
<g id="node2" class="node"><title>Node2</title>
<g id="a_node2"><a xlink:href="classComPWA_1_1Data_1_1Root_1_1RootEfficiency.html" target="_top" xlink:title="Efficiency provided by a histogram. ">
<polygon fill="white" stroke="black" points="152.5,-39 152.5,-69 268.5,-69 268.5,-39 152.5,-39"/>
<text text-anchor="start" x="160.5" y="-57" font-family="Helvetica,sans-Serif" font-size="10.00">ComPWA::Data::Root</text>
<text text-anchor="middle" x="210.5" y="-46" font-family="Helvetica,sans-Serif" font-size="10.00">::RootEfficiency</text>
</a>
</g>
</g>
<!-- Node1&#45;&gt;Node2 -->
<g id="edge1" class="edge"><title>Node1&#45;&gt;Node2</title>
<path fill="none" stroke="midnightblue" d="M120.248,-41.2082C130.95,-42.742 141.984,-44.3235 152.49,-45.8291"/>
<polygon fill="midnightblue" stroke="midnightblue" points="120.514,-37.7106 110.118,-39.7564 119.521,-44.6398 120.514,-37.7106"/>
</g>
<!-- Node4 -->
<g id="node4" class="node"><title>Node4</title>
<g id="a_node4"><a xlink:href="classComPWA_1_1UnitEfficiency.html" target="_top" xlink:title="Efficiency object with unit efficiency all over the phase space. ">
<polygon fill="white" stroke="black" points="146,-0.5 146,-19.5 275,-19.5 275,-0.5 146,-0.5"/>
<text text-anchor="middle" x="210.5" y="-7.5" font-family="Helvetica,sans-Serif" font-size="10.00">ComPWA::UnitEfficiency</text>
</a>
</g>
</g>
<!-- Node1&#45;&gt;Node4 -->
<g id="edge3" class="edge"><title>Node1&#45;&gt;Node4</title>
<path fill="none" stroke="midnightblue" d="M120.03,-22.8231C128.58,-21.5977 137.347,-20.3412 145.89,-19.1167"/>
<polygon fill="midnightblue" stroke="midnightblue" points="119.521,-19.3602 110.118,-24.2436 120.514,-26.2894 119.521,-19.3602"/>
</g>
<!-- Node3 -->
<g id="node3" class="node"><title>Node3</title>
<g id="a_node3"><a xlink:href="classComPWA_1_1Data_1_1Root_1_1RootAngleEfficiency.html" target="_top" xlink:title="Uses also TEfficiency object, but the variables are one invariant mass and the corresponding helicity...">
<polygon fill="white" stroke="black" points="311,-39 311,-69 427,-69 427,-39 311,-39"/>
<text text-anchor="start" x="319" y="-57" font-family="Helvetica,sans-Serif" font-size="10.00">ComPWA::Data::Root</text>
<text text-anchor="middle" x="369" y="-46" font-family="Helvetica,sans-Serif" font-size="10.00">::RootAngleEfficiency</text>
</a>
</g>
</g>
<!-- Node2&#45;&gt;Node3 -->
<g id="edge2" class="edge"><title>Node2&#45;&gt;Node3</title>
<path fill="none" stroke="midnightblue" d="M278.973,-54C289.607,-54 300.512,-54 310.882,-54"/>
<polygon fill="midnightblue" stroke="midnightblue" points="278.886,-50.5001 268.886,-54 278.886,-57.5001 278.886,-50.5001"/>
</g>
</g>
</svg>
