<?xml version="1.0" encoding="UTF-8" standalone="no"?>
<!DOCTYPE svg PUBLIC "-//W3C//DTD SVG 1.1//EN"
 "http://www.w3.org/Graphics/SVG/1.1/DTD/svg11.dtd">
<!-- Generated by graphviz version 2.38.0 (20140413.2041)
 -->
<!-- Title: Graphical Class Hierarchy Pages: 1 -->
<svg width="306pt" height="78pt"
 viewBox="0.00 0.00 306.00 77.50" xmlns="http://www.w3.org/2000/svg" xmlns:xlink="http://www.w3.org/1999/xlink">
<g id="graph0" class="graph" transform="scale(1 1) rotate(0) translate(4 73.5)">
<title>Graphical Class Hierarchy</title>
<polygon fill="white" stroke="none" points="-4,4 -4,-73.5 302,-73.5 302,4 -4,4"/>
<!-- Node1 -->
<g id="node1" class="node"><title>Node1</title>
<polygon fill="white" stroke="#bfbfbf" points="0,-50 0,-69 137,-69 137,-50 0,-50"/>
<text text-anchor="middle" x="68.5" y="-57" font-family="Helvetica,sans-Serif" font-size="10.00">enable_shared_from_this</text>
</g>
<!-- Node2 -->
<g id="node2" class="node"><title>Node2</title>
<g id="a_node2"><a xlink:href="df/d95/classComPWA_1_1FunctionTree_1_1TreeNode.html" target="_top" xlink:title="interface for elements of the FunctionTree This class acts as a container for a parameter in a functi...">
<polygon fill="white" stroke="black" points="173,-22.5 173,-52.5 298,-52.5 298,-22.5 173,-22.5"/>
<text text-anchor="start" x="181" y="-40.5" font-family="Helvetica,sans-Serif" font-size="10.00">ComPWA::FunctionTree</text>
<text text-anchor="middle" x="235.5" y="-29.5" font-family="Helvetica,sans-Serif" font-size="10.00">::TreeNode</text>
</a>
</g>
</g>
<!-- Node1&#45;&gt;Node2 -->
<g id="edge1" class="edge"><title>Node1&#45;&gt;Node2</title>
<path fill="none" stroke="midnightblue" d="M147.153,-49.1463C155.774,-47.9968 164.466,-46.8379 172.85,-45.72"/>
<polygon fill="midnightblue" stroke="midnightblue" points="146.538,-45.6973 137.088,-50.4883 147.463,-52.6359 146.538,-45.6973"/>
</g>
<!-- Node3 -->
<g id="node3" class="node"><title>Node3</title>
<g id="a_node3"><a xlink:href="d0/d5c/classComPWA_1_1FunctionTree_1_1ParObserver.html" target="_top" xlink:title="parameter observer. ">
<polygon fill="white" stroke="black" points="6,-0.5 6,-30.5 131,-30.5 131,-0.5 6,-0.5"/>
<text text-anchor="start" x="14" y="-18.5" font-family="Helvetica,sans-Serif" font-size="10.00">ComPWA::FunctionTree</text>
<text text-anchor="middle" x="68.5" y="-7.5" font-family="Helvetica,sans-Serif" font-size="10.00">::ParObserver</text>
</a>
</g>
</g>
<!-- Node3&#45;&gt;Node2 -->
<g id="edge2" class="edge"><title>Node3&#45;&gt;Node2</title>
<path fill="none" stroke="midnightblue" d="M141.359,-25.0812C151.834,-26.4779 162.542,-27.9057 172.792,-29.2723"/>
<polygon fill="midnightblue" stroke="midnightblue" points="141.784,-21.607 131.409,-23.7546 140.859,-28.5456 141.784,-21.607"/>
</g>
</g>
</svg>
