<?xml version="1.0" encoding="UTF-8" standalone="no"?>
<!DOCTYPE svg PUBLIC "-//W3C//DTD SVG 1.1//EN"
 "http://www.w3.org/Graphics/SVG/1.1/DTD/svg11.dtd">
<!-- Generated by graphviz version 2.38.0 (20140413.2041)
 -->
<!-- Title: Graphical Class Hierarchy Pages: 1 -->
<svg width="334pt" height="127pt"
 viewBox="0.00 0.00 334.00 126.50" xmlns="http://www.w3.org/2000/svg" xmlns:xlink="http://www.w3.org/1999/xlink">
<g id="graph0" class="graph" transform="scale(1 1) rotate(0) translate(4 122.5)">
<title>Graphical Class Hierarchy</title>
<polygon fill="white" stroke="none" points="-4,4 -4,-122.5 330,-122.5 330,4 -4,4"/>
<!-- Node1 -->
<g id="node1" class="node"><title>Node1</title>
<g id="a_node1"><a xlink:href="d5/d88/classComPWA_1_1Function.html" target="_top" xlink:title="Interface template for a general Function of the form OutputType Function(InputTypes) The concept clo...">
<polygon fill="white" stroke="black" points="0,-39 0,-69 149,-69 149,-39 0,-39"/>
<text text-anchor="start" x="8" y="-57" font-family="Helvetica,sans-Serif" font-size="10.00">ComPWA::Function&lt; Output</text>
<text text-anchor="middle" x="74.5" y="-46" font-family="Helvetica,sans-Serif" font-size="10.00">Type, InputTypes &gt;</text>
</a>
</g>
</g>
<!-- Node2 -->
<g id="node2" class="node"><title>Node2</title>
<g id="a_node2"><a xlink:href="db/dc1/classComPWA_1_1FunctionTree_1_1FunctionTreeIntensity.html" target="_top" xlink:title="ComPWA::FunctionTree\l::FunctionTreeIntensity">
<polygon fill="white" stroke="black" points="193,-88 193,-118 318,-118 318,-88 193,-88"/>
<text text-anchor="start" x="201" y="-106" font-family="Helvetica,sans-Serif" font-size="10.00">ComPWA::FunctionTree</text>
<text text-anchor="middle" x="255.5" y="-95" font-family="Helvetica,sans-Serif" font-size="10.00">::FunctionTreeIntensity</text>
</a>
</g>
</g>
<!-- Node1&#45;&gt;Node2 -->
<g id="edge1" class="edge"><title>Node1&#45;&gt;Node2</title>
<path fill="none" stroke="midnightblue" d="M140.336,-71.7485C159.736,-77.0591 180.813,-82.8288 199.516,-87.9484"/>
<polygon fill="midnightblue" stroke="midnightblue" points="141.236,-68.366 130.666,-69.1014 139.388,-75.1176 141.236,-68.366"/>
</g>
<!-- Node3 -->
<g id="node3" class="node"><title>Node3</title>
<g id="a_node3"><a xlink:href="df/dad/classComPWA_1_1Physics_1_1EvtGen_1_1EvtGenIF.html" target="_top" xlink:title="ComPWA::Physics::EvtGen\l::EvtGenIF">
<polygon fill="white" stroke="black" points="185,-39 185,-69 326,-69 326,-39 185,-39"/>
<text text-anchor="start" x="193" y="-57" font-family="Helvetica,sans-Serif" font-size="10.00">ComPWA::Physics::EvtGen</text>
<text text-anchor="middle" x="255.5" y="-46" font-family="Helvetica,sans-Serif" font-size="10.00">::EvtGenIF</text>
</a>
</g>
</g>
<!-- Node1&#45;&gt;Node3 -->
<g id="edge2" class="edge"><title>Node1&#45;&gt;Node3</title>
<path fill="none" stroke="midnightblue" d="M159.16,-54C167.792,-54 176.495,-54 184.949,-54"/>
<polygon fill="midnightblue" stroke="midnightblue" points="159.081,-50.5001 149.081,-54 159.081,-57.5001 159.081,-50.5001"/>
</g>
<!-- Node4 -->
<g id="node4" class="node"><title>Node4</title>
<g id="a_node4"><a xlink:href="d8/daa/classGaussian.html" target="_top" xlink:title="Gaussian">
<polygon fill="white" stroke="black" points="225,-0.5 225,-19.5 286,-19.5 286,-0.5 225,-0.5"/>
<text text-anchor="middle" x="255.5" y="-7.5" font-family="Helvetica,sans-Serif" font-size="10.00">Gaussian</text>
</a>
</g>
</g>
<!-- Node1&#45;&gt;Node4 -->
<g id="edge3" class="edge"><title>Node1&#45;&gt;Node4</title>
<path fill="none" stroke="midnightblue" d="M146.519,-36.5427C173.788,-29.8398 203.45,-22.5485 224.774,-17.307"/>
<polygon fill="midnightblue" stroke="midnightblue" points="145.476,-33.1948 136.601,-38.9808 147.147,-39.9925 145.476,-33.1948"/>
</g>
</g>
</svg>
