<?xml version="1.0" encoding="UTF-8" standalone="no"?>
<!DOCTYPE svg PUBLIC "-//W3C//DTD SVG 1.1//EN"
 "http://www.w3.org/Graphics/SVG/1.1/DTD/svg11.dtd">
<!-- Generated by graphviz version 2.38.0 (20140413.2041)
 -->
<!-- Title: Graphical Class Hierarchy Pages: 1 -->
<svg width="495pt" height="263pt"
 viewBox="0.00 0.00 495.00 262.50" xmlns="http://www.w3.org/2000/svg" xmlns:xlink="http://www.w3.org/1999/xlink">
<g id="graph0" class="graph" transform="scale(1 1) rotate(0) translate(4 258.5)">
<title>Graphical Class Hierarchy</title>
<polygon fill="white" stroke="none" points="-4,4 -4,-258.5 491,-258.5 491,4 -4,4"/>
<!-- Node1 -->
<g id="node1" class="node"><title>Node1</title>
<g id="a_node1"><a xlink:href="d5/d88/classComPWA_1_1Function.html" target="_top" xlink:title="ComPWA::Function\&lt; double \&gt;">
<polygon fill="white" stroke="black" points="0,-106.5 0,-125.5 160,-125.5 160,-106.5 0,-106.5"/>
<text text-anchor="middle" x="80" y="-113.5" font-family="Helvetica,sans-Serif" font-size="10.00">ComPWA::Function&lt; double &gt;</text>
</a>
</g>
</g>
<!-- Node2 -->
<g id="node2" class="node"><title>Node2</title>
<g id="a_node2"><a xlink:href="d8/dec/classComPWA_1_1Estimator_1_1Estimator.html" target="_top" xlink:title="ComPWA::Estimator::\lEstimator\&lt; double \&gt;">
<polygon fill="white" stroke="black" points="196,-101 196,-131 314,-131 314,-101 196,-101"/>
<text text-anchor="start" x="204" y="-119" font-family="Helvetica,sans-Serif" font-size="10.00">ComPWA::Estimator::</text>
<text text-anchor="middle" x="255" y="-108" font-family="Helvetica,sans-Serif" font-size="10.00">Estimator&lt; double &gt;</text>
</a>
</g>
</g>
<!-- Node1&#45;&gt;Node2 -->
<g id="edge1" class="edge"><title>Node1&#45;&gt;Node2</title>
<path fill="none" stroke="midnightblue" d="M170.317,-116C178.974,-116 187.593,-116 195.827,-116"/>
<polygon fill="midnightblue" stroke="midnightblue" points="170.159,-112.5 160.159,-116 170.159,-119.5 170.159,-112.5"/>
</g>
<!-- Node3 -->
<g id="node3" class="node"><title>Node3</title>
<g id="a_node3"><a xlink:href="d9/ddf/classComPWA_1_1Estimator_1_1ChiOneD_1_1ChiOneD.html" target="_top" xlink:title="ComPWA::Estimator::\lChiOneD::ChiOneD">
<polygon fill="white" stroke="black" points="359.5,-224 359.5,-254 477.5,-254 477.5,-224 359.5,-224"/>
<text text-anchor="start" x="367.5" y="-242" font-family="Helvetica,sans-Serif" font-size="10.00">ComPWA::Estimator::</text>
<text text-anchor="middle" x="418.5" y="-231" font-family="Helvetica,sans-Serif" font-size="10.00">ChiOneD::ChiOneD</text>
</a>
</g>
</g>
<!-- Node2&#45;&gt;Node3 -->
<g id="edge2" class="edge"><title>Node2&#45;&gt;Node3</title>
<path fill="none" stroke="midnightblue" d="M272.969,-139.433C290.148,-161.652 318.599,-194.586 350,-215 355.214,-218.39 360.966,-221.371 366.847,-223.973"/>
<polygon fill="midnightblue" stroke="midnightblue" points="275.568,-137.068 266.743,-131.206 269.986,-141.292 275.568,-137.068"/>
</g>
<!-- Node4 -->
<g id="node4" class="node"><title>Node4</title>
<g id="a_node4"><a xlink:href="d5/d71/classComPWA_1_1Estimator_1_1MinLogLH.html" target="_top" xlink:title="Negative Log Likelihood&#45;Estimator. ">
<polygon fill="white" stroke="black" points="359.5,-175 359.5,-205 477.5,-205 477.5,-175 359.5,-175"/>
<text text-anchor="start" x="367.5" y="-193" font-family="Helvetica,sans-Serif" font-size="10.00">ComPWA::Estimator::</text>
<text text-anchor="middle" x="418.5" y="-182" font-family="Helvetica,sans-Serif" font-size="10.00">MinLogLH</text>
</a>
</g>
</g>
<!-- Node2&#45;&gt;Node4 -->
<g id="edge3" class="edge"><title>Node2&#45;&gt;Node4</title>
<path fill="none" stroke="midnightblue" d="M290.56,-135.955C308.066,-145.657 329.836,-157.11 350,-166 357.056,-169.111 364.653,-172.122 372.116,-174.901"/>
<polygon fill="midnightblue" stroke="midnightblue" points="292.26,-132.896 281.824,-131.064 288.84,-139.004 292.26,-132.896"/>
</g>
<!-- Node5 -->
<g id="node5" class="node"><title>Node5</title>
<g id="a_node5"><a xlink:href="d2/d37/classComPWA_1_1Estimator_1_1SumMinLogLH.html" target="_top" xlink:title="Calculates the combined likelihood of multiple MinLogLH. ">
<polygon fill="white" stroke="black" points="359.5,-126 359.5,-156 477.5,-156 477.5,-126 359.5,-126"/>
<text text-anchor="start" x="367.5" y="-144" font-family="Helvetica,sans-Serif" font-size="10.00">ComPWA::Estimator::</text>
<text text-anchor="middle" x="418.5" y="-133" font-family="Helvetica,sans-Serif" font-size="10.00">SumMinLogLH</text>
</a>
</g>
</g>
<!-- Node2&#45;&gt;Node5 -->
<g id="edge4" class="edge"><title>Node2&#45;&gt;Node5</title>
<path fill="none" stroke="midnightblue" d="M324.393,-126.587C336.004,-128.384 347.963,-130.236 359.28,-131.988"/>
<polygon fill="midnightblue" stroke="midnightblue" points="324.723,-123.097 314.305,-125.026 323.652,-130.014 324.723,-123.097"/>
</g>
<!-- Node6 -->
<g id="node6" class="node"><title>Node6</title>
<g id="a_node6"><a xlink:href="da/d47/classComPWA_1_1FunctionTree_1_1FunctionTreeEstimator.html" target="_top" xlink:title="ComPWA::FunctionTree\l::FunctionTreeEstimator">
<polygon fill="white" stroke="black" points="354.5,-77 354.5,-107 482.5,-107 482.5,-77 354.5,-77"/>
<text text-anchor="start" x="362.5" y="-95" font-family="Helvetica,sans-Serif" font-size="10.00">ComPWA::FunctionTree</text>
<text text-anchor="middle" x="418.5" y="-84" font-family="Helvetica,sans-Serif" font-size="10.00">::FunctionTreeEstimator</text>
</a>
</g>
</g>
<!-- Node2&#45;&gt;Node6 -->
<g id="edge5" class="edge"><title>Node2&#45;&gt;Node6</title>
<path fill="none" stroke="midnightblue" d="M324.198,-105.865C334.202,-104.379 344.47,-102.853 354.366,-101.382"/>
<polygon fill="midnightblue" stroke="midnightblue" points="323.682,-102.403 314.305,-107.335 324.711,-109.327 323.682,-102.403"/>
</g>
<!-- Node7 -->
<g id="node7" class="node"><title>Node7</title>
<g id="a_node7"><a xlink:href="d5/d4b/classFunctionRootEstimator.html" target="_top" xlink:title="FunctionRootEstimator">
<polygon fill="white" stroke="black" points="356.5,-38.5 356.5,-57.5 480.5,-57.5 480.5,-38.5 356.5,-38.5"/>
<text text-anchor="middle" x="418.5" y="-45.5" font-family="Helvetica,sans-Serif" font-size="10.00">FunctionRootEstimator</text>
</a>
</g>
</g>
<!-- Node2&#45;&gt;Node7 -->
<g id="edge6" class="edge"><title>Node2&#45;&gt;Node7</title>
<path fill="none" stroke="midnightblue" d="M291.685,-95.8147C308.951,-86.5607 330.187,-75.9157 350,-68 359.761,-64.1003 370.582,-60.5636 380.648,-57.5862"/>
<polygon fill="midnightblue" stroke="midnightblue" points="289.651,-92.9365 282.536,-100.787 292.994,-99.0871 289.651,-92.9365"/>
</g>
<!-- Node8 -->
<g id="node8" class="node"><title>Node8</title>
<g id="a_node8"><a xlink:href="d8/dde/classFunctionRootEstimator1D.html" target="_top" xlink:title="FunctionRootEstimator1D">
<polygon fill="white" stroke="black" points="350,-0.5 350,-19.5 487,-19.5 487,-0.5 350,-0.5"/>
<text text-anchor="middle" x="418.5" y="-7.5" font-family="Helvetica,sans-Serif" font-size="10.00">FunctionRootEstimator1D</text>
</a>
</g>
</g>
<!-- Node2&#45;&gt;Node8 -->
<g id="edge7" class="edge"><title>Node2&#45;&gt;Node8</title>
<path fill="none" stroke="midnightblue" d="M275.014,-93.1289C292.564,-73.4284 320.331,-45.6177 350,-29 356.798,-25.1926 364.415,-22.1013 372.018,-19.6062"/>
<polygon fill="midnightblue" stroke="midnightblue" points="272.296,-90.921 268.364,-100.759 277.573,-95.5202 272.296,-90.921"/>
</g>
</g>
</svg>
