<?xml version="1.0" encoding="UTF-8" standalone="no"?>
<!DOCTYPE svg PUBLIC "-//W3C//DTD SVG 1.1//EN"
 "http://www.w3.org/Graphics/SVG/1.1/DTD/svg11.dtd">
<!-- Generated by graphviz version 2.38.0 (20140413.2041)
 -->
<!-- Title: /home/travis/build/ComPWA/ComPWA/ThirdParty/tbb/examples/parallel_for/tachyon/src/intersect.cpp Pages: 1 -->
<svg width="497pt" height="229pt"
 viewBox="0.00 0.00 496.50 229.00" xmlns="http://www.w3.org/2000/svg" xmlns:xlink="http://www.w3.org/1999/xlink">
<g id="graph0" class="graph" transform="scale(1 1) rotate(0) translate(4 225)">
<title>/home/travis/build/ComPWA/ComPWA/ThirdParty/tbb/examples/parallel_for/tachyon/src/intersect.cpp</title>
<polygon fill="white" stroke="none" points="-4,4 -4,-225 492.5,-225 492.5,4 -4,4"/>
<!-- Node1 -->
<g id="node1" class="node"><title>Node1</title>
<polygon fill="#bfbfbf" stroke="black" points="180.5,-168.5 180.5,-220.5 338.5,-220.5 338.5,-168.5 180.5,-168.5"/>
<text text-anchor="start" x="188.5" y="-208.5" font-family="Helvetica,sans-Serif" font-size="10.00">/home/travis/build</text>
<text text-anchor="start" x="188.5" y="-197.5" font-family="Helvetica,sans-Serif" font-size="10.00">/ComPWA/ComPWA/ThirdParty</text>
<text text-anchor="start" x="188.5" y="-186.5" font-family="Helvetica,sans-Serif" font-size="10.00">/tbb/examples/parallel_for</text>
<text text-anchor="middle" x="259.5" y="-175.5" font-family="Helvetica,sans-Serif" font-size="10.00">/tachyon/src/intersect.cpp</text>
</g>
<!-- Node2 -->
<g id="node2" class="node"><title>Node2</title>
<g id="a_node2"><a xlink:href="machine_8h.html" target="_top" xlink:title="machine.h">
<polygon fill="white" stroke="black" points="195,-56.5 195,-75.5 262,-75.5 262,-56.5 195,-56.5"/>
<text text-anchor="middle" x="228.5" y="-63.5" font-family="Helvetica,sans-Serif" font-size="10.00">machine.h</text>
</a>
</g>
</g>
<!-- Node1&#45;&gt;Node2 -->
<g id="edge1" class="edge"><title>Node1&#45;&gt;Node2</title>
<path fill="none" stroke="midnightblue" d="M212.259,-168.228C199.226,-158.728 186.699,-146.615 179.5,-132 170.141,-113 188.535,-93.9681 205.394,-81.4541"/>
<polygon fill="midnightblue" stroke="midnightblue" points="207.696,-84.1166 213.915,-75.5389 203.705,-78.3662 207.696,-84.1166"/>
</g>
<!-- Node10 -->
<g id="node10" class="node"><title>Node10</title>
<g id="a_node10"><a xlink:href="types_8h.html" target="_top" xlink:title="types.h">
<polygon fill="white" stroke="black" points="80.5,-112.5 80.5,-131.5 132.5,-131.5 132.5,-112.5 80.5,-112.5"/>
<text text-anchor="middle" x="106.5" y="-119.5" font-family="Helvetica,sans-Serif" font-size="10.00">types.h</text>
</a>
</g>
</g>
<!-- Node1&#45;&gt;Node10 -->
<g id="edge9" class="edge"><title>Node1&#45;&gt;Node10</title>
<path fill="none" stroke="midnightblue" d="M205.127,-168.446C181.173,-157.408 154.053,-144.912 134.322,-135.82"/>
<polygon fill="midnightblue" stroke="midnightblue" points="135.552,-132.533 125.005,-131.527 132.623,-138.891 135.552,-132.533"/>
</g>
<!-- Node12 -->
<g id="node12" class="node"><title>Node12</title>
<g id="a_node12"><a xlink:href="intersect_8h.html" target="_top" xlink:title="intersect.h">
<polygon fill="white" stroke="black" points="188.5,-112.5 188.5,-131.5 256.5,-131.5 256.5,-112.5 188.5,-112.5"/>
<text text-anchor="middle" x="222.5" y="-119.5" font-family="Helvetica,sans-Serif" font-size="10.00">intersect.h</text>
</a>
</g>
</g>
<!-- Node1&#45;&gt;Node12 -->
<g id="edge11" class="edge"><title>Node1&#45;&gt;Node12</title>
<path fill="none" stroke="midnightblue" d="M246.351,-168.446C241.514,-159.229 236.143,-148.995 231.724,-140.576"/>
<polygon fill="midnightblue" stroke="midnightblue" points="234.81,-138.924 227.064,-131.695 228.612,-142.177 234.81,-138.924"/>
</g>
<!-- Node13 -->
<g id="node13" class="node"><title>Node13</title>
<g id="a_node13"><a xlink:href="light_8h.html" target="_top" xlink:title="light.h">
<polygon fill="white" stroke="black" points="274.5,-112.5 274.5,-131.5 320.5,-131.5 320.5,-112.5 274.5,-112.5"/>
<text text-anchor="middle" x="297.5" y="-119.5" font-family="Helvetica,sans-Serif" font-size="10.00">light.h</text>
</a>
</g>
</g>
<!-- Node1&#45;&gt;Node13 -->
<g id="edge12" class="edge"><title>Node1&#45;&gt;Node13</title>
<path fill="none" stroke="midnightblue" d="M273.004,-168.446C277.972,-159.229 283.488,-148.995 288.027,-140.576"/>
<polygon fill="midnightblue" stroke="midnightblue" points="291.149,-142.159 292.813,-131.695 284.987,-138.838 291.149,-142.159"/>
</g>
<!-- Node14 -->
<g id="node14" class="node"><title>Node14</title>
<g id="a_node14"><a xlink:href="util_8h.html" target="_top" xlink:title="util.h">
<polygon fill="white" stroke="black" points="338.5,-112.5 338.5,-131.5 378.5,-131.5 378.5,-112.5 338.5,-112.5"/>
<text text-anchor="middle" x="358.5" y="-119.5" font-family="Helvetica,sans-Serif" font-size="10.00">util.h</text>
</a>
</g>
</g>
<!-- Node1&#45;&gt;Node14 -->
<g id="edge13" class="edge"><title>Node1&#45;&gt;Node14</title>
<path fill="none" stroke="midnightblue" d="M294.682,-168.446C309.172,-158.127 325.453,-146.533 337.944,-137.638"/>
<polygon fill="midnightblue" stroke="midnightblue" points="340.174,-140.347 346.289,-131.695 336.113,-134.645 340.174,-140.347"/>
</g>
<!-- Node17 -->
<g id="node17" class="node"><title>Node17</title>
<g id="a_node17"><a xlink:href="global_8h.html" target="_top" xlink:title="global.h">
<polygon fill="white" stroke="black" points="396.5,-112.5 396.5,-131.5 450.5,-131.5 450.5,-112.5 396.5,-112.5"/>
<text text-anchor="middle" x="423.5" y="-119.5" font-family="Helvetica,sans-Serif" font-size="10.00">global.h</text>
</a>
</g>
</g>
<!-- Node1&#45;&gt;Node17 -->
<g id="edge17" class="edge"><title>Node1&#45;&gt;Node17</title>
<path fill="none" stroke="midnightblue" d="M317.782,-168.446C343.692,-157.308 373.06,-144.683 394.255,-135.572"/>
<polygon fill="midnightblue" stroke="midnightblue" points="395.859,-138.692 403.664,-131.527 393.095,-132.261 395.859,-138.692"/>
</g>
<!-- Node3 -->
<g id="node3" class="node"><title>Node3</title>
<polygon fill="white" stroke="#bfbfbf" points="0,-0.5 0,-19.5 49,-19.5 49,-0.5 0,-0.5"/>
<text text-anchor="middle" x="24.5" y="-7.5" font-family="Helvetica,sans-Serif" font-size="10.00">stdio.h</text>
</g>
<!-- Node2&#45;&gt;Node3 -->
<g id="edge2" class="edge"><title>Node2&#45;&gt;Node3</title>
<path fill="none" stroke="midnightblue" d="M195.695,-56.46C163.272,-47.999 111.993,-34.5627 58.927,-20.3669"/>
<polygon fill="midnightblue" stroke="midnightblue" points="59.5668,-16.9149 49.0017,-17.7084 57.7557,-23.6766 59.5668,-16.9149"/>
</g>
<!-- Node4 -->
<g id="node4" class="node"><title>Node4</title>
<polygon fill="white" stroke="#bfbfbf" points="67,-0.5 67,-19.5 114,-19.5 114,-0.5 67,-0.5"/>
<text text-anchor="middle" x="90.5" y="-7.5" font-family="Helvetica,sans-Serif" font-size="10.00">cstdlib</text>
</g>
<!-- Node2&#45;&gt;Node4 -->
<g id="edge3" class="edge"><title>Node2&#45;&gt;Node4</title>
<path fill="none" stroke="midnightblue" d="M206.633,-56.4435C183.721,-47.4776 147.525,-33.314 121.634,-23.1827"/>
<polygon fill="midnightblue" stroke="midnightblue" points="122.852,-19.9011 112.264,-19.5164 120.301,-26.4198 122.852,-19.9011"/>
</g>
<!-- Node5 -->
<g id="node5" class="node"><title>Node5</title>
<polygon fill="white" stroke="#bfbfbf" points="132,-0.5 132,-19.5 185,-19.5 185,-0.5 132,-0.5"/>
<text text-anchor="middle" x="158.5" y="-7.5" font-family="Helvetica,sans-Serif" font-size="10.00">string.h</text>
</g>
<!-- Node2&#45;&gt;Node5 -->
<g id="edge4" class="edge"><title>Node2&#45;&gt;Node5</title>
<path fill="none" stroke="midnightblue" d="M217.253,-56.324C206.703,-48.1849 190.699,-35.8395 178.058,-26.0874"/>
<polygon fill="midnightblue" stroke="midnightblue" points="180.007,-23.1707 169.951,-19.8339 175.731,-28.7132 180.007,-23.1707"/>
</g>
<!-- Node6 -->
<g id="node6" class="node"><title>Node6</title>
<polygon fill="white" stroke="#bfbfbf" points="203,-0.5 203,-19.5 254,-19.5 254,-0.5 203,-0.5"/>
<text text-anchor="middle" x="228.5" y="-7.5" font-family="Helvetica,sans-Serif" font-size="10.00">math.h</text>
</g>
<!-- Node2&#45;&gt;Node6 -->
<g id="edge5" class="edge"><title>Node2&#45;&gt;Node6</title>
<path fill="none" stroke="midnightblue" d="M228.5,-56.083C228.5,-49.0059 228.5,-38.8611 228.5,-29.9865"/>
<polygon fill="midnightblue" stroke="midnightblue" points="232,-29.751 228.5,-19.7511 225,-29.7511 232,-29.751"/>
</g>
<!-- Node7 -->
<g id="node7" class="node"><title>Node7</title>
<polygon fill="white" stroke="#bfbfbf" points="272,-0.5 272,-19.5 343,-19.5 343,-0.5 272,-0.5"/>
<text text-anchor="middle" x="307.5" y="-7.5" font-family="Helvetica,sans-Serif" font-size="10.00">sys/types.h</text>
</g>
<!-- Node2&#45;&gt;Node7 -->
<g id="edge6" class="edge"><title>Node2&#45;&gt;Node7</title>
<path fill="none" stroke="midnightblue" d="M241.193,-56.324C253.401,-47.979 272.078,-35.2122 286.503,-25.3524"/>
<polygon fill="midnightblue" stroke="midnightblue" points="288.558,-28.1871 294.839,-19.6545 284.608,-22.4082 288.558,-28.1871"/>
</g>
<!-- Node8 -->
<g id="node8" class="node"><title>Node8</title>
<polygon fill="white" stroke="#bfbfbf" points="361,-0.5 361,-19.5 424,-19.5 424,-0.5 361,-0.5"/>
<text text-anchor="middle" x="392.5" y="-7.5" font-family="Helvetica,sans-Serif" font-size="10.00">sys/stat.h</text>
</g>
<!-- Node2&#45;&gt;Node8 -->
<g id="edge7" class="edge"><title>Node2&#45;&gt;Node8</title>
<path fill="none" stroke="midnightblue" d="M254.486,-56.4435C282.196,-47.3196 326.252,-32.8133 357.116,-22.6509"/>
<polygon fill="midnightblue" stroke="midnightblue" points="358.232,-25.9684 366.635,-19.5164 356.042,-19.3196 358.232,-25.9684"/>
</g>
<!-- Node9 -->
<g id="node9" class="node"><title>Node9</title>
<polygon fill="white" stroke="#bfbfbf" points="442.5,-0.5 442.5,-19.5 488.5,-19.5 488.5,-0.5 442.5,-0.5"/>
<text text-anchor="middle" x="465.5" y="-7.5" font-family="Helvetica,sans-Serif" font-size="10.00">fcntl.h</text>
</g>
<!-- Node2&#45;&gt;Node9 -->
<g id="edge8" class="edge"><title>Node2&#45;&gt;Node9</title>
<path fill="none" stroke="midnightblue" d="M262.016,-58.2662C300.817,-50.3341 366.847,-36.416 432.751,-20.0772"/>
<polygon fill="midnightblue" stroke="midnightblue" points="433.617,-23.4686 442.471,-17.6495 431.92,-16.6773 433.617,-23.4686"/>
</g>
<!-- Node11 -->
<g id="node11" class="node"><title>Node11</title>
<polygon fill="white" stroke="#bfbfbf" points="80,-56.5 80,-75.5 133,-75.5 133,-56.5 80,-56.5"/>
<text text-anchor="middle" x="106.5" y="-63.5" font-family="Helvetica,sans-Serif" font-size="10.00">alloca.h</text>
</g>
<!-- Node10&#45;&gt;Node11 -->
<g id="edge10" class="edge"><title>Node10&#45;&gt;Node11</title>
<path fill="none" stroke="midnightblue" d="M106.5,-112.083C106.5,-105.006 106.5,-94.8611 106.5,-85.9865"/>
<polygon fill="midnightblue" stroke="midnightblue" points="110,-85.751 106.5,-75.7511 103,-85.7511 110,-85.751"/>
</g>
<!-- Node14&#45;&gt;Node2 -->
<g id="edge14" class="edge"><title>Node14&#45;&gt;Node2</title>
<path fill="none" stroke="midnightblue" d="M338.472,-112.681C317.189,-103.84 283.288,-89.7581 258.748,-79.5646"/>
<polygon fill="midnightblue" stroke="midnightblue" points="259.773,-76.2004 249.195,-75.5966 257.088,-82.6649 259.773,-76.2004"/>
</g>
<!-- Node15 -->
<g id="node15" class="node"><title>Node15</title>
<polygon fill="white" stroke="#bfbfbf" points="285.5,-56.5 285.5,-75.5 351.5,-75.5 351.5,-56.5 285.5,-56.5"/>
<text text-anchor="middle" x="318.5" y="-63.5" font-family="Helvetica,sans-Serif" font-size="10.00">sys/time.h</text>
</g>
<!-- Node14&#45;&gt;Node15 -->
<g id="edge15" class="edge"><title>Node14&#45;&gt;Node15</title>
<path fill="none" stroke="midnightblue" d="M351.895,-112.083C346.245,-104.455 337.955,-93.2645 331.049,-83.9408"/>
<polygon fill="midnightblue" stroke="midnightblue" points="333.747,-81.7034 324.982,-75.7511 328.122,-85.87 333.747,-81.7034"/>
</g>
<!-- Node16 -->
<g id="node16" class="node"><title>Node16</title>
<polygon fill="white" stroke="#bfbfbf" points="370,-56.5 370,-75.5 425,-75.5 425,-56.5 370,-56.5"/>
<text text-anchor="middle" x="397.5" y="-63.5" font-family="Helvetica,sans-Serif" font-size="10.00">unistd.h</text>
</g>
<!-- Node14&#45;&gt;Node16 -->
<g id="edge16" class="edge"><title>Node14&#45;&gt;Node16</title>
<path fill="none" stroke="midnightblue" d="M364.94,-112.083C370.449,-104.455 378.531,-93.2645 385.265,-83.9408"/>
<polygon fill="midnightblue" stroke="midnightblue" points="388.162,-85.9071 391.18,-75.7511 382.487,-81.8087 388.162,-85.9071"/>
</g>
</g>
</svg>
