<?xml version="1.0" encoding="UTF-8" standalone="no"?>
<!DOCTYPE svg PUBLIC "-//W3C//DTD SVG 1.1//EN"
 "http://www.w3.org/Graphics/SVG/1.1/DTD/svg11.dtd">
<!-- Generated by graphviz version 2.38.0 (20140413.2041)
 -->
<!-- Title: /home/travis/build/ComPWA/ComPWA/ThirdParty/tbb/examples/parallel_for/tachyon/src/intersect.h Pages: 1 -->
<svg width="3158pt" height="150pt"
 viewBox="0.00 0.00 3158.00 150.00" xmlns="http://www.w3.org/2000/svg" xmlns:xlink="http://www.w3.org/1999/xlink">
<g id="graph0" class="graph" transform="scale(1 1) rotate(0) translate(4 146)">
<title>/home/travis/build/ComPWA/ComPWA/ThirdParty/tbb/examples/parallel_for/tachyon/src/intersect.h</title>
<polygon fill="white" stroke="none" points="-4,4 -4,-146 3154,-146 3154,4 -4,4"/>
<!-- Node1 -->
<g id="node1" class="node"><title>Node1</title>
<polygon fill="#bfbfbf" stroke="black" points="1496,-89.5 1496,-141.5 1654,-141.5 1654,-89.5 1496,-89.5"/>
<text text-anchor="start" x="1504" y="-129.5" font-family="Helvetica,sans-Serif" font-size="10.00">/home/travis/build</text>
<text text-anchor="start" x="1504" y="-118.5" font-family="Helvetica,sans-Serif" font-size="10.00">/ComPWA/ComPWA/ThirdParty</text>
<text text-anchor="start" x="1504" y="-107.5" font-family="Helvetica,sans-Serif" font-size="10.00">/tbb/examples/parallel_for</text>
<text text-anchor="middle" x="1575" y="-96.5" font-family="Helvetica,sans-Serif" font-size="10.00">/tachyon/src/intersect.h</text>
</g>
<!-- Node2 -->
<g id="node2" class="node"><title>Node2</title>
<g id="a_node2"><a xlink:href="api_8cpp.html" target="_top" xlink:title="/home/travis/build\l/ComPWA/ComPWA/ThirdParty\l/tbb/examples/parallel_for\l/tachyon/src/api.cpp">
<polygon fill="white" stroke="black" points="0,-0.5 0,-52.5 158,-52.5 158,-0.5 0,-0.5"/>
<text text-anchor="start" x="8" y="-40.5" font-family="Helvetica,sans-Serif" font-size="10.00">/home/travis/build</text>
<text text-anchor="start" x="8" y="-29.5" font-family="Helvetica,sans-Serif" font-size="10.00">/ComPWA/ComPWA/ThirdParty</text>
<text text-anchor="start" x="8" y="-18.5" font-family="Helvetica,sans-Serif" font-size="10.00">/tbb/examples/parallel_for</text>
<text text-anchor="middle" x="79" y="-7.5" font-family="Helvetica,sans-Serif" font-size="10.00">/tachyon/src/api.cpp</text>
</a>
</g>
</g>
<!-- Node1&#45;&gt;Node2 -->
<g id="edge1" class="edge"><title>Node1&#45;&gt;Node2</title>
<path fill="none" stroke="midnightblue" d="M1485.89,-113.382C1217.96,-109.583 422.508,-94.9812 167,-53 164.175,-52.5358 161.312,-52.0108 158.43,-51.4359"/>
<polygon fill="midnightblue" stroke="midnightblue" points="1485.91,-116.883 1495.96,-113.523 1486.01,-109.883 1485.91,-116.883"/>
</g>
<!-- Node3 -->
<g id="node3" class="node"><title>Node3</title>
<g id="a_node3"><a xlink:href="bndbox_8cpp.html" target="_top" xlink:title="/home/travis/build\l/ComPWA/ComPWA/ThirdParty\l/tbb/examples/parallel_for\l/tachyon/src/bndbox.cpp">
<polygon fill="white" stroke="black" points="176,-0.5 176,-52.5 334,-52.5 334,-0.5 176,-0.5"/>
<text text-anchor="start" x="184" y="-40.5" font-family="Helvetica,sans-Serif" font-size="10.00">/home/travis/build</text>
<text text-anchor="start" x="184" y="-29.5" font-family="Helvetica,sans-Serif" font-size="10.00">/ComPWA/ComPWA/ThirdParty</text>
<text text-anchor="start" x="184" y="-18.5" font-family="Helvetica,sans-Serif" font-size="10.00">/tbb/examples/parallel_for</text>
<text text-anchor="middle" x="255" y="-7.5" font-family="Helvetica,sans-Serif" font-size="10.00">/tachyon/src/bndbox.cpp</text>
</a>
</g>
</g>
<!-- Node1&#45;&gt;Node3 -->
<g id="edge2" class="edge"><title>Node1&#45;&gt;Node3</title>
<path fill="none" stroke="midnightblue" d="M1485.39,-112.725C1240.37,-107.441 562.934,-89.8397 343,-53 340.176,-52.527 337.314,-51.9945 334.434,-51.4131"/>
<polygon fill="midnightblue" stroke="midnightblue" points="1485.6,-116.23 1495.67,-112.945 1485.75,-109.232 1485.6,-116.23"/>
</g>
<!-- Node4 -->
<g id="node4" class="node"><title>Node4</title>
<g id="a_node4"><a xlink:href="box_8cpp.html" target="_top" xlink:title="/home/travis/build\l/ComPWA/ComPWA/ThirdParty\l/tbb/examples/parallel_for\l/tachyon/src/box.cpp">
<polygon fill="white" stroke="black" points="352,-0.5 352,-52.5 510,-52.5 510,-0.5 352,-0.5"/>
<text text-anchor="start" x="360" y="-40.5" font-family="Helvetica,sans-Serif" font-size="10.00">/home/travis/build</text>
<text text-anchor="start" x="360" y="-29.5" font-family="Helvetica,sans-Serif" font-size="10.00">/ComPWA/ComPWA/ThirdParty</text>
<text text-anchor="start" x="360" y="-18.5" font-family="Helvetica,sans-Serif" font-size="10.00">/tbb/examples/parallel_for</text>
<text text-anchor="middle" x="431" y="-7.5" font-family="Helvetica,sans-Serif" font-size="10.00">/tachyon/src/box.cpp</text>
</a>
</g>
</g>
<!-- Node1&#45;&gt;Node4 -->
<g id="edge3" class="edge"><title>Node1&#45;&gt;Node4</title>
<path fill="none" stroke="midnightblue" d="M1485.67,-111.87C1265.99,-104.987 703.846,-84.7512 519,-53 516.178,-52.5153 513.318,-51.9727 510.439,-51.3827"/>
<polygon fill="midnightblue" stroke="midnightblue" points="1485.77,-115.374 1495.87,-112.187 1485.99,-108.378 1485.77,-115.374"/>
</g>
<!-- Node5 -->
<g id="node5" class="node"><title>Node5</title>
<g id="a_node5"><a xlink:href="cylinder_8cpp.html" target="_top" xlink:title="/home/travis/build\l/ComPWA/ComPWA/ThirdParty\l/tbb/examples/parallel_for\l/tachyon/src/cylinder.cpp">
<polygon fill="white" stroke="black" points="528,-0.5 528,-52.5 686,-52.5 686,-0.5 528,-0.5"/>
<text text-anchor="start" x="536" y="-40.5" font-family="Helvetica,sans-Serif" font-size="10.00">/home/travis/build</text>
<text text-anchor="start" x="536" y="-29.5" font-family="Helvetica,sans-Serif" font-size="10.00">/ComPWA/ComPWA/ThirdParty</text>
<text text-anchor="start" x="536" y="-18.5" font-family="Helvetica,sans-Serif" font-size="10.00">/tbb/examples/parallel_for</text>
<text text-anchor="middle" x="607" y="-7.5" font-family="Helvetica,sans-Serif" font-size="10.00">/tachyon/src/cylinder.cpp</text>
</a>
</g>
</g>
<!-- Node1&#45;&gt;Node5 -->
<g id="edge4" class="edge"><title>Node1&#45;&gt;Node5</title>
<path fill="none" stroke="midnightblue" d="M1485.46,-114.487C1325.52,-113.082 980.689,-103.78 695,-53 692.181,-52.4989 689.323,-51.9423 686.447,-51.3403"/>
<polygon fill="midnightblue" stroke="midnightblue" points="1485.7,-117.989 1495.73,-114.569 1485.76,-110.989 1485.7,-117.989"/>
</g>
<!-- Node6 -->
<g id="node6" class="node"><title>Node6</title>
<g id="a_node6"><a xlink:href="grid_8cpp.html" target="_top" xlink:title="/home/travis/build\l/ComPWA/ComPWA/ThirdParty\l/tbb/examples/parallel_for\l/tachyon/src/grid.cpp">
<polygon fill="white" stroke="black" points="704,-0.5 704,-52.5 862,-52.5 862,-0.5 704,-0.5"/>
<text text-anchor="start" x="712" y="-40.5" font-family="Helvetica,sans-Serif" font-size="10.00">/home/travis/build</text>
<text text-anchor="start" x="712" y="-29.5" font-family="Helvetica,sans-Serif" font-size="10.00">/ComPWA/ComPWA/ThirdParty</text>
<text text-anchor="start" x="712" y="-18.5" font-family="Helvetica,sans-Serif" font-size="10.00">/tbb/examples/parallel_for</text>
<text text-anchor="middle" x="783" y="-7.5" font-family="Helvetica,sans-Serif" font-size="10.00">/tachyon/src/grid.cpp</text>
</a>
</g>
</g>
<!-- Node1&#45;&gt;Node6 -->
<g id="edge5" class="edge"><title>Node1&#45;&gt;Node6</title>
<path fill="none" stroke="midnightblue" d="M1485.69,-112.264C1351.28,-107.649 1089.48,-93.7941 871,-53 868.186,-52.4745 865.332,-51.8968 862.458,-51.2769"/>
<polygon fill="midnightblue" stroke="midnightblue" points="1485.82,-115.77 1495.93,-112.606 1486.05,-108.774 1485.82,-115.77"/>
</g>
<!-- Node7 -->
<g id="node7" class="node"><title>Node7</title>
<g id="a_node7"><a xlink:href="intersect_8cpp.html" target="_top" xlink:title="/home/travis/build\l/ComPWA/ComPWA/ThirdParty\l/tbb/examples/parallel_for\l/tachyon/src/intersect.cpp">
<polygon fill="white" stroke="black" points="880,-0.5 880,-52.5 1038,-52.5 1038,-0.5 880,-0.5"/>
<text text-anchor="start" x="888" y="-40.5" font-family="Helvetica,sans-Serif" font-size="10.00">/home/travis/build</text>
<text text-anchor="start" x="888" y="-29.5" font-family="Helvetica,sans-Serif" font-size="10.00">/ComPWA/ComPWA/ThirdParty</text>
<text text-anchor="start" x="888" y="-18.5" font-family="Helvetica,sans-Serif" font-size="10.00">/tbb/examples/parallel_for</text>
<text text-anchor="middle" x="959" y="-7.5" font-family="Helvetica,sans-Serif" font-size="10.00">/tachyon/src/intersect.cpp</text>
</a>
</g>
</g>
<!-- Node1&#45;&gt;Node7 -->
<g id="edge6" class="edge"><title>Node1&#45;&gt;Node7</title>
<path fill="none" stroke="midnightblue" d="M1485.66,-108.64C1380.08,-100.671 1199.49,-83.7528 1047,-53 1044.04,-52.4025 1041.03,-51.7533 1038,-51.0633"/>
<polygon fill="midnightblue" stroke="midnightblue" points="1485.4,-112.131 1495.64,-109.384 1485.92,-105.15 1485.4,-112.131"/>
</g>
<!-- Node8 -->
<g id="node8" class="node"><title>Node8</title>
<g id="a_node8"><a xlink:href="light_8cpp.html" target="_top" xlink:title="/home/travis/build\l/ComPWA/ComPWA/ThirdParty\l/tbb/examples/parallel_for\l/tachyon/src/light.cpp">
<polygon fill="white" stroke="black" points="1056,-0.5 1056,-52.5 1214,-52.5 1214,-0.5 1056,-0.5"/>
<text text-anchor="start" x="1064" y="-40.5" font-family="Helvetica,sans-Serif" font-size="10.00">/home/travis/build</text>
<text text-anchor="start" x="1064" y="-29.5" font-family="Helvetica,sans-Serif" font-size="10.00">/ComPWA/ComPWA/ThirdParty</text>
<text text-anchor="start" x="1064" y="-18.5" font-family="Helvetica,sans-Serif" font-size="10.00">/tbb/examples/parallel_for</text>
<text text-anchor="middle" x="1135" y="-7.5" font-family="Helvetica,sans-Serif" font-size="10.00">/tachyon/src/light.cpp</text>
</a>
</g>
</g>
<!-- Node1&#45;&gt;Node8 -->
<g id="edge7" class="edge"><title>Node1&#45;&gt;Node8</title>
<path fill="none" stroke="midnightblue" d="M1485.55,-101.631C1414.08,-90.6868 1311.57,-73.505 1223,-53 1220.06,-52.3183 1217.06,-51.5974 1214.05,-50.8468"/>
<polygon fill="midnightblue" stroke="midnightblue" points="1485.45,-105.156 1495.87,-103.2 1486.51,-98.2358 1485.45,-105.156"/>
</g>
<!-- Node9 -->
<g id="node9" class="node"><title>Node9</title>
<g id="a_node9"><a xlink:href="plane_8cpp.html" target="_top" xlink:title="/home/travis/build\l/ComPWA/ComPWA/ThirdParty\l/tbb/examples/parallel_for\l/tachyon/src/plane.cpp">
<polygon fill="white" stroke="black" points="1232,-0.5 1232,-52.5 1390,-52.5 1390,-0.5 1232,-0.5"/>
<text text-anchor="start" x="1240" y="-40.5" font-family="Helvetica,sans-Serif" font-size="10.00">/home/travis/build</text>
<text text-anchor="start" x="1240" y="-29.5" font-family="Helvetica,sans-Serif" font-size="10.00">/ComPWA/ComPWA/ThirdParty</text>
<text text-anchor="start" x="1240" y="-18.5" font-family="Helvetica,sans-Serif" font-size="10.00">/tbb/examples/parallel_for</text>
<text text-anchor="middle" x="1311" y="-7.5" font-family="Helvetica,sans-Serif" font-size="10.00">/tachyon/src/plane.cpp</text>
</a>
</g>
</g>
<!-- Node1&#45;&gt;Node9 -->
<g id="edge8" class="edge"><title>Node1&#45;&gt;Node9</title>
<path fill="none" stroke="midnightblue" d="M1489.36,-86.2784C1456.37,-75.4048 1418.94,-63.0721 1386.93,-52.5211"/>
<polygon fill="midnightblue" stroke="midnightblue" points="1488.4,-89.6469 1498.99,-89.4527 1490.59,-82.9986 1488.4,-89.6469"/>
</g>
<!-- Node10 -->
<g id="node10" class="node"><title>Node10</title>
<g id="a_node10"><a xlink:href="quadric_8cpp.html" target="_top" xlink:title="/home/travis/build\l/ComPWA/ComPWA/ThirdParty\l/tbb/examples/parallel_for\l/tachyon/src/quadric.cpp">
<polygon fill="white" stroke="black" points="1408,-0.5 1408,-52.5 1566,-52.5 1566,-0.5 1408,-0.5"/>
<text text-anchor="start" x="1416" y="-40.5" font-family="Helvetica,sans-Serif" font-size="10.00">/home/travis/build</text>
<text text-anchor="start" x="1416" y="-29.5" font-family="Helvetica,sans-Serif" font-size="10.00">/ComPWA/ComPWA/ThirdParty</text>
<text text-anchor="start" x="1416" y="-18.5" font-family="Helvetica,sans-Serif" font-size="10.00">/tbb/examples/parallel_for</text>
<text text-anchor="middle" x="1487" y="-7.5" font-family="Helvetica,sans-Serif" font-size="10.00">/tachyon/src/quadric.cpp</text>
</a>
</g>
</g>
<!-- Node1&#45;&gt;Node10 -->
<g id="edge9" class="edge"><title>Node1&#45;&gt;Node10</title>
<path fill="none" stroke="midnightblue" d="M1542.2,-82.0768C1532.35,-72.3353 1521.69,-61.7998 1512.4,-52.6075"/>
<polygon fill="midnightblue" stroke="midnightblue" points="1539.97,-84.7944 1549.55,-89.336 1544.9,-79.8164 1539.97,-84.7944"/>
</g>
<!-- Node11 -->
<g id="node11" class="node"><title>Node11</title>
<g id="a_node11"><a xlink:href="ring_8cpp.html" target="_top" xlink:title="/home/travis/build\l/ComPWA/ComPWA/ThirdParty\l/tbb/examples/parallel_for\l/tachyon/src/ring.cpp">
<polygon fill="white" stroke="black" points="1584,-0.5 1584,-52.5 1742,-52.5 1742,-0.5 1584,-0.5"/>
<text text-anchor="start" x="1592" y="-40.5" font-family="Helvetica,sans-Serif" font-size="10.00">/home/travis/build</text>
<text text-anchor="start" x="1592" y="-29.5" font-family="Helvetica,sans-Serif" font-size="10.00">/ComPWA/ComPWA/ThirdParty</text>
<text text-anchor="start" x="1592" y="-18.5" font-family="Helvetica,sans-Serif" font-size="10.00">/tbb/examples/parallel_for</text>
<text text-anchor="middle" x="1663" y="-7.5" font-family="Helvetica,sans-Serif" font-size="10.00">/tachyon/src/ring.cpp</text>
</a>
</g>
</g>
<!-- Node1&#45;&gt;Node11 -->
<g id="edge10" class="edge"><title>Node1&#45;&gt;Node11</title>
<path fill="none" stroke="midnightblue" d="M1607.8,-82.0768C1617.65,-72.3353 1628.31,-61.7998 1637.6,-52.6075"/>
<polygon fill="midnightblue" stroke="midnightblue" points="1605.1,-79.8164 1600.45,-89.336 1610.03,-84.7944 1605.1,-79.8164"/>
</g>
<!-- Node12 -->
<g id="node12" class="node"><title>Node12</title>
<g id="a_node12"><a xlink:href="shade_8cpp.html" target="_top" xlink:title="/home/travis/build\l/ComPWA/ComPWA/ThirdParty\l/tbb/examples/parallel_for\l/tachyon/src/shade.cpp">
<polygon fill="white" stroke="black" points="1760,-0.5 1760,-52.5 1918,-52.5 1918,-0.5 1760,-0.5"/>
<text text-anchor="start" x="1768" y="-40.5" font-family="Helvetica,sans-Serif" font-size="10.00">/home/travis/build</text>
<text text-anchor="start" x="1768" y="-29.5" font-family="Helvetica,sans-Serif" font-size="10.00">/ComPWA/ComPWA/ThirdParty</text>
<text text-anchor="start" x="1768" y="-18.5" font-family="Helvetica,sans-Serif" font-size="10.00">/tbb/examples/parallel_for</text>
<text text-anchor="middle" x="1839" y="-7.5" font-family="Helvetica,sans-Serif" font-size="10.00">/tachyon/src/shade.cpp</text>
</a>
</g>
</g>
<!-- Node1&#45;&gt;Node12 -->
<g id="edge11" class="edge"><title>Node1&#45;&gt;Node12</title>
<path fill="none" stroke="midnightblue" d="M1660.64,-86.2784C1693.63,-75.4048 1731.06,-63.0721 1763.07,-52.5211"/>
<polygon fill="midnightblue" stroke="midnightblue" points="1659.41,-82.9986 1651.01,-89.4527 1661.6,-89.6469 1659.41,-82.9986"/>
</g>
<!-- Node13 -->
<g id="node13" class="node"><title>Node13</title>
<g id="a_node13"><a xlink:href="sphere_8cpp.html" target="_top" xlink:title="/home/travis/build\l/ComPWA/ComPWA/ThirdParty\l/tbb/examples/parallel_for\l/tachyon/src/sphere.cpp">
<polygon fill="white" stroke="black" points="1936,-0.5 1936,-52.5 2094,-52.5 2094,-0.5 1936,-0.5"/>
<text text-anchor="start" x="1944" y="-40.5" font-family="Helvetica,sans-Serif" font-size="10.00">/home/travis/build</text>
<text text-anchor="start" x="1944" y="-29.5" font-family="Helvetica,sans-Serif" font-size="10.00">/ComPWA/ComPWA/ThirdParty</text>
<text text-anchor="start" x="1944" y="-18.5" font-family="Helvetica,sans-Serif" font-size="10.00">/tbb/examples/parallel_for</text>
<text text-anchor="middle" x="2015" y="-7.5" font-family="Helvetica,sans-Serif" font-size="10.00">/tachyon/src/sphere.cpp</text>
</a>
</g>
</g>
<!-- Node1&#45;&gt;Node13 -->
<g id="edge12" class="edge"><title>Node1&#45;&gt;Node13</title>
<path fill="none" stroke="midnightblue" d="M1664.45,-101.631C1735.92,-90.6868 1838.43,-73.505 1927,-53 1929.94,-52.3183 1932.94,-51.5974 1935.95,-50.8468"/>
<polygon fill="midnightblue" stroke="midnightblue" points="1663.49,-98.2358 1654.13,-103.2 1664.55,-105.156 1663.49,-98.2358"/>
</g>
<!-- Node14 -->
<g id="node14" class="node"><title>Node14</title>
<g id="a_node14"><a xlink:href="trace_8serial_8cpp.html" target="_top" xlink:title="/home/travis/build\l/ComPWA/ComPWA/ThirdParty\l/tbb/examples/parallel_for\l/tachyon/src/trace.serial.cpp">
<polygon fill="white" stroke="black" points="2112,-0.5 2112,-52.5 2270,-52.5 2270,-0.5 2112,-0.5"/>
<text text-anchor="start" x="2120" y="-40.5" font-family="Helvetica,sans-Serif" font-size="10.00">/home/travis/build</text>
<text text-anchor="start" x="2120" y="-29.5" font-family="Helvetica,sans-Serif" font-size="10.00">/ComPWA/ComPWA/ThirdParty</text>
<text text-anchor="start" x="2120" y="-18.5" font-family="Helvetica,sans-Serif" font-size="10.00">/tbb/examples/parallel_for</text>
<text text-anchor="middle" x="2191" y="-7.5" font-family="Helvetica,sans-Serif" font-size="10.00">/tachyon/src/trace.serial.cpp</text>
</a>
</g>
</g>
<!-- Node1&#45;&gt;Node14 -->
<g id="edge13" class="edge"><title>Node1&#45;&gt;Node14</title>
<path fill="none" stroke="midnightblue" d="M1664.34,-108.64C1769.92,-100.671 1950.51,-83.7528 2103,-53 2105.96,-52.4025 2108.97,-51.7533 2112,-51.0633"/>
<polygon fill="midnightblue" stroke="midnightblue" points="1664.08,-105.15 1654.36,-109.384 1664.6,-112.131 1664.08,-105.15"/>
</g>
<!-- Node15 -->
<g id="node15" class="node"><title>Node15</title>
<g id="a_node15"><a xlink:href="trace_8simple_8cpp.html" target="_top" xlink:title="/home/travis/build\l/ComPWA/ComPWA/ThirdParty\l/tbb/examples/parallel_for\l/tachyon/src/trace.simple.cpp">
<polygon fill="white" stroke="black" points="2288,-0.5 2288,-52.5 2446,-52.5 2446,-0.5 2288,-0.5"/>
<text text-anchor="start" x="2296" y="-40.5" font-family="Helvetica,sans-Serif" font-size="10.00">/home/travis/build</text>
<text text-anchor="start" x="2296" y="-29.5" font-family="Helvetica,sans-Serif" font-size="10.00">/ComPWA/ComPWA/ThirdParty</text>
<text text-anchor="start" x="2296" y="-18.5" font-family="Helvetica,sans-Serif" font-size="10.00">/tbb/examples/parallel_for</text>
<text text-anchor="middle" x="2367" y="-7.5" font-family="Helvetica,sans-Serif" font-size="10.00">/tachyon/src/trace.simple.cpp</text>
</a>
</g>
</g>
<!-- Node1&#45;&gt;Node15 -->
<g id="edge14" class="edge"><title>Node1&#45;&gt;Node15</title>
<path fill="none" stroke="midnightblue" d="M1664.31,-112.264C1798.72,-107.649 2060.52,-93.7941 2279,-53 2281.81,-52.4745 2284.67,-51.8968 2287.54,-51.2769"/>
<polygon fill="midnightblue" stroke="midnightblue" points="1663.95,-108.774 1654.07,-112.606 1664.18,-115.77 1663.95,-108.774"/>
</g>
<!-- Node16 -->
<g id="node16" class="node"><title>Node16</title>
<g id="a_node16"><a xlink:href="trace_8tbb_8cpp.html" target="_top" xlink:title="/home/travis/build\l/ComPWA/ComPWA/ThirdParty\l/tbb/examples/parallel_for\l/tachyon/src/trace.tbb.cpp">
<polygon fill="white" stroke="black" points="2464,-0.5 2464,-52.5 2622,-52.5 2622,-0.5 2464,-0.5"/>
<text text-anchor="start" x="2472" y="-40.5" font-family="Helvetica,sans-Serif" font-size="10.00">/home/travis/build</text>
<text text-anchor="start" x="2472" y="-29.5" font-family="Helvetica,sans-Serif" font-size="10.00">/ComPWA/ComPWA/ThirdParty</text>
<text text-anchor="start" x="2472" y="-18.5" font-family="Helvetica,sans-Serif" font-size="10.00">/tbb/examples/parallel_for</text>
<text text-anchor="middle" x="2543" y="-7.5" font-family="Helvetica,sans-Serif" font-size="10.00">/tachyon/src/trace.tbb.cpp</text>
</a>
</g>
</g>
<!-- Node1&#45;&gt;Node16 -->
<g id="edge15" class="edge"><title>Node1&#45;&gt;Node16</title>
<path fill="none" stroke="midnightblue" d="M1664.54,-114.487C1824.48,-113.082 2169.31,-103.78 2455,-53 2457.82,-52.4989 2460.68,-51.9423 2463.55,-51.3403"/>
<polygon fill="midnightblue" stroke="midnightblue" points="1664.24,-110.989 1654.27,-114.569 1664.3,-117.989 1664.24,-110.989"/>
</g>
<!-- Node17 -->
<g id="node17" class="node"><title>Node17</title>
<g id="a_node17"><a xlink:href="trace_8tbb1d_8cpp.html" target="_top" xlink:title="/home/travis/build\l/ComPWA/ComPWA/ThirdParty\l/tbb/examples/parallel_for\l/tachyon/src/trace.tbb1d.cpp">
<polygon fill="white" stroke="black" points="2640,-0.5 2640,-52.5 2798,-52.5 2798,-0.5 2640,-0.5"/>
<text text-anchor="start" x="2648" y="-40.5" font-family="Helvetica,sans-Serif" font-size="10.00">/home/travis/build</text>
<text text-anchor="start" x="2648" y="-29.5" font-family="Helvetica,sans-Serif" font-size="10.00">/ComPWA/ComPWA/ThirdParty</text>
<text text-anchor="start" x="2648" y="-18.5" font-family="Helvetica,sans-Serif" font-size="10.00">/tbb/examples/parallel_for</text>
<text text-anchor="middle" x="2719" y="-7.5" font-family="Helvetica,sans-Serif" font-size="10.00">/tachyon/src/trace.tbb1d.cpp</text>
</a>
</g>
</g>
<!-- Node1&#45;&gt;Node17 -->
<g id="edge16" class="edge"><title>Node1&#45;&gt;Node17</title>
<path fill="none" stroke="midnightblue" d="M1664.33,-111.87C1884.01,-104.987 2446.15,-84.7512 2631,-53 2633.82,-52.5153 2636.68,-51.9727 2639.56,-51.3827"/>
<polygon fill="midnightblue" stroke="midnightblue" points="1664.01,-108.378 1654.13,-112.187 1664.23,-115.374 1664.01,-108.378"/>
</g>
<!-- Node18 -->
<g id="node18" class="node"><title>Node18</title>
<g id="a_node18"><a xlink:href="trace__rest_8cpp.html" target="_top" xlink:title="/home/travis/build\l/ComPWA/ComPWA/ThirdParty\l/tbb/examples/parallel_for\l/tachyon/src/trace_rest.cpp">
<polygon fill="white" stroke="black" points="2816,-0.5 2816,-52.5 2974,-52.5 2974,-0.5 2816,-0.5"/>
<text text-anchor="start" x="2824" y="-40.5" font-family="Helvetica,sans-Serif" font-size="10.00">/home/travis/build</text>
<text text-anchor="start" x="2824" y="-29.5" font-family="Helvetica,sans-Serif" font-size="10.00">/ComPWA/ComPWA/ThirdParty</text>
<text text-anchor="start" x="2824" y="-18.5" font-family="Helvetica,sans-Serif" font-size="10.00">/tbb/examples/parallel_for</text>
<text text-anchor="middle" x="2895" y="-7.5" font-family="Helvetica,sans-Serif" font-size="10.00">/tachyon/src/trace_rest.cpp</text>
</a>
</g>
</g>
<!-- Node1&#45;&gt;Node18 -->
<g id="edge17" class="edge"><title>Node1&#45;&gt;Node18</title>
<path fill="none" stroke="midnightblue" d="M1664.61,-112.725C1909.63,-107.441 2587.07,-89.8397 2807,-53 2809.82,-52.527 2812.69,-51.9945 2815.57,-51.4131"/>
<polygon fill="midnightblue" stroke="midnightblue" points="1664.25,-109.232 1654.33,-112.945 1664.4,-116.23 1664.25,-109.232"/>
</g>
<!-- Node19 -->
<g id="node19" class="node"><title>Node19</title>
<g id="a_node19"><a xlink:href="triangle_8cpp.html" target="_top" xlink:title="/home/travis/build\l/ComPWA/ComPWA/ThirdParty\l/tbb/examples/parallel_for\l/tachyon/src/triangle.cpp">
<polygon fill="white" stroke="black" points="2992,-0.5 2992,-52.5 3150,-52.5 3150,-0.5 2992,-0.5"/>
<text text-anchor="start" x="3000" y="-40.5" font-family="Helvetica,sans-Serif" font-size="10.00">/home/travis/build</text>
<text text-anchor="start" x="3000" y="-29.5" font-family="Helvetica,sans-Serif" font-size="10.00">/ComPWA/ComPWA/ThirdParty</text>
<text text-anchor="start" x="3000" y="-18.5" font-family="Helvetica,sans-Serif" font-size="10.00">/tbb/examples/parallel_for</text>
<text text-anchor="middle" x="3071" y="-7.5" font-family="Helvetica,sans-Serif" font-size="10.00">/tachyon/src/triangle.cpp</text>
</a>
</g>
</g>
<!-- Node1&#45;&gt;Node19 -->
<g id="edge18" class="edge"><title>Node1&#45;&gt;Node19</title>
<path fill="none" stroke="midnightblue" d="M1664.11,-113.382C1932.04,-109.583 2727.49,-94.9812 2983,-53 2985.83,-52.5358 2988.69,-52.0108 2991.57,-51.4359"/>
<polygon fill="midnightblue" stroke="midnightblue" points="1663.99,-109.883 1654.04,-113.523 1664.09,-116.883 1663.99,-109.883"/>
</g>
</g>
</svg>
