<?xml version="1.0" encoding="UTF-8" standalone="no"?>
<!DOCTYPE svg PUBLIC "-//W3C//DTD SVG 1.1//EN"
 "http://www.w3.org/Graphics/SVG/1.1/DTD/svg11.dtd">
<!-- Generated by graphviz version 2.38.0 (20140413.2041)
 -->
<!-- Title: Tools/Integration.hpp Pages: 1 -->
<svg width="560pt" height="140pt"
 viewBox="0.00 0.00 560.00 140.00" xmlns="http://www.w3.org/2000/svg" xmlns:xlink="http://www.w3.org/1999/xlink">
<g id="graph0" class="graph" transform="scale(1 1) rotate(0) translate(4 136)">
<title>Tools/Integration.hpp</title>
<polygon fill="white" stroke="none" points="-4,4 -4,-136 556,-136 556,4 -4,4"/>
<!-- Node1 -->
<g id="node1" class="node"><title>Node1</title>
<polygon fill="#bfbfbf" stroke="black" points="239,-112.5 239,-131.5 347,-131.5 347,-112.5 239,-112.5"/>
<text text-anchor="middle" x="293" y="-119.5" font-family="Helvetica,sans-Serif" font-size="10.00">Tools/Integration.hpp</text>
</g>
<!-- Node2 -->
<g id="node2" class="node"><title>Node2</title>
<g id="a_node2"><a xlink:href="BuilderXML_8cpp.html" target="_top" xlink:title="Physics/BuilderXML.cpp">
<polygon fill="white" stroke="black" points="-7.10543e-15,-56.5 -7.10543e-15,-75.5 124,-75.5 124,-56.5 -7.10543e-15,-56.5"/>
<text text-anchor="middle" x="62" y="-63.5" font-family="Helvetica,sans-Serif" font-size="10.00">Physics/BuilderXML.cpp</text>
</a>
</g>
</g>
<!-- Node1&#45;&gt;Node2 -->
<g id="edge1" class="edge"><title>Node1&#45;&gt;Node2</title>
<path fill="none" stroke="midnightblue" d="M246.598,-110.153C202.953,-99.95 138.49,-84.8809 98.4314,-75.5164"/>
<polygon fill="midnightblue" stroke="midnightblue" points="245.863,-113.575 256.397,-112.444 247.457,-106.759 245.863,-113.575"/>
</g>
<!-- Node3 -->
<g id="node3" class="node"><title>Node3</title>
<g id="a_node3"><a xlink:href="EvtGenIF_8hpp.html" target="_top" xlink:title="Physics/EvtGen/EvtGenIF.hpp">
<polygon fill="white" stroke="black" points="142,-56.5 142,-75.5 294,-75.5 294,-56.5 142,-56.5"/>
<text text-anchor="middle" x="218" y="-63.5" font-family="Helvetica,sans-Serif" font-size="10.00">Physics/EvtGen/EvtGenIF.hpp</text>
</a>
</g>
</g>
<!-- Node1&#45;&gt;Node3 -->
<g id="edge2" class="edge"><title>Node1&#45;&gt;Node3</title>
<path fill="none" stroke="midnightblue" d="M272.695,-106.38C259.139,-96.6204 241.758,-84.1057 230.269,-75.8339"/>
<polygon fill="midnightblue" stroke="midnightblue" points="270.79,-109.321 280.95,-112.324 274.88,-103.641 270.79,-109.321"/>
</g>
<!-- Node5 -->
<g id="node5" class="node"><title>Node5</title>
<g id="a_node5"><a xlink:href="FitFractions_8cpp.html" target="_top" xlink:title="Tools/FitFractions.cpp">
<polygon fill="white" stroke="black" points="312,-56.5 312,-75.5 426,-75.5 426,-56.5 312,-56.5"/>
<text text-anchor="middle" x="369" y="-63.5" font-family="Helvetica,sans-Serif" font-size="10.00">Tools/FitFractions.cpp</text>
</a>
</g>
</g>
<!-- Node1&#45;&gt;Node5 -->
<g id="edge4" class="edge"><title>Node1&#45;&gt;Node5</title>
<path fill="none" stroke="midnightblue" d="M313.576,-106.38C327.312,-96.6204 344.925,-84.1057 356.567,-75.8339"/>
<polygon fill="midnightblue" stroke="midnightblue" points="311.335,-103.679 305.211,-112.324 315.39,-109.385 311.335,-103.679"/>
</g>
<!-- Node6 -->
<g id="node6" class="node"><title>Node6</title>
<g id="a_node6"><a xlink:href="Integration_8cpp.html" target="_top" xlink:title="Tools/Integration.cpp">
<polygon fill="white" stroke="black" points="444,-56.5 444,-75.5 552,-75.5 552,-56.5 444,-56.5"/>
<text text-anchor="middle" x="498" y="-63.5" font-family="Helvetica,sans-Serif" font-size="10.00">Tools/Integration.cpp</text>
</a>
</g>
</g>
<!-- Node1&#45;&gt;Node6 -->
<g id="edge5" class="edge"><title>Node1&#45;&gt;Node6</title>
<path fill="none" stroke="midnightblue" d="M335.408,-109.829C374.114,-99.6333 430.493,-84.7823 465.669,-75.5164"/>
<polygon fill="midnightblue" stroke="midnightblue" points="334.261,-106.512 325.483,-112.444 336.045,-113.281 334.261,-106.512"/>
</g>
<!-- Node4 -->
<g id="node4" class="node"><title>Node4</title>
<g id="a_node4"><a xlink:href="EvtGenIF_8cpp.html" target="_top" xlink:title="Physics/EvtGen/EvtGenIF.cpp">
<polygon fill="white" stroke="black" points="142,-0.5 142,-19.5 294,-19.5 294,-0.5 142,-0.5"/>
<text text-anchor="middle" x="218" y="-7.5" font-family="Helvetica,sans-Serif" font-size="10.00">Physics/EvtGen/EvtGenIF.cpp</text>
</a>
</g>
</g>
<!-- Node3&#45;&gt;Node4 -->
<g id="edge3" class="edge"><title>Node3&#45;&gt;Node4</title>
<path fill="none" stroke="midnightblue" d="M218,-45.8045C218,-36.9102 218,-26.7798 218,-19.7511"/>
<polygon fill="midnightblue" stroke="midnightblue" points="214.5,-46.083 218,-56.083 221.5,-46.083 214.5,-46.083"/>
</g>
</g>
</svg>
