<?xml version="1.0" encoding="UTF-8" standalone="no"?>
<!DOCTYPE svg PUBLIC "-//W3C//DTD SVG 1.1//EN"
 "http://www.w3.org/Graphics/SVG/1.1/DTD/svg11.dtd">
<!-- Generated by graphviz version 2.38.0 (20140413.2041)
 -->
<!-- Title: /home/travis/build/ComPWA/ComPWA/Tools/Integration.hpp Pages: 1 -->
<svg width="637pt" height="206pt"
 viewBox="0.00 0.00 636.50 206.00" xmlns="http://www.w3.org/2000/svg" xmlns:xlink="http://www.w3.org/1999/xlink">
<g id="graph0" class="graph" transform="scale(1 1) rotate(0) translate(4 202)">
<title>/home/travis/build/ComPWA/ComPWA/Tools/Integration.hpp</title>
<polygon fill="white" stroke="none" points="-4,4 -4,-202 632.5,-202 632.5,4 -4,4"/>
<!-- Node1 -->
<g id="node1" class="node"><title>Node1</title>
<polygon fill="#bfbfbf" stroke="black" points="253.5,-156.5 253.5,-197.5 391.5,-197.5 391.5,-156.5 253.5,-156.5"/>
<text text-anchor="start" x="261.5" y="-185.5" font-family="Helvetica,sans-Serif" font-size="10.00">/home/travis/build</text>
<text text-anchor="start" x="261.5" y="-174.5" font-family="Helvetica,sans-Serif" font-size="10.00">/ComPWA/ComPWA/Tools</text>
<text text-anchor="middle" x="322.5" y="-163.5" font-family="Helvetica,sans-Serif" font-size="10.00">/Integration.hpp</text>
</g>
<!-- Node2 -->
<g id="node2" class="node"><title>Node2</title>
<g id="a_node2"><a xlink:href="BuilderXML_8cpp.html" target="_top" xlink:title="/home/travis/build\l/ComPWA/ComPWA/Physics\l/BuilderXML.cpp">
<polygon fill="white" stroke="black" points="0,-78.5 0,-119.5 149,-119.5 149,-78.5 0,-78.5"/>
<text text-anchor="start" x="8" y="-107.5" font-family="Helvetica,sans-Serif" font-size="10.00">/home/travis/build</text>
<text text-anchor="start" x="8" y="-96.5" font-family="Helvetica,sans-Serif" font-size="10.00">/ComPWA/ComPWA/Physics</text>
<text text-anchor="middle" x="74.5" y="-85.5" font-family="Helvetica,sans-Serif" font-size="10.00">/BuilderXML.cpp</text>
</a>
</g>
</g>
<!-- Node1&#45;&gt;Node2 -->
<g id="edge1" class="edge"><title>Node1&#45;&gt;Node2</title>
<path fill="none" stroke="midnightblue" d="M248.891,-153.442C213.69,-142.655 171.961,-129.867 138.15,-119.506"/>
<polygon fill="midnightblue" stroke="midnightblue" points="248.047,-156.844 258.634,-156.428 250.098,-150.152 248.047,-156.844"/>
</g>
<!-- Node3 -->
<g id="node3" class="node"><title>Node3</title>
<g id="a_node3"><a xlink:href="EvtGenIF_8hpp.html" target="_top" xlink:title="/home/travis/build\l/ComPWA/ComPWA/Physics\l/EvtGen/EvtGenIF.hpp">
<polygon fill="white" stroke="black" points="167,-78.5 167,-119.5 316,-119.5 316,-78.5 167,-78.5"/>
<text text-anchor="start" x="175" y="-107.5" font-family="Helvetica,sans-Serif" font-size="10.00">/home/travis/build</text>
<text text-anchor="start" x="175" y="-96.5" font-family="Helvetica,sans-Serif" font-size="10.00">/ComPWA/ComPWA/Physics</text>
<text text-anchor="middle" x="241.5" y="-85.5" font-family="Helvetica,sans-Serif" font-size="10.00">/EvtGen/EvtGenIF.hpp</text>
</a>
</g>
</g>
<!-- Node1&#45;&gt;Node3 -->
<g id="edge2" class="edge"><title>Node1&#45;&gt;Node3</title>
<path fill="none" stroke="midnightblue" d="M294.248,-149.492C283.737,-139.629 272.011,-128.627 262.289,-119.506"/>
<polygon fill="midnightblue" stroke="midnightblue" points="291.953,-152.138 301.64,-156.428 296.743,-147.033 291.953,-152.138"/>
</g>
<!-- Node6 -->
<g id="node6" class="node"><title>Node6</title>
<g id="a_node6"><a xlink:href="FitFractions_8cpp.html" target="_top" xlink:title="/home/travis/build\l/ComPWA/ComPWA/Tools\l/FitFractions.cpp">
<polygon fill="white" stroke="black" points="334.5,-78.5 334.5,-119.5 472.5,-119.5 472.5,-78.5 334.5,-78.5"/>
<text text-anchor="start" x="342.5" y="-107.5" font-family="Helvetica,sans-Serif" font-size="10.00">/home/travis/build</text>
<text text-anchor="start" x="342.5" y="-96.5" font-family="Helvetica,sans-Serif" font-size="10.00">/ComPWA/ComPWA/Tools</text>
<text text-anchor="middle" x="403.5" y="-85.5" font-family="Helvetica,sans-Serif" font-size="10.00">/FitFractions.cpp</text>
</a>
</g>
</g>
<!-- Node1&#45;&gt;Node6 -->
<g id="edge5" class="edge"><title>Node1&#45;&gt;Node6</title>
<path fill="none" stroke="midnightblue" d="M350.752,-149.492C361.263,-139.629 372.989,-128.627 382.711,-119.506"/>
<polygon fill="midnightblue" stroke="midnightblue" points="348.257,-147.033 343.36,-156.428 353.047,-152.138 348.257,-147.033"/>
</g>
<!-- Node7 -->
<g id="node7" class="node"><title>Node7</title>
<g id="a_node7"><a xlink:href="Integration_8cpp.html" target="_top" xlink:title="/home/travis/build\l/ComPWA/ComPWA/Tools\l/Integration.cpp">
<polygon fill="white" stroke="black" points="490.5,-78.5 490.5,-119.5 628.5,-119.5 628.5,-78.5 490.5,-78.5"/>
<text text-anchor="start" x="498.5" y="-107.5" font-family="Helvetica,sans-Serif" font-size="10.00">/home/travis/build</text>
<text text-anchor="start" x="498.5" y="-96.5" font-family="Helvetica,sans-Serif" font-size="10.00">/ComPWA/ComPWA/Tools</text>
<text text-anchor="middle" x="559.5" y="-85.5" font-family="Helvetica,sans-Serif" font-size="10.00">/Integration.cpp</text>
</a>
</g>
</g>
<!-- Node1&#45;&gt;Node7 -->
<g id="edge6" class="edge"><title>Node1&#45;&gt;Node7</title>
<path fill="none" stroke="midnightblue" d="M393.276,-153.304C426.824,-142.546 466.5,-129.823 498.673,-119.506"/>
<polygon fill="midnightblue" stroke="midnightblue" points="391.987,-150.042 383.533,-156.428 394.125,-156.707 391.987,-150.042"/>
</g>
<!-- Node4 -->
<g id="node4" class="node"><title>Node4</title>
<g id="a_node4"><a xlink:href="EvtGenFit_8cpp.html" target="_top" xlink:title="/home/travis/build\l/ComPWA/ComPWA/Examples\l/EvtGen/EvtGenFit.cpp">
<polygon fill="white" stroke="black" points="77.5,-0.5 77.5,-41.5 235.5,-41.5 235.5,-0.5 77.5,-0.5"/>
<text text-anchor="start" x="85.5" y="-29.5" font-family="Helvetica,sans-Serif" font-size="10.00">/home/travis/build</text>
<text text-anchor="start" x="85.5" y="-18.5" font-family="Helvetica,sans-Serif" font-size="10.00">/ComPWA/ComPWA/Examples</text>
<text text-anchor="middle" x="156.5" y="-7.5" font-family="Helvetica,sans-Serif" font-size="10.00">/EvtGen/EvtGenFit.cpp</text>
</a>
</g>
</g>
<!-- Node3&#45;&gt;Node4 -->
<g id="edge3" class="edge"><title>Node3&#45;&gt;Node4</title>
<path fill="none" stroke="midnightblue" d="M211.852,-71.4916C200.822,-61.6294 188.517,-50.6273 178.315,-41.5056"/>
<polygon fill="midnightblue" stroke="midnightblue" points="209.823,-74.3719 219.61,-78.4281 214.489,-69.1535 209.823,-74.3719"/>
</g>
<!-- Node5 -->
<g id="node5" class="node"><title>Node5</title>
<g id="a_node5"><a xlink:href="EvtGenIF_8cpp.html" target="_top" xlink:title="/home/travis/build\l/ComPWA/ComPWA/Physics\l/EvtGen/EvtGenIF.cpp">
<polygon fill="white" stroke="black" points="253,-0.5 253,-41.5 402,-41.5 402,-0.5 253,-0.5"/>
<text text-anchor="start" x="261" y="-29.5" font-family="Helvetica,sans-Serif" font-size="10.00">/home/travis/build</text>
<text text-anchor="start" x="261" y="-18.5" font-family="Helvetica,sans-Serif" font-size="10.00">/ComPWA/ComPWA/Physics</text>
<text text-anchor="middle" x="327.5" y="-7.5" font-family="Helvetica,sans-Serif" font-size="10.00">/EvtGen/EvtGenIF.cpp</text>
</a>
</g>
</g>
<!-- Node3&#45;&gt;Node5 -->
<g id="edge4" class="edge"><title>Node3&#45;&gt;Node5</title>
<path fill="none" stroke="midnightblue" d="M271.172,-71.7785C282.414,-61.8432 295.006,-50.7159 305.428,-41.5056"/>
<polygon fill="midnightblue" stroke="midnightblue" points="268.823,-69.1834 263.647,-78.4281 273.458,-74.4288 268.823,-69.1834"/>
</g>
</g>
</svg>
