<?xml version="1.0" encoding="UTF-8" standalone="no"?>
<!DOCTYPE svg PUBLIC "-//W3C//DTD SVG 1.1//EN"
 "http://www.w3.org/Graphics/SVG/1.1/DTD/svg11.dtd">
<!-- Generated by graphviz version 2.38.0 (20140413.2041)
 -->
<!-- Title: /home/travis/build/ComPWA/ComPWA/Core/Kinematics.hpp Pages: 1 -->
<!--zoomable 295 -->
<svg id="main" version="1.1" xmlns="http://www.w3.org/2000/svg" xmlns:xlink="http://www.w3.org/1999/xlink" xml:space="preserve" onload="init(evt)">
<style type="text/css"><![CDATA[
.edge:hover path { stroke: red; }
.edge:hover polygon { stroke: red; fill: red; }
]]></style>
<script type="text/javascript"><![CDATA[
var edges = document.getElementsByTagName('g');
if (edges && edges.length) {
  for (var i=0;i<edges.length;i++) {
    if (edges[i].id.substr(0,4)=='edge') {
      edges[i].setAttribute('class','edge');
    }
  }
}
]]></script>
        <defs>
                <circle id="rim" cx="0" cy="0" r="7"/>
                <circle id="rim2" cx="0" cy="0" r="3.5"/>
                <g id="zoomPlus">
                        <use xlink:href="#rim" fill="#404040">
                                <set attributeName="fill" to="#808080" begin="zoomplus.mouseover" end="zoomplus.mouseout"/>
                        </use>
                        <path d="M-4,0h8M0,-4v8" fill="none" stroke="white" stroke-width="1.5" pointer-events="none"/>
                </g>
                <g id="zoomMin">
                        <use xlink:href="#rim" fill="#404040">
                                <set attributeName="fill" to="#808080" begin="zoomminus.mouseover" end="zoomminus.mouseout"/>
                        </use>
                        <path d="M-4,0h8" fill="none" stroke="white" stroke-width="1.5" pointer-events="none"/>
                </g>
                <g id="dirArrow">
                        <path fill="none" stroke="white" stroke-width="1.5" d="M0,-3.0v7 M-2.5,-0.5L0,-3.0L2.5,-0.5"/>
                </g>
               <g id="resetDef">
                       <use xlink:href="#rim2" fill="#404040">
                               <set attributeName="fill" to="#808080" begin="reset.mouseover" end="reset.mouseout"/>
                       </use>
               </g>
        </defs>

<script type="text/javascript">
var viewWidth = 2617;
var viewHeight = 295;
var sectionId = 'dynsection-1';
</script>
<script xlink:href="svgpan.js"/>
<svg id="graph" class="graph">
<g id="viewport">
<title>/home/travis/build/ComPWA/ComPWA/Core/Kinematics.hpp</title>
<polygon fill="white" stroke="none" points="-4,4 -4,-291 2613.2,-291 2613.2,4 -4,4"/>
<!-- Node1 -->
<g id="node1" class="node"><title>Node1</title>
<polygon fill="#bfbfbf" stroke="black" points="752,-245.5 752,-286.5 887,-286.5 887,-245.5 752,-245.5"/>
<text text-anchor="start" x="760" y="-274.5" font-family="Helvetica,sans-Serif" font-size="10.00">/home/travis/build</text>
<text text-anchor="start" x="760" y="-263.5" font-family="Helvetica,sans-Serif" font-size="10.00">/ComPWA/ComPWA/Core</text>
<text text-anchor="middle" x="819.5" y="-252.5" font-family="Helvetica,sans-Serif" font-size="10.00">/Kinematics.hpp</text>
</g>
<!-- Node2 -->
<g id="node2" class="node"><title>Node2</title>
<g id="a_node2"><a xlink:href="FunctionTreeIntensity_8cpp.html" target="_top" xlink:title="/home/travis/build\l/ComPWA/ComPWA/Core\l/FunctionTree/FunctionTreeIntensity.cpp">
<polygon fill="white" stroke="black" points="0,-167.5 0,-208.5 193,-208.5 193,-167.5 0,-167.5"/>
<text text-anchor="start" x="8" y="-196.5" font-family="Helvetica,sans-Serif" font-size="10.00">/home/travis/build</text>
<text text-anchor="start" x="8" y="-185.5" font-family="Helvetica,sans-Serif" font-size="10.00">/ComPWA/ComPWA/Core</text>
<text text-anchor="middle" x="96.5" y="-174.5" font-family="Helvetica,sans-Serif" font-size="10.00">/FunctionTree/FunctionTreeIntensity.cpp</text>
</a>
</g>
</g>
<!-- Node1&#45;&gt;Node2 -->
<g id="edge1" class="edge"><title>Node1&#45;&gt;Node2</title>
<path fill="none" stroke="midnightblue" d="M741.598,-260.395C624.134,-252.898 394.838,-236.106 201.5,-209 198.743,-208.614 195.949,-208.204 193.132,-207.775"/>
<polygon fill="midnightblue" stroke="midnightblue" points="741.379,-263.888 751.58,-261.027 741.821,-256.902 741.379,-263.888"/>
</g>
<!-- Node3 -->
<g id="node3" class="node"><title>Node3</title>
<g id="a_node3"><a xlink:href="DataCorrection_8cpp.html" target="_top" xlink:title="/home/travis/build\l/ComPWA/ComPWA/Data\l/DataCorrection.cpp">
<polygon fill="white" stroke="black" points="211,-167.5 211,-208.5 346,-208.5 346,-167.5 211,-167.5"/>
<text text-anchor="start" x="219" y="-196.5" font-family="Helvetica,sans-Serif" font-size="10.00">/home/travis/build</text>
<text text-anchor="start" x="219" y="-185.5" font-family="Helvetica,sans-Serif" font-size="10.00">/ComPWA/ComPWA/Data</text>
<text text-anchor="middle" x="278.5" y="-174.5" font-family="Helvetica,sans-Serif" font-size="10.00">/DataCorrection.cpp</text>
</a>
</g>
</g>
<!-- Node1&#45;&gt;Node3 -->
<g id="edge2" class="edge"><title>Node1&#45;&gt;Node3</title>
<path fill="none" stroke="midnightblue" d="M741.522,-258.907C648.74,-250.9 489.416,-234.75 354.5,-209 351.82,-208.488 349.094,-207.935 346.347,-207.349"/>
<polygon fill="midnightblue" stroke="midnightblue" points="741.409,-262.41 751.671,-259.774 742.005,-255.436 741.409,-262.41"/>
</g>
<!-- Node4 -->
<g id="node4" class="node"><title>Node4</title>
<g id="a_node4"><a xlink:href="DataSet_8cpp.html" target="_top" xlink:title="/home/travis/build\l/ComPWA/ComPWA/Data\l/DataSet.cpp">
<polygon fill="white" stroke="black" points="364,-167.5 364,-208.5 499,-208.5 499,-167.5 364,-167.5"/>
<text text-anchor="start" x="372" y="-196.5" font-family="Helvetica,sans-Serif" font-size="10.00">/home/travis/build</text>
<text text-anchor="start" x="372" y="-185.5" font-family="Helvetica,sans-Serif" font-size="10.00">/ComPWA/ComPWA/Data</text>
<text text-anchor="middle" x="431.5" y="-174.5" font-family="Helvetica,sans-Serif" font-size="10.00">/DataSet.cpp</text>
</a>
</g>
</g>
<!-- Node1&#45;&gt;Node4 -->
<g id="edge3" class="edge"><title>Node1&#45;&gt;Node4</title>
<path fill="none" stroke="midnightblue" d="M742.024,-252.858C678.685,-242.509 586.944,-226.553 507.5,-209 504.836,-208.411 502.124,-207.792 499.388,-207.152"/>
<polygon fill="midnightblue" stroke="midnightblue" points="741.507,-256.32 751.94,-254.47 742.631,-249.411 741.507,-256.32"/>
</g>
<!-- Node5 -->
<g id="node5" class="node"><title>Node5</title>
<g id="a_node5"><a xlink:href="Generate_8cpp.html" target="_top" xlink:title="/home/travis/build\l/ComPWA/ComPWA/Data\l/Generate.cpp">
<polygon fill="white" stroke="black" points="517,-167.5 517,-208.5 652,-208.5 652,-167.5 517,-167.5"/>
<text text-anchor="start" x="525" y="-196.5" font-family="Helvetica,sans-Serif" font-size="10.00">/home/travis/build</text>
<text text-anchor="start" x="525" y="-185.5" font-family="Helvetica,sans-Serif" font-size="10.00">/ComPWA/ComPWA/Data</text>
<text text-anchor="middle" x="584.5" y="-174.5" font-family="Helvetica,sans-Serif" font-size="10.00">/Generate.cpp</text>
</a>
</g>
</g>
<!-- Node1&#45;&gt;Node5 -->
<g id="edge4" class="edge"><title>Node1&#45;&gt;Node5</title>
<path fill="none" stroke="midnightblue" d="M749.321,-242.304C716.056,-231.546 676.716,-218.823 644.813,-208.506"/>
<polygon fill="midnightblue" stroke="midnightblue" points="748.39,-245.681 758.982,-245.428 750.544,-239.021 748.39,-245.681"/>
</g>
<!-- Node6 -->
<g id="node6" class="node"><title>Node6</title>
<g id="a_node6"><a xlink:href="RootDataIO_8cpp.html" target="_top" xlink:title="/home/travis/build\l/ComPWA/ComPWA/Data\l/Root/RootDataIO.cpp">
<polygon fill="white" stroke="black" points="670,-167.5 670,-208.5 805,-208.5 805,-167.5 670,-167.5"/>
<text text-anchor="start" x="678" y="-196.5" font-family="Helvetica,sans-Serif" font-size="10.00">/home/travis/build</text>
<text text-anchor="start" x="678" y="-185.5" font-family="Helvetica,sans-Serif" font-size="10.00">/ComPWA/ComPWA/Data</text>
<text text-anchor="middle" x="737.5" y="-174.5" font-family="Helvetica,sans-Serif" font-size="10.00">/Root/RootDataIO.cpp</text>
</a>
</g>
</g>
<!-- Node1&#45;&gt;Node6 -->
<g id="edge5" class="edge"><title>Node1&#45;&gt;Node6</title>
<path fill="none" stroke="midnightblue" d="M790.899,-238.492C780.258,-228.629 768.387,-217.627 758.545,-208.506"/>
<polygon fill="midnightblue" stroke="midnightblue" points="788.669,-241.197 798.383,-245.428 793.428,-236.063 788.669,-241.197"/>
</g>
<!-- Node7 -->
<g id="node7" class="node"><title>Node7</title>
<g id="a_node7"><a xlink:href="MinLogLH_8cpp.html" target="_top" xlink:title="/home/travis/build\l/ComPWA/ComPWA/Estimator\l/MinLogLH/MinLogLH.cpp">
<polygon fill="white" stroke="black" points="823.5,-167.5 823.5,-208.5 979.5,-208.5 979.5,-167.5 823.5,-167.5"/>
<text text-anchor="start" x="831.5" y="-196.5" font-family="Helvetica,sans-Serif" font-size="10.00">/home/travis/build</text>
<text text-anchor="start" x="831.5" y="-185.5" font-family="Helvetica,sans-Serif" font-size="10.00">/ComPWA/ComPWA/Estimator</text>
<text text-anchor="middle" x="901.5" y="-174.5" font-family="Helvetica,sans-Serif" font-size="10.00">/MinLogLH/MinLogLH.cpp</text>
</a>
</g>
</g>
<!-- Node1&#45;&gt;Node7 -->
<g id="edge6" class="edge"><title>Node1&#45;&gt;Node7</title>
<path fill="none" stroke="midnightblue" d="M848.101,-238.492C858.742,-228.629 870.613,-217.627 880.455,-208.506"/>
<polygon fill="midnightblue" stroke="midnightblue" points="845.572,-236.063 840.617,-245.428 850.331,-241.197 845.572,-236.063"/>
</g>
<!-- Node8 -->
<g id="node8" class="node"><title>Node8</title>
<g id="a_node8"><a xlink:href="SumMinLogLH_8cpp.html" target="_top" xlink:title="/home/travis/build\l/ComPWA/ComPWA/Estimator\l/MinLogLH/SumMinLogLH.cpp">
<polygon fill="white" stroke="black" points="997.5,-167.5 997.5,-208.5 1153.5,-208.5 1153.5,-167.5 997.5,-167.5"/>
<text text-anchor="start" x="1005.5" y="-196.5" font-family="Helvetica,sans-Serif" font-size="10.00">/home/travis/build</text>
<text text-anchor="start" x="1005.5" y="-185.5" font-family="Helvetica,sans-Serif" font-size="10.00">/ComPWA/ComPWA/Estimator</text>
<text text-anchor="middle" x="1075.5" y="-174.5" font-family="Helvetica,sans-Serif" font-size="10.00">/MinLogLH/SumMinLogLH.cpp</text>
</a>
</g>
</g>
<!-- Node1&#45;&gt;Node8 -->
<g id="edge7" class="edge"><title>Node1&#45;&gt;Node8</title>
<path fill="none" stroke="midnightblue" d="M895.018,-242.58C931.452,-231.764 974.746,-218.911 1009.8,-208.506"/>
<polygon fill="midnightblue" stroke="midnightblue" points="894.017,-239.227 885.426,-245.428 896.009,-245.937 894.017,-239.227"/>
</g>
<!-- Node9 -->
<g id="node9" class="node"><title>Node9</title>
<g id="a_node9"><a xlink:href="DalitzKinematics_8hpp.html" target="_top" xlink:title="Contains DalitzKinematics class. ">
<polygon fill="white" stroke="black" points="1172,-167.5 1172,-208.5 1321,-208.5 1321,-167.5 1172,-167.5"/>
<text text-anchor="start" x="1180" y="-196.5" font-family="Helvetica,sans-Serif" font-size="10.00">/home/travis/build</text>
<text text-anchor="start" x="1180" y="-185.5" font-family="Helvetica,sans-Serif" font-size="10.00">/ComPWA/ComPWA/Physics</text>
<text text-anchor="middle" x="1246.5" y="-174.5" font-family="Helvetica,sans-Serif" font-size="10.00">/EvtGen/DalitzKinematics.hpp</text>
</a>
</g>
</g>
<!-- Node1&#45;&gt;Node9 -->
<g id="edge8" class="edge"><title>Node1&#45;&gt;Node9</title>
<path fill="none" stroke="midnightblue" d="M897.143,-253.952C966.851,-243.646 1071.86,-227.166 1162.5,-209 1165.59,-208.381 1168.73,-207.73 1171.91,-207.054"/>
<polygon fill="midnightblue" stroke="midnightblue" points="896.504,-250.508 887.12,-255.427 897.523,-257.434 896.504,-250.508"/>
</g>
<!-- Node13 -->
<g id="node13" class="node"><title>Node13</title>
<g id="a_node13"><a xlink:href="HelicityKinematics_8hpp.html" target="_top" xlink:title="/home/travis/build\l/ComPWA/ComPWA/Physics\l/HelicityFormalism/HelicityKinematics.hpp">
<polygon fill="white" stroke="black" points="1706.5,-167.5 1706.5,-208.5 1908.5,-208.5 1908.5,-167.5 1706.5,-167.5"/>
<text text-anchor="start" x="1714.5" y="-196.5" font-family="Helvetica,sans-Serif" font-size="10.00">/home/travis/build</text>
<text text-anchor="start" x="1714.5" y="-185.5" font-family="Helvetica,sans-Serif" font-size="10.00">/ComPWA/ComPWA/Physics</text>
<text text-anchor="middle" x="1807.5" y="-174.5" font-family="Helvetica,sans-Serif" font-size="10.00">/HelicityFormalism/HelicityKinematics.hpp</text>
</a>
</g>
</g>
<!-- Node1&#45;&gt;Node13 -->
<g id="edge13" class="edge"><title>Node1&#45;&gt;Node13</title>
<path fill="none" stroke="midnightblue" d="M897.045,-259.035C1074.23,-245.406 1508.67,-211.987 1706.46,-196.772"/>
<polygon fill="midnightblue" stroke="midnightblue" points="896.722,-255.549 887.02,-259.806 897.259,-262.529 896.722,-255.549"/>
</g>
<!-- Node20 -->
<g id="node20" class="node"><title>Node20</title>
<g id="a_node20"><a xlink:href="BOSSAdapter_8cpp.html" target="_top" xlink:title="/home/travis/build\l/ComPWA/ComPWA/Tools\l/Adapters/BOSSAdapter.cpp">
<polygon fill="white" stroke="black" points="2418.5,-0.5 2418.5,-41.5 2560.5,-41.5 2560.5,-0.5 2418.5,-0.5"/>
<text text-anchor="start" x="2426.5" y="-29.5" font-family="Helvetica,sans-Serif" font-size="10.00">/home/travis/build</text>
<text text-anchor="start" x="2426.5" y="-18.5" font-family="Helvetica,sans-Serif" font-size="10.00">/ComPWA/ComPWA/Tools</text>
<text text-anchor="middle" x="2489.5" y="-7.5" font-family="Helvetica,sans-Serif" font-size="10.00">/Adapters/BOSSAdapter.cpp</text>
</a>
</g>
</g>
<!-- Node1&#45;&gt;Node20 -->
<g id="edge23" class="edge"><title>Node1&#45;&gt;Node20</title>
<path fill="none" stroke="midnightblue" d="M897.48,-265.322C1225.78,-265.868 2483.87,-259.511 2598.5,-131 2614.18,-113.422 2610.77,-98.105 2598.5,-78 2588.58,-61.7481 2572.27,-50.0152 2555.26,-41.6278"/>
<polygon fill="midnightblue" stroke="midnightblue" points="897.124,-261.822 887.117,-265.302 897.11,-268.822 897.124,-261.822"/>
</g>
<!-- Node10 -->
<g id="node10" class="node"><title>Node10</title>
<g id="a_node10"><a xlink:href="EvtGenFit_8cpp.html" target="_top" xlink:title="/home/travis/build\l/ComPWA/ComPWA/Examples\l/EvtGen/EvtGenFit.cpp">
<polygon fill="white" stroke="black" points="1167.5,-0.5 1167.5,-41.5 1325.5,-41.5 1325.5,-0.5 1167.5,-0.5"/>
<text text-anchor="start" x="1175.5" y="-29.5" font-family="Helvetica,sans-Serif" font-size="10.00">/home/travis/build</text>
<text text-anchor="start" x="1175.5" y="-18.5" font-family="Helvetica,sans-Serif" font-size="10.00">/ComPWA/ComPWA/Examples</text>
<text text-anchor="middle" x="1246.5" y="-7.5" font-family="Helvetica,sans-Serif" font-size="10.00">/EvtGen/EvtGenFit.cpp</text>
</a>
</g>
</g>
<!-- Node9&#45;&gt;Node10 -->
<g id="edge9" class="edge"><title>Node9&#45;&gt;Node10</title>
<path fill="none" stroke="midnightblue" d="M1161.79,-167.098C1084.74,-153.31 1041.24,-187.652 995.5,-131 980.702,-112.673 980.768,-96.3805 995.5,-78 1016.83,-51.3918 1102.07,-36.5992 1167.35,-28.9953"/>
<polygon fill="midnightblue" stroke="midnightblue" points="1161.37,-170.583 1171.86,-169.142 1162.76,-163.723 1161.37,-170.583"/>
</g>
<!-- Node11 -->
<g id="node11" class="node"><title>Node11</title>
<g id="a_node11"><a xlink:href="DalitzKinematics_8cpp.html" target="_top" xlink:title="/home/travis/build\l/ComPWA/ComPWA/Physics\l/EvtGen/DalitzKinematics.cpp">
<polygon fill="white" stroke="black" points="1005,-84 1005,-125 1154,-125 1154,-84 1005,-84"/>
<text text-anchor="start" x="1013" y="-113" font-family="Helvetica,sans-Serif" font-size="10.00">/home/travis/build</text>
<text text-anchor="start" x="1013" y="-102" font-family="Helvetica,sans-Serif" font-size="10.00">/ComPWA/ComPWA/Physics</text>
<text text-anchor="middle" x="1079.5" y="-91" font-family="Helvetica,sans-Serif" font-size="10.00">/EvtGen/DalitzKinematics.cpp</text>
</a>
</g>
</g>
<!-- Node9&#45;&gt;Node11 -->
<g id="edge10" class="edge"><title>Node9&#45;&gt;Node11</title>
<path fill="none" stroke="midnightblue" d="M1197.26,-162.97C1172.48,-150.874 1142.82,-136.4 1119.46,-125.003"/>
<polygon fill="midnightblue" stroke="midnightblue" points="1195.98,-166.238 1206.5,-167.479 1199.05,-159.947 1195.98,-166.238"/>
</g>
<!-- Node12 -->
<g id="node12" class="node"><title>Node12</title>
<g id="a_node12"><a xlink:href="EvtGenIF_8hpp.html" target="_top" xlink:title="/home/travis/build\l/ComPWA/ComPWA/Physics\l/EvtGen/EvtGenIF.hpp">
<polygon fill="white" stroke="red" points="1172,-84 1172,-125 1321,-125 1321,-84 1172,-84"/>
<text text-anchor="start" x="1180" y="-113" font-family="Helvetica,sans-Serif" font-size="10.00">/home/travis/build</text>
<text text-anchor="start" x="1180" y="-102" font-family="Helvetica,sans-Serif" font-size="10.00">/ComPWA/ComPWA/Physics</text>
<text text-anchor="middle" x="1246.5" y="-91" font-family="Helvetica,sans-Serif" font-size="10.00">/EvtGen/EvtGenIF.hpp</text>
</a>
</g>
</g>
<!-- Node9&#45;&gt;Node12 -->
<g id="edge11" class="edge"><title>Node9&#45;&gt;Node12</title>
<path fill="none" stroke="midnightblue" d="M1246.5,-157.065C1246.5,-146.382 1246.5,-134.63 1246.5,-125.047"/>
<polygon fill="midnightblue" stroke="midnightblue" points="1243,-157.271 1246.5,-167.271 1250,-157.271 1243,-157.271"/>
</g>
<!-- Node12&#45;&gt;Node10 -->
<g id="edge12" class="edge"><title>Node12&#45;&gt;Node10</title>
<path fill="none" stroke="midnightblue" d="M1246.5,-73.5646C1246.5,-62.8819 1246.5,-51.1303 1246.5,-41.5472"/>
<polygon fill="midnightblue" stroke="midnightblue" points="1243,-73.7711 1246.5,-83.7711 1250,-73.7712 1243,-73.7711"/>
</g>
<!-- Node13&#45;&gt;Node10 -->
<g id="edge16" class="edge"><title>Node13&#45;&gt;Node10</title>
<path fill="none" stroke="midnightblue" d="M1696.07,-183.023C1584.24,-177.246 1421.09,-163.414 1367.5,-131 1342.92,-116.132 1351.03,-98.0945 1330.5,-78 1316.22,-64.0238 1298,-51.3902 1282.18,-41.675"/>
<polygon fill="midnightblue" stroke="midnightblue" points="1696.23,-186.535 1706.39,-183.541 1696.58,-179.544 1696.23,-186.535"/>
</g>
<!-- Node14 -->
<g id="node14" class="node"><title>Node14</title>
<g id="a_node14"><a xlink:href="DalitzFitD03K_8cpp.html" target="_top" xlink:title="Executable for Dalitz plot analysis of the decay D0 &#45;&gt; K_S K+ K&#45;. ">
<polygon fill="white" stroke="black" points="1376.5,-78.5 1376.5,-130.5 1534.5,-130.5 1534.5,-78.5 1376.5,-78.5"/>
<text text-anchor="start" x="1384.5" y="-118.5" font-family="Helvetica,sans-Serif" font-size="10.00">/home/travis/build</text>
<text text-anchor="start" x="1384.5" y="-107.5" font-family="Helvetica,sans-Serif" font-size="10.00">/ComPWA/ComPWA/Examples</text>
<text text-anchor="start" x="1384.5" y="-96.5" font-family="Helvetica,sans-Serif" font-size="10.00">/DalitzAnalysis_D0KsKK</text>
<text text-anchor="middle" x="1455.5" y="-85.5" font-family="Helvetica,sans-Serif" font-size="10.00">/DalitzFitD03K.cpp</text>
</a>
</g>
</g>
<!-- Node13&#45;&gt;Node14 -->
<g id="edge14" class="edge"><title>Node13&#45;&gt;Node14</title>
<path fill="none" stroke="midnightblue" d="M1696.83,-165.4C1649.43,-155.665 1593.57,-143.546 1543.5,-131 1540.57,-130.265 1537.59,-129.499 1534.58,-128.711"/>
<polygon fill="midnightblue" stroke="midnightblue" points="1696.32,-168.867 1706.81,-167.441 1697.72,-162.009 1696.32,-168.867"/>
</g>
<!-- Node15 -->
<g id="node15" class="node"><title>Node15</title>
<g id="a_node15"><a xlink:href="DalitzFitApp_8cpp.html" target="_top" xlink:title="Simple Dalitz plot analysis with ComPWA. ">
<polygon fill="white" stroke="black" points="1552.5,-84 1552.5,-125 1710.5,-125 1710.5,-84 1552.5,-84"/>
<text text-anchor="start" x="1560.5" y="-113" font-family="Helvetica,sans-Serif" font-size="10.00">/home/travis/build</text>
<text text-anchor="start" x="1560.5" y="-102" font-family="Helvetica,sans-Serif" font-size="10.00">/ComPWA/ComPWA/Examples</text>
<text text-anchor="middle" x="1631.5" y="-91" font-family="Helvetica,sans-Serif" font-size="10.00">/DalitzFit/DalitzFitApp.cpp</text>
</a>
</g>
</g>
<!-- Node13&#45;&gt;Node15 -->
<g id="edge15" class="edge"><title>Node13&#45;&gt;Node15</title>
<path fill="none" stroke="midnightblue" d="M1755.95,-163.13C1729.76,-151.002 1698.34,-136.45 1673.62,-125.003"/>
<polygon fill="midnightblue" stroke="midnightblue" points="1754.8,-166.453 1765.34,-167.479 1757.74,-160.101 1754.8,-166.453"/>
</g>
<!-- Node16 -->
<g id="node16" class="node"><title>Node16</title>
<g id="a_node16"><a xlink:href="SimFit_8cpp.html" target="_top" xlink:title="/home/travis/build\l/ComPWA/ComPWA/Examples\l/SimFit/SimFit.cpp">
<polygon fill="white" stroke="black" points="1728.5,-84 1728.5,-125 1886.5,-125 1886.5,-84 1728.5,-84"/>
<text text-anchor="start" x="1736.5" y="-113" font-family="Helvetica,sans-Serif" font-size="10.00">/home/travis/build</text>
<text text-anchor="start" x="1736.5" y="-102" font-family="Helvetica,sans-Serif" font-size="10.00">/ComPWA/ComPWA/Examples</text>
<text text-anchor="middle" x="1807.5" y="-91" font-family="Helvetica,sans-Serif" font-size="10.00">/SimFit/SimFit.cpp</text>
</a>
</g>
</g>
<!-- Node13&#45;&gt;Node16 -->
<g id="edge17" class="edge"><title>Node13&#45;&gt;Node16</title>
<path fill="none" stroke="midnightblue" d="M1807.5,-157.065C1807.5,-146.382 1807.5,-134.63 1807.5,-125.047"/>
<polygon fill="midnightblue" stroke="midnightblue" points="1804,-157.271 1807.5,-167.271 1811,-157.271 1804,-157.271"/>
</g>
<!-- Node17 -->
<g id="node17" class="node"><title>Node17</title>
<g id="a_node17"><a xlink:href="BuilderXML_8cpp.html" target="_top" xlink:title="/home/travis/build\l/ComPWA/ComPWA/Physics\l/BuilderXML.cpp">
<polygon fill="white" stroke="black" points="1904,-84 1904,-125 2053,-125 2053,-84 1904,-84"/>
<text text-anchor="start" x="1912" y="-113" font-family="Helvetica,sans-Serif" font-size="10.00">/home/travis/build</text>
<text text-anchor="start" x="1912" y="-102" font-family="Helvetica,sans-Serif" font-size="10.00">/ComPWA/ComPWA/Physics</text>
<text text-anchor="middle" x="1978.5" y="-91" font-family="Helvetica,sans-Serif" font-size="10.00">/BuilderXML.cpp</text>
</a>
</g>
</g>
<!-- Node13&#45;&gt;Node17 -->
<g id="edge18" class="edge"><title>Node13&#45;&gt;Node17</title>
<path fill="none" stroke="midnightblue" d="M1857.58,-163.13C1883.03,-151.002 1913.56,-136.45 1937.58,-125.003"/>
<polygon fill="midnightblue" stroke="midnightblue" points="1855.98,-160.017 1848.46,-167.479 1858.99,-166.336 1855.98,-160.017"/>
</g>
<!-- Node18 -->
<g id="node18" class="node"><title>Node18</title>
<g id="a_node18"><a xlink:href="HelicityKinematics_8cpp.html" target="_top" xlink:title="/home/travis/build\l/ComPWA/ComPWA/Physics\l/HelicityFormalism/HelicityKinematics.cpp">
<polygon fill="white" stroke="black" points="2071.5,-84 2071.5,-125 2273.5,-125 2273.5,-84 2071.5,-84"/>
<text text-anchor="start" x="2079.5" y="-113" font-family="Helvetica,sans-Serif" font-size="10.00">/home/travis/build</text>
<text text-anchor="start" x="2079.5" y="-102" font-family="Helvetica,sans-Serif" font-size="10.00">/ComPWA/ComPWA/Physics</text>
<text text-anchor="middle" x="2172.5" y="-91" font-family="Helvetica,sans-Serif" font-size="10.00">/HelicityFormalism/HelicityKinematics.cpp</text>
</a>
</g>
</g>
<!-- Node13&#45;&gt;Node18 -->
<g id="edge19" class="edge"><title>Node13&#45;&gt;Node18</title>
<path fill="none" stroke="midnightblue" d="M1907.43,-165.335C1954.51,-155.058 2011.42,-142.529 2062.5,-131 2071.01,-129.079 2079.88,-127.056 2088.74,-125.023"/>
<polygon fill="midnightblue" stroke="midnightblue" points="1906.57,-161.942 1897.54,-167.493 1908.06,-168.781 1906.57,-161.942"/>
</g>
<!-- Node19 -->
<g id="node19" class="node"><title>Node19</title>
<g id="a_node19"><a xlink:href="BOSSAdapter_8hpp.html" target="_top" xlink:title="/home/travis/build\l/ComPWA/ComPWA/Tools\l/Adapters/BOSSAdapter.hpp">
<polygon fill="white" stroke="black" points="2291.5,-84 2291.5,-125 2433.5,-125 2433.5,-84 2291.5,-84"/>
<text text-anchor="start" x="2299.5" y="-113" font-family="Helvetica,sans-Serif" font-size="10.00">/home/travis/build</text>
<text text-anchor="start" x="2299.5" y="-102" font-family="Helvetica,sans-Serif" font-size="10.00">/ComPWA/ComPWA/Tools</text>
<text text-anchor="middle" x="2362.5" y="-91" font-family="Helvetica,sans-Serif" font-size="10.00">/Adapters/BOSSAdapter.hpp</text>
</a>
</g>
</g>
<!-- Node13&#45;&gt;Node19 -->
<g id="edge20" class="edge"><title>Node13&#45;&gt;Node19</title>
<path fill="none" stroke="midnightblue" d="M1919.07,-179.899C2015.96,-172.299 2159.63,-157.57 2282.5,-131 2290.05,-129.367 2297.91,-127.317 2305.61,-125.093"/>
<polygon fill="midnightblue" stroke="midnightblue" points="1918.66,-176.42 1908.96,-180.68 1919.2,-183.4 1918.66,-176.42"/>
</g>
<!-- Node21 -->
<g id="node21" class="node"><title>Node21</title>
<g id="a_node21"><a xlink:href="DalitzPlot_8cpp.html" target="_top" xlink:title="/home/travis/build\l/ComPWA/ComPWA/Tools\l/Plotting/DalitzPlot.cpp">
<polygon fill="white" stroke="black" points="2451.5,-84 2451.5,-125 2589.5,-125 2589.5,-84 2451.5,-84"/>
<text text-anchor="start" x="2459.5" y="-113" font-family="Helvetica,sans-Serif" font-size="10.00">/home/travis/build</text>
<text text-anchor="start" x="2459.5" y="-102" font-family="Helvetica,sans-Serif" font-size="10.00">/ComPWA/ComPWA/Tools</text>
<text text-anchor="middle" x="2520.5" y="-91" font-family="Helvetica,sans-Serif" font-size="10.00">/Plotting/DalitzPlot.cpp</text>
</a>
</g>
</g>
<!-- Node13&#45;&gt;Node21 -->
<g id="edge22" class="edge"><title>Node13&#45;&gt;Node21</title>
<path fill="none" stroke="midnightblue" d="M1918.78,-184.842C2046.43,-180.606 2261.46,-168.069 2442.5,-131 2450.18,-129.428 2458.15,-127.355 2465.95,-125.068"/>
<polygon fill="midnightblue" stroke="midnightblue" points="1918.49,-181.35 1908.6,-185.168 1918.71,-188.346 1918.49,-181.35"/>
</g>
<!-- Node19&#45;&gt;Node20 -->
<g id="edge21" class="edge"><title>Node19&#45;&gt;Node20</title>
<path fill="none" stroke="midnightblue" d="M2401.41,-78.5271C2419.88,-66.6778 2441.62,-52.7236 2458.89,-41.6445"/>
<polygon fill="midnightblue" stroke="midnightblue" points="2399.45,-75.6322 2392.92,-83.9787 2403.23,-81.5234 2399.45,-75.6322"/>
</g>
</g>
</svg>
        <g id="navigator" transform="translate(0 0)" fill="#404254">
                <rect fill="#f2f5e9" fill-opacity="0.5" stroke="#606060" stroke-width=".5" x="0" y="0" width="60" height="60"/>
                <use id="zoomplus" xlink:href="#zoomPlus" x="17" y="9" onmousedown="handleZoom(evt,'in')"/>
                <use id="zoomminus" xlink:href="#zoomMin" x="42" y="9" onmousedown="handleZoom(evt,'out')"/>
                <use id="reset" xlink:href="#resetDef" x="30" y="36" onmousedown="handleReset()"/>
                <g id="arrowUp" xlink:href="#dirArrow" transform="translate(30 24)" onmousedown="handlePan(0,-1)">
                  <use xlink:href="#rim" fill="#404040">
                        <set attributeName="fill" to="#808080" begin="arrowUp.mouseover" end="arrowUp.mouseout"/>
                  </use>
                  <path fill="none" stroke="white" stroke-width="1.5" d="M0,-3.0v7 M-2.5,-0.5L0,-3.0L2.5,-0.5"/>
                </g>
                <g id="arrowRight" xlink:href="#dirArrow" transform="rotate(90) translate(36 -43)" onmousedown="handlePan(1,0)">
                  <use xlink:href="#rim" fill="#404040">
                        <set attributeName="fill" to="#808080" begin="arrowRight.mouseover" end="arrowRight.mouseout"/>
                  </use>
                  <path fill="none" stroke="white" stroke-width="1.5" d="M0,-3.0v7 M-2.5,-0.5L0,-3.0L2.5,-0.5"/>
                </g>
                <g id="arrowDown" xlink:href="#dirArrow" transform="rotate(180) translate(-30 -48)" onmousedown="handlePan(0,1)">
                  <use xlink:href="#rim" fill="#404040">
                        <set attributeName="fill" to="#808080" begin="arrowDown.mouseover" end="arrowDown.mouseout"/>
                  </use>
                  <path fill="none" stroke="white" stroke-width="1.5" d="M0,-3.0v7 M-2.5,-0.5L0,-3.0L2.5,-0.5"/>
                </g>
                <g id="arrowLeft" xlink:href="#dirArrow" transform="rotate(270) translate(-36 17)" onmousedown="handlePan(-1,0)">
                  <use xlink:href="#rim" fill="#404040">
                        <set attributeName="fill" to="#808080" begin="arrowLeft.mouseover" end="arrowLeft.mouseout"/>
                  </use>
                  <path fill="none" stroke="white" stroke-width="1.5" d="M0,-3.0v7 M-2.5,-0.5L0,-3.0L2.5,-0.5"/>
                </g>
        </g>
        <svg viewBox="0 0 15 15" width="100%" height="30px" preserveAspectRatio="xMaxYMin meet">
         <g id="arrow_out" transform="scale(0.3 0.3)">
          <a xlink:href="Kinematics_8hpp__dep__incl_org.svg" target="_base">
           <rect id="button" ry="5" rx="5" y="6" x="6" height="38" width="38"
                fill="#f2f5e9" fill-opacity="0.5" stroke="#606060" stroke-width="1.0"/>
           <path id="arrow"
             d="M 11.500037,31.436501 C 11.940474,20.09759 22.043105,11.32322 32.158766,21.979434 L 37.068811,17.246167 C 37.068811,17.246167 37.088388,32 37.088388,32 L 22.160133,31.978069 C 22.160133,31.978069 26.997745,27.140456 26.997745,27.140456 C 18.528582,18.264221 13.291696,25.230495 11.500037,31.436501 z"
             style="fill:#404040;"/>
          </a>
         </g>
        </svg>
</svg>
