<?xml version="1.0" encoding="UTF-8" standalone="no"?>
<!DOCTYPE svg PUBLIC "-//W3C//DTD SVG 1.1//EN"
 "http://www.w3.org/Graphics/SVG/1.1/DTD/svg11.dtd">
<!-- Generated by graphviz version 2.38.0 (20140413.2041)
 -->
<!-- Title: /home/travis/build/ComPWA/ComPWA/ThirdParty/tbb/examples/graph/stereo/lodepng.cpp Pages: 1 -->
<svg width="278pt" height="173pt"
 viewBox="0.00 0.00 277.50 173.00" xmlns="http://www.w3.org/2000/svg" xmlns:xlink="http://www.w3.org/1999/xlink">
<g id="graph0" class="graph" transform="scale(1 1) rotate(0) translate(4 169)">
<title>/home/travis/build/ComPWA/ComPWA/ThirdParty/tbb/examples/graph/stereo/lodepng.cpp</title>
<polygon fill="white" stroke="none" points="-4,4 -4,-169 273.5,-169 273.5,4 -4,4"/>
<!-- Node1 -->
<g id="node1" class="node"><title>Node1</title>
<polygon fill="#bfbfbf" stroke="black" points="63,-112.5 63,-164.5 221,-164.5 221,-112.5 63,-112.5"/>
<text text-anchor="start" x="71" y="-152.5" font-family="Helvetica,sans-Serif" font-size="10.00">/home/travis/build</text>
<text text-anchor="start" x="71" y="-141.5" font-family="Helvetica,sans-Serif" font-size="10.00">/ComPWA/ComPWA/ThirdParty</text>
<text text-anchor="start" x="71" y="-130.5" font-family="Helvetica,sans-Serif" font-size="10.00">/tbb/examples/graph/stereo</text>
<text text-anchor="middle" x="142" y="-119.5" font-family="Helvetica,sans-Serif" font-size="10.00">/lodepng.cpp</text>
</g>
<!-- Node2 -->
<g id="node2" class="node"><title>Node2</title>
<g id="a_node2"><a xlink:href="lodepng_8h.html" target="_top" xlink:title="lodepng.h">
<polygon fill="white" stroke="black" points="0,-56.5 0,-75.5 64,-75.5 64,-56.5 0,-56.5"/>
<text text-anchor="middle" x="32" y="-63.5" font-family="Helvetica,sans-Serif" font-size="10.00">lodepng.h</text>
</a>
</g>
</g>
<!-- Node1&#45;&gt;Node2 -->
<g id="edge1" class="edge"><title>Node1&#45;&gt;Node2</title>
<path fill="none" stroke="midnightblue" d="M102.908,-112.446C86.3945,-101.862 67.787,-89.9362 53.7781,-80.9578"/>
<polygon fill="midnightblue" stroke="midnightblue" points="55.6124,-77.9762 45.3045,-75.527 51.8351,-83.8697 55.6124,-77.9762"/>
</g>
<!-- Node4 -->
<g id="node4" class="node"><title>Node4</title>
<polygon fill="white" stroke="#bfbfbf" points="82.5,-56.5 82.5,-75.5 133.5,-75.5 133.5,-56.5 82.5,-56.5"/>
<text text-anchor="middle" x="108" y="-63.5" font-family="Helvetica,sans-Serif" font-size="10.00">limits.h</text>
</g>
<!-- Node1&#45;&gt;Node4 -->
<g id="edge3" class="edge"><title>Node1&#45;&gt;Node4</title>
<path fill="none" stroke="midnightblue" d="M129.917,-112.446C125.521,-103.329 120.644,-93.2174 116.609,-84.8509"/>
<polygon fill="midnightblue" stroke="midnightblue" points="119.69,-83.1823 112.194,-75.6955 113.385,-86.2231 119.69,-83.1823"/>
</g>
<!-- Node5 -->
<g id="node5" class="node"><title>Node5</title>
<polygon fill="white" stroke="#bfbfbf" points="151.5,-56.5 151.5,-75.5 200.5,-75.5 200.5,-56.5 151.5,-56.5"/>
<text text-anchor="middle" x="176" y="-63.5" font-family="Helvetica,sans-Serif" font-size="10.00">stdio.h</text>
</g>
<!-- Node1&#45;&gt;Node5 -->
<g id="edge4" class="edge"><title>Node1&#45;&gt;Node5</title>
<path fill="none" stroke="midnightblue" d="M154.083,-112.446C158.479,-103.329 163.356,-93.2174 167.391,-84.8509"/>
<polygon fill="midnightblue" stroke="midnightblue" points="170.615,-86.2231 171.806,-75.6955 164.31,-83.1823 170.615,-86.2231"/>
</g>
<!-- Node6 -->
<g id="node6" class="node"><title>Node6</title>
<polygon fill="white" stroke="#bfbfbf" points="218.5,-56.5 218.5,-75.5 269.5,-75.5 269.5,-56.5 218.5,-56.5"/>
<text text-anchor="middle" x="244" y="-63.5" font-family="Helvetica,sans-Serif" font-size="10.00">stdlib.h</text>
</g>
<!-- Node1&#45;&gt;Node6 -->
<g id="edge5" class="edge"><title>Node1&#45;&gt;Node6</title>
<path fill="none" stroke="midnightblue" d="M178.249,-112.446C193.178,-102.127 209.952,-90.5333 222.821,-81.6384"/>
<polygon fill="midnightblue" stroke="midnightblue" points="225.183,-84.2605 231.419,-75.6955 221.203,-78.5021 225.183,-84.2605"/>
</g>
<!-- Node3 -->
<g id="node3" class="node"><title>Node3</title>
<polygon fill="white" stroke="#bfbfbf" points="5.5,-0.5 5.5,-19.5 58.5,-19.5 58.5,-0.5 5.5,-0.5"/>
<text text-anchor="middle" x="32" y="-7.5" font-family="Helvetica,sans-Serif" font-size="10.00">string.h</text>
</g>
<!-- Node2&#45;&gt;Node3 -->
<g id="edge2" class="edge"><title>Node2&#45;&gt;Node3</title>
<path fill="none" stroke="midnightblue" d="M32,-56.083C32,-49.0059 32,-38.8611 32,-29.9865"/>
<polygon fill="midnightblue" stroke="midnightblue" points="35.5001,-29.751 32,-19.7511 28.5001,-29.7511 35.5001,-29.751"/>
</g>
</g>
</svg>
