<?xml version="1.0" encoding="UTF-8" standalone="no"?>
<!DOCTYPE svg PUBLIC "-//W3C//DTD SVG 1.1//EN"
 "http://www.w3.org/Graphics/SVG/1.1/DTD/svg11.dtd">
<!-- Generated by graphviz version 2.38.0 (20140413.2041)
 -->
<!-- Title: /home/travis/build/ComPWA/ComPWA/Core/Logging.cpp Pages: 1 -->
<svg width="317pt" height="173pt"
 viewBox="0.00 0.00 316.50 173.00" xmlns="http://www.w3.org/2000/svg" xmlns:xlink="http://www.w3.org/1999/xlink">
<g id="graph0" class="graph" transform="scale(1 1) rotate(0) translate(4 169)">
<title>/home/travis/build/ComPWA/ComPWA/Core/Logging.cpp</title>
<polygon fill="white" stroke="none" points="-4,4 -4,-169 312.5,-169 312.5,4 -4,4"/>
<!-- Node1 -->
<g id="node1" class="node"><title>Node1</title>
<polygon fill="#bfbfbf" stroke="black" points="49.5,-123.5 49.5,-164.5 183.5,-164.5 183.5,-123.5 49.5,-123.5"/>
<text text-anchor="start" x="57.5" y="-152.5" font-family="Helvetica,sans-Serif" font-size="10.00">/home/travis/build</text>
<text text-anchor="start" x="57.5" y="-141.5" font-family="Helvetica,sans-Serif" font-size="10.00">/ComPWA/ComPWA/Core</text>
<text text-anchor="middle" x="116.5" y="-130.5" font-family="Helvetica,sans-Serif" font-size="10.00">/Logging.cpp</text>
</g>
<!-- Node2 -->
<g id="node2" class="node"><title>Node2</title>
<polygon fill="white" stroke="#bfbfbf" points="0,-67.5 0,-86.5 41,-86.5 41,-67.5 0,-67.5"/>
<text text-anchor="middle" x="20.5" y="-74.5" font-family="Helvetica,sans-Serif" font-size="10.00">array</text>
</g>
<!-- Node1&#45;&gt;Node2 -->
<g id="edge1" class="edge"><title>Node1&#45;&gt;Node2</title>
<path fill="none" stroke="midnightblue" d="M87.6968,-123.498C72.9782,-113.532 55.3764,-101.614 41.8805,-92.4764"/>
<polygon fill="midnightblue" stroke="midnightblue" points="43.5219,-89.3609 33.2791,-86.6525 39.5972,-95.1573 43.5219,-89.3609"/>
</g>
<!-- Node3 -->
<g id="node3" class="node"><title>Node3</title>
<polygon fill="white" stroke="#bfbfbf" points="59.5,-67.5 59.5,-86.5 109.5,-86.5 109.5,-67.5 59.5,-67.5"/>
<text text-anchor="middle" x="84.5" y="-74.5" font-family="Helvetica,sans-Serif" font-size="10.00">chrono</text>
</g>
<!-- Node1&#45;&gt;Node3 -->
<g id="edge2" class="edge"><title>Node1&#45;&gt;Node3</title>
<path fill="none" stroke="midnightblue" d="M106.899,-123.498C102.559,-114.682 97.4667,-104.339 93.2351,-95.7432"/>
<polygon fill="midnightblue" stroke="midnightblue" points="96.3167,-94.0783 88.7597,-86.6525 90.0365,-97.1701 96.3167,-94.0783"/>
</g>
<!-- Node4 -->
<g id="node4" class="node"><title>Node4</title>
<polygon fill="white" stroke="#bfbfbf" points="127.5,-67.5 127.5,-86.5 171.5,-86.5 171.5,-67.5 127.5,-67.5"/>
<text text-anchor="middle" x="149.5" y="-74.5" font-family="Helvetica,sans-Serif" font-size="10.00">ctime</text>
</g>
<!-- Node1&#45;&gt;Node4 -->
<g id="edge3" class="edge"><title>Node1&#45;&gt;Node4</title>
<path fill="none" stroke="midnightblue" d="M126.401,-123.498C130.877,-114.682 136.128,-104.339 140.492,-95.7432"/>
<polygon fill="midnightblue" stroke="midnightblue" points="143.701,-97.1536 145.107,-86.6525 137.459,-93.9847 143.701,-97.1536"/>
</g>
<!-- Node5 -->
<g id="node5" class="node"><title>Node5</title>
<g id="a_node5"><a xlink:href="Logging_8hpp.html" target="_top" xlink:title="Core/Logging.hpp">
<polygon fill="white" stroke="black" points="190,-67.5 190,-86.5 291,-86.5 291,-67.5 190,-67.5"/>
<text text-anchor="middle" x="240.5" y="-74.5" font-family="Helvetica,sans-Serif" font-size="10.00">Core/Logging.hpp</text>
</a>
</g>
</g>
<!-- Node1&#45;&gt;Node5 -->
<g id="edge4" class="edge"><title>Node1&#45;&gt;Node5</title>
<path fill="none" stroke="midnightblue" d="M153.704,-123.498C173.447,-113.149 197.206,-100.695 214.871,-91.4346"/>
<polygon fill="midnightblue" stroke="midnightblue" points="216.762,-94.3952 223.994,-86.6525 213.512,-88.1954 216.762,-94.3952"/>
</g>
<!-- Node6 -->
<g id="node6" class="node"><title>Node6</title>
<polygon fill="white" stroke="#bfbfbf" points="172.5,-0.5 172.5,-30.5 308.5,-30.5 308.5,-0.5 172.5,-0.5"/>
<text text-anchor="start" x="180.5" y="-18.5" font-family="Helvetica,sans-Serif" font-size="10.00">ThirdParty/easyloggingpp</text>
<text text-anchor="middle" x="240.5" y="-7.5" font-family="Helvetica,sans-Serif" font-size="10.00">/easylogging++.h</text>
</g>
<!-- Node5&#45;&gt;Node6 -->
<g id="edge5" class="edge"><title>Node5&#45;&gt;Node6</title>
<path fill="none" stroke="midnightblue" d="M240.5,-67.4751C240.5,-60.471 240.5,-50.1919 240.5,-40.6956"/>
<polygon fill="midnightblue" stroke="midnightblue" points="244,-40.5229 240.5,-30.523 237,-40.523 244,-40.5229"/>
</g>
</g>
</svg>
