<?xml version="1.0" encoding="UTF-8" standalone="no"?>
<!DOCTYPE svg PUBLIC "-//W3C//DTD SVG 1.1//EN"
 "http://www.w3.org/Graphics/SVG/1.1/DTD/svg11.dtd">
<!-- Generated by graphviz version 2.38.0 (20140413.2041)
 -->
<!-- Title: /home/travis/build/ComPWA/ComPWA/ThirdParty/tbb/include/tbb/memory_pool.h Pages: 1 -->
<svg width="325pt" height="162pt"
 viewBox="0.00 0.00 324.50 162.00" xmlns="http://www.w3.org/2000/svg" xmlns:xlink="http://www.w3.org/1999/xlink">
<g id="graph0" class="graph" transform="scale(1 1) rotate(0) translate(4 158)">
<title>/home/travis/build/ComPWA/ComPWA/ThirdParty/tbb/include/tbb/memory_pool.h</title>
<polygon fill="white" stroke="none" points="-4,4 -4,-158 320.5,-158 320.5,4 -4,4"/>
<!-- Node1 -->
<g id="node1" class="node"><title>Node1</title>
<polygon fill="#bfbfbf" stroke="black" points="104,-112.5 104,-153.5 273,-153.5 273,-112.5 104,-112.5"/>
<text text-anchor="start" x="112" y="-141.5" font-family="Helvetica,sans-Serif" font-size="10.00">/home/travis/build</text>
<text text-anchor="start" x="112" y="-130.5" font-family="Helvetica,sans-Serif" font-size="10.00">/ComPWA/ComPWA/ThirdParty</text>
<text text-anchor="middle" x="188.5" y="-119.5" font-family="Helvetica,sans-Serif" font-size="10.00">/tbb/include/tbb/memory_pool.h</text>
</g>
<!-- Node2 -->
<g id="node2" class="node"><title>Node2</title>
<g id="a_node2"><a xlink:href="scalable__allocator_8h.html" target="_top" xlink:title="scalable_allocator.h">
<polygon fill="white" stroke="black" points="8.5,-56.5 8.5,-75.5 118.5,-75.5 118.5,-56.5 8.5,-56.5"/>
<text text-anchor="middle" x="63.5" y="-63.5" font-family="Helvetica,sans-Serif" font-size="10.00">scalable_allocator.h</text>
</a>
</g>
</g>
<!-- Node1&#45;&gt;Node2 -->
<g id="edge1" class="edge"><title>Node1&#45;&gt;Node2</title>
<path fill="none" stroke="midnightblue" d="M150.996,-112.498C131.094,-102.149 107.143,-89.6946 89.3358,-80.4346"/>
<polygon fill="midnightblue" stroke="midnightblue" points="90.6263,-77.1608 80.1394,-75.6525 87.3968,-83.3713 90.6263,-77.1608"/>
</g>
<!-- Node5 -->
<g id="node5" class="node"><title>Node5</title>
<polygon fill="white" stroke="#bfbfbf" points="137,-56.5 137,-75.5 172,-75.5 172,-56.5 137,-56.5"/>
<text text-anchor="middle" x="154.5" y="-63.5" font-family="Helvetica,sans-Serif" font-size="10.00">new</text>
</g>
<!-- Node1&#45;&gt;Node5 -->
<g id="edge4" class="edge"><title>Node1&#45;&gt;Node5</title>
<path fill="none" stroke="midnightblue" d="M178.299,-112.498C173.688,-103.682 168.277,-93.3385 163.781,-84.7432"/>
<polygon fill="midnightblue" stroke="midnightblue" points="166.762,-82.8912 159.026,-75.6525 160.56,-86.1357 166.762,-82.8912"/>
</g>
<!-- Node6 -->
<g id="node6" class="node"><title>Node6</title>
<polygon fill="white" stroke="#bfbfbf" points="190.5,-56.5 190.5,-75.5 254.5,-75.5 254.5,-56.5 190.5,-56.5"/>
<text text-anchor="middle" x="222.5" y="-63.5" font-family="Helvetica,sans-Serif" font-size="10.00">stdexcept</text>
</g>
<!-- Node1&#45;&gt;Node6 -->
<g id="edge5" class="edge"><title>Node1&#45;&gt;Node6</title>
<path fill="none" stroke="midnightblue" d="M198.701,-112.498C203.312,-103.682 208.723,-93.3385 213.219,-84.7432"/>
<polygon fill="midnightblue" stroke="midnightblue" points="216.44,-86.1357 217.974,-75.6525 210.238,-82.8912 216.44,-86.1357"/>
</g>
<!-- Node7 -->
<g id="node7" class="node"><title>Node7</title>
<polygon fill="white" stroke="#bfbfbf" points="272.5,-56.5 272.5,-75.5 316.5,-75.5 316.5,-56.5 272.5,-56.5"/>
<text text-anchor="middle" x="294.5" y="-63.5" font-family="Helvetica,sans-Serif" font-size="10.00">string</text>
</g>
<!-- Node1&#45;&gt;Node7 -->
<g id="edge6" class="edge"><title>Node1&#45;&gt;Node7</title>
<path fill="none" stroke="midnightblue" d="M220.303,-112.498C236.868,-102.34 256.739,-90.1551 271.747,-80.9523"/>
<polygon fill="midnightblue" stroke="midnightblue" points="273.695,-83.8637 280.39,-75.6525 270.035,-77.8963 273.695,-83.8637"/>
</g>
<!-- Node3 -->
<g id="node3" class="node"><title>Node3</title>
<polygon fill="white" stroke="#bfbfbf" points="0,-0.5 0,-19.5 55,-19.5 55,-0.5 0,-0.5"/>
<text text-anchor="middle" x="27.5" y="-7.5" font-family="Helvetica,sans-Serif" font-size="10.00">stddef.h</text>
</g>
<!-- Node2&#45;&gt;Node3 -->
<g id="edge2" class="edge"><title>Node2&#45;&gt;Node3</title>
<path fill="none" stroke="midnightblue" d="M57.5553,-56.083C52.5227,-48.5341 45.1632,-37.4948 38.9865,-28.2298"/>
<polygon fill="midnightblue" stroke="midnightblue" points="41.7933,-26.1301 33.3341,-19.7511 35.9689,-30.0131 41.7933,-26.1301"/>
</g>
<!-- Node4 -->
<g id="node4" class="node"><title>Node4</title>
<polygon fill="white" stroke="#bfbfbf" points="73,-0.5 73,-19.5 126,-19.5 126,-0.5 73,-0.5"/>
<text text-anchor="middle" x="99.5" y="-7.5" font-family="Helvetica,sans-Serif" font-size="10.00">stdint.h</text>
</g>
<!-- Node2&#45;&gt;Node4 -->
<g id="edge3" class="edge"><title>Node2&#45;&gt;Node4</title>
<path fill="none" stroke="midnightblue" d="M69.4447,-56.083C74.4773,-48.5341 81.8368,-37.4948 88.0135,-28.2298"/>
<polygon fill="midnightblue" stroke="midnightblue" points="91.0311,-30.0131 93.6659,-19.7511 85.2067,-26.1301 91.0311,-30.0131"/>
</g>
</g>
</svg>
