<?xml version="1.0" encoding="UTF-8" standalone="no"?>
<!DOCTYPE svg PUBLIC "-//W3C//DTD SVG 1.1//EN"
 "http://www.w3.org/Graphics/SVG/1.1/DTD/svg11.dtd">
<!-- Generated by graphviz version 2.38.0 (20140413.2041)
 -->
<!-- Title: /home/travis/build/ComPWA/ComPWA/Estimator/MinLogLH/MinLogLH.cpp Pages: 1 -->
<!--zoomable 430 -->
<svg id="main" version="1.1" xmlns="http://www.w3.org/2000/svg" xmlns:xlink="http://www.w3.org/1999/xlink" xml:space="preserve" onload="init(evt)">
<style type="text/css"><![CDATA[
.edge:hover path { stroke: red; }
.edge:hover polygon { stroke: red; fill: red; }
]]></style>
<script type="text/javascript"><![CDATA[
var edges = document.getElementsByTagName('g');
if (edges && edges.length) {
  for (var i=0;i<edges.length;i++) {
    if (edges[i].id.substr(0,4)=='edge') {
      edges[i].setAttribute('class','edge');
    }
  }
}
]]></script>
        <defs>
                <circle id="rim" cx="0" cy="0" r="7"/>
                <circle id="rim2" cx="0" cy="0" r="3.5"/>
                <g id="zoomPlus">
                        <use xlink:href="#rim" fill="#404040">
                                <set attributeName="fill" to="#808080" begin="zoomplus.mouseover" end="zoomplus.mouseout"/>
                        </use>
                        <path d="M-4,0h8M0,-4v8" fill="none" stroke="white" stroke-width="1.5" pointer-events="none"/>
                </g>
                <g id="zoomMin">
                        <use xlink:href="#rim" fill="#404040">
                                <set attributeName="fill" to="#808080" begin="zoomminus.mouseover" end="zoomminus.mouseout"/>
                        </use>
                        <path d="M-4,0h8" fill="none" stroke="white" stroke-width="1.5" pointer-events="none"/>
                </g>
                <g id="dirArrow">
                        <path fill="none" stroke="white" stroke-width="1.5" d="M0,-3.0v7 M-2.5,-0.5L0,-3.0L2.5,-0.5"/>
                </g>
               <g id="resetDef">
                       <use xlink:href="#rim2" fill="#404040">
                               <set attributeName="fill" to="#808080" begin="reset.mouseover" end="reset.mouseout"/>
                       </use>
               </g>
        </defs>

<script type="text/javascript">
var viewWidth = 1477;
var viewHeight = 430;
var sectionId = 'dynsection-0';
</script>
<script xlink:href="svgpan.js"/>
<svg id="graph" class="graph">
<g id="viewport">
<title>/home/travis/build/ComPWA/ComPWA/Estimator/MinLogLH/MinLogLH.cpp</title>
<polygon fill="white" stroke="none" points="-4,4 -4,-426 1473,-426 1473,4 -4,4"/>
<!-- Node1 -->
<g id="node1" class="node"><title>Node1</title>
<polygon fill="#bfbfbf" stroke="black" points="615,-380.5 615,-421.5 771,-421.5 771,-380.5 615,-380.5"/>
<text text-anchor="start" x="623" y="-409.5" font-family="Helvetica,sans-Serif" font-size="10.00">/home/travis/build</text>
<text text-anchor="start" x="623" y="-398.5" font-family="Helvetica,sans-Serif" font-size="10.00">/ComPWA/ComPWA/Estimator</text>
<text text-anchor="middle" x="693" y="-387.5" font-family="Helvetica,sans-Serif" font-size="10.00">/MinLogLH/MinLogLH.cpp</text>
</g>
<!-- Node2 -->
<g id="node2" class="node"><title>Node2</title>
<g id="a_node2"><a xlink:href="MinLogLH_8hpp.html" target="_top" xlink:title="MinLogLH.hpp">
<polygon fill="white" stroke="black" points="758,-324.5 758,-343.5 838,-343.5 838,-324.5 758,-324.5"/>
<text text-anchor="middle" x="798" y="-331.5" font-family="Helvetica,sans-Serif" font-size="10.00">MinLogLH.hpp</text>
</a>
</g>
</g>
<!-- Node1&#45;&gt;Node2 -->
<g id="edge1" class="edge"><title>Node1&#45;&gt;Node2</title>
<path fill="none" stroke="midnightblue" d="M724.503,-380.498C740.912,-370.34 760.596,-358.155 775.462,-348.952"/>
<polygon fill="midnightblue" stroke="midnightblue" points="777.362,-351.892 784.023,-343.652 773.678,-345.94 777.362,-351.892"/>
</g>
<!-- Node9 -->
<g id="node9" class="node"><title>Node9</title>
<g id="a_node9"><a xlink:href="ParameterList_8hpp.html" target="_top" xlink:title="ParameterList class. ">
<polygon fill="white" stroke="red" points="411,-123.5 411,-153.5 557,-153.5 557,-123.5 411,-123.5"/>
<text text-anchor="start" x="419" y="-141.5" font-family="Helvetica,sans-Serif" font-size="10.00">Core/FunctionTree/Parameter</text>
<text text-anchor="middle" x="484" y="-130.5" font-family="Helvetica,sans-Serif" font-size="10.00">List.hpp</text>
</a>
</g>
</g>
<!-- Node1&#45;&gt;Node9 -->
<g id="edge26" class="edge"><title>Node1&#45;&gt;Node9</title>
<path fill="none" stroke="midnightblue" d="M682.27,-380.299C660.454,-341.288 607.965,-252.578 549,-190 538.512,-178.869 525.433,-168.219 513.762,-159.593"/>
<polygon fill="midnightblue" stroke="midnightblue" points="515.73,-156.697 505.57,-153.691 511.638,-162.376 515.73,-156.697"/>
</g>
<!-- Node13 -->
<g id="node13" class="node"><title>Node13</title>
<g id="a_node13"><a xlink:href="TreeNode_8hpp.html" target="_top" xlink:title="TreeNode class. ">
<polygon fill="white" stroke="black" points="361,-263 361,-282 523,-282 523,-263 361,-263"/>
<text text-anchor="middle" x="442" y="-270" font-family="Helvetica,sans-Serif" font-size="10.00">Core/FunctionTree/TreeNode.hpp</text>
</a>
</g>
</g>
<!-- Node1&#45;&gt;Node13 -->
<g id="edge27" class="edge"><title>Node1&#45;&gt;Node13</title>
<path fill="none" stroke="midnightblue" d="M650.729,-380.493C628.141,-369.93 599.927,-356.514 575,-344 536.934,-324.89 493.429,-301.537 466.839,-287.09"/>
<polygon fill="midnightblue" stroke="midnightblue" points="468.306,-283.903 457.85,-282.194 464.958,-290.051 468.306,-283.903"/>
</g>
<!-- Node17 -->
<g id="node17" class="node"><title>Node17</title>
<g id="a_node17"><a xlink:href="Kinematics_8hpp.html" target="_top" xlink:title="Core/Kinematics.hpp">
<polygon fill="white" stroke="black" points="0,-67.5 0,-86.5 108,-86.5 108,-67.5 0,-67.5"/>
<text text-anchor="middle" x="54" y="-74.5" font-family="Helvetica,sans-Serif" font-size="10.00">Core/Kinematics.hpp</text>
</a>
</g>
</g>
<!-- Node1&#45;&gt;Node17 -->
<g id="edge37" class="edge"><title>Node1&#45;&gt;Node17</title>
<path fill="none" stroke="midnightblue" d="M614.733,-400.446C446.387,-399.293 65,-384.44 65,-273.5 65,-273.5 65,-273.5 65,-204.5 65,-166.058 59.8959,-121.291 56.6413,-96.653"/>
<polygon fill="midnightblue" stroke="midnightblue" points="60.0848,-96.0005 55.2618,-86.5671 53.1493,-96.9492 60.0848,-96.0005"/>
</g>
<!-- Node18 -->
<g id="node18" class="node"><title>Node18</title>
<g id="a_node18"><a xlink:href="Particle_8hpp.html" target="_top" xlink:title="Particle and FourMomentum class. ">
<polygon fill="white" stroke="black" points="1229,-67.5 1229,-86.5 1321,-86.5 1321,-67.5 1229,-67.5"/>
<text text-anchor="middle" x="1275" y="-74.5" font-family="Helvetica,sans-Serif" font-size="10.00">Core/Particle.hpp</text>
</a>
</g>
</g>
<!-- Node1&#45;&gt;Node18 -->
<g id="edge40" class="edge"><title>Node1&#45;&gt;Node18</title>
<path fill="none" stroke="midnightblue" d="M771.132,-400.027C936.119,-397.971 1305,-381.318 1305,-273.5 1305,-273.5 1305,-273.5 1305,-204.5 1305,-165.158 1291.09,-120.745 1282.22,-96.4059"/>
<polygon fill="midnightblue" stroke="midnightblue" points="1285.37,-94.8439 1278.56,-86.7258 1278.82,-97.3174 1285.37,-94.8439"/>
</g>
<!-- Node25 -->
<g id="node25" class="node"><title>Node25</title>
<g id="a_node25"><a xlink:href="DataSet_8hpp.html" target="_top" xlink:title="Data/DataSet.hpp">
<polygon fill="white" stroke="black" points="1077.5,-196 1077.5,-215 1172.5,-215 1172.5,-196 1077.5,-196"/>
<text text-anchor="middle" x="1125" y="-203" font-family="Helvetica,sans-Serif" font-size="10.00">Data/DataSet.hpp</text>
</a>
</g>
</g>
<!-- Node1&#45;&gt;Node25 -->
<g id="edge49" class="edge"><title>Node1&#45;&gt;Node25</title>
<path fill="none" stroke="midnightblue" d="M771.011,-390.706C850.411,-378.144 974.122,-349.748 1063,-288 1087.01,-271.319 1105.76,-242.439 1116.09,-223.916"/>
<polygon fill="midnightblue" stroke="midnightblue" points="1119.2,-225.531 1120.84,-215.063 1113.03,-222.226 1119.2,-225.531"/>
</g>
<!-- Node3 -->
<g id="node3" class="node"><title>Node3</title>
<polygon fill="white" stroke="#bfbfbf" points="911,-67.5 911,-86.5 963,-86.5 963,-67.5 911,-67.5"/>
<text text-anchor="middle" x="937" y="-74.5" font-family="Helvetica,sans-Serif" font-size="10.00">memory</text>
</g>
<!-- Node2&#45;&gt;Node3 -->
<g id="edge2" class="edge"><title>Node2&#45;&gt;Node3</title>
<path fill="none" stroke="midnightblue" d="M838.039,-328.367C884.428,-322.078 956.613,-309.134 973,-288 987.147,-269.755 1024.43,-288.07 969,-123 965.504,-112.589 958.728,-102.484 952.309,-94.4963"/>
<polygon fill="midnightblue" stroke="midnightblue" points="954.824,-92.053 945.654,-86.7454 949.513,-96.6127 954.824,-92.053"/>
</g>
<!-- Node4 -->
<g id="node4" class="node"><title>Node4</title>
<polygon fill="white" stroke="#bfbfbf" points="786,-6 786,-25 830,-25 830,-6 786,-6"/>
<text text-anchor="middle" x="808" y="-13" font-family="Helvetica,sans-Serif" font-size="10.00">vector</text>
</g>
<!-- Node2&#45;&gt;Node4 -->
<g id="edge3" class="edge"><title>Node2&#45;&gt;Node4</title>
<path fill="none" stroke="midnightblue" d="M838.194,-333.121C881.889,-331.331 951.901,-322.654 1000,-288 1034.29,-263.294 1049,-248.765 1049,-206.5 1049,-206.5 1049,-206.5 1049,-137.5 1049,-91.1002 1012.27,-90.0566 972,-67 929.71,-42.7843 874.505,-28.8964 840.156,-22.025"/>
<polygon fill="midnightblue" stroke="midnightblue" points="840.684,-18.5624 830.203,-20.114 839.364,-25.4369 840.684,-18.5624"/>
</g>
<!-- Node5 -->
<g id="node5" class="node"><title>Node5</title>
<g id="a_node5"><a xlink:href="FitParameter_8hpp.html" target="_top" xlink:title="Core/FitParameter.hpp">
<polygon fill="white" stroke="red" points="575,-129 575,-148 691,-148 691,-129 575,-129"/>
<text text-anchor="middle" x="633" y="-136" font-family="Helvetica,sans-Serif" font-size="10.00">Core/FitParameter.hpp</text>
</a>
</g>
</g>
<!-- Node2&#45;&gt;Node5 -->
<g id="edge4" class="edge"><title>Node2&#45;&gt;Node5</title>
<path fill="none" stroke="midnightblue" d="M790.028,-324.473C781.684,-315.495 768.255,-300.902 757,-288 715.958,-240.952 669.141,-183.934 646.574,-156.23"/>
<polygon fill="midnightblue" stroke="midnightblue" points="649.163,-153.865 640.138,-148.315 643.732,-158.281 649.163,-153.865"/>
</g>
<!-- Node8 -->
<g id="node8" class="node"><title>Node8</title>
<g id="a_node8"><a xlink:href="FunctionTreeEstimator_8hpp.html" target="_top" xlink:title="Core/FunctionTree/Function\lTreeEstimator.hpp">
<polygon fill="white" stroke="black" points="769,-190.5 769,-220.5 907,-220.5 907,-190.5 769,-190.5"/>
<text text-anchor="start" x="777" y="-208.5" font-family="Helvetica,sans-Serif" font-size="10.00">Core/FunctionTree/Function</text>
<text text-anchor="middle" x="838" y="-197.5" font-family="Helvetica,sans-Serif" font-size="10.00">TreeEstimator.hpp</text>
</a>
</g>
</g>
<!-- Node2&#45;&gt;Node8 -->
<g id="edge10" class="edge"><title>Node2&#45;&gt;Node8</title>
<path fill="none" stroke="midnightblue" d="M799.702,-324.447C802.624,-310.254 809.054,-281.016 817,-257 819.958,-248.059 823.777,-238.465 827.345,-230.067"/>
<polygon fill="midnightblue" stroke="midnightblue" points="830.567,-231.434 831.352,-220.868 824.149,-228.638 830.567,-231.434"/>
</g>
<!-- Node11 -->
<g id="node11" class="node"><title>Node11</title>
<g id="a_node11"><a xlink:href="Estimator_8hpp.html" target="_top" xlink:title="Estimator/Estimator.hpp">
<polygon fill="white" stroke="black" points="747,-129 747,-148 869,-148 869,-129 747,-129"/>
<text text-anchor="middle" x="808" y="-136" font-family="Helvetica,sans-Serif" font-size="10.00">Estimator/Estimator.hpp</text>
</a>
</g>
</g>
<!-- Node2&#45;&gt;Node11 -->
<g id="edge25" class="edge"><title>Node2&#45;&gt;Node11</title>
<path fill="none" stroke="midnightblue" d="M791.971,-324.39C776.938,-301.792 740.371,-239.142 760,-190 765.594,-175.996 777.123,-163.654 787.48,-154.678"/>
<polygon fill="midnightblue" stroke="midnightblue" points="789.853,-157.26 795.4,-148.233 785.434,-151.831 789.853,-157.26"/>
</g>
<!-- Node12 -->
<g id="node12" class="node"><title>Node12</title>
<g id="a_node12"><a xlink:href="FunctionTreeIntensity_8hpp.html" target="_top" xlink:title="Core/FunctionTree/Function\lTreeIntensity.hpp">
<polygon fill="white" stroke="black" points="826,-257.5 826,-287.5 964,-287.5 964,-257.5 826,-257.5"/>
<text text-anchor="start" x="834" y="-275.5" font-family="Helvetica,sans-Serif" font-size="10.00">Core/FunctionTree/Function</text>
<text text-anchor="middle" x="895" y="-264.5" font-family="Helvetica,sans-Serif" font-size="10.00">TreeIntensity.hpp</text>
</a>
</g>
</g>
<!-- Node2&#45;&gt;Node12 -->
<g id="edge20" class="edge"><title>Node2&#45;&gt;Node12</title>
<path fill="none" stroke="midnightblue" d="M811.898,-324.475C825.281,-316.266 845.998,-303.558 863.398,-292.885"/>
<polygon fill="midnightblue" stroke="midnightblue" points="865.445,-295.735 872.139,-287.523 861.785,-289.768 865.445,-295.735"/>
</g>
<!-- Node5&#45;&gt;Node4 -->
<g id="edge9" class="edge"><title>Node5&#45;&gt;Node4</title>
<path fill="none" stroke="midnightblue" d="M645.306,-128.992C674.855,-108.56 750.094,-56.5377 786.975,-31.0374"/>
<polygon fill="midnightblue" stroke="midnightblue" points="789.239,-33.7272 795.474,-25.161 785.258,-27.9694 789.239,-33.7272"/>
</g>
<!-- Node6 -->
<g id="node6" class="node"><title>Node6</title>
<g id="a_node6"><a xlink:href="Function_8hpp.html" target="_top" xlink:title="Core/Function.hpp">
<polygon fill="white" stroke="black" points="759.5,-67.5 759.5,-86.5 856.5,-86.5 856.5,-67.5 759.5,-67.5"/>
<text text-anchor="middle" x="808" y="-74.5" font-family="Helvetica,sans-Serif" font-size="10.00">Core/Function.hpp</text>
</a>
</g>
</g>
<!-- Node5&#45;&gt;Node6 -->
<g id="edge5" class="edge"><title>Node5&#45;&gt;Node6</title>
<path fill="none" stroke="midnightblue" d="M658.073,-128.975C688.352,-118.68 739.44,-101.31 773.441,-89.7502"/>
<polygon fill="midnightblue" stroke="midnightblue" points="774.632,-93.0419 782.973,-86.5091 772.379,-86.4145 774.632,-93.0419"/>
</g>
<!-- Node7 -->
<g id="node7" class="node"><title>Node7</title>
<polygon fill="white" stroke="#bfbfbf" points="324.5,-6 324.5,-25 365.5,-25 365.5,-6 324.5,-6"/>
<text text-anchor="middle" x="345" y="-13" font-family="Helvetica,sans-Serif" font-size="10.00">string</text>
</g>
<!-- Node5&#45;&gt;Node7 -->
<g id="edge8" class="edge"><title>Node5&#45;&gt;Node7</title>
<path fill="none" stroke="midnightblue" d="M612.748,-128.992C562.882,-108.041 433.952,-53.872 375.097,-29.1448"/>
<polygon fill="midnightblue" stroke="midnightblue" points="376.19,-25.8077 365.615,-25.161 373.478,-32.2613 376.19,-25.8077"/>
</g>
<!-- Node6&#45;&gt;Node4 -->
<g id="edge7" class="edge"><title>Node6&#45;&gt;Node4</title>
<path fill="none" stroke="midnightblue" d="M808,-67.4751C808,-59.0803 808,-45.9806 808,-35.1631"/>
<polygon fill="midnightblue" stroke="midnightblue" points="811.5,-35.0091 808,-25.0091 804.5,-35.0091 811.5,-35.0091"/>
</g>
<!-- Node6&#45;&gt;Node7 -->
<g id="edge6" class="edge"><title>Node6&#45;&gt;Node7</title>
<path fill="none" stroke="midnightblue" d="M759.326,-69.7449C663.976,-57.4915 455.016,-30.6381 376.05,-20.4903"/>
<polygon fill="midnightblue" stroke="midnightblue" points="376.161,-16.9757 365.796,-19.1725 375.268,-23.9186 376.161,-16.9757"/>
</g>
<!-- Node8&#45;&gt;Node3 -->
<g id="edge11" class="edge"><title>Node8&#45;&gt;Node3</title>
<path fill="none" stroke="midnightblue" d="M849.244,-190.38C857.281,-180.27 868.338,-166.322 878,-154 893.854,-133.782 911.956,-110.424 923.881,-94.997"/>
<polygon fill="midnightblue" stroke="midnightblue" points="926.781,-96.9676 930.125,-86.9142 921.242,-92.6883 926.781,-96.9676"/>
</g>
<!-- Node8&#45;&gt;Node5 -->
<g id="edge12" class="edge"><title>Node8&#45;&gt;Node5</title>
<path fill="none" stroke="midnightblue" d="M793.77,-190.476C756.704,-178.723 704.414,-162.143 669.649,-151.12"/>
<polygon fill="midnightblue" stroke="midnightblue" points="670.488,-147.715 659.898,-148.029 668.373,-154.387 670.488,-147.715"/>
</g>
<!-- Node8&#45;&gt;Node9 -->
<g id="edge13" class="edge"><title>Node8&#45;&gt;Node9</title>
<path fill="none" stroke="midnightblue" d="M768.905,-191.813C711.153,-181.209 628.617,-166.054 567.233,-154.783"/>
<polygon fill="midnightblue" stroke="midnightblue" points="567.654,-151.302 557.186,-152.938 566.39,-158.187 567.654,-151.302"/>
</g>
<!-- Node8&#45;&gt;Node11 -->
<g id="edge18" class="edge"><title>Node8&#45;&gt;Node11</title>
<path fill="none" stroke="midnightblue" d="M831.49,-190.396C827.044,-180.763 821.114,-167.914 816.325,-157.537"/>
<polygon fill="midnightblue" stroke="midnightblue" points="819.381,-155.807 812.013,-148.195 813.026,-158.741 819.381,-155.807"/>
</g>
<!-- Node9&#45;&gt;Node3 -->
<g id="edge15" class="edge"><title>Node9&#45;&gt;Node3</title>
<path fill="none" stroke="midnightblue" d="M557.285,-124.335C560.226,-123.872 563.14,-123.425 566,-123 698.397,-103.339 732.148,-103.301 865,-87 876.583,-85.5787 889.212,-84.0075 900.612,-82.581"/>
<polygon fill="midnightblue" stroke="midnightblue" points="901.185,-86.0367 910.672,-81.3201 900.314,-79.0911 901.185,-86.0367"/>
</g>
<!-- Node9&#45;&gt;Node4 -->
<g id="edge17" class="edge"><title>Node9&#45;&gt;Node4</title>
<path fill="none" stroke="midnightblue" d="M521.801,-123.383C586.183,-99.3389 715.973,-50.8682 776.093,-28.4157"/>
<polygon fill="midnightblue" stroke="midnightblue" points="777.658,-31.5675 785.802,-24.79 775.209,-25.0098 777.658,-31.5675"/>
</g>
<!-- Node9&#45;&gt;Node7 -->
<g id="edge16" class="edge"><title>Node9&#45;&gt;Node7</title>
<path fill="none" stroke="midnightblue" d="M467.783,-123.383C441.433,-100.445 389.546,-55.2779 362.434,-31.676"/>
<polygon fill="midnightblue" stroke="midnightblue" points="364.711,-29.0181 354.87,-25.0922 360.115,-34.2979 364.711,-29.0181"/>
</g>
<!-- Node10 -->
<g id="node10" class="node"><title>Node10</title>
<polygon fill="white" stroke="#bfbfbf" points="927,-6 927,-25 981,-25 981,-6 927,-6"/>
<text text-anchor="middle" x="954" y="-13" font-family="Helvetica,sans-Serif" font-size="10.00">iostream</text>
</g>
<!-- Node9&#45;&gt;Node10 -->
<g id="edge14" class="edge"><title>Node9&#45;&gt;Node10</title>
<path fill="none" stroke="midnightblue" d="M535.924,-123.469C589.491,-109.056 675.49,-86.095 750,-67 808.322,-52.0534 876.218,-35.393 917.113,-25.4385"/>
<polygon fill="midnightblue" stroke="midnightblue" points="918.016,-28.821 926.906,-23.0574 916.362,-22.0192 918.016,-28.821"/>
</g>
<!-- Node11&#45;&gt;Node6 -->
<g id="edge19" class="edge"><title>Node11&#45;&gt;Node6</title>
<path fill="none" stroke="midnightblue" d="M808,-128.975C808,-120.58 808,-107.481 808,-96.6631"/>
<polygon fill="midnightblue" stroke="midnightblue" points="811.5,-96.5091 808,-86.5091 804.5,-96.5091 811.5,-96.5091"/>
</g>
<!-- Node12&#45;&gt;Node3 -->
<g id="edge21" class="edge"><title>Node12&#45;&gt;Node3</title>
<path fill="none" stroke="midnightblue" d="M917.373,-257.346C929.17,-248.499 942.51,-235.954 949,-221 967.124,-179.235 953.258,-124.23 943.838,-96.1683"/>
<polygon fill="midnightblue" stroke="midnightblue" points="947.053,-94.7628 940.407,-86.5118 940.457,-97.1065 947.053,-94.7628"/>
</g>
<!-- Node12&#45;&gt;Node6 -->
<g id="edge22" class="edge"><title>Node12&#45;&gt;Node6</title>
<path fill="none" stroke="midnightblue" d="M903.107,-257.353C911.392,-241.088 922.225,-213.594 916,-190 907.267,-156.899 901.527,-147.868 878,-123 865.819,-110.124 849.235,-99.2541 835.267,-91.4248"/>
<polygon fill="midnightblue" stroke="midnightblue" points="836.567,-88.1502 826.101,-86.5029 833.256,-94.3173 836.567,-88.1502"/>
</g>
<!-- Node12&#45;&gt;Node8 -->
<g id="edge24" class="edge"><title>Node12&#45;&gt;Node8</title>
<path fill="none" stroke="midnightblue" d="M882.632,-257.396C875.162,-248.878 865.489,-237.847 857.058,-228.233"/>
<polygon fill="midnightblue" stroke="midnightblue" points="859.569,-225.787 850.344,-220.577 854.306,-230.403 859.569,-225.787"/>
</g>
<!-- Node12&#45;&gt;Node9 -->
<g id="edge23" class="edge"><title>Node12&#45;&gt;Node9</title>
<path fill="none" stroke="midnightblue" d="M851.405,-257.499C775.569,-233.143 619.622,-183.057 537.416,-156.655"/>
<polygon fill="midnightblue" stroke="midnightblue" points="538.358,-153.282 527.767,-153.556 536.217,-159.947 538.358,-153.282"/>
</g>
<!-- Node13&#45;&gt;Node3 -->
<g id="edge29" class="edge"><title>Node13&#45;&gt;Node3</title>
<path fill="none" stroke="midnightblue" d="M466.159,-262.895C513.096,-245.667 619.099,-204.251 700,-154 718.515,-142.499 718.406,-132.546 738,-123 766.391,-109.169 851.781,-92.7725 900.991,-84.0954"/>
<polygon fill="midnightblue" stroke="midnightblue" points="901.659,-87.5317 910.909,-82.3647 900.456,-80.6359 901.659,-87.5317"/>
</g>
<!-- Node13&#45;&gt;Node7 -->
<g id="edge30" class="edge"><title>Node13&#45;&gt;Node7</title>
<path fill="none" stroke="midnightblue" d="M360.708,-268.742C284.145,-264.23 177.369,-252.339 151,-221 87.0357,-144.979 246.528,-60.9227 315.289,-29.3847"/>
<polygon fill="midnightblue" stroke="midnightblue" points="317.063,-32.4239 324.738,-25.1199 314.184,-26.0436 317.063,-32.4239"/>
</g>
<!-- Node13&#45;&gt;Node9 -->
<g id="edge36" class="edge"><title>Node13&#45;&gt;Node9</title>
<path fill="none" stroke="midnightblue" d="M473.328,-262.964C493.964,-255.532 519.416,-242.491 532,-221 544.017,-200.478 527.076,-177.093 510.096,-160.652"/>
<polygon fill="midnightblue" stroke="midnightblue" points="512.14,-157.779 502.395,-153.622 507.421,-162.949 512.14,-157.779"/>
</g>
<!-- Node14 -->
<g id="node14" class="node"><title>Node14</title>
<polygon fill="white" stroke="#bfbfbf" points="216.5,-129 216.5,-148 269.5,-148 269.5,-129 216.5,-129"/>
<text text-anchor="middle" x="243" y="-136" font-family="Helvetica,sans-Serif" font-size="10.00">complex</text>
</g>
<!-- Node13&#45;&gt;Node14 -->
<g id="edge28" class="edge"><title>Node13&#45;&gt;Node14</title>
<path fill="none" stroke="midnightblue" d="M360.749,-268.212C286.726,-263.307 185.216,-251.133 160,-221 151.158,-210.434 153.249,-202.01 160,-190 170.112,-172.011 189.515,-159.682 207.02,-151.712"/>
<polygon fill="midnightblue" stroke="midnightblue" points="208.624,-154.835 216.478,-147.725 205.904,-148.384 208.624,-154.835"/>
</g>
<!-- Node15 -->
<g id="node15" class="node"><title>Node15</title>
<g id="a_node15"><a xlink:href="Functions_8hpp.html" target="_top" xlink:title="This file contains Functions implementing the Strategy interface so they can be used inside a node of...">
<polygon fill="white" stroke="red" points="361,-196 361,-215 523,-215 523,-196 361,-196"/>
<text text-anchor="middle" x="442" y="-203" font-family="Helvetica,sans-Serif" font-size="10.00">Core/FunctionTree/Functions.hpp</text>
</a>
</g>
</g>
<!-- Node13&#45;&gt;Node15 -->
<g id="edge31" class="edge"><title>Node13&#45;&gt;Node15</title>
<path fill="none" stroke="midnightblue" d="M442,-262.734C442,-253.183 442,-237.618 442,-225.283"/>
<polygon fill="midnightblue" stroke="midnightblue" points="445.5,-225.127 442,-215.127 438.5,-225.127 445.5,-225.127"/>
</g>
<!-- Node16 -->
<g id="node16" class="node"><title>Node16</title>
<g id="a_node16"><a xlink:href="ParObserver_8hpp.html" target="_top" xlink:title="ParObserver class. ">
<polygon fill="white" stroke="black" points="169,-196 169,-215 343,-215 343,-196 169,-196"/>
<text text-anchor="middle" x="256" y="-203" font-family="Helvetica,sans-Serif" font-size="10.00">Core/FunctionTree/ParObserver.hpp</text>
</a>
</g>
</g>
<!-- Node13&#45;&gt;Node16 -->
<g id="edge35" class="edge"><title>Node13&#45;&gt;Node16</title>
<path fill="none" stroke="midnightblue" d="M417.301,-262.869C384.692,-251.473 327.117,-231.353 290.301,-218.487"/>
<polygon fill="midnightblue" stroke="midnightblue" points="291.1,-215.059 280.505,-215.064 288.791,-221.667 291.1,-215.059"/>
</g>
<!-- Node15&#45;&gt;Node4 -->
<g id="edge33" class="edge"><title>Node15&#45;&gt;Node4</title>
<path fill="none" stroke="midnightblue" d="M431.747,-195.77C414.601,-180.119 383.707,-146.711 402,-123 448.363,-62.907 688.1,-30.094 775.809,-19.9543"/>
<polygon fill="midnightblue" stroke="midnightblue" points="776.423,-23.4072 785.966,-18.8035 775.635,-16.4517 776.423,-23.4072"/>
</g>
<!-- Node15&#45;&gt;Node9 -->
<g id="edge34" class="edge"><title>Node15&#45;&gt;Node9</title>
<path fill="none" stroke="midnightblue" d="M447.664,-195.734C453.231,-187.118 461.96,-173.61 469.467,-161.992"/>
<polygon fill="midnightblue" stroke="midnightblue" points="472.409,-163.888 474.896,-153.589 466.529,-160.089 472.409,-163.888"/>
</g>
<!-- Node15&#45;&gt;Node14 -->
<g id="edge32" class="edge"><title>Node15&#45;&gt;Node14</title>
<path fill="none" stroke="midnightblue" d="M415.574,-195.869C380.463,-184.4 318.297,-164.094 278.944,-151.24"/>
<polygon fill="midnightblue" stroke="midnightblue" points="279.811,-147.842 269.218,-148.064 277.637,-154.496 279.811,-147.842"/>
</g>
<!-- Node17&#45;&gt;Node4 -->
<g id="edge39" class="edge"><title>Node17&#45;&gt;Node4</title>
<path fill="none" stroke="midnightblue" d="M108.226,-71.7209C255.248,-60.119 658.282,-28.3146 775.576,-19.0587"/>
<polygon fill="midnightblue" stroke="midnightblue" points="776.015,-22.535 785.709,-18.259 775.465,-15.5567 776.015,-22.535"/>
</g>
<!-- Node17&#45;&gt;Node7 -->
<g id="edge38" class="edge"><title>Node17&#45;&gt;Node7</title>
<path fill="none" stroke="midnightblue" d="M95.6932,-67.4751C154.798,-55.3901 261.589,-33.5548 314.119,-22.8141"/>
<polygon fill="midnightblue" stroke="midnightblue" points="315.074,-26.1913 324.171,-20.7589 313.672,-19.3332 315.074,-26.1913"/>
</g>
<!-- Node18&#45;&gt;Node4 -->
<g id="edge47" class="edge"><title>Node18&#45;&gt;Node4</title>
<path fill="none" stroke="midnightblue" d="M1228.83,-68.9402C1224.16,-68.2665 1219.49,-67.6085 1215,-67 1083.24,-49.1361 1049.91,-47.6887 918,-31 891.888,-27.6965 862.312,-23.7886 840.41,-20.8626"/>
<polygon fill="midnightblue" stroke="midnightblue" points="840.699,-17.3701 830.323,-19.512 839.77,-24.3082 840.699,-17.3701"/>
</g>
<!-- Node18&#45;&gt;Node10 -->
<g id="edge44" class="edge"><title>Node18&#45;&gt;Node10</title>
<path fill="none" stroke="midnightblue" d="M1228.83,-68.4453C1177.66,-59.9362 1092.76,-45.4067 1020,-31 1010.62,-29.1426 1000.52,-26.9979 991.112,-24.9372"/>
<polygon fill="midnightblue" stroke="midnightblue" points="991.761,-21.4962 981.241,-22.7516 990.248,-28.3307 991.761,-21.4962"/>
</g>
<!-- Node19 -->
<g id="node19" class="node"><title>Node19</title>
<polygon fill="white" stroke="#bfbfbf" points="1295,-6 1295,-25 1351,-25 1351,-6 1295,-6"/>
<text text-anchor="middle" x="1323" y="-13" font-family="Helvetica,sans-Serif" font-size="10.00">algorithm</text>
</g>
<!-- Node18&#45;&gt;Node19 -->
<g id="edge41" class="edge"><title>Node18&#45;&gt;Node19</title>
<path fill="none" stroke="midnightblue" d="M1281.88,-67.4751C1289.15,-58.4617 1300.8,-44.0246 1309.84,-32.8118"/>
<polygon fill="midnightblue" stroke="midnightblue" points="1312.58,-34.9898 1316.14,-25.0091 1307.13,-30.5946 1312.58,-34.9898"/>
</g>
<!-- Node20 -->
<g id="node20" class="node"><title>Node20</title>
<polygon fill="white" stroke="#bfbfbf" points="1369,-6 1369,-25 1407,-25 1407,-6 1369,-6"/>
<text text-anchor="middle" x="1388" y="-13" font-family="Helvetica,sans-Serif" font-size="10.00">array</text>
</g>
<!-- Node18&#45;&gt;Node20 -->
<g id="edge42" class="edge"><title>Node18&#45;&gt;Node20</title>
<path fill="none" stroke="midnightblue" d="M1291.19,-67.4751C1309.9,-57.6222 1340.92,-41.2883 1362.8,-29.7697"/>
<polygon fill="midnightblue" stroke="midnightblue" points="1364.62,-32.7651 1371.84,-25.0091 1361.36,-26.5713 1364.62,-32.7651"/>
</g>
<!-- Node21 -->
<g id="node21" class="node"><title>Node21</title>
<polygon fill="white" stroke="#bfbfbf" points="1425,-6 1425,-25 1469,-25 1469,-6 1425,-6"/>
<text text-anchor="middle" x="1447" y="-13" font-family="Helvetica,sans-Serif" font-size="10.00">cmath</text>
</g>
<!-- Node18&#45;&gt;Node21 -->
<g id="edge43" class="edge"><title>Node18&#45;&gt;Node21</title>
<path fill="none" stroke="midnightblue" d="M1305.65,-67.4556C1334.48,-59.1287 1378.67,-45.6157 1416,-31 1417.42,-30.4449 1418.86,-29.8556 1420.31,-29.2445"/>
<polygon fill="midnightblue" stroke="midnightblue" points="1422.08,-32.2906 1429.79,-25.0279 1419.23,-25.895 1422.08,-32.2906"/>
</g>
<!-- Node22 -->
<g id="node22" class="node"><title>Node22</title>
<polygon fill="white" stroke="#bfbfbf" points="1029.5,-6 1029.5,-25 1080.5,-25 1080.5,-6 1029.5,-6"/>
<text text-anchor="middle" x="1055" y="-13" font-family="Helvetica,sans-Serif" font-size="10.00">numeric</text>
</g>
<!-- Node18&#45;&gt;Node22 -->
<g id="edge45" class="edge"><title>Node18&#45;&gt;Node22</title>
<path fill="none" stroke="midnightblue" d="M1230.83,-67.4695C1192.77,-59.6111 1136.62,-46.7926 1089,-31 1087.08,-30.3637 1085.12,-29.6644 1083.16,-28.9273"/>
<polygon fill="midnightblue" stroke="midnightblue" points="1084.08,-25.5248 1073.49,-25.043 1081.46,-32.0199 1084.08,-25.5248"/>
</g>
<!-- Node23 -->
<g id="node23" class="node"><title>Node23</title>
<polygon fill="white" stroke="#bfbfbf" points="1098.5,-6 1098.5,-25 1157.5,-25 1157.5,-6 1098.5,-6"/>
<text text-anchor="middle" x="1128" y="-13" font-family="Helvetica,sans-Serif" font-size="10.00">stdexcept</text>
</g>
<!-- Node18&#45;&gt;Node23 -->
<g id="edge46" class="edge"><title>Node18&#45;&gt;Node23</title>
<path fill="none" stroke="midnightblue" d="M1253.94,-67.4751C1228.94,-57.3571 1187.06,-40.4046 1158.51,-28.8507"/>
<polygon fill="midnightblue" stroke="midnightblue" points="1159.61,-25.5168 1149.02,-25.0091 1156.98,-32.0054 1159.61,-25.5168"/>
</g>
<!-- Node24 -->
<g id="node24" class="node"><title>Node24</title>
<polygon fill="white" stroke="#bfbfbf" points="1175.5,-0.5 1175.5,-30.5 1276.5,-30.5 1276.5,-0.5 1175.5,-0.5"/>
<text text-anchor="start" x="1183.5" y="-18.5" font-family="Helvetica,sans-Serif" font-size="10.00">boost/property_tree</text>
<text text-anchor="middle" x="1226" y="-7.5" font-family="Helvetica,sans-Serif" font-size="10.00">/ptree.hpp</text>
</g>
<!-- Node18&#45;&gt;Node24 -->
<g id="edge48" class="edge"><title>Node18&#45;&gt;Node24</title>
<path fill="none" stroke="midnightblue" d="M1267.98,-67.4751C1261.72,-59.8685 1252.27,-48.3992 1243.92,-38.2649"/>
<polygon fill="midnightblue" stroke="midnightblue" points="1246.61,-36.0173 1237.55,-30.523 1241.2,-40.4673 1246.61,-36.0173"/>
</g>
<!-- Node25&#45;&gt;Node3 -->
<g id="edge50" class="edge"><title>Node25&#45;&gt;Node3</title>
<path fill="none" stroke="midnightblue" d="M1125.05,-195.745C1124.64,-179.138 1121.32,-142.942 1101,-123 1066.96,-89.5874 1010.57,-80.4249 973.597,-78.2121"/>
<polygon fill="midnightblue" stroke="midnightblue" points="973.403,-74.6998 963.255,-77.7433 973.086,-81.6926 973.403,-74.6998"/>
</g>
<!-- Node25&#45;&gt;Node4 -->
<g id="edge51" class="edge"><title>Node25&#45;&gt;Node4</title>
<path fill="none" stroke="midnightblue" d="M1127.02,-195.937C1130.21,-180.551 1134.97,-147.547 1124,-123 1108.99,-89.3983 1095.83,-83.6381 1063,-67 1024.27,-47.3679 899.664,-28.7141 840.184,-20.6621"/>
<polygon fill="midnightblue" stroke="midnightblue" points="840.583,-17.1843 830.207,-19.3284 839.655,-24.1226 840.583,-17.1843"/>
</g>
<!-- Node25&#45;&gt;Node6 -->
<g id="edge55" class="edge"><title>Node25&#45;&gt;Node6</title>
<path fill="none" stroke="midnightblue" d="M1108.31,-195.919C1077.41,-180.217 1008.93,-146.335 949,-123 915.586,-109.99 876.704,-97.7923 848.243,-89.3872"/>
<polygon fill="midnightblue" stroke="midnightblue" points="849.217,-86.0256 838.637,-86.5772 847.252,-92.7441 849.217,-86.0256"/>
</g>
<!-- Node26 -->
<g id="node26" class="node"><title>Node26</title>
<g id="a_node26"><a xlink:href="Event_8hpp.html" target="_top" xlink:title="Core/Event.hpp">
<polygon fill="white" stroke="black" points="1191.5,-129 1191.5,-148 1276.5,-148 1276.5,-129 1191.5,-129"/>
<text text-anchor="middle" x="1234" y="-136" font-family="Helvetica,sans-Serif" font-size="10.00">Core/Event.hpp</text>
</a>
</g>
</g>
<!-- Node25&#45;&gt;Node26 -->
<g id="edge52" class="edge"><title>Node25&#45;&gt;Node26</title>
<path fill="none" stroke="midnightblue" d="M1139.7,-195.734C1157.92,-184.867 1189.2,-166.216 1210.7,-153.393"/>
<polygon fill="midnightblue" stroke="midnightblue" points="1212.74,-156.255 1219.53,-148.127 1209.15,-150.243 1212.74,-156.255"/>
</g>
<!-- Node26&#45;&gt;Node4 -->
<g id="edge54" class="edge"><title>Node26&#45;&gt;Node4</title>
<path fill="none" stroke="midnightblue" d="M1229.78,-128.787C1221.83,-113.408 1203.05,-81.689 1177,-67 1173.32,-64.9256 929.695,-32.5779 840.369,-20.7711"/>
<polygon fill="midnightblue" stroke="midnightblue" points="840.64,-17.2765 830.267,-19.4365 839.723,-24.2162 840.64,-17.2765"/>
</g>
<!-- Node26&#45;&gt;Node18 -->
<g id="edge53" class="edge"><title>Node26&#45;&gt;Node18</title>
<path fill="none" stroke="midnightblue" d="M1239.87,-128.975C1245.96,-120.138 1255.64,-106.089 1263.3,-94.975"/>
<polygon fill="midnightblue" stroke="midnightblue" points="1266.34,-96.7294 1269.14,-86.5091 1260.58,-92.7575 1266.34,-96.7294"/>
</g>
</g>
</svg>
        <g id="navigator" transform="translate(0 0)" fill="#404254">
                <rect fill="#f2f5e9" fill-opacity="0.5" stroke="#606060" stroke-width=".5" x="0" y="0" width="60" height="60"/>
                <use id="zoomplus" xlink:href="#zoomPlus" x="17" y="9" onmousedown="handleZoom(evt,'in')"/>
                <use id="zoomminus" xlink:href="#zoomMin" x="42" y="9" onmousedown="handleZoom(evt,'out')"/>
                <use id="reset" xlink:href="#resetDef" x="30" y="36" onmousedown="handleReset()"/>
                <g id="arrowUp" xlink:href="#dirArrow" transform="translate(30 24)" onmousedown="handlePan(0,-1)">
                  <use xlink:href="#rim" fill="#404040">
                        <set attributeName="fill" to="#808080" begin="arrowUp.mouseover" end="arrowUp.mouseout"/>
                  </use>
                  <path fill="none" stroke="white" stroke-width="1.5" d="M0,-3.0v7 M-2.5,-0.5L0,-3.0L2.5,-0.5"/>
                </g>
                <g id="arrowRight" xlink:href="#dirArrow" transform="rotate(90) translate(36 -43)" onmousedown="handlePan(1,0)">
                  <use xlink:href="#rim" fill="#404040">
                        <set attributeName="fill" to="#808080" begin="arrowRight.mouseover" end="arrowRight.mouseout"/>
                  </use>
                  <path fill="none" stroke="white" stroke-width="1.5" d="M0,-3.0v7 M-2.5,-0.5L0,-3.0L2.5,-0.5"/>
                </g>
                <g id="arrowDown" xlink:href="#dirArrow" transform="rotate(180) translate(-30 -48)" onmousedown="handlePan(0,1)">
                  <use xlink:href="#rim" fill="#404040">
                        <set attributeName="fill" to="#808080" begin="arrowDown.mouseover" end="arrowDown.mouseout"/>
                  </use>
                  <path fill="none" stroke="white" stroke-width="1.5" d="M0,-3.0v7 M-2.5,-0.5L0,-3.0L2.5,-0.5"/>
                </g>
                <g id="arrowLeft" xlink:href="#dirArrow" transform="rotate(270) translate(-36 17)" onmousedown="handlePan(-1,0)">
                  <use xlink:href="#rim" fill="#404040">
                        <set attributeName="fill" to="#808080" begin="arrowLeft.mouseover" end="arrowLeft.mouseout"/>
                  </use>
                  <path fill="none" stroke="white" stroke-width="1.5" d="M0,-3.0v7 M-2.5,-0.5L0,-3.0L2.5,-0.5"/>
                </g>
        </g>
        <svg viewBox="0 0 15 15" width="100%" height="30px" preserveAspectRatio="xMaxYMin meet">
         <g id="arrow_out" transform="scale(0.3 0.3)">
          <a xlink:href="MinLogLH_8cpp__incl_org.svg" target="_base">
           <rect id="button" ry="5" rx="5" y="6" x="6" height="38" width="38"
                fill="#f2f5e9" fill-opacity="0.5" stroke="#606060" stroke-width="1.0"/>
           <path id="arrow"
             d="M 11.500037,31.436501 C 11.940474,20.09759 22.043105,11.32322 32.158766,21.979434 L 37.068811,17.246167 C 37.068811,17.246167 37.088388,32 37.088388,32 L 22.160133,31.978069 C 22.160133,31.978069 26.997745,27.140456 26.997745,27.140456 C 18.528582,18.264221 13.291696,25.230495 11.500037,31.436501 z"
             style="fill:#404040;"/>
          </a>
         </g>
        </svg>
</svg>
