<?xml version="1.0" encoding="UTF-8" standalone="no"?>
<!DOCTYPE svg PUBLIC "-//W3C//DTD SVG 1.1//EN"
 "http://www.w3.org/Graphics/SVG/1.1/DTD/svg11.dtd">
<!-- Generated by graphviz version 2.40.1 (20161225.0304)
 -->
<!-- Title: Estimator/MinLogLH/MinLogLH.cpp Pages: 1 -->
<!--zoomable 341 -->
<svg id="main" version="1.1" xmlns="http://www.w3.org/2000/svg" xmlns:xlink="http://www.w3.org/1999/xlink" xml:space="preserve" onload="init(evt)">
<style type="text/css"><![CDATA[
.edge:hover path { stroke: red; }
.edge:hover polygon { stroke: red; fill: red; }
]]></style>
<script type="text/javascript"><![CDATA[
var edges = document.getElementsByTagName('g');
if (edges && edges.length) {
  for (var i=0;i<edges.length;i++) {
    if (edges[i].id.substr(0,4)=='edge') {
      edges[i].setAttribute('class','edge');
    }
  }
}
]]></script>
        <defs>
                <circle id="rim" cx="0" cy="0" r="7"/>
                <circle id="rim2" cx="0" cy="0" r="3.5"/>
                <g id="zoomPlus">
                        <use xlink:href="#rim" fill="#404040">
                                <set attributeName="fill" to="#808080" begin="zoomplus.mouseover" end="zoomplus.mouseout"/>
                        </use>
                        <path d="M-4,0h8M0,-4v8" fill="none" stroke="white" stroke-width="1.5" pointer-events="none"/>
                </g>
                <g id="zoomMin">
                        <use xlink:href="#rim" fill="#404040">
                                <set attributeName="fill" to="#808080" begin="zoomminus.mouseover" end="zoomminus.mouseout"/>
                        </use>
                        <path d="M-4,0h8" fill="none" stroke="white" stroke-width="1.5" pointer-events="none"/>
                </g>
                <g id="dirArrow">
                        <path fill="none" stroke="white" stroke-width="1.5" d="M0,-3.0v7 M-2.5,-0.5L0,-3.0L2.5,-0.5"/>
                </g>
               <g id="resetDef">
                       <use xlink:href="#rim2" fill="#404040">
                               <set attributeName="fill" to="#808080" begin="reset.mouseover" end="reset.mouseout"/>
                       </use>
               </g>
        </defs>

<script type="text/javascript">
var viewWidth = 1250;
var viewHeight = 341;
var sectionId = 'dynsection-0';
</script>
<script xlink:href="svgpan.js"/>
<svg id="graph" class="graph">
<g id="viewport">
<title>Estimator/MinLogLH/MinLogLH.cpp</title>
<polygon fill="#ffffff" stroke="transparent" points="-4,4 -4,-337 1246.4316,-337 1246.4316,4 -4,4"/>
<!-- Node0 -->
<g id="node1" class="node">
<title>Node0</title>
<polygon fill="#bfbfbf" stroke="#000000" points="861.2529,-302.5 861.2529,-332.5 975.2529,-332.5 975.2529,-302.5 861.2529,-302.5"/>
<text text-anchor="start" x="869.2529" y="-320.5" font-family="Helvetica,sans-Serif" font-size="10.00" fill="#000000">Estimator/MinLogLH</text>
<text text-anchor="middle" x="918.2529" y="-309.5" font-family="Helvetica,sans-Serif" font-size="10.00" fill="#000000">/MinLogLH.cpp</text>
</g>
<!-- Node1 -->
<g id="node2" class="node">
<title>Node1</title>
<g id="a_node2"><a xlink:href="MinLogLH_8hpp.html" target="_top" xlink:title="MinLogLH.hpp">
<polygon fill="#ffffff" stroke="#000000" points="797.7529,-246.5 797.7529,-265.5 882.7529,-265.5 882.7529,-246.5 797.7529,-246.5"/>
<text text-anchor="middle" x="840.2529" y="-253.5" font-family="Helvetica,sans-Serif" font-size="10.00" fill="#000000">MinLogLH.hpp</text>
</a>
</g>
</g>
<!-- Node0&#45;&gt;Node1 -->
<g id="edge1" class="edge">
<title>Node0&#45;&gt;Node1</title>
<path fill="none" stroke="#191970" d="M898.972,-302.2977C887.3553,-293.1384 872.5711,-281.4816 860.7437,-272.1562"/>
<polygon fill="#191970" stroke="#191970" points="862.7615,-269.2901 852.7417,-265.8469 858.4274,-274.787 862.7615,-269.2901"/>
</g>
<!-- Node14 -->
<g id="node9" class="node">
<title>Node14</title>
<g id="a_node9"><a xlink:href="ParameterList_8hpp.html" target="_top" xlink:title="ParameterList class. ">
<polygon fill="#ffffff" stroke="#ff0000" points="273.2529,-112.5 273.2529,-142.5 429.2529,-142.5 429.2529,-112.5 273.2529,-112.5"/>
<text text-anchor="start" x="281.2529" y="-130.5" font-family="Helvetica,sans-Serif" font-size="10.00" fill="#000000">Core/FunctionTree/Parameter</text>
<text text-anchor="middle" x="351.2529" y="-119.5" font-family="Helvetica,sans-Serif" font-size="10.00" fill="#000000">List.hpp</text>
</a>
</g>
</g>
<!-- Node0&#45;&gt;Node14 -->
<g id="edge24" class="edge">
<title>Node0&#45;&gt;Node14</title>
<path fill="none" stroke="#191970" d="M861.2447,-316.3542C668.4382,-312.2046 51.1176,-296.5714 22.2529,-266 -4.2925,-237.885 -2.8856,-208.3797 22.2529,-179 37.8085,-160.82 170.8222,-144.6169 262.879,-135.4362"/>
<polygon fill="#191970" stroke="#191970" points="263.4424,-138.8978 273.0509,-134.4336 262.7557,-131.9315 263.4424,-138.8978"/>
</g>
<!-- Node42 -->
<g id="node12" class="node">
<title>Node42</title>
<g id="a_node12"><a xlink:href="TreeNode_8hpp.html" target="_top" xlink:title="TreeNode class. ">
<polygon fill="#ffffff" stroke="#000000" points="31.7529,-246.5 31.7529,-265.5 204.7529,-265.5 204.7529,-246.5 31.7529,-246.5"/>
<text text-anchor="middle" x="118.2529" y="-253.5" font-family="Helvetica,sans-Serif" font-size="10.00" fill="#000000">Core/FunctionTree/TreeNode.hpp</text>
</a>
</g>
</g>
<!-- Node0&#45;&gt;Node42 -->
<g id="edge25" class="edge">
<title>Node0&#45;&gt;Node42</title>
<path fill="none" stroke="#191970" d="M861.0399,-313.1018C725.4999,-302.6821 383.6028,-276.3988 215.1314,-263.4475"/>
<polygon fill="#191970" stroke="#191970" points="215.2658,-259.9476 205.0269,-262.6708 214.7292,-266.927 215.2658,-259.9476"/>
</g>
<!-- Node45 -->
<g id="node16" class="node">
<title>Node45</title>
<g id="a_node16"><a xlink:href="Kinematics_8hpp.html" target="_top" xlink:title="Core/Kinematics.hpp">
<polygon fill="#ffffff" stroke="#000000" points="1066.2529,-185 1066.2529,-204 1184.2529,-204 1184.2529,-185 1066.2529,-185"/>
<text text-anchor="middle" x="1125.2529" y="-192" font-family="Helvetica,sans-Serif" font-size="10.00" fill="#000000">Core/Kinematics.hpp</text>
</a>
</g>
</g>
<!-- Node0&#45;&gt;Node45 -->
<g id="edge35" class="edge">
<title>Node0&#45;&gt;Node45</title>
<path fill="none" stroke="#191970" d="M943.6352,-302.4178C983.6137,-278.6624 1060.7689,-232.8166 1100.4101,-209.2617"/>
<polygon fill="#191970" stroke="#191970" points="1102.3733,-212.1665 1109.1822,-204.0493 1098.7975,-206.1487 1102.3733,-212.1665"/>
</g>
<!-- Node47 -->
<g id="node18" class="node">
<title>Node47</title>
<g id="a_node18"><a xlink:href="FourMomentum_8hpp.html" target="_top" xlink:title="Core/FourMomentum.hpp">
<polygon fill="#ffffff" stroke="#ff0000" points="1083.2529,-56.5 1083.2529,-75.5 1223.2529,-75.5 1223.2529,-56.5 1083.2529,-56.5"/>
<text text-anchor="middle" x="1153.2529" y="-63.5" font-family="Helvetica,sans-Serif" font-size="10.00" fill="#000000">Core/FourMomentum.hpp</text>
</a>
</g>
</g>
<!-- Node0&#45;&gt;Node47 -->
<g id="edge42" class="edge">
<title>Node0&#45;&gt;Node47</title>
<path fill="none" stroke="#191970" d="M975.5157,-303.2327C1048.3994,-283.7805 1167.9248,-247.0956 1193.2529,-210 1220.3169,-170.3621 1187.3842,-112.8217 1167.029,-83.9467"/>
<polygon fill="#191970" stroke="#191970" points="1169.6816,-81.6446 1160.9541,-75.6379 1164.0309,-85.7762 1169.6816,-81.6446"/>
</g>
<!-- Node53 -->
<g id="node19" class="node">
<title>Node53</title>
<g id="a_node19"><a xlink:href="DataSet_8hpp.html" target="_top" xlink:title="Data/DataSet.hpp">
<polygon fill="#ffffff" stroke="#000000" points="944.7529,-185 944.7529,-204 1047.7529,-204 1047.7529,-185 944.7529,-185"/>
<text text-anchor="middle" x="996.2529" y="-192" font-family="Helvetica,sans-Serif" font-size="10.00" fill="#000000">Data/DataSet.hpp</text>
</a>
</g>
</g>
<!-- Node0&#45;&gt;Node53 -->
<g id="edge43" class="edge">
<title>Node0&#45;&gt;Node53</title>
<path fill="none" stroke="#191970" d="M927.8172,-302.4178C942.1824,-279.765 969.286,-237.0248 984.7234,-212.6811"/>
<polygon fill="#191970" stroke="#191970" points="987.7976,-214.3688 990.1973,-204.0493 981.886,-210.6199 987.7976,-214.3688"/>
</g>
<!-- Node2 -->
<g id="node3" class="node">
<title>Node2</title>
<polygon fill="#ffffff" stroke="#bfbfbf" points="466.2529,-56.5 466.2529,-75.5 524.2529,-75.5 524.2529,-56.5 466.2529,-56.5"/>
<text text-anchor="middle" x="495.2529" y="-63.5" font-family="Helvetica,sans-Serif" font-size="10.00" fill="#000000">memory</text>
</g>
<!-- Node1&#45;&gt;Node2 -->
<g id="edge2" class="edge">
<title>Node1&#45;&gt;Node2</title>
<path fill="none" stroke="#191970" d="M797.721,-250.6916C759.4046,-244.6837 702.3391,-232.6351 657.2529,-210 637.774,-200.2208 637.5561,-190.8346 619.2529,-179 589.2091,-159.5741 574.1448,-166.5972 547.2529,-143 528.4008,-126.4575 513.2666,-101.6052 504.2884,-84.6396"/>
<polygon fill="#191970" stroke="#191970" points="507.3862,-83.0097 499.732,-75.6842 501.1473,-86.1841 507.3862,-83.0097"/>
</g>
<!-- Node3 -->
<g id="node4" class="node">
<title>Node3</title>
<polygon fill="#ffffff" stroke="#bfbfbf" points="974.7529,-.5 974.7529,-19.5 1021.7529,-19.5 1021.7529,-.5 974.7529,-.5"/>
<text text-anchor="middle" x="998.2529" y="-7.5" font-family="Helvetica,sans-Serif" font-size="10.00" fill="#000000">vector</text>
</g>
<!-- Node1&#45;&gt;Node3 -->
<g id="edge3" class="edge">
<title>Node1&#45;&gt;Node3</title>
<path fill="none" stroke="#191970" d="M854.8299,-246.3241C880.1242,-228.773 932.1281,-189.1971 960.2529,-143 982.325,-106.7451 992.0329,-57.1529 995.9283,-29.9228"/>
<polygon fill="#191970" stroke="#191970" points="999.4355,-30.0953 997.261,-19.726 992.4945,-29.1881 999.4355,-30.0953"/>
</g>
<!-- Node4 -->
<g id="node5" class="node">
<title>Node4</title>
<g id="a_node5"><a xlink:href="FitParameter_8hpp.html" target="_top" xlink:title="Core/FitParameter.hpp">
<polygon fill="#ffffff" stroke="#ff0000" points="827.2529,-118 827.2529,-137 951.2529,-137 951.2529,-118 827.2529,-118"/>
<text text-anchor="middle" x="889.2529" y="-125" font-family="Helvetica,sans-Serif" font-size="10.00" fill="#000000">Core/FitParameter.hpp</text>
</a>
</g>
</g>
<!-- Node1&#45;&gt;Node4 -->
<g id="edge4" class="edge">
<title>Node1&#45;&gt;Node4</title>
<path fill="none" stroke="#191970" d="M843.9359,-246.3416C851.988,-225.2254 871.2871,-174.6144 881.9185,-146.7341"/>
<polygon fill="#191970" stroke="#191970" points="885.2345,-147.8613 885.5272,-137.2705 878.6939,-145.3671 885.2345,-147.8613"/>
</g>
<!-- Node13 -->
<g id="node8" class="node">
<title>Node13</title>
<g id="a_node8"><a xlink:href="FunctionTreeEstimator_8hpp.html" target="_top" xlink:title="Core/FunctionTree/Function\lTreeEstimator.hpp">
<polygon fill="#ffffff" stroke="#000000" points="666.2529,-179.5 666.2529,-209.5 812.2529,-209.5 812.2529,-179.5 666.2529,-179.5"/>
<text text-anchor="start" x="674.2529" y="-197.5" font-family="Helvetica,sans-Serif" font-size="10.00" fill="#000000">Core/FunctionTree/Function</text>
<text text-anchor="middle" x="739.2529" y="-186.5" font-family="Helvetica,sans-Serif" font-size="10.00" fill="#000000">TreeEstimator.hpp</text>
</a>
</g>
</g>
<!-- Node1&#45;&gt;Node13 -->
<g id="edge10" class="edge">
<title>Node1&#45;&gt;Node13</title>
<path fill="none" stroke="#191970" d="M824.4717,-246.3906C810.676,-237.9903 790.1803,-225.5103 772.7464,-214.8945"/>
<polygon fill="#191970" stroke="#191970" points="774.3218,-211.756 763.9603,-209.5446 770.6812,-217.7349 774.3218,-211.756"/>
</g>
<!-- Node40 -->
<g id="node10" class="node">
<title>Node40</title>
<g id="a_node10"><a xlink:href="Estimator_8hpp.html" target="_top" xlink:title="Estimator/Estimator.hpp">
<polygon fill="#ffffff" stroke="#000000" points="599.2529,-118 599.2529,-137 733.2529,-137 733.2529,-118 599.2529,-118"/>
<text text-anchor="middle" x="666.2529" y="-125" font-family="Helvetica,sans-Serif" font-size="10.00" fill="#000000">Estimator/Estimator.hpp</text>
</a>
</g>
</g>
<!-- Node1&#45;&gt;Node40 -->
<g id="edge23" class="edge">
<title>Node1&#45;&gt;Node40</title>
<path fill="none" stroke="#191970" d="M840.6646,-246.3553C840.811,-230.2798 838.7277,-197.9102 821.2529,-179 807.2525,-163.8495 759.0977,-149.2849 720.1344,-139.5342"/>
<polygon fill="#191970" stroke="#191970" points="720.4855,-136.0169 709.9401,-137.0385 718.821,-142.8161 720.4855,-136.0169"/>
</g>
<!-- Node41 -->
<g id="node11" class="node">
<title>Node41</title>
<g id="a_node11"><a xlink:href="FunctionTreeIntensity_8hpp.html" target="_top" xlink:title="Core/FunctionTree/Function\lTreeIntensity.hpp">
<polygon fill="#ffffff" stroke="#000000" points="464.2529,-179.5 464.2529,-209.5 610.2529,-209.5 610.2529,-179.5 464.2529,-179.5"/>
<text text-anchor="start" x="472.2529" y="-197.5" font-family="Helvetica,sans-Serif" font-size="10.00" fill="#000000">Core/FunctionTree/Function</text>
<text text-anchor="middle" x="537.2529" y="-186.5" font-family="Helvetica,sans-Serif" font-size="10.00" fill="#000000">TreeIntensity.hpp</text>
</a>
</g>
</g>
<!-- Node1&#45;&gt;Node41 -->
<g id="edge19" class="edge">
<title>Node1&#45;&gt;Node41</title>
<path fill="none" stroke="#191970" d="M797.4831,-247.319C751.7009,-238.0266 677.9201,-223.0513 620.5909,-211.4151"/>
<polygon fill="#191970" stroke="#191970" points="620.9485,-207.9164 610.4521,-209.3573 619.556,-214.7765 620.9485,-207.9164"/>
</g>
<!-- Node4&#45;&gt;Node3 -->
<g id="edge9" class="edge">
<title>Node4&#45;&gt;Node3</title>
<path fill="none" stroke="#191970" d="M898.1728,-117.8845C916.6163,-98.0028 959.1608,-52.1406 982.3985,-27.0908"/>
<polygon fill="#191970" stroke="#191970" points="984.9747,-29.46 989.2097,-19.7484 979.8428,-24.6993 984.9747,-29.46"/>
</g>
<!-- Node5 -->
<g id="node6" class="node">
<title>Node5</title>
<g id="a_node6"><a xlink:href="Function_8hpp.html" target="_top" xlink:title="Core/Function.hpp">
<polygon fill="#ffffff" stroke="#ff0000" points="747.2529,-56.5 747.2529,-75.5 851.2529,-75.5 851.2529,-56.5 747.2529,-56.5"/>
<text text-anchor="middle" x="799.2529" y="-63.5" font-family="Helvetica,sans-Serif" font-size="10.00" fill="#000000">Core/Function.hpp</text>
</a>
</g>
</g>
<!-- Node4&#45;&gt;Node5 -->
<g id="edge5" class="edge">
<title>Node4&#45;&gt;Node5</title>
<path fill="none" stroke="#191970" d="M875.1904,-117.8906C860.9243,-108.1421 838.6179,-92.8994 821.8657,-81.4521"/>
<polygon fill="#191970" stroke="#191970" points="823.4478,-78.2941 813.2167,-75.5419 819.4984,-84.0736 823.4478,-78.2941"/>
</g>
<!-- Node6 -->
<g id="node7" class="node">
<title>Node6</title>
<polygon fill="#ffffff" stroke="#bfbfbf" points="777.2529,-.5 777.2529,-19.5 821.2529,-19.5 821.2529,-.5 777.2529,-.5"/>
<text text-anchor="middle" x="799.2529" y="-7.5" font-family="Helvetica,sans-Serif" font-size="10.00" fill="#000000">string</text>
</g>
<!-- Node4&#45;&gt;Node6 -->
<g id="edge8" class="edge">
<title>Node4&#45;&gt;Node6</title>
<path fill="none" stroke="#191970" d="M887.1071,-117.8774C883.4962,-103.316 875.1039,-75.3342 860.2529,-56 850.7881,-43.678 837.213,-33.0012 825.2708,-25.0439"/>
<polygon fill="#191970" stroke="#191970" points="826.87,-21.9133 816.552,-19.5068 823.1172,-27.8224 826.87,-21.9133"/>
</g>
<!-- Node5&#45;&gt;Node3 -->
<g id="edge7" class="edge">
<title>Node5&#45;&gt;Node3</title>
<path fill="none" stroke="#191970" d="M833.4622,-56.3733C870.2331,-46.0257 928.3036,-29.6842 964.785,-19.4181"/>
<polygon fill="#191970" stroke="#191970" points="965.7886,-22.7717 974.4666,-16.6936 963.8923,-16.0334 965.7886,-22.7717"/>
</g>
<!-- Node5&#45;&gt;Node6 -->
<g id="edge6" class="edge">
<title>Node5&#45;&gt;Node6</title>
<path fill="none" stroke="#191970" d="M799.2529,-56.2455C799.2529,-48.9382 799.2529,-38.6944 799.2529,-29.7046"/>
<polygon fill="#191970" stroke="#191970" points="802.753,-29.6426 799.2529,-19.6427 795.753,-29.6427 802.753,-29.6426"/>
</g>
<!-- Node13&#45;&gt;Node2 -->
<g id="edge11" class="edge">
<title>Node13&#45;&gt;Node2</title>
<path fill="none" stroke="#191970" d="M680.6538,-179.4081C652.3499,-170.8472 618.4871,-158.6804 590.2529,-143 574.2187,-134.0951 536.5534,-102.135 513.7597,-82.2973"/>
<polygon fill="#191970" stroke="#191970" points="515.9346,-79.5497 506.1025,-75.6022 511.327,-84.8194 515.9346,-79.5497"/>
</g>
<!-- Node13&#45;&gt;Node4 -->
<g id="edge12" class="edge">
<title>Node13&#45;&gt;Node4</title>
<path fill="none" stroke="#191970" d="M772.9158,-179.4639C798.5374,-168.0196 833.519,-152.3945 858.4156,-141.274"/>
<polygon fill="#191970" stroke="#191970" points="860.0485,-144.378 867.7516,-137.1039 857.1936,-137.9866 860.0485,-144.378"/>
</g>
<!-- Node13&#45;&gt;Node14 -->
<g id="edge13" class="edge">
<title>Node13&#45;&gt;Node14</title>
<path fill="none" stroke="#191970" d="M665.8169,-181.819C601.4266,-170.7001 507.6783,-154.5116 439.2824,-142.701"/>
<polygon fill="#191970" stroke="#191970" points="439.8314,-139.244 429.3816,-140.9913 438.6402,-146.142 439.8314,-139.244"/>
</g>
<!-- Node13&#45;&gt;Node40 -->
<g id="edge17" class="edge">
<title>Node13&#45;&gt;Node40</title>
<path fill="none" stroke="#191970" d="M722.6881,-179.2967C711.2039,-168.7564 695.9217,-154.7303 684.1567,-143.9323"/>
<polygon fill="#191970" stroke="#191970" points="686.3976,-141.2382 676.6636,-137.055 681.6643,-146.3954 686.3976,-141.2382"/>
</g>
<!-- Node14&#45;&gt;Node2 -->
<g id="edge14" class="edge">
<title>Node14&#45;&gt;Node2</title>
<path fill="none" stroke="#191970" d="M386.4793,-112.4554C410.0845,-102.374 440.8983,-89.2139 463.7005,-79.4755"/>
<polygon fill="#191970" stroke="#191970" points="465.1163,-82.6767 472.938,-75.5303 462.3669,-76.2393 465.1163,-82.6767"/>
</g>
<!-- Node14&#45;&gt;Node3 -->
<g id="edge16" class="edge">
<title>Node14&#45;&gt;Node3</title>
<path fill="none" stroke="#191970" d="M367.7509,-112.3601C387.4241,-95.3215 422.0843,-68.4058 457.2529,-56 504.9453,-39.1764 852.8594,-18.2331 964.1306,-11.8997"/>
<polygon fill="#191970" stroke="#191970" points="964.6532,-15.3758 974.4394,-11.3163 964.2576,-8.387 964.6532,-15.3758"/>
</g>
<!-- Node14&#45;&gt;Node6 -->
<g id="edge15" class="edge">
<title>Node14&#45;&gt;Node6</title>
<path fill="none" stroke="#191970" d="M357.0976,-112.2869C364.4349,-95.4467 378.7288,-68.9721 400.2529,-56 431.4582,-37.1932 677.6612,-18.4339 767.0048,-12.1801"/>
<polygon fill="#191970" stroke="#191970" points="767.3638,-15.6637 777.0977,-11.4803 766.8795,-8.6805 767.3638,-15.6637"/>
</g>
<!-- Node40&#45;&gt;Node5 -->
<g id="edge18" class="edge">
<title>Node40&#45;&gt;Node5</title>
<path fill="none" stroke="#191970" d="M687.0342,-117.8906C709.0923,-107.6908 744.1579,-91.4763 769.2198,-79.8875"/>
<polygon fill="#191970" stroke="#191970" points="771.01,-82.9158 778.6176,-75.5419 768.072,-76.5622 771.01,-82.9158"/>
</g>
<!-- Node41&#45;&gt;Node2 -->
<g id="edge20" class="edge">
<title>Node41&#45;&gt;Node2</title>
<path fill="none" stroke="#191970" d="M512.9006,-179.2879C500.9654,-170.3463 487.7827,-157.8764 481.2529,-143 473.055,-124.3232 479.2855,-101.0732 485.8419,-85.0356"/>
<polygon fill="#191970" stroke="#191970" points="489.1488,-86.2152 490.0491,-75.6587 482.7621,-83.3497 489.1488,-86.2152"/>
</g>
<!-- Node41&#45;&gt;Node5 -->
<g id="edge21" class="edge">
<title>Node41&#45;&gt;Node5</title>
<path fill="none" stroke="#191970" d="M542.732,-179.4136C550.3762,-160.5882 566.083,-128.8283 590.2529,-112 613.6699,-95.696 684.2269,-82.3967 736.9256,-74.366"/>
<polygon fill="#191970" stroke="#191970" points="737.5018,-77.8189 746.8748,-72.8796 736.4674,-70.8957 737.5018,-77.8189"/>
</g>
<!-- Node41&#45;&gt;Node14 -->
<g id="edge22" class="edge">
<title>Node41&#45;&gt;Node14</title>
<path fill="none" stroke="#191970" d="M495.5109,-179.4639C468.0855,-169.5849 432.0115,-156.5905 402.7986,-146.0675"/>
<polygon fill="#191970" stroke="#191970" points="403.7714,-142.6979 393.177,-142.6017 401.3991,-149.2836 403.7714,-142.6979"/>
</g>
<!-- Node42&#45;&gt;Node2 -->
<g id="edge27" class="edge">
<title>Node42&#45;&gt;Node2</title>
<path fill="none" stroke="#191970" d="M68.5494,-246.476C48.1162,-239.8489 26.4263,-228.6954 14.2529,-210 -1.164,-186.3233 25.3256,-117.8785 32.2529,-112 64.2584,-84.84 349.5346,-71.4589 455.6905,-67.3868"/>
<polygon fill="#191970" stroke="#191970" points="456.1151,-70.8734 465.9765,-67 455.852,-63.8784 456.1151,-70.8734"/>
</g>
<!-- Node42&#45;&gt;Node6 -->
<g id="edge28" class="edge">
<title>Node42&#45;&gt;Node6</title>
<path fill="none" stroke="#191970" d="M61.6164,-246.4697C40.5999,-239.8875 18.8353,-228.77 6.2529,-210 -5.9372,-191.8151 2.5042,-125.0111 15.2529,-112 68.911,-57.2377 626.1015,-20.369 767.0152,-11.8738"/>
<polygon fill="#191970" stroke="#191970" points="767.3911,-15.3577 777.1647,-11.2678 766.9738,-8.3702 767.3911,-15.3577"/>
</g>
<!-- Node42&#45;&gt;Node14 -->
<g id="edge34" class="edge">
<title>Node42&#45;&gt;Node14</title>
<path fill="none" stroke="#191970" d="M141.7066,-246.4721C161.4439,-238.0307 190.0761,-224.7778 213.2529,-210 231.6309,-198.282 233.0207,-190.9435 251.2529,-179 269.3366,-167.1538 290.4802,-155.9226 308.6556,-146.9896"/>
<polygon fill="#191970" stroke="#191970" points="310.3808,-150.0431 317.8578,-142.5367 307.3317,-143.7421 310.3808,-150.0431"/>
</g>
<!-- Node24 -->
<g id="node13" class="node">
<title>Node24</title>
<polygon fill="#ffffff" stroke="#bfbfbf" points="41.7529,-118 41.7529,-137 100.7529,-137 100.7529,-118 41.7529,-118"/>
<text text-anchor="middle" x="71.2529" y="-125" font-family="Helvetica,sans-Serif" font-size="10.00" fill="#000000">complex</text>
</g>
<!-- Node42&#45;&gt;Node24 -->
<g id="edge26" class="edge">
<title>Node42&#45;&gt;Node24</title>
<path fill="none" stroke="#191970" d="M74.7697,-246.3976C55.1778,-239.6689 33.8734,-228.4539 22.2529,-210 7.9613,-187.3043 31.0265,-160.5249 50.1133,-143.775"/>
<polygon fill="#191970" stroke="#191970" points="52.4946,-146.3464 57.9293,-137.2516 48.0092,-140.9722 52.4946,-146.3464"/>
</g>
<!-- Node43 -->
<g id="node14" class="node">
<title>Node43</title>
<g id="a_node14"><a xlink:href="Functions_8hpp.html" target="_top" xlink:title="This file contains Functions implementing the Strategy interface so they can be used inside a node of...">
<polygon fill="#ffffff" stroke="#ff0000" points="31.7529,-185 31.7529,-204 204.7529,-204 204.7529,-185 31.7529,-185"/>
<text text-anchor="middle" x="118.2529" y="-192" font-family="Helvetica,sans-Serif" font-size="10.00" fill="#000000">Core/FunctionTree/Functions.hpp</text>
</a>
</g>
</g>
<!-- Node42&#45;&gt;Node43 -->
<g id="edge29" class="edge">
<title>Node42&#45;&gt;Node43</title>
<path fill="none" stroke="#191970" d="M118.2529,-246.3906C118.2529,-237.8657 118.2529,-225.1392 118.2529,-214.4235"/>
<polygon fill="#191970" stroke="#191970" points="121.753,-214.2448 118.2529,-204.2449 114.753,-214.2449 121.753,-214.2448"/>
</g>
<!-- Node30 -->
<g id="node15" class="node">
<title>Node30</title>
<g id="a_node15"><a xlink:href="ParObserver_8hpp.html" target="_top" xlink:title="ParObserver class. ">
<polygon fill="#ffffff" stroke="#000000" points="260.7529,-185 260.7529,-204 445.7529,-204 445.7529,-185 260.7529,-185"/>
<text text-anchor="middle" x="353.2529" y="-192" font-family="Helvetica,sans-Serif" font-size="10.00" fill="#000000">Core/FunctionTree/ParObserver.hpp</text>
</a>
</g>
</g>
<!-- Node42&#45;&gt;Node30 -->
<g id="edge33" class="edge">
<title>Node42&#45;&gt;Node30</title>
<path fill="none" stroke="#191970" d="M154.7138,-246.4581C195.7044,-235.7308 262.3498,-218.2895 306.979,-206.61"/>
<polygon fill="#191970" stroke="#191970" points="307.9184,-209.9821 316.7065,-204.0643 306.1461,-203.2101 307.9184,-209.9821"/>
</g>
<!-- Node43&#45;&gt;Node3 -->
<g id="edge31" class="edge">
<title>Node43&#45;&gt;Node3</title>
<path fill="none" stroke="#191970" d="M133.171,-184.9979C159.1281,-168.7112 214.5852,-134.9993 264.2529,-112 329.583,-81.748 345.9303,-71.4254 416.2529,-56 469.7762,-44.2596 848.1647,-19.5304 964.3845,-12.1337"/>
<polygon fill="#191970" stroke="#191970" points="964.7265,-15.6191 974.4847,-11.4925 964.283,-8.6331 964.7265,-15.6191"/>
</g>
<!-- Node43&#45;&gt;Node14 -->
<g id="edge32" class="edge">
<title>Node43&#45;&gt;Node14</title>
<path fill="none" stroke="#191970" d="M151.6361,-184.9005C187.4337,-174.6068 245.078,-158.031 289.2398,-145.3321"/>
<polygon fill="#191970" stroke="#191970" points="290.3698,-148.6491 299.013,-142.5218 288.4352,-141.9217 290.3698,-148.6491"/>
</g>
<!-- Node43&#45;&gt;Node24 -->
<g id="edge30" class="edge">
<title>Node43&#45;&gt;Node24</title>
<path fill="none" stroke="#191970" d="M111.519,-184.9005C104.3293,-174.6515 92.771,-158.1747 83.8781,-145.4976"/>
<polygon fill="#191970" stroke="#191970" points="86.5825,-143.2582 77.9744,-137.0817 80.8519,-147.2783 86.5825,-143.2582"/>
</g>
<!-- Node45&#45;&gt;Node3 -->
<g id="edge41" class="edge">
<title>Node45&#45;&gt;Node3</title>
<path fill="none" stroke="#191970" d="M1142.7318,-184.9397C1182.0819,-162.2305 1271.2438,-103.402 1232.2529,-56 1207.3069,-25.6727 1090.849,-15.0328 1032.1949,-11.5557"/>
<polygon fill="#191970" stroke="#191970" points="1032.1295,-8.0467 1021.9507,-10.9866 1031.7412,-15.036 1032.1295,-8.0467"/>
</g>
<!-- Node45&#45;&gt;Node6 -->
<g id="edge40" class="edge">
<title>Node45&#45;&gt;Node6</title>
<path fill="none" stroke="#191970" d="M1108.1847,-184.8402C1054.6013,-154.5146 889.4853,-61.0671 825.2228,-24.6977"/>
<polygon fill="#191970" stroke="#191970" points="826.5789,-21.4436 816.1521,-19.5641 823.1311,-27.5356 826.5789,-21.4436"/>
</g>
<!-- Node46 -->
<g id="node17" class="node">
<title>Node46</title>
<g id="a_node17"><a xlink:href="Event_8hpp.html" target="_top" xlink:title="Core/Event.hpp">
<polygon fill="#ffffff" stroke="#ff0000" points="1057.7529,-118 1057.7529,-137 1148.7529,-137 1148.7529,-118 1057.7529,-118"/>
<text text-anchor="middle" x="1103.2529" y="-125" font-family="Helvetica,sans-Serif" font-size="10.00" fill="#000000">Core/Event.hpp</text>
</a>
</g>
</g>
<!-- Node45&#45;&gt;Node46 -->
<g id="edge36" class="edge">
<title>Node45&#45;&gt;Node46</title>
<path fill="none" stroke="#191970" d="M1122.1008,-184.9005C1118.8335,-174.95 1113.6386,-159.1292 1109.5294,-146.6147"/>
<polygon fill="#191970" stroke="#191970" points="1112.8442,-145.4907 1106.3991,-137.0817 1106.1936,-147.6745 1112.8442,-145.4907"/>
</g>
<!-- Node46&#45;&gt;Node3 -->
<g id="edge39" class="edge">
<title>Node46&#45;&gt;Node3</title>
<path fill="none" stroke="#191970" d="M1094.6603,-117.8845C1076.9706,-98.0889 1036.2649,-52.5372 1013.8173,-27.4173"/>
<polygon fill="#191970" stroke="#191970" points="1016.2374,-24.8728 1006.9642,-19.7484 1011.0178,-29.5371 1016.2374,-24.8728"/>
</g>
<!-- Node46&#45;&gt;Node47 -->
<g id="edge37" class="edge">
<title>Node46&#45;&gt;Node47</title>
<path fill="none" stroke="#191970" d="M1111.0654,-117.8906C1118.5069,-108.7376 1129.8863,-94.7409 1138.9521,-83.59"/>
<polygon fill="#191970" stroke="#191970" points="1141.7377,-85.712 1145.3303,-75.7449 1136.3062,-81.2962 1141.7377,-85.712"/>
</g>
<!-- Node47&#45;&gt;Node3 -->
<g id="edge38" class="edge">
<title>Node47&#45;&gt;Node3</title>
<path fill="none" stroke="#191970" d="M1126.6075,-56.3733C1100.2822,-46.8622 1059.9408,-32.2872 1031.5244,-22.0207"/>
<polygon fill="#191970" stroke="#191970" points="1032.6073,-18.6905 1022.013,-18.5843 1030.2287,-25.274 1032.6073,-18.6905"/>
</g>
<!-- Node53&#45;&gt;Node2 -->
<g id="edge44" class="edge">
<title>Node53&#45;&gt;Node2</title>
<path fill="none" stroke="#191970" d="M945.5049,-184.9748C904.8291,-176.4738 846.7404,-162.3678 798.2529,-143 771.8346,-132.4475 769.026,-121.6171 742.2529,-112 671.5431,-86.6005 584.165,-74.5558 534.5607,-69.3932"/>
<polygon fill="#191970" stroke="#191970" points="534.8673,-65.9065 524.5686,-68.3937 534.1705,-72.8718 534.8673,-65.9065"/>
</g>
<!-- Node53&#45;&gt;Node5 -->
<g id="edge46" class="edge">
<title>Node53&#45;&gt;Node5</title>
<path fill="none" stroke="#191970" d="M944.3915,-185.4335C898.3348,-176.3555 835.6961,-161.1501 818.2529,-143 803.6173,-127.7713 799.6993,-103.1457 798.9097,-85.8527"/>
<polygon fill="#191970" stroke="#191970" points="802.4074,-85.6677 798.7613,-75.7201 795.4082,-85.7703 802.4074,-85.6677"/>
</g>
<!-- Node53&#45;&gt;Node46 -->
<g id="edge45" class="edge">
<title>Node53&#45;&gt;Node46</title>
<path fill="none" stroke="#191970" d="M1011.5834,-184.9005C1029.302,-173.8057 1058.6757,-155.4128 1079.3897,-142.4424"/>
<polygon fill="#191970" stroke="#191970" points="1081.3328,-145.3553 1087.9509,-137.0817 1077.6178,-139.4224 1081.3328,-145.3553"/>
</g>
</g>
</svg>
        <g id="navigator" transform="translate(0 0)" fill="#404254">
                <rect fill="#f2f5e9" fill-opacity="0.5" stroke="#606060" stroke-width=".5" x="0" y="0" width="60" height="60"/>
                <use id="zoomplus" xlink:href="#zoomPlus" x="17" y="9" onmousedown="handleZoom(evt,'in')"/>
                <use id="zoomminus" xlink:href="#zoomMin" x="42" y="9" onmousedown="handleZoom(evt,'out')"/>
                <use id="reset" xlink:href="#resetDef" x="30" y="36" onmousedown="handleReset()"/>
                <g id="arrowUp" xlink:href="#dirArrow" transform="translate(30 24)" onmousedown="handlePan(0,-1)">
                  <use xlink:href="#rim" fill="#404040">
                        <set attributeName="fill" to="#808080" begin="arrowUp.mouseover" end="arrowUp.mouseout"/>
                  </use>
                  <path fill="none" stroke="white" stroke-width="1.5" d="M0,-3.0v7 M-2.5,-0.5L0,-3.0L2.5,-0.5"/>
                </g>
                <g id="arrowRight" xlink:href="#dirArrow" transform="rotate(90) translate(36 -43)" onmousedown="handlePan(1,0)">
                  <use xlink:href="#rim" fill="#404040">
                        <set attributeName="fill" to="#808080" begin="arrowRight.mouseover" end="arrowRight.mouseout"/>
                  </use>
                  <path fill="none" stroke="white" stroke-width="1.5" d="M0,-3.0v7 M-2.5,-0.5L0,-3.0L2.5,-0.5"/>
                </g>
                <g id="arrowDown" xlink:href="#dirArrow" transform="rotate(180) translate(-30 -48)" onmousedown="handlePan(0,1)">
                  <use xlink:href="#rim" fill="#404040">
                        <set attributeName="fill" to="#808080" begin="arrowDown.mouseover" end="arrowDown.mouseout"/>
                  </use>
                  <path fill="none" stroke="white" stroke-width="1.5" d="M0,-3.0v7 M-2.5,-0.5L0,-3.0L2.5,-0.5"/>
                </g>
                <g id="arrowLeft" xlink:href="#dirArrow" transform="rotate(270) translate(-36 17)" onmousedown="handlePan(-1,0)">
                  <use xlink:href="#rim" fill="#404040">
                        <set attributeName="fill" to="#808080" begin="arrowLeft.mouseover" end="arrowLeft.mouseout"/>
                  </use>
                  <path fill="none" stroke="white" stroke-width="1.5" d="M0,-3.0v7 M-2.5,-0.5L0,-3.0L2.5,-0.5"/>
                </g>
        </g>
        <svg viewBox="0 0 15 15" width="100%" height="30px" preserveAspectRatio="xMaxYMin meet">
         <g id="arrow_out" transform="scale(0.3 0.3)">
          <a xlink:href="MinLogLH_8cpp__incl_org.svg" target="_base">
           <rect id="button" ry="5" rx="5" y="6" x="6" height="38" width="38"
                fill="#f2f5e9" fill-opacity="0.5" stroke="#606060" stroke-width="1.0"/>
           <path id="arrow"
             d="M 11.500037,31.436501 C 11.940474,20.09759 22.043105,11.32322 32.158766,21.979434 L 37.068811,17.246167 C 37.068811,17.246167 37.088388,32 37.088388,32 L 22.160133,31.978069 C 22.160133,31.978069 26.997745,27.140456 26.997745,27.140456 C 18.528582,18.264221 13.291696,25.230495 11.500037,31.436501 z"
             style="fill:#404040;"/>
          </a>
         </g>
        </svg>
</svg>
