<?xml version="1.0" encoding="UTF-8" standalone="no"?>
<!DOCTYPE svg PUBLIC "-//W3C//DTD SVG 1.1//EN"
 "http://www.w3.org/Graphics/SVG/1.1/DTD/svg11.dtd">
<!-- Generated by graphviz version 2.38.0 (20140413.2041)
 -->
<!-- Title: /home/travis/build/ComPWA/ComPWA/Optimizer/Minuit2/MinuitFcn.hpp Pages: 1 -->
<svg width="470pt" height="162pt"
 viewBox="0.00 0.00 469.50 162.00" xmlns="http://www.w3.org/2000/svg" xmlns:xlink="http://www.w3.org/1999/xlink">
<g id="graph0" class="graph" transform="scale(1 1) rotate(0) translate(4 158)">
<title>/home/travis/build/ComPWA/ComPWA/Optimizer/Minuit2/MinuitFcn.hpp</title>
<polygon fill="white" stroke="none" points="-4,4 -4,-158 465.5,-158 465.5,4 -4,4"/>
<!-- Node1 -->
<g id="node1" class="node"><title>Node1</title>
<polygon fill="#bfbfbf" stroke="black" points="224.5,-112.5 224.5,-153.5 382.5,-153.5 382.5,-112.5 224.5,-112.5"/>
<text text-anchor="start" x="232.5" y="-141.5" font-family="Helvetica,sans-Serif" font-size="10.00">/home/travis/build</text>
<text text-anchor="start" x="232.5" y="-130.5" font-family="Helvetica,sans-Serif" font-size="10.00">/ComPWA/ComPWA/Optimizer</text>
<text text-anchor="middle" x="303.5" y="-119.5" font-family="Helvetica,sans-Serif" font-size="10.00">/Minuit2/MinuitFcn.hpp</text>
</g>
<!-- Node2 -->
<g id="node2" class="node"><title>Node2</title>
<g id="a_node2"><a xlink:href="Estimator_8hpp.html" target="_top" xlink:title="Estimator/Estimator.hpp">
<polygon fill="white" stroke="black" points="0,-56.5 0,-75.5 133,-75.5 133,-56.5 0,-56.5"/>
<text text-anchor="middle" x="66.5" y="-63.5" font-family="Helvetica,sans-Serif" font-size="10.00">Estimator/Estimator.hpp</text>
</a>
</g>
</g>
<!-- Node1&#45;&gt;Node2 -->
<g id="edge1" class="edge"><title>Node1&#45;&gt;Node2</title>
<path fill="none" stroke="midnightblue" d="M232.392,-112.498C191.564,-101.3 141.75,-87.6381 107.425,-78.2242"/>
<polygon fill="midnightblue" stroke="midnightblue" points="108.306,-74.8367 97.7369,-75.5671 106.455,-81.5874 108.306,-74.8367"/>
</g>
<!-- Node4 -->
<g id="node4" class="node"><title>Node4</title>
<polygon fill="white" stroke="#bfbfbf" points="151,-56.5 151,-75.5 258,-75.5 258,-56.5 151,-56.5"/>
<text text-anchor="middle" x="204.5" y="-63.5" font-family="Helvetica,sans-Serif" font-size="10.00">Minuit2/FCNBase.h</text>
</g>
<!-- Node1&#45;&gt;Node4 -->
<g id="edge3" class="edge"><title>Node1&#45;&gt;Node4</title>
<path fill="none" stroke="midnightblue" d="M273.797,-112.498C258.472,-102.436 240.117,-90.3849 226.148,-81.2136"/>
<polygon fill="midnightblue" stroke="midnightblue" points="227.959,-78.2152 217.678,-75.6525 224.117,-84.0667 227.959,-78.2152"/>
</g>
<!-- Node5 -->
<g id="node5" class="node"><title>Node5</title>
<polygon fill="white" stroke="#bfbfbf" points="276,-56.5 276,-75.5 331,-75.5 331,-56.5 276,-56.5"/>
<text text-anchor="middle" x="303.5" y="-63.5" font-family="Helvetica,sans-Serif" font-size="10.00">iomanip</text>
</g>
<!-- Node1&#45;&gt;Node5 -->
<g id="edge4" class="edge"><title>Node1&#45;&gt;Node5</title>
<path fill="none" stroke="midnightblue" d="M303.5,-112.498C303.5,-104.065 303.5,-94.2351 303.5,-85.874"/>
<polygon fill="midnightblue" stroke="midnightblue" points="307,-85.6525 303.5,-75.6525 300,-85.6525 307,-85.6525"/>
</g>
<!-- Node6 -->
<g id="node6" class="node"><title>Node6</title>
<polygon fill="white" stroke="#bfbfbf" points="349.5,-56.5 349.5,-75.5 387.5,-75.5 387.5,-56.5 349.5,-56.5"/>
<text text-anchor="middle" x="368.5" y="-63.5" font-family="Helvetica,sans-Serif" font-size="10.00">map</text>
</g>
<!-- Node1&#45;&gt;Node6 -->
<g id="edge5" class="edge"><title>Node1&#45;&gt;Node6</title>
<path fill="none" stroke="midnightblue" d="M323.002,-112.498C332.489,-103.011 343.744,-91.7557 352.687,-82.8131"/>
<polygon fill="midnightblue" stroke="midnightblue" points="355.251,-85.1985 359.848,-75.6525 350.302,-80.2487 355.251,-85.1985"/>
</g>
<!-- Node7 -->
<g id="node7" class="node"><title>Node7</title>
<polygon fill="white" stroke="#bfbfbf" points="405.5,-56.5 405.5,-75.5 461.5,-75.5 461.5,-56.5 405.5,-56.5"/>
<text text-anchor="middle" x="433.5" y="-63.5" font-family="Helvetica,sans-Serif" font-size="10.00">sstream</text>
</g>
<!-- Node1&#45;&gt;Node7 -->
<g id="edge6" class="edge"><title>Node1&#45;&gt;Node7</title>
<path fill="none" stroke="midnightblue" d="M342.504,-112.498C363.394,-102.053 388.572,-89.4638 407.144,-80.1782"/>
<polygon fill="midnightblue" stroke="midnightblue" points="408.816,-83.2552 416.195,-75.6525 405.685,-76.9942 408.816,-83.2552"/>
</g>
<!-- Node3 -->
<g id="node3" class="node"><title>Node3</title>
<g id="a_node3"><a xlink:href="Function_8hpp.html" target="_top" xlink:title="Core/Function.hpp">
<polygon fill="white" stroke="red" points="15,-0.5 15,-19.5 118,-19.5 118,-0.5 15,-0.5"/>
<text text-anchor="middle" x="66.5" y="-7.5" font-family="Helvetica,sans-Serif" font-size="10.00">Core/Function.hpp</text>
</a>
</g>
</g>
<!-- Node2&#45;&gt;Node3 -->
<g id="edge2" class="edge"><title>Node2&#45;&gt;Node3</title>
<path fill="none" stroke="midnightblue" d="M66.5,-56.083C66.5,-49.0059 66.5,-38.8611 66.5,-29.9865"/>
<polygon fill="midnightblue" stroke="midnightblue" points="70.0001,-29.751 66.5,-19.7511 63.0001,-29.7511 70.0001,-29.751"/>
</g>
</g>
</svg>
