<?xml version="1.0" encoding="UTF-8" standalone="no"?>
<!DOCTYPE svg PUBLIC "-//W3C//DTD SVG 1.1//EN"
 "http://www.w3.org/Graphics/SVG/1.1/DTD/svg11.dtd">
<!-- Generated by graphviz version 2.38.0 (20140413.2041)
 -->
<!-- Title: /home/travis/build/ComPWA/ComPWA/Optimizer/Minuit2/MinuitFcn.hpp Pages: 1 -->
<svg width="470pt" height="162pt"
 viewBox="0.00 0.00 470.00 162.00" xmlns="http://www.w3.org/2000/svg" xmlns:xlink="http://www.w3.org/1999/xlink">
<g id="graph0" class="graph" transform="scale(1 1) rotate(0) translate(4 158)">
<title>/home/travis/build/ComPWA/ComPWA/Optimizer/Minuit2/MinuitFcn.hpp</title>
<polygon fill="white" stroke="none" points="-4,4 -4,-158 466,-158 466,4 -4,4"/>
<!-- Node1 -->
<g id="node1" class="node"><title>Node1</title>
<polygon fill="#bfbfbf" stroke="black" points="216.5,-112.5 216.5,-153.5 374.5,-153.5 374.5,-112.5 216.5,-112.5"/>
<text text-anchor="start" x="224.5" y="-141.5" font-family="Helvetica,sans-Serif" font-size="10.00">/home/travis/build</text>
<text text-anchor="start" x="224.5" y="-130.5" font-family="Helvetica,sans-Serif" font-size="10.00">/ComPWA/ComPWA/Optimizer</text>
<text text-anchor="middle" x="295.5" y="-119.5" font-family="Helvetica,sans-Serif" font-size="10.00">/Minuit2/MinuitFcn.hpp</text>
</g>
<!-- Node2 -->
<g id="node2" class="node"><title>Node2</title>
<g id="a_node2"><a xlink:href="Estimator_8hpp.html" target="_top" xlink:title="Estimator/Estimator.hpp">
<polygon fill="white" stroke="black" points="0,-56.5 0,-75.5 133,-75.5 133,-56.5 0,-56.5"/>
<text text-anchor="middle" x="66.5" y="-63.5" font-family="Helvetica,sans-Serif" font-size="10.00">Estimator/Estimator.hpp</text>
</a>
</g>
</g>
<!-- Node1&#45;&gt;Node2 -->
<g id="edge1" class="edge"><title>Node1&#45;&gt;Node2</title>
<path fill="none" stroke="midnightblue" d="M226.792,-112.498C187.512,-101.348 139.623,-87.7553 106.472,-78.3457"/>
<polygon fill="midnightblue" stroke="midnightblue" points="107.258,-74.9307 96.6824,-75.5671 105.347,-81.6647 107.258,-74.9307"/>
</g>
<!-- Node4 -->
<g id="node4" class="node"><title>Node4</title>
<polygon fill="white" stroke="#bfbfbf" points="151,-56.5 151,-75.5 258,-75.5 258,-56.5 151,-56.5"/>
<text text-anchor="middle" x="204.5" y="-63.5" font-family="Helvetica,sans-Serif" font-size="10.00">Minuit2/FCNBase.h</text>
</g>
<!-- Node1&#45;&gt;Node4 -->
<g id="edge3" class="edge"><title>Node1&#45;&gt;Node4</title>
<path fill="none" stroke="midnightblue" d="M268.197,-112.498C254.245,-102.532 237.56,-90.6142 224.767,-81.4764"/>
<polygon fill="midnightblue" stroke="midnightblue" points="226.785,-78.6168 216.613,-75.6525 222.716,-84.313 226.785,-78.6168"/>
</g>
<!-- Node5 -->
<g id="node5" class="node"><title>Node5</title>
<polygon fill="white" stroke="#bfbfbf" points="276.5,-56.5 276.5,-75.5 314.5,-75.5 314.5,-56.5 276.5,-56.5"/>
<text text-anchor="middle" x="295.5" y="-63.5" font-family="Helvetica,sans-Serif" font-size="10.00">map</text>
</g>
<!-- Node1&#45;&gt;Node5 -->
<g id="edge4" class="edge"><title>Node1&#45;&gt;Node5</title>
<path fill="none" stroke="midnightblue" d="M295.5,-112.498C295.5,-104.065 295.5,-94.2351 295.5,-85.874"/>
<polygon fill="midnightblue" stroke="midnightblue" points="299,-85.6525 295.5,-75.6525 292,-85.6525 299,-85.6525"/>
</g>
<!-- Node6 -->
<g id="node6" class="node"><title>Node6</title>
<polygon fill="white" stroke="#bfbfbf" points="332.5,-56.5 332.5,-75.5 388.5,-75.5 388.5,-56.5 332.5,-56.5"/>
<text text-anchor="middle" x="360.5" y="-63.5" font-family="Helvetica,sans-Serif" font-size="10.00">sstream</text>
</g>
<!-- Node1&#45;&gt;Node6 -->
<g id="edge5" class="edge"><title>Node1&#45;&gt;Node6</title>
<path fill="none" stroke="midnightblue" d="M315.002,-112.498C324.489,-103.011 335.744,-91.7557 344.687,-82.8131"/>
<polygon fill="midnightblue" stroke="midnightblue" points="347.251,-85.1985 351.848,-75.6525 342.302,-80.2487 347.251,-85.1985"/>
</g>
<!-- Node7 -->
<g id="node7" class="node"><title>Node7</title>
<polygon fill="white" stroke="#bfbfbf" points="407,-56.5 407,-75.5 462,-75.5 462,-56.5 407,-56.5"/>
<text text-anchor="middle" x="434.5" y="-63.5" font-family="Helvetica,sans-Serif" font-size="10.00">iomanip</text>
</g>
<!-- Node1&#45;&gt;Node7 -->
<g id="edge6" class="edge"><title>Node1&#45;&gt;Node7</title>
<path fill="none" stroke="midnightblue" d="M337.205,-112.498C359.745,-101.957 386.956,-89.2326 406.864,-79.9235"/>
<polygon fill="midnightblue" stroke="midnightblue" points="408.421,-83.059 415.997,-75.6525 405.456,-76.7181 408.421,-83.059"/>
</g>
<!-- Node3 -->
<g id="node3" class="node"><title>Node3</title>
<g id="a_node3"><a xlink:href="Function_8hpp.html" target="_top" xlink:title="Core/Function.hpp">
<polygon fill="white" stroke="red" points="15,-0.5 15,-19.5 118,-19.5 118,-0.5 15,-0.5"/>
<text text-anchor="middle" x="66.5" y="-7.5" font-family="Helvetica,sans-Serif" font-size="10.00">Core/Function.hpp</text>
</a>
</g>
</g>
<!-- Node2&#45;&gt;Node3 -->
<g id="edge2" class="edge"><title>Node2&#45;&gt;Node3</title>
<path fill="none" stroke="midnightblue" d="M66.5,-56.083C66.5,-49.0059 66.5,-38.8611 66.5,-29.9865"/>
<polygon fill="midnightblue" stroke="midnightblue" points="70.0001,-29.751 66.5,-19.7511 63.0001,-29.7511 70.0001,-29.751"/>
</g>
</g>
</svg>
