<?xml version="1.0" encoding="UTF-8" standalone="no"?>
<!DOCTYPE svg PUBLIC "-//W3C//DTD SVG 1.1//EN"
 "http://www.w3.org/Graphics/SVG/1.1/DTD/svg11.dtd">
<!-- Generated by graphviz version 2.38.0 (20140413.2041)
 -->
<!-- Title: /home/travis/build/ComPWA/ComPWA/ThirdParty/tbb/include/tbb/mutex.h Pages: 1 -->
<svg width="1364pt" height="228pt"
 viewBox="0.00 0.00 1364.00 228.00" xmlns="http://www.w3.org/2000/svg" xmlns:xlink="http://www.w3.org/1999/xlink">
<g id="graph0" class="graph" transform="scale(1 1) rotate(0) translate(4 224)">
<title>/home/travis/build/ComPWA/ComPWA/ThirdParty/tbb/include/tbb/mutex.h</title>
<polygon fill="white" stroke="none" points="-4,4 -4,-224 1360,-224 1360,4 -4,4"/>
<!-- Node1 -->
<g id="node1" class="node"><title>Node1</title>
<polygon fill="#bfbfbf" stroke="black" points="670,-178.5 670,-219.5 828,-219.5 828,-178.5 670,-178.5"/>
<text text-anchor="start" x="678" y="-207.5" font-family="Helvetica,sans-Serif" font-size="10.00">/home/travis/build</text>
<text text-anchor="start" x="678" y="-196.5" font-family="Helvetica,sans-Serif" font-size="10.00">/ComPWA/ComPWA/ThirdParty</text>
<text text-anchor="middle" x="749" y="-185.5" font-family="Helvetica,sans-Serif" font-size="10.00">/tbb/include/tbb/mutex.h</text>
</g>
<!-- Node2 -->
<g id="node2" class="node"><title>Node2</title>
<g id="a_node2"><a xlink:href="polyover_8h.html" target="_top" xlink:title="/home/travis/build\l/ComPWA/ComPWA/ThirdParty\l/tbb/examples/parallel_for\l/polygon_overlay/polyover.h">
<polygon fill="white" stroke="black" points="232,-89.5 232,-141.5 390,-141.5 390,-89.5 232,-89.5"/>
<text text-anchor="start" x="240" y="-129.5" font-family="Helvetica,sans-Serif" font-size="10.00">/home/travis/build</text>
<text text-anchor="start" x="240" y="-118.5" font-family="Helvetica,sans-Serif" font-size="10.00">/ComPWA/ComPWA/ThirdParty</text>
<text text-anchor="start" x="240" y="-107.5" font-family="Helvetica,sans-Serif" font-size="10.00">/tbb/examples/parallel_for</text>
<text text-anchor="middle" x="311" y="-96.5" font-family="Helvetica,sans-Serif" font-size="10.00">/polygon_overlay/polyover.h</text>
</a>
</g>
</g>
<!-- Node1&#45;&gt;Node2 -->
<g id="edge1" class="edge"><title>Node1&#45;&gt;Node2</title>
<path fill="none" stroke="midnightblue" d="M660.019,-181.853C599.168,-170.763 516.678,-155.639 444,-142 426.554,-138.726 407.83,-135.165 390.1,-131.771"/>
<polygon fill="midnightblue" stroke="midnightblue" points="659.51,-185.317 669.975,-183.666 660.764,-178.431 659.51,-185.317"/>
</g>
<!-- Node4 -->
<g id="node4" class="node"><title>Node4</title>
<g id="a_node4"><a xlink:href="polyover_8cpp.html" target="_top" xlink:title="/home/travis/build\l/ComPWA/ComPWA/ThirdParty\l/tbb/examples/parallel_for\l/polygon_overlay/polyover.cpp">
<polygon fill="white" stroke="black" points="378,-0.5 378,-52.5 538,-52.5 538,-0.5 378,-0.5"/>
<text text-anchor="start" x="386" y="-40.5" font-family="Helvetica,sans-Serif" font-size="10.00">/home/travis/build</text>
<text text-anchor="start" x="386" y="-29.5" font-family="Helvetica,sans-Serif" font-size="10.00">/ComPWA/ComPWA/ThirdParty</text>
<text text-anchor="start" x="386" y="-18.5" font-family="Helvetica,sans-Serif" font-size="10.00">/tbb/examples/parallel_for</text>
<text text-anchor="middle" x="458" y="-7.5" font-family="Helvetica,sans-Serif" font-size="10.00">/polygon_overlay/polyover.cpp</text>
</a>
</g>
</g>
<!-- Node1&#45;&gt;Node4 -->
<g id="edge5" class="edge"><title>Node1&#45;&gt;Node4</title>
<path fill="none" stroke="midnightblue" d="M659.731,-190.592C590.049,-182.891 500.997,-168.184 476,-142 453.49,-118.421 452.261,-78.8323 454.394,-52.9386"/>
<polygon fill="midnightblue" stroke="midnightblue" points="659.545,-194.092 669.861,-191.678 660.291,-187.132 659.545,-194.092"/>
</g>
<!-- Node6 -->
<g id="node6" class="node"><title>Node6</title>
<g id="a_node6"><a xlink:href="Fibonacci_8cpp.html" target="_top" xlink:title="/home/travis/build\l/ComPWA/ComPWA/ThirdParty\l/tbb/examples/test_all/fibonacci\l/Fibonacci.cpp">
<polygon fill="white" stroke="black" points="485.5,-89.5 485.5,-141.5 652.5,-141.5 652.5,-89.5 485.5,-89.5"/>
<text text-anchor="start" x="493.5" y="-129.5" font-family="Helvetica,sans-Serif" font-size="10.00">/home/travis/build</text>
<text text-anchor="start" x="493.5" y="-118.5" font-family="Helvetica,sans-Serif" font-size="10.00">/ComPWA/ComPWA/ThirdParty</text>
<text text-anchor="start" x="493.5" y="-107.5" font-family="Helvetica,sans-Serif" font-size="10.00">/tbb/examples/test_all/fibonacci</text>
<text text-anchor="middle" x="569" y="-96.5" font-family="Helvetica,sans-Serif" font-size="10.00">/Fibonacci.cpp</text>
</a>
</g>
</g>
<!-- Node1&#45;&gt;Node6 -->
<g id="edge6" class="edge"><title>Node1&#45;&gt;Node6</title>
<path fill="none" stroke="midnightblue" d="M696.744,-174.34C674.042,-164.061 647.427,-152.01 624.384,-141.576"/>
<polygon fill="midnightblue" stroke="midnightblue" points="695.332,-177.542 705.886,-178.479 698.219,-171.166 695.332,-177.542"/>
</g>
<!-- Node7 -->
<g id="node7" class="node"><title>Node7</title>
<g id="a_node7"><a xlink:href="tbb_8h.html" target="_top" xlink:title="/home/travis/build\l/ComPWA/ComPWA/ThirdParty\l/tbb/include/tbb/tbb.h">
<polygon fill="white" stroke="black" points="670,-95 670,-136 828,-136 828,-95 670,-95"/>
<text text-anchor="start" x="678" y="-124" font-family="Helvetica,sans-Serif" font-size="10.00">/home/travis/build</text>
<text text-anchor="start" x="678" y="-113" font-family="Helvetica,sans-Serif" font-size="10.00">/ComPWA/ComPWA/ThirdParty</text>
<text text-anchor="middle" x="749" y="-102" font-family="Helvetica,sans-Serif" font-size="10.00">/tbb/include/tbb/tbb.h</text>
</a>
</g>
</g>
<!-- Node1&#45;&gt;Node7 -->
<g id="edge7" class="edge"><title>Node1&#45;&gt;Node7</title>
<path fill="none" stroke="midnightblue" d="M749,-168.065C749,-157.382 749,-145.63 749,-136.047"/>
<polygon fill="midnightblue" stroke="midnightblue" points="745.5,-168.271 749,-178.271 752.5,-168.271 745.5,-168.271"/>
</g>
<!-- Node11 -->
<g id="node11" class="node"><title>Node11</title>
<g id="a_node11"><a xlink:href="time__locked__work_8cpp.html" target="_top" xlink:title="/home/travis/build\l/ComPWA/ComPWA/ThirdParty\l/tbb/src/perf/time_locked\l_work.cpp">
<polygon fill="white" stroke="black" points="846,-89.5 846,-141.5 1004,-141.5 1004,-89.5 846,-89.5"/>
<text text-anchor="start" x="854" y="-129.5" font-family="Helvetica,sans-Serif" font-size="10.00">/home/travis/build</text>
<text text-anchor="start" x="854" y="-118.5" font-family="Helvetica,sans-Serif" font-size="10.00">/ComPWA/ComPWA/ThirdParty</text>
<text text-anchor="start" x="854" y="-107.5" font-family="Helvetica,sans-Serif" font-size="10.00">/tbb/src/perf/time_locked</text>
<text text-anchor="middle" x="925" y="-96.5" font-family="Helvetica,sans-Serif" font-size="10.00">_work.cpp</text>
</a>
</g>
</g>
<!-- Node1&#45;&gt;Node11 -->
<g id="edge11" class="edge"><title>Node1&#45;&gt;Node11</title>
<path fill="none" stroke="midnightblue" d="M800.391,-174.203C822.523,-163.954 848.416,-151.964 870.847,-141.576"/>
<polygon fill="midnightblue" stroke="midnightblue" points="798.76,-171.101 791.156,-178.479 801.701,-177.453 798.76,-171.101"/>
</g>
<!-- Node12 -->
<g id="node12" class="node"><title>Node12</title>
<g id="a_node12"><a xlink:href="time__lru__cache__throughput_8cpp.html" target="_top" xlink:title="/home/travis/build\l/ComPWA/ComPWA/ThirdParty\l/tbb/src/perf/time_lru_cache\l_throughput.cpp">
<polygon fill="white" stroke="black" points="1022,-89.5 1022,-141.5 1180,-141.5 1180,-89.5 1022,-89.5"/>
<text text-anchor="start" x="1030" y="-129.5" font-family="Helvetica,sans-Serif" font-size="10.00">/home/travis/build</text>
<text text-anchor="start" x="1030" y="-118.5" font-family="Helvetica,sans-Serif" font-size="10.00">/ComPWA/ComPWA/ThirdParty</text>
<text text-anchor="start" x="1030" y="-107.5" font-family="Helvetica,sans-Serif" font-size="10.00">/tbb/src/perf/time_lru_cache</text>
<text text-anchor="middle" x="1101" y="-96.5" font-family="Helvetica,sans-Serif" font-size="10.00">_throughput.cpp</text>
</a>
</g>
</g>
<!-- Node1&#45;&gt;Node12 -->
<g id="edge12" class="edge"><title>Node1&#45;&gt;Node12</title>
<path fill="none" stroke="midnightblue" d="M838.257,-180.755C889.584,-170.417 955.16,-156.494 1013,-142 1015.93,-141.265 1018.91,-140.499 1021.92,-139.711"/>
<polygon fill="midnightblue" stroke="midnightblue" points="837.305,-177.376 828.188,-182.774 838.681,-184.239 837.305,-177.376"/>
</g>
<!-- Node13 -->
<g id="node13" class="node"><title>Node13</title>
<g id="a_node13"><a xlink:href="mutex_8cpp.html" target="_top" xlink:title="/home/travis/build\l/ComPWA/ComPWA/ThirdParty\l/tbb/src/tbb/mutex.cpp">
<polygon fill="white" stroke="black" points="1198,-95 1198,-136 1356,-136 1356,-95 1198,-95"/>
<text text-anchor="start" x="1206" y="-124" font-family="Helvetica,sans-Serif" font-size="10.00">/home/travis/build</text>
<text text-anchor="start" x="1206" y="-113" font-family="Helvetica,sans-Serif" font-size="10.00">/ComPWA/ComPWA/ThirdParty</text>
<text text-anchor="middle" x="1277" y="-102" font-family="Helvetica,sans-Serif" font-size="10.00">/tbb/src/tbb/mutex.cpp</text>
</a>
</g>
</g>
<!-- Node1&#45;&gt;Node13 -->
<g id="edge13" class="edge"><title>Node1&#45;&gt;Node13</title>
<path fill="none" stroke="midnightblue" d="M838.399,-190.729C927.777,-182.499 1068.84,-166.899 1189,-142 1197.1,-140.322 1205.54,-138.273 1213.85,-136.074"/>
<polygon fill="midnightblue" stroke="midnightblue" points="837.941,-187.256 828.299,-191.647 838.575,-194.227 837.941,-187.256"/>
</g>
<!-- Node3 -->
<g id="node3" class="node"><title>Node3</title>
<g id="a_node3"><a xlink:href="polymain_8cpp.html" target="_top" xlink:title="/home/travis/build\l/ComPWA/ComPWA/ThirdParty\l/tbb/examples/parallel_for\l/polygon_overlay/polymain.cpp">
<polygon fill="white" stroke="black" points="0,-0.5 0,-52.5 164,-52.5 164,-0.5 0,-0.5"/>
<text text-anchor="start" x="8" y="-40.5" font-family="Helvetica,sans-Serif" font-size="10.00">/home/travis/build</text>
<text text-anchor="start" x="8" y="-29.5" font-family="Helvetica,sans-Serif" font-size="10.00">/ComPWA/ComPWA/ThirdParty</text>
<text text-anchor="start" x="8" y="-18.5" font-family="Helvetica,sans-Serif" font-size="10.00">/tbb/examples/parallel_for</text>
<text text-anchor="middle" x="82" y="-7.5" font-family="Helvetica,sans-Serif" font-size="10.00">/polygon_overlay/polymain.cpp</text>
</a>
</g>
</g>
<!-- Node2&#45;&gt;Node3 -->
<g id="edge2" class="edge"><title>Node2&#45;&gt;Node3</title>
<path fill="none" stroke="midnightblue" d="M235.608,-85.8577C207.259,-75.0875 175.275,-62.9363 147.86,-52.5211"/>
<polygon fill="midnightblue" stroke="midnightblue" points="234.48,-89.173 245.071,-89.4527 236.966,-82.6293 234.48,-89.173"/>
</g>
<!-- Node2&#45;&gt;Node4 -->
<g id="edge3" class="edge"><title>Node2&#45;&gt;Node4</title>
<path fill="none" stroke="midnightblue" d="M362.415,-84.0705C379.79,-73.7877 398.979,-62.4307 415.577,-52.6075"/>
<polygon fill="midnightblue" stroke="midnightblue" points="360.342,-81.2307 353.518,-89.336 363.907,-87.2548 360.342,-81.2307"/>
</g>
<!-- Node5 -->
<g id="node5" class="node"><title>Node5</title>
<g id="a_node5"><a xlink:href="pover__video_8cpp.html" target="_top" xlink:title="/home/travis/build\l/ComPWA/ComPWA/ThirdParty\l/tbb/examples/parallel_for\l/polygon_overlay/pover_video.cpp">
<polygon fill="white" stroke="black" points="182,-0.5 182,-52.5 360,-52.5 360,-0.5 182,-0.5"/>
<text text-anchor="start" x="190" y="-40.5" font-family="Helvetica,sans-Serif" font-size="10.00">/home/travis/build</text>
<text text-anchor="start" x="190" y="-29.5" font-family="Helvetica,sans-Serif" font-size="10.00">/ComPWA/ComPWA/ThirdParty</text>
<text text-anchor="start" x="190" y="-18.5" font-family="Helvetica,sans-Serif" font-size="10.00">/tbb/examples/parallel_for</text>
<text text-anchor="middle" x="271" y="-7.5" font-family="Helvetica,sans-Serif" font-size="10.00">/polygon_overlay/pover_video.cpp</text>
</a>
</g>
</g>
<!-- Node2&#45;&gt;Node5 -->
<g id="edge4" class="edge"><title>Node2&#45;&gt;Node5</title>
<path fill="none" stroke="midnightblue" d="M295.166,-80.0607C290.952,-70.8956 286.48,-61.169 282.544,-52.6075"/>
<polygon fill="midnightblue" stroke="midnightblue" points="292.073,-81.7124 299.43,-89.336 298.433,-78.7882 292.073,-81.7124"/>
</g>
<!-- Node8 -->
<g id="node8" class="node"><title>Node8</title>
<g id="a_node8"><a xlink:href="DirectXPage_8xaml_8cpp.html" target="_top" xlink:title="/home/travis/build\l/ComPWA/ComPWA/ThirdParty\l/tbb/examples/parallel_for\l/tachyon/msvs/win8ui/DirectXPage.xaml.cpp">
<polygon fill="white" stroke="black" points="556,-0.5 556,-52.5 782,-52.5 782,-0.5 556,-0.5"/>
<text text-anchor="start" x="564" y="-40.5" font-family="Helvetica,sans-Serif" font-size="10.00">/home/travis/build</text>
<text text-anchor="start" x="564" y="-29.5" font-family="Helvetica,sans-Serif" font-size="10.00">/ComPWA/ComPWA/ThirdParty</text>
<text text-anchor="start" x="564" y="-18.5" font-family="Helvetica,sans-Serif" font-size="10.00">/tbb/examples/parallel_for</text>
<text text-anchor="middle" x="669" y="-7.5" font-family="Helvetica,sans-Serif" font-size="10.00">/tachyon/msvs/win8ui/DirectXPage.xaml.cpp</text>
</a>
</g>
</g>
<!-- Node7&#45;&gt;Node8 -->
<g id="edge8" class="edge"><title>Node7&#45;&gt;Node8</title>
<path fill="none" stroke="midnightblue" d="M723.8,-87.0945C713.704,-76.1161 702.145,-63.5455 692.253,-52.7882"/>
<polygon fill="midnightblue" stroke="midnightblue" points="721.502,-89.7664 730.847,-94.7584 726.654,-85.0283 721.502,-89.7664"/>
</g>
<!-- Node9 -->
<g id="node9" class="node"><title>Node9</title>
<g id="a_node9"><a xlink:href="tbbTachyonRenderer_8cpp.html" target="_top" xlink:title="/home/travis/build\l/ComPWA/ComPWA/ThirdParty\l/tbb/examples/parallel_for\l/tachyon/msvs/win8ui/tbbTachyonRenderer.cpp">
<polygon fill="white" stroke="black" points="800,-0.5 800,-52.5 1038,-52.5 1038,-0.5 800,-0.5"/>
<text text-anchor="start" x="808" y="-40.5" font-family="Helvetica,sans-Serif" font-size="10.00">/home/travis/build</text>
<text text-anchor="start" x="808" y="-29.5" font-family="Helvetica,sans-Serif" font-size="10.00">/ComPWA/ComPWA/ThirdParty</text>
<text text-anchor="start" x="808" y="-18.5" font-family="Helvetica,sans-Serif" font-size="10.00">/tbb/examples/parallel_for</text>
<text text-anchor="middle" x="919" y="-7.5" font-family="Helvetica,sans-Serif" font-size="10.00">/tachyon/msvs/win8ui/tbbTachyonRenderer.cpp</text>
</a>
</g>
</g>
<!-- Node7&#45;&gt;Node9 -->
<g id="edge9" class="edge"><title>Node7&#45;&gt;Node9</title>
<path fill="none" stroke="midnightblue" d="M796.35,-90.2679C819.294,-78.526 846.824,-64.4369 869.984,-52.5847"/>
<polygon fill="midnightblue" stroke="midnightblue" points="794.459,-87.304 787.151,-94.9755 797.648,-93.5354 794.459,-87.304"/>
</g>
<!-- Node10 -->
<g id="node10" class="node"><title>Node10</title>
<g id="a_node10"><a xlink:href="trace_8simple_8cpp.html" target="_top" xlink:title="/home/travis/build\l/ComPWA/ComPWA/ThirdParty\l/tbb/examples/parallel_for\l/tachyon/src/trace.simple.cpp">
<polygon fill="white" stroke="black" points="1056,-0.5 1056,-52.5 1214,-52.5 1214,-0.5 1056,-0.5"/>
<text text-anchor="start" x="1064" y="-40.5" font-family="Helvetica,sans-Serif" font-size="10.00">/home/travis/build</text>
<text text-anchor="start" x="1064" y="-29.5" font-family="Helvetica,sans-Serif" font-size="10.00">/ComPWA/ComPWA/ThirdParty</text>
<text text-anchor="start" x="1064" y="-18.5" font-family="Helvetica,sans-Serif" font-size="10.00">/tbb/examples/parallel_for</text>
<text text-anchor="middle" x="1135" y="-7.5" font-family="Helvetica,sans-Serif" font-size="10.00">/tachyon/src/trace.simple.cpp</text>
</a>
</g>
</g>
<!-- Node7&#45;&gt;Node10 -->
<g id="edge10" class="edge"><title>Node7&#45;&gt;Node10</title>
<path fill="none" stroke="midnightblue" d="M822.934,-92.4292C827.68,-91.2131 832.398,-90.0577 837,-89 929.289,-67.7887 954.711,-74.2113 1047,-53 1049.95,-52.323 1052.94,-51.6061 1055.96,-50.8588"/>
<polygon fill="midnightblue" stroke="midnightblue" points="821.961,-89.066 813.184,-94.9989 823.745,-95.8348 821.961,-89.066"/>
</g>
</g>
</svg>
