<?xml version="1.0" encoding="UTF-8" standalone="no"?>
<!DOCTYPE svg PUBLIC "-//W3C//DTD SVG 1.1//EN"
 "http://www.w3.org/Graphics/SVG/1.1/DTD/svg11.dtd">
<!-- Generated by graphviz version 2.38.0 (20140413.2041)
 -->
<!-- Title: /home/travis/build/ComPWA/ComPWA/Core/FunctionTree/Parameter.hpp Pages: 1 -->
<svg width="765pt" height="362pt"
 viewBox="0.00 0.00 765.00 362.00" xmlns="http://www.w3.org/2000/svg" xmlns:xlink="http://www.w3.org/1999/xlink">
<g id="graph0" class="graph" transform="scale(1 1) rotate(0) translate(4 358)">
<title>/home/travis/build/ComPWA/ComPWA/Core/FunctionTree/Parameter.hpp</title>
<polygon fill="white" stroke="none" points="-4,4 -4,-358 761,-358 761,4 -4,4"/>
<!-- Node1 -->
<g id="node1" class="node"><title>Node1</title>
<polygon fill="#bfbfbf" stroke="black" points="304,-312.5 304,-353.5 447,-353.5 447,-312.5 304,-312.5"/>
<text text-anchor="start" x="312" y="-341.5" font-family="Helvetica,sans-Serif" font-size="10.00">/home/travis/build</text>
<text text-anchor="start" x="312" y="-330.5" font-family="Helvetica,sans-Serif" font-size="10.00">/ComPWA/ComPWA/Core</text>
<text text-anchor="middle" x="375.5" y="-319.5" font-family="Helvetica,sans-Serif" font-size="10.00">/FunctionTree/Parameter.hpp</text>
</g>
<!-- Node2 -->
<g id="node2" class="node"><title>Node2</title>
<g id="a_node2"><a xlink:href="FunctionTree_2FitParameter_8hpp.html" target="_top" xlink:title="Implementations of Parameter for various data types. ">
<polygon fill="white" stroke="black" points="298,-234.5 298,-275.5 453,-275.5 453,-234.5 298,-234.5"/>
<text text-anchor="start" x="306" y="-263.5" font-family="Helvetica,sans-Serif" font-size="10.00">/home/travis/build</text>
<text text-anchor="start" x="306" y="-252.5" font-family="Helvetica,sans-Serif" font-size="10.00">/ComPWA/ComPWA/Core</text>
<text text-anchor="middle" x="375.5" y="-241.5" font-family="Helvetica,sans-Serif" font-size="10.00">/FunctionTree/FitParameter.hpp</text>
</a>
</g>
</g>
<!-- Node1&#45;&gt;Node2 -->
<g id="edge1" class="edge"><title>Node1&#45;&gt;Node2</title>
<path fill="none" stroke="midnightblue" d="M375.5,-302.297C375.5,-293.301 375.5,-283.653 375.5,-275.506"/>
<polygon fill="midnightblue" stroke="midnightblue" points="372,-302.428 375.5,-312.428 379,-302.428 372,-302.428"/>
</g>
<!-- Node3 -->
<g id="node3" class="node"><title>Node3</title>
<g id="a_node3"><a xlink:href="FitParameter_8cpp.html" target="_top" xlink:title="/home/travis/build\l/ComPWA/ComPWA/Core\l/FunctionTree/FitParameter.cpp">
<polygon fill="white" stroke="black" points="0,-156.5 0,-197.5 155,-197.5 155,-156.5 0,-156.5"/>
<text text-anchor="start" x="8" y="-185.5" font-family="Helvetica,sans-Serif" font-size="10.00">/home/travis/build</text>
<text text-anchor="start" x="8" y="-174.5" font-family="Helvetica,sans-Serif" font-size="10.00">/ComPWA/ComPWA/Core</text>
<text text-anchor="middle" x="77.5" y="-163.5" font-family="Helvetica,sans-Serif" font-size="10.00">/FunctionTree/FitParameter.cpp</text>
</a>
</g>
</g>
<!-- Node2&#45;&gt;Node3 -->
<g id="edge2" class="edge"><title>Node2&#45;&gt;Node3</title>
<path fill="none" stroke="midnightblue" d="M288.943,-231.925C246.255,-221.038 195.219,-208.022 153.982,-197.506"/>
<polygon fill="midnightblue" stroke="midnightblue" points="288.203,-235.348 298.758,-234.428 289.933,-228.565 288.203,-235.348"/>
</g>
<!-- Node4 -->
<g id="node4" class="node"><title>Node4</title>
<g id="a_node4"><a xlink:href="Functions_8hpp.html" target="_top" xlink:title="This file contains Functions implementing the Strategy interface so they can be used inside a node of...">
<polygon fill="white" stroke="red" points="144,-0.5 144,-41.5 285,-41.5 285,-0.5 144,-0.5"/>
<text text-anchor="start" x="152" y="-29.5" font-family="Helvetica,sans-Serif" font-size="10.00">/home/travis/build</text>
<text text-anchor="start" x="152" y="-18.5" font-family="Helvetica,sans-Serif" font-size="10.00">/ComPWA/ComPWA/Core</text>
<text text-anchor="middle" x="214.5" y="-7.5" font-family="Helvetica,sans-Serif" font-size="10.00">/FunctionTree/Functions.hpp</text>
</a>
</g>
</g>
<!-- Node2&#45;&gt;Node4 -->
<g id="edge3" class="edge"><title>Node2&#45;&gt;Node4</title>
<path fill="none" stroke="midnightblue" d="M288.041,-246.92C255.813,-239.565 222.358,-225.301 202.5,-198 168.271,-150.942 191.461,-76.7874 205.693,-41.6794"/>
<polygon fill="midnightblue" stroke="midnightblue" points="287.483,-250.379 297.986,-248.987 288.908,-243.525 287.483,-250.379"/>
</g>
<!-- Node5 -->
<g id="node5" class="node"><title>Node5</title>
<g id="a_node5"><a xlink:href="Value_8hpp.html" target="_top" xlink:title="Template implementation of Parameter for simple values. ">
<polygon fill="white" stroke="red" points="212,-156.5 212,-197.5 347,-197.5 347,-156.5 212,-156.5"/>
<text text-anchor="start" x="220" y="-185.5" font-family="Helvetica,sans-Serif" font-size="10.00">/home/travis/build</text>
<text text-anchor="start" x="220" y="-174.5" font-family="Helvetica,sans-Serif" font-size="10.00">/ComPWA/ComPWA/Core</text>
<text text-anchor="middle" x="279.5" y="-163.5" font-family="Helvetica,sans-Serif" font-size="10.00">/FunctionTree/Value.hpp</text>
</a>
</g>
</g>
<!-- Node2&#45;&gt;Node5 -->
<g id="edge4" class="edge"><title>Node2&#45;&gt;Node5</title>
<path fill="none" stroke="midnightblue" d="M342.74,-228.065C330.099,-218.057 315.885,-206.804 304.139,-197.506"/>
<polygon fill="midnightblue" stroke="midnightblue" points="340.765,-230.965 350.778,-234.428 345.11,-225.477 340.765,-230.965"/>
</g>
<!-- Node6 -->
<g id="node6" class="node"><title>Node6</title>
<g id="a_node6"><a xlink:href="ParameterList_8hpp.html" target="_top" xlink:title="ParameterList class. ">
<polygon fill="white" stroke="red" points="219,-78.5 219,-119.5 378,-119.5 378,-78.5 219,-78.5"/>
<text text-anchor="start" x="227" y="-107.5" font-family="Helvetica,sans-Serif" font-size="10.00">/home/travis/build</text>
<text text-anchor="start" x="227" y="-96.5" font-family="Helvetica,sans-Serif" font-size="10.00">/ComPWA/ComPWA/Core</text>
<text text-anchor="middle" x="298.5" y="-85.5" font-family="Helvetica,sans-Serif" font-size="10.00">/FunctionTree/ParameterList.hpp</text>
</a>
</g>
</g>
<!-- Node2&#45;&gt;Node6 -->
<g id="edge9" class="edge"><title>Node2&#45;&gt;Node6</title>
<path fill="none" stroke="midnightblue" d="M373.97,-224.225C371.872,-203.953 366.956,-177.081 355.5,-156 347.949,-142.104 335.82,-129.48 324.687,-119.749"/>
<polygon fill="midnightblue" stroke="midnightblue" points="370.505,-224.78 374.85,-234.443 377.479,-224.18 370.505,-224.78"/>
</g>
<!-- Node7 -->
<g id="node7" class="node"><title>Node7</title>
<g id="a_node7"><a xlink:href="ParameterList_8cpp.html" target="_top" xlink:title="/home/travis/build\l/ComPWA/ComPWA/Core\l/FunctionTree/ParameterList.cpp">
<polygon fill="white" stroke="black" points="318,-0.5 318,-41.5 477,-41.5 477,-0.5 318,-0.5"/>
<text text-anchor="start" x="326" y="-29.5" font-family="Helvetica,sans-Serif" font-size="10.00">/home/travis/build</text>
<text text-anchor="start" x="326" y="-18.5" font-family="Helvetica,sans-Serif" font-size="10.00">/ComPWA/ComPWA/Core</text>
<text text-anchor="middle" x="397.5" y="-7.5" font-family="Helvetica,sans-Serif" font-size="10.00">/FunctionTree/ParameterList.cpp</text>
</a>
</g>
</g>
<!-- Node2&#45;&gt;Node7 -->
<g id="edge8" class="edge"><title>Node2&#45;&gt;Node7</title>
<path fill="none" stroke="midnightblue" d="M378.334,-224.111C382.902,-175.943 391.769,-82.4363 395.629,-41.7301"/>
<polygon fill="midnightblue" stroke="midnightblue" points="374.835,-223.934 377.376,-234.22 381.804,-224.595 374.835,-223.934"/>
</g>
<!-- Node8 -->
<g id="node8" class="node"><title>Node8</title>
<g id="a_node8"><a xlink:href="Coupling_8hpp.html" target="_top" xlink:title="/home/travis/build\l/ComPWA/ComPWA/Physics\l/Dynamics/Coupling.hpp">
<polygon fill="white" stroke="red" points="441,-156.5 441,-197.5 590,-197.5 590,-156.5 441,-156.5"/>
<text text-anchor="start" x="449" y="-185.5" font-family="Helvetica,sans-Serif" font-size="10.00">/home/travis/build</text>
<text text-anchor="start" x="449" y="-174.5" font-family="Helvetica,sans-Serif" font-size="10.00">/ComPWA/ComPWA/Physics</text>
<text text-anchor="middle" x="515.5" y="-163.5" font-family="Helvetica,sans-Serif" font-size="10.00">/Dynamics/Coupling.hpp</text>
</a>
</g>
</g>
<!-- Node2&#45;&gt;Node8 -->
<g id="edge10" class="edge"><title>Node2&#45;&gt;Node8</title>
<path fill="none" stroke="midnightblue" d="M420.398,-229.627C439.529,-219.242 461.542,-207.292 479.569,-197.506"/>
<polygon fill="midnightblue" stroke="midnightblue" points="418.672,-226.581 411.553,-234.428 422.012,-232.733 418.672,-226.581"/>
</g>
<!-- Node9 -->
<g id="node9" class="node"><title>Node9</title>
<g id="a_node9"><a xlink:href="EvtGenIF_8hpp.html" target="_top" xlink:title="/home/travis/build\l/ComPWA/ComPWA/Physics\l/EvtGen/EvtGenIF.hpp">
<polygon fill="white" stroke="red" points="608,-156.5 608,-197.5 757,-197.5 757,-156.5 608,-156.5"/>
<text text-anchor="start" x="616" y="-185.5" font-family="Helvetica,sans-Serif" font-size="10.00">/home/travis/build</text>
<text text-anchor="start" x="616" y="-174.5" font-family="Helvetica,sans-Serif" font-size="10.00">/ComPWA/ComPWA/Physics</text>
<text text-anchor="middle" x="682.5" y="-163.5" font-family="Helvetica,sans-Serif" font-size="10.00">/EvtGen/EvtGenIF.hpp</text>
</a>
</g>
</g>
<!-- Node2&#45;&gt;Node9 -->
<g id="edge11" class="edge"><title>Node2&#45;&gt;Node9</title>
<path fill="none" stroke="midnightblue" d="M463.264,-232.273C508.974,-220.958 564.271,-207.268 607.894,-196.469"/>
<polygon fill="midnightblue" stroke="midnightblue" points="462.232,-228.923 453.366,-234.724 463.914,-235.718 462.232,-228.923"/>
</g>
<!-- Node5&#45;&gt;Node6 -->
<g id="edge5" class="edge"><title>Node5&#45;&gt;Node6</title>
<path fill="none" stroke="midnightblue" d="M286.853,-146.59C289.122,-137.511 291.565,-127.742 293.624,-119.506"/>
<polygon fill="midnightblue" stroke="midnightblue" points="283.423,-145.878 284.393,-156.428 290.214,-147.576 283.423,-145.878"/>
</g>
<!-- Node6&#45;&gt;Node4 -->
<g id="edge6" class="edge"><title>Node6&#45;&gt;Node4</title>
<path fill="none" stroke="midnightblue" d="M269.201,-71.4916C258.301,-61.6294 246.141,-50.6273 236.059,-41.5056"/>
<polygon fill="midnightblue" stroke="midnightblue" points="267.104,-74.3143 276.868,-78.4281 271.801,-69.1236 267.104,-74.3143"/>
</g>
<!-- Node6&#45;&gt;Node7 -->
<g id="edge7" class="edge"><title>Node6&#45;&gt;Node7</title>
<path fill="none" stroke="midnightblue" d="M332.284,-72.0648C345.32,-62.0574 359.978,-50.8045 372.091,-41.5056"/>
<polygon fill="midnightblue" stroke="midnightblue" points="329.796,-69.5624 323.995,-78.4281 334.058,-75.115 329.796,-69.5624"/>
</g>
</g>
</svg>
