<?xml version="1.0" encoding="UTF-8" standalone="no"?>
<!DOCTYPE svg PUBLIC "-//W3C//DTD SVG 1.1//EN"
 "http://www.w3.org/Graphics/SVG/1.1/DTD/svg11.dtd">
<!-- Generated by graphviz version 2.38.0 (20140413.2041)
 -->
<!-- Title: /home/travis/build/ComPWA/ComPWA/ThirdParty/tbb/include/tbb/parallel_do.h Pages: 1 -->
<svg width="518pt" height="239pt"
 viewBox="0.00 0.00 518.00 239.00" xmlns="http://www.w3.org/2000/svg" xmlns:xlink="http://www.w3.org/1999/xlink">
<g id="graph0" class="graph" transform="scale(1 1) rotate(0) translate(4 235)">
<title>/home/travis/build/ComPWA/ComPWA/ThirdParty/tbb/include/tbb/parallel_do.h</title>
<polygon fill="white" stroke="none" points="-4,4 -4,-235 514,-235 514,4 -4,4"/>
<!-- Node1 -->
<g id="node1" class="node"><title>Node1</title>
<polygon fill="#bfbfbf" stroke="black" points="194,-189.5 194,-230.5 352,-230.5 352,-189.5 194,-189.5"/>
<text text-anchor="start" x="202" y="-218.5" font-family="Helvetica,sans-Serif" font-size="10.00">/home/travis/build</text>
<text text-anchor="start" x="202" y="-207.5" font-family="Helvetica,sans-Serif" font-size="10.00">/ComPWA/ComPWA/ThirdParty</text>
<text text-anchor="middle" x="273" y="-196.5" font-family="Helvetica,sans-Serif" font-size="10.00">/tbb/include/tbb/parallel_do.h</text>
</g>
<!-- Node2 -->
<g id="node2" class="node"><title>Node2</title>
<g id="a_node2"><a xlink:href="parallel__preorder_8cpp.html" target="_top" xlink:title="/home/travis/build\l/ComPWA/ComPWA/ThirdParty\l/tbb/examples/parallel_do\l/parallel_preorder/parallel\l_preorder.cpp">
<polygon fill="white" stroke="black" points="18,-89.5 18,-152.5 176,-152.5 176,-89.5 18,-89.5"/>
<text text-anchor="start" x="26" y="-140.5" font-family="Helvetica,sans-Serif" font-size="10.00">/home/travis/build</text>
<text text-anchor="start" x="26" y="-129.5" font-family="Helvetica,sans-Serif" font-size="10.00">/ComPWA/ComPWA/ThirdParty</text>
<text text-anchor="start" x="26" y="-118.5" font-family="Helvetica,sans-Serif" font-size="10.00">/tbb/examples/parallel_do</text>
<text text-anchor="start" x="26" y="-107.5" font-family="Helvetica,sans-Serif" font-size="10.00">/parallel_preorder/parallel</text>
<text text-anchor="middle" x="97" y="-96.5" font-family="Helvetica,sans-Serif" font-size="10.00">_preorder.cpp</text>
</a>
</g>
</g>
<!-- Node1&#45;&gt;Node2 -->
<g id="edge1" class="edge"><title>Node1&#45;&gt;Node2</title>
<path fill="none" stroke="midnightblue" d="M224.449,-185.001C204.16,-174.971 180.343,-163.198 158.824,-152.561"/>
<polygon fill="midnightblue" stroke="midnightblue" points="222.987,-188.182 233.502,-189.476 226.089,-181.907 222.987,-188.182"/>
</g>
<!-- Node3 -->
<g id="node3" class="node"><title>Node3</title>
<g id="a_node3"><a xlink:href="parallel__for__each_8h.html" target="_top" xlink:title="/home/travis/build\l/ComPWA/ComPWA/ThirdParty\l/tbb/include/tbb/parallel\l_for_each.h">
<polygon fill="white" stroke="black" points="194,-95 194,-147 352,-147 352,-95 194,-95"/>
<text text-anchor="start" x="202" y="-135" font-family="Helvetica,sans-Serif" font-size="10.00">/home/travis/build</text>
<text text-anchor="start" x="202" y="-124" font-family="Helvetica,sans-Serif" font-size="10.00">/ComPWA/ComPWA/ThirdParty</text>
<text text-anchor="start" x="202" y="-113" font-family="Helvetica,sans-Serif" font-size="10.00">/tbb/include/tbb/parallel</text>
<text text-anchor="middle" x="273" y="-102" font-family="Helvetica,sans-Serif" font-size="10.00">_for_each.h</text>
</a>
</g>
</g>
<!-- Node1&#45;&gt;Node3 -->
<g id="edge2" class="edge"><title>Node1&#45;&gt;Node3</title>
<path fill="none" stroke="midnightblue" d="M273,-179.009C273,-168.674 273,-157.21 273,-147.288"/>
<polygon fill="midnightblue" stroke="midnightblue" points="269.5,-179.258 273,-189.258 276.5,-179.258 269.5,-179.258"/>
</g>
<!-- Node5 -->
<g id="node5" class="node"><title>Node5</title>
<g id="a_node5"><a xlink:href="tbb_8h.html" target="_top" xlink:title="/home/travis/build\l/ComPWA/ComPWA/ThirdParty\l/tbb/include/tbb/tbb.h">
<polygon fill="white" stroke="red" points="352,-6 352,-47 510,-47 510,-6 352,-6"/>
<text text-anchor="start" x="360" y="-35" font-family="Helvetica,sans-Serif" font-size="10.00">/home/travis/build</text>
<text text-anchor="start" x="360" y="-24" font-family="Helvetica,sans-Serif" font-size="10.00">/ComPWA/ComPWA/ThirdParty</text>
<text text-anchor="middle" x="431" y="-13" font-family="Helvetica,sans-Serif" font-size="10.00">/tbb/include/tbb/tbb.h</text>
</a>
</g>
</g>
<!-- Node1&#45;&gt;Node5 -->
<g id="edge6" class="edge"><title>Node1&#45;&gt;Node5</title>
<path fill="none" stroke="midnightblue" d="M321.801,-183.916C335.543,-175.348 349.785,-164.884 361,-153 391.136,-121.065 412.921,-73.7225 423.594,-47.2518"/>
<polygon fill="midnightblue" stroke="midnightblue" points="319.654,-181.123 312.88,-189.269 323.256,-187.125 319.654,-181.123"/>
</g>
<!-- Node4 -->
<g id="node4" class="node"><title>Node4</title>
<g id="a_node4"><a xlink:href="ppl_8h.html" target="_top" xlink:title="/home/travis/build\l/ComPWA/ComPWA/ThirdParty\l/tbb/include/tbb/compat/ppl.h">
<polygon fill="white" stroke="black" points="0,-6 0,-47 158,-47 158,-6 0,-6"/>
<text text-anchor="start" x="8" y="-35" font-family="Helvetica,sans-Serif" font-size="10.00">/home/travis/build</text>
<text text-anchor="start" x="8" y="-24" font-family="Helvetica,sans-Serif" font-size="10.00">/ComPWA/ComPWA/ThirdParty</text>
<text text-anchor="middle" x="79" y="-13" font-family="Helvetica,sans-Serif" font-size="10.00">/tbb/include/tbb/compat/ppl.h</text>
</a>
</g>
</g>
<!-- Node3&#45;&gt;Node4 -->
<g id="edge3" class="edge"><title>Node3&#45;&gt;Node4</title>
<path fill="none" stroke="midnightblue" d="M211.436,-90.6461C181.645,-76.4414 146.683,-59.7714 120.164,-47.127"/>
<polygon fill="midnightblue" stroke="midnightblue" points="209.968,-93.8235 220.501,-94.9682 212.981,-87.505 209.968,-93.8235"/>
</g>
<!-- Node3&#45;&gt;Node5 -->
<g id="edge4" class="edge"><title>Node3&#45;&gt;Node5</title>
<path fill="none" stroke="midnightblue" d="M324.398,-89.9092C348.383,-75.8677 376.249,-59.5534 397.475,-47.127"/>
<polygon fill="midnightblue" stroke="midnightblue" points="322.619,-86.8954 315.757,-94.9682 326.155,-92.9363 322.619,-86.8954"/>
</g>
<!-- Node6 -->
<g id="node6" class="node"><title>Node6</title>
<g id="a_node6"><a xlink:href="time__parallel__for__each_8cpp.html" target="_top" xlink:title="/home/travis/build\l/ComPWA/ComPWA/ThirdParty\l/tbb/src/perf/time_parallel\l_for_each.cpp">
<polygon fill="white" stroke="black" points="176,-0.5 176,-52.5 334,-52.5 334,-0.5 176,-0.5"/>
<text text-anchor="start" x="184" y="-40.5" font-family="Helvetica,sans-Serif" font-size="10.00">/home/travis/build</text>
<text text-anchor="start" x="184" y="-29.5" font-family="Helvetica,sans-Serif" font-size="10.00">/ComPWA/ComPWA/ThirdParty</text>
<text text-anchor="start" x="184" y="-18.5" font-family="Helvetica,sans-Serif" font-size="10.00">/tbb/src/perf/time_parallel</text>
<text text-anchor="middle" x="255" y="-7.5" font-family="Helvetica,sans-Serif" font-size="10.00">_for_each.cpp</text>
</a>
</g>
</g>
<!-- Node3&#45;&gt;Node6 -->
<g id="edge5" class="edge"><title>Node3&#45;&gt;Node6</title>
<path fill="none" stroke="midnightblue" d="M266.155,-84.8239C264.077,-74.1467 261.837,-62.633 259.913,-52.7455"/>
<polygon fill="midnightblue" stroke="midnightblue" points="262.736,-85.5767 268.081,-94.724 269.607,-84.2395 262.736,-85.5767"/>
</g>
</g>
</svg>
