<?xml version="1.0" encoding="UTF-8" standalone="no"?>
<!DOCTYPE svg PUBLIC "-//W3C//DTD SVG 1.1//EN"
 "http://www.w3.org/Graphics/SVG/1.1/DTD/svg11.dtd">
<!-- Generated by graphviz version 2.40.1 (20161225.0304)
 -->
<!-- Title: Core/FunctionTree/ParObserver.hpp Pages: 1 -->
<!--zoomable 218 -->
<svg id="main" version="1.1" xmlns="http://www.w3.org/2000/svg" xmlns:xlink="http://www.w3.org/1999/xlink" xml:space="preserve" onload="init(evt)">
<style type="text/css"><![CDATA[
.edge:hover path { stroke: red; }
.edge:hover polygon { stroke: red; fill: red; }
]]></style>
<script type="text/javascript"><![CDATA[
var edges = document.getElementsByTagName('g');
if (edges && edges.length) {
  for (var i=0;i<edges.length;i++) {
    if (edges[i].id.substr(0,4)=='edge') {
      edges[i].setAttribute('class','edge');
    }
  }
}
]]></script>
        <defs>
                <circle id="rim" cx="0" cy="0" r="7"/>
                <circle id="rim2" cx="0" cy="0" r="3.5"/>
                <g id="zoomPlus">
                        <use xlink:href="#rim" fill="#404040">
                                <set attributeName="fill" to="#808080" begin="zoomplus.mouseover" end="zoomplus.mouseout"/>
                        </use>
                        <path d="M-4,0h8M0,-4v8" fill="none" stroke="white" stroke-width="1.5" pointer-events="none"/>
                </g>
                <g id="zoomMin">
                        <use xlink:href="#rim" fill="#404040">
                                <set attributeName="fill" to="#808080" begin="zoomminus.mouseover" end="zoomminus.mouseout"/>
                        </use>
                        <path d="M-4,0h8" fill="none" stroke="white" stroke-width="1.5" pointer-events="none"/>
                </g>
                <g id="dirArrow">
                        <path fill="none" stroke="white" stroke-width="1.5" d="M0,-3.0v7 M-2.5,-0.5L0,-3.0L2.5,-0.5"/>
                </g>
               <g id="resetDef">
                       <use xlink:href="#rim2" fill="#404040">
                               <set attributeName="fill" to="#808080" begin="reset.mouseover" end="reset.mouseout"/>
                       </use>
               </g>
        </defs>

<script type="text/javascript">
var viewWidth = 1380;
var viewHeight = 218;
var sectionId = 'dynsection-0';
</script>
<script xlink:href="svgpan.js"/>
<svg id="graph" class="graph">
<g id="viewport">
<title>Core/FunctionTree/ParObserver.hpp</title>
<polygon fill="#ffffff" stroke="transparent" points="-4,4 -4,-214 1376,-214 1376,4 -4,4"/>
<!-- Node1 -->
<g id="node1" class="node">
<title>Node1</title>
<polygon fill="#bfbfbf" stroke="#000000" points="710.5,-190.5 710.5,-209.5 895.5,-209.5 895.5,-190.5 710.5,-190.5"/>
<text text-anchor="middle" x="803" y="-197.5" font-family="Helvetica,sans-Serif" font-size="10.00" fill="#000000">Core/FunctionTree/ParObserver.hpp</text>
</g>
<!-- Node2 -->
<g id="node2" class="node">
<title>Node2</title>
<g id="a_node2"><a xlink:href="TreeNode_8hpp.html" target="_top" xlink:title="TreeNode class. ">
<polygon fill="#ffffff" stroke="#000000" points="620.5,-134.5 620.5,-153.5 793.5,-153.5 793.5,-134.5 620.5,-134.5"/>
<text text-anchor="middle" x="707" y="-141.5" font-family="Helvetica,sans-Serif" font-size="10.00" fill="#000000">Core/FunctionTree/TreeNode.hpp</text>
</a>
</g>
</g>
<!-- Node1&#45;&gt;Node2 -->
<g id="edge1" class="edge">
<title>Node1&#45;&gt;Node2</title>
<path fill="none" stroke="#191970" d="M777.3654,-185.0465C760.2841,-175.0824 738.336,-162.2794 723.5303,-153.6427"/>
<polygon fill="#191970" stroke="#191970" points="775.8767,-188.23 786.2781,-190.2455 779.4038,-182.1836 775.8767,-188.23"/>
</g>
<!-- Node20 -->
<g id="node11" class="node">
<title>Node20</title>
<g id="a_node11"><a xlink:href="Parameter_8hpp.html" target="_top" xlink:title="Parameter base class. ">
<polygon fill="#ffffff" stroke="#000000" points="1001,-134.5 1001,-153.5 1177,-153.5 1177,-134.5 1001,-134.5"/>
<text text-anchor="middle" x="1089" y="-141.5" font-family="Helvetica,sans-Serif" font-size="10.00" fill="#000000">Core/FunctionTree/Parameter.hpp</text>
</a>
</g>
</g>
<!-- Node1&#45;&gt;Node20 -->
<g id="edge11" class="edge">
<title>Node1&#45;&gt;Node20</title>
<path fill="none" stroke="#191970" d="M861.7268,-188.501C914.4635,-178.175 990.974,-163.1939 1040.3613,-153.5237"/>
<polygon fill="#191970" stroke="#191970" points="860.9813,-185.0805 851.8402,-190.4369 862.3264,-191.95 860.9813,-185.0805"/>
</g>
<!-- Node3 -->
<g id="node3" class="node">
<title>Node3</title>
<g id="a_node3"><a xlink:href="FunctionTreeEstimator_8cpp.html" target="_top" xlink:title="Core/FunctionTree/Function\lTreeEstimator.cpp">
<polygon fill="#ffffff" stroke="#000000" points="0,-67.5 0,-97.5 146,-97.5 146,-67.5 0,-67.5"/>
<text text-anchor="start" x="8" y="-85.5" font-family="Helvetica,sans-Serif" font-size="10.00" fill="#000000">Core/FunctionTree/Function</text>
<text text-anchor="middle" x="73" y="-74.5" font-family="Helvetica,sans-Serif" font-size="10.00" fill="#000000">TreeEstimator.cpp</text>
</a>
</g>
</g>
<!-- Node2&#45;&gt;Node3 -->
<g id="edge2" class="edge">
<title>Node2&#45;&gt;Node3</title>
<path fill="none" stroke="#191970" d="M610.046,-138.9707C499.5506,-132.5323 313.7073,-119.5535 155,-98 152.1287,-97.6101 149.2056,-97.1864 146.2562,-96.7368"/>
<polygon fill="#191970" stroke="#191970" points="609.9861,-142.473 620.1711,-139.5547 610.3892,-135.4846 609.9861,-142.473"/>
</g>
<!-- Node4 -->
<g id="node4" class="node">
<title>Node4</title>
<g id="a_node4"><a xlink:href="FunctionTreeIntensity_8cpp.html" target="_top" xlink:title="Core/FunctionTree/Function\lTreeIntensity.cpp">
<polygon fill="#ffffff" stroke="#000000" points="164,-67.5 164,-97.5 310,-97.5 310,-67.5 164,-67.5"/>
<text text-anchor="start" x="172" y="-85.5" font-family="Helvetica,sans-Serif" font-size="10.00" fill="#000000">Core/FunctionTree/Function</text>
<text text-anchor="middle" x="237" y="-74.5" font-family="Helvetica,sans-Serif" font-size="10.00" fill="#000000">TreeIntensity.cpp</text>
</a>
</g>
</g>
<!-- Node2&#45;&gt;Node4 -->
<g id="edge3" class="edge">
<title>Node2&#45;&gt;Node4</title>
<path fill="none" stroke="#191970" d="M610.0944,-134.3815C531.453,-126.1265 417.815,-113.1784 319,-98 316.1359,-97.5601 313.2189,-97.0943 310.2747,-96.6093"/>
<polygon fill="#191970" stroke="#191970" points="610.1614,-137.9075 620.4708,-135.4648 610.8883,-130.9453 610.1614,-137.9075"/>
</g>
<!-- Node5 -->
<g id="node5" class="node">
<title>Node5</title>
<g id="a_node5"><a xlink:href="TreeNode_8cpp.html" target="_top" xlink:title="Core/FunctionTree/TreeNode.cpp">
<polygon fill="#ffffff" stroke="#000000" points="328,-73 328,-92 500,-92 500,-73 328,-73"/>
<text text-anchor="middle" x="414" y="-80" font-family="Helvetica,sans-Serif" font-size="10.00" fill="#000000">Core/FunctionTree/TreeNode.cpp</text>
</a>
</g>
</g>
<!-- Node2&#45;&gt;Node5 -->
<g id="edge4" class="edge">
<title>Node2&#45;&gt;Node5</title>
<path fill="none" stroke="#191970" d="M651.5108,-132.3529C595.9155,-120.6836 511.363,-102.9363 459.5664,-92.0643"/>
<polygon fill="#191970" stroke="#191970" points="651.0345,-135.8292 661.5402,-134.4581 652.4725,-128.9785 651.0345,-135.8292"/>
</g>
<!-- Node6 -->
<g id="node6" class="node">
<title>Node6</title>
<g id="a_node6"><a xlink:href="MinLogLH_8cpp.html" target="_top" xlink:title="Estimator/MinLogLH\l/MinLogLH.cpp">
<polygon fill="#ffffff" stroke="#000000" points="518,-67.5 518,-97.5 632,-97.5 632,-67.5 518,-67.5"/>
<text text-anchor="start" x="526" y="-85.5" font-family="Helvetica,sans-Serif" font-size="10.00" fill="#000000">Estimator/MinLogLH</text>
<text text-anchor="middle" x="575" y="-74.5" font-family="Helvetica,sans-Serif" font-size="10.00" fill="#000000">/MinLogLH.cpp</text>
</a>
</g>
</g>
<!-- Node2&#45;&gt;Node6 -->
<g id="edge5" class="edge">
<title>Node2&#45;&gt;Node6</title>
<path fill="none" stroke="#191970" d="M677.0665,-130.0537C656.2714,-120.3651 628.5822,-107.4644 607.2908,-97.5446"/>
<polygon fill="#191970" stroke="#191970" points="675.8324,-133.3399 686.375,-134.3906 678.7887,-126.9948 675.8324,-133.3399"/>
</g>
<!-- Node7 -->
<g id="node7" class="node">
<title>Node7</title>
<g id="a_node7"><a xlink:href="SumMinLogLH_8cpp.html" target="_top" xlink:title="Estimator/MinLogLH\l/SumMinLogLH.cpp">
<polygon fill="#ffffff" stroke="#000000" points="650,-67.5 650,-97.5 764,-97.5 764,-67.5 650,-67.5"/>
<text text-anchor="start" x="658" y="-85.5" font-family="Helvetica,sans-Serif" font-size="10.00" fill="#000000">Estimator/MinLogLH</text>
<text text-anchor="middle" x="707" y="-74.5" font-family="Helvetica,sans-Serif" font-size="10.00" fill="#000000">/SumMinLogLH.cpp</text>
</a>
</g>
</g>
<!-- Node2&#45;&gt;Node7 -->
<g id="edge6" class="edge">
<title>Node2&#45;&gt;Node7</title>
<path fill="none" stroke="#191970" d="M707,-124.3693C707,-115.681 707,-105.6241 707,-97.5446"/>
<polygon fill="#191970" stroke="#191970" points="703.5001,-124.3906 707,-134.3906 710.5001,-124.3907 703.5001,-124.3906"/>
</g>
<!-- Node8 -->
<g id="node8" class="node">
<title>Node8</title>
<g id="a_node8"><a xlink:href="FormFactor_8hpp.html" target="_top" xlink:title="Physics/Dynamics/FormFactor.hpp">
<polygon fill="#ffffff" stroke="#ff0000" points="782,-73 782,-92 964,-92 964,-73 782,-73"/>
<text text-anchor="middle" x="873" y="-80" font-family="Helvetica,sans-Serif" font-size="10.00" fill="#000000">Physics/Dynamics/FormFactor.hpp</text>
</a>
</g>
</g>
<!-- Node2&#45;&gt;Node8 -->
<g id="edge7" class="edge">
<title>Node2&#45;&gt;Node8</title>
<path fill="none" stroke="#191970" d="M742.6311,-130.7993C774.0834,-119.1468 819.1778,-102.4402 847.2446,-92.0419"/>
<polygon fill="#191970" stroke="#191970" points="741.0987,-127.6345 732.9375,-134.3906 743.5306,-134.1985 741.0987,-127.6345"/>
</g>
<!-- Node13 -->
<g id="node9" class="node">
<title>Node13</title>
<g id="a_node9"><a xlink:href="RelativisticBreitWigner_8hpp.html" target="_top" xlink:title="Physics/Dynamics/Relativistic\lBreitWigner.hpp">
<polygon fill="#ffffff" stroke="#ff0000" points="851,-.5 851,-30.5 1013,-30.5 1013,-.5 851,-.5"/>
<text text-anchor="start" x="859" y="-18.5" font-family="Helvetica,sans-Serif" font-size="10.00" fill="#000000">Physics/Dynamics/Relativistic</text>
<text text-anchor="middle" x="932" y="-7.5" font-family="Helvetica,sans-Serif" font-size="10.00" fill="#000000">BreitWigner.hpp</text>
</a>
</g>
</g>
<!-- Node2&#45;&gt;Node13 -->
<g id="edge9" class="edge">
<title>Node2&#45;&gt;Node13</title>
<path fill="none" stroke="#191970" d="M803.9011,-140.024C870.7779,-135.0073 951.3956,-123.6611 973,-98 990.3057,-77.4447 967.2404,-48.3385 949.3382,-30.7568"/>
<polygon fill="#191970" stroke="#191970" points="803.4469,-136.5473 793.7203,-140.7476 803.9433,-143.5297 803.4469,-136.5473"/>
</g>
<!-- Node18 -->
<g id="node10" class="node">
<title>Node18</title>
<g id="a_node10"><a xlink:href="WignerD_8hpp.html" target="_top" xlink:title="Physics/HelicityFormalism\l/WignerD.hpp">
<polygon fill="#ffffff" stroke="#ff0000" points="1020,-67.5 1020,-97.5 1166,-97.5 1166,-67.5 1020,-67.5"/>
<text text-anchor="start" x="1028" y="-85.5" font-family="Helvetica,sans-Serif" font-size="10.00" fill="#000000">Physics/HelicityFormalism</text>
<text text-anchor="middle" x="1093" y="-74.5" font-family="Helvetica,sans-Serif" font-size="10.00" fill="#000000">/WignerD.hpp</text>
</a>
</g>
</g>
<!-- Node2&#45;&gt;Node18 -->
<g id="edge10" class="edge">
<title>Node2&#45;&gt;Node18</title>
<path fill="none" stroke="#191970" d="M782.0395,-132.9581C842.5586,-123.9318 929.839,-110.6412 1006,-98 1010.5405,-97.2464 1015.2116,-96.4565 1019.9203,-95.6493"/>
<polygon fill="#191970" stroke="#191970" points="781.1877,-129.5463 771.8122,-134.4809 782.2186,-136.4699 781.1877,-129.5463"/>
</g>
<!-- Node8&#45;&gt;Node13 -->
<g id="edge8" class="edge">
<title>Node8&#45;&gt;Node13</title>
<path fill="none" stroke="#191970" d="M888.0937,-65.3597C897.5694,-54.5992 909.6733,-40.8541 918.7719,-30.5218"/>
<polygon fill="#191970" stroke="#191970" points="885.4354,-63.0825 881.4533,-72.9005 890.6888,-67.7087 885.4354,-63.0825"/>
</g>
<!-- Node21 -->
<g id="node12" class="node">
<title>Node21</title>
<g id="a_node12"><a xlink:href="FunctionTree_2FitParameter_8hpp.html" target="_top" xlink:title="Implementations of Parameter for various data types. ">
<polygon fill="#ffffff" stroke="#ff0000" points="1184,-73 1184,-92 1372,-92 1372,-73 1184,-73"/>
<text text-anchor="middle" x="1278" y="-80" font-family="Helvetica,sans-Serif" font-size="10.00" fill="#000000">Core/FunctionTree/FitParameter.hpp</text>
</a>
</g>
</g>
<!-- Node20&#45;&gt;Node21 -->
<g id="edge12" class="edge">
<title>Node20&#45;&gt;Node21</title>
<path fill="none" stroke="#191970" d="M1128.1806,-131.2507C1164.0413,-119.5818 1216.3054,-102.5752 1248.6761,-92.0419"/>
<polygon fill="#191970" stroke="#191970" points="1126.9575,-127.9681 1118.5313,-134.3906 1129.1235,-134.6245 1126.9575,-127.9681"/>
</g>
</g>
</svg>
        <g id="navigator" transform="translate(0 0)" fill="#404254">
                <rect fill="#f2f5e9" fill-opacity="0.5" stroke="#606060" stroke-width=".5" x="0" y="0" width="60" height="60"/>
                <use id="zoomplus" xlink:href="#zoomPlus" x="17" y="9" onmousedown="handleZoom(evt,'in')"/>
                <use id="zoomminus" xlink:href="#zoomMin" x="42" y="9" onmousedown="handleZoom(evt,'out')"/>
                <use id="reset" xlink:href="#resetDef" x="30" y="36" onmousedown="handleReset()"/>
                <g id="arrowUp" xlink:href="#dirArrow" transform="translate(30 24)" onmousedown="handlePan(0,-1)">
                  <use xlink:href="#rim" fill="#404040">
                        <set attributeName="fill" to="#808080" begin="arrowUp.mouseover" end="arrowUp.mouseout"/>
                  </use>
                  <path fill="none" stroke="white" stroke-width="1.5" d="M0,-3.0v7 M-2.5,-0.5L0,-3.0L2.5,-0.5"/>
                </g>
                <g id="arrowRight" xlink:href="#dirArrow" transform="rotate(90) translate(36 -43)" onmousedown="handlePan(1,0)">
                  <use xlink:href="#rim" fill="#404040">
                        <set attributeName="fill" to="#808080" begin="arrowRight.mouseover" end="arrowRight.mouseout"/>
                  </use>
                  <path fill="none" stroke="white" stroke-width="1.5" d="M0,-3.0v7 M-2.5,-0.5L0,-3.0L2.5,-0.5"/>
                </g>
                <g id="arrowDown" xlink:href="#dirArrow" transform="rotate(180) translate(-30 -48)" onmousedown="handlePan(0,1)">
                  <use xlink:href="#rim" fill="#404040">
                        <set attributeName="fill" to="#808080" begin="arrowDown.mouseover" end="arrowDown.mouseout"/>
                  </use>
                  <path fill="none" stroke="white" stroke-width="1.5" d="M0,-3.0v7 M-2.5,-0.5L0,-3.0L2.5,-0.5"/>
                </g>
                <g id="arrowLeft" xlink:href="#dirArrow" transform="rotate(270) translate(-36 17)" onmousedown="handlePan(-1,0)">
                  <use xlink:href="#rim" fill="#404040">
                        <set attributeName="fill" to="#808080" begin="arrowLeft.mouseover" end="arrowLeft.mouseout"/>
                  </use>
                  <path fill="none" stroke="white" stroke-width="1.5" d="M0,-3.0v7 M-2.5,-0.5L0,-3.0L2.5,-0.5"/>
                </g>
        </g>
        <svg viewBox="0 0 15 15" width="100%" height="30px" preserveAspectRatio="xMaxYMin meet">
         <g id="arrow_out" transform="scale(0.3 0.3)">
          <a xlink:href="ParObserver_8hpp__dep__incl_org.svg" target="_base">
           <rect id="button" ry="5" rx="5" y="6" x="6" height="38" width="38"
                fill="#f2f5e9" fill-opacity="0.5" stroke="#606060" stroke-width="1.0"/>
           <path id="arrow"
             d="M 11.500037,31.436501 C 11.940474,20.09759 22.043105,11.32322 32.158766,21.979434 L 37.068811,17.246167 C 37.068811,17.246167 37.088388,32 37.088388,32 L 22.160133,31.978069 C 22.160133,31.978069 26.997745,27.140456 26.997745,27.140456 C 18.528582,18.264221 13.291696,25.230495 11.500037,31.436501 z"
             style="fill:#404040;"/>
          </a>
         </g>
        </svg>
</svg>
