<?xml version="1.0" encoding="UTF-8" standalone="no"?>
<!DOCTYPE svg PUBLIC "-//W3C//DTD SVG 1.1//EN"
 "http://www.w3.org/Graphics/SVG/1.1/DTD/svg11.dtd">
<!-- Generated by graphviz version 2.38.0 (20140413.2041)
 -->
<!-- Title: /home/travis/build/ComPWA/ComPWA/Core/Particle.hpp Pages: 1 -->
<svg width="2406pt" height="395pt"
 viewBox="0.00 0.00 2405.50 395.00" xmlns="http://www.w3.org/2000/svg" xmlns:xlink="http://www.w3.org/1999/xlink">
<g id="graph0" class="graph" transform="scale(1 1) rotate(0) translate(4 391)">
<title>/home/travis/build/ComPWA/ComPWA/Core/Particle.hpp</title>
<polygon fill="white" stroke="none" points="-4,4 -4,-391 2401.5,-391 2401.5,4 -4,4"/>
<!-- Node1 -->
<g id="node1" class="node"><title>Node1</title>
<polygon fill="#bfbfbf" stroke="black" points="1218,-345.5 1218,-386.5 1353,-386.5 1353,-345.5 1218,-345.5"/>
<text text-anchor="start" x="1226" y="-374.5" font-family="Helvetica,sans-Serif" font-size="10.00">/home/travis/build</text>
<text text-anchor="start" x="1226" y="-363.5" font-family="Helvetica,sans-Serif" font-size="10.00">/ComPWA/ComPWA/Core</text>
<text text-anchor="middle" x="1285.5" y="-352.5" font-family="Helvetica,sans-Serif" font-size="10.00">/Particle.hpp</text>
</g>
<!-- Node2 -->
<g id="node2" class="node"><title>Node2</title>
<g id="a_node2"><a xlink:href="Event_8hpp.html" target="_top" xlink:title="/home/travis/build\l/ComPWA/ComPWA/Core\l/Event.hpp">
<polygon fill="white" stroke="black" points="748,-262 748,-303 883,-303 883,-262 748,-262"/>
<text text-anchor="start" x="756" y="-291" font-family="Helvetica,sans-Serif" font-size="10.00">/home/travis/build</text>
<text text-anchor="start" x="756" y="-280" font-family="Helvetica,sans-Serif" font-size="10.00">/ComPWA/ComPWA/Core</text>
<text text-anchor="middle" x="815.5" y="-269" font-family="Helvetica,sans-Serif" font-size="10.00">/Event.hpp</text>
</a>
</g>
</g>
<!-- Node1&#45;&gt;Node2 -->
<g id="edge1" class="edge"><title>Node1&#45;&gt;Node2</title>
<path fill="none" stroke="midnightblue" d="M1207.64,-357.425C1128.82,-348.903 1003.75,-333.03 897.5,-309 889.939,-307.29 882.066,-305.222 874.32,-303.013"/>
<polygon fill="midnightblue" stroke="midnightblue" points="1207.65,-360.947 1217.97,-358.529 1208.4,-353.986 1207.65,-360.947"/>
</g>
<!-- Node12 -->
<g id="node12" class="node"><title>Node12</title>
<g id="a_node12"><a xlink:href="MinLogLH_8cpp.html" target="_top" xlink:title="/home/travis/build\l/ComPWA/ComPWA/Estimator\l/MinLogLH/MinLogLH.cpp">
<polygon fill="white" stroke="black" points="930.5,-89.5 930.5,-130.5 1086.5,-130.5 1086.5,-89.5 930.5,-89.5"/>
<text text-anchor="start" x="938.5" y="-118.5" font-family="Helvetica,sans-Serif" font-size="10.00">/home/travis/build</text>
<text text-anchor="start" x="938.5" y="-107.5" font-family="Helvetica,sans-Serif" font-size="10.00">/ComPWA/ComPWA/Estimator</text>
<text text-anchor="middle" x="1008.5" y="-96.5" font-family="Helvetica,sans-Serif" font-size="10.00">/MinLogLH/MinLogLH.cpp</text>
</a>
</g>
</g>
<!-- Node1&#45;&gt;Node12 -->
<g id="edge36" class="edge"><title>Node1&#45;&gt;Node12</title>
<path fill="none" stroke="midnightblue" d="M1207.57,-357.852C1123.1,-345.472 992.125,-311.739 930.5,-220 917.365,-200.447 919.747,-187.958 930.5,-167 938.338,-151.723 952.496,-139.674 966.619,-130.728"/>
<polygon fill="midnightblue" stroke="midnightblue" points="1207.25,-361.341 1217.64,-359.259 1208.22,-354.408 1207.25,-361.341"/>
</g>
<!-- Node15 -->
<g id="node15" class="node"><title>Node15</title>
<g id="a_node15"><a xlink:href="DalitzKinematics_8cpp.html" target="_top" xlink:title="/home/travis/build\l/ComPWA/ComPWA/Physics\l/EvtGen/DalitzKinematics.cpp">
<polygon fill="white" stroke="black" points="763,-89.5 763,-130.5 912,-130.5 912,-89.5 763,-89.5"/>
<text text-anchor="start" x="771" y="-118.5" font-family="Helvetica,sans-Serif" font-size="10.00">/home/travis/build</text>
<text text-anchor="start" x="771" y="-107.5" font-family="Helvetica,sans-Serif" font-size="10.00">/ComPWA/ComPWA/Physics</text>
<text text-anchor="middle" x="837.5" y="-96.5" font-family="Helvetica,sans-Serif" font-size="10.00">/EvtGen/DalitzKinematics.cpp</text>
</a>
</g>
</g>
<!-- Node1&#45;&gt;Node15 -->
<g id="edge38" class="edge"><title>Node1&#45;&gt;Node15</title>
<path fill="none" stroke="midnightblue" d="M1207.49,-360.318C972.606,-345.422 284.229,-295.612 220.5,-220 205.319,-201.989 204.415,-184.208 220.5,-167 261.033,-123.637 694.815,-139.905 753.5,-131 756.612,-130.528 759.78,-129.998 762.971,-129.424"/>
<polygon fill="midnightblue" stroke="midnightblue" points="1207.46,-363.823 1217.66,-360.96 1207.9,-356.837 1207.46,-363.823"/>
</g>
<!-- Node18 -->
<g id="node18" class="node"><title>Node18</title>
<g id="a_node18"><a xlink:href="HelicityKinematics_8cpp.html" target="_top" xlink:title="/home/travis/build\l/ComPWA/ComPWA/Physics\l/HelicityFormalism/HelicityKinematics.cpp">
<polygon fill="white" stroke="black" points="1466.5,-89.5 1466.5,-130.5 1668.5,-130.5 1668.5,-89.5 1466.5,-89.5"/>
<text text-anchor="start" x="1474.5" y="-118.5" font-family="Helvetica,sans-Serif" font-size="10.00">/home/travis/build</text>
<text text-anchor="start" x="1474.5" y="-107.5" font-family="Helvetica,sans-Serif" font-size="10.00">/ComPWA/ComPWA/Physics</text>
<text text-anchor="middle" x="1567.5" y="-96.5" font-family="Helvetica,sans-Serif" font-size="10.00">/HelicityFormalism/HelicityKinematics.cpp</text>
</a>
</g>
</g>
<!-- Node1&#45;&gt;Node18 -->
<g id="edge39" class="edge"><title>Node1&#45;&gt;Node18</title>
<path fill="none" stroke="midnightblue" d="M1347.24,-341.328C1400.98,-317.885 1477.56,-277.194 1525.5,-220 1547.65,-193.577 1558.9,-154.181 1563.96,-130.693"/>
<polygon fill="midnightblue" stroke="midnightblue" points="1345.64,-338.209 1337.82,-345.364 1348.39,-344.644 1345.64,-338.209"/>
</g>
<!-- Node24 -->
<g id="node24" class="node"><title>Node24</title>
<g id="a_node24"><a xlink:href="SumMinLogLH_8cpp.html" target="_top" xlink:title="/home/travis/build\l/ComPWA/ComPWA/Estimator\l/MinLogLH/SumMinLogLH.cpp">
<polygon fill="white" stroke="black" points="1207.5,-173 1207.5,-214 1363.5,-214 1363.5,-173 1207.5,-173"/>
<text text-anchor="start" x="1215.5" y="-202" font-family="Helvetica,sans-Serif" font-size="10.00">/home/travis/build</text>
<text text-anchor="start" x="1215.5" y="-191" font-family="Helvetica,sans-Serif" font-size="10.00">/ComPWA/ComPWA/Estimator</text>
<text text-anchor="middle" x="1285.5" y="-180" font-family="Helvetica,sans-Serif" font-size="10.00">/MinLogLH/SumMinLogLH.cpp</text>
</a>
</g>
</g>
<!-- Node1&#45;&gt;Node24 -->
<g id="edge37" class="edge"><title>Node1&#45;&gt;Node24</title>
<path fill="none" stroke="midnightblue" d="M1285.5,-335.402C1285.5,-300.606 1285.5,-243.839 1285.5,-214.092"/>
<polygon fill="midnightblue" stroke="midnightblue" points="1282,-335.441 1285.5,-345.441 1289,-335.442 1282,-335.441"/>
</g>
<!-- Node25 -->
<g id="node25" class="node"><title>Node25</title>
<g id="a_node25"><a xlink:href="ParticleStateTransitionKinematicsInfo_8hpp.html" target="_top" xlink:title="/home/travis/build\l/ComPWA/ComPWA/Physics\l/ParticleStateTransitionKinematics\lInfo.hpp">
<polygon fill="white" stroke="black" points="1639,-256.5 1639,-308.5 1806,-308.5 1806,-256.5 1639,-256.5"/>
<text text-anchor="start" x="1647" y="-296.5" font-family="Helvetica,sans-Serif" font-size="10.00">/home/travis/build</text>
<text text-anchor="start" x="1647" y="-285.5" font-family="Helvetica,sans-Serif" font-size="10.00">/ComPWA/ComPWA/Physics</text>
<text text-anchor="start" x="1647" y="-274.5" font-family="Helvetica,sans-Serif" font-size="10.00">/ParticleStateTransitionKinematics</text>
<text text-anchor="middle" x="1722.5" y="-263.5" font-family="Helvetica,sans-Serif" font-size="10.00">Info.hpp</text>
</a>
</g>
</g>
<!-- Node1&#45;&gt;Node25 -->
<g id="edge40" class="edge"><title>Node1&#45;&gt;Node25</title>
<path fill="none" stroke="midnightblue" d="M1363.03,-351.608C1426.22,-340.569 1517.72,-324.294 1597.5,-309 1610.88,-306.435 1625.04,-303.631 1638.84,-300.851"/>
<polygon fill="midnightblue" stroke="midnightblue" points="1362.39,-348.168 1353.14,-353.334 1363.59,-355.063 1362.39,-348.168"/>
</g>
<!-- Node29 -->
<g id="node29" class="node"><title>Node29</title>
<g id="a_node29"><a xlink:href="DalitzPlot_8hpp.html" target="_top" xlink:title="/home/travis/build\l/ComPWA/ComPWA/Tools\l/Plotting/DalitzPlot.hpp">
<polygon fill="white" stroke="black" points="2259.5,-173 2259.5,-214 2397.5,-214 2397.5,-173 2259.5,-173"/>
<text text-anchor="start" x="2267.5" y="-202" font-family="Helvetica,sans-Serif" font-size="10.00">/home/travis/build</text>
<text text-anchor="start" x="2267.5" y="-191" font-family="Helvetica,sans-Serif" font-size="10.00">/ComPWA/ComPWA/Tools</text>
<text text-anchor="middle" x="2328.5" y="-180" font-family="Helvetica,sans-Serif" font-size="10.00">/Plotting/DalitzPlot.hpp</text>
</a>
</g>
</g>
<!-- Node1&#45;&gt;Node29 -->
<g id="edge56" class="edge"><title>Node1&#45;&gt;Node29</title>
<path fill="none" stroke="midnightblue" d="M1363.46,-359.112C1466.91,-350.759 1655.07,-333.689 1814.5,-309 2009.51,-278.8 2058.64,-270.163 2249.5,-220 2256.33,-218.205 2263.44,-216.163 2270.47,-214.034"/>
<polygon fill="midnightblue" stroke="midnightblue" points="1363.1,-355.629 1353.41,-359.917 1363.66,-362.607 1363.1,-355.629"/>
</g>
<!-- Node3 -->
<g id="node3" class="node"><title>Node3</title>
<g id="a_node3"><a xlink:href="Event_8cpp.html" target="_top" xlink:title="/home/travis/build\l/ComPWA/ComPWA/Core\l/Event.cpp">
<polygon fill="white" stroke="black" points="230,-173 230,-214 365,-214 365,-173 230,-173"/>
<text text-anchor="start" x="238" y="-202" font-family="Helvetica,sans-Serif" font-size="10.00">/home/travis/build</text>
<text text-anchor="start" x="238" y="-191" font-family="Helvetica,sans-Serif" font-size="10.00">/ComPWA/ComPWA/Core</text>
<text text-anchor="middle" x="297.5" y="-180" font-family="Helvetica,sans-Serif" font-size="10.00">/Event.cpp</text>
</a>
</g>
</g>
<!-- Node2&#45;&gt;Node3 -->
<g id="edge2" class="edge"><title>Node2&#45;&gt;Node3</title>
<path fill="none" stroke="midnightblue" d="M737.525,-274.335C649.76,-265.386 503.263,-247.782 379.5,-220 371.936,-218.302 364.061,-216.242 356.314,-214.036"/>
<polygon fill="midnightblue" stroke="midnightblue" points="737.368,-277.837 747.668,-275.358 738.07,-270.872 737.368,-277.837"/>
</g>
<!-- Node4 -->
<g id="node4" class="node"><title>Node4</title>
<g id="a_node4"><a xlink:href="Generator_8hpp.html" target="_top" xlink:title="/home/travis/build\l/ComPWA/ComPWA/Core\l/Generator.hpp">
<polygon fill="white" stroke="red" points="652,-173 652,-214 787,-214 787,-173 652,-173"/>
<text text-anchor="start" x="660" y="-202" font-family="Helvetica,sans-Serif" font-size="10.00">/home/travis/build</text>
<text text-anchor="start" x="660" y="-191" font-family="Helvetica,sans-Serif" font-size="10.00">/ComPWA/ComPWA/Core</text>
<text text-anchor="middle" x="719.5" y="-180" font-family="Helvetica,sans-Serif" font-size="10.00">/Generator.hpp</text>
</a>
</g>
</g>
<!-- Node2&#45;&gt;Node4 -->
<g id="edge3" class="edge"><title>Node2&#45;&gt;Node4</title>
<path fill="none" stroke="midnightblue" d="M785.997,-254.763C771.539,-241.66 754.437,-226.162 741.198,-214.164"/>
<polygon fill="midnightblue" stroke="midnightblue" points="783.956,-257.637 793.716,-261.758 788.657,-252.45 783.956,-257.637"/>
</g>
<!-- Node5 -->
<g id="node5" class="node"><title>Node5</title>
<g id="a_node5"><a xlink:href="EvtGenGenerator_8hpp.html" target="_top" xlink:title="/home/travis/build\l/ComPWA/ComPWA/Data\l/EvtGen/EvtGenGenerator.hpp">
<polygon fill="white" stroke="black" points="441.5,-89.5 441.5,-130.5 591.5,-130.5 591.5,-89.5 441.5,-89.5"/>
<text text-anchor="start" x="449.5" y="-118.5" font-family="Helvetica,sans-Serif" font-size="10.00">/home/travis/build</text>
<text text-anchor="start" x="449.5" y="-107.5" font-family="Helvetica,sans-Serif" font-size="10.00">/ComPWA/ComPWA/Data</text>
<text text-anchor="middle" x="516.5" y="-96.5" font-family="Helvetica,sans-Serif" font-size="10.00">/EvtGen/EvtGenGenerator.hpp</text>
</a>
</g>
</g>
<!-- Node2&#45;&gt;Node5 -->
<g id="edge22" class="edge"><title>Node2&#45;&gt;Node5</title>
<path fill="none" stroke="midnightblue" d="M818.924,-251.872C820.157,-225.938 817.341,-189.052 795.5,-167 733.483,-104.382 686.729,-149.212 600.5,-131 597.567,-130.38 594.579,-129.736 591.563,-129.073"/>
<polygon fill="midnightblue" stroke="midnightblue" points="815.429,-251.681 818.224,-261.901 822.412,-252.169 815.429,-251.681"/>
</g>
<!-- Node7 -->
<g id="node7" class="node"><title>Node7</title>
<g id="a_node7"><a xlink:href="AsciiDataIO_8hpp.html" target="_top" xlink:title="/home/travis/build\l/ComPWA/ComPWA/Data\l/Ascii/AsciiDataIO.hpp">
<polygon fill="white" stroke="red" points="460,-173 460,-214 595,-214 595,-173 460,-173"/>
<text text-anchor="start" x="468" y="-202" font-family="Helvetica,sans-Serif" font-size="10.00">/home/travis/build</text>
<text text-anchor="start" x="468" y="-191" font-family="Helvetica,sans-Serif" font-size="10.00">/ComPWA/ComPWA/Data</text>
<text text-anchor="middle" x="527.5" y="-180" font-family="Helvetica,sans-Serif" font-size="10.00">/Ascii/AsciiDataIO.hpp</text>
</a>
</g>
</g>
<!-- Node2&#45;&gt;Node7 -->
<g id="edge6" class="edge"><title>Node2&#45;&gt;Node7</title>
<path fill="none" stroke="midnightblue" d="M739.426,-259.013C700.528,-247.458 652.452,-233.09 609.5,-220 603.225,-218.088 596.685,-216.08 590.156,-214.065"/>
<polygon fill="midnightblue" stroke="midnightblue" points="738.527,-262.397 749.109,-261.888 740.519,-255.687 738.527,-262.397"/>
</g>
<!-- Node8 -->
<g id="node8" class="node"><title>Node8</title>
<g id="a_node8"><a xlink:href="DataCorrection_8hpp.html" target="_top" xlink:title="/home/travis/build\l/ComPWA/ComPWA/Data\l/DataCorrection.hpp">
<polygon fill="white" stroke="red" points="96,-89.5 96,-130.5 231,-130.5 231,-89.5 96,-89.5"/>
<text text-anchor="start" x="104" y="-118.5" font-family="Helvetica,sans-Serif" font-size="10.00">/home/travis/build</text>
<text text-anchor="start" x="104" y="-107.5" font-family="Helvetica,sans-Serif" font-size="10.00">/ComPWA/ComPWA/Data</text>
<text text-anchor="middle" x="163.5" y="-96.5" font-family="Helvetica,sans-Serif" font-size="10.00">/DataCorrection.hpp</text>
</a>
</g>
</g>
<!-- Node2&#45;&gt;Node8 -->
<g id="edge7" class="edge"><title>Node2&#45;&gt;Node8</title>
<path fill="none" stroke="midnightblue" d="M737.613,-282.384C595.905,-282.562 302.932,-275.91 220.5,-220 189.572,-199.023 174.292,-155.79 167.719,-130.531"/>
<polygon fill="midnightblue" stroke="midnightblue" points="737.971,-285.883 747.962,-282.358 737.953,-278.883 737.971,-285.883"/>
</g>
<!-- Node9 -->
<g id="node9" class="node"><title>Node9</title>
<g id="a_node9"><a xlink:href="DalitzFitD03K_8cpp.html" target="_top" xlink:title="Executable for Dalitz plot analysis of the decay D0 &#45;&gt; K_S K+ K&#45;. ">
<polygon fill="white" stroke="black" points="276.5,-0.5 276.5,-52.5 434.5,-52.5 434.5,-0.5 276.5,-0.5"/>
<text text-anchor="start" x="284.5" y="-40.5" font-family="Helvetica,sans-Serif" font-size="10.00">/home/travis/build</text>
<text text-anchor="start" x="284.5" y="-29.5" font-family="Helvetica,sans-Serif" font-size="10.00">/ComPWA/ComPWA/Examples</text>
<text text-anchor="start" x="284.5" y="-18.5" font-family="Helvetica,sans-Serif" font-size="10.00">/DalitzAnalysis_D0KsKK</text>
<text text-anchor="middle" x="355.5" y="-7.5" font-family="Helvetica,sans-Serif" font-size="10.00">/DalitzFitD03K.cpp</text>
</a>
</g>
</g>
<!-- Node2&#45;&gt;Node9 -->
<g id="edge31" class="edge"><title>Node2&#45;&gt;Node9</title>
<path fill="none" stroke="midnightblue" d="M737.358,-281.052C657.917,-277.861 532.995,-265.171 435.5,-220 402.607,-204.76 404.69,-185.475 373.5,-167 334.652,-143.989 304.154,-168.156 278.5,-131 267.894,-115.639 270.407,-105.821 278.5,-89 285.472,-74.5079 297.706,-62.3666 310.397,-52.8037"/>
<polygon fill="midnightblue" stroke="midnightblue" points="737.657,-284.565 747.776,-281.427 737.909,-277.57 737.657,-284.565"/>
</g>
<!-- Node10 -->
<g id="node10" class="node"><title>Node10</title>
<g id="a_node10"><a xlink:href="DataSet_8hpp.html" target="_top" xlink:title="/home/travis/build\l/ComPWA/ComPWA/Data\l/DataSet.hpp">
<polygon fill="white" stroke="red" points="940,-173 940,-214 1075,-214 1075,-173 940,-173"/>
<text text-anchor="start" x="948" y="-202" font-family="Helvetica,sans-Serif" font-size="10.00">/home/travis/build</text>
<text text-anchor="start" x="948" y="-191" font-family="Helvetica,sans-Serif" font-size="10.00">/ComPWA/ComPWA/Data</text>
<text text-anchor="middle" x="1007.5" y="-180" font-family="Helvetica,sans-Serif" font-size="10.00">/DataSet.hpp</text>
</a>
</g>
</g>
<!-- Node2&#45;&gt;Node10 -->
<g id="edge9" class="edge"><title>Node2&#45;&gt;Node10</title>
<path fill="none" stroke="midnightblue" d="M867.724,-257.836C897.984,-244.124 935.628,-227.067 964.224,-214.11"/>
<polygon fill="midnightblue" stroke="midnightblue" points="866.253,-254.66 858.589,-261.976 869.142,-261.036 866.253,-254.66"/>
</g>
<!-- Node11 -->
<g id="node11" class="node"><title>Node11</title>
<g id="a_node11"><a xlink:href="RootEfficiency_8cpp.html" target="_top" xlink:title="/home/travis/build\l/ComPWA/ComPWA/Data\l/Root/RootEfficiency.cpp">
<polygon fill="white" stroke="black" points="610,-89.5 610,-130.5 745,-130.5 745,-89.5 610,-89.5"/>
<text text-anchor="start" x="618" y="-118.5" font-family="Helvetica,sans-Serif" font-size="10.00">/home/travis/build</text>
<text text-anchor="start" x="618" y="-107.5" font-family="Helvetica,sans-Serif" font-size="10.00">/ComPWA/ComPWA/Data</text>
<text text-anchor="middle" x="677.5" y="-96.5" font-family="Helvetica,sans-Serif" font-size="10.00">/Root/RootEfficiency.cpp</text>
</a>
</g>
</g>
<!-- Node2&#45;&gt;Node11 -->
<g id="edge28" class="edge"><title>Node2&#45;&gt;Node11</title>
<path fill="none" stroke="midnightblue" d="M737.711,-279.73C641.66,-275.711 486.531,-262.61 450.5,-220 435.29,-202.013 435.916,-185.498 450.5,-167 492.947,-113.16 533.985,-147.619 600.5,-131 603.582,-130.23 606.732,-129.437 609.912,-128.631"/>
<polygon fill="midnightblue" stroke="midnightblue" points="737.837,-283.238 747.967,-280.134 738.112,-276.243 737.837,-283.238"/>
</g>
<!-- Node2&#45;&gt;Node15 -->
<g id="edge32" class="edge"><title>Node2&#45;&gt;Node15</title>
<path fill="none" stroke="midnightblue" d="M823.157,-252.025C825.526,-241.932 827.924,-230.529 829.5,-220 834.134,-189.037 836.118,-152.706 836.943,-130.79"/>
<polygon fill="midnightblue" stroke="midnightblue" points="819.699,-251.434 820.735,-261.978 826.501,-253.089 819.699,-251.434"/>
</g>
<!-- Node16 -->
<g id="node16" class="node"><title>Node16</title>
<g id="a_node16"><a xlink:href="EvtGenIF_8hpp.html" target="_top" xlink:title="/home/travis/build\l/ComPWA/ComPWA/Physics\l/EvtGen/EvtGenIF.hpp">
<polygon fill="white" stroke="red" points="1687,-89.5 1687,-130.5 1836,-130.5 1836,-89.5 1687,-89.5"/>
<text text-anchor="start" x="1695" y="-118.5" font-family="Helvetica,sans-Serif" font-size="10.00">/home/travis/build</text>
<text text-anchor="start" x="1695" y="-107.5" font-family="Helvetica,sans-Serif" font-size="10.00">/ComPWA/ComPWA/Physics</text>
<text text-anchor="middle" x="1761.5" y="-96.5" font-family="Helvetica,sans-Serif" font-size="10.00">/EvtGen/EvtGenIF.hpp</text>
</a>
</g>
</g>
<!-- Node2&#45;&gt;Node16 -->
<g id="edge33" class="edge"><title>Node2&#45;&gt;Node16</title>
<path fill="none" stroke="midnightblue" d="M893.145,-279.498C957.665,-274.752 1049.84,-260.608 1119.5,-220 1146.45,-204.292 1137.59,-180.933 1165.5,-167 1267.55,-116.048 1564.76,-148.267 1677.5,-131 1680.61,-130.523 1683.78,-129.99 1686.97,-129.414"/>
<polygon fill="midnightblue" stroke="midnightblue" points="892.776,-276.015 883.035,-280.181 893.248,-282.999 892.776,-276.015"/>
</g>
<!-- Node2&#45;&gt;Node18 -->
<g id="edge34" class="edge"><title>Node2&#45;&gt;Node18</title>
<path fill="none" stroke="midnightblue" d="M893.359,-276.902C949.717,-270.55 1025.81,-255.511 1083.5,-220 1109.57,-203.952 1100.54,-181.501 1127.5,-167 1192.27,-132.163 1383.71,-141.527 1456.5,-131 1459.7,-130.538 1462.94,-130.052 1466.22,-129.547"/>
<polygon fill="midnightblue" stroke="midnightblue" points="892.651,-273.457 883.074,-277.99 893.387,-280.418 892.651,-273.457"/>
</g>
<!-- Node19 -->
<g id="node19" class="node"><title>Node19</title>
<g id="a_node19"><a xlink:href="DalitzPlot_8cpp.html" target="_top" xlink:title="/home/travis/build\l/ComPWA/ComPWA/Tools\l/Plotting/DalitzPlot.cpp">
<polygon fill="white" stroke="black" points="1854.5,-89.5 1854.5,-130.5 1992.5,-130.5 1992.5,-89.5 1854.5,-89.5"/>
<text text-anchor="start" x="1862.5" y="-118.5" font-family="Helvetica,sans-Serif" font-size="10.00">/home/travis/build</text>
<text text-anchor="start" x="1862.5" y="-107.5" font-family="Helvetica,sans-Serif" font-size="10.00">/ComPWA/ComPWA/Tools</text>
<text text-anchor="middle" x="1923.5" y="-96.5" font-family="Helvetica,sans-Serif" font-size="10.00">/Plotting/DalitzPlot.cpp</text>
</a>
</g>
</g>
<!-- Node2&#45;&gt;Node19 -->
<g id="edge35" class="edge"><title>Node2&#45;&gt;Node19</title>
<path fill="none" stroke="midnightblue" d="M893.166,-273.914C979.688,-264.354 1113.12,-245.975 1156.5,-220 1182.29,-204.559 1171.82,-180.83 1198.5,-167 1326.15,-100.839 1702.38,-152.744 1844.5,-131 1847.72,-130.508 1850.99,-129.943 1854.29,-129.322"/>
<polygon fill="midnightblue" stroke="midnightblue" points="892.68,-270.446 883.117,-275.008 893.437,-277.405 892.68,-270.446"/>
</g>
<!-- Node21 -->
<g id="node21" class="node"><title>Node21</title>
<g id="a_node21"><a xlink:href="Generate_8hpp.html" target="_top" xlink:title="Some useful functions for Monte&#45;Carlo event generation. ">
<polygon fill="white" stroke="red" points="288,-89.5 288,-130.5 423,-130.5 423,-89.5 288,-89.5"/>
<text text-anchor="start" x="296" y="-118.5" font-family="Helvetica,sans-Serif" font-size="10.00">/home/travis/build</text>
<text text-anchor="start" x="296" y="-107.5" font-family="Helvetica,sans-Serif" font-size="10.00">/ComPWA/ComPWA/Data</text>
<text text-anchor="middle" x="355.5" y="-96.5" font-family="Helvetica,sans-Serif" font-size="10.00">/Generate.hpp</text>
</a>
</g>
</g>
<!-- Node2&#45;&gt;Node21 -->
<g id="edge23" class="edge"><title>Node2&#45;&gt;Node21</title>
<path fill="none" stroke="midnightblue" d="M738.04,-264.622C706.321,-255.117 670.558,-240.846 642.5,-220 619.024,-202.558 628.091,-182.83 603.5,-167 538.195,-124.961 508.106,-148.767 432.5,-131 429.408,-130.273 426.249,-129.516 423.062,-128.739"/>
<polygon fill="midnightblue" stroke="midnightblue" points="737.162,-268.011 747.741,-267.42 739.103,-261.286 737.162,-268.011"/>
</g>
<!-- Node22 -->
<g id="node22" class="node"><title>Node22</title>
<g id="a_node22"><a xlink:href="RootDataIO_8hpp.html" target="_top" xlink:title="/home/travis/build\l/ComPWA/ComPWA/Data\l/Root/RootDataIO.hpp">
<polygon fill="white" stroke="red" points="0,-173 0,-214 135,-214 135,-173 0,-173"/>
<text text-anchor="start" x="8" y="-202" font-family="Helvetica,sans-Serif" font-size="10.00">/home/travis/build</text>
<text text-anchor="start" x="8" y="-191" font-family="Helvetica,sans-Serif" font-size="10.00">/ComPWA/ComPWA/Data</text>
<text text-anchor="middle" x="67.5" y="-180" font-family="Helvetica,sans-Serif" font-size="10.00">/Root/RootDataIO.hpp</text>
</a>
</g>
</g>
<!-- Node2&#45;&gt;Node22 -->
<g id="edge26" class="edge"><title>Node2&#45;&gt;Node22</title>
<path fill="none" stroke="midnightblue" d="M737.702,-276.689C618.686,-268.698 384.478,-250.476 187.5,-220 170.451,-217.362 152.177,-213.841 135.161,-210.259"/>
<polygon fill="midnightblue" stroke="midnightblue" points="737.601,-280.19 747.811,-277.362 738.066,-273.206 737.601,-280.19"/>
</g>
<!-- Node23 -->
<g id="node23" class="node"><title>Node23</title>
<g id="a_node23"><a xlink:href="RootGenerator_8cpp.html" target="_top" xlink:title="/home/travis/build\l/ComPWA/ComPWA/Data\l/Root/RootGenerator.cpp">
<polygon fill="white" stroke="black" points="1382,-173 1382,-214 1517,-214 1517,-173 1382,-173"/>
<text text-anchor="start" x="1390" y="-202" font-family="Helvetica,sans-Serif" font-size="10.00">/home/travis/build</text>
<text text-anchor="start" x="1390" y="-191" font-family="Helvetica,sans-Serif" font-size="10.00">/ComPWA/ComPWA/Data</text>
<text text-anchor="middle" x="1449.5" y="-180" font-family="Helvetica,sans-Serif" font-size="10.00">/Root/RootGenerator.cpp</text>
</a>
</g>
</g>
<!-- Node2&#45;&gt;Node23 -->
<g id="edge29" class="edge"><title>Node2&#45;&gt;Node23</title>
<path fill="none" stroke="midnightblue" d="M893.31,-278.063C1001.75,-272.111 1203.99,-256.778 1372.5,-220 1379.93,-218.379 1387.65,-216.306 1395.21,-214.046"/>
<polygon fill="midnightblue" stroke="midnightblue" points="892.911,-274.58 883.113,-278.611 893.286,-281.57 892.911,-274.58"/>
</g>
<!-- Node2&#45;&gt;Node24 -->
<g id="edge30" class="edge"><title>Node2&#45;&gt;Node24</title>
<path fill="none" stroke="midnightblue" d="M893.245,-271.38C969.995,-260.796 1090.48,-242.588 1193.5,-220 1201.59,-218.225 1210.04,-216.171 1218.38,-214.014"/>
<polygon fill="midnightblue" stroke="midnightblue" points="892.61,-267.934 883.178,-272.759 893.56,-274.869 892.61,-267.934"/>
</g>
<!-- Node4&#45;&gt;Node5 -->
<g id="edge4" class="edge"><title>Node4&#45;&gt;Node5</title>
<path fill="none" stroke="midnightblue" d="M661.234,-169.108C630.791,-156.885 593.965,-142.1 565.078,-130.503"/>
<polygon fill="midnightblue" stroke="midnightblue" points="660.292,-172.501 670.876,-172.979 662.9,-166.005 660.292,-172.501"/>
</g>
<!-- Node6 -->
<g id="node6" class="node"><title>Node6</title>
<g id="a_node6"><a xlink:href="EvtGenGenerator_8cpp.html" target="_top" xlink:title="/home/travis/build\l/ComPWA/ComPWA/Data\l/EvtGen/EvtGenGenerator.cpp">
<polygon fill="white" stroke="black" points="1698.5,-6 1698.5,-47 1848.5,-47 1848.5,-6 1698.5,-6"/>
<text text-anchor="start" x="1706.5" y="-35" font-family="Helvetica,sans-Serif" font-size="10.00">/home/travis/build</text>
<text text-anchor="start" x="1706.5" y="-24" font-family="Helvetica,sans-Serif" font-size="10.00">/ComPWA/ComPWA/Data</text>
<text text-anchor="middle" x="1773.5" y="-13" font-family="Helvetica,sans-Serif" font-size="10.00">/EvtGen/EvtGenGenerator.cpp</text>
</a>
</g>
</g>
<!-- Node5&#45;&gt;Node6 -->
<g id="edge5" class="edge"><title>Node5&#45;&gt;Node6</title>
<path fill="none" stroke="midnightblue" d="M602.089,-88.9199C981.641,-37.1042 1082.59,-76.3967 1461.5,-53 1542.46,-48.001 1635.07,-40.1635 1698.22,-34.4964"/>
<polygon fill="midnightblue" stroke="midnightblue" points="601.355,-85.4879 591.926,-90.3199 602.311,-92.4224 601.355,-85.4879"/>
</g>
<!-- Node8&#45;&gt;Node9 -->
<g id="edge8" class="edge"><title>Node8&#45;&gt;Node9</title>
<path fill="none" stroke="midnightblue" d="M218.917,-85.4768C243.203,-75.1679 271.735,-63.0563 296.424,-52.5764"/>
<polygon fill="midnightblue" stroke="midnightblue" points="217.326,-82.3495 209.489,-89.4787 220.061,-88.7931 217.326,-82.3495"/>
</g>
<!-- Node10&#45;&gt;Node11 -->
<g id="edge10" class="edge"><title>Node10&#45;&gt;Node11</title>
<path fill="none" stroke="midnightblue" d="M929.919,-174.136C879.572,-162.114 812.577,-145.924 753.5,-131 750.722,-130.298 747.889,-129.577 745.027,-128.844"/>
<polygon fill="midnightblue" stroke="midnightblue" points="929.22,-177.567 939.76,-176.483 930.844,-170.758 929.22,-177.567"/>
</g>
<!-- Node10&#45;&gt;Node12 -->
<g id="edge11" class="edge"><title>Node10&#45;&gt;Node12</title>
<path fill="none" stroke="midnightblue" d="M1007.87,-162.565C1008,-151.882 1008.14,-140.13 1008.26,-130.547"/>
<polygon fill="midnightblue" stroke="midnightblue" points="1004.37,-162.729 1007.74,-172.771 1011.36,-162.815 1004.37,-162.729"/>
</g>
<!-- Node13 -->
<g id="node13" class="node"><title>Node13</title>
<g id="a_node13"><a xlink:href="DalitzFitApp_8cpp.html" target="_top" xlink:title="Simple Dalitz plot analysis with ComPWA. ">
<polygon fill="white" stroke="black" points="1294.5,-6 1294.5,-47 1452.5,-47 1452.5,-6 1294.5,-6"/>
<text text-anchor="start" x="1302.5" y="-35" font-family="Helvetica,sans-Serif" font-size="10.00">/home/travis/build</text>
<text text-anchor="start" x="1302.5" y="-24" font-family="Helvetica,sans-Serif" font-size="10.00">/ComPWA/ComPWA/Examples</text>
<text text-anchor="middle" x="1373.5" y="-13" font-family="Helvetica,sans-Serif" font-size="10.00">/DalitzFit/DalitzFitApp.cpp</text>
</a>
</g>
</g>
<!-- Node10&#45;&gt;Node13 -->
<g id="edge12" class="edge"><title>Node10&#45;&gt;Node13</title>
<path fill="none" stroke="midnightblue" d="M1047.7,-167.201C1063.22,-156.729 1080.76,-144.002 1095.5,-131 1114.38,-114.351 1111.95,-102.009 1133.5,-89 1182.48,-59.4355 1245.34,-43.9908 1294.45,-35.9743"/>
<polygon fill="midnightblue" stroke="midnightblue" points="1045.71,-164.324 1039.32,-172.774 1049.58,-170.153 1045.71,-164.324"/>
</g>
<!-- Node14 -->
<g id="node14" class="node"><title>Node14</title>
<g id="a_node14"><a xlink:href="BuilderXML_8hpp.html" target="_top" xlink:title="/home/travis/build\l/ComPWA/ComPWA/Physics\l/BuilderXML.hpp">
<polygon fill="white" stroke="red" points="1299,-89.5 1299,-130.5 1448,-130.5 1448,-89.5 1299,-89.5"/>
<text text-anchor="start" x="1307" y="-118.5" font-family="Helvetica,sans-Serif" font-size="10.00">/home/travis/build</text>
<text text-anchor="start" x="1307" y="-107.5" font-family="Helvetica,sans-Serif" font-size="10.00">/ComPWA/ComPWA/Physics</text>
<text text-anchor="middle" x="1373.5" y="-96.5" font-family="Helvetica,sans-Serif" font-size="10.00">/BuilderXML.hpp</text>
</a>
</g>
</g>
<!-- Node10&#45;&gt;Node14 -->
<g id="edge13" class="edge"><title>Node10&#45;&gt;Node14</title>
<path fill="none" stroke="midnightblue" d="M1077.07,-170.223C1081.26,-169.081 1085.43,-167.996 1089.5,-167 1177.23,-145.549 1201.09,-149.467 1289.5,-131 1292.58,-130.356 1295.72,-129.684 1298.89,-128.991"/>
<polygon fill="midnightblue" stroke="midnightblue" points="1075.95,-166.901 1067.27,-172.977 1077.85,-173.639 1075.95,-166.901"/>
</g>
<!-- Node10&#45;&gt;Node15 -->
<g id="edge16" class="edge"><title>Node10&#45;&gt;Node15</title>
<path fill="none" stroke="midnightblue" d="M957.71,-168.63C932.411,-156.502 902.058,-141.95 878.181,-130.503"/>
<polygon fill="midnightblue" stroke="midnightblue" points="956.25,-171.812 966.781,-172.979 959.277,-165.5 956.25,-171.812"/>
</g>
<!-- Node10&#45;&gt;Node16 -->
<g id="edge17" class="edge"><title>Node10&#45;&gt;Node16</title>
<path fill="none" stroke="midnightblue" d="M1085.2,-174.286C1099.22,-171.487 1113.75,-168.901 1127.5,-167 1370.16,-133.454 1435.27,-167.499 1677.5,-131 1680.61,-130.531 1683.78,-130.004 1686.97,-129.433"/>
<polygon fill="midnightblue" stroke="midnightblue" points="1084.2,-170.919 1075.1,-176.355 1085.6,-177.777 1084.2,-170.919"/>
</g>
<!-- Node10&#45;&gt;Node18 -->
<g id="edge19" class="edge"><title>Node10&#45;&gt;Node18</title>
<path fill="none" stroke="midnightblue" d="M1075.21,-170.276C1080.02,-169.058 1084.81,-167.948 1089.5,-167 1250.14,-134.497 1294.16,-153.549 1456.5,-131 1459.7,-130.555 1462.95,-130.085 1466.23,-129.594"/>
<polygon fill="midnightblue" stroke="midnightblue" points="1074.11,-166.946 1065.35,-172.907 1075.92,-173.709 1074.11,-166.946"/>
</g>
<!-- Node10&#45;&gt;Node19 -->
<g id="edge20" class="edge"><title>Node10&#45;&gt;Node19</title>
<path fill="none" stroke="midnightblue" d="M1085.31,-178.245C1110.79,-174.032 1139.28,-169.803 1165.5,-167 1465.99,-134.879 1545.71,-176.299 1844.5,-131 1847.72,-130.512 1850.99,-129.951 1854.29,-129.333"/>
<polygon fill="midnightblue" stroke="midnightblue" points="1084.62,-174.812 1075.33,-179.918 1085.78,-181.715 1084.62,-174.812"/>
</g>
<!-- Node20 -->
<g id="node20" class="node"><title>Node20</title>
<g id="a_node20"><a xlink:href="RootPlotData_8cpp.html" target="_top" xlink:title="/home/travis/build\l/ComPWA/ComPWA/Tools\l/Plotting/RootPlotData.cpp">
<polygon fill="white" stroke="black" points="1142.5,-89.5 1142.5,-130.5 1280.5,-130.5 1280.5,-89.5 1142.5,-89.5"/>
<text text-anchor="start" x="1150.5" y="-118.5" font-family="Helvetica,sans-Serif" font-size="10.00">/home/travis/build</text>
<text text-anchor="start" x="1150.5" y="-107.5" font-family="Helvetica,sans-Serif" font-size="10.00">/ComPWA/ComPWA/Tools</text>
<text text-anchor="middle" x="1211.5" y="-96.5" font-family="Helvetica,sans-Serif" font-size="10.00">/Plotting/RootPlotData.cpp</text>
</a>
</g>
</g>
<!-- Node10&#45;&gt;Node20 -->
<g id="edge21" class="edge"><title>Node10&#45;&gt;Node20</title>
<path fill="none" stroke="midnightblue" d="M1065.66,-169.266C1096.33,-157.013 1133.53,-142.151 1162.68,-130.503"/>
<polygon fill="midnightblue" stroke="midnightblue" points="1064.35,-166.018 1056.36,-172.979 1066.95,-172.519 1064.35,-166.018"/>
</g>
<!-- Node14&#45;&gt;Node9 -->
<g id="edge14" class="edge"><title>Node14&#45;&gt;Node9</title>
<path fill="none" stroke="midnightblue" d="M1289,-89.0747C967.61,-41.3816 594.659,-30.7058 434.703,-28.2396"/>
<polygon fill="midnightblue" stroke="midnightblue" points="1288.56,-92.5483 1298.97,-90.569 1289.6,-85.6256 1288.56,-92.5483"/>
</g>
<!-- Node14&#45;&gt;Node13 -->
<g id="edge15" class="edge"><title>Node14&#45;&gt;Node13</title>
<path fill="none" stroke="midnightblue" d="M1373.5,-79.0646C1373.5,-68.3819 1373.5,-56.6303 1373.5,-47.0472"/>
<polygon fill="midnightblue" stroke="midnightblue" points="1370,-79.2711 1373.5,-89.2711 1377,-79.2712 1370,-79.2711"/>
</g>
<!-- Node17 -->
<g id="node17" class="node"><title>Node17</title>
<g id="a_node17"><a xlink:href="EvtGenFit_8cpp.html" target="_top" xlink:title="/home/travis/build\l/ComPWA/ComPWA/Examples\l/EvtGen/EvtGenFit.cpp">
<polygon fill="white" stroke="black" points="2074.5,-6 2074.5,-47 2232.5,-47 2232.5,-6 2074.5,-6"/>
<text text-anchor="start" x="2082.5" y="-35" font-family="Helvetica,sans-Serif" font-size="10.00">/home/travis/build</text>
<text text-anchor="start" x="2082.5" y="-24" font-family="Helvetica,sans-Serif" font-size="10.00">/ComPWA/ComPWA/Examples</text>
<text text-anchor="middle" x="2153.5" y="-13" font-family="Helvetica,sans-Serif" font-size="10.00">/EvtGen/EvtGenFit.cpp</text>
</a>
</g>
</g>
<!-- Node16&#45;&gt;Node17 -->
<g id="edge18" class="edge"><title>Node16&#45;&gt;Node17</title>
<path fill="none" stroke="midnightblue" d="M1846.06,-88.9139C1929.74,-70.7128 2014.27,-54.0369 2074.21,-42.5043"/>
<polygon fill="midnightblue" stroke="midnightblue" points="1845.15,-85.5302 1836.12,-91.0828 1846.64,-92.3691 1845.15,-85.5302"/>
</g>
<!-- Node21&#45;&gt;Node9 -->
<g id="edge24" class="edge"><title>Node21&#45;&gt;Node9</title>
<path fill="none" stroke="midnightblue" d="M355.5,-79.1211C355.5,-70.4126 355.5,-60.9894 355.5,-52.6073"/>
<polygon fill="midnightblue" stroke="midnightblue" points="352,-79.2711 355.5,-89.2711 359,-79.2712 352,-79.2711"/>
</g>
<!-- Node21&#45;&gt;Node13 -->
<g id="edge25" class="edge"><title>Node21&#45;&gt;Node13</title>
<path fill="none" stroke="midnightblue" d="M433.404,-89.0248C756.723,-37.8558 1133.29,-29.0399 1294.24,-27.6479"/>
<polygon fill="midnightblue" stroke="midnightblue" points="432.694,-85.5937 423.372,-90.6288 433.8,-92.5059 432.694,-85.5937"/>
</g>
<!-- Node22&#45;&gt;Node9 -->
<g id="edge27" class="edge"><title>Node22&#45;&gt;Node9</title>
<path fill="none" stroke="midnightblue" d="M64.7961,-162.622C64.429,-139.54 67.9556,-108.364 86.5,-89 112.345,-62.0129 206.582,-45.0791 276.26,-35.9674"/>
<polygon fill="midnightblue" stroke="midnightblue" points="61.3108,-163.053 65.2193,-172.901 68.3048,-162.765 61.3108,-163.053"/>
</g>
<!-- Node25&#45;&gt;Node6 -->
<g id="edge41" class="edge"><title>Node25&#45;&gt;Node6</title>
<path fill="none" stroke="midnightblue" d="M1807.72,-252.205C1826.24,-243.546 1844.93,-232.859 1860.5,-220 1882.65,-201.707 1873.69,-183.08 1897.5,-167 1956.46,-127.172 2009.2,-186.685 2053.5,-131 2111.49,-58.0974 1950,-36.5449 1848.66,-30.1736"/>
<polygon fill="midnightblue" stroke="midnightblue" points="1806.04,-249.122 1798.36,-256.42 1808.92,-255.504 1806.04,-249.122"/>
</g>
<!-- Node25&#45;&gt;Node14 -->
<g id="edge43" class="edge"><title>Node25&#45;&gt;Node14</title>
<path fill="none" stroke="midnightblue" d="M1681.16,-250.176C1641.58,-220.612 1584.33,-179.067 1559.5,-167 1539.33,-157.197 1489.91,-142.465 1447.08,-130.571"/>
<polygon fill="midnightblue" stroke="midnightblue" points="1679.22,-253.094 1689.32,-256.288 1683.41,-247.492 1679.22,-253.094"/>
</g>
<!-- Node25&#45;&gt;Node20 -->
<g id="edge55" class="edge"><title>Node25&#45;&gt;Node20</title>
<path fill="none" stroke="midnightblue" d="M1629.13,-257.836C1604.79,-248.7 1579.73,-236.382 1559.5,-220 1537.75,-202.39 1548.97,-182.241 1525.5,-167 1436.51,-109.218 1393.46,-152.203 1289.5,-131 1286.62,-130.413 1283.69,-129.788 1280.74,-129.135"/>
<polygon fill="midnightblue" stroke="midnightblue" points="1628.18,-261.214 1638.78,-261.308 1630.56,-254.627 1628.18,-261.214"/>
</g>
<!-- Node25&#45;&gt;Node23 -->
<g id="edge42" class="edge"><title>Node25&#45;&gt;Node23</title>
<path fill="none" stroke="midnightblue" d="M1634.36,-253.412C1594.14,-240.595 1547.49,-225.727 1511.11,-214.134"/>
<polygon fill="midnightblue" stroke="midnightblue" points="1633.31,-256.751 1643.9,-256.453 1635.44,-250.082 1633.31,-256.751"/>
</g>
<!-- Node26 -->
<g id="node26" class="node"><title>Node26</title>
<g id="a_node26"><a xlink:href="DalitzKinematics_8hpp.html" target="_top" xlink:title="Contains DalitzKinematics class. ">
<polygon fill="white" stroke="black" points="2092,-173 2092,-214 2241,-214 2241,-173 2092,-173"/>
<text text-anchor="start" x="2100" y="-202" font-family="Helvetica,sans-Serif" font-size="10.00">/home/travis/build</text>
<text text-anchor="start" x="2100" y="-191" font-family="Helvetica,sans-Serif" font-size="10.00">/ComPWA/ComPWA/Physics</text>
<text text-anchor="middle" x="2166.5" y="-180" font-family="Helvetica,sans-Serif" font-size="10.00">/EvtGen/DalitzKinematics.hpp</text>
</a>
</g>
</g>
<!-- Node25&#45;&gt;Node26 -->
<g id="edge44" class="edge"><title>Node25&#45;&gt;Node26</title>
<path fill="none" stroke="midnightblue" d="M1816.13,-268.799C1889.17,-258.099 1992.92,-241.161 2082.5,-220 2089.92,-218.248 2097.64,-216.208 2105.27,-214.059"/>
<polygon fill="midnightblue" stroke="midnightblue" points="1815.42,-265.364 1806.03,-270.267 1816.43,-272.292 1815.42,-265.364"/>
</g>
<!-- Node27 -->
<g id="node27" class="node"><title>Node27</title>
<g id="a_node27"><a xlink:href="HelicityKinematics_8hpp.html" target="_top" xlink:title="/home/travis/build\l/ComPWA/ComPWA/Physics\l/HelicityFormalism/HelicityKinematics.hpp">
<polygon fill="white" stroke="red" points="1649.5,-173 1649.5,-214 1851.5,-214 1851.5,-173 1649.5,-173"/>
<text text-anchor="start" x="1657.5" y="-202" font-family="Helvetica,sans-Serif" font-size="10.00">/home/travis/build</text>
<text text-anchor="start" x="1657.5" y="-191" font-family="Helvetica,sans-Serif" font-size="10.00">/ComPWA/ComPWA/Physics</text>
<text text-anchor="middle" x="1750.5" y="-180" font-family="Helvetica,sans-Serif" font-size="10.00">/HelicityFormalism/HelicityKinematics.hpp</text>
</a>
</g>
</g>
<!-- Node25&#45;&gt;Node27 -->
<g id="edge48" class="edge"><title>Node25&#45;&gt;Node27</title>
<path fill="none" stroke="midnightblue" d="M1733.77,-246.494C1737.32,-235.45 1741.12,-223.647 1744.2,-214.082"/>
<polygon fill="midnightblue" stroke="midnightblue" points="1730.33,-245.745 1730.6,-256.336 1736.99,-247.889 1730.33,-245.745"/>
</g>
<!-- Node28 -->
<g id="node28" class="node"><title>Node28</title>
<g id="a_node28"><a xlink:href="ParticleStateTransitionKinematicsInfo_8cpp.html" target="_top" xlink:title="/home/travis/build\l/ComPWA/ComPWA/Physics\l/ParticleStateTransitionKinematics\lInfo.cpp">
<polygon fill="white" stroke="black" points="1907,-167.5 1907,-219.5 2074,-219.5 2074,-167.5 1907,-167.5"/>
<text text-anchor="start" x="1915" y="-207.5" font-family="Helvetica,sans-Serif" font-size="10.00">/home/travis/build</text>
<text text-anchor="start" x="1915" y="-196.5" font-family="Helvetica,sans-Serif" font-size="10.00">/ComPWA/ComPWA/Physics</text>
<text text-anchor="start" x="1915" y="-185.5" font-family="Helvetica,sans-Serif" font-size="10.00">/ParticleStateTransitionKinematics</text>
<text text-anchor="middle" x="1990.5" y="-174.5" font-family="Helvetica,sans-Serif" font-size="10.00">Info.cpp</text>
</a>
</g>
</g>
<!-- Node25&#45;&gt;Node28 -->
<g id="edge54" class="edge"><title>Node25&#45;&gt;Node28</title>
<path fill="none" stroke="midnightblue" d="M1809.44,-253.278C1842.93,-242.405 1880.92,-230.072 1913.42,-219.521"/>
<polygon fill="midnightblue" stroke="midnightblue" points="1808.09,-250.036 1799.66,-256.453 1810.25,-256.694 1808.09,-250.036"/>
</g>
<!-- Node26&#45;&gt;Node15 -->
<g id="edge46" class="edge"><title>Node26&#45;&gt;Node15</title>
<path fill="none" stroke="midnightblue" d="M2099.13,-170.369C2093.54,-169.049 2087.95,-167.896 2082.5,-167 1573.08,-83.293 1433.23,-199.137 921.5,-131 918.379,-130.584 915.206,-130.103 912.008,-129.568"/>
<polygon fill="midnightblue" stroke="midnightblue" points="2098.58,-173.842 2109.14,-172.906 2100.3,-167.056 2098.58,-173.842"/>
</g>
<!-- Node26&#45;&gt;Node16 -->
<g id="edge47" class="edge"><title>Node26&#45;&gt;Node16</title>
<path fill="none" stroke="midnightblue" d="M2095.88,-170.268C2091.37,-169.095 2086.88,-167.993 2082.5,-167 1978.59,-143.465 1950.08,-151.356 1845.5,-131 1842.41,-130.399 1839.26,-129.761 1836.09,-129.098"/>
<polygon fill="midnightblue" stroke="midnightblue" points="2095.19,-173.707 2105.76,-172.936 2097.01,-166.949 2095.19,-173.707"/>
</g>
<!-- Node26&#45;&gt;Node17 -->
<g id="edge45" class="edge"><title>Node26&#45;&gt;Node17</title>
<path fill="none" stroke="midnightblue" d="M2164.16,-162.802C2161.52,-129.277 2157.3,-75.6899 2155.04,-47.0501"/>
<polygon fill="midnightblue" stroke="midnightblue" points="2160.68,-163.23 2164.96,-172.924 2167.66,-162.68 2160.68,-163.23"/>
</g>
<!-- Node27&#45;&gt;Node9 -->
<g id="edge49" class="edge"><title>Node27&#45;&gt;Node9</title>
<path fill="none" stroke="midnightblue" d="M1845.4,-170.654C1915.41,-154.32 1998.94,-134.266 2001.5,-131 2013.02,-116.314 2014.45,-102.443 2001.5,-89 1987.74,-74.7205 761.411,-38.9963 434.713,-29.7259"/>
<polygon fill="midnightblue" stroke="midnightblue" points="1844.57,-167.254 1835.63,-172.932 1846.16,-174.072 1844.57,-167.254"/>
</g>
<!-- Node27&#45;&gt;Node13 -->
<g id="edge50" class="edge"><title>Node27&#45;&gt;Node13</title>
<path fill="none" stroke="midnightblue" d="M1848.24,-170.768C1854.08,-169.488 1859.87,-168.224 1865.5,-167 1940.54,-150.687 1986.18,-190.693 2034.5,-131 2046.24,-116.491 2047.07,-102.797 2034.5,-89 2029.64,-83.6625 1626.93,-48.9612 1452.55,-34.1657"/>
<polygon fill="midnightblue" stroke="midnightblue" points="1847.4,-167.369 1838.39,-172.933 1848.9,-174.206 1847.4,-167.369"/>
</g>
<!-- Node27&#45;&gt;Node17 -->
<g id="edge51" class="edge"><title>Node27&#45;&gt;Node17</title>
<path fill="none" stroke="midnightblue" d="M1861.9,-173.2C1941.12,-158.914 2036.4,-140.371 2053.5,-131 2090.97,-110.463 2123,-71.1823 2140.14,-47.3615"/>
<polygon fill="midnightblue" stroke="midnightblue" points="1861.06,-169.795 1851.84,-175.008 1862.3,-176.685 1861.06,-169.795"/>
</g>
<!-- Node27&#45;&gt;Node18 -->
<g id="edge52" class="edge"><title>Node27&#45;&gt;Node18</title>
<path fill="none" stroke="midnightblue" d="M1697.26,-168.79C1669.96,-156.629 1637.11,-142 1611.29,-130.503"/>
<polygon fill="midnightblue" stroke="midnightblue" points="1696.11,-172.108 1706.67,-172.979 1698.96,-165.713 1696.11,-172.108"/>
</g>
<!-- Node27&#45;&gt;Node19 -->
<g id="edge53" class="edge"><title>Node27&#45;&gt;Node19</title>
<path fill="none" stroke="midnightblue" d="M1801.17,-168.63C1826.91,-156.502 1857.8,-141.95 1882.1,-130.503"/>
<polygon fill="midnightblue" stroke="midnightblue" points="1799.49,-165.551 1791.94,-172.979 1802.48,-171.883 1799.49,-165.551"/>
</g>
<!-- Node29&#45;&gt;Node9 -->
<g id="edge57" class="edge"><title>Node29&#45;&gt;Node9</title>
<path fill="none" stroke="midnightblue" d="M2274.56,-169.082C2214.04,-144.065 2112.29,-105.755 2020.5,-89 1941.78,-74.6304 754.807,-39.143 434.587,-29.7899"/>
<polygon fill="midnightblue" stroke="midnightblue" points="2273.34,-172.363 2283.92,-172.977 2276.03,-165.901 2273.34,-172.363"/>
</g>
<!-- Node29&#45;&gt;Node13 -->
<g id="edge58" class="edge"><title>Node29&#45;&gt;Node13</title>
<path fill="none" stroke="midnightblue" d="M2314.29,-163.811C2300.43,-139.236 2276.84,-105.309 2245.5,-89 2190.58,-60.4253 1751.24,-57.4899 1689.5,-53 1608.81,-47.1321 1516.59,-39.595 1452.69,-34.2406"/>
<polygon fill="midnightblue" stroke="midnightblue" points="2311.28,-165.598 2319.13,-172.716 2317.43,-162.258 2311.28,-165.598"/>
</g>
<!-- Node29&#45;&gt;Node17 -->
<g id="edge59" class="edge"><title>Node29&#45;&gt;Node17</title>
<path fill="none" stroke="midnightblue" d="M2325.02,-162.857C2320.95,-140.171 2312.19,-109.408 2293.5,-89 2276.02,-69.9118 2251.55,-56.4426 2227.94,-47.0812"/>
<polygon fill="midnightblue" stroke="midnightblue" points="2321.6,-163.628 2326.62,-172.955 2328.51,-162.53 2321.6,-163.628"/>
</g>
<!-- Node29&#45;&gt;Node19 -->
<g id="edge60" class="edge"><title>Node29&#45;&gt;Node19</title>
<path fill="none" stroke="midnightblue" d="M2261.17,-170.063C2257.24,-168.972 2253.33,-167.941 2249.5,-167 2161.95,-145.466 2059.17,-129.283 1992.77,-119.986"/>
<polygon fill="midnightblue" stroke="midnightblue" points="2260.38,-173.478 2270.96,-172.882 2262.32,-166.751 2260.38,-173.478"/>
</g>
</g>
</svg>
