<?xml version="1.0" encoding="UTF-8" standalone="no"?>
<!DOCTYPE svg PUBLIC "-//W3C//DTD SVG 1.1//EN"
 "http://www.w3.org/Graphics/SVG/1.1/DTD/svg11.dtd">
<!-- Generated by graphviz version 2.38.0 (20140413.2041)
 -->
<!-- Title: /home/travis/build/ComPWA/ComPWA/Core/Particle.hpp Pages: 1 -->
<svg width="2728pt" height="395pt"
 viewBox="0.00 0.00 2728.00 395.00" xmlns="http://www.w3.org/2000/svg" xmlns:xlink="http://www.w3.org/1999/xlink">
<g id="graph0" class="graph" transform="scale(1 1) rotate(0) translate(4 391)">
<title>/home/travis/build/ComPWA/ComPWA/Core/Particle.hpp</title>
<polygon fill="white" stroke="none" points="-4,4 -4,-391 2724,-391 2724,4 -4,4"/>
<!-- Node1 -->
<g id="node1" class="node"><title>Node1</title>
<polygon fill="#bfbfbf" stroke="black" points="1734,-345.5 1734,-386.5 1869,-386.5 1869,-345.5 1734,-345.5"/>
<text text-anchor="start" x="1742" y="-374.5" font-family="Helvetica,sans-Serif" font-size="10.00">/home/travis/build</text>
<text text-anchor="start" x="1742" y="-363.5" font-family="Helvetica,sans-Serif" font-size="10.00">/ComPWA/ComPWA/Core</text>
<text text-anchor="middle" x="1801.5" y="-352.5" font-family="Helvetica,sans-Serif" font-size="10.00">/Particle.hpp</text>
</g>
<!-- Node2 -->
<g id="node2" class="node"><title>Node2</title>
<g id="a_node2"><a xlink:href="Event_8hpp.html" target="_top" xlink:title="/home/travis/build\l/ComPWA/ComPWA/Core\l/Event.hpp">
<polygon fill="white" stroke="black" points="1037,-262 1037,-303 1172,-303 1172,-262 1037,-262"/>
<text text-anchor="start" x="1045" y="-291" font-family="Helvetica,sans-Serif" font-size="10.00">/home/travis/build</text>
<text text-anchor="start" x="1045" y="-280" font-family="Helvetica,sans-Serif" font-size="10.00">/ComPWA/ComPWA/Core</text>
<text text-anchor="middle" x="1104.5" y="-269" font-family="Helvetica,sans-Serif" font-size="10.00">/Event.hpp</text>
</a>
</g>
</g>
<!-- Node1&#45;&gt;Node2 -->
<g id="edge1" class="edge"><title>Node1&#45;&gt;Node2</title>
<path fill="none" stroke="midnightblue" d="M1723.67,-355.899C1586.08,-339.811 1302.18,-306.615 1172.18,-291.414"/>
<polygon fill="midnightblue" stroke="midnightblue" points="1723.38,-359.389 1733.72,-357.074 1724.19,-352.436 1723.38,-359.389"/>
</g>
<!-- Node11 -->
<g id="node11" class="node"><title>Node11</title>
<g id="a_node11"><a xlink:href="MinLogLH_8cpp.html" target="_top" xlink:title="/home/travis/build\l/ComPWA/ComPWA/Estimator\l/MinLogLH/MinLogLH.cpp">
<polygon fill="white" stroke="black" points="612.5,-89.5 612.5,-130.5 768.5,-130.5 768.5,-89.5 612.5,-89.5"/>
<text text-anchor="start" x="620.5" y="-118.5" font-family="Helvetica,sans-Serif" font-size="10.00">/home/travis/build</text>
<text text-anchor="start" x="620.5" y="-107.5" font-family="Helvetica,sans-Serif" font-size="10.00">/ComPWA/ComPWA/Estimator</text>
<text text-anchor="middle" x="690.5" y="-96.5" font-family="Helvetica,sans-Serif" font-size="10.00">/MinLogLH/MinLogLH.cpp</text>
</a>
</g>
</g>
<!-- Node1&#45;&gt;Node11 -->
<g id="edge33" class="edge"><title>Node1&#45;&gt;Node11</title>
<path fill="none" stroke="midnightblue" d="M1723.79,-362.555C1452.51,-353.216 559.675,-315.394 478.5,-220 463.234,-202.06 464.127,-185.662 478.5,-167 482.819,-161.392 553.695,-143.394 612.324,-129.298"/>
<polygon fill="midnightblue" stroke="midnightblue" points="1723.82,-366.059 1733.94,-362.902 1724.06,-359.063 1723.82,-366.059"/>
</g>
<!-- Node20 -->
<g id="node20" class="node"><title>Node20</title>
<g id="a_node20"><a xlink:href="SumMinLogLH_8cpp.html" target="_top" xlink:title="/home/travis/build\l/ComPWA/ComPWA/Estimator\l/MinLogLH/SumMinLogLH.cpp">
<polygon fill="white" stroke="black" points="1496.5,-173 1496.5,-214 1652.5,-214 1652.5,-173 1496.5,-173"/>
<text text-anchor="start" x="1504.5" y="-202" font-family="Helvetica,sans-Serif" font-size="10.00">/home/travis/build</text>
<text text-anchor="start" x="1504.5" y="-191" font-family="Helvetica,sans-Serif" font-size="10.00">/ComPWA/ComPWA/Estimator</text>
<text text-anchor="middle" x="1574.5" y="-180" font-family="Helvetica,sans-Serif" font-size="10.00">/MinLogLH/SumMinLogLH.cpp</text>
</a>
</g>
</g>
<!-- Node1&#45;&gt;Node20 -->
<g id="edge34" class="edge"><title>Node1&#45;&gt;Node20</title>
<path fill="none" stroke="midnightblue" d="M1767.35,-339.35C1721.69,-305.051 1641.73,-244.993 1600.58,-214.092"/>
<polygon fill="midnightblue" stroke="midnightblue" points="1765.36,-342.234 1775.46,-345.441 1769.57,-336.637 1765.36,-342.234"/>
</g>
<!-- Node21 -->
<g id="node21" class="node"><title>Node21</title>
<g id="a_node21"><a xlink:href="DalitzKinematics_8cpp.html" target="_top" xlink:title="/home/travis/build\l/ComPWA/ComPWA/Physics\l/EvtGen/DalitzKinematics.cpp">
<polygon fill="white" stroke="black" points="2363,-89.5 2363,-130.5 2512,-130.5 2512,-89.5 2363,-89.5"/>
<text text-anchor="start" x="2371" y="-118.5" font-family="Helvetica,sans-Serif" font-size="10.00">/home/travis/build</text>
<text text-anchor="start" x="2371" y="-107.5" font-family="Helvetica,sans-Serif" font-size="10.00">/ComPWA/ComPWA/Physics</text>
<text text-anchor="middle" x="2437.5" y="-96.5" font-family="Helvetica,sans-Serif" font-size="10.00">/EvtGen/DalitzKinematics.cpp</text>
</a>
</g>
</g>
<!-- Node1&#45;&gt;Node21 -->
<g id="edge35" class="edge"><title>Node1&#45;&gt;Node21</title>
<path fill="none" stroke="midnightblue" d="M1879.16,-362.191C2051.85,-354.09 2458.72,-324.119 2537.5,-220 2551.71,-201.215 2549.41,-187.322 2537.5,-167 2528.04,-150.863 2512.05,-139.027 2495.59,-130.508"/>
<polygon fill="midnightblue" stroke="midnightblue" points="1878.95,-358.697 1869.12,-362.65 1879.27,-365.689 1878.95,-358.697"/>
</g>
<!-- Node24 -->
<g id="node24" class="node"><title>Node24</title>
<g id="a_node24"><a xlink:href="HelicityKinematics_8cpp.html" target="_top" xlink:title="/home/travis/build\l/ComPWA/ComPWA/Physics\l/HelicityFormalism/HelicityKinematics.cpp">
<polygon fill="white" stroke="black" points="1771.5,-89.5 1771.5,-130.5 1973.5,-130.5 1973.5,-89.5 1771.5,-89.5"/>
<text text-anchor="start" x="1779.5" y="-118.5" font-family="Helvetica,sans-Serif" font-size="10.00">/home/travis/build</text>
<text text-anchor="start" x="1779.5" y="-107.5" font-family="Helvetica,sans-Serif" font-size="10.00">/ComPWA/ComPWA/Physics</text>
<text text-anchor="middle" x="1872.5" y="-96.5" font-family="Helvetica,sans-Serif" font-size="10.00">/HelicityFormalism/HelicityKinematics.cpp</text>
</a>
</g>
</g>
<!-- Node1&#45;&gt;Node24 -->
<g id="edge36" class="edge"><title>Node1&#45;&gt;Node24</title>
<path fill="none" stroke="midnightblue" d="M1879.4,-355.438C2013.55,-337.182 2279.06,-292.591 2333.5,-220 2347.63,-201.155 2349.12,-184.632 2333.5,-167 2310.04,-140.522 2102.09,-124.029 1973.63,-116.275"/>
<polygon fill="midnightblue" stroke="midnightblue" points="1878.63,-352.01 1869.19,-356.811 1879.56,-358.947 1878.63,-352.01"/>
</g>
<!-- Node25 -->
<g id="node25" class="node"><title>Node25</title>
<g id="a_node25"><a xlink:href="Particle_8cpp.html" target="_top" xlink:title="/home/travis/build\l/ComPWA/ComPWA/Core\l/Particle.cpp">
<polygon fill="white" stroke="black" points="2585,-262 2585,-303 2720,-303 2720,-262 2585,-262"/>
<text text-anchor="start" x="2593" y="-291" font-family="Helvetica,sans-Serif" font-size="10.00">/home/travis/build</text>
<text text-anchor="start" x="2593" y="-280" font-family="Helvetica,sans-Serif" font-size="10.00">/ComPWA/ComPWA/Core</text>
<text text-anchor="middle" x="2652.5" y="-269" font-family="Helvetica,sans-Serif" font-size="10.00">/Particle.cpp</text>
</a>
</g>
</g>
<!-- Node1&#45;&gt;Node25 -->
<g id="edge32" class="edge"><title>Node1&#45;&gt;Node25</title>
<path fill="none" stroke="midnightblue" d="M1879.2,-365.182C2018.84,-364.219 2320.93,-356.246 2570.5,-309 2578.7,-307.447 2587.24,-305.353 2595.58,-303.03"/>
<polygon fill="midnightblue" stroke="midnightblue" points="1879.01,-361.683 1869.03,-365.242 1879.05,-368.683 1879.01,-361.683"/>
</g>
<!-- Node26 -->
<g id="node26" class="node"><title>Node26</title>
<g id="a_node26"><a xlink:href="ParticleStateTransitionKinematicsInfo_8hpp.html" target="_top" xlink:title="/home/travis/build\l/ComPWA/ComPWA/Physics\l/ParticleStateTransitionKinematics\lInfo.hpp">
<polygon fill="white" stroke="black" points="1853,-256.5 1853,-308.5 2020,-308.5 2020,-256.5 1853,-256.5"/>
<text text-anchor="start" x="1861" y="-296.5" font-family="Helvetica,sans-Serif" font-size="10.00">/home/travis/build</text>
<text text-anchor="start" x="1861" y="-285.5" font-family="Helvetica,sans-Serif" font-size="10.00">/ComPWA/ComPWA/Physics</text>
<text text-anchor="start" x="1861" y="-274.5" font-family="Helvetica,sans-Serif" font-size="10.00">/ParticleStateTransitionKinematics</text>
<text text-anchor="middle" x="1936.5" y="-263.5" font-family="Helvetica,sans-Serif" font-size="10.00">Info.hpp</text>
</a>
</g>
</g>
<!-- Node1&#45;&gt;Node26 -->
<g id="edge37" class="edge"><title>Node1&#45;&gt;Node26</title>
<path fill="none" stroke="midnightblue" d="M1842.75,-340.098C1859.31,-330.099 1878.37,-318.593 1894.96,-308.576"/>
<polygon fill="midnightblue" stroke="midnightblue" points="1840.59,-337.314 1833.84,-345.479 1844.21,-343.307 1840.59,-337.314"/>
</g>
<!-- Node30 -->
<g id="node30" class="node"><title>Node30</title>
<g id="a_node30"><a xlink:href="DalitzPlot_8hpp.html" target="_top" xlink:title="/home/travis/build\l/ComPWA/ComPWA/Tools\l/Plotting/DalitzPlot.hpp">
<polygon fill="white" stroke="black" points="293.5,-173 293.5,-214 431.5,-214 431.5,-173 293.5,-173"/>
<text text-anchor="start" x="301.5" y="-202" font-family="Helvetica,sans-Serif" font-size="10.00">/home/travis/build</text>
<text text-anchor="start" x="301.5" y="-191" font-family="Helvetica,sans-Serif" font-size="10.00">/ComPWA/ComPWA/Tools</text>
<text text-anchor="middle" x="362.5" y="-180" font-family="Helvetica,sans-Serif" font-size="10.00">/Plotting/DalitzPlot.hpp</text>
</a>
</g>
</g>
<!-- Node1&#45;&gt;Node30 -->
<g id="edge53" class="edge"><title>Node1&#45;&gt;Node30</title>
<path fill="none" stroke="midnightblue" d="M1723.74,-363.658C1443.95,-358.586 502.028,-339.327 445.5,-309 406.99,-288.339 381.906,-241.054 370.195,-214.157"/>
<polygon fill="midnightblue" stroke="midnightblue" points="1723.74,-367.158 1733.81,-363.839 1723.87,-360.159 1723.74,-367.158"/>
</g>
<!-- Node3 -->
<g id="node3" class="node"><title>Node3</title>
<g id="a_node3"><a xlink:href="Event_8cpp.html" target="_top" xlink:title="/home/travis/build\l/ComPWA/ComPWA/Core\l/Event.cpp">
<polygon fill="white" stroke="black" points="1037,-173 1037,-214 1172,-214 1172,-173 1037,-173"/>
<text text-anchor="start" x="1045" y="-202" font-family="Helvetica,sans-Serif" font-size="10.00">/home/travis/build</text>
<text text-anchor="start" x="1045" y="-191" font-family="Helvetica,sans-Serif" font-size="10.00">/ComPWA/ComPWA/Core</text>
<text text-anchor="middle" x="1104.5" y="-180" font-family="Helvetica,sans-Serif" font-size="10.00">/Event.cpp</text>
</a>
</g>
</g>
<!-- Node2&#45;&gt;Node3 -->
<g id="edge2" class="edge"><title>Node2&#45;&gt;Node3</title>
<path fill="none" stroke="midnightblue" d="M1104.5,-251.441C1104.5,-239.101 1104.5,-225.162 1104.5,-214.164"/>
<polygon fill="midnightblue" stroke="midnightblue" points="1101,-251.758 1104.5,-261.758 1108,-251.758 1101,-251.758"/>
</g>
<!-- Node4 -->
<g id="node4" class="node"><title>Node4</title>
<g id="a_node4"><a xlink:href="Generator_8hpp.html" target="_top" xlink:title="/home/travis/build\l/ComPWA/ComPWA/Core\l/Generator.hpp">
<polygon fill="white" stroke="red" points="1229,-173 1229,-214 1364,-214 1364,-173 1229,-173"/>
<text text-anchor="start" x="1237" y="-202" font-family="Helvetica,sans-Serif" font-size="10.00">/home/travis/build</text>
<text text-anchor="start" x="1237" y="-191" font-family="Helvetica,sans-Serif" font-size="10.00">/ComPWA/ComPWA/Core</text>
<text text-anchor="middle" x="1296.5" y="-180" font-family="Helvetica,sans-Serif" font-size="10.00">/Generator.hpp</text>
</a>
</g>
</g>
<!-- Node2&#45;&gt;Node4 -->
<g id="edge3" class="edge"><title>Node2&#45;&gt;Node4</title>
<path fill="none" stroke="midnightblue" d="M1156.72,-257.836C1186.98,-244.124 1224.63,-227.067 1253.22,-214.11"/>
<polygon fill="midnightblue" stroke="midnightblue" points="1155.25,-254.66 1147.59,-261.976 1158.14,-261.036 1155.25,-254.66"/>
</g>
<!-- Node5 -->
<g id="node5" class="node"><title>Node5</title>
<g id="a_node5"><a xlink:href="EvtGenGenerator_8hpp.html" target="_top" xlink:title="/home/travis/build\l/ComPWA/ComPWA/Data\l/EvtGen/EvtGenGenerator.hpp">
<polygon fill="white" stroke="black" points="1303.5,-89.5 1303.5,-130.5 1453.5,-130.5 1453.5,-89.5 1303.5,-89.5"/>
<text text-anchor="start" x="1311.5" y="-118.5" font-family="Helvetica,sans-Serif" font-size="10.00">/home/travis/build</text>
<text text-anchor="start" x="1311.5" y="-107.5" font-family="Helvetica,sans-Serif" font-size="10.00">/ComPWA/ComPWA/Data</text>
<text text-anchor="middle" x="1378.5" y="-96.5" font-family="Helvetica,sans-Serif" font-size="10.00">/EvtGen/EvtGenGenerator.hpp</text>
</a>
</g>
</g>
<!-- Node2&#45;&gt;Node5 -->
<g id="edge17" class="edge"><title>Node2&#45;&gt;Node5</title>
<path fill="none" stroke="midnightblue" d="M1140.04,-255.807C1153.38,-245.392 1168.27,-232.808 1180.5,-220 1200.7,-198.851 1196,-184.407 1219.5,-167 1234.61,-155.808 1274.61,-141.742 1310.71,-130.507"/>
<polygon fill="midnightblue" stroke="midnightblue" points="1137.77,-253.133 1131.96,-261.994 1142.03,-258.689 1137.77,-253.133"/>
</g>
<!-- Node7 -->
<g id="node7" class="node"><title>Node7</title>
<g id="a_node7"><a xlink:href="AsciiReader_8hpp.html" target="_top" xlink:title="/home/travis/build\l/ComPWA/ComPWA/Data\l/AsciiReader/AsciiReader.hpp">
<polygon fill="white" stroke="red" points="487.5,-173 487.5,-214 635.5,-214 635.5,-173 487.5,-173"/>
<text text-anchor="start" x="495.5" y="-202" font-family="Helvetica,sans-Serif" font-size="10.00">/home/travis/build</text>
<text text-anchor="start" x="495.5" y="-191" font-family="Helvetica,sans-Serif" font-size="10.00">/ComPWA/ComPWA/Data</text>
<text text-anchor="middle" x="561.5" y="-180" font-family="Helvetica,sans-Serif" font-size="10.00">/AsciiReader/AsciiReader.hpp</text>
</a>
</g>
</g>
<!-- Node2&#45;&gt;Node7 -->
<g id="edge6" class="edge"><title>Node2&#45;&gt;Node7</title>
<path fill="none" stroke="midnightblue" d="M1026.79,-275.058C934.777,-266.525 777.262,-249.06 644.5,-220 636.843,-218.324 628.871,-216.277 621.03,-214.078"/>
<polygon fill="midnightblue" stroke="midnightblue" points="1026.58,-278.554 1036.85,-275.981 1027.22,-271.583 1026.58,-278.554"/>
</g>
<!-- Node8 -->
<g id="node8" class="node"><title>Node8</title>
<g id="a_node8"><a xlink:href="DataCorrection_8hpp.html" target="_top" xlink:title="/home/travis/build\l/ComPWA/ComPWA/Data\l/DataCorrection.hpp">
<polygon fill="white" stroke="red" points="0,-89.5 0,-130.5 135,-130.5 135,-89.5 0,-89.5"/>
<text text-anchor="start" x="8" y="-118.5" font-family="Helvetica,sans-Serif" font-size="10.00">/home/travis/build</text>
<text text-anchor="start" x="8" y="-107.5" font-family="Helvetica,sans-Serif" font-size="10.00">/ComPWA/ComPWA/Data</text>
<text text-anchor="middle" x="67.5" y="-96.5" font-family="Helvetica,sans-Serif" font-size="10.00">/DataCorrection.hpp</text>
</a>
</g>
</g>
<!-- Node2&#45;&gt;Node8 -->
<g id="edge7" class="edge"><title>Node2&#45;&gt;Node8</title>
<path fill="none" stroke="midnightblue" d="M1026.82,-281.467C839.564,-280.53 367.856,-272.829 220.5,-220 166.467,-200.629 114.413,-156.373 87.1558,-130.606"/>
<polygon fill="midnightblue" stroke="midnightblue" points="1026.85,-284.967 1036.86,-281.512 1026.88,-277.967 1026.85,-284.967"/>
</g>
<!-- Node9 -->
<g id="node9" class="node"><title>Node9</title>
<g id="a_node9"><a xlink:href="DalitzFitD03K_8cpp.html" target="_top" xlink:title="Executable for Dalitz plot analysis of the decay D0 &#45;&gt; K_S K+ K&#45;. ">
<polygon fill="white" stroke="black" points="275.5,-0.5 275.5,-52.5 433.5,-52.5 433.5,-0.5 275.5,-0.5"/>
<text text-anchor="start" x="283.5" y="-40.5" font-family="Helvetica,sans-Serif" font-size="10.00">/home/travis/build</text>
<text text-anchor="start" x="283.5" y="-29.5" font-family="Helvetica,sans-Serif" font-size="10.00">/ComPWA/ComPWA/Examples</text>
<text text-anchor="start" x="283.5" y="-18.5" font-family="Helvetica,sans-Serif" font-size="10.00">/DalitzAnalysis_D0KsKK</text>
<text text-anchor="middle" x="354.5" y="-7.5" font-family="Helvetica,sans-Serif" font-size="10.00">/DalitzFitD03K.cpp</text>
</a>
</g>
</g>
<!-- Node2&#45;&gt;Node9 -->
<g id="edge26" class="edge"><title>Node2&#45;&gt;Node9</title>
<path fill="none" stroke="midnightblue" d="M1026.69,-281.54C831.732,-280.83 334.342,-273.721 284.5,-220 268.479,-202.732 279.072,-189.922 284.5,-167 290.011,-143.731 321.197,-86.2369 340.035,-52.7719"/>
<polygon fill="midnightblue" stroke="midnightblue" points="1026.85,-285.04 1036.86,-281.572 1026.87,-278.04 1026.85,-285.04"/>
</g>
<!-- Node10 -->
<g id="node10" class="node"><title>Node10</title>
<g id="a_node10"><a xlink:href="DataSet_8hpp.html" target="_top" xlink:title="/home/travis/build\l/ComPWA/ComPWA/Data\l/DataSet.hpp">
<polygon fill="white" stroke="red" points="884,-173 884,-214 1019,-214 1019,-173 884,-173"/>
<text text-anchor="start" x="892" y="-202" font-family="Helvetica,sans-Serif" font-size="10.00">/home/travis/build</text>
<text text-anchor="start" x="892" y="-191" font-family="Helvetica,sans-Serif" font-size="10.00">/ComPWA/ComPWA/Data</text>
<text text-anchor="middle" x="951.5" y="-180" font-family="Helvetica,sans-Serif" font-size="10.00">/DataSet.hpp</text>
</a>
</g>
</g>
<!-- Node2&#45;&gt;Node10 -->
<g id="edge9" class="edge"><title>Node2&#45;&gt;Node10</title>
<path fill="none" stroke="midnightblue" d="M1061.32,-256.945C1037.48,-243.391 1008.28,-226.788 985.986,-214.11"/>
<polygon fill="midnightblue" stroke="midnightblue" points="1059.74,-260.075 1070.16,-261.976 1063.2,-253.99 1059.74,-260.075"/>
</g>
<!-- Node14 -->
<g id="node14" class="node"><title>Node14</title>
<g id="a_node14"><a xlink:href="DalitzPlot_8cpp.html" target="_top" xlink:title="/home/travis/build\l/ComPWA/ComPWA/Tools\l/Plotting/DalitzPlot.cpp">
<polygon fill="white" stroke="black" points="786.5,-89.5 786.5,-130.5 924.5,-130.5 924.5,-89.5 786.5,-89.5"/>
<text text-anchor="start" x="794.5" y="-118.5" font-family="Helvetica,sans-Serif" font-size="10.00">/home/travis/build</text>
<text text-anchor="start" x="794.5" y="-107.5" font-family="Helvetica,sans-Serif" font-size="10.00">/ComPWA/ComPWA/Tools</text>
<text text-anchor="middle" x="855.5" y="-96.5" font-family="Helvetica,sans-Serif" font-size="10.00">/Plotting/DalitzPlot.cpp</text>
</a>
</g>
</g>
<!-- Node2&#45;&gt;Node14 -->
<g id="edge31" class="edge"><title>Node2&#45;&gt;Node14</title>
<path fill="none" stroke="midnightblue" d="M1026.91,-269.885C968.501,-259.527 895.107,-242.521 874.5,-220 852.196,-195.625 851.286,-154.799 853.09,-130.632"/>
<polygon fill="midnightblue" stroke="midnightblue" points="1026.43,-273.354 1036.88,-271.616 1027.63,-266.457 1026.43,-273.354"/>
</g>
<!-- Node16 -->
<g id="node16" class="node"><title>Node16</title>
<g id="a_node16"><a xlink:href="Generate_8hpp.html" target="_top" xlink:title="Some useful functions for Monte&#45;Carlo event generation. ">
<polygon fill="white" stroke="red" points="383,-89.5 383,-130.5 518,-130.5 518,-89.5 383,-89.5"/>
<text text-anchor="start" x="391" y="-118.5" font-family="Helvetica,sans-Serif" font-size="10.00">/home/travis/build</text>
<text text-anchor="start" x="391" y="-107.5" font-family="Helvetica,sans-Serif" font-size="10.00">/ComPWA/ComPWA/Data</text>
<text text-anchor="middle" x="450.5" y="-96.5" font-family="Helvetica,sans-Serif" font-size="10.00">/Generate.hpp</text>
</a>
</g>
</g>
<!-- Node2&#45;&gt;Node16 -->
<g id="edge18" class="edge"><title>Node2&#45;&gt;Node16</title>
<path fill="none" stroke="midnightblue" d="M1027,-273.857C974.507,-266.093 905.046,-250.617 850.5,-220 821.451,-203.695 827.16,-182.167 797.5,-167 773.085,-154.515 611.881,-131.954 518.017,-119.622"/>
<polygon fill="midnightblue" stroke="midnightblue" points="1026.54,-277.327 1036.93,-275.264 1027.52,-270.396 1026.54,-277.327"/>
</g>
<!-- Node17 -->
<g id="node17" class="node"><title>Node17</title>
<g id="a_node17"><a xlink:href="RootDataIO_8hpp.html" target="_top" xlink:title="/home/travis/build\l/ComPWA/ComPWA/Data\l/Root/RootDataIO.hpp">
<polygon fill="white" stroke="red" points="153,-89.5 153,-130.5 288,-130.5 288,-89.5 153,-89.5"/>
<text text-anchor="start" x="161" y="-118.5" font-family="Helvetica,sans-Serif" font-size="10.00">/home/travis/build</text>
<text text-anchor="start" x="161" y="-107.5" font-family="Helvetica,sans-Serif" font-size="10.00">/ComPWA/ComPWA/Data</text>
<text text-anchor="middle" x="220.5" y="-96.5" font-family="Helvetica,sans-Serif" font-size="10.00">/Root/RootDataIO.hpp</text>
</a>
</g>
</g>
<!-- Node2&#45;&gt;Node17 -->
<g id="edge21" class="edge"><title>Node2&#45;&gt;Node17</title>
<path fill="none" stroke="midnightblue" d="M1026.86,-280.905C827.837,-278.687 310.867,-268.288 251.5,-220 224.943,-198.399 220.166,-155.807 219.83,-130.737"/>
<polygon fill="midnightblue" stroke="midnightblue" points="1026.91,-284.406 1036.95,-281.014 1026.99,-277.406 1026.91,-284.406"/>
</g>
<!-- Node18 -->
<g id="node18" class="node"><title>Node18</title>
<g id="a_node18"><a xlink:href="RootEfficiency_8cpp.html" target="_top" xlink:title="/home/travis/build\l/ComPWA/ComPWA/Data\l/Root/RootEfficiency.cpp">
<polygon fill="white" stroke="black" points="654,-173 654,-214 789,-214 789,-173 654,-173"/>
<text text-anchor="start" x="662" y="-202" font-family="Helvetica,sans-Serif" font-size="10.00">/home/travis/build</text>
<text text-anchor="start" x="662" y="-191" font-family="Helvetica,sans-Serif" font-size="10.00">/ComPWA/ComPWA/Data</text>
<text text-anchor="middle" x="721.5" y="-180" font-family="Helvetica,sans-Serif" font-size="10.00">/Root/RootEfficiency.cpp</text>
</a>
</g>
</g>
<!-- Node2&#45;&gt;Node18 -->
<g id="edge23" class="edge"><title>Node2&#45;&gt;Node18</title>
<path fill="none" stroke="midnightblue" d="M1026.86,-267.845C965.789,-256.574 878.736,-239.333 803.5,-220 796.569,-218.219 789.354,-216.209 782.206,-214.12"/>
<polygon fill="midnightblue" stroke="midnightblue" points="1026.35,-271.309 1036.81,-269.672 1027.61,-264.424 1026.35,-271.309"/>
</g>
<!-- Node19 -->
<g id="node19" class="node"><title>Node19</title>
<g id="a_node19"><a xlink:href="RootGenerator_8cpp.html" target="_top" xlink:title="/home/travis/build\l/ComPWA/ComPWA/Data\l/Root/RootGenerator.cpp">
<polygon fill="white" stroke="black" points="1671,-173 1671,-214 1806,-214 1806,-173 1671,-173"/>
<text text-anchor="start" x="1679" y="-202" font-family="Helvetica,sans-Serif" font-size="10.00">/home/travis/build</text>
<text text-anchor="start" x="1679" y="-191" font-family="Helvetica,sans-Serif" font-size="10.00">/ComPWA/ComPWA/Data</text>
<text text-anchor="middle" x="1738.5" y="-180" font-family="Helvetica,sans-Serif" font-size="10.00">/Root/RootGenerator.cpp</text>
</a>
</g>
</g>
<!-- Node2&#45;&gt;Node19 -->
<g id="edge24" class="edge"><title>Node2&#45;&gt;Node19</title>
<path fill="none" stroke="midnightblue" d="M1182.31,-278.063C1290.75,-272.111 1492.99,-256.778 1661.5,-220 1668.93,-218.379 1676.65,-216.306 1684.21,-214.046"/>
<polygon fill="midnightblue" stroke="midnightblue" points="1181.91,-274.58 1172.11,-278.611 1182.29,-281.57 1181.91,-274.58"/>
</g>
<!-- Node2&#45;&gt;Node20 -->
<g id="edge25" class="edge"><title>Node2&#45;&gt;Node20</title>
<path fill="none" stroke="midnightblue" d="M1182.25,-271.38C1259,-260.796 1379.48,-242.588 1482.5,-220 1490.59,-218.225 1499.04,-216.171 1507.38,-214.014"/>
<polygon fill="midnightblue" stroke="midnightblue" points="1181.61,-267.934 1172.18,-272.759 1182.56,-274.869 1181.61,-267.934"/>
</g>
<!-- Node2&#45;&gt;Node21 -->
<g id="edge27" class="edge"><title>Node2&#45;&gt;Node21</title>
<path fill="none" stroke="midnightblue" d="M1182.17,-273.914C1268.69,-264.354 1402.12,-245.975 1445.5,-220 1471.29,-204.559 1460.72,-180.641 1487.5,-167 1573.31,-123.289 2258.11,-144.214 2353.5,-131 2356.62,-130.568 2359.79,-130.072 2362.99,-129.526"/>
<polygon fill="midnightblue" stroke="midnightblue" points="1181.68,-270.446 1172.12,-275.008 1182.44,-277.405 1181.68,-270.446"/>
</g>
<!-- Node22 -->
<g id="node22" class="node"><title>Node22</title>
<g id="a_node22"><a xlink:href="EvtGenIF_8hpp.html" target="_top" xlink:title="/home/travis/build\l/ComPWA/ComPWA/Physics\l/EvtGen/EvtGenIF.hpp">
<polygon fill="white" stroke="red" points="2196,-89.5 2196,-130.5 2345,-130.5 2345,-89.5 2196,-89.5"/>
<text text-anchor="start" x="2204" y="-118.5" font-family="Helvetica,sans-Serif" font-size="10.00">/home/travis/build</text>
<text text-anchor="start" x="2204" y="-107.5" font-family="Helvetica,sans-Serif" font-size="10.00">/ComPWA/ComPWA/Physics</text>
<text text-anchor="middle" x="2270.5" y="-96.5" font-family="Helvetica,sans-Serif" font-size="10.00">/EvtGen/EvtGenIF.hpp</text>
</a>
</g>
</g>
<!-- Node2&#45;&gt;Node22 -->
<g id="edge28" class="edge"><title>Node2&#45;&gt;Node22</title>
<path fill="none" stroke="midnightblue" d="M1182.14,-279.498C1246.67,-274.752 1338.84,-260.608 1408.5,-220 1435.45,-204.292 1426.58,-180.904 1454.5,-167 1559.77,-114.575 1865.17,-139.074 1982.5,-131 2055,-126.011 2137.77,-120.257 2195.91,-116.206"/>
<polygon fill="midnightblue" stroke="midnightblue" points="1181.78,-276.015 1172.03,-280.181 1182.25,-282.999 1181.78,-276.015"/>
</g>
<!-- Node2&#45;&gt;Node24 -->
<g id="edge30" class="edge"><title>Node2&#45;&gt;Node24</title>
<path fill="none" stroke="midnightblue" d="M1182.36,-276.902C1238.72,-270.55 1314.81,-255.511 1372.5,-220 1398.57,-203.952 1389.63,-181.679 1416.5,-167 1475.73,-134.636 1655.96,-120.589 1771.3,-114.784"/>
<polygon fill="midnightblue" stroke="midnightblue" points="1181.65,-273.457 1172.07,-277.99 1182.39,-280.418 1181.65,-273.457"/>
</g>
<!-- Node4&#45;&gt;Node5 -->
<g id="edge4" class="edge"><title>Node4&#45;&gt;Node5</title>
<path fill="none" stroke="midnightblue" d="M1323.63,-165.538C1335.13,-154.104 1348.29,-141.029 1358.83,-130.547"/>
<polygon fill="midnightblue" stroke="midnightblue" points="1320.98,-163.239 1316.35,-172.771 1325.91,-168.204 1320.98,-163.239"/>
</g>
<!-- Node6 -->
<g id="node6" class="node"><title>Node6</title>
<g id="a_node6"><a xlink:href="EvtGenGenerator_8cpp.html" target="_top" xlink:title="/home/travis/build\l/ComPWA/ComPWA/Data\l/EvtGen/EvtGenGenerator.cpp">
<polygon fill="white" stroke="black" points="1637.5,-6 1637.5,-47 1787.5,-47 1787.5,-6 1637.5,-6"/>
<text text-anchor="start" x="1645.5" y="-35" font-family="Helvetica,sans-Serif" font-size="10.00">/home/travis/build</text>
<text text-anchor="start" x="1645.5" y="-24" font-family="Helvetica,sans-Serif" font-size="10.00">/ComPWA/ComPWA/Data</text>
<text text-anchor="middle" x="1712.5" y="-13" font-family="Helvetica,sans-Serif" font-size="10.00">/EvtGen/EvtGenGenerator.cpp</text>
</a>
</g>
</g>
<!-- Node5&#45;&gt;Node6 -->
<g id="edge5" class="edge"><title>Node5&#45;&gt;Node6</title>
<path fill="none" stroke="midnightblue" d="M1463.7,-88.2101C1517.3,-75.1301 1585.84,-58.4065 1637.4,-45.8249"/>
<polygon fill="midnightblue" stroke="midnightblue" points="1462.76,-84.8373 1453.87,-90.6082 1464.42,-91.6378 1462.76,-84.8373"/>
</g>
<!-- Node8&#45;&gt;Node9 -->
<g id="edge8" class="edge"><title>Node8&#45;&gt;Node9</title>
<path fill="none" stroke="midnightblue" d="M144.954,-87.0053C185.357,-75.5318 234.695,-61.5212 275.346,-49.9776"/>
<polygon fill="midnightblue" stroke="midnightblue" points="143.815,-83.6902 135.152,-89.7888 145.727,-90.4239 143.815,-83.6902"/>
</g>
<!-- Node10&#45;&gt;Node11 -->
<g id="edge10" class="edge"><title>Node10&#45;&gt;Node11</title>
<path fill="none" stroke="midnightblue" d="M879.369,-169.976C839.705,-157.591 790.982,-142.376 752.958,-130.503"/>
<polygon fill="midnightblue" stroke="midnightblue" points="878.395,-173.339 888.984,-172.979 880.482,-166.657 878.395,-173.339"/>
</g>
<!-- Node12 -->
<g id="node12" class="node"><title>Node12</title>
<g id="a_node12"><a xlink:href="DalitzFitApp_8cpp.html" target="_top" xlink:title="Simple Dalitz plot analysis with ComPWA. ">
<polygon fill="white" stroke="black" points="873.5,-6 873.5,-47 1031.5,-47 1031.5,-6 873.5,-6"/>
<text text-anchor="start" x="881.5" y="-35" font-family="Helvetica,sans-Serif" font-size="10.00">/home/travis/build</text>
<text text-anchor="start" x="881.5" y="-24" font-family="Helvetica,sans-Serif" font-size="10.00">/ComPWA/ComPWA/Examples</text>
<text text-anchor="middle" x="952.5" y="-13" font-family="Helvetica,sans-Serif" font-size="10.00">/DalitzFit/DalitzFitApp.cpp</text>
</a>
</g>
</g>
<!-- Node10&#45;&gt;Node12 -->
<g id="edge11" class="edge"><title>Node10&#45;&gt;Node12</title>
<path fill="none" stroke="midnightblue" d="M951.68,-162.802C951.883,-129.277 952.208,-75.6899 952.382,-47.0501"/>
<polygon fill="midnightblue" stroke="midnightblue" points="948.179,-162.903 951.619,-172.924 955.179,-162.946 948.179,-162.903"/>
</g>
<!-- Node13 -->
<g id="node13" class="node"><title>Node13</title>
<g id="a_node13"><a xlink:href="BuilderXML_8hpp.html" target="_top" xlink:title="/home/travis/build\l/ComPWA/ComPWA/Physics\l/BuilderXML.hpp">
<polygon fill="white" stroke="red" points="980,-89.5 980,-130.5 1129,-130.5 1129,-89.5 980,-89.5"/>
<text text-anchor="start" x="988" y="-118.5" font-family="Helvetica,sans-Serif" font-size="10.00">/home/travis/build</text>
<text text-anchor="start" x="988" y="-107.5" font-family="Helvetica,sans-Serif" font-size="10.00">/ComPWA/ComPWA/Physics</text>
<text text-anchor="middle" x="1054.5" y="-96.5" font-family="Helvetica,sans-Serif" font-size="10.00">/BuilderXML.hpp</text>
</a>
</g>
</g>
<!-- Node10&#45;&gt;Node13 -->
<g id="edge12" class="edge"><title>Node10&#45;&gt;Node13</title>
<path fill="none" stroke="midnightblue" d="M984.081,-166.72C998.832,-155.048 1015.99,-141.473 1029.67,-130.644"/>
<polygon fill="midnightblue" stroke="midnightblue" points="981.841,-164.029 976.171,-172.979 986.185,-169.518 981.841,-164.029"/>
</g>
<!-- Node10&#45;&gt;Node14 -->
<g id="edge15" class="edge"><title>Node10&#45;&gt;Node14</title>
<path fill="none" stroke="midnightblue" d="M920.509,-166.19C906.861,-154.603 891.106,-141.228 878.525,-130.547"/>
<polygon fill="midnightblue" stroke="midnightblue" points="918.373,-168.967 928.261,-172.771 922.903,-163.631 918.373,-168.967"/>
</g>
<!-- Node15 -->
<g id="node15" class="node"><title>Node15</title>
<g id="a_node15"><a xlink:href="RootPlotData_8cpp.html" target="_top" xlink:title="/home/travis/build\l/ComPWA/ComPWA/Tools\l/Plotting/RootPlotData.cpp">
<polygon fill="white" stroke="black" points="1147.5,-89.5 1147.5,-130.5 1285.5,-130.5 1285.5,-89.5 1147.5,-89.5"/>
<text text-anchor="start" x="1155.5" y="-118.5" font-family="Helvetica,sans-Serif" font-size="10.00">/home/travis/build</text>
<text text-anchor="start" x="1155.5" y="-107.5" font-family="Helvetica,sans-Serif" font-size="10.00">/ComPWA/ComPWA/Tools</text>
<text text-anchor="middle" x="1216.5" y="-96.5" font-family="Helvetica,sans-Serif" font-size="10.00">/Plotting/RootPlotData.cpp</text>
</a>
</g>
</g>
<!-- Node10&#45;&gt;Node15 -->
<g id="edge16" class="edge"><title>Node10&#45;&gt;Node15</title>
<path fill="none" stroke="midnightblue" d="M1018.68,-169.817C1021.66,-168.856 1024.61,-167.914 1027.5,-167 1067.48,-154.375 1112.47,-141.01 1148.53,-130.504"/>
<polygon fill="midnightblue" stroke="midnightblue" points="1017.54,-166.508 1009.11,-172.93 1019.7,-173.164 1017.54,-166.508"/>
</g>
<!-- Node13&#45;&gt;Node9 -->
<g id="edge13" class="edge"><title>Node13&#45;&gt;Node9</title>
<path fill="none" stroke="midnightblue" d="M969.624,-94.332C957.516,-92.4258 945.203,-90.5874 933.5,-89 755.449,-64.8497 545.515,-44.587 433.812,-34.4561"/>
<polygon fill="midnightblue" stroke="midnightblue" points="969.302,-97.8249 979.728,-95.9452 970.405,-90.9124 969.302,-97.8249"/>
</g>
<!-- Node13&#45;&gt;Node12 -->
<g id="edge14" class="edge"><title>Node13&#45;&gt;Node12</title>
<path fill="none" stroke="midnightblue" d="M1022.24,-83.2197C1007.63,-71.5478 990.638,-57.973 977.086,-47.1445"/>
<polygon fill="midnightblue" stroke="midnightblue" points="1020.07,-85.9708 1030.07,-89.4787 1024.44,-80.502 1020.07,-85.9708"/>
</g>
<!-- Node16&#45;&gt;Node9 -->
<g id="edge19" class="edge"><title>Node16&#45;&gt;Node9</title>
<path fill="none" stroke="midnightblue" d="M419.315,-82.5249C407.996,-72.9159 395.25,-62.0947 384.074,-52.6073"/>
<polygon fill="midnightblue" stroke="midnightblue" points="417.373,-85.4674 427.261,-89.2711 421.903,-80.1311 417.373,-85.4674"/>
</g>
<!-- Node16&#45;&gt;Node12 -->
<g id="edge20" class="edge"><title>Node16&#45;&gt;Node12</title>
<path fill="none" stroke="midnightblue" d="M528.588,-89.7764C529.901,-89.5111 531.206,-89.2521 532.5,-89 650.407,-66.0411 788.439,-47.3862 873.168,-36.8622"/>
<polygon fill="midnightblue" stroke="midnightblue" points="527.47,-86.4347 518.405,-91.9179 528.911,-93.2849 527.47,-86.4347"/>
</g>
<!-- Node17&#45;&gt;Node9 -->
<g id="edge22" class="edge"><title>Node17&#45;&gt;Node9</title>
<path fill="none" stroke="midnightblue" d="M261.404,-84.1217C277.77,-74.1678 296.598,-62.7165 313.021,-52.7281"/>
<polygon fill="midnightblue" stroke="midnightblue" points="259.321,-81.2919 252.596,-89.4787 262.959,-87.2726 259.321,-81.2919"/>
</g>
<!-- Node23 -->
<g id="node23" class="node"><title>Node23</title>
<g id="a_node23"><a xlink:href="EvtGenFit_8cpp.html" target="_top" xlink:title="/home/travis/build\l/ComPWA/ComPWA/Examples\l/EvtGen/EvtGenFit.cpp">
<polygon fill="white" stroke="black" points="2140.5,-6 2140.5,-47 2298.5,-47 2298.5,-6 2140.5,-6"/>
<text text-anchor="start" x="2148.5" y="-35" font-family="Helvetica,sans-Serif" font-size="10.00">/home/travis/build</text>
<text text-anchor="start" x="2148.5" y="-24" font-family="Helvetica,sans-Serif" font-size="10.00">/ComPWA/ComPWA/Examples</text>
<text text-anchor="middle" x="2219.5" y="-13" font-family="Helvetica,sans-Serif" font-size="10.00">/EvtGen/EvtGenFit.cpp</text>
</a>
</g>
</g>
<!-- Node22&#45;&gt;Node23 -->
<g id="edge29" class="edge"><title>Node22&#45;&gt;Node23</title>
<path fill="none" stroke="midnightblue" d="M2252.81,-80.7247C2245.85,-69.6119 2238.04,-57.1294 2231.73,-47.0472"/>
<polygon fill="midnightblue" stroke="midnightblue" points="2249.88,-82.6507 2258.15,-89.2711 2255.82,-78.9374 2249.88,-82.6507"/>
</g>
<!-- Node26&#45;&gt;Node6 -->
<g id="edge38" class="edge"><title>Node26&#45;&gt;Node6</title>
<path fill="none" stroke="midnightblue" d="M2030.12,-270.483C2061.17,-261.864 2092.6,-246.674 2111.5,-220 2125.12,-200.78 2122.03,-188.069 2111.5,-167 2085.66,-115.322 2060.15,-112.797 2007.5,-89 1936.83,-57.055 1849.08,-41.4842 1787.73,-34.0361"/>
<polygon fill="midnightblue" stroke="midnightblue" points="2028.89,-267.186 2020.07,-273.057 2030.63,-273.967 2028.89,-267.186"/>
</g>
<!-- Node26&#45;&gt;Node13 -->
<g id="edge40" class="edge"><title>Node26&#45;&gt;Node13</title>
<path fill="none" stroke="midnightblue" d="M1885.25,-250.7C1872.45,-241.707 1859.31,-231.244 1848.5,-220 1829.11,-199.823 1838.69,-181.071 1814.5,-167 1749.48,-129.182 1212.94,-141.755 1138.5,-131 1135.38,-130.55 1132.21,-130.039 1129.02,-129.48"/>
<polygon fill="midnightblue" stroke="midnightblue" points="1883.35,-253.641 1893.58,-256.39 1887.3,-247.86 1883.35,-253.641"/>
</g>
<!-- Node26&#45;&gt;Node15 -->
<g id="edge52" class="edge"><title>Node26&#45;&gt;Node15</title>
<path fill="none" stroke="midnightblue" d="M1911.96,-248.203C1887.52,-215.263 1853.01,-169.408 1848.5,-167 1739.66,-108.916 1416.34,-150.405 1294.5,-131 1291.6,-130.538 1288.65,-130.018 1285.68,-129.451"/>
<polygon fill="midnightblue" stroke="midnightblue" points="1909.17,-250.311 1917.93,-256.264 1914.79,-246.145 1909.17,-250.311"/>
</g>
<!-- Node26&#45;&gt;Node19 -->
<g id="edge39" class="edge"><title>Node26&#45;&gt;Node19</title>
<path fill="none" stroke="midnightblue" d="M1869.98,-252.271C1841.41,-239.719 1808.79,-225.384 1783.18,-214.134"/>
<polygon fill="midnightblue" stroke="midnightblue" points="1868.93,-255.634 1879.5,-256.453 1871.75,-249.226 1868.93,-255.634"/>
</g>
<!-- Node27 -->
<g id="node27" class="node"><title>Node27</title>
<g id="a_node27"><a xlink:href="DalitzKinematics_8hpp.html" target="_top" xlink:title="Contains DalitzKinematics class. ">
<polygon fill="white" stroke="black" points="2380,-173 2380,-214 2529,-214 2529,-173 2380,-173"/>
<text text-anchor="start" x="2388" y="-202" font-family="Helvetica,sans-Serif" font-size="10.00">/home/travis/build</text>
<text text-anchor="start" x="2388" y="-191" font-family="Helvetica,sans-Serif" font-size="10.00">/ComPWA/ComPWA/Physics</text>
<text text-anchor="middle" x="2454.5" y="-180" font-family="Helvetica,sans-Serif" font-size="10.00">/EvtGen/DalitzKinematics.hpp</text>
</a>
</g>
</g>
<!-- Node26&#45;&gt;Node27 -->
<g id="edge41" class="edge"><title>Node26&#45;&gt;Node27</title>
<path fill="none" stroke="midnightblue" d="M2030.49,-268.4C2111.09,-256.818 2230.2,-238.872 2333.5,-220 2348.49,-217.261 2364.48,-214.079 2379.75,-210.912"/>
<polygon fill="midnightblue" stroke="midnightblue" points="2029.77,-264.968 2020.37,-269.85 2030.76,-271.897 2029.77,-264.968"/>
</g>
<!-- Node28 -->
<g id="node28" class="node"><title>Node28</title>
<g id="a_node28"><a xlink:href="HelicityKinematics_8hpp.html" target="_top" xlink:title="/home/travis/build\l/ComPWA/ComPWA/Physics\l/HelicityFormalism/HelicityKinematics.hpp">
<polygon fill="white" stroke="red" points="1900.5,-173 1900.5,-214 2102.5,-214 2102.5,-173 1900.5,-173"/>
<text text-anchor="start" x="1908.5" y="-202" font-family="Helvetica,sans-Serif" font-size="10.00">/home/travis/build</text>
<text text-anchor="start" x="1908.5" y="-191" font-family="Helvetica,sans-Serif" font-size="10.00">/ComPWA/ComPWA/Physics</text>
<text text-anchor="middle" x="2001.5" y="-180" font-family="Helvetica,sans-Serif" font-size="10.00">/HelicityFormalism/HelicityKinematics.hpp</text>
</a>
</g>
</g>
<!-- Node26&#45;&gt;Node28 -->
<g id="edge45" class="edge"><title>Node26&#45;&gt;Node28</title>
<path fill="none" stroke="midnightblue" d="M1961.4,-248.178C1970,-236.66 1979.36,-224.135 1986.87,-214.082"/>
<polygon fill="midnightblue" stroke="midnightblue" points="1958.48,-246.23 1955.3,-256.336 1964.09,-250.42 1958.48,-246.23"/>
</g>
<!-- Node29 -->
<g id="node29" class="node"><title>Node29</title>
<g id="a_node29"><a xlink:href="ParticleStateTransitionKinematicsInfo_8cpp.html" target="_top" xlink:title="/home/travis/build\l/ComPWA/ComPWA/Physics\l/ParticleStateTransitionKinematics\lInfo.cpp">
<polygon fill="white" stroke="black" points="2158,-167.5 2158,-219.5 2325,-219.5 2325,-167.5 2158,-167.5"/>
<text text-anchor="start" x="2166" y="-207.5" font-family="Helvetica,sans-Serif" font-size="10.00">/home/travis/build</text>
<text text-anchor="start" x="2166" y="-196.5" font-family="Helvetica,sans-Serif" font-size="10.00">/ComPWA/ComPWA/Physics</text>
<text text-anchor="start" x="2166" y="-185.5" font-family="Helvetica,sans-Serif" font-size="10.00">/ParticleStateTransitionKinematics</text>
<text text-anchor="middle" x="2241.5" y="-174.5" font-family="Helvetica,sans-Serif" font-size="10.00">Info.cpp</text>
</a>
</g>
</g>
<!-- Node26&#45;&gt;Node29 -->
<g id="edge51" class="edge"><title>Node26&#45;&gt;Node29</title>
<path fill="none" stroke="midnightblue" d="M2029.93,-254.849C2070.77,-243.2 2118.29,-229.644 2157.94,-218.335"/>
<polygon fill="midnightblue" stroke="midnightblue" points="2028.9,-251.503 2020.25,-257.612 2030.82,-258.234 2028.9,-251.503"/>
</g>
<!-- Node27&#45;&gt;Node21 -->
<g id="edge43" class="edge"><title>Node27&#45;&gt;Node21</title>
<path fill="none" stroke="midnightblue" d="M2448.33,-162.898C2446.08,-152.127 2443.6,-140.23 2441.58,-130.547"/>
<polygon fill="midnightblue" stroke="midnightblue" points="2444.92,-163.697 2450.38,-172.771 2451.77,-162.267 2444.92,-163.697"/>
</g>
<!-- Node27&#45;&gt;Node22 -->
<g id="edge44" class="edge"><title>Node27&#45;&gt;Node22</title>
<path fill="none" stroke="midnightblue" d="M2400.97,-168.79C2373.52,-156.629 2340.49,-142 2314.53,-130.503"/>
<polygon fill="midnightblue" stroke="midnightblue" points="2399.87,-172.129 2410.43,-172.979 2402.7,-165.729 2399.87,-172.129"/>
</g>
<!-- Node27&#45;&gt;Node23 -->
<g id="edge42" class="edge"><title>Node27&#45;&gt;Node23</title>
<path fill="none" stroke="midnightblue" d="M2489.71,-166.494C2514.74,-144.846 2540.65,-113.686 2520.5,-89 2492.97,-55.2746 2378.15,-39.553 2298.56,-32.5879"/>
<polygon fill="midnightblue" stroke="midnightblue" points="2487.47,-163.804 2482.02,-172.889 2491.95,-169.186 2487.47,-163.804"/>
</g>
<!-- Node28&#45;&gt;Node9 -->
<g id="edge46" class="edge"><title>Node28&#45;&gt;Node9</title>
<path fill="none" stroke="midnightblue" d="M1909.64,-170.765C1802.86,-146.454 1620.99,-108.001 1462.5,-89 1411.6,-82.8975 679.209,-44.419 433.901,-31.6282"/>
<polygon fill="midnightblue" stroke="midnightblue" points="1908.89,-174.184 1919.42,-172.999 1910.45,-167.359 1908.89,-174.184"/>
</g>
<!-- Node28&#45;&gt;Node12 -->
<g id="edge47" class="edge"><title>Node28&#45;&gt;Node12</title>
<path fill="none" stroke="midnightblue" d="M2005.01,-162.486C2005.95,-138.836 2002.79,-106.954 1982.5,-89 1964.72,-73.2699 1270.03,-41.4166 1031.75,-30.9318"/>
<polygon fill="midnightblue" stroke="midnightblue" points="2001.51,-162.486 2004.34,-172.693 2008.49,-162.944 2001.51,-162.486"/>
</g>
<!-- Node28&#45;&gt;Node14 -->
<g id="edge50" class="edge"><title>Node28&#45;&gt;Node14</title>
<path fill="none" stroke="midnightblue" d="M1890.1,-175.581C1865.26,-172.292 1839.02,-169.19 1814.5,-167 1440.54,-133.6 1343.79,-171.25 970.5,-131 955.59,-129.392 939.691,-127.043 924.621,-124.515"/>
<polygon fill="midnightblue" stroke="midnightblue" points="1889.9,-179.086 1900.28,-176.95 1890.83,-172.148 1889.9,-179.086"/>
</g>
<!-- Node28&#45;&gt;Node23 -->
<g id="edge48" class="edge"><title>Node28&#45;&gt;Node23</title>
<path fill="none" stroke="midnightblue" d="M2035.41,-166.833C2079.15,-133.727 2154.27,-76.8677 2193.67,-47.0501"/>
<polygon fill="midnightblue" stroke="midnightblue" points="2033.22,-164.099 2027.36,-172.924 2037.45,-169.68 2033.22,-164.099"/>
</g>
<!-- Node28&#45;&gt;Node24 -->
<g id="edge49" class="edge"><title>Node28&#45;&gt;Node24</title>
<path fill="none" stroke="midnightblue" d="M1961.97,-167.527C1943.22,-155.678 1921.13,-141.724 1903.59,-130.644"/>
<polygon fill="midnightblue" stroke="midnightblue" points="1960.28,-170.596 1970.6,-172.979 1964.02,-164.679 1960.28,-170.596"/>
</g>
<!-- Node30&#45;&gt;Node9 -->
<g id="edge54" class="edge"><title>Node30&#45;&gt;Node9</title>
<path fill="none" stroke="midnightblue" d="M361.05,-162.594C359.526,-131.159 357.155,-82.2513 355.722,-52.7073"/>
<polygon fill="midnightblue" stroke="midnightblue" points="357.571,-163.106 361.551,-172.924 364.562,-162.767 357.571,-163.106"/>
</g>
<!-- Node30&#45;&gt;Node12 -->
<g id="edge55" class="edge"><title>Node30&#45;&gt;Node12</title>
<path fill="none" stroke="midnightblue" d="M432.088,-169.526C468.98,-156.734 510.009,-141.35 526.5,-131 549.399,-116.629 546.286,-101.023 570.5,-89 622.317,-63.2703 777.346,-44.3223 873.236,-34.6784"/>
<polygon fill="midnightblue" stroke="midnightblue" points="430.635,-166.324 422.318,-172.888 432.912,-172.944 430.635,-166.324"/>
</g>
<!-- Node30&#45;&gt;Node14 -->
<g id="edge57" class="edge"><title>Node30&#45;&gt;Node14</title>
<path fill="none" stroke="midnightblue" d="M441.435,-174.079C453.802,-171.502 466.469,-169.042 478.5,-167 610.462,-144.605 645.946,-155.675 777.5,-131 780.385,-130.459 783.322,-129.872 786.283,-129.25"/>
<polygon fill="midnightblue" stroke="midnightblue" points="440.656,-170.666 431.599,-176.164 442.108,-177.514 440.656,-170.666"/>
</g>
<!-- Node30&#45;&gt;Node23 -->
<g id="edge56" class="edge"><title>Node30&#45;&gt;Node23</title>
<path fill="none" stroke="midnightblue" d="M435.997,-169.928C492.972,-152.425 562.317,-131.111 562.5,-131 584.768,-117.412 579.615,-99.4892 603.5,-89 664.211,-62.3378 1730.26,-55.9954 1796.5,-53 1916.48,-47.5745 2055.46,-38.6989 2140.41,-32.9798"/>
<polygon fill="midnightblue" stroke="midnightblue" points="434.78,-166.64 426.249,-172.922 436.836,-173.331 434.78,-166.64"/>
</g>
</g>
</svg>
