<?xml version="1.0" encoding="UTF-8" standalone="no"?>
<!DOCTYPE svg PUBLIC "-//W3C//DTD SVG 1.1//EN"
 "http://www.w3.org/Graphics/SVG/1.1/DTD/svg11.dtd">
<!-- Generated by graphviz version 2.38.0 (20140413.2041)
 -->
<!-- Title: /home/travis/build/ComPWA/ComPWA/Physics/PhspVolume.cpp Pages: 1 -->
<svg width="469pt" height="162pt"
 viewBox="0.00 0.00 469.00 162.00" xmlns="http://www.w3.org/2000/svg" xmlns:xlink="http://www.w3.org/1999/xlink">
<g id="graph0" class="graph" transform="scale(1 1) rotate(0) translate(4 158)">
<title>/home/travis/build/ComPWA/ComPWA/Physics/PhspVolume.cpp</title>
<polygon fill="white" stroke="none" points="-4,4 -4,-158 465,-158 465,4 -4,4"/>
<!-- Node1 -->
<g id="node1" class="node"><title>Node1</title>
<polygon fill="#bfbfbf" stroke="black" points="227,-112.5 227,-153.5 376,-153.5 376,-112.5 227,-112.5"/>
<text text-anchor="start" x="235" y="-141.5" font-family="Helvetica,sans-Serif" font-size="10.00">/home/travis/build</text>
<text text-anchor="start" x="235" y="-130.5" font-family="Helvetica,sans-Serif" font-size="10.00">/ComPWA/ComPWA/Physics</text>
<text text-anchor="middle" x="301.5" y="-119.5" font-family="Helvetica,sans-Serif" font-size="10.00">/PhspVolume.cpp</text>
</g>
<!-- Node2 -->
<g id="node2" class="node"><title>Node2</title>
<g id="a_node2"><a xlink:href="PhspVolume_8hpp.html" target="_top" xlink:title="Function to calculate the available phase space volume of arbitrary decays. ">
<polygon fill="white" stroke="black" points="0,-56.5 0,-75.5 129,-75.5 129,-56.5 0,-56.5"/>
<text text-anchor="middle" x="64.5" y="-63.5" font-family="Helvetica,sans-Serif" font-size="10.00">Physics/PhspVolume.hpp</text>
</a>
</g>
</g>
<!-- Node1&#45;&gt;Node2 -->
<g id="edge1" class="edge"><title>Node1&#45;&gt;Node2</title>
<path fill="none" stroke="midnightblue" d="M230.392,-112.498C189.564,-101.3 139.75,-87.6381 105.425,-78.2242"/>
<polygon fill="midnightblue" stroke="midnightblue" points="106.306,-74.8367 95.7369,-75.5671 104.455,-81.5874 106.306,-74.8367"/>
</g>
<!-- Node5 -->
<g id="node5" class="node"><title>Node5</title>
<g id="a_node5"><a xlink:href="Exceptions_8hpp.html" target="_top" xlink:title="ComPWA exceptions. ">
<polygon fill="white" stroke="black" points="147.5,-56.5 147.5,-75.5 255.5,-75.5 255.5,-56.5 147.5,-56.5"/>
<text text-anchor="middle" x="201.5" y="-63.5" font-family="Helvetica,sans-Serif" font-size="10.00">Core/Exceptions.hpp</text>
</a>
</g>
</g>
<!-- Node1&#45;&gt;Node5 -->
<g id="edge4" class="edge"><title>Node1&#45;&gt;Node5</title>
<path fill="none" stroke="midnightblue" d="M271.497,-112.498C256.017,-102.436 237.477,-90.3849 223.367,-81.2136"/>
<polygon fill="midnightblue" stroke="midnightblue" points="225.103,-78.1679 214.812,-75.6525 221.289,-84.037 225.103,-78.1679"/>
</g>
<!-- Node8 -->
<g id="node8" class="node"><title>Node8</title>
<polygon fill="white" stroke="#bfbfbf" points="273.5,-56.5 273.5,-75.5 329.5,-75.5 329.5,-56.5 273.5,-56.5"/>
<text text-anchor="middle" x="301.5" y="-63.5" font-family="Helvetica,sans-Serif" font-size="10.00">algorithm</text>
</g>
<!-- Node1&#45;&gt;Node8 -->
<g id="edge7" class="edge"><title>Node1&#45;&gt;Node8</title>
<path fill="none" stroke="midnightblue" d="M301.5,-112.498C301.5,-104.065 301.5,-94.2351 301.5,-85.874"/>
<polygon fill="midnightblue" stroke="midnightblue" points="305,-85.6525 301.5,-75.6525 298,-85.6525 305,-85.6525"/>
</g>
<!-- Node9 -->
<g id="node9" class="node"><title>Node9</title>
<polygon fill="white" stroke="#bfbfbf" points="347.5,-56.5 347.5,-75.5 391.5,-75.5 391.5,-56.5 347.5,-56.5"/>
<text text-anchor="middle" x="369.5" y="-63.5" font-family="Helvetica,sans-Serif" font-size="10.00">cmath</text>
</g>
<!-- Node1&#45;&gt;Node9 -->
<g id="edge8" class="edge"><title>Node1&#45;&gt;Node9</title>
<path fill="none" stroke="midnightblue" d="M321.902,-112.498C331.827,-103.011 343.602,-91.7557 352.957,-82.8131"/>
<polygon fill="midnightblue" stroke="midnightblue" points="355.638,-85.0924 360.448,-75.6525 350.801,-80.0323 355.638,-85.0924"/>
</g>
<!-- Node10 -->
<g id="node10" class="node"><title>Node10</title>
<polygon fill="white" stroke="#bfbfbf" points="410,-56.5 410,-75.5 461,-75.5 461,-56.5 410,-56.5"/>
<text text-anchor="middle" x="435.5" y="-63.5" font-family="Helvetica,sans-Serif" font-size="10.00">numeric</text>
</g>
<!-- Node1&#45;&gt;Node10 -->
<g id="edge9" class="edge"><title>Node1&#45;&gt;Node10</title>
<path fill="none" stroke="midnightblue" d="M341.704,-112.498C363.336,-102.005 389.428,-89.3482 408.596,-80.0507"/>
<polygon fill="midnightblue" stroke="midnightblue" points="410.193,-83.166 417.663,-75.6525 407.138,-76.8679 410.193,-83.166"/>
</g>
<!-- Node3 -->
<g id="node3" class="node"><title>Node3</title>
<polygon fill="white" stroke="#bfbfbf" points="14.5,-0.5 14.5,-19.5 54.5,-19.5 54.5,-0.5 14.5,-0.5"/>
<text text-anchor="middle" x="34.5" y="-7.5" font-family="Helvetica,sans-Serif" font-size="10.00">utility</text>
</g>
<!-- Node2&#45;&gt;Node3 -->
<g id="edge2" class="edge"><title>Node2&#45;&gt;Node3</title>
<path fill="none" stroke="midnightblue" d="M59.5461,-56.083C55.3959,-48.6127 49.3469,-37.7244 44.2333,-28.5199"/>
<polygon fill="midnightblue" stroke="midnightblue" points="47.2777,-26.7929 39.3617,-19.7511 41.1586,-30.1924 47.2777,-26.7929"/>
</g>
<!-- Node4 -->
<g id="node4" class="node"><title>Node4</title>
<polygon fill="white" stroke="#bfbfbf" points="72.5,-0.5 72.5,-19.5 116.5,-19.5 116.5,-0.5 72.5,-0.5"/>
<text text-anchor="middle" x="94.5" y="-7.5" font-family="Helvetica,sans-Serif" font-size="10.00">vector</text>
</g>
<!-- Node2&#45;&gt;Node4 -->
<g id="edge3" class="edge"><title>Node2&#45;&gt;Node4</title>
<path fill="none" stroke="midnightblue" d="M69.4539,-56.083C73.6041,-48.6127 79.6531,-37.7244 84.7667,-28.5199"/>
<polygon fill="midnightblue" stroke="midnightblue" points="87.8414,-30.1924 89.6383,-19.7511 81.7223,-26.7929 87.8414,-30.1924"/>
</g>
<!-- Node6 -->
<g id="node6" class="node"><title>Node6</title>
<polygon fill="white" stroke="#bfbfbf" points="153,-0.5 153,-19.5 212,-19.5 212,-0.5 153,-0.5"/>
<text text-anchor="middle" x="182.5" y="-7.5" font-family="Helvetica,sans-Serif" font-size="10.00">exception</text>
</g>
<!-- Node5&#45;&gt;Node6 -->
<g id="edge5" class="edge"><title>Node5&#45;&gt;Node6</title>
<path fill="none" stroke="midnightblue" d="M198.363,-56.083C195.817,-48.8486 192.144,-38.4087 188.973,-29.3968"/>
<polygon fill="midnightblue" stroke="midnightblue" points="192.2,-28.0225 185.579,-19.7511 185.597,-30.3459 192.2,-28.0225"/>
</g>
<!-- Node7 -->
<g id="node7" class="node"><title>Node7</title>
<polygon fill="white" stroke="#bfbfbf" points="230,-0.5 230,-19.5 271,-19.5 271,-0.5 230,-0.5"/>
<text text-anchor="middle" x="250.5" y="-7.5" font-family="Helvetica,sans-Serif" font-size="10.00">string</text>
</g>
<!-- Node5&#45;&gt;Node7 -->
<g id="edge6" class="edge"><title>Node5&#45;&gt;Node7</title>
<path fill="none" stroke="midnightblue" d="M209.591,-56.083C216.655,-48.2982 227.088,-36.8015 235.649,-27.3665"/>
<polygon fill="midnightblue" stroke="midnightblue" points="238.431,-29.5087 242.559,-19.7511 233.247,-24.8047 238.431,-29.5087"/>
</g>
</g>
</svg>
