<?xml version="1.0" encoding="UTF-8" standalone="no"?>
<!DOCTYPE svg PUBLIC "-//W3C//DTD SVG 1.1//EN"
 "http://www.w3.org/Graphics/SVG/1.1/DTD/svg11.dtd">
<!-- Generated by graphviz version 2.38.0 (20140413.2041)
 -->
<!-- Title: /home/travis/build/ComPWA/ComPWA/ThirdParty/tbb/src/tbb/pipeline.cpp Pages: 1 -->
<!--zoomable 453 -->
<svg id="main" version="1.1" xmlns="http://www.w3.org/2000/svg" xmlns:xlink="http://www.w3.org/1999/xlink" xml:space="preserve" onload="init(evt)">
<style type="text/css"><![CDATA[
.edge:hover path { stroke: red; }
.edge:hover polygon { stroke: red; fill: red; }
]]></style>
<script type="text/javascript"><![CDATA[
var edges = document.getElementsByTagName('g');
if (edges && edges.length) {
  for (var i=0;i<edges.length;i++) {
    if (edges[i].id.substr(0,4)=='edge') {
      edges[i].setAttribute('class','edge');
    }
  }
}
]]></script>
        <defs>
                <circle id="rim" cx="0" cy="0" r="7"/>
                <circle id="rim2" cx="0" cy="0" r="3.5"/>
                <g id="zoomPlus">
                        <use xlink:href="#rim" fill="#404040">
                                <set attributeName="fill" to="#808080" begin="zoomplus.mouseover" end="zoomplus.mouseout"/>
                        </use>
                        <path d="M-4,0h8M0,-4v8" fill="none" stroke="white" stroke-width="1.5" pointer-events="none"/>
                </g>
                <g id="zoomMin">
                        <use xlink:href="#rim" fill="#404040">
                                <set attributeName="fill" to="#808080" begin="zoomminus.mouseover" end="zoomminus.mouseout"/>
                        </use>
                        <path d="M-4,0h8" fill="none" stroke="white" stroke-width="1.5" pointer-events="none"/>
                </g>
                <g id="dirArrow">
                        <path fill="none" stroke="white" stroke-width="1.5" d="M0,-3.0v7 M-2.5,-0.5L0,-3.0L2.5,-0.5"/>
                </g>
               <g id="resetDef">
                       <use xlink:href="#rim2" fill="#404040">
                               <set attributeName="fill" to="#808080" begin="reset.mouseover" end="reset.mouseout"/>
                       </use>
               </g>
        </defs>

<script type="text/javascript">
var viewWidth = 900;
var viewHeight = 453;
var sectionId = 'dynsection-0';
</script>
<script xlink:href="svgpan.js"/>
<svg id="graph" class="graph">
<g id="viewport">
<title>/home/travis/build/ComPWA/ComPWA/ThirdParty/tbb/src/tbb/pipeline.cpp</title>
<polygon fill="white" stroke="none" points="-4,4 -4,-449 895.5,-449 895.5,4 -4,4"/>
<!-- Node1 -->
<g id="node1" class="node"><title>Node1</title>
<polygon fill="#bfbfbf" stroke="black" points="600,-403.5 600,-444.5 758,-444.5 758,-403.5 600,-403.5"/>
<text text-anchor="start" x="608" y="-432.5" font-family="Helvetica,sans-Serif" font-size="10.00">/home/travis/build</text>
<text text-anchor="start" x="608" y="-421.5" font-family="Helvetica,sans-Serif" font-size="10.00">/ComPWA/ComPWA/ThirdParty</text>
<text text-anchor="middle" x="679" y="-410.5" font-family="Helvetica,sans-Serif" font-size="10.00">/tbb/src/tbb/pipeline.cpp</text>
</g>
<!-- Node2 -->
<g id="node2" class="node"><title>Node2</title>
<g id="a_node2"><a xlink:href="pipeline_8h.html" target="_top" xlink:title="tbb/pipeline.h">
<polygon fill="white" stroke="black" points="133.5,-347.5 133.5,-366.5 214.5,-366.5 214.5,-347.5 133.5,-347.5"/>
<text text-anchor="middle" x="174" y="-354.5" font-family="Helvetica,sans-Serif" font-size="10.00">tbb/pipeline.h</text>
</a>
</g>
</g>
<!-- Node1&#45;&gt;Node2 -->
<g id="edge1" class="edge"><title>Node1&#45;&gt;Node2</title>
<path fill="none" stroke="midnightblue" d="M599.816,-412.808C494.88,-399.301 312.767,-375.861 224.65,-364.519"/>
<polygon fill="midnightblue" stroke="midnightblue" points="225.001,-361.036 214.636,-363.23 224.107,-367.978 225.001,-361.036"/>
</g>
<!-- Node11 -->
<g id="node11" class="node"><title>Node11</title>
<g id="a_node11"><a xlink:href="spin__mutex_8h.html" target="_top" xlink:title="tbb/spin_mutex.h">
<polygon fill="white" stroke="black" points="364,-286 364,-305 464,-305 464,-286 364,-286"/>
<text text-anchor="middle" x="414" y="-293" font-family="Helvetica,sans-Serif" font-size="10.00">tbb/spin_mutex.h</text>
</a>
</g>
</g>
<!-- Node1&#45;&gt;Node11 -->
<g id="edge16" class="edge"><title>Node1&#45;&gt;Node11</title>
<path fill="none" stroke="midnightblue" d="M637.885,-403.373C583.052,-377.198 487.51,-331.59 440.992,-309.385"/>
<polygon fill="midnightblue" stroke="midnightblue" points="442.375,-306.167 431.843,-305.017 439.359,-312.484 442.375,-306.167"/>
</g>
<!-- Node14 -->
<g id="node14" class="node"><title>Node14</title>
<g id="a_node14"><a xlink:href="cache__aligned__allocator_8h.html" target="_top" xlink:title="tbb/cache_aligned_allocator.h">
<polygon fill="white" stroke="black" points="520,-286 520,-305 678,-305 678,-286 520,-286"/>
<text text-anchor="middle" x="599" y="-293" font-family="Helvetica,sans-Serif" font-size="10.00">tbb/cache_aligned_allocator.h</text>
</a>
</g>
</g>
<!-- Node1&#45;&gt;Node14 -->
<g id="edge26" class="edge"><title>Node1&#45;&gt;Node14</title>
<path fill="none" stroke="midnightblue" d="M666.5,-403.234C650.973,-378.683 624.732,-337.188 609.958,-313.827"/>
<polygon fill="midnightblue" stroke="midnightblue" points="612.865,-311.876 604.562,-305.295 606.949,-315.617 612.865,-311.876"/>
</g>
<!-- Node15 -->
<g id="node15" class="node"><title>Node15</title>
<g id="a_node15"><a xlink:href="itt__notify_8h.html" target="_top" xlink:title="itt_notify.h">
<polygon fill="white" stroke="black" points="688.5,-112.5 688.5,-131.5 753.5,-131.5 753.5,-112.5 688.5,-112.5"/>
<text text-anchor="middle" x="721" y="-119.5" font-family="Helvetica,sans-Serif" font-size="10.00">itt_notify.h</text>
</a>
</g>
</g>
<!-- Node1&#45;&gt;Node15 -->
<g id="edge29" class="edge"><title>Node1&#45;&gt;Node15</title>
<path fill="none" stroke="midnightblue" d="M685.953,-403.123C693.953,-378.442 706,-334.901 706,-296.5 706,-296.5 706,-296.5 706,-233 706,-200.502 712.507,-163.095 716.949,-141.343"/>
<polygon fill="midnightblue" stroke="midnightblue" points="720.385,-142.013 719.039,-131.504 713.538,-140.559 720.385,-142.013"/>
</g>
<!-- Node16 -->
<g id="node16" class="node"><title>Node16</title>
<g id="a_node16"><a xlink:href="semaphore_8h.html" target="_top" xlink:title="semaphore.h">
<polygon fill="white" stroke="black" points="738,-168.5 738,-187.5 818,-187.5 818,-168.5 738,-168.5"/>
<text text-anchor="middle" x="778" y="-175.5" font-family="Helvetica,sans-Serif" font-size="10.00">semaphore.h</text>
</a>
</g>
</g>
<!-- Node1&#45;&gt;Node16 -->
<g id="edge31" class="edge"><title>Node1&#45;&gt;Node16</title>
<path fill="none" stroke="midnightblue" d="M695.923,-403.318C704.094,-393.032 713.508,-379.92 720,-367 749.347,-308.593 767.229,-232.454 774.388,-197.731"/>
<polygon fill="midnightblue" stroke="midnightblue" points="777.879,-198.12 776.405,-187.628 771.014,-196.749 777.879,-198.12"/>
</g>
<!-- Node17 -->
<g id="node17" class="node"><title>Node17</title>
<g id="a_node17"><a xlink:href="tls_8h.html" target="_top" xlink:title="tls.h">
<polygon fill="white" stroke="black" points="792.5,-347.5 792.5,-366.5 829.5,-366.5 829.5,-347.5 792.5,-347.5"/>
<text text-anchor="middle" x="811" y="-354.5" font-family="Helvetica,sans-Serif" font-size="10.00">tls.h</text>
</a>
</g>
</g>
<!-- Node1&#45;&gt;Node17 -->
<g id="edge34" class="edge"><title>Node1&#45;&gt;Node17</title>
<path fill="none" stroke="midnightblue" d="M718.604,-403.498C739.815,-393.053 765.381,-380.464 784.238,-371.178"/>
<polygon fill="midnightblue" stroke="midnightblue" points="786.004,-374.21 793.429,-366.652 782.911,-367.93 786.004,-374.21"/>
</g>
<!-- Node3 -->
<g id="node3" class="node"><title>Node3</title>
<g id="a_node3"><a xlink:href="atomic_8h.html" target="_top" xlink:title="atomic.h">
<polygon fill="white" stroke="black" points="84.5,-168.5 84.5,-187.5 143.5,-187.5 143.5,-168.5 84.5,-168.5"/>
<text text-anchor="middle" x="114" y="-175.5" font-family="Helvetica,sans-Serif" font-size="10.00">atomic.h</text>
</a>
</g>
</g>
<!-- Node2&#45;&gt;Node3 -->
<g id="edge2" class="edge"><title>Node2&#45;&gt;Node3</title>
<path fill="none" stroke="midnightblue" d="M158.864,-347.303C132.268,-331.029 77.9829,-293.133 57,-244 48.1963,-223.385 69.0642,-204.701 87.9797,-192.711"/>
<polygon fill="midnightblue" stroke="midnightblue" points="89.8824,-195.652 96.6942,-187.537 86.3087,-189.633 89.8824,-195.652"/>
</g>
<!-- Node4 -->
<g id="node4" class="node"><title>Node4</title>
<polygon fill="white" stroke="#bfbfbf" points="248,-0.5 248,-19.5 300,-19.5 300,-0.5 248,-0.5"/>
<text text-anchor="middle" x="274" y="-7.5" font-family="Helvetica,sans-Serif" font-size="10.00">cstddef</text>
</g>
<!-- Node2&#45;&gt;Node4 -->
<g id="edge15" class="edge"><title>Node2&#45;&gt;Node4</title>
<path fill="none" stroke="midnightblue" d="M135.384,-347.387C84.1219,-333.409 0,-300.494 0,-235 0,-235 0,-235 0,-121 0,-70.3295 163.414,-32.3175 237.842,-17.6324"/>
<polygon fill="midnightblue" stroke="midnightblue" points="238.577,-21.0553 247.728,-15.7162 237.244,-14.1832 238.577,-21.0553"/>
</g>
<!-- Node7 -->
<g id="node7" class="node"><title>Node7</title>
<g id="a_node7"><a xlink:href="task_8h.html" target="_top" xlink:title="task.h">
<polygon fill="white" stroke="red" points="151,-286 151,-305 197,-305 197,-286 151,-286"/>
<text text-anchor="middle" x="174" y="-293" font-family="Helvetica,sans-Serif" font-size="10.00">task.h</text>
</a>
</g>
</g>
<!-- Node2&#45;&gt;Node7 -->
<g id="edge7" class="edge"><title>Node2&#45;&gt;Node7</title>
<path fill="none" stroke="midnightblue" d="M174,-347.475C174,-339.08 174,-325.981 174,-315.163"/>
<polygon fill="midnightblue" stroke="midnightblue" points="177.5,-315.009 174,-305.009 170.5,-315.009 177.5,-315.009"/>
</g>
<!-- Node9 -->
<g id="node9" class="node"><title>Node9</title>
<g id="a_node9"><a xlink:href="tbb__allocator_8h.html" target="_top" xlink:title="tbb_allocator.h">
<polygon fill="white" stroke="red" points="215.5,-286 215.5,-305 302.5,-305 302.5,-286 215.5,-286"/>
<text text-anchor="middle" x="259" y="-293" font-family="Helvetica,sans-Serif" font-size="10.00">tbb_allocator.h</text>
</a>
</g>
</g>
<!-- Node2&#45;&gt;Node9 -->
<g id="edge12" class="edge"><title>Node2&#45;&gt;Node9</title>
<path fill="none" stroke="midnightblue" d="M186.178,-347.475C199.812,-337.931 222.132,-322.307 238.474,-310.868"/>
<polygon fill="midnightblue" stroke="midnightblue" points="240.659,-313.611 246.844,-305.009 236.645,-307.876 240.659,-313.611"/>
</g>
<!-- Node3&#45;&gt;Node4 -->
<g id="edge3" class="edge"><title>Node3&#45;&gt;Node4</title>
<path fill="none" stroke="midnightblue" d="M120.026,-168.21C129,-155.352 146.685,-130.892 164,-112 193.979,-79.2904 233.034,-45.1772 255.633,-26.1548"/>
<polygon fill="midnightblue" stroke="midnightblue" points="258.005,-28.7345 263.436,-19.6376 253.517,-23.3621 258.005,-28.7345"/>
</g>
<!-- Node5 -->
<g id="node5" class="node"><title>Node5</title>
<g id="a_node5"><a xlink:href="tbb__machine_8h.html" target="_top" xlink:title="tbb_machine.h">
<polygon fill="white" stroke="black" points="302,-112.5 302,-131.5 390,-131.5 390,-112.5 302,-112.5"/>
<text text-anchor="middle" x="346" y="-119.5" font-family="Helvetica,sans-Serif" font-size="10.00">tbb_machine.h</text>
</a>
</g>
</g>
<!-- Node3&#45;&gt;Node5 -->
<g id="edge4" class="edge"><title>Node3&#45;&gt;Node5</title>
<path fill="none" stroke="midnightblue" d="M143.855,-170.051C183.304,-160.869 253.206,-144.599 299.579,-133.805"/>
<polygon fill="midnightblue" stroke="midnightblue" points="300.439,-137.198 309.385,-131.522 298.852,-130.381 300.439,-137.198"/>
</g>
<!-- Node6 -->
<g id="node6" class="node"><title>Node6</title>
<g id="a_node6"><a xlink:href="tbb__stddef_8h.html" target="_top" xlink:title="tbb_stddef.h">
<polygon fill="white" stroke="red" points="383,-56.5 383,-75.5 459,-75.5 459,-56.5 383,-56.5"/>
<text text-anchor="middle" x="421" y="-63.5" font-family="Helvetica,sans-Serif" font-size="10.00">tbb_stddef.h</text>
</a>
</g>
</g>
<!-- Node5&#45;&gt;Node6 -->
<g id="edge5" class="edge"><title>Node5&#45;&gt;Node6</title>
<path fill="none" stroke="midnightblue" d="M358.05,-112.324C369.463,-104.107 386.831,-91.6017 400.435,-81.8069"/>
<polygon fill="midnightblue" stroke="midnightblue" points="402.66,-84.5174 408.731,-75.8339 398.57,-78.8366 402.66,-84.5174"/>
</g>
<!-- Node6&#45;&gt;Node4 -->
<g id="edge6" class="edge"><title>Node6&#45;&gt;Node4</title>
<path fill="none" stroke="midnightblue" d="M397.707,-56.4435C373.193,-47.4381 334.404,-33.1891 306.8,-23.049"/>
<polygon fill="midnightblue" stroke="midnightblue" points="307.777,-19.6793 297.184,-19.5164 305.363,-26.25 307.777,-19.6793"/>
</g>
<!-- Node7&#45;&gt;Node5 -->
<g id="edge9" class="edge"><title>Node7&#45;&gt;Node5</title>
<path fill="none" stroke="midnightblue" d="M182.766,-285.76C210.26,-258.345 295.061,-173.79 330.346,-138.609"/>
<polygon fill="midnightblue" stroke="midnightblue" points="332.846,-141.059 337.456,-131.519 327.903,-136.102 332.846,-141.059"/>
</g>
<!-- Node7&#45;&gt;Node6 -->
<g id="edge8" class="edge"><title>Node7&#45;&gt;Node6</title>
<path fill="none" stroke="midnightblue" d="M176.399,-285.74C184.867,-256.477 216.174,-161.181 277,-112 304.357,-89.8806 342.648,-78.5844 372.868,-72.8432"/>
<polygon fill="midnightblue" stroke="midnightblue" points="373.536,-76.2795 382.78,-71.1016 372.325,-69.3851 373.536,-76.2795"/>
</g>
<!-- Node8 -->
<g id="node8" class="node"><title>Node8</title>
<g id="a_node8"><a xlink:href="tbb__profiling_8h.html" target="_top" xlink:title="tbb_profiling.h">
<polygon fill="white" stroke="red" points="66,-224.5 66,-243.5 150,-243.5 150,-224.5 66,-224.5"/>
<text text-anchor="middle" x="108" y="-231.5" font-family="Helvetica,sans-Serif" font-size="10.00">tbb_profiling.h</text>
</a>
</g>
</g>
<!-- Node7&#45;&gt;Node8 -->
<g id="edge10" class="edge"><title>Node7&#45;&gt;Node8</title>
<path fill="none" stroke="midnightblue" d="M164.544,-285.975C154.252,-276.697 137.584,-261.671 125.006,-250.331"/>
<polygon fill="midnightblue" stroke="midnightblue" points="127.21,-247.605 117.439,-243.509 122.522,-252.805 127.21,-247.605"/>
</g>
<!-- Node8&#45;&gt;Node3 -->
<g id="edge11" class="edge"><title>Node8&#45;&gt;Node3</title>
<path fill="none" stroke="midnightblue" d="M108.991,-224.083C109.786,-216.927 110.929,-206.635 111.923,-197.691"/>
<polygon fill="midnightblue" stroke="midnightblue" points="115.402,-198.076 113.028,-187.751 108.445,-197.303 115.402,-198.076"/>
</g>
<!-- Node9&#45;&gt;Node6 -->
<g id="edge13" class="edge"><title>Node9&#45;&gt;Node6</title>
<path fill="none" stroke="midnightblue" d="M257.821,-285.604C254.516,-256.715 248.123,-164.374 293,-112 312.842,-88.843 345.35,-77.5991 372.64,-72.1413"/>
<polygon fill="midnightblue" stroke="midnightblue" points="373.579,-75.5287 382.806,-70.3201 372.345,-68.6384 373.579,-75.5287"/>
</g>
<!-- Node10 -->
<g id="node10" class="node"><title>Node10</title>
<polygon fill="white" stroke="#bfbfbf" points="282.5,-224.5 282.5,-243.5 317.5,-243.5 317.5,-224.5 282.5,-224.5"/>
<text text-anchor="middle" x="300" y="-231.5" font-family="Helvetica,sans-Serif" font-size="10.00">new</text>
</g>
<!-- Node9&#45;&gt;Node10 -->
<g id="edge14" class="edge"><title>Node9&#45;&gt;Node10</title>
<path fill="none" stroke="midnightblue" d="M264.874,-285.975C270.963,-277.138 280.645,-263.089 288.303,-251.975"/>
<polygon fill="midnightblue" stroke="midnightblue" points="291.344,-253.729 294.137,-243.509 285.58,-249.758 291.344,-253.729"/>
</g>
<!-- Node11&#45;&gt;Node4 -->
<g id="edge17" class="edge"><title>Node11&#45;&gt;Node4</title>
<path fill="none" stroke="midnightblue" d="M461.52,-285.964C496.811,-278.329 545.323,-265.036 584,-244 623.045,-222.763 660,-223.447 660,-179 660,-179 660,-179 660,-121 660,-48.7147 406.471,-21.3458 310.352,-13.5671"/>
<polygon fill="midnightblue" stroke="midnightblue" points="310.471,-10.0657 300.228,-12.7735 309.924,-17.0443 310.471,-10.0657"/>
</g>
<!-- Node11&#45;&gt;Node5 -->
<g id="edge23" class="edge"><title>Node11&#45;&gt;Node5</title>
<path fill="none" stroke="midnightblue" d="M409.489,-285.849C400.272,-267.943 378.971,-225.365 365,-188 359.21,-172.514 354.048,-154.428 350.571,-141.271"/>
<polygon fill="midnightblue" stroke="midnightblue" points="353.95,-140.357 348.07,-131.544 347.17,-142.1 353.95,-140.357"/>
</g>
<!-- Node11&#45;&gt;Node6 -->
<g id="edge22" class="edge"><title>Node11&#45;&gt;Node6</title>
<path fill="none" stroke="midnightblue" d="M457.078,-285.925C497.02,-276.996 552.159,-261.834 565,-244 610.855,-180.313 499.507,-109.199 446.799,-80.2914"/>
<polygon fill="midnightblue" stroke="midnightblue" points="448.451,-77.2057 437.986,-75.5516 445.135,-83.3707 448.451,-77.2057"/>
</g>
<!-- Node11&#45;&gt;Node8 -->
<g id="edge24" class="edge"><title>Node11&#45;&gt;Node8</title>
<path fill="none" stroke="midnightblue" d="M370.158,-285.975C314.7,-275.192 219.317,-256.645 160.171,-245.144"/>
<polygon fill="midnightblue" stroke="midnightblue" points="160.769,-241.695 150.284,-243.222 159.432,-248.566 160.769,-241.695"/>
</g>
<!-- Node11&#45;&gt;Node10 -->
<g id="edge18" class="edge"><title>Node11&#45;&gt;Node10</title>
<path fill="none" stroke="midnightblue" d="M397.667,-285.975C378.789,-276.122 347.493,-259.788 325.424,-248.27"/>
<polygon fill="midnightblue" stroke="midnightblue" points="326.788,-245.033 316.303,-243.509 323.549,-251.239 326.788,-245.033"/>
</g>
<!-- Node12 -->
<g id="node12" class="node"><title>Node12</title>
<g id="a_node12"><a xlink:href="aligned__space_8h.html" target="_top" xlink:title="aligned_space.h">
<polygon fill="white" stroke="black" points="374,-168.5 374,-187.5 468,-187.5 468,-168.5 374,-168.5"/>
<text text-anchor="middle" x="421" y="-175.5" font-family="Helvetica,sans-Serif" font-size="10.00">aligned_space.h</text>
</a>
</g>
</g>
<!-- Node11&#45;&gt;Node12 -->
<g id="edge19" class="edge"><title>Node11&#45;&gt;Node12</title>
<path fill="none" stroke="midnightblue" d="M410.705,-285.783C406.095,-272.432 398.736,-246.139 403,-224 404.79,-214.705 408.483,-204.889 412.061,-196.805"/>
<polygon fill="midnightblue" stroke="midnightblue" points="415.273,-198.198 416.379,-187.661 408.944,-195.209 415.273,-198.198"/>
</g>
<!-- Node13 -->
<g id="node13" class="node"><title>Node13</title>
<g id="a_node13"><a xlink:href="__mutex__padding_8h.html" target="_top" xlink:title="internal/_mutex_padding.h">
<polygon fill="white" stroke="black" points="412,-224.5 412,-243.5 556,-243.5 556,-224.5 412,-224.5"/>
<text text-anchor="middle" x="484" y="-231.5" font-family="Helvetica,sans-Serif" font-size="10.00">internal/_mutex_padding.h</text>
</a>
</g>
</g>
<!-- Node11&#45;&gt;Node13 -->
<g id="edge25" class="edge"><title>Node11&#45;&gt;Node13</title>
<path fill="none" stroke="midnightblue" d="M424.029,-285.975C435.049,-276.608 452.96,-261.384 466.343,-250.008"/>
<polygon fill="midnightblue" stroke="midnightblue" points="468.637,-252.652 473.989,-243.509 464.103,-247.319 468.637,-252.652"/>
</g>
<!-- Node12&#45;&gt;Node5 -->
<g id="edge21" class="edge"><title>Node12&#45;&gt;Node5</title>
<path fill="none" stroke="midnightblue" d="M408.95,-168.324C397.537,-160.107 380.169,-147.602 366.565,-137.807"/>
<polygon fill="midnightblue" stroke="midnightblue" points="368.43,-134.837 358.269,-131.834 364.34,-140.517 368.43,-134.837"/>
</g>
<!-- Node12&#45;&gt;Node6 -->
<g id="edge20" class="edge"><title>Node12&#45;&gt;Node6</title>
<path fill="none" stroke="midnightblue" d="M421,-168.368C421,-150.617 421,-109.666 421,-85.5974"/>
<polygon fill="midnightblue" stroke="midnightblue" points="424.5,-85.5914 421,-75.5914 417.5,-85.5915 424.5,-85.5914"/>
</g>
<!-- Node14&#45;&gt;Node6 -->
<g id="edge28" class="edge"><title>Node14&#45;&gt;Node6</title>
<path fill="none" stroke="midnightblue" d="M599.321,-285.698C599.749,-264.351 598.738,-208.592 579,-168 556.032,-120.766 499.265,-92.9537 460.419,-78.8429"/>
<polygon fill="midnightblue" stroke="midnightblue" points="461.556,-75.5326 450.961,-75.5471 459.253,-82.1428 461.556,-75.5326"/>
</g>
<!-- Node14&#45;&gt;Node10 -->
<g id="edge27" class="edge"><title>Node14&#45;&gt;Node10</title>
<path fill="none" stroke="midnightblue" d="M556.161,-285.975C493.769,-273.559 379.662,-250.853 327.426,-240.458"/>
<polygon fill="midnightblue" stroke="midnightblue" points="328.039,-237.011 317.548,-238.492 326.673,-243.876 328.039,-237.011"/>
</g>
<!-- Node15&#45;&gt;Node6 -->
<g id="edge30" class="edge"><title>Node15&#45;&gt;Node6</title>
<path fill="none" stroke="midnightblue" d="M688.324,-115.118C635.385,-105.589 530.614,-86.7306 469.13,-75.6635"/>
<polygon fill="midnightblue" stroke="midnightblue" points="469.743,-72.2175 459.281,-73.8906 468.503,-79.1068 469.743,-72.2175"/>
</g>
<!-- Node16&#45;&gt;Node6 -->
<g id="edge32" class="edge"><title>Node16&#45;&gt;Node6</title>
<path fill="none" stroke="midnightblue" d="M778.677,-168.313C779.253,-154.199 778.103,-126.42 762,-112 719.777,-74.1889 552.668,-67.71 469.104,-66.8867"/>
<polygon fill="midnightblue" stroke="midnightblue" points="469.125,-63.3869 459.099,-66.8114 469.072,-70.3867 469.125,-63.3869"/>
</g>
<!-- Node16&#45;&gt;Node16 -->
<g id="edge33" class="edge"><title>Node16&#45;&gt;Node16</title>
<path fill="none" stroke="midnightblue" d="M802.737,-187.525C819.545,-190.308 836,-187.133 836,-178 836,-170.722 825.551,-167.228 812.801,-167.517"/>
<polygon fill="midnightblue" stroke="midnightblue" points="812.36,-164.043 802.737,-168.475 813.024,-171.011 812.36,-164.043"/>
</g>
<!-- Node18 -->
<g id="node18" class="node"><title>Node18</title>
<g id="a_node18"><a xlink:href="windows__api_8h.html" target="_top" xlink:title="tbb/machine/windows\l_api.h">
<polygon fill="white" stroke="black" points="772.5,-280.5 772.5,-310.5 891.5,-310.5 891.5,-280.5 772.5,-280.5"/>
<text text-anchor="start" x="780.5" y="-298.5" font-family="Helvetica,sans-Serif" font-size="10.00">tbb/machine/windows</text>
<text text-anchor="middle" x="832" y="-287.5" font-family="Helvetica,sans-Serif" font-size="10.00">_api.h</text>
</a>
</g>
</g>
<!-- Node17&#45;&gt;Node18 -->
<g id="edge35" class="edge"><title>Node17&#45;&gt;Node18</title>
<path fill="none" stroke="midnightblue" d="M814.009,-347.475C816.534,-340.32 820.265,-329.748 823.676,-320.084"/>
<polygon fill="midnightblue" stroke="midnightblue" points="827.023,-321.118 827.051,-310.523 820.422,-318.788 827.023,-321.118"/>
</g>
</g>
</svg>
        <g id="navigator" transform="translate(0 0)" fill="#404254">
                <rect fill="#f2f5e9" fill-opacity="0.5" stroke="#606060" stroke-width=".5" x="0" y="0" width="60" height="60"/>
                <use id="zoomplus" xlink:href="#zoomPlus" x="17" y="9" onmousedown="handleZoom(evt,'in')"/>
                <use id="zoomminus" xlink:href="#zoomMin" x="42" y="9" onmousedown="handleZoom(evt,'out')"/>
                <use id="reset" xlink:href="#resetDef" x="30" y="36" onmousedown="handleReset()"/>
                <g id="arrowUp" xlink:href="#dirArrow" transform="translate(30 24)" onmousedown="handlePan(0,-1)">
                  <use xlink:href="#rim" fill="#404040">
                        <set attributeName="fill" to="#808080" begin="arrowUp.mouseover" end="arrowUp.mouseout"/>
                  </use>
                  <path fill="none" stroke="white" stroke-width="1.5" d="M0,-3.0v7 M-2.5,-0.5L0,-3.0L2.5,-0.5"/>
                </g>
                <g id="arrowRight" xlink:href="#dirArrow" transform="rotate(90) translate(36 -43)" onmousedown="handlePan(1,0)">
                  <use xlink:href="#rim" fill="#404040">
                        <set attributeName="fill" to="#808080" begin="arrowRight.mouseover" end="arrowRight.mouseout"/>
                  </use>
                  <path fill="none" stroke="white" stroke-width="1.5" d="M0,-3.0v7 M-2.5,-0.5L0,-3.0L2.5,-0.5"/>
                </g>
                <g id="arrowDown" xlink:href="#dirArrow" transform="rotate(180) translate(-30 -48)" onmousedown="handlePan(0,1)">
                  <use xlink:href="#rim" fill="#404040">
                        <set attributeName="fill" to="#808080" begin="arrowDown.mouseover" end="arrowDown.mouseout"/>
                  </use>
                  <path fill="none" stroke="white" stroke-width="1.5" d="M0,-3.0v7 M-2.5,-0.5L0,-3.0L2.5,-0.5"/>
                </g>
                <g id="arrowLeft" xlink:href="#dirArrow" transform="rotate(270) translate(-36 17)" onmousedown="handlePan(-1,0)">
                  <use xlink:href="#rim" fill="#404040">
                        <set attributeName="fill" to="#808080" begin="arrowLeft.mouseover" end="arrowLeft.mouseout"/>
                  </use>
                  <path fill="none" stroke="white" stroke-width="1.5" d="M0,-3.0v7 M-2.5,-0.5L0,-3.0L2.5,-0.5"/>
                </g>
        </g>
        <svg viewBox="0 0 15 15" width="100%" height="30px" preserveAspectRatio="xMaxYMin meet">
         <g id="arrow_out" transform="scale(0.3 0.3)">
          <a xlink:href="pipeline_8cpp__incl_org.svg" target="_base">
           <rect id="button" ry="5" rx="5" y="6" x="6" height="38" width="38"
                fill="#f2f5e9" fill-opacity="0.5" stroke="#606060" stroke-width="1.0"/>
           <path id="arrow"
             d="M 11.500037,31.436501 C 11.940474,20.09759 22.043105,11.32322 32.158766,21.979434 L 37.068811,17.246167 C 37.068811,17.246167 37.088388,32 37.088388,32 L 22.160133,31.978069 C 22.160133,31.978069 26.997745,27.140456 26.997745,27.140456 C 18.528582,18.264221 13.291696,25.230495 11.500037,31.436501 z"
             style="fill:#404040;"/>
          </a>
         </g>
        </svg>
</svg>
