<?xml version="1.0" encoding="UTF-8" standalone="no"?>
<!DOCTYPE svg PUBLIC "-//W3C//DTD SVG 1.1//EN"
 "http://www.w3.org/Graphics/SVG/1.1/DTD/svg11.dtd">
<!-- Generated by graphviz version 2.38.0 (20140413.2041)
 -->
<!-- Title: /home/travis/build/ComPWA/ComPWA/ThirdParty/tbb/include/tbb/compat/ppl.h Pages: 1 -->
<!--zoomable 341 -->
<svg id="main" version="1.1" xmlns="http://www.w3.org/2000/svg" xmlns:xlink="http://www.w3.org/1999/xlink" xml:space="preserve" onload="init(evt)">
<style type="text/css"><![CDATA[
.edge:hover path { stroke: red; }
.edge:hover polygon { stroke: red; fill: red; }
]]></style>
<script type="text/javascript"><![CDATA[
var edges = document.getElementsByTagName('g');
if (edges && edges.length) {
  for (var i=0;i<edges.length;i++) {
    if (edges[i].id.substr(0,4)=='edge') {
      edges[i].setAttribute('class','edge');
    }
  }
}
]]></script>
        <defs>
                <circle id="rim" cx="0" cy="0" r="7"/>
                <circle id="rim2" cx="0" cy="0" r="3.5"/>
                <g id="zoomPlus">
                        <use xlink:href="#rim" fill="#404040">
                                <set attributeName="fill" to="#808080" begin="zoomplus.mouseover" end="zoomplus.mouseout"/>
                        </use>
                        <path d="M-4,0h8M0,-4v8" fill="none" stroke="white" stroke-width="1.5" pointer-events="none"/>
                </g>
                <g id="zoomMin">
                        <use xlink:href="#rim" fill="#404040">
                                <set attributeName="fill" to="#808080" begin="zoomminus.mouseover" end="zoomminus.mouseout"/>
                        </use>
                        <path d="M-4,0h8" fill="none" stroke="white" stroke-width="1.5" pointer-events="none"/>
                </g>
                <g id="dirArrow">
                        <path fill="none" stroke="white" stroke-width="1.5" d="M0,-3.0v7 M-2.5,-0.5L0,-3.0L2.5,-0.5"/>
                </g>
               <g id="resetDef">
                       <use xlink:href="#rim2" fill="#404040">
                               <set attributeName="fill" to="#808080" begin="reset.mouseover" end="reset.mouseout"/>
                       </use>
               </g>
        </defs>

<script type="text/javascript">
var viewWidth = 961;
var viewHeight = 341;
var sectionId = 'dynsection-0';
</script>
<script xlink:href="svgpan.js"/>
<svg id="graph" class="graph">
<g id="viewport">
<title>/home/travis/build/ComPWA/ComPWA/ThirdParty/tbb/include/tbb/compat/ppl.h</title>
<polygon fill="white" stroke="none" points="-4,4 -4,-337 957,-337 957,4 -4,4"/>
<!-- Node1 -->
<g id="node1" class="node"><title>Node1</title>
<polygon fill="#bfbfbf" stroke="black" points="329.5,-291.5 329.5,-332.5 487.5,-332.5 487.5,-291.5 329.5,-291.5"/>
<text text-anchor="start" x="337.5" y="-320.5" font-family="Helvetica,sans-Serif" font-size="10.00">/home/travis/build</text>
<text text-anchor="start" x="337.5" y="-309.5" font-family="Helvetica,sans-Serif" font-size="10.00">/ComPWA/ComPWA/ThirdParty</text>
<text text-anchor="middle" x="408.5" y="-298.5" font-family="Helvetica,sans-Serif" font-size="10.00">/tbb/include/tbb/compat/ppl.h</text>
</g>
<!-- Node2 -->
<g id="node2" class="node"><title>Node2</title>
<g id="a_node2"><a xlink:href="task__group_8h.html" target="_top" xlink:title="../task_group.h">
<polygon fill="white" stroke="black" points="313.5,-179.5 313.5,-198.5 401.5,-198.5 401.5,-179.5 313.5,-179.5"/>
<text text-anchor="middle" x="357.5" y="-186.5" font-family="Helvetica,sans-Serif" font-size="10.00">../task_group.h</text>
</a>
</g>
</g>
<!-- Node1&#45;&gt;Node2 -->
<g id="edge1" class="edge"><title>Node1&#45;&gt;Node2</title>
<path fill="none" stroke="midnightblue" d="M400.192,-291.29C390.446,-268.166 374.427,-230.16 365.029,-207.864"/>
<polygon fill="midnightblue" stroke="midnightblue" points="368.223,-206.43 361.114,-198.575 361.773,-209.149 368.223,-206.43"/>
</g>
<!-- Node7 -->
<g id="node7" class="node"><title>Node7</title>
<g id="a_node7"><a xlink:href="tbb__exception_8h.html" target="_top" xlink:title="tbb_exception.h">
<polygon fill="white" stroke="red" points="288,-123.5 288,-142.5 381,-142.5 381,-123.5 288,-123.5"/>
<text text-anchor="middle" x="334.5" y="-130.5" font-family="Helvetica,sans-Serif" font-size="10.00">tbb_exception.h</text>
</a>
</g>
</g>
<!-- Node1&#45;&gt;Node7 -->
<g id="edge22" class="edge"><title>Node1&#45;&gt;Node7</title>
<path fill="none" stroke="midnightblue" d="M414.693,-291.116C421.943,-263.853 430.59,-214.243 410.5,-179 402.09,-164.247 386.735,-153.838 372.016,-146.774"/>
<polygon fill="midnightblue" stroke="midnightblue" points="373.079,-143.418 362.515,-142.603 370.265,-149.827 373.079,-143.418"/>
</g>
<!-- Node10 -->
<g id="node10" class="node"><title>Node10</title>
<g id="a_node10"><a xlink:href="parallel__invoke_8h.html" target="_top" xlink:title="../parallel_invoke.h">
<polygon fill="white" stroke="black" points="0,-179.5 0,-198.5 105,-198.5 105,-179.5 0,-179.5"/>
<text text-anchor="middle" x="52.5" y="-186.5" font-family="Helvetica,sans-Serif" font-size="10.00">../parallel_invoke.h</text>
</a>
</g>
</g>
<!-- Node1&#45;&gt;Node10 -->
<g id="edge11" class="edge"><title>Node1&#45;&gt;Node10</title>
<path fill="none" stroke="midnightblue" d="M329.348,-294.641C287.228,-284.969 234.899,-271.401 189.5,-255 148.925,-240.342 104.158,-217.815 77.1923,-203.5"/>
<polygon fill="midnightblue" stroke="midnightblue" points="78.5709,-200.267 68.1038,-198.627 75.2633,-206.437 78.5709,-200.267"/>
</g>
<!-- Node11 -->
<g id="node11" class="node"><title>Node11</title>
<g id="a_node11"><a xlink:href="parallel__for__each_8h.html" target="_top" xlink:title="../parallel_for_each.h">
<polygon fill="white" stroke="black" points="198.5,-235.5 198.5,-254.5 314.5,-254.5 314.5,-235.5 198.5,-235.5"/>
<text text-anchor="middle" x="256.5" y="-242.5" font-family="Helvetica,sans-Serif" font-size="10.00">../parallel_for_each.h</text>
</a>
</g>
</g>
<!-- Node1&#45;&gt;Node11 -->
<g id="edge14" class="edge"><title>Node1&#45;&gt;Node11</title>
<path fill="none" stroke="midnightblue" d="M362.895,-291.498C338.022,-280.861 307.949,-268.001 286.129,-258.67"/>
<polygon fill="midnightblue" stroke="midnightblue" points="287.304,-255.366 276.734,-254.652 284.552,-261.803 287.304,-255.366"/>
</g>
<!-- Node13 -->
<g id="node13" class="node"><title>Node13</title>
<g id="a_node13"><a xlink:href="tbb_2parallel__for_8h.html" target="_top" xlink:title="parallel_for.h">
<polygon fill="white" stroke="red" points="218,-179.5 218,-198.5 295,-198.5 295,-179.5 218,-179.5"/>
<text text-anchor="middle" x="256.5" y="-186.5" font-family="Helvetica,sans-Serif" font-size="10.00">parallel_for.h</text>
</a>
</g>
</g>
<!-- Node1&#45;&gt;Node13 -->
<g id="edge21" class="edge"><title>Node1&#45;&gt;Node13</title>
<path fill="none" stroke="midnightblue" d="M388.233,-291.431C371.43,-275.567 346.636,-252.974 323.5,-235 309.205,-223.894 292.276,-212.538 279.011,-204.012"/>
<polygon fill="midnightblue" stroke="midnightblue" points="280.808,-201.007 270.49,-198.599 277.054,-206.915 280.808,-201.007"/>
</g>
<!-- Node14 -->
<g id="node14" class="node"><title>Node14</title>
<g id="a_node14"><a xlink:href="critical__section_8h.html" target="_top" xlink:title="../critical_section.h">
<polygon fill="white" stroke="black" points="458,-179.5 458,-198.5 563,-198.5 563,-179.5 458,-179.5"/>
<text text-anchor="middle" x="510.5" y="-186.5" font-family="Helvetica,sans-Serif" font-size="10.00">../critical_section.h</text>
</a>
</g>
</g>
<!-- Node1&#45;&gt;Node14 -->
<g id="edge23" class="edge"><title>Node1&#45;&gt;Node14</title>
<path fill="none" stroke="midnightblue" d="M425.115,-291.29C445.049,-267.642 478.102,-228.432 496.696,-206.375"/>
<polygon fill="midnightblue" stroke="midnightblue" points="499.502,-208.477 503.272,-198.575 494.15,-203.965 499.502,-208.477"/>
</g>
<!-- Node18 -->
<g id="node18" class="node"><title>Node18</title>
<g id="a_node18"><a xlink:href="reader__writer__lock_8h.html" target="_top" xlink:title="../reader_writer_lock.h">
<polygon fill="white" stroke="black" points="545.5,-123.5 545.5,-142.5 667.5,-142.5 667.5,-123.5 545.5,-123.5"/>
<text text-anchor="middle" x="606.5" y="-130.5" font-family="Helvetica,sans-Serif" font-size="10.00">../reader_writer_lock.h</text>
</a>
</g>
</g>
<!-- Node1&#45;&gt;Node18 -->
<g id="edge33" class="edge"><title>Node1&#45;&gt;Node18</title>
<path fill="none" stroke="midnightblue" d="M447.309,-291.331C483.024,-271.734 535.727,-238.865 571.5,-199 583.915,-185.165 593.496,-166.144 599.47,-152.253"/>
<polygon fill="midnightblue" stroke="midnightblue" points="602.789,-153.383 603.322,-142.802 596.307,-150.741 602.789,-153.383"/>
</g>
<!-- Node19 -->
<g id="node19" class="node"><title>Node19</title>
<g id="a_node19"><a xlink:href="combinable_8h.html" target="_top" xlink:title="../combinable.h">
<polygon fill="white" stroke="black" points="759.5,-179.5 759.5,-198.5 849.5,-198.5 849.5,-179.5 759.5,-179.5"/>
<text text-anchor="middle" x="804.5" y="-186.5" font-family="Helvetica,sans-Serif" font-size="10.00">../combinable.h</text>
</a>
</g>
</g>
<!-- Node1&#45;&gt;Node19 -->
<g id="edge37" class="edge"><title>Node1&#45;&gt;Node19</title>
<path fill="none" stroke="midnightblue" d="M484.273,-291.489C523.083,-281.196 570.993,-268.025 613.5,-255 669.299,-237.902 733.369,-215.527 771.31,-201.987"/>
<polygon fill="midnightblue" stroke="midnightblue" points="772.596,-205.244 780.831,-198.578 770.236,-198.654 772.596,-205.244"/>
</g>
<!-- Node3 -->
<g id="node3" class="node"><title>Node3</title>
<g id="a_node3"><a xlink:href="task_8h.html" target="_top" xlink:title="task.h">
<polygon fill="white" stroke="red" points="140.5,-123.5 140.5,-142.5 186.5,-142.5 186.5,-123.5 140.5,-123.5"/>
<text text-anchor="middle" x="163.5" y="-130.5" font-family="Helvetica,sans-Serif" font-size="10.00">task.h</text>
</a>
</g>
</g>
<!-- Node2&#45;&gt;Node3 -->
<g id="edge2" class="edge"><title>Node2&#45;&gt;Node3</title>
<path fill="none" stroke="midnightblue" d="M326.76,-179.444C291.114,-169.522 232.601,-153.234 196.158,-143.09"/>
<polygon fill="midnightblue" stroke="midnightblue" points="197.074,-139.712 186.502,-140.403 195.197,-146.456 197.074,-139.712"/>
</g>
<!-- Node2&#45;&gt;Node7 -->
<g id="edge6" class="edge"><title>Node2&#45;&gt;Node7</title>
<path fill="none" stroke="midnightblue" d="M353.702,-179.083C350.587,-171.77 346.077,-161.181 342.211,-152.103"/>
<polygon fill="midnightblue" stroke="midnightblue" points="345.366,-150.58 338.227,-142.751 338.926,-153.323 345.366,-150.58"/>
</g>
<!-- Node9 -->
<g id="node9" class="node"><title>Node9</title>
<g id="a_node9"><a xlink:href="__template__helpers_8h.html" target="_top" xlink:title="internal/_template\l_helpers.h">
<polygon fill="white" stroke="red" points="277.5,-56.5 277.5,-86.5 381.5,-86.5 381.5,-56.5 277.5,-56.5"/>
<text text-anchor="start" x="285.5" y="-74.5" font-family="Helvetica,sans-Serif" font-size="10.00">internal/_template</text>
<text text-anchor="middle" x="329.5" y="-63.5" font-family="Helvetica,sans-Serif" font-size="10.00">_helpers.h</text>
</a>
</g>
</g>
<!-- Node2&#45;&gt;Node9 -->
<g id="edge10" class="edge"><title>Node2&#45;&gt;Node9</title>
<path fill="none" stroke="midnightblue" d="M327.619,-179.387C309.96,-172.587 289.049,-161.15 278.5,-143 268.193,-125.266 283.166,-106.511 299.503,-92.8073"/>
<polygon fill="midnightblue" stroke="midnightblue" points="301.82,-95.4382 307.528,-86.5122 297.499,-89.9307 301.82,-95.4382"/>
</g>
<!-- Node4 -->
<g id="node4" class="node"><title>Node4</title>
<g id="a_node4"><a xlink:href="tbb__stddef_8h.html" target="_top" xlink:title="tbb_stddef.h">
<polygon fill="white" stroke="red" points="445.5,-0.5 445.5,-19.5 521.5,-19.5 521.5,-0.5 445.5,-0.5"/>
<text text-anchor="middle" x="483.5" y="-7.5" font-family="Helvetica,sans-Serif" font-size="10.00">tbb_stddef.h</text>
</a>
</g>
</g>
<!-- Node3&#45;&gt;Node4 -->
<g id="edge3" class="edge"><title>Node3&#45;&gt;Node4</title>
<path fill="none" stroke="midnightblue" d="M160.712,-123.409C156.245,-107.81 149.594,-74.7162 166.5,-56 201.446,-17.312 355.374,-11.1595 435.159,-10.6344"/>
<polygon fill="midnightblue" stroke="midnightblue" points="435.453,-14.1334 445.44,-10.5952 435.427,-7.13341 435.453,-14.1334"/>
</g>
<!-- Node5 -->
<g id="node5" class="node"><title>Node5</title>
<g id="a_node5"><a xlink:href="tbb__profiling_8h.html" target="_top" xlink:title="tbb_profiling.h">
<polygon fill="white" stroke="red" points="175.5,-62 175.5,-81 259.5,-81 259.5,-62 175.5,-62"/>
<text text-anchor="middle" x="217.5" y="-69" font-family="Helvetica,sans-Serif" font-size="10.00">tbb_profiling.h</text>
</a>
</g>
</g>
<!-- Node3&#45;&gt;Node5 -->
<g id="edge4" class="edge"><title>Node3&#45;&gt;Node5</title>
<path fill="none" stroke="midnightblue" d="M171.237,-123.475C179.497,-114.373 192.777,-99.741 202.994,-88.483"/>
<polygon fill="midnightblue" stroke="midnightblue" points="205.649,-90.7663 209.777,-81.0091 200.465,-86.0619 205.649,-90.7663"/>
</g>
<!-- Node6 -->
<g id="node6" class="node"><title>Node6</title>
<g id="a_node6"><a xlink:href="atomic_8h.html" target="_top" xlink:title="atomic.h">
<polygon fill="white" stroke="red" points="595,-0.5 595,-19.5 654,-19.5 654,-0.5 595,-0.5"/>
<text text-anchor="middle" x="624.5" y="-7.5" font-family="Helvetica,sans-Serif" font-size="10.00">atomic.h</text>
</a>
</g>
</g>
<!-- Node5&#45;&gt;Node6 -->
<g id="edge5" class="edge"><title>Node5&#45;&gt;Node6</title>
<path fill="none" stroke="midnightblue" d="M244.574,-61.9799C252.25,-59.7895 260.653,-57.6018 268.5,-56 328.303,-43.7919 505.134,-23.9076 584.799,-15.2511"/>
<polygon fill="midnightblue" stroke="midnightblue" points="585.357,-18.7112 594.922,-14.1547 584.604,-11.7518 585.357,-18.7112"/>
</g>
<!-- Node7&#45;&gt;Node4 -->
<g id="edge7" class="edge"><title>Node7&#45;&gt;Node4</title>
<path fill="none" stroke="midnightblue" d="M345.257,-123.399C356.547,-114.362 374.802,-99.7209 390.5,-87 416.49,-65.9389 446.428,-41.4277 465.16,-26.0619"/>
<polygon fill="midnightblue" stroke="midnightblue" points="467.414,-28.7402 472.923,-19.6907 462.973,-23.3291 467.414,-28.7402"/>
</g>
<!-- Node8 -->
<g id="node8" class="node"><title>Node8</title>
<g id="a_node8"><a xlink:href="tbb__allocator_8h.html" target="_top" xlink:title="tbb_allocator.h">
<polygon fill="white" stroke="red" points="476,-62 476,-81 563,-81 563,-62 476,-62"/>
<text text-anchor="middle" x="519.5" y="-69" font-family="Helvetica,sans-Serif" font-size="10.00">tbb_allocator.h</text>
</a>
</g>
</g>
<!-- Node7&#45;&gt;Node8 -->
<g id="edge8" class="edge"><title>Node7&#45;&gt;Node8</title>
<path fill="none" stroke="midnightblue" d="M361.006,-123.475C393.152,-113.136 447.487,-95.6611 483.427,-84.1017"/>
<polygon fill="midnightblue" stroke="midnightblue" points="484.595,-87.4028 493.043,-81.0091 482.452,-80.739 484.595,-87.4028"/>
</g>
<!-- Node8&#45;&gt;Node4 -->
<g id="edge9" class="edge"><title>Node8&#45;&gt;Node4</title>
<path fill="none" stroke="midnightblue" d="M514.342,-61.9751C509.049,-53.2268 500.665,-39.3691 493.973,-28.3093"/>
<polygon fill="midnightblue" stroke="midnightblue" points="496.82,-26.2531 488.648,-19.5091 490.83,-29.8768 496.82,-26.2531"/>
</g>
<!-- Node10&#45;&gt;Node3 -->
<g id="edge12" class="edge"><title>Node10&#45;&gt;Node3</title>
<path fill="none" stroke="midnightblue" d="M70.3341,-179.324C88.2159,-170.625 115.975,-157.12 136.546,-147.113"/>
<polygon fill="midnightblue" stroke="midnightblue" points="138.249,-150.177 145.71,-142.655 135.187,-143.882 138.249,-150.177"/>
</g>
<!-- Node10&#45;&gt;Node5 -->
<g id="edge13" class="edge"><title>Node10&#45;&gt;Node5</title>
<path fill="none" stroke="midnightblue" d="M61.844,-179.486C76.2504,-166.555 105,-141.511 131.5,-123 151.142,-109.28 174.676,-95.6377 192.156,-85.9974"/>
<polygon fill="midnightblue" stroke="midnightblue" points="194.076,-88.9373 201.182,-81.0784 190.726,-82.7909 194.076,-88.9373"/>
</g>
<!-- Node12 -->
<g id="node12" class="node"><title>Node12</title>
<g id="a_node12"><a xlink:href="parallel__do_8h.html" target="_top" xlink:title="parallel_do.h">
<polygon fill="white" stroke="red" points="123,-179.5 123,-198.5 200,-198.5 200,-179.5 123,-179.5"/>
<text text-anchor="middle" x="161.5" y="-186.5" font-family="Helvetica,sans-Serif" font-size="10.00">parallel_do.h</text>
</a>
</g>
</g>
<!-- Node11&#45;&gt;Node12 -->
<g id="edge15" class="edge"><title>Node11&#45;&gt;Node12</title>
<path fill="none" stroke="midnightblue" d="M241.237,-235.324C226.279,-226.822 203.245,-213.729 185.773,-203.797"/>
<polygon fill="midnightblue" stroke="midnightblue" points="187.149,-200.553 176.726,-198.655 183.69,-206.639 187.149,-200.553"/>
</g>
<!-- Node11&#45;&gt;Node13 -->
<g id="edge18" class="edge"><title>Node11&#45;&gt;Node13</title>
<path fill="none" stroke="midnightblue" d="M256.5,-235.083C256.5,-228.006 256.5,-217.861 256.5,-208.986"/>
<polygon fill="midnightblue" stroke="midnightblue" points="260,-208.751 256.5,-198.751 253,-208.751 260,-208.751"/>
</g>
<!-- Node12&#45;&gt;Node3 -->
<g id="edge17" class="edge"><title>Node12&#45;&gt;Node3</title>
<path fill="none" stroke="midnightblue" d="M161.83,-179.083C162.092,-172.006 162.468,-161.861 162.797,-152.986"/>
<polygon fill="midnightblue" stroke="midnightblue" points="166.303,-152.874 163.176,-142.751 159.308,-152.615 166.303,-152.874"/>
</g>
<!-- Node12&#45;&gt;Node9 -->
<g id="edge16" class="edge"><title>Node12&#45;&gt;Node9</title>
<path fill="none" stroke="midnightblue" d="M174.127,-179.319C200.831,-160.96 263.615,-117.796 300.683,-92.3117"/>
<polygon fill="midnightblue" stroke="midnightblue" points="302.813,-95.0948 309.07,-86.5453 298.847,-89.3265 302.813,-95.0948"/>
</g>
<!-- Node13&#45;&gt;Node3 -->
<g id="edge19" class="edge"><title>Node13&#45;&gt;Node3</title>
<path fill="none" stroke="midnightblue" d="M241.558,-179.324C226.915,-170.822 204.366,-157.729 187.262,-147.797"/>
<polygon fill="midnightblue" stroke="midnightblue" points="188.81,-144.649 178.405,-142.655 185.295,-150.703 188.81,-144.649"/>
</g>
<!-- Node13&#45;&gt;Node7 -->
<g id="edge20" class="edge"><title>Node13&#45;&gt;Node7</title>
<path fill="none" stroke="midnightblue" d="M269.032,-179.324C281.086,-170.979 299.527,-158.212 313.769,-148.352"/>
<polygon fill="midnightblue" stroke="midnightblue" points="315.769,-151.224 321.999,-142.655 311.785,-145.469 315.769,-151.224"/>
</g>
<!-- Node14&#45;&gt;Node4 -->
<g id="edge26" class="edge"><title>Node14&#45;&gt;Node4</title>
<path fill="none" stroke="midnightblue" d="M497.719,-179.369C487.106,-171.36 472.769,-158.379 466.5,-143 451.904,-107.194 459.555,-94.0378 466.5,-56 468.188,-46.7575 471.675,-36.9479 475.054,-28.8546"/>
<polygon fill="midnightblue" stroke="midnightblue" points="478.263,-30.2518 479.134,-19.6928 471.869,-27.4045 478.263,-30.2518"/>
</g>
<!-- Node14&#45;&gt;Node5 -->
<g id="edge32" class="edge"><title>Node14&#45;&gt;Node5</title>
<path fill="none" stroke="midnightblue" d="M496.803,-179.419C474.843,-165.946 430.094,-139.652 389.5,-123 383.22,-120.424 305.602,-97.9009 256.806,-83.8176"/>
<polygon fill="midnightblue" stroke="midnightblue" points="257.742,-80.445 247.164,-81.0364 255.802,-87.1708 257.742,-80.445"/>
</g>
<!-- Node14&#45;&gt;Node7 -->
<g id="edge31" class="edge"><title>Node14&#45;&gt;Node7</title>
<path fill="none" stroke="midnightblue" d="M482.612,-179.444C452.746,-170.28 405.185,-155.688 372.044,-145.519"/>
<polygon fill="midnightblue" stroke="midnightblue" points="372.844,-142.104 362.257,-142.516 370.791,-148.796 372.844,-142.104"/>
</g>
<!-- Node15 -->
<g id="node15" class="node"><title>Node15</title>
<polygon fill="white" stroke="#bfbfbf" points="890,-0.5 890,-19.5 953,-19.5 953,-0.5 890,-0.5"/>
<text text-anchor="middle" x="921.5" y="-7.5" font-family="Helvetica,sans-Serif" font-size="10.00">pthread.h</text>
</g>
<!-- Node14&#45;&gt;Node15 -->
<g id="edge24" class="edge"><title>Node14&#45;&gt;Node15</title>
<path fill="none" stroke="midnightblue" d="M563.214,-187.637C655.296,-186.063 840.688,-178.444 893.5,-143 927.584,-120.125 925.866,-97.0253 924.5,-56 924.213,-47.3834 923.618,-37.8541 923.033,-29.7913"/>
<polygon fill="midnightblue" stroke="midnightblue" points="926.507,-29.3184 922.246,-19.6183 919.528,-29.8585 926.507,-29.3184"/>
</g>
<!-- Node16 -->
<g id="node16" class="node"><title>Node16</title>
<polygon fill="white" stroke="#bfbfbf" points="476,-123.5 476,-142.5 527,-142.5 527,-123.5 476,-123.5"/>
<text text-anchor="middle" x="501.5" y="-130.5" font-family="Helvetica,sans-Serif" font-size="10.00">errno.h</text>
</g>
<!-- Node14&#45;&gt;Node16 -->
<g id="edge25" class="edge"><title>Node14&#45;&gt;Node16</title>
<path fill="none" stroke="midnightblue" d="M509.014,-179.083C507.821,-171.927 506.106,-161.635 504.615,-152.691"/>
<polygon fill="midnightblue" stroke="midnightblue" points="508.055,-152.04 502.959,-142.751 501.15,-153.19 508.055,-152.04"/>
</g>
<!-- Node17 -->
<g id="node17" class="node"><title>Node17</title>
<g id="a_node17"><a xlink:href="tbb__thread_8h.html" target="_top" xlink:title="tbb_thread.h">
<polygon fill="white" stroke="red" points="619.5,-62 619.5,-81 697.5,-81 697.5,-62 619.5,-62"/>
<text text-anchor="middle" x="658.5" y="-69" font-family="Helvetica,sans-Serif" font-size="10.00">tbb_thread.h</text>
</a>
</g>
</g>
<!-- Node14&#45;&gt;Node17 -->
<g id="edge27" class="edge"><title>Node14&#45;&gt;Node17</title>
<path fill="none" stroke="midnightblue" d="M563.177,-180.749C606.407,-173.591 662.666,-161.083 676.5,-143 688.322,-127.546 679.402,-105.166 670.419,-89.7895"/>
<polygon fill="midnightblue" stroke="midnightblue" points="673.313,-87.8175 665.004,-81.2449 667.401,-91.565 673.313,-87.8175"/>
</g>
<!-- Node17&#45;&gt;Node4 -->
<g id="edge28" class="edge"><title>Node17&#45;&gt;Node4</title>
<path fill="none" stroke="midnightblue" d="M633.427,-61.9751C603.148,-51.6804 552.06,-34.3103 518.059,-22.7502"/>
<polygon fill="midnightblue" stroke="midnightblue" points="519.121,-19.4145 508.527,-19.5091 516.868,-26.0419 519.121,-19.4145"/>
</g>
<!-- Node17&#45;&gt;Node6 -->
<g id="edge30" class="edge"><title>Node17&#45;&gt;Node6</title>
<path fill="none" stroke="midnightblue" d="M653.629,-61.9751C648.63,-53.2268 640.711,-39.3691 634.391,-28.3093"/>
<polygon fill="midnightblue" stroke="midnightblue" points="637.363,-26.455 629.362,-19.5091 631.285,-29.928 637.363,-26.455"/>
</g>
<!-- Node17&#45;&gt;Node15 -->
<g id="edge29" class="edge"><title>Node17&#45;&gt;Node15</title>
<path fill="none" stroke="midnightblue" d="M696.181,-61.9751C744.816,-50.9723 829.174,-31.8874 879.722,-20.4516"/>
<polygon fill="midnightblue" stroke="midnightblue" points="880.684,-23.8225 889.666,-18.2021 879.14,-16.995 880.684,-23.8225"/>
</g>
<!-- Node18&#45;&gt;Node6 -->
<g id="edge36" class="edge"><title>Node18&#45;&gt;Node6</title>
<path fill="none" stroke="midnightblue" d="M606.263,-123.487C606.021,-109.349 606.17,-80.1912 610.5,-56 612.104,-47.0401 614.957,-37.3693 617.672,-29.2975"/>
<polygon fill="midnightblue" stroke="midnightblue" points="620.996,-30.3966 621.043,-19.8019 614.399,-28.0545 620.996,-30.3966"/>
</g>
<!-- Node18&#45;&gt;Node8 -->
<g id="edge35" class="edge"><title>Node18&#45;&gt;Node8</title>
<path fill="none" stroke="midnightblue" d="M594.035,-123.475C580.081,-113.931 557.235,-98.3073 540.509,-86.8683"/>
<polygon fill="midnightblue" stroke="midnightblue" points="542.172,-83.7653 531.942,-81.0091 538.22,-89.5433 542.172,-83.7653"/>
</g>
<!-- Node18&#45;&gt;Node17 -->
<g id="edge34" class="edge"><title>Node18&#45;&gt;Node17</title>
<path fill="none" stroke="midnightblue" d="M613.95,-123.475C621.828,-114.462 634.445,-100.025 644.244,-88.8118"/>
<polygon fill="midnightblue" stroke="midnightblue" points="647.118,-90.842 651.063,-81.0091 641.847,-86.2356 647.118,-90.842"/>
</g>
<!-- Node20 -->
<g id="node20" class="node"><title>Node20</title>
<g id="a_node20"><a xlink:href="enumerable__thread__specific_8h.html" target="_top" xlink:title="enumerable_thread_specific.h">
<polygon fill="white" stroke="red" points="724,-123.5 724,-142.5 885,-142.5 885,-123.5 724,-123.5"/>
<text text-anchor="middle" x="804.5" y="-130.5" font-family="Helvetica,sans-Serif" font-size="10.00">enumerable_thread_specific.h</text>
</a>
</g>
</g>
<!-- Node19&#45;&gt;Node20 -->
<g id="edge38" class="edge"><title>Node19&#45;&gt;Node20</title>
<path fill="none" stroke="midnightblue" d="M804.5,-179.083C804.5,-172.006 804.5,-161.861 804.5,-152.986"/>
<polygon fill="midnightblue" stroke="midnightblue" points="808,-152.751 804.5,-142.751 801,-152.751 808,-152.751"/>
</g>
<!-- Node21 -->
<g id="node21" class="node"><title>Node21</title>
<g id="a_node21"><a xlink:href="cache__aligned__allocator_8h.html" target="_top" xlink:title="cache_aligned_allocator.h">
<polygon fill="white" stroke="red" points="753.5,-62 753.5,-81 893.5,-81 893.5,-62 753.5,-62"/>
<text text-anchor="middle" x="823.5" y="-69" font-family="Helvetica,sans-Serif" font-size="10.00">cache_aligned_allocator.h</text>
</a>
</g>
</g>
<!-- Node19&#45;&gt;Node21 -->
<g id="edge47" class="edge"><title>Node19&#45;&gt;Node21</title>
<path fill="none" stroke="midnightblue" d="M841.202,-179.349C860.334,-172.775 882.072,-161.583 893.5,-143 907.68,-119.94 878.162,-98.6568 853.197,-85.639"/>
<polygon fill="midnightblue" stroke="midnightblue" points="854.468,-82.3629 843.953,-81.068 851.366,-88.6378 854.468,-82.3629"/>
</g>
<!-- Node20&#45;&gt;Node5 -->
<g id="edge45" class="edge"><title>Node20&#45;&gt;Node5</title>
<path fill="none" stroke="midnightblue" d="M723.871,-126.095C585.171,-115.809 312.051,-94.9421 268.5,-87 263.661,-86.1175 258.62,-84.9716 253.672,-83.7108"/>
<polygon fill="midnightblue" stroke="midnightblue" points="254.309,-80.2571 243.741,-81.0088 252.471,-87.0115 254.309,-80.2571"/>
</g>
<!-- Node20&#45;&gt;Node6 -->
<g id="edge39" class="edge"><title>Node20&#45;&gt;Node6</title>
<path fill="none" stroke="midnightblue" d="M792.438,-123.177C780.244,-114.206 760.908,-99.8373 744.5,-87 727.334,-73.5695 724.573,-68.1825 706.5,-56 688.828,-44.0878 667.724,-32.5624 651.351,-24.158"/>
<polygon fill="midnightblue" stroke="midnightblue" points="652.823,-20.9804 642.32,-19.591 649.664,-27.2271 652.823,-20.9804"/>
</g>
<!-- Node20&#45;&gt;Node8 -->
<g id="edge41" class="edge"><title>Node20&#45;&gt;Node8</title>
<path fill="none" stroke="midnightblue" d="M763.666,-123.475C712.663,-112.827 625.401,-94.6092 570.18,-83.0806"/>
<polygon fill="midnightblue" stroke="midnightblue" points="570.762,-79.6267 560.258,-81.0091 569.331,-86.479 570.762,-79.6267"/>
</g>
<!-- Node20&#45;&gt;Node9 -->
<g id="edge44" class="edge"><title>Node20&#45;&gt;Node9</title>
<path fill="none" stroke="midnightblue" d="M736.444,-123.475C644.187,-111.919 480.752,-91.4463 391.652,-80.2854"/>
<polygon fill="midnightblue" stroke="midnightblue" points="392.048,-76.8077 381.69,-79.0375 391.178,-83.7534 392.048,-76.8077"/>
</g>
<!-- Node20&#45;&gt;Node15 -->
<g id="edge46" class="edge"><title>Node20&#45;&gt;Node15</title>
<path fill="none" stroke="midnightblue" d="M841.539,-123.486C862.314,-116.867 887.077,-105.586 902.5,-87 915.908,-70.8426 920.054,-46.5351 921.233,-29.7825"/>
<polygon fill="midnightblue" stroke="midnightblue" points="924.739,-29.72 921.653,-19.5845 917.745,-29.4321 924.739,-29.72"/>
</g>
<!-- Node20&#45;&gt;Node17 -->
<g id="edge40" class="edge"><title>Node20&#45;&gt;Node17</title>
<path fill="none" stroke="midnightblue" d="M783.582,-123.475C758.754,-113.357 717.157,-96.4046 688.806,-84.8507"/>
<polygon fill="midnightblue" stroke="midnightblue" points="689.961,-81.5419 679.379,-81.0091 687.319,-88.0243 689.961,-81.5419"/>
</g>
<!-- Node20&#45;&gt;Node21 -->
<g id="edge42" class="edge"><title>Node20&#45;&gt;Node21</title>
<path fill="none" stroke="midnightblue" d="M807.222,-123.475C809.931,-114.992 814.174,-101.704 817.649,-90.8222"/>
<polygon fill="midnightblue" stroke="midnightblue" points="821.075,-91.5999 820.783,-81.0091 814.407,-89.4705 821.075,-91.5999"/>
</g>
<!-- Node21&#45;&gt;Node4 -->
<g id="edge43" class="edge"><title>Node21&#45;&gt;Node4</title>
<path fill="none" stroke="midnightblue" d="M774.786,-61.9751C709.949,-50.6285 595.996,-30.6868 531.514,-19.4025"/>
<polygon fill="midnightblue" stroke="midnightblue" points="532.059,-15.9447 521.605,-17.6684 530.852,-22.8399 532.059,-15.9447"/>
</g>
</g>
</svg>
        <g id="navigator" transform="translate(0 0)" fill="#404254">
                <rect fill="#f2f5e9" fill-opacity="0.5" stroke="#606060" stroke-width=".5" x="0" y="0" width="60" height="60"/>
                <use id="zoomplus" xlink:href="#zoomPlus" x="17" y="9" onmousedown="handleZoom(evt,'in')"/>
                <use id="zoomminus" xlink:href="#zoomMin" x="42" y="9" onmousedown="handleZoom(evt,'out')"/>
                <use id="reset" xlink:href="#resetDef" x="30" y="36" onmousedown="handleReset()"/>
                <g id="arrowUp" xlink:href="#dirArrow" transform="translate(30 24)" onmousedown="handlePan(0,-1)">
                  <use xlink:href="#rim" fill="#404040">
                        <set attributeName="fill" to="#808080" begin="arrowUp.mouseover" end="arrowUp.mouseout"/>
                  </use>
                  <path fill="none" stroke="white" stroke-width="1.5" d="M0,-3.0v7 M-2.5,-0.5L0,-3.0L2.5,-0.5"/>
                </g>
                <g id="arrowRight" xlink:href="#dirArrow" transform="rotate(90) translate(36 -43)" onmousedown="handlePan(1,0)">
                  <use xlink:href="#rim" fill="#404040">
                        <set attributeName="fill" to="#808080" begin="arrowRight.mouseover" end="arrowRight.mouseout"/>
                  </use>
                  <path fill="none" stroke="white" stroke-width="1.5" d="M0,-3.0v7 M-2.5,-0.5L0,-3.0L2.5,-0.5"/>
                </g>
                <g id="arrowDown" xlink:href="#dirArrow" transform="rotate(180) translate(-30 -48)" onmousedown="handlePan(0,1)">
                  <use xlink:href="#rim" fill="#404040">
                        <set attributeName="fill" to="#808080" begin="arrowDown.mouseover" end="arrowDown.mouseout"/>
                  </use>
                  <path fill="none" stroke="white" stroke-width="1.5" d="M0,-3.0v7 M-2.5,-0.5L0,-3.0L2.5,-0.5"/>
                </g>
                <g id="arrowLeft" xlink:href="#dirArrow" transform="rotate(270) translate(-36 17)" onmousedown="handlePan(-1,0)">
                  <use xlink:href="#rim" fill="#404040">
                        <set attributeName="fill" to="#808080" begin="arrowLeft.mouseover" end="arrowLeft.mouseout"/>
                  </use>
                  <path fill="none" stroke="white" stroke-width="1.5" d="M0,-3.0v7 M-2.5,-0.5L0,-3.0L2.5,-0.5"/>
                </g>
        </g>
        <svg viewBox="0 0 15 15" width="100%" height="30px" preserveAspectRatio="xMaxYMin meet">
         <g id="arrow_out" transform="scale(0.3 0.3)">
          <a xlink:href="ppl_8h__incl_org.svg" target="_base">
           <rect id="button" ry="5" rx="5" y="6" x="6" height="38" width="38"
                fill="#f2f5e9" fill-opacity="0.5" stroke="#606060" stroke-width="1.0"/>
           <path id="arrow"
             d="M 11.500037,31.436501 C 11.940474,20.09759 22.043105,11.32322 32.158766,21.979434 L 37.068811,17.246167 C 37.068811,17.246167 37.088388,32 37.088388,32 L 22.160133,31.978069 C 22.160133,31.978069 26.997745,27.140456 26.997745,27.140456 C 18.528582,18.264221 13.291696,25.230495 11.500037,31.436501 z"
             style="fill:#404040;"/>
          </a>
         </g>
        </svg>
</svg>
