<?xml version="1.0" encoding="UTF-8" standalone="no"?>
<!DOCTYPE svg PUBLIC "-//W3C//DTD SVG 1.1//EN"
 "http://www.w3.org/Graphics/SVG/1.1/DTD/svg11.dtd">
<!-- Generated by graphviz version 2.38.0 (20140413.2041)
 -->
<!-- Title: /home/travis/build/ComPWA/ComPWA/ThirdParty/tbb/src/tbb/private_server.cpp Pages: 1 -->
<svg width="1302pt" height="408pt"
 viewBox="0.00 0.00 1301.57 408.00" xmlns="http://www.w3.org/2000/svg" xmlns:xlink="http://www.w3.org/1999/xlink">
<g id="graph0" class="graph" transform="scale(1 1) rotate(0) translate(4 404)">
<title>/home/travis/build/ComPWA/ComPWA/ThirdParty/tbb/src/tbb/private_server.cpp</title>
<polygon fill="white" stroke="none" points="-4,4 -4,-404 1297.57,-404 1297.57,4 -4,4"/>
<!-- Node1 -->
<g id="node1" class="node"><title>Node1</title>
<polygon fill="#bfbfbf" stroke="black" points="762.074,-358.5 762.074,-399.5 924.074,-399.5 924.074,-358.5 762.074,-358.5"/>
<text text-anchor="start" x="770.074" y="-387.5" font-family="Helvetica,sans-Serif" font-size="10.00">/home/travis/build</text>
<text text-anchor="start" x="770.074" y="-376.5" font-family="Helvetica,sans-Serif" font-size="10.00">/ComPWA/ComPWA/ThirdParty</text>
<text text-anchor="middle" x="843.074" y="-365.5" font-family="Helvetica,sans-Serif" font-size="10.00">/tbb/src/tbb/private_server.cpp</text>
</g>
<!-- Node2 -->
<g id="node2" class="node"><title>Node2</title>
<g id="a_node2"><a xlink:href="rml__tbb_8h.html" target="_top" xlink:title="../rml/include/rml\l_tbb.h">
<polygon fill="white" stroke="black" points="102.574,-235.5 102.574,-265.5 199.574,-265.5 199.574,-235.5 102.574,-235.5"/>
<text text-anchor="start" x="110.574" y="-253.5" font-family="Helvetica,sans-Serif" font-size="10.00">../rml/include/rml</text>
<text text-anchor="middle" x="151.074" y="-242.5" font-family="Helvetica,sans-Serif" font-size="10.00">_tbb.h</text>
</a>
</g>
</g>
<!-- Node1&#45;&gt;Node2 -->
<g id="edge1" class="edge"><title>Node1&#45;&gt;Node2</title>
<path fill="none" stroke="midnightblue" d="M761.695,-370.441C675.589,-361.712 535.995,-345.475 417.074,-322 343.386,-307.454 259.884,-284.185 206.413,-268.394"/>
<polygon fill="midnightblue" stroke="midnightblue" points="207.371,-265.027 196.788,-265.536 205.378,-271.737 207.371,-265.027"/>
</g>
<!-- Node5 -->
<g id="node5" class="node"><title>Node5</title>
<g id="a_node5"><a xlink:href="thread__monitor_8h.html" target="_top" xlink:title="../rml/server/thread\l_monitor.h">
<polygon fill="white" stroke="black" points="1080.57,-235.5 1080.57,-265.5 1189.57,-265.5 1189.57,-235.5 1080.57,-235.5"/>
<text text-anchor="start" x="1088.57" y="-253.5" font-family="Helvetica,sans-Serif" font-size="10.00">../rml/server/thread</text>
<text text-anchor="middle" x="1135.07" y="-242.5" font-family="Helvetica,sans-Serif" font-size="10.00">_monitor.h</text>
</a>
</g>
</g>
<!-- Node1&#45;&gt;Node5 -->
<g id="edge4" class="edge"><title>Node1&#45;&gt;Node5</title>
<path fill="none" stroke="midnightblue" d="M895.723,-358.375C922.889,-347.998 956.455,-334.788 986.074,-322 1024.48,-305.417 1067.61,-284.785 1097.54,-270.136"/>
<polygon fill="midnightblue" stroke="midnightblue" points="1099.34,-273.151 1106.77,-265.602 1096.26,-266.868 1099.34,-273.151"/>
</g>
<!-- Node9 -->
<g id="node9" class="node"><title>Node9</title>
<g id="a_node9"><a xlink:href="atomic_8h.html" target="_top" xlink:title="tbb/atomic.h">
<polygon fill="white" stroke="red" points="821.574,-179.5 821.574,-198.5 898.574,-198.5 898.574,-179.5 821.574,-179.5"/>
<text text-anchor="middle" x="860.074" y="-186.5" font-family="Helvetica,sans-Serif" font-size="10.00">tbb/atomic.h</text>
</a>
</g>
</g>
<!-- Node1&#45;&gt;Node9 -->
<g id="edge15" class="edge"><title>Node1&#45;&gt;Node9</title>
<path fill="none" stroke="midnightblue" d="M844.861,-358.236C848.153,-321.827 855.134,-244.623 858.366,-208.883"/>
<polygon fill="midnightblue" stroke="midnightblue" points="861.859,-209.116 859.274,-198.841 854.888,-208.485 861.859,-209.116"/>
</g>
<!-- Node12 -->
<g id="node12" class="node"><title>Node12</title>
<g id="a_node12"><a xlink:href="cache__aligned__allocator_8h.html" target="_top" xlink:title="tbb/cache_aligned_allocator.h">
<polygon fill="white" stroke="black" points="102.074,-179.5 102.074,-198.5 260.074,-198.5 260.074,-179.5 102.074,-179.5"/>
<text text-anchor="middle" x="181.074" y="-186.5" font-family="Helvetica,sans-Serif" font-size="10.00">tbb/cache_aligned_allocator.h</text>
</a>
</g>
</g>
<!-- Node1&#45;&gt;Node12 -->
<g id="edge16" class="edge"><title>Node1&#45;&gt;Node12</title>
<path fill="none" stroke="midnightblue" d="M774.102,-358.413C636.174,-319.243 330.219,-232.355 220.879,-201.304"/>
<polygon fill="midnightblue" stroke="midnightblue" points="221.8,-197.928 211.225,-198.563 219.888,-204.661 221.8,-197.928"/>
</g>
<!-- Node14 -->
<g id="node14" class="node"><title>Node14</title>
<g id="a_node14"><a xlink:href="scheduler__common_8h.html" target="_top" xlink:title="scheduler_common.h">
<polygon fill="white" stroke="black" points="560.074,-241 560.074,-260 680.074,-260 680.074,-241 560.074,-241"/>
<text text-anchor="middle" x="620.074" y="-248" font-family="Helvetica,sans-Serif" font-size="10.00">scheduler_common.h</text>
</a>
</g>
</g>
<!-- Node1&#45;&gt;Node14 -->
<g id="edge19" class="edge"><title>Node1&#45;&gt;Node14</title>
<path fill="none" stroke="midnightblue" d="M808.23,-358.234C762.527,-332.309 683.522,-287.492 644.016,-265.082"/>
<polygon fill="midnightblue" stroke="midnightblue" points="645.739,-262.035 635.314,-260.145 642.285,-268.123 645.739,-262.035"/>
</g>
<!-- Node21 -->
<g id="node21" class="node"><title>Node21</title>
<g id="a_node21"><a xlink:href="governor_8h.html" target="_top" xlink:title="governor.h">
<polygon fill="white" stroke="black" points="909.074,-302.5 909.074,-321.5 977.074,-321.5 977.074,-302.5 909.074,-302.5"/>
<text text-anchor="middle" x="943.074" y="-309.5" font-family="Helvetica,sans-Serif" font-size="10.00">governor.h</text>
</a>
</g>
</g>
<!-- Node1&#45;&gt;Node21 -->
<g id="edge36" class="edge"><title>Node1&#45;&gt;Node21</title>
<path fill="none" stroke="midnightblue" d="M873.077,-358.498C888.556,-348.436 907.097,-336.385 921.207,-327.214"/>
<polygon fill="midnightblue" stroke="midnightblue" points="923.285,-330.037 929.762,-321.652 919.47,-324.168 923.285,-330.037"/>
</g>
<!-- Node23 -->
<g id="node23" class="node"><title>Node23</title>
<g id="a_node23"><a xlink:href="tbb__misc_8h.html" target="_top" xlink:title="tbb_misc.h">
<polygon fill="white" stroke="black" points="892.574,-241 892.574,-260 961.574,-260 961.574,-241 892.574,-241"/>
<text text-anchor="middle" x="927.074" y="-248" font-family="Helvetica,sans-Serif" font-size="10.00">tbb_misc.h</text>
</a>
</g>
</g>
<!-- Node1&#45;&gt;Node23 -->
<g id="edge45" class="edge"><title>Node1&#45;&gt;Node23</title>
<path fill="none" stroke="midnightblue" d="M856.199,-358.234C872.502,-333.683 900.055,-292.188 915.568,-268.827"/>
<polygon fill="midnightblue" stroke="midnightblue" points="918.618,-270.562 921.234,-260.295 912.786,-266.689 918.618,-270.562"/>
</g>
<!-- Node3 -->
<g id="node3" class="node"><title>Node3</title>
<g id="a_node3"><a xlink:href="tbb__config_8h.html" target="_top" xlink:title="tbb/tbb_config.h">
<polygon fill="white" stroke="red" points="261.074,-0.5 261.074,-19.5 355.074,-19.5 355.074,-0.5 261.074,-0.5"/>
<text text-anchor="middle" x="308.074" y="-7.5" font-family="Helvetica,sans-Serif" font-size="10.00">tbb/tbb_config.h</text>
</a>
</g>
</g>
<!-- Node2&#45;&gt;Node3 -->
<g id="edge2" class="edge"><title>Node2&#45;&gt;Node3</title>
<path fill="none" stroke="midnightblue" d="M102.214,-244.614C51.0338,-237.27 -18.853,-219.625 5.07373,-179 59.9162,-85.8841 187.02,-40.7212 257.946,-22.0666"/>
<polygon fill="midnightblue" stroke="midnightblue" points="259.163,-25.3681 267.987,-19.504 257.432,-18.5855 259.163,-25.3681"/>
</g>
<!-- Node4 -->
<g id="node4" class="node"><title>Node4</title>
<g id="a_node4"><a xlink:href="rml__base_8h.html" target="_top" xlink:title="rml_base.h">
<polygon fill="white" stroke="red" points="14.0737,-179.5 14.0737,-198.5 84.0737,-198.5 84.0737,-179.5 14.0737,-179.5"/>
<text text-anchor="middle" x="49.0737" y="-186.5" font-family="Helvetica,sans-Serif" font-size="10.00">rml_base.h</text>
</a>
</g>
</g>
<!-- Node2&#45;&gt;Node4 -->
<g id="edge3" class="edge"><title>Node2&#45;&gt;Node4</title>
<path fill="none" stroke="midnightblue" d="M126.901,-235.399C110.551,-225.862 89.0591,-213.325 72.8032,-203.842"/>
<polygon fill="midnightblue" stroke="midnightblue" points="74.317,-200.673 63.9156,-198.658 70.7899,-206.72 74.317,-200.673"/>
</g>
<!-- Node6 -->
<g id="node6" class="node"><title>Node6</title>
<polygon fill="white" stroke="#bfbfbf" points="1057.57,-179.5 1057.57,-198.5 1106.57,-198.5 1106.57,-179.5 1057.57,-179.5"/>
<text text-anchor="middle" x="1082.07" y="-186.5" font-family="Helvetica,sans-Serif" font-size="10.00">stdio.h</text>
</g>
<!-- Node5&#45;&gt;Node6 -->
<g id="edge5" class="edge"><title>Node5&#45;&gt;Node6</title>
<path fill="none" stroke="midnightblue" d="M1122.51,-235.399C1114.73,-226.664 1104.71,-215.413 1096.59,-206.296"/>
<polygon fill="midnightblue" stroke="midnightblue" points="1099.05,-203.797 1089.79,-198.658 1093.82,-208.453 1099.05,-203.797"/>
</g>
<!-- Node7 -->
<g id="node7" class="node"><title>Node7</title>
<g id="a_node7"><a xlink:href="itt__notify_8h.html" target="_top" xlink:title="tbb/itt_notify.h">
<polygon fill="white" stroke="black" points="1074.07,-118 1074.07,-137 1158.07,-137 1158.07,-118 1074.07,-118"/>
<text text-anchor="middle" x="1116.07" y="-125" font-family="Helvetica,sans-Serif" font-size="10.00">tbb/itt_notify.h</text>
</a>
</g>
</g>
<!-- Node5&#45;&gt;Node7 -->
<g id="edge6" class="edge"><title>Node5&#45;&gt;Node7</title>
<path fill="none" stroke="midnightblue" d="M1132.82,-235.145C1129.37,-213.203 1122.8,-171.327 1118.99,-147.091"/>
<polygon fill="midnightblue" stroke="midnightblue" points="1122.43,-146.388 1117.42,-137.052 1115.51,-147.474 1122.43,-146.388"/>
</g>
<!-- Node5&#45;&gt;Node9 -->
<g id="edge9" class="edge"><title>Node5&#45;&gt;Node9</title>
<path fill="none" stroke="midnightblue" d="M1080.27,-237.036C1077.16,-236.343 1074.08,-235.661 1071.07,-235 1015.36,-222.749 951.265,-209.149 908.473,-200.14"/>
<polygon fill="midnightblue" stroke="midnightblue" points="909.114,-196.698 898.608,-198.065 907.673,-203.549 909.114,-196.698"/>
</g>
<!-- Node11 -->
<g id="node11" class="node"><title>Node11</title>
<g id="a_node11"><a xlink:href="semaphore_8h.html" target="_top" xlink:title="tbb/semaphore.h">
<polygon fill="white" stroke="black" points="1176.57,-118 1176.57,-137 1275.57,-137 1275.57,-118 1176.57,-118"/>
<text text-anchor="middle" x="1226.07" y="-125" font-family="Helvetica,sans-Serif" font-size="10.00">tbb/semaphore.h</text>
</a>
</g>
</g>
<!-- Node5&#45;&gt;Node11 -->
<g id="edge12" class="edge"><title>Node5&#45;&gt;Node11</title>
<path fill="none" stroke="midnightblue" d="M1145.87,-235.145C1162.82,-212.608 1195.59,-169.038 1213.55,-145.156"/>
<polygon fill="midnightblue" stroke="midnightblue" points="1216.43,-147.148 1219.64,-137.052 1210.83,-142.941 1216.43,-147.148"/>
</g>
<!-- Node8 -->
<g id="node8" class="node"><title>Node8</title>
<g id="a_node8"><a xlink:href="tbb__stddef_8h.html" target="_top" xlink:title="tbb/tbb_stddef.h">
<polygon fill="white" stroke="red" points="583.574,-56.5 583.574,-75.5 678.574,-75.5 678.574,-56.5 583.574,-56.5"/>
<text text-anchor="middle" x="631.074" y="-63.5" font-family="Helvetica,sans-Serif" font-size="10.00">tbb/tbb_stddef.h</text>
</a>
</g>
</g>
<!-- Node7&#45;&gt;Node8 -->
<g id="edge7" class="edge"><title>Node7&#45;&gt;Node8</title>
<path fill="none" stroke="midnightblue" d="M1089.29,-117.94C1081.54,-115.723 1073.03,-113.531 1065.07,-112 931.721,-86.3313 772.305,-74.5455 688.725,-69.7865"/>
<polygon fill="midnightblue" stroke="midnightblue" points="688.849,-66.288 678.67,-69.2272 688.46,-73.2772 688.849,-66.288"/>
</g>
<!-- Node8&#45;&gt;Node3 -->
<g id="edge8" class="edge"><title>Node8&#45;&gt;Node3</title>
<path fill="none" stroke="midnightblue" d="M583.414,-57.0321C525.317,-47.3192 427.229,-30.9206 365.159,-20.5436"/>
<polygon fill="midnightblue" stroke="midnightblue" points="365.581,-17.0657 355.141,-18.8688 364.427,-23.9699 365.581,-17.0657"/>
</g>
<!-- Node10 -->
<g id="node10" class="node"><title>Node10</title>
<g id="a_node10"><a xlink:href="tbb__machine_8h.html" target="_top" xlink:title="tbb_machine.h">
<polygon fill="white" stroke="black" points="587.074,-118 587.074,-137 675.074,-137 675.074,-118 587.074,-118"/>
<text text-anchor="middle" x="631.074" y="-125" font-family="Helvetica,sans-Serif" font-size="10.00">tbb_machine.h</text>
</a>
</g>
</g>
<!-- Node9&#45;&gt;Node10 -->
<g id="edge10" class="edge"><title>Node9&#45;&gt;Node10</title>
<path fill="none" stroke="midnightblue" d="M827.264,-179.475C786.877,-168.982 718.197,-151.137 673.745,-139.587"/>
<polygon fill="midnightblue" stroke="midnightblue" points="674.382,-136.136 663.823,-137.009 672.621,-142.911 674.382,-136.136"/>
</g>
<!-- Node10&#45;&gt;Node8 -->
<g id="edge11" class="edge"><title>Node10&#45;&gt;Node8</title>
<path fill="none" stroke="midnightblue" d="M631.074,-117.975C631.074,-109.58 631.074,-96.4806 631.074,-85.6631"/>
<polygon fill="midnightblue" stroke="midnightblue" points="634.574,-85.5091 631.074,-75.5091 627.574,-85.5091 634.574,-85.5091"/>
</g>
<!-- Node11&#45;&gt;Node8 -->
<g id="edge13" class="edge"><title>Node11&#45;&gt;Node8</title>
<path fill="none" stroke="midnightblue" d="M1195.34,-117.977C1186.29,-115.733 1176.34,-113.518 1167.07,-112 994.404,-83.7142 787.361,-72.7276 688.758,-68.8697"/>
<polygon fill="midnightblue" stroke="midnightblue" points="688.83,-65.37 678.703,-68.4865 688.563,-72.3649 688.83,-65.37"/>
</g>
<!-- Node11&#45;&gt;Node11 -->
<g id="edge14" class="edge"><title>Node11&#45;&gt;Node11</title>
<path fill="none" stroke="midnightblue" d="M1251,-137.033C1271.82,-141.107 1293.57,-137.93 1293.57,-127.5 1293.57,-118.781 1278.37,-115.13 1261.22,-116.547"/>
<polygon fill="midnightblue" stroke="midnightblue" points="1260.42,-113.124 1251,-117.967 1261.38,-120.058 1260.42,-113.124"/>
</g>
<!-- Node12&#45;&gt;Node8 -->
<g id="edge18" class="edge"><title>Node12&#45;&gt;Node8</title>
<path fill="none" stroke="midnightblue" d="M191.766,-179.448C212.584,-163.298 260.598,-128.46 307.074,-112 396.505,-80.3267 507.195,-70.8284 573.311,-68.0516"/>
<polygon fill="midnightblue" stroke="midnightblue" points="573.671,-71.5405 583.53,-67.6613 573.403,-64.5456 573.671,-71.5405"/>
</g>
<!-- Node13 -->
<g id="node13" class="node"><title>Node13</title>
<polygon fill="white" stroke="#bfbfbf" points="316.574,-118 316.574,-137 351.574,-137 351.574,-118 316.574,-118"/>
<text text-anchor="middle" x="334.074" y="-125" font-family="Helvetica,sans-Serif" font-size="10.00">new</text>
</g>
<!-- Node12&#45;&gt;Node13 -->
<g id="edge17" class="edge"><title>Node12&#45;&gt;Node13</title>
<path fill="none" stroke="midnightblue" d="M202.995,-179.475C230.462,-168.793 277.518,-150.494 307.147,-138.971"/>
<polygon fill="midnightblue" stroke="midnightblue" points="308.422,-142.231 316.474,-135.344 305.885,-135.707 308.422,-142.231"/>
</g>
<!-- Node14&#45;&gt;Node10 -->
<g id="edge20" class="edge"><title>Node14&#45;&gt;Node10</title>
<path fill="none" stroke="midnightblue" d="M620.865,-240.798C622.633,-221.35 626.938,-173.99 629.355,-147.404"/>
<polygon fill="midnightblue" stroke="midnightblue" points="632.87,-147.399 630.29,-137.123 625.899,-146.765 632.87,-147.399"/>
</g>
<!-- Node14&#45;&gt;Node12 -->
<g id="edge21" class="edge"><title>Node14&#45;&gt;Node12</title>
<path fill="none" stroke="midnightblue" d="M559.953,-241.352C480.217,-230.544 339.6,-211.486 253.925,-199.874"/>
<polygon fill="midnightblue" stroke="midnightblue" points="254.393,-196.405 244.014,-198.531 253.453,-203.342 254.393,-196.405"/>
</g>
<!-- Node15 -->
<g id="node15" class="node"><title>Node15</title>
<polygon fill="white" stroke="#bfbfbf" points="711.574,-179.5 711.574,-198.5 764.574,-198.5 764.574,-179.5 711.574,-179.5"/>
<text text-anchor="middle" x="738.074" y="-186.5" font-family="Helvetica,sans-Serif" font-size="10.00">string.h</text>
</g>
<!-- Node14&#45;&gt;Node15 -->
<g id="edge22" class="edge"><title>Node14&#45;&gt;Node15</title>
<path fill="none" stroke="midnightblue" d="M636.98,-240.975C656.608,-231.078 689.205,-214.642 712.064,-203.115"/>
<polygon fill="midnightblue" stroke="midnightblue" points="713.845,-206.137 721.199,-198.509 710.694,-199.886 713.845,-206.137"/>
</g>
<!-- Node16 -->
<g id="node16" class="node"><title>Node16</title>
<g id="a_node16"><a xlink:href="tbb__statistics_8h.html" target="_top" xlink:title="tbb_statistics.h">
<polygon fill="white" stroke="black" points="720.574,-118 720.574,-137 809.574,-137 809.574,-118 720.574,-118"/>
<text text-anchor="middle" x="765.074" y="-125" font-family="Helvetica,sans-Serif" font-size="10.00">tbb_statistics.h</text>
</a>
</g>
</g>
<!-- Node14&#45;&gt;Node16 -->
<g id="edge23" class="edge"><title>Node14&#45;&gt;Node16</title>
<path fill="none" stroke="midnightblue" d="M680.454,-246.074C713.547,-240.738 752.014,-228.128 773.074,-199 783.981,-183.914 779.222,-162.071 773.493,-146.706"/>
<polygon fill="midnightblue" stroke="midnightblue" points="776.635,-145.146 769.552,-137.266 770.175,-147.843 776.635,-145.146"/>
</g>
<!-- Node17 -->
<g id="node17" class="node"><title>Node17</title>
<g id="a_node17"><a xlink:href="task_8h.html" target="_top" xlink:title="tbb/task.h">
<polygon fill="white" stroke="red" points="526.574,-179.5 526.574,-198.5 591.574,-198.5 591.574,-179.5 526.574,-179.5"/>
<text text-anchor="middle" x="559.074" y="-186.5" font-family="Helvetica,sans-Serif" font-size="10.00">tbb/task.h</text>
</a>
</g>
</g>
<!-- Node14&#45;&gt;Node17 -->
<g id="edge25" class="edge"><title>Node14&#45;&gt;Node17</title>
<path fill="none" stroke="midnightblue" d="M611.334,-240.975C601.912,-231.785 586.71,-216.956 575.124,-205.656"/>
<polygon fill="midnightblue" stroke="midnightblue" points="577.4,-202.986 567.797,-198.509 572.512,-207.997 577.4,-202.986"/>
</g>
<!-- Node18 -->
<g id="node18" class="node"><title>Node18</title>
<g id="a_node18"><a xlink:href="tbb__exception_8h.html" target="_top" xlink:title="tbb/tbb_exception.h">
<polygon fill="white" stroke="red" points="278.074,-179.5 278.074,-198.5 390.074,-198.5 390.074,-179.5 278.074,-179.5"/>
<text text-anchor="middle" x="334.074" y="-186.5" font-family="Helvetica,sans-Serif" font-size="10.00">tbb/tbb_exception.h</text>
</a>
</g>
</g>
<!-- Node14&#45;&gt;Node18 -->
<g id="edge28" class="edge"><title>Node14&#45;&gt;Node18</title>
<path fill="none" stroke="midnightblue" d="M579.097,-240.975C527.914,-230.327 440.346,-212.109 384.932,-200.581"/>
<polygon fill="midnightblue" stroke="midnightblue" points="385.478,-197.119 374.975,-198.509 384.052,-203.973 385.478,-197.119"/>
</g>
<!-- Node19 -->
<g id="node19" class="node"><title>Node19</title>
<g id="a_node19"><a xlink:href="spin__mutex_8h.html" target="_top" xlink:title="tbb/spin_mutex.h">
<polygon fill="white" stroke="red" points="408.074,-179.5 408.074,-198.5 508.074,-198.5 508.074,-179.5 408.074,-179.5"/>
<text text-anchor="middle" x="458.074" y="-186.5" font-family="Helvetica,sans-Serif" font-size="10.00">tbb/spin_mutex.h</text>
</a>
</g>
</g>
<!-- Node14&#45;&gt;Node19 -->
<g id="edge31" class="edge"><title>Node14&#45;&gt;Node19</title>
<path fill="none" stroke="midnightblue" d="M596.863,-240.975C569.074,-230.769 522.351,-213.608 490.88,-202.049"/>
<polygon fill="midnightblue" stroke="midnightblue" points="491.835,-198.671 481.241,-198.509 489.422,-205.242 491.835,-198.671"/>
</g>
<!-- Node20 -->
<g id="node20" class="node"><title>Node20</title>
<polygon fill="white" stroke="#bfbfbf" points="648.574,-179.5 648.574,-198.5 693.574,-198.5 693.574,-179.5 648.574,-179.5"/>
<text text-anchor="middle" x="671.074" y="-186.5" font-family="Helvetica,sans-Serif" font-size="10.00">fenv.h</text>
</g>
<!-- Node14&#45;&gt;Node20 -->
<g id="edge35" class="edge"><title>Node14&#45;&gt;Node20</title>
<path fill="none" stroke="midnightblue" d="M627.381,-240.975C635.107,-231.962 647.481,-217.525 657.092,-206.312"/>
<polygon fill="midnightblue" stroke="midnightblue" points="659.93,-208.379 663.78,-198.509 654.615,-203.824 659.93,-208.379"/>
</g>
<!-- Node16&#45;&gt;Node8 -->
<g id="edge24" class="edge"><title>Node16&#45;&gt;Node8</title>
<path fill="none" stroke="midnightblue" d="M745.875,-117.975C723.287,-107.945 685.575,-91.2002 659.573,-79.6546"/>
<polygon fill="midnightblue" stroke="midnightblue" points="660.797,-76.3685 650.237,-75.5091 657.956,-82.7662 660.797,-76.3685"/>
</g>
<!-- Node17&#45;&gt;Node8 -->
<g id="edge26" class="edge"><title>Node17&#45;&gt;Node8</title>
<path fill="none" stroke="midnightblue" d="M559.527,-179.359C560.659,-164.525 564.58,-133.719 578.074,-112 585.638,-99.8245 597.589,-89.2619 608.229,-81.4356"/>
<polygon fill="midnightblue" stroke="midnightblue" points="610.516,-84.1086 616.733,-75.5298 606.523,-78.359 610.516,-84.1086"/>
</g>
<!-- Node17&#45;&gt;Node10 -->
<g id="edge27" class="edge"><title>Node17&#45;&gt;Node10</title>
<path fill="none" stroke="midnightblue" d="M569.39,-179.475C580.724,-170.108 599.147,-154.884 612.913,-143.508"/>
<polygon fill="midnightblue" stroke="midnightblue" points="615.298,-146.077 620.777,-137.009 610.839,-140.681 615.298,-146.077"/>
</g>
<!-- Node18&#45;&gt;Node8 -->
<g id="edge29" class="edge"><title>Node18&#45;&gt;Node8</title>
<path fill="none" stroke="midnightblue" d="M353.82,-179.499C387.009,-165.259 456.136,-135.8 515.074,-112 543.291,-100.605 575.58,-88.1246 598.915,-79.2035"/>
<polygon fill="midnightblue" stroke="midnightblue" points="600.234,-82.4464 608.329,-75.6117 597.738,-75.9062 600.234,-82.4464"/>
</g>
<!-- Node18&#45;&gt;Node13 -->
<g id="edge30" class="edge"><title>Node18&#45;&gt;Node13</title>
<path fill="none" stroke="midnightblue" d="M334.074,-179.475C334.074,-171.08 334.074,-157.981 334.074,-147.163"/>
<polygon fill="midnightblue" stroke="midnightblue" points="337.574,-147.009 334.074,-137.009 330.574,-147.009 337.574,-147.009"/>
</g>
<!-- Node19&#45;&gt;Node8 -->
<g id="edge33" class="edge"><title>Node19&#45;&gt;Node8</title>
<path fill="none" stroke="midnightblue" d="M469.472,-179.363C488.457,-165.048 527.85,-135.64 562.074,-112 577.467,-101.367 595.145,-89.8511 608.754,-81.1306"/>
<polygon fill="midnightblue" stroke="midnightblue" points="610.898,-83.914 617.447,-75.5852 607.134,-78.0125 610.898,-83.914"/>
</g>
<!-- Node19&#45;&gt;Node10 -->
<g id="edge34" class="edge"><title>Node19&#45;&gt;Node10</title>
<path fill="none" stroke="midnightblue" d="M482.86,-179.475C512.665,-169.225 562.864,-151.959 596.476,-140.399"/>
<polygon fill="midnightblue" stroke="midnightblue" points="598.015,-143.571 606.333,-137.009 595.738,-136.952 598.015,-143.571"/>
</g>
<!-- Node19&#45;&gt;Node13 -->
<g id="edge32" class="edge"><title>Node19&#45;&gt;Node13</title>
<path fill="none" stroke="midnightblue" d="M440.308,-179.475C419.59,-169.534 385.122,-152.995 361.085,-141.461"/>
<polygon fill="midnightblue" stroke="midnightblue" points="362.337,-138.18 351.807,-137.009 359.309,-144.491 362.337,-138.18"/>
</g>
<!-- Node21&#45;&gt;Node2 -->
<g id="edge39" class="edge"><title>Node21&#45;&gt;Node2</title>
<path fill="none" stroke="midnightblue" d="M909.042,-308.443C786.396,-299.229 366.069,-267.652 210.016,-255.928"/>
<polygon fill="midnightblue" stroke="midnightblue" points="209.919,-252.411 199.684,-255.152 209.394,-259.391 209.919,-252.411"/>
</g>
<!-- Node22 -->
<g id="node22" class="node"><title>Node22</title>
<g id="a_node22"><a xlink:href="task__scheduler__init_8h.html" target="_top" xlink:title="tbb/task_scheduler\l_init.h">
<polygon fill="white" stroke="red" points="949.574,-112.5 949.574,-142.5 1056.57,-142.5 1056.57,-112.5 949.574,-112.5"/>
<text text-anchor="start" x="957.574" y="-130.5" font-family="Helvetica,sans-Serif" font-size="10.00">tbb/task_scheduler</text>
<text text-anchor="middle" x="1003.07" y="-119.5" font-family="Helvetica,sans-Serif" font-size="10.00">_init.h</text>
</a>
</g>
</g>
<!-- Node21&#45;&gt;Node22 -->
<g id="edge37" class="edge"><title>Node21&#45;&gt;Node22</title>
<path fill="none" stroke="midnightblue" d="M949.29,-302.454C955.391,-293.699 964.559,-279.494 970.074,-266 985.652,-227.883 994.983,-180.686 999.566,-152.672"/>
<polygon fill="midnightblue" stroke="midnightblue" points="1003.05,-153.017 1001.14,-142.596 996.139,-151.934 1003.05,-153.017"/>
</g>
<!-- Node21&#45;&gt;Node23 -->
<g id="edge40" class="edge"><title>Node21&#45;&gt;Node23</title>
<path fill="none" stroke="midnightblue" d="M940.781,-302.475C938.5,-293.992 934.927,-280.704 932.001,-269.822"/>
<polygon fill="midnightblue" stroke="midnightblue" points="935.339,-268.757 929.362,-260.009 928.579,-270.575 935.339,-268.757"/>
</g>
<!-- Node24 -->
<g id="node24" class="node"><title>Node24</title>
<g id="a_node24"><a xlink:href="tls_8h.html" target="_top" xlink:title="tls.h">
<polygon fill="white" stroke="red" points="1025.57,-241 1025.57,-260 1062.57,-260 1062.57,-241 1025.57,-241"/>
<text text-anchor="middle" x="1044.07" y="-248" font-family="Helvetica,sans-Serif" font-size="10.00">tls.h</text>
</a>
</g>
</g>
<!-- Node21&#45;&gt;Node24 -->
<g id="edge44" class="edge"><title>Node21&#45;&gt;Node24</title>
<path fill="none" stroke="midnightblue" d="M957.545,-302.475C974.045,-292.755 1001.25,-276.727 1020.76,-265.237"/>
<polygon fill="midnightblue" stroke="midnightblue" points="1022.79,-268.101 1029.63,-260.009 1019.24,-262.069 1022.79,-268.101"/>
</g>
<!-- Node22&#45;&gt;Node8 -->
<g id="edge38" class="edge"><title>Node22&#45;&gt;Node8</title>
<path fill="none" stroke="midnightblue" d="M949.314,-114.709C944.506,-113.754 939.707,-112.836 935.074,-112 849.704,-96.5955 750.145,-82.6061 688.858,-74.4483"/>
<polygon fill="midnightblue" stroke="midnightblue" points="688.989,-70.9352 678.616,-73.0919 688.07,-77.8746 688.989,-70.9352"/>
</g>
<!-- Node23&#45;&gt;Node8 -->
<g id="edge41" class="edge"><title>Node23&#45;&gt;Node8</title>
<path fill="none" stroke="midnightblue" d="M929.884,-240.567C933.763,-226.466 939.106,-198.636 928.074,-179 900.036,-129.093 870.984,-133.849 818.074,-112 776.461,-94.8165 726.812,-83.2511 689.133,-76.1523"/>
<polygon fill="midnightblue" stroke="midnightblue" points="689.307,-72.6259 678.84,-74.2675 688.046,-79.5115 689.307,-72.6259"/>
</g>
<!-- Node23&#45;&gt;Node9 -->
<g id="edge43" class="edge"><title>Node23&#45;&gt;Node9</title>
<path fill="none" stroke="midnightblue" d="M917.474,-240.975C907.026,-231.697 890.106,-216.671 877.337,-205.331"/>
<polygon fill="midnightblue" stroke="midnightblue" points="879.457,-202.532 869.655,-198.509 874.809,-207.766 879.457,-202.532"/>
</g>
<!-- Node23&#45;&gt;Node10 -->
<g id="edge42" class="edge"><title>Node23&#45;&gt;Node10</title>
<path fill="none" stroke="midnightblue" d="M927.337,-240.625C927.263,-225.567 924.774,-195.087 907.074,-179 906.558,-178.531 765.488,-152.881 685.258,-138.323"/>
<polygon fill="midnightblue" stroke="midnightblue" points="685.778,-134.861 675.314,-136.519 684.528,-141.748 685.778,-134.861"/>
</g>
</g>
</svg>
