<?xml version="1.0" encoding="UTF-8" standalone="no"?>
<!DOCTYPE svg PUBLIC "-//W3C//DTD SVG 1.1//EN"
 "http://www.w3.org/Graphics/SVG/1.1/DTD/svg11.dtd">
<!-- Generated by graphviz version 2.38.0 (20140413.2041)
 -->
<!-- Title: /home/travis/build/ComPWA/ComPWA/Core/Properties.hpp Pages: 1 -->
<svg width="853pt" height="240pt"
 viewBox="0.00 0.00 852.50 240.00" xmlns="http://www.w3.org/2000/svg" xmlns:xlink="http://www.w3.org/1999/xlink">
<g id="graph0" class="graph" transform="scale(1 1) rotate(0) translate(4 236)">
<title>/home/travis/build/ComPWA/ComPWA/Core/Properties.hpp</title>
<polygon fill="white" stroke="none" points="-4,4 -4,-236 848.5,-236 848.5,4 -4,4"/>
<!-- Node1 -->
<g id="node1" class="node"><title>Node1</title>
<polygon fill="#bfbfbf" stroke="black" points="585,-190.5 585,-231.5 720,-231.5 720,-190.5 585,-190.5"/>
<text text-anchor="start" x="593" y="-219.5" font-family="Helvetica,sans-Serif" font-size="10.00">/home/travis/build</text>
<text text-anchor="start" x="593" y="-208.5" font-family="Helvetica,sans-Serif" font-size="10.00">/ComPWA/ComPWA/Core</text>
<text text-anchor="middle" x="652.5" y="-197.5" font-family="Helvetica,sans-Serif" font-size="10.00">/Properties.hpp</text>
</g>
<!-- Node2 -->
<g id="node2" class="node"><title>Node2</title>
<g id="a_node2"><a xlink:href="Exceptions_8hpp.html" target="_top" xlink:title="ComPWA exceptions. ">
<polygon fill="white" stroke="black" points="33.5,-129 33.5,-148 141.5,-148 141.5,-129 33.5,-129"/>
<text text-anchor="middle" x="87.5" y="-136" font-family="Helvetica,sans-Serif" font-size="10.00">Core/Exceptions.hpp</text>
</a>
</g>
</g>
<!-- Node1&#45;&gt;Node2 -->
<g id="edge1" class="edge"><title>Node1&#45;&gt;Node2</title>
<path fill="none" stroke="midnightblue" d="M584.909,-201.566C475.096,-187.864 259.404,-160.95 151.769,-147.519"/>
<polygon fill="midnightblue" stroke="midnightblue" points="152.054,-144.028 141.698,-146.263 151.187,-150.974 152.054,-144.028"/>
</g>
<!-- Node5 -->
<g id="node5" class="node"><title>Node5</title>
<g id="a_node5"><a xlink:href="FitParameter_8hpp.html" target="_top" xlink:title="Core/FitParameter.hpp">
<polygon fill="white" stroke="black" points="296.5,-129 296.5,-148 412.5,-148 412.5,-129 296.5,-129"/>
<text text-anchor="middle" x="354.5" y="-136" font-family="Helvetica,sans-Serif" font-size="10.00">Core/FitParameter.hpp</text>
</a>
</g>
</g>
<!-- Node1&#45;&gt;Node5 -->
<g id="edge4" class="edge"><title>Node1&#45;&gt;Node5</title>
<path fill="none" stroke="midnightblue" d="M584.879,-194.002C528.489,-180.662 449.667,-162.014 400.382,-150.355"/>
<polygon fill="midnightblue" stroke="midnightblue" points="401.171,-146.945 390.634,-148.048 399.559,-153.757 401.171,-146.945"/>
</g>
<!-- Node7 -->
<g id="node7" class="node"><title>Node7</title>
<polygon fill="white" stroke="#bfbfbf" points="257.5,-0.5 257.5,-19.5 301.5,-19.5 301.5,-0.5 257.5,-0.5"/>
<text text-anchor="middle" x="279.5" y="-7.5" font-family="Helvetica,sans-Serif" font-size="10.00">vector</text>
</g>
<!-- Node1&#45;&gt;Node7 -->
<g id="edge16" class="edge"><title>Node1&#45;&gt;Node7</title>
<path fill="none" stroke="midnightblue" d="M645.66,-190.242C631.535,-149.676 600.001,-60.4143 594.5,-56 551.367,-21.3868 383.017,-13.3899 311.703,-11.5484"/>
<polygon fill="midnightblue" stroke="midnightblue" points="311.596,-8.04501 301.517,-11.3106 311.433,-15.0431 311.596,-8.04501"/>
</g>
<!-- Node11 -->
<g id="node11" class="node"><title>Node11</title>
<polygon fill="white" stroke="#bfbfbf" points="642,-123.5 642,-153.5 743,-153.5 743,-123.5 642,-123.5"/>
<text text-anchor="start" x="650" y="-141.5" font-family="Helvetica,sans-Serif" font-size="10.00">boost/property_tree</text>
<text text-anchor="middle" x="692.5" y="-130.5" font-family="Helvetica,sans-Serif" font-size="10.00">/ptree.hpp</text>
</g>
<!-- Node1&#45;&gt;Node11 -->
<g id="edge13" class="edge"><title>Node1&#45;&gt;Node11</title>
<path fill="none" stroke="midnightblue" d="M663.642,-190.362C668.515,-181.774 674.266,-171.637 679.347,-162.682"/>
<polygon fill="midnightblue" stroke="midnightblue" points="682.444,-164.316 684.335,-153.892 676.356,-160.862 682.444,-164.316"/>
</g>
<!-- Node12 -->
<g id="node12" class="node"><title>Node12</title>
<polygon fill="white" stroke="#bfbfbf" points="761,-129 761,-148 796,-148 796,-129 761,-129"/>
<text text-anchor="middle" x="778.5" y="-136" font-family="Helvetica,sans-Serif" font-size="10.00">map</text>
</g>
<!-- Node1&#45;&gt;Node12 -->
<g id="edge14" class="edge"><title>Node1&#45;&gt;Node12</title>
<path fill="none" stroke="midnightblue" d="M687.598,-190.362C708.778,-178.511 735.229,-163.711 754.128,-153.137"/>
<polygon fill="midnightblue" stroke="midnightblue" points="755.981,-156.111 762.999,-148.173 752.563,-150.002 755.981,-156.111"/>
</g>
<!-- Node13 -->
<g id="node13" class="node"><title>Node13</title>
<polygon fill="white" stroke="#bfbfbf" points="814.5,-129 814.5,-148 844.5,-148 844.5,-129 814.5,-129"/>
<text text-anchor="middle" x="829.5" y="-136" font-family="Helvetica,sans-Serif" font-size="10.00">set</text>
</g>
<!-- Node1&#45;&gt;Node13 -->
<g id="edge15" class="edge"><title>Node1&#45;&gt;Node13</title>
<path fill="none" stroke="midnightblue" d="M714.292,-190.423C742.61,-180.685 776.297,-168.005 805.5,-154 806.049,-153.737 806.601,-153.465 807.155,-153.185"/>
<polygon fill="midnightblue" stroke="midnightblue" points="809.002,-156.163 816.046,-148.249 805.604,-150.044 809.002,-156.163"/>
</g>
<!-- Node3 -->
<g id="node3" class="node"><title>Node3</title>
<polygon fill="white" stroke="#bfbfbf" points="0,-62 0,-81 59,-81 59,-62 0,-62"/>
<text text-anchor="middle" x="29.5" y="-69" font-family="Helvetica,sans-Serif" font-size="10.00">exception</text>
</g>
<!-- Node2&#45;&gt;Node3 -->
<g id="edge2" class="edge"><title>Node2&#45;&gt;Node3</title>
<path fill="none" stroke="midnightblue" d="M79.6779,-128.734C70.5465,-118.5 55.2557,-101.364 43.9486,-88.6924"/>
<polygon fill="midnightblue" stroke="midnightblue" points="46.4676,-86.2585 37.1982,-81.1273 41.2446,-90.919 46.4676,-86.2585"/>
</g>
<!-- Node4 -->
<g id="node4" class="node"><title>Node4</title>
<polygon fill="white" stroke="#bfbfbf" points="105,-0.5 105,-19.5 146,-19.5 146,-0.5 105,-0.5"/>
<text text-anchor="middle" x="125.5" y="-7.5" font-family="Helvetica,sans-Serif" font-size="10.00">string</text>
</g>
<!-- Node2&#45;&gt;Node4 -->
<g id="edge3" class="edge"><title>Node2&#45;&gt;Node4</title>
<path fill="none" stroke="midnightblue" d="M89.9796,-128.922C94.2877,-114.053 103.464,-82.5403 111.5,-56 114.171,-47.1794 117.202,-37.4088 119.759,-29.232"/>
<polygon fill="midnightblue" stroke="midnightblue" points="123.122,-30.204 122.777,-19.6148 116.443,-28.1078 123.122,-30.204"/>
</g>
<!-- Node5&#45;&gt;Node4 -->
<g id="edge10" class="edge"><title>Node5&#45;&gt;Node4</title>
<path fill="none" stroke="midnightblue" d="M296.275,-130.319C241.794,-122.428 165.707,-108.017 144.5,-87 129.509,-72.1428 125.711,-47.37 125.044,-30.1631"/>
<polygon fill="midnightblue" stroke="midnightblue" points="128.542,-29.6539 124.984,-19.6741 121.542,-29.6941 128.542,-29.6539"/>
</g>
<!-- Node6 -->
<g id="node6" class="node"><title>Node6</title>
<g id="a_node6"><a xlink:href="Function_8hpp.html" target="_top" xlink:title="Core/Function.hpp">
<polygon fill="white" stroke="red" points="154,-62 154,-81 251,-81 251,-62 154,-62"/>
<text text-anchor="middle" x="202.5" y="-69" font-family="Helvetica,sans-Serif" font-size="10.00">Core/Function.hpp</text>
</a>
</g>
</g>
<!-- Node5&#45;&gt;Node6 -->
<g id="edge5" class="edge"><title>Node5&#45;&gt;Node6</title>
<path fill="none" stroke="midnightblue" d="M334.316,-128.869C308.196,-117.699 262.474,-98.1468 232.339,-85.2602"/>
<polygon fill="midnightblue" stroke="midnightblue" points="233.339,-81.881 222.768,-81.1672 230.586,-88.3173 233.339,-81.881"/>
</g>
<!-- Node5&#45;&gt;Node7 -->
<g id="edge11" class="edge"><title>Node5&#45;&gt;Node7</title>
<path fill="none" stroke="midnightblue" d="M340.847,-128.76C327.987,-119.812 309.152,-104.731 298.5,-87 287.904,-69.3631 283.196,-46.0308 281.118,-29.8934"/>
<polygon fill="midnightblue" stroke="midnightblue" points="284.561,-29.1724 280.022,-19.5989 277.6,-29.9131 284.561,-29.1724"/>
</g>
<!-- Node8 -->
<g id="node8" class="node"><title>Node8</title>
<g id="a_node8"><a xlink:href="Logging_8hpp.html" target="_top" xlink:title="Core/Logging.hpp">
<polygon fill="white" stroke="red" points="308,-62 308,-81 401,-81 401,-62 308,-62"/>
<text text-anchor="middle" x="354.5" y="-69" font-family="Helvetica,sans-Serif" font-size="10.00">Core/Logging.hpp</text>
</a>
</g>
</g>
<!-- Node5&#45;&gt;Node8 -->
<g id="edge8" class="edge"><title>Node5&#45;&gt;Node8</title>
<path fill="none" stroke="midnightblue" d="M354.5,-128.734C354.5,-119.183 354.5,-103.618 354.5,-91.2829"/>
<polygon fill="midnightblue" stroke="midnightblue" points="358,-91.1273 354.5,-81.1273 351,-91.1273 358,-91.1273"/>
</g>
<!-- Node9 -->
<g id="node9" class="node"><title>Node9</title>
<polygon fill="white" stroke="#bfbfbf" points="419.5,-62 419.5,-81 471.5,-81 471.5,-62 419.5,-62"/>
<text text-anchor="middle" x="445.5" y="-69" font-family="Helvetica,sans-Serif" font-size="10.00">ostream</text>
</g>
<!-- Node5&#45;&gt;Node9 -->
<g id="edge9" class="edge"><title>Node5&#45;&gt;Node9</title>
<path fill="none" stroke="midnightblue" d="M366.773,-128.734C381.645,-118.111 406.932,-100.049 424.83,-87.2642"/>
<polygon fill="midnightblue" stroke="midnightblue" points="427.319,-89.7878 433.422,-81.1273 423.25,-84.0917 427.319,-89.7878"/>
</g>
<!-- Node10 -->
<g id="node10" class="node"><title>Node10</title>
<polygon fill="white" stroke="#bfbfbf" points="490,-56.5 490,-86.5 585,-86.5 585,-56.5 490,-56.5"/>
<text text-anchor="start" x="498" y="-74.5" font-family="Helvetica,sans-Serif" font-size="10.00">boost/serialization</text>
<text text-anchor="middle" x="537.5" y="-63.5" font-family="Helvetica,sans-Serif" font-size="10.00">/nvp.hpp</text>
</g>
<!-- Node5&#45;&gt;Node10 -->
<g id="edge12" class="edge"><title>Node5&#45;&gt;Node10</title>
<path fill="none" stroke="midnightblue" d="M378.801,-128.869C406.617,-118.988 452.9,-102.549 488.326,-89.9662"/>
<polygon fill="midnightblue" stroke="midnightblue" points="489.754,-93.1733 498.006,-86.5281 487.411,-86.577 489.754,-93.1733"/>
</g>
<!-- Node6&#45;&gt;Node4 -->
<g id="edge6" class="edge"><title>Node6&#45;&gt;Node4</title>
<path fill="none" stroke="midnightblue" d="M191.468,-61.9751C179.232,-52.5199 159.271,-37.0961 144.507,-25.6871"/>
<polygon fill="midnightblue" stroke="midnightblue" points="146.565,-22.8541 136.512,-19.5091 142.285,-28.3931 146.565,-22.8541"/>
</g>
<!-- Node6&#45;&gt;Node7 -->
<g id="edge7" class="edge"><title>Node6&#45;&gt;Node7</title>
<path fill="none" stroke="midnightblue" d="M213.532,-61.9751C225.768,-52.5199 245.729,-37.0961 260.493,-25.6871"/>
<polygon fill="midnightblue" stroke="midnightblue" points="262.715,-28.3931 268.488,-19.5091 258.435,-22.8541 262.715,-28.3931"/>
</g>
</g>
</svg>
