<?xml version="1.0" encoding="UTF-8" standalone="no"?>
<!DOCTYPE svg PUBLIC "-//W3C//DTD SVG 1.1//EN"
 "http://www.w3.org/Graphics/SVG/1.1/DTD/svg11.dtd">
<!-- Generated by graphviz version 2.38.0 (20140413.2041)
 -->
<!-- Title: /home/travis/build/ComPWA/ComPWA/Physics/Dynamics/RelativisticBreitWigner.cpp Pages: 1 -->
<svg width="208pt" height="341pt"
 viewBox="0.00 0.00 207.55 341.00" xmlns="http://www.w3.org/2000/svg" xmlns:xlink="http://www.w3.org/1999/xlink">
<g id="graph0" class="graph" transform="scale(1 1) rotate(0) translate(4 337)">
<title>/home/travis/build/ComPWA/ComPWA/Physics/Dynamics/RelativisticBreitWigner.cpp</title>
<polygon fill="white" stroke="none" points="-4,4 -4,-337 203.545,-337 203.545,4 -4,4"/>
<!-- Node1 -->
<g id="node1" class="node"><title>Node1</title>
<polygon fill="#bfbfbf" stroke="black" points="0,-291.5 0,-332.5 194,-332.5 194,-291.5 0,-291.5"/>
<text text-anchor="start" x="8" y="-320.5" font-family="Helvetica,sans-Serif" font-size="10.00">/home/travis/build</text>
<text text-anchor="start" x="8" y="-309.5" font-family="Helvetica,sans-Serif" font-size="10.00">/ComPWA/ComPWA/Physics</text>
<text text-anchor="middle" x="97" y="-298.5" font-family="Helvetica,sans-Serif" font-size="10.00">/Dynamics/RelativisticBreitWigner.cpp</text>
</g>
<!-- Node2 -->
<g id="node2" class="node"><title>Node2</title>
<g id="a_node2"><a xlink:href="RelativisticBreitWigner_8hpp.html" target="_top" xlink:title="RelativisticBreitWigner.hpp">
<polygon fill="white" stroke="black" points="26.5,-235.5 26.5,-254.5 167.5,-254.5 167.5,-235.5 26.5,-235.5"/>
<text text-anchor="middle" x="97" y="-242.5" font-family="Helvetica,sans-Serif" font-size="10.00">RelativisticBreitWigner.hpp</text>
</a>
</g>
</g>
<!-- Node1&#45;&gt;Node2 -->
<g id="edge1" class="edge"><title>Node1&#45;&gt;Node2</title>
<path fill="none" stroke="midnightblue" d="M97,-291.498C97,-283.065 97,-273.235 97,-264.874"/>
<polygon fill="midnightblue" stroke="midnightblue" points="100.5,-264.652 97,-254.652 93.5001,-264.653 100.5,-264.652"/>
</g>
<!-- Node3 -->
<g id="node3" class="node"><title>Node3</title>
<g id="a_node3"><a xlink:href="FunctionTree_8hpp.html" target="_top" xlink:title="FunctionTree class. ">
<polygon fill="white" stroke="red" points="27,-56.5 27,-86.5 171,-86.5 171,-56.5 27,-56.5"/>
<text text-anchor="start" x="35" y="-74.5" font-family="Helvetica,sans-Serif" font-size="10.00">Core/FunctionTree/Function</text>
<text text-anchor="middle" x="99" y="-63.5" font-family="Helvetica,sans-Serif" font-size="10.00">Tree.hpp</text>
</a>
</g>
</g>
<!-- Node2&#45;&gt;Node3 -->
<g id="edge2" class="edge"><title>Node2&#45;&gt;Node3</title>
<path fill="none" stroke="midnightblue" d="M88.1442,-235.488C68.7047,-215.727 25.4558,-165.202 44,-123 49.1742,-111.225 58.5993,-100.991 68.2031,-92.8733"/>
<polygon fill="midnightblue" stroke="midnightblue" points="70.5273,-95.4981 76.2228,-86.5644 66.1993,-89.9965 70.5273,-95.4981"/>
</g>
<!-- Node4 -->
<g id="node4" class="node"><title>Node4</title>
<polygon fill="white" stroke="#bfbfbf" points="125.5,-0.5 125.5,-19.5 172.5,-19.5 172.5,-0.5 125.5,-0.5"/>
<text text-anchor="middle" x="149" y="-7.5" font-family="Helvetica,sans-Serif" font-size="10.00">vector</text>
</g>
<!-- Node2&#45;&gt;Node4 -->
<g id="edge8" class="edge"><title>Node2&#45;&gt;Node4</title>
<path fill="none" stroke="midnightblue" d="M128.75,-235.35C146.866,-228.614 168.083,-217.258 179,-199 211.618,-144.451 198.88,-116.688 180,-56 176.771,-45.6222 170.224,-35.5209 163.975,-27.5268"/>
<polygon fill="midnightblue" stroke="midnightblue" points="166.584,-25.1902 157.483,-19.7661 161.215,-29.6818 166.584,-25.1902"/>
</g>
<!-- Node5 -->
<g id="node5" class="node"><title>Node5</title>
<g id="a_node5"><a xlink:href="Coupling_8hpp.html" target="_top" xlink:title="Coupling.hpp">
<polygon fill="white" stroke="red" points="91.5,-179.5 91.5,-198.5 170.5,-198.5 170.5,-179.5 91.5,-179.5"/>
<text text-anchor="middle" x="131" y="-186.5" font-family="Helvetica,sans-Serif" font-size="10.00">Coupling.hpp</text>
</a>
</g>
</g>
<!-- Node2&#45;&gt;Node5 -->
<g id="edge4" class="edge"><title>Node2&#45;&gt;Node5</title>
<path fill="none" stroke="midnightblue" d="M102.614,-235.083C107.367,-227.534 114.318,-216.495 120.152,-207.23"/>
<polygon fill="midnightblue" stroke="midnightblue" points="123.124,-209.078 125.49,-198.751 117.2,-205.349 123.124,-209.078"/>
</g>
<!-- Node6 -->
<g id="node6" class="node"><title>Node6</title>
<g id="a_node6"><a xlink:href="FormFactor_8hpp.html" target="_top" xlink:title="FormFactor.hpp">
<polygon fill="white" stroke="red" points="53.5,-123.5 53.5,-142.5 144.5,-142.5 144.5,-123.5 53.5,-123.5"/>
<text text-anchor="middle" x="99" y="-130.5" font-family="Helvetica,sans-Serif" font-size="10.00">FormFactor.hpp</text>
</a>
</g>
</g>
<!-- Node2&#45;&gt;Node6 -->
<g id="edge7" class="edge"><title>Node2&#45;&gt;Node6</title>
<path fill="none" stroke="midnightblue" d="M92.6398,-235.222C86.9955,-222.783 78.2971,-199.279 82,-179 83.6876,-169.757 87.175,-159.948 90.5544,-151.855"/>
<polygon fill="midnightblue" stroke="midnightblue" points="93.7635,-153.252 94.6337,-142.693 87.3687,-150.405 93.7635,-153.252"/>
</g>
<!-- Node3&#45;&gt;Node4 -->
<g id="edge3" class="edge"><title>Node3&#45;&gt;Node4</title>
<path fill="none" stroke="midnightblue" d="M110.849,-56.3993C118.115,-47.7533 127.452,-36.642 135.071,-27.576"/>
<polygon fill="midnightblue" stroke="midnightblue" points="137.971,-29.5653 141.725,-19.6578 132.612,-25.0619 137.971,-29.5653"/>
</g>
<!-- Node5&#45;&gt;Node6 -->
<g id="edge5" class="edge"><title>Node5&#45;&gt;Node6</title>
<path fill="none" stroke="midnightblue" d="M125.716,-179.083C121.289,-171.613 114.837,-160.724 109.382,-151.52"/>
<polygon fill="midnightblue" stroke="midnightblue" points="112.295,-149.57 104.186,-142.751 106.273,-153.138 112.295,-149.57"/>
</g>
<!-- Node6&#45;&gt;Node3 -->
<g id="edge6" class="edge"><title>Node6&#45;&gt;Node3</title>
<path fill="none" stroke="midnightblue" d="M99,-123.475C99,-116.471 99,-106.192 99,-96.6956"/>
<polygon fill="midnightblue" stroke="midnightblue" points="102.5,-96.5229 99,-86.523 95.5001,-96.523 102.5,-96.5229"/>
</g>
</g>
</svg>
