<?xml version="1.0" encoding="UTF-8" standalone="no"?>
<!DOCTYPE svg PUBLIC "-//W3C//DTD SVG 1.1//EN"
 "http://www.w3.org/Graphics/SVG/1.1/DTD/svg11.dtd">
<!-- Generated by graphviz version 2.38.0 (20140413.2041)
 -->
<!-- Title: /home/travis/build/ComPWA/ComPWA/ThirdParty/tbb/src/rml/include/rml_tbb.h Pages: 1 -->
<!--zoomable 462 -->
<svg id="main" version="1.1" xmlns="http://www.w3.org/2000/svg" xmlns:xlink="http://www.w3.org/1999/xlink" xml:space="preserve" onload="init(evt)">
<style type="text/css"><![CDATA[
.edge:hover path { stroke: red; }
.edge:hover polygon { stroke: red; fill: red; }
]]></style>
<script type="text/javascript"><![CDATA[
var edges = document.getElementsByTagName('g');
if (edges && edges.length) {
  for (var i=0;i<edges.length;i++) {
    if (edges[i].id.substr(0,4)=='edge') {
      edges[i].setAttribute('class','edge');
    }
  }
}
]]></script>
        <defs>
                <circle id="rim" cx="0" cy="0" r="7"/>
                <circle id="rim2" cx="0" cy="0" r="3.5"/>
                <g id="zoomPlus">
                        <use xlink:href="#rim" fill="#404040">
                                <set attributeName="fill" to="#808080" begin="zoomplus.mouseover" end="zoomplus.mouseout"/>
                        </use>
                        <path d="M-4,0h8M0,-4v8" fill="none" stroke="white" stroke-width="1.5" pointer-events="none"/>
                </g>
                <g id="zoomMin">
                        <use xlink:href="#rim" fill="#404040">
                                <set attributeName="fill" to="#808080" begin="zoomminus.mouseover" end="zoomminus.mouseout"/>
                        </use>
                        <path d="M-4,0h8" fill="none" stroke="white" stroke-width="1.5" pointer-events="none"/>
                </g>
                <g id="dirArrow">
                        <path fill="none" stroke="white" stroke-width="1.5" d="M0,-3.0v7 M-2.5,-0.5L0,-3.0L2.5,-0.5"/>
                </g>
               <g id="resetDef">
                       <use xlink:href="#rim2" fill="#404040">
                               <set attributeName="fill" to="#808080" begin="reset.mouseover" end="reset.mouseout"/>
                       </use>
               </g>
        </defs>

<script type="text/javascript">
var viewWidth = 1463;
var viewHeight = 462;
var sectionId = 'dynsection-1';
</script>
<script xlink:href="svgpan.js"/>
<svg id="graph" class="graph">
<g id="viewport">
<title>/home/travis/build/ComPWA/ComPWA/ThirdParty/tbb/src/rml/include/rml_tbb.h</title>
<polygon fill="white" stroke="none" points="-4,4 -4,-458 1458.95,-458 1458.95,4 -4,4"/>
<!-- Node1 -->
<g id="node1" class="node"><title>Node1</title>
<polygon fill="#bfbfbf" stroke="black" points="429.947,-412.5 429.947,-453.5 587.947,-453.5 587.947,-412.5 429.947,-412.5"/>
<text text-anchor="start" x="437.947" y="-441.5" font-family="Helvetica,sans-Serif" font-size="10.00">/home/travis/build</text>
<text text-anchor="start" x="437.947" y="-430.5" font-family="Helvetica,sans-Serif" font-size="10.00">/ComPWA/ComPWA/ThirdParty</text>
<text text-anchor="middle" x="508.947" y="-419.5" font-family="Helvetica,sans-Serif" font-size="10.00">/tbb/src/rml/include/rml_tbb.h</text>
</g>
<!-- Node2 -->
<g id="node2" class="node"><title>Node2</title>
<g id="a_node2"><a xlink:href="ipc__server_8cpp.html" target="_top" xlink:title="/home/travis/build\l/ComPWA/ComPWA/ThirdParty\l/tbb/python/rml/ipc_server.cpp">
<polygon fill="white" stroke="black" points="193.447,-245.5 193.447,-286.5 354.447,-286.5 354.447,-245.5 193.447,-245.5"/>
<text text-anchor="start" x="201.447" y="-274.5" font-family="Helvetica,sans-Serif" font-size="10.00">/home/travis/build</text>
<text text-anchor="start" x="201.447" y="-263.5" font-family="Helvetica,sans-Serif" font-size="10.00">/ComPWA/ComPWA/ThirdParty</text>
<text text-anchor="middle" x="273.947" y="-252.5" font-family="Helvetica,sans-Serif" font-size="10.00">/tbb/python/rml/ipc_server.cpp</text>
</a>
</g>
</g>
<!-- Node1&#45;&gt;Node2 -->
<g id="edge1" class="edge"><title>Node1&#45;&gt;Node2</title>
<path fill="none" stroke="midnightblue" d="M419.528,-432.165C316.675,-430.226 157.046,-419.96 118.947,-376 103.52,-358.199 105.413,-342.28 118.947,-323 136.126,-298.528 165.107,-284.704 193.393,-276.912"/>
<polygon fill="midnightblue" stroke="midnightblue" points="419.551,-435.666 429.607,-432.332 419.667,-428.667 419.551,-435.666"/>
</g>
<!-- Node3 -->
<g id="node3" class="node"><title>Node3</title>
<g id="a_node3"><a xlink:href="rml__tbb_8cpp.html" target="_top" xlink:title="/home/travis/build\l/ComPWA/ComPWA/ThirdParty\l/tbb/src/rml/client/rml\l_tbb.cpp">
<polygon fill="white" stroke="black" points="127.947,-323.5 127.947,-375.5 285.947,-375.5 285.947,-323.5 127.947,-323.5"/>
<text text-anchor="start" x="135.947" y="-363.5" font-family="Helvetica,sans-Serif" font-size="10.00">/home/travis/build</text>
<text text-anchor="start" x="135.947" y="-352.5" font-family="Helvetica,sans-Serif" font-size="10.00">/ComPWA/ComPWA/ThirdParty</text>
<text text-anchor="start" x="135.947" y="-341.5" font-family="Helvetica,sans-Serif" font-size="10.00">/tbb/src/rml/client/rml</text>
<text text-anchor="middle" x="206.947" y="-330.5" font-family="Helvetica,sans-Serif" font-size="10.00">_tbb.cpp</text>
</a>
</g>
</g>
<!-- Node1&#45;&gt;Node3 -->
<g id="edge2" class="edge"><title>Node1&#45;&gt;Node3</title>
<path fill="none" stroke="midnightblue" d="M422.313,-409.878C383.323,-399.78 336.757,-387.526 294.947,-376 292.034,-375.197 289.068,-374.372 286.074,-373.534"/>
<polygon fill="midnightblue" stroke="midnightblue" points="421.498,-413.282 432.055,-412.397 423.25,-406.505 421.498,-413.282"/>
</g>
<!-- Node4 -->
<g id="node4" class="node"><title>Node4</title>
<g id="a_node4"><a xlink:href="rml__server_8cpp.html" target="_top" xlink:title="/home/travis/build\l/ComPWA/ComPWA/ThirdParty\l/tbb/src/rml/server/rml\l_server.cpp">
<polygon fill="white" stroke="black" points="303.947,-323.5 303.947,-375.5 461.947,-375.5 461.947,-323.5 303.947,-323.5"/>
<text text-anchor="start" x="311.947" y="-363.5" font-family="Helvetica,sans-Serif" font-size="10.00">/home/travis/build</text>
<text text-anchor="start" x="311.947" y="-352.5" font-family="Helvetica,sans-Serif" font-size="10.00">/ComPWA/ComPWA/ThirdParty</text>
<text text-anchor="start" x="311.947" y="-341.5" font-family="Helvetica,sans-Serif" font-size="10.00">/tbb/src/rml/server/rml</text>
<text text-anchor="middle" x="382.947" y="-330.5" font-family="Helvetica,sans-Serif" font-size="10.00">_server.cpp</text>
</a>
</g>
</g>
<!-- Node1&#45;&gt;Node4 -->
<g id="edge3" class="edge"><title>Node1&#45;&gt;Node4</title>
<path fill="none" stroke="midnightblue" d="M470.057,-406.845C454.768,-396.956 437.249,-385.624 421.95,-375.728"/>
<polygon fill="midnightblue" stroke="midnightblue" points="468.469,-409.986 478.767,-412.479 472.271,-404.109 468.469,-409.986"/>
</g>
<!-- Node5 -->
<g id="node5" class="node"><title>Node5</title>
<g id="a_node5"><a xlink:href="scheduler_8h.html" target="_top" xlink:title="/home/travis/build\l/ComPWA/ComPWA/ThirdParty\l/tbb/src/tbb/scheduler.h">
<polygon fill="white" stroke="black" points="377.947,-167.5 377.947,-208.5 535.947,-208.5 535.947,-167.5 377.947,-167.5"/>
<text text-anchor="start" x="385.947" y="-196.5" font-family="Helvetica,sans-Serif" font-size="10.00">/home/travis/build</text>
<text text-anchor="start" x="385.947" y="-185.5" font-family="Helvetica,sans-Serif" font-size="10.00">/ComPWA/ComPWA/ThirdParty</text>
<text text-anchor="middle" x="456.947" y="-174.5" font-family="Helvetica,sans-Serif" font-size="10.00">/tbb/src/tbb/scheduler.h</text>
</a>
</g>
</g>
<!-- Node1&#45;&gt;Node5 -->
<g id="edge4" class="edge"><title>Node1&#45;&gt;Node5</title>
<path fill="none" stroke="midnightblue" d="M506.972,-402.257C503.617,-377.105 494.671,-342.187 470.947,-323 370.991,-242.159 269.005,-383.393 183.947,-287 125.057,-220.261 277.623,-198.963 377.727,-192.173"/>
<polygon fill="midnightblue" stroke="midnightblue" points="503.512,-402.811 508.094,-412.364 510.469,-402.038 503.512,-402.811"/>
</g>
<!-- Node14 -->
<g id="node14" class="node"><title>Node14</title>
<g id="a_node14"><a xlink:href="arena_8h.html" target="_top" xlink:title="/home/travis/build\l/ComPWA/ComPWA/ThirdParty\l/tbb/src/tbb/arena.h">
<polygon fill="white" stroke="black" points="448.947,-245.5 448.947,-286.5 606.947,-286.5 606.947,-245.5 448.947,-245.5"/>
<text text-anchor="start" x="456.947" y="-274.5" font-family="Helvetica,sans-Serif" font-size="10.00">/home/travis/build</text>
<text text-anchor="start" x="456.947" y="-263.5" font-family="Helvetica,sans-Serif" font-size="10.00">/ComPWA/ComPWA/ThirdParty</text>
<text text-anchor="middle" x="527.947" y="-252.5" font-family="Helvetica,sans-Serif" font-size="10.00">/tbb/src/tbb/arena.h</text>
</a>
</g>
</g>
<!-- Node1&#45;&gt;Node14 -->
<g id="edge15" class="edge"><title>Node1&#45;&gt;Node14</title>
<path fill="none" stroke="midnightblue" d="M512.367,-402.302C516.227,-368.777 522.398,-315.19 525.696,-286.55"/>
<polygon fill="midnightblue" stroke="midnightblue" points="508.868,-402.09 511.201,-412.424 515.822,-402.89 508.868,-402.09"/>
</g>
<!-- Node15 -->
<g id="node15" class="node"><title>Node15</title>
<g id="a_node15"><a xlink:href="market_8h.html" target="_top" xlink:title="/home/travis/build\l/ComPWA/ComPWA/ThirdParty\l/tbb/src/tbb/market.h">
<polygon fill="white" stroke="black" points="1296.95,-329 1296.95,-370 1454.95,-370 1454.95,-329 1296.95,-329"/>
<text text-anchor="start" x="1304.95" y="-358" font-family="Helvetica,sans-Serif" font-size="10.00">/home/travis/build</text>
<text text-anchor="start" x="1304.95" y="-347" font-family="Helvetica,sans-Serif" font-size="10.00">/ComPWA/ComPWA/ThirdParty</text>
<text text-anchor="middle" x="1375.95" y="-336" font-family="Helvetica,sans-Serif" font-size="10.00">/tbb/src/tbb/market.h</text>
</a>
</g>
</g>
<!-- Node1&#45;&gt;Node15 -->
<g id="edge20" class="edge"><title>Node1&#45;&gt;Node15</title>
<path fill="none" stroke="midnightblue" d="M598.35,-423.596C768.284,-407.622 1135.34,-373.118 1296.89,-357.931"/>
<polygon fill="midnightblue" stroke="midnightblue" points="597.814,-420.131 588.186,-424.551 598.47,-427.1 597.814,-420.131"/>
</g>
<!-- Node17 -->
<g id="node17" class="node"><title>Node17</title>
<g id="a_node17"><a xlink:href="governor_8h.html" target="_top" xlink:title="/home/travis/build\l/ComPWA/ComPWA/ThirdParty\l/tbb/src/tbb/governor.h">
<polygon fill="white" stroke="black" points="662.947,-329 662.947,-370 820.947,-370 820.947,-329 662.947,-329"/>
<text text-anchor="start" x="670.947" y="-358" font-family="Helvetica,sans-Serif" font-size="10.00">/home/travis/build</text>
<text text-anchor="start" x="670.947" y="-347" font-family="Helvetica,sans-Serif" font-size="10.00">/ComPWA/ComPWA/ThirdParty</text>
<text text-anchor="middle" x="741.947" y="-336" font-family="Helvetica,sans-Serif" font-size="10.00">/tbb/src/tbb/governor.h</text>
</a>
</g>
</g>
<!-- Node1&#45;&gt;Node17 -->
<g id="edge26" class="edge"><title>Node1&#45;&gt;Node17</title>
<path fill="none" stroke="midnightblue" d="M574.466,-409.083C609.667,-396.77 652.604,-381.751 686.19,-370.003"/>
<polygon fill="midnightblue" stroke="midnightblue" points="573.04,-405.873 564.756,-412.479 575.351,-412.481 573.04,-405.873"/>
</g>
<!-- Node19 -->
<g id="node19" class="node"><title>Node19</title>
<g id="a_node19"><a xlink:href="private__server_8cpp.html" target="_top" xlink:title="/home/travis/build\l/ComPWA/ComPWA/ThirdParty\l/tbb/src/tbb/private_server.cpp">
<polygon fill="white" stroke="black" points="1166.95,-245.5 1166.95,-286.5 1328.95,-286.5 1328.95,-245.5 1166.95,-245.5"/>
<text text-anchor="start" x="1174.95" y="-274.5" font-family="Helvetica,sans-Serif" font-size="10.00">/home/travis/build</text>
<text text-anchor="start" x="1174.95" y="-263.5" font-family="Helvetica,sans-Serif" font-size="10.00">/ComPWA/ComPWA/ThirdParty</text>
<text text-anchor="middle" x="1247.95" y="-252.5" font-family="Helvetica,sans-Serif" font-size="10.00">/tbb/src/tbb/private_server.cpp</text>
</a>
</g>
</g>
<!-- Node1&#45;&gt;Node19 -->
<g id="edge42" class="edge"><title>Node1&#45;&gt;Node19</title>
<path fill="none" stroke="midnightblue" d="M598.275,-418.44C662.891,-408.14 752.154,-392.899 829.947,-376 954.352,-348.976 1097.56,-309.865 1179.94,-286.579"/>
<polygon fill="midnightblue" stroke="midnightblue" points="597.449,-415.027 588.121,-420.051 598.546,-421.941 597.449,-415.027"/>
</g>
<!-- Node6 -->
<g id="node6" class="node"><title>Node6</title>
<g id="a_node6"><a xlink:href="arena_8cpp.html" target="_top" xlink:title="/home/travis/build\l/ComPWA/ComPWA/ThirdParty\l/tbb/src/tbb/arena.cpp">
<polygon fill="white" stroke="black" points="32.9471,-0.5 32.9471,-41.5 190.947,-41.5 190.947,-0.5 32.9471,-0.5"/>
<text text-anchor="start" x="40.9471" y="-29.5" font-family="Helvetica,sans-Serif" font-size="10.00">/home/travis/build</text>
<text text-anchor="start" x="40.9471" y="-18.5" font-family="Helvetica,sans-Serif" font-size="10.00">/ComPWA/ComPWA/ThirdParty</text>
<text text-anchor="middle" x="111.947" y="-7.5" font-family="Helvetica,sans-Serif" font-size="10.00">/tbb/src/tbb/arena.cpp</text>
</a>
</g>
</g>
<!-- Node5&#45;&gt;Node6 -->
<g id="edge5" class="edge"><title>Node5&#45;&gt;Node6</title>
<path fill="none" stroke="midnightblue" d="M367.713,-178.845C325.147,-171.491 275.278,-157.523 236.947,-131 213.323,-114.654 220.69,-97.875 199.947,-78 185.172,-63.8429 166.294,-51.2728 149.815,-41.6471"/>
<polygon fill="midnightblue" stroke="midnightblue" points="367.366,-182.334 377.799,-180.489 368.493,-175.426 367.366,-182.334"/>
</g>
<!-- Node7 -->
<g id="node7" class="node"><title>Node7</title>
<g id="a_node7"><a xlink:href="scheduler__utility_8h.html" target="_top" xlink:title="/home/travis/build\l/ComPWA/ComPWA/ThirdParty\l/tbb/src/tbb/scheduler_utility.h">
<polygon fill="white" stroke="black" points="246.447,-84 246.447,-125 405.447,-125 405.447,-84 246.447,-84"/>
<text text-anchor="start" x="254.447" y="-113" font-family="Helvetica,sans-Serif" font-size="10.00">/home/travis/build</text>
<text text-anchor="start" x="254.447" y="-102" font-family="Helvetica,sans-Serif" font-size="10.00">/ComPWA/ComPWA/ThirdParty</text>
<text text-anchor="middle" x="325.947" y="-91" font-family="Helvetica,sans-Serif" font-size="10.00">/tbb/src/tbb/scheduler_utility.h</text>
</a>
</g>
</g>
<!-- Node5&#45;&gt;Node7 -->
<g id="edge6" class="edge"><title>Node5&#45;&gt;Node7</title>
<path fill="none" stroke="midnightblue" d="M417.065,-162.188C397.963,-150.304 375.412,-136.274 357.523,-125.144"/>
<polygon fill="midnightblue" stroke="midnightblue" points="415.23,-165.168 425.569,-167.479 418.927,-159.224 415.23,-165.168"/>
</g>
<!-- Node9 -->
<g id="node9" class="node"><title>Node9</title>
<g id="a_node9"><a xlink:href="custom__scheduler_8h.html" target="_top" xlink:title="/home/travis/build\l/ComPWA/ComPWA/ThirdParty\l/tbb/src/tbb/custom_scheduler.h">
<polygon fill="white" stroke="black" points="423.947,-84 423.947,-125 593.947,-125 593.947,-84 423.947,-84"/>
<text text-anchor="start" x="431.947" y="-113" font-family="Helvetica,sans-Serif" font-size="10.00">/home/travis/build</text>
<text text-anchor="start" x="431.947" y="-102" font-family="Helvetica,sans-Serif" font-size="10.00">/ComPWA/ComPWA/ThirdParty</text>
<text text-anchor="middle" x="508.947" y="-91" font-family="Helvetica,sans-Serif" font-size="10.00">/tbb/src/tbb/custom_scheduler.h</text>
</a>
</g>
</g>
<!-- Node5&#45;&gt;Node9 -->
<g id="edge9" class="edge"><title>Node5&#45;&gt;Node9</title>
<path fill="none" stroke="midnightblue" d="M474.988,-158.725C482.078,-147.612 490.042,-135.129 496.475,-125.047"/>
<polygon fill="midnightblue" stroke="midnightblue" points="471.963,-156.958 469.535,-167.271 477.864,-160.723 471.963,-156.958"/>
</g>
<!-- Node10 -->
<g id="node10" class="node"><title>Node10</title>
<g id="a_node10"><a xlink:href="governor_8cpp.html" target="_top" xlink:title="/home/travis/build\l/ComPWA/ComPWA/ThirdParty\l/tbb/src/tbb/governor.cpp">
<polygon fill="white" stroke="black" points="825.947,-84 825.947,-125 983.947,-125 983.947,-84 825.947,-84"/>
<text text-anchor="start" x="833.947" y="-113" font-family="Helvetica,sans-Serif" font-size="10.00">/home/travis/build</text>
<text text-anchor="start" x="833.947" y="-102" font-family="Helvetica,sans-Serif" font-size="10.00">/ComPWA/ComPWA/ThirdParty</text>
<text text-anchor="middle" x="904.947" y="-91" font-family="Helvetica,sans-Serif" font-size="10.00">/tbb/src/tbb/governor.cpp</text>
</a>
</g>
</g>
<!-- Node5&#45;&gt;Node10 -->
<g id="edge11" class="edge"><title>Node5&#45;&gt;Node10</title>
<path fill="none" stroke="midnightblue" d="M546.287,-172.14C610.978,-161.215 700.475,-145.761 778.947,-131 794.081,-128.153 810.211,-124.988 825.7,-121.884"/>
<polygon fill="midnightblue" stroke="midnightblue" points="545.402,-168.74 536.123,-173.854 546.566,-175.643 545.402,-168.74"/>
</g>
<!-- Node11 -->
<g id="node11" class="node"><title>Node11</title>
<g id="a_node11"><a xlink:href="market_8cpp.html" target="_top" xlink:title="/home/travis/build\l/ComPWA/ComPWA/ThirdParty\l/tbb/src/tbb/market.cpp">
<polygon fill="white" stroke="black" points="1019.95,-84 1019.95,-125 1177.95,-125 1177.95,-84 1019.95,-84"/>
<text text-anchor="start" x="1027.95" y="-113" font-family="Helvetica,sans-Serif" font-size="10.00">/home/travis/build</text>
<text text-anchor="start" x="1027.95" y="-102" font-family="Helvetica,sans-Serif" font-size="10.00">/ComPWA/ComPWA/ThirdParty</text>
<text text-anchor="middle" x="1098.95" y="-91" font-family="Helvetica,sans-Serif" font-size="10.00">/tbb/src/tbb/market.cpp</text>
</a>
</g>
</g>
<!-- Node5&#45;&gt;Node11 -->
<g id="edge12" class="edge"><title>Node5&#45;&gt;Node11</title>
<path fill="none" stroke="midnightblue" d="M546.043,-181.306C652.805,-173.651 836.842,-157.811 992.947,-131 1002.74,-129.318 1012.98,-127.253 1023.06,-125.034"/>
<polygon fill="midnightblue" stroke="midnightblue" points="545.683,-177.823 535.956,-182.021 546.178,-184.805 545.683,-177.823"/>
</g>
<!-- Node12 -->
<g id="node12" class="node"><title>Node12</title>
<g id="a_node12"><a xlink:href="task_8cpp.html" target="_top" xlink:title="/home/travis/build\l/ComPWA/ComPWA/ThirdParty\l/tbb/src/tbb/task.cpp">
<polygon fill="white" stroke="black" points="611.947,-84 611.947,-125 769.947,-125 769.947,-84 611.947,-84"/>
<text text-anchor="start" x="619.947" y="-113" font-family="Helvetica,sans-Serif" font-size="10.00">/home/travis/build</text>
<text text-anchor="start" x="619.947" y="-102" font-family="Helvetica,sans-Serif" font-size="10.00">/ComPWA/ComPWA/ThirdParty</text>
<text text-anchor="middle" x="690.947" y="-91" font-family="Helvetica,sans-Serif" font-size="10.00">/tbb/src/tbb/task.cpp</text>
</a>
</g>
</g>
<!-- Node5&#45;&gt;Node12 -->
<g id="edge13" class="edge"><title>Node5&#45;&gt;Node12</title>
<path fill="none" stroke="midnightblue" d="M522.747,-164.083C558.099,-151.77 601.22,-136.751 634.951,-125.003"/>
<polygon fill="midnightblue" stroke="midnightblue" points="521.288,-160.884 512.996,-167.479 523.591,-167.495 521.288,-160.884"/>
</g>
<!-- Node13 -->
<g id="node13" class="node"><title>Node13</title>
<g id="a_node13"><a xlink:href="task__group__context_8cpp.html" target="_top" xlink:title="/home/travis/build\l/ComPWA/ComPWA/ThirdParty\l/tbb/src/tbb/task_group\l_context.cpp">
<polygon fill="white" stroke="black" points="32.9471,-78.5 32.9471,-130.5 190.947,-130.5 190.947,-78.5 32.9471,-78.5"/>
<text text-anchor="start" x="40.9471" y="-118.5" font-family="Helvetica,sans-Serif" font-size="10.00">/home/travis/build</text>
<text text-anchor="start" x="40.9471" y="-107.5" font-family="Helvetica,sans-Serif" font-size="10.00">/ComPWA/ComPWA/ThirdParty</text>
<text text-anchor="start" x="40.9471" y="-96.5" font-family="Helvetica,sans-Serif" font-size="10.00">/tbb/src/tbb/task_group</text>
<text text-anchor="middle" x="111.947" y="-85.5" font-family="Helvetica,sans-Serif" font-size="10.00">_context.cpp</text>
</a>
</g>
</g>
<!-- Node5&#45;&gt;Node13 -->
<g id="edge14" class="edge"><title>Node5&#45;&gt;Node13</title>
<path fill="none" stroke="midnightblue" d="M368.018,-168.349C319.656,-157.928 258.868,-144.375 204.947,-131 200.397,-129.871 195.73,-128.685 191.026,-127.466"/>
<polygon fill="midnightblue" stroke="midnightblue" points="367.318,-171.779 377.83,-170.458 368.788,-164.935 367.318,-171.779"/>
</g>
<!-- Node7&#45;&gt;Node6 -->
<g id="edge7" class="edge"><title>Node7&#45;&gt;Node6</title>
<path fill="none" stroke="midnightblue" d="M264.941,-80.2663C232.767,-68.0132 193.741,-53.1505 163.158,-41.5031"/>
<polygon fill="midnightblue" stroke="midnightblue" points="264.098,-83.6904 274.689,-83.9787 266.589,-77.1488 264.098,-83.6904"/>
</g>
<!-- Node8 -->
<g id="node8" class="node"><title>Node8</title>
<g id="a_node8"><a xlink:href="scheduler_8cpp.html" target="_top" xlink:title="/home/travis/build\l/ComPWA/ComPWA/ThirdParty\l/tbb/src/tbb/scheduler.cpp">
<polygon fill="white" stroke="black" points="718.947,-0.5 718.947,-41.5 876.947,-41.5 876.947,-0.5 718.947,-0.5"/>
<text text-anchor="start" x="726.947" y="-29.5" font-family="Helvetica,sans-Serif" font-size="10.00">/home/travis/build</text>
<text text-anchor="start" x="726.947" y="-18.5" font-family="Helvetica,sans-Serif" font-size="10.00">/ComPWA/ComPWA/ThirdParty</text>
<text text-anchor="middle" x="797.947" y="-7.5" font-family="Helvetica,sans-Serif" font-size="10.00">/tbb/src/tbb/scheduler.cpp</text>
</a>
</g>
</g>
<!-- Node7&#45;&gt;Node8 -->
<g id="edge8" class="edge"><title>Node7&#45;&gt;Node8</title>
<path fill="none" stroke="midnightblue" d="M400.409,-81.3757C405.311,-80.1637 410.189,-79.0247 414.947,-78 519.072,-55.5764 641.078,-39.4528 718.909,-30.4237"/>
<polygon fill="midnightblue" stroke="midnightblue" points="399.161,-78.0822 390.342,-83.9528 400.897,-84.8635 399.161,-78.0822"/>
</g>
<!-- Node9&#45;&gt;Node8 -->
<g id="edge10" class="edge"><title>Node9&#45;&gt;Node8</title>
<path fill="none" stroke="midnightblue" d="M587.982,-81.2116C632.05,-68.7841 686.419,-53.4518 728.789,-41.5031"/>
<polygon fill="midnightblue" stroke="midnightblue" points="586.844,-77.8958 578.17,-83.9787 588.744,-84.6331 586.844,-77.8958"/>
</g>
<!-- Node14&#45;&gt;Node5 -->
<g id="edge16" class="edge"><title>Node14&#45;&gt;Node5</title>
<path fill="none" stroke="midnightblue" d="M502.645,-237.916C493.571,-228.203 483.526,-217.45 475.169,-208.506"/>
<polygon fill="midnightblue" stroke="midnightblue" points="500.279,-240.51 509.663,-245.428 505.394,-235.731 500.279,-240.51"/>
</g>
<!-- Node14&#45;&gt;Node6 -->
<g id="edge17" class="edge"><title>Node14&#45;&gt;Node6</title>
<path fill="none" stroke="midnightblue" d="M438.756,-247.398C300.966,-219.317 49.4535,-164.174 23.9471,-131 9.58927,-112.326 12.6119,-98.6489 23.9471,-78 32.5741,-62.2844 47.6892,-50.3489 62.984,-41.6202"/>
<polygon fill="midnightblue" stroke="midnightblue" points="438.385,-250.895 448.881,-249.455 439.778,-244.035 438.385,-250.895"/>
</g>
<!-- Node14&#45;&gt;Node8 -->
<g id="edge19" class="edge"><title>Node14&#45;&gt;Node8</title>
<path fill="none" stroke="midnightblue" d="M556.276,-238.605C581.134,-216.696 619.128,-186.131 656.947,-167 707.394,-141.482 741.322,-173.195 778.947,-131 800.936,-106.341 801.954,-65.613 800.255,-41.5404"/>
<polygon fill="midnightblue" stroke="midnightblue" points="553.809,-236.116 548.683,-245.389 558.473,-241.336 553.809,-236.116"/>
</g>
<!-- Node14&#45;&gt;Node10 -->
<g id="edge18" class="edge"><title>Node14&#45;&gt;Node10</title>
<path fill="none" stroke="midnightblue" d="M583.419,-241.531C657.96,-209.994 789.105,-154.51 858.637,-125.093"/>
<polygon fill="midnightblue" stroke="midnightblue" points="582.021,-238.322 574.175,-245.442 584.748,-244.769 582.021,-238.322"/>
</g>
<!-- Node15&#45;&gt;Node8 -->
<g id="edge24" class="edge"><title>Node15&#45;&gt;Node8</title>
<path fill="none" stroke="midnightblue" d="M1404.67,-321.37C1413.21,-311.467 1421.48,-299.585 1425.95,-287 1432.2,-269.41 1432.17,-262.6 1425.95,-245 1385.04,-129.258 1322.24,-117.32 1205.95,-78 1095.72,-40.7281 960.741,-28.2134 877.036,-24.0417"/>
<polygon fill="midnightblue" stroke="midnightblue" points="1401.98,-319.119 1397.82,-328.864 1407.15,-323.839 1401.98,-319.119"/>
</g>
<!-- Node15&#45;&gt;Node10 -->
<g id="edge22" class="edge"><title>Node15&#45;&gt;Node10</title>
<path fill="none" stroke="midnightblue" d="M1380.84,-318.869C1382.85,-296.188 1381.61,-265.429 1364.95,-245 1340.44,-214.95 1109.01,-154.995 984.068,-124.403"/>
<polygon fill="midnightblue" stroke="midnightblue" points="1377.34,-318.63 1379.69,-328.963 1384.3,-319.425 1377.34,-318.63"/>
</g>
<!-- Node15&#45;&gt;Node11 -->
<g id="edge23" class="edge"><title>Node15&#45;&gt;Node11</title>
<path fill="none" stroke="midnightblue" d="M1397.3,-320.356C1411.08,-298.493 1423.89,-268.107 1408.95,-245 1358.32,-166.695 1252.1,-131.909 1178.19,-116.752"/>
<polygon fill="midnightblue" stroke="midnightblue" points="1394.26,-318.606 1391.62,-328.866 1400.08,-322.493 1394.26,-318.606"/>
</g>
<!-- Node15&#45;&gt;Node14 -->
<g id="edge21" class="edge"><title>Node15&#45;&gt;Node14</title>
<path fill="none" stroke="midnightblue" d="M1286.69,-342.986C1150.11,-334.076 881.159,-314.673 653.947,-287 638.776,-285.152 622.63,-282.848 607.136,-280.467"/>
<polygon fill="midnightblue" stroke="midnightblue" points="1286.49,-346.48 1296.69,-343.635 1286.94,-339.494 1286.49,-346.48"/>
</g>
<!-- Node16 -->
<g id="node16" class="node"><title>Node16</title>
<g id="a_node16"><a xlink:href="tbb__main_8cpp.html" target="_top" xlink:title="/home/travis/build\l/ComPWA/ComPWA/ThirdParty\l/tbb/src/tbb/tbb_main.cpp">
<polygon fill="white" stroke="black" points="952.947,-167.5 952.947,-208.5 1110.95,-208.5 1110.95,-167.5 952.947,-167.5"/>
<text text-anchor="start" x="960.947" y="-196.5" font-family="Helvetica,sans-Serif" font-size="10.00">/home/travis/build</text>
<text text-anchor="start" x="960.947" y="-185.5" font-family="Helvetica,sans-Serif" font-size="10.00">/ComPWA/ComPWA/ThirdParty</text>
<text text-anchor="middle" x="1031.95" y="-174.5" font-family="Helvetica,sans-Serif" font-size="10.00">/tbb/src/tbb/tbb_main.cpp</text>
</a>
</g>
</g>
<!-- Node15&#45;&gt;Node16 -->
<g id="edge25" class="edge"><title>Node15&#45;&gt;Node16</title>
<path fill="none" stroke="midnightblue" d="M1372.96,-318.662C1368.97,-295.115 1359.66,-263.285 1337.95,-245 1329.23,-237.661 1199.05,-215.665 1111.32,-201.523"/>
<polygon fill="midnightblue" stroke="midnightblue" points="1369.53,-319.431 1374.44,-328.82 1376.46,-318.419 1369.53,-319.431"/>
</g>
<!-- Node17&#45;&gt;Node2 -->
<g id="edge27" class="edge"><title>Node17&#45;&gt;Node2</title>
<path fill="none" stroke="midnightblue" d="M652.845,-334.94C577.157,-323.151 465.715,-305.155 368.947,-287 364.226,-286.114 359.378,-285.178 354.491,-284.213"/>
<polygon fill="midnightblue" stroke="midnightblue" points="652.4,-338.413 662.819,-336.49 653.475,-331.496 652.4,-338.413"/>
</g>
<!-- Node17&#45;&gt;Node5 -->
<g id="edge29" class="edge"><title>Node17&#45;&gt;Node5</title>
<path fill="none" stroke="midnightblue" d="M652.632,-342.553C573.475,-335.201 466.444,-319.437 439.947,-287 421.813,-264.8 434.344,-230.185 445.397,-208.589"/>
<polygon fill="midnightblue" stroke="midnightblue" points="652.354,-346.042 662.627,-343.451 652.98,-339.07 652.354,-346.042"/>
</g>
<!-- Node17&#45;&gt;Node6 -->
<g id="edge30" class="edge"><title>Node17&#45;&gt;Node6</title>
<path fill="none" stroke="midnightblue" d="M652.677,-340.393C588.123,-332.326 499.81,-316.677 426.947,-287 395.438,-274.166 394.802,-256.951 362.947,-245 253.31,-203.869 208.732,-257.052 101.947,-209 37.2995,-179.909 -25.0296,-139.084 10.9471,-78 20.4607,-61.847 36.4979,-50.0231 53.0244,-41.5207"/>
<polygon fill="midnightblue" stroke="midnightblue" points="652.479,-343.895 662.828,-341.624 653.322,-336.946 652.479,-343.895"/>
</g>
<!-- Node17&#45;&gt;Node8 -->
<g id="edge38" class="edge"><title>Node17&#45;&gt;Node8</title>
<path fill="none" stroke="midnightblue" d="M811.906,-326.33C816.636,-325.12 821.348,-323.994 825.947,-323 945.567,-297.138 997.537,-355.511 1098.95,-287 1164.91,-242.437 1166.73,-207.993 1186.95,-131 1192.93,-108.217 1202.37,-95.8035 1186.95,-78 1147.69,-32.6833 978.992,-23.195 877.085,-21.6994"/>
<polygon fill="midnightblue" stroke="midnightblue" points="810.961,-322.96 802.201,-328.919 812.765,-329.723 810.961,-322.96"/>
</g>
<!-- Node17&#45;&gt;Node10 -->
<g id="edge31" class="edge"><title>Node17&#45;&gt;Node10</title>
<path fill="none" stroke="midnightblue" d="M788.156,-323.357C803,-313.547 818.536,-301.217 829.947,-287 870.603,-236.347 892.282,-160.575 900.715,-125.117"/>
<polygon fill="midnightblue" stroke="midnightblue" points="786.095,-320.52 779.532,-328.838 789.849,-326.428 786.095,-320.52"/>
</g>
<!-- Node17&#45;&gt;Node11 -->
<g id="edge36" class="edge"><title>Node17&#45;&gt;Node11</title>
<path fill="none" stroke="midnightblue" d="M812.567,-326.268C817.077,-325.095 821.565,-323.993 825.947,-323 929.857,-299.465 971.853,-342.254 1062.95,-287 1099.66,-264.732 1106.62,-249.817 1119.95,-209 1129.22,-180.59 1118.17,-146.398 1108.92,-125.305"/>
<polygon fill="midnightblue" stroke="midnightblue" points="811.432,-322.949 802.691,-328.936 813.257,-329.707 811.432,-322.949"/>
</g>
<!-- Node17&#45;&gt;Node12 -->
<g id="edge39" class="edge"><title>Node17&#45;&gt;Node12</title>
<path fill="none" stroke="midnightblue" d="M688.831,-323.306C674.956,-313.965 661.723,-301.92 653.947,-287 625.858,-233.101 659.411,-159.859 678.898,-125.213"/>
<polygon fill="midnightblue" stroke="midnightblue" points="687.183,-326.405 697.51,-328.775 690.915,-320.483 687.183,-326.405"/>
</g>
<!-- Node17&#45;&gt;Node14 -->
<g id="edge28" class="edge"><title>Node17&#45;&gt;Node14</title>
<path fill="none" stroke="midnightblue" d="M680.941,-325.266C648.767,-313.013 609.741,-298.151 579.158,-286.503"/>
<polygon fill="midnightblue" stroke="midnightblue" points="680.098,-328.69 690.689,-328.979 682.589,-322.149 680.098,-328.69"/>
</g>
<!-- Node17&#45;&gt;Node16 -->
<g id="edge40" class="edge"><title>Node17&#45;&gt;Node16</title>
<path fill="none" stroke="midnightblue" d="M831.262,-342.553C910.419,-335.201 1017.45,-319.437 1043.95,-287 1061.95,-264.964 1051.56,-230.3 1042.03,-208.65"/>
<polygon fill="midnightblue" stroke="midnightblue" points="830.914,-339.07 821.267,-343.451 831.54,-346.042 830.914,-339.07"/>
</g>
<!-- Node18 -->
<g id="node18" class="node"><title>Node18</title>
<g id="a_node18"><a xlink:href="tbb__main_8h.html" target="_top" xlink:title="/home/travis/build\l/ComPWA/ComPWA/ThirdParty\l/tbb/src/tbb/tbb_main.h">
<polygon fill="white" stroke="black" points="876.947,-245.5 876.947,-286.5 1034.95,-286.5 1034.95,-245.5 876.947,-245.5"/>
<text text-anchor="start" x="884.947" y="-274.5" font-family="Helvetica,sans-Serif" font-size="10.00">/home/travis/build</text>
<text text-anchor="start" x="884.947" y="-263.5" font-family="Helvetica,sans-Serif" font-size="10.00">/ComPWA/ComPWA/ThirdParty</text>
<text text-anchor="middle" x="955.947" y="-252.5" font-family="Helvetica,sans-Serif" font-size="10.00">/tbb/src/tbb/tbb_main.h</text>
</a>
</g>
</g>
<!-- Node17&#45;&gt;Node18 -->
<g id="edge32" class="edge"><title>Node17&#45;&gt;Node18</title>
<path fill="none" stroke="midnightblue" d="M802.953,-325.266C835.127,-313.013 874.153,-298.151 904.737,-286.503"/>
<polygon fill="midnightblue" stroke="midnightblue" points="801.305,-322.149 793.205,-328.979 803.796,-328.69 801.305,-322.149"/>
</g>
<!-- Node17&#45;&gt;Node19 -->
<g id="edge37" class="edge"><title>Node17&#45;&gt;Node19</title>
<path fill="none" stroke="midnightblue" d="M830.912,-336.73C914.326,-325.33 1042.41,-306.888 1152.95,-287 1157.51,-286.179 1162.19,-285.304 1166.9,-284.396"/>
<polygon fill="midnightblue" stroke="midnightblue" points="830.401,-333.267 820.965,-338.085 831.346,-340.203 830.401,-333.267"/>
</g>
<!-- Node20 -->
<g id="node20" class="node"><title>Node20</title>
<g id="a_node20"><a xlink:href="tbb__thread_8cpp.html" target="_top" xlink:title="/home/travis/build\l/ComPWA/ComPWA/ThirdParty\l/tbb/src/tbb/tbb_thread.cpp">
<polygon fill="white" stroke="black" points="662.947,-245.5 662.947,-286.5 820.947,-286.5 820.947,-245.5 662.947,-245.5"/>
<text text-anchor="start" x="670.947" y="-274.5" font-family="Helvetica,sans-Serif" font-size="10.00">/home/travis/build</text>
<text text-anchor="start" x="670.947" y="-263.5" font-family="Helvetica,sans-Serif" font-size="10.00">/ComPWA/ComPWA/ThirdParty</text>
<text text-anchor="middle" x="741.947" y="-252.5" font-family="Helvetica,sans-Serif" font-size="10.00">/tbb/src/tbb/tbb_thread.cpp</text>
</a>
</g>
</g>
<!-- Node17&#45;&gt;Node20 -->
<g id="edge41" class="edge"><title>Node17&#45;&gt;Node20</title>
<path fill="none" stroke="midnightblue" d="M741.947,-318.565C741.947,-307.882 741.947,-296.13 741.947,-286.547"/>
<polygon fill="midnightblue" stroke="midnightblue" points="738.447,-318.771 741.947,-328.771 745.447,-318.771 738.447,-318.771"/>
</g>
<!-- Node18&#45;&gt;Node10 -->
<g id="edge33" class="edge"><title>Node18&#45;&gt;Node10</title>
<path fill="none" stroke="midnightblue" d="M928.493,-237.728C921.538,-229.209 914.919,-219.32 910.947,-209 900.344,-181.452 900.864,-146.723 902.607,-125.32"/>
<polygon fill="midnightblue" stroke="midnightblue" points="925.992,-240.186 935.19,-245.444 931.279,-235.598 925.992,-240.186"/>
</g>
<!-- Node18&#45;&gt;Node11 -->
<g id="edge34" class="edge"><title>Node18&#45;&gt;Node11</title>
<path fill="none" stroke="midnightblue" d="M942.629,-235.516C935.384,-214.669 930.376,-186.986 943.947,-167 954.275,-151.792 992.502,-136.537 1028.41,-125.025"/>
<polygon fill="midnightblue" stroke="midnightblue" points="939.463,-237.038 946.293,-245.137 946.005,-234.546 939.463,-237.038"/>
</g>
<!-- Node18&#45;&gt;Node16 -->
<g id="edge35" class="edge"><title>Node18&#45;&gt;Node16</title>
<path fill="none" stroke="midnightblue" d="M982.743,-238.204C992.531,-228.416 1003.41,-217.539 1012.44,-208.506"/>
<polygon fill="midnightblue" stroke="midnightblue" points="980.115,-235.882 975.519,-245.428 985.065,-240.832 980.115,-235.882"/>
</g>
</g>
</svg>
        <g id="navigator" transform="translate(0 0)" fill="#404254">
                <rect fill="#f2f5e9" fill-opacity="0.5" stroke="#606060" stroke-width=".5" x="0" y="0" width="60" height="60"/>
                <use id="zoomplus" xlink:href="#zoomPlus" x="17" y="9" onmousedown="handleZoom(evt,'in')"/>
                <use id="zoomminus" xlink:href="#zoomMin" x="42" y="9" onmousedown="handleZoom(evt,'out')"/>
                <use id="reset" xlink:href="#resetDef" x="30" y="36" onmousedown="handleReset()"/>
                <g id="arrowUp" xlink:href="#dirArrow" transform="translate(30 24)" onmousedown="handlePan(0,-1)">
                  <use xlink:href="#rim" fill="#404040">
                        <set attributeName="fill" to="#808080" begin="arrowUp.mouseover" end="arrowUp.mouseout"/>
                  </use>
                  <path fill="none" stroke="white" stroke-width="1.5" d="M0,-3.0v7 M-2.5,-0.5L0,-3.0L2.5,-0.5"/>
                </g>
                <g id="arrowRight" xlink:href="#dirArrow" transform="rotate(90) translate(36 -43)" onmousedown="handlePan(1,0)">
                  <use xlink:href="#rim" fill="#404040">
                        <set attributeName="fill" to="#808080" begin="arrowRight.mouseover" end="arrowRight.mouseout"/>
                  </use>
                  <path fill="none" stroke="white" stroke-width="1.5" d="M0,-3.0v7 M-2.5,-0.5L0,-3.0L2.5,-0.5"/>
                </g>
                <g id="arrowDown" xlink:href="#dirArrow" transform="rotate(180) translate(-30 -48)" onmousedown="handlePan(0,1)">
                  <use xlink:href="#rim" fill="#404040">
                        <set attributeName="fill" to="#808080" begin="arrowDown.mouseover" end="arrowDown.mouseout"/>
                  </use>
                  <path fill="none" stroke="white" stroke-width="1.5" d="M0,-3.0v7 M-2.5,-0.5L0,-3.0L2.5,-0.5"/>
                </g>
                <g id="arrowLeft" xlink:href="#dirArrow" transform="rotate(270) translate(-36 17)" onmousedown="handlePan(-1,0)">
                  <use xlink:href="#rim" fill="#404040">
                        <set attributeName="fill" to="#808080" begin="arrowLeft.mouseover" end="arrowLeft.mouseout"/>
                  </use>
                  <path fill="none" stroke="white" stroke-width="1.5" d="M0,-3.0v7 M-2.5,-0.5L0,-3.0L2.5,-0.5"/>
                </g>
        </g>
        <svg viewBox="0 0 15 15" width="100%" height="30px" preserveAspectRatio="xMaxYMin meet">
         <g id="arrow_out" transform="scale(0.3 0.3)">
          <a xlink:href="rml__tbb_8h__dep__incl_org.svg" target="_base">
           <rect id="button" ry="5" rx="5" y="6" x="6" height="38" width="38"
                fill="#f2f5e9" fill-opacity="0.5" stroke="#606060" stroke-width="1.0"/>
           <path id="arrow"
             d="M 11.500037,31.436501 C 11.940474,20.09759 22.043105,11.32322 32.158766,21.979434 L 37.068811,17.246167 C 37.068811,17.246167 37.088388,32 37.088388,32 L 22.160133,31.978069 C 22.160133,31.978069 26.997745,27.140456 26.997745,27.140456 C 18.528582,18.264221 13.291696,25.230495 11.500037,31.436501 z"
             style="fill:#404040;"/>
          </a>
         </g>
        </svg>
</svg>
