<?xml version="1.0" encoding="UTF-8" standalone="no"?>
<!DOCTYPE svg PUBLIC "-//W3C//DTD SVG 1.1//EN"
 "http://www.w3.org/Graphics/SVG/1.1/DTD/svg11.dtd">
<!-- Generated by graphviz version 2.38.0 (20140413.2041)
 -->
<!-- Title: Tools/Plotting/RootPlotData.cpp Pages: 1 -->
<!--zoomable 386 -->
<svg id="main" version="1.1" xmlns="http://www.w3.org/2000/svg" xmlns:xlink="http://www.w3.org/1999/xlink" xml:space="preserve" onload="init(evt)">
<style type="text/css"><![CDATA[
.edge:hover path { stroke: red; }
.edge:hover polygon { stroke: red; fill: red; }
]]></style>
<script type="text/javascript"><![CDATA[
var edges = document.getElementsByTagName('g');
if (edges && edges.length) {
  for (var i=0;i<edges.length;i++) {
    if (edges[i].id.substr(0,4)=='edge') {
      edges[i].setAttribute('class','edge');
    }
  }
}
]]></script>
        <defs>
                <circle id="rim" cx="0" cy="0" r="7"/>
                <circle id="rim2" cx="0" cy="0" r="3.5"/>
                <g id="zoomPlus">
                        <use xlink:href="#rim" fill="#404040">
                                <set attributeName="fill" to="#808080" begin="zoomplus.mouseover" end="zoomplus.mouseout"/>
                        </use>
                        <path d="M-4,0h8M0,-4v8" fill="none" stroke="white" stroke-width="1.5" pointer-events="none"/>
                </g>
                <g id="zoomMin">
                        <use xlink:href="#rim" fill="#404040">
                                <set attributeName="fill" to="#808080" begin="zoomminus.mouseover" end="zoomminus.mouseout"/>
                        </use>
                        <path d="M-4,0h8" fill="none" stroke="white" stroke-width="1.5" pointer-events="none"/>
                </g>
                <g id="dirArrow">
                        <path fill="none" stroke="white" stroke-width="1.5" d="M0,-3.0v7 M-2.5,-0.5L0,-3.0L2.5,-0.5"/>
                </g>
               <g id="resetDef">
                       <use xlink:href="#rim2" fill="#404040">
                               <set attributeName="fill" to="#808080" begin="reset.mouseover" end="reset.mouseout"/>
                       </use>
               </g>
        </defs>

<script type="text/javascript">
var viewWidth = 705;
var viewHeight = 386;
var sectionId = 'dynsection-0';
</script>
<script xlink:href="svgpan.js"/>
<svg id="graph" class="graph">
<g id="viewport">
<title>Tools/Plotting/RootPlotData.cpp</title>
<polygon fill="white" stroke="none" points="-4,4 -4,-382 701,-382 701,4 -4,4"/>
<!-- Node1 -->
<g id="node1" class="node"><title>Node1</title>
<polygon fill="#bfbfbf" stroke="black" points="222,-358.5 222,-377.5 380,-377.5 380,-358.5 222,-358.5"/>
<text text-anchor="middle" x="301" y="-365.5" font-family="Helvetica,sans-Serif" font-size="10.00">Tools/Plotting/RootPlotData.cpp</text>
</g>
<!-- Node2 -->
<g id="node2" class="node"><title>Node2</title>
<g id="a_node2"><a xlink:href="RootPlotData_8hpp.html" target="_top" xlink:title="Tools/Plotting/RootPlotData.hpp">
<polygon fill="white" stroke="black" points="111,-179.5 111,-198.5 269,-198.5 269,-179.5 111,-179.5"/>
<text text-anchor="middle" x="190" y="-186.5" font-family="Helvetica,sans-Serif" font-size="10.00">Tools/Plotting/RootPlotData.hpp</text>
</a>
</g>
</g>
<!-- Node1&#45;&gt;Node2 -->
<g id="edge1" class="edge"><title>Node1&#45;&gt;Node2</title>
<path fill="none" stroke="midnightblue" d="M221.707,-362.198C194.572,-356.286 166.839,-344.589 150,-322 123.513,-286.468 156.231,-233.32 176.392,-206.598"/>
<polygon fill="midnightblue" stroke="midnightblue" points="179.235,-208.645 182.645,-198.613 173.724,-204.329 179.235,-208.645"/>
</g>
<!-- Node8 -->
<g id="node8" class="node"><title>Node8</title>
<g id="a_node8"><a xlink:href="Logging_8hpp.html" target="_top" xlink:title="Core/Logging.hpp">
<polygon fill="white" stroke="red" points="14.5,-56.5 14.5,-75.5 107.5,-75.5 107.5,-56.5 14.5,-56.5"/>
<text text-anchor="middle" x="61" y="-63.5" font-family="Helvetica,sans-Serif" font-size="10.00">Core/Logging.hpp</text>
</a>
</g>
</g>
<!-- Node1&#45;&gt;Node8 -->
<g id="edge12" class="edge"><title>Node1&#45;&gt;Node8</title>
<path fill="none" stroke="midnightblue" d="M250.958,-358.467C165.367,-342.44 0,-304.604 0,-251.5 0,-251.5 0,-251.5 0,-188 0,-146.878 28.4392,-105.5 46.481,-83.3875"/>
<polygon fill="midnightblue" stroke="midnightblue" points="49.2426,-85.5422 53.0253,-75.6457 43.8966,-81.0232 49.2426,-85.5422"/>
</g>
<!-- Node9 -->
<g id="node9" class="node"><title>Node9</title>
<polygon fill="white" stroke="#bfbfbf" points="66.5,-118 66.5,-137 113.5,-137 113.5,-118 66.5,-118"/>
<text text-anchor="middle" x="90" y="-125" font-family="Helvetica,sans-Serif" font-size="10.00">TFile.h</text>
</g>
<!-- Node1&#45;&gt;Node9 -->
<g id="edge38" class="edge"><title>Node1&#45;&gt;Node9</title>
<path fill="none" stroke="midnightblue" d="M221.951,-361.329C192.229,-355.41 160.277,-343.937 138,-322 89.7249,-274.461 87.2117,-186.486 88.7028,-147.709"/>
<polygon fill="midnightblue" stroke="midnightblue" points="92.2173,-147.524 89.2479,-137.354 85.227,-147.156 92.2173,-147.524"/>
</g>
<!-- Node10 -->
<g id="node10" class="node"><title>Node10</title>
<g id="a_node10"><a xlink:href="ProgressBar_8hpp.html" target="_top" xlink:title="Core/ProgressBar.hpp">
<polygon fill="white" stroke="black" points="159.5,-302.5 159.5,-321.5 272.5,-321.5 272.5,-302.5 159.5,-302.5"/>
<text text-anchor="middle" x="216" y="-309.5" font-family="Helvetica,sans-Serif" font-size="10.00">Core/ProgressBar.hpp</text>
</a>
</g>
</g>
<!-- Node1&#45;&gt;Node10 -->
<g id="edge13" class="edge"><title>Node1&#45;&gt;Node10</title>
<path fill="none" stroke="midnightblue" d="M287.343,-358.324C274.084,-349.9 253.732,-336.971 238.154,-327.074"/>
<polygon fill="midnightblue" stroke="midnightblue" points="239.94,-324.063 229.623,-321.655 236.187,-329.971 239.94,-324.063"/>
</g>
<!-- Node12 -->
<g id="node12" class="node"><title>Node12</title>
<g id="a_node12"><a xlink:href="Properties_8hpp.html" target="_top" xlink:title="Core/Properties.hpp">
<polygon fill="white" stroke="black" points="354,-179.5 354,-198.5 458,-198.5 458,-179.5 354,-179.5"/>
<text text-anchor="middle" x="406" y="-186.5" font-family="Helvetica,sans-Serif" font-size="10.00">Core/Properties.hpp</text>
</a>
</g>
</g>
<!-- Node1&#45;&gt;Node12 -->
<g id="edge15" class="edge"><title>Node1&#45;&gt;Node12</title>
<path fill="none" stroke="midnightblue" d="M299.738,-358.316C296.935,-335.681 292.449,-273.933 320,-235 330.822,-219.707 348.465,-209.21 364.963,-202.227"/>
<polygon fill="midnightblue" stroke="midnightblue" points="366.44,-205.408 374.484,-198.512 363.896,-198.887 366.44,-205.408"/>
</g>
<!-- Node16 -->
<g id="node16" class="node"><title>Node16</title>
<g id="a_node16"><a xlink:href="DataSet_8hpp.html" target="_top" xlink:title="Data/DataSet.hpp">
<polygon fill="white" stroke="black" points="439.5,-302.5 439.5,-321.5 534.5,-321.5 534.5,-302.5 439.5,-302.5"/>
<text text-anchor="middle" x="487" y="-309.5" font-family="Helvetica,sans-Serif" font-size="10.00">Data/DataSet.hpp</text>
</a>
</g>
</g>
<!-- Node1&#45;&gt;Node16 -->
<g id="edge23" class="edge"><title>Node1&#45;&gt;Node16</title>
<path fill="none" stroke="midnightblue" d="M330.472,-358.444C362.171,-349.241 412.732,-334.562 447.775,-324.388"/>
<polygon fill="midnightblue" stroke="midnightblue" points="449.038,-327.666 457.666,-321.516 447.086,-320.943 449.038,-327.666"/>
</g>
<!-- Node20 -->
<g id="node20" class="node"><title>Node20</title>
<g id="a_node20"><a xlink:href="ParticleStateTransitionKinematicsInfo_8hpp.html" target="_top" xlink:title="Physics/ParticleStateTransition\lKinematicsInfo.hpp">
<polygon fill="white" stroke="black" points="329,-235.5 329,-265.5 483,-265.5 483,-235.5 329,-235.5"/>
<text text-anchor="start" x="337" y="-253.5" font-family="Helvetica,sans-Serif" font-size="10.00">Physics/ParticleStateTransition</text>
<text text-anchor="middle" x="406" y="-242.5" font-family="Helvetica,sans-Serif" font-size="10.00">KinematicsInfo.hpp</text>
</a>
</g>
</g>
<!-- Node1&#45;&gt;Node20 -->
<g id="edge32" class="edge"><title>Node1&#45;&gt;Node20</title>
<path fill="none" stroke="midnightblue" d="M308.892,-358.319C325.23,-340.347 363.176,-298.606 386.502,-272.948"/>
<polygon fill="midnightblue" stroke="midnightblue" points="389.095,-275.299 393.232,-265.545 383.915,-270.59 389.095,-275.299"/>
</g>
<!-- Node21 -->
<g id="node21" class="node"><title>Node21</title>
<polygon fill="white" stroke="#bfbfbf" points="553,-302.5 553,-321.5 629,-321.5 629,-302.5 553,-302.5"/>
<text text-anchor="middle" x="591" y="-309.5" font-family="Helvetica,sans-Serif" font-size="10.00">TParameter.h</text>
</g>
<!-- Node1&#45;&gt;Node21 -->
<g id="edge39" class="edge"><title>Node1&#45;&gt;Node21</title>
<path fill="none" stroke="midnightblue" d="M346.947,-358.477C393.536,-349.831 467.995,-335.999 542.689,-322.056"/>
<polygon fill="midnightblue" stroke="midnightblue" points="543.561,-325.453 552.749,-320.177 542.276,-318.572 543.561,-325.453"/>
</g>
<!-- Node22 -->
<g id="node22" class="node"><title>Node22</title>
<polygon fill="white" stroke="#bfbfbf" points="647,-302.5 647,-321.5 697,-321.5 697,-302.5 647,-302.5"/>
<text text-anchor="middle" x="672" y="-309.5" font-family="Helvetica,sans-Serif" font-size="10.00">TTree.h</text>
</g>
<!-- Node1&#45;&gt;Node22 -->
<g id="edge40" class="edge"><title>Node1&#45;&gt;Node22</title>
<path fill="none" stroke="midnightblue" d="M380.109,-359.285C446.354,-352.171 543.513,-340.217 636.929,-321.998"/>
<polygon fill="midnightblue" stroke="midnightblue" points="637.7,-325.414 646.831,-320.04 636.342,-318.547 637.7,-325.414"/>
</g>
<!-- Node3 -->
<g id="node3" class="node"><title>Node3</title>
<polygon fill="white" stroke="#bfbfbf" points="304.5,-118 304.5,-137 339.5,-137 339.5,-118 304.5,-118"/>
<text text-anchor="middle" x="322" y="-125" font-family="Helvetica,sans-Serif" font-size="10.00">map</text>
</g>
<!-- Node2&#45;&gt;Node3 -->
<g id="edge2" class="edge"><title>Node2&#45;&gt;Node3</title>
<path fill="none" stroke="midnightblue" d="M209.177,-179.388C229.313,-170.342 261.891,-155.693 290,-143 291.605,-142.275 293.255,-141.529 294.92,-140.777"/>
<polygon fill="midnightblue" stroke="midnightblue" points="296.732,-143.798 304.398,-136.486 293.845,-137.421 296.732,-143.798"/>
</g>
<!-- Node4 -->
<g id="node4" class="node"><title>Node4</title>
<g id="a_node4"><a xlink:href="FitParameter_8hpp.html" target="_top" xlink:title="Core/FitParameter.hpp">
<polygon fill="white" stroke="red" points="132,-118 132,-137 248,-137 248,-118 132,-118"/>
<text text-anchor="middle" x="190" y="-125" font-family="Helvetica,sans-Serif" font-size="10.00">Core/FitParameter.hpp</text>
</a>
</g>
</g>
<!-- Node2&#45;&gt;Node4 -->
<g id="edge3" class="edge"><title>Node2&#45;&gt;Node4</title>
<path fill="none" stroke="midnightblue" d="M190,-179.475C190,-171.08 190,-157.981 190,-147.163"/>
<polygon fill="midnightblue" stroke="midnightblue" points="193.5,-147.009 190,-137.009 186.5,-147.009 193.5,-147.009"/>
</g>
<!-- Node5 -->
<g id="node5" class="node"><title>Node5</title>
<g id="a_node5"><a xlink:href="Function_8hpp.html" target="_top" xlink:title="Core/Function.hpp">
<polygon fill="white" stroke="red" points="328.5,-56.5 328.5,-75.5 425.5,-75.5 425.5,-56.5 328.5,-56.5"/>
<text text-anchor="middle" x="377" y="-63.5" font-family="Helvetica,sans-Serif" font-size="10.00">Core/Function.hpp</text>
</a>
</g>
</g>
<!-- Node2&#45;&gt;Node5 -->
<g id="edge10" class="edge"><title>Node2&#45;&gt;Node5</title>
<path fill="none" stroke="midnightblue" d="M203.601,-179.394C217.32,-170.591 238.989,-156.35 257,-143 274.51,-130.021 276.927,-124.182 295,-112 312.672,-100.088 333.776,-88.5624 350.149,-80.158"/>
<polygon fill="midnightblue" stroke="midnightblue" points="351.836,-83.2271 359.18,-75.591 348.677,-76.9804 351.836,-83.2271"/>
</g>
<!-- Node2&#45;&gt;Node9 -->
<g id="edge11" class="edge"><title>Node2&#45;&gt;Node9</title>
<path fill="none" stroke="midnightblue" d="M175.672,-179.475C159.336,-169.755 132.398,-153.727 113.088,-142.237"/>
<polygon fill="midnightblue" stroke="midnightblue" points="114.685,-139.115 104.301,-137.009 111.105,-145.13 114.685,-139.115"/>
</g>
<!-- Node4&#45;&gt;Node5 -->
<g id="edge4" class="edge"><title>Node4&#45;&gt;Node5</title>
<path fill="none" stroke="midnightblue" d="M216.793,-117.975C249.286,-107.636 304.208,-90.1611 340.538,-78.6017"/>
<polygon fill="midnightblue" stroke="midnightblue" points="341.789,-81.8764 350.257,-75.5091 339.667,-75.2059 341.789,-81.8764"/>
</g>
<!-- Node6 -->
<g id="node6" class="node"><title>Node6</title>
<polygon fill="white" stroke="#bfbfbf" points="156.5,-0.5 156.5,-19.5 197.5,-19.5 197.5,-0.5 156.5,-0.5"/>
<text text-anchor="middle" x="177" y="-7.5" font-family="Helvetica,sans-Serif" font-size="10.00">string</text>
</g>
<!-- Node4&#45;&gt;Node6 -->
<g id="edge8" class="edge"><title>Node4&#45;&gt;Node6</title>
<path fill="none" stroke="midnightblue" d="M181.395,-117.745C172.803,-108.335 160.157,-92.4935 155,-76 149.908,-59.7132 157.401,-41.3033 164.99,-28.2447"/>
<polygon fill="midnightblue" stroke="midnightblue" points="167.953,-30.1078 170.355,-19.7887 162.043,-26.3578 167.953,-30.1078"/>
</g>
<!-- Node7 -->
<g id="node7" class="node"><title>Node7</title>
<polygon fill="white" stroke="#bfbfbf" points="451,-0.5 451,-19.5 495,-19.5 495,-0.5 451,-0.5"/>
<text text-anchor="middle" x="473" y="-7.5" font-family="Helvetica,sans-Serif" font-size="10.00">vector</text>
</g>
<!-- Node4&#45;&gt;Node7 -->
<g id="edge9" class="edge"><title>Node4&#45;&gt;Node7</title>
<path fill="none" stroke="midnightblue" d="M205.465,-117.932C238.438,-99.6812 313.133,-58.4267 319,-56 359.815,-39.1163 409.155,-25.8829 440.798,-18.2558"/>
<polygon fill="midnightblue" stroke="midnightblue" points="441.887,-21.5949 450.813,-15.887 440.276,-14.7829 441.887,-21.5949"/>
</g>
<!-- Node4&#45;&gt;Node8 -->
<g id="edge7" class="edge"><title>Node4&#45;&gt;Node8</title>
<path fill="none" stroke="midnightblue" d="M171.517,-117.975C149.868,-107.99 113.787,-91.3476 88.7675,-79.8075"/>
<polygon fill="midnightblue" stroke="midnightblue" points="89.9948,-76.5193 79.4483,-75.5091 87.063,-82.8757 89.9948,-76.5193"/>
</g>
<!-- Node5&#45;&gt;Node6 -->
<g id="edge5" class="edge"><title>Node5&#45;&gt;Node6</title>
<path fill="none" stroke="midnightblue" d="M345.309,-56.4435C307.454,-46.2225 244.581,-29.2468 207.335,-19.1904"/>
<polygon fill="midnightblue" stroke="midnightblue" points="208.118,-15.7765 197.551,-16.5488 206.293,-22.5345 208.118,-15.7765"/>
</g>
<!-- Node5&#45;&gt;Node7 -->
<g id="edge6" class="edge"><title>Node5&#45;&gt;Node7</title>
<path fill="none" stroke="midnightblue" d="M392.424,-56.324C407.54,-47.8215 430.815,-34.7288 448.471,-24.7975"/>
<polygon fill="midnightblue" stroke="midnightblue" points="450.614,-27.6077 457.614,-19.6545 447.183,-21.5066 450.614,-27.6077"/>
</g>
<!-- Node11 -->
<g id="node11" class="node"><title>Node11</title>
<polygon fill="white" stroke="#bfbfbf" points="195.5,-241 195.5,-260 236.5,-260 236.5,-241 195.5,-241"/>
<text text-anchor="middle" x="216" y="-248" font-family="Helvetica,sans-Serif" font-size="10.00">ctime</text>
</g>
<!-- Node10&#45;&gt;Node11 -->
<g id="edge14" class="edge"><title>Node10&#45;&gt;Node11</title>
<path fill="none" stroke="midnightblue" d="M216,-302.475C216,-294.08 216,-280.981 216,-270.163"/>
<polygon fill="midnightblue" stroke="midnightblue" points="219.5,-270.009 216,-260.009 212.5,-270.009 219.5,-270.009"/>
</g>
<!-- Node12&#45;&gt;Node3 -->
<g id="edge20" class="edge"><title>Node12&#45;&gt;Node3</title>
<path fill="none" stroke="midnightblue" d="M393.965,-179.475C380.492,-169.931 358.434,-154.307 342.285,-142.868"/>
<polygon fill="midnightblue" stroke="midnightblue" points="344.196,-139.933 334.013,-137.009 340.15,-145.645 344.196,-139.933"/>
</g>
<!-- Node12&#45;&gt;Node4 -->
<g id="edge18" class="edge"><title>Node12&#45;&gt;Node4</title>
<path fill="none" stroke="midnightblue" d="M375.052,-179.475C337.119,-169.026 272.722,-151.287 230.78,-139.733"/>
<polygon fill="midnightblue" stroke="midnightblue" points="231.461,-136.291 220.89,-137.009 229.602,-143.039 231.461,-136.291"/>
</g>
<!-- Node12&#45;&gt;Node7 -->
<g id="edge22" class="edge"><title>Node12&#45;&gt;Node7</title>
<path fill="none" stroke="midnightblue" d="M412.581,-179.474C419.059,-170.733 428.85,-156.539 435,-143 452.526,-104.417 464.031,-55.7948 469.429,-29.6623"/>
<polygon fill="midnightblue" stroke="midnightblue" points="472.903,-30.1347 471.424,-19.6437 466.038,-28.7677 472.903,-30.1347"/>
</g>
<!-- Node13 -->
<g id="node13" class="node"><title>Node13</title>
<g id="a_node13"><a xlink:href="Exceptions_8hpp.html" target="_top" xlink:title="ComPWA exceptions. ">
<polygon fill="white" stroke="red" points="164,-56.5 164,-75.5 272,-75.5 272,-56.5 164,-56.5"/>
<text text-anchor="middle" x="218" y="-63.5" font-family="Helvetica,sans-Serif" font-size="10.00">Core/Exceptions.hpp</text>
</a>
</g>
</g>
<!-- Node12&#45;&gt;Node13 -->
<g id="edge16" class="edge"><title>Node12&#45;&gt;Node13</title>
<path fill="none" stroke="midnightblue" d="M401.65,-179.382C393.331,-163.739 373.689,-130.577 348,-112 325.632,-95.825 296.964,-85.0829 272.243,-78.165"/>
<polygon fill="midnightblue" stroke="midnightblue" points="272.84,-74.7024 262.277,-75.5192 271.044,-81.468 272.84,-74.7024"/>
</g>
<!-- Node14 -->
<g id="node14" class="node"><title>Node14</title>
<polygon fill="white" stroke="#bfbfbf" points="520.5,-112.5 520.5,-142.5 621.5,-142.5 621.5,-112.5 520.5,-112.5"/>
<text text-anchor="start" x="528.5" y="-130.5" font-family="Helvetica,sans-Serif" font-size="10.00">boost/property_tree</text>
<text text-anchor="middle" x="571" y="-119.5" font-family="Helvetica,sans-Serif" font-size="10.00">/ptree.hpp</text>
</g>
<!-- Node12&#45;&gt;Node14 -->
<g id="edge19" class="edge"><title>Node12&#45;&gt;Node14</title>
<path fill="none" stroke="midnightblue" d="M429.64,-179.475C453.763,-170.776 491.893,-157.026 522.476,-145.998"/>
<polygon fill="midnightblue" stroke="midnightblue" points="523.893,-149.208 532.113,-142.523 521.518,-142.623 523.893,-149.208"/>
</g>
<!-- Node15 -->
<g id="node15" class="node"><title>Node15</title>
<polygon fill="white" stroke="#bfbfbf" points="396,-118 396,-137 426,-137 426,-118 396,-118"/>
<text text-anchor="middle" x="411" y="-125" font-family="Helvetica,sans-Serif" font-size="10.00">set</text>
</g>
<!-- Node12&#45;&gt;Node15 -->
<g id="edge21" class="edge"><title>Node12&#45;&gt;Node15</title>
<path fill="none" stroke="midnightblue" d="M406.716,-179.475C407.422,-171.08 408.523,-157.981 409.432,-147.163"/>
<polygon fill="midnightblue" stroke="midnightblue" points="412.935,-147.267 410.285,-137.009 405.96,-146.681 412.935,-147.267"/>
</g>
<!-- Node13&#45;&gt;Node6 -->
<g id="edge17" class="edge"><title>Node13&#45;&gt;Node6</title>
<path fill="none" stroke="midnightblue" d="M211.23,-56.083C205.438,-48.4554 196.942,-37.2645 189.862,-27.9408"/>
<polygon fill="midnightblue" stroke="midnightblue" points="192.479,-25.5991 183.644,-19.7511 186.904,-29.8321 192.479,-25.5991"/>
</g>
<!-- Node16&#45;&gt;Node5 -->
<g id="edge31" class="edge"><title>Node16&#45;&gt;Node5</title>
<path fill="none" stroke="midnightblue" d="M532.724,-302.448C582.687,-292.642 656.775,-276.563 665,-266 695.281,-227.111 704.479,-179.299 630,-112 602.154,-86.8382 501.629,-75.3128 435.985,-70.368"/>
<polygon fill="midnightblue" stroke="midnightblue" points="435.992,-66.8594 425.766,-69.6298 435.487,-73.8413 435.992,-66.8594"/>
</g>
<!-- Node17 -->
<g id="node17" class="node"><title>Node17</title>
<polygon fill="white" stroke="#bfbfbf" points="501,-241 501,-260 553,-260 553,-241 501,-241"/>
<text text-anchor="middle" x="527" y="-248" font-family="Helvetica,sans-Serif" font-size="10.00">memory</text>
</g>
<!-- Node16&#45;&gt;Node17 -->
<g id="edge24" class="edge"><title>Node16&#45;&gt;Node17</title>
<path fill="none" stroke="midnightblue" d="M492.731,-302.475C498.672,-293.638 508.117,-279.589 515.588,-268.475"/>
<polygon fill="midnightblue" stroke="midnightblue" points="518.605,-270.261 521.28,-260.009 512.796,-266.355 518.605,-270.261"/>
</g>
<!-- Node18 -->
<g id="node18" class="node"><title>Node18</title>
<g id="a_node18"><a xlink:href="Event_8hpp.html" target="_top" xlink:title="Core/Event.hpp">
<polygon fill="white" stroke="red" points="571.5,-241 571.5,-260 656.5,-260 656.5,-241 571.5,-241"/>
<text text-anchor="middle" x="614" y="-248" font-family="Helvetica,sans-Serif" font-size="10.00">Core/Event.hpp</text>
</a>
</g>
</g>
<!-- Node16&#45;&gt;Node18 -->
<g id="edge25" class="edge"><title>Node16&#45;&gt;Node18</title>
<path fill="none" stroke="midnightblue" d="M505.196,-302.475C526.509,-292.49 562.031,-275.848 586.663,-264.307"/>
<polygon fill="midnightblue" stroke="midnightblue" points="588.267,-267.421 595.838,-260.009 585.297,-261.082 588.267,-267.421"/>
</g>
<!-- Node18&#45;&gt;Node7 -->
<g id="edge30" class="edge"><title>Node18&#45;&gt;Node7</title>
<path fill="none" stroke="midnightblue" d="M619.366,-240.966C632.393,-219.122 663.45,-159.562 647,-112 636.654,-82.0862 628.779,-74.3663 603,-56 573.506,-34.9868 533.344,-23.0789 505.498,-16.8621"/>
<polygon fill="midnightblue" stroke="midnightblue" points="505.984,-13.3877 495.477,-14.751 504.541,-20.2373 505.984,-13.3877"/>
</g>
<!-- Node18&#45;&gt;Node12 -->
<g id="edge29" class="edge"><title>Node18&#45;&gt;Node12</title>
<path fill="none" stroke="midnightblue" d="M584.199,-240.975C547.747,-230.548 485.92,-212.862 445.526,-201.307"/>
<polygon fill="midnightblue" stroke="midnightblue" points="446.323,-197.894 435.746,-198.509 444.398,-204.624 446.323,-197.894"/>
</g>
<!-- Node19 -->
<g id="node19" class="node"><title>Node19</title>
<g id="a_node19"><a xlink:href="Particle_8hpp.html" target="_top" xlink:title="Particle and FourMomentum class. ">
<polygon fill="white" stroke="red" points="528,-179.5 528,-198.5 620,-198.5 620,-179.5 528,-179.5"/>
<text text-anchor="middle" x="574" y="-186.5" font-family="Helvetica,sans-Serif" font-size="10.00">Core/Particle.hpp</text>
</a>
</g>
</g>
<!-- Node18&#45;&gt;Node19 -->
<g id="edge26" class="edge"><title>Node18&#45;&gt;Node19</title>
<path fill="none" stroke="midnightblue" d="M608.269,-240.975C602.328,-232.138 592.883,-218.089 585.412,-206.975"/>
<polygon fill="midnightblue" stroke="midnightblue" points="588.204,-204.855 579.72,-198.509 582.395,-208.761 588.204,-204.855"/>
</g>
<!-- Node19&#45;&gt;Node7 -->
<g id="edge27" class="edge"><title>Node19&#45;&gt;Node7</title>
<path fill="none" stroke="midnightblue" d="M591.502,-179.465C604.787,-171.917 622.076,-159.533 630,-143 635.955,-130.576 636.6,-124.094 630,-112 603.419,-63.2947 542.175,-34.5627 504.518,-20.8721"/>
<polygon fill="midnightblue" stroke="midnightblue" points="505.624,-17.5512 495.029,-17.5587 503.316,-24.1598 505.624,-17.5512"/>
</g>
<!-- Node19&#45;&gt;Node14 -->
<g id="edge28" class="edge"><title>Node19&#45;&gt;Node14</title>
<path fill="none" stroke="midnightblue" d="M573.57,-179.475C573.217,-172.471 572.699,-162.192 572.22,-152.696"/>
<polygon fill="midnightblue" stroke="midnightblue" points="575.706,-152.334 571.707,-142.523 568.715,-152.687 575.706,-152.334"/>
</g>
<!-- Node20&#45;&gt;Node3 -->
<g id="edge33" class="edge"><title>Node20&#45;&gt;Node3</title>
<path fill="none" stroke="midnightblue" d="M383.222,-235.373C370.386,-226.373 354.975,-213.665 345,-199 334.383,-183.392 328.383,-162.535 325.194,-147.563"/>
<polygon fill="midnightblue" stroke="midnightblue" points="328.577,-146.617 323.273,-137.445 321.699,-147.922 328.577,-146.617"/>
</g>
<!-- Node20&#45;&gt;Node6 -->
<g id="edge34" class="edge"><title>Node20&#45;&gt;Node6</title>
<path fill="none" stroke="midnightblue" d="M328.981,-242.994C251.899,-235.38 139.522,-220.947 102,-199 94.6251,-194.686 6.09178,-79.1874 5,-76 -14.832,-18.1014 91.5072,-10.468 146.161,-10.2851"/>
<polygon fill="midnightblue" stroke="midnightblue" points="146.333,-13.7859 156.35,-10.3352 146.367,-6.78596 146.333,-13.7859"/>
</g>
<!-- Node20&#45;&gt;Node7 -->
<g id="edge35" class="edge"><title>Node20&#45;&gt;Node7</title>
<path fill="none" stroke="midnightblue" d="M431.384,-235.361C444.394,-226.672 459.123,-214.274 467,-199 495.904,-142.956 484.617,-64.4936 477.326,-29.3206"/>
<polygon fill="midnightblue" stroke="midnightblue" points="480.732,-28.5134 475.155,-19.5052 473.897,-30.0251 480.732,-28.5134"/>
</g>
<!-- Node20&#45;&gt;Node12 -->
<g id="edge37" class="edge"><title>Node20&#45;&gt;Node12</title>
<path fill="none" stroke="midnightblue" d="M406,-235.399C406,-227.466 406,-217.458 406,-208.858"/>
<polygon fill="midnightblue" stroke="midnightblue" points="409.5,-208.658 406,-198.658 402.5,-208.658 409.5,-208.658"/>
</g>
<!-- Node20&#45;&gt;Node19 -->
<g id="edge36" class="edge"><title>Node20&#45;&gt;Node19</title>
<path fill="none" stroke="midnightblue" d="M445.814,-235.399C474.505,-225.238 512.81,-211.672 540.055,-202.022"/>
<polygon fill="midnightblue" stroke="midnightblue" points="541.297,-205.296 549.555,-198.658 538.96,-198.697 541.297,-205.296"/>
</g>
</g>
</svg>
        <g id="navigator" transform="translate(0 0)" fill="#404254">
                <rect fill="#f2f5e9" fill-opacity="0.5" stroke="#606060" stroke-width=".5" x="0" y="0" width="60" height="60"/>
                <use id="zoomplus" xlink:href="#zoomPlus" x="17" y="9" onmousedown="handleZoom(evt,'in')"/>
                <use id="zoomminus" xlink:href="#zoomMin" x="42" y="9" onmousedown="handleZoom(evt,'out')"/>
                <use id="reset" xlink:href="#resetDef" x="30" y="36" onmousedown="handleReset()"/>
                <g id="arrowUp" xlink:href="#dirArrow" transform="translate(30 24)" onmousedown="handlePan(0,-1)">
                  <use xlink:href="#rim" fill="#404040">
                        <set attributeName="fill" to="#808080" begin="arrowUp.mouseover" end="arrowUp.mouseout"/>
                  </use>
                  <path fill="none" stroke="white" stroke-width="1.5" d="M0,-3.0v7 M-2.5,-0.5L0,-3.0L2.5,-0.5"/>
                </g>
                <g id="arrowRight" xlink:href="#dirArrow" transform="rotate(90) translate(36 -43)" onmousedown="handlePan(1,0)">
                  <use xlink:href="#rim" fill="#404040">
                        <set attributeName="fill" to="#808080" begin="arrowRight.mouseover" end="arrowRight.mouseout"/>
                  </use>
                  <path fill="none" stroke="white" stroke-width="1.5" d="M0,-3.0v7 M-2.5,-0.5L0,-3.0L2.5,-0.5"/>
                </g>
                <g id="arrowDown" xlink:href="#dirArrow" transform="rotate(180) translate(-30 -48)" onmousedown="handlePan(0,1)">
                  <use xlink:href="#rim" fill="#404040">
                        <set attributeName="fill" to="#808080" begin="arrowDown.mouseover" end="arrowDown.mouseout"/>
                  </use>
                  <path fill="none" stroke="white" stroke-width="1.5" d="M0,-3.0v7 M-2.5,-0.5L0,-3.0L2.5,-0.5"/>
                </g>
                <g id="arrowLeft" xlink:href="#dirArrow" transform="rotate(270) translate(-36 17)" onmousedown="handlePan(-1,0)">
                  <use xlink:href="#rim" fill="#404040">
                        <set attributeName="fill" to="#808080" begin="arrowLeft.mouseover" end="arrowLeft.mouseout"/>
                  </use>
                  <path fill="none" stroke="white" stroke-width="1.5" d="M0,-3.0v7 M-2.5,-0.5L0,-3.0L2.5,-0.5"/>
                </g>
        </g>
        <svg viewBox="0 0 15 15" width="100%" height="30px" preserveAspectRatio="xMaxYMin meet">
         <g id="arrow_out" transform="scale(0.3 0.3)">
          <a xlink:href="RootPlotData_8cpp__incl_org.svg" target="_base">
           <rect id="button" ry="5" rx="5" y="6" x="6" height="38" width="38"
                fill="#f2f5e9" fill-opacity="0.5" stroke="#606060" stroke-width="1.0"/>
           <path id="arrow"
             d="M 11.500037,31.436501 C 11.940474,20.09759 22.043105,11.32322 32.158766,21.979434 L 37.068811,17.246167 C 37.068811,17.246167 37.088388,32 37.088388,32 L 22.160133,31.978069 C 22.160133,31.978069 26.997745,27.140456 26.997745,27.140456 C 18.528582,18.264221 13.291696,25.230495 11.500037,31.436501 z"
             style="fill:#404040;"/>
          </a>
         </g>
        </svg>
</svg>
