<?xml version="1.0" encoding="UTF-8" standalone="no"?>
<!DOCTYPE svg PUBLIC "-//W3C//DTD SVG 1.1//EN"
 "http://www.w3.org/Graphics/SVG/1.1/DTD/svg11.dtd">
<!-- Generated by graphviz version 2.40.1 (20161225.0304)
 -->
<!-- Title: Tools/Plotting/RootPlotData.cpp Pages: 1 -->
<!--zoomable 386 -->
<svg id="main" version="1.1" xmlns="http://www.w3.org/2000/svg" xmlns:xlink="http://www.w3.org/1999/xlink" xml:space="preserve" onload="init(evt)">
<style type="text/css"><![CDATA[
.edge:hover path { stroke: red; }
.edge:hover polygon { stroke: red; fill: red; }
]]></style>
<script type="text/javascript"><![CDATA[
var edges = document.getElementsByTagName('g');
if (edges && edges.length) {
  for (var i=0;i<edges.length;i++) {
    if (edges[i].id.substr(0,4)=='edge') {
      edges[i].setAttribute('class','edge');
    }
  }
}
]]></script>
        <defs>
                <circle id="rim" cx="0" cy="0" r="7"/>
                <circle id="rim2" cx="0" cy="0" r="3.5"/>
                <g id="zoomPlus">
                        <use xlink:href="#rim" fill="#404040">
                                <set attributeName="fill" to="#808080" begin="zoomplus.mouseover" end="zoomplus.mouseout"/>
                        </use>
                        <path d="M-4,0h8M0,-4v8" fill="none" stroke="white" stroke-width="1.5" pointer-events="none"/>
                </g>
                <g id="zoomMin">
                        <use xlink:href="#rim" fill="#404040">
                                <set attributeName="fill" to="#808080" begin="zoomminus.mouseover" end="zoomminus.mouseout"/>
                        </use>
                        <path d="M-4,0h8" fill="none" stroke="white" stroke-width="1.5" pointer-events="none"/>
                </g>
                <g id="dirArrow">
                        <path fill="none" stroke="white" stroke-width="1.5" d="M0,-3.0v7 M-2.5,-0.5L0,-3.0L2.5,-0.5"/>
                </g>
               <g id="resetDef">
                       <use xlink:href="#rim2" fill="#404040">
                               <set attributeName="fill" to="#808080" begin="reset.mouseover" end="reset.mouseout"/>
                       </use>
               </g>
        </defs>

<script type="text/javascript">
var viewWidth = 724;
var viewHeight = 386;
var sectionId = 'dynsection-0';
</script>
<script xlink:href="svgpan.js"/>
<svg id="graph" class="graph">
<g id="viewport">
<title>Tools/Plotting/RootPlotData.cpp</title>
<polygon fill="#ffffff" stroke="transparent" points="-4,4 -4,-382 720.4995,-382 720.4995,4 -4,4"/>
<!-- Node0 -->
<g id="node1" class="node">
<title>Node0</title>
<polygon fill="#bfbfbf" stroke="#000000" points="230.9995,-358.5 230.9995,-377.5 399.9995,-377.5 399.9995,-358.5 230.9995,-358.5"/>
<text text-anchor="middle" x="315.4995" y="-365.5" font-family="Helvetica,sans-Serif" font-size="10.00" fill="#000000">Tools/Plotting/RootPlotData.cpp</text>
</g>
<!-- Node1 -->
<g id="node2" class="node">
<title>Node1</title>
<g id="a_node2"><a xlink:href="RootPlotData_8hpp.html" target="_top" xlink:title="Tools/Plotting/RootPlotData.hpp">
<polygon fill="#ffffff" stroke="#000000" points="117.4995,-179.5 117.4995,-198.5 287.4995,-198.5 287.4995,-179.5 117.4995,-179.5"/>
<text text-anchor="middle" x="202.4995" y="-186.5" font-family="Helvetica,sans-Serif" font-size="10.00" fill="#000000">Tools/Plotting/RootPlotData.hpp</text>
</a>
</g>
</g>
<!-- Node0&#45;&gt;Node1 -->
<g id="edge1" class="edge">
<title>Node0&#45;&gt;Node1</title>
<path fill="none" stroke="#191970" d="M257.0706,-358.4928C217.289,-350.6903 169.7169,-338.2816 157.4995,-322 130.7001,-286.2856 165.2916,-233.5868 187.1407,-206.4946"/>
<polygon fill="#191970" stroke="#191970" points="189.9672,-208.5703 193.6928,-198.6521 184.5953,-204.0822 189.9672,-208.5703"/>
</g>
<!-- Node8 -->
<g id="node8" class="node">
<title>Node8</title>
<g id="a_node8"><a xlink:href="Logging_8hpp.html" target="_top" xlink:title="Core/Logging.hpp">
<polygon fill="#ffffff" stroke="#ff0000" points="12.9995,-56.5 12.9995,-75.5 113.9995,-75.5 113.9995,-56.5 12.9995,-56.5"/>
<text text-anchor="middle" x="63.4995" y="-63.5" font-family="Helvetica,sans-Serif" font-size="10.00" fill="#000000">Core/Logging.hpp</text>
</a>
</g>
</g>
<!-- Node0&#45;&gt;Node8 -->
<g id="edge12" class="edge">
<title>Node0&#45;&gt;Node8</title>
<path fill="none" stroke="#191970" d="M259.9041,-358.4885C171.4352,-341.7565 8.4995,-303.7169 8.4995,-250.5 8.4995,-250.5 8.4995,-250.5 8.4995,-189 8.4995,-148.5249 33.626,-106.5723 49.9128,-83.6304"/>
<polygon fill="#191970" stroke="#191970" points="52.7515,-85.6781 55.852,-75.5471 47.1104,-81.5334 52.7515,-85.6781"/>
</g>
<!-- Node13 -->
<g id="node9" class="node">
<title>Node13</title>
<polygon fill="#ffffff" stroke="#bfbfbf" points="74.4995,-118 74.4995,-137 122.4995,-137 122.4995,-118 74.4995,-118"/>
<text text-anchor="middle" x="98.4995" y="-125" font-family="Helvetica,sans-Serif" font-size="10.00" fill="#000000">TFile.h</text>
</g>
<!-- Node0&#45;&gt;Node13 -->
<g id="edge38" class="edge">
<title>Node0&#45;&gt;Node13</title>
<path fill="none" stroke="#191970" d="M256.3604,-358.4294C213.5396,-350.3615 160.4869,-337.6403 144.4995,-322 96.1888,-274.738 94.763,-186.8032 96.8444,-147.4446"/>
<polygon fill="#191970" stroke="#191970" points="100.348,-147.5057 97.5216,-137.2949 93.3635,-147.0396 100.348,-147.5057"/>
</g>
<!-- Node14 -->
<g id="node10" class="node">
<title>Node14</title>
<g id="a_node10"><a xlink:href="ProgressBar_8hpp.html" target="_top" xlink:title="Core/ProgressBar.hpp">
<polygon fill="#ffffff" stroke="#000000" points="165.9995,-302.5 165.9995,-321.5 286.9995,-321.5 286.9995,-302.5 165.9995,-302.5"/>
<text text-anchor="middle" x="226.4995" y="-309.5" font-family="Helvetica,sans-Serif" font-size="10.00" fill="#000000">Core/ProgressBar.hpp</text>
</a>
</g>
</g>
<!-- Node0&#45;&gt;Node14 -->
<g id="edge13" class="edge">
<title>Node0&#45;&gt;Node14</title>
<path fill="none" stroke="#191970" d="M299.9969,-358.2455C286.3416,-349.6534 266.2338,-337.0014 250.5006,-327.1018"/>
<polygon fill="#191970" stroke="#191970" points="252.1524,-324.006 241.8245,-321.6427 248.4244,-329.9307 252.1524,-324.006"/>
</g>
<!-- Node16 -->
<g id="node12" class="node">
<title>Node16</title>
<g id="a_node12"><a xlink:href="Properties_8hpp.html" target="_top" xlink:title="Core/Properties.hpp">
<polygon fill="#ffffff" stroke="#000000" points="369.9995,-179.5 369.9995,-198.5 482.9995,-198.5 482.9995,-179.5 369.9995,-179.5"/>
<text text-anchor="middle" x="426.4995" y="-186.5" font-family="Helvetica,sans-Serif" font-size="10.00" fill="#000000">Core/Properties.hpp</text>
</a>
</g>
</g>
<!-- Node0&#45;&gt;Node16 -->
<g id="edge15" class="edge">
<title>Node0&#45;&gt;Node16</title>
<path fill="none" stroke="#191970" d="M314.1451,-358.1977C311.424,-334.5352 307.7269,-273.4118 335.4995,-235 346.4243,-219.8902 363.7639,-209.4269 380.3904,-202.3445"/>
<polygon fill="#191970" stroke="#191970" points="382.0137,-205.4673 390.0435,-198.5556 379.4561,-198.9513 382.0137,-205.4673"/>
</g>
<!-- Node21 -->
<g id="node16" class="node">
<title>Node21</title>
<g id="a_node16"><a xlink:href="DataSet_8hpp.html" target="_top" xlink:title="Data/DataSet.hpp">
<polygon fill="#ffffff" stroke="#000000" points="443.9995,-302.5 443.9995,-321.5 546.9995,-321.5 546.9995,-302.5 443.9995,-302.5"/>
<text text-anchor="middle" x="495.4995" y="-309.5" font-family="Helvetica,sans-Serif" font-size="10.00" fill="#000000">Data/DataSet.hpp</text>
</a>
</g>
</g>
<!-- Node0&#45;&gt;Node21 -->
<g id="edge23" class="edge">
<title>Node0&#45;&gt;Node21</title>
<path fill="none" stroke="#191970" d="M346.4426,-358.3733C376.5035,-349.021 422.3021,-334.7725 455.1973,-324.5385"/>
<polygon fill="#191970" stroke="#191970" points="456.4514,-327.8139 464.9602,-321.5011 454.3719,-321.1299 456.4514,-327.8139"/>
</g>
<!-- Node31 -->
<g id="node20" class="node">
<title>Node31</title>
<g id="a_node20"><a xlink:href="ParticleStateTransitionKinematicsInfo_8hpp.html" target="_top" xlink:title="Physics/ParticleStateTransition\lKinematicsInfo.hpp">
<polygon fill="#ffffff" stroke="#000000" points="343.9995,-235.5 343.9995,-265.5 508.9995,-265.5 508.9995,-235.5 343.9995,-235.5"/>
<text text-anchor="start" x="351.9995" y="-253.5" font-family="Helvetica,sans-Serif" font-size="10.00" fill="#000000">Physics/ParticleStateTransition</text>
<text text-anchor="middle" x="426.4995" y="-242.5" font-family="Helvetica,sans-Serif" font-size="10.00" fill="#000000">KinematicsInfo.hpp</text>
</a>
</g>
</g>
<!-- Node0&#45;&gt;Node31 -->
<g id="edge32" class="edge">
<title>Node0&#45;&gt;Node31</title>
<path fill="none" stroke="#191970" d="M324.5831,-358.3845C342.0386,-339.9068 380.6932,-298.9887 405.062,-273.1928"/>
<polygon fill="#191970" stroke="#191970" points="407.8039,-275.3871 412.1269,-265.7143 402.7154,-270.5801 407.8039,-275.3871"/>
</g>
<!-- Node32 -->
<g id="node21" class="node">
<title>Node32</title>
<polygon fill="#ffffff" stroke="#bfbfbf" points="564.9995,-302.5 564.9995,-321.5 645.9995,-321.5 645.9995,-302.5 564.9995,-302.5"/>
<text text-anchor="middle" x="605.4995" y="-309.5" font-family="Helvetica,sans-Serif" font-size="10.00" fill="#000000">TParameter.h</text>
</g>
<!-- Node0&#45;&gt;Node32 -->
<g id="edge39" class="edge">
<title>Node0&#45;&gt;Node32</title>
<path fill="none" stroke="#191970" d="M366.3136,-358.4952C412.9201,-349.7336 484.1375,-336.2358 554.8881,-322.3025"/>
<polygon fill="#191970" stroke="#191970" points="555.7322,-325.7035 564.8656,-320.334 554.3772,-318.8359 555.7322,-325.7035"/>
</g>
<!-- Node33 -->
<g id="node22" class="node">
<title>Node33</title>
<polygon fill="#ffffff" stroke="#bfbfbf" points="664.4995,-302.5 664.4995,-321.5 716.4995,-321.5 716.4995,-302.5 664.4995,-302.5"/>
<text text-anchor="middle" x="690.4995" y="-309.5" font-family="Helvetica,sans-Serif" font-size="10.00" fill="#000000">TTree.h</text>
</g>
<!-- Node0&#45;&gt;Node33 -->
<g id="edge40" class="edge">
<title>Node0&#45;&gt;Node33</title>
<path fill="none" stroke="#191970" d="M400.2595,-359.9553C466.9657,-352.8345 562.3686,-340.9105 654.2045,-322.0358"/>
<polygon fill="#191970" stroke="#191970" points="655.1531,-325.4134 664.2275,-319.9448 653.7235,-318.5609 655.1531,-325.4134"/>
</g>
<!-- Node2 -->
<g id="node3" class="node">
<title>Node2</title>
<polygon fill="#ffffff" stroke="#bfbfbf" points="320.4995,-118 320.4995,-137 358.4995,-137 358.4995,-118 320.4995,-118"/>
<text text-anchor="middle" x="339.4995" y="-125" font-family="Helvetica,sans-Serif" font-size="10.00" fill="#000000">map</text>
</g>
<!-- Node1&#45;&gt;Node2 -->
<g id="edge2" class="edge">
<title>Node1&#45;&gt;Node2</title>
<path fill="none" stroke="#191970" d="M224.4765,-179.4518C245.5702,-170.2467 278.2963,-155.8588 306.4995,-143 308.0437,-142.2959 309.6265,-141.5693 311.2228,-140.8326"/>
<polygon fill="#191970" stroke="#191970" points="312.7498,-143.9825 320.3388,-136.5894 309.7958,-137.6363 312.7498,-143.9825"/>
</g>
<!-- Node3 -->
<g id="node4" class="node">
<title>Node3</title>
<g id="a_node4"><a xlink:href="FitParameter_8hpp.html" target="_top" xlink:title="Core/FitParameter.hpp">
<polygon fill="#ffffff" stroke="#ff0000" points="140.4995,-118 140.4995,-137 264.4995,-137 264.4995,-118 140.4995,-118"/>
<text text-anchor="middle" x="202.4995" y="-125" font-family="Helvetica,sans-Serif" font-size="10.00" fill="#000000">Core/FitParameter.hpp</text>
</a>
</g>
</g>
<!-- Node1&#45;&gt;Node3 -->
<g id="edge3" class="edge">
<title>Node1&#45;&gt;Node3</title>
<path fill="none" stroke="#191970" d="M202.4995,-179.3906C202.4995,-170.8657 202.4995,-158.1392 202.4995,-147.4235"/>
<polygon fill="#191970" stroke="#191970" points="205.9996,-147.2448 202.4995,-137.2449 198.9996,-147.2449 205.9996,-147.2448"/>
</g>
<!-- Node4 -->
<g id="node5" class="node">
<title>Node4</title>
<g id="a_node5"><a xlink:href="Function_8hpp.html" target="_top" xlink:title="Core/Function.hpp">
<polygon fill="#ffffff" stroke="#ff0000" points="342.4995,-56.5 342.4995,-75.5 446.4995,-75.5 446.4995,-56.5 342.4995,-56.5"/>
<text text-anchor="middle" x="394.4995" y="-63.5" font-family="Helvetica,sans-Serif" font-size="10.00" fill="#000000">Core/Function.hpp</text>
</a>
</g>
</g>
<!-- Node1&#45;&gt;Node4 -->
<g id="edge10" class="edge">
<title>Node1&#45;&gt;Node4</title>
<path fill="none" stroke="#191970" d="M218.3413,-179.4289C232.9523,-170.4403 255.099,-156.4046 273.4995,-143 291.1165,-130.1662 293.4515,-124.2201 311.4995,-112 328.8332,-100.2635 349.4073,-88.8454 365.735,-80.3209"/>
<polygon fill="#191970" stroke="#191970" points="367.5108,-83.3434 374.8012,-75.6557 364.3079,-77.1191 367.5108,-83.3434"/>
</g>
<!-- Node1&#45;&gt;Node13 -->
<g id="edge11" class="edge">
<title>Node1&#45;&gt;Node13</title>
<path fill="none" stroke="#191970" d="M186.2495,-179.3906C169.3827,-169.4165 142.7896,-153.6908 123.296,-142.1633"/>
<polygon fill="#191970" stroke="#191970" points="125.0246,-139.1194 114.6354,-137.0419 121.4615,-145.1447 125.0246,-139.1194"/>
</g>
<!-- Node3&#45;&gt;Node4 -->
<g id="edge4" class="edge">
<title>Node3&#45;&gt;Node4</title>
<path fill="none" stroke="#191970" d="M232.4995,-117.8906C265.4701,-107.3298 318.5712,-90.3208 354.9298,-78.6747"/>
<polygon fill="#191970" stroke="#191970" points="356.2545,-81.9256 364.7102,-75.5419 354.1191,-75.2592 356.2545,-81.9256"/>
</g>
<!-- Node5 -->
<g id="node6" class="node">
<title>Node5</title>
<polygon fill="#ffffff" stroke="#bfbfbf" points="163.4995,-.5 163.4995,-19.5 207.4995,-19.5 207.4995,-.5 163.4995,-.5"/>
<text text-anchor="middle" x="185.4995" y="-7.5" font-family="Helvetica,sans-Serif" font-size="10.00" fill="#000000">string</text>
</g>
<!-- Node3&#45;&gt;Node5 -->
<g id="edge8" class="edge">
<title>Node3&#45;&gt;Node5</title>
<path fill="none" stroke="#191970" d="M191.3111,-117.7687C181.3192,-108.2725 167.3808,-92.8302 161.4995,-76 155.8679,-59.8844 163.5759,-41.654 171.7163,-28.443"/>
<polygon fill="#191970" stroke="#191970" points="174.847,-30.0604 177.5357,-19.8124 169.0431,-26.147 174.847,-30.0604"/>
</g>
<!-- Node7 -->
<g id="node7" class="node">
<title>Node7</title>
<polygon fill="#ffffff" stroke="#bfbfbf" points="469.9995,-.5 469.9995,-19.5 516.9995,-19.5 516.9995,-.5 469.9995,-.5"/>
<text text-anchor="middle" x="493.4995" y="-7.5" font-family="Helvetica,sans-Serif" font-size="10.00" fill="#000000">vector</text>
</g>
<!-- Node3&#45;&gt;Node7 -->
<g id="edge9" class="edge">
<title>Node3&#45;&gt;Node7</title>
<path fill="none" stroke="#191970" d="M219.7469,-117.9557C253.9573,-99.0427 327.6277,-58.4121 333.4995,-56 375.8375,-38.6076 427.0214,-25.1304 459.9058,-17.3801"/>
<polygon fill="#191970" stroke="#191970" points="460.9511,-20.7308 469.9051,-15.0673 459.3736,-13.9108 460.9511,-20.7308"/>
</g>
<!-- Node3&#45;&gt;Node8 -->
<g id="edge7" class="edge">
<title>Node3&#45;&gt;Node8</title>
<path fill="none" stroke="#191970" d="M180.7808,-117.8906C157.6255,-107.6457 120.7554,-91.3326 94.5404,-79.7339"/>
<polygon fill="#191970" stroke="#191970" points="95.6268,-76.3874 85.0658,-75.5419 92.7945,-82.7888 95.6268,-76.3874"/>
</g>
<!-- Node4&#45;&gt;Node5 -->
<g id="edge5" class="edge">
<title>Node4&#45;&gt;Node5</title>
<path fill="none" stroke="#191970" d="M358.5712,-56.3733C318.8857,-45.7398 255.5773,-28.7768 217.5268,-18.5815"/>
<polygon fill="#191970" stroke="#191970" points="218.0702,-15.1037 207.505,-15.8962 216.2584,-21.8652 218.0702,-15.1037"/>
</g>
<!-- Node4&#45;&gt;Node7 -->
<g id="edge6" class="edge">
<title>Node4&#45;&gt;Node7</title>
<path fill="none" stroke="#191970" d="M411.744,-56.2455C427.0756,-47.5731 449.7194,-34.7645 467.2911,-24.825"/>
<polygon fill="#191970" stroke="#191970" points="469.4719,-27.6126 476.4527,-19.6427 466.0254,-21.5198 469.4719,-27.6126"/>
</g>
<!-- Node15 -->
<g id="node11" class="node">
<title>Node15</title>
<polygon fill="#ffffff" stroke="#bfbfbf" points="204.4995,-241 204.4995,-260 248.4995,-260 248.4995,-241 204.4995,-241"/>
<text text-anchor="middle" x="226.4995" y="-248" font-family="Helvetica,sans-Serif" font-size="10.00" fill="#000000">ctime</text>
</g>
<!-- Node14&#45;&gt;Node15 -->
<g id="edge14" class="edge">
<title>Node14&#45;&gt;Node15</title>
<path fill="none" stroke="#191970" d="M226.4995,-302.3906C226.4995,-293.8657 226.4995,-281.1392 226.4995,-270.4235"/>
<polygon fill="#191970" stroke="#191970" points="229.9996,-270.2448 226.4995,-260.2449 222.9996,-270.2449 229.9996,-270.2448"/>
</g>
<!-- Node16&#45;&gt;Node2 -->
<g id="edge20" class="edge">
<title>Node16&#45;&gt;Node2</title>
<path fill="none" stroke="#191970" d="M412.9058,-179.3906C399.1152,-169.6421 377.5523,-154.3994 361.3585,-142.9521"/>
<polygon fill="#191970" stroke="#191970" points="363.184,-139.9563 352.9978,-137.0419 359.1433,-145.6723 363.184,-139.9563"/>
</g>
<!-- Node16&#45;&gt;Node3 -->
<g id="edge18" class="edge">
<title>Node16&#45;&gt;Node3</title>
<path fill="none" stroke="#191970" d="M391.4995,-179.3906C352.5408,-168.6944 289.4902,-151.3836 247.0424,-139.7294"/>
<polygon fill="#191970" stroke="#191970" points="247.8236,-136.3144 237.2538,-137.0419 245.9702,-143.0646 247.8236,-136.3144"/>
</g>
<!-- Node16&#45;&gt;Node7 -->
<g id="edge22" class="edge">
<title>Node16&#45;&gt;Node7</title>
<path fill="none" stroke="#191970" d="M433.8164,-179.2327C440.2768,-170.2231 449.566,-156.2727 455.4995,-143 472.7367,-104.4425 484.225,-56.0899 489.7279,-29.5994"/>
<polygon fill="#191970" stroke="#191970" points="493.183,-30.1704 491.7191,-19.6772 486.3198,-28.793 493.183,-30.1704"/>
</g>
<!-- Node17 -->
<g id="node13" class="node">
<title>Node17</title>
<g id="a_node13"><a xlink:href="Exceptions_8hpp.html" target="_top" xlink:title="ComPWA exceptions. ">
<polygon fill="#ffffff" stroke="#ff0000" points="170.4995,-56.5 170.4995,-75.5 286.4995,-75.5 286.4995,-56.5 170.4995,-56.5"/>
<text text-anchor="middle" x="228.4995" y="-63.5" font-family="Helvetica,sans-Serif" font-size="10.00" fill="#000000">Core/Exceptions.hpp</text>
</a>
</g>
</g>
<!-- Node16&#45;&gt;Node17 -->
<g id="edge16" class="edge">
<title>Node16&#45;&gt;Node17</title>
<path fill="none" stroke="#191970" d="M421.6836,-179.4722C413.0249,-163.2762 393.2995,-130.3523 367.4995,-112 344.825,-95.8709 316.1258,-85.1246 290.7005,-78.1069"/>
<polygon fill="#191970" stroke="#191970" points="291.3307,-74.6539 280.7702,-75.5054 289.5567,-81.4254 291.3307,-74.6539"/>
</g>
<!-- Node19 -->
<g id="node14" class="node">
<title>Node19</title>
<polygon fill="#ffffff" stroke="#bfbfbf" points="540.9995,-112.5 540.9995,-142.5 653.9995,-142.5 653.9995,-112.5 540.9995,-112.5"/>
<text text-anchor="start" x="548.9995" y="-130.5" font-family="Helvetica,sans-Serif" font-size="10.00" fill="#000000">boost/property_tree</text>
<text text-anchor="middle" x="597.4995" y="-119.5" font-family="Helvetica,sans-Serif" font-size="10.00" fill="#000000">/ptree.hpp</text>
</g>
<!-- Node16&#45;&gt;Node19 -->
<g id="edge19" class="edge">
<title>Node16&#45;&gt;Node19</title>
<path fill="none" stroke="#191970" d="M453.2183,-179.3906C477.9682,-170.4893 515.4548,-157.0073 546.0146,-146.0165"/>
<polygon fill="#191970" stroke="#191970" points="547.4428,-149.2224 555.6682,-142.5446 545.0738,-142.6355 547.4428,-149.2224"/>
</g>
<!-- Node20 -->
<g id="node15" class="node">
<title>Node20</title>
<polygon fill="#ffffff" stroke="#bfbfbf" points="414.4995,-118 414.4995,-137 446.4995,-137 446.4995,-118 414.4995,-118"/>
<text text-anchor="middle" x="430.4995" y="-125" font-family="Helvetica,sans-Serif" font-size="10.00" fill="#000000">set</text>
</g>
<!-- Node16&#45;&gt;Node20 -->
<g id="edge21" class="edge">
<title>Node16&#45;&gt;Node20</title>
<path fill="none" stroke="#191970" d="M427.1245,-179.3906C427.679,-170.8657 428.5067,-158.1392 429.2037,-147.4235"/>
<polygon fill="#191970" stroke="#191970" points="432.7092,-147.451 429.8657,-137.2449 425.724,-146.9966 432.7092,-147.451"/>
</g>
<!-- Node17&#45;&gt;Node5 -->
<g id="edge17" class="edge">
<title>Node17&#45;&gt;Node5</title>
<path fill="none" stroke="#191970" d="M221.0095,-56.2455C214.9669,-48.3761 206.3092,-37.101 199.0554,-27.6542"/>
<polygon fill="#191970" stroke="#191970" points="201.7701,-25.4426 192.9037,-19.6427 196.218,-29.7058 201.7701,-25.4426"/>
</g>
<!-- Node21&#45;&gt;Node4 -->
<g id="edge31" class="edge">
<title>Node21&#45;&gt;Node4</title>
<path fill="none" stroke="#191970" d="M546.3601,-302.4535C606.5999,-290.905 699.4877,-272.2349 704.4995,-266 713.1316,-255.2615 706.2973,-248.66 704.4995,-235 696.9806,-177.8689 708.1246,-148.4568 663.4995,-112 632.6567,-86.8027 526.3102,-74.8616 456.931,-69.6326"/>
<polygon fill="#191970" stroke="#191970" points="456.781,-66.1126 446.5538,-68.8795 456.2742,-73.0943 456.781,-66.1126"/>
</g>
<!-- Node22 -->
<g id="node17" class="node">
<title>Node22</title>
<polygon fill="#ffffff" stroke="#bfbfbf" points="527.4995,-241 527.4995,-260 585.4995,-260 585.4995,-241 527.4995,-241"/>
<text text-anchor="middle" x="556.4995" y="-248" font-family="Helvetica,sans-Serif" font-size="10.00" fill="#000000">memory</text>
</g>
<!-- Node21&#45;&gt;Node22 -->
<g id="edge24" class="edge">
<title>Node21&#45;&gt;Node22</title>
<path fill="none" stroke="#191970" d="M505.0308,-302.3906C514.2874,-293.0581 528.5386,-278.6902 539.6998,-267.4374"/>
<polygon fill="#191970" stroke="#191970" points="542.2767,-269.8095 546.8339,-260.2449 537.3068,-264.88 542.2767,-269.8095"/>
</g>
<!-- Node23 -->
<g id="node18" class="node">
<title>Node23</title>
<g id="a_node18"><a xlink:href="Event_8hpp.html" target="_top" xlink:title="Core/Event.hpp">
<polygon fill="#ffffff" stroke="#ff0000" points="603.9995,-241 603.9995,-260 694.9995,-260 694.9995,-241 603.9995,-241"/>
<text text-anchor="middle" x="649.4995" y="-248" font-family="Helvetica,sans-Serif" font-size="10.00" fill="#000000">Core/Event.hpp</text>
</a>
</g>
</g>
<!-- Node21&#45;&gt;Node23 -->
<g id="edge25" class="edge">
<title>Node21&#45;&gt;Node23</title>
<path fill="none" stroke="#191970" d="M519.562,-302.3906C545.5551,-292.0103 587.1473,-275.4004 616.2542,-263.7766"/>
<polygon fill="#191970" stroke="#191970" points="617.6172,-267.0011 625.606,-260.0419 615.0211,-260.5003 617.6172,-267.0011"/>
</g>
<!-- Node23&#45;&gt;Node7 -->
<g id="edge30" class="edge">
<title>Node23&#45;&gt;Node7</title>
<path fill="none" stroke="#191970" d="M660.4206,-240.7122C670.1726,-231.1761 683.7736,-215.7068 689.4995,-199 696.7614,-177.8118 689.4508,-134.409 679.4995,-112 666.4272,-82.5628 660.0776,-74.1944 633.4995,-56 601.0181,-33.7643 557.0098,-21.6405 527.0632,-15.5058"/>
<polygon fill="#191970" stroke="#191970" points="527.5817,-12.0413 517.099,-13.5789 526.2526,-18.914 527.5817,-12.0413"/>
</g>
<!-- Node23&#45;&gt;Node16 -->
<g id="edge29" class="edge">
<title>Node23&#45;&gt;Node16</title>
<path fill="none" stroke="#191970" d="M615.7701,-240.9517C608.7432,-238.9745 601.3817,-236.9119 594.4995,-235 552.9113,-223.4464 505.4727,-210.4764 471.636,-201.2611"/>
<polygon fill="#191970" stroke="#191970" points="472.1613,-197.7768 461.5931,-198.5274 470.3228,-204.5311 472.1613,-197.7768"/>
</g>
<!-- Node24 -->
<g id="node19" class="node">
<title>Node24</title>
<g id="a_node19"><a xlink:href="FourMomentum_8hpp.html" target="_top" xlink:title="Core/FourMomentum.hpp">
<polygon fill="#ffffff" stroke="#ff0000" points="540.4995,-179.5 540.4995,-198.5 680.4995,-198.5 680.4995,-179.5 540.4995,-179.5"/>
<text text-anchor="middle" x="610.4995" y="-186.5" font-family="Helvetica,sans-Serif" font-size="10.00" fill="#000000">Core/FourMomentum.hpp</text>
</a>
</g>
</g>
<!-- Node23&#45;&gt;Node24 -->
<g id="edge26" class="edge">
<title>Node23&#45;&gt;Node24</title>
<path fill="none" stroke="#191970" d="M643.4058,-240.8906C637.7152,-231.917 629.0724,-218.2879 622.0722,-207.2491"/>
<polygon fill="#191970" stroke="#191970" points="624.9904,-205.3155 616.6792,-198.7449 619.0789,-209.0644 624.9904,-205.3155"/>
</g>
<!-- Node24&#45;&gt;Node7 -->
<g id="edge27" class="edge">
<title>Node24&#45;&gt;Node7</title>
<path fill="none" stroke="#191970" d="M627.8753,-179.4558C640.3584,-171.5215 656.2177,-158.9621 663.4995,-143 669.2179,-130.465 670.2878,-123.9894 663.4995,-112 634.3435,-60.5049 567.6719,-32.1713 527.0264,-19.1153"/>
<polygon fill="#191970" stroke="#191970" points="527.8793,-15.7159 517.2922,-16.1204 525.8208,-22.4064 527.8793,-15.7159"/>
</g>
<!-- Node24&#45;&gt;Node19 -->
<g id="edge28" class="edge">
<title>Node24&#45;&gt;Node19</title>
<path fill="none" stroke="#191970" d="M608.4683,-179.3906C606.937,-172.1463 604.7643,-161.8679 602.7561,-152.3676"/>
<polygon fill="#191970" stroke="#191970" points="606.1722,-151.6045 600.6797,-142.5446 599.3236,-153.0523 606.1722,-151.6045"/>
</g>
<!-- Node31&#45;&gt;Node2 -->
<g id="edge33" class="edge">
<title>Node31&#45;&gt;Node2</title>
<path fill="none" stroke="#191970" d="M400.5125,-235.2987C387.1396,-226.2817 371.5746,-213.7383 361.4995,-199 350.7655,-183.2976 345.1128,-162.161 342.2406,-146.9468"/>
<polygon fill="#191970" stroke="#191970" points="345.6932,-146.3721 340.6078,-137.0776 338.7871,-147.5148 345.6932,-146.3721"/>
</g>
<!-- Node31&#45;&gt;Node5 -->
<g id="edge34" class="edge">
<title>Node31&#45;&gt;Node5</title>
<path fill="none" stroke="#191970" d="M343.8369,-243.6059C263.3995,-235.7507 147.7398,-221.0716 108.4995,-199 45.8531,-163.7631 28.369,-143.4369 3.4995,-76 .424,-67.6601 -1.9617,-63.0133 3.4995,-56 21.7429,-32.572 106.2252,-19.1899 153.4068,-13.4223"/>
<polygon fill="#191970" stroke="#191970" points="153.9045,-16.888 163.427,-12.2433 153.0865,-9.9359 153.9045,-16.888"/>
</g>
<!-- Node31&#45;&gt;Node7 -->
<g id="edge35" class="edge">
<title>Node31&#45;&gt;Node7</title>
<path fill="none" stroke="#191970" d="M456.3478,-235.3391C469.9834,-226.697 484.7869,-214.4805 492.4995,-199 520.359,-143.0817 507.3318,-65.7975 498.8252,-29.8584"/>
<polygon fill="#191970" stroke="#191970" points="502.11,-28.5686 496.2797,-19.7222 495.3208,-30.2736 502.11,-28.5686"/>
</g>
<!-- Node31&#45;&gt;Node16 -->
<g id="edge37" class="edge">
<title>Node31&#45;&gt;Node16</title>
<path fill="none" stroke="#191970" d="M426.4995,-235.2977C426.4995,-227.3834 426.4995,-217.6043 426.4995,-209.0759"/>
<polygon fill="#191970" stroke="#191970" points="429.9996,-208.8469 426.4995,-198.8469 422.9996,-208.847 429.9996,-208.8469"/>
</g>
<!-- Node31&#45;&gt;Node24 -->
<g id="edge36" class="edge">
<title>Node31&#45;&gt;Node24</title>
<path fill="none" stroke="#191970" d="M471.511,-235.4554C502.4812,-225.104 543.1624,-211.5067 572.5015,-201.7004"/>
<polygon fill="#191970" stroke="#191970" points="573.6113,-205.0199 581.9861,-198.5303 571.3923,-198.3809 573.6113,-205.0199"/>
</g>
</g>
</svg>
        <g id="navigator" transform="translate(0 0)" fill="#404254">
                <rect fill="#f2f5e9" fill-opacity="0.5" stroke="#606060" stroke-width=".5" x="0" y="0" width="60" height="60"/>
                <use id="zoomplus" xlink:href="#zoomPlus" x="17" y="9" onmousedown="handleZoom(evt,'in')"/>
                <use id="zoomminus" xlink:href="#zoomMin" x="42" y="9" onmousedown="handleZoom(evt,'out')"/>
                <use id="reset" xlink:href="#resetDef" x="30" y="36" onmousedown="handleReset()"/>
                <g id="arrowUp" xlink:href="#dirArrow" transform="translate(30 24)" onmousedown="handlePan(0,-1)">
                  <use xlink:href="#rim" fill="#404040">
                        <set attributeName="fill" to="#808080" begin="arrowUp.mouseover" end="arrowUp.mouseout"/>
                  </use>
                  <path fill="none" stroke="white" stroke-width="1.5" d="M0,-3.0v7 M-2.5,-0.5L0,-3.0L2.5,-0.5"/>
                </g>
                <g id="arrowRight" xlink:href="#dirArrow" transform="rotate(90) translate(36 -43)" onmousedown="handlePan(1,0)">
                  <use xlink:href="#rim" fill="#404040">
                        <set attributeName="fill" to="#808080" begin="arrowRight.mouseover" end="arrowRight.mouseout"/>
                  </use>
                  <path fill="none" stroke="white" stroke-width="1.5" d="M0,-3.0v7 M-2.5,-0.5L0,-3.0L2.5,-0.5"/>
                </g>
                <g id="arrowDown" xlink:href="#dirArrow" transform="rotate(180) translate(-30 -48)" onmousedown="handlePan(0,1)">
                  <use xlink:href="#rim" fill="#404040">
                        <set attributeName="fill" to="#808080" begin="arrowDown.mouseover" end="arrowDown.mouseout"/>
                  </use>
                  <path fill="none" stroke="white" stroke-width="1.5" d="M0,-3.0v7 M-2.5,-0.5L0,-3.0L2.5,-0.5"/>
                </g>
                <g id="arrowLeft" xlink:href="#dirArrow" transform="rotate(270) translate(-36 17)" onmousedown="handlePan(-1,0)">
                  <use xlink:href="#rim" fill="#404040">
                        <set attributeName="fill" to="#808080" begin="arrowLeft.mouseover" end="arrowLeft.mouseout"/>
                  </use>
                  <path fill="none" stroke="white" stroke-width="1.5" d="M0,-3.0v7 M-2.5,-0.5L0,-3.0L2.5,-0.5"/>
                </g>
        </g>
        <svg viewBox="0 0 15 15" width="100%" height="30px" preserveAspectRatio="xMaxYMin meet">
         <g id="arrow_out" transform="scale(0.3 0.3)">
          <a xlink:href="RootPlotData_8cpp__incl_org.svg" target="_base">
           <rect id="button" ry="5" rx="5" y="6" x="6" height="38" width="38"
                fill="#f2f5e9" fill-opacity="0.5" stroke="#606060" stroke-width="1.0"/>
           <path id="arrow"
             d="M 11.500037,31.436501 C 11.940474,20.09759 22.043105,11.32322 32.158766,21.979434 L 37.068811,17.246167 C 37.068811,17.246167 37.088388,32 37.088388,32 L 22.160133,31.978069 C 22.160133,31.978069 26.997745,27.140456 26.997745,27.140456 C 18.528582,18.264221 13.291696,25.230495 11.500037,31.436501 z"
             style="fill:#404040;"/>
          </a>
         </g>
        </svg>
</svg>
