<?xml version="1.0" encoding="UTF-8" standalone="no"?>
<!DOCTYPE svg PUBLIC "-//W3C//DTD SVG 1.1//EN"
 "http://www.w3.org/Graphics/SVG/1.1/DTD/svg11.dtd">
<!-- Generated by graphviz version 2.38.0 (20140413.2041)
 -->
<!-- Title: /home/travis/build/ComPWA/ComPWA/Data/Root/RootDataIO.cpp Pages: 1 -->
<!--zoomable 296 -->
<svg id="main" version="1.1" xmlns="http://www.w3.org/2000/svg" xmlns:xlink="http://www.w3.org/1999/xlink" xml:space="preserve" onload="init(evt)">
<style type="text/css"><![CDATA[
.edge:hover path { stroke: red; }
.edge:hover polygon { stroke: red; fill: red; }
]]></style>
<script type="text/javascript"><![CDATA[
var edges = document.getElementsByTagName('g');
if (edges && edges.length) {
  for (var i=0;i<edges.length;i++) {
    if (edges[i].id.substr(0,4)=='edge') {
      edges[i].setAttribute('class','edge');
    }
  }
}
]]></script>
        <defs>
                <circle id="rim" cx="0" cy="0" r="7"/>
                <circle id="rim2" cx="0" cy="0" r="3.5"/>
                <g id="zoomPlus">
                        <use xlink:href="#rim" fill="#404040">
                                <set attributeName="fill" to="#808080" begin="zoomplus.mouseover" end="zoomplus.mouseout"/>
                        </use>
                        <path d="M-4,0h8M0,-4v8" fill="none" stroke="white" stroke-width="1.5" pointer-events="none"/>
                </g>
                <g id="zoomMin">
                        <use xlink:href="#rim" fill="#404040">
                                <set attributeName="fill" to="#808080" begin="zoomminus.mouseover" end="zoomminus.mouseout"/>
                        </use>
                        <path d="M-4,0h8" fill="none" stroke="white" stroke-width="1.5" pointer-events="none"/>
                </g>
                <g id="dirArrow">
                        <path fill="none" stroke="white" stroke-width="1.5" d="M0,-3.0v7 M-2.5,-0.5L0,-3.0L2.5,-0.5"/>
                </g>
               <g id="resetDef">
                       <use xlink:href="#rim2" fill="#404040">
                               <set attributeName="fill" to="#808080" begin="reset.mouseover" end="reset.mouseout"/>
                       </use>
               </g>
        </defs>

<script type="text/javascript">
var viewWidth = 1488;
var viewHeight = 296;
var sectionId = 'dynsection-0';
</script>
<script xlink:href="svgpan.js"/>
<svg id="graph" class="graph">
<g id="viewport">
<title>/home/travis/build/ComPWA/ComPWA/Data/Root/RootDataIO.cpp</title>
<polygon fill="white" stroke="none" points="-4,4 -4,-292 1484,-292 1484,4 -4,4"/>
<!-- Node1 -->
<g id="node1" class="node"><title>Node1</title>
<polygon fill="#bfbfbf" stroke="black" points="919.5,-246.5 919.5,-287.5 1054.5,-287.5 1054.5,-246.5 919.5,-246.5"/>
<text text-anchor="start" x="927.5" y="-275.5" font-family="Helvetica,sans-Serif" font-size="10.00">/home/travis/build</text>
<text text-anchor="start" x="927.5" y="-264.5" font-family="Helvetica,sans-Serif" font-size="10.00">/ComPWA/ComPWA/Data</text>
<text text-anchor="middle" x="987" y="-253.5" font-family="Helvetica,sans-Serif" font-size="10.00">/Root/RootDataIO.cpp</text>
</g>
<!-- Node2 -->
<g id="node2" class="node"><title>Node2</title>
<g id="a_node2"><a xlink:href="RootDataIO_8hpp.html" target="_top" xlink:title="RootDataIO.hpp">
<polygon fill="white" stroke="black" points="78,-190.5 78,-209.5 166,-209.5 166,-190.5 78,-190.5"/>
<text text-anchor="middle" x="122" y="-197.5" font-family="Helvetica,sans-Serif" font-size="10.00">RootDataIO.hpp</text>
</a>
</g>
</g>
<!-- Node1&#45;&gt;Node2 -->
<g id="edge1" class="edge"><title>Node1&#45;&gt;Node2</title>
<path fill="none" stroke="midnightblue" d="M919.341,-261.457C785.778,-252.4 478.816,-231.141 221,-210 206.605,-208.82 191.042,-207.449 176.613,-206.139"/>
<polygon fill="midnightblue" stroke="midnightblue" points="176.617,-202.625 166.339,-205.199 175.979,-209.596 176.617,-202.625"/>
</g>
<!-- Node7 -->
<g id="node7" class="node"><title>Node7</title>
<polygon fill="white" stroke="#bfbfbf" points="959,-190.5 959,-209.5 1015,-209.5 1015,-190.5 959,-190.5"/>
<text text-anchor="middle" x="987" y="-197.5" font-family="Helvetica,sans-Serif" font-size="10.00">TChain.h</text>
</g>
<!-- Node1&#45;&gt;Node7 -->
<g id="edge6" class="edge"><title>Node1&#45;&gt;Node7</title>
<path fill="none" stroke="midnightblue" d="M987,-246.498C987,-238.065 987,-228.235 987,-219.874"/>
<polygon fill="midnightblue" stroke="midnightblue" points="990.5,-219.652 987,-209.652 983.5,-219.653 990.5,-219.652"/>
</g>
<!-- Node8 -->
<g id="node8" class="node"><title>Node8</title>
<polygon fill="white" stroke="#bfbfbf" points="1033.5,-190.5 1033.5,-209.5 1118.5,-209.5 1118.5,-190.5 1033.5,-190.5"/>
<text text-anchor="middle" x="1076" y="-197.5" font-family="Helvetica,sans-Serif" font-size="10.00">TClonesArray.h</text>
</g>
<!-- Node1&#45;&gt;Node8 -->
<g id="edge7" class="edge"><title>Node1&#45;&gt;Node8</title>
<path fill="none" stroke="midnightblue" d="M1013.7,-246.498C1027.22,-236.628 1043.35,-224.843 1055.82,-215.741"/>
<polygon fill="midnightblue" stroke="midnightblue" points="1058.14,-218.377 1064.15,-209.652 1054.01,-212.724 1058.14,-218.377"/>
</g>
<!-- Node9 -->
<g id="node9" class="node"><title>Node9</title>
<polygon fill="white" stroke="#bfbfbf" points="1136.5,-190.5 1136.5,-209.5 1183.5,-209.5 1183.5,-190.5 1136.5,-190.5"/>
<text text-anchor="middle" x="1160" y="-197.5" font-family="Helvetica,sans-Serif" font-size="10.00">TFile.h</text>
</g>
<!-- Node1&#45;&gt;Node9 -->
<g id="edge8" class="edge"><title>Node1&#45;&gt;Node9</title>
<path fill="none" stroke="midnightblue" d="M1038.91,-246.498C1067.6,-235.718 1102.37,-222.653 1127.28,-213.294"/>
<polygon fill="midnightblue" stroke="midnightblue" points="1128.84,-216.446 1136.97,-209.652 1126.38,-209.893 1128.84,-216.446"/>
</g>
<!-- Node10 -->
<g id="node10" class="node"><title>Node10</title>
<polygon fill="white" stroke="#bfbfbf" points="1202,-190.5 1202,-209.5 1294,-209.5 1294,-190.5 1202,-190.5"/>
<text text-anchor="middle" x="1248" y="-197.5" font-family="Helvetica,sans-Serif" font-size="10.00">TLorentzVector.h</text>
</g>
<!-- Node1&#45;&gt;Node10 -->
<g id="edge9" class="edge"><title>Node1&#45;&gt;Node10</title>
<path fill="none" stroke="midnightblue" d="M1054.55,-249.176C1101.62,-237.456 1163.04,-222.158 1203.92,-211.978"/>
<polygon fill="midnightblue" stroke="midnightblue" points="1204.99,-215.318 1213.85,-209.505 1203.3,-208.526 1204.99,-215.318"/>
</g>
<!-- Node11 -->
<g id="node11" class="node"><title>Node11</title>
<polygon fill="white" stroke="#bfbfbf" points="1312,-190.5 1312,-209.5 1376,-209.5 1376,-190.5 1312,-190.5"/>
<text text-anchor="middle" x="1344" y="-197.5" font-family="Helvetica,sans-Serif" font-size="10.00">TParticle.h</text>
</g>
<!-- Node1&#45;&gt;Node11 -->
<g id="edge10" class="edge"><title>Node1&#45;&gt;Node11</title>
<path fill="none" stroke="midnightblue" d="M1054.65,-254.831C1116.48,-244.435 1210.7,-228.128 1301.85,-210.168"/>
<polygon fill="midnightblue" stroke="midnightblue" points="1302.67,-213.574 1311.8,-208.199 1301.31,-206.707 1302.67,-213.574"/>
</g>
<!-- Node12 -->
<g id="node12" class="node"><title>Node12</title>
<polygon fill="white" stroke="#bfbfbf" points="1394,-190.5 1394,-209.5 1480,-209.5 1480,-190.5 1394,-190.5"/>
<text text-anchor="middle" x="1437" y="-197.5" font-family="Helvetica,sans-Serif" font-size="10.00">TParticlePDG.h</text>
</g>
<!-- Node1&#45;&gt;Node12 -->
<g id="edge11" class="edge"><title>Node1&#45;&gt;Node12</title>
<path fill="none" stroke="midnightblue" d="M1054.7,-257.137C1131.89,-246.883 1262.1,-229.132 1384,-210.117"/>
<polygon fill="midnightblue" stroke="midnightblue" points="1384.55,-213.574 1393.89,-208.57 1383.47,-206.659 1384.55,-213.574"/>
</g>
<!-- Node13 -->
<g id="node13" class="node"><title>Node13</title>
<g id="a_node13"><a xlink:href="Generator_8hpp.html" target="_top" xlink:title="Core/Generator.hpp">
<polygon fill="white" stroke="black" points="335,-190.5 335,-209.5 437,-209.5 437,-190.5 335,-190.5"/>
<text text-anchor="middle" x="386" y="-197.5" font-family="Helvetica,sans-Serif" font-size="10.00">Core/Generator.hpp</text>
</a>
</g>
</g>
<!-- Node1&#45;&gt;Node13 -->
<g id="edge12" class="edge"><title>Node1&#45;&gt;Node13</title>
<path fill="none" stroke="midnightblue" d="M919.226,-258.67C801.489,-245.936 560.939,-219.92 447.632,-207.666"/>
<polygon fill="midnightblue" stroke="midnightblue" points="447.719,-204.155 437.4,-206.559 446.966,-211.114 447.719,-204.155"/>
</g>
<!-- Node15 -->
<g id="node15" class="node"><title>Node15</title>
<g id="a_node15"><a xlink:href="Kinematics_8hpp.html" target="_top" xlink:title="Core/Kinematics.hpp">
<polygon fill="white" stroke="black" points="108,-129 108,-148 216,-148 216,-129 108,-129"/>
<text text-anchor="middle" x="162" y="-136" font-family="Helvetica,sans-Serif" font-size="10.00">Core/Kinematics.hpp</text>
</a>
</g>
</g>
<!-- Node1&#45;&gt;Node15 -->
<g id="edge15" class="edge"><title>Node1&#45;&gt;Node15</title>
<path fill="none" stroke="midnightblue" d="M919.27,-263.02C774.072,-256.183 437.023,-237.789 326,-210 273.961,-196.975 217.317,-169.333 186.087,-152.795"/>
<polygon fill="midnightblue" stroke="midnightblue" points="187.71,-149.694 177.244,-148.047 184.399,-155.861 187.71,-149.694"/>
</g>
<!-- Node16 -->
<g id="node16" class="node"><title>Node16</title>
<g id="a_node16"><a xlink:href="Logging_8hpp.html" target="_top" xlink:title="Core/Logging.hpp">
<polygon fill="white" stroke="black" points="761.5,-67.5 761.5,-86.5 854.5,-86.5 854.5,-67.5 761.5,-67.5"/>
<text text-anchor="middle" x="808" y="-74.5" font-family="Helvetica,sans-Serif" font-size="10.00">Core/Logging.hpp</text>
</a>
</g>
</g>
<!-- Node1&#45;&gt;Node16 -->
<g id="edge18" class="edge"><title>Node1&#45;&gt;Node16</title>
<path fill="none" stroke="midnightblue" d="M969.981,-246.462C962.266,-236.314 953.991,-223.28 950,-210 938.766,-172.619 985.412,-154.232 962,-123 950.076,-107.093 903.569,-94.9342 864.753,-87.2895"/>
<polygon fill="midnightblue" stroke="midnightblue" points="865.04,-83.7812 854.562,-85.3487 863.73,-90.6577 865.04,-83.7812"/>
</g>
<!-- Node18 -->
<g id="node18" class="node"><title>Node18</title>
<g id="a_node18"><a xlink:href="Properties_8hpp.html" target="_top" xlink:title="Core/Properties.hpp">
<polygon fill="white" stroke="black" points="749,-190.5 749,-209.5 853,-209.5 853,-190.5 749,-190.5"/>
<text text-anchor="middle" x="801" y="-197.5" font-family="Helvetica,sans-Serif" font-size="10.00">Core/Properties.hpp</text>
</a>
</g>
</g>
<!-- Node1&#45;&gt;Node18 -->
<g id="edge20" class="edge"><title>Node1&#45;&gt;Node18</title>
<path fill="none" stroke="midnightblue" d="M931.194,-246.498C900.072,-235.622 862.296,-222.421 835.469,-213.045"/>
<polygon fill="midnightblue" stroke="midnightblue" points="836.354,-209.647 825.759,-209.652 834.045,-216.256 836.354,-209.647"/>
</g>
<!-- Node3 -->
<g id="node3" class="node"><title>Node3</title>
<polygon fill="white" stroke="#bfbfbf" points="0,-129 0,-148 52,-148 52,-129 0,-129"/>
<text text-anchor="middle" x="26" y="-136" font-family="Helvetica,sans-Serif" font-size="10.00">memory</text>
</g>
<!-- Node2&#45;&gt;Node3 -->
<g id="edge2" class="edge"><title>Node2&#45;&gt;Node3</title>
<path fill="none" stroke="midnightblue" d="M108.246,-190.475C92.6336,-180.799 66.9366,-164.872 48.4174,-153.394"/>
<polygon fill="midnightblue" stroke="midnightblue" points="50.0726,-150.302 39.7289,-148.009 46.3849,-156.252 50.0726,-150.302"/>
</g>
<!-- Node4 -->
<g id="node4" class="node"><title>Node4</title>
<polygon fill="white" stroke="#bfbfbf" points="257.5,-67.5 257.5,-86.5 298.5,-86.5 298.5,-67.5 257.5,-67.5"/>
<text text-anchor="middle" x="278" y="-74.5" font-family="Helvetica,sans-Serif" font-size="10.00">string</text>
</g>
<!-- Node2&#45;&gt;Node4 -->
<g id="edge3" class="edge"><title>Node2&#45;&gt;Node4</title>
<path fill="none" stroke="midnightblue" d="M114.621,-190.088C102.938,-174.845 83.064,-143.438 99,-123 117.051,-99.8495 200.959,-86.7858 247.206,-81.2294"/>
<polygon fill="midnightblue" stroke="midnightblue" points="247.746,-84.6904 257.278,-80.0664 246.943,-77.7366 247.746,-84.6904"/>
</g>
<!-- Node5 -->
<g id="node5" class="node"><title>Node5</title>
<g id="a_node5"><a xlink:href="Event_8hpp.html" target="_top" xlink:title="Core/Event.hpp">
<polygon fill="white" stroke="red" points="234.5,-129 234.5,-148 319.5,-148 319.5,-129 234.5,-129"/>
<text text-anchor="middle" x="277" y="-136" font-family="Helvetica,sans-Serif" font-size="10.00">Core/Event.hpp</text>
</a>
</g>
</g>
<!-- Node2&#45;&gt;Node5 -->
<g id="edge4" class="edge"><title>Node2&#45;&gt;Node5</title>
<path fill="none" stroke="midnightblue" d="M144.208,-190.475C170.681,-180.313 215.114,-163.256 245.22,-151.7"/>
<polygon fill="midnightblue" stroke="midnightblue" points="246.752,-154.86 254.833,-148.009 244.243,-148.325 246.752,-154.86"/>
</g>
<!-- Node6 -->
<g id="node6" class="node"><title>Node6</title>
<polygon fill="white" stroke="#bfbfbf" points="434,-67.5 434,-86.5 478,-86.5 478,-67.5 434,-67.5"/>
<text text-anchor="middle" x="456" y="-74.5" font-family="Helvetica,sans-Serif" font-size="10.00">vector</text>
</g>
<!-- Node5&#45;&gt;Node6 -->
<g id="edge5" class="edge"><title>Node5&#45;&gt;Node6</title>
<path fill="none" stroke="midnightblue" d="M302.646,-128.975C334.673,-118.329 389.461,-100.118 424.145,-88.5887"/>
<polygon fill="midnightblue" stroke="midnightblue" points="425.402,-91.8593 433.787,-85.3836 423.194,-85.2167 425.402,-91.8593"/>
</g>
<!-- Node13&#45;&gt;Node5 -->
<g id="edge13" class="edge"><title>Node13&#45;&gt;Node5</title>
<path fill="none" stroke="midnightblue" d="M370.383,-190.475C352.414,-180.666 322.679,-164.435 301.594,-152.925"/>
<polygon fill="midnightblue" stroke="midnightblue" points="303.042,-149.728 292.588,-148.009 299.689,-155.873 303.042,-149.728"/>
</g>
<!-- Node14 -->
<g id="node14" class="node"><title>Node14</title>
<g id="a_node14"><a xlink:href="Random_8hpp.html" target="_top" xlink:title="Core/Random.hpp">
<polygon fill="white" stroke="red" points="338,-129 338,-148 434,-148 434,-129 338,-129"/>
<text text-anchor="middle" x="386" y="-136" font-family="Helvetica,sans-Serif" font-size="10.00">Core/Random.hpp</text>
</a>
</g>
</g>
<!-- Node13&#45;&gt;Node14 -->
<g id="edge14" class="edge"><title>Node13&#45;&gt;Node14</title>
<path fill="none" stroke="midnightblue" d="M386,-190.475C386,-182.08 386,-168.981 386,-158.163"/>
<polygon fill="midnightblue" stroke="midnightblue" points="389.5,-158.009 386,-148.009 382.5,-158.009 389.5,-158.009"/>
</g>
<!-- Node15&#45;&gt;Node4 -->
<g id="edge16" class="edge"><title>Node15&#45;&gt;Node4</title>
<path fill="none" stroke="midnightblue" d="M178.62,-128.975C197.915,-119.078 229.959,-102.642 252.431,-91.1151"/>
<polygon fill="midnightblue" stroke="midnightblue" points="254.11,-94.1873 261.411,-86.5091 250.916,-87.9589 254.11,-94.1873"/>
</g>
<!-- Node15&#45;&gt;Node6 -->
<g id="edge17" class="edge"><title>Node15&#45;&gt;Node6</title>
<path fill="none" stroke="midnightblue" d="M198.266,-128.932C207.007,-126.928 216.327,-124.842 225,-123 295.855,-107.949 379.358,-92.1627 424.01,-83.8779"/>
<polygon fill="midnightblue" stroke="midnightblue" points="424.777,-87.2955 433.973,-82.0343 423.503,-80.4124 424.777,-87.2955"/>
</g>
<!-- Node17 -->
<g id="node17" class="node"><title>Node17</title>
<polygon fill="white" stroke="#bfbfbf" points="744.5,-0.5 744.5,-30.5 871.5,-30.5 871.5,-0.5 744.5,-0.5"/>
<text text-anchor="start" x="752.5" y="-18.5" font-family="Helvetica,sans-Serif" font-size="10.00">ThirdParty/easyloggingpp</text>
<text text-anchor="middle" x="808" y="-7.5" font-family="Helvetica,sans-Serif" font-size="10.00">/easylogging++.h</text>
</g>
<!-- Node16&#45;&gt;Node17 -->
<g id="edge19" class="edge"><title>Node16&#45;&gt;Node17</title>
<path fill="none" stroke="midnightblue" d="M808,-67.4751C808,-60.471 808,-50.1919 808,-40.6956"/>
<polygon fill="midnightblue" stroke="midnightblue" points="811.5,-40.5229 808,-30.523 804.5,-40.523 811.5,-40.5229"/>
</g>
<!-- Node18&#45;&gt;Node6 -->
<g id="edge30" class="edge"><title>Node18&#45;&gt;Node6</title>
<path fill="none" stroke="midnightblue" d="M789.638,-190.44C777.719,-181.436 758.466,-166.822 742,-154 724.53,-140.396 723.164,-132.148 703,-123 631.039,-90.3531 537.13,-81.3776 488.446,-78.9193"/>
<polygon fill="midnightblue" stroke="midnightblue" points="488.35,-75.4117 478.205,-78.466 488.04,-82.4049 488.35,-75.4117"/>
</g>
<!-- Node19 -->
<g id="node19" class="node"><title>Node19</title>
<g id="a_node19"><a xlink:href="Exceptions_8hpp.html" target="_top" xlink:title="ComPWA exceptions. ">
<polygon fill="white" stroke="red" points="452,-129 452,-148 560,-148 560,-129 452,-129"/>
<text text-anchor="middle" x="506" y="-136" font-family="Helvetica,sans-Serif" font-size="10.00">Core/Exceptions.hpp</text>
</a>
</g>
</g>
<!-- Node18&#45;&gt;Node19 -->
<g id="edge21" class="edge"><title>Node18&#45;&gt;Node19</title>
<path fill="none" stroke="midnightblue" d="M754.245,-190.423C707.323,-181.7 633.018,-167.571 569,-154 563.579,-152.851 557.905,-151.605 552.278,-150.344"/>
<polygon fill="midnightblue" stroke="midnightblue" points="552.792,-146.871 542.265,-148.073 551.243,-153.698 552.792,-146.871"/>
</g>
<!-- Node20 -->
<g id="node20" class="node"><title>Node20</title>
<g id="a_node20"><a xlink:href="FitParameter_8hpp.html" target="_top" xlink:title="Core/FitParameter.hpp">
<polygon fill="white" stroke="red" points="578,-129 578,-148 694,-148 694,-129 578,-129"/>
<text text-anchor="middle" x="636" y="-136" font-family="Helvetica,sans-Serif" font-size="10.00">Core/FitParameter.hpp</text>
</a>
</g>
</g>
<!-- Node18&#45;&gt;Node20 -->
<g id="edge23" class="edge"><title>Node18&#45;&gt;Node20</title>
<path fill="none" stroke="midnightblue" d="M777.36,-190.475C749.056,-180.269 701.467,-163.108 669.414,-151.549"/>
<polygon fill="midnightblue" stroke="midnightblue" points="670.191,-148.109 659.597,-148.009 667.816,-154.694 670.191,-148.109"/>
</g>
<!-- Node21 -->
<g id="node21" class="node"><title>Node21</title>
<polygon fill="white" stroke="#bfbfbf" points="750.5,-123.5 750.5,-153.5 851.5,-153.5 851.5,-123.5 750.5,-123.5"/>
<text text-anchor="start" x="758.5" y="-141.5" font-family="Helvetica,sans-Serif" font-size="10.00">boost/property_tree</text>
<text text-anchor="middle" x="801" y="-130.5" font-family="Helvetica,sans-Serif" font-size="10.00">/ptree.hpp</text>
</g>
<!-- Node18&#45;&gt;Node21 -->
<g id="edge27" class="edge"><title>Node18&#45;&gt;Node21</title>
<path fill="none" stroke="midnightblue" d="M801,-190.475C801,-183.471 801,-173.192 801,-163.696"/>
<polygon fill="midnightblue" stroke="midnightblue" points="804.5,-163.523 801,-153.523 797.5,-163.523 804.5,-163.523"/>
</g>
<!-- Node22 -->
<g id="node22" class="node"><title>Node22</title>
<polygon fill="white" stroke="#bfbfbf" points="869.5,-129 869.5,-148 904.5,-148 904.5,-129 869.5,-129"/>
<text text-anchor="middle" x="887" y="-136" font-family="Helvetica,sans-Serif" font-size="10.00">map</text>
</g>
<!-- Node18&#45;&gt;Node22 -->
<g id="edge28" class="edge"><title>Node18&#45;&gt;Node22</title>
<path fill="none" stroke="midnightblue" d="M813.322,-190.475C827.116,-180.931 849.699,-165.307 866.232,-153.868"/>
<polygon fill="midnightblue" stroke="midnightblue" points="868.469,-156.577 874.701,-148.009 864.486,-150.82 868.469,-156.577"/>
</g>
<!-- Node23 -->
<g id="node23" class="node"><title>Node23</title>
<polygon fill="white" stroke="#bfbfbf" points="923,-129 923,-148 953,-148 953,-129 923,-129"/>
<text text-anchor="middle" x="938" y="-136" font-family="Helvetica,sans-Serif" font-size="10.00">set</text>
</g>
<!-- Node18&#45;&gt;Node23 -->
<g id="edge29" class="edge"><title>Node18&#45;&gt;Node23</title>
<path fill="none" stroke="midnightblue" d="M825.753,-190.476C848.992,-182.164 884.501,-168.661 914,-154 914.545,-153.729 915.094,-153.45 915.645,-153.165"/>
<polygon fill="midnightblue" stroke="midnightblue" points="917.51,-156.131 924.512,-148.179 914.08,-150.03 917.51,-156.131"/>
</g>
<!-- Node19&#45;&gt;Node4 -->
<g id="edge22" class="edge"><title>Node19&#45;&gt;Node4</title>
<path fill="none" stroke="midnightblue" d="M473.333,-128.975C429.311,-117.487 351.524,-97.1872 308.592,-85.9836"/>
<polygon fill="midnightblue" stroke="midnightblue" points="309.282,-82.5464 298.722,-83.4078 307.515,-89.3196 309.282,-82.5464"/>
</g>
<!-- Node20&#45;&gt;Node4 -->
<g id="edge25" class="edge"><title>Node20&#45;&gt;Node4</title>
<path fill="none" stroke="midnightblue" d="M598.518,-128.975C588.918,-126.905 578.596,-124.779 569,-123 474.479,-105.48 361.806,-89.4182 308.648,-82.1256"/>
<polygon fill="midnightblue" stroke="midnightblue" points="308.915,-78.6297 298.534,-80.7456 307.969,-85.5655 308.915,-78.6297"/>
</g>
<!-- Node20&#45;&gt;Node6 -->
<g id="edge26" class="edge"><title>Node20&#45;&gt;Node6</title>
<path fill="none" stroke="midnightblue" d="M610.21,-128.975C577.916,-118.3 522.608,-100.018 487.746,-88.4938"/>
<polygon fill="midnightblue" stroke="midnightblue" points="488.655,-85.1081 478.062,-85.2926 486.458,-91.7544 488.655,-85.1081"/>
</g>
<!-- Node20&#45;&gt;Node16 -->
<g id="edge24" class="edge"><title>Node20&#45;&gt;Node16</title>
<path fill="none" stroke="midnightblue" d="M660.643,-128.975C690.275,-118.725 740.185,-101.459 773.602,-89.8994"/>
<polygon fill="midnightblue" stroke="midnightblue" points="775.096,-93.0861 783.402,-86.5091 772.808,-86.4707 775.096,-93.0861"/>
</g>
</g>
</svg>
        <g id="navigator" transform="translate(0 0)" fill="#404254">
                <rect fill="#f2f5e9" fill-opacity="0.5" stroke="#606060" stroke-width=".5" x="0" y="0" width="60" height="60"/>
                <use id="zoomplus" xlink:href="#zoomPlus" x="17" y="9" onmousedown="handleZoom(evt,'in')"/>
                <use id="zoomminus" xlink:href="#zoomMin" x="42" y="9" onmousedown="handleZoom(evt,'out')"/>
                <use id="reset" xlink:href="#resetDef" x="30" y="36" onmousedown="handleReset()"/>
                <g id="arrowUp" xlink:href="#dirArrow" transform="translate(30 24)" onmousedown="handlePan(0,-1)">
                  <use xlink:href="#rim" fill="#404040">
                        <set attributeName="fill" to="#808080" begin="arrowUp.mouseover" end="arrowUp.mouseout"/>
                  </use>
                  <path fill="none" stroke="white" stroke-width="1.5" d="M0,-3.0v7 M-2.5,-0.5L0,-3.0L2.5,-0.5"/>
                </g>
                <g id="arrowRight" xlink:href="#dirArrow" transform="rotate(90) translate(36 -43)" onmousedown="handlePan(1,0)">
                  <use xlink:href="#rim" fill="#404040">
                        <set attributeName="fill" to="#808080" begin="arrowRight.mouseover" end="arrowRight.mouseout"/>
                  </use>
                  <path fill="none" stroke="white" stroke-width="1.5" d="M0,-3.0v7 M-2.5,-0.5L0,-3.0L2.5,-0.5"/>
                </g>
                <g id="arrowDown" xlink:href="#dirArrow" transform="rotate(180) translate(-30 -48)" onmousedown="handlePan(0,1)">
                  <use xlink:href="#rim" fill="#404040">
                        <set attributeName="fill" to="#808080" begin="arrowDown.mouseover" end="arrowDown.mouseout"/>
                  </use>
                  <path fill="none" stroke="white" stroke-width="1.5" d="M0,-3.0v7 M-2.5,-0.5L0,-3.0L2.5,-0.5"/>
                </g>
                <g id="arrowLeft" xlink:href="#dirArrow" transform="rotate(270) translate(-36 17)" onmousedown="handlePan(-1,0)">
                  <use xlink:href="#rim" fill="#404040">
                        <set attributeName="fill" to="#808080" begin="arrowLeft.mouseover" end="arrowLeft.mouseout"/>
                  </use>
                  <path fill="none" stroke="white" stroke-width="1.5" d="M0,-3.0v7 M-2.5,-0.5L0,-3.0L2.5,-0.5"/>
                </g>
        </g>
        <svg viewBox="0 0 15 15" width="100%" height="30px" preserveAspectRatio="xMaxYMin meet">
         <g id="arrow_out" transform="scale(0.3 0.3)">
          <a xlink:href="RootDataIO_8cpp__incl_org.svg" target="_base">
           <rect id="button" ry="5" rx="5" y="6" x="6" height="38" width="38"
                fill="#f2f5e9" fill-opacity="0.5" stroke="#606060" stroke-width="1.0"/>
           <path id="arrow"
             d="M 11.500037,31.436501 C 11.940474,20.09759 22.043105,11.32322 32.158766,21.979434 L 37.068811,17.246167 C 37.068811,17.246167 37.088388,32 37.088388,32 L 22.160133,31.978069 C 22.160133,31.978069 26.997745,27.140456 26.997745,27.140456 C 18.528582,18.264221 13.291696,25.230495 11.500037,31.436501 z"
             style="fill:#404040;"/>
          </a>
         </g>
        </svg>
</svg>
