<?xml version="1.0" encoding="UTF-8" standalone="no"?>
<!DOCTYPE svg PUBLIC "-//W3C//DTD SVG 1.1//EN"
 "http://www.w3.org/Graphics/SVG/1.1/DTD/svg11.dtd">
<!-- Generated by graphviz version 2.40.1 (20161225.0304)
 -->
<!-- Title: Data/Root/RootGenerator.hpp Pages: 1 -->
<svg width="460pt" height="95pt"
 viewBox="0.00 0.00 459.50 95.00" xmlns="http://www.w3.org/2000/svg" xmlns:xlink="http://www.w3.org/1999/xlink">
<g id="graph0" class="graph" transform="scale(1 1) rotate(0) translate(4 91)">
<title>Data/Root/RootGenerator.hpp</title>
<polygon fill="#ffffff" stroke="transparent" points="-4,4 -4,-91 455.5,-91 455.5,4 -4,4"/>
<!-- Node32 -->
<g id="node1" class="node">
<title>Node32</title>
<polygon fill="#bfbfbf" stroke="#000000" points="150,-67.5 150,-86.5 308,-86.5 308,-67.5 150,-67.5"/>
<text text-anchor="middle" x="229" y="-74.5" font-family="Helvetica,sans-Serif" font-size="10.00" fill="#000000">Data/Root/RootGenerator.hpp</text>
</g>
<!-- Node33 -->
<g id="node2" class="node">
<title>Node33</title>
<g id="a_node2"><a xlink:href="RootGenerator_8cpp.html" target="_top" xlink:title="Data/Root/RootGenerator.cpp">
<polygon fill="#ffffff" stroke="#000000" points="0,-6 0,-25 158,-25 158,-6 0,-6"/>
<text text-anchor="middle" x="79" y="-13" font-family="Helvetica,sans-Serif" font-size="10.00" fill="#000000">Data/Root/RootGenerator.cpp</text>
</a>
</g>
</g>
<!-- Node32&#45;&gt;Node33 -->
<g id="edge1" class="edge">
<title>Node32&#45;&gt;Node33</title>
<path fill="none" stroke="#191970" d="M196.0623,-63.4955C167.678,-51.858 127.415,-35.3501 102.2729,-25.0419"/>
<polygon fill="#191970" stroke="#191970" points="194.9822,-66.8354 205.5625,-67.3906 197.6377,-60.3586 194.9822,-66.8354"/>
</g>
<!-- Node34 -->
<g id="node3" class="node">
<title>Node34</title>
<g id="a_node3"><a xlink:href="DalitzFitApp_8cpp.html" target="_top" xlink:title="Simple Dalitz plot analysis with ComPWA. ">
<polygon fill="#ffffff" stroke="#000000" points="175.5,-.5 175.5,-30.5 282.5,-30.5 282.5,-.5 175.5,-.5"/>
<text text-anchor="start" x="183.5" y="-18.5" font-family="Helvetica,sans-Serif" font-size="10.00" fill="#000000">Examples/DalitzFit</text>
<text text-anchor="middle" x="229" y="-7.5" font-family="Helvetica,sans-Serif" font-size="10.00" fill="#000000">/DalitzFitApp.cpp</text>
</a>
</g>
</g>
<!-- Node32&#45;&gt;Node34 -->
<g id="edge2" class="edge">
<title>Node32&#45;&gt;Node34</title>
<path fill="none" stroke="#191970" d="M229,-57.3693C229,-48.681 229,-38.6241 229,-30.5446"/>
<polygon fill="#191970" stroke="#191970" points="225.5001,-57.3906 229,-67.3906 232.5001,-57.3907 225.5001,-57.3906"/>
</g>
<!-- Node35 -->
<g id="node4" class="node">
<title>Node35</title>
<g id="a_node4"><a xlink:href="SimFit_8cpp.html" target="_top" xlink:title="Examples/SimFit/SimFit.cpp">
<polygon fill="#ffffff" stroke="#000000" points="300.5,-6 300.5,-25 451.5,-25 451.5,-6 300.5,-6"/>
<text text-anchor="middle" x="376" y="-13" font-family="Helvetica,sans-Serif" font-size="10.00" fill="#000000">Examples/SimFit/SimFit.cpp</text>
</a>
</g>
</g>
<!-- Node32&#45;&gt;Node35 -->
<g id="edge3" class="edge">
<title>Node32&#45;&gt;Node35</title>
<path fill="none" stroke="#191970" d="M261.279,-63.4955C289.0955,-51.858 328.5533,-35.3501 353.1925,-25.0419"/>
<polygon fill="#191970" stroke="#191970" points="259.8431,-60.3022 251.9688,-67.3906 262.5448,-66.7599 259.8431,-60.3022"/>
</g>
</g>
</svg>
