<?xml version="1.0" encoding="UTF-8" standalone="no"?>
<!DOCTYPE svg PUBLIC "-//W3C//DTD SVG 1.1//EN"
 "http://www.w3.org/Graphics/SVG/1.1/DTD/svg11.dtd">
<!-- Generated by graphviz version 2.38.0 (20140413.2041)
 -->
<!-- Title: rml::internal::LargeMemoryBlock Pages: 1 -->
<svg width="592pt" height="755pt"
 viewBox="0.00 0.00 591.50 755.00" xmlns="http://www.w3.org/2000/svg" xmlns:xlink="http://www.w3.org/1999/xlink">
<g id="graph0" class="graph" transform="scale(1 1) rotate(0) translate(4 751)">
<title>rml::internal::LargeMemoryBlock</title>
<polygon fill="white" stroke="none" points="-4,4 -4,-751 587.5,-751 587.5,4 -4,4"/>
<!-- Node1 -->
<g id="node1" class="node"><title>Node1</title>
<polygon fill="#bfbfbf" stroke="black" points="119,-0.5 119,-90.5 265,-90.5 265,-0.5 119,-0.5"/>
<text text-anchor="start" x="127" y="-78.5" font-family="Helvetica,sans-Serif" font-size="10.00">rml::internal::LargeMemory</text>
<text text-anchor="middle" x="192" y="-67.5" font-family="Helvetica,sans-Serif" font-size="10.00">Block</text>
<polyline fill="none" stroke="black" points="119,-60.5 265,-60.5 "/>
<text text-anchor="start" x="127" y="-48.5" font-family="Helvetica,sans-Serif" font-size="10.00">+ age</text>
<text text-anchor="start" x="127" y="-37.5" font-family="Helvetica,sans-Serif" font-size="10.00">+ objectSize</text>
<text text-anchor="start" x="127" y="-26.5" font-family="Helvetica,sans-Serif" font-size="10.00">+ unalignedSize</text>
<polyline fill="none" stroke="black" points="119,-19.5 265,-19.5 "/>
<text text-anchor="middle" x="192" y="-7.5" font-family="Helvetica,sans-Serif" font-size="10.00"> </text>
</g>
<!-- Node1&#45;&gt;Node1 -->
<g id="edge9" class="edge"><title>Node1&#45;&gt;Node1</title>
<path fill="none" stroke="#404040" d="M265.19,-57.0049C275.831,-55.1787 283,-51.3438 283,-45.5 283,-42.2129 280.732,-39.5614 276.853,-37.5455"/>
<polygon fill="none" stroke="#404040" points="276.67,-37.4898 269.765,-39.5691 265.19,-33.9951 272.095,-31.9158 276.67,-37.4898"/>
<text text-anchor="middle" x="302.5" y="-59.5" font-family="Helvetica,sans-Serif" font-size="10.00"> +gPrev</text>
<text text-anchor="middle" x="302.5" y="-48.5" font-family="Helvetica,sans-Serif" font-size="10.00">+gNext</text>
<text text-anchor="middle" x="302.5" y="-37.5" font-family="Helvetica,sans-Serif" font-size="10.00">+prev</text>
<text text-anchor="middle" x="302.5" y="-26.5" font-family="Helvetica,sans-Serif" font-size="10.00">+next</text>
</g>
<!-- Node2 -->
<g id="node2" class="node"><title>Node2</title>
<g id="a_node2"><a xlink:href="classrml_1_1internal_1_1BlockI.html" target="_top" xlink:title="{rml::internal::BlockI\n|&#45; blockState\l|}">
<polygon fill="white" stroke="black" points="0,-199 0,-256 108,-256 108,-199 0,-199"/>
<text text-anchor="middle" x="54" y="-244" font-family="Helvetica,sans-Serif" font-size="10.00">rml::internal::BlockI</text>
<polyline fill="none" stroke="black" points="0,-237 108,-237 "/>
<text text-anchor="start" x="8" y="-225" font-family="Helvetica,sans-Serif" font-size="10.00">&#45; blockState</text>
<polyline fill="none" stroke="black" points="0,-218 108,-218 "/>
<text text-anchor="middle" x="54" y="-206" font-family="Helvetica,sans-Serif" font-size="10.00"> </text>
</a>
</g>
</g>
<!-- Node2&#45;&gt;Node1 -->
<g id="edge1" class="edge"><title>Node2&#45;&gt;Node1</title>
<path fill="none" stroke="midnightblue" d="M79.1329,-190.021C90.4569,-173.894 104.147,-154.815 117,-138 128.975,-122.334 142.515,-105.55 154.763,-90.6903"/>
<polygon fill="none" stroke="midnightblue" points="75.9663,-188.442 73.1057,-198.643 81.7036,-192.452 75.9663,-188.442"/>
</g>
<!-- Node3 -->
<g id="node3" class="node"><title>Node3</title>
<g id="a_node3"><a xlink:href="classrml_1_1internal_1_1BackRefIdx.html" target="_top" xlink:title="{rml::internal::BackRefIdx\n||}">
<polygon fill="white" stroke="black" points="126.5,-199 126.5,-256 257.5,-256 257.5,-199 126.5,-199"/>
<text text-anchor="middle" x="192" y="-244" font-family="Helvetica,sans-Serif" font-size="10.00">rml::internal::BackRefIdx</text>
<polyline fill="none" stroke="black" points="126.5,-237 257.5,-237 "/>
<text text-anchor="middle" x="192" y="-225" font-family="Helvetica,sans-Serif" font-size="10.00"> </text>
<polyline fill="none" stroke="black" points="126.5,-218 257.5,-218 "/>
<text text-anchor="middle" x="192" y="-206" font-family="Helvetica,sans-Serif" font-size="10.00"> </text>
</a>
</g>
</g>
<!-- Node3&#45;&gt;Node1 -->
<g id="edge2" class="edge"><title>Node3&#45;&gt;Node1</title>
<path fill="none" stroke="#404040" d="M192,-198.769C192,-173.348 192,-134.926 192,-103.038"/>
<polygon fill="none" stroke="#404040" points="192,-102.731 188,-96.7311 192,-90.731 196,-96.731 192,-102.731"/>
<text text-anchor="middle" x="223" y="-112" font-family="Helvetica,sans-Serif" font-size="10.00"> +backRefIdx</text>
</g>
<!-- Node4 -->
<g id="node4" class="node"><title>Node4</title>
<g id="a_node4"><a xlink:href="classrml_1_1internal_1_1MemoryPool.html" target="_top" xlink:title="{rml::internal::MemoryPool\n|&#45; defaultGranularity\l|+ init()\l+ reset()\l+ destroy()\l+ onThreadShutdown()\l+ getTLS()\l+ clearTLS()\l+ getEmptyBlock()\l+ returnEmptyBlock()\l+ getFromLLOCache()\l+ putToLLOCache()\l+ initDefaultPool()\l&#45; MemoryPool()\l}">
<polygon fill="white" stroke="black" points="276,-138.5 276,-316.5 416,-316.5 416,-138.5 276,-138.5"/>
<text text-anchor="middle" x="346" y="-304.5" font-family="Helvetica,sans-Serif" font-size="10.00">rml::internal::MemoryPool</text>
<polyline fill="none" stroke="black" points="276,-297.5 416,-297.5 "/>
<text text-anchor="start" x="284" y="-285.5" font-family="Helvetica,sans-Serif" font-size="10.00">&#45; defaultGranularity</text>
<polyline fill="none" stroke="black" points="276,-278.5 416,-278.5 "/>
<text text-anchor="start" x="284" y="-266.5" font-family="Helvetica,sans-Serif" font-size="10.00">+ init()</text>
<text text-anchor="start" x="284" y="-255.5" font-family="Helvetica,sans-Serif" font-size="10.00">+ reset()</text>
<text text-anchor="start" x="284" y="-244.5" font-family="Helvetica,sans-Serif" font-size="10.00">+ destroy()</text>
<text text-anchor="start" x="284" y="-233.5" font-family="Helvetica,sans-Serif" font-size="10.00">+ onThreadShutdown()</text>
<text text-anchor="start" x="284" y="-222.5" font-family="Helvetica,sans-Serif" font-size="10.00">+ getTLS()</text>
<text text-anchor="start" x="284" y="-211.5" font-family="Helvetica,sans-Serif" font-size="10.00">+ clearTLS()</text>
<text text-anchor="start" x="284" y="-200.5" font-family="Helvetica,sans-Serif" font-size="10.00">+ getEmptyBlock()</text>
<text text-anchor="start" x="284" y="-189.5" font-family="Helvetica,sans-Serif" font-size="10.00">+ returnEmptyBlock()</text>
<text text-anchor="start" x="284" y="-178.5" font-family="Helvetica,sans-Serif" font-size="10.00">+ getFromLLOCache()</text>
<text text-anchor="start" x="284" y="-167.5" font-family="Helvetica,sans-Serif" font-size="10.00">+ putToLLOCache()</text>
<text text-anchor="start" x="284" y="-156.5" font-family="Helvetica,sans-Serif" font-size="10.00">+ initDefaultPool()</text>
<text text-anchor="start" x="284" y="-145.5" font-family="Helvetica,sans-Serif" font-size="10.00">&#45; MemoryPool()</text>
</a>
</g>
</g>
<!-- Node4&#45;&gt;Node1 -->
<g id="edge3" class="edge"><title>Node4&#45;&gt;Node1</title>
<path fill="none" stroke="#404040" d="M282.484,-138.245C274.487,-128.18 266.222,-118.23 258,-109 255.186,-105.841 252.237,-102.657 249.212,-99.4901"/>
<polygon fill="none" stroke="#404040" points="248.937,-99.2095 241.881,-97.7237 240.538,-90.6387 247.595,-92.1245 248.937,-99.2095"/>
<text text-anchor="middle" x="282" y="-112" font-family="Helvetica,sans-Serif" font-size="10.00"> +pool</text>
</g>
<!-- Node4&#45;&gt;Node4 -->
<g id="edge8" class="edge"><title>Node4&#45;&gt;Node4</title>
<path fill="none" stroke="#404040" d="M416.071,-246.649C426.749,-243.727 434,-237.344 434,-227.5 434,-221.655 431.444,-217.031 427.132,-213.626"/>
<polygon fill="none" stroke="#404040" points="426.902,-213.516 419.765,-214.544 416.071,-208.351 423.208,-207.323 426.902,-213.516"/>
<text text-anchor="middle" x="450.5" y="-230.5" font-family="Helvetica,sans-Serif" font-size="10.00"> +prev</text>
<text text-anchor="middle" x="450.5" y="-219.5" font-family="Helvetica,sans-Serif" font-size="10.00">+next</text>
</g>
<!-- Node5 -->
<g id="node5" class="node"><title>Node5</title>
<g id="a_node5"><a xlink:href="classrml_1_1internal_1_1BootStrapBlocks.html" target="_top" xlink:title="{rml::internal::BootStrap\lBlocks\n||+ allocate()\l+ free()\l+ reset()\l}">
<polygon fill="white" stroke="red" points="281.5,-458 281.5,-548 410.5,-548 410.5,-458 281.5,-458"/>
<text text-anchor="start" x="289.5" y="-536" font-family="Helvetica,sans-Serif" font-size="10.00">rml::internal::BootStrap</text>
<text text-anchor="middle" x="346" y="-525" font-family="Helvetica,sans-Serif" font-size="10.00">Blocks</text>
<polyline fill="none" stroke="red" points="281.5,-518 410.5,-518 "/>
<text text-anchor="middle" x="346" y="-506" font-family="Helvetica,sans-Serif" font-size="10.00"> </text>
<polyline fill="none" stroke="red" points="281.5,-499 410.5,-499 "/>
<text text-anchor="start" x="289.5" y="-487" font-family="Helvetica,sans-Serif" font-size="10.00">+ allocate()</text>
<text text-anchor="start" x="289.5" y="-476" font-family="Helvetica,sans-Serif" font-size="10.00">+ free()</text>
<text text-anchor="start" x="289.5" y="-465" font-family="Helvetica,sans-Serif" font-size="10.00">+ reset()</text>
</a>
</g>
</g>
<!-- Node5&#45;&gt;Node4 -->
<g id="edge4" class="edge"><title>Node5&#45;&gt;Node4</title>
<path fill="none" stroke="#404040" d="M346,-457.754C346,-422.924 346,-373.023 346,-328.665"/>
<polygon fill="none" stroke="#404040" points="346,-328.62 342,-322.62 346,-316.62 350,-322.62 346,-328.62"/>
<text text-anchor="middle" x="391.5" y="-338" font-family="Helvetica,sans-Serif" font-size="10.00"> +bootStrapBlocks</text>
</g>
<!-- Node6 -->
<g id="node6" class="node"><title>Node6</title>
<g id="a_node6"><a xlink:href="classMallocMutex.html" target="_top" xlink:title="Stripped down version of spin_mutex. ">
<polygon fill="white" stroke="red" points="182,-689.5 182,-746.5 258,-746.5 258,-689.5 182,-689.5"/>
<text text-anchor="middle" x="220" y="-734.5" font-family="Helvetica,sans-Serif" font-size="10.00">MallocMutex</text>
<polyline fill="none" stroke="red" points="182,-727.5 258,-727.5 "/>
<text text-anchor="start" x="190" y="-715.5" font-family="Helvetica,sans-Serif" font-size="10.00">&#45; flag</text>
<polyline fill="none" stroke="red" points="182,-708.5 258,-708.5 "/>
<text text-anchor="middle" x="220" y="-696.5" font-family="Helvetica,sans-Serif" font-size="10.00"> </text>
</a>
</g>
</g>
<!-- Node6&#45;&gt;Node4 -->
<g id="edge7" class="edge"><title>Node6&#45;&gt;Node4</title>
<path fill="none" stroke="#404040" d="M199.035,-689.404C190.056,-675.882 180.591,-658.899 176,-642 143.606,-522.766 111.971,-469.671 176,-364 199.385,-325.406 230.31,-344.615 266,-317 266.102,-316.921 266.205,-316.841 266.307,-316.762"/>
<polygon fill="none" stroke="#404040" points="266.474,-316.625 268.566,-309.724 275.741,-309.001 273.649,-315.902 266.474,-316.625"/>
<text text-anchor="middle" x="224" y="-500.5" font-family="Helvetica,sans-Serif" font-size="10.00"> +memPoolListLock</text>
</g>
<!-- Node6&#45;&gt;Node5 -->
<g id="edge5" class="edge"><title>Node6&#45;&gt;Node5</title>
<path fill="none" stroke="#404040" d="M237.675,-689.381C246.602,-675.285 257.522,-657.817 267,-642 283.328,-614.753 300.937,-584.121 315.378,-558.651"/>
<polygon fill="none" stroke="#404040" points="315.451,-558.521 314.924,-551.329 321.36,-548.076 321.887,-555.268 315.451,-558.521"/>
<text text-anchor="middle" x="294.5" y="-663" font-family="Helvetica,sans-Serif" font-size="10.00"> &#45;bootStrapLock</text>
</g>
<!-- Node7 -->
<g id="node7" class="node"><title>Node7</title>
<g id="a_node7"><a xlink:href="structrml_1_1internal_1_1ExtMemoryPool.html" target="_top" xlink:title="{rml::internal::ExtMemoryPool\n|+ poolId\l+ rawAlloc\l+ rawFree\l+ granularity\l+ keepAllMemory\l+ delayRegsReleasing\l+ fixedPool\l|+ init()\l+ initTLS()\l+ userPool()\l+ softCachesCleanup()\l+ releaseAllLocalCaches()\l+ hardCachesCleanup()\l+ remap()\l+ reset()\l+ destroy()\l+ delayRegionsReleasing()\l+ regionsAreReleaseable()\l+ mallocLargeObject()\l+ freeLargeObject()\l+ freeLargeObjectList()\l+ isPoolValid()\l}">
<polygon fill="white" stroke="red" points="428.5,-364.5 428.5,-641.5 583.5,-641.5 583.5,-364.5 428.5,-364.5"/>
<text text-anchor="middle" x="506" y="-629.5" font-family="Helvetica,sans-Serif" font-size="10.00">rml::internal::ExtMemoryPool</text>
<polyline fill="none" stroke="red" points="428.5,-622.5 583.5,-622.5 "/>
<text text-anchor="start" x="436.5" y="-610.5" font-family="Helvetica,sans-Serif" font-size="10.00">+ poolId</text>
<text text-anchor="start" x="436.5" y="-599.5" font-family="Helvetica,sans-Serif" font-size="10.00">+ rawAlloc</text>
<text text-anchor="start" x="436.5" y="-588.5" font-family="Helvetica,sans-Serif" font-size="10.00">+ rawFree</text>
<text text-anchor="start" x="436.5" y="-577.5" font-family="Helvetica,sans-Serif" font-size="10.00">+ granularity</text>
<text text-anchor="start" x="436.5" y="-566.5" font-family="Helvetica,sans-Serif" font-size="10.00">+ keepAllMemory</text>
<text text-anchor="start" x="436.5" y="-555.5" font-family="Helvetica,sans-Serif" font-size="10.00">+ delayRegsReleasing</text>
<text text-anchor="start" x="436.5" y="-544.5" font-family="Helvetica,sans-Serif" font-size="10.00">+ fixedPool</text>
<polyline fill="none" stroke="red" points="428.5,-537.5 583.5,-537.5 "/>
<text text-anchor="start" x="436.5" y="-525.5" font-family="Helvetica,sans-Serif" font-size="10.00">+ init()</text>
<text text-anchor="start" x="436.5" y="-514.5" font-family="Helvetica,sans-Serif" font-size="10.00">+ initTLS()</text>
<text text-anchor="start" x="436.5" y="-503.5" font-family="Helvetica,sans-Serif" font-size="10.00">+ userPool()</text>
<text text-anchor="start" x="436.5" y="-492.5" font-family="Helvetica,sans-Serif" font-size="10.00">+ softCachesCleanup()</text>
<text text-anchor="start" x="436.5" y="-481.5" font-family="Helvetica,sans-Serif" font-size="10.00">+ releaseAllLocalCaches()</text>
<text text-anchor="start" x="436.5" y="-470.5" font-family="Helvetica,sans-Serif" font-size="10.00">+ hardCachesCleanup()</text>
<text text-anchor="start" x="436.5" y="-459.5" font-family="Helvetica,sans-Serif" font-size="10.00">+ remap()</text>
<text text-anchor="start" x="436.5" y="-448.5" font-family="Helvetica,sans-Serif" font-size="10.00">+ reset()</text>
<text text-anchor="start" x="436.5" y="-437.5" font-family="Helvetica,sans-Serif" font-size="10.00">+ destroy()</text>
<text text-anchor="start" x="436.5" y="-426.5" font-family="Helvetica,sans-Serif" font-size="10.00">+ delayRegionsReleasing()</text>
<text text-anchor="start" x="436.5" y="-415.5" font-family="Helvetica,sans-Serif" font-size="10.00">+ regionsAreReleaseable()</text>
<text text-anchor="start" x="436.5" y="-404.5" font-family="Helvetica,sans-Serif" font-size="10.00">+ mallocLargeObject()</text>
<text text-anchor="start" x="436.5" y="-393.5" font-family="Helvetica,sans-Serif" font-size="10.00">+ freeLargeObject()</text>
<text text-anchor="start" x="436.5" y="-382.5" font-family="Helvetica,sans-Serif" font-size="10.00">+ freeLargeObjectList()</text>
<text text-anchor="start" x="436.5" y="-371.5" font-family="Helvetica,sans-Serif" font-size="10.00">+ isPoolValid()</text>
</a>
</g>
</g>
<!-- Node7&#45;&gt;Node4 -->
<g id="edge6" class="edge"><title>Node7&#45;&gt;Node4</title>
<path fill="none" stroke="#404040" d="M457.033,-364.269C452.038,-354.152 446.69,-344.284 441,-335 435.789,-326.497 429.869,-318.035 423.59,-309.811"/>
<polygon fill="none" stroke="#404040" points="423.505,-309.703 416.649,-307.467 416.077,-300.279 422.932,-302.515 423.505,-309.703"/>
<text text-anchor="middle" x="480.5" y="-338" font-family="Helvetica,sans-Serif" font-size="10.00"> +extMemPool</text>
</g>
</g>
</svg>
