<?xml version="1.0" encoding="UTF-8" standalone="no"?>
<!DOCTYPE svg PUBLIC "-//W3C//DTD SVG 1.1//EN"
 "http://www.w3.org/Graphics/SVG/1.1/DTD/svg11.dtd">
<!-- Generated by graphviz version 2.38.0 (20140413.2041)
 -->
<!-- Title: texture Pages: 1 -->
<svg width="130pt" height="347pt"
 viewBox="0.00 0.00 129.50 347.00" xmlns="http://www.w3.org/2000/svg" xmlns:xlink="http://www.w3.org/1999/xlink">
<g id="graph0" class="graph" transform="scale(1 1) rotate(0) translate(4 343)">
<title>texture</title>
<polygon fill="white" stroke="none" points="-4,4 -4,-343 125.5,-343 125.5,4 -4,4"/>
<!-- Node1 -->
<g id="node1" class="node"><title>Node1</title>
<polygon fill="#bfbfbf" stroke="black" points="12.5,-0.5 12.5,-167.5 96.5,-167.5 96.5,-0.5 12.5,-0.5"/>
<text text-anchor="middle" x="54.5" y="-155.5" font-family="Helvetica,sans-Serif" font-size="10.00">texture</text>
<polyline fill="none" stroke="black" points="12.5,-148.5 96.5,-148.5 "/>
<text text-anchor="start" x="20.5" y="-136.5" font-family="Helvetica,sans-Serif" font-size="10.00">+ shadowcast</text>
<text text-anchor="start" x="20.5" y="-125.5" font-family="Helvetica,sans-Serif" font-size="10.00">+ islight</text>
<text text-anchor="start" x="20.5" y="-114.5" font-family="Helvetica,sans-Serif" font-size="10.00">+ ambient</text>
<text text-anchor="start" x="20.5" y="-103.5" font-family="Helvetica,sans-Serif" font-size="10.00">+ diffuse</text>
<text text-anchor="start" x="20.5" y="-92.5" font-family="Helvetica,sans-Serif" font-size="10.00">+ phong</text>
<text text-anchor="start" x="20.5" y="-81.5" font-family="Helvetica,sans-Serif" font-size="10.00">+ phongexp</text>
<text text-anchor="start" x="20.5" y="-70.5" font-family="Helvetica,sans-Serif" font-size="10.00">+ phongtype</text>
<text text-anchor="start" x="20.5" y="-59.5" font-family="Helvetica,sans-Serif" font-size="10.00">+ specular</text>
<text text-anchor="start" x="20.5" y="-48.5" font-family="Helvetica,sans-Serif" font-size="10.00">+ opacity</text>
<text text-anchor="start" x="20.5" y="-37.5" font-family="Helvetica,sans-Serif" font-size="10.00">+ img</text>
<text text-anchor="start" x="20.5" y="-26.5" font-family="Helvetica,sans-Serif" font-size="10.00">+ obj</text>
<polyline fill="none" stroke="black" points="12.5,-19.5 96.5,-19.5 "/>
<text text-anchor="middle" x="54.5" y="-7.5" font-family="Helvetica,sans-Serif" font-size="10.00"> </text>
</g>
<!-- Node2 -->
<g id="node2" class="node"><title>Node2</title>
<g id="a_node2"><a xlink:href="structvector.html" target="_top" xlink:title="{vector\n|+ x\l+ y\l+ z\l|}">
<polygon fill="white" stroke="black" points="0,-259.5 0,-338.5 47,-338.5 47,-259.5 0,-259.5"/>
<text text-anchor="middle" x="23.5" y="-326.5" font-family="Helvetica,sans-Serif" font-size="10.00">vector</text>
<polyline fill="none" stroke="black" points="0,-319.5 47,-319.5 "/>
<text text-anchor="start" x="8" y="-307.5" font-family="Helvetica,sans-Serif" font-size="10.00">+ x</text>
<text text-anchor="start" x="8" y="-296.5" font-family="Helvetica,sans-Serif" font-size="10.00">+ y</text>
<text text-anchor="start" x="8" y="-285.5" font-family="Helvetica,sans-Serif" font-size="10.00">+ z</text>
<polyline fill="none" stroke="black" points="0,-278.5 47,-278.5 "/>
<text text-anchor="middle" x="23.5" y="-266.5" font-family="Helvetica,sans-Serif" font-size="10.00"> </text>
</a>
</g>
</g>
<!-- Node2&#45;&gt;Node1 -->
<g id="edge1" class="edge"><title>Node2&#45;&gt;Node1</title>
<path fill="none" stroke="#404040" d="M23.7698,-259.461C24.37,-237.778 25.88,-210.267 29.5,-186 29.8069,-183.943 30.1368,-181.866 30.487,-179.776"/>
<polygon fill="none" stroke="#404040" points="30.5365,-179.504 27.6814,-172.883 32.6956,-167.7 35.5508,-174.322 30.5365,-179.504"/>
<text text-anchor="middle" x="46.5" y="-233" font-family="Helvetica,sans-Serif" font-size="10.00"> +vaxs</text>
<text text-anchor="middle" x="46.5" y="-222" font-family="Helvetica,sans-Serif" font-size="10.00">+uaxs</text>
<text text-anchor="middle" x="46.5" y="-211" font-family="Helvetica,sans-Serif" font-size="10.00">+ctr</text>
<text text-anchor="middle" x="46.5" y="-200" font-family="Helvetica,sans-Serif" font-size="10.00">+rot</text>
<text text-anchor="middle" x="46.5" y="-189" font-family="Helvetica,sans-Serif" font-size="10.00">+scale</text>
</g>
<!-- Node3 -->
<g id="node3" class="node"><title>Node3</title>
<g id="a_node3"><a xlink:href="structcolor.html" target="_top" xlink:title="{color\n|+ r\l+ g\l+ b\l|}">
<polygon fill="white" stroke="black" points="65.5,-259.5 65.5,-338.5 105.5,-338.5 105.5,-259.5 65.5,-259.5"/>
<text text-anchor="middle" x="85.5" y="-326.5" font-family="Helvetica,sans-Serif" font-size="10.00">color</text>
<polyline fill="none" stroke="black" points="65.5,-319.5 105.5,-319.5 "/>
<text text-anchor="start" x="73.5" y="-307.5" font-family="Helvetica,sans-Serif" font-size="10.00">+ r</text>
<text text-anchor="start" x="73.5" y="-296.5" font-family="Helvetica,sans-Serif" font-size="10.00">+ g</text>
<text text-anchor="start" x="73.5" y="-285.5" font-family="Helvetica,sans-Serif" font-size="10.00">+ b</text>
<polyline fill="none" stroke="black" points="65.5,-278.5 105.5,-278.5 "/>
<text text-anchor="middle" x="85.5" y="-266.5" font-family="Helvetica,sans-Serif" font-size="10.00"> </text>
</a>
</g>
</g>
<!-- Node3&#45;&gt;Node1 -->
<g id="edge2" class="edge"><title>Node3&#45;&gt;Node1</title>
<path fill="none" stroke="#404040" d="M79.8861,-259.427C76.6343,-237.084 72.386,-207.894 68.2977,-179.804"/>
<polygon fill="none" stroke="#404040" points="68.2871,-179.73 63.4646,-174.369 66.5587,-167.855 71.3812,-173.217 68.2871,-179.73"/>
<text text-anchor="middle" x="99.5" y="-216.5" font-family="Helvetica,sans-Serif" font-size="10.00"> +col</text>
<text text-anchor="middle" x="99.5" y="-205.5" font-family="Helvetica,sans-Serif" font-size="10.00">+texfunc</text>
</g>
</g>
</svg>
