<?xml version="1.0" encoding="UTF-8" standalone="no"?>
<!DOCTYPE svg PUBLIC "-//W3C//DTD SVG 1.1//EN"
 "http://www.w3.org/Graphics/SVG/1.1/DTD/svg11.dtd">
<!-- Generated by graphviz version 2.38.0 (20140413.2041)
 -->
<!-- Title: __pstl::internal::is_random_access_iterator&lt; _IteratorType &gt; Pages: 1 -->
<svg width="197pt" height="215pt"
 viewBox="0.00 0.00 197.00 215.00" xmlns="http://www.w3.org/2000/svg" xmlns:xlink="http://www.w3.org/1999/xlink">
<g id="graph0" class="graph" transform="scale(1 1) rotate(0) translate(4 211)">
<title>__pstl::internal::is_random_access_iterator&lt; _IteratorType &gt;</title>
<polygon fill="white" stroke="none" points="-4,4 -4,-211 193,-211 193,4 -4,4"/>
<!-- Node1 -->
<g id="node1" class="node"><title>Node1</title>
<polygon fill="#bfbfbf" stroke="black" points="25.5,-0.5 25.5,-79.5 163.5,-79.5 163.5,-0.5 25.5,-0.5"/>
<text text-anchor="start" x="33.5" y="-67.5" font-family="Helvetica,sans-Serif" font-size="10.00">__pstl::internal::is</text>
<text text-anchor="start" x="33.5" y="-56.5" font-family="Helvetica,sans-Serif" font-size="10.00">_random_access_iterator</text>
<text text-anchor="middle" x="94.5" y="-45.5" font-family="Helvetica,sans-Serif" font-size="10.00">&lt; _IteratorType &gt;</text>
<polyline fill="none" stroke="black" points="25.5,-38.5 163.5,-38.5 "/>
<text text-anchor="middle" x="94.5" y="-26.5" font-family="Helvetica,sans-Serif" font-size="10.00"> </text>
<polyline fill="none" stroke="black" points="25.5,-19.5 163.5,-19.5 "/>
<text text-anchor="middle" x="94.5" y="-7.5" font-family="Helvetica,sans-Serif" font-size="10.00"> </text>
</g>
<!-- Node2 -->
<g id="node2" class="node"><title>Node2</title>
<polygon fill="white" stroke="#bfbfbf" points="0,-116.5 0,-206.5 189,-206.5 189,-116.5 0,-116.5"/>
<text text-anchor="start" x="8" y="-194.5" font-family="Helvetica,sans-Serif" font-size="10.00">std::is_same&lt; std::</text>
<text text-anchor="start" x="8" y="-183.5" font-family="Helvetica,sans-Serif" font-size="10.00">iterator_traits&lt; _Iterator</text>
<text text-anchor="start" x="8" y="-172.5" font-family="Helvetica,sans-Serif" font-size="10.00">Type &gt;::iterator_category,</text>
<text text-anchor="middle" x="94.5" y="-161.5" font-family="Helvetica,sans-Serif" font-size="10.00"> std::random_access_iterator_tag &gt;</text>
<polyline fill="none" stroke="#bfbfbf" points="0,-154.5 189,-154.5 "/>
<text text-anchor="middle" x="94.5" y="-142.5" font-family="Helvetica,sans-Serif" font-size="10.00"> </text>
<polyline fill="none" stroke="#bfbfbf" points="0,-135.5 189,-135.5 "/>
<text text-anchor="middle" x="94.5" y="-123.5" font-family="Helvetica,sans-Serif" font-size="10.00"> </text>
</g>
<!-- Node2&#45;&gt;Node1 -->
<g id="edge1" class="edge"><title>Node2&#45;&gt;Node1</title>
<path fill="none" stroke="midnightblue" d="M94.5,-106.079C94.5,-97.234 94.5,-88.2325 94.5,-79.8576"/>
<polygon fill="none" stroke="midnightblue" points="91.0001,-106.342 94.5,-116.342 98.0001,-106.342 91.0001,-106.342"/>
</g>
</g>
</svg>
