<?xml version="1.0" encoding="UTF-8" standalone="no"?>
<!DOCTYPE svg PUBLIC "-//W3C//DTD SVG 1.1//EN"
 "http://www.w3.org/Graphics/SVG/1.1/DTD/svg11.dtd">
<!-- Generated by graphviz version 2.38.0 (20140413.2041)
 -->
<!-- Title: DState Pages: 1 -->
<svg width="122pt" height="402pt"
 viewBox="0.00 0.00 122.00 402.00" xmlns="http://www.w3.org/2000/svg" xmlns:xlink="http://www.w3.org/1999/xlink">
<g id="graph0" class="graph" transform="scale(1 1) rotate(0) translate(4 398)">
<title>DState</title>
<polygon fill="white" stroke="none" points="-4,4 -4,-398 118,-398 118,4 -4,4"/>
<!-- Node1 -->
<g id="node1" class="node"><title>Node1</title>
<polygon fill="#bfbfbf" stroke="black" points="0,-0.5 0,-167.5 114,-167.5 114,-0.5 0,-0.5"/>
<text text-anchor="middle" x="57" y="-155.5" font-family="Helvetica,sans-Serif" font-size="10.00">DState</text>
<polyline fill="none" stroke="black" points="0,-148.5 114,-148.5 "/>
<text text-anchor="start" x="8" y="-136.5" font-family="Helvetica,sans-Serif" font-size="10.00">+ state</text>
<text text-anchor="start" x="8" y="-125.5" font-family="Helvetica,sans-Serif" font-size="10.00">+ state_out_ch</text>
<text text-anchor="start" x="8" y="-114.5" font-family="Helvetica,sans-Serif" font-size="10.00">+ state_out_len</text>
<text text-anchor="start" x="8" y="-103.5" font-family="Helvetica,sans-Serif" font-size="10.00">+ blockRandomised</text>
<text text-anchor="start" x="8" y="-92.5" font-family="Helvetica,sans-Serif" font-size="10.00">+ BZ_RAND_DECLS</text>
<text text-anchor="start" x="8" y="-81.5" font-family="Helvetica,sans-Serif" font-size="10.00">+ bsBuff</text>
<text text-anchor="start" x="8" y="-70.5" font-family="Helvetica,sans-Serif" font-size="10.00">+ bsLive</text>
<text text-anchor="start" x="8" y="-59.5" font-family="Helvetica,sans-Serif" font-size="10.00">+ blockSize100k</text>
<text text-anchor="start" x="8" y="-48.5" font-family="Helvetica,sans-Serif" font-size="10.00">+ smallDecompress</text>
<text text-anchor="start" x="8" y="-37.5" font-family="Helvetica,sans-Serif" font-size="10.00">+ currBlockNo</text>
<text text-anchor="start" x="8" y="-26.5" font-family="Helvetica,sans-Serif" font-size="10.00">and 52 more...</text>
<polyline fill="none" stroke="black" points="0,-19.5 114,-19.5 "/>
<text text-anchor="middle" x="57" y="-7.5" font-family="Helvetica,sans-Serif" font-size="10.00"> </text>
</g>
<!-- Node2 -->
<g id="node2" class="node"><title>Node2</title>
<g id="a_node2"><a xlink:href="structbz__stream.html" target="_top" xlink:title="{bz_stream\n|+ next_in\l+ avail_in\l+ total_in_lo32\l+ total_in_hi32\l+ next_out\l+ avail_out\l+ total_out_lo32\l+ total_out_hi32\l+ state\l+ bzalloc\l+ bzfree\l+ opaque\l|}">
<polygon fill="white" stroke="black" points="9,-215.5 9,-393.5 105,-393.5 105,-215.5 9,-215.5"/>
<text text-anchor="middle" x="57" y="-381.5" font-family="Helvetica,sans-Serif" font-size="10.00">bz_stream</text>
<polyline fill="none" stroke="black" points="9,-374.5 105,-374.5 "/>
<text text-anchor="start" x="17" y="-362.5" font-family="Helvetica,sans-Serif" font-size="10.00">+ next_in</text>
<text text-anchor="start" x="17" y="-351.5" font-family="Helvetica,sans-Serif" font-size="10.00">+ avail_in</text>
<text text-anchor="start" x="17" y="-340.5" font-family="Helvetica,sans-Serif" font-size="10.00">+ total_in_lo32</text>
<text text-anchor="start" x="17" y="-329.5" font-family="Helvetica,sans-Serif" font-size="10.00">+ total_in_hi32</text>
<text text-anchor="start" x="17" y="-318.5" font-family="Helvetica,sans-Serif" font-size="10.00">+ next_out</text>
<text text-anchor="start" x="17" y="-307.5" font-family="Helvetica,sans-Serif" font-size="10.00">+ avail_out</text>
<text text-anchor="start" x="17" y="-296.5" font-family="Helvetica,sans-Serif" font-size="10.00">+ total_out_lo32</text>
<text text-anchor="start" x="17" y="-285.5" font-family="Helvetica,sans-Serif" font-size="10.00">+ total_out_hi32</text>
<text text-anchor="start" x="17" y="-274.5" font-family="Helvetica,sans-Serif" font-size="10.00">+ state</text>
<text text-anchor="start" x="17" y="-263.5" font-family="Helvetica,sans-Serif" font-size="10.00">+ bzalloc</text>
<text text-anchor="start" x="17" y="-252.5" font-family="Helvetica,sans-Serif" font-size="10.00">+ bzfree</text>
<text text-anchor="start" x="17" y="-241.5" font-family="Helvetica,sans-Serif" font-size="10.00">+ opaque</text>
<polyline fill="none" stroke="black" points="9,-234.5 105,-234.5 "/>
<text text-anchor="middle" x="57" y="-222.5" font-family="Helvetica,sans-Serif" font-size="10.00"> </text>
</a>
</g>
</g>
<!-- Node2&#45;&gt;Node1 -->
<g id="edge1" class="edge"><title>Node2&#45;&gt;Node1</title>
<path fill="none" stroke="#404040" d="M57,-215.258C57,-203.566 57,-191.541 57,-179.746"/>
<polygon fill="none" stroke="#404040" points="57.0001,-179.56 53,-173.561 57,-167.56 61,-173.56 57.0001,-179.56"/>
<text text-anchor="middle" x="74" y="-189" font-family="Helvetica,sans-Serif" font-size="10.00"> +strm</text>
</g>
</g>
</svg>
