<?xml version="1.0" encoding="UTF-8" standalone="no"?>
<!DOCTYPE svg PUBLIC "-//W3C//DTD SVG 1.1//EN"
 "http://www.w3.org/Graphics/SVG/1.1/DTD/svg11.dtd">
<!-- Generated by graphviz version 2.38.0 (20140413.2041)
 -->
<!-- Title: rml::internal::OpCleanAll Pages: 1 -->
<svg width="475pt" height="430pt"
 viewBox="0.00 0.00 475.00 430.00" xmlns="http://www.w3.org/2000/svg" xmlns:xlink="http://www.w3.org/1999/xlink">
<g id="graph0" class="graph" transform="scale(1 1) rotate(0) translate(4 426)">
<title>rml::internal::OpCleanAll</title>
<polygon fill="white" stroke="none" points="-4,4 -4,-426 471,-426 471,4 -4,4"/>
<!-- Node1 -->
<g id="node1" class="node"><title>Node1</title>
<polygon fill="#bfbfbf" stroke="black" points="126,-0.5 126,-57.5 258,-57.5 258,-0.5 126,-0.5"/>
<text text-anchor="middle" x="192" y="-45.5" font-family="Helvetica,sans-Serif" font-size="10.00">rml::internal::OpCleanAll</text>
<polyline fill="none" stroke="black" points="126,-38.5 258,-38.5 "/>
<text text-anchor="start" x="134" y="-26.5" font-family="Helvetica,sans-Serif" font-size="10.00">+ type</text>
<polyline fill="none" stroke="black" points="126,-19.5 258,-19.5 "/>
<text text-anchor="middle" x="192" y="-7.5" font-family="Helvetica,sans-Serif" font-size="10.00"> </text>
</g>
<!-- Node2 -->
<g id="node2" class="node"><title>Node2</title>
<g id="a_node2"><a xlink:href="structrml_1_1internal_1_1LargeMemoryBlock.html" target="_top" xlink:title="{rml::internal::LargeMemory\lBlock\n|+ age\l+ objectSize\l+ unalignedSize\l|}">
<polygon fill="white" stroke="black" points="119,-105.5 119,-195.5 265,-195.5 265,-105.5 119,-105.5"/>
<text text-anchor="start" x="127" y="-183.5" font-family="Helvetica,sans-Serif" font-size="10.00">rml::internal::LargeMemory</text>
<text text-anchor="middle" x="192" y="-172.5" font-family="Helvetica,sans-Serif" font-size="10.00">Block</text>
<polyline fill="none" stroke="black" points="119,-165.5 265,-165.5 "/>
<text text-anchor="start" x="127" y="-153.5" font-family="Helvetica,sans-Serif" font-size="10.00">+ age</text>
<text text-anchor="start" x="127" y="-142.5" font-family="Helvetica,sans-Serif" font-size="10.00">+ objectSize</text>
<text text-anchor="start" x="127" y="-131.5" font-family="Helvetica,sans-Serif" font-size="10.00">+ unalignedSize</text>
<polyline fill="none" stroke="black" points="119,-124.5 265,-124.5 "/>
<text text-anchor="middle" x="192" y="-112.5" font-family="Helvetica,sans-Serif" font-size="10.00"> </text>
</a>
</g>
</g>
<!-- Node2&#45;&gt;Node1 -->
<g id="edge1" class="edge"><title>Node2&#45;&gt;Node1</title>
<path fill="none" stroke="#404040" d="M192,-105.342C192,-93.7485 192,-81.3129 192,-69.9534"/>
<polygon fill="none" stroke="#404040" points="192,-69.6879 188,-63.6879 192,-57.6879 196,-63.6878 192,-69.6879"/>
<text text-anchor="middle" x="205.5" y="-79" font-family="Helvetica,sans-Serif" font-size="10.00"> +res</text>
</g>
<!-- Node2&#45;&gt;Node2 -->
<g id="edge6" class="edge"><title>Node2&#45;&gt;Node2</title>
<path fill="none" stroke="#404040" d="M265.19,-162.005C275.831,-160.179 283,-156.344 283,-150.5 283,-147.213 280.732,-144.561 276.853,-142.545"/>
<polygon fill="none" stroke="#404040" points="276.67,-142.49 269.765,-144.569 265.19,-138.995 272.095,-136.916 276.67,-142.49"/>
<text text-anchor="middle" x="302.5" y="-164.5" font-family="Helvetica,sans-Serif" font-size="10.00"> +gPrev</text>
<text text-anchor="middle" x="302.5" y="-153.5" font-family="Helvetica,sans-Serif" font-size="10.00">+gNext</text>
<text text-anchor="middle" x="302.5" y="-142.5" font-family="Helvetica,sans-Serif" font-size="10.00">+prev</text>
<text text-anchor="middle" x="302.5" y="-131.5" font-family="Helvetica,sans-Serif" font-size="10.00">+next</text>
</g>
<!-- Node3 -->
<g id="node3" class="node"><title>Node3</title>
<g id="a_node3"><a xlink:href="classrml_1_1internal_1_1BlockI.html" target="_top" xlink:title="{rml::internal::BlockI\n|&#45; blockState\l|}">
<polygon fill="white" stroke="black" points="0,-304 0,-361 108,-361 108,-304 0,-304"/>
<text text-anchor="middle" x="54" y="-349" font-family="Helvetica,sans-Serif" font-size="10.00">rml::internal::BlockI</text>
<polyline fill="none" stroke="black" points="0,-342 108,-342 "/>
<text text-anchor="start" x="8" y="-330" font-family="Helvetica,sans-Serif" font-size="10.00">&#45; blockState</text>
<polyline fill="none" stroke="black" points="0,-323 108,-323 "/>
<text text-anchor="middle" x="54" y="-311" font-family="Helvetica,sans-Serif" font-size="10.00"> </text>
</a>
</g>
</g>
<!-- Node3&#45;&gt;Node2 -->
<g id="edge2" class="edge"><title>Node3&#45;&gt;Node2</title>
<path fill="none" stroke="midnightblue" d="M79.1329,-295.021C90.4569,-278.894 104.147,-259.815 117,-243 128.975,-227.334 142.515,-210.55 154.763,-195.69"/>
<polygon fill="none" stroke="midnightblue" points="75.9663,-293.442 73.1057,-303.643 81.7036,-297.452 75.9663,-293.442"/>
</g>
<!-- Node4 -->
<g id="node4" class="node"><title>Node4</title>
<g id="a_node4"><a xlink:href="classrml_1_1internal_1_1BackRefIdx.html" target="_top" xlink:title="{rml::internal::BackRefIdx\n||}">
<polygon fill="white" stroke="black" points="126.5,-304 126.5,-361 257.5,-361 257.5,-304 126.5,-304"/>
<text text-anchor="middle" x="192" y="-349" font-family="Helvetica,sans-Serif" font-size="10.00">rml::internal::BackRefIdx</text>
<polyline fill="none" stroke="black" points="126.5,-342 257.5,-342 "/>
<text text-anchor="middle" x="192" y="-330" font-family="Helvetica,sans-Serif" font-size="10.00"> </text>
<polyline fill="none" stroke="black" points="126.5,-323 257.5,-323 "/>
<text text-anchor="middle" x="192" y="-311" font-family="Helvetica,sans-Serif" font-size="10.00"> </text>
</a>
</g>
</g>
<!-- Node4&#45;&gt;Node2 -->
<g id="edge3" class="edge"><title>Node4&#45;&gt;Node2</title>
<path fill="none" stroke="#404040" d="M192,-303.769C192,-278.348 192,-239.926 192,-208.038"/>
<polygon fill="none" stroke="#404040" points="192,-207.731 188,-201.731 192,-195.731 196,-201.731 192,-207.731"/>
<text text-anchor="middle" x="223" y="-217" font-family="Helvetica,sans-Serif" font-size="10.00"> +backRefIdx</text>
</g>
<!-- Node5 -->
<g id="node5" class="node"><title>Node5</title>
<g id="a_node5"><a xlink:href="classrml_1_1internal_1_1MemoryPool.html" target="_top" xlink:title="{rml::internal::MemoryPool\n|&#45; defaultGranularity\l|+ init()\l+ reset()\l+ destroy()\l+ onThreadShutdown()\l+ getTLS()\l+ clearTLS()\l+ getEmptyBlock()\l+ returnEmptyBlock()\l+ getFromLLOCache()\l+ putToLLOCache()\l+ initDefaultPool()\l&#45; MemoryPool()\l}">
<polygon fill="white" stroke="red" points="276,-243.5 276,-421.5 416,-421.5 416,-243.5 276,-243.5"/>
<text text-anchor="middle" x="346" y="-409.5" font-family="Helvetica,sans-Serif" font-size="10.00">rml::internal::MemoryPool</text>
<polyline fill="none" stroke="red" points="276,-402.5 416,-402.5 "/>
<text text-anchor="start" x="284" y="-390.5" font-family="Helvetica,sans-Serif" font-size="10.00">&#45; defaultGranularity</text>
<polyline fill="none" stroke="red" points="276,-383.5 416,-383.5 "/>
<text text-anchor="start" x="284" y="-371.5" font-family="Helvetica,sans-Serif" font-size="10.00">+ init()</text>
<text text-anchor="start" x="284" y="-360.5" font-family="Helvetica,sans-Serif" font-size="10.00">+ reset()</text>
<text text-anchor="start" x="284" y="-349.5" font-family="Helvetica,sans-Serif" font-size="10.00">+ destroy()</text>
<text text-anchor="start" x="284" y="-338.5" font-family="Helvetica,sans-Serif" font-size="10.00">+ onThreadShutdown()</text>
<text text-anchor="start" x="284" y="-327.5" font-family="Helvetica,sans-Serif" font-size="10.00">+ getTLS()</text>
<text text-anchor="start" x="284" y="-316.5" font-family="Helvetica,sans-Serif" font-size="10.00">+ clearTLS()</text>
<text text-anchor="start" x="284" y="-305.5" font-family="Helvetica,sans-Serif" font-size="10.00">+ getEmptyBlock()</text>
<text text-anchor="start" x="284" y="-294.5" font-family="Helvetica,sans-Serif" font-size="10.00">+ returnEmptyBlock()</text>
<text text-anchor="start" x="284" y="-283.5" font-family="Helvetica,sans-Serif" font-size="10.00">+ getFromLLOCache()</text>
<text text-anchor="start" x="284" y="-272.5" font-family="Helvetica,sans-Serif" font-size="10.00">+ putToLLOCache()</text>
<text text-anchor="start" x="284" y="-261.5" font-family="Helvetica,sans-Serif" font-size="10.00">+ initDefaultPool()</text>
<text text-anchor="start" x="284" y="-250.5" font-family="Helvetica,sans-Serif" font-size="10.00">&#45; MemoryPool()</text>
</a>
</g>
</g>
<!-- Node5&#45;&gt;Node2 -->
<g id="edge4" class="edge"><title>Node5&#45;&gt;Node2</title>
<path fill="none" stroke="#404040" d="M282.484,-243.245C274.487,-233.18 266.222,-223.23 258,-214 255.186,-210.841 252.237,-207.657 249.212,-204.49"/>
<polygon fill="none" stroke="#404040" points="248.937,-204.21 241.881,-202.724 240.538,-195.639 247.595,-197.124 248.937,-204.21"/>
<text text-anchor="middle" x="282" y="-217" font-family="Helvetica,sans-Serif" font-size="10.00"> +pool</text>
</g>
<!-- Node5&#45;&gt;Node5 -->
<g id="edge5" class="edge"><title>Node5&#45;&gt;Node5</title>
<path fill="none" stroke="#404040" d="M416.071,-351.649C426.749,-348.727 434,-342.344 434,-332.5 434,-326.655 431.444,-322.031 427.132,-318.626"/>
<polygon fill="none" stroke="#404040" points="426.902,-318.516 419.765,-319.544 416.071,-313.351 423.208,-312.323 426.902,-318.516"/>
<text text-anchor="middle" x="450.5" y="-335.5" font-family="Helvetica,sans-Serif" font-size="10.00"> +prev</text>
<text text-anchor="middle" x="450.5" y="-324.5" font-family="Helvetica,sans-Serif" font-size="10.00">+next</text>
</g>
</g>
</svg>
