<?xml version="1.0" encoding="UTF-8" standalone="no"?>
<!DOCTYPE svg PUBLIC "-//W3C//DTD SVG 1.1//EN"
 "http://www.w3.org/Graphics/SVG/1.1/DTD/svg11.dtd">
<!-- Generated by graphviz version 2.38.0 (20140413.2041)
 -->
<!-- Title: /home/travis/build/ComPWA/ComPWA/Estimator/MinLogLH/SumMinLogLH.cpp Pages: 1 -->
<!--zoomable 441 -->
<svg id="main" version="1.1" xmlns="http://www.w3.org/2000/svg" xmlns:xlink="http://www.w3.org/1999/xlink" xml:space="preserve" onload="init(evt)">
<style type="text/css"><![CDATA[
.edge:hover path { stroke: red; }
.edge:hover polygon { stroke: red; fill: red; }
]]></style>
<script type="text/javascript"><![CDATA[
var edges = document.getElementsByTagName('g');
if (edges && edges.length) {
  for (var i=0;i<edges.length;i++) {
    if (edges[i].id.substr(0,4)=='edge') {
      edges[i].setAttribute('class','edge');
    }
  }
}
]]></script>
        <defs>
                <circle id="rim" cx="0" cy="0" r="7"/>
                <circle id="rim2" cx="0" cy="0" r="3.5"/>
                <g id="zoomPlus">
                        <use xlink:href="#rim" fill="#404040">
                                <set attributeName="fill" to="#808080" begin="zoomplus.mouseover" end="zoomplus.mouseout"/>
                        </use>
                        <path d="M-4,0h8M0,-4v8" fill="none" stroke="white" stroke-width="1.5" pointer-events="none"/>
                </g>
                <g id="zoomMin">
                        <use xlink:href="#rim" fill="#404040">
                                <set attributeName="fill" to="#808080" begin="zoomminus.mouseover" end="zoomminus.mouseout"/>
                        </use>
                        <path d="M-4,0h8" fill="none" stroke="white" stroke-width="1.5" pointer-events="none"/>
                </g>
                <g id="dirArrow">
                        <path fill="none" stroke="white" stroke-width="1.5" d="M0,-3.0v7 M-2.5,-0.5L0,-3.0L2.5,-0.5"/>
                </g>
               <g id="resetDef">
                       <use xlink:href="#rim2" fill="#404040">
                               <set attributeName="fill" to="#808080" begin="reset.mouseover" end="reset.mouseout"/>
                       </use>
               </g>
        </defs>

<script type="text/javascript">
var viewWidth = 1321;
var viewHeight = 441;
var sectionId = 'dynsection-0';
</script>
<script xlink:href="svgpan.js"/>
<svg id="graph" class="graph">
<g id="viewport">
<title>/home/travis/build/ComPWA/ComPWA/Estimator/MinLogLH/SumMinLogLH.cpp</title>
<polygon fill="white" stroke="none" points="-4,4 -4,-437 1317.04,-437 1317.04,4 -4,4"/>
<!-- Node1 -->
<g id="node1" class="node"><title>Node1</title>
<polygon fill="#bfbfbf" stroke="black" points="198.044,-391.5 198.044,-432.5 356.044,-432.5 356.044,-391.5 198.044,-391.5"/>
<text text-anchor="start" x="206.044" y="-420.5" font-family="Helvetica,sans-Serif" font-size="10.00">/home/travis/build</text>
<text text-anchor="start" x="206.044" y="-409.5" font-family="Helvetica,sans-Serif" font-size="10.00">/ComPWA/ComPWA/Estimator</text>
<text text-anchor="middle" x="277.044" y="-398.5" font-family="Helvetica,sans-Serif" font-size="10.00">/MinLogLH/SumMinLogLH.cpp</text>
</g>
<!-- Node2 -->
<g id="node2" class="node"><title>Node2</title>
<g id="a_node2"><a xlink:href="SumMinLogLH_8hpp.html" target="_top" xlink:title="Estimator/MinLogLH\l/SumMinLogLH.hpp">
<polygon fill="white" stroke="black" points="332.544,-257.5 332.544,-287.5 445.544,-287.5 445.544,-257.5 332.544,-257.5"/>
<text text-anchor="start" x="340.544" y="-275.5" font-family="Helvetica,sans-Serif" font-size="10.00">Estimator/MinLogLH</text>
<text text-anchor="middle" x="389.044" y="-264.5" font-family="Helvetica,sans-Serif" font-size="10.00">/SumMinLogLH.hpp</text>
</a>
</g>
</g>
<!-- Node1&#45;&gt;Node2 -->
<g id="edge1" class="edge"><title>Node1&#45;&gt;Node2</title>
<path fill="none" stroke="midnightblue" d="M293.091,-391.3C313.722,-365.971 349.449,-322.11 371.003,-295.649"/>
<polygon fill="midnightblue" stroke="midnightblue" points="373.864,-297.679 377.466,-287.715 368.436,-293.258 373.864,-297.679"/>
</g>
<!-- Node9 -->
<g id="node9" class="node"><title>Node9</title>
<g id="a_node9"><a xlink:href="ParameterList_8hpp.html" target="_top" xlink:title="ParameterList class. ">
<polygon fill="white" stroke="red" points="769.544,-123.5 769.544,-153.5 924.544,-153.5 924.544,-123.5 769.544,-123.5"/>
<text text-anchor="start" x="777.544" y="-141.5" font-family="Helvetica,sans-Serif" font-size="10.00">Core/FunctionTree/Parameter</text>
<text text-anchor="middle" x="847.044" y="-130.5" font-family="Helvetica,sans-Serif" font-size="10.00">List.hpp</text>
</a>
</g>
</g>
<!-- Node1&#45;&gt;Node9 -->
<g id="edge46" class="edge"><title>Node1&#45;&gt;Node9</title>
<path fill="none" stroke="midnightblue" d="M356.394,-406.812C453.422,-398.073 618.58,-371.116 731.044,-288 774.509,-255.877 769.263,-232.189 803.044,-190 810.724,-180.41 819.559,-170.133 827.288,-161.371"/>
<polygon fill="midnightblue" stroke="midnightblue" points="829.98,-163.611 834.01,-153.813 824.749,-158.959 829.98,-163.611"/>
</g>
<!-- Node14 -->
<g id="node14" class="node"><title>Node14</title>
<g id="a_node14"><a xlink:href="Event_8hpp.html" target="_top" xlink:title="Core/Event.hpp">
<polygon fill="white" stroke="black" points="32.0444,-330 32.0444,-349 122.044,-349 122.044,-330 32.0444,-330"/>
<text text-anchor="middle" x="77.0444" y="-337" font-family="Helvetica,sans-Serif" font-size="10.00">Core/Event.hpp</text>
</a>
</g>
</g>
<!-- Node1&#45;&gt;Node14 -->
<g id="edge22" class="edge"><title>Node1&#45;&gt;Node14</title>
<path fill="none" stroke="midnightblue" d="M221.599,-391.455C186.078,-378.934 141.129,-363.09 110.862,-352.421"/>
<polygon fill="midnightblue" stroke="midnightblue" points="111.79,-349.037 101.195,-349.013 109.462,-355.638 111.79,-349.037"/>
</g>
<!-- Node15 -->
<g id="node15" class="node"><title>Node15</title>
<g id="a_node15"><a xlink:href="Particle_8hpp.html" target="_top" xlink:title="Particle and FourMomentum class. ">
<polygon fill="white" stroke="red" points="28.0444,-263 28.0444,-282 126.044,-282 126.044,-263 28.0444,-263"/>
<text text-anchor="middle" x="77.0444" y="-270" font-family="Helvetica,sans-Serif" font-size="10.00">Core/Particle.hpp</text>
</a>
</g>
</g>
<!-- Node1&#45;&gt;Node15 -->
<g id="edge50" class="edge"><title>Node1&#45;&gt;Node15</title>
<path fill="none" stroke="midnightblue" d="M237.69,-391.328C218.591,-381.248 195.604,-368.31 176.044,-355 145.582,-334.271 113.128,-306.28 93.9908,-289.081"/>
<polygon fill="midnightblue" stroke="midnightblue" points="96.1775,-286.339 86.4191,-282.213 91.4746,-291.524 96.1775,-286.339"/>
</g>
<!-- Node16 -->
<g id="node16" class="node"><title>Node16</title>
<g id="a_node16"><a xlink:href="FitResult_8hpp.html" target="_top" xlink:title="Core/FitResult.hpp">
<polygon fill="white" stroke="black" points="98.0444,-196 98.0444,-215 200.044,-215 200.044,-196 98.0444,-196"/>
<text text-anchor="middle" x="149.044" y="-203" font-family="Helvetica,sans-Serif" font-size="10.00">Core/FitResult.hpp</text>
</a>
</g>
</g>
<!-- Node1&#45;&gt;Node16 -->
<g id="edge26" class="edge"><title>Node1&#45;&gt;Node16</title>
<path fill="none" stroke="midnightblue" d="M250.081,-391.395C237.894,-381.518 224.023,-368.733 214.044,-355 183.533,-313.009 163.247,-254.443 154.29,-224.981"/>
<polygon fill="midnightblue" stroke="midnightblue" points="157.595,-223.815 151.414,-215.21 150.88,-225.791 157.595,-223.815"/>
</g>
<!-- Node18 -->
<g id="node18" class="node"><title>Node18</title>
<g id="a_node18"><a xlink:href="FunctionTree_8hpp.html" target="_top" xlink:title="FunctionTree class. ">
<polygon fill="white" stroke="black" points="990.044,-324.5 990.044,-354.5 1134.04,-354.5 1134.04,-324.5 990.044,-324.5"/>
<text text-anchor="start" x="998.044" y="-342.5" font-family="Helvetica,sans-Serif" font-size="10.00">Core/FunctionTree/Function</text>
<text text-anchor="middle" x="1062.04" y="-331.5" font-family="Helvetica,sans-Serif" font-size="10.00">Tree.hpp</text>
</a>
</g>
</g>
<!-- Node1&#45;&gt;Node18 -->
<g id="edge31" class="edge"><title>Node1&#45;&gt;Node18</title>
<path fill="none" stroke="midnightblue" d="M356.271,-403.885C505.731,-390.462 827.893,-361.529 979.711,-347.894"/>
<polygon fill="midnightblue" stroke="midnightblue" points="980.256,-351.36 989.903,-346.979 979.63,-344.388 980.256,-351.36"/>
</g>
<!-- Node21 -->
<g id="node21" class="node"><title>Node21</title>
<g id="a_node21"><a xlink:href="Kinematics_8hpp.html" target="_top" xlink:title="Core/Kinematics.hpp">
<polygon fill="white" stroke="black" points="332.044,-62 332.044,-81 448.044,-81 448.044,-62 332.044,-62"/>
<text text-anchor="middle" x="390.044" y="-69" font-family="Helvetica,sans-Serif" font-size="10.00">Core/Kinematics.hpp</text>
</a>
</g>
</g>
<!-- Node1&#45;&gt;Node21 -->
<g id="edge47" class="edge"><title>Node1&#45;&gt;Node21</title>
<path fill="none" stroke="midnightblue" d="M270.29,-391.139C254.662,-341.299 221.415,-208.793 277.044,-123 289.666,-103.534 311.74,-91.5055 333.049,-84.1029"/>
<polygon fill="midnightblue" stroke="midnightblue" points="334.28,-87.384 342.749,-81.0171 332.158,-80.7134 334.28,-87.384"/>
</g>
<!-- Node22 -->
<g id="node22" class="node"><title>Node22</title>
<g id="a_node22"><a xlink:href="MinLogLH_8hpp.html" target="_top" xlink:title="Estimator/MinLogLH\l/MinLogLH.hpp">
<polygon fill="white" stroke="black" points="417.544,-324.5 417.544,-354.5 530.544,-354.5 530.544,-324.5 417.544,-324.5"/>
<text text-anchor="start" x="425.544" y="-342.5" font-family="Helvetica,sans-Serif" font-size="10.00">Estimator/MinLogLH</text>
<text text-anchor="middle" x="474.044" y="-331.5" font-family="Helvetica,sans-Serif" font-size="10.00">/MinLogLH.hpp</text>
</a>
</g>
</g>
<!-- Node1&#45;&gt;Node22 -->
<g id="edge51" class="edge"><title>Node1&#45;&gt;Node22</title>
<path fill="none" stroke="midnightblue" d="M331.658,-391.455C360.892,-380.994 396.609,-368.212 424.956,-358.067"/>
<polygon fill="midnightblue" stroke="midnightblue" points="426.417,-361.262 434.653,-354.597 424.059,-354.671 426.417,-361.262"/>
</g>
<!-- Node3 -->
<g id="node3" class="node"><title>Node3</title>
<g id="a_node3"><a xlink:href="FitParameter_8hpp.html" target="_top" xlink:title="Core/FitParameter.hpp">
<polygon fill="white" stroke="red" points="286.544,-129 286.544,-148 409.544,-148 409.544,-129 286.544,-129"/>
<text text-anchor="middle" x="348.044" y="-136" font-family="Helvetica,sans-Serif" font-size="10.00">Core/FitParameter.hpp</text>
</a>
</g>
</g>
<!-- Node2&#45;&gt;Node3 -->
<g id="edge2" class="edge"><title>Node2&#45;&gt;Node3</title>
<path fill="none" stroke="midnightblue" d="M384.657,-257.374C377.176,-233.29 361.963,-184.313 353.697,-157.7"/>
<polygon fill="midnightblue" stroke="midnightblue" points="357.024,-156.609 350.715,-148.097 350.339,-158.685 357.024,-156.609"/>
</g>
<!-- Node7 -->
<g id="node7" class="node"><title>Node7</title>
<g id="a_node7"><a xlink:href="FunctionTreeEstimator_8hpp.html" target="_top" xlink:title="Core/FunctionTree/Function\lTreeEstimator.hpp">
<polygon fill="white" stroke="black" points="455.044,-190.5 455.044,-220.5 599.044,-220.5 599.044,-190.5 455.044,-190.5"/>
<text text-anchor="start" x="463.044" y="-208.5" font-family="Helvetica,sans-Serif" font-size="10.00">Core/FunctionTree/Function</text>
<text text-anchor="middle" x="527.044" y="-197.5" font-family="Helvetica,sans-Serif" font-size="10.00">TreeEstimator.hpp</text>
</a>
</g>
</g>
<!-- Node2&#45;&gt;Node7 -->
<g id="edge8" class="edge"><title>Node2&#45;&gt;Node7</title>
<path fill="none" stroke="midnightblue" d="M418.988,-257.396C439.242,-247.856 466.19,-235.163 488.108,-224.84"/>
<polygon fill="midnightblue" stroke="midnightblue" points="489.604,-228.004 497.159,-220.577 486.621,-221.671 489.604,-228.004"/>
</g>
<!-- Node13 -->
<g id="node13" class="node"><title>Node13</title>
<g id="a_node13"><a xlink:href="Estimator_8hpp.html" target="_top" xlink:title="Estimator/Estimator.hpp">
<polygon fill="white" stroke="black" points="427.544,-129 427.544,-148 560.544,-148 560.544,-129 427.544,-129"/>
<text text-anchor="middle" x="494.044" y="-136" font-family="Helvetica,sans-Serif" font-size="10.00">Estimator/Estimator.hpp</text>
</a>
</g>
</g>
<!-- Node2&#45;&gt;Node13 -->
<g id="edge21" class="edge"><title>Node2&#45;&gt;Node13</title>
<path fill="none" stroke="midnightblue" d="M390.142,-257.458C392.137,-240.046 397.694,-210.199 413.044,-190 425.617,-173.456 445.306,-161.003 462.124,-152.603"/>
<polygon fill="midnightblue" stroke="midnightblue" points="464.067,-155.556 471.619,-148.125 461.081,-149.225 464.067,-155.556"/>
</g>
<!-- Node4 -->
<g id="node4" class="node"><title>Node4</title>
<g id="a_node4"><a xlink:href="Function_8hpp.html" target="_top" xlink:title="Core/Function.hpp">
<polygon fill="white" stroke="black" points="542.544,-62 542.544,-81 645.544,-81 645.544,-62 542.544,-62"/>
<text text-anchor="middle" x="594.044" y="-69" font-family="Helvetica,sans-Serif" font-size="10.00">Core/Function.hpp</text>
</a>
</g>
</g>
<!-- Node3&#45;&gt;Node4 -->
<g id="edge3" class="edge"><title>Node3&#45;&gt;Node4</title>
<path fill="none" stroke="midnightblue" d="M380.458,-128.936C424.429,-117.317 503.059,-96.5409 551.666,-83.6975"/>
<polygon fill="midnightblue" stroke="midnightblue" points="552.785,-87.022 561.559,-81.0834 550.997,-80.2542 552.785,-87.022"/>
</g>
<!-- Node5 -->
<g id="node5" class="node"><title>Node5</title>
<polygon fill="white" stroke="#bfbfbf" points="825.044,-0.5 825.044,-19.5 869.044,-19.5 869.044,-0.5 825.044,-0.5"/>
<text text-anchor="middle" x="847.044" y="-7.5" font-family="Helvetica,sans-Serif" font-size="10.00">string</text>
</g>
<!-- Node3&#45;&gt;Node5 -->
<g id="edge6" class="edge"><title>Node3&#45;&gt;Node5</title>
<path fill="none" stroke="midnightblue" d="M373.641,-128.942C400.406,-119.693 443.396,-103.981 479.044,-87 504.028,-75.0992 506.88,-65.013 533.044,-56 631.814,-21.9766 756.616,-13.6672 814.64,-11.6453"/>
<polygon fill="midnightblue" stroke="midnightblue" points="814.788,-15.1425 824.675,-11.3361 814.572,-8.14581 814.788,-15.1425"/>
</g>
<!-- Node6 -->
<g id="node6" class="node"><title>Node6</title>
<polygon fill="white" stroke="#bfbfbf" points="452.544,-0.5 452.544,-19.5 499.544,-19.5 499.544,-0.5 452.544,-0.5"/>
<text text-anchor="middle" x="476.044" y="-7.5" font-family="Helvetica,sans-Serif" font-size="10.00">vector</text>
</g>
<!-- Node3&#45;&gt;Node6 -->
<g id="edge7" class="edge"><title>Node3&#45;&gt;Node6</title>
<path fill="none" stroke="midnightblue" d="M385.789,-128.942C409.553,-121.65 439.035,-108.778 457.044,-87 470.424,-70.8199 474.577,-46.5171 475.765,-29.7718"/>
<polygon fill="midnightblue" stroke="midnightblue" points="479.27,-29.7164 476.191,-19.579 472.276,-29.4241 479.27,-29.7164"/>
</g>
<!-- Node4&#45;&gt;Node5 -->
<g id="edge4" class="edge"><title>Node4&#45;&gt;Node5</title>
<path fill="none" stroke="midnightblue" d="M630.293,-61.9751C679.707,-50.3541 767.456,-29.7173 814.732,-18.5993"/>
<polygon fill="midnightblue" stroke="midnightblue" points="815.796,-21.9445 824.729,-16.248 814.194,-15.1304 815.796,-21.9445"/>
</g>
<!-- Node4&#45;&gt;Node6 -->
<g id="edge5" class="edge"><title>Node4&#45;&gt;Node6</title>
<path fill="none" stroke="midnightblue" d="M577.138,-61.9751C557.51,-52.078 524.913,-35.6416 502.054,-24.1151"/>
<polygon fill="midnightblue" stroke="midnightblue" points="503.424,-20.8863 492.92,-19.5091 500.273,-27.1367 503.424,-20.8863"/>
</g>
<!-- Node7&#45;&gt;Node3 -->
<g id="edge10" class="edge"><title>Node7&#45;&gt;Node3</title>
<path fill="none" stroke="midnightblue" d="M488.204,-190.396C456.241,-178.789 411.423,-162.515 381.143,-151.519"/>
<polygon fill="midnightblue" stroke="midnightblue" points="382.065,-148.13 371.471,-148.007 379.676,-154.71 382.065,-148.13"/>
</g>
<!-- Node8 -->
<g id="node8" class="node"><title>Node8</title>
<polygon fill="white" stroke="#bfbfbf" points="686.544,-62 686.544,-81 743.544,-81 743.544,-62 686.544,-62"/>
<text text-anchor="middle" x="715.044" y="-69" font-family="Helvetica,sans-Serif" font-size="10.00">memory</text>
</g>
<!-- Node7&#45;&gt;Node8 -->
<g id="edge9" class="edge"><title>Node7&#45;&gt;Node8</title>
<path fill="none" stroke="midnightblue" d="M547.164,-190.374C583.141,-165.113 658.125,-112.464 694.446,-86.9627"/>
<polygon fill="midnightblue" stroke="midnightblue" points="696.627,-89.7081 702.8,-81.0973 692.604,-83.9792 696.627,-89.7081"/>
</g>
<!-- Node7&#45;&gt;Node9 -->
<g id="edge11" class="edge"><title>Node7&#45;&gt;Node9</title>
<path fill="none" stroke="midnightblue" d="M596.086,-190.476C646.574,-180.221 715.156,-166.29 767.867,-155.583"/>
<polygon fill="midnightblue" stroke="midnightblue" points="768.748,-158.975 777.851,-153.555 767.355,-152.116 768.748,-158.975"/>
</g>
<!-- Node7&#45;&gt;Node13 -->
<g id="edge19" class="edge"><title>Node7&#45;&gt;Node13</title>
<path fill="none" stroke="midnightblue" d="M519.884,-190.396C514.942,-180.662 508.334,-167.646 503.038,-157.214"/>
<polygon fill="midnightblue" stroke="midnightblue" points="506.106,-155.527 498.459,-148.195 499.865,-158.696 506.106,-155.527"/>
</g>
<!-- Node9&#45;&gt;Node5 -->
<g id="edge14" class="edge"><title>Node9&#45;&gt;Node5</title>
<path fill="none" stroke="midnightblue" d="M847.044,-123.479C847.044,-100.719 847.044,-55.7023 847.044,-30.0582"/>
<polygon fill="midnightblue" stroke="midnightblue" points="850.544,-29.7885 847.044,-19.7885 843.544,-29.7886 850.544,-29.7885"/>
</g>
<!-- Node9&#45;&gt;Node6 -->
<g id="edge15" class="edge"><title>Node9&#45;&gt;Node6</title>
<path fill="none" stroke="midnightblue" d="M835.17,-123.323C818.621,-104.602 786.723,-72.1291 752.044,-56 670.949,-18.2827 563.646,-11.5461 509.847,-10.7337"/>
<polygon fill="midnightblue" stroke="midnightblue" points="509.855,-7.2337 499.824,-10.6427 509.792,-14.2334 509.855,-7.2337"/>
</g>
<!-- Node9&#45;&gt;Node8 -->
<g id="edge13" class="edge"><title>Node9&#45;&gt;Node8</title>
<path fill="none" stroke="midnightblue" d="M818.402,-123.396C795.549,-112.142 763.785,-96.501 741.521,-85.5375"/>
<polygon fill="midnightblue" stroke="midnightblue" points="742.838,-82.2848 732.32,-81.007 739.745,-88.5647 742.838,-82.2848"/>
</g>
<!-- Node10 -->
<g id="node10" class="node"><title>Node10</title>
<polygon fill="white" stroke="#bfbfbf" points="969.044,-62 969.044,-81 1007.04,-81 1007.04,-62 969.044,-62"/>
<text text-anchor="middle" x="988.044" y="-69" font-family="Helvetica,sans-Serif" font-size="10.00">map</text>
</g>
<!-- Node9&#45;&gt;Node10 -->
<g id="edge12" class="edge"><title>Node9&#45;&gt;Node10</title>
<path fill="none" stroke="midnightblue" d="M877.639,-123.396C902.27,-112.041 936.59,-96.2201 960.4,-85.2437"/>
<polygon fill="midnightblue" stroke="midnightblue" points="961.975,-88.3721 969.591,-81.007 959.044,-82.015 961.975,-88.3721"/>
</g>
<!-- Node11 -->
<g id="node11" class="node"><title>Node11</title>
<polygon fill="white" stroke="#bfbfbf" points="210.044,-56.5 210.044,-86.5 314.044,-86.5 314.044,-56.5 210.044,-56.5"/>
<text text-anchor="start" x="218.044" y="-74.5" font-family="Helvetica,sans-Serif" font-size="10.00">boost/serialization</text>
<text text-anchor="middle" x="262.044" y="-63.5" font-family="Helvetica,sans-Serif" font-size="10.00">/vector.hpp</text>
</g>
<!-- Node9&#45;&gt;Node11 -->
<g id="edge16" class="edge"><title>Node9&#45;&gt;Node11</title>
<path fill="none" stroke="midnightblue" d="M769.369,-133.356C668.789,-127.244 487.974,-113.722 324.44,-87.0837"/>
<polygon fill="midnightblue" stroke="midnightblue" points="324.628,-83.5675 314.192,-85.3932 323.489,-90.4741 324.628,-83.5675"/>
</g>
<!-- Node12 -->
<g id="node12" class="node"><title>Node12</title>
<g id="a_node12"><a xlink:href="FunctionTree_2FitParameter_8hpp.html" target="_top" xlink:title="Implementations of Parameter for various data types. ">
<polygon fill="white" stroke="red" points="1062.54,-62 1062.54,-81 1247.54,-81 1247.54,-62 1062.54,-62"/>
<text text-anchor="middle" x="1155.04" y="-69" font-family="Helvetica,sans-Serif" font-size="10.00">Core/FunctionTree/FitParameter.hpp</text>
</a>
</g>
</g>
<!-- Node9&#45;&gt;Node12 -->
<g id="edge17" class="edge"><title>Node9&#45;&gt;Node12</title>
<path fill="none" stroke="midnightblue" d="M913.497,-123.476C970.86,-111.37 1052.49,-94.1427 1104.62,-83.1424"/>
<polygon fill="midnightblue" stroke="midnightblue" points="1105.57,-86.5182 1114.63,-81.0287 1104.12,-79.6691 1105.57,-86.5182"/>
</g>
<!-- Node12&#45;&gt;Node5 -->
<g id="edge18" class="edge"><title>Node12&#45;&gt;Node5</title>
<path fill="none" stroke="midnightblue" d="M1110.92,-61.9751C1048.1,-49.8396 934.383,-27.8723 879.035,-17.1801"/>
<polygon fill="midnightblue" stroke="midnightblue" points="879.573,-13.7193 869.091,-15.2589 878.245,-20.5922 879.573,-13.7193"/>
</g>
<!-- Node13&#45;&gt;Node4 -->
<g id="edge20" class="edge"><title>Node13&#45;&gt;Node4</title>
<path fill="none" stroke="midnightblue" d="M507.531,-128.734C524.099,-117.964 552.429,-99.55 572.138,-86.7395"/>
<polygon fill="midnightblue" stroke="midnightblue" points="574.295,-89.5118 580.772,-81.1273 570.48,-83.6427 574.295,-89.5118"/>
</g>
<!-- Node14&#45;&gt;Node6 -->
<g id="edge25" class="edge"><title>Node14&#45;&gt;Node6</title>
<path fill="none" stroke="midnightblue" d="M62.8349,-329.911C49.4655,-321.075 29.9214,-306.075 19.0444,-288 -0.133156,-256.132 0.0443854,-243.694 0.0443854,-206.5 0.0443854,-206.5 0.0443854,-206.5 0.0443854,-137.5 0.0443854,-77.3664 52.2916,-78.5318 108.044,-56 168.388,-31.613 363.053,-17.6731 442.155,-12.8937"/>
<polygon fill="midnightblue" stroke="midnightblue" points="442.748,-16.3649 452.524,-12.28 442.334,-9.37708 442.748,-16.3649"/>
</g>
<!-- Node14&#45;&gt;Node15 -->
<g id="edge23" class="edge"><title>Node14&#45;&gt;Node15</title>
<path fill="none" stroke="midnightblue" d="M77.0444,-329.734C77.0444,-320.183 77.0444,-304.618 77.0444,-292.283"/>
<polygon fill="midnightblue" stroke="midnightblue" points="80.5445,-292.127 77.0444,-282.127 73.5445,-292.127 80.5445,-292.127"/>
</g>
<!-- Node15&#45;&gt;Node6 -->
<g id="edge24" class="edge"><title>Node15&#45;&gt;Node6</title>
<path fill="none" stroke="midnightblue" d="M75.293,-262.839C70.9228,-238.966 61.5639,-170.822 86.0444,-123 107.49,-81.1072 124.978,-74.9783 168.044,-56 261.152,-14.97 383.907,-9.95149 442.336,-10.1675"/>
<polygon fill="midnightblue" stroke="midnightblue" points="442.443,-13.6685 452.475,-10.2612 442.508,-6.66883 442.443,-13.6685"/>
</g>
<!-- Node16&#45;&gt;Node3 -->
<g id="edge27" class="edge"><title>Node16&#45;&gt;Node3</title>
<path fill="none" stroke="midnightblue" d="M175.47,-195.869C210.581,-184.4 272.747,-164.094 312.101,-151.24"/>
<polygon fill="midnightblue" stroke="midnightblue" points="313.407,-154.496 321.826,-148.064 311.234,-147.842 313.407,-154.496"/>
</g>
<!-- Node16&#45;&gt;Node4 -->
<g id="edge28" class="edge"><title>Node16&#45;&gt;Node4</title>
<path fill="none" stroke="midnightblue" d="M159.202,-195.926C179.886,-178.969 229.011,-141.216 277.044,-123 322.549,-105.743 453.518,-88.5268 532.152,-79.3286"/>
<polygon fill="midnightblue" stroke="midnightblue" points="532.885,-82.7672 542.415,-78.1388 532.078,-75.8138 532.885,-82.7672"/>
</g>
<!-- Node16&#45;&gt;Node11 -->
<g id="edge29" class="edge"><title>Node16&#45;&gt;Node11</title>
<path fill="none" stroke="midnightblue" d="M135.955,-195.968C114.469,-180.905 75.9234,-148.758 95.0444,-123 118.973,-90.7651 162.888,-78.372 199.68,-73.9156"/>
<polygon fill="midnightblue" stroke="midnightblue" points="200.262,-77.3741 209.846,-72.8592 199.538,-70.4116 200.262,-77.3741"/>
</g>
<!-- Node17 -->
<g id="node17" class="node"><title>Node17</title>
<polygon fill="white" stroke="#bfbfbf" points="104.044,-129 104.044,-148 154.044,-148 154.044,-129 104.044,-129"/>
<text text-anchor="middle" x="129.044" y="-136" font-family="Helvetica,sans-Serif" font-size="10.00">chrono</text>
</g>
<!-- Node16&#45;&gt;Node17 -->
<g id="edge30" class="edge"><title>Node16&#45;&gt;Node17</title>
<path fill="none" stroke="midnightblue" d="M146.347,-195.734C143.378,-186.085 138.521,-170.3 134.708,-157.906"/>
<polygon fill="midnightblue" stroke="midnightblue" points="137.985,-156.656 131.699,-148.127 131.295,-158.714 137.985,-156.656"/>
</g>
<!-- Node18&#45;&gt;Node5 -->
<g id="edge34" class="edge"><title>Node18&#45;&gt;Node5</title>
<path fill="none" stroke="midnightblue" d="M1134.31,-331.17C1208.46,-319.185 1313.04,-287.861 1313.04,-206.5 1313.04,-206.5 1313.04,-206.5 1313.04,-137.5 1313.04,-98.2521 1310.53,-79.4286 1279.04,-56 1247.11,-32.243 974.058,-17.0659 879.285,-12.4741"/>
<polygon fill="midnightblue" stroke="midnightblue" points="879.302,-8.97098 869.146,-11.9905 878.968,-15.963 879.302,-8.97098"/>
</g>
<!-- Node18&#45;&gt;Node6 -->
<g id="edge35" class="edge"><title>Node18&#45;&gt;Node6</title>
<path fill="none" stroke="midnightblue" d="M989.912,-332.075C931.241,-325.177 855.149,-311.845 836.044,-288 782.855,-221.613 978.781,-194.725 933.044,-123 886.848,-50.5542 607.986,-21.5431 510.031,-13.502"/>
<polygon fill="midnightblue" stroke="midnightblue" points="510.046,-9.99212 499.799,-12.6849 509.489,-16.9699 510.046,-9.99212"/>
</g>
<!-- Node18&#45;&gt;Node8 -->
<g id="edge33" class="edge"><title>Node18&#45;&gt;Node8</title>
<path fill="none" stroke="midnightblue" d="M1085.66,-324.424C1127.25,-297.87 1205.83,-238.677 1169.04,-190 1118.38,-122.95 854.185,-87.6288 753.8,-76.4667"/>
<polygon fill="midnightblue" stroke="midnightblue" points="754.095,-72.9783 743.774,-75.3721 753.335,-79.9369 754.095,-72.9783"/>
</g>
<!-- Node18&#45;&gt;Node10 -->
<g id="edge32" class="edge"><title>Node18&#45;&gt;Node10</title>
<path fill="none" stroke="midnightblue" d="M1057.53,-324.213C1051.66,-307.081 1040.21,-278.047 1024.04,-257 1008.86,-237.234 991.591,-243.583 981.044,-221 960.903,-177.868 973.417,-119.805 981.987,-90.7137"/>
<polygon fill="midnightblue" stroke="midnightblue" points="985.358,-91.663 985.003,-81.0741 978.677,-89.5732 985.358,-91.663"/>
</g>
<!-- Node18&#45;&gt;Node12 -->
<g id="edge36" class="edge"><title>Node18&#45;&gt;Node12</title>
<path fill="none" stroke="midnightblue" d="M1134.07,-329.79C1159.85,-322.805 1186.38,-310.307 1202.04,-288 1246.07,-225.314 1192.59,-129.005 1167.11,-89.9002"/>
<polygon fill="midnightblue" stroke="midnightblue" points="1169.78,-87.6052 1161.31,-81.246 1163.97,-91.5018 1169.78,-87.6052"/>
</g>
<!-- Node19 -->
<g id="node19" class="node"><title>Node19</title>
<g id="a_node19"><a xlink:href="Functions_8hpp.html" target="_top" xlink:title="This file contains Functions implementing the Strategy interface so they can be used inside a node of...">
<polygon fill="white" stroke="red" points="990.044,-196 990.044,-215 1160.04,-215 1160.04,-196 990.044,-196"/>
<text text-anchor="middle" x="1075.04" y="-203" font-family="Helvetica,sans-Serif" font-size="10.00">Core/FunctionTree/Functions.hpp</text>
</a>
</g>
</g>
<!-- Node18&#45;&gt;Node19 -->
<g id="edge37" class="edge"><title>Node18&#45;&gt;Node19</title>
<path fill="none" stroke="midnightblue" d="M1063.44,-324.374C1065.8,-300.397 1070.59,-251.748 1073.22,-225.056"/>
<polygon fill="midnightblue" stroke="midnightblue" points="1076.7,-225.392 1074.2,-215.097 1069.73,-224.706 1076.7,-225.392"/>
</g>
<!-- Node20 -->
<g id="node20" class="node"><title>Node20</title>
<g id="a_node20"><a xlink:href="TreeNode_8hpp.html" target="_top" xlink:title="TreeNode class. ">
<polygon fill="white" stroke="red" points="845.044,-263 845.044,-282 1015.04,-282 1015.04,-263 845.044,-263"/>
<text text-anchor="middle" x="930.044" y="-270" font-family="Helvetica,sans-Serif" font-size="10.00">Core/FunctionTree/TreeNode.hpp</text>
</a>
</g>
</g>
<!-- Node18&#45;&gt;Node20 -->
<g id="edge41" class="edge"><title>Node18&#45;&gt;Node20</title>
<path fill="none" stroke="midnightblue" d="M1033.4,-324.396C1010.55,-313.142 978.785,-297.501 956.521,-286.538"/>
<polygon fill="midnightblue" stroke="midnightblue" points="957.838,-283.285 947.32,-282.007 954.745,-289.565 957.838,-283.285"/>
</g>
<!-- Node19&#45;&gt;Node6 -->
<g id="edge38" class="edge"><title>Node19&#45;&gt;Node6</title>
<path fill="none" stroke="midnightblue" d="M1074.6,-195.951C1072.75,-169.879 1063.29,-91.0221 1016.04,-56 975.41,-25.88 621.945,-14.6083 509.937,-11.7735"/>
<polygon fill="midnightblue" stroke="midnightblue" points="509.953,-8.27293 499.87,-11.5252 509.781,-15.2708 509.953,-8.27293"/>
</g>
<!-- Node19&#45;&gt;Node9 -->
<g id="edge40" class="edge"><title>Node19&#45;&gt;Node9</title>
<path fill="none" stroke="midnightblue" d="M1044.77,-195.869C1009.52,-185.819 950.469,-168.985 906.059,-156.324"/>
<polygon fill="midnightblue" stroke="midnightblue" points="906.827,-152.904 896.251,-153.528 904.908,-159.636 906.827,-152.904"/>
</g>
<!-- Node19&#45;&gt;Node12 -->
<g id="edge39" class="edge"><title>Node19&#45;&gt;Node12</title>
<path fill="none" stroke="midnightblue" d="M1080.29,-195.839C1093.29,-174.393 1127.17,-118.489 1144.5,-89.8952"/>
<polygon fill="midnightblue" stroke="midnightblue" points="1147.69,-91.3872 1149.88,-81.0212 1141.7,-87.7591 1147.69,-91.3872"/>
</g>
<!-- Node20&#45;&gt;Node5 -->
<g id="edge43" class="edge"><title>Node20&#45;&gt;Node5</title>
<path fill="none" stroke="midnightblue" d="M1015.13,-269.378C1063.84,-264.494 1124.03,-251.902 1169.04,-221 1237.39,-174.081 1311.37,-117.744 1256.04,-56 1231,-28.0447 971.389,-15.66 879.257,-12.1221"/>
<polygon fill="midnightblue" stroke="midnightblue" points="879.249,-8.6195 869.126,-11.7431 878.988,-15.6146 879.249,-8.6195"/>
</g>
<!-- Node20&#45;&gt;Node8 -->
<g id="edge42" class="edge"><title>Node20&#45;&gt;Node8</title>
<path fill="none" stroke="midnightblue" d="M912.664,-262.985C879.529,-246.06 806.491,-205.355 760.044,-154 742.896,-135.039 729.759,-108.396 722.224,-90.802"/>
<polygon fill="midnightblue" stroke="midnightblue" points="725.304,-89.0888 718.269,-81.1662 718.828,-91.7463 725.304,-89.0888"/>
</g>
<!-- Node20&#45;&gt;Node9 -->
<g id="edge45" class="edge"><title>Node20&#45;&gt;Node9</title>
<path fill="none" stroke="midnightblue" d="M924.599,-262.839C911.917,-242.671 880.076,-192.032 861.372,-162.287"/>
<polygon fill="midnightblue" stroke="midnightblue" points="864.311,-160.386 856.025,-153.783 858.386,-164.112 864.311,-160.386"/>
</g>
<!-- Node20&#45;&gt;Node19 -->
<g id="edge44" class="edge"><title>Node20&#45;&gt;Node19</title>
<path fill="none" stroke="midnightblue" d="M949.299,-262.869C974.216,-251.699 1017.83,-232.147 1046.58,-219.26"/>
<polygon fill="midnightblue" stroke="midnightblue" points="1048.02,-222.452 1055.71,-215.167 1045.15,-216.064 1048.02,-222.452"/>
</g>
<!-- Node21&#45;&gt;Node5 -->
<g id="edge48" class="edge"><title>Node21&#45;&gt;Node5</title>
<path fill="none" stroke="midnightblue" d="M448.271,-62.8015C464.986,-60.5978 483.237,-58.1976 500.044,-56 615.679,-40.8807 753.02,-23.1317 814.485,-15.1993"/>
<polygon fill="midnightblue" stroke="midnightblue" points="815.245,-18.6303 824.715,-13.8793 814.349,-11.6879 815.245,-18.6303"/>
</g>
<!-- Node21&#45;&gt;Node6 -->
<g id="edge49" class="edge"><title>Node21&#45;&gt;Node6</title>
<path fill="none" stroke="midnightblue" d="M402.366,-61.9751C416.16,-52.4315 438.743,-36.8073 455.277,-25.3683"/>
<polygon fill="midnightblue" stroke="midnightblue" points="457.513,-28.077 463.746,-19.5091 453.53,-22.3205 457.513,-28.077"/>
</g>
<!-- Node22&#45;&gt;Node3 -->
<g id="edge54" class="edge"><title>Node22&#45;&gt;Node3</title>
<path fill="none" stroke="midnightblue" d="M417.466,-335.334C384.144,-330.207 344.445,-317.723 323.044,-288 294.36,-248.161 321.205,-186.871 337.552,-157.032"/>
<polygon fill="midnightblue" stroke="midnightblue" points="340.678,-158.614 342.597,-148.194 334.599,-155.143 340.678,-158.614"/>
</g>
<!-- Node22&#45;&gt;Node6 -->
<g id="edge53" class="edge"><title>Node22&#45;&gt;Node6</title>
<path fill="none" stroke="midnightblue" d="M417.332,-332.358C382.58,-326.091 338.983,-313.455 308.044,-288 264.202,-251.928 164.283,-99.266 201.044,-56 231.607,-20.0292 375.36,-12.7498 441.986,-11.3216"/>
<polygon fill="midnightblue" stroke="midnightblue" points="442.428,-14.8143 452.363,-11.1336 442.302,-7.81545 442.428,-14.8143"/>
</g>
<!-- Node22&#45;&gt;Node7 -->
<g id="edge55" class="edge"><title>Node22&#45;&gt;Node7</title>
<path fill="none" stroke="midnightblue" d="M479.716,-324.374C488.762,-301.845 506.553,-257.534 517.56,-230.122"/>
<polygon fill="midnightblue" stroke="midnightblue" points="520.935,-231.109 521.413,-220.525 514.439,-228.501 520.935,-231.109"/>
</g>
<!-- Node22&#45;&gt;Node8 -->
<g id="edge52" class="edge"><title>Node22&#45;&gt;Node8</title>
<path fill="none" stroke="midnightblue" d="M530.61,-334.149C592.45,-328.097 685.745,-314.725 708.044,-288 755.934,-230.605 733.371,-131.626 721.128,-90.861"/>
<polygon fill="midnightblue" stroke="midnightblue" points="724.426,-89.6801 718.083,-81.1934 717.749,-91.783 724.426,-89.6801"/>
</g>
<!-- Node22&#45;&gt;Node13 -->
<g id="edge61" class="edge"><title>Node22&#45;&gt;Node13</title>
<path fill="none" stroke="midnightblue" d="M470.589,-324.389C463.235,-294.308 446.653,-226.181 446.044,-221 444.437,-207.316 440.934,-202.795 446.044,-190 451.638,-175.996 463.168,-163.654 473.525,-154.678"/>
<polygon fill="midnightblue" stroke="midnightblue" points="475.897,-157.26 481.444,-148.233 471.479,-151.831 475.897,-157.26"/>
</g>
<!-- Node23 -->
<g id="node23" class="node"><title>Node23</title>
<g id="a_node23"><a xlink:href="FunctionTreeIntensity_8hpp.html" target="_top" xlink:title="Core/FunctionTree/Function\lTreeIntensity.hpp">
<polygon fill="white" stroke="black" points="555.044,-257.5 555.044,-287.5 699.044,-287.5 699.044,-257.5 555.044,-257.5"/>
<text text-anchor="start" x="563.044" y="-275.5" font-family="Helvetica,sans-Serif" font-size="10.00">Core/FunctionTree/Function</text>
<text text-anchor="middle" x="627.044" y="-264.5" font-family="Helvetica,sans-Serif" font-size="10.00">TreeIntensity.hpp</text>
</a>
</g>
</g>
<!-- Node22&#45;&gt;Node23 -->
<g id="edge56" class="edge"><title>Node22&#45;&gt;Node23</title>
<path fill="none" stroke="midnightblue" d="M507.243,-324.396C529.899,-314.771 560.11,-301.936 584.525,-291.564"/>
<polygon fill="midnightblue" stroke="midnightblue" points="586.075,-294.708 593.91,-287.577 583.338,-288.265 586.075,-294.708"/>
</g>
<!-- Node23&#45;&gt;Node4 -->
<g id="edge58" class="edge"><title>Node23&#45;&gt;Node4</title>
<path fill="none" stroke="midnightblue" d="M624.671,-257.188C618.821,-221.91 603.709,-130.782 597.154,-91.2535"/>
<polygon fill="midnightblue" stroke="midnightblue" points="600.603,-90.6528 595.514,-81.3601 593.697,-91.798 600.603,-90.6528"/>
</g>
<!-- Node23&#45;&gt;Node7 -->
<g id="edge60" class="edge"><title>Node23&#45;&gt;Node7</title>
<path fill="none" stroke="midnightblue" d="M605.346,-257.396C591.324,-248.282 572.875,-236.29 557.407,-226.236"/>
<polygon fill="midnightblue" stroke="midnightblue" points="558.992,-223.092 548.701,-220.577 555.178,-228.961 558.992,-223.092"/>
</g>
<!-- Node23&#45;&gt;Node8 -->
<g id="edge57" class="edge"><title>Node23&#45;&gt;Node8</title>
<path fill="none" stroke="midnightblue" d="M632.489,-257.416C642.855,-230.849 666.416,-171.635 689.044,-123 694.17,-111.985 700.384,-99.8754 705.451,-90.2765"/>
<polygon fill="midnightblue" stroke="midnightblue" points="708.604,-91.8033 710.224,-81.3331 702.428,-88.5077 708.604,-91.8033"/>
</g>
<!-- Node23&#45;&gt;Node9 -->
<g id="edge59" class="edge"><title>Node23&#45;&gt;Node9</title>
<path fill="none" stroke="midnightblue" d="M650.588,-257.374C690.203,-233.605 770.231,-185.588 814.954,-158.754"/>
<polygon fill="midnightblue" stroke="midnightblue" points="816.896,-161.671 823.67,-153.525 813.294,-155.669 816.896,-161.671"/>
</g>
</g>
</svg>
        <g id="navigator" transform="translate(0 0)" fill="#404254">
                <rect fill="#f2f5e9" fill-opacity="0.5" stroke="#606060" stroke-width=".5" x="0" y="0" width="60" height="60"/>
                <use id="zoomplus" xlink:href="#zoomPlus" x="17" y="9" onmousedown="handleZoom(evt,'in')"/>
                <use id="zoomminus" xlink:href="#zoomMin" x="42" y="9" onmousedown="handleZoom(evt,'out')"/>
                <use id="reset" xlink:href="#resetDef" x="30" y="36" onmousedown="handleReset()"/>
                <g id="arrowUp" xlink:href="#dirArrow" transform="translate(30 24)" onmousedown="handlePan(0,-1)">
                  <use xlink:href="#rim" fill="#404040">
                        <set attributeName="fill" to="#808080" begin="arrowUp.mouseover" end="arrowUp.mouseout"/>
                  </use>
                  <path fill="none" stroke="white" stroke-width="1.5" d="M0,-3.0v7 M-2.5,-0.5L0,-3.0L2.5,-0.5"/>
                </g>
                <g id="arrowRight" xlink:href="#dirArrow" transform="rotate(90) translate(36 -43)" onmousedown="handlePan(1,0)">
                  <use xlink:href="#rim" fill="#404040">
                        <set attributeName="fill" to="#808080" begin="arrowRight.mouseover" end="arrowRight.mouseout"/>
                  </use>
                  <path fill="none" stroke="white" stroke-width="1.5" d="M0,-3.0v7 M-2.5,-0.5L0,-3.0L2.5,-0.5"/>
                </g>
                <g id="arrowDown" xlink:href="#dirArrow" transform="rotate(180) translate(-30 -48)" onmousedown="handlePan(0,1)">
                  <use xlink:href="#rim" fill="#404040">
                        <set attributeName="fill" to="#808080" begin="arrowDown.mouseover" end="arrowDown.mouseout"/>
                  </use>
                  <path fill="none" stroke="white" stroke-width="1.5" d="M0,-3.0v7 M-2.5,-0.5L0,-3.0L2.5,-0.5"/>
                </g>
                <g id="arrowLeft" xlink:href="#dirArrow" transform="rotate(270) translate(-36 17)" onmousedown="handlePan(-1,0)">
                  <use xlink:href="#rim" fill="#404040">
                        <set attributeName="fill" to="#808080" begin="arrowLeft.mouseover" end="arrowLeft.mouseout"/>
                  </use>
                  <path fill="none" stroke="white" stroke-width="1.5" d="M0,-3.0v7 M-2.5,-0.5L0,-3.0L2.5,-0.5"/>
                </g>
        </g>
        <svg viewBox="0 0 15 15" width="100%" height="30px" preserveAspectRatio="xMaxYMin meet">
         <g id="arrow_out" transform="scale(0.3 0.3)">
          <a xlink:href="SumMinLogLH_8cpp__incl_org.svg" target="_base">
           <rect id="button" ry="5" rx="5" y="6" x="6" height="38" width="38"
                fill="#f2f5e9" fill-opacity="0.5" stroke="#606060" stroke-width="1.0"/>
           <path id="arrow"
             d="M 11.500037,31.436501 C 11.940474,20.09759 22.043105,11.32322 32.158766,21.979434 L 37.068811,17.246167 C 37.068811,17.246167 37.088388,32 37.088388,32 L 22.160133,31.978069 C 22.160133,31.978069 26.997745,27.140456 26.997745,27.140456 C 18.528582,18.264221 13.291696,25.230495 11.500037,31.436501 z"
             style="fill:#404040;"/>
          </a>
         </g>
        </svg>
</svg>
