<?xml version="1.0" encoding="UTF-8" standalone="no"?>
<!DOCTYPE svg PUBLIC "-//W3C//DTD SVG 1.1//EN"
 "http://www.w3.org/Graphics/SVG/1.1/DTD/svg11.dtd">
<!-- Generated by graphviz version 2.38.0 (20140413.2041)
 -->
<!-- Title: /home/travis/build/ComPWA/ComPWA/ThirdParty/tbb/src/tbbmalloc/Synchronize.h Pages: 1 -->
<svg width="194pt" height="206pt"
 viewBox="0.00 0.00 194.00 206.00" xmlns="http://www.w3.org/2000/svg" xmlns:xlink="http://www.w3.org/1999/xlink">
<g id="graph0" class="graph" transform="scale(1 1) rotate(0) translate(4 202)">
<title>/home/travis/build/ComPWA/ComPWA/ThirdParty/tbb/src/tbbmalloc/Synchronize.h</title>
<polygon fill="white" stroke="none" points="-4,4 -4,-202 190,-202 190,4 -4,4"/>
<!-- Node1 -->
<g id="node1" class="node"><title>Node1</title>
<polygon fill="#bfbfbf" stroke="black" points="6.5,-156.5 6.5,-197.5 179.5,-197.5 179.5,-156.5 6.5,-156.5"/>
<text text-anchor="start" x="14.5" y="-185.5" font-family="Helvetica,sans-Serif" font-size="10.00">/home/travis/build</text>
<text text-anchor="start" x="14.5" y="-174.5" font-family="Helvetica,sans-Serif" font-size="10.00">/ComPWA/ComPWA/ThirdParty</text>
<text text-anchor="middle" x="93" y="-163.5" font-family="Helvetica,sans-Serif" font-size="10.00">/tbb/src/tbbmalloc/Synchronize.h</text>
</g>
<!-- Node2 -->
<g id="node2" class="node"><title>Node2</title>
<g id="a_node2"><a xlink:href="Customize_8h.html" target="_top" xlink:title="/home/travis/build\l/ComPWA/ComPWA/ThirdParty\l/tbb/src/tbbmalloc/Customize.h">
<polygon fill="white" stroke="black" points="10,-78.5 10,-119.5 176,-119.5 176,-78.5 10,-78.5"/>
<text text-anchor="start" x="18" y="-107.5" font-family="Helvetica,sans-Serif" font-size="10.00">/home/travis/build</text>
<text text-anchor="start" x="18" y="-96.5" font-family="Helvetica,sans-Serif" font-size="10.00">/ComPWA/ComPWA/ThirdParty</text>
<text text-anchor="middle" x="93" y="-85.5" font-family="Helvetica,sans-Serif" font-size="10.00">/tbb/src/tbbmalloc/Customize.h</text>
</a>
</g>
</g>
<!-- Node1&#45;&gt;Node2 -->
<g id="edge1" class="edge"><title>Node1&#45;&gt;Node2</title>
<path fill="none" stroke="midnightblue" d="M93,-146.297C93,-137.301 93,-127.653 93,-119.506"/>
<polygon fill="midnightblue" stroke="midnightblue" points="89.5001,-146.428 93,-156.428 96.5001,-146.428 89.5001,-146.428"/>
</g>
<!-- Node3 -->
<g id="node3" class="node"><title>Node3</title>
<g id="a_node3"><a xlink:href="TypeDefinitions_8h.html" target="_top" xlink:title="/home/travis/build\l/ComPWA/ComPWA/ThirdParty\l/tbb/src/tbbmalloc/TypeDefinitions.h">
<polygon fill="white" stroke="red" points="-1.42109e-14,-0.5 -1.42109e-14,-41.5 186,-41.5 186,-0.5 -1.42109e-14,-0.5"/>
<text text-anchor="start" x="8" y="-29.5" font-family="Helvetica,sans-Serif" font-size="10.00">/home/travis/build</text>
<text text-anchor="start" x="8" y="-18.5" font-family="Helvetica,sans-Serif" font-size="10.00">/ComPWA/ComPWA/ThirdParty</text>
<text text-anchor="middle" x="93" y="-7.5" font-family="Helvetica,sans-Serif" font-size="10.00">/tbb/src/tbbmalloc/TypeDefinitions.h</text>
</a>
</g>
</g>
<!-- Node2&#45;&gt;Node3 -->
<g id="edge2" class="edge"><title>Node2&#45;&gt;Node3</title>
<path fill="none" stroke="midnightblue" d="M93,-68.2965C93,-59.3009 93,-49.6532 93,-41.5056"/>
<polygon fill="midnightblue" stroke="midnightblue" points="89.5001,-68.4281 93,-78.4281 96.5001,-68.4281 89.5001,-68.4281"/>
</g>
</g>
</svg>
