<?xml version="1.0" encoding="UTF-8" standalone="no"?>
<!DOCTYPE svg PUBLIC "-//W3C//DTD SVG 1.1//EN"
 "http://www.w3.org/Graphics/SVG/1.1/DTD/svg11.dtd">
<!-- Generated by graphviz version 2.38.0 (20140413.2041)
 -->
<!-- Title: /home/travis/build/ComPWA/ComPWA/ThirdParty/tbb/examples/parallel_for/tachyon/src/tachyon_video.cpp Pages: 1 -->
<svg width="646pt" height="240pt"
 viewBox="0.00 0.00 646.00 240.00" xmlns="http://www.w3.org/2000/svg" xmlns:xlink="http://www.w3.org/1999/xlink">
<g id="graph0" class="graph" transform="scale(1 1) rotate(0) translate(4 236)">
<title>/home/travis/build/ComPWA/ComPWA/ThirdParty/tbb/examples/parallel_for/tachyon/src/tachyon_video.cpp</title>
<polygon fill="white" stroke="none" points="-4,4 -4,-236 642,-236 642,4 -4,4"/>
<!-- Node1 -->
<g id="node1" class="node"><title>Node1</title>
<polygon fill="#bfbfbf" stroke="black" points="321.5,-179.5 321.5,-231.5 488.5,-231.5 488.5,-179.5 321.5,-179.5"/>
<text text-anchor="start" x="329.5" y="-219.5" font-family="Helvetica,sans-Serif" font-size="10.00">/home/travis/build</text>
<text text-anchor="start" x="329.5" y="-208.5" font-family="Helvetica,sans-Serif" font-size="10.00">/ComPWA/ComPWA/ThirdParty</text>
<text text-anchor="start" x="329.5" y="-197.5" font-family="Helvetica,sans-Serif" font-size="10.00">/tbb/examples/parallel_for</text>
<text text-anchor="middle" x="405" y="-186.5" font-family="Helvetica,sans-Serif" font-size="10.00">/tachyon/src/tachyon_video.cpp</text>
</g>
<!-- Node2 -->
<g id="node2" class="node"><title>Node2</title>
<polygon fill="white" stroke="#bfbfbf" points="163.5,-0.5 163.5,-19.5 212.5,-19.5 212.5,-0.5 163.5,-0.5"/>
<text text-anchor="middle" x="188" y="-7.5" font-family="Helvetica,sans-Serif" font-size="10.00">stdio.h</text>
</g>
<!-- Node1&#45;&gt;Node2 -->
<g id="edge1" class="edge"><title>Node1&#45;&gt;Node2</title>
<path fill="none" stroke="midnightblue" d="M321.45,-180.293C295.49,-170.789 267.532,-158.405 244,-143 214.813,-123.892 202.417,-119.202 189,-87 181.404,-68.769 182.348,-45.8772 184.443,-30.0063"/>
<polygon fill="midnightblue" stroke="midnightblue" points="187.943,-30.285 186.066,-19.8577 181.031,-29.1795 187.943,-30.285"/>
</g>
<!-- Node3 -->
<g id="node3" class="node"><title>Node3</title>
<polygon fill="white" stroke="#bfbfbf" points="406.5,-123.5 406.5,-142.5 457.5,-142.5 457.5,-123.5 406.5,-123.5"/>
<text text-anchor="middle" x="432" y="-130.5" font-family="Helvetica,sans-Serif" font-size="10.00">stdlib.h</text>
</g>
<!-- Node1&#45;&gt;Node3 -->
<g id="edge2" class="edge"><title>Node1&#45;&gt;Node3</title>
<path fill="none" stroke="midnightblue" d="M414.595,-179.446C418.048,-170.43 421.874,-160.44 425.058,-152.127"/>
<polygon fill="midnightblue" stroke="midnightblue" points="428.362,-153.286 428.67,-142.695 421.825,-150.782 428.362,-153.286"/>
</g>
<!-- Node4 -->
<g id="node4" class="node"><title>Node4</title>
<polygon fill="white" stroke="#bfbfbf" points="320.5,-0.5 320.5,-19.5 373.5,-19.5 373.5,-0.5 320.5,-0.5"/>
<text text-anchor="middle" x="347" y="-7.5" font-family="Helvetica,sans-Serif" font-size="10.00">string.h</text>
</g>
<!-- Node1&#45;&gt;Node4 -->
<g id="edge3" class="edge"><title>Node1&#45;&gt;Node4</title>
<path fill="none" stroke="midnightblue" d="M397.418,-179.203C385.559,-139.64 362.904,-64.0589 352.487,-29.3072"/>
<polygon fill="midnightblue" stroke="midnightblue" points="355.789,-28.1303 349.565,-19.5563 349.083,-30.1402 355.789,-28.1303"/>
</g>
<!-- Node5 -->
<g id="node5" class="node"><title>Node5</title>
<g id="a_node5"><a xlink:href="types_8h.html" target="_top" xlink:title="types.h">
<polygon fill="white" stroke="black" points="476,-123.5 476,-142.5 528,-142.5 528,-123.5 476,-123.5"/>
<text text-anchor="middle" x="502" y="-130.5" font-family="Helvetica,sans-Serif" font-size="10.00">types.h</text>
</a>
</g>
</g>
<!-- Node1&#45;&gt;Node5 -->
<g id="edge4" class="edge"><title>Node1&#45;&gt;Node5</title>
<path fill="none" stroke="midnightblue" d="M439.472,-179.446C453.669,-169.127 469.621,-157.533 481.859,-148.638"/>
<polygon fill="midnightblue" stroke="midnightblue" points="484.005,-151.406 490.036,-142.695 479.889,-145.744 484.005,-151.406"/>
</g>
<!-- Node7 -->
<g id="node7" class="node"><title>Node7</title>
<g id="a_node7"><a xlink:href="api_8h.html" target="_top" xlink:title="api.h">
<polygon fill="white" stroke="black" points="546,-123.5 546,-142.5 586,-142.5 586,-123.5 546,-123.5"/>
<text text-anchor="middle" x="566" y="-130.5" font-family="Helvetica,sans-Serif" font-size="10.00">api.h</text>
</a>
</g>
</g>
<!-- Node1&#45;&gt;Node7 -->
<g id="edge6" class="edge"><title>Node1&#45;&gt;Node7</title>
<path fill="none" stroke="midnightblue" d="M462.216,-179.446C487.652,-168.308 516.482,-155.683 537.29,-146.572"/>
<polygon fill="midnightblue" stroke="midnightblue" points="538.771,-149.744 546.527,-142.527 535.963,-143.332 538.771,-149.744"/>
</g>
<!-- Node8 -->
<g id="node8" class="node"><title>Node8</title>
<g id="a_node8"><a xlink:href="ui_8h.html" target="_top" xlink:title="ui.h">
<polygon fill="white" stroke="black" points="604,-123.5 604,-142.5 638,-142.5 638,-123.5 604,-123.5"/>
<text text-anchor="middle" x="621" y="-130.5" font-family="Helvetica,sans-Serif" font-size="10.00">ui.h</text>
</a>
</g>
</g>
<!-- Node1&#45;&gt;Node8 -->
<g id="edge7" class="edge"><title>Node1&#45;&gt;Node8</title>
<path fill="none" stroke="midnightblue" d="M483.692,-179.422C515.532,-169.181 552.833,-157.064 594.441,-143.145"/>
<polygon fill="midnightblue" stroke="midnightblue" points="595.585,-146.452 603.954,-139.956 593.36,-139.815 595.585,-146.452"/>
</g>
<!-- Node9 -->
<g id="node9" class="node"><title>Node9</title>
<g id="a_node9"><a xlink:href="util_8h.html" target="_top" xlink:title="util.h">
<polygon fill="white" stroke="black" points="253,-123.5 253,-142.5 293,-142.5 293,-123.5 253,-123.5"/>
<text text-anchor="middle" x="273" y="-130.5" font-family="Helvetica,sans-Serif" font-size="10.00">util.h</text>
</a>
</g>
</g>
<!-- Node1&#45;&gt;Node9 -->
<g id="edge8" class="edge"><title>Node1&#45;&gt;Node9</title>
<path fill="none" stroke="midnightblue" d="M358.09,-179.446C337.896,-168.66 315.093,-156.481 298.179,-147.448"/>
<polygon fill="midnightblue" stroke="midnightblue" points="299.435,-144.151 288.965,-142.527 296.137,-150.325 299.435,-144.151"/>
</g>
<!-- Node13 -->
<g id="node13" class="node"><title>Node13</title>
<g id="a_node13"><a xlink:href="tachyon__video_8h.html" target="_top" xlink:title="tachyon_video.h">
<polygon fill="white" stroke="black" points="6.5,-123.5 6.5,-142.5 101.5,-142.5 101.5,-123.5 6.5,-123.5"/>
<text text-anchor="middle" x="54" y="-130.5" font-family="Helvetica,sans-Serif" font-size="10.00">tachyon_video.h</text>
</a>
</g>
</g>
<!-- Node1&#45;&gt;Node13 -->
<g id="edge14" class="edge"><title>Node1&#45;&gt;Node13</title>
<path fill="none" stroke="midnightblue" d="M321.373,-187.703C254.614,-174.294 163.155,-155.924 106.366,-144.518"/>
<polygon fill="midnightblue" stroke="midnightblue" points="107.019,-141.079 96.5252,-142.541 105.64,-147.942 107.019,-141.079"/>
</g>
<!-- Node6 -->
<g id="node6" class="node"><title>Node6</title>
<polygon fill="white" stroke="#bfbfbf" points="475.5,-62 475.5,-81 528.5,-81 528.5,-62 475.5,-62"/>
<text text-anchor="middle" x="502" y="-69" font-family="Helvetica,sans-Serif" font-size="10.00">alloca.h</text>
</g>
<!-- Node5&#45;&gt;Node6 -->
<g id="edge5" class="edge"><title>Node5&#45;&gt;Node6</title>
<path fill="none" stroke="midnightblue" d="M502,-123.475C502,-115.08 502,-101.981 502,-91.1631"/>
<polygon fill="midnightblue" stroke="midnightblue" points="505.5,-91.0091 502,-81.0091 498.5,-91.0091 505.5,-91.0091"/>
</g>
<!-- Node10 -->
<g id="node10" class="node"><title>Node10</title>
<g id="a_node10"><a xlink:href="machine_8h.html" target="_top" xlink:title="machine.h">
<polygon fill="white" stroke="red" points="282.5,-62 282.5,-81 349.5,-81 349.5,-62 282.5,-62"/>
<text text-anchor="middle" x="316" y="-69" font-family="Helvetica,sans-Serif" font-size="10.00">machine.h</text>
</a>
</g>
</g>
<!-- Node9&#45;&gt;Node10 -->
<g id="edge9" class="edge"><title>Node9&#45;&gt;Node10</title>
<path fill="none" stroke="midnightblue" d="M279.161,-123.475C285.611,-114.55 295.904,-100.307 303.973,-89.1425"/>
<polygon fill="midnightblue" stroke="midnightblue" points="306.83,-91.1642 309.851,-81.0091 301.156,-87.064 306.83,-91.1642"/>
</g>
<!-- Node11 -->
<g id="node11" class="node"><title>Node11</title>
<polygon fill="white" stroke="#bfbfbf" points="198,-62 198,-81 264,-81 264,-62 198,-62"/>
<text text-anchor="middle" x="231" y="-69" font-family="Helvetica,sans-Serif" font-size="10.00">sys/time.h</text>
</g>
<!-- Node9&#45;&gt;Node11 -->
<g id="edge12" class="edge"><title>Node9&#45;&gt;Node11</title>
<path fill="none" stroke="midnightblue" d="M266.982,-123.475C260.745,-114.638 250.827,-100.589 242.982,-89.475"/>
<polygon fill="midnightblue" stroke="midnightblue" points="245.633,-87.1604 237.006,-81.0091 239.914,-91.1972 245.633,-87.1604"/>
</g>
<!-- Node12 -->
<g id="node12" class="node"><title>Node12</title>
<polygon fill="white" stroke="#bfbfbf" points="85.5,-0.5 85.5,-19.5 140.5,-19.5 140.5,-0.5 85.5,-0.5"/>
<text text-anchor="middle" x="113" y="-7.5" font-family="Helvetica,sans-Serif" font-size="10.00">unistd.h</text>
</g>
<!-- Node9&#45;&gt;Node12 -->
<g id="edge13" class="edge"><title>Node9&#45;&gt;Node12</title>
<path fill="none" stroke="midnightblue" d="M253.364,-123.494C235.699,-115.386 209.457,-102.187 189,-87 165.014,-69.1934 141.306,-43.9358 126.908,-27.5102"/>
<polygon fill="midnightblue" stroke="midnightblue" points="129.455,-25.1036 120.276,-19.8121 124.152,-29.6727 129.455,-25.1036"/>
</g>
<!-- Node10&#45;&gt;Node2 -->
<g id="edge10" class="edge"><title>Node10&#45;&gt;Node2</title>
<path fill="none" stroke="midnightblue" d="M297.661,-61.9751C276.179,-51.9897 240.378,-35.3476 215.552,-23.8075"/>
<polygon fill="midnightblue" stroke="midnightblue" points="216.849,-20.5506 206.305,-19.5091 213.898,-26.8983 216.849,-20.5506"/>
</g>
<!-- Node10&#45;&gt;Node4 -->
<g id="edge11" class="edge"><title>Node10&#45;&gt;Node4</title>
<path fill="none" stroke="midnightblue" d="M320.442,-61.9751C324.953,-53.3152 332.074,-39.6486 337.807,-28.6453"/>
<polygon fill="midnightblue" stroke="midnightblue" points="341.05,-29.9948 342.567,-19.5091 334.842,-26.7604 341.05,-29.9948"/>
</g>
<!-- Node14 -->
<g id="node14" class="node"><title>Node14</title>
<g id="a_node14"><a xlink:href="video_8h.html" target="_top" xlink:title="../../../common/gui\l/video.h">
<polygon fill="white" stroke="red" points="0,-56.5 0,-86.5 104,-86.5 104,-56.5 0,-56.5"/>
<text text-anchor="start" x="8" y="-74.5" font-family="Helvetica,sans-Serif" font-size="10.00">../../../common/gui</text>
<text text-anchor="middle" x="52" y="-63.5" font-family="Helvetica,sans-Serif" font-size="10.00">/video.h</text>
</a>
</g>
</g>
<!-- Node13&#45;&gt;Node14 -->
<g id="edge15" class="edge"><title>Node13&#45;&gt;Node14</title>
<path fill="none" stroke="midnightblue" d="M53.7134,-123.475C53.478,-116.471 53.1325,-106.192 52.8133,-96.6956"/>
<polygon fill="midnightblue" stroke="midnightblue" points="56.3054,-96.3997 52.4714,-86.523 49.3094,-96.6349 56.3054,-96.3997"/>
</g>
<!-- Node14&#45;&gt;Node12 -->
<g id="edge16" class="edge"><title>Node14&#45;&gt;Node12</title>
<path fill="none" stroke="midnightblue" d="M66.4561,-56.3993C75.5943,-47.4859 87.4186,-35.9523 96.8624,-26.7408"/>
<polygon fill="midnightblue" stroke="midnightblue" points="99.4093,-29.1458 104.124,-19.6578 94.5215,-24.1348 99.4093,-29.1458"/>
</g>
</g>
</svg>
