<?xml version="1.0" encoding="UTF-8" standalone="no"?>
<!DOCTYPE svg PUBLIC "-//W3C//DTD SVG 1.1//EN"
 "http://www.w3.org/Graphics/SVG/1.1/DTD/svg11.dtd">
<!-- Generated by graphviz version 2.38.0 (20140413.2041)
 -->
<!-- Title: /home/travis/build/ComPWA/ComPWA/ThirdParty/tbb/include/tbb/task.h Pages: 1 -->
<svg width="276pt" height="386pt"
 viewBox="0.00 0.00 275.50 386.00" xmlns="http://www.w3.org/2000/svg" xmlns:xlink="http://www.w3.org/1999/xlink">
<g id="graph0" class="graph" transform="scale(1 1) rotate(0) translate(4 382)">
<title>/home/travis/build/ComPWA/ComPWA/ThirdParty/tbb/include/tbb/task.h</title>
<polygon fill="white" stroke="none" points="-4,4 -4,-382 271.5,-382 271.5,4 -4,4"/>
<!-- Node1 -->
<g id="node1" class="node"><title>Node1</title>
<polygon fill="#bfbfbf" stroke="black" points="0,-336.5 0,-377.5 158,-377.5 158,-336.5 0,-336.5"/>
<text text-anchor="start" x="8" y="-365.5" font-family="Helvetica,sans-Serif" font-size="10.00">/home/travis/build</text>
<text text-anchor="start" x="8" y="-354.5" font-family="Helvetica,sans-Serif" font-size="10.00">/ComPWA/ComPWA/ThirdParty</text>
<text text-anchor="middle" x="79" y="-343.5" font-family="Helvetica,sans-Serif" font-size="10.00">/tbb/include/tbb/task.h</text>
</g>
<!-- Node2 -->
<g id="node2" class="node"><title>Node2</title>
<g id="a_node2"><a xlink:href="tbb__stddef_8h.html" target="_top" xlink:title="tbb_stddef.h">
<polygon fill="white" stroke="black" points="62,-112.5 62,-131.5 138,-131.5 138,-112.5 62,-112.5"/>
<text text-anchor="middle" x="100" y="-119.5" font-family="Helvetica,sans-Serif" font-size="10.00">tbb_stddef.h</text>
</a>
</g>
</g>
<!-- Node1&#45;&gt;Node2 -->
<g id="edge1" class="edge"><title>Node1&#45;&gt;Node2</title>
<path fill="none" stroke="midnightblue" d="M66.0708,-336.408C59.9667,-326.04 53.3071,-312.828 50,-300 35.3509,-243.176 22.3547,-221.256 47,-168 52.9202,-155.207 64.4682,-144.722 75.2775,-137.1"/>
<polygon fill="midnightblue" stroke="midnightblue" points="77.2137,-140.016 83.6664,-131.613 73.3818,-134.158 77.2137,-140.016"/>
</g>
<!-- Node6 -->
<g id="node6" class="node"><title>Node6</title>
<g id="a_node6"><a xlink:href="tbb__machine_8h.html" target="_top" xlink:title="tbb_machine.h">
<polygon fill="white" stroke="black" points="56,-168.5 56,-187.5 144,-187.5 144,-168.5 56,-168.5"/>
<text text-anchor="middle" x="100" y="-175.5" font-family="Helvetica,sans-Serif" font-size="10.00">tbb_machine.h</text>
</a>
</g>
</g>
<!-- Node1&#45;&gt;Node6 -->
<g id="edge6" class="edge"><title>Node1&#45;&gt;Node6</title>
<path fill="none" stroke="midnightblue" d="M69.5508,-336.065C58.3899,-309.591 43.1087,-261.78 58,-224 62.514,-212.548 71.469,-202.291 79.9546,-194.472"/>
<polygon fill="midnightblue" stroke="midnightblue" points="82.4686,-196.927 87.7863,-187.764 77.9147,-191.611 82.4686,-196.927"/>
</g>
<!-- Node7 -->
<g id="node7" class="node"><title>Node7</title>
<g id="a_node7"><a xlink:href="tbb__profiling_8h.html" target="_top" xlink:title="tbb_profiling.h">
<polygon fill="white" stroke="black" points="77,-280.5 77,-299.5 161,-299.5 161,-280.5 77,-280.5"/>
<text text-anchor="middle" x="119" y="-287.5" font-family="Helvetica,sans-Serif" font-size="10.00">tbb_profiling.h</text>
</a>
</g>
</g>
<!-- Node1&#45;&gt;Node7 -->
<g id="edge8" class="edge"><title>Node1&#45;&gt;Node7</title>
<path fill="none" stroke="midnightblue" d="M91.0013,-336.498C96.5444,-327.49 103.069,-316.888 108.424,-308.185"/>
<polygon fill="midnightblue" stroke="midnightblue" points="111.415,-310.003 113.675,-299.652 105.454,-306.335 111.415,-310.003"/>
</g>
<!-- Node10 -->
<g id="node10" class="node"><title>Node10</title>
<polygon fill="white" stroke="#bfbfbf" points="179.5,-280.5 179.5,-299.5 226.5,-299.5 226.5,-280.5 179.5,-280.5"/>
<text text-anchor="middle" x="203" y="-287.5" font-family="Helvetica,sans-Serif" font-size="10.00">climits</text>
</g>
<!-- Node1&#45;&gt;Node10 -->
<g id="edge13" class="edge"><title>Node1&#45;&gt;Node10</title>
<path fill="none" stroke="midnightblue" d="M116.204,-336.498C135.947,-326.149 159.706,-313.695 177.371,-304.435"/>
<polygon fill="midnightblue" stroke="midnightblue" points="179.262,-307.395 186.494,-299.652 176.012,-301.195 179.262,-307.395"/>
</g>
<!-- Node3 -->
<g id="node3" class="node"><title>Node3</title>
<g id="a_node3"><a xlink:href="tbb__config_8h.html" target="_top" xlink:title="tbb_config.h">
<polygon fill="white" stroke="black" points="3.5,-56.5 3.5,-75.5 78.5,-75.5 78.5,-56.5 3.5,-56.5"/>
<text text-anchor="middle" x="41" y="-63.5" font-family="Helvetica,sans-Serif" font-size="10.00">tbb_config.h</text>
</a>
</g>
</g>
<!-- Node2&#45;&gt;Node3 -->
<g id="edge2" class="edge"><title>Node2&#45;&gt;Node3</title>
<path fill="none" stroke="midnightblue" d="M90.5206,-112.324C81.7989,-104.341 68.6565,-92.3128 58.1022,-82.6529"/>
<polygon fill="midnightblue" stroke="midnightblue" points="60.3917,-80.0036 50.6519,-75.8339 55.6655,-85.1674 60.3917,-80.0036"/>
</g>
<!-- Node4 -->
<g id="node4" class="node"><title>Node4</title>
<polygon fill="white" stroke="#bfbfbf" points="81,-0.5 81,-19.5 133,-19.5 133,-0.5 81,-0.5"/>
<text text-anchor="middle" x="107" y="-7.5" font-family="Helvetica,sans-Serif" font-size="10.00">cstddef</text>
</g>
<!-- Node2&#45;&gt;Node4 -->
<g id="edge4" class="edge"><title>Node2&#45;&gt;Node4</title>
<path fill="none" stroke="midnightblue" d="M100.549,-112.368C101.679,-94.617 104.285,-53.6664 105.817,-29.5974"/>
<polygon fill="midnightblue" stroke="midnightblue" points="109.311,-29.7935 106.453,-19.5914 102.325,-29.3489 109.311,-29.7935"/>
</g>
<!-- Node5 -->
<g id="node5" class="node"><title>Node5</title>
<polygon fill="white" stroke="#bfbfbf" points="135.5,-56.5 135.5,-75.5 188.5,-75.5 188.5,-56.5 135.5,-56.5"/>
<text text-anchor="middle" x="162" y="-63.5" font-family="Helvetica,sans-Serif" font-size="10.00">stdint.h</text>
</g>
<!-- Node2&#45;&gt;Node5 -->
<g id="edge5" class="edge"><title>Node2&#45;&gt;Node5</title>
<path fill="none" stroke="midnightblue" d="M109.961,-112.324C119.127,-104.341 132.937,-92.3128 144.028,-82.6529"/>
<polygon fill="midnightblue" stroke="midnightblue" points="146.615,-85.041 151.857,-75.8339 142.018,-79.7624 146.615,-85.041"/>
</g>
<!-- Node3&#45;&gt;Node4 -->
<g id="edge3" class="edge"><title>Node3&#45;&gt;Node4</title>
<path fill="none" stroke="midnightblue" d="M51.604,-56.324C61.4562,-48.2631 76.3509,-36.0765 88.2151,-26.3695"/>
<polygon fill="midnightblue" stroke="midnightblue" points="90.6798,-28.8752 96.203,-19.8339 86.2471,-23.4575 90.6798,-28.8752"/>
</g>
<!-- Node6&#45;&gt;Node2 -->
<g id="edge7" class="edge"><title>Node6&#45;&gt;Node2</title>
<path fill="none" stroke="midnightblue" d="M100,-168.083C100,-161.006 100,-150.861 100,-141.986"/>
<polygon fill="midnightblue" stroke="midnightblue" points="103.5,-141.751 100,-131.751 96.5001,-141.751 103.5,-141.751"/>
</g>
<!-- Node8 -->
<g id="node8" class="node"><title>Node8</title>
<g id="a_node8"><a xlink:href="__tbb__strings_8h.html" target="_top" xlink:title="internal/_tbb_strings.h">
<polygon fill="white" stroke="black" points="67.5,-224.5 67.5,-243.5 190.5,-243.5 190.5,-224.5 67.5,-224.5"/>
<text text-anchor="middle" x="129" y="-231.5" font-family="Helvetica,sans-Serif" font-size="10.00">internal/_tbb_strings.h</text>
</a>
</g>
</g>
<!-- Node7&#45;&gt;Node8 -->
<g id="edge9" class="edge"><title>Node7&#45;&gt;Node8</title>
<path fill="none" stroke="midnightblue" d="M120.651,-280.083C121.976,-272.927 123.882,-262.635 125.539,-253.691"/>
<polygon fill="midnightblue" stroke="midnightblue" points="129,-254.221 127.379,-243.751 122.117,-252.947 129,-254.221"/>
</g>
<!-- Node9 -->
<g id="node9" class="node"><title>Node9</title>
<g id="a_node9"><a xlink:href="atomic_8h.html" target="_top" xlink:title="atomic.h">
<polygon fill="white" stroke="black" points="208.5,-224.5 208.5,-243.5 267.5,-243.5 267.5,-224.5 208.5,-224.5"/>
<text text-anchor="middle" x="238" y="-231.5" font-family="Helvetica,sans-Serif" font-size="10.00">atomic.h</text>
</a>
</g>
</g>
<!-- Node7&#45;&gt;Node9 -->
<g id="edge10" class="edge"><title>Node7&#45;&gt;Node9</title>
<path fill="none" stroke="midnightblue" d="M137.856,-280.444C157.266,-271.636 187.73,-257.812 209.965,-247.722"/>
<polygon fill="midnightblue" stroke="midnightblue" points="211.572,-250.836 219.232,-243.516 208.68,-244.462 211.572,-250.836"/>
</g>
<!-- Node9&#45;&gt;Node4 -->
<g id="edge11" class="edge"><title>Node9&#45;&gt;Node4</title>
<path fill="none" stroke="midnightblue" d="M238.507,-224.159C239.635,-196.246 239.507,-108.726 198,-56 184.26,-38.5466 161.993,-27.3716 142.925,-20.5233"/>
<polygon fill="midnightblue" stroke="midnightblue" points="143.901,-17.1594 133.308,-17.3261 141.693,-23.802 143.901,-17.1594"/>
</g>
<!-- Node9&#45;&gt;Node6 -->
<g id="edge12" class="edge"><title>Node9&#45;&gt;Node6</title>
<path fill="none" stroke="midnightblue" d="M216.133,-224.444C193.221,-215.478 157.025,-201.314 131.134,-191.183"/>
<polygon fill="midnightblue" stroke="midnightblue" points="132.352,-187.901 121.764,-187.516 129.801,-194.42 132.352,-187.901"/>
</g>
</g>
</svg>
