<?xml version="1.0" encoding="UTF-8" standalone="no"?>
<!DOCTYPE svg PUBLIC "-//W3C//DTD SVG 1.1//EN"
 "http://www.w3.org/Graphics/SVG/1.1/DTD/svg11.dtd">
<!-- Generated by graphviz version 2.38.0 (20140413.2041)
 -->
<!-- Title: /home/travis/build/ComPWA/ComPWA/ThirdParty/tbb/include/tbb/tbb_thread.h Pages: 1 -->
<!--zoomable 317 -->
<svg id="main" version="1.1" xmlns="http://www.w3.org/2000/svg" xmlns:xlink="http://www.w3.org/1999/xlink" xml:space="preserve" onload="init(evt)">
<style type="text/css"><![CDATA[
.edge:hover path { stroke: red; }
.edge:hover polygon { stroke: red; fill: red; }
]]></style>
<script type="text/javascript"><![CDATA[
var edges = document.getElementsByTagName('g');
if (edges && edges.length) {
  for (var i=0;i<edges.length;i++) {
    if (edges[i].id.substr(0,4)=='edge') {
      edges[i].setAttribute('class','edge');
    }
  }
}
]]></script>
        <defs>
                <circle id="rim" cx="0" cy="0" r="7"/>
                <circle id="rim2" cx="0" cy="0" r="3.5"/>
                <g id="zoomPlus">
                        <use xlink:href="#rim" fill="#404040">
                                <set attributeName="fill" to="#808080" begin="zoomplus.mouseover" end="zoomplus.mouseout"/>
                        </use>
                        <path d="M-4,0h8M0,-4v8" fill="none" stroke="white" stroke-width="1.5" pointer-events="none"/>
                </g>
                <g id="zoomMin">
                        <use xlink:href="#rim" fill="#404040">
                                <set attributeName="fill" to="#808080" begin="zoomminus.mouseover" end="zoomminus.mouseout"/>
                        </use>
                        <path d="M-4,0h8" fill="none" stroke="white" stroke-width="1.5" pointer-events="none"/>
                </g>
                <g id="dirArrow">
                        <path fill="none" stroke="white" stroke-width="1.5" d="M0,-3.0v7 M-2.5,-0.5L0,-3.0L2.5,-0.5"/>
                </g>
               <g id="resetDef">
                       <use xlink:href="#rim2" fill="#404040">
                               <set attributeName="fill" to="#808080" begin="reset.mouseover" end="reset.mouseout"/>
                       </use>
               </g>
        </defs>

<script type="text/javascript">
var viewWidth = 1261;
var viewHeight = 317;
var sectionId = 'dynsection-1';
</script>
<script xlink:href="svgpan.js"/>
<svg id="graph" class="graph">
<g id="viewport">
<title>/home/travis/build/ComPWA/ComPWA/ThirdParty/tbb/include/tbb/tbb_thread.h</title>
<polygon fill="white" stroke="none" points="-4,4 -4,-313 1257,-313 1257,4 -4,4"/>
<!-- Node1 -->
<g id="node1" class="node"><title>Node1</title>
<polygon fill="#bfbfbf" stroke="black" points="460,-267.5 460,-308.5 618,-308.5 618,-267.5 460,-267.5"/>
<text text-anchor="start" x="468" y="-296.5" font-family="Helvetica,sans-Serif" font-size="10.00">/home/travis/build</text>
<text text-anchor="start" x="468" y="-285.5" font-family="Helvetica,sans-Serif" font-size="10.00">/ComPWA/ComPWA/ThirdParty</text>
<text text-anchor="middle" x="539" y="-274.5" font-family="Helvetica,sans-Serif" font-size="10.00">/tbb/include/tbb/tbb_thread.h</text>
</g>
<!-- Node2 -->
<g id="node2" class="node"><title>Node2</title>
<g id="a_node2"><a xlink:href="dining__philosophers_8cpp.html" target="_top" xlink:title="/home/travis/build\l/ComPWA/ComPWA/ThirdParty\l/tbb/examples/graph/dining\l_philosophers/dining_philosophers.cpp">
<polygon fill="white" stroke="black" points="0,-178.5 0,-230.5 200,-230.5 200,-178.5 0,-178.5"/>
<text text-anchor="start" x="8" y="-218.5" font-family="Helvetica,sans-Serif" font-size="10.00">/home/travis/build</text>
<text text-anchor="start" x="8" y="-207.5" font-family="Helvetica,sans-Serif" font-size="10.00">/ComPWA/ComPWA/ThirdParty</text>
<text text-anchor="start" x="8" y="-196.5" font-family="Helvetica,sans-Serif" font-size="10.00">/tbb/examples/graph/dining</text>
<text text-anchor="middle" x="100" y="-185.5" font-family="Helvetica,sans-Serif" font-size="10.00">_philosophers/dining_philosophers.cpp</text>
</a>
</g>
</g>
<!-- Node1&#45;&gt;Node2 -->
<g id="edge1" class="edge"><title>Node1&#45;&gt;Node2</title>
<path fill="none" stroke="midnightblue" d="M449.981,-273.31C383.637,-262.753 290.912,-247.25 210,-231 206.733,-230.344 203.414,-229.662 200.066,-228.962"/>
<polygon fill="midnightblue" stroke="midnightblue" points="449.56,-276.787 459.984,-274.897 450.656,-269.874 449.56,-276.787"/>
</g>
<!-- Node3 -->
<g id="node3" class="node"><title>Node3</title>
<g id="a_node3"><a xlink:href="Fibonacci_8cpp.html" target="_top" xlink:title="/home/travis/build\l/ComPWA/ComPWA/ThirdParty\l/tbb/examples/test_all/fibonacci\l/Fibonacci.cpp">
<polygon fill="white" stroke="black" points="218.5,-178.5 218.5,-230.5 385.5,-230.5 385.5,-178.5 218.5,-178.5"/>
<text text-anchor="start" x="226.5" y="-218.5" font-family="Helvetica,sans-Serif" font-size="10.00">/home/travis/build</text>
<text text-anchor="start" x="226.5" y="-207.5" font-family="Helvetica,sans-Serif" font-size="10.00">/ComPWA/ComPWA/ThirdParty</text>
<text text-anchor="start" x="226.5" y="-196.5" font-family="Helvetica,sans-Serif" font-size="10.00">/tbb/examples/test_all/fibonacci</text>
<text text-anchor="middle" x="302" y="-185.5" font-family="Helvetica,sans-Serif" font-size="10.00">/Fibonacci.cpp</text>
</a>
</g>
</g>
<!-- Node1&#45;&gt;Node3 -->
<g id="edge2" class="edge"><title>Node1&#45;&gt;Node3</title>
<path fill="none" stroke="midnightblue" d="M472.577,-264.158C442.178,-253.705 406.071,-241.288 374.922,-230.576"/>
<polygon fill="midnightblue" stroke="midnightblue" points="471.638,-267.537 482.233,-267.479 473.914,-260.917 471.638,-267.537"/>
</g>
<!-- Node4 -->
<g id="node4" class="node"><title>Node4</title>
<g id="a_node4"><a xlink:href="enumerable__thread__specific_8h.html" target="_top" xlink:title="/home/travis/build\l/ComPWA/ComPWA/ThirdParty\l/tbb/include/tbb/enumerable\l_thread_specific.h">
<polygon fill="white" stroke="black" points="460,-178.5 460,-230.5 618,-230.5 618,-178.5 460,-178.5"/>
<text text-anchor="start" x="468" y="-218.5" font-family="Helvetica,sans-Serif" font-size="10.00">/home/travis/build</text>
<text text-anchor="start" x="468" y="-207.5" font-family="Helvetica,sans-Serif" font-size="10.00">/ComPWA/ComPWA/ThirdParty</text>
<text text-anchor="start" x="468" y="-196.5" font-family="Helvetica,sans-Serif" font-size="10.00">/tbb/include/tbb/enumerable</text>
<text text-anchor="middle" x="539" y="-185.5" font-family="Helvetica,sans-Serif" font-size="10.00">_thread_specific.h</text>
</a>
</g>
</g>
<!-- Node1&#45;&gt;Node4 -->
<g id="edge3" class="edge"><title>Node1&#45;&gt;Node4</title>
<path fill="none" stroke="midnightblue" d="M539,-257.121C539,-248.413 539,-238.989 539,-230.607"/>
<polygon fill="midnightblue" stroke="midnightblue" points="535.5,-257.271 539,-267.271 542.5,-257.271 535.5,-257.271"/>
</g>
<!-- Node8 -->
<g id="node8" class="node"><title>Node8</title>
<g id="a_node8"><a xlink:href="tbb_8h.html" target="_top" xlink:title="/home/travis/build\l/ComPWA/ComPWA/ThirdParty\l/tbb/include/tbb/tbb.h">
<polygon fill="white" stroke="red" points="559,-6 559,-47 717,-47 717,-6 559,-6"/>
<text text-anchor="start" x="567" y="-35" font-family="Helvetica,sans-Serif" font-size="10.00">/home/travis/build</text>
<text text-anchor="start" x="567" y="-24" font-family="Helvetica,sans-Serif" font-size="10.00">/ComPWA/ComPWA/ThirdParty</text>
<text text-anchor="middle" x="638" y="-13" font-family="Helvetica,sans-Serif" font-size="10.00">/tbb/include/tbb/tbb.h</text>
</a>
</g>
</g>
<!-- Node1&#45;&gt;Node8 -->
<g id="edge17" class="edge"><title>Node1&#45;&gt;Node8</title>
<path fill="none" stroke="midnightblue" d="M481.494,-262.128C469.302,-254.042 458.009,-243.769 451,-231 440.352,-211.603 448.664,-99.8466 457,-89 481.067,-57.6864 521.87,-42.1958 558.649,-34.5839"/>
<polygon fill="midnightblue" stroke="midnightblue" points="479.685,-265.124 490.037,-267.38 483.351,-259.161 479.685,-265.124"/>
</g>
<!-- Node9 -->
<g id="node9" class="node"><title>Node9</title>
<g id="a_node9"><a xlink:href="critical__section_8h.html" target="_top" xlink:title="/home/travis/build\l/ComPWA/ComPWA/ThirdParty\l/tbb/include/tbb/critical\l_section.h">
<polygon fill="white" stroke="black" points="831,-89.5 831,-141.5 989,-141.5 989,-89.5 831,-89.5"/>
<text text-anchor="start" x="839" y="-129.5" font-family="Helvetica,sans-Serif" font-size="10.00">/home/travis/build</text>
<text text-anchor="start" x="839" y="-118.5" font-family="Helvetica,sans-Serif" font-size="10.00">/ComPWA/ComPWA/ThirdParty</text>
<text text-anchor="start" x="839" y="-107.5" font-family="Helvetica,sans-Serif" font-size="10.00">/tbb/include/tbb/critical</text>
<text text-anchor="middle" x="910" y="-96.5" font-family="Helvetica,sans-Serif" font-size="10.00">_section.h</text>
</a>
</g>
</g>
<!-- Node1&#45;&gt;Node9 -->
<g id="edge9" class="edge"><title>Node1&#45;&gt;Node9</title>
<path fill="none" stroke="midnightblue" d="M584.294,-262.059C598.651,-253.162 614.125,-242.475 627,-231 649.645,-210.818 644.314,-194.135 670,-178 728.788,-141.071 754.861,-159.667 822,-142 824.923,-141.231 827.896,-140.436 830.897,-139.622"/>
<polygon fill="midnightblue" stroke="midnightblue" points="582.276,-259.189 575.531,-267.359 585.899,-265.178 582.276,-259.189"/>
</g>
<!-- Node11 -->
<g id="node11" class="node"><title>Node11</title>
<g id="a_node11"><a xlink:href="reader__writer__lock_8h.html" target="_top" xlink:title="/home/travis/build\l/ComPWA/ComPWA/ThirdParty\l/tbb/include/tbb/reader\l_writer_lock.h">
<polygon fill="white" stroke="black" points="1007,-89.5 1007,-141.5 1165,-141.5 1165,-89.5 1007,-89.5"/>
<text text-anchor="start" x="1015" y="-129.5" font-family="Helvetica,sans-Serif" font-size="10.00">/home/travis/build</text>
<text text-anchor="start" x="1015" y="-118.5" font-family="Helvetica,sans-Serif" font-size="10.00">/ComPWA/ComPWA/ThirdParty</text>
<text text-anchor="start" x="1015" y="-107.5" font-family="Helvetica,sans-Serif" font-size="10.00">/tbb/include/tbb/reader</text>
<text text-anchor="middle" x="1086" y="-96.5" font-family="Helvetica,sans-Serif" font-size="10.00">_writer_lock.h</text>
</a>
</g>
</g>
<!-- Node1&#45;&gt;Node11 -->
<g id="edge13" class="edge"><title>Node1&#45;&gt;Node11</title>
<path fill="none" stroke="midnightblue" d="M606.051,-263.501C625.224,-254.98 645.402,-244.144 662,-231 685.347,-212.511 677.11,-192.718 703,-178 817.828,-112.726 868.595,-168.466 998,-142 1000.96,-141.394 1003.97,-140.738 1007,-140.042"/>
<polygon fill="midnightblue" stroke="midnightblue" points="604.548,-260.338 596.739,-267.499 607.309,-266.77 604.548,-260.338"/>
</g>
<!-- Node13 -->
<g id="node13" class="node"><title>Node13</title>
<g id="a_node13"><a xlink:href="tbb__thread_8cpp.html" target="_top" xlink:title="/home/travis/build\l/ComPWA/ComPWA/ThirdParty\l/tbb/src/tbb/tbb_thread.cpp">
<polygon fill="white" stroke="black" points="712,-184 712,-225 870,-225 870,-184 712,-184"/>
<text text-anchor="start" x="720" y="-213" font-family="Helvetica,sans-Serif" font-size="10.00">/home/travis/build</text>
<text text-anchor="start" x="720" y="-202" font-family="Helvetica,sans-Serif" font-size="10.00">/ComPWA/ComPWA/ThirdParty</text>
<text text-anchor="middle" x="791" y="-191" font-family="Helvetica,sans-Serif" font-size="10.00">/tbb/src/tbb/tbb_thread.cpp</text>
</a>
</g>
</g>
<!-- Node1&#45;&gt;Node13 -->
<g id="edge18" class="edge"><title>Node1&#45;&gt;Node13</title>
<path fill="none" stroke="midnightblue" d="M608.887,-264.398C647.138,-252.027 694.061,-236.851 730.696,-225.003"/>
<polygon fill="midnightblue" stroke="midnightblue" points="607.798,-261.071 599.36,-267.479 609.952,-267.732 607.798,-261.071"/>
</g>
<!-- Node5 -->
<g id="node5" class="node"><title>Node5</title>
<g id="a_node5"><a xlink:href="rpolygon_8h.html" target="_top" xlink:title="/home/travis/build\l/ComPWA/ComPWA/ThirdParty\l/tbb/examples/parallel_for\l/polygon_overlay/rpolygon.h">
<polygon fill="white" stroke="red" points="479,-89.5 479,-141.5 637,-141.5 637,-89.5 479,-89.5"/>
<text text-anchor="start" x="487" y="-129.5" font-family="Helvetica,sans-Serif" font-size="10.00">/home/travis/build</text>
<text text-anchor="start" x="487" y="-118.5" font-family="Helvetica,sans-Serif" font-size="10.00">/ComPWA/ComPWA/ThirdParty</text>
<text text-anchor="start" x="487" y="-107.5" font-family="Helvetica,sans-Serif" font-size="10.00">/tbb/examples/parallel_for</text>
<text text-anchor="middle" x="558" y="-96.5" font-family="Helvetica,sans-Serif" font-size="10.00">/polygon_overlay/rpolygon.h</text>
</a>
</g>
</g>
<!-- Node4&#45;&gt;Node5 -->
<g id="edge4" class="edge"><title>Node4&#45;&gt;Node5</title>
<path fill="none" stroke="midnightblue" d="M546.648,-168.481C548.612,-159.487 550.686,-149.989 552.517,-141.607"/>
<polygon fill="midnightblue" stroke="midnightblue" points="543.21,-167.819 544.496,-178.336 550.049,-169.313 543.21,-167.819"/>
</g>
<!-- Node6 -->
<g id="node6" class="node"><title>Node6</title>
<g id="a_node6"><a xlink:href="combinable_8h.html" target="_top" xlink:title="/home/travis/build\l/ComPWA/ComPWA/ThirdParty\l/tbb/include/tbb/combinable.h">
<polygon fill="white" stroke="black" points="655,-95 655,-136 813,-136 813,-95 655,-95"/>
<text text-anchor="start" x="663" y="-124" font-family="Helvetica,sans-Serif" font-size="10.00">/home/travis/build</text>
<text text-anchor="start" x="663" y="-113" font-family="Helvetica,sans-Serif" font-size="10.00">/ComPWA/ComPWA/ThirdParty</text>
<text text-anchor="middle" x="734" y="-102" font-family="Helvetica,sans-Serif" font-size="10.00">/tbb/include/tbb/combinable.h</text>
</a>
</g>
</g>
<!-- Node4&#45;&gt;Node6 -->
<g id="edge5" class="edge"><title>Node4&#45;&gt;Node6</title>
<path fill="none" stroke="midnightblue" d="M604.513,-174.271C632.647,-161.719 664.777,-147.384 689.993,-136.134"/>
<polygon fill="midnightblue" stroke="midnightblue" points="602.847,-171.182 595.14,-178.453 605.699,-177.575 602.847,-171.182"/>
</g>
<!-- Node4&#45;&gt;Node8 -->
<g id="edge8" class="edge"><title>Node4&#45;&gt;Node8</title>
<path fill="none" stroke="midnightblue" d="M491.955,-171.475C483.05,-163.013 474.974,-153.097 470,-142 460.365,-120.505 456.507,-108.308 470,-89 490.282,-59.9768 525.816,-44.6067 558.995,-36.4853"/>
<polygon fill="midnightblue" stroke="midnightblue" points="489.775,-174.22 499.58,-178.235 494.419,-168.982 489.775,-174.22"/>
</g>
<!-- Node7 -->
<g id="node7" class="node"><title>Node7</title>
<g id="a_node7"><a xlink:href="ppl_8h.html" target="_top" xlink:title="/home/travis/build\l/ComPWA/ComPWA/ThirdParty\l/tbb/include/tbb/compat/ppl.h">
<polygon fill="white" stroke="black" points="919,-6 919,-47 1077,-47 1077,-6 919,-6"/>
<text text-anchor="start" x="927" y="-35" font-family="Helvetica,sans-Serif" font-size="10.00">/home/travis/build</text>
<text text-anchor="start" x="927" y="-24" font-family="Helvetica,sans-Serif" font-size="10.00">/ComPWA/ComPWA/ThirdParty</text>
<text text-anchor="middle" x="998" y="-13" font-family="Helvetica,sans-Serif" font-size="10.00">/tbb/include/tbb/compat/ppl.h</text>
</a>
</g>
</g>
<!-- Node6&#45;&gt;Node7 -->
<g id="edge6" class="edge"><title>Node6&#45;&gt;Node7</title>
<path fill="none" stroke="midnightblue" d="M802.867,-91.8053C844.954,-77.9355 898.243,-60.3744 938.495,-47.1097"/>
<polygon fill="midnightblue" stroke="midnightblue" points="801.649,-88.5214 793.247,-94.9755 803.84,-95.1697 801.649,-88.5214"/>
</g>
<!-- Node6&#45;&gt;Node8 -->
<g id="edge7" class="edge"><title>Node6&#45;&gt;Node8</title>
<path fill="none" stroke="midnightblue" d="M704.497,-87.7629C690.039,-74.6601 672.937,-59.1617 659.698,-47.1635"/>
<polygon fill="midnightblue" stroke="midnightblue" points="702.456,-90.6366 712.216,-94.7584 707.157,-85.4497 702.456,-90.6366"/>
</g>
<!-- Node9&#45;&gt;Node7 -->
<g id="edge10" class="edge"><title>Node9&#45;&gt;Node7</title>
<path fill="none" stroke="midnightblue" d="M942.69,-82.1814C954.615,-70.3922 967.728,-57.4276 978.193,-47.0821"/>
<polygon fill="midnightblue" stroke="midnightblue" points="940.104,-79.8164 935.453,-89.336 945.025,-84.7944 940.104,-79.8164"/>
</g>
<!-- Node9&#45;&gt;Node8 -->
<g id="edge11" class="edge"><title>Node9&#45;&gt;Node8</title>
<path fill="none" stroke="midnightblue" d="M821.932,-86.3311C781.916,-73.5319 735.551,-58.7021 699.384,-47.1338"/>
<polygon fill="midnightblue" stroke="midnightblue" points="821.1,-89.7398 831.691,-89.4527 823.233,-83.0725 821.1,-89.7398"/>
</g>
<!-- Node10 -->
<g id="node10" class="node"><title>Node10</title>
<g id="a_node10"><a xlink:href="critical__section_8cpp.html" target="_top" xlink:title="/home/travis/build\l/ComPWA/ComPWA/ThirdParty\l/tbb/src/tbb/critical_section.cpp">
<polygon fill="white" stroke="black" points="735.5,-6 735.5,-47 900.5,-47 900.5,-6 735.5,-6"/>
<text text-anchor="start" x="743.5" y="-35" font-family="Helvetica,sans-Serif" font-size="10.00">/home/travis/build</text>
<text text-anchor="start" x="743.5" y="-24" font-family="Helvetica,sans-Serif" font-size="10.00">/ComPWA/ComPWA/ThirdParty</text>
<text text-anchor="middle" x="818" y="-13" font-family="Helvetica,sans-Serif" font-size="10.00">/tbb/src/tbb/critical_section.cpp</text>
</a>
</g>
</g>
<!-- Node9&#45;&gt;Node10 -->
<g id="edge12" class="edge"><title>Node9&#45;&gt;Node10</title>
<path fill="none" stroke="midnightblue" d="M875.824,-82.1814C863.357,-70.3922 849.648,-57.4276 838.708,-47.0821"/>
<polygon fill="midnightblue" stroke="midnightblue" points="873.719,-85.0081 883.39,-89.336 878.529,-79.9221 873.719,-85.0081"/>
</g>
<!-- Node11&#45;&gt;Node7 -->
<g id="edge14" class="edge"><title>Node11&#45;&gt;Node7</title>
<path fill="none" stroke="midnightblue" d="M1053.31,-82.1814C1041.39,-70.3922 1028.27,-57.4276 1017.81,-47.0821"/>
<polygon fill="midnightblue" stroke="midnightblue" points="1050.97,-84.7944 1060.55,-89.336 1055.9,-79.8164 1050.97,-84.7944"/>
</g>
<!-- Node11&#45;&gt;Node8 -->
<g id="edge15" class="edge"><title>Node11&#45;&gt;Node8</title>
<path fill="none" stroke="midnightblue" d="M997.065,-88.9477C877.285,-64.7211 842.808,-77.146 727,-53 718.818,-51.294 710.288,-49.229 701.888,-47.0212"/>
<polygon fill="midnightblue" stroke="midnightblue" points="996.486,-92.4019 1006.99,-90.9981 997.902,-85.5467 996.486,-92.4019"/>
</g>
<!-- Node12 -->
<g id="node12" class="node"><title>Node12</title>
<g id="a_node12"><a xlink:href="reader__writer__lock_8cpp.html" target="_top" xlink:title="/home/travis/build\l/ComPWA/ComPWA/ThirdParty\l/tbb/src/tbb/reader_writer\l_lock.cpp">
<polygon fill="white" stroke="black" points="1095,-0.5 1095,-52.5 1253,-52.5 1253,-0.5 1095,-0.5"/>
<text text-anchor="start" x="1103" y="-40.5" font-family="Helvetica,sans-Serif" font-size="10.00">/home/travis/build</text>
<text text-anchor="start" x="1103" y="-29.5" font-family="Helvetica,sans-Serif" font-size="10.00">/ComPWA/ComPWA/ThirdParty</text>
<text text-anchor="start" x="1103" y="-18.5" font-family="Helvetica,sans-Serif" font-size="10.00">/tbb/src/tbb/reader_writer</text>
<text text-anchor="middle" x="1174" y="-7.5" font-family="Helvetica,sans-Serif" font-size="10.00">_lock.cpp</text>
</a>
</g>
</g>
<!-- Node11&#45;&gt;Node12 -->
<g id="edge16" class="edge"><title>Node11&#45;&gt;Node12</title>
<path fill="none" stroke="midnightblue" d="M1118.8,-82.0768C1128.65,-72.3353 1139.31,-61.7998 1148.6,-52.6075"/>
<polygon fill="midnightblue" stroke="midnightblue" points="1116.1,-79.8164 1111.45,-89.336 1121.03,-84.7944 1116.1,-79.8164"/>
</g>
</g>
</svg>
        <g id="navigator" transform="translate(0 0)" fill="#404254">
                <rect fill="#f2f5e9" fill-opacity="0.5" stroke="#606060" stroke-width=".5" x="0" y="0" width="60" height="60"/>
                <use id="zoomplus" xlink:href="#zoomPlus" x="17" y="9" onmousedown="handleZoom(evt,'in')"/>
                <use id="zoomminus" xlink:href="#zoomMin" x="42" y="9" onmousedown="handleZoom(evt,'out')"/>
                <use id="reset" xlink:href="#resetDef" x="30" y="36" onmousedown="handleReset()"/>
                <g id="arrowUp" xlink:href="#dirArrow" transform="translate(30 24)" onmousedown="handlePan(0,-1)">
                  <use xlink:href="#rim" fill="#404040">
                        <set attributeName="fill" to="#808080" begin="arrowUp.mouseover" end="arrowUp.mouseout"/>
                  </use>
                  <path fill="none" stroke="white" stroke-width="1.5" d="M0,-3.0v7 M-2.5,-0.5L0,-3.0L2.5,-0.5"/>
                </g>
                <g id="arrowRight" xlink:href="#dirArrow" transform="rotate(90) translate(36 -43)" onmousedown="handlePan(1,0)">
                  <use xlink:href="#rim" fill="#404040">
                        <set attributeName="fill" to="#808080" begin="arrowRight.mouseover" end="arrowRight.mouseout"/>
                  </use>
                  <path fill="none" stroke="white" stroke-width="1.5" d="M0,-3.0v7 M-2.5,-0.5L0,-3.0L2.5,-0.5"/>
                </g>
                <g id="arrowDown" xlink:href="#dirArrow" transform="rotate(180) translate(-30 -48)" onmousedown="handlePan(0,1)">
                  <use xlink:href="#rim" fill="#404040">
                        <set attributeName="fill" to="#808080" begin="arrowDown.mouseover" end="arrowDown.mouseout"/>
                  </use>
                  <path fill="none" stroke="white" stroke-width="1.5" d="M0,-3.0v7 M-2.5,-0.5L0,-3.0L2.5,-0.5"/>
                </g>
                <g id="arrowLeft" xlink:href="#dirArrow" transform="rotate(270) translate(-36 17)" onmousedown="handlePan(-1,0)">
                  <use xlink:href="#rim" fill="#404040">
                        <set attributeName="fill" to="#808080" begin="arrowLeft.mouseover" end="arrowLeft.mouseout"/>
                  </use>
                  <path fill="none" stroke="white" stroke-width="1.5" d="M0,-3.0v7 M-2.5,-0.5L0,-3.0L2.5,-0.5"/>
                </g>
        </g>
        <svg viewBox="0 0 15 15" width="100%" height="30px" preserveAspectRatio="xMaxYMin meet">
         <g id="arrow_out" transform="scale(0.3 0.3)">
          <a xlink:href="tbb__thread_8h__dep__incl_org.svg" target="_base">
           <rect id="button" ry="5" rx="5" y="6" x="6" height="38" width="38"
                fill="#f2f5e9" fill-opacity="0.5" stroke="#606060" stroke-width="1.0"/>
           <path id="arrow"
             d="M 11.500037,31.436501 C 11.940474,20.09759 22.043105,11.32322 32.158766,21.979434 L 37.068811,17.246167 C 37.068811,17.246167 37.088388,32 37.088388,32 L 22.160133,31.978069 C 22.160133,31.978069 26.997745,27.140456 26.997745,27.140456 C 18.528582,18.264221 13.291696,25.230495 11.500037,31.436501 z"
             style="fill:#404040;"/>
          </a>
         </g>
        </svg>
</svg>
