<?xml version="1.0" encoding="UTF-8" standalone="no"?>
<!DOCTYPE svg PUBLIC "-//W3C//DTD SVG 1.1//EN"
 "http://www.w3.org/Graphics/SVG/1.1/DTD/svg11.dtd">
<!-- Generated by graphviz version 2.38.0 (20140413.2041)
 -->
<!-- Title: /home/travis/build/ComPWA/ComPWA/ThirdParty/tbb/examples/parallel_for/tachyon/msvs/win8ui/tbbTachyonRenderer.h Pages: 1 -->
<svg width="665pt" height="239pt"
 viewBox="0.00 0.00 664.50 239.00" xmlns="http://www.w3.org/2000/svg" xmlns:xlink="http://www.w3.org/1999/xlink">
<g id="graph0" class="graph" transform="scale(1 1) rotate(0) translate(4 235)">
<title>/home/travis/build/ComPWA/ComPWA/ThirdParty/tbb/examples/parallel_for/tachyon/msvs/win8ui/tbbTachyonRenderer.h</title>
<polygon fill="white" stroke="none" points="-4,4 -4,-235 660.5,-235 660.5,4 -4,4"/>
<!-- Node1 -->
<g id="node1" class="node"><title>Node1</title>
<polygon fill="#bfbfbf" stroke="black" points="301,-178.5 301,-230.5 528,-230.5 528,-178.5 301,-178.5"/>
<text text-anchor="start" x="309" y="-218.5" font-family="Helvetica,sans-Serif" font-size="10.00">/home/travis/build</text>
<text text-anchor="start" x="309" y="-207.5" font-family="Helvetica,sans-Serif" font-size="10.00">/ComPWA/ComPWA/ThirdParty</text>
<text text-anchor="start" x="309" y="-196.5" font-family="Helvetica,sans-Serif" font-size="10.00">/tbb/examples/parallel_for</text>
<text text-anchor="middle" x="414.5" y="-185.5" font-family="Helvetica,sans-Serif" font-size="10.00">/tachyon/msvs/win8ui/tbbTachyonRenderer.h</text>
</g>
<!-- Node2 -->
<g id="node2" class="node"><title>Node2</title>
<g id="a_node2"><a xlink:href="DirectXPage_8xaml_8h.html" target="_top" xlink:title="/home/travis/build\l/ComPWA/ComPWA/ThirdParty\l/tbb/examples/parallel_for\l/tachyon/msvs/win8ui/DirectXPage.xaml.h">
<polygon fill="white" stroke="black" points="185,-89.5 185,-141.5 400,-141.5 400,-89.5 185,-89.5"/>
<text text-anchor="start" x="193" y="-129.5" font-family="Helvetica,sans-Serif" font-size="10.00">/home/travis/build</text>
<text text-anchor="start" x="193" y="-118.5" font-family="Helvetica,sans-Serif" font-size="10.00">/ComPWA/ComPWA/ThirdParty</text>
<text text-anchor="start" x="193" y="-107.5" font-family="Helvetica,sans-Serif" font-size="10.00">/tbb/examples/parallel_for</text>
<text text-anchor="middle" x="292.5" y="-96.5" font-family="Helvetica,sans-Serif" font-size="10.00">/tachyon/msvs/win8ui/DirectXPage.xaml.h</text>
</a>
</g>
</g>
<!-- Node1&#45;&gt;Node2 -->
<g id="edge1" class="edge"><title>Node1&#45;&gt;Node2</title>
<path fill="none" stroke="midnightblue" d="M371.033,-172.503C356.825,-162.371 341.23,-151.25 327.708,-141.607"/>
<polygon fill="midnightblue" stroke="midnightblue" points="369.039,-175.38 379.213,-178.336 373.103,-169.68 369.039,-175.38"/>
</g>
<!-- Node6 -->
<g id="node6" class="node"><title>Node6</title>
<g id="a_node6"><a xlink:href="tbbTachyonRenderer_8cpp.html" target="_top" xlink:title="/home/travis/build\l/ComPWA/ComPWA/ThirdParty\l/tbb/examples/parallel_for\l/tachyon/msvs/win8ui/tbbTachyonRenderer.cpp">
<polygon fill="white" stroke="black" points="418.5,-89.5 418.5,-141.5 656.5,-141.5 656.5,-89.5 418.5,-89.5"/>
<text text-anchor="start" x="426.5" y="-129.5" font-family="Helvetica,sans-Serif" font-size="10.00">/home/travis/build</text>
<text text-anchor="start" x="426.5" y="-118.5" font-family="Helvetica,sans-Serif" font-size="10.00">/ComPWA/ComPWA/ThirdParty</text>
<text text-anchor="start" x="426.5" y="-107.5" font-family="Helvetica,sans-Serif" font-size="10.00">/tbb/examples/parallel_for</text>
<text text-anchor="middle" x="537.5" y="-96.5" font-family="Helvetica,sans-Serif" font-size="10.00">/tachyon/msvs/win8ui/tbbTachyonRenderer.cpp</text>
</a>
</g>
</g>
<!-- Node1&#45;&gt;Node6 -->
<g id="edge5" class="edge"><title>Node1&#45;&gt;Node6</title>
<path fill="none" stroke="midnightblue" d="M458.323,-172.503C472.647,-162.371 488.37,-151.25 502.003,-141.607"/>
<polygon fill="midnightblue" stroke="midnightblue" points="456.22,-169.704 450.077,-178.336 460.262,-175.419 456.22,-169.704"/>
</g>
<!-- Node3 -->
<g id="node3" class="node"><title>Node3</title>
<g id="a_node3"><a xlink:href="App_8xaml_8cpp.html" target="_top" xlink:title="/home/travis/build\l/ComPWA/ComPWA/ThirdParty\l/tbb/examples/parallel_for\l/tachyon/msvs/win8ui/App.xaml.cpp">
<polygon fill="white" stroke="black" points="0,-0.5 0,-52.5 187,-52.5 187,-0.5 0,-0.5"/>
<text text-anchor="start" x="8" y="-40.5" font-family="Helvetica,sans-Serif" font-size="10.00">/home/travis/build</text>
<text text-anchor="start" x="8" y="-29.5" font-family="Helvetica,sans-Serif" font-size="10.00">/ComPWA/ComPWA/ThirdParty</text>
<text text-anchor="start" x="8" y="-18.5" font-family="Helvetica,sans-Serif" font-size="10.00">/tbb/examples/parallel_for</text>
<text text-anchor="middle" x="93.5" y="-7.5" font-family="Helvetica,sans-Serif" font-size="10.00">/tachyon/msvs/win8ui/App.xaml.cpp</text>
</a>
</g>
</g>
<!-- Node2&#45;&gt;Node3 -->
<g id="edge2" class="edge"><title>Node2&#45;&gt;Node3</title>
<path fill="none" stroke="midnightblue" d="M226.019,-85.4355C201.625,-74.7708 174.245,-62.8004 150.732,-52.5211"/>
<polygon fill="midnightblue" stroke="midnightblue" points="224.643,-88.6538 235.208,-89.4527 227.447,-82.24 224.643,-88.6538"/>
</g>
<!-- Node4 -->
<g id="node4" class="node"><title>Node4</title>
<g id="a_node4"><a xlink:href="App_8xaml_8h.html" target="_top" xlink:title="/home/travis/build\l/ComPWA/ComPWA/ThirdParty\l/tbb/examples/parallel_for\l/tachyon/msvs/win8ui/App.xaml.h">
<polygon fill="white" stroke="red" points="204.5,-0.5 204.5,-52.5 380.5,-52.5 380.5,-0.5 204.5,-0.5"/>
<text text-anchor="start" x="212.5" y="-40.5" font-family="Helvetica,sans-Serif" font-size="10.00">/home/travis/build</text>
<text text-anchor="start" x="212.5" y="-29.5" font-family="Helvetica,sans-Serif" font-size="10.00">/ComPWA/ComPWA/ThirdParty</text>
<text text-anchor="start" x="212.5" y="-18.5" font-family="Helvetica,sans-Serif" font-size="10.00">/tbb/examples/parallel_for</text>
<text text-anchor="middle" x="292.5" y="-7.5" font-family="Helvetica,sans-Serif" font-size="10.00">/tachyon/msvs/win8ui/App.xaml.h</text>
</a>
</g>
</g>
<!-- Node2&#45;&gt;Node4 -->
<g id="edge3" class="edge"><title>Node2&#45;&gt;Node4</title>
<path fill="none" stroke="midnightblue" d="M292.5,-79.1908C292.5,-70.2824 292.5,-60.8986 292.5,-52.6075"/>
<polygon fill="midnightblue" stroke="midnightblue" points="289,-79.336 292.5,-89.336 296,-79.336 289,-79.336"/>
</g>
<!-- Node5 -->
<g id="node5" class="node"><title>Node5</title>
<g id="a_node5"><a xlink:href="DirectXPage_8xaml_8cpp.html" target="_top" xlink:title="/home/travis/build\l/ComPWA/ComPWA/ThirdParty\l/tbb/examples/parallel_for\l/tachyon/msvs/win8ui/DirectXPage.xaml.cpp">
<polygon fill="white" stroke="black" points="398.5,-0.5 398.5,-52.5 624.5,-52.5 624.5,-0.5 398.5,-0.5"/>
<text text-anchor="start" x="406.5" y="-40.5" font-family="Helvetica,sans-Serif" font-size="10.00">/home/travis/build</text>
<text text-anchor="start" x="406.5" y="-29.5" font-family="Helvetica,sans-Serif" font-size="10.00">/ComPWA/ComPWA/ThirdParty</text>
<text text-anchor="start" x="406.5" y="-18.5" font-family="Helvetica,sans-Serif" font-size="10.00">/tbb/examples/parallel_for</text>
<text text-anchor="middle" x="511.5" y="-7.5" font-family="Helvetica,sans-Serif" font-size="10.00">/tachyon/msvs/win8ui/DirectXPage.xaml.cpp</text>
</a>
</g>
</g>
<!-- Node2&#45;&gt;Node5 -->
<g id="edge4" class="edge"><title>Node2&#45;&gt;Node5</title>
<path fill="none" stroke="midnightblue" d="M364.953,-85.7171C391.977,-74.9819 422.412,-62.891 448.516,-52.5211"/>
<polygon fill="midnightblue" stroke="midnightblue" points="363.551,-82.508 355.55,-89.4527 366.136,-89.0134 363.551,-82.508"/>
</g>
</g>
</svg>
