<?xml version="1.0" encoding="UTF-8" standalone="no"?>
<!DOCTYPE svg PUBLIC "-//W3C//DTD SVG 1.1//EN"
 "http://www.w3.org/Graphics/SVG/1.1/DTD/svg11.dtd">
<!-- Generated by graphviz version 2.38.0 (20140413.2041)
 -->
<!-- Title: /home/travis/build/ComPWA/ComPWA/ThirdParty/qft++/include/qft++/Tensor.h Pages: 1 -->
<svg width="520pt" height="206pt"
 viewBox="0.00 0.00 519.50 206.00" xmlns="http://www.w3.org/2000/svg" xmlns:xlink="http://www.w3.org/1999/xlink">
<g id="graph0" class="graph" transform="scale(1 1) rotate(0) translate(4 202)">
<title>/home/travis/build/ComPWA/ComPWA/ThirdParty/qft++/include/qft++/Tensor.h</title>
<polygon fill="white" stroke="none" points="-4,4 -4,-202 515.5,-202 515.5,4 -4,4"/>
<!-- Node1 -->
<g id="node1" class="node"><title>Node1</title>
<polygon fill="#bfbfbf" stroke="black" points="121,-156.5 121,-197.5 281,-197.5 281,-156.5 121,-156.5"/>
<text text-anchor="start" x="129" y="-185.5" font-family="Helvetica,sans-Serif" font-size="10.00">/home/travis/build</text>
<text text-anchor="start" x="129" y="-174.5" font-family="Helvetica,sans-Serif" font-size="10.00">/ComPWA/ComPWA/ThirdParty</text>
<text text-anchor="middle" x="201" y="-163.5" font-family="Helvetica,sans-Serif" font-size="10.00">/qft++/include/qft++/Tensor.h</text>
</g>
<!-- Node2 -->
<g id="node2" class="node"><title>Node2</title>
<g id="a_node2"><a xlink:href="SpecialTensors_8h.html" target="_top" xlink:title="Definition file for some special tensors derived from Tensor. ">
<polygon fill="white" stroke="black" points="0,-78.5 0,-119.5 200,-119.5 200,-78.5 0,-78.5"/>
<text text-anchor="start" x="8" y="-107.5" font-family="Helvetica,sans-Serif" font-size="10.00">/home/travis/build</text>
<text text-anchor="start" x="8" y="-96.5" font-family="Helvetica,sans-Serif" font-size="10.00">/ComPWA/ComPWA/ThirdParty</text>
<text text-anchor="middle" x="100" y="-85.5" font-family="Helvetica,sans-Serif" font-size="10.00">/qft++/include/qft++/SpecialTensors.h</text>
</a>
</g>
</g>
<!-- Node1&#45;&gt;Node2 -->
<g id="edge1" class="edge"><title>Node1&#45;&gt;Node2</title>
<path fill="none" stroke="midnightblue" d="M166.913,-150.35C153.519,-140.272 138.397,-128.893 125.922,-119.506"/>
<polygon fill="midnightblue" stroke="midnightblue" points="164.895,-153.212 174.99,-156.428 169.104,-147.619 164.895,-153.212"/>
</g>
<!-- Node3 -->
<g id="node3" class="node"><title>Node3</title>
<g id="a_node3"><a xlink:href="Vector4_8h.html" target="_top" xlink:title="Vector4 template class definition file. ">
<polygon fill="white" stroke="black" points="218.5,-78.5 218.5,-119.5 385.5,-119.5 385.5,-78.5 218.5,-78.5"/>
<text text-anchor="start" x="226.5" y="-107.5" font-family="Helvetica,sans-Serif" font-size="10.00">/home/travis/build</text>
<text text-anchor="start" x="226.5" y="-96.5" font-family="Helvetica,sans-Serif" font-size="10.00">/ComPWA/ComPWA/ThirdParty</text>
<text text-anchor="middle" x="302" y="-85.5" font-family="Helvetica,sans-Serif" font-size="10.00">/qft++/include/qft++/Vector4.h</text>
</a>
</g>
</g>
<!-- Node1&#45;&gt;Node3 -->
<g id="edge2" class="edge"><title>Node1&#45;&gt;Node3</title>
<path fill="none" stroke="midnightblue" d="M235.087,-150.35C248.481,-140.272 263.603,-128.893 276.078,-119.506"/>
<polygon fill="midnightblue" stroke="midnightblue" points="232.896,-147.619 227.01,-156.428 237.105,-153.212 232.896,-147.619"/>
</g>
<!-- Node4 -->
<g id="node4" class="node"><title>Node4</title>
<g id="a_node4"><a xlink:href="DalitzKinematics_8cpp.html" target="_top" xlink:title="/home/travis/build\l/ComPWA/ComPWA/Physics\l/EvtGen/DalitzKinematics.cpp">
<polygon fill="white" stroke="black" points="121.5,-0.5 121.5,-41.5 278.5,-41.5 278.5,-0.5 121.5,-0.5"/>
<text text-anchor="start" x="129.5" y="-29.5" font-family="Helvetica,sans-Serif" font-size="10.00">/home/travis/build</text>
<text text-anchor="start" x="129.5" y="-18.5" font-family="Helvetica,sans-Serif" font-size="10.00">/ComPWA/ComPWA/Physics</text>
<text text-anchor="middle" x="200" y="-7.5" font-family="Helvetica,sans-Serif" font-size="10.00">/EvtGen/DalitzKinematics.cpp</text>
</a>
</g>
</g>
<!-- Node3&#45;&gt;Node4 -->
<g id="edge3" class="edge"><title>Node3&#45;&gt;Node4</title>
<path fill="none" stroke="midnightblue" d="M267.575,-72.3503C254.049,-62.2719 238.777,-50.893 226.179,-41.5056"/>
<polygon fill="midnightblue" stroke="midnightblue" points="265.622,-75.2599 275.732,-78.4281 269.805,-69.6467 265.622,-75.2599"/>
</g>
<!-- Node5 -->
<g id="node5" class="node"><title>Node5</title>
<g id="a_node5"><a xlink:href="HelicityKinematics_8cpp.html" target="_top" xlink:title="/home/travis/build\l/ComPWA/ComPWA/Physics\l/HelicityFormalism/HelicityKinematics.cpp">
<polygon fill="white" stroke="black" points="296.5,-0.5 296.5,-41.5 511.5,-41.5 511.5,-0.5 296.5,-0.5"/>
<text text-anchor="start" x="304.5" y="-29.5" font-family="Helvetica,sans-Serif" font-size="10.00">/home/travis/build</text>
<text text-anchor="start" x="304.5" y="-18.5" font-family="Helvetica,sans-Serif" font-size="10.00">/ComPWA/ComPWA/Physics</text>
<text text-anchor="middle" x="404" y="-7.5" font-family="Helvetica,sans-Serif" font-size="10.00">/HelicityFormalism/HelicityKinematics.cpp</text>
</a>
</g>
</g>
<!-- Node3&#45;&gt;Node5 -->
<g id="edge4" class="edge"><title>Node3&#45;&gt;Node5</title>
<path fill="none" stroke="midnightblue" d="M336.425,-72.3503C349.951,-62.2719 365.223,-50.893 377.821,-41.5056"/>
<polygon fill="midnightblue" stroke="midnightblue" points="334.195,-69.6467 328.268,-78.4281 338.378,-75.2599 334.195,-69.6467"/>
</g>
</g>
</svg>
