<?xml version="1.0" encoding="UTF-8" standalone="no"?>
<!DOCTYPE svg PUBLIC "-//W3C//DTD SVG 1.1//EN"
 "http://www.w3.org/Graphics/SVG/1.1/DTD/svg11.dtd">
<!-- Generated by graphviz version 2.38.0 (20140413.2041)
 -->
<!-- Title: /home/travis/build/ComPWA/ComPWA/ThirdParty/tbb/examples/parallel_for/tachyon/src/tgafile.cpp Pages: 1 -->
<svg width="512pt" height="229pt"
 viewBox="0.00 0.00 512.00 229.00" xmlns="http://www.w3.org/2000/svg" xmlns:xlink="http://www.w3.org/1999/xlink">
<g id="graph0" class="graph" transform="scale(1 1) rotate(0) translate(4 225)">
<title>/home/travis/build/ComPWA/ComPWA/ThirdParty/tbb/examples/parallel_for/tachyon/src/tgafile.cpp</title>
<polygon fill="white" stroke="none" points="-4,4 -4,-225 508,-225 508,4 -4,4"/>
<!-- Node1 -->
<g id="node1" class="node"><title>Node1</title>
<polygon fill="#bfbfbf" stroke="black" points="224.5,-168.5 224.5,-220.5 382.5,-220.5 382.5,-168.5 224.5,-168.5"/>
<text text-anchor="start" x="232.5" y="-208.5" font-family="Helvetica,sans-Serif" font-size="10.00">/home/travis/build</text>
<text text-anchor="start" x="232.5" y="-197.5" font-family="Helvetica,sans-Serif" font-size="10.00">/ComPWA/ComPWA/ThirdParty</text>
<text text-anchor="start" x="232.5" y="-186.5" font-family="Helvetica,sans-Serif" font-size="10.00">/tbb/examples/parallel_for</text>
<text text-anchor="middle" x="303.5" y="-175.5" font-family="Helvetica,sans-Serif" font-size="10.00">/tachyon/src/tgafile.cpp</text>
</g>
<!-- Node2 -->
<g id="node2" class="node"><title>Node2</title>
<g id="a_node2"><a xlink:href="machine_8h.html" target="_top" xlink:title="machine.h">
<polygon fill="white" stroke="black" points="195,-56.5 195,-75.5 262,-75.5 262,-56.5 195,-56.5"/>
<text text-anchor="middle" x="228.5" y="-63.5" font-family="Helvetica,sans-Serif" font-size="10.00">machine.h</text>
</a>
</g>
</g>
<!-- Node1&#45;&gt;Node2 -->
<g id="edge1" class="edge"><title>Node1&#45;&gt;Node2</title>
<path fill="none" stroke="midnightblue" d="M275.781,-168.351C265.676,-157.943 254.922,-145.222 247.5,-132 239.407,-117.583 234.472,-99.3912 231.668,-85.9222"/>
<polygon fill="midnightblue" stroke="midnightblue" points="235.073,-85.0897 229.79,-75.9055 228.192,-86.3792 235.073,-85.0897"/>
</g>
<!-- Node10 -->
<g id="node10" class="node"><title>Node10</title>
<g id="a_node10"><a xlink:href="types_8h.html" target="_top" xlink:title="types.h">
<polygon fill="white" stroke="black" points="136.5,-112.5 136.5,-131.5 188.5,-131.5 188.5,-112.5 136.5,-112.5"/>
<text text-anchor="middle" x="162.5" y="-119.5" font-family="Helvetica,sans-Serif" font-size="10.00">types.h</text>
</a>
</g>
</g>
<!-- Node1&#45;&gt;Node10 -->
<g id="edge9" class="edge"><title>Node1&#45;&gt;Node10</title>
<path fill="none" stroke="midnightblue" d="M253.392,-168.446C231.619,-157.56 207.007,-145.254 188.891,-136.196"/>
<polygon fill="midnightblue" stroke="midnightblue" points="190.063,-132.869 179.554,-131.527 186.933,-139.13 190.063,-132.869"/>
</g>
<!-- Node12 -->
<g id="node12" class="node"><title>Node12</title>
<g id="a_node12"><a xlink:href="util_8h.html" target="_top" xlink:title="util.h">
<polygon fill="white" stroke="black" points="256.5,-112.5 256.5,-131.5 296.5,-131.5 296.5,-112.5 256.5,-112.5"/>
<text text-anchor="middle" x="276.5" y="-119.5" font-family="Helvetica,sans-Serif" font-size="10.00">util.h</text>
</a>
</g>
</g>
<!-- Node1&#45;&gt;Node12 -->
<g id="edge11" class="edge"><title>Node1&#45;&gt;Node12</title>
<path fill="none" stroke="midnightblue" d="M293.905,-168.446C290.452,-159.43 286.626,-149.44 283.442,-141.127"/>
<polygon fill="midnightblue" stroke="midnightblue" points="286.675,-139.782 279.83,-131.695 280.138,-142.286 286.675,-139.782"/>
</g>
<!-- Node15 -->
<g id="node15" class="node"><title>Node15</title>
<g id="a_node15"><a xlink:href="ui_8h.html" target="_top" xlink:title="ui.h">
<polygon fill="white" stroke="black" points="314.5,-112.5 314.5,-131.5 348.5,-131.5 348.5,-112.5 314.5,-112.5"/>
<text text-anchor="middle" x="331.5" y="-119.5" font-family="Helvetica,sans-Serif" font-size="10.00">ui.h</text>
</a>
</g>
</g>
<!-- Node1&#45;&gt;Node15 -->
<g id="edge15" class="edge"><title>Node1&#45;&gt;Node15</title>
<path fill="none" stroke="midnightblue" d="M313.451,-168.446C317.032,-159.43 320.999,-149.44 324.3,-141.127"/>
<polygon fill="midnightblue" stroke="midnightblue" points="327.608,-142.281 328.046,-131.695 321.102,-139.697 327.608,-142.281"/>
</g>
<!-- Node16 -->
<g id="node16" class="node"><title>Node16</title>
<g id="a_node16"><a xlink:href="imageio_8h.html" target="_top" xlink:title="imageio.h">
<polygon fill="white" stroke="black" points="366.5,-112.5 366.5,-131.5 430.5,-131.5 430.5,-112.5 366.5,-112.5"/>
<text text-anchor="middle" x="398.5" y="-119.5" font-family="Helvetica,sans-Serif" font-size="10.00">imageio.h</text>
</a>
</g>
</g>
<!-- Node1&#45;&gt;Node16 -->
<g id="edge16" class="edge"><title>Node1&#45;&gt;Node16</title>
<path fill="none" stroke="midnightblue" d="M337.261,-168.446C351.03,-158.227 366.485,-146.758 378.424,-137.898"/>
<polygon fill="midnightblue" stroke="midnightblue" points="380.838,-140.465 386.783,-131.695 376.667,-134.844 380.838,-140.465"/>
</g>
<!-- Node17 -->
<g id="node17" class="node"><title>Node17</title>
<g id="a_node17"><a xlink:href="tgafile_8h.html" target="_top" xlink:title="tgafile.h">
<polygon fill="white" stroke="black" points="449,-112.5 449,-131.5 504,-131.5 504,-112.5 449,-112.5"/>
<text text-anchor="middle" x="476.5" y="-119.5" font-family="Helvetica,sans-Serif" font-size="10.00">tgafile.h</text>
</a>
</g>
</g>
<!-- Node1&#45;&gt;Node17 -->
<g id="edge17" class="edge"><title>Node1&#45;&gt;Node17</title>
<path fill="none" stroke="midnightblue" d="M364.98,-168.446C392.56,-157.207 423.853,-144.455 446.255,-135.325"/>
<polygon fill="midnightblue" stroke="midnightblue" points="447.636,-138.542 455.576,-131.527 444.994,-132.06 447.636,-138.542"/>
</g>
<!-- Node3 -->
<g id="node3" class="node"><title>Node3</title>
<polygon fill="white" stroke="#bfbfbf" points="0,-0.5 0,-19.5 49,-19.5 49,-0.5 0,-0.5"/>
<text text-anchor="middle" x="24.5" y="-7.5" font-family="Helvetica,sans-Serif" font-size="10.00">stdio.h</text>
</g>
<!-- Node2&#45;&gt;Node3 -->
<g id="edge2" class="edge"><title>Node2&#45;&gt;Node3</title>
<path fill="none" stroke="midnightblue" d="M195.695,-56.46C163.272,-47.999 111.993,-34.5627 58.927,-20.3669"/>
<polygon fill="midnightblue" stroke="midnightblue" points="59.5668,-16.9149 49.0017,-17.7084 57.7557,-23.6766 59.5668,-16.9149"/>
</g>
<!-- Node4 -->
<g id="node4" class="node"><title>Node4</title>
<polygon fill="white" stroke="#bfbfbf" points="67,-0.5 67,-19.5 114,-19.5 114,-0.5 67,-0.5"/>
<text text-anchor="middle" x="90.5" y="-7.5" font-family="Helvetica,sans-Serif" font-size="10.00">cstdlib</text>
</g>
<!-- Node2&#45;&gt;Node4 -->
<g id="edge3" class="edge"><title>Node2&#45;&gt;Node4</title>
<path fill="none" stroke="midnightblue" d="M206.633,-56.4435C183.721,-47.4776 147.525,-33.314 121.634,-23.1827"/>
<polygon fill="midnightblue" stroke="midnightblue" points="122.852,-19.9011 112.264,-19.5164 120.301,-26.4198 122.852,-19.9011"/>
</g>
<!-- Node5 -->
<g id="node5" class="node"><title>Node5</title>
<polygon fill="white" stroke="#bfbfbf" points="132,-0.5 132,-19.5 185,-19.5 185,-0.5 132,-0.5"/>
<text text-anchor="middle" x="158.5" y="-7.5" font-family="Helvetica,sans-Serif" font-size="10.00">string.h</text>
</g>
<!-- Node2&#45;&gt;Node5 -->
<g id="edge4" class="edge"><title>Node2&#45;&gt;Node5</title>
<path fill="none" stroke="midnightblue" d="M217.253,-56.324C206.703,-48.1849 190.699,-35.8395 178.058,-26.0874"/>
<polygon fill="midnightblue" stroke="midnightblue" points="180.007,-23.1707 169.951,-19.8339 175.731,-28.7132 180.007,-23.1707"/>
</g>
<!-- Node6 -->
<g id="node6" class="node"><title>Node6</title>
<polygon fill="white" stroke="#bfbfbf" points="203,-0.5 203,-19.5 254,-19.5 254,-0.5 203,-0.5"/>
<text text-anchor="middle" x="228.5" y="-7.5" font-family="Helvetica,sans-Serif" font-size="10.00">math.h</text>
</g>
<!-- Node2&#45;&gt;Node6 -->
<g id="edge5" class="edge"><title>Node2&#45;&gt;Node6</title>
<path fill="none" stroke="midnightblue" d="M228.5,-56.083C228.5,-49.0059 228.5,-38.8611 228.5,-29.9865"/>
<polygon fill="midnightblue" stroke="midnightblue" points="232,-29.751 228.5,-19.7511 225,-29.7511 232,-29.751"/>
</g>
<!-- Node7 -->
<g id="node7" class="node"><title>Node7</title>
<polygon fill="white" stroke="#bfbfbf" points="272,-0.5 272,-19.5 343,-19.5 343,-0.5 272,-0.5"/>
<text text-anchor="middle" x="307.5" y="-7.5" font-family="Helvetica,sans-Serif" font-size="10.00">sys/types.h</text>
</g>
<!-- Node2&#45;&gt;Node7 -->
<g id="edge6" class="edge"><title>Node2&#45;&gt;Node7</title>
<path fill="none" stroke="midnightblue" d="M241.193,-56.324C253.401,-47.979 272.078,-35.2122 286.503,-25.3524"/>
<polygon fill="midnightblue" stroke="midnightblue" points="288.558,-28.1871 294.839,-19.6545 284.608,-22.4082 288.558,-28.1871"/>
</g>
<!-- Node8 -->
<g id="node8" class="node"><title>Node8</title>
<polygon fill="white" stroke="#bfbfbf" points="361,-0.5 361,-19.5 424,-19.5 424,-0.5 361,-0.5"/>
<text text-anchor="middle" x="392.5" y="-7.5" font-family="Helvetica,sans-Serif" font-size="10.00">sys/stat.h</text>
</g>
<!-- Node2&#45;&gt;Node8 -->
<g id="edge7" class="edge"><title>Node2&#45;&gt;Node8</title>
<path fill="none" stroke="midnightblue" d="M254.486,-56.4435C282.196,-47.3196 326.252,-32.8133 357.116,-22.6509"/>
<polygon fill="midnightblue" stroke="midnightblue" points="358.232,-25.9684 366.635,-19.5164 356.042,-19.3196 358.232,-25.9684"/>
</g>
<!-- Node9 -->
<g id="node9" class="node"><title>Node9</title>
<polygon fill="white" stroke="#bfbfbf" points="442.5,-0.5 442.5,-19.5 488.5,-19.5 488.5,-0.5 442.5,-0.5"/>
<text text-anchor="middle" x="465.5" y="-7.5" font-family="Helvetica,sans-Serif" font-size="10.00">fcntl.h</text>
</g>
<!-- Node2&#45;&gt;Node9 -->
<g id="edge8" class="edge"><title>Node2&#45;&gt;Node9</title>
<path fill="none" stroke="midnightblue" d="M262.329,-57.8238C308.114,-48.0721 388.337,-30.8363 432.564,-20.0993"/>
<polygon fill="midnightblue" stroke="midnightblue" points="433.603,-23.4478 442.471,-17.6495 431.923,-16.6525 433.603,-23.4478"/>
</g>
<!-- Node11 -->
<g id="node11" class="node"><title>Node11</title>
<polygon fill="white" stroke="#bfbfbf" points="124,-56.5 124,-75.5 177,-75.5 177,-56.5 124,-56.5"/>
<text text-anchor="middle" x="150.5" y="-63.5" font-family="Helvetica,sans-Serif" font-size="10.00">alloca.h</text>
</g>
<!-- Node10&#45;&gt;Node11 -->
<g id="edge10" class="edge"><title>Node10&#45;&gt;Node11</title>
<path fill="none" stroke="midnightblue" d="M160.518,-112.083C158.928,-104.927 156.641,-94.6353 154.654,-85.6911"/>
<polygon fill="midnightblue" stroke="midnightblue" points="158.031,-84.7537 152.445,-75.7511 151.197,-86.2722 158.031,-84.7537"/>
</g>
<!-- Node12&#45;&gt;Node2 -->
<g id="edge12" class="edge"><title>Node12&#45;&gt;Node2</title>
<path fill="none" stroke="midnightblue" d="M268.574,-112.083C261.654,-104.298 251.435,-92.8015 243.048,-83.3665"/>
<polygon fill="midnightblue" stroke="midnightblue" points="245.538,-80.8999 236.279,-75.7511 240.306,-85.5505 245.538,-80.8999"/>
</g>
<!-- Node13 -->
<g id="node13" class="node"><title>Node13</title>
<polygon fill="white" stroke="#bfbfbf" points="280.5,-56.5 280.5,-75.5 346.5,-75.5 346.5,-56.5 280.5,-56.5"/>
<text text-anchor="middle" x="313.5" y="-63.5" font-family="Helvetica,sans-Serif" font-size="10.00">sys/time.h</text>
</g>
<!-- Node12&#45;&gt;Node13 -->
<g id="edge13" class="edge"><title>Node12&#45;&gt;Node13</title>
<path fill="none" stroke="midnightblue" d="M282.61,-112.083C287.782,-104.534 295.346,-93.4948 301.694,-84.2298"/>
<polygon fill="midnightblue" stroke="midnightblue" points="304.739,-85.9787 307.504,-75.7511 298.964,-82.0221 304.739,-85.9787"/>
</g>
<!-- Node14 -->
<g id="node14" class="node"><title>Node14</title>
<polygon fill="white" stroke="#bfbfbf" points="365,-56.5 365,-75.5 420,-75.5 420,-56.5 365,-56.5"/>
<text text-anchor="middle" x="392.5" y="-63.5" font-family="Helvetica,sans-Serif" font-size="10.00">unistd.h</text>
</g>
<!-- Node12&#45;&gt;Node14 -->
<g id="edge14" class="edge"><title>Node12&#45;&gt;Node14</title>
<path fill="none" stroke="midnightblue" d="M294.881,-112.444C313.716,-103.675 343.231,-89.9355 364.879,-79.8579"/>
<polygon fill="midnightblue" stroke="midnightblue" points="366.617,-82.9098 374.205,-75.5164 363.662,-76.5637 366.617,-82.9098"/>
</g>
</g>
</svg>
