<?xml version="1.0" encoding="UTF-8" standalone="no"?>
<!DOCTYPE svg PUBLIC "-//W3C//DTD SVG 1.1//EN"
 "http://www.w3.org/Graphics/SVG/1.1/DTD/svg11.dtd">
<!-- Generated by graphviz version 2.38.0 (20140413.2041)
 -->
<!-- Title: /home/travis/build/ComPWA/ComPWA/ThirdParty/tbb/src/tbb/tls.h Pages: 1 -->
<svg width="166pt" height="117pt"
 viewBox="0.00 0.00 166.00 117.00" xmlns="http://www.w3.org/2000/svg" xmlns:xlink="http://www.w3.org/1999/xlink">
<g id="graph0" class="graph" transform="scale(1 1) rotate(0) translate(4 113)">
<title>/home/travis/build/ComPWA/ComPWA/ThirdParty/tbb/src/tbb/tls.h</title>
<polygon fill="white" stroke="none" points="-4,4 -4,-113 162,-113 162,4 -4,4"/>
<!-- Node1 -->
<g id="node1" class="node"><title>Node1</title>
<polygon fill="#bfbfbf" stroke="black" points="-1.42109e-14,-67.5 -1.42109e-14,-108.5 158,-108.5 158,-67.5 -1.42109e-14,-67.5"/>
<text text-anchor="start" x="8" y="-96.5" font-family="Helvetica,sans-Serif" font-size="10.00">/home/travis/build</text>
<text text-anchor="start" x="8" y="-85.5" font-family="Helvetica,sans-Serif" font-size="10.00">/ComPWA/ComPWA/ThirdParty</text>
<text text-anchor="middle" x="79" y="-74.5" font-family="Helvetica,sans-Serif" font-size="10.00">/tbb/src/tbb/tls.h</text>
</g>
<!-- Node2 -->
<g id="node2" class="node"><title>Node2</title>
<g id="a_node2"><a xlink:href="windows__api_8h.html" target="_top" xlink:title="tbb/machine/windows\l_api.h">
<polygon fill="white" stroke="black" points="19.5,-0.5 19.5,-30.5 138.5,-30.5 138.5,-0.5 19.5,-0.5"/>
<text text-anchor="start" x="27.5" y="-18.5" font-family="Helvetica,sans-Serif" font-size="10.00">tbb/machine/windows</text>
<text text-anchor="middle" x="79" y="-7.5" font-family="Helvetica,sans-Serif" font-size="10.00">_api.h</text>
</a>
</g>
</g>
<!-- Node1&#45;&gt;Node2 -->
<g id="edge1" class="edge"><title>Node1&#45;&gt;Node2</title>
<path fill="none" stroke="midnightblue" d="M79,-67.3618C79,-59.226 79,-49.6997 79,-41.105"/>
<polygon fill="midnightblue" stroke="midnightblue" points="82.5001,-40.8916 79,-30.8916 75.5001,-40.8916 82.5001,-40.8916"/>
</g>
</g>
</svg>
