<?xml version="1.0" encoding="UTF-8" standalone="no"?>
<!DOCTYPE svg PUBLIC "-//W3C//DTD SVG 1.1//EN"
 "http://www.w3.org/Graphics/SVG/1.1/DTD/svg11.dtd">
<!-- Generated by graphviz version 2.38.0 (20140413.2041)
 -->
<!-- Title: /home/travis/build/ComPWA/ComPWA/ThirdParty/tbb/examples/parallel_for/tachyon/src/trace.tbb.cpp Pages: 1 -->
<!--zoomable 363 -->
<svg id="main" version="1.1" xmlns="http://www.w3.org/2000/svg" xmlns:xlink="http://www.w3.org/1999/xlink" xml:space="preserve" onload="init(evt)">
<style type="text/css"><![CDATA[
.edge:hover path { stroke: red; }
.edge:hover polygon { stroke: red; fill: red; }
]]></style>
<script type="text/javascript"><![CDATA[
var edges = document.getElementsByTagName('g');
if (edges && edges.length) {
  for (var i=0;i<edges.length;i++) {
    if (edges[i].id.substr(0,4)=='edge') {
      edges[i].setAttribute('class','edge');
    }
  }
}
]]></script>
        <defs>
                <circle id="rim" cx="0" cy="0" r="7"/>
                <circle id="rim2" cx="0" cy="0" r="3.5"/>
                <g id="zoomPlus">
                        <use xlink:href="#rim" fill="#404040">
                                <set attributeName="fill" to="#808080" begin="zoomplus.mouseover" end="zoomplus.mouseout"/>
                        </use>
                        <path d="M-4,0h8M0,-4v8" fill="none" stroke="white" stroke-width="1.5" pointer-events="none"/>
                </g>
                <g id="zoomMin">
                        <use xlink:href="#rim" fill="#404040">
                                <set attributeName="fill" to="#808080" begin="zoomminus.mouseover" end="zoomminus.mouseout"/>
                        </use>
                        <path d="M-4,0h8" fill="none" stroke="white" stroke-width="1.5" pointer-events="none"/>
                </g>
                <g id="dirArrow">
                        <path fill="none" stroke="white" stroke-width="1.5" d="M0,-3.0v7 M-2.5,-0.5L0,-3.0L2.5,-0.5"/>
                </g>
               <g id="resetDef">
                       <use xlink:href="#rim2" fill="#404040">
                               <set attributeName="fill" to="#808080" begin="reset.mouseover" end="reset.mouseout"/>
                       </use>
               </g>
        </defs>

<script type="text/javascript">
var viewWidth = 1847;
var viewHeight = 363;
var sectionId = 'dynsection-0';
</script>
<script xlink:href="svgpan.js"/>
<svg id="graph" class="graph">
<g id="viewport">
<title>/home/travis/build/ComPWA/ComPWA/ThirdParty/tbb/examples/parallel_for/tachyon/src/trace.tbb.cpp</title>
<polygon fill="white" stroke="none" points="-4,4 -4,-359 1843.04,-359 1843.04,4 -4,4"/>
<!-- Node1 -->
<g id="node1" class="node"><title>Node1</title>
<polygon fill="#bfbfbf" stroke="black" points="659.5,-302.5 659.5,-354.5 817.5,-354.5 817.5,-302.5 659.5,-302.5"/>
<text text-anchor="start" x="667.5" y="-342.5" font-family="Helvetica,sans-Serif" font-size="10.00">/home/travis/build</text>
<text text-anchor="start" x="667.5" y="-331.5" font-family="Helvetica,sans-Serif" font-size="10.00">/ComPWA/ComPWA/ThirdParty</text>
<text text-anchor="start" x="667.5" y="-320.5" font-family="Helvetica,sans-Serif" font-size="10.00">/tbb/examples/parallel_for</text>
<text text-anchor="middle" x="738.5" y="-309.5" font-family="Helvetica,sans-Serif" font-size="10.00">/tachyon/src/trace.tbb.cpp</text>
</g>
<!-- Node2 -->
<g id="node2" class="node"><title>Node2</title>
<g id="a_node2"><a xlink:href="machine_8h.html" target="_top" xlink:title="machine.h">
<polygon fill="white" stroke="black" points="262,-174 262,-193 329,-193 329,-174 262,-174"/>
<text text-anchor="middle" x="295.5" y="-181" font-family="Helvetica,sans-Serif" font-size="10.00">machine.h</text>
</a>
</g>
</g>
<!-- Node1&#45;&gt;Node2 -->
<g id="edge1" class="edge"><title>Node1&#45;&gt;Node2</title>
<path fill="none" stroke="midnightblue" d="M659.381,-327.138C548.666,-324.871 355.642,-313.928 307.5,-266 291.217,-249.789 290.645,-221.827 292.478,-203.248"/>
<polygon fill="midnightblue" stroke="midnightblue" points="295.981,-203.451 293.811,-193.081 289.04,-202.541 295.981,-203.451"/>
</g>
<!-- Node10 -->
<g id="node10" class="node"><title>Node10</title>
<g id="a_node10"><a xlink:href="types_8h.html" target="_top" xlink:title="types.h">
<polygon fill="white" stroke="black" points="316.5,-241 316.5,-260 368.5,-260 368.5,-241 316.5,-241"/>
<text text-anchor="middle" x="342.5" y="-248" font-family="Helvetica,sans-Serif" font-size="10.00">types.h</text>
</a>
</g>
</g>
<!-- Node1&#45;&gt;Node10 -->
<g id="edge9" class="edge"><title>Node1&#45;&gt;Node10</title>
<path fill="none" stroke="midnightblue" d="M659.193,-319.172C585.278,-310.198 472.491,-293.392 377.5,-266 375.207,-265.339 372.861,-264.574 370.523,-263.748"/>
<polygon fill="midnightblue" stroke="midnightblue" points="371.704,-260.452 361.114,-260.117 369.184,-266.982 371.704,-260.452"/>
</g>
<!-- Node12 -->
<g id="node12" class="node"><title>Node12</title>
<g id="a_node12"><a xlink:href="macros_8h.html" target="_top" xlink:title="macros.h">
<polygon fill="white" stroke="black" points="386.5,-241 386.5,-260 448.5,-260 448.5,-241 386.5,-241"/>
<text text-anchor="middle" x="417.5" y="-248" font-family="Helvetica,sans-Serif" font-size="10.00">macros.h</text>
</a>
</g>
</g>
<!-- Node1&#45;&gt;Node12 -->
<g id="edge11" class="edge"><title>Node1&#45;&gt;Node12</title>
<path fill="none" stroke="midnightblue" d="M659.372,-313.089C602.682,-302.061 524.781,-285.465 457.5,-266 454.706,-265.192 451.825,-264.289 448.951,-263.34"/>
<polygon fill="midnightblue" stroke="midnightblue" points="449.929,-259.975 439.335,-260.006 447.636,-266.589 449.929,-259.975"/>
</g>
<!-- Node13 -->
<g id="node13" class="node"><title>Node13</title>
<g id="a_node13"><a xlink:href="vector_8h.html" target="_top" xlink:title="vector.h">
<polygon fill="white" stroke="black" points="467,-241 467,-260 522,-260 522,-241 467,-241"/>
<text text-anchor="middle" x="494.5" y="-248" font-family="Helvetica,sans-Serif" font-size="10.00">vector.h</text>
</a>
</g>
</g>
<!-- Node1&#45;&gt;Node13 -->
<g id="edge12" class="edge"><title>Node1&#45;&gt;Node13</title>
<path fill="none" stroke="midnightblue" d="M659.413,-306.037C620.335,-294.946 572.64,-280.679 530.5,-266 528.591,-265.335 526.635,-264.627 524.67,-263.895"/>
<polygon fill="midnightblue" stroke="midnightblue" points="525.522,-260.471 514.932,-260.123 522.993,-266.999 525.522,-260.471"/>
</g>
<!-- Node14 -->
<g id="node14" class="node"><title>Node14</title>
<g id="a_node14"><a xlink:href="tgafile_8h.html" target="_top" xlink:title="tgafile.h">
<polygon fill="white" stroke="black" points="540,-241 540,-260 595,-260 595,-241 540,-241"/>
<text text-anchor="middle" x="567.5" y="-248" font-family="Helvetica,sans-Serif" font-size="10.00">tgafile.h</text>
</a>
</g>
</g>
<!-- Node1&#45;&gt;Node14 -->
<g id="edge13" class="edge"><title>Node1&#45;&gt;Node14</title>
<path fill="none" stroke="midnightblue" d="M682.034,-302.404C653.263,-289.617 619.514,-274.618 596.139,-264.228"/>
<polygon fill="midnightblue" stroke="midnightblue" points="597.36,-260.941 586.8,-260.078 594.517,-267.338 597.36,-260.941"/>
</g>
<!-- Node15 -->
<g id="node15" class="node"><title>Node15</title>
<g id="a_node15"><a xlink:href="trace_8h.html" target="_top" xlink:title="trace.h">
<polygon fill="white" stroke="black" points="613.5,-241 613.5,-260 663.5,-260 663.5,-241 613.5,-241"/>
<text text-anchor="middle" x="638.5" y="-248" font-family="Helvetica,sans-Serif" font-size="10.00">trace.h</text>
</a>
</g>
</g>
<!-- Node1&#45;&gt;Node15 -->
<g id="edge14" class="edge"><title>Node1&#45;&gt;Node15</title>
<path fill="none" stroke="midnightblue" d="M705.479,-302.404C689.799,-290.487 671.59,-276.649 658.12,-266.411"/>
<polygon fill="midnightblue" stroke="midnightblue" points="660.106,-263.524 650.026,-260.26 655.87,-269.097 660.106,-263.524"/>
</g>
<!-- Node16 -->
<g id="node16" class="node"><title>Node16</title>
<g id="a_node16"><a xlink:href="light_8h.html" target="_top" xlink:title="light.h">
<polygon fill="white" stroke="black" points="681.5,-241 681.5,-260 727.5,-260 727.5,-241 681.5,-241"/>
<text text-anchor="middle" x="704.5" y="-248" font-family="Helvetica,sans-Serif" font-size="10.00">light.h</text>
</a>
</g>
</g>
<!-- Node1&#45;&gt;Node16 -->
<g id="edge15" class="edge"><title>Node1&#45;&gt;Node16</title>
<path fill="none" stroke="midnightblue" d="M727.178,-302.193C722.412,-291.538 716.972,-279.379 712.616,-269.641"/>
<polygon fill="midnightblue" stroke="midnightblue" points="715.675,-267.908 708.396,-260.209 709.285,-270.766 715.675,-267.908"/>
</g>
<!-- Node17 -->
<g id="node17" class="node"><title>Node17</title>
<g id="a_node17"><a xlink:href="shade_8h.html" target="_top" xlink:title="shade.h">
<polygon fill="white" stroke="black" points="746,-241 746,-260 801,-260 801,-241 746,-241"/>
<text text-anchor="middle" x="773.5" y="-248" font-family="Helvetica,sans-Serif" font-size="10.00">shade.h</text>
</a>
</g>
</g>
<!-- Node1&#45;&gt;Node17 -->
<g id="edge16" class="edge"><title>Node1&#45;&gt;Node17</title>
<path fill="none" stroke="midnightblue" d="M750.154,-302.193C755.114,-291.425 760.78,-279.12 765.288,-269.331"/>
<polygon fill="midnightblue" stroke="midnightblue" points="768.485,-270.756 769.489,-260.209 762.127,-267.828 768.485,-270.756"/>
</g>
<!-- Node18 -->
<g id="node18" class="node"><title>Node18</title>
<g id="a_node18"><a xlink:href="camera_8h.html" target="_top" xlink:title="camera.h">
<polygon fill="white" stroke="black" points="819.5,-241 819.5,-260 881.5,-260 881.5,-241 819.5,-241"/>
<text text-anchor="middle" x="850.5" y="-248" font-family="Helvetica,sans-Serif" font-size="10.00">camera.h</text>
</a>
</g>
</g>
<!-- Node1&#45;&gt;Node18 -->
<g id="edge17" class="edge"><title>Node1&#45;&gt;Node18</title>
<path fill="none" stroke="midnightblue" d="M775.483,-302.404C793.318,-290.302 814.073,-276.218 829.225,-265.937"/>
<polygon fill="midnightblue" stroke="midnightblue" points="831.549,-268.589 837.859,-260.078 827.619,-262.797 831.549,-268.589"/>
</g>
<!-- Node19 -->
<g id="node19" class="node"><title>Node19</title>
<g id="a_node19"><a xlink:href="util_8h.html" target="_top" xlink:title="util.h">
<polygon fill="white" stroke="black" points="80.5,-241 80.5,-260 120.5,-260 120.5,-241 80.5,-241"/>
<text text-anchor="middle" x="100.5" y="-248" font-family="Helvetica,sans-Serif" font-size="10.00">util.h</text>
</a>
</g>
</g>
<!-- Node1&#45;&gt;Node19 -->
<g id="edge18" class="edge"><title>Node1&#45;&gt;Node19</title>
<path fill="none" stroke="midnightblue" d="M659.311,-325.304C544.063,-320.77 323.968,-307.051 141.5,-266 137.822,-265.172 134.018,-264.116 130.278,-262.951"/>
<polygon fill="midnightblue" stroke="midnightblue" points="131.252,-259.586 120.658,-259.699 129.01,-266.217 131.252,-259.586"/>
</g>
<!-- Node22 -->
<g id="node22" class="node"><title>Node22</title>
<g id="a_node22"><a xlink:href="intersect_8h.html" target="_top" xlink:title="intersect.h">
<polygon fill="white" stroke="black" points="899.5,-241 899.5,-260 967.5,-260 967.5,-241 899.5,-241"/>
<text text-anchor="middle" x="933.5" y="-248" font-family="Helvetica,sans-Serif" font-size="10.00">intersect.h</text>
</a>
</g>
</g>
<!-- Node1&#45;&gt;Node22 -->
<g id="edge22" class="edge"><title>Node1&#45;&gt;Node22</title>
<path fill="none" stroke="midnightblue" d="M802.891,-302.404C836.139,-289.446 875.217,-274.215 901.906,-263.813"/>
<polygon fill="midnightblue" stroke="midnightblue" points="903.445,-266.97 911.491,-260.078 900.903,-260.448 903.445,-266.97"/>
</g>
<!-- Node23 -->
<g id="node23" class="node"><title>Node23</title>
<g id="a_node23"><a xlink:href="global_8h.html" target="_top" xlink:title="global.h">
<polygon fill="white" stroke="black" points="985.5,-241 985.5,-260 1039.5,-260 1039.5,-241 985.5,-241"/>
<text text-anchor="middle" x="1012.5" y="-248" font-family="Helvetica,sans-Serif" font-size="10.00">global.h</text>
</a>
</g>
</g>
<!-- Node1&#45;&gt;Node23 -->
<g id="edge23" class="edge"><title>Node1&#45;&gt;Node23</title>
<path fill="none" stroke="midnightblue" d="M817.767,-309.75C864.413,-298.629 924.307,-283.174 976.5,-266 978.632,-265.298 980.819,-264.534 983.01,-263.735"/>
<polygon fill="midnightblue" stroke="midnightblue" points="984.407,-266.948 992.488,-260.097 981.898,-260.413 984.407,-266.948"/>
</g>
<!-- Node24 -->
<g id="node24" class="node"><title>Node24</title>
<g id="a_node24"><a xlink:href="ui_8h.html" target="_top" xlink:title="ui.h">
<polygon fill="white" stroke="black" points="1057.5,-241 1057.5,-260 1091.5,-260 1091.5,-241 1057.5,-241"/>
<text text-anchor="middle" x="1074.5" y="-248" font-family="Helvetica,sans-Serif" font-size="10.00">ui.h</text>
</a>
</g>
</g>
<!-- Node1&#45;&gt;Node24 -->
<g id="edge24" class="edge"><title>Node1&#45;&gt;Node24</title>
<path fill="none" stroke="midnightblue" d="M817.744,-318.727C881.509,-310.032 972.668,-293.877 1048.5,-266 1049.7,-265.559 1050.91,-265.067 1052.12,-264.539"/>
<polygon fill="midnightblue" stroke="midnightblue" points="1053.76,-267.632 1061.12,-260.01 1050.61,-261.379 1053.76,-267.632"/>
</g>
<!-- Node25 -->
<g id="node25" class="node"><title>Node25</title>
<g id="a_node25"><a xlink:href="tachyon__video_8h.html" target="_top" xlink:title="tachyon_video.h">
<polygon fill="white" stroke="black" points="151,-241 151,-260 246,-260 246,-241 151,-241"/>
<text text-anchor="middle" x="198.5" y="-248" font-family="Helvetica,sans-Serif" font-size="10.00">tachyon_video.h</text>
</a>
</g>
</g>
<!-- Node1&#45;&gt;Node25 -->
<g id="edge25" class="edge"><title>Node1&#45;&gt;Node25</title>
<path fill="none" stroke="midnightblue" d="M659.485,-318.412C566.982,-307.453 409.27,-287.77 274.5,-266 266.854,-264.765 258.798,-263.351 250.903,-261.901"/>
<polygon fill="midnightblue" stroke="midnightblue" points="251.505,-258.453 241.032,-260.056 250.219,-265.334 251.505,-258.453"/>
</g>
<!-- Node27 -->
<g id="node27" class="node"><title>Node27</title>
<g id="a_node27"><a xlink:href="task__scheduler__init_8h.html" target="_top" xlink:title="tbb/task_scheduler\l_init.h">
<polygon fill="white" stroke="black" points="1110,-235.5 1110,-265.5 1217,-265.5 1217,-235.5 1110,-235.5"/>
<text text-anchor="start" x="1118" y="-253.5" font-family="Helvetica,sans-Serif" font-size="10.00">tbb/task_scheduler</text>
<text text-anchor="middle" x="1163.5" y="-242.5" font-family="Helvetica,sans-Serif" font-size="10.00">_init.h</text>
</a>
</g>
</g>
<!-- Node1&#45;&gt;Node27 -->
<g id="edge28" class="edge"><title>Node1&#45;&gt;Node27</title>
<path fill="none" stroke="midnightblue" d="M817.834,-315.378C889.042,-304.186 996.628,-286.511 1099.95,-266.042"/>
<polygon fill="midnightblue" stroke="midnightblue" points="1100.81,-269.439 1109.93,-264.052 1099.44,-262.574 1100.81,-269.439"/>
</g>
<!-- Node31 -->
<g id="node31" class="node"><title>Node31</title>
<polygon fill="white" stroke="#bfbfbf" points="1528.5,-241 1528.5,-260 1624.5,-260 1624.5,-241 1528.5,-241"/>
<text text-anchor="middle" x="1576.5" y="-248" font-family="Helvetica,sans-Serif" font-size="10.00">tbb/parallel_for.h</text>
</g>
<!-- Node1&#45;&gt;Node31 -->
<g id="edge32" class="edge"><title>Node1&#45;&gt;Node31</title>
<path fill="none" stroke="midnightblue" d="M817.745,-325.717C959.443,-321.54 1265.21,-308.04 1519.5,-266 1525.1,-265.074 1530.96,-263.865 1536.7,-262.541"/>
<polygon fill="midnightblue" stroke="midnightblue" points="1537.94,-265.842 1546.82,-260.069 1536.28,-259.042 1537.94,-265.842"/>
</g>
<!-- Node32 -->
<g id="node32" class="node"><title>Node32</title>
<g id="a_node32"><a xlink:href="spin__mutex_8h.html" target="_top" xlink:title="tbb/spin_mutex.h">
<polygon fill="white" stroke="black" points="1410.5,-241 1410.5,-260 1510.5,-260 1510.5,-241 1410.5,-241"/>
<text text-anchor="middle" x="1460.5" y="-248" font-family="Helvetica,sans-Serif" font-size="10.00">tbb/spin_mutex.h</text>
</a>
</g>
</g>
<!-- Node1&#45;&gt;Node32 -->
<g id="edge33" class="edge"><title>Node1&#45;&gt;Node32</title>
<path fill="none" stroke="midnightblue" d="M817.832,-319.149C963.35,-303.832 1269.93,-271.56 1400.05,-257.864"/>
<polygon fill="midnightblue" stroke="midnightblue" points="1400.64,-261.32 1410.22,-256.792 1399.91,-254.358 1400.64,-261.32"/>
</g>
<!-- Node38 -->
<g id="node38" class="node"><title>Node38</title>
<g id="a_node38"><a xlink:href="blocked__range2d_8h.html" target="_top" xlink:title="tbb/blocked_range2d.h">
<polygon fill="white" stroke="black" points="1182.5,-174 1182.5,-193 1308.5,-193 1308.5,-174 1182.5,-174"/>
<text text-anchor="middle" x="1245.5" y="-181" font-family="Helvetica,sans-Serif" font-size="10.00">tbb/blocked_range2d.h</text>
</a>
</g>
</g>
<!-- Node1&#45;&gt;Node38 -->
<g id="edge44" class="edge"><title>Node1&#45;&gt;Node38</title>
<path fill="none" stroke="midnightblue" d="M817.512,-328.027C939.76,-327.16 1166.81,-318.302 1225.5,-266 1243.06,-250.355 1246.43,-222.038 1246.52,-203.249"/>
<polygon fill="midnightblue" stroke="midnightblue" points="1250.02,-203.125 1246.26,-193.217 1243.02,-203.303 1250.02,-203.125"/>
</g>
<!-- Node3 -->
<g id="node3" class="node"><title>Node3</title>
<polygon fill="white" stroke="#bfbfbf" points="448,-112.5 448,-131.5 497,-131.5 497,-112.5 448,-112.5"/>
<text text-anchor="middle" x="472.5" y="-119.5" font-family="Helvetica,sans-Serif" font-size="10.00">stdio.h</text>
</g>
<!-- Node2&#45;&gt;Node3 -->
<g id="edge2" class="edge"><title>Node2&#45;&gt;Node3</title>
<path fill="none" stroke="midnightblue" d="M320.359,-173.869C325.991,-171.927 331.948,-169.884 337.5,-168 371.522,-156.457 410.454,-143.507 437.739,-134.474"/>
<polygon fill="midnightblue" stroke="midnightblue" points="439.197,-137.678 447.592,-131.214 436.998,-131.032 439.197,-137.678"/>
</g>
<!-- Node4 -->
<g id="node4" class="node"><title>Node4</title>
<polygon fill="white" stroke="#bfbfbf" points="515,-112.5 515,-131.5 562,-131.5 562,-112.5 515,-112.5"/>
<text text-anchor="middle" x="538.5" y="-119.5" font-family="Helvetica,sans-Serif" font-size="10.00">cstdlib</text>
</g>
<!-- Node2&#45;&gt;Node4 -->
<g id="edge3" class="edge"><title>Node2&#45;&gt;Node4</title>
<path fill="none" stroke="midnightblue" d="M318.888,-173.863C324.908,-171.796 331.407,-169.698 337.5,-168 408.042,-148.343 429.553,-149.882 504.791,-132.044"/>
<polygon fill="midnightblue" stroke="midnightblue" points="505.845,-135.391 514.748,-129.646 504.206,-128.585 505.845,-135.391"/>
</g>
<!-- Node5 -->
<g id="node5" class="node"><title>Node5</title>
<polygon fill="white" stroke="#bfbfbf" points="73,-112.5 73,-131.5 126,-131.5 126,-112.5 73,-112.5"/>
<text text-anchor="middle" x="99.5" y="-119.5" font-family="Helvetica,sans-Serif" font-size="10.00">string.h</text>
</g>
<!-- Node2&#45;&gt;Node5 -->
<g id="edge4" class="edge"><title>Node2&#45;&gt;Node5</title>
<path fill="none" stroke="midnightblue" d="M270.543,-173.9C264.641,-171.917 258.36,-169.849 252.5,-168 212.883,-155.5 167.149,-142.194 136.076,-133.322"/>
<polygon fill="midnightblue" stroke="midnightblue" points="136.707,-129.862 126.13,-130.49 134.79,-136.595 136.707,-129.862"/>
</g>
<!-- Node6 -->
<g id="node6" class="node"><title>Node6</title>
<polygon fill="white" stroke="#bfbfbf" points="144,-112.5 144,-131.5 195,-131.5 195,-112.5 144,-112.5"/>
<text text-anchor="middle" x="169.5" y="-119.5" font-family="Helvetica,sans-Serif" font-size="10.00">math.h</text>
</g>
<!-- Node2&#45;&gt;Node6 -->
<g id="edge5" class="edge"><title>Node2&#45;&gt;Node6</title>
<path fill="none" stroke="midnightblue" d="M277.447,-173.975C256.302,-163.99 221.06,-147.348 196.622,-135.807"/>
<polygon fill="midnightblue" stroke="midnightblue" points="198.056,-132.614 187.519,-131.509 195.067,-138.944 198.056,-132.614"/>
</g>
<!-- Node7 -->
<g id="node7" class="node"><title>Node7</title>
<polygon fill="white" stroke="#bfbfbf" points="213,-112.5 213,-131.5 284,-131.5 284,-112.5 213,-112.5"/>
<text text-anchor="middle" x="248.5" y="-119.5" font-family="Helvetica,sans-Serif" font-size="10.00">sys/types.h</text>
</g>
<!-- Node2&#45;&gt;Node7 -->
<g id="edge6" class="edge"><title>Node2&#45;&gt;Node7</title>
<path fill="none" stroke="midnightblue" d="M288.766,-173.975C281.716,-165.05 270.465,-150.807 261.646,-139.643"/>
<polygon fill="midnightblue" stroke="midnightblue" points="264.167,-137.187 255.221,-131.509 258.674,-141.526 264.167,-137.187"/>
</g>
<!-- Node8 -->
<g id="node8" class="node"><title>Node8</title>
<polygon fill="white" stroke="#bfbfbf" points="302,-112.5 302,-131.5 365,-131.5 365,-112.5 302,-112.5"/>
<text text-anchor="middle" x="333.5" y="-119.5" font-family="Helvetica,sans-Serif" font-size="10.00">sys/stat.h</text>
</g>
<!-- Node2&#45;&gt;Node8 -->
<g id="edge7" class="edge"><title>Node2&#45;&gt;Node8</title>
<path fill="none" stroke="midnightblue" d="M300.944,-173.975C306.588,-165.138 315.561,-151.089 322.659,-139.975"/>
<polygon fill="midnightblue" stroke="midnightblue" points="325.633,-141.821 328.066,-131.509 319.733,-138.053 325.633,-141.821"/>
</g>
<!-- Node9 -->
<g id="node9" class="node"><title>Node9</title>
<polygon fill="white" stroke="#bfbfbf" points="383.5,-112.5 383.5,-131.5 429.5,-131.5 429.5,-112.5 383.5,-112.5"/>
<text text-anchor="middle" x="406.5" y="-119.5" font-family="Helvetica,sans-Serif" font-size="10.00">fcntl.h</text>
</g>
<!-- Node2&#45;&gt;Node9 -->
<g id="edge8" class="edge"><title>Node2&#45;&gt;Node9</title>
<path fill="none" stroke="midnightblue" d="M311.404,-173.975C329.785,-164.122 360.256,-147.788 381.745,-136.27"/>
<polygon fill="midnightblue" stroke="midnightblue" points="383.466,-139.318 390.626,-131.509 380.159,-133.149 383.466,-139.318"/>
</g>
<!-- Node11 -->
<g id="node11" class="node"><title>Node11</title>
<polygon fill="white" stroke="#bfbfbf" points="347,-174 347,-193 400,-193 400,-174 347,-174"/>
<text text-anchor="middle" x="373.5" y="-181" font-family="Helvetica,sans-Serif" font-size="10.00">alloca.h</text>
</g>
<!-- Node10&#45;&gt;Node11 -->
<g id="edge10" class="edge"><title>Node10&#45;&gt;Node11</title>
<path fill="none" stroke="midnightblue" d="M346.681,-240.734C351.375,-230.89 359.116,-214.66 365.078,-202.159"/>
<polygon fill="midnightblue" stroke="midnightblue" points="368.24,-203.66 369.385,-193.127 361.922,-200.647 368.24,-203.66"/>
</g>
<!-- Node19&#45;&gt;Node2 -->
<g id="edge19" class="edge"><title>Node19&#45;&gt;Node2</title>
<path fill="none" stroke="midnightblue" d="M120.901,-242.166C127.465,-239.838 134.778,-237.278 141.5,-235 190.619,-218.352 203.26,-215.286 252.5,-199 255.076,-198.148 257.737,-197.263 260.413,-196.369"/>
<polygon fill="midnightblue" stroke="midnightblue" points="261.683,-199.635 270.05,-193.136 259.456,-192.998 261.683,-199.635"/>
</g>
<!-- Node20 -->
<g id="node20" class="node"><title>Node20</title>
<polygon fill="white" stroke="#bfbfbf" points="55.5,-174 55.5,-193 121.5,-193 121.5,-174 55.5,-174"/>
<text text-anchor="middle" x="88.5" y="-181" font-family="Helvetica,sans-Serif" font-size="10.00">sys/time.h</text>
</g>
<!-- Node19&#45;&gt;Node20 -->
<g id="edge20" class="edge"><title>Node19&#45;&gt;Node20</title>
<path fill="none" stroke="midnightblue" d="M98.8816,-240.734C97.1183,-231.183 94.2449,-215.618 91.9676,-203.283"/>
<polygon fill="midnightblue" stroke="midnightblue" points="95.3501,-202.326 90.0927,-193.127 88.4664,-203.597 95.3501,-202.326"/>
</g>
<!-- Node21 -->
<g id="node21" class="node"><title>Node21</title>
<polygon fill="white" stroke="#bfbfbf" points="0,-112.5 0,-131.5 55,-131.5 55,-112.5 0,-112.5"/>
<text text-anchor="middle" x="27.5" y="-119.5" font-family="Helvetica,sans-Serif" font-size="10.00">unistd.h</text>
</g>
<!-- Node19&#45;&gt;Node21 -->
<g id="edge21" class="edge"><title>Node19&#45;&gt;Node21</title>
<path fill="none" stroke="midnightblue" d="M87.8085,-240.989C75.4061,-232.001 56.9164,-216.7 46.5,-199 36.0644,-181.268 31.3274,-157.953 29.1982,-141.846"/>
<polygon fill="midnightblue" stroke="midnightblue" points="32.6405,-141.129 28.0645,-131.574 25.6828,-141.897 32.6405,-141.129"/>
</g>
<!-- Node26 -->
<g id="node26" class="node"><title>Node26</title>
<g id="a_node26"><a xlink:href="video_8h.html" target="_top" xlink:title="../../../common/gui\l/video.h">
<polygon fill="white" stroke="red" points="139.5,-168.5 139.5,-198.5 243.5,-198.5 243.5,-168.5 139.5,-168.5"/>
<text text-anchor="start" x="147.5" y="-186.5" font-family="Helvetica,sans-Serif" font-size="10.00">../../../common/gui</text>
<text text-anchor="middle" x="191.5" y="-175.5" font-family="Helvetica,sans-Serif" font-size="10.00">/video.h</text>
</a>
</g>
</g>
<!-- Node25&#45;&gt;Node26 -->
<g id="edge26" class="edge"><title>Node25&#45;&gt;Node26</title>
<path fill="none" stroke="midnightblue" d="M197.556,-240.734C196.674,-232.541 195.315,-219.923 194.108,-208.714"/>
<polygon fill="midnightblue" stroke="midnightblue" points="197.568,-208.157 193.017,-198.589 190.608,-208.906 197.568,-208.157"/>
</g>
<!-- Node26&#45;&gt;Node21 -->
<g id="edge27" class="edge"><title>Node26&#45;&gt;Node21</title>
<path fill="none" stroke="midnightblue" d="M152.634,-168.399C124.749,-158.283 87.5612,-144.791 60.987,-135.149"/>
<polygon fill="midnightblue" stroke="midnightblue" points="61.9576,-131.778 51.3635,-131.658 59.5702,-138.359 61.9576,-131.778"/>
</g>
<!-- Node28 -->
<g id="node28" class="node"><title>Node28</title>
<g id="a_node28"><a xlink:href="tbb__stddef_8h.html" target="_top" xlink:title="tbb_stddef.h">
<polygon fill="white" stroke="red" points="1306.5,-56.5 1306.5,-75.5 1382.5,-75.5 1382.5,-56.5 1306.5,-56.5"/>
<text text-anchor="middle" x="1344.5" y="-63.5" font-family="Helvetica,sans-Serif" font-size="10.00">tbb_stddef.h</text>
</a>
</g>
</g>
<!-- Node27&#45;&gt;Node28 -->
<g id="edge29" class="edge"><title>Node27&#45;&gt;Node28</title>
<path fill="none" stroke="midnightblue" d="M1162.88,-235.081C1162.53,-206.556 1166.23,-143.007 1203.5,-112 1229.74,-90.1687 1266.71,-78.8774 1296.21,-73.0658"/>
<polygon fill="midnightblue" stroke="midnightblue" points="1297.1,-76.463 1306.31,-71.2305 1295.84,-69.5759 1297.1,-76.463"/>
</g>
<!-- Node30 -->
<g id="node30" class="node"><title>Node30</title>
<polygon fill="white" stroke="#bfbfbf" points="1075,-174 1075,-193 1126,-193 1126,-174 1075,-174"/>
<text text-anchor="middle" x="1100.5" y="-181" font-family="Helvetica,sans-Serif" font-size="10.00">limits.h</text>
</g>
<!-- Node27&#45;&gt;Node30 -->
<g id="edge31" class="edge"><title>Node27&#45;&gt;Node30</title>
<path fill="none" stroke="midnightblue" d="M1149.83,-235.396C1139.91,-225.161 1126.47,-211.296 1116.13,-200.622"/>
<polygon fill="midnightblue" stroke="midnightblue" points="1118.4,-197.939 1108.93,-193.195 1113.37,-202.811 1118.4,-197.939"/>
</g>
<!-- Node29 -->
<g id="node29" class="node"><title>Node29</title>
<polygon fill="white" stroke="#bfbfbf" points="1567.5,-0.5 1567.5,-19.5 1619.5,-19.5 1619.5,-0.5 1567.5,-0.5"/>
<text text-anchor="middle" x="1593.5" y="-7.5" font-family="Helvetica,sans-Serif" font-size="10.00">cstddef</text>
</g>
<!-- Node28&#45;&gt;Node29 -->
<g id="edge30" class="edge"><title>Node28&#45;&gt;Node29</title>
<path fill="none" stroke="midnightblue" d="M1382.59,-56.7398C1430.08,-46.4394 1510.69,-28.959 1557.29,-18.8525"/>
<polygon fill="midnightblue" stroke="midnightblue" points="1558.22,-22.2323 1567.25,-16.6923 1556.74,-15.3913 1558.22,-22.2323"/>
</g>
<!-- Node32&#45;&gt;Node28 -->
<g id="edge40" class="edge"><title>Node32&#45;&gt;Node28</title>
<path fill="none" stroke="midnightblue" d="M1421.38,-240.996C1398.29,-233.83 1370.7,-221.078 1355.5,-199 1332,-164.856 1336.14,-113.353 1340.65,-85.8639"/>
<polygon fill="midnightblue" stroke="midnightblue" points="1344.15,-86.1418 1342.52,-75.6735 1337.27,-84.8751 1344.15,-86.1418"/>
</g>
<!-- Node32&#45;&gt;Node29 -->
<g id="edge34" class="edge"><title>Node32&#45;&gt;Node29</title>
<path fill="none" stroke="midnightblue" d="M1492.19,-240.951C1500.99,-238.787 1510.57,-236.619 1519.5,-235 1586.44,-222.859 1778.31,-249.853 1823.5,-199 1892.65,-121.176 1709.73,-49.1893 1629.28,-22.2245"/>
<polygon fill="midnightblue" stroke="midnightblue" points="1630.14,-18.8228 1619.55,-19.0147 1627.95,-25.4707 1630.14,-18.8228"/>
</g>
<!-- Node33 -->
<g id="node33" class="node"><title>Node33</title>
<polygon fill="white" stroke="#bfbfbf" points="1365,-174 1365,-193 1400,-193 1400,-174 1365,-174"/>
<text text-anchor="middle" x="1382.5" y="-181" font-family="Helvetica,sans-Serif" font-size="10.00">new</text>
</g>
<!-- Node32&#45;&gt;Node33 -->
<g id="edge35" class="edge"><title>Node32&#45;&gt;Node33</title>
<path fill="none" stroke="midnightblue" d="M1449.98,-240.734C1437.35,-230.208 1415.96,-212.379 1400.64,-199.617"/>
<polygon fill="midnightblue" stroke="midnightblue" points="1402.78,-196.84 1392.85,-193.127 1398.29,-202.218 1402.78,-196.84"/>
</g>
<!-- Node34 -->
<g id="node34" class="node"><title>Node34</title>
<g id="a_node34"><a xlink:href="aligned__space_8h.html" target="_top" xlink:title="aligned_space.h">
<polygon fill="white" stroke="black" points="1720.5,-174 1720.5,-193 1814.5,-193 1814.5,-174 1720.5,-174"/>
<text text-anchor="middle" x="1767.5" y="-181" font-family="Helvetica,sans-Serif" font-size="10.00">aligned_space.h</text>
</a>
</g>
</g>
<!-- Node32&#45;&gt;Node34 -->
<g id="edge36" class="edge"><title>Node32&#45;&gt;Node34</title>
<path fill="none" stroke="midnightblue" d="M1493.82,-240.999C1502.18,-238.95 1511.15,-236.828 1519.5,-235 1602.18,-216.894 1623.75,-216.791 1706.5,-199 1711.82,-197.856 1717.39,-196.606 1722.91,-195.334"/>
<polygon fill="midnightblue" stroke="midnightblue" points="1723.78,-198.725 1732.72,-193.041 1722.19,-191.909 1723.78,-198.725"/>
</g>
<!-- Node35 -->
<g id="node35" class="node"><title>Node35</title>
<g id="a_node35"><a xlink:href="tbb__machine_8h.html" target="_top" xlink:title="tbb_machine.h">
<polygon fill="white" stroke="black" points="1648.5,-112.5 1648.5,-131.5 1736.5,-131.5 1736.5,-112.5 1648.5,-112.5"/>
<text text-anchor="middle" x="1692.5" y="-119.5" font-family="Helvetica,sans-Serif" font-size="10.00">tbb_machine.h</text>
</a>
</g>
</g>
<!-- Node32&#45;&gt;Node35 -->
<g id="edge41" class="edge"><title>Node32&#45;&gt;Node35</title>
<path fill="none" stroke="midnightblue" d="M1495.11,-240.924C1503.12,-238.96 1511.6,-236.894 1519.5,-235 1587.85,-218.612 1623.42,-248.32 1673.5,-199 1688.68,-184.048 1692.4,-158.93 1693,-141.691"/>
<polygon fill="midnightblue" stroke="midnightblue" points="1696.5,-141.697 1693.03,-131.685 1689.5,-141.674 1696.5,-141.697"/>
</g>
<!-- Node36 -->
<g id="node36" class="node"><title>Node36</title>
<g id="a_node36"><a xlink:href="tbb__profiling_8h.html" target="_top" xlink:title="tbb_profiling.h">
<polygon fill="white" stroke="red" points="1418.5,-174 1418.5,-193 1502.5,-193 1502.5,-174 1418.5,-174"/>
<text text-anchor="middle" x="1460.5" y="-181" font-family="Helvetica,sans-Serif" font-size="10.00">tbb_profiling.h</text>
</a>
</g>
</g>
<!-- Node32&#45;&gt;Node36 -->
<g id="edge42" class="edge"><title>Node32&#45;&gt;Node36</title>
<path fill="none" stroke="midnightblue" d="M1460.5,-240.734C1460.5,-231.183 1460.5,-215.618 1460.5,-203.283"/>
<polygon fill="midnightblue" stroke="midnightblue" points="1464,-203.127 1460.5,-193.127 1457,-203.127 1464,-203.127"/>
</g>
<!-- Node37 -->
<g id="node37" class="node"><title>Node37</title>
<g id="a_node37"><a xlink:href="__mutex__padding_8h.html" target="_top" xlink:title="internal/_mutex_padding.h">
<polygon fill="white" stroke="black" points="1520.5,-174 1520.5,-193 1664.5,-193 1664.5,-174 1520.5,-174"/>
<text text-anchor="middle" x="1592.5" y="-181" font-family="Helvetica,sans-Serif" font-size="10.00">internal/_mutex_padding.h</text>
</a>
</g>
</g>
<!-- Node32&#45;&gt;Node37 -->
<g id="edge43" class="edge"><title>Node32&#45;&gt;Node37</title>
<path fill="none" stroke="midnightblue" d="M1478.03,-240.869C1500.51,-229.796 1539.73,-210.486 1565.9,-197.598"/>
<polygon fill="midnightblue" stroke="midnightblue" points="1567.47,-200.725 1574.9,-193.167 1564.38,-194.445 1567.47,-200.725"/>
</g>
<!-- Node34&#45;&gt;Node28 -->
<g id="edge37" class="edge"><title>Node34&#45;&gt;Node28</title>
<path fill="none" stroke="midnightblue" d="M1767.61,-173.951C1767.31,-158.83 1764.29,-127.507 1745.5,-112 1718.76,-89.9265 1493.52,-75.0794 1392.82,-69.4843"/>
<polygon fill="midnightblue" stroke="midnightblue" points="1392.78,-65.9774 1382.61,-68.9251 1392.4,-72.9669 1392.78,-65.9774"/>
</g>
<!-- Node34&#45;&gt;Node35 -->
<g id="edge38" class="edge"><title>Node34&#45;&gt;Node35</title>
<path fill="none" stroke="midnightblue" d="M1756.75,-173.975C1744.95,-164.608 1725.76,-149.384 1711.42,-138.008"/>
<polygon fill="midnightblue" stroke="midnightblue" points="1713.24,-134.982 1703.23,-131.509 1708.88,-140.466 1713.24,-134.982"/>
</g>
<!-- Node35&#45;&gt;Node28 -->
<g id="edge39" class="edge"><title>Node35&#45;&gt;Node28</title>
<path fill="none" stroke="midnightblue" d="M1648.43,-114.161C1582.93,-103.997 1460.37,-84.9793 1392.61,-74.4654"/>
<polygon fill="midnightblue" stroke="midnightblue" points="1393.04,-70.9907 1382.62,-72.9158 1391.97,-77.9079 1393.04,-70.9907"/>
</g>
<!-- Node38&#45;&gt;Node28 -->
<g id="edge45" class="edge"><title>Node38&#45;&gt;Node28</title>
<path fill="none" stroke="midnightblue" d="M1235.49,-173.728C1220.87,-159.848 1196.93,-132.316 1211.5,-112 1230.63,-85.3344 1266.42,-74.2699 1296.06,-69.7723"/>
<polygon fill="midnightblue" stroke="midnightblue" points="1296.79,-73.207 1306.25,-68.4405 1295.88,-66.2661 1296.79,-73.207"/>
</g>
<!-- Node39 -->
<g id="node39" class="node"><title>Node39</title>
<g id="a_node39"><a xlink:href="blocked__range_8h.html" target="_top" xlink:title="blocked_range.h">
<polygon fill="white" stroke="black" points="1221,-112.5 1221,-131.5 1316,-131.5 1316,-112.5 1221,-112.5"/>
<text text-anchor="middle" x="1268.5" y="-119.5" font-family="Helvetica,sans-Serif" font-size="10.00">blocked_range.h</text>
</a>
</g>
</g>
<!-- Node38&#45;&gt;Node39 -->
<g id="edge46" class="edge"><title>Node38&#45;&gt;Node39</title>
<path fill="none" stroke="midnightblue" d="M1248.8,-173.975C1252.11,-165.404 1257.32,-151.927 1261.55,-140.983"/>
<polygon fill="midnightblue" stroke="midnightblue" points="1264.87,-142.098 1265.21,-131.509 1258.34,-139.575 1264.87,-142.098"/>
</g>
<!-- Node39&#45;&gt;Node28 -->
<g id="edge47" class="edge"><title>Node39&#45;&gt;Node28</title>
<path fill="none" stroke="midnightblue" d="M1280.71,-112.324C1292.28,-104.107 1309.88,-91.6017 1323.66,-81.8069"/>
<polygon fill="midnightblue" stroke="midnightblue" points="1325.94,-84.4791 1332.07,-75.8339 1321.89,-78.7729 1325.94,-84.4791"/>
</g>
</g>
</svg>
        <g id="navigator" transform="translate(0 0)" fill="#404254">
                <rect fill="#f2f5e9" fill-opacity="0.5" stroke="#606060" stroke-width=".5" x="0" y="0" width="60" height="60"/>
                <use id="zoomplus" xlink:href="#zoomPlus" x="17" y="9" onmousedown="handleZoom(evt,'in')"/>
                <use id="zoomminus" xlink:href="#zoomMin" x="42" y="9" onmousedown="handleZoom(evt,'out')"/>
                <use id="reset" xlink:href="#resetDef" x="30" y="36" onmousedown="handleReset()"/>
                <g id="arrowUp" xlink:href="#dirArrow" transform="translate(30 24)" onmousedown="handlePan(0,-1)">
                  <use xlink:href="#rim" fill="#404040">
                        <set attributeName="fill" to="#808080" begin="arrowUp.mouseover" end="arrowUp.mouseout"/>
                  </use>
                  <path fill="none" stroke="white" stroke-width="1.5" d="M0,-3.0v7 M-2.5,-0.5L0,-3.0L2.5,-0.5"/>
                </g>
                <g id="arrowRight" xlink:href="#dirArrow" transform="rotate(90) translate(36 -43)" onmousedown="handlePan(1,0)">
                  <use xlink:href="#rim" fill="#404040">
                        <set attributeName="fill" to="#808080" begin="arrowRight.mouseover" end="arrowRight.mouseout"/>
                  </use>
                  <path fill="none" stroke="white" stroke-width="1.5" d="M0,-3.0v7 M-2.5,-0.5L0,-3.0L2.5,-0.5"/>
                </g>
                <g id="arrowDown" xlink:href="#dirArrow" transform="rotate(180) translate(-30 -48)" onmousedown="handlePan(0,1)">
                  <use xlink:href="#rim" fill="#404040">
                        <set attributeName="fill" to="#808080" begin="arrowDown.mouseover" end="arrowDown.mouseout"/>
                  </use>
                  <path fill="none" stroke="white" stroke-width="1.5" d="M0,-3.0v7 M-2.5,-0.5L0,-3.0L2.5,-0.5"/>
                </g>
                <g id="arrowLeft" xlink:href="#dirArrow" transform="rotate(270) translate(-36 17)" onmousedown="handlePan(-1,0)">
                  <use xlink:href="#rim" fill="#404040">
                        <set attributeName="fill" to="#808080" begin="arrowLeft.mouseover" end="arrowLeft.mouseout"/>
                  </use>
                  <path fill="none" stroke="white" stroke-width="1.5" d="M0,-3.0v7 M-2.5,-0.5L0,-3.0L2.5,-0.5"/>
                </g>
        </g>
        <svg viewBox="0 0 15 15" width="100%" height="30px" preserveAspectRatio="xMaxYMin meet">
         <g id="arrow_out" transform="scale(0.3 0.3)">
          <a xlink:href="trace_8tbb_8cpp__incl_org.svg" target="_base">
           <rect id="button" ry="5" rx="5" y="6" x="6" height="38" width="38"
                fill="#f2f5e9" fill-opacity="0.5" stroke="#606060" stroke-width="1.0"/>
           <path id="arrow"
             d="M 11.500037,31.436501 C 11.940474,20.09759 22.043105,11.32322 32.158766,21.979434 L 37.068811,17.246167 C 37.068811,17.246167 37.088388,32 37.088388,32 L 22.160133,31.978069 C 22.160133,31.978069 26.997745,27.140456 26.997745,27.140456 C 18.528582,18.264221 13.291696,25.230495 11.500037,31.436501 z"
             style="fill:#404040;"/>
          </a>
         </g>
        </svg>
</svg>
