<?xml version="1.0" encoding="UTF-8" standalone="no"?>
<!DOCTYPE svg PUBLIC "-//W3C//DTD SVG 1.1//EN"
 "http://www.w3.org/Graphics/SVG/1.1/DTD/svg11.dtd">
<!-- Generated by graphviz version 2.38.0 (20140413.2041)
 -->
<!-- Title: /home/travis/build/ComPWA/ComPWA/Core/FunctionTree/TreeNode.hpp Pages: 1 -->
<svg width="1600pt" height="440pt"
 viewBox="0.00 0.00 1600.34 440.00" xmlns="http://www.w3.org/2000/svg" xmlns:xlink="http://www.w3.org/1999/xlink">
<g id="graph0" class="graph" transform="scale(1 1) rotate(0) translate(4 436)">
<title>/home/travis/build/ComPWA/ComPWA/Core/FunctionTree/TreeNode.hpp</title>
<polygon fill="white" stroke="none" points="-4,4 -4,-436 1596.34,-436 1596.34,4 -4,4"/>
<!-- Node1 -->
<g id="node1" class="node"><title>Node1</title>
<polygon fill="#bfbfbf" stroke="black" points="680,-390.5 680,-431.5 821,-431.5 821,-390.5 680,-390.5"/>
<text text-anchor="start" x="688" y="-419.5" font-family="Helvetica,sans-Serif" font-size="10.00">/home/travis/build</text>
<text text-anchor="start" x="688" y="-408.5" font-family="Helvetica,sans-Serif" font-size="10.00">/ComPWA/ComPWA/Core</text>
<text text-anchor="middle" x="750.5" y="-397.5" font-family="Helvetica,sans-Serif" font-size="10.00">/FunctionTree/TreeNode.hpp</text>
</g>
<!-- Node2 -->
<g id="node2" class="node"><title>Node2</title>
<g id="a_node2"><a xlink:href="FunctionTreeEstimator_8cpp.html" target="_top" xlink:title="/home/travis/build\l/ComPWA/ComPWA/Core\l/FunctionTree/FunctionTreeEstimator.cpp">
<polygon fill="white" stroke="black" points="0,-312.5 0,-353.5 197,-353.5 197,-312.5 0,-312.5"/>
<text text-anchor="start" x="8" y="-341.5" font-family="Helvetica,sans-Serif" font-size="10.00">/home/travis/build</text>
<text text-anchor="start" x="8" y="-330.5" font-family="Helvetica,sans-Serif" font-size="10.00">/ComPWA/ComPWA/Core</text>
<text text-anchor="middle" x="98.5" y="-319.5" font-family="Helvetica,sans-Serif" font-size="10.00">/FunctionTree/FunctionTreeEstimator.cpp</text>
</a>
</g>
</g>
<!-- Node1&#45;&gt;Node2 -->
<g id="edge1" class="edge"><title>Node1&#45;&gt;Node2</title>
<path fill="none" stroke="midnightblue" d="M669.677,-403.79C563.042,-395.117 369.652,-377.734 205.5,-354 202.788,-353.608 200.04,-353.196 197.269,-352.768"/>
<polygon fill="midnightblue" stroke="midnightblue" points="669.473,-407.284 679.722,-404.602 670.037,-400.307 669.473,-407.284"/>
</g>
<!-- Node3 -->
<g id="node3" class="node"><title>Node3</title>
<g id="a_node3"><a xlink:href="FunctionTreeIntensity_8cpp.html" target="_top" xlink:title="/home/travis/build\l/ComPWA/ComPWA/Core\l/FunctionTree/FunctionTreeIntensity.cpp">
<polygon fill="white" stroke="black" points="215,-312.5 215,-353.5 408,-353.5 408,-312.5 215,-312.5"/>
<text text-anchor="start" x="223" y="-341.5" font-family="Helvetica,sans-Serif" font-size="10.00">/home/travis/build</text>
<text text-anchor="start" x="223" y="-330.5" font-family="Helvetica,sans-Serif" font-size="10.00">/ComPWA/ComPWA/Core</text>
<text text-anchor="middle" x="311.5" y="-319.5" font-family="Helvetica,sans-Serif" font-size="10.00">/FunctionTree/FunctionTreeIntensity.cpp</text>
</a>
</g>
</g>
<!-- Node1&#45;&gt;Node3 -->
<g id="edge2" class="edge"><title>Node1&#45;&gt;Node3</title>
<path fill="none" stroke="midnightblue" d="M669.555,-396.942C601.86,-385.899 502.79,-369.45 416.5,-354 413.76,-353.509 410.981,-353.008 408.176,-352.498"/>
<polygon fill="midnightblue" stroke="midnightblue" points="669.293,-400.446 679.726,-398.599 670.419,-393.537 669.293,-400.446"/>
</g>
<!-- Node4 -->
<g id="node4" class="node"><title>Node4</title>
<g id="a_node4"><a xlink:href="TreeNode_8cpp.html" target="_top" xlink:title="/home/travis/build\l/ComPWA/ComPWA/Core\l/FunctionTree/TreeNode.cpp">
<polygon fill="white" stroke="black" points="426,-312.5 426,-353.5 567,-353.5 567,-312.5 426,-312.5"/>
<text text-anchor="start" x="434" y="-341.5" font-family="Helvetica,sans-Serif" font-size="10.00">/home/travis/build</text>
<text text-anchor="start" x="434" y="-330.5" font-family="Helvetica,sans-Serif" font-size="10.00">/ComPWA/ComPWA/Core</text>
<text text-anchor="middle" x="496.5" y="-319.5" font-family="Helvetica,sans-Serif" font-size="10.00">/FunctionTree/TreeNode.cpp</text>
</a>
</g>
</g>
<!-- Node1&#45;&gt;Node4 -->
<g id="edge3" class="edge"><title>Node1&#45;&gt;Node4</title>
<path fill="none" stroke="midnightblue" d="M675.11,-387.442C639.058,-376.655 596.319,-363.867 561.69,-353.506"/>
<polygon fill="midnightblue" stroke="midnightblue" points="674.505,-390.915 685.089,-390.428 676.512,-384.208 674.505,-390.915"/>
</g>
<!-- Node5 -->
<g id="node5" class="node"><title>Node5</title>
<g id="a_node5"><a xlink:href="MinLogLH_8cpp.html" target="_top" xlink:title="/home/travis/build\l/ComPWA/ComPWA/Estimator\l/MinLogLH/MinLogLH.cpp">
<polygon fill="white" stroke="black" points="585.5,-312.5 585.5,-353.5 741.5,-353.5 741.5,-312.5 585.5,-312.5"/>
<text text-anchor="start" x="593.5" y="-341.5" font-family="Helvetica,sans-Serif" font-size="10.00">/home/travis/build</text>
<text text-anchor="start" x="593.5" y="-330.5" font-family="Helvetica,sans-Serif" font-size="10.00">/ComPWA/ComPWA/Estimator</text>
<text text-anchor="middle" x="663.5" y="-319.5" font-family="Helvetica,sans-Serif" font-size="10.00">/MinLogLH/MinLogLH.cpp</text>
</a>
</g>
</g>
<!-- Node1&#45;&gt;Node5 -->
<g id="edge4" class="edge"><title>Node1&#45;&gt;Node5</title>
<path fill="none" stroke="midnightblue" d="M720.483,-383.779C709.11,-373.843 696.372,-362.716 685.829,-353.506"/>
<polygon fill="midnightblue" stroke="midnightblue" points="718.262,-386.485 728.095,-390.428 722.867,-381.213 718.262,-386.485"/>
</g>
<!-- Node6 -->
<g id="node6" class="node"><title>Node6</title>
<g id="a_node6"><a xlink:href="SumMinLogLH_8cpp.html" target="_top" xlink:title="/home/travis/build\l/ComPWA/ComPWA/Estimator\l/MinLogLH/SumMinLogLH.cpp">
<polygon fill="white" stroke="black" points="759.5,-312.5 759.5,-353.5 915.5,-353.5 915.5,-312.5 759.5,-312.5"/>
<text text-anchor="start" x="767.5" y="-341.5" font-family="Helvetica,sans-Serif" font-size="10.00">/home/travis/build</text>
<text text-anchor="start" x="767.5" y="-330.5" font-family="Helvetica,sans-Serif" font-size="10.00">/ComPWA/ComPWA/Estimator</text>
<text text-anchor="middle" x="837.5" y="-319.5" font-family="Helvetica,sans-Serif" font-size="10.00">/MinLogLH/SumMinLogLH.cpp</text>
</a>
</g>
</g>
<!-- Node1&#45;&gt;Node6 -->
<g id="edge5" class="edge"><title>Node1&#45;&gt;Node6</title>
<path fill="none" stroke="midnightblue" d="M780.517,-383.779C791.89,-373.843 804.628,-362.716 815.171,-353.506"/>
<polygon fill="midnightblue" stroke="midnightblue" points="778.133,-381.213 772.905,-390.428 782.738,-386.485 778.133,-381.213"/>
</g>
<!-- Node7 -->
<g id="node7" class="node"><title>Node7</title>
<g id="a_node7"><a xlink:href="FormFactor_8hpp.html" target="_top" xlink:title="/home/travis/build\l/ComPWA/ComPWA/Physics\l/Dynamics/FormFactor.hpp">
<polygon fill="white" stroke="black" points="971,-312.5 971,-353.5 1120,-353.5 1120,-312.5 971,-312.5"/>
<text text-anchor="start" x="979" y="-341.5" font-family="Helvetica,sans-Serif" font-size="10.00">/home/travis/build</text>
<text text-anchor="start" x="979" y="-330.5" font-family="Helvetica,sans-Serif" font-size="10.00">/ComPWA/ComPWA/Physics</text>
<text text-anchor="middle" x="1045.5" y="-319.5" font-family="Helvetica,sans-Serif" font-size="10.00">/Dynamics/FormFactor.hpp</text>
</a>
</g>
</g>
<!-- Node1&#45;&gt;Node7 -->
<g id="edge6" class="edge"><title>Node1&#45;&gt;Node7</title>
<path fill="none" stroke="midnightblue" d="M830.877,-389.293C874.496,-378.055 928.07,-364.253 970.781,-353.25"/>
<polygon fill="midnightblue" stroke="midnightblue" points="829.97,-385.912 821.16,-391.796 831.717,-392.691 829.97,-385.912"/>
</g>
<!-- Node11 -->
<g id="node11" class="node"><title>Node11</title>
<g id="a_node11"><a xlink:href="RelativisticBreitWigner_8hpp.html" target="_top" xlink:title="/home/travis/build\l/ComPWA/ComPWA/Physics\l/Dynamics/RelativisticBreitWigner.hpp">
<polygon fill="white" stroke="red" points="1032,-156.5 1032,-197.5 1217,-197.5 1217,-156.5 1032,-156.5"/>
<text text-anchor="start" x="1040" y="-185.5" font-family="Helvetica,sans-Serif" font-size="10.00">/home/travis/build</text>
<text text-anchor="start" x="1040" y="-174.5" font-family="Helvetica,sans-Serif" font-size="10.00">/ComPWA/ComPWA/Physics</text>
<text text-anchor="middle" x="1124.5" y="-163.5" font-family="Helvetica,sans-Serif" font-size="10.00">/Dynamics/RelativisticBreitWigner.hpp</text>
</a>
</g>
</g>
<!-- Node1&#45;&gt;Node11 -->
<g id="edge20" class="edge"><title>Node1&#45;&gt;Node11</title>
<path fill="none" stroke="midnightblue" d="M831.271,-393.991C862.165,-385.392 896.639,-372.607 924.5,-354 939.052,-344.281 1013.03,-245.176 1026.5,-234 1043.54,-219.859 1064.63,-207.29 1082.88,-197.662"/>
<polygon fill="midnightblue" stroke="midnightblue" points="830.134,-390.672 821.379,-396.638 831.944,-397.434 830.134,-390.672"/>
</g>
<!-- Node14 -->
<g id="node14" class="node"><title>Node14</title>
<g id="a_node14"><a xlink:href="WignerD_8hpp.html" target="_top" xlink:title="/home/travis/build\l/ComPWA/ComPWA/Physics\l/HelicityFormalism/WignerD.hpp">
<polygon fill="white" stroke="black" points="1418.5,-312.5 1418.5,-353.5 1576.5,-353.5 1576.5,-312.5 1418.5,-312.5"/>
<text text-anchor="start" x="1426.5" y="-341.5" font-family="Helvetica,sans-Serif" font-size="10.00">/home/travis/build</text>
<text text-anchor="start" x="1426.5" y="-330.5" font-family="Helvetica,sans-Serif" font-size="10.00">/ComPWA/ComPWA/Physics</text>
<text text-anchor="middle" x="1497.5" y="-319.5" font-family="Helvetica,sans-Serif" font-size="10.00">/HelicityFormalism/WignerD.hpp</text>
</a>
</g>
</g>
<!-- Node1&#45;&gt;Node14 -->
<g id="edge21" class="edge"><title>Node1&#45;&gt;Node14</title>
<path fill="none" stroke="midnightblue" d="M831.216,-401.788C975.346,-387.124 1275.25,-356.612 1418.29,-342.059"/>
<polygon fill="midnightblue" stroke="midnightblue" points="830.707,-398.322 821.112,-402.816 831.415,-405.286 830.707,-398.322"/>
</g>
<!-- Node8 -->
<g id="node8" class="node"><title>Node8</title>
<g id="a_node8"><a xlink:href="BuilderXML_8cpp.html" target="_top" xlink:title="/home/travis/build\l/ComPWA/ComPWA/Physics\l/BuilderXML.cpp">
<polygon fill="white" stroke="black" points="1054,-0.5 1054,-41.5 1203,-41.5 1203,-0.5 1054,-0.5"/>
<text text-anchor="start" x="1062" y="-29.5" font-family="Helvetica,sans-Serif" font-size="10.00">/home/travis/build</text>
<text text-anchor="start" x="1062" y="-18.5" font-family="Helvetica,sans-Serif" font-size="10.00">/ComPWA/ComPWA/Physics</text>
<text text-anchor="middle" x="1128.5" y="-7.5" font-family="Helvetica,sans-Serif" font-size="10.00">/BuilderXML.cpp</text>
</a>
</g>
</g>
<!-- Node7&#45;&gt;Node8 -->
<g id="edge7" class="edge"><title>Node7&#45;&gt;Node8</title>
<path fill="none" stroke="midnightblue" d="M1018.5,-305.128C972.631,-256.174 889.47,-150.807 943.5,-78 968.797,-43.9113 1014.27,-29.8381 1053.79,-24.3229"/>
<polygon fill="midnightblue" stroke="midnightblue" points="1016.08,-307.663 1025.52,-312.487 1021.15,-302.833 1016.08,-307.663"/>
</g>
<!-- Node9 -->
<g id="node9" class="node"><title>Node9</title>
<g id="a_node9"><a xlink:href="Coupling_8hpp.html" target="_top" xlink:title="/home/travis/build\l/ComPWA/ComPWA/Physics\l/Dynamics/Coupling.hpp">
<polygon fill="white" stroke="black" points="1214,-234.5 1214,-275.5 1363,-275.5 1363,-234.5 1214,-234.5"/>
<text text-anchor="start" x="1222" y="-263.5" font-family="Helvetica,sans-Serif" font-size="10.00">/home/travis/build</text>
<text text-anchor="start" x="1222" y="-252.5" font-family="Helvetica,sans-Serif" font-size="10.00">/ComPWA/ComPWA/Physics</text>
<text text-anchor="middle" x="1288.5" y="-241.5" font-family="Helvetica,sans-Serif" font-size="10.00">/Dynamics/Coupling.hpp</text>
</a>
</g>
</g>
<!-- Node7&#45;&gt;Node9 -->
<g id="edge8" class="edge"><title>Node7&#45;&gt;Node9</title>
<path fill="none" stroke="midnightblue" d="M1117.63,-309.442C1152.12,-298.655 1193,-285.867 1226.13,-275.506"/>
<polygon fill="midnightblue" stroke="midnightblue" points="1116.58,-306.103 1108.08,-312.428 1118.67,-312.783 1116.58,-306.103"/>
</g>
<!-- Node10 -->
<g id="node10" class="node"><title>Node10</title>
<g id="a_node10"><a xlink:href="Flatte_8hpp.html" target="_top" xlink:title="/home/travis/build\l/ComPWA/ComPWA/Physics\l/Dynamics/Flatte.hpp">
<polygon fill="white" stroke="red" points="1166,-78.5 1166,-119.5 1315,-119.5 1315,-78.5 1166,-78.5"/>
<text text-anchor="start" x="1174" y="-107.5" font-family="Helvetica,sans-Serif" font-size="10.00">/home/travis/build</text>
<text text-anchor="start" x="1174" y="-96.5" font-family="Helvetica,sans-Serif" font-size="10.00">/ComPWA/ComPWA/Physics</text>
<text text-anchor="middle" x="1240.5" y="-85.5" font-family="Helvetica,sans-Serif" font-size="10.00">/Dynamics/Flatte.hpp</text>
</a>
</g>
</g>
<!-- Node7&#45;&gt;Node10 -->
<g id="edge16" class="edge"><title>Node7&#45;&gt;Node10</title>
<path fill="none" stroke="midnightblue" d="M1130.42,-329.47C1216.77,-324.896 1342.1,-312.054 1372.5,-276 1418.54,-221.4 1326.89,-152.656 1274.13,-119.566"/>
<polygon fill="midnightblue" stroke="midnightblue" points="1130.16,-325.979 1120.35,-329.976 1130.51,-332.97 1130.16,-325.979"/>
</g>
<!-- Node7&#45;&gt;Node11 -->
<g id="edge17" class="edge"><title>Node7&#45;&gt;Node11</title>
<path fill="none" stroke="midnightblue" d="M1035.42,-302.556C1030.25,-282.116 1027.16,-254.91 1038.5,-234 1046.99,-218.337 1061.97,-206.366 1077.08,-197.592"/>
<polygon fill="midnightblue" stroke="midnightblue" points="1032.07,-303.596 1038.15,-312.274 1038.81,-301.7 1032.07,-303.596"/>
</g>
<!-- Node12 -->
<g id="node12" class="node"><title>Node12</title>
<g id="a_node12"><a xlink:href="Voigtian_8hpp.html" target="_top" xlink:title="This file contains the declaration of the Voigtian class, which is used the implementation of voigt f...">
<polygon fill="white" stroke="red" points="952,-78.5 952,-119.5 1101,-119.5 1101,-78.5 952,-78.5"/>
<text text-anchor="start" x="960" y="-107.5" font-family="Helvetica,sans-Serif" font-size="10.00">/home/travis/build</text>
<text text-anchor="start" x="960" y="-96.5" font-family="Helvetica,sans-Serif" font-size="10.00">/ComPWA/ComPWA/Physics</text>
<text text-anchor="middle" x="1026.5" y="-85.5" font-family="Helvetica,sans-Serif" font-size="10.00">/Dynamics/Voigtian.hpp</text>
</a>
</g>
</g>
<!-- Node7&#45;&gt;Node12 -->
<g id="edge19" class="edge"><title>Node7&#45;&gt;Node12</title>
<path fill="none" stroke="midnightblue" d="M1033.85,-302.898C1030.93,-294.364 1028.15,-284.925 1026.5,-276 1016.17,-220.113 1020.85,-152.528 1024.18,-119.745"/>
<polygon fill="midnightblue" stroke="midnightblue" points="1030.6,-304.206 1037.3,-312.415 1037.19,-301.821 1030.6,-304.206"/>
</g>
<!-- Node13 -->
<g id="node13" class="node"><title>Node13</title>
<g id="a_node13"><a xlink:href="FormFactor_8cpp.html" target="_top" xlink:title="/home/travis/build\l/ComPWA/ComPWA/Physics\l/Dynamics/FormFactor.cpp">
<polygon fill="white" stroke="black" points="1047,-234.5 1047,-275.5 1196,-275.5 1196,-234.5 1047,-234.5"/>
<text text-anchor="start" x="1055" y="-263.5" font-family="Helvetica,sans-Serif" font-size="10.00">/home/travis/build</text>
<text text-anchor="start" x="1055" y="-252.5" font-family="Helvetica,sans-Serif" font-size="10.00">/ComPWA/ComPWA/Physics</text>
<text text-anchor="middle" x="1121.5" y="-241.5" font-family="Helvetica,sans-Serif" font-size="10.00">/Dynamics/FormFactor.cpp</text>
</a>
</g>
</g>
<!-- Node7&#45;&gt;Node13 -->
<g id="edge18" class="edge"><title>Node7&#45;&gt;Node13</title>
<path fill="none" stroke="midnightblue" d="M1072.3,-305.204C1082.08,-295.416 1092.96,-284.539 1101.99,-275.506"/>
<polygon fill="midnightblue" stroke="midnightblue" points="1069.67,-302.882 1065.07,-312.428 1074.62,-307.832 1069.67,-302.882"/>
</g>
<!-- Node9&#45;&gt;Node10 -->
<g id="edge9" class="edge"><title>Node9&#45;&gt;Node10</title>
<path fill="none" stroke="midnightblue" d="M1279.39,-224.767C1269.8,-194.019 1254.99,-146.474 1246.68,-119.832"/>
<polygon fill="midnightblue" stroke="midnightblue" points="1276.1,-225.99 1282.42,-234.496 1282.79,-223.907 1276.1,-225.99"/>
</g>
<!-- Node9&#45;&gt;Node11 -->
<g id="edge11" class="edge"><title>Node9&#45;&gt;Node11</title>
<path fill="none" stroke="midnightblue" d="M1237.12,-230.189C1214.43,-219.675 1188.09,-207.469 1166.59,-197.506"/>
<polygon fill="midnightblue" stroke="midnightblue" points="1235.72,-233.399 1246.27,-234.428 1238.66,-227.048 1235.72,-233.399"/>
</g>
<!-- Node10&#45;&gt;Node8 -->
<g id="edge10" class="edge"><title>Node10&#45;&gt;Node8</title>
<path fill="none" stroke="midnightblue" d="M1203.12,-72.6352C1188.16,-62.4868 1171.21,-50.9816 1157.25,-41.5056"/>
<polygon fill="midnightblue" stroke="midnightblue" points="1201.42,-75.7092 1211.66,-78.4281 1205.35,-69.9169 1201.42,-75.7092"/>
</g>
<!-- Node11&#45;&gt;Node8 -->
<g id="edge12" class="edge"><title>Node11&#45;&gt;Node8</title>
<path fill="none" stroke="midnightblue" d="M1125.27,-146.365C1126.07,-115.606 1127.3,-68.3579 1127.98,-41.8323"/>
<polygon fill="midnightblue" stroke="midnightblue" points="1121.77,-146.408 1125.01,-156.496 1128.77,-146.59 1121.77,-146.408"/>
</g>
<!-- Node11&#45;&gt;Node10 -->
<g id="edge13" class="edge"><title>Node11&#45;&gt;Node10</title>
<path fill="none" stroke="midnightblue" d="M1162.78,-150.919C1178.38,-140.702 1196.13,-129.07 1210.73,-119.506"/>
<polygon fill="midnightblue" stroke="midnightblue" points="1160.82,-148.02 1154.37,-156.428 1164.66,-153.875 1160.82,-148.02"/>
</g>
<!-- Node11&#45;&gt;Node12 -->
<g id="edge14" class="edge"><title>Node11&#45;&gt;Node12</title>
<path fill="none" stroke="midnightblue" d="M1091.06,-150.065C1078.15,-140.057 1063.64,-128.804 1051.65,-119.506"/>
<polygon fill="midnightblue" stroke="midnightblue" points="1089.22,-153.066 1099.26,-156.428 1093.51,-147.534 1089.22,-153.066"/>
</g>
<!-- Node12&#45;&gt;Node8 -->
<g id="edge15" class="edge"><title>Node12&#45;&gt;Node8</title>
<path fill="none" stroke="midnightblue" d="M1060.92,-72.3503C1074.45,-62.2719 1089.72,-50.893 1102.32,-41.5056"/>
<polygon fill="midnightblue" stroke="midnightblue" points="1058.7,-69.6467 1052.77,-78.4281 1062.88,-75.2599 1058.7,-69.6467"/>
</g>
<!-- Node14&#45;&gt;Node8 -->
<g id="edge22" class="edge"><title>Node14&#45;&gt;Node8</title>
<path fill="none" stroke="midnightblue" d="M1555.01,-307.128C1567.2,-299.042 1578.49,-288.769 1585.5,-276 1594.48,-259.637 1594.71,-250.236 1585.5,-234 1507.39,-96.3086 1311.28,-47.3441 1203.08,-30.4721"/>
<polygon fill="midnightblue" stroke="midnightblue" points="1553.15,-304.161 1546.46,-312.38 1556.81,-310.124 1553.15,-304.161"/>
</g>
<!-- Node15 -->
<g id="node15" class="node"><title>Node15</title>
<g id="a_node15"><a xlink:href="WignerD_8cpp.html" target="_top" xlink:title="/home/travis/build\l/ComPWA/ComPWA/Physics\l/HelicityFormalism/WignerD.cpp">
<polygon fill="white" stroke="black" points="1418.5,-234.5 1418.5,-275.5 1576.5,-275.5 1576.5,-234.5 1418.5,-234.5"/>
<text text-anchor="start" x="1426.5" y="-263.5" font-family="Helvetica,sans-Serif" font-size="10.00">/home/travis/build</text>
<text text-anchor="start" x="1426.5" y="-252.5" font-family="Helvetica,sans-Serif" font-size="10.00">/ComPWA/ComPWA/Physics</text>
<text text-anchor="middle" x="1497.5" y="-241.5" font-family="Helvetica,sans-Serif" font-size="10.00">/HelicityFormalism/WignerD.cpp</text>
</a>
</g>
</g>
<!-- Node14&#45;&gt;Node15 -->
<g id="edge23" class="edge"><title>Node14&#45;&gt;Node15</title>
<path fill="none" stroke="midnightblue" d="M1497.5,-302.297C1497.5,-293.301 1497.5,-283.653 1497.5,-275.506"/>
<polygon fill="midnightblue" stroke="midnightblue" points="1494,-302.428 1497.5,-312.428 1501,-302.428 1494,-302.428"/>
</g>
</g>
</svg>
