<?xml version="1.0" encoding="UTF-8" standalone="no"?>
<!DOCTYPE svg PUBLIC "-//W3C//DTD SVG 1.1//EN"
 "http://www.w3.org/Graphics/SVG/1.1/DTD/svg11.dtd">
<!-- Generated by graphviz version 2.38.0 (20140413.2041)
 -->
<!-- Title: /home/travis/build/ComPWA/ComPWA/Core/Utils.hpp Pages: 1 -->
<svg width="927pt" height="184pt"
 viewBox="0.00 0.00 926.50 184.00" xmlns="http://www.w3.org/2000/svg" xmlns:xlink="http://www.w3.org/1999/xlink">
<g id="graph0" class="graph" transform="scale(1 1) rotate(0) translate(4 180)">
<title>/home/travis/build/ComPWA/ComPWA/Core/Utils.hpp</title>
<polygon fill="white" stroke="none" points="-4,4 -4,-180 922.5,-180 922.5,4 -4,4"/>
<!-- Node1 -->
<g id="node1" class="node"><title>Node1</title>
<polygon fill="#bfbfbf" stroke="black" points="530,-134.5 530,-175.5 664,-175.5 664,-134.5 530,-134.5"/>
<text text-anchor="start" x="538" y="-163.5" font-family="Helvetica,sans-Serif" font-size="10.00">/home/travis/build</text>
<text text-anchor="start" x="538" y="-152.5" font-family="Helvetica,sans-Serif" font-size="10.00">/ComPWA/ComPWA/Core</text>
<text text-anchor="middle" x="597" y="-141.5" font-family="Helvetica,sans-Serif" font-size="10.00">/Utils.hpp</text>
</g>
<!-- Node2 -->
<g id="node2" class="node"><title>Node2</title>
<g id="a_node2"><a xlink:href="Logging_8hpp.html" target="_top" xlink:title="Core/Logging.hpp">
<polygon fill="white" stroke="black" points="17.5,-73 17.5,-92 118.5,-92 118.5,-73 17.5,-73"/>
<text text-anchor="middle" x="68" y="-80" font-family="Helvetica,sans-Serif" font-size="10.00">Core/Logging.hpp</text>
</a>
</g>
</g>
<!-- Node1&#45;&gt;Node2 -->
<g id="edge1" class="edge"><title>Node1&#45;&gt;Node2</title>
<path fill="none" stroke="midnightblue" d="M529.837,-148.497C438.453,-140.438 270.044,-123.551 128,-98 122.189,-96.9547 116.1,-95.6878 110.123,-94.343"/>
<polygon fill="midnightblue" stroke="midnightblue" points="110.77,-90.9 100.236,-92.0317 109.177,-97.7163 110.77,-90.9"/>
</g>
<!-- Node4 -->
<g id="node4" class="node"><title>Node4</title>
<polygon fill="white" stroke="#bfbfbf" points="137,-67.5 137,-97.5 259,-97.5 259,-67.5 137,-67.5"/>
<text text-anchor="start" x="145" y="-85.5" font-family="Helvetica,sans-Serif" font-size="10.00">boost/algorithm/string</text>
<text text-anchor="middle" x="198" y="-74.5" font-family="Helvetica,sans-Serif" font-size="10.00">/predicate.hpp</text>
</g>
<!-- Node1&#45;&gt;Node4 -->
<g id="edge3" class="edge"><title>Node1&#45;&gt;Node4</title>
<path fill="none" stroke="midnightblue" d="M529.768,-143.276C465.398,-132.845 365.303,-116.199 268.968,-98.1461"/>
<polygon fill="midnightblue" stroke="midnightblue" points="269.533,-94.6909 259.058,-96.2813 268.238,-101.57 269.533,-94.6909"/>
</g>
<!-- Node5 -->
<g id="node5" class="node"><title>Node5</title>
<polygon fill="white" stroke="#bfbfbf" points="277,-67.5 277,-97.5 399,-97.5 399,-67.5 277,-67.5"/>
<text text-anchor="start" x="285" y="-85.5" font-family="Helvetica,sans-Serif" font-size="10.00">boost/algorithm/string</text>
<text text-anchor="middle" x="338" y="-74.5" font-family="Helvetica,sans-Serif" font-size="10.00">/trim.hpp</text>
</g>
<!-- Node1&#45;&gt;Node5 -->
<g id="edge4" class="edge"><title>Node1&#45;&gt;Node5</title>
<path fill="none" stroke="midnightblue" d="M529.964,-135.753C489.617,-124.77 438.633,-110.892 399.349,-100.199"/>
<polygon fill="midnightblue" stroke="midnightblue" points="400.196,-96.8024 389.628,-97.5531 398.357,-103.557 400.196,-96.8024"/>
</g>
<!-- Node6 -->
<g id="node6" class="node"><title>Node6</title>
<polygon fill="white" stroke="#bfbfbf" points="417,-73 417,-92 523,-92 523,-73 417,-73"/>
<text text-anchor="middle" x="470" y="-80" font-family="Helvetica,sans-Serif" font-size="10.00">boost/optional.hpp</text>
</g>
<!-- Node1&#45;&gt;Node6 -->
<g id="edge5" class="edge"><title>Node1&#45;&gt;Node6</title>
<path fill="none" stroke="midnightblue" d="M561.623,-134.362C540.276,-122.511 513.614,-107.711 494.565,-97.1365"/>
<polygon fill="midnightblue" stroke="midnightblue" points="496.066,-93.9668 485.624,-92.1734 492.669,-100.087 496.066,-93.9668"/>
</g>
<!-- Node7 -->
<g id="node7" class="node"><title>Node7</title>
<polygon fill="white" stroke="#bfbfbf" points="541,-67.5 541,-97.5 653,-97.5 653,-67.5 541,-67.5"/>
<text text-anchor="start" x="549" y="-85.5" font-family="Helvetica,sans-Serif" font-size="10.00">boost/property_tree</text>
<text text-anchor="middle" x="597" y="-74.5" font-family="Helvetica,sans-Serif" font-size="10.00">/ptree.hpp</text>
</g>
<!-- Node1&#45;&gt;Node7 -->
<g id="edge6" class="edge"><title>Node1&#45;&gt;Node7</title>
<path fill="none" stroke="midnightblue" d="M597,-134.362C597,-126.226 597,-116.7 597,-108.105"/>
<polygon fill="midnightblue" stroke="midnightblue" points="600.5,-107.892 597,-97.8916 593.5,-107.892 600.5,-107.892"/>
</g>
<!-- Node8 -->
<g id="node8" class="node"><title>Node8</title>
<polygon fill="white" stroke="#bfbfbf" points="671.5,-73 671.5,-92 718.5,-92 718.5,-73 671.5,-73"/>
<text text-anchor="middle" x="695" y="-80" font-family="Helvetica,sans-Serif" font-size="10.00">cmath</text>
</g>
<!-- Node1&#45;&gt;Node8 -->
<g id="edge7" class="edge"><title>Node1&#45;&gt;Node8</title>
<path fill="none" stroke="midnightblue" d="M624.298,-134.362C640.245,-122.89 660.034,-108.654 674.617,-98.1632"/>
<polygon fill="midnightblue" stroke="midnightblue" points="676.87,-100.854 682.943,-92.1734 672.782,-95.172 676.87,-100.854"/>
</g>
<!-- Node9 -->
<g id="node9" class="node"><title>Node9</title>
<polygon fill="white" stroke="#bfbfbf" points="737,-73 737,-92 779,-92 779,-73 737,-73"/>
<text text-anchor="middle" x="758" y="-80" font-family="Helvetica,sans-Serif" font-size="10.00">limits</text>
</g>
<!-- Node1&#45;&gt;Node9 -->
<g id="edge8" class="edge"><title>Node1&#45;&gt;Node9</title>
<path fill="none" stroke="midnightblue" d="M644.22,-134.436C669.242,-123.913 700.423,-110.551 728,-98 729.155,-97.4743 730.332,-96.9323 731.52,-96.3805"/>
<polygon fill="midnightblue" stroke="midnightblue" points="733.076,-99.5161 740.614,-92.0711 730.079,-93.1903 733.076,-99.5161"/>
</g>
<!-- Node10 -->
<g id="node10" class="node"><title>Node10</title>
<polygon fill="white" stroke="#bfbfbf" points="797,-73 797,-92 853,-92 853,-73 797,-73"/>
<text text-anchor="middle" x="825" y="-80" font-family="Helvetica,sans-Serif" font-size="10.00">sstream</text>
</g>
<!-- Node1&#45;&gt;Node10 -->
<g id="edge9" class="edge"><title>Node1&#45;&gt;Node10</title>
<path fill="none" stroke="midnightblue" d="M664.191,-135.866C701.003,-125.54 747.291,-111.914 788,-98 790.122,-97.2748 792.301,-96.5 794.489,-95.7"/>
<polygon fill="midnightblue" stroke="midnightblue" points="795.873,-98.9185 803.987,-92.1057 793.396,-92.3716 795.873,-98.9185"/>
</g>
<!-- Node11 -->
<g id="node11" class="node"><title>Node11</title>
<polygon fill="white" stroke="#bfbfbf" points="871.5,-73 871.5,-92 918.5,-92 918.5,-73 871.5,-73"/>
<text text-anchor="middle" x="895" y="-80" font-family="Helvetica,sans-Serif" font-size="10.00">vector</text>
</g>
<!-- Node1&#45;&gt;Node11 -->
<g id="edge10" class="edge"><title>Node1&#45;&gt;Node11</title>
<path fill="none" stroke="midnightblue" d="M664.149,-143.744C718.321,-134.537 796.083,-119.197 862,-98 863.921,-97.3822 865.882,-96.6899 867.842,-95.9517"/>
<polygon fill="midnightblue" stroke="midnightblue" points="869.525,-99.0445 877.448,-92.0107 866.868,-92.5683 869.525,-99.0445"/>
</g>
<!-- Node3 -->
<g id="node3" class="node"><title>Node3</title>
<polygon fill="white" stroke="#bfbfbf" points="0,-0.5 0,-30.5 136,-30.5 136,-0.5 0,-0.5"/>
<text text-anchor="start" x="8" y="-18.5" font-family="Helvetica,sans-Serif" font-size="10.00">ThirdParty/easyloggingpp</text>
<text text-anchor="middle" x="68" y="-7.5" font-family="Helvetica,sans-Serif" font-size="10.00">/easylogging++.h</text>
</g>
<!-- Node2&#45;&gt;Node3 -->
<g id="edge2" class="edge"><title>Node2&#45;&gt;Node3</title>
<path fill="none" stroke="midnightblue" d="M68,-72.7338C68,-64.5406 68,-51.9225 68,-40.7136"/>
<polygon fill="midnightblue" stroke="midnightblue" points="71.5001,-40.589 68,-30.589 64.5001,-40.5891 71.5001,-40.589"/>
</g>
</g>
</svg>
