<?xml version="1.0" encoding="UTF-8" standalone="no"?>
<!DOCTYPE svg PUBLIC "-//W3C//DTD SVG 1.1//EN"
 "http://www.w3.org/Graphics/SVG/1.1/DTD/svg11.dtd">
<!-- Generated by graphviz version 2.40.1 (20161225.0304)
 -->
<!-- Title: Core/Utils.hpp Pages: 1 -->
<svg width="603pt" height="95pt"
 viewBox="0.00 0.00 602.50 95.00" xmlns="http://www.w3.org/2000/svg" xmlns:xlink="http://www.w3.org/1999/xlink">
<g id="graph0" class="graph" transform="scale(1 1) rotate(0) translate(4 91)">
<title>Core/Utils.hpp</title>
<polygon fill="#ffffff" stroke="transparent" points="-4,4 -4,-91 598.5,-91 598.5,4 -4,4"/>
<!-- Node11 -->
<g id="node1" class="node">
<title>Node11</title>
<polygon fill="#bfbfbf" stroke="#000000" points="256,-67.5 256,-86.5 342,-86.5 342,-67.5 256,-67.5"/>
<text text-anchor="middle" x="299" y="-74.5" font-family="Helvetica,sans-Serif" font-size="10.00" fill="#000000">Core/Utils.hpp</text>
</g>
<!-- Node12 -->
<g id="node2" class="node">
<title>Node12</title>
<g id="a_node2"><a xlink:href="FitResult_8cpp.html" target="_top" xlink:title="Core/FitResult.cpp">
<polygon fill="#ffffff" stroke="#000000" points="0,-6 0,-25 104,-25 104,-6 0,-6"/>
<text text-anchor="middle" x="52" y="-13" font-family="Helvetica,sans-Serif" font-size="10.00" fill="#000000">Core/FitResult.cpp</text>
</a>
</g>
</g>
<!-- Node11&#45;&gt;Node12 -->
<g id="edge1" class="edge">
<title>Node11&#45;&gt;Node12</title>
<path fill="none" stroke="#191970" d="M249.9992,-64.972C212.4808,-55.7406 159.4517,-42.6456 113,-31 105.3689,-29.0869 97.205,-27.0238 89.4118,-25.0464"/>
<polygon fill="#191970" stroke="#191970" points="249.605,-68.4793 260.1516,-67.4689 251.2768,-61.6819 249.605,-68.4793"/>
</g>
<!-- Node13 -->
<g id="node3" class="node">
<title>Node13</title>
<g id="a_node3"><a xlink:href="FitParameter_8cpp.html" target="_top" xlink:title="Core/FunctionTree/FitParameter.cpp">
<polygon fill="#ffffff" stroke="#000000" points="122.5,-6 122.5,-25 309.5,-25 309.5,-6 122.5,-6"/>
<text text-anchor="middle" x="216" y="-13" font-family="Helvetica,sans-Serif" font-size="10.00" fill="#000000">Core/FunctionTree/FitParameter.cpp</text>
</a>
</g>
</g>
<!-- Node11&#45;&gt;Node13 -->
<g id="edge2" class="edge">
<title>Node11&#45;&gt;Node13</title>
<path fill="none" stroke="#191970" d="M277.6077,-61.1491C262.1858,-49.722 241.8784,-34.6749 228.8777,-25.0419"/>
<polygon fill="#191970" stroke="#191970" points="275.9128,-64.2493 286.0313,-67.3906 280.0802,-58.625 275.9128,-64.2493"/>
</g>
<!-- Node14 -->
<g id="node4" class="node">
<title>Node14</title>
<g id="a_node4"><a xlink:href="Properties_8cpp.html" target="_top" xlink:title="Core/Properties.cpp">
<polygon fill="#ffffff" stroke="#000000" points="327,-6 327,-25 439,-25 439,-6 327,-6"/>
<text text-anchor="middle" x="383" y="-13" font-family="Helvetica,sans-Serif" font-size="10.00" fill="#000000">Core/Properties.cpp</text>
</a>
</g>
</g>
<!-- Node11&#45;&gt;Node14 -->
<g id="edge3" class="edge">
<title>Node11&#45;&gt;Node14</title>
<path fill="none" stroke="#191970" d="M320.2137,-61.4685C335.873,-50.0037 356.6869,-34.765 369.9672,-25.0419"/>
<polygon fill="#191970" stroke="#191970" points="318.126,-58.6592 312.125,-67.3906 322.2612,-64.3072 318.126,-58.6592"/>
</g>
<!-- Node15 -->
<g id="node5" class="node">
<title>Node15</title>
<g id="a_node5"><a xlink:href="MinuitIF_8cpp.html" target="_top" xlink:title="Optimizer/Minuit2/Minuit\lIF.cpp">
<polygon fill="#ffffff" stroke="#000000" points="457.5,-.5 457.5,-30.5 594.5,-30.5 594.5,-.5 457.5,-.5"/>
<text text-anchor="start" x="465.5" y="-18.5" font-family="Helvetica,sans-Serif" font-size="10.00" fill="#000000">Optimizer/Minuit2/Minuit</text>
<text text-anchor="middle" x="526" y="-7.5" font-family="Helvetica,sans-Serif" font-size="10.00" fill="#000000">IF.cpp</text>
</a>
</g>
</g>
<!-- Node11&#45;&gt;Node15 -->
<g id="edge4" class="edge">
<title>Node11&#45;&gt;Node15</title>
<path fill="none" stroke="#191970" d="M344.2935,-64.7289C380.5978,-54.8931 431.701,-41.048 470.4696,-30.5446"/>
<polygon fill="#191970" stroke="#191970" points="343.2055,-61.3974 334.4688,-67.3906 345.0361,-68.1538 343.2055,-61.3974"/>
</g>
</g>
</svg>
