<?xml version="1.0" encoding="UTF-8" standalone="no"?>
<!DOCTYPE svg PUBLIC "-//W3C//DTD SVG 1.1//EN"
 "http://www.w3.org/Graphics/SVG/1.1/DTD/svg11.dtd">
<!-- Generated by graphviz version 2.40.1 (20161225.0304)
 -->
<!-- Title: Core/FunctionTree/Value.hpp Pages: 1 -->
<!--zoomable 218 -->
<svg id="main" version="1.1" xmlns="http://www.w3.org/2000/svg" xmlns:xlink="http://www.w3.org/1999/xlink" xml:space="preserve" onload="init(evt)">
<style type="text/css"><![CDATA[
.edge:hover path { stroke: red; }
.edge:hover polygon { stroke: red; fill: red; }
]]></style>
<script type="text/javascript"><![CDATA[
var edges = document.getElementsByTagName('g');
if (edges && edges.length) {
  for (var i=0;i<edges.length;i++) {
    if (edges[i].id.substr(0,4)=='edge') {
      edges[i].setAttribute('class','edge');
    }
  }
}
]]></script>
        <defs>
                <circle id="rim" cx="0" cy="0" r="7"/>
                <circle id="rim2" cx="0" cy="0" r="3.5"/>
                <g id="zoomPlus">
                        <use xlink:href="#rim" fill="#404040">
                                <set attributeName="fill" to="#808080" begin="zoomplus.mouseover" end="zoomplus.mouseout"/>
                        </use>
                        <path d="M-4,0h8M0,-4v8" fill="none" stroke="white" stroke-width="1.5" pointer-events="none"/>
                </g>
                <g id="zoomMin">
                        <use xlink:href="#rim" fill="#404040">
                                <set attributeName="fill" to="#808080" begin="zoomminus.mouseover" end="zoomminus.mouseout"/>
                        </use>
                        <path d="M-4,0h8" fill="none" stroke="white" stroke-width="1.5" pointer-events="none"/>
                </g>
                <g id="dirArrow">
                        <path fill="none" stroke="white" stroke-width="1.5" d="M0,-3.0v7 M-2.5,-0.5L0,-3.0L2.5,-0.5"/>
                </g>
               <g id="resetDef">
                       <use xlink:href="#rim2" fill="#404040">
                               <set attributeName="fill" to="#808080" begin="reset.mouseover" end="reset.mouseout"/>
                       </use>
               </g>
        </defs>

<script type="text/javascript">
var viewWidth = 1044;
var viewHeight = 218;
var sectionId = 'dynsection-0';
</script>
<script xlink:href="svgpan.js"/>
<svg id="graph" class="graph">
<g id="viewport">
<title>Core/FunctionTree/Value.hpp</title>
<polygon fill="#ffffff" stroke="transparent" points="-4,4 -4,-214 1040,-214 1040,4 -4,4"/>
<!-- Node0 -->
<g id="node1" class="node">
<title>Node0</title>
<polygon fill="#bfbfbf" stroke="#000000" points="546.5,-190.5 546.5,-209.5 700.5,-209.5 700.5,-190.5 546.5,-190.5"/>
<text text-anchor="middle" x="623.5" y="-197.5" font-family="Helvetica,sans-Serif" font-size="10.00" fill="#000000">Core/FunctionTree/Value.hpp</text>
</g>
<!-- Node1 -->
<g id="node2" class="node">
<title>Node1</title>
<g id="a_node2"><a xlink:href="FunctionTree_2FitParameter_8hpp.html" target="_top" xlink:title="Implementations of Parameter for various data types. ">
<polygon fill="#ffffff" stroke="#000000" points="527.5,-134.5 527.5,-153.5 625.5,-153.5 625.5,-134.5 527.5,-134.5"/>
<text text-anchor="middle" x="576.5" y="-141.5" font-family="Helvetica,sans-Serif" font-size="10.00" fill="#000000">FitParameter.hpp</text>
</a>
</g>
</g>
<!-- Node0&#45;&gt;Node1 -->
<g id="edge1" class="edge">
<title>Node0&#45;&gt;Node1</title>
<path fill="none" stroke="#191970" d="M615.3132,-190.2455C608.6411,-182.2958 599.0521,-170.8706 591.0747,-161.3656"/>
<polygon fill="#191970" stroke="#191970" points="593.7026,-159.0524 584.593,-153.6427 588.3408,-163.5525 593.7026,-159.0524"/>
</g>
<!-- Node29 -->
<g id="node15" class="node">
<title>Node29</title>
<polygon fill="#ffffff" stroke="#bfbfbf" points="644,-134.5 644,-153.5 697,-153.5 697,-134.5 644,-134.5"/>
<text text-anchor="middle" x="670.5" y="-141.5" font-family="Helvetica,sans-Serif" font-size="10.00" fill="#000000">iterator</text>
</g>
<!-- Node0&#45;&gt;Node29 -->
<g id="edge20" class="edge">
<title>Node0&#45;&gt;Node29</title>
<path fill="none" stroke="#191970" d="M631.6868,-190.2455C638.3589,-182.2958 647.9479,-170.8706 655.9253,-161.3656"/>
<polygon fill="#191970" stroke="#191970" points="658.6592,-163.5525 662.407,-153.6427 653.2974,-159.0524 658.6592,-163.5525"/>
</g>
<!-- Node2 -->
<g id="node3" class="node">
<title>Node2</title>
<polygon fill="#ffffff" stroke="#bfbfbf" points="0,-73 0,-92 47,-92 47,-73 0,-73"/>
<text text-anchor="middle" x="23.5" y="-80" font-family="Helvetica,sans-Serif" font-size="10.00" fill="#000000">cmath</text>
</g>
<!-- Node1&#45;&gt;Node2 -->
<g id="edge2" class="edge">
<title>Node1&#45;&gt;Node2</title>
<path fill="none" stroke="#191970" d="M527.1255,-141.4676C415.9867,-135.4634 149.0584,-119.259 61.5,-98 58.7089,-97.3223 55.8545,-96.4737 53.026,-95.5248"/>
<polygon fill="#191970" stroke="#191970" points="54.2311,-92.2388 43.6386,-92.015 51.7795,-98.7955 54.2311,-92.2388"/>
</g>
<!-- Node3 -->
<g id="node4" class="node">
<title>Node3</title>
<polygon fill="#ffffff" stroke="#bfbfbf" points="104,-6 104,-25 163,-25 163,-6 104,-6"/>
<text text-anchor="middle" x="133.5" y="-13" font-family="Helvetica,sans-Serif" font-size="10.00" fill="#000000">complex</text>
</g>
<!-- Node1&#45;&gt;Node3 -->
<g id="edge3" class="edge">
<title>Node1&#45;&gt;Node3</title>
<path fill="none" stroke="#191970" d="M527.1986,-142.9713C410.1692,-140.0208 123.2324,-129.6051 94.5,-98 77.1257,-78.8886 97.6978,-50.6598 114.9311,-32.6773"/>
<polygon fill="#191970" stroke="#191970" points="117.8296,-34.7321 122.4659,-25.2055 112.9007,-29.7616 117.8296,-34.7321"/>
</g>
<!-- Node4 -->
<g id="node5" class="node">
<title>Node4</title>
<polygon fill="#ffffff" stroke="#bfbfbf" points="687.5,-73 687.5,-92 747.5,-92 747.5,-73 687.5,-73"/>
<text text-anchor="middle" x="717.5" y="-80" font-family="Helvetica,sans-Serif" font-size="10.00" fill="#000000">iostream</text>
</g>
<!-- Node1&#45;&gt;Node4 -->
<g id="edge4" class="edge">
<title>Node1&#45;&gt;Node4</title>
<path fill="none" stroke="#191970" d="M598.5313,-134.3906C622.1231,-124.1005 659.7501,-107.6888 686.3633,-96.0809"/>
<polygon fill="#191970" stroke="#191970" points="687.8567,-99.248 695.6235,-92.0419 685.0581,-92.8318 687.8567,-99.248"/>
</g>
<!-- Node5 -->
<g id="node6" class="node">
<title>Node5</title>
<polygon fill="#ffffff" stroke="#bfbfbf" points="765.5,-73 765.5,-92 821.5,-92 821.5,-73 765.5,-73"/>
<text text-anchor="middle" x="793.5" y="-80" font-family="Helvetica,sans-Serif" font-size="10.00" fill="#000000">sstream</text>
</g>
<!-- Node1&#45;&gt;Node5 -->
<g id="edge5" class="edge">
<title>Node1&#45;&gt;Node5</title>
<path fill="none" stroke="#191970" d="M621.4115,-134.448C658.15,-126.1765 711.2391,-113.1727 756.5,-98 758.5924,-97.2986 760.7338,-96.5333 762.8798,-95.7307"/>
<polygon fill="#191970" stroke="#191970" points="764.1674,-98.9854 772.1818,-92.0558 761.5953,-92.475 764.1674,-98.9854"/>
</g>
<!-- Node6 -->
<g id="node7" class="node">
<title>Node6</title>
<polygon fill="#ffffff" stroke="#bfbfbf" points="840,-73 840,-92 905,-92 905,-73 840,-73"/>
<text text-anchor="middle" x="872.5" y="-80" font-family="Helvetica,sans-Serif" font-size="10.00" fill="#000000">stdexcept</text>
</g>
<!-- Node1&#45;&gt;Node6 -->
<g id="edge6" class="edge">
<title>Node1&#45;&gt;Node6</title>
<path fill="none" stroke="#191970" d="M625.507,-135.599C693.7013,-123.8362 811.0716,-103.3007 830.5,-98 833.3119,-97.2328 836.2012,-96.3578 839.0849,-95.423"/>
<polygon fill="#191970" stroke="#191970" points="840.4385,-98.6584 848.7471,-92.0843 838.1523,-92.0423 840.4385,-98.6584"/>
</g>
<!-- Node7 -->
<g id="node8" class="node">
<title>Node7</title>
<polygon fill="#ffffff" stroke="#bfbfbf" points="328.5,-6 328.5,-25 372.5,-25 372.5,-6 328.5,-6"/>
<text text-anchor="middle" x="350.5" y="-13" font-family="Helvetica,sans-Serif" font-size="10.00" fill="#000000">string</text>
</g>
<!-- Node1&#45;&gt;Node7 -->
<g id="edge7" class="edge">
<title>Node1&#45;&gt;Node7</title>
<path fill="none" stroke="#191970" d="M527.4654,-142.1665C462.0582,-138.5721 351.5641,-128.0967 326.5,-98 311.1366,-79.5518 324.577,-51.6916 336.6762,-33.5457"/>
<polygon fill="#191970" stroke="#191970" points="339.7792,-35.2214 342.7214,-25.0433 334.0742,-31.1652 339.7792,-35.2214"/>
</g>
<!-- Node8 -->
<g id="node9" class="node">
<title>Node8</title>
<polygon fill="#ffffff" stroke="#bfbfbf" points="923,-67.5 923,-97.5 1036,-97.5 1036,-67.5 923,-67.5"/>
<text text-anchor="start" x="931" y="-85.5" font-family="Helvetica,sans-Serif" font-size="10.00" fill="#000000">boost/property_tree</text>
<text text-anchor="middle" x="979.5" y="-74.5" font-family="Helvetica,sans-Serif" font-size="10.00" fill="#000000">/ptree_fwd.hpp</text>
</g>
<!-- Node1&#45;&gt;Node8 -->
<g id="edge8" class="edge">
<title>Node1&#45;&gt;Node8</title>
<path fill="none" stroke="#191970" d="M625.7322,-135.5058C629.0356,-134.9821 632.3146,-134.4753 635.5,-134 755.8986,-116.0363 789.7491,-120.2857 912.6686,-98.2312"/>
<polygon fill="#191970" stroke="#191970" points="913.6413,-101.6118 922.8545,-96.3806 912.3899,-94.7246 913.6413,-101.6118"/>
</g>
<!-- Node9 -->
<g id="node10" class="node">
<title>Node9</title>
<polygon fill="#ffffff" stroke="#bfbfbf" points="479,-.5 479,-30.5 586,-30.5 586,-.5 479,-.5"/>
<text text-anchor="start" x="487" y="-18.5" font-family="Helvetica,sans-Serif" font-size="10.00" fill="#000000">boost/serialization</text>
<text text-anchor="middle" x="532.5" y="-7.5" font-family="Helvetica,sans-Serif" font-size="10.00" fill="#000000">/utility.hpp</text>
</g>
<!-- Node1&#45;&gt;Node9 -->
<g id="edge9" class="edge">
<title>Node1&#45;&gt;Node9</title>
<path fill="none" stroke="#191970" d="M584.6667,-134.1621C596.0591,-119.1662 614.0898,-89.9153 602.5,-67 596.0891,-54.3244 584.9259,-44.0066 573.3731,-36.0268"/>
<polygon fill="#191970" stroke="#191970" points="575.2617,-33.0802 564.9543,-30.6292 571.4836,-38.973 575.2617,-33.0802"/>
</g>
<!-- Node10 -->
<g id="node11" class="node">
<title>Node10</title>
<g id="a_node11"><a xlink:href="Exceptions_8hpp.html" target="_top" xlink:title="ComPWA exceptions. ">
<polygon fill="#ffffff" stroke="#ff0000" points="335.5,-73 335.5,-92 451.5,-92 451.5,-73 335.5,-73"/>
<text text-anchor="middle" x="393.5" y="-80" font-family="Helvetica,sans-Serif" font-size="10.00" fill="#000000">Core/Exceptions.hpp</text>
</a>
</g>
</g>
<!-- Node1&#45;&gt;Node10 -->
<g id="edge10" class="edge">
<title>Node1&#45;&gt;Node10</title>
<path fill="none" stroke="#191970" d="M547.9063,-134.3906C516.6155,-123.8749 466.3014,-106.966 431.66,-95.3243"/>
<polygon fill="#191970" stroke="#191970" points="432.487,-91.9099 421.893,-92.0419 430.257,-98.5452 432.487,-91.9099"/>
</g>
<!-- Node12 -->
<g id="node12" class="node">
<title>Node12</title>
<g id="a_node12"><a xlink:href="FitParameter_8hpp.html" target="_top" xlink:title="Core/FitParameter.hpp">
<polygon fill="#ffffff" stroke="#ff0000" points="469.5,-73 469.5,-92 593.5,-92 593.5,-73 469.5,-73"/>
<text text-anchor="middle" x="531.5" y="-80" font-family="Helvetica,sans-Serif" font-size="10.00" fill="#000000">Core/FitParameter.hpp</text>
</a>
</g>
</g>
<!-- Node1&#45;&gt;Node12 -->
<g id="edge12" class="edge">
<title>Node1&#45;&gt;Node12</title>
<path fill="none" stroke="#191970" d="M569.4688,-134.3906C562.837,-125.3273 552.7304,-111.5149 544.6113,-100.4188"/>
<polygon fill="#191970" stroke="#191970" points="547.3601,-98.2484 538.6304,-92.2449 541.7109,-102.382 547.3601,-98.2484"/>
</g>
<!-- Node16 -->
<g id="node13" class="node">
<title>Node16</title>
<g id="a_node13"><a xlink:href="Logging_8hpp.html" target="_top" xlink:title="Core/Logging.hpp">
<polygon fill="#ffffff" stroke="#ff0000" points="607,-6 607,-25 708,-25 708,-6 607,-6"/>
<text text-anchor="middle" x="657.5" y="-13" font-family="Helvetica,sans-Serif" font-size="10.00" fill="#000000">Core/Logging.hpp</text>
</a>
</g>
</g>
<!-- Node1&#45;&gt;Node16 -->
<g id="edge19" class="edge">
<title>Node1&#45;&gt;Node16</title>
<path fill="none" stroke="#191970" d="M586.4763,-134.4324C595.362,-125.5572 608.3379,-111.6921 617.5,-98 631.1353,-77.6231 642.8432,-51.9001 650.0069,-34.6413"/>
<polygon fill="#191970" stroke="#191970" points="653.3558,-35.6955 653.8566,-25.1125 646.8654,-33.0733 653.3558,-35.6955"/>
</g>
<!-- Node20 -->
<g id="node14" class="node">
<title>Node20</title>
<g id="a_node14"><a xlink:href="Parameter_8hpp.html" target="_top" xlink:title="Parameter base class. ">
<polygon fill="#ffffff" stroke="#ff0000" points="103.5,-73 103.5,-92 279.5,-92 279.5,-73 103.5,-73"/>
<text text-anchor="middle" x="191.5" y="-80" font-family="Helvetica,sans-Serif" font-size="10.00" fill="#000000">Core/FunctionTree/Parameter.hpp</text>
</a>
</g>
</g>
<!-- Node1&#45;&gt;Node20 -->
<g id="edge16" class="edge">
<title>Node1&#45;&gt;Node20</title>
<path fill="none" stroke="#191970" d="M527.3484,-136.1485C459.8341,-125.3638 338.0469,-105.9094 261.1611,-93.6277"/>
<polygon fill="#191970" stroke="#191970" points="261.5125,-90.1395 251.0856,-92.0182 260.4083,-97.0519 261.5125,-90.1395"/>
</g>
<!-- Node10&#45;&gt;Node7 -->
<g id="edge11" class="edge">
<title>Node10&#45;&gt;Node7</title>
<path fill="none" stroke="#191970" d="M387.3391,-72.9005C380.7614,-62.6515 370.1867,-46.1747 362.0507,-33.4976"/>
<polygon fill="#191970" stroke="#191970" points="364.9963,-31.6071 356.6494,-25.0817 359.1051,-35.388 364.9963,-31.6071"/>
</g>
<!-- Node12&#45;&gt;Node7 -->
<g id="edge14" class="edge">
<title>Node12&#45;&gt;Node7</title>
<path fill="none" stroke="#191970" d="M505.5671,-72.9005C473.0938,-60.88 417.478,-40.293 382.4224,-27.3166"/>
<polygon fill="#191970" stroke="#191970" points="383.2774,-23.901 372.6842,-23.7118 380.8473,-30.4657 383.2774,-23.901"/>
</g>
<!-- Node12&#45;&gt;Node9 -->
<g id="edge15" class="edge">
<title>Node12&#45;&gt;Node9</title>
<path fill="none" stroke="#191970" d="M531.6433,-72.9005C531.7685,-64.5099 531.956,-51.9451 532.1238,-40.7085"/>
<polygon fill="#191970" stroke="#191970" points="535.6261,-40.5729 532.2758,-30.5218 528.6269,-40.4684 535.6261,-40.5729"/>
</g>
<!-- Node12&#45;&gt;Node16 -->
<g id="edge13" class="edge">
<title>Node12&#45;&gt;Node16</title>
<path fill="none" stroke="#191970" d="M549.5527,-72.9005C570.6984,-61.6564 605.9404,-42.9166 630.3782,-29.9219"/>
<polygon fill="#191970" stroke="#191970" points="632.2947,-32.867 639.4808,-25.0817 629.0082,-26.6864 632.2947,-32.867"/>
</g>
<!-- Node20&#45;&gt;Node3 -->
<g id="edge17" class="edge">
<title>Node20&#45;&gt;Node3</title>
<path fill="none" stroke="#191970" d="M183.19,-72.9005C174.1454,-62.4525 159.4983,-45.5325 148.4445,-32.7635"/>
<polygon fill="#191970" stroke="#191970" points="150.9858,-30.3515 141.7946,-25.0817 145.6934,-34.9331 150.9858,-30.3515"/>
</g>
<!-- Node20&#45;&gt;Node7 -->
<g id="edge18" class="edge">
<title>Node20&#45;&gt;Node7</title>
<path fill="none" stroke="#191970" d="M214.2808,-72.9005C241.7099,-61.3424 287.9349,-41.8639 318.8264,-28.8467"/>
<polygon fill="#191970" stroke="#191970" points="320.4179,-31.9742 328.2741,-24.8656 317.6997,-25.5235 320.4179,-31.9742"/>
</g>
</g>
</svg>
        <g id="navigator" transform="translate(0 0)" fill="#404254">
                <rect fill="#f2f5e9" fill-opacity="0.5" stroke="#606060" stroke-width=".5" x="0" y="0" width="60" height="60"/>
                <use id="zoomplus" xlink:href="#zoomPlus" x="17" y="9" onmousedown="handleZoom(evt,'in')"/>
                <use id="zoomminus" xlink:href="#zoomMin" x="42" y="9" onmousedown="handleZoom(evt,'out')"/>
                <use id="reset" xlink:href="#resetDef" x="30" y="36" onmousedown="handleReset()"/>
                <g id="arrowUp" xlink:href="#dirArrow" transform="translate(30 24)" onmousedown="handlePan(0,-1)">
                  <use xlink:href="#rim" fill="#404040">
                        <set attributeName="fill" to="#808080" begin="arrowUp.mouseover" end="arrowUp.mouseout"/>
                  </use>
                  <path fill="none" stroke="white" stroke-width="1.5" d="M0,-3.0v7 M-2.5,-0.5L0,-3.0L2.5,-0.5"/>
                </g>
                <g id="arrowRight" xlink:href="#dirArrow" transform="rotate(90) translate(36 -43)" onmousedown="handlePan(1,0)">
                  <use xlink:href="#rim" fill="#404040">
                        <set attributeName="fill" to="#808080" begin="arrowRight.mouseover" end="arrowRight.mouseout"/>
                  </use>
                  <path fill="none" stroke="white" stroke-width="1.5" d="M0,-3.0v7 M-2.5,-0.5L0,-3.0L2.5,-0.5"/>
                </g>
                <g id="arrowDown" xlink:href="#dirArrow" transform="rotate(180) translate(-30 -48)" onmousedown="handlePan(0,1)">
                  <use xlink:href="#rim" fill="#404040">
                        <set attributeName="fill" to="#808080" begin="arrowDown.mouseover" end="arrowDown.mouseout"/>
                  </use>
                  <path fill="none" stroke="white" stroke-width="1.5" d="M0,-3.0v7 M-2.5,-0.5L0,-3.0L2.5,-0.5"/>
                </g>
                <g id="arrowLeft" xlink:href="#dirArrow" transform="rotate(270) translate(-36 17)" onmousedown="handlePan(-1,0)">
                  <use xlink:href="#rim" fill="#404040">
                        <set attributeName="fill" to="#808080" begin="arrowLeft.mouseover" end="arrowLeft.mouseout"/>
                  </use>
                  <path fill="none" stroke="white" stroke-width="1.5" d="M0,-3.0v7 M-2.5,-0.5L0,-3.0L2.5,-0.5"/>
                </g>
        </g>
        <svg viewBox="0 0 15 15" width="100%" height="30px" preserveAspectRatio="xMaxYMin meet">
         <g id="arrow_out" transform="scale(0.3 0.3)">
          <a xlink:href="Value_8hpp__incl_org.svg" target="_base">
           <rect id="button" ry="5" rx="5" y="6" x="6" height="38" width="38"
                fill="#f2f5e9" fill-opacity="0.5" stroke="#606060" stroke-width="1.0"/>
           <path id="arrow"
             d="M 11.500037,31.436501 C 11.940474,20.09759 22.043105,11.32322 32.158766,21.979434 L 37.068811,17.246167 C 37.068811,17.246167 37.088388,32 37.088388,32 L 22.160133,31.978069 C 22.160133,31.978069 26.997745,27.140456 26.997745,27.140456 C 18.528582,18.264221 13.291696,25.230495 11.500037,31.436501 z"
             style="fill:#404040;"/>
          </a>
         </g>
        </svg>
</svg>
