<?xml version="1.0" encoding="UTF-8" standalone="no"?>
<!DOCTYPE svg PUBLIC "-//W3C//DTD SVG 1.1//EN"
 "http://www.w3.org/Graphics/SVG/1.1/DTD/svg11.dtd">
<!-- Generated by graphviz version 2.38.0 (20140413.2041)
 -->
<!-- Title: /home/travis/build/ComPWA/ComPWA/Core/FunctionTree/Value.hpp Pages: 1 -->
<svg width="995pt" height="362pt"
 viewBox="0.00 0.00 994.50 362.00" xmlns="http://www.w3.org/2000/svg" xmlns:xlink="http://www.w3.org/1999/xlink">
<g id="graph0" class="graph" transform="scale(1 1) rotate(0) translate(4 358)">
<title>/home/travis/build/ComPWA/ComPWA/Core/FunctionTree/Value.hpp</title>
<polygon fill="white" stroke="none" points="-4,4 -4,-358 990.5,-358 990.5,4 -4,4"/>
<!-- Node1 -->
<g id="node1" class="node"><title>Node1</title>
<polygon fill="#bfbfbf" stroke="black" points="717.5,-312.5 717.5,-353.5 852.5,-353.5 852.5,-312.5 717.5,-312.5"/>
<text text-anchor="start" x="725.5" y="-341.5" font-family="Helvetica,sans-Serif" font-size="10.00">/home/travis/build</text>
<text text-anchor="start" x="725.5" y="-330.5" font-family="Helvetica,sans-Serif" font-size="10.00">/ComPWA/ComPWA/Core</text>
<text text-anchor="middle" x="785" y="-319.5" font-family="Helvetica,sans-Serif" font-size="10.00">/FunctionTree/Value.hpp</text>
</g>
<!-- Node2 -->
<g id="node2" class="node"><title>Node2</title>
<g id="a_node2"><a xlink:href="FunctionTreeEstimator_8cpp.html" target="_top" xlink:title="/home/travis/build\l/ComPWA/ComPWA/Core\l/FunctionTree/FunctionTreeEstimator.cpp">
<polygon fill="white" stroke="black" points="174.5,-0.5 174.5,-41.5 371.5,-41.5 371.5,-0.5 174.5,-0.5"/>
<text text-anchor="start" x="182.5" y="-29.5" font-family="Helvetica,sans-Serif" font-size="10.00">/home/travis/build</text>
<text text-anchor="start" x="182.5" y="-18.5" font-family="Helvetica,sans-Serif" font-size="10.00">/ComPWA/ComPWA/Core</text>
<text text-anchor="middle" x="273" y="-7.5" font-family="Helvetica,sans-Serif" font-size="10.00">/FunctionTree/FunctionTreeEstimator.cpp</text>
</a>
</g>
</g>
<!-- Node1&#45;&gt;Node2 -->
<g id="edge1" class="edge"><title>Node1&#45;&gt;Node2</title>
<path fill="none" stroke="midnightblue" d="M707.212,-329.195C543.588,-321.438 172.859,-293.478 100,-198 52.4352,-135.668 161.276,-72.5151 227.218,-41.5666"/>
<polygon fill="midnightblue" stroke="midnightblue" points="707.062,-332.691 717.213,-329.656 707.385,-325.699 707.062,-332.691"/>
</g>
<!-- Node3 -->
<g id="node3" class="node"><title>Node3</title>
<g id="a_node3"><a xlink:href="FunctionTreeIntensity_8cpp.html" target="_top" xlink:title="/home/travis/build\l/ComPWA/ComPWA/Core\l/FunctionTree/FunctionTreeIntensity.cpp">
<polygon fill="white" stroke="black" points="564.5,-0.5 564.5,-41.5 757.5,-41.5 757.5,-0.5 564.5,-0.5"/>
<text text-anchor="start" x="572.5" y="-29.5" font-family="Helvetica,sans-Serif" font-size="10.00">/home/travis/build</text>
<text text-anchor="start" x="572.5" y="-18.5" font-family="Helvetica,sans-Serif" font-size="10.00">/ComPWA/ComPWA/Core</text>
<text text-anchor="middle" x="661" y="-7.5" font-family="Helvetica,sans-Serif" font-size="10.00">/FunctionTree/FunctionTreeIntensity.cpp</text>
</a>
</g>
</g>
<!-- Node1&#45;&gt;Node3 -->
<g id="edge2" class="edge"><title>Node1&#45;&gt;Node3</title>
<path fill="none" stroke="midnightblue" d="M786.278,-302.07C788.241,-243.037 789.588,-114.18 766,-78 755.507,-61.905 738.78,-50.1135 721.734,-41.6228"/>
<polygon fill="midnightblue" stroke="midnightblue" points="782.774,-302.123 785.911,-312.243 789.77,-302.376 782.774,-302.123"/>
</g>
<!-- Node4 -->
<g id="node4" class="node"><title>Node4</title>
<g id="a_node4"><a xlink:href="ParameterList_8hpp.html" target="_top" xlink:title="ParameterList class. ">
<polygon fill="white" stroke="black" points="394.5,-234.5 394.5,-275.5 553.5,-275.5 553.5,-234.5 394.5,-234.5"/>
<text text-anchor="start" x="402.5" y="-263.5" font-family="Helvetica,sans-Serif" font-size="10.00">/home/travis/build</text>
<text text-anchor="start" x="402.5" y="-252.5" font-family="Helvetica,sans-Serif" font-size="10.00">/ComPWA/ComPWA/Core</text>
<text text-anchor="middle" x="474" y="-241.5" font-family="Helvetica,sans-Serif" font-size="10.00">/FunctionTree/ParameterList.hpp</text>
</a>
</g>
</g>
<!-- Node1&#45;&gt;Node4 -->
<g id="edge3" class="edge"><title>Node1&#45;&gt;Node4</title>
<path fill="none" stroke="midnightblue" d="M707.327,-313.019C660.42,-301.556 600.784,-286.982 553.544,-275.438"/>
<polygon fill="midnightblue" stroke="midnightblue" points="706.589,-316.441 717.134,-315.415 708.251,-309.641 706.589,-316.441"/>
</g>
<!-- Node11 -->
<g id="node11" class="node"><title>Node11</title>
<g id="a_node11"><a xlink:href="BuilderXML_8hpp.html" target="_top" xlink:title="/home/travis/build\l/ComPWA/ComPWA/Physics\l/BuilderXML.hpp">
<polygon fill="white" stroke="red" points="775.5,-0.5 775.5,-41.5 924.5,-41.5 924.5,-0.5 775.5,-0.5"/>
<text text-anchor="start" x="783.5" y="-29.5" font-family="Helvetica,sans-Serif" font-size="10.00">/home/travis/build</text>
<text text-anchor="start" x="783.5" y="-18.5" font-family="Helvetica,sans-Serif" font-size="10.00">/ComPWA/ComPWA/Physics</text>
<text text-anchor="middle" x="850" y="-7.5" font-family="Helvetica,sans-Serif" font-size="10.00">/BuilderXML.hpp</text>
</a>
</g>
</g>
<!-- Node1&#45;&gt;Node11 -->
<g id="edge21" class="edge"><title>Node1&#45;&gt;Node11</title>
<path fill="none" stroke="midnightblue" d="M792.659,-302.463C794.794,-293.942 797.059,-284.619 799,-276 818.62,-188.902 838.476,-84.1616 846.406,-41.504"/>
<polygon fill="midnightblue" stroke="midnightblue" points="789.216,-301.804 790.15,-312.357 796.001,-303.524 789.216,-301.804"/>
</g>
<!-- Node13 -->
<g id="node13" class="node"><title>Node13</title>
<g id="a_node13"><a xlink:href="Value_8cpp.html" target="_top" xlink:title="/home/travis/build\l/ComPWA/ComPWA/Core\l/FunctionTree/Value.cpp">
<polygon fill="white" stroke="black" points="851.5,-234.5 851.5,-275.5 986.5,-275.5 986.5,-234.5 851.5,-234.5"/>
<text text-anchor="start" x="859.5" y="-263.5" font-family="Helvetica,sans-Serif" font-size="10.00">/home/travis/build</text>
<text text-anchor="start" x="859.5" y="-252.5" font-family="Helvetica,sans-Serif" font-size="10.00">/ComPWA/ComPWA/Core</text>
<text text-anchor="middle" x="919" y="-241.5" font-family="Helvetica,sans-Serif" font-size="10.00">/FunctionTree/Value.cpp</text>
</a>
</g>
</g>
<!-- Node1&#45;&gt;Node13 -->
<g id="edge20" class="edge"><title>Node1&#45;&gt;Node13</title>
<path fill="none" stroke="midnightblue" d="M828.223,-307.486C846.475,-297.134 867.432,-285.247 884.609,-275.506"/>
<polygon fill="midnightblue" stroke="midnightblue" points="826.48,-304.45 819.508,-312.428 829.933,-310.539 826.48,-304.45"/>
</g>
<!-- Node5 -->
<g id="node5" class="node"><title>Node5</title>
<g id="a_node5"><a xlink:href="Functions_8hpp.html" target="_top" xlink:title="This file contains Functions implementing the Strategy interface so they can be used inside a node of...">
<polygon fill="white" stroke="red" points="109.5,-156.5 109.5,-197.5 250.5,-197.5 250.5,-156.5 109.5,-156.5"/>
<text text-anchor="start" x="117.5" y="-185.5" font-family="Helvetica,sans-Serif" font-size="10.00">/home/travis/build</text>
<text text-anchor="start" x="117.5" y="-174.5" font-family="Helvetica,sans-Serif" font-size="10.00">/ComPWA/ComPWA/Core</text>
<text text-anchor="middle" x="180" y="-163.5" font-family="Helvetica,sans-Serif" font-size="10.00">/FunctionTree/Functions.hpp</text>
</a>
</g>
</g>
<!-- Node4&#45;&gt;Node5 -->
<g id="edge4" class="edge"><title>Node4&#45;&gt;Node5</title>
<path fill="none" stroke="midnightblue" d="M388.518,-231.903C344.749,-220.588 292.101,-206.979 250.658,-196.265"/>
<polygon fill="midnightblue" stroke="midnightblue" points="387.73,-235.314 398.288,-234.428 389.482,-228.537 387.73,-235.314"/>
</g>
<!-- Node6 -->
<g id="node6" class="node"><title>Node6</title>
<g id="a_node6"><a xlink:href="TreeNode_8hpp.html" target="_top" xlink:title="TreeNode class. ">
<polygon fill="white" stroke="red" points="222.5,-78.5 222.5,-119.5 363.5,-119.5 363.5,-78.5 222.5,-78.5"/>
<text text-anchor="start" x="230.5" y="-107.5" font-family="Helvetica,sans-Serif" font-size="10.00">/home/travis/build</text>
<text text-anchor="start" x="230.5" y="-96.5" font-family="Helvetica,sans-Serif" font-size="10.00">/ComPWA/ComPWA/Core</text>
<text text-anchor="middle" x="293" y="-85.5" font-family="Helvetica,sans-Serif" font-size="10.00">/FunctionTree/TreeNode.hpp</text>
</a>
</g>
</g>
<!-- Node4&#45;&gt;Node6 -->
<g id="edge15" class="edge"><title>Node4&#45;&gt;Node6</title>
<path fill="none" stroke="midnightblue" d="M469.056,-224.222C464.073,-202.759 454.377,-174.438 436,-156 416.426,-136.36 389.155,-123.435 363.672,-115.011"/>
<polygon fill="midnightblue" stroke="midnightblue" points="465.658,-225.069 471.141,-234.135 472.508,-223.628 465.658,-225.069"/>
</g>
<!-- Node7 -->
<g id="node7" class="node"><title>Node7</title>
<g id="a_node7"><a xlink:href="MinLogLH_8cpp.html" target="_top" xlink:title="/home/travis/build\l/ComPWA/ComPWA/Estimator\l/MinLogLH/MinLogLH.cpp">
<polygon fill="white" stroke="black" points="390,-0.5 390,-41.5 546,-41.5 546,-0.5 390,-0.5"/>
<text text-anchor="start" x="398" y="-29.5" font-family="Helvetica,sans-Serif" font-size="10.00">/home/travis/build</text>
<text text-anchor="start" x="398" y="-18.5" font-family="Helvetica,sans-Serif" font-size="10.00">/ComPWA/ComPWA/Estimator</text>
<text text-anchor="middle" x="468" y="-7.5" font-family="Helvetica,sans-Serif" font-size="10.00">/MinLogLH/MinLogLH.cpp</text>
</a>
</g>
</g>
<!-- Node4&#45;&gt;Node7 -->
<g id="edge18" class="edge"><title>Node4&#45;&gt;Node7</title>
<path fill="none" stroke="midnightblue" d="M473.227,-224.111C471.981,-175.943 469.563,-82.4363 468.51,-41.7301"/>
<polygon fill="midnightblue" stroke="midnightblue" points="469.731,-224.314 473.488,-234.22 476.729,-224.133 469.731,-224.314"/>
</g>
<!-- Node8 -->
<g id="node8" class="node"><title>Node8</title>
<g id="a_node8"><a xlink:href="SumMinLogLH_8cpp.html" target="_top" xlink:title="/home/travis/build\l/ComPWA/ComPWA/Estimator\l/MinLogLH/SumMinLogLH.cpp">
<polygon fill="white" stroke="black" points="0,-0.5 0,-41.5 156,-41.5 156,-0.5 0,-0.5"/>
<text text-anchor="start" x="8" y="-29.5" font-family="Helvetica,sans-Serif" font-size="10.00">/home/travis/build</text>
<text text-anchor="start" x="8" y="-18.5" font-family="Helvetica,sans-Serif" font-size="10.00">/ComPWA/ComPWA/Estimator</text>
<text text-anchor="middle" x="78" y="-7.5" font-family="Helvetica,sans-Serif" font-size="10.00">/MinLogLH/SumMinLogLH.cpp</text>
</a>
</g>
</g>
<!-- Node4&#45;&gt;Node8 -->
<g id="edge19" class="edge"><title>Node4&#45;&gt;Node8</title>
<path fill="none" stroke="midnightblue" d="M384.281,-252.647C286.361,-249.156 138.367,-237.309 100,-198 58.704,-155.689 66.977,-77.8446 73.6945,-41.5667"/>
<polygon fill="midnightblue" stroke="midnightblue" points="384.371,-256.152 394.482,-252.987 384.604,-249.156 384.371,-256.152"/>
</g>
<!-- Node9 -->
<g id="node9" class="node"><title>Node9</title>
<g id="a_node9"><a xlink:href="FunctionTreeEstimator_8hpp.html" target="_top" xlink:title="/home/travis/build\l/ComPWA/ComPWA/Core\l/FunctionTree/FunctionTreeEstimator.hpp">
<polygon fill="white" stroke="red" points="521.5,-156.5 521.5,-197.5 718.5,-197.5 718.5,-156.5 521.5,-156.5"/>
<text text-anchor="start" x="529.5" y="-185.5" font-family="Helvetica,sans-Serif" font-size="10.00">/home/travis/build</text>
<text text-anchor="start" x="529.5" y="-174.5" font-family="Helvetica,sans-Serif" font-size="10.00">/ComPWA/ComPWA/Core</text>
<text text-anchor="middle" x="620" y="-163.5" font-family="Helvetica,sans-Serif" font-size="10.00">/FunctionTree/FunctionTreeEstimator.hpp</text>
</a>
</g>
</g>
<!-- Node4&#45;&gt;Node9 -->
<g id="edge10" class="edge"><title>Node4&#45;&gt;Node9</title>
<path fill="none" stroke="midnightblue" d="M520.552,-229.768C540.565,-219.35 563.644,-207.336 582.529,-197.506"/>
<polygon fill="midnightblue" stroke="midnightblue" points="518.853,-226.706 511.599,-234.428 522.085,-232.915 518.853,-226.706"/>
</g>
<!-- Node10 -->
<g id="node10" class="node"><title>Node10</title>
<g id="a_node10"><a xlink:href="FunctionTreeIntensity_8hpp.html" target="_top" xlink:title="/home/travis/build\l/ComPWA/ComPWA/Core\l/FunctionTree/FunctionTreeIntensity.hpp">
<polygon fill="white" stroke="red" points="563.5,-78.5 563.5,-119.5 756.5,-119.5 756.5,-78.5 563.5,-78.5"/>
<text text-anchor="start" x="571.5" y="-107.5" font-family="Helvetica,sans-Serif" font-size="10.00">/home/travis/build</text>
<text text-anchor="start" x="571.5" y="-96.5" font-family="Helvetica,sans-Serif" font-size="10.00">/ComPWA/ComPWA/Core</text>
<text text-anchor="middle" x="660" y="-85.5" font-family="Helvetica,sans-Serif" font-size="10.00">/FunctionTree/FunctionTreeIntensity.hpp</text>
</a>
</g>
</g>
<!-- Node4&#45;&gt;Node10 -->
<g id="edge16" class="edge"><title>Node4&#45;&gt;Node10</title>
<path fill="none" stroke="midnightblue" d="M563.975,-245.976C628.479,-238.143 707.461,-223.561 728,-198 739.692,-183.449 735.967,-172.881 728,-156 720.951,-141.063 707.747,-128.762 694.836,-119.532"/>
<polygon fill="midnightblue" stroke="midnightblue" points="563.281,-242.534 553.758,-247.176 564.098,-249.486 563.281,-242.534"/>
</g>
<!-- Node12 -->
<g id="node12" class="node"><title>Node12</title>
<g id="a_node12"><a xlink:href="ParameterList_8cpp.html" target="_top" xlink:title="/home/travis/build\l/ComPWA/ComPWA/Core\l/FunctionTree/ParameterList.cpp">
<polygon fill="white" stroke="black" points="268.5,-156.5 268.5,-197.5 427.5,-197.5 427.5,-156.5 268.5,-156.5"/>
<text text-anchor="start" x="276.5" y="-185.5" font-family="Helvetica,sans-Serif" font-size="10.00">/home/travis/build</text>
<text text-anchor="start" x="276.5" y="-174.5" font-family="Helvetica,sans-Serif" font-size="10.00">/ComPWA/ComPWA/Core</text>
<text text-anchor="middle" x="348" y="-163.5" font-family="Helvetica,sans-Serif" font-size="10.00">/FunctionTree/ParameterList.cpp</text>
</a>
</g>
</g>
<!-- Node4&#45;&gt;Node12 -->
<g id="edge17" class="edge"><title>Node4&#45;&gt;Node12</title>
<path fill="none" stroke="midnightblue" d="M432.889,-229.203C415.837,-218.918 396.342,-207.159 380.338,-197.506"/>
<polygon fill="midnightblue" stroke="midnightblue" points="431.181,-232.26 441.552,-234.428 434.797,-226.266 431.181,-232.26"/>
</g>
<!-- Node5&#45;&gt;Node6 -->
<g id="edge5" class="edge"><title>Node5&#45;&gt;Node6</title>
<path fill="none" stroke="midnightblue" d="M217.713,-150.635C232.803,-140.487 249.909,-128.982 263.998,-119.506"/>
<polygon fill="midnightblue" stroke="midnightblue" points="215.445,-147.943 209.1,-156.428 219.351,-153.751 215.445,-147.943"/>
</g>
<!-- Node6&#45;&gt;Node2 -->
<g id="edge6" class="edge"><title>Node6&#45;&gt;Node2</title>
<path fill="none" stroke="midnightblue" d="M285.26,-68.5896C282.871,-59.5108 280.3,-49.7417 278.133,-41.5056"/>
<polygon fill="midnightblue" stroke="midnightblue" points="281.92,-69.6481 287.85,-78.4281 288.689,-67.8666 281.92,-69.6481"/>
</g>
<!-- Node6&#45;&gt;Node3 -->
<g id="edge7" class="edge"><title>Node6&#45;&gt;Node3</title>
<path fill="none" stroke="midnightblue" d="M373.533,-81.3682C430.343,-69.6356 506.65,-53.8766 566.369,-41.5433"/>
<polygon fill="midnightblue" stroke="midnightblue" points="372.604,-77.9861 363.519,-83.4364 374.02,-84.8414 372.604,-77.9861"/>
</g>
<!-- Node6&#45;&gt;Node7 -->
<g id="edge8" class="edge"><title>Node6&#45;&gt;Node7</title>
<path fill="none" stroke="midnightblue" d="M347.505,-74.3291C371.788,-63.7835 400.043,-51.5129 423.086,-41.5056"/>
<polygon fill="midnightblue" stroke="midnightblue" points="345.845,-71.2343 338.067,-78.4281 348.633,-77.655 345.845,-71.2343"/>
</g>
<!-- Node6&#45;&gt;Node8 -->
<g id="edge9" class="edge"><title>Node6&#45;&gt;Node8</title>
<path fill="none" stroke="midnightblue" d="M228.009,-75.0264C197.742,-64.3275 162.117,-51.7343 133.18,-41.5056"/>
<polygon fill="midnightblue" stroke="midnightblue" points="227.037,-78.3952 237.632,-78.4281 229.37,-71.7954 227.037,-78.3952"/>
</g>
<!-- Node9&#45;&gt;Node2 -->
<g id="edge11" class="edge"><title>Node9&#45;&gt;Node2</title>
<path fill="none" stroke="midnightblue" d="M566.734,-152.361C498.316,-121.996 380.819,-69.8506 317.138,-41.5885"/>
<polygon fill="midnightblue" stroke="midnightblue" points="565.492,-155.638 576.052,-156.496 568.332,-149.24 565.492,-155.638"/>
</g>
<!-- Node9&#45;&gt;Node10 -->
<g id="edge12" class="edge"><title>Node9&#45;&gt;Node10</title>
<path fill="none" stroke="midnightblue" d="M635.018,-147.466C639.925,-138.143 645.259,-128.007 649.734,-119.506"/>
<polygon fill="midnightblue" stroke="midnightblue" points="631.861,-145.949 630.301,-156.428 638.056,-149.209 631.861,-145.949"/>
</g>
<!-- Node10&#45;&gt;Node3 -->
<g id="edge13" class="edge"><title>Node10&#45;&gt;Node3</title>
<path fill="none" stroke="midnightblue" d="M660.391,-68.2965C660.509,-59.3009 660.636,-49.6532 660.743,-41.5056"/>
<polygon fill="midnightblue" stroke="midnightblue" points="656.889,-68.3829 660.258,-78.4281 663.889,-68.4751 656.889,-68.3829"/>
</g>
<!-- Node10&#45;&gt;Node11 -->
<g id="edge14" class="edge"><title>Node10&#45;&gt;Node11</title>
<path fill="none" stroke="midnightblue" d="M718.478,-74.6086C744.998,-64.0008 775.996,-51.6015 801.236,-41.5056"/>
<polygon fill="midnightblue" stroke="midnightblue" points="716.915,-71.4645 708.93,-78.4281 719.514,-77.9638 716.915,-71.4645"/>
</g>
</g>
</svg>
