<?xml version="1.0" encoding="UTF-8" standalone="no"?>
<!DOCTYPE svg PUBLIC "-//W3C//DTD SVG 1.1//EN"
 "http://www.w3.org/Graphics/SVG/1.1/DTD/svg11.dtd">
<!-- Generated by graphviz version 2.40.1 (20161225.0304)
 -->
<!-- Title: Physics/Dynamics/Voigtian.hpp Pages: 1 -->
<!--zoomable 543 -->
<svg id="main" version="1.1" xmlns="http://www.w3.org/2000/svg" xmlns:xlink="http://www.w3.org/1999/xlink" xml:space="preserve" onload="init(evt)">
<style type="text/css"><![CDATA[
.edge:hover path { stroke: red; }
.edge:hover polygon { stroke: red; fill: red; }
]]></style>
<script type="text/javascript"><![CDATA[
var edges = document.getElementsByTagName('g');
if (edges && edges.length) {
  for (var i=0;i<edges.length;i++) {
    if (edges[i].id.substr(0,4)=='edge') {
      edges[i].setAttribute('class','edge');
    }
  }
}
]]></script>
        <defs>
                <circle id="rim" cx="0" cy="0" r="7"/>
                <circle id="rim2" cx="0" cy="0" r="3.5"/>
                <g id="zoomPlus">
                        <use xlink:href="#rim" fill="#404040">
                                <set attributeName="fill" to="#808080" begin="zoomplus.mouseover" end="zoomplus.mouseout"/>
                        </use>
                        <path d="M-4,0h8M0,-4v8" fill="none" stroke="white" stroke-width="1.5" pointer-events="none"/>
                </g>
                <g id="zoomMin">
                        <use xlink:href="#rim" fill="#404040">
                                <set attributeName="fill" to="#808080" begin="zoomminus.mouseover" end="zoomminus.mouseout"/>
                        </use>
                        <path d="M-4,0h8" fill="none" stroke="white" stroke-width="1.5" pointer-events="none"/>
                </g>
                <g id="dirArrow">
                        <path fill="none" stroke="white" stroke-width="1.5" d="M0,-3.0v7 M-2.5,-0.5L0,-3.0L2.5,-0.5"/>
                </g>
               <g id="resetDef">
                       <use xlink:href="#rim2" fill="#404040">
                               <set attributeName="fill" to="#808080" begin="reset.mouseover" end="reset.mouseout"/>
                       </use>
               </g>
        </defs>

<script type="text/javascript">
var viewWidth = 655;
var viewHeight = 543;
var sectionId = 'dynsection-0';
</script>
<script xlink:href="svgpan.js"/>
<svg id="graph" class="graph">
<g id="viewport">
<title>Physics/Dynamics/Voigtian.hpp</title>
<polygon fill="#ffffff" stroke="transparent" points="-4,4 -4,-539 651,-539 651,4 -4,4"/>
<!-- Node0 -->
<g id="node1" class="node">
<title>Node0</title>
<polygon fill="#bfbfbf" stroke="#000000" points="379.5,-515.5 379.5,-534.5 548.5,-534.5 548.5,-515.5 379.5,-515.5"/>
<text text-anchor="middle" x="464" y="-522.5" font-family="Helvetica,sans-Serif" font-size="10.00" fill="#000000">Physics/Dynamics/Voigtian.hpp</text>
</g>
<!-- Node1 -->
<g id="node2" class="node">
<title>Node1</title>
<g id="a_node2"><a xlink:href="Functions_8hpp.html" target="_top" xlink:title="This file contains Functions implementing the Strategy interface so they can be used inside a node of...">
<polygon fill="#ffffff" stroke="#000000" points="204.5,-235.5 204.5,-254.5 377.5,-254.5 377.5,-235.5 204.5,-235.5"/>
<text text-anchor="middle" x="291" y="-242.5" font-family="Helvetica,sans-Serif" font-size="10.00" fill="#000000">Core/FunctionTree/Functions.hpp</text>
</a>
</g>
</g>
<!-- Node0&#45;&gt;Node1 -->
<g id="edge1" class="edge">
<title>Node0&#45;&gt;Node1</title>
<path fill="none" stroke="#191970" d="M379.4348,-521.7742C245.6013,-514.3357 0,-490.1718 0,-413 0,-413 0,-413 0,-357 0,-308.8336 140.6142,-273.5118 226.3513,-256.4517"/>
<polygon fill="#191970" stroke="#191970" points="227.1236,-259.867 236.2651,-254.5114 225.779,-252.9973 227.1236,-259.867"/>
</g>
<!-- Node40 -->
<g id="node10" class="node">
<title>Node40</title>
<g id="a_node10"><a xlink:href="FormFactor_8hpp.html" target="_top" xlink:title="FormFactor.hpp">
<polygon fill="#ffffff" stroke="#000000" points="392.5,-347.5 392.5,-366.5 483.5,-366.5 483.5,-347.5 392.5,-347.5"/>
<text text-anchor="middle" x="438" y="-354.5" font-family="Helvetica,sans-Serif" font-size="10.00" fill="#000000">FormFactor.hpp</text>
</a>
</g>
</g>
<!-- Node0&#45;&gt;Node40 -->
<g id="edge14" class="edge">
<title>Node0&#45;&gt;Node40</title>
<path fill="none" stroke="#191970" d="M473.3618,-515.3788C481.1234,-506.6808 491.575,-493.1096 496,-479 498.66,-470.5184 498.2724,-467.5935 496,-459 487.503,-426.8671 466.277,-394.2604 451.999,-374.8365"/>
<polygon fill="#191970" stroke="#191970" points="454.6375,-372.5226 445.8163,-366.6542 449.0525,-376.7427 454.6375,-372.5226"/>
</g>
<!-- Node42 -->
<g id="node12" class="node">
<title>Node42</title>
<g id="a_node12"><a xlink:href="RelativisticBreitWigner_8hpp.html" target="_top" xlink:title="RelativisticBreitWigner.hpp">
<polygon fill="#ffffff" stroke="#000000" points="338.5,-459.5 338.5,-478.5 487.5,-478.5 487.5,-459.5 338.5,-459.5"/>
<text text-anchor="middle" x="413" y="-466.5" font-family="Helvetica,sans-Serif" font-size="10.00" fill="#000000">RelativisticBreitWigner.hpp</text>
</a>
</g>
</g>
<!-- Node0&#45;&gt;Node42 -->
<g id="edge22" class="edge">
<title>Node0&#45;&gt;Node42</title>
<path fill="none" stroke="#191970" d="M455.1165,-515.2455C447.8034,-507.2155 437.2609,-495.6394 428.5533,-486.0781"/>
<polygon fill="#191970" stroke="#191970" points="431.1028,-483.6795 421.7817,-478.6427 425.9273,-488.3928 431.1028,-483.6795"/>
</g>
<!-- Node47 -->
<g id="node14" class="node">
<title>Node47</title>
<g id="a_node14"><a xlink:href="Faddeeva_8hh_source.html" target="_top" xlink:title="This file contains the declaration of the Faddeeva package, which is used only in the Voigtian class ...">
<polygon fill="#ffffff" stroke="#000000" points="543,-403.5 543,-422.5 647,-422.5 647,-403.5 543,-403.5"/>
<text text-anchor="middle" x="595" y="-410.5" font-family="Helvetica,sans-Serif" font-size="10.00" fill="#000000">Utils/Faddeeva.hh</text>
</a>
</g>
</g>
<!-- Node0&#45;&gt;Node47 -->
<g id="edge29" class="edge">
<title>Node0&#45;&gt;Node47</title>
<path fill="none" stroke="#191970" d="M478.9828,-515.4484C492.5089,-506.5841 512.7252,-492.7258 529,-479 547.2248,-463.6297 566.3008,-444.1272 579.2301,-430.3188"/>
<polygon fill="#191970" stroke="#191970" points="581.854,-432.6366 586.0796,-422.9208 576.7175,-427.8809 581.854,-432.6366"/>
</g>
<!-- Node2 -->
<g id="node3" class="node">
<title>Node2</title>
<polygon fill="#ffffff" stroke="#bfbfbf" points="463.5,-56.5 463.5,-75.5 522.5,-75.5 522.5,-56.5 463.5,-56.5"/>
<text text-anchor="middle" x="493" y="-63.5" font-family="Helvetica,sans-Serif" font-size="10.00" fill="#000000">complex</text>
</g>
<!-- Node1&#45;&gt;Node2 -->
<g id="edge2" class="edge">
<title>Node1&#45;&gt;Node2</title>
<path fill="none" stroke="#191970" d="M320.0798,-235.3623C338.3459,-227.9808 361.1728,-216.1251 376,-199 402.9676,-167.853 381.0324,-143.147 408,-112 420.3946,-97.6845 438.3794,-87.0512 454.6171,-79.6356"/>
<polygon fill="#191970" stroke="#191970" points="456.1145,-82.8016 463.9202,-75.6377 453.3507,-76.3703 456.1145,-82.8016"/>
</g>
<!-- Node3 -->
<g id="node4" class="node">
<title>Node3</title>
<polygon fill="#ffffff" stroke="#bfbfbf" points="316.5,-174 316.5,-193 367.5,-193 367.5,-174 316.5,-174"/>
<text text-anchor="middle" x="342" y="-181" font-family="Helvetica,sans-Serif" font-size="10.00" fill="#000000">math.h</text>
</g>
<!-- Node1&#45;&gt;Node3 -->
<g id="edge3" class="edge">
<title>Node1&#45;&gt;Node3</title>
<path fill="none" stroke="#191970" d="M298.9688,-235.3906C306.5591,-226.2376 318.1661,-212.2409 327.4132,-201.09"/>
<polygon fill="#191970" stroke="#191970" points="330.2297,-203.1766 333.9189,-193.2449 324.8413,-198.7083 330.2297,-203.1766"/>
</g>
<!-- Node4 -->
<g id="node5" class="node">
<title>Node4</title>
<polygon fill="#ffffff" stroke="#bfbfbf" points="417.5,-112.5 417.5,-131.5 464.5,-131.5 464.5,-112.5 417.5,-112.5"/>
<text text-anchor="middle" x="441" y="-119.5" font-family="Helvetica,sans-Serif" font-size="10.00" fill="#000000">vector</text>
</g>
<!-- Node1&#45;&gt;Node4 -->
<g id="edge4" class="edge">
<title>Node1&#45;&gt;Node4</title>
<path fill="none" stroke="#191970" d="M340.6411,-235.4799C364.2002,-228.7491 391.2332,-217.5081 410,-199 425.7393,-183.4776 433.747,-158.9104 437.6375,-141.7112"/>
<polygon fill="#191970" stroke="#191970" points="441.1221,-142.1326 439.6395,-131.6421 434.2565,-140.7675 441.1221,-142.1326"/>
</g>
<!-- Node5 -->
<g id="node6" class="node">
<title>Node5</title>
<g id="a_node6"><a xlink:href="Exceptions_8hpp.html" target="_top" xlink:title="ComPWA exceptions. ">
<polygon fill="#ffffff" stroke="#ff0000" points="169,-56.5 169,-75.5 285,-75.5 285,-56.5 169,-56.5"/>
<text text-anchor="middle" x="227" y="-63.5" font-family="Helvetica,sans-Serif" font-size="10.00" fill="#000000">Core/Exceptions.hpp</text>
</a>
</g>
</g>
<!-- Node1&#45;&gt;Node5 -->
<g id="edge5" class="edge">
<title>Node1&#45;&gt;Node5</title>
<path fill="none" stroke="#191970" d="M291.2323,-235.4202C291.4079,-212.7505 289.6466,-154.5295 269,-112 263.6315,-100.9416 254.7497,-90.6342 246.5331,-82.5912"/>
<polygon fill="#191970" stroke="#191970" points="248.7145,-79.8413 238.9955,-75.6231 243.9627,-84.9814 248.7145,-79.8413"/>
</g>
<!-- Node8 -->
<g id="node8" class="node">
<title>Node8</title>
<g id="a_node8"><a xlink:href="FunctionTree_2FitParameter_8hpp.html" target="_top" xlink:title="Implementations of Parameter for various data types. ">
<polygon fill="#ffffff" stroke="#ff0000" points="72,-112.5 72,-131.5 260,-131.5 260,-112.5 72,-112.5"/>
<text text-anchor="middle" x="166" y="-119.5" font-family="Helvetica,sans-Serif" font-size="10.00" fill="#000000">Core/FunctionTree/FitParameter.hpp</text>
</a>
</g>
</g>
<!-- Node1&#45;&gt;Node8 -->
<g id="edge7" class="edge">
<title>Node1&#45;&gt;Node8</title>
<path fill="none" stroke="#191970" d="M284.783,-235.2642C274.6815,-219.8923 253.5518,-189.536 231,-168 218.8515,-156.3987 203.5919,-145.4472 190.9114,-137.1423"/>
<polygon fill="#191970" stroke="#191970" points="192.5275,-134.0217 182.2152,-131.5914 188.7612,-139.9221 192.5275,-134.0217"/>
</g>
<!-- Node31 -->
<g id="node9" class="node">
<title>Node31</title>
<g id="a_node9"><a xlink:href="ParameterList_8hpp.html" target="_top" xlink:title="ParameterList class. ">
<polygon fill="#ffffff" stroke="#ff0000" points="66,-168.5 66,-198.5 222,-198.5 222,-168.5 66,-168.5"/>
<text text-anchor="start" x="74" y="-186.5" font-family="Helvetica,sans-Serif" font-size="10.00" fill="#000000">Core/FunctionTree/Parameter</text>
<text text-anchor="middle" x="144" y="-175.5" font-family="Helvetica,sans-Serif" font-size="10.00" fill="#000000">List.hpp</text>
</a>
</g>
</g>
<!-- Node1&#45;&gt;Node31 -->
<g id="edge10" class="edge">
<title>Node1&#45;&gt;Node31</title>
<path fill="none" stroke="#191970" d="M268.0313,-235.3906C247.0313,-226.6049 215.3648,-213.3567 189.2855,-202.446"/>
<polygon fill="#191970" stroke="#191970" points="190.5363,-199.1754 179.9602,-198.5446 187.8346,-205.633 190.5363,-199.1754"/>
</g>
<!-- Node6 -->
<g id="node7" class="node">
<title>Node6</title>
<polygon fill="#ffffff" stroke="#bfbfbf" points="362.5,-.5 362.5,-19.5 427.5,-19.5 427.5,-.5 362.5,-.5"/>
<text text-anchor="middle" x="395" y="-7.5" font-family="Helvetica,sans-Serif" font-size="10.00" fill="#000000">exception</text>
</g>
<!-- Node5&#45;&gt;Node6 -->
<g id="edge6" class="edge">
<title>Node5&#45;&gt;Node6</title>
<path fill="none" stroke="#191970" d="M255.8802,-56.3733C283.8161,-47.0613 326.3142,-32.8953 356.9869,-22.671"/>
<polygon fill="#191970" stroke="#191970" points="358.1166,-25.9839 366.4966,-19.5011 355.903,-19.3431 358.1166,-25.9839"/>
</g>
<!-- Node8&#45;&gt;Node2 -->
<g id="edge8" class="edge">
<title>Node8&#45;&gt;Node2</title>
<path fill="none" stroke="#191970" d="M221.8418,-112.4369C287.6121,-101.1735 395.2222,-82.7448 453.1268,-72.8284"/>
<polygon fill="#191970" stroke="#191970" points="454.0734,-76.2174 463.3391,-71.0795 452.8918,-69.3178 454.0734,-76.2174"/>
</g>
<!-- Node8&#45;&gt;Node5 -->
<g id="edge9" class="edge">
<title>Node8&#45;&gt;Node5</title>
<path fill="none" stroke="#191970" d="M176.6254,-112.2455C185.5473,-104.0549 198.488,-92.1749 209.0192,-82.5069"/>
<polygon fill="#191970" stroke="#191970" points="211.4968,-84.9837 216.4964,-75.6427 206.7629,-79.8271 211.4968,-84.9837"/>
</g>
<!-- Node31&#45;&gt;Node4 -->
<g id="edge11" class="edge">
<title>Node31&#45;&gt;Node4</title>
<path fill="none" stroke="#191970" d="M216.6544,-168.4554C277.3557,-155.8859 361.1688,-138.5307 407.2522,-128.9882"/>
<polygon fill="#191970" stroke="#191970" points="408.223,-132.3615 417.3056,-126.9064 406.8036,-125.5069 408.223,-132.3615"/>
</g>
<!-- Node31&#45;&gt;Node5 -->
<g id="edge12" class="edge">
<title>Node31&#45;&gt;Node5</title>
<path fill="none" stroke="#191970" d="M105.0959,-168.4083C76.7329,-155.1153 46.0022,-134.4214 63,-112 74.9811,-96.1959 119.4301,-84.3247 159.0342,-76.6038"/>
<polygon fill="#191970" stroke="#191970" points="159.797,-80.0218 168.9759,-74.7304 158.5007,-73.1428 159.797,-80.0218"/>
</g>
<!-- Node31&#45;&gt;Node8 -->
<g id="edge13" class="edge">
<title>Node31&#45;&gt;Node8</title>
<path fill="none" stroke="#191970" d="M149.4382,-168.2977C152.333,-160.2055 155.9251,-150.1639 159.0234,-141.5029"/>
<polygon fill="#191970" stroke="#191970" points="162.4047,-142.4415 162.4775,-131.8469 155.8138,-140.0837 162.4047,-142.4415"/>
</g>
<!-- Node40&#45;&gt;Node1 -->
<g id="edge17" class="edge">
<title>Node40&#45;&gt;Node1</title>
<path fill="none" stroke="#191970" d="M432.3826,-347.3535C423.8579,-333.3987 406.463,-307.4535 386,-291 368.7312,-277.1148 346.5803,-266.0837 328.0124,-258.3084"/>
<polygon fill="#191970" stroke="#191970" points="329.2572,-255.0365 318.674,-254.5413 326.6385,-261.5283 329.2572,-255.0365"/>
</g>
<!-- Node40&#45;&gt;Node2 -->
<g id="edge15" class="edge">
<title>Node40&#45;&gt;Node2</title>
<path fill="none" stroke="#191970" d="M441.0398,-347.2617C450.5636,-316.2328 479.8497,-216.7499 491,-132 493.0124,-116.7043 493.4617,-99.2509 493.4352,-86.1354"/>
<polygon fill="#191970" stroke="#191970" points="496.9322,-85.8485 493.3167,-75.8896 489.9327,-85.9295 496.9322,-85.8485"/>
</g>
<!-- Node40&#45;&gt;Node6 -->
<g id="edge16" class="edge">
<title>Node40&#45;&gt;Node6</title>
<path fill="none" stroke="#191970" d="M446.4596,-347.4367C480.4116,-307.8694 601.6199,-154.4362 531,-56 519.8588,-40.4703 473.2583,-27.0387 437.6819,-18.7648"/>
<polygon fill="#191970" stroke="#191970" points="438.0388,-15.2573 427.5134,-16.4682 436.4966,-22.0853 438.0388,-15.2573"/>
</g>
<!-- Node41 -->
<g id="node11" class="node">
<title>Node41</title>
<g id="a_node11"><a xlink:href="TreeNode_8hpp.html" target="_top" xlink:title="TreeNode class. ">
<polygon fill="#ffffff" stroke="#ff0000" points="204.5,-291.5 204.5,-310.5 377.5,-310.5 377.5,-291.5 204.5,-291.5"/>
<text text-anchor="middle" x="291" y="-298.5" font-family="Helvetica,sans-Serif" font-size="10.00" fill="#000000">Core/FunctionTree/TreeNode.hpp</text>
</a>
</g>
</g>
<!-- Node40&#45;&gt;Node41 -->
<g id="edge18" class="edge">
<title>Node40&#45;&gt;Node41</title>
<path fill="none" stroke="#191970" d="M412.7298,-347.3733C388.6034,-338.1822 352.0638,-324.2624 325.3123,-314.0713"/>
<polygon fill="#191970" stroke="#191970" points="326.5313,-310.7904 315.9404,-310.5011 324.0393,-317.3318 326.5313,-310.7904"/>
</g>
<!-- Node41&#45;&gt;Node1 -->
<g id="edge20" class="edge">
<title>Node41&#45;&gt;Node1</title>
<path fill="none" stroke="#191970" d="M291,-291.2455C291,-283.9382 291,-273.6944 291,-264.7046"/>
<polygon fill="#191970" stroke="#191970" points="294.5001,-264.6426 291,-254.6427 287.5001,-264.6427 294.5001,-264.6426"/>
</g>
<!-- Node41&#45;&gt;Node2 -->
<g id="edge19" class="edge">
<title>Node41&#45;&gt;Node2</title>
<path fill="none" stroke="#191970" d="M318.056,-291.3738C338.0333,-283.4738 365.2434,-270.995 386,-255 439.0386,-214.1287 446.267,-193.3914 473,-132 479.5726,-116.9062 484.8545,-98.9864 488.3361,-85.6306"/>
<polygon fill="#191970" stroke="#191970" points="491.802,-86.1972 490.8261,-75.6475 485.01,-84.5032 491.802,-86.1972"/>
</g>
<!-- Node41&#45;&gt;Node31 -->
<g id="edge21" class="edge">
<title>Node41&#45;&gt;Node31</title>
<path fill="none" stroke="#191970" d="M261.9298,-291.4801C241.6597,-283.8455 214.8055,-271.649 195,-255 179.2454,-241.7563 165.9257,-222.6 156.8533,-207.4485"/>
<polygon fill="#191970" stroke="#191970" points="159.793,-205.5398 151.7695,-198.6207 153.727,-209.0331 159.793,-205.5398"/>
</g>
<!-- Node42&#45;&gt;Node4 -->
<g id="edge28" class="edge">
<title>Node42&#45;&gt;Node4</title>
<path fill="none" stroke="#191970" d="M424.1699,-459.4019C442.541,-442.7897 478.4471,-406.632 492,-367 520.0524,-284.9678 473.3852,-181.9612 451.4389,-140.5203"/>
<polygon fill="#191970" stroke="#191970" points="454.4238,-138.683 446.5703,-131.5715 448.2749,-142.0283 454.4238,-138.683"/>
</g>
<!-- Node42&#45;&gt;Node40 -->
<g id="edge27" class="edge">
<title>Node42&#45;&gt;Node40</title>
<path fill="none" stroke="#191970" d="M415.1315,-459.4509C419.2274,-441.1013 428.2699,-400.5908 433.6765,-376.3693"/>
<polygon fill="#191970" stroke="#191970" points="437.1112,-377.0472 435.8739,-366.5249 430.2794,-375.5222 437.1112,-377.0472"/>
</g>
<!-- Node42&#45;&gt;Node41 -->
<g id="edge23" class="edge">
<title>Node42&#45;&gt;Node41</title>
<path fill="none" stroke="#191970" d="M377.7011,-459.3931C358.2682,-452.3574 335.2682,-440.8574 321,-423 297.1612,-393.1643 291.8978,-347.0713 290.9521,-320.9158"/>
<polygon fill="#191970" stroke="#191970" points="294.4483,-320.6669 290.7697,-310.7313 287.4494,-320.7924 294.4483,-320.6669"/>
</g>
<!-- Node43 -->
<g id="node13" class="node">
<title>Node43</title>
<g id="a_node13"><a xlink:href="Coupling_8hpp.html" target="_top" xlink:title="Coupling.hpp">
<polygon fill="#ffffff" stroke="#ff0000" points="330,-403.5 330,-422.5 410,-422.5 410,-403.5 330,-403.5"/>
<text text-anchor="middle" x="370" y="-410.5" font-family="Helvetica,sans-Serif" font-size="10.00" fill="#000000">Coupling.hpp</text>
</a>
</g>
</g>
<!-- Node42&#45;&gt;Node43 -->
<g id="edge24" class="edge">
<title>Node42&#45;&gt;Node43</title>
<path fill="none" stroke="#191970" d="M405.51,-459.2455C399.4674,-451.3761 390.8097,-440.101 383.5559,-430.6542"/>
<polygon fill="#191970" stroke="#191970" points="386.2705,-428.4426 377.4042,-422.6427 380.7185,-432.7058 386.2705,-428.4426"/>
</g>
<!-- Node43&#45;&gt;Node8 -->
<g id="edge25" class="edge">
<title>Node43&#45;&gt;Node8</title>
<path fill="none" stroke="#191970" d="M329.953,-408.0889C241.6512,-396.1432 38,-361.9824 38,-301 38,-301 38,-301 38,-245 38,-209.7513 34.1124,-194.8072 57,-168 70.5199,-152.1647 90.4244,-141.6575 109.5369,-134.7417"/>
<polygon fill="#191970" stroke="#191970" points="110.7484,-138.0271 119.1216,-131.5356 108.5278,-131.3887 110.7484,-138.0271"/>
</g>
<!-- Node43&#45;&gt;Node40 -->
<g id="edge26" class="edge">
<title>Node43&#45;&gt;Node40</title>
<path fill="none" stroke="#191970" d="M381.8447,-403.2455C391.888,-394.9746 406.4995,-382.9416 418.3004,-373.2232"/>
<polygon fill="#191970" stroke="#191970" points="420.7967,-375.7015 426.291,-366.6427 416.3467,-370.298 420.7967,-375.7015"/>
</g>
<!-- Node47&#45;&gt;Node2 -->
<g id="edge30" class="edge">
<title>Node47&#45;&gt;Node2</title>
<path fill="none" stroke="#191970" d="M592.1655,-403.3571C578.3263,-356.2769 517.7557,-150.2179 498.7359,-85.5132"/>
<polygon fill="#191970" stroke="#191970" points="502.0473,-84.3678 495.8692,-75.7608 495.3315,-86.342 502.0473,-84.3678"/>
</g>
</g>
</svg>
        <g id="navigator" transform="translate(0 0)" fill="#404254">
                <rect fill="#f2f5e9" fill-opacity="0.5" stroke="#606060" stroke-width=".5" x="0" y="0" width="60" height="60"/>
                <use id="zoomplus" xlink:href="#zoomPlus" x="17" y="9" onmousedown="handleZoom(evt,'in')"/>
                <use id="zoomminus" xlink:href="#zoomMin" x="42" y="9" onmousedown="handleZoom(evt,'out')"/>
                <use id="reset" xlink:href="#resetDef" x="30" y="36" onmousedown="handleReset()"/>
                <g id="arrowUp" xlink:href="#dirArrow" transform="translate(30 24)" onmousedown="handlePan(0,-1)">
                  <use xlink:href="#rim" fill="#404040">
                        <set attributeName="fill" to="#808080" begin="arrowUp.mouseover" end="arrowUp.mouseout"/>
                  </use>
                  <path fill="none" stroke="white" stroke-width="1.5" d="M0,-3.0v7 M-2.5,-0.5L0,-3.0L2.5,-0.5"/>
                </g>
                <g id="arrowRight" xlink:href="#dirArrow" transform="rotate(90) translate(36 -43)" onmousedown="handlePan(1,0)">
                  <use xlink:href="#rim" fill="#404040">
                        <set attributeName="fill" to="#808080" begin="arrowRight.mouseover" end="arrowRight.mouseout"/>
                  </use>
                  <path fill="none" stroke="white" stroke-width="1.5" d="M0,-3.0v7 M-2.5,-0.5L0,-3.0L2.5,-0.5"/>
                </g>
                <g id="arrowDown" xlink:href="#dirArrow" transform="rotate(180) translate(-30 -48)" onmousedown="handlePan(0,1)">
                  <use xlink:href="#rim" fill="#404040">
                        <set attributeName="fill" to="#808080" begin="arrowDown.mouseover" end="arrowDown.mouseout"/>
                  </use>
                  <path fill="none" stroke="white" stroke-width="1.5" d="M0,-3.0v7 M-2.5,-0.5L0,-3.0L2.5,-0.5"/>
                </g>
                <g id="arrowLeft" xlink:href="#dirArrow" transform="rotate(270) translate(-36 17)" onmousedown="handlePan(-1,0)">
                  <use xlink:href="#rim" fill="#404040">
                        <set attributeName="fill" to="#808080" begin="arrowLeft.mouseover" end="arrowLeft.mouseout"/>
                  </use>
                  <path fill="none" stroke="white" stroke-width="1.5" d="M0,-3.0v7 M-2.5,-0.5L0,-3.0L2.5,-0.5"/>
                </g>
        </g>
        <svg viewBox="0 0 15 15" width="100%" height="30px" preserveAspectRatio="xMaxYMin meet">
         <g id="arrow_out" transform="scale(0.3 0.3)">
          <a xlink:href="Voigtian_8hpp__incl_org.svg" target="_base">
           <rect id="button" ry="5" rx="5" y="6" x="6" height="38" width="38"
                fill="#f2f5e9" fill-opacity="0.5" stroke="#606060" stroke-width="1.0"/>
           <path id="arrow"
             d="M 11.500037,31.436501 C 11.940474,20.09759 22.043105,11.32322 32.158766,21.979434 L 37.068811,17.246167 C 37.068811,17.246167 37.088388,32 37.088388,32 L 22.160133,31.978069 C 22.160133,31.978069 26.997745,27.140456 26.997745,27.140456 C 18.528582,18.264221 13.291696,25.230495 11.500037,31.436501 z"
             style="fill:#404040;"/>
          </a>
         </g>
        </svg>
</svg>
