<?xml version="1.0" encoding="UTF-8" standalone="no"?>
<!DOCTYPE svg PUBLIC "-//W3C//DTD SVG 1.1//EN"
 "http://www.w3.org/Graphics/SVG/1.1/DTD/svg11.dtd">
<!-- Generated by graphviz version 2.38.0 (20140413.2041)
 -->
<!-- Title: /home/travis/build/ComPWA/ComPWA/ThirdParty/qft++/include/qft++/WignerD.h Pages: 1 -->
<svg width="458pt" height="106pt"
 viewBox="0.00 0.00 457.50 106.00" xmlns="http://www.w3.org/2000/svg" xmlns:xlink="http://www.w3.org/1999/xlink">
<g id="graph0" class="graph" transform="scale(1 1) rotate(0) translate(4 102)">
<title>/home/travis/build/ComPWA/ComPWA/ThirdParty/qft++/include/qft++/WignerD.h</title>
<polygon fill="white" stroke="none" points="-4,4 -4,-102 453.5,-102 453.5,4 -4,4"/>
<!-- Node1 -->
<g id="node1" class="node"><title>Node1</title>
<polygon fill="#bfbfbf" stroke="black" points="154.5,-56.5 154.5,-97.5 324.5,-97.5 324.5,-56.5 154.5,-56.5"/>
<text text-anchor="start" x="162.5" y="-85.5" font-family="Helvetica,sans-Serif" font-size="10.00">/home/travis/build</text>
<text text-anchor="start" x="162.5" y="-74.5" font-family="Helvetica,sans-Serif" font-size="10.00">/ComPWA/ComPWA/ThirdParty</text>
<text text-anchor="middle" x="239.5" y="-63.5" font-family="Helvetica,sans-Serif" font-size="10.00">/qft++/include/qft++/WignerD.h</text>
</g>
<!-- Node2 -->
<g id="node2" class="node"><title>Node2</title>
<polygon fill="white" stroke="#bfbfbf" points="0,-0.5 0,-19.5 47,-19.5 47,-0.5 0,-0.5"/>
<text text-anchor="middle" x="23.5" y="-7.5" font-family="Helvetica,sans-Serif" font-size="10.00">cmath</text>
</g>
<!-- Node1&#45;&gt;Node2 -->
<g id="edge1" class="edge"><title>Node1&#45;&gt;Node2</title>
<path fill="none" stroke="midnightblue" d="M174.693,-56.4979C135.952,-44.8397 88.3334,-30.5101 57.012,-21.0846"/>
<polygon fill="midnightblue" stroke="midnightblue" points="57.6356,-17.6173 47.0512,-18.0872 55.6184,-24.3204 57.6356,-17.6173"/>
</g>
<!-- Node3 -->
<g id="node3" class="node"><title>Node3</title>
<polygon fill="white" stroke="#bfbfbf" points="65,-0.5 65,-19.5 124,-19.5 124,-0.5 65,-0.5"/>
<text text-anchor="middle" x="94.5" y="-7.5" font-family="Helvetica,sans-Serif" font-size="10.00">iostream</text>
</g>
<!-- Node1&#45;&gt;Node3 -->
<g id="edge2" class="edge"><title>Node1&#45;&gt;Node3</title>
<path fill="none" stroke="midnightblue" d="M195.995,-56.4979C172.375,-45.9093 143.838,-33.1169 123.047,-23.7968"/>
<polygon fill="midnightblue" stroke="midnightblue" points="124.359,-20.5493 113.802,-19.6525 121.495,-26.9369 124.359,-20.5493"/>
</g>
<!-- Node4 -->
<g id="node4" class="node"><title>Node4</title>
<polygon fill="white" stroke="#bfbfbf" points="142,-0.5 142,-19.5 199,-19.5 199,-0.5 142,-0.5"/>
<text text-anchor="middle" x="170.5" y="-7.5" font-family="Helvetica,sans-Serif" font-size="10.00">complex</text>
</g>
<!-- Node1&#45;&gt;Node4 -->
<g id="edge3" class="edge"><title>Node1&#45;&gt;Node4</title>
<path fill="none" stroke="midnightblue" d="M218.798,-56.4979C208.626,-46.9154 196.538,-35.5281 186.999,-26.5428"/>
<polygon fill="midnightblue" stroke="midnightblue" points="189.364,-23.9618 179.685,-19.6525 184.564,-29.0571 189.364,-23.9618"/>
</g>
<!-- Node5 -->
<g id="node5" class="node"><title>Node5</title>
<polygon fill="white" stroke="#bfbfbf" points="217.5,-0.5 217.5,-19.5 261.5,-19.5 261.5,-0.5 217.5,-0.5"/>
<text text-anchor="middle" x="239.5" y="-7.5" font-family="Helvetica,sans-Serif" font-size="10.00">string</text>
</g>
<!-- Node1&#45;&gt;Node5 -->
<g id="edge4" class="edge"><title>Node1&#45;&gt;Node5</title>
<path fill="none" stroke="midnightblue" d="M239.5,-56.4979C239.5,-48.0653 239.5,-38.2351 239.5,-29.874"/>
<polygon fill="midnightblue" stroke="midnightblue" points="243,-29.6525 239.5,-19.6525 236,-29.6525 243,-29.6525"/>
</g>
<!-- Node6 -->
<g id="node6" class="node"><title>Node6</title>
<polygon fill="white" stroke="#bfbfbf" points="279.5,-0.5 279.5,-19.5 327.5,-19.5 327.5,-0.5 279.5,-0.5"/>
<text text-anchor="middle" x="303.5" y="-7.5" font-family="Helvetica,sans-Serif" font-size="10.00">cctype</text>
</g>
<!-- Node1&#45;&gt;Node6 -->
<g id="edge5" class="edge"><title>Node1&#45;&gt;Node6</title>
<path fill="none" stroke="midnightblue" d="M258.702,-56.4979C268.043,-47.0113 279.125,-35.7557 287.93,-26.8131"/>
<polygon fill="midnightblue" stroke="midnightblue" points="290.459,-29.2338 294.981,-19.6525 285.471,-24.3226 290.459,-29.2338"/>
</g>
<!-- Node7 -->
<g id="node7" class="node"><title>Node7</title>
<polygon fill="white" stroke="#bfbfbf" points="346,-0.5 346,-19.5 393,-19.5 393,-0.5 346,-0.5"/>
<text text-anchor="middle" x="369.5" y="-7.5" font-family="Helvetica,sans-Serif" font-size="10.00">vector</text>
</g>
<!-- Node1&#45;&gt;Node7 -->
<g id="edge6" class="edge"><title>Node1&#45;&gt;Node7</title>
<path fill="none" stroke="midnightblue" d="M278.504,-56.4979C299.394,-46.053 324.572,-33.4638 343.144,-24.1782"/>
<polygon fill="midnightblue" stroke="midnightblue" points="344.816,-27.2552 352.195,-19.6525 341.685,-20.9942 344.816,-27.2552"/>
</g>
<!-- Node8 -->
<g id="node8" class="node"><title>Node8</title>
<polygon fill="white" stroke="#bfbfbf" points="411.5,-0.5 411.5,-19.5 449.5,-19.5 449.5,-0.5 411.5,-0.5"/>
<text text-anchor="middle" x="430.5" y="-7.5" font-family="Helvetica,sans-Serif" font-size="10.00">map</text>
</g>
<!-- Node1&#45;&gt;Node8 -->
<g id="edge7" class="edge"><title>Node1&#45;&gt;Node8</title>
<path fill="none" stroke="midnightblue" d="M296.806,-56.4979C331.45,-44.708 374.123,-30.1858 401.8,-20.767"/>
<polygon fill="midnightblue" stroke="midnightblue" points="402.937,-24.0774 411.276,-17.5423 400.681,-17.4506 402.937,-24.0774"/>
</g>
</g>
</svg>
