<?xml version="1.0" encoding="UTF-8" standalone="no"?>
<!DOCTYPE svg PUBLIC "-//W3C//DTD SVG 1.1//EN"
 "http://www.w3.org/Graphics/SVG/1.1/DTD/svg11.dtd">
<!-- Generated by graphviz version 2.38.0 (20140413.2041)
 -->
<!-- Title: /home/travis/build/ComPWA/ComPWA/Physics/HelicityFormalism/WignerD.hpp Pages: 1 -->
<svg width="715pt" height="341pt"
 viewBox="0.00 0.00 715.00 341.00" xmlns="http://www.w3.org/2000/svg" xmlns:xlink="http://www.w3.org/1999/xlink">
<g id="graph0" class="graph" transform="scale(1 1) rotate(0) translate(4 337)">
<title>/home/travis/build/ComPWA/ComPWA/Physics/HelicityFormalism/WignerD.hpp</title>
<polygon fill="white" stroke="none" points="-4,4 -4,-337 711,-337 711,4 -4,4"/>
<!-- Node1 -->
<g id="node1" class="node"><title>Node1</title>
<polygon fill="#bfbfbf" stroke="black" points="255,-291.5 255,-332.5 423,-332.5 423,-291.5 255,-291.5"/>
<text text-anchor="start" x="263" y="-320.5" font-family="Helvetica,sans-Serif" font-size="10.00">/home/travis/build</text>
<text text-anchor="start" x="263" y="-309.5" font-family="Helvetica,sans-Serif" font-size="10.00">/ComPWA/ComPWA/Physics</text>
<text text-anchor="middle" x="339" y="-298.5" font-family="Helvetica,sans-Serif" font-size="10.00">/HelicityFormalism/WignerD.hpp</text>
</g>
<!-- Node2 -->
<g id="node2" class="node"><title>Node2</title>
<g id="a_node2"><a xlink:href="FunctionTree_8hpp.html" target="_top" xlink:title="FunctionTree class. ">
<polygon fill="white" stroke="black" points="267,-224.5 267,-254.5 411,-254.5 411,-224.5 267,-224.5"/>
<text text-anchor="start" x="275" y="-242.5" font-family="Helvetica,sans-Serif" font-size="10.00">Core/FunctionTree/Function</text>
<text text-anchor="middle" x="339" y="-231.5" font-family="Helvetica,sans-Serif" font-size="10.00">Tree.hpp</text>
</a>
</g>
</g>
<!-- Node1&#45;&gt;Node2 -->
<g id="edge1" class="edge"><title>Node1&#45;&gt;Node2</title>
<path fill="none" stroke="midnightblue" d="M339,-291.362C339,-283.226 339,-273.7 339,-265.105"/>
<polygon fill="midnightblue" stroke="midnightblue" points="342.5,-264.892 339,-254.892 335.5,-264.892 342.5,-264.892"/>
</g>
<!-- Node11 -->
<g id="node11" class="node"><title>Node11</title>
<g id="a_node11"><a xlink:href="Functions_8hpp.html" target="_top" xlink:title="This file contains Functions implementing the Strategy interface so they can be used inside a node of...">
<polygon fill="white" stroke="red" points="537,-112.5 537,-131.5 707,-131.5 707,-112.5 537,-112.5"/>
<text text-anchor="middle" x="622" y="-119.5" font-family="Helvetica,sans-Serif" font-size="10.00">Core/FunctionTree/Functions.hpp</text>
</a>
</g>
</g>
<!-- Node1&#45;&gt;Node11 -->
<g id="edge20" class="edge"><title>Node1&#45;&gt;Node11</title>
<path fill="none" stroke="midnightblue" d="M423.234,-292.795C482.753,-275.615 559.856,-243.883 606,-188 616.743,-174.989 620.447,-155.829 621.641,-141.68"/>
<polygon fill="midnightblue" stroke="midnightblue" points="625.14,-141.783 622.146,-131.62 618.149,-141.431 625.14,-141.783"/>
</g>
<!-- Node13 -->
<g id="node13" class="node"><title>Node13</title>
<g id="a_node13"><a xlink:href="WignerD_8h.html" target="_top" xlink:title="Some utility functions. ">
<polygon fill="white" stroke="black" points="108,-112.5 108,-131.5 206,-131.5 206,-112.5 108,-112.5"/>
<text text-anchor="middle" x="157" y="-119.5" font-family="Helvetica,sans-Serif" font-size="10.00">qft++/WignerD.h</text>
</a>
</g>
</g>
<!-- Node1&#45;&gt;Node13 -->
<g id="edge21" class="edge"><title>Node1&#45;&gt;Node13</title>
<path fill="none" stroke="midnightblue" d="M305.703,-291.349C290.334,-281.461 272.357,-268.681 258,-255 219.86,-218.656 184.749,-167.011 167.746,-140.377"/>
<polygon fill="midnightblue" stroke="midnightblue" points="170.618,-138.369 162.33,-131.77 164.694,-142.098 170.618,-138.369"/>
</g>
<!-- Node3 -->
<g id="node3" class="node"><title>Node3</title>
<polygon fill="white" stroke="#bfbfbf" points="211,-56.5 211,-75.5 249,-75.5 249,-56.5 211,-56.5"/>
<text text-anchor="middle" x="230" y="-63.5" font-family="Helvetica,sans-Serif" font-size="10.00">map</text>
</g>
<!-- Node2&#45;&gt;Node3 -->
<g id="edge2" class="edge"><title>Node2&#45;&gt;Node3</title>
<path fill="none" stroke="midnightblue" d="M330.08,-224.465C310.274,-193.302 262.673,-118.407 241.037,-84.3653"/>
<polygon fill="midnightblue" stroke="midnightblue" points="243.758,-82.122 235.44,-75.5597 237.85,-85.8768 243.758,-82.122"/>
</g>
<!-- Node4 -->
<g id="node4" class="node"><title>Node4</title>
<polygon fill="white" stroke="#bfbfbf" points="395.5,-112.5 395.5,-131.5 452.5,-131.5 452.5,-112.5 395.5,-112.5"/>
<text text-anchor="middle" x="424" y="-119.5" font-family="Helvetica,sans-Serif" font-size="10.00">memory</text>
</g>
<!-- Node2&#45;&gt;Node4 -->
<g id="edge3" class="edge"><title>Node2&#45;&gt;Node4</title>
<path fill="none" stroke="midnightblue" d="M349.423,-224.337C365.155,-202.96 394.909,-162.53 411.687,-139.731"/>
<polygon fill="midnightblue" stroke="midnightblue" points="414.512,-141.798 417.62,-131.669 408.874,-137.649 414.512,-141.798"/>
</g>
<!-- Node5 -->
<g id="node5" class="node"><title>Node5</title>
<polygon fill="white" stroke="#bfbfbf" points="0,-0.5 0,-19.5 44,-19.5 44,-0.5 0,-0.5"/>
<text text-anchor="middle" x="22" y="-7.5" font-family="Helvetica,sans-Serif" font-size="10.00">string</text>
</g>
<!-- Node2&#45;&gt;Node5 -->
<g id="edge4" class="edge"><title>Node2&#45;&gt;Node5</title>
<path fill="none" stroke="midnightblue" d="M268.824,-224.456C209.117,-209.649 123.78,-181.424 64,-132 41.3795,-113.298 38.5923,-103.738 29,-76 23.8358,-61.0664 22.2182,-43.152 21.8171,-29.9153"/>
<polygon fill="midnightblue" stroke="midnightblue" points="25.3147,-29.6457 21.7191,-19.6797 18.3151,-29.7128 25.3147,-29.6457"/>
</g>
<!-- Node6 -->
<g id="node6" class="node"><title>Node6</title>
<polygon fill="white" stroke="#bfbfbf" points="508.5,-56.5 508.5,-75.5 555.5,-75.5 555.5,-56.5 508.5,-56.5"/>
<text text-anchor="middle" x="532" y="-63.5" font-family="Helvetica,sans-Serif" font-size="10.00">vector</text>
</g>
<!-- Node2&#45;&gt;Node6 -->
<g id="edge5" class="edge"><title>Node2&#45;&gt;Node6</title>
<path fill="none" stroke="midnightblue" d="M340.26,-224.119C343.319,-198.023 353.473,-142.732 386,-112 394.354,-104.108 458.313,-86.2766 498.759,-75.5813"/>
<polygon fill="midnightblue" stroke="midnightblue" points="499.704,-78.9518 508.487,-73.0262 497.926,-72.1814 499.704,-78.9518"/>
</g>
<!-- Node7 -->
<g id="node7" class="node"><title>Node7</title>
<g id="a_node7"><a xlink:href="FunctionTree_2FitParameter_8hpp.html" target="_top" xlink:title="Implementations of Parameter for various data types. ">
<polygon fill="white" stroke="red" points="267.5,-56.5 267.5,-75.5 452.5,-75.5 452.5,-56.5 267.5,-56.5"/>
<text text-anchor="middle" x="360" y="-63.5" font-family="Helvetica,sans-Serif" font-size="10.00">Core/FunctionTree/FitParameter.hpp</text>
</a>
</g>
</g>
<!-- Node2&#45;&gt;Node7 -->
<g id="edge6" class="edge"><title>Node2&#45;&gt;Node7</title>
<path fill="none" stroke="midnightblue" d="M333.575,-224.402C325.242,-200.567 311.59,-151.083 325,-112 328.719,-101.161 336.233,-90.9216 343.349,-82.9566"/>
<polygon fill="midnightblue" stroke="midnightblue" points="346.054,-85.1922 350.444,-75.5497 340.999,-80.3498 346.054,-85.1922"/>
</g>
<!-- Node2&#45;&gt;Node11 -->
<g id="edge11" class="edge"><title>Node2&#45;&gt;Node11</title>
<path fill="none" stroke="midnightblue" d="M411.148,-230.205C473.151,-221.906 556.745,-207.562 584,-188 599.895,-176.592 610.193,-156.305 616.005,-141.421"/>
<polygon fill="midnightblue" stroke="midnightblue" points="619.395,-142.337 619.461,-131.742 612.802,-139.983 619.395,-142.337"/>
</g>
<!-- Node12 -->
<g id="node12" class="node"><title>Node12</title>
<g id="a_node12"><a xlink:href="TreeNode_8hpp.html" target="_top" xlink:title="TreeNode class. ">
<polygon fill="white" stroke="red" points="405,-168.5 405,-187.5 575,-187.5 575,-168.5 405,-168.5"/>
<text text-anchor="middle" x="490" y="-175.5" font-family="Helvetica,sans-Serif" font-size="10.00">Core/FunctionTree/TreeNode.hpp</text>
</a>
</g>
</g>
<!-- Node2&#45;&gt;Node12 -->
<g id="edge15" class="edge"><title>Node2&#45;&gt;Node12</title>
<path fill="none" stroke="midnightblue" d="M374.785,-224.399C400.233,-214.372 434.097,-201.028 458.518,-191.405"/>
<polygon fill="midnightblue" stroke="midnightblue" points="460.008,-194.58 468.028,-187.658 457.441,-188.068 460.008,-194.58"/>
</g>
<!-- Node7&#45;&gt;Node5 -->
<g id="edge10" class="edge"><title>Node7&#45;&gt;Node5</title>
<path fill="none" stroke="midnightblue" d="M306.443,-56.4435C235.471,-45.1048 112.468,-25.4535 54.2818,-16.1574"/>
<polygon fill="midnightblue" stroke="midnightblue" points="54.6255,-12.6681 44.1985,-14.5465 53.5211,-19.5804 54.6255,-12.6681"/>
</g>
<!-- Node8 -->
<g id="node8" class="node"><title>Node8</title>
<polygon fill="white" stroke="#bfbfbf" points="264.5,-0.5 264.5,-19.5 311.5,-19.5 311.5,-0.5 264.5,-0.5"/>
<text text-anchor="middle" x="288" y="-7.5" font-family="Helvetica,sans-Serif" font-size="10.00">cmath</text>
</g>
<!-- Node7&#45;&gt;Node8 -->
<g id="edge7" class="edge"><title>Node7&#45;&gt;Node8</title>
<path fill="none" stroke="midnightblue" d="M348.432,-56.324C337.58,-48.1849 321.119,-35.8395 308.117,-26.0874"/>
<polygon fill="midnightblue" stroke="midnightblue" points="309.879,-23.0339 299.779,-19.8339 305.679,-28.6339 309.879,-23.0339"/>
</g>
<!-- Node9 -->
<g id="node9" class="node"><title>Node9</title>
<polygon fill="white" stroke="#bfbfbf" points="503.5,-0.5 503.5,-19.5 560.5,-19.5 560.5,-0.5 503.5,-0.5"/>
<text text-anchor="middle" x="532" y="-7.5" font-family="Helvetica,sans-Serif" font-size="10.00">complex</text>
</g>
<!-- Node7&#45;&gt;Node9 -->
<g id="edge8" class="edge"><title>Node7&#45;&gt;Node9</title>
<path fill="none" stroke="midnightblue" d="M387.254,-56.4435C416.441,-47.2801 462.921,-32.6876 495.309,-22.5192"/>
<polygon fill="midnightblue" stroke="midnightblue" points="496.381,-25.8512 504.874,-19.5164 494.284,-19.1726 496.381,-25.8512"/>
</g>
<!-- Node10 -->
<g id="node10" class="node"><title>Node10</title>
<polygon fill="white" stroke="#bfbfbf" points="151.5,-0.5 151.5,-19.5 210.5,-19.5 210.5,-0.5 151.5,-0.5"/>
<text text-anchor="middle" x="181" y="-7.5" font-family="Helvetica,sans-Serif" font-size="10.00">iostream</text>
</g>
<!-- Node7&#45;&gt;Node10 -->
<g id="edge9" class="edge"><title>Node7&#45;&gt;Node10</title>
<path fill="none" stroke="midnightblue" d="M331.637,-56.4435C301.262,-47.2801 252.89,-32.6876 219.184,-22.5192"/>
<polygon fill="midnightblue" stroke="midnightblue" points="219.815,-19.0538 209.23,-19.5164 217.793,-25.7555 219.815,-19.0538"/>
</g>
<!-- Node11&#45;&gt;Node6 -->
<g id="edge13" class="edge"><title>Node11&#45;&gt;Node6</title>
<path fill="none" stroke="midnightblue" d="M607.54,-112.324C593.5,-103.9 571.952,-90.9709 555.457,-81.0741"/>
<polygon fill="midnightblue" stroke="midnightblue" points="556.8,-77.7983 546.424,-75.6545 553.198,-83.8007 556.8,-77.7983"/>
</g>
<!-- Node11&#45;&gt;Node7 -->
<g id="edge14" class="edge"><title>Node11&#45;&gt;Node7</title>
<path fill="none" stroke="midnightblue" d="M580.485,-112.444C534.588,-102.984 460.62,-87.7384 411.174,-77.5472"/>
<polygon fill="midnightblue" stroke="midnightblue" points="411.821,-74.1072 401.32,-75.5164 410.408,-80.9631 411.821,-74.1072"/>
</g>
<!-- Node11&#45;&gt;Node9 -->
<g id="edge12" class="edge"><title>Node11&#45;&gt;Node9</title>
<path fill="none" stroke="midnightblue" d="M620.521,-112.172C617.921,-98.8285 611.476,-73.2548 598,-56 587.834,-42.9832 572.843,-32.3385 559.716,-24.6761"/>
<polygon fill="midnightblue" stroke="midnightblue" points="561.029,-21.4028 550.583,-19.6324 557.645,-27.5305 561.029,-21.4028"/>
</g>
<!-- Node12&#45;&gt;Node4 -->
<g id="edge17" class="edge"><title>Node12&#45;&gt;Node4</title>
<path fill="none" stroke="midnightblue" d="M479.396,-168.324C469.544,-160.263 454.649,-148.077 442.785,-138.369"/>
<polygon fill="midnightblue" stroke="midnightblue" points="444.753,-135.457 434.797,-131.834 440.32,-140.875 444.753,-135.457"/>
</g>
<!-- Node12&#45;&gt;Node5 -->
<g id="edge18" class="edge"><title>Node12&#45;&gt;Node5</title>
<path fill="none" stroke="midnightblue" d="M404.616,-173.552C306.252,-168.474 151.441,-156.766 99,-132 66.5994,-116.698 59.5351,-106.666 41,-76 32.3528,-61.6933 27.4499,-43.2272 24.7996,-29.6355"/>
<polygon fill="midnightblue" stroke="midnightblue" points="28.2121,-28.8269 23.0704,-19.5633 21.313,-30.0113 28.2121,-28.8269"/>
</g>
<!-- Node12&#45;&gt;Node9 -->
<g id="edge16" class="edge"><title>Node12&#45;&gt;Node9</title>
<path fill="none" stroke="midnightblue" d="M494.225,-168.114C500.603,-155.137 513.499,-130.529 528,-112 542.141,-93.9319 556.075,-97.1367 565,-76 572.257,-58.814 560.216,-39.8687 548.694,-26.8882"/>
<polygon fill="midnightblue" stroke="midnightblue" points="551.207,-24.4516 541.764,-19.6458 546.149,-29.2909 551.207,-24.4516"/>
</g>
<!-- Node12&#45;&gt;Node11 -->
<g id="edge19" class="edge"><title>Node12&#45;&gt;Node11</title>
<path fill="none" stroke="midnightblue" d="M510.916,-168.444C532.736,-159.517 567.15,-145.439 591.892,-135.317"/>
<polygon fill="midnightblue" stroke="midnightblue" points="593.252,-138.542 601.182,-131.516 590.601,-132.063 593.252,-138.542"/>
</g>
<!-- Node13&#45;&gt;Node3 -->
<g id="edge28" class="edge"><title>Node13&#45;&gt;Node3</title>
<path fill="none" stroke="midnightblue" d="M168.729,-112.324C179.837,-104.107 196.742,-91.6017 209.983,-81.8069"/>
<polygon fill="midnightblue" stroke="midnightblue" points="212.1,-84.5948 218.058,-75.8339 207.937,-78.9671 212.1,-84.5948"/>
</g>
<!-- Node13&#45;&gt;Node5 -->
<g id="edge25" class="edge"><title>Node13&#45;&gt;Node5</title>
<path fill="none" stroke="midnightblue" d="M127.143,-112.427C106.434,-105.306 79.2266,-93.4875 60,-76 45.6823,-62.9773 35.215,-43.2753 28.9337,-28.9764"/>
<polygon fill="midnightblue" stroke="midnightblue" points="32.153,-27.6023 25.1045,-19.6922 25.6818,-30.2713 32.153,-27.6023"/>
</g>
<!-- Node13&#45;&gt;Node6 -->
<g id="edge27" class="edge"><title>Node13&#45;&gt;Node6</title>
<path fill="none" stroke="midnightblue" d="M206.075,-116.001C271.897,-108.942 392.277,-94.7892 494,-76 495.458,-75.7306 496.945,-75.4416 498.444,-75.1382"/>
<polygon fill="midnightblue" stroke="midnightblue" points="499.331,-78.5272 508.361,-72.9841 497.846,-71.6867 499.331,-78.5272"/>
</g>
<!-- Node13&#45;&gt;Node8 -->
<g id="edge22" class="edge"><title>Node13&#45;&gt;Node8</title>
<path fill="none" stroke="midnightblue" d="M161.185,-112.436C168.108,-98.9851 183.075,-72.7218 202,-56 217.517,-42.2892 237.953,-31.3725 255.01,-23.7268"/>
<polygon fill="midnightblue" stroke="midnightblue" points="256.793,-26.77 264.6,-19.6066 254.03,-20.3384 256.793,-26.77"/>
</g>
<!-- Node13&#45;&gt;Node9 -->
<g id="edge24" class="edge"><title>Node13&#45;&gt;Node9</title>
<path fill="none" stroke="midnightblue" d="M206.003,-117.252C280.142,-110.996 416.858,-97.0045 461,-76 484.463,-64.8352 505.616,-43.2548 518.61,-28.0295"/>
<polygon fill="midnightblue" stroke="midnightblue" points="521.625,-29.8732 525.273,-19.9262 516.218,-25.4271 521.625,-29.8732"/>
</g>
<!-- Node13&#45;&gt;Node10 -->
<g id="edge23" class="edge"><title>Node13&#45;&gt;Node10</title>
<path fill="none" stroke="midnightblue" d="M158.413,-112.124C160.463,-99.5678 164.511,-75.9268 169,-56 170.979,-47.2149 173.507,-37.5565 175.733,-29.4474"/>
<polygon fill="midnightblue" stroke="midnightblue" points="179.17,-30.151 178.499,-19.5774 172.43,-28.2619 179.17,-30.151"/>
</g>
<!-- Node14 -->
<g id="node14" class="node"><title>Node14</title>
<polygon fill="white" stroke="#bfbfbf" points="69,-56.5 69,-75.5 117,-75.5 117,-56.5 69,-56.5"/>
<text text-anchor="middle" x="93" y="-63.5" font-family="Helvetica,sans-Serif" font-size="10.00">cctype</text>
</g>
<!-- Node13&#45;&gt;Node14 -->
<g id="edge26" class="edge"><title>Node13&#45;&gt;Node14</title>
<path fill="none" stroke="midnightblue" d="M146.717,-112.324C137.164,-104.263 122.72,-92.0765 111.216,-82.3695"/>
<polygon fill="midnightblue" stroke="midnightblue" points="113.37,-79.6076 103.47,-75.8339 108.856,-84.9577 113.37,-79.6076"/>
</g>
</g>
</svg>
