<?xml version="1.0" encoding="UTF-8" standalone="no"?>
<!DOCTYPE svg PUBLIC "-//W3C//DTD SVG 1.1//EN"
 "http://www.w3.org/Graphics/SVG/1.1/DTD/svg11.dtd">
<!-- Generated by graphviz version 2.38.0 (20140413.2041)
 -->
<!-- Title: internal::has_policy&lt; ExpectedPolicy, Policy&lt; P1, P2 &gt; &gt; Pages: 1 -->
<svg width="197pt" height="226pt"
 viewBox="0.00 0.00 197.00 226.00" xmlns="http://www.w3.org/2000/svg" xmlns:xlink="http://www.w3.org/1999/xlink">
<g id="graph0" class="graph" transform="scale(1 1) rotate(0) translate(4 222)">
<title>internal::has_policy&lt; ExpectedPolicy, Policy&lt; P1, P2 &gt; &gt;</title>
<polygon fill="white" stroke="none" points="-4,4 -4,-222 193,-222 193,4 -4,4"/>
<!-- Node1 -->
<g id="node1" class="node"><title>Node1</title>
<polygon fill="#bfbfbf" stroke="black" points="28.5,-0.5 28.5,-79.5 160.5,-79.5 160.5,-0.5 28.5,-0.5"/>
<text text-anchor="start" x="36.5" y="-67.5" font-family="Helvetica,sans-Serif" font-size="10.00">internal::has_policy</text>
<text text-anchor="start" x="36.5" y="-56.5" font-family="Helvetica,sans-Serif" font-size="10.00">&lt; ExpectedPolicy, Policy</text>
<text text-anchor="middle" x="94.5" y="-45.5" font-family="Helvetica,sans-Serif" font-size="10.00">&lt; P1, P2 &gt; &gt;</text>
<polyline fill="none" stroke="black" points="28.5,-38.5 160.5,-38.5 "/>
<text text-anchor="middle" x="94.5" y="-26.5" font-family="Helvetica,sans-Serif" font-size="10.00"> </text>
<polyline fill="none" stroke="black" points="28.5,-19.5 160.5,-19.5 "/>
<text text-anchor="middle" x="94.5" y="-7.5" font-family="Helvetica,sans-Serif" font-size="10.00"> </text>
</g>
<!-- Node2 -->
<g id="node2" class="node"><title>Node2</title>
<polygon fill="white" stroke="#bfbfbf" points="0,-116.5 0,-217.5 189,-217.5 189,-116.5 0,-116.5"/>
<text text-anchor="start" x="8" y="-205.5" font-family="Helvetica,sans-Serif" font-size="10.00">tbb::internal::bool</text>
<text text-anchor="start" x="8" y="-194.5" font-family="Helvetica,sans-Serif" font-size="10.00">_constant&lt; has_policy</text>
<text text-anchor="start" x="8" y="-183.5" font-family="Helvetica,sans-Serif" font-size="10.00">&lt; ExpectedPolicy, P1 &gt;</text>
<text text-anchor="start" x="8" y="-172.5" font-family="Helvetica,sans-Serif" font-size="10.00">::value||has_policy&lt; ExpectedPolicy,</text>
<text text-anchor="middle" x="94.5" y="-161.5" font-family="Helvetica,sans-Serif" font-size="10.00"> P2 &gt;::value &gt;</text>
<polyline fill="none" stroke="#bfbfbf" points="0,-154.5 189,-154.5 "/>
<text text-anchor="middle" x="94.5" y="-142.5" font-family="Helvetica,sans-Serif" font-size="10.00"> </text>
<polyline fill="none" stroke="#bfbfbf" points="0,-135.5 189,-135.5 "/>
<text text-anchor="middle" x="94.5" y="-123.5" font-family="Helvetica,sans-Serif" font-size="10.00"> </text>
</g>
<!-- Node2&#45;&gt;Node1 -->
<g id="edge1" class="edge"><title>Node2&#45;&gt;Node1</title>
<path fill="none" stroke="midnightblue" d="M94.5,-106.186C94.5,-97.2207 94.5,-88.1815 94.5,-79.8082"/>
<polygon fill="none" stroke="midnightblue" points="91.0001,-106.237 94.5,-116.238 98.0001,-106.238 91.0001,-106.237"/>
</g>
</g>
</svg>
