<?xml version="1.0" encoding="UTF-8" standalone="no"?>
<!DOCTYPE svg PUBLIC "-//W3C//DTD SVG 1.1//EN"
 "http://www.w3.org/Graphics/SVG/1.1/DTD/svg11.dtd">
<!-- Generated by graphviz version 2.38.0 (20140413.2041)
 -->
<!-- Title: test_partitioner_utils::TestRanges::BlockedRange Pages: 1 -->
<!--zoomable 671 -->
<svg id="main" version="1.1" xmlns="http://www.w3.org/2000/svg" xmlns:xlink="http://www.w3.org/1999/xlink" xml:space="preserve" onload="init(evt)">
<style type="text/css"><![CDATA[
.edge:hover path { stroke: red; }
.edge:hover polygon { stroke: red; fill: red; }
]]></style>
<script type="text/javascript"><![CDATA[
var edges = document.getElementsByTagName('g');
if (edges && edges.length) {
  for (var i=0;i<edges.length;i++) {
    if (edges[i].id.substr(0,4)=='edge') {
      edges[i].setAttribute('class','edge');
    }
  }
}
]]></script>
        <defs>
                <circle id="rim" cx="0" cy="0" r="7"/>
                <circle id="rim2" cx="0" cy="0" r="3.5"/>
                <g id="zoomPlus">
                        <use xlink:href="#rim" fill="#404040">
                                <set attributeName="fill" to="#808080" begin="zoomplus.mouseover" end="zoomplus.mouseout"/>
                        </use>
                        <path d="M-4,0h8M0,-4v8" fill="none" stroke="white" stroke-width="1.5" pointer-events="none"/>
                </g>
                <g id="zoomMin">
                        <use xlink:href="#rim" fill="#404040">
                                <set attributeName="fill" to="#808080" begin="zoomminus.mouseover" end="zoomminus.mouseout"/>
                        </use>
                        <path d="M-4,0h8" fill="none" stroke="white" stroke-width="1.5" pointer-events="none"/>
                </g>
                <g id="dirArrow">
                        <path fill="none" stroke="white" stroke-width="1.5" d="M0,-3.0v7 M-2.5,-0.5L0,-3.0L2.5,-0.5"/>
                </g>
               <g id="resetDef">
                       <use xlink:href="#rim2" fill="#404040">
                               <set attributeName="fill" to="#808080" begin="reset.mouseover" end="reset.mouseout"/>
                       </use>
               </g>
        </defs>

<script type="text/javascript">
var viewWidth = 297;
var viewHeight = 671;
var sectionId = 'dynsection-1';
</script>
<script xlink:href="../../svgpan.js"/>
<svg id="graph" class="graph">
<g id="viewport">
<title>test_partitioner_utils::TestRanges::BlockedRange</title>
<polygon fill="white" stroke="none" points="-4,4 -4,-667 292.5,-667 292.5,4 -4,4"/>
<!-- Node1 -->
<g id="node1" class="node"><title>Node1</title>
<polygon fill="#bfbfbf" stroke="black" points="73.5,-0.5 73.5,-101.5 233.5,-101.5 233.5,-0.5 73.5,-0.5"/>
<text text-anchor="start" x="81.5" y="-89.5" font-family="Helvetica,sans-Serif" font-size="10.00">test_partitioner_utils</text>
<text text-anchor="middle" x="153.5" y="-78.5" font-family="Helvetica,sans-Serif" font-size="10.00">::TestRanges::BlockedRange</text>
<polyline fill="none" stroke="black" points="73.5,-71.5 233.5,-71.5 "/>
<text text-anchor="start" x="81.5" y="-59.5" font-family="Helvetica,sans-Serif" font-size="10.00">+ is_splittable_in_proportion</text>
<polyline fill="none" stroke="black" points="73.5,-52.5 233.5,-52.5 "/>
<text text-anchor="start" x="81.5" y="-40.5" font-family="Helvetica,sans-Serif" font-size="10.00">+ BlockedRange()</text>
<text text-anchor="start" x="81.5" y="-29.5" font-family="Helvetica,sans-Serif" font-size="10.00">+ BlockedRange()</text>
<text text-anchor="start" x="81.5" y="-18.5" font-family="Helvetica,sans-Serif" font-size="10.00">+ BlockedRange()</text>
<text text-anchor="start" x="81.5" y="-7.5" font-family="Helvetica,sans-Serif" font-size="10.00">+ is_ensure_non_emptiness()</text>
</g>
<!-- Node2 -->
<g id="node2" class="node"><title>Node2</title>
<g id="a_node2"><a xlink:href="../../db/dec/classtest__partitioner__utils_1_1RangeStatisticCollector.html" target="_top" xlink:title="{test_partitioner_utils\l::RangeStatisticCollector\n|&#45; m_called\l|+ RangeStatisticCollector()\l+ RangeStatisticCollector()\l+ RangeStatisticCollector()\l}">
<polygon fill="white" stroke="black" points="5.5,-139.5 5.5,-229.5 151.5,-229.5 151.5,-139.5 5.5,-139.5"/>
<text text-anchor="start" x="13.5" y="-217.5" font-family="Helvetica,sans-Serif" font-size="10.00">test_partitioner_utils</text>
<text text-anchor="middle" x="78.5" y="-206.5" font-family="Helvetica,sans-Serif" font-size="10.00">::RangeStatisticCollector</text>
<polyline fill="none" stroke="black" points="5.5,-199.5 151.5,-199.5 "/>
<text text-anchor="start" x="13.5" y="-187.5" font-family="Helvetica,sans-Serif" font-size="10.00">&#45; m_called</text>
<polyline fill="none" stroke="black" points="5.5,-180.5 151.5,-180.5 "/>
<text text-anchor="start" x="13.5" y="-168.5" font-family="Helvetica,sans-Serif" font-size="10.00">+ RangeStatisticCollector()</text>
<text text-anchor="start" x="13.5" y="-157.5" font-family="Helvetica,sans-Serif" font-size="10.00">+ RangeStatisticCollector()</text>
<text text-anchor="start" x="13.5" y="-146.5" font-family="Helvetica,sans-Serif" font-size="10.00">+ RangeStatisticCollector()</text>
</a>
</g>
</g>
<!-- Node2&#45;&gt;Node1 -->
<g id="edge1" class="edge"><title>Node2&#45;&gt;Node1</title>
<path fill="none" stroke="midnightblue" d="M108.786,-130.399C114.191,-120.921 119.805,-111.079 125.153,-101.701"/>
<polygon fill="none" stroke="midnightblue" points="105.597,-128.926 103.683,-139.347 111.677,-132.394 105.597,-128.926"/>
</g>
<!-- Node3 -->
<g id="node3" class="node"><title>Node3</title>
<g id="a_node3"><a xlink:href="../../d8/dc9/structtest__partitioner__utils_1_1RangeStatisticData.html" target="_top" xlink:title="{test_partitioner_utils\l::RangeStatisticData\n|+ m_wasMinRangeSizeWritten\l|}">
<polygon fill="white" stroke="black" points="0,-467.5 0,-535.5 161,-535.5 161,-467.5 0,-467.5"/>
<text text-anchor="start" x="8" y="-523.5" font-family="Helvetica,sans-Serif" font-size="10.00">test_partitioner_utils</text>
<text text-anchor="middle" x="80.5" y="-512.5" font-family="Helvetica,sans-Serif" font-size="10.00">::RangeStatisticData</text>
<polyline fill="none" stroke="black" points="0,-505.5 161,-505.5 "/>
<text text-anchor="start" x="8" y="-493.5" font-family="Helvetica,sans-Serif" font-size="10.00">+ m_wasMinRangeSizeWritten</text>
<polyline fill="none" stroke="black" points="0,-486.5 161,-486.5 "/>
<text text-anchor="middle" x="80.5" y="-474.5" font-family="Helvetica,sans-Serif" font-size="10.00"> </text>
</a>
</g>
</g>
<!-- Node3&#45;&gt;Node2 -->
<g id="edge2" class="edge"><title>Node3&#45;&gt;Node2</title>
<path fill="none" stroke="#404040" d="M67.8538,-467.365C66.0457,-461.337 64.4715,-455.042 63.5,-449 49.3189,-360.799 53.0033,-336.715 63.5,-248 63.7544,-245.849 64.0565,-243.666 64.3975,-241.467"/>
<polygon fill="none" stroke="#404040" points="64.3986,-241.46 61.5353,-234.842 66.5432,-229.653 69.4065,-236.271 64.3986,-241.46"/>
<text text-anchor="middle" x="95.5" y="-346" font-family="Helvetica,sans-Serif" font-size="10.00"> &#45;m_statData</text>
</g>
<!-- Node4 -->
<g id="node4" class="node"><title>Node4</title>
<polygon fill="white" stroke="#bfbfbf" points="125.5,-605.5 125.5,-662.5 169.5,-662.5 169.5,-605.5 125.5,-605.5"/>
<text text-anchor="middle" x="147.5" y="-650.5" font-family="Helvetica,sans-Serif" font-size="10.00">size_t</text>
<polyline fill="none" stroke="#bfbfbf" points="125.5,-643.5 169.5,-643.5 "/>
<text text-anchor="middle" x="147.5" y="-631.5" font-family="Helvetica,sans-Serif" font-size="10.00"> </text>
<polyline fill="none" stroke="#bfbfbf" points="125.5,-624.5 169.5,-624.5 "/>
<text text-anchor="middle" x="147.5" y="-612.5" font-family="Helvetica,sans-Serif" font-size="10.00"> </text>
</g>
<!-- Node4&#45;&gt;Node3 -->
<g id="edge3" class="edge"><title>Node4&#45;&gt;Node3</title>
<path fill="none" stroke="#404040" d="M125.357,-620.563C113.31,-612.584 99.3097,-601.084 91.5,-587 84.9761,-575.234 81.699,-561.165 80.1854,-547.913"/>
<polygon fill="none" stroke="#404040" points="80.1552,-547.525 75.7026,-541.852 79.226,-535.561 83.6786,-541.233 80.1552,-547.525"/>
<text text-anchor="middle" x="139" y="-579" font-family="Helvetica,sans-Serif" font-size="10.00"> +m_rangeNum</text>
<text text-anchor="middle" x="139" y="-568" font-family="Helvetica,sans-Serif" font-size="10.00">+m_minRangeSize</text>
<text text-anchor="middle" x="139" y="-557" font-family="Helvetica,sans-Serif" font-size="10.00">+m_maxRangeSize</text>
</g>
<!-- Node5 -->
<g id="node5" class="node"><title>Node5</title>
<g id="a_node5"><a xlink:href="../../dc/d49/classtbb_1_1blocked__range.html" target="_top" xlink:title="A range over which to iterate. ">
<polygon fill="white" stroke="black" points="136.5,-248.5 136.5,-448.5 288.5,-448.5 288.5,-248.5 136.5,-248.5"/>
<text text-anchor="start" x="144.5" y="-436.5" font-family="Helvetica,sans-Serif" font-size="10.00">tbb::blocked_range</text>
<text text-anchor="middle" x="212.5" y="-425.5" font-family="Helvetica,sans-Serif" font-size="10.00">&lt; size_t &gt;</text>
<polyline fill="none" stroke="black" points="136.5,-418.5 288.5,-418.5 "/>
<text text-anchor="start" x="144.5" y="-406.5" font-family="Helvetica,sans-Serif" font-size="10.00">+ is_splittable_in_proportion</text>
<text text-anchor="start" x="144.5" y="-395.5" font-family="Helvetica,sans-Serif" font-size="10.00">&#45; my_end</text>
<text text-anchor="start" x="144.5" y="-384.5" font-family="Helvetica,sans-Serif" font-size="10.00">&#45; my_begin</text>
<polyline fill="none" stroke="black" points="136.5,-377.5 288.5,-377.5 "/>
<text text-anchor="start" x="144.5" y="-365.5" font-family="Helvetica,sans-Serif" font-size="10.00">+ blocked_range()</text>
<text text-anchor="start" x="144.5" y="-354.5" font-family="Helvetica,sans-Serif" font-size="10.00">+ begin()</text>
<text text-anchor="start" x="144.5" y="-343.5" font-family="Helvetica,sans-Serif" font-size="10.00">+ end()</text>
<text text-anchor="start" x="144.5" y="-332.5" font-family="Helvetica,sans-Serif" font-size="10.00">+ size()</text>
<text text-anchor="start" x="144.5" y="-321.5" font-family="Helvetica,sans-Serif" font-size="10.00">+ grainsize()</text>
<text text-anchor="start" x="144.5" y="-310.5" font-family="Helvetica,sans-Serif" font-size="10.00">+ empty()</text>
<text text-anchor="start" x="144.5" y="-299.5" font-family="Helvetica,sans-Serif" font-size="10.00">+ is_divisible()</text>
<text text-anchor="start" x="144.5" y="-288.5" font-family="Helvetica,sans-Serif" font-size="10.00">+ blocked_range()</text>
<text text-anchor="start" x="144.5" y="-277.5" font-family="Helvetica,sans-Serif" font-size="10.00">+ blocked_range()</text>
<text text-anchor="start" x="144.5" y="-266.5" font-family="Helvetica,sans-Serif" font-size="10.00">&#45; do_split()</text>
<text text-anchor="start" x="144.5" y="-255.5" font-family="Helvetica,sans-Serif" font-size="10.00">&#45; do_split()</text>
</a>
</g>
</g>
<!-- Node4&#45;&gt;Node5 -->
<g id="edge5" class="edge"><title>Node4&#45;&gt;Node5</title>
<path fill="none" stroke="#404040" d="M169.507,-612.375C176.052,-605.011 182.529,-596.234 186.5,-587 203.353,-547.81 210.862,-501.776 213.813,-460.723"/>
<polygon fill="none" stroke="#404040" points="213.815,-460.699 210.194,-454.463 214.559,-448.722 218.179,-454.959 213.815,-460.699"/>
<text text-anchor="middle" x="232.5" y="-568" font-family="Helvetica,sans-Serif" font-size="10.00"> &#45;my_grainsize</text>
</g>
<!-- Node5&#45;&gt;Node1 -->
<g id="edge4" class="edge"><title>Node5&#45;&gt;Node1</title>
<path fill="none" stroke="midnightblue" d="M190.709,-238.361C181.341,-191.44 170.857,-138.932 163.411,-101.64"/>
<polygon fill="none" stroke="midnightblue" points="187.299,-239.16 192.69,-248.281 194.164,-237.789 187.299,-239.16"/>
</g>
</g>
</svg>
        <g id="navigator" transform="translate(0 0)" fill="#404254">
                <rect fill="#f2f5e9" fill-opacity="0.5" stroke="#606060" stroke-width=".5" x="0" y="0" width="60" height="60"/>
                <use id="zoomplus" xlink:href="#zoomPlus" x="17" y="9" onmousedown="handleZoom(evt,'in')"/>
                <use id="zoomminus" xlink:href="#zoomMin" x="42" y="9" onmousedown="handleZoom(evt,'out')"/>
                <use id="reset" xlink:href="#resetDef" x="30" y="36" onmousedown="handleReset()"/>
                <g id="arrowUp" xlink:href="#dirArrow" transform="translate(30 24)" onmousedown="handlePan(0,-1)">
                  <use xlink:href="#rim" fill="#404040">
                        <set attributeName="fill" to="#808080" begin="arrowUp.mouseover" end="arrowUp.mouseout"/>
                  </use>
                  <path fill="none" stroke="white" stroke-width="1.5" d="M0,-3.0v7 M-2.5,-0.5L0,-3.0L2.5,-0.5"/>
                </g>
                <g id="arrowRight" xlink:href="#dirArrow" transform="rotate(90) translate(36 -43)" onmousedown="handlePan(1,0)">
                  <use xlink:href="#rim" fill="#404040">
                        <set attributeName="fill" to="#808080" begin="arrowRight.mouseover" end="arrowRight.mouseout"/>
                  </use>
                  <path fill="none" stroke="white" stroke-width="1.5" d="M0,-3.0v7 M-2.5,-0.5L0,-3.0L2.5,-0.5"/>
                </g>
                <g id="arrowDown" xlink:href="#dirArrow" transform="rotate(180) translate(-30 -48)" onmousedown="handlePan(0,1)">
                  <use xlink:href="#rim" fill="#404040">
                        <set attributeName="fill" to="#808080" begin="arrowDown.mouseover" end="arrowDown.mouseout"/>
                  </use>
                  <path fill="none" stroke="white" stroke-width="1.5" d="M0,-3.0v7 M-2.5,-0.5L0,-3.0L2.5,-0.5"/>
                </g>
                <g id="arrowLeft" xlink:href="#dirArrow" transform="rotate(270) translate(-36 17)" onmousedown="handlePan(-1,0)">
                  <use xlink:href="#rim" fill="#404040">
                        <set attributeName="fill" to="#808080" begin="arrowLeft.mouseover" end="arrowLeft.mouseout"/>
                  </use>
                  <path fill="none" stroke="white" stroke-width="1.5" d="M0,-3.0v7 M-2.5,-0.5L0,-3.0L2.5,-0.5"/>
                </g>
        </g>
        <svg viewBox="0 0 15 15" width="100%" height="30px" preserveAspectRatio="xMaxYMin meet">
         <g id="arrow_out" transform="scale(0.3 0.3)">
          <a xlink:href="classtest__partitioner__utils_1_1TestRanges_1_1BlockedRange__coll__graph_org.svg" target="_base">
           <rect id="button" ry="5" rx="5" y="6" x="6" height="38" width="38"
                fill="#f2f5e9" fill-opacity="0.5" stroke="#606060" stroke-width="1.0"/>
           <path id="arrow"
             d="M 11.500037,31.436501 C 11.940474,20.09759 22.043105,11.32322 32.158766,21.979434 L 37.068811,17.246167 C 37.068811,17.246167 37.088388,32 37.088388,32 L 22.160133,31.978069 C 22.160133,31.978069 26.997745,27.140456 26.997745,27.140456 C 18.528582,18.264221 13.291696,25.230495 11.500037,31.436501 z"
             style="fill:#404040;"/>
          </a>
         </g>
        </svg>
</svg>
