<?xml version="1.0" encoding="UTF-8" standalone="no"?>
<!DOCTYPE svg PUBLIC "-//W3C//DTD SVG 1.1//EN"
 "http://www.w3.org/Graphics/SVG/1.1/DTD/svg11.dtd">
<!-- Generated by graphviz version 2.38.0 (20140413.2041)
 -->
<!-- Title: DataItemWithInheritedNodeBase Pages: 1 -->
<svg width="265pt" height="183pt"
 viewBox="0.00 0.00 264.50 183.00" xmlns="http://www.w3.org/2000/svg" xmlns:xlink="http://www.w3.org/1999/xlink">
<g id="graph0" class="graph" transform="scale(1 1) rotate(0) translate(4 179)">
<title>DataItemWithInheritedNodeBase</title>
<polygon fill="white" stroke="none" points="-4,4 -4,-179 260.5,-179 260.5,4 -4,4"/>
<!-- Node1 -->
<g id="node1" class="node"><title>Node1</title>
<polygon fill="#bfbfbf" stroke="black" points="0,-0.5 0,-68.5 192,-68.5 192,-0.5 0,-0.5"/>
<text text-anchor="middle" x="96" y="-56.5" font-family="Helvetica,sans-Serif" font-size="10.00">DataItemWithInheritedNodeBase</text>
<polyline fill="none" stroke="black" points="0,-49.5 192,-49.5 "/>
<text text-anchor="start" x="8" y="-37.5" font-family="Helvetica,sans-Serif" font-size="10.00">+ m_Data</text>
<polyline fill="none" stroke="black" points="0,-30.5 192,-30.5 "/>
<text text-anchor="start" x="8" y="-18.5" font-family="Helvetica,sans-Serif" font-size="10.00">+ DataItemWithInheritedNodeBase()</text>
<text text-anchor="start" x="8" y="-7.5" font-family="Helvetica,sans-Serif" font-size="10.00">+ Data()</text>
</g>
<!-- Node2 -->
<g id="node2" class="node"><title>Node2</title>
<g id="a_node2"><a xlink:href="../../d8/dce/structtbb_1_1internal_1_1intrusive__list__node.html" target="_top" xlink:title="Data structure to be inherited by the types that can form intrusive lists. ">
<polygon fill="white" stroke="black" points="35.5,-106.5 35.5,-174.5 156.5,-174.5 156.5,-106.5 35.5,-106.5"/>
<text text-anchor="start" x="43.5" y="-162.5" font-family="Helvetica,sans-Serif" font-size="10.00">tbb::internal::intrusive</text>
<text text-anchor="middle" x="96" y="-151.5" font-family="Helvetica,sans-Serif" font-size="10.00">_list_node</text>
<polyline fill="none" stroke="black" points="35.5,-144.5 156.5,-144.5 "/>
<text text-anchor="middle" x="96" y="-132.5" font-family="Helvetica,sans-Serif" font-size="10.00"> </text>
<polyline fill="none" stroke="black" points="35.5,-125.5 156.5,-125.5 "/>
<text text-anchor="middle" x="96" y="-113.5" font-family="Helvetica,sans-Serif" font-size="10.00"> </text>
</a>
</g>
</g>
<!-- Node2&#45;&gt;Node1 -->
<g id="edge1" class="edge"><title>Node2&#45;&gt;Node1</title>
<path fill="none" stroke="midnightblue" d="M96,-96.1737C96,-87.0025 96,-77.4608 96,-68.7336"/>
<polygon fill="none" stroke="midnightblue" points="92.5001,-96.3078 96,-106.308 99.5001,-96.3078 92.5001,-96.3078"/>
</g>
<!-- Node2&#45;&gt;Node2 -->
<g id="edge2" class="edge"><title>Node2&#45;&gt;Node2</title>
<path fill="none" stroke="#404040" d="M156.562,-149.641C167.141,-148.422 174.5,-145.375 174.5,-140.5 174.5,-137.834 172.299,-135.715 168.574,-134.142"/>
<polygon fill="none" stroke="#404040" points="168.252,-134.068 161.504,-136.61 156.562,-131.359 163.309,-128.817 168.252,-134.068"/>
<text text-anchor="middle" x="215.5" y="-143.5" font-family="Helvetica,sans-Serif" font-size="10.00"> +my_next_node</text>
<text text-anchor="middle" x="215.5" y="-132.5" font-family="Helvetica,sans-Serif" font-size="10.00">+my_prev_node</text>
</g>
</g>
</svg>
