<?xml version="1.0" encoding="UTF-8" standalone="no"?>
<!DOCTYPE svg PUBLIC "-//W3C//DTD SVG 1.1//EN"
 "http://www.w3.org/Graphics/SVG/1.1/DTD/svg11.dtd">
<!-- Generated by graphviz version 2.38.0 (20140413.2041)
 -->
<!-- Title: /home/travis/build/ComPWA/ComPWA/ThirdParty/tbb/include/tbb/parallel_reduce.h Pages: 1 -->
<svg width="1844pt" height="239pt"
 viewBox="0.00 0.00 1843.50 239.00" xmlns="http://www.w3.org/2000/svg" xmlns:xlink="http://www.w3.org/1999/xlink">
<g id="graph0" class="graph" transform="scale(1 1) rotate(0) translate(4 235)">
<title>/home/travis/build/ComPWA/ComPWA/ThirdParty/tbb/include/tbb/parallel_reduce.h</title>
<polygon fill="white" stroke="none" points="-4,4 -4,-235 1839.5,-235 1839.5,4 -4,4"/>
<!-- Node1 -->
<g id="node1" class="node"><title>Node1</title>
<polygon fill="#bfbfbf" stroke="black" points="879.5,-178.5 879.5,-230.5 1037.5,-230.5 1037.5,-178.5 879.5,-178.5"/>
<text text-anchor="start" x="887.5" y="-218.5" font-family="Helvetica,sans-Serif" font-size="10.00">/home/travis/build</text>
<text text-anchor="start" x="887.5" y="-207.5" font-family="Helvetica,sans-Serif" font-size="10.00">/ComPWA/ComPWA/ThirdParty</text>
<text text-anchor="start" x="887.5" y="-196.5" font-family="Helvetica,sans-Serif" font-size="10.00">/tbb/include/tbb/parallel</text>
<text text-anchor="middle" x="958.5" y="-185.5" font-family="Helvetica,sans-Serif" font-size="10.00">_reduce.h</text>
</g>
<!-- Node2 -->
<g id="node2" class="node"><title>Node2</title>
<g id="a_node2"><a xlink:href="../../d9/ddd/parallel__backend__tbb_8h.html" target="_top" xlink:title="/home/travis/build\l/ComPWA/ComPWA/ThirdParty\l/parallelstl/include/pstl\l/internal/parallel_backend_tbb.h">
<polygon fill="white" stroke="black" points="0,-89.5 0,-141.5 169,-141.5 169,-89.5 0,-89.5"/>
<text text-anchor="start" x="8" y="-129.5" font-family="Helvetica,sans-Serif" font-size="10.00">/home/travis/build</text>
<text text-anchor="start" x="8" y="-118.5" font-family="Helvetica,sans-Serif" font-size="10.00">/ComPWA/ComPWA/ThirdParty</text>
<text text-anchor="start" x="8" y="-107.5" font-family="Helvetica,sans-Serif" font-size="10.00">/parallelstl/include/pstl</text>
<text text-anchor="middle" x="84.5" y="-96.5" font-family="Helvetica,sans-Serif" font-size="10.00">/internal/parallel_backend_tbb.h</text>
</a>
</g>
</g>
<!-- Node1&#45;&gt;Node2 -->
<g id="edge1" class="edge"><title>Node1&#45;&gt;Node2</title>
<path fill="none" stroke="midnightblue" d="M869.062,-201.849C723.369,-197.954 426.178,-184.973 178.5,-142 175.418,-141.465 172.29,-140.875 169.14,-140.239"/>
<polygon fill="midnightblue" stroke="midnightblue" points="869.2,-205.354 879.287,-202.114 869.381,-198.356 869.2,-205.354"/>
</g>
<!-- Node4 -->
<g id="node4" class="node"><title>Node4</title>
<g id="a_node4"><a xlink:href="../../df/d08/convex__hull__bench_8cpp.html" target="_top" xlink:title="/home/travis/build\l/ComPWA/ComPWA/ThirdParty\l/tbb/examples/parallel_reduce\l/convex_hull/convex_hull_bench.cpp">
<polygon fill="white" stroke="black" points="187.5,-89.5 187.5,-141.5 375.5,-141.5 375.5,-89.5 187.5,-89.5"/>
<text text-anchor="start" x="195.5" y="-129.5" font-family="Helvetica,sans-Serif" font-size="10.00">/home/travis/build</text>
<text text-anchor="start" x="195.5" y="-118.5" font-family="Helvetica,sans-Serif" font-size="10.00">/ComPWA/ComPWA/ThirdParty</text>
<text text-anchor="start" x="195.5" y="-107.5" font-family="Helvetica,sans-Serif" font-size="10.00">/tbb/examples/parallel_reduce</text>
<text text-anchor="middle" x="281.5" y="-96.5" font-family="Helvetica,sans-Serif" font-size="10.00">/convex_hull/convex_hull_bench.cpp</text>
</a>
</g>
</g>
<!-- Node1&#45;&gt;Node4 -->
<g id="edge3" class="edge"><title>Node1&#45;&gt;Node4</title>
<path fill="none" stroke="midnightblue" d="M869.08,-197.703C755.717,-189.487 554.555,-172.017 384.5,-142 381.597,-141.488 378.655,-140.94 375.69,-140.363"/>
<polygon fill="midnightblue" stroke="midnightblue" points="868.876,-201.197 879.101,-198.421 869.377,-194.215 868.876,-201.197"/>
</g>
<!-- Node5 -->
<g id="node5" class="node"><title>Node5</title>
<g id="a_node5"><a xlink:href="../../d6/ddb/convex__hull__sample_8cpp.html" target="_top" xlink:title="/home/travis/build\l/ComPWA/ComPWA/ThirdParty\l/tbb/examples/parallel_reduce\l/convex_hull/convex_hull_sample.cpp">
<polygon fill="white" stroke="black" points="393.5,-89.5 393.5,-141.5 587.5,-141.5 587.5,-89.5 393.5,-89.5"/>
<text text-anchor="start" x="401.5" y="-129.5" font-family="Helvetica,sans-Serif" font-size="10.00">/home/travis/build</text>
<text text-anchor="start" x="401.5" y="-118.5" font-family="Helvetica,sans-Serif" font-size="10.00">/ComPWA/ComPWA/ThirdParty</text>
<text text-anchor="start" x="401.5" y="-107.5" font-family="Helvetica,sans-Serif" font-size="10.00">/tbb/examples/parallel_reduce</text>
<text text-anchor="middle" x="490.5" y="-96.5" font-family="Helvetica,sans-Serif" font-size="10.00">/convex_hull/convex_hull_sample.cpp</text>
</a>
</g>
</g>
<!-- Node1&#45;&gt;Node5 -->
<g id="edge4" class="edge"><title>Node1&#45;&gt;Node5</title>
<path fill="none" stroke="midnightblue" d="M869.336,-190.078C795.871,-178.606 689.097,-160.981 596.5,-142 593.626,-141.411 590.711,-140.8 587.772,-140.171"/>
<polygon fill="midnightblue" stroke="midnightblue" points="869.057,-193.577 879.476,-191.656 870.133,-186.66 869.057,-193.577"/>
</g>
<!-- Node6 -->
<g id="node6" class="node"><title>Node6</title>
<g id="a_node6"><a xlink:href="../../d0/dde/primes_8cpp.html" target="_top" xlink:title="/home/travis/build\l/ComPWA/ComPWA/ThirdParty\l/tbb/examples/parallel_reduce\l/primes/primes.cpp">
<polygon fill="white" stroke="black" points="606,-89.5 606,-141.5 767,-141.5 767,-89.5 606,-89.5"/>
<text text-anchor="start" x="614" y="-129.5" font-family="Helvetica,sans-Serif" font-size="10.00">/home/travis/build</text>
<text text-anchor="start" x="614" y="-118.5" font-family="Helvetica,sans-Serif" font-size="10.00">/ComPWA/ComPWA/ThirdParty</text>
<text text-anchor="start" x="614" y="-107.5" font-family="Helvetica,sans-Serif" font-size="10.00">/tbb/examples/parallel_reduce</text>
<text text-anchor="middle" x="686.5" y="-96.5" font-family="Helvetica,sans-Serif" font-size="10.00">/primes/primes.cpp</text>
</a>
</g>
</g>
<!-- Node1&#45;&gt;Node6 -->
<g id="edge5" class="edge"><title>Node1&#45;&gt;Node6</title>
<path fill="none" stroke="midnightblue" d="M870.267,-175.278C836.271,-164.405 797.714,-152.072 764.727,-141.521"/>
<polygon fill="midnightblue" stroke="midnightblue" points="869.6,-178.74 880.191,-178.453 871.733,-172.073 869.6,-178.74"/>
</g>
<!-- Node7 -->
<g id="node7" class="node"><title>Node7</title>
<g id="a_node7"><a xlink:href="../../d7/ddb/Fibonacci_8cpp.html" target="_top" xlink:title="/home/travis/build\l/ComPWA/ComPWA/ThirdParty\l/tbb/examples/test_all/fibonacci\l/Fibonacci.cpp">
<polygon fill="white" stroke="black" points="785,-89.5 785,-141.5 952,-141.5 952,-89.5 785,-89.5"/>
<text text-anchor="start" x="793" y="-129.5" font-family="Helvetica,sans-Serif" font-size="10.00">/home/travis/build</text>
<text text-anchor="start" x="793" y="-118.5" font-family="Helvetica,sans-Serif" font-size="10.00">/ComPWA/ComPWA/ThirdParty</text>
<text text-anchor="start" x="793" y="-107.5" font-family="Helvetica,sans-Serif" font-size="10.00">/tbb/examples/test_all/fibonacci</text>
<text text-anchor="middle" x="868.5" y="-96.5" font-family="Helvetica,sans-Serif" font-size="10.00">/Fibonacci.cpp</text>
</a>
</g>
</g>
<!-- Node1&#45;&gt;Node7 -->
<g id="edge6" class="edge"><title>Node1&#45;&gt;Node7</title>
<path fill="none" stroke="midnightblue" d="M925.255,-171.363C915.095,-161.542 904.076,-150.89 894.473,-141.607"/>
<polygon fill="midnightblue" stroke="midnightblue" points="922.846,-173.902 932.468,-178.336 927.711,-168.869 922.846,-173.902"/>
</g>
<!-- Node8 -->
<g id="node8" class="node"><title>Node8</title>
<g id="a_node8"><a xlink:href="../../d8/dc1/tbb_8h.html" target="_top" xlink:title="/home/travis/build\l/ComPWA/ComPWA/ThirdParty\l/tbb/include/tbb/tbb.h">
<polygon fill="white" stroke="black" points="969.5,-95 969.5,-136 1127.5,-136 1127.5,-95 969.5,-95"/>
<text text-anchor="start" x="977.5" y="-124" font-family="Helvetica,sans-Serif" font-size="10.00">/home/travis/build</text>
<text text-anchor="start" x="977.5" y="-113" font-family="Helvetica,sans-Serif" font-size="10.00">/ComPWA/ComPWA/ThirdParty</text>
<text text-anchor="middle" x="1048.5" y="-102" font-family="Helvetica,sans-Serif" font-size="10.00">/tbb/include/tbb/tbb.h</text>
</a>
</g>
</g>
<!-- Node1&#45;&gt;Node8 -->
<g id="edge7" class="edge"><title>Node1&#45;&gt;Node8</title>
<path fill="none" stroke="midnightblue" d="M991.933,-171.181C1004.13,-159.392 1017.54,-146.428 1028.24,-136.082"/>
<polygon fill="midnightblue" stroke="midnightblue" points="989.289,-168.869 984.532,-178.336 994.154,-173.902 989.289,-168.869"/>
</g>
<!-- Node13 -->
<g id="node13" class="node"><title>Node13</title>
<g id="a_node13"><a xlink:href="../../d3/d56/perf__sched_8cpp.html" target="_top" xlink:title="/home/travis/build\l/ComPWA/ComPWA/ThirdParty\l/tbb/src/perf/perf_sched.cpp">
<polygon fill="white" stroke="black" points="1145.5,-95 1145.5,-136 1303.5,-136 1303.5,-95 1145.5,-95"/>
<text text-anchor="start" x="1153.5" y="-124" font-family="Helvetica,sans-Serif" font-size="10.00">/home/travis/build</text>
<text text-anchor="start" x="1153.5" y="-113" font-family="Helvetica,sans-Serif" font-size="10.00">/ComPWA/ComPWA/ThirdParty</text>
<text text-anchor="middle" x="1224.5" y="-102" font-family="Helvetica,sans-Serif" font-size="10.00">/tbb/src/perf/perf_sched.cpp</text>
</a>
</g>
</g>
<!-- Node1&#45;&gt;Node13 -->
<g id="edge12" class="edge"><title>Node1&#45;&gt;Node13</title>
<path fill="none" stroke="midnightblue" d="M1044.87,-175.25C1083.95,-162.469 1129.18,-147.678 1164.47,-136.134"/>
<polygon fill="midnightblue" stroke="midnightblue" points="1043.5,-172.017 1035.08,-178.453 1045.67,-178.671 1043.5,-172.017"/>
</g>
<!-- Node14 -->
<g id="node14" class="node"><title>Node14</title>
<g id="a_node14"><a xlink:href="../../d8/d6c/test__enumerable__thread__specific_8cpp.html" target="_top" xlink:title="/home/travis/build\l/ComPWA/ComPWA/ThirdParty\l/tbb/src/test/test_enumerable\l_thread_specific.cpp">
<polygon fill="white" stroke="black" points="1321,-89.5 1321,-141.5 1480,-141.5 1480,-89.5 1321,-89.5"/>
<text text-anchor="start" x="1329" y="-129.5" font-family="Helvetica,sans-Serif" font-size="10.00">/home/travis/build</text>
<text text-anchor="start" x="1329" y="-118.5" font-family="Helvetica,sans-Serif" font-size="10.00">/ComPWA/ComPWA/ThirdParty</text>
<text text-anchor="start" x="1329" y="-107.5" font-family="Helvetica,sans-Serif" font-size="10.00">/tbb/src/test/test_enumerable</text>
<text text-anchor="middle" x="1400.5" y="-96.5" font-family="Helvetica,sans-Serif" font-size="10.00">_thread_specific.cpp</text>
</a>
</g>
</g>
<!-- Node1&#45;&gt;Node14 -->
<g id="edge13" class="edge"><title>Node1&#45;&gt;Node14</title>
<path fill="none" stroke="midnightblue" d="M1047.67,-190.79C1119.58,-179.873 1223.11,-162.651 1312.5,-142 1315.29,-141.356 1318.12,-140.676 1320.98,-139.969"/>
<polygon fill="midnightblue" stroke="midnightblue" points="1047.1,-187.336 1037.74,-192.288 1048.15,-194.257 1047.1,-187.336"/>
</g>
<!-- Node15 -->
<g id="node15" class="node"><title>Node15</title>
<g id="a_node15"><a xlink:href="../../d7/dc8/test__openmp_8cpp.html" target="_top" xlink:title="/home/travis/build\l/ComPWA/ComPWA/ThirdParty\l/tbb/src/test/test_openmp.cpp">
<polygon fill="white" stroke="black" points="1498,-95 1498,-136 1659,-136 1659,-95 1498,-95"/>
<text text-anchor="start" x="1506" y="-124" font-family="Helvetica,sans-Serif" font-size="10.00">/home/travis/build</text>
<text text-anchor="start" x="1506" y="-113" font-family="Helvetica,sans-Serif" font-size="10.00">/ComPWA/ComPWA/ThirdParty</text>
<text text-anchor="middle" x="1578.5" y="-102" font-family="Helvetica,sans-Serif" font-size="10.00">/tbb/src/test/test_openmp.cpp</text>
</a>
</g>
</g>
<!-- Node1&#45;&gt;Node15 -->
<g id="edge14" class="edge"><title>Node1&#45;&gt;Node15</title>
<path fill="none" stroke="midnightblue" d="M1047.88,-197.637C1153.97,-189.646 1335.88,-172.689 1489.5,-142 1497.85,-140.331 1506.56,-138.26 1515.12,-136.026"/>
<polygon fill="midnightblue" stroke="midnightblue" points="1047.56,-194.15 1037.85,-198.382 1048.08,-201.131 1047.56,-194.15"/>
</g>
<!-- Node16 -->
<g id="node16" class="node"><title>Node16</title>
<g id="a_node16"><a xlink:href="../../d6/dd5/test__parallel__reduce_8cpp.html" target="_top" xlink:title="/home/travis/build\l/ComPWA/ComPWA/ThirdParty\l/tbb/src/test/test_parallel\l_reduce.cpp">
<polygon fill="white" stroke="black" points="1677.5,-89.5 1677.5,-141.5 1835.5,-141.5 1835.5,-89.5 1677.5,-89.5"/>
<text text-anchor="start" x="1685.5" y="-129.5" font-family="Helvetica,sans-Serif" font-size="10.00">/home/travis/build</text>
<text text-anchor="start" x="1685.5" y="-118.5" font-family="Helvetica,sans-Serif" font-size="10.00">/ComPWA/ComPWA/ThirdParty</text>
<text text-anchor="start" x="1685.5" y="-107.5" font-family="Helvetica,sans-Serif" font-size="10.00">/tbb/src/test/test_parallel</text>
<text text-anchor="middle" x="1756.5" y="-96.5" font-family="Helvetica,sans-Serif" font-size="10.00">_reduce.cpp</text>
</a>
</g>
</g>
<!-- Node1&#45;&gt;Node16 -->
<g id="edge15" class="edge"><title>Node1&#45;&gt;Node16</title>
<path fill="none" stroke="midnightblue" d="M1048.03,-201.35C1183.42,-196.841 1447.86,-183.114 1668.5,-142 1671.31,-141.476 1674.17,-140.899 1677.04,-140.28"/>
<polygon fill="midnightblue" stroke="midnightblue" points="1047.59,-197.862 1037.71,-201.684 1047.82,-204.859 1047.59,-197.862"/>
</g>
<!-- Node3 -->
<g id="node3" class="node"><title>Node3</title>
<g id="a_node3"><a xlink:href="../../db/d64/parallel__backend_8h.html" target="_top" xlink:title="/home/travis/build\l/ComPWA/ComPWA/ThirdParty\l/parallelstl/include/pstl\l/internal/parallel_backend.h">
<polygon fill="white" stroke="red" points="5.5,-0.5 5.5,-52.5 163.5,-52.5 163.5,-0.5 5.5,-0.5"/>
<text text-anchor="start" x="13.5" y="-40.5" font-family="Helvetica,sans-Serif" font-size="10.00">/home/travis/build</text>
<text text-anchor="start" x="13.5" y="-29.5" font-family="Helvetica,sans-Serif" font-size="10.00">/ComPWA/ComPWA/ThirdParty</text>
<text text-anchor="start" x="13.5" y="-18.5" font-family="Helvetica,sans-Serif" font-size="10.00">/parallelstl/include/pstl</text>
<text text-anchor="middle" x="84.5" y="-7.5" font-family="Helvetica,sans-Serif" font-size="10.00">/internal/parallel_backend.h</text>
</a>
</g>
</g>
<!-- Node2&#45;&gt;Node3 -->
<g id="edge2" class="edge"><title>Node2&#45;&gt;Node3</title>
<path fill="none" stroke="midnightblue" d="M84.5,-79.1908C84.5,-70.2824 84.5,-60.8986 84.5,-52.6075"/>
<polygon fill="midnightblue" stroke="midnightblue" points="81.0001,-79.336 84.5,-89.336 88.0001,-79.336 81.0001,-79.336"/>
</g>
<!-- Node9 -->
<g id="node9" class="node"><title>Node9</title>
<g id="a_node9"><a xlink:href="../../d0/d75/DirectXPage_8xaml_8cpp.html" target="_top" xlink:title="/home/travis/build\l/ComPWA/ComPWA/ThirdParty\l/tbb/examples/parallel_for\l/tachyon/msvs/win8ui/DirectXPage.xaml.cpp">
<polygon fill="white" stroke="black" points="577.5,-0.5 577.5,-52.5 803.5,-52.5 803.5,-0.5 577.5,-0.5"/>
<text text-anchor="start" x="585.5" y="-40.5" font-family="Helvetica,sans-Serif" font-size="10.00">/home/travis/build</text>
<text text-anchor="start" x="585.5" y="-29.5" font-family="Helvetica,sans-Serif" font-size="10.00">/ComPWA/ComPWA/ThirdParty</text>
<text text-anchor="start" x="585.5" y="-18.5" font-family="Helvetica,sans-Serif" font-size="10.00">/tbb/examples/parallel_for</text>
<text text-anchor="middle" x="690.5" y="-7.5" font-family="Helvetica,sans-Serif" font-size="10.00">/tachyon/msvs/win8ui/DirectXPage.xaml.cpp</text>
</a>
</g>
</g>
<!-- Node8&#45;&gt;Node9 -->
<g id="edge8" class="edge"><title>Node8&#45;&gt;Node9</title>
<path fill="none" stroke="midnightblue" d="M972.332,-92.1336C968.336,-91.0526 964.374,-90.0016 960.5,-89 909.3,-75.7627 852.25,-62.5464 803.83,-51.777"/>
<polygon fill="midnightblue" stroke="midnightblue" points="971.734,-95.5986 982.303,-94.8714 973.587,-88.8485 971.734,-95.5986"/>
</g>
<!-- Node10 -->
<g id="node10" class="node"><title>Node10</title>
<g id="a_node10"><a xlink:href="../../dd/dc5/tbbTachyonRenderer_8cpp.html" target="_top" xlink:title="/home/travis/build\l/ComPWA/ComPWA/ThirdParty\l/tbb/examples/parallel_for\l/tachyon/msvs/win8ui/tbbTachyonRenderer.cpp">
<polygon fill="white" stroke="black" points="821.5,-0.5 821.5,-52.5 1059.5,-52.5 1059.5,-0.5 821.5,-0.5"/>
<text text-anchor="start" x="829.5" y="-40.5" font-family="Helvetica,sans-Serif" font-size="10.00">/home/travis/build</text>
<text text-anchor="start" x="829.5" y="-29.5" font-family="Helvetica,sans-Serif" font-size="10.00">/ComPWA/ComPWA/ThirdParty</text>
<text text-anchor="start" x="829.5" y="-18.5" font-family="Helvetica,sans-Serif" font-size="10.00">/tbb/examples/parallel_for</text>
<text text-anchor="middle" x="940.5" y="-7.5" font-family="Helvetica,sans-Serif" font-size="10.00">/tachyon/msvs/win8ui/tbbTachyonRenderer.cpp</text>
</a>
</g>
</g>
<!-- Node8&#45;&gt;Node10 -->
<g id="edge9" class="edge"><title>Node8&#45;&gt;Node10</title>
<path fill="none" stroke="midnightblue" d="M1016.26,-88.5294C1002.14,-77.1538 985.633,-63.8575 971.64,-52.5847"/>
<polygon fill="midnightblue" stroke="midnightblue" points="1014.28,-91.4278 1024.26,-94.9755 1018.67,-85.9765 1014.28,-91.4278"/>
</g>
<!-- Node11 -->
<g id="node11" class="node"><title>Node11</title>
<g id="a_node11"><a xlink:href="../../dd/d29/trace_8simple_8cpp.html" target="_top" xlink:title="/home/travis/build\l/ComPWA/ComPWA/ThirdParty\l/tbb/examples/parallel_for\l/tachyon/src/trace.simple.cpp">
<polygon fill="white" stroke="black" points="1077.5,-0.5 1077.5,-52.5 1235.5,-52.5 1235.5,-0.5 1077.5,-0.5"/>
<text text-anchor="start" x="1085.5" y="-40.5" font-family="Helvetica,sans-Serif" font-size="10.00">/home/travis/build</text>
<text text-anchor="start" x="1085.5" y="-29.5" font-family="Helvetica,sans-Serif" font-size="10.00">/ComPWA/ComPWA/ThirdParty</text>
<text text-anchor="start" x="1085.5" y="-18.5" font-family="Helvetica,sans-Serif" font-size="10.00">/tbb/examples/parallel_for</text>
<text text-anchor="middle" x="1156.5" y="-7.5" font-family="Helvetica,sans-Serif" font-size="10.00">/tachyon/src/trace.simple.cpp</text>
</a>
</g>
</g>
<!-- Node8&#45;&gt;Node11 -->
<g id="edge10" class="edge"><title>Node8&#45;&gt;Node11</title>
<path fill="none" stroke="midnightblue" d="M1080.74,-88.5294C1094.86,-77.1538 1111.37,-63.8575 1125.36,-52.5847"/>
<polygon fill="midnightblue" stroke="midnightblue" points="1078.33,-85.9765 1072.74,-94.9755 1082.72,-91.4278 1078.33,-85.9765"/>
</g>
<!-- Node12 -->
<g id="node12" class="node"><title>Node12</title>
<g id="a_node12"><a xlink:href="../../db/d56/test__tbb__header_8cpp.html" target="_top" xlink:title="/home/travis/build\l/ComPWA/ComPWA/ThirdParty\l/tbb/src/test/test_tbb_header.cpp">
<polygon fill="white" stroke="black" points="1253.5,-6 1253.5,-47 1429.5,-47 1429.5,-6 1253.5,-6"/>
<text text-anchor="start" x="1261.5" y="-35" font-family="Helvetica,sans-Serif" font-size="10.00">/home/travis/build</text>
<text text-anchor="start" x="1261.5" y="-24" font-family="Helvetica,sans-Serif" font-size="10.00">/ComPWA/ComPWA/ThirdParty</text>
<text text-anchor="middle" x="1341.5" y="-13" font-family="Helvetica,sans-Serif" font-size="10.00">/tbb/src/test/test_tbb_header.cpp</text>
</a>
</g>
</g>
<!-- Node8&#45;&gt;Node12 -->
<g id="edge11" class="edge"><title>Node8&#45;&gt;Node12</title>
<path fill="none" stroke="midnightblue" d="M1124.07,-92.0625C1171,-78.1269 1230.73,-60.39 1275.71,-47.0344"/>
<polygon fill="midnightblue" stroke="midnightblue" points="1122.84,-88.7738 1114.25,-94.9755 1124.84,-95.4842 1122.84,-88.7738"/>
</g>
</g>
</svg>
