<?xml version="1.0" encoding="UTF-8" standalone="no"?>
<!DOCTYPE svg PUBLIC "-//W3C//DTD SVG 1.1//EN"
 "http://www.w3.org/Graphics/SVG/1.1/DTD/svg11.dtd">
<!-- Generated by graphviz version 2.38.0 (20140413.2041)
 -->
<!-- Title: RunTestHeapLimit Pages: 1 -->
<svg width="234pt" height="376pt"
 viewBox="0.00 0.00 234.00 376.00" xmlns="http://www.w3.org/2000/svg" xmlns:xlink="http://www.w3.org/1999/xlink">
<g id="graph0" class="graph" transform="scale(1 1) rotate(0) translate(4 372)">
<title>RunTestHeapLimit</title>
<polygon fill="white" stroke="none" points="-4,4 -4,-372 230,-372 230,4 -4,4"/>
<!-- Node1 -->
<g id="node1" class="node"><title>Node1</title>
<polygon fill="#bfbfbf" stroke="black" points="50.5,-0.5 50.5,-57.5 151.5,-57.5 151.5,-0.5 50.5,-0.5"/>
<text text-anchor="middle" x="101" y="-45.5" font-family="Helvetica,sans-Serif" font-size="10.00">RunTestHeapLimit</text>
<polyline fill="none" stroke="black" points="50.5,-38.5 151.5,-38.5 "/>
<text text-anchor="middle" x="101" y="-26.5" font-family="Helvetica,sans-Serif" font-size="10.00"> </text>
<polyline fill="none" stroke="black" points="50.5,-19.5 151.5,-19.5 "/>
<text text-anchor="start" x="58.5" y="-7.5" font-family="Helvetica,sans-Serif" font-size="10.00">+ operator()()</text>
</g>
<!-- Node2 -->
<g id="node2" class="node"><title>Node2</title>
<g id="a_node2"><a xlink:href="../../db/def/classSimpleBarrier.html" target="_top" xlink:title="{SimpleBarrier\n||+ initBarrier()\l}">
<polygon fill="white" stroke="black" points="60,-95.5 60,-152.5 142,-152.5 142,-95.5 60,-95.5"/>
<text text-anchor="middle" x="101" y="-140.5" font-family="Helvetica,sans-Serif" font-size="10.00">SimpleBarrier</text>
<polyline fill="none" stroke="black" points="60,-133.5 142,-133.5 "/>
<text text-anchor="middle" x="101" y="-121.5" font-family="Helvetica,sans-Serif" font-size="10.00"> </text>
<polyline fill="none" stroke="black" points="60,-114.5 142,-114.5 "/>
<text text-anchor="start" x="68" y="-102.5" font-family="Helvetica,sans-Serif" font-size="10.00">+ initBarrier()</text>
</a>
</g>
</g>
<!-- Node2&#45;&gt;Node1 -->
<g id="edge1" class="edge"><title>Node2&#45;&gt;Node1</title>
<path fill="none" stroke="midnightblue" d="M101,-85.2352C101,-76.0276 101,-66.3459 101,-57.7053"/>
<polygon fill="none" stroke="midnightblue" points="97.5001,-85.3487 101,-95.3487 104.5,-85.3488 97.5001,-85.3487"/>
</g>
<!-- Node3 -->
<g id="node3" class="node"><title>Node3</title>
<g id="a_node3"><a xlink:href="../../d8/dab/classNoAssign.html" target="_top" xlink:title="Base class for prohibiting compiler&#45;generated operator=. ">
<polygon fill="white" stroke="black" points="0,-250 0,-318 80,-318 80,-250 0,-250"/>
<text text-anchor="middle" x="40" y="-306" font-family="Helvetica,sans-Serif" font-size="10.00">NoAssign</text>
<polyline fill="none" stroke="black" points="0,-299 80,-299 "/>
<text text-anchor="middle" x="40" y="-287" font-family="Helvetica,sans-Serif" font-size="10.00"> </text>
<polyline fill="none" stroke="black" points="0,-280 80,-280 "/>
<text text-anchor="start" x="8" y="-268" font-family="Helvetica,sans-Serif" font-size="10.00">+ NoAssign()</text>
<text text-anchor="start" x="8" y="-257" font-family="Helvetica,sans-Serif" font-size="10.00">&#45; operator=()</text>
</a>
</g>
</g>
<!-- Node3&#45;&gt;Node2 -->
<g id="edge2" class="edge"><title>Node3&#45;&gt;Node2</title>
<path fill="none" stroke="#8b1a1a" d="M56.4628,-240.359C67.2401,-212.444 81.008,-176.782 90.3634,-152.55"/>
<polygon fill="none" stroke="#8b1a1a" points="53.1242,-239.289 52.7876,-249.878 59.6544,-241.81 53.1242,-239.289"/>
</g>
<!-- Node4 -->
<g id="node4" class="node"><title>Node4</title>
<g id="a_node4"><a xlink:href="../../d0/d34/classHarness_1_1SpinBarrier.html" target="_top" xlink:title="{Harness::SpinBarrier\n|&#45; numThreads\l&#45; throwaway\l|+ SpinBarrier()\l+ initialize()\l+ custom_wait()\l+ timed_wait_noerror()\l+ timed_wait()\l+ wait()\l+ wait()\l+ signal_nowait()\l&#45; SpinBarrier()\l&#45; operator=()\l}">
<polygon fill="white" stroke="red" points="98,-200.5 98,-367.5 226,-367.5 226,-200.5 98,-200.5"/>
<text text-anchor="middle" x="162" y="-355.5" font-family="Helvetica,sans-Serif" font-size="10.00">Harness::SpinBarrier</text>
<polyline fill="none" stroke="red" points="98,-348.5 226,-348.5 "/>
<text text-anchor="start" x="106" y="-336.5" font-family="Helvetica,sans-Serif" font-size="10.00">&#45; numThreads</text>
<text text-anchor="start" x="106" y="-325.5" font-family="Helvetica,sans-Serif" font-size="10.00">&#45; throwaway</text>
<polyline fill="none" stroke="red" points="98,-318.5 226,-318.5 "/>
<text text-anchor="start" x="106" y="-306.5" font-family="Helvetica,sans-Serif" font-size="10.00">+ SpinBarrier()</text>
<text text-anchor="start" x="106" y="-295.5" font-family="Helvetica,sans-Serif" font-size="10.00">+ initialize()</text>
<text text-anchor="start" x="106" y="-284.5" font-family="Helvetica,sans-Serif" font-size="10.00">+ custom_wait()</text>
<text text-anchor="start" x="106" y="-273.5" font-family="Helvetica,sans-Serif" font-size="10.00">+ timed_wait_noerror()</text>
<text text-anchor="start" x="106" y="-262.5" font-family="Helvetica,sans-Serif" font-size="10.00">+ timed_wait()</text>
<text text-anchor="start" x="106" y="-251.5" font-family="Helvetica,sans-Serif" font-size="10.00">+ wait()</text>
<text text-anchor="start" x="106" y="-240.5" font-family="Helvetica,sans-Serif" font-size="10.00">+ wait()</text>
<text text-anchor="start" x="106" y="-229.5" font-family="Helvetica,sans-Serif" font-size="10.00">+ signal_nowait()</text>
<text text-anchor="start" x="106" y="-218.5" font-family="Helvetica,sans-Serif" font-size="10.00">&#45; SpinBarrier()</text>
<text text-anchor="start" x="106" y="-207.5" font-family="Helvetica,sans-Serif" font-size="10.00">&#45; operator=()</text>
</a>
</g>
</g>
<!-- Node4&#45;&gt;Node2 -->
<g id="edge3" class="edge"><title>Node4&#45;&gt;Node2</title>
<path fill="none" stroke="#404040" d="M130.071,-200.298C125.202,-187.687 120.382,-175.202 116.108,-164.132"/>
<polygon fill="none" stroke="#404040" points="116.03,-163.931 110.138,-159.774 111.708,-152.736 117.601,-156.893 116.03,-163.931"/>
<text text-anchor="middle" x="144.5" y="-174" font-family="Helvetica,sans-Serif" font-size="10.00"> #barrier</text>
</g>
</g>
</svg>
