<?xml version="1.0" encoding="UTF-8" standalone="no"?>
<!DOCTYPE svg PUBLIC "-//W3C//DTD SVG 1.1//EN"
 "http://www.w3.org/Graphics/SVG/1.1/DTD/svg11.dtd">
<!-- Generated by graphviz version 2.38.0 (20140413.2041)
 -->
<!-- Title: /home/travis/build/ComPWA/ComPWA/ThirdParty/tbb/examples/parallel_do/parallel_preorder/Matrix.h Pages: 1 -->
<svg width="518pt" height="250pt"
 viewBox="0.00 0.00 518.00 250.00" xmlns="http://www.w3.org/2000/svg" xmlns:xlink="http://www.w3.org/1999/xlink">
<g id="graph0" class="graph" transform="scale(1 1) rotate(0) translate(4 246)">
<title>/home/travis/build/ComPWA/ComPWA/ThirdParty/tbb/examples/parallel_do/parallel_preorder/Matrix.h</title>
<polygon fill="white" stroke="none" points="-4,4 -4,-246 514,-246 514,4 -4,4"/>
<!-- Node1 -->
<g id="node1" class="node"><title>Node1</title>
<polygon fill="#bfbfbf" stroke="black" points="176,-189.5 176,-241.5 334,-241.5 334,-189.5 176,-189.5"/>
<text text-anchor="start" x="184" y="-229.5" font-family="Helvetica,sans-Serif" font-size="10.00">/home/travis/build</text>
<text text-anchor="start" x="184" y="-218.5" font-family="Helvetica,sans-Serif" font-size="10.00">/ComPWA/ComPWA/ThirdParty</text>
<text text-anchor="start" x="184" y="-207.5" font-family="Helvetica,sans-Serif" font-size="10.00">/tbb/examples/parallel_do</text>
<text text-anchor="middle" x="255" y="-196.5" font-family="Helvetica,sans-Serif" font-size="10.00">/parallel_preorder/Matrix.h</text>
</g>
<!-- Node2 -->
<g id="node2" class="node"><title>Node2</title>
<g id="a_node2"><a xlink:href="../../d7/d16/Graph_8h.html" target="_top" xlink:title="/home/travis/build\l/ComPWA/ComPWA/ThirdParty\l/tbb/examples/parallel_do\l/parallel_preorder/Graph.h">
<polygon fill="white" stroke="black" points="176,-100.5 176,-152.5 334,-152.5 334,-100.5 176,-100.5"/>
<text text-anchor="start" x="184" y="-140.5" font-family="Helvetica,sans-Serif" font-size="10.00">/home/travis/build</text>
<text text-anchor="start" x="184" y="-129.5" font-family="Helvetica,sans-Serif" font-size="10.00">/ComPWA/ComPWA/ThirdParty</text>
<text text-anchor="start" x="184" y="-118.5" font-family="Helvetica,sans-Serif" font-size="10.00">/tbb/examples/parallel_do</text>
<text text-anchor="middle" x="255" y="-107.5" font-family="Helvetica,sans-Serif" font-size="10.00">/parallel_preorder/Graph.h</text>
</a>
</g>
</g>
<!-- Node1&#45;&gt;Node2 -->
<g id="edge1" class="edge"><title>Node1&#45;&gt;Node2</title>
<path fill="none" stroke="midnightblue" d="M255,-179.191C255,-170.282 255,-160.899 255,-152.607"/>
<polygon fill="midnightblue" stroke="midnightblue" points="251.5,-179.336 255,-189.336 258.5,-179.336 251.5,-179.336"/>
</g>
<!-- Node3 -->
<g id="node3" class="node"><title>Node3</title>
<g id="a_node3"><a xlink:href="../../dd/dea/Graph_8cpp.html" target="_top" xlink:title="/home/travis/build\l/ComPWA/ComPWA/ThirdParty\l/tbb/examples/parallel_do\l/parallel_preorder/Graph.cpp">
<polygon fill="white" stroke="black" points="0,-6 0,-58 158,-58 158,-6 0,-6"/>
<text text-anchor="start" x="8" y="-46" font-family="Helvetica,sans-Serif" font-size="10.00">/home/travis/build</text>
<text text-anchor="start" x="8" y="-35" font-family="Helvetica,sans-Serif" font-size="10.00">/ComPWA/ComPWA/ThirdParty</text>
<text text-anchor="start" x="8" y="-24" font-family="Helvetica,sans-Serif" font-size="10.00">/tbb/examples/parallel_do</text>
<text text-anchor="middle" x="79" y="-13" font-family="Helvetica,sans-Serif" font-size="10.00">/parallel_preorder/Graph.cpp</text>
</a>
</g>
</g>
<!-- Node2&#45;&gt;Node3 -->
<g id="edge2" class="edge"><title>Node2&#45;&gt;Node3</title>
<path fill="none" stroke="midnightblue" d="M198.356,-95.7297C175.23,-83.5753 148.78,-69.6741 126.666,-58.0518"/>
<polygon fill="midnightblue" stroke="midnightblue" points="196.892,-98.914 207.372,-100.468 200.148,-92.7177 196.892,-98.914"/>
</g>
<!-- Node4 -->
<g id="node4" class="node"><title>Node4</title>
<g id="a_node4"><a xlink:href="../../d3/db4/parallel__do_2parallel__preorder_2main_8cpp.html" target="_top" xlink:title="/home/travis/build\l/ComPWA/ComPWA/ThirdParty\l/tbb/examples/parallel_do\l/parallel_preorder/main.cpp">
<polygon fill="white" stroke="black" points="176,-6 176,-58 334,-58 334,-6 176,-6"/>
<text text-anchor="start" x="184" y="-46" font-family="Helvetica,sans-Serif" font-size="10.00">/home/travis/build</text>
<text text-anchor="start" x="184" y="-35" font-family="Helvetica,sans-Serif" font-size="10.00">/ComPWA/ComPWA/ThirdParty</text>
<text text-anchor="start" x="184" y="-24" font-family="Helvetica,sans-Serif" font-size="10.00">/tbb/examples/parallel_do</text>
<text text-anchor="middle" x="255" y="-13" font-family="Helvetica,sans-Serif" font-size="10.00">/parallel_preorder/main.cpp</text>
</a>
</g>
</g>
<!-- Node2&#45;&gt;Node4 -->
<g id="edge3" class="edge"><title>Node2&#45;&gt;Node4</title>
<path fill="none" stroke="midnightblue" d="M255,-89.9934C255,-79.4095 255,-68.0311 255,-58.2455"/>
<polygon fill="midnightblue" stroke="midnightblue" points="251.5,-90.2239 255,-100.224 258.5,-90.224 251.5,-90.2239"/>
</g>
<!-- Node5 -->
<g id="node5" class="node"><title>Node5</title>
<g id="a_node5"><a xlink:href="../../db/d71/parallel__preorder_8cpp.html" target="_top" xlink:title="/home/travis/build\l/ComPWA/ComPWA/ThirdParty\l/tbb/examples/parallel_do\l/parallel_preorder/parallel\l_preorder.cpp">
<polygon fill="white" stroke="black" points="352,-0.5 352,-63.5 510,-63.5 510,-0.5 352,-0.5"/>
<text text-anchor="start" x="360" y="-51.5" font-family="Helvetica,sans-Serif" font-size="10.00">/home/travis/build</text>
<text text-anchor="start" x="360" y="-40.5" font-family="Helvetica,sans-Serif" font-size="10.00">/ComPWA/ComPWA/ThirdParty</text>
<text text-anchor="start" x="360" y="-29.5" font-family="Helvetica,sans-Serif" font-size="10.00">/tbb/examples/parallel_do</text>
<text text-anchor="start" x="360" y="-18.5" font-family="Helvetica,sans-Serif" font-size="10.00">/parallel_preorder/parallel</text>
<text text-anchor="middle" x="431" y="-7.5" font-family="Helvetica,sans-Serif" font-size="10.00">_preorder.cpp</text>
</a>
</g>
</g>
<!-- Node2&#45;&gt;Node5 -->
<g id="edge4" class="edge"><title>Node2&#45;&gt;Node5</title>
<path fill="none" stroke="midnightblue" d="M311.694,-95.7035C331.187,-85.4586 353.036,-73.9752 372.658,-63.6626"/>
<polygon fill="midnightblue" stroke="midnightblue" points="309.852,-92.7177 302.628,-100.468 313.108,-98.914 309.852,-92.7177"/>
</g>
</g>
</svg>
