<?xml version="1.0" encoding="UTF-8" standalone="no"?>
<!DOCTYPE svg PUBLIC "-//W3C//DTD SVG 1.1//EN"
 "http://www.w3.org/Graphics/SVG/1.1/DTD/svg11.dtd">
<!-- Generated by graphviz version 2.38.0 (20140413.2041)
 -->
<!-- Title: /home/travis/build/ComPWA/ComPWA/ThirdParty/tbb/include/tbb/parallel_for.h Pages: 1 -->
<svg width="575pt" height="464pt"
 viewBox="0.00 0.00 574.50 464.00" xmlns="http://www.w3.org/2000/svg" xmlns:xlink="http://www.w3.org/1999/xlink">
<g id="graph0" class="graph" transform="scale(1 1) rotate(0) translate(4 460)">
<title>/home/travis/build/ComPWA/ComPWA/ThirdParty/tbb/include/tbb/parallel_for.h</title>
<polygon fill="white" stroke="none" points="-4,4 -4,-460 570.5,-460 570.5,4 -4,4"/>
<!-- Node1 -->
<g id="node1" class="node"><title>Node1</title>
<polygon fill="#bfbfbf" stroke="black" points="249.5,-414.5 249.5,-455.5 407.5,-455.5 407.5,-414.5 249.5,-414.5"/>
<text text-anchor="start" x="257.5" y="-443.5" font-family="Helvetica,sans-Serif" font-size="10.00">/home/travis/build</text>
<text text-anchor="start" x="257.5" y="-432.5" font-family="Helvetica,sans-Serif" font-size="10.00">/ComPWA/ComPWA/ThirdParty</text>
<text text-anchor="middle" x="328.5" y="-421.5" font-family="Helvetica,sans-Serif" font-size="10.00">/tbb/include/tbb/parallel_for.h</text>
</g>
<!-- Node2 -->
<g id="node2" class="node"><title>Node2</title>
<polygon fill="white" stroke="#bfbfbf" points="0,-168.5 0,-187.5 35,-187.5 35,-168.5 0,-168.5"/>
<text text-anchor="middle" x="17.5" y="-175.5" font-family="Helvetica,sans-Serif" font-size="10.00">new</text>
</g>
<!-- Node1&#45;&gt;Node2 -->
<g id="edge1" class="edge"><title>Node1&#45;&gt;Node2</title>
<path fill="none" stroke="midnightblue" d="M250.869,-414.453C175.813,-390.812 66.9737,-342.791 21.5,-255 12.3066,-237.251 12.5819,-213.939 14.3454,-197.837"/>
<polygon fill="midnightblue" stroke="midnightblue" points="17.8625,-197.957 15.7785,-187.569 10.9297,-196.99 17.8625,-197.957"/>
</g>
<!-- Node3 -->
<g id="node3" class="node"><title>Node3</title>
<g id="a_node3"><a xlink:href="../../db/da4/task_8h.html" target="_top" xlink:title="task.h">
<polygon fill="white" stroke="black" points="340.5,-230 340.5,-249 386.5,-249 386.5,-230 340.5,-230"/>
<text text-anchor="middle" x="363.5" y="-237" font-family="Helvetica,sans-Serif" font-size="10.00">task.h</text>
</a>
</g>
</g>
<!-- Node1&#45;&gt;Node3 -->
<g id="edge2" class="edge"><title>Node1&#45;&gt;Node3</title>
<path fill="none" stroke="midnightblue" d="M332.471,-414.323C334.609,-403.596 337.26,-390.08 339.5,-378 347.353,-335.66 355.868,-285.847 360.342,-259.337"/>
<polygon fill="midnightblue" stroke="midnightblue" points="363.84,-259.641 362.047,-249.199 356.937,-258.479 363.84,-259.641"/>
</g>
<!-- Node9 -->
<g id="node9" class="node"><title>Node9</title>
<g id="a_node9"><a xlink:href="../../df/dcf/partitioner_8h.html" target="_top" xlink:title="partitioner.h">
<polygon fill="white" stroke="black" points="256.5,-358.5 256.5,-377.5 330.5,-377.5 330.5,-358.5 256.5,-358.5"/>
<text text-anchor="middle" x="293.5" y="-365.5" font-family="Helvetica,sans-Serif" font-size="10.00">partitioner.h</text>
</a>
</g>
</g>
<!-- Node1&#45;&gt;Node9 -->
<g id="edge10" class="edge"><title>Node1&#45;&gt;Node9</title>
<path fill="none" stroke="midnightblue" d="M317.999,-414.498C313.2,-405.586 307.561,-395.113 302.903,-386.464"/>
<polygon fill="midnightblue" stroke="midnightblue" points="305.982,-384.798 298.159,-377.652 299.818,-388.117 305.982,-384.798"/>
</g>
<!-- Node11 -->
<g id="node11" class="node"><title>Node11</title>
<g id="a_node11"><a xlink:href="../../d8/dfc/tbb__exception_8h.html" target="_top" xlink:title="tbb_exception.h">
<polygon fill="white" stroke="red" points="31,-230 31,-249 124,-249 124,-230 31,-230"/>
<text text-anchor="middle" x="77.5" y="-237" font-family="Helvetica,sans-Serif" font-size="10.00">tbb_exception.h</text>
</a>
</g>
</g>
<!-- Node1&#45;&gt;Node11 -->
<g id="edge26" class="edge"><title>Node1&#45;&gt;Node11</title>
<path fill="none" stroke="midnightblue" d="M284.542,-414.326C243.815,-394.726 182.993,-361.855 138.5,-322 117.285,-302.996 98.6063,-275.621 87.6783,-257.946"/>
<polygon fill="midnightblue" stroke="midnightblue" points="90.5933,-256.001 82.4377,-249.238 84.5958,-259.611 90.5933,-256.001"/>
</g>
<!-- Node14 -->
<g id="node14" class="node"><title>Node14</title>
<g id="a_node14"><a xlink:href="../../da/d6f/blocked__range_8h.html" target="_top" xlink:title="blocked_range.h">
<polygon fill="white" stroke="black" points="440,-56.5 440,-75.5 535,-75.5 535,-56.5 440,-56.5"/>
<text text-anchor="middle" x="487.5" y="-63.5" font-family="Helvetica,sans-Serif" font-size="10.00">blocked_range.h</text>
</a>
</g>
</g>
<!-- Node1&#45;&gt;Node14 -->
<g id="edge24" class="edge"><title>Node1&#45;&gt;Node14</title>
<path fill="none" stroke="midnightblue" d="M407.751,-424.838C476.985,-411.899 566.5,-380.966 566.5,-307.5 566.5,-307.5 566.5,-307.5 566.5,-177 566.5,-136.795 531.252,-101.221 507.844,-82.0304"/>
<polygon fill="midnightblue" stroke="midnightblue" points="509.864,-79.1655 499.844,-75.7232 505.53,-84.6628 509.864,-79.1655"/>
</g>
<!-- Node15 -->
<g id="node15" class="node"><title>Node15</title>
<g id="a_node15"><a xlink:href="../../dc/d67/__tbb__trace__impl_8h.html" target="_top" xlink:title="internal/_tbb_trace\l_impl.h">
<polygon fill="white" stroke="black" points="431,-291.5 431,-321.5 538,-321.5 538,-291.5 431,-291.5"/>
<text text-anchor="start" x="439" y="-309.5" font-family="Helvetica,sans-Serif" font-size="10.00">internal/_tbb_trace</text>
<text text-anchor="middle" x="484.5" y="-298.5" font-family="Helvetica,sans-Serif" font-size="10.00">_impl.h</text>
</a>
</g>
</g>
<!-- Node1&#45;&gt;Node15 -->
<g id="edge27" class="edge"><title>Node1&#45;&gt;Node15</title>
<path fill="none" stroke="midnightblue" d="M352.875,-414.234C381.733,-390.834 429.572,-352.041 458.938,-328.228"/>
<polygon fill="midnightblue" stroke="midnightblue" points="461.496,-330.66 467.059,-321.643 457.087,-325.223 461.496,-330.66"/>
</g>
<!-- Node4 -->
<g id="node4" class="node"><title>Node4</title>
<g id="a_node4"><a xlink:href="../../d2/d98/tbb__stddef_8h.html" target="_top" xlink:title="tbb_stddef.h">
<polygon fill="white" stroke="red" points="190.5,-0.5 190.5,-19.5 266.5,-19.5 266.5,-0.5 190.5,-0.5"/>
<text text-anchor="middle" x="228.5" y="-7.5" font-family="Helvetica,sans-Serif" font-size="10.00">tbb_stddef.h</text>
</a>
</g>
</g>
<!-- Node3&#45;&gt;Node4 -->
<g id="edge3" class="edge"><title>Node3&#45;&gt;Node4</title>
<path fill="none" stroke="midnightblue" d="M361.099,-229.789C353.201,-202.208 325.955,-115.142 281.5,-56 272.774,-44.3913 260.544,-33.7548 250.03,-25.7408"/>
<polygon fill="midnightblue" stroke="midnightblue" points="251.855,-22.7395 241.717,-19.662 247.724,-28.39 251.855,-22.7395"/>
</g>
<!-- Node5 -->
<g id="node5" class="node"><title>Node5</title>
<g id="a_node5"><a xlink:href="../../d1/d09/tbb__machine_8h.html" target="_top" xlink:title="tbb_machine.h">
<polygon fill="white" stroke="black" points="184.5,-56.5 184.5,-75.5 272.5,-75.5 272.5,-56.5 184.5,-56.5"/>
<text text-anchor="middle" x="228.5" y="-63.5" font-family="Helvetica,sans-Serif" font-size="10.00">tbb_machine.h</text>
</a>
</g>
</g>
<!-- Node3&#45;&gt;Node5 -->
<g id="edge4" class="edge"><title>Node3&#45;&gt;Node5</title>
<path fill="none" stroke="midnightblue" d="M344.577,-229.848C340.285,-227.907 335.742,-225.87 331.5,-224 294.333,-207.617 272.43,-220.067 247.5,-188 224.307,-158.167 224.158,-111.448 226.236,-85.6605"/>
<polygon fill="midnightblue" stroke="midnightblue" points="229.719,-86.0103 227.238,-75.71 222.754,-85.3092 229.719,-86.0103"/>
</g>
<!-- Node6 -->
<g id="node6" class="node"><title>Node6</title>
<g id="a_node6"><a xlink:href="../../d0/dc3/tbb__profiling_8h.html" target="_top" xlink:title="tbb_profiling.h">
<polygon fill="white" stroke="red" points="360.5,-168.5 360.5,-187.5 444.5,-187.5 444.5,-168.5 360.5,-168.5"/>
<text text-anchor="middle" x="402.5" y="-175.5" font-family="Helvetica,sans-Serif" font-size="10.00">tbb_profiling.h</text>
</a>
</g>
</g>
<!-- Node3&#45;&gt;Node6 -->
<g id="edge6" class="edge"><title>Node3&#45;&gt;Node6</title>
<path fill="none" stroke="midnightblue" d="M369.088,-229.975C374.88,-221.138 384.089,-207.089 391.374,-195.975"/>
<polygon fill="midnightblue" stroke="midnightblue" points="394.368,-197.791 396.923,-187.509 388.513,-193.954 394.368,-197.791"/>
</g>
<!-- Node8 -->
<g id="node8" class="node"><title>Node8</title>
<polygon fill="white" stroke="#bfbfbf" points="257,-168.5 257,-187.5 304,-187.5 304,-168.5 257,-168.5"/>
<text text-anchor="middle" x="280.5" y="-175.5" font-family="Helvetica,sans-Serif" font-size="10.00">climits</text>
</g>
<!-- Node3&#45;&gt;Node8 -->
<g id="edge9" class="edge"><title>Node3&#45;&gt;Node8</title>
<path fill="none" stroke="midnightblue" d="M351.608,-229.975C338.295,-220.431 316.5,-204.807 300.543,-193.368"/>
<polygon fill="midnightblue" stroke="midnightblue" points="302.536,-190.491 292.37,-187.509 298.458,-196.18 302.536,-190.491"/>
</g>
<!-- Node5&#45;&gt;Node4 -->
<g id="edge5" class="edge"><title>Node5&#45;&gt;Node4</title>
<path fill="none" stroke="midnightblue" d="M228.5,-56.083C228.5,-49.0059 228.5,-38.8611 228.5,-29.9865"/>
<polygon fill="midnightblue" stroke="midnightblue" points="232,-29.751 228.5,-19.7511 225,-29.7511 232,-29.751"/>
</g>
<!-- Node7 -->
<g id="node7" class="node"><title>Node7</title>
<g id="a_node7"><a xlink:href="../../dd/d02/atomic_8h.html" target="_top" xlink:title="atomic.h">
<polygon fill="white" stroke="red" points="373,-112.5 373,-131.5 432,-131.5 432,-112.5 373,-112.5"/>
<text text-anchor="middle" x="402.5" y="-119.5" font-family="Helvetica,sans-Serif" font-size="10.00">atomic.h</text>
</a>
</g>
</g>
<!-- Node6&#45;&gt;Node7 -->
<g id="edge7" class="edge"><title>Node6&#45;&gt;Node7</title>
<path fill="none" stroke="midnightblue" d="M402.5,-168.083C402.5,-161.006 402.5,-150.861 402.5,-141.986"/>
<polygon fill="midnightblue" stroke="midnightblue" points="406,-141.751 402.5,-131.751 399,-141.751 406,-141.751"/>
</g>
<!-- Node7&#45;&gt;Node5 -->
<g id="edge8" class="edge"><title>Node7&#45;&gt;Node5</title>
<path fill="none" stroke="midnightblue" d="M374.929,-112.444C345.403,-103.28 298.382,-88.6876 265.617,-78.5192"/>
<polygon fill="midnightblue" stroke="midnightblue" points="266.53,-75.1378 255.942,-75.5164 264.455,-81.8232 266.53,-75.1378"/>
</g>
<!-- Node9&#45;&gt;Node3 -->
<g id="edge11" class="edge"><title>Node9&#45;&gt;Node3</title>
<path fill="none" stroke="midnightblue" d="M298.311,-358.305C309.701,-337.723 338.494,-285.689 353.718,-258.178"/>
<polygon fill="midnightblue" stroke="midnightblue" points="356.876,-259.7 358.655,-249.256 350.751,-256.311 356.876,-259.7"/>
</g>
<!-- Node9&#45;&gt;Node7 -->
<g id="edge22" class="edge"><title>Node9&#45;&gt;Node7</title>
<path fill="none" stroke="midnightblue" d="M306.074,-358.419C338.455,-335.435 424.211,-268.714 453.5,-188 456.532,-179.644 457.156,-176.102 453.5,-168 447.884,-155.555 436.937,-145.172 426.621,-137.527"/>
<polygon fill="midnightblue" stroke="midnightblue" points="428.458,-134.543 418.234,-131.764 424.494,-140.312 428.458,-134.543"/>
</g>
<!-- Node10 -->
<g id="node10" class="node"><title>Node10</title>
<g id="a_node10"><a xlink:href="../../dd/df0/task__arena_8h.html" target="_top" xlink:title="task_arena.h">
<polygon fill="white" stroke="black" points="181,-297 181,-316 260,-316 260,-297 181,-297"/>
<text text-anchor="middle" x="220.5" y="-304" font-family="Helvetica,sans-Serif" font-size="10.00">task_arena.h</text>
</a>
</g>
</g>
<!-- Node9&#45;&gt;Node10 -->
<g id="edge12" class="edge"><title>Node9&#45;&gt;Node10</title>
<path fill="none" stroke="midnightblue" d="M283.041,-358.475C271.549,-349.108 252.87,-333.884 238.913,-322.508"/>
<polygon fill="midnightblue" stroke="midnightblue" points="240.902,-319.614 230.94,-316.009 236.48,-325.04 240.902,-319.614"/>
</g>
<!-- Node12 -->
<g id="node12" class="node"><title>Node12</title>
<g id="a_node12"><a xlink:href="../../d5/df2/__template__helpers_8h.html" target="_top" xlink:title="internal/_template\l_helpers.h">
<polygon fill="white" stroke="red" points="218.5,-224.5 218.5,-254.5 322.5,-254.5 322.5,-224.5 218.5,-224.5"/>
<text text-anchor="start" x="226.5" y="-242.5" font-family="Helvetica,sans-Serif" font-size="10.00">internal/_template</text>
<text text-anchor="middle" x="270.5" y="-231.5" font-family="Helvetica,sans-Serif" font-size="10.00">_helpers.h</text>
</a>
</g>
</g>
<!-- Node9&#45;&gt;Node12 -->
<g id="edge23" class="edge"><title>Node9&#45;&gt;Node12</title>
<path fill="none" stroke="midnightblue" d="M291.919,-358.305C288.463,-339.298 280.131,-293.47 274.936,-264.9"/>
<polygon fill="midnightblue" stroke="midnightblue" points="278.348,-264.101 273.116,-254.888 271.461,-265.353 278.348,-264.101"/>
</g>
<!-- Node13 -->
<g id="node13" class="node"><title>Node13</title>
<g id="a_node13"><a xlink:href="../../dd/d69/aligned__space_8h.html" target="_top" xlink:title="aligned_space.h">
<polygon fill="white" stroke="black" points="106.5,-112.5 106.5,-131.5 200.5,-131.5 200.5,-112.5 106.5,-112.5"/>
<text text-anchor="middle" x="153.5" y="-119.5" font-family="Helvetica,sans-Serif" font-size="10.00">aligned_space.h</text>
</a>
</g>
</g>
<!-- Node9&#45;&gt;Node13 -->
<g id="edge21" class="edge"><title>Node9&#45;&gt;Node13</title>
<path fill="none" stroke="midnightblue" d="M256.386,-363.706C228.409,-359.12 191.547,-348.163 171.5,-322 130.199,-268.099 141.535,-180.276 149.159,-141.923"/>
<polygon fill="midnightblue" stroke="midnightblue" points="152.676,-142.211 151.343,-131.701 145.831,-140.749 152.676,-142.211"/>
</g>
<!-- Node10&#45;&gt;Node3 -->
<g id="edge13" class="edge"><title>Node10&#45;&gt;Node3</title>
<path fill="none" stroke="midnightblue" d="M239.489,-296.869C263.955,-285.748 306.703,-266.317 335.057,-253.429"/>
<polygon fill="midnightblue" stroke="midnightblue" points="336.777,-256.492 344.432,-249.167 333.88,-250.119 336.777,-256.492"/>
</g>
<!-- Node10&#45;&gt;Node11 -->
<g id="edge14" class="edge"><title>Node10&#45;&gt;Node11</title>
<path fill="none" stroke="midnightblue" d="M201.511,-296.869C177.045,-285.748 134.297,-266.317 105.943,-253.429"/>
<polygon fill="midnightblue" stroke="midnightblue" points="107.12,-250.119 96.5678,-249.167 104.223,-256.492 107.12,-250.119"/>
</g>
<!-- Node10&#45;&gt;Node12 -->
<g id="edge17" class="edge"><title>Node10&#45;&gt;Node12</title>
<path fill="none" stroke="midnightblue" d="M227.243,-296.734C233.936,-288.034 244.466,-274.345 253.461,-262.651"/>
<polygon fill="midnightblue" stroke="midnightblue" points="256.339,-264.649 259.662,-254.589 250.791,-260.381 256.339,-264.649"/>
</g>
<!-- Node10&#45;&gt;Node13 -->
<g id="edge18" class="edge"><title>Node10&#45;&gt;Node13</title>
<path fill="none" stroke="midnightblue" d="M217.268,-296.698C206.899,-268.452 174.316,-179.7 160.167,-141.161"/>
<polygon fill="midnightblue" stroke="midnightblue" points="163.431,-139.895 156.699,-131.714 156.86,-142.308 163.431,-139.895"/>
</g>
<!-- Node11&#45;&gt;Node2 -->
<g id="edge16" class="edge"><title>Node11&#45;&gt;Node2</title>
<path fill="none" stroke="midnightblue" d="M68.9035,-229.975C59.6361,-220.785 44.6828,-205.956 33.2876,-194.656"/>
<polygon fill="midnightblue" stroke="midnightblue" points="35.6457,-192.065 26.0806,-187.509 30.7167,-197.036 35.6457,-192.065"/>
</g>
<!-- Node11&#45;&gt;Node4 -->
<g id="edge15" class="edge"><title>Node11&#45;&gt;Node4</title>
<path fill="none" stroke="midnightblue" d="M76.9271,-229.878C75.8946,-208.461 75.5796,-151.71 97.5,-112 120.517,-70.3042 168.69,-40.244 199.766,-24.2427"/>
<polygon fill="midnightblue" stroke="midnightblue" points="201.427,-27.3254 208.814,-19.7308 198.303,-21.061 201.427,-27.3254"/>
</g>
<!-- Node13&#45;&gt;Node4 -->
<g id="edge19" class="edge"><title>Node13&#45;&gt;Node4</title>
<path fill="none" stroke="midnightblue" d="M154.898,-112.343C157.338,-99.2229 163.318,-73.937 175.5,-56 183.553,-44.1423 195.539,-33.6026 206.077,-25.7096"/>
<polygon fill="midnightblue" stroke="midnightblue" points="208.355,-28.3838 214.47,-19.7312 204.294,-22.6825 208.355,-28.3838"/>
</g>
<!-- Node13&#45;&gt;Node5 -->
<g id="edge20" class="edge"><title>Node13&#45;&gt;Node5</title>
<path fill="none" stroke="midnightblue" d="M165.55,-112.324C176.963,-104.107 194.331,-91.6017 207.935,-81.8069"/>
<polygon fill="midnightblue" stroke="midnightblue" points="210.16,-84.5174 216.231,-75.8339 206.07,-78.8366 210.16,-84.5174"/>
</g>
<!-- Node14&#45;&gt;Node4 -->
<g id="edge25" class="edge"><title>Node14&#45;&gt;Node4</title>
<path fill="none" stroke="midnightblue" d="M446.461,-56.4435C400.385,-46.837 325.691,-31.2637 276.829,-21.0763"/>
<polygon fill="midnightblue" stroke="midnightblue" points="277.318,-17.6031 266.814,-18.9883 275.889,-24.4558 277.318,-17.6031"/>
</g>
<!-- Node15&#45;&gt;Node6 -->
<g id="edge28" class="edge"><title>Node15&#45;&gt;Node6</title>
<path fill="none" stroke="midnightblue" d="M475.411,-291.479C460.325,-268.206 430.155,-221.663 413.75,-196.355"/>
<polygon fill="midnightblue" stroke="midnightblue" points="416.573,-194.276 408.197,-187.789 410.699,-198.084 416.573,-194.276"/>
</g>
</g>
</svg>
