<?xml version="1.0" encoding="UTF-8" standalone="no"?>
<!DOCTYPE svg PUBLIC "-//W3C//DTD SVG 1.1//EN"
 "http://www.w3.org/Graphics/SVG/1.1/DTD/svg11.dtd">
<!-- Generated by graphviz version 2.38.0 (20140413.2041)
 -->
<!-- Title: Harness::ExactConcurrencyLevel Pages: 1 -->
<!--zoomable 496 -->
<svg id="main" version="1.1" xmlns="http://www.w3.org/2000/svg" xmlns:xlink="http://www.w3.org/1999/xlink" xml:space="preserve" onload="init(evt)">
<style type="text/css"><![CDATA[
.edge:hover path { stroke: red; }
.edge:hover polygon { stroke: red; fill: red; }
]]></style>
<script type="text/javascript"><![CDATA[
var edges = document.getElementsByTagName('g');
if (edges && edges.length) {
  for (var i=0;i<edges.length;i++) {
    if (edges[i].id.substr(0,4)=='edge') {
      edges[i].setAttribute('class','edge');
    }
  }
}
]]></script>
        <defs>
                <circle id="rim" cx="0" cy="0" r="7"/>
                <circle id="rim2" cx="0" cy="0" r="3.5"/>
                <g id="zoomPlus">
                        <use xlink:href="#rim" fill="#404040">
                                <set attributeName="fill" to="#808080" begin="zoomplus.mouseover" end="zoomplus.mouseout"/>
                        </use>
                        <path d="M-4,0h8M0,-4v8" fill="none" stroke="white" stroke-width="1.5" pointer-events="none"/>
                </g>
                <g id="zoomMin">
                        <use xlink:href="#rim" fill="#404040">
                                <set attributeName="fill" to="#808080" begin="zoomminus.mouseover" end="zoomminus.mouseout"/>
                        </use>
                        <path d="M-4,0h8" fill="none" stroke="white" stroke-width="1.5" pointer-events="none"/>
                </g>
                <g id="dirArrow">
                        <path fill="none" stroke="white" stroke-width="1.5" d="M0,-3.0v7 M-2.5,-0.5L0,-3.0L2.5,-0.5"/>
                </g>
               <g id="resetDef">
                       <use xlink:href="#rim2" fill="#404040">
                               <set attributeName="fill" to="#808080" begin="reset.mouseover" end="reset.mouseout"/>
                       </use>
               </g>
        </defs>

<script type="text/javascript">
var viewWidth = 717;
var viewHeight = 496;
var sectionId = 'dynsection-1';
</script>
<script xlink:href="../../svgpan.js"/>
<svg id="graph" class="graph">
<g id="viewport">
<title>Harness::ExactConcurrencyLevel</title>
<polygon fill="white" stroke="none" points="-4,4 -4,-492 713,-492 713,4 -4,4"/>
<!-- Node1 -->
<g id="node1" class="node"><title>Node1</title>
<polygon fill="#bfbfbf" stroke="black" points="297.5,-0.5 297.5,-145.5 446.5,-145.5 446.5,-0.5 297.5,-0.5"/>
<text text-anchor="start" x="305.5" y="-133.5" font-family="Helvetica,sans-Serif" font-size="10.00">Harness::ExactConcurrency</text>
<text text-anchor="middle" x="372" y="-122.5" font-family="Helvetica,sans-Serif" font-size="10.00">Level</text>
<polyline fill="none" stroke="black" points="297.5,-115.5 446.5,-115.5 "/>
<text text-anchor="start" x="305.5" y="-103.5" font-family="Helvetica,sans-Serif" font-size="10.00">&#45; myReachedMax</text>
<text text-anchor="start" x="305.5" y="-92.5" font-family="Helvetica,sans-Serif" font-size="10.00">&#45; myTimeout</text>
<text text-anchor="start" x="305.5" y="-81.5" font-family="Helvetica,sans-Serif" font-size="10.00">&#45; myCrashOnFail</text>
<polyline fill="none" stroke="black" points="297.5,-74.5 446.5,-74.5 "/>
<text text-anchor="start" x="305.5" y="-62.5" font-family="Helvetica,sans-Serif" font-size="10.00">+ operator()()</text>
<text text-anchor="start" x="305.5" y="-51.5" font-family="Helvetica,sans-Serif" font-size="10.00">+ check()</text>
<text text-anchor="start" x="305.5" y="-40.5" font-family="Helvetica,sans-Serif" font-size="10.00">+ isEqual()</text>
<text text-anchor="start" x="305.5" y="-29.5" font-family="Helvetica,sans-Serif" font-size="10.00">+ checkLessOrEqual()</text>
<text text-anchor="start" x="305.5" y="-18.5" font-family="Helvetica,sans-Serif" font-size="10.00">&#45; ExactConcurrencyLevel()</text>
<text text-anchor="start" x="305.5" y="-7.5" font-family="Helvetica,sans-Serif" font-size="10.00">&#45; run()</text>
</g>
<!-- Node2 -->
<g id="node2" class="node"><title>Node2</title>
<g id="a_node2"><a xlink:href="../../d3/d51/classNoCopy.html" target="_top" xlink:title="Base class for prohibiting compiler&#45;generated copy constructor or operator=. ">
<polygon fill="white" stroke="black" points="3.5,-243 3.5,-311 76.5,-311 76.5,-243 3.5,-243"/>
<text text-anchor="middle" x="40" y="-299" font-family="Helvetica,sans-Serif" font-size="10.00">NoCopy</text>
<polyline fill="none" stroke="black" points="3.5,-292 76.5,-292 "/>
<text text-anchor="middle" x="40" y="-280" font-family="Helvetica,sans-Serif" font-size="10.00"> </text>
<polyline fill="none" stroke="black" points="3.5,-273 76.5,-273 "/>
<text text-anchor="start" x="11.5" y="-261" font-family="Helvetica,sans-Serif" font-size="10.00">+ NoCopy()</text>
<text text-anchor="start" x="11.5" y="-250" font-family="Helvetica,sans-Serif" font-size="10.00">&#45; NoCopy()</text>
</a>
</g>
</g>
<!-- Node2&#45;&gt;Node1 -->
<g id="edge1" class="edge"><title>Node2&#45;&gt;Node1</title>
<path fill="none" stroke="midnightblue" d="M58.3506,-233.394C66.145,-219.102 76.3853,-204.014 89,-193 149.123,-140.505 235.743,-108.706 297.288,-91.3525"/>
<polygon fill="none" stroke="midnightblue" points="55.064,-232.13 53.5813,-242.621 61.2824,-235.344 55.064,-232.13"/>
</g>
<!-- Node3 -->
<g id="node3" class="node"><title>Node3</title>
<g id="a_node3"><a xlink:href="../../d8/dab/classNoAssign.html" target="_top" xlink:title="Base class for prohibiting compiler&#45;generated operator=. ">
<polygon fill="white" stroke="black" points="0,-419.5 0,-487.5 80,-487.5 80,-419.5 0,-419.5"/>
<text text-anchor="middle" x="40" y="-475.5" font-family="Helvetica,sans-Serif" font-size="10.00">NoAssign</text>
<polyline fill="none" stroke="black" points="0,-468.5 80,-468.5 "/>
<text text-anchor="middle" x="40" y="-456.5" font-family="Helvetica,sans-Serif" font-size="10.00"> </text>
<polyline fill="none" stroke="black" points="0,-449.5 80,-449.5 "/>
<text text-anchor="start" x="8" y="-437.5" font-family="Helvetica,sans-Serif" font-size="10.00">+ NoAssign()</text>
<text text-anchor="start" x="8" y="-426.5" font-family="Helvetica,sans-Serif" font-size="10.00">&#45; operator=()</text>
</a>
</g>
</g>
<!-- Node3&#45;&gt;Node2 -->
<g id="edge2" class="edge"><title>Node3&#45;&gt;Node2</title>
<path fill="none" stroke="#8b1a1a" d="M40,-408.976C40,-378.661 40,-338.849 40,-311.109"/>
<polygon fill="none" stroke="#8b1a1a" points="36.5001,-409.267 40,-419.267 43.5001,-409.267 36.5001,-409.267"/>
</g>
<!-- Node4 -->
<g id="node4" class="node"><title>Node4</title>
<g id="a_node4"><a xlink:href="../../d4/d32/structtbb_1_1atomic.html" target="_top" xlink:title="{tbb::atomic\&lt; size_t \&gt;\n||+ operator=()\l+ operator=()\l}">
<polygon fill="white" stroke="black" points="98,-243 98,-311 220,-311 220,-243 98,-243"/>
<text text-anchor="middle" x="159" y="-299" font-family="Helvetica,sans-Serif" font-size="10.00">tbb::atomic&lt; size_t &gt;</text>
<polyline fill="none" stroke="black" points="98,-292 220,-292 "/>
<text text-anchor="middle" x="159" y="-280" font-family="Helvetica,sans-Serif" font-size="10.00"> </text>
<polyline fill="none" stroke="black" points="98,-273 220,-273 "/>
<text text-anchor="start" x="106" y="-261" font-family="Helvetica,sans-Serif" font-size="10.00">+ operator=()</text>
<text text-anchor="start" x="106" y="-250" font-family="Helvetica,sans-Serif" font-size="10.00">+ operator=()</text>
</a>
</g>
</g>
<!-- Node4&#45;&gt;Node1 -->
<g id="edge3" class="edge"><title>Node4&#45;&gt;Node1</title>
<path fill="none" stroke="#404040" d="M177.823,-242.95C192.325,-219.27 213.921,-187.534 238,-164 252.743,-149.591 270.078,-136.031 287.297,-124.022"/>
<polygon fill="none" stroke="#404040" points="287.486,-123.894 290.191,-117.21 297.402,-117.136 294.696,-123.821 287.486,-123.894"/>
<text text-anchor="middle" x="284" y="-167" font-family="Helvetica,sans-Serif" font-size="10.00"> &#45;myActiveBodyCnt</text>
</g>
<!-- Node5 -->
<g id="node5" class="node"><title>Node5</title>
<polygon fill="white" stroke="#bfbfbf" points="98.5,-419.5 98.5,-487.5 215.5,-487.5 215.5,-419.5 98.5,-419.5"/>
<text text-anchor="start" x="106.5" y="-475.5" font-family="Helvetica,sans-Serif" font-size="10.00">internal::atomic_impl</text>
<text text-anchor="middle" x="157" y="-464.5" font-family="Helvetica,sans-Serif" font-size="10.00">&lt; size_t &gt;</text>
<polyline fill="none" stroke="#bfbfbf" points="98.5,-457.5 215.5,-457.5 "/>
<text text-anchor="middle" x="157" y="-445.5" font-family="Helvetica,sans-Serif" font-size="10.00"> </text>
<polyline fill="none" stroke="#bfbfbf" points="98.5,-438.5 215.5,-438.5 "/>
<text text-anchor="middle" x="157" y="-426.5" font-family="Helvetica,sans-Serif" font-size="10.00"> </text>
</g>
<!-- Node5&#45;&gt;Node4 -->
<g id="edge4" class="edge"><title>Node5&#45;&gt;Node4</title>
<path fill="none" stroke="midnightblue" d="M157.499,-408.976C157.846,-378.661 158.303,-338.849 158.621,-311.109"/>
<polygon fill="none" stroke="midnightblue" points="153.996,-409.228 157.381,-419.267 160.995,-409.308 153.996,-409.228"/>
</g>
<!-- Node6 -->
<g id="node6" class="node"><title>Node6</title>
<g id="a_node6"><a xlink:href="../../d6/dca/classtbb_1_1mutex.html" target="_top" xlink:title="Wrapper around the platform&#39;s native lock. ">
<polygon fill="white" stroke="black" points="241,-193.5 241,-360.5 361,-360.5 361,-193.5 241,-193.5"/>
<text text-anchor="middle" x="301" y="-348.5" font-family="Helvetica,sans-Serif" font-size="10.00">tbb::mutex</text>
<polyline fill="none" stroke="black" points="241,-341.5 361,-341.5 "/>
<text text-anchor="start" x="249" y="-329.5" font-family="Helvetica,sans-Serif" font-size="10.00">+ is_rw_mutex</text>
<text text-anchor="start" x="249" y="-318.5" font-family="Helvetica,sans-Serif" font-size="10.00">+ is_recursive_mutex</text>
<text text-anchor="start" x="249" y="-307.5" font-family="Helvetica,sans-Serif" font-size="10.00">+ is_fair_mutex</text>
<text text-anchor="start" x="249" y="-296.5" font-family="Helvetica,sans-Serif" font-size="10.00">&#45; impl</text>
<polyline fill="none" stroke="black" points="241,-289.5 361,-289.5 "/>
<text text-anchor="start" x="249" y="-277.5" font-family="Helvetica,sans-Serif" font-size="10.00">+ mutex()</text>
<text text-anchor="start" x="249" y="-266.5" font-family="Helvetica,sans-Serif" font-size="10.00">+ ~mutex()</text>
<text text-anchor="start" x="249" y="-255.5" font-family="Helvetica,sans-Serif" font-size="10.00">+ lock()</text>
<text text-anchor="start" x="249" y="-244.5" font-family="Helvetica,sans-Serif" font-size="10.00">+ try_lock()</text>
<text text-anchor="start" x="249" y="-233.5" font-family="Helvetica,sans-Serif" font-size="10.00">+ unlock()</text>
<text text-anchor="start" x="249" y="-222.5" font-family="Helvetica,sans-Serif" font-size="10.00">+ native_handle()</text>
<text text-anchor="start" x="249" y="-211.5" font-family="Helvetica,sans-Serif" font-size="10.00">&#45; internal_construct()</text>
<text text-anchor="start" x="249" y="-200.5" font-family="Helvetica,sans-Serif" font-size="10.00">&#45; internal_destroy()</text>
</a>
</g>
</g>
<!-- Node6&#45;&gt;Node1 -->
<g id="edge5" class="edge"><title>Node6&#45;&gt;Node1</title>
<path fill="none" stroke="#404040" d="M326.984,-193.239C330.269,-183.356 333.654,-173.432 337,-164 337.832,-161.655 338.685,-159.279 339.555,-156.884"/>
<polygon fill="none" stroke="#404040" points="339.571,-156.839 337.892,-149.826 343.719,-145.578 345.398,-152.591 339.571,-156.839"/>
<text text-anchor="middle" x="373" y="-167" font-family="Helvetica,sans-Serif" font-size="10.00"> &#45;global_mutex</text>
</g>
<!-- Node7 -->
<g id="node7" class="node"><title>Node7</title>
<polygon fill="white" stroke="#bfbfbf" points="233.5,-419.5 233.5,-487.5 378.5,-487.5 378.5,-419.5 233.5,-419.5"/>
<text text-anchor="start" x="241.5" y="-475.5" font-family="Helvetica,sans-Serif" font-size="10.00">internal::mutex_copy</text>
<text text-anchor="middle" x="306" y="-464.5" font-family="Helvetica,sans-Serif" font-size="10.00">_deprecated_and_disabled</text>
<polyline fill="none" stroke="#bfbfbf" points="233.5,-457.5 378.5,-457.5 "/>
<text text-anchor="middle" x="306" y="-445.5" font-family="Helvetica,sans-Serif" font-size="10.00"> </text>
<polyline fill="none" stroke="#bfbfbf" points="233.5,-438.5 378.5,-438.5 "/>
<text text-anchor="middle" x="306" y="-426.5" font-family="Helvetica,sans-Serif" font-size="10.00"> </text>
</g>
<!-- Node7&#45;&gt;Node6 -->
<g id="edge6" class="edge"><title>Node7&#45;&gt;Node6</title>
<path fill="none" stroke="#8b1a1a" d="M304.754,-409.011C304.333,-394.338 303.849,-377.436 303.371,-360.754"/>
<polygon fill="none" stroke="#8b1a1a" points="301.263,-409.372 305.048,-419.267 308.26,-409.171 301.263,-409.372"/>
</g>
<!-- Node8 -->
<g id="node8" class="node"><title>Node8</title>
<g id="a_node8"><a xlink:href="../../d0/d34/classHarness_1_1SpinBarrier.html" target="_top" xlink:title="{Harness::SpinBarrier\n|&#45; numThreads\l&#45; throwaway\l|+ SpinBarrier()\l+ initialize()\l+ custom_wait()\l+ timed_wait_noerror()\l+ timed_wait()\l+ wait()\l+ wait()\l+ signal_nowait()\l&#45; SpinBarrier()\l&#45; operator=()\l}">
<polygon fill="white" stroke="black" points="379,-193.5 379,-360.5 507,-360.5 507,-193.5 379,-193.5"/>
<text text-anchor="middle" x="443" y="-348.5" font-family="Helvetica,sans-Serif" font-size="10.00">Harness::SpinBarrier</text>
<polyline fill="none" stroke="black" points="379,-341.5 507,-341.5 "/>
<text text-anchor="start" x="387" y="-329.5" font-family="Helvetica,sans-Serif" font-size="10.00">&#45; numThreads</text>
<text text-anchor="start" x="387" y="-318.5" font-family="Helvetica,sans-Serif" font-size="10.00">&#45; throwaway</text>
<polyline fill="none" stroke="black" points="379,-311.5 507,-311.5 "/>
<text text-anchor="start" x="387" y="-299.5" font-family="Helvetica,sans-Serif" font-size="10.00">+ SpinBarrier()</text>
<text text-anchor="start" x="387" y="-288.5" font-family="Helvetica,sans-Serif" font-size="10.00">+ initialize()</text>
<text text-anchor="start" x="387" y="-277.5" font-family="Helvetica,sans-Serif" font-size="10.00">+ custom_wait()</text>
<text text-anchor="start" x="387" y="-266.5" font-family="Helvetica,sans-Serif" font-size="10.00">+ timed_wait_noerror()</text>
<text text-anchor="start" x="387" y="-255.5" font-family="Helvetica,sans-Serif" font-size="10.00">+ timed_wait()</text>
<text text-anchor="start" x="387" y="-244.5" font-family="Helvetica,sans-Serif" font-size="10.00">+ wait()</text>
<text text-anchor="start" x="387" y="-233.5" font-family="Helvetica,sans-Serif" font-size="10.00">+ wait()</text>
<text text-anchor="start" x="387" y="-222.5" font-family="Helvetica,sans-Serif" font-size="10.00">+ signal_nowait()</text>
<text text-anchor="start" x="387" y="-211.5" font-family="Helvetica,sans-Serif" font-size="10.00">&#45; SpinBarrier()</text>
<text text-anchor="start" x="387" y="-200.5" font-family="Helvetica,sans-Serif" font-size="10.00">&#45; operator=()</text>
</a>
</g>
</g>
<!-- Node8&#45;&gt;Node1 -->
<g id="edge7" class="edge"><title>Node8&#45;&gt;Node1</title>
<path fill="none" stroke="#404040" d="M418.914,-193.438C415.719,-183.473 412.377,-173.475 409,-164 408.213,-161.792 407.403,-159.559 406.574,-157.31"/>
<polygon fill="none" stroke="#404040" points="406.534,-157.204 400.673,-153.002 402.297,-145.977 408.158,-150.178 406.534,-157.204"/>
<text text-anchor="middle" x="440.5" y="-167" font-family="Helvetica,sans-Serif" font-size="10.00"> &#45;myBarrier</text>
</g>
<!-- Node9 -->
<g id="node9" class="node"><title>Node9</title>
<g id="a_node9"><a xlink:href="../../d4/d32/structtbb_1_1atomic.html" target="_top" xlink:title="{tbb::atomic\&lt; unsigned \&gt;\n||+ operator=()\l+ operator=()\l}">
<polygon fill="white" stroke="red" points="396.5,-419.5 396.5,-487.5 533.5,-487.5 533.5,-419.5 396.5,-419.5"/>
<text text-anchor="middle" x="465" y="-475.5" font-family="Helvetica,sans-Serif" font-size="10.00">tbb::atomic&lt; unsigned &gt;</text>
<polyline fill="none" stroke="red" points="396.5,-468.5 533.5,-468.5 "/>
<text text-anchor="middle" x="465" y="-456.5" font-family="Helvetica,sans-Serif" font-size="10.00"> </text>
<polyline fill="none" stroke="red" points="396.5,-449.5 533.5,-449.5 "/>
<text text-anchor="start" x="404.5" y="-437.5" font-family="Helvetica,sans-Serif" font-size="10.00">+ operator=()</text>
<text text-anchor="start" x="404.5" y="-426.5" font-family="Helvetica,sans-Serif" font-size="10.00">+ operator=()</text>
</a>
</g>
</g>
<!-- Node9&#45;&gt;Node8 -->
<g id="edge8" class="edge"><title>Node9&#45;&gt;Node8</title>
<path fill="none" stroke="#404040" d="M460.81,-419.267C459.115,-405.819 457.064,-389.549 454.965,-372.905"/>
<polygon fill="none" stroke="#404040" points="454.934,-372.659 450.215,-367.207 453.433,-360.754 458.152,-366.206 454.934,-372.659"/>
<text text-anchor="middle" x="512" y="-393" font-family="Helvetica,sans-Serif" font-size="10.00"> &#45;numThreadsFinished</text>
<text text-anchor="middle" x="512" y="-382" font-family="Helvetica,sans-Serif" font-size="10.00">&#45;epoch</text>
</g>
<!-- Node10 -->
<g id="node10" class="node"><title>Node10</title>
<polygon fill="white" stroke="#bfbfbf" points="525,-248.5 525,-305.5 569,-305.5 569,-248.5 525,-248.5"/>
<text text-anchor="middle" x="547" y="-293.5" font-family="Helvetica,sans-Serif" font-size="10.00">size_t</text>
<polyline fill="none" stroke="#bfbfbf" points="525,-286.5 569,-286.5 "/>
<text text-anchor="middle" x="547" y="-274.5" font-family="Helvetica,sans-Serif" font-size="10.00"> </text>
<polyline fill="none" stroke="#bfbfbf" points="525,-267.5 569,-267.5 "/>
<text text-anchor="middle" x="547" y="-255.5" font-family="Helvetica,sans-Serif" font-size="10.00"> </text>
</g>
<!-- Node10&#45;&gt;Node1 -->
<g id="edge9" class="edge"><title>Node10&#45;&gt;Node1</title>
<path fill="none" stroke="#404040" d="M540.626,-248.471C535.771,-231.416 527.867,-209.664 516,-193 499.694,-170.103 477.923,-149.069 456.257,-131.262"/>
<polygon fill="none" stroke="#404040" points="456.027,-131.077 448.843,-130.446 446.663,-123.573 453.846,-124.204 456.027,-131.077"/>
<text text-anchor="middle" x="536.5" y="-167" font-family="Helvetica,sans-Serif" font-size="10.00"> &#45;myConcLevel</text>
</g>
<!-- Node11 -->
<g id="node11" class="node"><title>Node11</title>
<g id="a_node11"><a xlink:href="../../d4/dcf/classtbb_1_1combinable.html" target="_top" xlink:title="Thread&#45;local storage with optional reduction. ">
<polygon fill="white" stroke="black" points="587,-199 587,-355 709,-355 709,-199 587,-199"/>
<text text-anchor="middle" x="648" y="-343" font-family="Helvetica,sans-Serif" font-size="10.00">tbb::combinable&lt; T &gt;</text>
<polyline fill="none" stroke="black" points="587,-336 709,-336 "/>
<text text-anchor="start" x="595" y="-324" font-family="Helvetica,sans-Serif" font-size="10.00">&#45; my_ets</text>
<polyline fill="none" stroke="black" points="587,-317 709,-317 "/>
<text text-anchor="start" x="595" y="-305" font-family="Helvetica,sans-Serif" font-size="10.00">+ combinable()</text>
<text text-anchor="start" x="595" y="-294" font-family="Helvetica,sans-Serif" font-size="10.00">+ combinable()</text>
<text text-anchor="start" x="595" y="-283" font-family="Helvetica,sans-Serif" font-size="10.00">+ ~combinable()</text>
<text text-anchor="start" x="595" y="-272" font-family="Helvetica,sans-Serif" font-size="10.00">+ combinable()</text>
<text text-anchor="start" x="595" y="-261" font-family="Helvetica,sans-Serif" font-size="10.00">+ operator=()</text>
<text text-anchor="start" x="595" y="-250" font-family="Helvetica,sans-Serif" font-size="10.00">+ clear()</text>
<text text-anchor="start" x="595" y="-239" font-family="Helvetica,sans-Serif" font-size="10.00">+ local()</text>
<text text-anchor="start" x="595" y="-228" font-family="Helvetica,sans-Serif" font-size="10.00">+ local()</text>
<text text-anchor="start" x="595" y="-217" font-family="Helvetica,sans-Serif" font-size="10.00">+ combine()</text>
<text text-anchor="start" x="595" y="-206" font-family="Helvetica,sans-Serif" font-size="10.00">+ combine_each()</text>
</a>
</g>
</g>
<!-- Node11&#45;&gt;Node1 -->
<g id="edge10" class="edge"><title>Node11&#45;&gt;Node1</title>
<path fill="none" stroke="#404040" d="M607.05,-198.88C597.997,-186.162 587.595,-173.915 576,-164 541.994,-134.919 497.106,-113.751 458.097,-99.2792"/>
<polygon fill="none" stroke="#404040" points="458.024,-99.2528 451.024,-100.984 446.733,-95.188 453.733,-93.4569 458.024,-99.2528"/>
<text text-anchor="middle" x="634" y="-167" font-family="Helvetica,sans-Serif" font-size="10.00"> &#45;myUniqueThreads</text>
</g>
</g>
</svg>
        <g id="navigator" transform="translate(0 0)" fill="#404254">
                <rect fill="#f2f5e9" fill-opacity="0.5" stroke="#606060" stroke-width=".5" x="0" y="0" width="60" height="60"/>
                <use id="zoomplus" xlink:href="#zoomPlus" x="17" y="9" onmousedown="handleZoom(evt,'in')"/>
                <use id="zoomminus" xlink:href="#zoomMin" x="42" y="9" onmousedown="handleZoom(evt,'out')"/>
                <use id="reset" xlink:href="#resetDef" x="30" y="36" onmousedown="handleReset()"/>
                <g id="arrowUp" xlink:href="#dirArrow" transform="translate(30 24)" onmousedown="handlePan(0,-1)">
                  <use xlink:href="#rim" fill="#404040">
                        <set attributeName="fill" to="#808080" begin="arrowUp.mouseover" end="arrowUp.mouseout"/>
                  </use>
                  <path fill="none" stroke="white" stroke-width="1.5" d="M0,-3.0v7 M-2.5,-0.5L0,-3.0L2.5,-0.5"/>
                </g>
                <g id="arrowRight" xlink:href="#dirArrow" transform="rotate(90) translate(36 -43)" onmousedown="handlePan(1,0)">
                  <use xlink:href="#rim" fill="#404040">
                        <set attributeName="fill" to="#808080" begin="arrowRight.mouseover" end="arrowRight.mouseout"/>
                  </use>
                  <path fill="none" stroke="white" stroke-width="1.5" d="M0,-3.0v7 M-2.5,-0.5L0,-3.0L2.5,-0.5"/>
                </g>
                <g id="arrowDown" xlink:href="#dirArrow" transform="rotate(180) translate(-30 -48)" onmousedown="handlePan(0,1)">
                  <use xlink:href="#rim" fill="#404040">
                        <set attributeName="fill" to="#808080" begin="arrowDown.mouseover" end="arrowDown.mouseout"/>
                  </use>
                  <path fill="none" stroke="white" stroke-width="1.5" d="M0,-3.0v7 M-2.5,-0.5L0,-3.0L2.5,-0.5"/>
                </g>
                <g id="arrowLeft" xlink:href="#dirArrow" transform="rotate(270) translate(-36 17)" onmousedown="handlePan(-1,0)">
                  <use xlink:href="#rim" fill="#404040">
                        <set attributeName="fill" to="#808080" begin="arrowLeft.mouseover" end="arrowLeft.mouseout"/>
                  </use>
                  <path fill="none" stroke="white" stroke-width="1.5" d="M0,-3.0v7 M-2.5,-0.5L0,-3.0L2.5,-0.5"/>
                </g>
        </g>
        <svg viewBox="0 0 15 15" width="100%" height="30px" preserveAspectRatio="xMaxYMin meet">
         <g id="arrow_out" transform="scale(0.3 0.3)">
          <a xlink:href="structHarness_1_1ExactConcurrencyLevel__coll__graph_org.svg" target="_base">
           <rect id="button" ry="5" rx="5" y="6" x="6" height="38" width="38"
                fill="#f2f5e9" fill-opacity="0.5" stroke="#606060" stroke-width="1.0"/>
           <path id="arrow"
             d="M 11.500037,31.436501 C 11.940474,20.09759 22.043105,11.32322 32.158766,21.979434 L 37.068811,17.246167 C 37.068811,17.246167 37.088388,32 37.088388,32 L 22.160133,31.978069 C 22.160133,31.978069 26.997745,27.140456 26.997745,27.140456 C 18.528582,18.264221 13.291696,25.230495 11.500037,31.436501 z"
             style="fill:#404040;"/>
          </a>
         </g>
        </svg>
</svg>
