<?xml version="1.0" encoding="UTF-8" standalone="no"?>
<!DOCTYPE svg PUBLIC "-//W3C//DTD SVG 1.1//EN"
 "http://www.w3.org/Graphics/SVG/1.1/DTD/svg11.dtd">
<!-- Generated by graphviz version 2.38.0 (20140413.2041)
 -->
<!-- Title: internal::tagged_msg&lt; TagType, T0, T1, T2, T3, T4, T5, T6, T7, T8, T9 &gt; Pages: 1 -->
<svg width="232pt" height="562pt"
 viewBox="0.00 0.00 231.50 562.00" xmlns="http://www.w3.org/2000/svg" xmlns:xlink="http://www.w3.org/1999/xlink">
<g id="graph0" class="graph" transform="scale(1 1) rotate(0) translate(4 558)">
<title>internal::tagged_msg&lt; TagType, T0, T1, T2, T3, T4, T5, T6, T7, T8, T9 &gt;</title>
<polygon fill="white" stroke="none" points="-4,4 -4,-558 227.5,-558 227.5,4 -4,4"/>
<!-- Node1 -->
<g id="node1" class="node"><title>Node1</title>
<polygon fill="#bfbfbf" stroke="black" points="9,-0.5 9,-145.5 155,-145.5 155,-0.5 9,-0.5"/>
<text text-anchor="start" x="17" y="-133.5" font-family="Helvetica,sans-Serif" font-size="10.00">internal::tagged_msg</text>
<text text-anchor="start" x="17" y="-122.5" font-family="Helvetica,sans-Serif" font-size="10.00">&lt; TagType, T0, T1, T2,</text>
<text text-anchor="middle" x="82" y="-111.5" font-family="Helvetica,sans-Serif" font-size="10.00"> T3, T4, T5, T6, T7, T8, T9 &gt;</text>
<polyline fill="none" stroke="black" points="9,-104.5 155,-104.5 "/>
<text text-anchor="start" x="17" y="-92.5" font-family="Helvetica,sans-Serif" font-size="10.00">&#45; my_tag</text>
<polyline fill="none" stroke="black" points="9,-85.5 155,-85.5 "/>
<text text-anchor="start" x="17" y="-73.5" font-family="Helvetica,sans-Serif" font-size="10.00">+ tagged_msg()</text>
<text text-anchor="start" x="17" y="-62.5" font-family="Helvetica,sans-Serif" font-size="10.00">+ tagged_msg()</text>
<text text-anchor="start" x="17" y="-51.5" font-family="Helvetica,sans-Serif" font-size="10.00">+ set_tag()</text>
<text text-anchor="start" x="17" y="-40.5" font-family="Helvetica,sans-Serif" font-size="10.00">+ tag()</text>
<text text-anchor="start" x="17" y="-29.5" font-family="Helvetica,sans-Serif" font-size="10.00">+ cast_to()</text>
<text text-anchor="start" x="17" y="-18.5" font-family="Helvetica,sans-Serif" font-size="10.00">+ is_a()</text>
<text text-anchor="start" x="17" y="-7.5" font-family="Helvetica,sans-Serif" font-size="10.00">+ is_default_constructed()</text>
</g>
<!-- Node2 -->
<g id="node2" class="node"><title>Node2</title>
<g id="a_node2"><a xlink:href="../../d4/d4b/classinternal_1_1tagged__msg_1_1variant.html" target="_top" xlink:title="{internal::tagged_msg\l\&lt; TagType, T0, T1, T2,\l T3, T4, T5, T6, T7, T8,\l T9 \&gt;::variant\n||+ variant()\l+ variant()\l+ variant()\l+ operator=()\l+ variant_cast_to()\l+ variant_is_a()\l+ variant_is_default\l_constructed()\l+ ~variant()\l}">
<polygon fill="white" stroke="black" points="22,-193.5 22,-371.5 142,-371.5 142,-193.5 22,-193.5"/>
<text text-anchor="start" x="30" y="-359.5" font-family="Helvetica,sans-Serif" font-size="10.00">internal::tagged_msg</text>
<text text-anchor="start" x="30" y="-348.5" font-family="Helvetica,sans-Serif" font-size="10.00">&lt; TagType, T0, T1, T2,</text>
<text text-anchor="start" x="30" y="-337.5" font-family="Helvetica,sans-Serif" font-size="10.00"> T3, T4, T5, T6, T7, T8,</text>
<text text-anchor="middle" x="82" y="-326.5" font-family="Helvetica,sans-Serif" font-size="10.00"> T9 &gt;::variant</text>
<polyline fill="none" stroke="black" points="22,-319.5 142,-319.5 "/>
<text text-anchor="middle" x="82" y="-307.5" font-family="Helvetica,sans-Serif" font-size="10.00"> </text>
<polyline fill="none" stroke="black" points="22,-300.5 142,-300.5 "/>
<text text-anchor="start" x="30" y="-288.5" font-family="Helvetica,sans-Serif" font-size="10.00">+ variant()</text>
<text text-anchor="start" x="30" y="-277.5" font-family="Helvetica,sans-Serif" font-size="10.00">+ variant()</text>
<text text-anchor="start" x="30" y="-266.5" font-family="Helvetica,sans-Serif" font-size="10.00">+ variant()</text>
<text text-anchor="start" x="30" y="-255.5" font-family="Helvetica,sans-Serif" font-size="10.00">+ operator=()</text>
<text text-anchor="start" x="30" y="-244.5" font-family="Helvetica,sans-Serif" font-size="10.00">+ variant_cast_to()</text>
<text text-anchor="start" x="30" y="-233.5" font-family="Helvetica,sans-Serif" font-size="10.00">+ variant_is_a()</text>
<text text-anchor="start" x="30" y="-222.5" font-family="Helvetica,sans-Serif" font-size="10.00">+ variant_is_default</text>
<text text-anchor="start" x="30" y="-211.5" font-family="Helvetica,sans-Serif" font-size="10.00">_constructed()</text>
<text text-anchor="start" x="30" y="-200.5" font-family="Helvetica,sans-Serif" font-size="10.00">+ ~variant()</text>
</a>
</g>
</g>
<!-- Node2&#45;&gt;Node1 -->
<g id="edge1" class="edge"><title>Node2&#45;&gt;Node1</title>
<path fill="none" stroke="#404040" d="M82,-193.2C82,-181.412 82,-169.35 82,-157.644"/>
<polygon fill="none" stroke="#404040" points="82.0001,-157.6 78,-151.6 82,-145.6 86,-151.6 82.0001,-157.6"/>
<text text-anchor="middle" x="106.5" y="-167" font-family="Helvetica,sans-Serif" font-size="10.00"> &#45;my_msg</text>
</g>
<!-- Node3 -->
<g id="node3" class="node"><title>Node3</title>
<polygon fill="white" stroke="#bfbfbf" points="0,-474.5 0,-531.5 44,-531.5 44,-474.5 0,-474.5"/>
<text text-anchor="middle" x="22" y="-519.5" font-family="Helvetica,sans-Serif" font-size="10.00">size_t</text>
<polyline fill="none" stroke="#bfbfbf" points="0,-512.5 44,-512.5 "/>
<text text-anchor="middle" x="22" y="-500.5" font-family="Helvetica,sans-Serif" font-size="10.00"> </text>
<polyline fill="none" stroke="#bfbfbf" points="0,-493.5 44,-493.5 "/>
<text text-anchor="middle" x="22" y="-481.5" font-family="Helvetica,sans-Serif" font-size="10.00"> </text>
</g>
<!-- Node3&#45;&gt;Node2 -->
<g id="edge2" class="edge"><title>Node3&#45;&gt;Node2</title>
<path fill="none" stroke="#404040" d="M25.5422,-474.07C28.784,-451.218 34.2591,-418.189 42,-390 42.6178,-387.75 43.2637,-385.481 43.9339,-383.2"/>
<polygon fill="none" stroke="#404040" points="43.9379,-383.187 41.8804,-376.275 47.4687,-371.718 49.5262,-378.629 43.9379,-383.187"/>
<text text-anchor="middle" x="81.5" y="-426" font-family="Helvetica,sans-Serif" font-size="10.00"> &#45;MaxNElements</text>
<text text-anchor="middle" x="81.5" y="-415" font-family="Helvetica,sans-Serif" font-size="10.00">&#45;MaxSize</text>
<text text-anchor="middle" x="81.5" y="-404" font-family="Helvetica,sans-Serif" font-size="10.00">&#45;MaxNBytes</text>
<text text-anchor="middle" x="81.5" y="-393" font-family="Helvetica,sans-Serif" font-size="10.00">&#45;N</text>
</g>
<!-- Node4 -->
<g id="node4" class="node"><title>Node4</title>
<g id="a_node4"><a xlink:href="../../d6/d48/classtbb_1_1aligned__space.html" target="_top" xlink:title="{tbb::aligned_space\l\&lt; AlignType, MaxNElements \&gt;\n|&#45; array\l|+ begin()\l+ end()\l&#45; __TBB_TypeWithAlignmentAt\lLeastAsStrict()\l}">
<polygon fill="white" stroke="black" points="62.5,-452.5 62.5,-553.5 223.5,-553.5 223.5,-452.5 62.5,-452.5"/>
<text text-anchor="start" x="70.5" y="-541.5" font-family="Helvetica,sans-Serif" font-size="10.00">tbb::aligned_space</text>
<text text-anchor="middle" x="143" y="-530.5" font-family="Helvetica,sans-Serif" font-size="10.00">&lt; AlignType, MaxNElements &gt;</text>
<polyline fill="none" stroke="black" points="62.5,-523.5 223.5,-523.5 "/>
<text text-anchor="start" x="70.5" y="-511.5" font-family="Helvetica,sans-Serif" font-size="10.00">&#45; array</text>
<polyline fill="none" stroke="black" points="62.5,-504.5 223.5,-504.5 "/>
<text text-anchor="start" x="70.5" y="-492.5" font-family="Helvetica,sans-Serif" font-size="10.00">+ begin()</text>
<text text-anchor="start" x="70.5" y="-481.5" font-family="Helvetica,sans-Serif" font-size="10.00">+ end()</text>
<text text-anchor="start" x="70.5" y="-470.5" font-family="Helvetica,sans-Serif" font-size="10.00">&#45; __TBB_TypeWithAlignmentAt</text>
<text text-anchor="start" x="70.5" y="-459.5" font-family="Helvetica,sans-Serif" font-size="10.00">LeastAsStrict()</text>
</a>
</g>
</g>
<!-- Node4&#45;&gt;Node2 -->
<g id="edge3" class="edge"><title>Node4&#45;&gt;Node2</title>
<path fill="none" stroke="#404040" d="M134.963,-452.263C131.352,-432.695 126.627,-410.135 121,-390 120.4,-387.853 119.777,-385.688 119.134,-383.51"/>
<polygon fill="none" stroke="#404040" points="119.053,-383.247 113.465,-378.689 115.523,-371.777 121.111,-376.335 119.053,-383.247"/>
<text text-anchor="middle" x="160" y="-409.5" font-family="Helvetica,sans-Serif" font-size="10.00"> &#45;my_space</text>
</g>
</g>
</svg>
