<?xml version="1.0" encoding="UTF-8" standalone="no"?>
<!DOCTYPE svg PUBLIC "-//W3C//DTD SVG 1.1//EN"
 "http://www.w3.org/Graphics/SVG/1.1/DTD/svg11.dtd">
<!-- Generated by graphviz version 2.38.0 (20140413.2041)
 -->
<!-- Title: UnboundedlyRecursiveOnUnboundedStealingTask Pages: 1 -->
<svg width="284pt" height="216pt"
 viewBox="0.00 0.00 284.00 216.00" xmlns="http://www.w3.org/2000/svg" xmlns:xlink="http://www.w3.org/1999/xlink">
<g id="graph0" class="graph" transform="scale(1 1) rotate(0) translate(4 212)">
<title>UnboundedlyRecursiveOnUnboundedStealingTask</title>
<polygon fill="white" stroke="none" points="-4,4 -4,-212 280,-212 280,4 -4,4"/>
<!-- Node1 -->
<g id="node1" class="node"><title>Node1</title>
<polygon fill="#bfbfbf" stroke="black" points="-1.42109e-14,-0.5 -1.42109e-14,-112.5 205,-112.5 205,-0.5 -1.42109e-14,-0.5"/>
<text text-anchor="start" x="8" y="-100.5" font-family="Helvetica,sans-Serif" font-size="10.00">UnboundedlyRecursiveOnUnbounded</text>
<text text-anchor="middle" x="102.5" y="-89.5" font-family="Helvetica,sans-Serif" font-size="10.00">StealingTask</text>
<polyline fill="none" stroke="black" points="-1.42109e-14,-82.5 205,-82.5 "/>
<text text-anchor="start" x="8" y="-70.5" font-family="Helvetica,sans-Serif" font-size="10.00">&#45; m_Depth</text>
<text text-anchor="start" x="8" y="-59.5" font-family="Helvetica,sans-Serif" font-size="10.00">&#45; m_GoAhead</text>
<text text-anchor="start" x="8" y="-48.5" font-family="Helvetica,sans-Serif" font-size="10.00">&#45; max_depth</text>
<polyline fill="none" stroke="black" points="-1.42109e-14,-41.5 205,-41.5 "/>
<text text-anchor="start" x="8" y="-29.5" font-family="Helvetica,sans-Serif" font-size="10.00">+ UnboundedlyRecursiveOnUnbounded</text>
<text text-anchor="start" x="8" y="-18.5" font-family="Helvetica,sans-Serif" font-size="10.00">StealingTask()</text>
<text text-anchor="start" x="8" y="-7.5" font-family="Helvetica,sans-Serif" font-size="10.00">+ execute()</text>
</g>
<!-- Node1&#45;&gt;Node1 -->
<g id="edge2" class="edge"><title>Node1&#45;&gt;Node1</title>
<path fill="none" stroke="#404040" d="M205.345,-67.9962C216.105,-65.752 223,-61.9199 223,-56.5 223,-53.4513 220.818,-50.905 216.994,-48.8611"/>
<polygon fill="none" stroke="#404040" points="216.737,-48.7758 209.783,-50.6871 205.345,-45.0038 212.298,-43.0926 216.737,-48.7758"/>
<text text-anchor="middle" x="249.5" y="-54" font-family="Helvetica,sans-Serif" font-size="10.00"> &#45;m_Parent</text>
</g>
<!-- Node2 -->
<g id="node2" class="node"><title>Node2</title>
<polygon fill="white" stroke="#bfbfbf" points="84,-150.5 84,-207.5 121,-207.5 121,-150.5 84,-150.5"/>
<text text-anchor="middle" x="102.5" y="-195.5" font-family="Helvetica,sans-Serif" font-size="10.00">task</text>
<polyline fill="none" stroke="#bfbfbf" points="84,-188.5 121,-188.5 "/>
<text text-anchor="middle" x="102.5" y="-176.5" font-family="Helvetica,sans-Serif" font-size="10.00"> </text>
<polyline fill="none" stroke="#bfbfbf" points="84,-169.5 121,-169.5 "/>
<text text-anchor="middle" x="102.5" y="-157.5" font-family="Helvetica,sans-Serif" font-size="10.00"> </text>
</g>
<!-- Node2&#45;&gt;Node1 -->
<g id="edge1" class="edge"><title>Node2&#45;&gt;Node1</title>
<path fill="none" stroke="midnightblue" d="M102.5,-140.109C102.5,-131.362 102.5,-121.883 102.5,-112.569"/>
<polygon fill="none" stroke="midnightblue" points="99.0001,-140.355 102.5,-150.355 106,-140.355 99.0001,-140.355"/>
</g>
</g>
</svg>
