<?xml version="1.0" encoding="UTF-8" standalone="no"?>
<!DOCTYPE svg PUBLIC "-//W3C//DTD SVG 1.1//EN"
 "http://www.w3.org/Graphics/SVG/1.1/DTD/svg11.dtd">
<!-- Generated by graphviz version 2.38.0 (20140413.2041)
 -->
<!-- Title: tbb::internal::rml::private_worker Pages: 1 -->
<svg width="901pt" height="977pt"
 viewBox="0.00 0.00 900.50 977.00" xmlns="http://www.w3.org/2000/svg" xmlns:xlink="http://www.w3.org/1999/xlink">
<g id="graph0" class="graph" transform="scale(1 1) rotate(0) translate(4 973)">
<title>tbb::internal::rml::private_worker</title>
<polygon fill="white" stroke="none" points="-4,4 -4,-973 896.5,-973 896.5,4 -4,4"/>
<!-- Node1 -->
<g id="node1" class="node"><title>Node1</title>
<polygon fill="#bfbfbf" stroke="black" points="494.5,-397.5 494.5,-520.5 601.5,-520.5 601.5,-397.5 494.5,-397.5"/>
<text text-anchor="start" x="502.5" y="-508.5" font-family="Helvetica,sans-Serif" font-size="10.00">tbb::internal::rml</text>
<text text-anchor="middle" x="548" y="-497.5" font-family="Helvetica,sans-Serif" font-size="10.00">::private_worker</text>
<polyline fill="none" stroke="black" points="494.5,-490.5 601.5,-490.5 "/>
<text text-anchor="start" x="502.5" y="-478.5" font-family="Helvetica,sans-Serif" font-size="10.00">&#45; my_handle</text>
<polyline fill="none" stroke="black" points="494.5,-471.5 601.5,-471.5 "/>
<text text-anchor="start" x="502.5" y="-459.5" font-family="Helvetica,sans-Serif" font-size="10.00"># private_worker()</text>
<text text-anchor="start" x="502.5" y="-448.5" font-family="Helvetica,sans-Serif" font-size="10.00">&#45; run()</text>
<text text-anchor="start" x="502.5" y="-437.5" font-family="Helvetica,sans-Serif" font-size="10.00">&#45; wake_or_launch()</text>
<text text-anchor="start" x="502.5" y="-426.5" font-family="Helvetica,sans-Serif" font-size="10.00">&#45; start_shutdown()</text>
<text text-anchor="start" x="502.5" y="-415.5" font-family="Helvetica,sans-Serif" font-size="10.00">&#45; thread_routine()</text>
<text text-anchor="start" x="502.5" y="-404.5" font-family="Helvetica,sans-Serif" font-size="10.00">&#45; release_handle()</text>
</g>
<!-- Node1&#45;&gt;Node1 -->
<g id="edge2" class="edge"><title>Node1&#45;&gt;Node1</title>
<path fill="none" stroke="#404040" d="M601.632,-474.049C612.08,-472.302 619.5,-467.285 619.5,-459 619.5,-454.34 617.152,-450.713 613.239,-448.122"/>
<polygon fill="none" stroke="#404040" points="612.925,-448.009 605.926,-449.744 601.632,-443.951 608.631,-442.216 612.925,-448.009"/>
<text text-anchor="middle" x="644" y="-456.5" font-family="Helvetica,sans-Serif" font-size="10.00"> &#45;my_next</text>
</g>
<!-- Node7 -->
<g id="node7" class="node"><title>Node7</title>
<g id="a_node7"><a xlink:href="../../d6/d67/classtbb_1_1internal_1_1rml_1_1padded__private__worker.html" target="_top" xlink:title="{tbb::internal::rml\l::padded_private_worker\n|&#45; pad\l|+ padded_private_worker()\l}">
<polygon fill="white" stroke="black" points="624,-276 624,-344 770,-344 770,-276 624,-276"/>
<text text-anchor="start" x="632" y="-332" font-family="Helvetica,sans-Serif" font-size="10.00">tbb::internal::rml</text>
<text text-anchor="middle" x="697" y="-321" font-family="Helvetica,sans-Serif" font-size="10.00">::padded_private_worker</text>
<polyline fill="none" stroke="black" points="624,-314 770,-314 "/>
<text text-anchor="start" x="632" y="-302" font-family="Helvetica,sans-Serif" font-size="10.00">&#45; pad</text>
<polyline fill="none" stroke="black" points="624,-295 770,-295 "/>
<text text-anchor="start" x="632" y="-283" font-family="Helvetica,sans-Serif" font-size="10.00">+ padded_private_worker()</text>
</a>
</g>
</g>
<!-- Node1&#45;&gt;Node7 -->
<g id="edge9" class="edge"><title>Node1&#45;&gt;Node7</title>
<path fill="none" stroke="midnightblue" d="M609.084,-397.736C627.574,-379.494 647.203,-360.128 663.213,-344.334"/>
<polygon fill="none" stroke="midnightblue" points="606.453,-395.415 601.792,-404.93 611.369,-400.398 606.453,-395.415"/>
</g>
<!-- Node2 -->
<g id="node2" class="node"><title>Node2</title>
<polygon fill="white" stroke="#bfbfbf" points="441,-911.5 441,-968.5 497,-968.5 497,-911.5 441,-911.5"/>
<text text-anchor="middle" x="469" y="-956.5" font-family="Helvetica,sans-Serif" font-size="10.00">no_copy</text>
<polyline fill="none" stroke="#bfbfbf" points="441,-949.5 497,-949.5 "/>
<text text-anchor="middle" x="469" y="-937.5" font-family="Helvetica,sans-Serif" font-size="10.00"> </text>
<polyline fill="none" stroke="#bfbfbf" points="441,-930.5 497,-930.5 "/>
<text text-anchor="middle" x="469" y="-918.5" font-family="Helvetica,sans-Serif" font-size="10.00"> </text>
</g>
<!-- Node2&#45;&gt;Node1 -->
<g id="edge1" class="edge"><title>Node2&#45;&gt;Node1</title>
<path fill="none" stroke="#8b1a1a" d="M472.48,-901.05C475.79,-867.13 481.258,-816.118 488,-772 501.415,-684.213 521.688,-583.442 534.887,-520.741"/>
<polygon fill="none" stroke="#8b1a1a" points="468.955,-901.143 471.483,-911.432 475.923,-901.812 468.955,-901.143"/>
</g>
<!-- Node3 -->
<g id="node3" class="node"><title>Node3</title>
<g id="a_node3"><a xlink:href="../../d8/d40/classtbb_1_1internal_1_1rml_1_1private__server.html" target="_top" xlink:title="{tbb::internal::rml\l::private_server\n|&#45; my_n_thread\l&#45; my_asleep_list_mutex\l|+ private_server()\l+ version()\l+ request_close_connection()\l+ yield()\l+ independent_thread\l_number_changed()\l+ default_concurrency()\l+ adjust_job_count_estimate()\l&#45; propagate_chain_reaction()\l&#45; try_insert_in_asleep_list()\l&#45; wake_some()\l&#45; ~private_server()\l&#45; remove_server_ref()\l}">
<polygon fill="white" stroke="black" points="283,-0.5 283,-211.5 447,-211.5 447,-0.5 283,-0.5"/>
<text text-anchor="start" x="291" y="-199.5" font-family="Helvetica,sans-Serif" font-size="10.00">tbb::internal::rml</text>
<text text-anchor="middle" x="365" y="-188.5" font-family="Helvetica,sans-Serif" font-size="10.00">::private_server</text>
<polyline fill="none" stroke="black" points="283,-181.5 447,-181.5 "/>
<text text-anchor="start" x="291" y="-169.5" font-family="Helvetica,sans-Serif" font-size="10.00">&#45; my_n_thread</text>
<text text-anchor="start" x="291" y="-158.5" font-family="Helvetica,sans-Serif" font-size="10.00">&#45; my_asleep_list_mutex</text>
<polyline fill="none" stroke="black" points="283,-151.5 447,-151.5 "/>
<text text-anchor="start" x="291" y="-139.5" font-family="Helvetica,sans-Serif" font-size="10.00">+ private_server()</text>
<text text-anchor="start" x="291" y="-128.5" font-family="Helvetica,sans-Serif" font-size="10.00">+ version()</text>
<text text-anchor="start" x="291" y="-117.5" font-family="Helvetica,sans-Serif" font-size="10.00">+ request_close_connection()</text>
<text text-anchor="start" x="291" y="-106.5" font-family="Helvetica,sans-Serif" font-size="10.00">+ yield()</text>
<text text-anchor="start" x="291" y="-95.5" font-family="Helvetica,sans-Serif" font-size="10.00">+ independent_thread</text>
<text text-anchor="start" x="291" y="-84.5" font-family="Helvetica,sans-Serif" font-size="10.00">_number_changed()</text>
<text text-anchor="start" x="291" y="-73.5" font-family="Helvetica,sans-Serif" font-size="10.00">+ default_concurrency()</text>
<text text-anchor="start" x="291" y="-62.5" font-family="Helvetica,sans-Serif" font-size="10.00">+ adjust_job_count_estimate()</text>
<text text-anchor="start" x="291" y="-51.5" font-family="Helvetica,sans-Serif" font-size="10.00">&#45; propagate_chain_reaction()</text>
<text text-anchor="start" x="291" y="-40.5" font-family="Helvetica,sans-Serif" font-size="10.00">&#45; try_insert_in_asleep_list()</text>
<text text-anchor="start" x="291" y="-29.5" font-family="Helvetica,sans-Serif" font-size="10.00">&#45; wake_some()</text>
<text text-anchor="start" x="291" y="-18.5" font-family="Helvetica,sans-Serif" font-size="10.00">&#45; ~private_server()</text>
<text text-anchor="start" x="291" y="-7.5" font-family="Helvetica,sans-Serif" font-size="10.00">&#45; remove_server_ref()</text>
</a>
</g>
</g>
<!-- Node2&#45;&gt;Node3 -->
<g id="edge5" class="edge"><title>Node2&#45;&gt;Node3</title>
<path fill="none" stroke="#8b1a1a" d="M430.533,-937.784C318.444,-933.207 0,-912.424 0,-824 0,-824 0,-824 0,-309 0,-180.627 174.979,-133.183 282.632,-116.141"/>
<polygon fill="none" stroke="#8b1a1a" points="430.59,-941.289 440.718,-938.178 430.861,-934.294 430.59,-941.289"/>
</g>
<!-- Node13 -->
<g id="node13" class="node"><title>Node13</title>
<g id="a_node13"><a xlink:href="../../d2/d91/classtbb_1_1internal_1_1binary__semaphore.html" target="_top" xlink:title="binary_semaphore for concurrent monitor ">
<polygon fill="white" stroke="black" points="759.5,-772.5 759.5,-873.5 892.5,-873.5 892.5,-772.5 759.5,-772.5"/>
<text text-anchor="start" x="767.5" y="-861.5" font-family="Helvetica,sans-Serif" font-size="10.00">tbb::internal::binary</text>
<text text-anchor="middle" x="826" y="-850.5" font-family="Helvetica,sans-Serif" font-size="10.00">_semaphore</text>
<polyline fill="none" stroke="black" points="759.5,-843.5 892.5,-843.5 "/>
<text text-anchor="start" x="767.5" y="-831.5" font-family="Helvetica,sans-Serif" font-size="10.00">&#45; my_sem</text>
<polyline fill="none" stroke="black" points="759.5,-824.5 892.5,-824.5 "/>
<text text-anchor="start" x="767.5" y="-812.5" font-family="Helvetica,sans-Serif" font-size="10.00">+ binary_semaphore()</text>
<text text-anchor="start" x="767.5" y="-801.5" font-family="Helvetica,sans-Serif" font-size="10.00">+ ~binary_semaphore()</text>
<text text-anchor="start" x="767.5" y="-790.5" font-family="Helvetica,sans-Serif" font-size="10.00">+ P()</text>
<text text-anchor="start" x="767.5" y="-779.5" font-family="Helvetica,sans-Serif" font-size="10.00">+ V()</text>
</a>
</g>
</g>
<!-- Node2&#45;&gt;Node13 -->
<g id="edge16" class="edge"><title>Node2&#45;&gt;Node13</title>
<path fill="none" stroke="#8b1a1a" d="M507.207,-934.527C562.544,-927.091 667.406,-909.37 750,-874 753.049,-872.694 756.109,-871.266 759.158,-869.745"/>
<polygon fill="none" stroke="#8b1a1a" points="506.608,-931.075 497.144,-935.838 507.512,-938.016 506.608,-931.075"/>
</g>
<!-- Node3&#45;&gt;Node1 -->
<g id="edge3" class="edge"><title>Node3&#45;&gt;Node1</title>
<path fill="none" stroke="#404040" d="M447.122,-149.922C477.357,-170.053 508.666,-196.961 527,-230 553.116,-277.062 557.481,-338.123 555.797,-385.209"/>
<polygon fill="none" stroke="#404040" points="555.784,-385.491 559.494,-391.674 555.212,-397.477 551.503,-391.293 555.784,-385.491"/>
<text text-anchor="middle" x="585" y="-307.5" font-family="Helvetica,sans-Serif" font-size="10.00"> &#45;my_server</text>
</g>
<!-- Node4 -->
<g id="node4" class="node"><title>Node4</title>
<g id="a_node4"><a xlink:href="../../db/d82/classtbb_1_1internal_1_1rml_1_1tbb__server.html" target="_top" xlink:title="Represents a set of tbb worker threads provided by the server. ">
<polygon fill="white" stroke="red" points="66,-276 66,-344 230,-344 230,-276 66,-276"/>
<text text-anchor="start" x="74" y="-332" font-family="Helvetica,sans-Serif" font-size="10.00">tbb::internal::rml</text>
<text text-anchor="middle" x="148" y="-321" font-family="Helvetica,sans-Serif" font-size="10.00">::tbb_server</text>
<polyline fill="none" stroke="red" points="66,-314 230,-314 "/>
<text text-anchor="middle" x="148" y="-302" font-family="Helvetica,sans-Serif" font-size="10.00"> </text>
<polyline fill="none" stroke="red" points="66,-295 230,-295 "/>
<text text-anchor="start" x="74" y="-283" font-family="Helvetica,sans-Serif" font-size="10.00">+ adjust_job_count_estimate()</text>
</a>
</g>
</g>
<!-- Node4&#45;&gt;Node3 -->
<g id="edge4" class="edge"><title>Node4&#45;&gt;Node3</title>
<path fill="none" stroke="midnightblue" d="M191.324,-268.671C217.445,-244.355 251.574,-212.586 282.657,-183.651"/>
<polygon fill="none" stroke="midnightblue" points="188.768,-266.268 183.833,-275.644 193.537,-271.392 188.768,-266.268"/>
</g>
<!-- Node5 -->
<g id="node5" class="node"><title>Node5</title>
<g id="a_node5"><a xlink:href="../../d4/d32/structtbb_1_1atomic.html" target="_top" xlink:title="{tbb::atomic\&lt; int \&gt;\n||+ operator=()\l+ operator=()\l}">
<polygon fill="white" stroke="red" points="248,-276 248,-344 354,-344 354,-276 248,-276"/>
<text text-anchor="middle" x="301" y="-332" font-family="Helvetica,sans-Serif" font-size="10.00">tbb::atomic&lt; int &gt;</text>
<polyline fill="none" stroke="red" points="248,-325 354,-325 "/>
<text text-anchor="middle" x="301" y="-313" font-family="Helvetica,sans-Serif" font-size="10.00"> </text>
<polyline fill="none" stroke="red" points="248,-306 354,-306 "/>
<text text-anchor="start" x="256" y="-294" font-family="Helvetica,sans-Serif" font-size="10.00">+ operator=()</text>
<text text-anchor="start" x="256" y="-283" font-family="Helvetica,sans-Serif" font-size="10.00">+ operator=()</text>
</a>
</g>
</g>
<!-- Node5&#45;&gt;Node3 -->
<g id="edge6" class="edge"><title>Node5&#45;&gt;Node3</title>
<path fill="none" stroke="#404040" d="M311.568,-275.644C316.265,-260.819 322.102,-242.397 328.176,-223.225"/>
<polygon fill="none" stroke="#404040" points="328.252,-222.985 326.251,-216.057 331.877,-211.546 333.878,-218.473 328.252,-222.985"/>
<text text-anchor="middle" x="362.5" y="-244" font-family="Helvetica,sans-Serif" font-size="10.00"> &#45;my_ref_count</text>
<text text-anchor="middle" x="362.5" y="-233" font-family="Helvetica,sans-Serif" font-size="10.00">&#45;my_slack</text>
</g>
<!-- Node6 -->
<g id="node6" class="node"><title>Node6</title>
<g id="a_node6"><a xlink:href="../../d4/d32/structtbb_1_1atomic.html" target="_top" xlink:title="{tbb::atomic\&lt; tbb::internal\l::rml::private_worker * \&gt;\n||+ operator=()\l+ operator=()\l}">
<polygon fill="white" stroke="red" points="372,-270.5 372,-349.5 512,-349.5 512,-270.5 372,-270.5"/>
<text text-anchor="start" x="380" y="-337.5" font-family="Helvetica,sans-Serif" font-size="10.00">tbb::atomic&lt; tbb::internal</text>
<text text-anchor="middle" x="442" y="-326.5" font-family="Helvetica,sans-Serif" font-size="10.00">::rml::private_worker * &gt;</text>
<polyline fill="none" stroke="red" points="372,-319.5 512,-319.5 "/>
<text text-anchor="middle" x="442" y="-307.5" font-family="Helvetica,sans-Serif" font-size="10.00"> </text>
<polyline fill="none" stroke="red" points="372,-300.5 512,-300.5 "/>
<text text-anchor="start" x="380" y="-288.5" font-family="Helvetica,sans-Serif" font-size="10.00">+ operator=()</text>
<text text-anchor="start" x="380" y="-277.5" font-family="Helvetica,sans-Serif" font-size="10.00">+ operator=()</text>
</a>
</g>
</g>
<!-- Node6&#45;&gt;Node3 -->
<g id="edge7" class="edge"><title>Node6&#45;&gt;Node3</title>
<path fill="none" stroke="#404040" d="M427.154,-270.052C421.934,-256.359 415.767,-240.182 409.38,-223.424"/>
<polygon fill="none" stroke="#404040" points="409.205,-222.966 403.33,-218.785 404.931,-211.753 410.806,-215.935 409.205,-222.966"/>
<text text-anchor="middle" x="471.5" y="-238.5" font-family="Helvetica,sans-Serif" font-size="10.00"> &#45;my_asleep_list_root</text>
</g>
<!-- Node7&#45;&gt;Node3 -->
<g id="edge8" class="edge"><title>Node7&#45;&gt;Node3</title>
<path fill="none" stroke="#404040" d="M642.549,-275.87C592.482,-245.408 517.219,-199.615 457.693,-163.398"/>
<polygon fill="none" stroke="#404040" points="457.402,-163.22 450.197,-163.519 447.15,-156.983 454.355,-156.685 457.402,-163.22"/>
<text text-anchor="middle" x="643.5" y="-238.5" font-family="Helvetica,sans-Serif" font-size="10.00"> &#45;my_thread_array</text>
</g>
<!-- Node8 -->
<g id="node8" class="node"><title>Node8</title>
<g id="a_node8"><a xlink:href="../../da/d3f/classtbb_1_1internal_1_1rml_1_1tbb__client.html" target="_top" xlink:title="{tbb::internal::rml\l::tbb_client\n||}">
<polygon fill="white" stroke="red" points="150,-612.5 150,-680.5 246,-680.5 246,-612.5 150,-612.5"/>
<text text-anchor="start" x="158" y="-668.5" font-family="Helvetica,sans-Serif" font-size="10.00">tbb::internal::rml</text>
<text text-anchor="middle" x="198" y="-657.5" font-family="Helvetica,sans-Serif" font-size="10.00">::tbb_client</text>
<polyline fill="none" stroke="red" points="150,-650.5 246,-650.5 "/>
<text text-anchor="middle" x="198" y="-638.5" font-family="Helvetica,sans-Serif" font-size="10.00"> </text>
<polyline fill="none" stroke="red" points="150,-631.5 246,-631.5 "/>
<text text-anchor="middle" x="198" y="-619.5" font-family="Helvetica,sans-Serif" font-size="10.00"> </text>
</a>
</g>
</g>
<!-- Node8&#45;&gt;Node1 -->
<g id="edge17" class="edge"><title>Node8&#45;&gt;Node1</title>
<path fill="none" stroke="#404040" d="M236.06,-612.287C263.559,-589.493 302.341,-559.732 340,-539 385.623,-513.884 440.883,-493.311 482.975,-479.462"/>
<polygon fill="none" stroke="#404040" points="483.063,-479.434 487.539,-473.779 494.479,-475.736 490.004,-481.39 483.063,-479.434"/>
<text text-anchor="middle" x="366.5" y="-542" font-family="Helvetica,sans-Serif" font-size="10.00"> &#45;my_client</text>
</g>
<!-- Node8&#45;&gt;Node3 -->
<g id="edge10" class="edge"><title>Node8&#45;&gt;Node3</title>
<path fill="none" stroke="#404040" d="M166.561,-612.297C106.342,-544.516 -13.319,-386.773 57,-270 103.045,-193.536 198.316,-151.068 270.78,-128.808"/>
<polygon fill="none" stroke="#404040" points="271.156,-128.696 275.767,-123.152 282.658,-125.276 278.047,-130.82 271.156,-128.696"/>
<text text-anchor="middle" x="64.5" y="-371" font-family="Helvetica,sans-Serif" font-size="10.00"> &#45;my_client</text>
</g>
<!-- Node9 -->
<g id="node9" class="node"><title>Node9</title>
<polygon fill="white" stroke="#bfbfbf" points="730,-618 730,-675 774,-675 774,-618 730,-618"/>
<text text-anchor="middle" x="752" y="-663" font-family="Helvetica,sans-Serif" font-size="10.00">size_t</text>
<polyline fill="none" stroke="#bfbfbf" points="730,-656 774,-656 "/>
<text text-anchor="middle" x="752" y="-644" font-family="Helvetica,sans-Serif" font-size="10.00"> </text>
<polyline fill="none" stroke="#bfbfbf" points="730,-637 774,-637 "/>
<text text-anchor="middle" x="752" y="-625" font-family="Helvetica,sans-Serif" font-size="10.00"> </text>
</g>
<!-- Node9&#45;&gt;Node1 -->
<g id="edge18" class="edge"><title>Node9&#45;&gt;Node1</title>
<path fill="none" stroke="#404040" d="M737.697,-617.679C724.856,-594.619 704.316,-562.01 680,-539 660.239,-520.3 635.304,-503.974 612.441,-491.093"/>
<polygon fill="none" stroke="#404040" points="612.285,-491.007 605.101,-491.629 601.764,-485.236 608.948,-484.614 612.285,-491.007"/>
<text text-anchor="middle" x="716.5" y="-542" font-family="Helvetica,sans-Serif" font-size="10.00"> &#45;my_index</text>
</g>
<!-- Node9&#45;&gt;Node3 -->
<g id="edge11" class="edge"><title>Node9&#45;&gt;Node3</title>
<path fill="none" stroke="#404040" d="M764.402,-617.756C791.954,-551.528 850.413,-381.433 779,-270 710.382,-162.929 558.8,-126.16 459.341,-113.552"/>
<polygon fill="none" stroke="#404040" points="459.093,-113.522 452.66,-116.782 447.177,-112.097 453.61,-108.838 459.093,-113.522"/>
<text text-anchor="middle" x="850.5" y="-371" font-family="Helvetica,sans-Serif" font-size="10.00"> &#45;my_stack_size</text>
</g>
<!-- Node10 -->
<g id="node10" class="node"><title>Node10</title>
<g id="a_node10"><a xlink:href="../../d4/db4/classrml_1_1internal_1_1thread__monitor.html" target="_top" xlink:title="Monitor with limited two&#45;phase commit form of wait. ">
<polygon fill="white" stroke="black" points="562,-568.5 562,-724.5 680,-724.5 680,-568.5 562,-568.5"/>
<text text-anchor="start" x="570" y="-712.5" font-family="Helvetica,sans-Serif" font-size="10.00">rml::internal::thread</text>
<text text-anchor="middle" x="621" y="-701.5" font-family="Helvetica,sans-Serif" font-size="10.00">_monitor</text>
<polyline fill="none" stroke="black" points="562,-694.5 680,-694.5 "/>
<text text-anchor="start" x="570" y="-682.5" font-family="Helvetica,sans-Serif" font-size="10.00">&#45; skipped_wakeup</text>
<polyline fill="none" stroke="black" points="562,-675.5 680,-675.5 "/>
<text text-anchor="start" x="570" y="-663.5" font-family="Helvetica,sans-Serif" font-size="10.00">+ thread_monitor()</text>
<text text-anchor="start" x="570" y="-652.5" font-family="Helvetica,sans-Serif" font-size="10.00">+ ~thread_monitor()</text>
<text text-anchor="start" x="570" y="-641.5" font-family="Helvetica,sans-Serif" font-size="10.00">+ notify()</text>
<text text-anchor="start" x="570" y="-630.5" font-family="Helvetica,sans-Serif" font-size="10.00">+ prepare_wait()</text>
<text text-anchor="start" x="570" y="-619.5" font-family="Helvetica,sans-Serif" font-size="10.00">+ commit_wait()</text>
<text text-anchor="start" x="570" y="-608.5" font-family="Helvetica,sans-Serif" font-size="10.00">+ cancel_wait()</text>
<text text-anchor="start" x="570" y="-597.5" font-family="Helvetica,sans-Serif" font-size="10.00">+ yield()</text>
<text text-anchor="start" x="570" y="-586.5" font-family="Helvetica,sans-Serif" font-size="10.00">+ join()</text>
<text text-anchor="start" x="570" y="-575.5" font-family="Helvetica,sans-Serif" font-size="10.00">+ detach_thread()</text>
</a>
</g>
</g>
<!-- Node10&#45;&gt;Node1 -->
<g id="edge12" class="edge"><title>Node10&#45;&gt;Node1</title>
<path fill="none" stroke="#404040" d="M585.479,-568.382C582.873,-562.194 580.349,-556.013 578,-550 575.772,-544.297 573.559,-538.353 571.403,-532.358"/>
<polygon fill="none" stroke="#404040" points="571.324,-532.135 565.559,-527.804 567.339,-520.816 573.104,-525.147 571.324,-532.135"/>
<text text-anchor="middle" x="629" y="-542" font-family="Helvetica,sans-Serif" font-size="10.00"> &#45;my_thread_monitor</text>
</g>
<!-- Node11 -->
<g id="node11" class="node"><title>Node11</title>
<g id="a_node11"><a xlink:href="../../d4/d32/structtbb_1_1atomic.html" target="_top" xlink:title="{tbb::atomic\&lt; bool \&gt;\n||+ operator=()\l+ operator=()\l}">
<polygon fill="white" stroke="red" points="497,-789 497,-857 611,-857 611,-789 497,-789"/>
<text text-anchor="middle" x="554" y="-845" font-family="Helvetica,sans-Serif" font-size="10.00">tbb::atomic&lt; bool &gt;</text>
<polyline fill="none" stroke="red" points="497,-838 611,-838 "/>
<text text-anchor="middle" x="554" y="-826" font-family="Helvetica,sans-Serif" font-size="10.00"> </text>
<polyline fill="none" stroke="red" points="497,-819 611,-819 "/>
<text text-anchor="start" x="505" y="-807" font-family="Helvetica,sans-Serif" font-size="10.00">+ operator=()</text>
<text text-anchor="start" x="505" y="-796" font-family="Helvetica,sans-Serif" font-size="10.00">+ operator=()</text>
</a>
</g>
</g>
<!-- Node11&#45;&gt;Node10 -->
<g id="edge13" class="edge"><title>Node11&#45;&gt;Node10</title>
<path fill="none" stroke="#404040" d="M566.76,-788.767C572.573,-773.628 579.759,-754.912 586.977,-736.112"/>
<polygon fill="none" stroke="#404040" points="587.04,-735.947 585.457,-728.912 591.342,-724.745 592.925,-731.78 587.04,-735.947"/>
<text text-anchor="middle" x="604" y="-746" font-family="Helvetica,sans-Serif" font-size="10.00"> &#45;in_wait</text>
</g>
<!-- Node12 -->
<g id="node12" class="node"><title>Node12</title>
<g id="a_node12"><a xlink:href="../../de/d44/classrml_1_1internal_1_1thread__monitor_1_1cookie.html" target="_top" xlink:title="{rml::internal::thread\l_monitor::cookie\n||}">
<polygon fill="white" stroke="red" points="629,-789 629,-857 741,-857 741,-789 629,-789"/>
<text text-anchor="start" x="637" y="-845" font-family="Helvetica,sans-Serif" font-size="10.00">rml::internal::thread</text>
<text text-anchor="middle" x="685" y="-834" font-family="Helvetica,sans-Serif" font-size="10.00">_monitor::cookie</text>
<polyline fill="none" stroke="red" points="629,-827 741,-827 "/>
<text text-anchor="middle" x="685" y="-815" font-family="Helvetica,sans-Serif" font-size="10.00"> </text>
<polyline fill="none" stroke="red" points="629,-808 741,-808 "/>
<text text-anchor="middle" x="685" y="-796" font-family="Helvetica,sans-Serif" font-size="10.00"> </text>
</a>
</g>
</g>
<!-- Node12&#45;&gt;Node10 -->
<g id="edge14" class="edge"><title>Node12&#45;&gt;Node10</title>
<path fill="none" stroke="#404040" d="M672.811,-788.767C667.259,-773.628 660.395,-754.912 653.5,-736.112"/>
<polygon fill="none" stroke="#404040" points="653.463,-736.011 647.641,-731.755 649.33,-724.745 655.152,-729 653.463,-736.011"/>
<text text-anchor="middle" x="688" y="-746" font-family="Helvetica,sans-Serif" font-size="10.00"> &#45;my_cookie</text>
</g>
<!-- Node13&#45;&gt;Node10 -->
<g id="edge15" class="edge"><title>Node13&#45;&gt;Node10</title>
<path fill="none" stroke="#404040" d="M767.804,-772.462C743.345,-751.642 714.718,-727.275 689.271,-705.614"/>
<polygon fill="none" stroke="#404040" points="689.192,-705.546 682.03,-704.703 680.054,-697.768 687.215,-698.611 689.192,-705.546"/>
<text text-anchor="middle" x="769.5" y="-746" font-family="Helvetica,sans-Serif" font-size="10.00"> &#45;my_sema</text>
</g>
<!-- Node14 -->
<g id="node14" class="node"><title>Node14</title>
<g id="a_node14"><a xlink:href="../../d4/d32/structtbb_1_1atomic.html" target="_top" xlink:title="{tbb::atomic\&lt; state_t \&gt;\n||+ operator=()\l+ operator=()\l}">
<polygon fill="white" stroke="black" points="313,-612.5 313,-680.5 441,-680.5 441,-612.5 313,-612.5"/>
<text text-anchor="middle" x="377" y="-668.5" font-family="Helvetica,sans-Serif" font-size="10.00">tbb::atomic&lt; state_t &gt;</text>
<polyline fill="none" stroke="black" points="313,-661.5 441,-661.5 "/>
<text text-anchor="middle" x="377" y="-649.5" font-family="Helvetica,sans-Serif" font-size="10.00"> </text>
<polyline fill="none" stroke="black" points="313,-642.5 441,-642.5 "/>
<text text-anchor="start" x="321" y="-630.5" font-family="Helvetica,sans-Serif" font-size="10.00">+ operator=()</text>
<text text-anchor="start" x="321" y="-619.5" font-family="Helvetica,sans-Serif" font-size="10.00">+ operator=()</text>
</a>
</g>
</g>
<!-- Node14&#45;&gt;Node1 -->
<g id="edge19" class="edge"><title>Node14&#45;&gt;Node1</title>
<path fill="none" stroke="#404040" d="M378.221,-612.237C380.591,-589.565 386.87,-559.969 403,-539 423.214,-512.722 454.756,-494.064 483.266,-481.504"/>
<polygon fill="none" stroke="#404040" points="483.36,-481.464 487.345,-475.454 494.426,-476.821 490.441,-482.831 483.36,-481.464"/>
<text text-anchor="middle" x="429" y="-542" font-family="Helvetica,sans-Serif" font-size="10.00"> &#45;my_state</text>
</g>
<!-- Node15 -->
<g id="node15" class="node"><title>Node15</title>
<polygon fill="white" stroke="#bfbfbf" points="318.5,-789 318.5,-857 435.5,-857 435.5,-789 318.5,-789"/>
<text text-anchor="start" x="326.5" y="-845" font-family="Helvetica,sans-Serif" font-size="10.00">internal::atomic_impl</text>
<text text-anchor="middle" x="377" y="-834" font-family="Helvetica,sans-Serif" font-size="10.00">&lt; state_t &gt;</text>
<polyline fill="none" stroke="#bfbfbf" points="318.5,-827 435.5,-827 "/>
<text text-anchor="middle" x="377" y="-815" font-family="Helvetica,sans-Serif" font-size="10.00"> </text>
<polyline fill="none" stroke="#bfbfbf" points="318.5,-808 435.5,-808 "/>
<text text-anchor="middle" x="377" y="-796" font-family="Helvetica,sans-Serif" font-size="10.00"> </text>
</g>
<!-- Node15&#45;&gt;Node14 -->
<g id="edge20" class="edge"><title>Node15&#45;&gt;Node14</title>
<path fill="none" stroke="midnightblue" d="M377,-778.476C377,-748.161 377,-708.349 377,-680.609"/>
<polygon fill="none" stroke="midnightblue" points="373.5,-778.767 377,-788.767 380.5,-778.767 373.5,-778.767"/>
</g>
</g>
</svg>
