<?xml version="1.0" encoding="UTF-8" standalone="no"?>
<!DOCTYPE svg PUBLIC "-//W3C//DTD SVG 1.1//EN"
 "http://www.w3.org/Graphics/SVG/1.1/DTD/svg11.dtd">
<!-- Generated by graphviz version 2.38.0 (20140413.2041)
 -->
<!-- Title: parallel_whileFibBody Pages: 1 -->
<svg width="228pt" height="623pt"
 viewBox="0.00 0.00 228.00 623.00" xmlns="http://www.w3.org/2000/svg" xmlns:xlink="http://www.w3.org/1999/xlink">
<g id="graph0" class="graph" transform="scale(1 1) rotate(0) translate(4 619)">
<title>parallel_whileFibBody</title>
<polygon fill="white" stroke="none" points="-4,4 -4,-619 224,-619 224,4 -4,4"/>
<!-- Node1 -->
<g id="node1" class="node"><title>Node1</title>
<polygon fill="#bfbfbf" stroke="black" points="76,-149.5 76,-217.5 211,-217.5 211,-149.5 76,-149.5"/>
<text text-anchor="middle" x="143.5" y="-205.5" font-family="Helvetica,sans-Serif" font-size="10.00">parallel_whileFibBody</text>
<polyline fill="none" stroke="black" points="76,-198.5 211,-198.5 "/>
<text text-anchor="middle" x="143.5" y="-186.5" font-family="Helvetica,sans-Serif" font-size="10.00"> </text>
<polyline fill="none" stroke="black" points="76,-179.5 211,-179.5 "/>
<text text-anchor="start" x="84" y="-167.5" font-family="Helvetica,sans-Serif" font-size="10.00">+ parallel_whileFibBody()</text>
<text text-anchor="start" x="84" y="-156.5" font-family="Helvetica,sans-Serif" font-size="10.00">+ operator()()</text>
</g>
<!-- Node4 -->
<g id="node4" class="node"><title>Node4</title>
<g id="a_node4"><a xlink:href="../../d6/d5a/classtbb_1_1parallel__while.html" target="_top" xlink:title="{tbb::parallel_while\l\&lt; parallel_whileFibBody \&gt;\n|&#45; my_barrier\l|+ parallel_while()\l+ ~parallel_while()\l+ run()\l+ add()\l}">
<polygon fill="white" stroke="black" points="0,-0.5 0,-101.5 139,-101.5 139,-0.5 0,-0.5"/>
<text text-anchor="start" x="8" y="-89.5" font-family="Helvetica,sans-Serif" font-size="10.00">tbb::parallel_while</text>
<text text-anchor="middle" x="69.5" y="-78.5" font-family="Helvetica,sans-Serif" font-size="10.00">&lt; parallel_whileFibBody &gt;</text>
<polyline fill="none" stroke="black" points="0,-71.5 139,-71.5 "/>
<text text-anchor="start" x="8" y="-59.5" font-family="Helvetica,sans-Serif" font-size="10.00">&#45; my_barrier</text>
<polyline fill="none" stroke="black" points="0,-52.5 139,-52.5 "/>
<text text-anchor="start" x="8" y="-40.5" font-family="Helvetica,sans-Serif" font-size="10.00">+ parallel_while()</text>
<text text-anchor="start" x="8" y="-29.5" font-family="Helvetica,sans-Serif" font-size="10.00">+ ~parallel_while()</text>
<text text-anchor="start" x="8" y="-18.5" font-family="Helvetica,sans-Serif" font-size="10.00">+ run()</text>
<text text-anchor="start" x="8" y="-7.5" font-family="Helvetica,sans-Serif" font-size="10.00">+ add()</text>
</a>
</g>
</g>
<!-- Node1&#45;&gt;Node4 -->
<g id="edge5" class="edge"><title>Node1&#45;&gt;Node4</title>
<path fill="none" stroke="#404040" d="M80.8098,-149.237C75.1179,-143.875 70.1375,-137.809 66.5,-131 63.6968,-125.753 61.9289,-120.018 60.926,-114.111"/>
<polygon fill="none" stroke="#404040" points="60.8989,-113.799 56.3922,-108.17 59.8552,-101.844 64.3619,-107.474 60.8989,-113.799"/>
<text text-anchor="middle" x="92" y="-123" font-family="Helvetica,sans-Serif" font-size="10.00"> &#45;my_body</text>
</g>
<!-- Node2 -->
<g id="node2" class="node"><title>Node2</title>
<g id="a_node2"><a xlink:href="../../dd/d0e/structQueueStream.html" target="_top" xlink:title="Stream of matrices. ">
<polygon fill="white" stroke="black" points="87,-265.5 87,-322.5 200,-322.5 200,-265.5 87,-265.5"/>
<text text-anchor="middle" x="143.5" y="-310.5" font-family="Helvetica,sans-Serif" font-size="10.00">QueueStream</text>
<polyline fill="none" stroke="black" points="87,-303.5 200,-303.5 "/>
<text text-anchor="start" x="95" y="-291.5" font-family="Helvetica,sans-Serif" font-size="10.00">+ producer_is_done</text>
<polyline fill="none" stroke="black" points="87,-284.5 200,-284.5 "/>
<text text-anchor="start" x="95" y="-272.5" font-family="Helvetica,sans-Serif" font-size="10.00">+ pop_if_present()</text>
</a>
</g>
</g>
<!-- Node2&#45;&gt;Node1 -->
<g id="edge1" class="edge"><title>Node2&#45;&gt;Node1</title>
<path fill="none" stroke="#404040" d="M143.5,-265.34C143.5,-254.529 143.5,-241.847 143.5,-229.775"/>
<polygon fill="none" stroke="#404040" points="143.5,-229.519 139.5,-223.519 143.5,-217.519 147.5,-223.519 143.5,-229.519"/>
<text text-anchor="middle" x="174.5" y="-239" font-family="Helvetica,sans-Serif" font-size="10.00"> &#45;my_stream</text>
</g>
<!-- Node3 -->
<g id="node3" class="node"><title>Node3</title>
<g id="a_node3"><a xlink:href="../../d3/d2b/classtbb_1_1concurrent__queue.html" target="_top" xlink:title="{tbb::concurrent_queue\l\&lt; Matrix2x2 \&gt;\n||+ concurrent_queue()\l+ ~concurrent_queue()\l+ push()\l+ pop()\l+ push_if_not_full()\l+ pop_if_present()\l+ size()\l+ empty()\l+ capacity()\l+ set_capacity()\l+ begin()\l+ begin()\l+ end()\l+ end()\l&#45; get_ref()\l&#45; copy_item()\l&#45; assign_and_destroy_item()\l}">
<polygon fill="white" stroke="red" points="67,-370.5 67,-614.5 220,-614.5 220,-370.5 67,-370.5"/>
<text text-anchor="start" x="75" y="-602.5" font-family="Helvetica,sans-Serif" font-size="10.00">tbb::concurrent_queue</text>
<text text-anchor="middle" x="143.5" y="-591.5" font-family="Helvetica,sans-Serif" font-size="10.00">&lt; Matrix2x2 &gt;</text>
<polyline fill="none" stroke="red" points="67,-584.5 220,-584.5 "/>
<text text-anchor="middle" x="143.5" y="-572.5" font-family="Helvetica,sans-Serif" font-size="10.00"> </text>
<polyline fill="none" stroke="red" points="67,-565.5 220,-565.5 "/>
<text text-anchor="start" x="75" y="-553.5" font-family="Helvetica,sans-Serif" font-size="10.00">+ concurrent_queue()</text>
<text text-anchor="start" x="75" y="-542.5" font-family="Helvetica,sans-Serif" font-size="10.00">+ ~concurrent_queue()</text>
<text text-anchor="start" x="75" y="-531.5" font-family="Helvetica,sans-Serif" font-size="10.00">+ push()</text>
<text text-anchor="start" x="75" y="-520.5" font-family="Helvetica,sans-Serif" font-size="10.00">+ pop()</text>
<text text-anchor="start" x="75" y="-509.5" font-family="Helvetica,sans-Serif" font-size="10.00">+ push_if_not_full()</text>
<text text-anchor="start" x="75" y="-498.5" font-family="Helvetica,sans-Serif" font-size="10.00">+ pop_if_present()</text>
<text text-anchor="start" x="75" y="-487.5" font-family="Helvetica,sans-Serif" font-size="10.00">+ size()</text>
<text text-anchor="start" x="75" y="-476.5" font-family="Helvetica,sans-Serif" font-size="10.00">+ empty()</text>
<text text-anchor="start" x="75" y="-465.5" font-family="Helvetica,sans-Serif" font-size="10.00">+ capacity()</text>
<text text-anchor="start" x="75" y="-454.5" font-family="Helvetica,sans-Serif" font-size="10.00">+ set_capacity()</text>
<text text-anchor="start" x="75" y="-443.5" font-family="Helvetica,sans-Serif" font-size="10.00">+ begin()</text>
<text text-anchor="start" x="75" y="-432.5" font-family="Helvetica,sans-Serif" font-size="10.00">+ begin()</text>
<text text-anchor="start" x="75" y="-421.5" font-family="Helvetica,sans-Serif" font-size="10.00">+ end()</text>
<text text-anchor="start" x="75" y="-410.5" font-family="Helvetica,sans-Serif" font-size="10.00">+ end()</text>
<text text-anchor="start" x="75" y="-399.5" font-family="Helvetica,sans-Serif" font-size="10.00">&#45; get_ref()</text>
<text text-anchor="start" x="75" y="-388.5" font-family="Helvetica,sans-Serif" font-size="10.00">&#45; copy_item()</text>
<text text-anchor="start" x="75" y="-377.5" font-family="Helvetica,sans-Serif" font-size="10.00">&#45; assign_and_destroy_item()</text>
</a>
</g>
</g>
<!-- Node3&#45;&gt;Node2 -->
<g id="edge2" class="edge"><title>Node3&#45;&gt;Node2</title>
<path fill="none" stroke="#404040" d="M143.5,-370.41C143.5,-357.72 143.5,-345.569 143.5,-334.867"/>
<polygon fill="none" stroke="#404040" points="143.5,-334.594 139.5,-328.594 143.5,-322.594 147.5,-328.594 143.5,-334.594"/>
<text text-anchor="middle" x="165" y="-344" font-family="Helvetica,sans-Serif" font-size="10.00"> +Queue</text>
</g>
<!-- Node4&#45;&gt;Node1 -->
<g id="edge3" class="edge"><title>Node4&#45;&gt;Node1</title>
<path fill="none" stroke="#404040" d="M110.243,-101.679C114.323,-107.675 118.178,-113.856 121.5,-120 124.501,-125.55 127.225,-131.59 129.654,-137.656"/>
<polygon fill="none" stroke="#404040" points="129.776,-137.982 135.615,-142.213 133.957,-149.231 128.117,-145 129.776,-137.982"/>
<text text-anchor="middle" x="152" y="-123" font-family="Helvetica,sans-Serif" font-size="10.00"> &#45;my_while</text>
</g>
<!-- Node5 -->
<g id="node5" class="node"><title>Node5</title>
<polygon fill="white" stroke="#bfbfbf" points="1.5,-155 1.5,-212 57.5,-212 57.5,-155 1.5,-155"/>
<text text-anchor="middle" x="29.5" y="-200" font-family="Helvetica,sans-Serif" font-size="10.00">no_copy</text>
<polyline fill="none" stroke="#bfbfbf" points="1.5,-193 57.5,-193 "/>
<text text-anchor="middle" x="29.5" y="-181" font-family="Helvetica,sans-Serif" font-size="10.00"> </text>
<polyline fill="none" stroke="#bfbfbf" points="1.5,-174 57.5,-174 "/>
<text text-anchor="middle" x="29.5" y="-162" font-family="Helvetica,sans-Serif" font-size="10.00"> </text>
</g>
<!-- Node5&#45;&gt;Node4 -->
<g id="edge4" class="edge"><title>Node5&#45;&gt;Node4</title>
<path fill="none" stroke="#8b1a1a" d="M40.0914,-144.979C42.4784,-136.735 45.036,-128.061 47.5,-120 49.3136,-114.067 51.258,-107.858 53.2129,-101.706"/>
<polygon fill="none" stroke="#8b1a1a" points="36.6811,-144.174 37.2822,-154.752 43.4087,-146.108 36.6811,-144.174"/>
</g>
</g>
</svg>
