<?xml version="1.0" encoding="UTF-8" standalone="no"?>
<!DOCTYPE svg PUBLIC "-//W3C//DTD SVG 1.1//EN"
 "http://www.w3.org/Graphics/SVG/1.1/DTD/svg11.dtd">
<!-- Generated by graphviz version 2.38.0 (20140413.2041)
 -->
<!-- Title: ArenaObserver Pages: 1 -->
<svg width="187pt" height="431pt"
 viewBox="0.00 0.00 187.00 431.00" xmlns="http://www.w3.org/2000/svg" xmlns:xlink="http://www.w3.org/1999/xlink">
<g id="graph0" class="graph" transform="scale(1 1) rotate(0) translate(4 427)">
<title>ArenaObserver</title>
<polygon fill="white" stroke="none" points="-4,4 -4,-427 183,-427 183,4 -4,4"/>
<!-- Node1 -->
<g id="node1" class="node"><title>Node1</title>
<polygon fill="#bfbfbf" stroke="black" points="25,-0.5 25,-145.5 154,-145.5 154,-0.5 25,-0.5"/>
<text text-anchor="middle" x="89.5" y="-133.5" font-family="Helvetica,sans-Serif" font-size="10.00">ArenaObserver</text>
<polyline fill="none" stroke="black" points="25,-126.5 154,-126.5 "/>
<text text-anchor="start" x="33" y="-114.5" font-family="Helvetica,sans-Serif" font-size="10.00">&#45; myId</text>
<text text-anchor="start" x="33" y="-103.5" font-family="Helvetica,sans-Serif" font-size="10.00">&#45; myMaxConcurrency</text>
<text text-anchor="start" x="33" y="-92.5" font-family="Helvetica,sans-Serif" font-size="10.00">&#45; myNumReservedSlots</text>
<polyline fill="none" stroke="black" points="25,-85.5 154,-85.5 "/>
<text text-anchor="start" x="33" y="-73.5" font-family="Helvetica,sans-Serif" font-size="10.00">+ ArenaObserver()</text>
<text text-anchor="start" x="33" y="-62.5" font-family="Helvetica,sans-Serif" font-size="10.00">+ on_scheduler_entry()</text>
<text text-anchor="start" x="33" y="-51.5" font-family="Helvetica,sans-Serif" font-size="10.00">+ on_scheduler_exit()</text>
<text text-anchor="start" x="33" y="-40.5" font-family="Helvetica,sans-Serif" font-size="10.00">+ ArenaObserver()</text>
<text text-anchor="start" x="33" y="-29.5" font-family="Helvetica,sans-Serif" font-size="10.00">+ ~ArenaObserver()</text>
<text text-anchor="start" x="33" y="-18.5" font-family="Helvetica,sans-Serif" font-size="10.00">&#45; on_scheduler_entry()</text>
<text text-anchor="start" x="33" y="-7.5" font-family="Helvetica,sans-Serif" font-size="10.00">&#45; on_scheduler_exit()</text>
</g>
<!-- Node2 -->
<g id="node2" class="node"><title>Node2</title>
<g id="a_node2"><a xlink:href="../../d4/df7/classtbb_1_1internal_1_1task__scheduler__observer__v3.html" target="_top" xlink:title="{tbb::task_scheduler\l_observer\n|&#45; my_proxy\l|+ observe()\l+ is_observing()\l+ task_scheduler_observer_v3()\l+ on_scheduler_entry()\l+ on_scheduler_exit()\l+ ~task_scheduler_observer_v3()\l}">
<polygon fill="white" stroke="black" points="0,-183.5 0,-306.5 179,-306.5 179,-183.5 0,-183.5"/>
<text text-anchor="start" x="8" y="-294.5" font-family="Helvetica,sans-Serif" font-size="10.00">tbb::task_scheduler</text>
<text text-anchor="middle" x="89.5" y="-283.5" font-family="Helvetica,sans-Serif" font-size="10.00">_observer</text>
<polyline fill="none" stroke="black" points="0,-276.5 179,-276.5 "/>
<text text-anchor="start" x="8" y="-264.5" font-family="Helvetica,sans-Serif" font-size="10.00">&#45; my_proxy</text>
<polyline fill="none" stroke="black" points="0,-257.5 179,-257.5 "/>
<text text-anchor="start" x="8" y="-245.5" font-family="Helvetica,sans-Serif" font-size="10.00">+ observe()</text>
<text text-anchor="start" x="8" y="-234.5" font-family="Helvetica,sans-Serif" font-size="10.00">+ is_observing()</text>
<text text-anchor="start" x="8" y="-223.5" font-family="Helvetica,sans-Serif" font-size="10.00">+ task_scheduler_observer_v3()</text>
<text text-anchor="start" x="8" y="-212.5" font-family="Helvetica,sans-Serif" font-size="10.00">+ on_scheduler_entry()</text>
<text text-anchor="start" x="8" y="-201.5" font-family="Helvetica,sans-Serif" font-size="10.00">+ on_scheduler_exit()</text>
<text text-anchor="start" x="8" y="-190.5" font-family="Helvetica,sans-Serif" font-size="10.00">+ ~task_scheduler_observer_v3()</text>
</a>
</g>
</g>
<!-- Node2&#45;&gt;Node1 -->
<g id="edge1" class="edge"><title>Node2&#45;&gt;Node1</title>
<path fill="none" stroke="midnightblue" d="M82.8326,-173.044C82.7257,-164.03 82.7226,-154.799 82.8232,-145.773"/>
<polygon fill="none" stroke="midnightblue" points="79.334,-173.165 82.9973,-183.106 86.333,-173.05 79.334,-173.165"/>
</g>
<!-- Node2&#45;&gt;Node1 -->
<g id="edge3" class="edge"><title>Node2&#45;&gt;Node1</title>
<path fill="none" stroke="midnightblue" d="M96.1674,-173.044C96.2743,-164.03 96.2774,-154.799 96.1768,-145.773"/>
<polygon fill="none" stroke="midnightblue" points="92.667,-173.05 96.0027,-183.106 99.666,-173.165 92.667,-173.05"/>
</g>
<!-- Node3 -->
<g id="node3" class="node"><title>Node3</title>
<g id="a_node3"><a xlink:href="../../d4/d32/structtbb_1_1atomic.html" target="_top" xlink:title="{tbb::atomic\&lt; intptr_t \&gt;\n||+ operator=()\l+ operator=()\l}">
<polygon fill="white" stroke="red" points="25.5,-354.5 25.5,-422.5 153.5,-422.5 153.5,-354.5 25.5,-354.5"/>
<text text-anchor="middle" x="89.5" y="-410.5" font-family="Helvetica,sans-Serif" font-size="10.00">tbb::atomic&lt; intptr_t &gt;</text>
<polyline fill="none" stroke="red" points="25.5,-403.5 153.5,-403.5 "/>
<text text-anchor="middle" x="89.5" y="-391.5" font-family="Helvetica,sans-Serif" font-size="10.00"> </text>
<polyline fill="none" stroke="red" points="25.5,-384.5 153.5,-384.5 "/>
<text text-anchor="start" x="33.5" y="-372.5" font-family="Helvetica,sans-Serif" font-size="10.00">+ operator=()</text>
<text text-anchor="start" x="33.5" y="-361.5" font-family="Helvetica,sans-Serif" font-size="10.00">+ operator=()</text>
</a>
</g>
</g>
<!-- Node3&#45;&gt;Node2 -->
<g id="edge2" class="edge"><title>Node3&#45;&gt;Node2</title>
<path fill="none" stroke="#404040" d="M89.5,-354.325C89.5,-343.665 89.5,-331.401 89.5,-319.045"/>
<polygon fill="none" stroke="#404040" points="89.5001,-318.713 85.5,-312.713 89.5,-306.713 93.5,-312.713 89.5001,-318.713"/>
<text text-anchor="middle" x="130.5" y="-328" font-family="Helvetica,sans-Serif" font-size="10.00"> &#45;my_busy_count</text>
</g>
</g>
</svg>
