<?xml version="1.0" encoding="UTF-8" standalone="no"?>
<!DOCTYPE svg PUBLIC "-//W3C//DTD SVG 1.1//EN"
 "http://www.w3.org/Graphics/SVG/1.1/DTD/svg11.dtd">
<!-- Generated by graphviz version 2.38.0 (20140413.2041)
 -->
<!-- Title: tbb::internal::rml::padded_private_worker Pages: 1 -->
<!--zoomable 507 -->
<svg id="main" version="1.1" xmlns="http://www.w3.org/2000/svg" xmlns:xlink="http://www.w3.org/1999/xlink" xml:space="preserve" onload="init(evt)">
<style type="text/css"><![CDATA[
.edge:hover path { stroke: red; }
.edge:hover polygon { stroke: red; fill: red; }
]]></style>
<script type="text/javascript"><![CDATA[
var edges = document.getElementsByTagName('g');
if (edges && edges.length) {
  for (var i=0;i<edges.length;i++) {
    if (edges[i].id.substr(0,4)=='edge') {
      edges[i].setAttribute('class','edge');
    }
  }
}
]]></script>
        <defs>
                <circle id="rim" cx="0" cy="0" r="7"/>
                <circle id="rim2" cx="0" cy="0" r="3.5"/>
                <g id="zoomPlus">
                        <use xlink:href="#rim" fill="#404040">
                                <set attributeName="fill" to="#808080" begin="zoomplus.mouseover" end="zoomplus.mouseout"/>
                        </use>
                        <path d="M-4,0h8M0,-4v8" fill="none" stroke="white" stroke-width="1.5" pointer-events="none"/>
                </g>
                <g id="zoomMin">
                        <use xlink:href="#rim" fill="#404040">
                                <set attributeName="fill" to="#808080" begin="zoomminus.mouseover" end="zoomminus.mouseout"/>
                        </use>
                        <path d="M-4,0h8" fill="none" stroke="white" stroke-width="1.5" pointer-events="none"/>
                </g>
                <g id="dirArrow">
                        <path fill="none" stroke="white" stroke-width="1.5" d="M0,-3.0v7 M-2.5,-0.5L0,-3.0L2.5,-0.5"/>
                </g>
               <g id="resetDef">
                       <use xlink:href="#rim2" fill="#404040">
                               <set attributeName="fill" to="#808080" begin="reset.mouseover" end="reset.mouseout"/>
                       </use>
               </g>
        </defs>

<script type="text/javascript">
var viewWidth = 828;
var viewHeight = 507;
var sectionId = 'dynsection-1';
</script>
<script xlink:href="../../svgpan.js"/>
<svg id="graph" class="graph">
<g id="viewport">
<title>tbb::internal::rml::padded_private_worker</title>
<polygon fill="white" stroke="none" points="-4,4 -4,-503 824,-503 824,4 -4,4"/>
<!-- Node1 -->
<g id="node1" class="node"><title>Node1</title>
<polygon fill="#bfbfbf" stroke="black" points="0,-430.5 0,-498.5 146,-498.5 146,-430.5 0,-430.5"/>
<text text-anchor="start" x="8" y="-486.5" font-family="Helvetica,sans-Serif" font-size="10.00">tbb::internal::rml</text>
<text text-anchor="middle" x="73" y="-475.5" font-family="Helvetica,sans-Serif" font-size="10.00">::padded_private_worker</text>
<polyline fill="none" stroke="black" points="0,-468.5 146,-468.5 "/>
<text text-anchor="start" x="8" y="-456.5" font-family="Helvetica,sans-Serif" font-size="10.00">&#45; pad</text>
<polyline fill="none" stroke="black" points="0,-449.5 146,-449.5 "/>
<text text-anchor="start" x="8" y="-437.5" font-family="Helvetica,sans-Serif" font-size="10.00">+ padded_private_worker()</text>
</g>
<!-- Node4 -->
<g id="node4" class="node"><title>Node4</title>
<g id="a_node4"><a xlink:href="../../d8/d40/classtbb_1_1internal_1_1rml_1_1private__server.html" target="_top" xlink:title="{tbb::internal::rml\l::private_server\n|&#45; my_n_thread\l&#45; my_asleep_list_mutex\l|+ private_server()\l+ version()\l+ request_close_connection()\l+ yield()\l+ independent_thread\l_number_changed()\l+ default_concurrency()\l+ adjust_job_count_estimate()\l&#45; propagate_chain_reaction()\l&#45; try_insert_in_asleep_list()\l&#45; wake_some()\l&#45; ~private_server()\l&#45; remove_server_ref()\l}">
<polygon fill="white" stroke="red" points="171,-171.5 171,-382.5 335,-382.5 335,-171.5 171,-171.5"/>
<text text-anchor="start" x="179" y="-370.5" font-family="Helvetica,sans-Serif" font-size="10.00">tbb::internal::rml</text>
<text text-anchor="middle" x="253" y="-359.5" font-family="Helvetica,sans-Serif" font-size="10.00">::private_server</text>
<polyline fill="none" stroke="red" points="171,-352.5 335,-352.5 "/>
<text text-anchor="start" x="179" y="-340.5" font-family="Helvetica,sans-Serif" font-size="10.00">&#45; my_n_thread</text>
<text text-anchor="start" x="179" y="-329.5" font-family="Helvetica,sans-Serif" font-size="10.00">&#45; my_asleep_list_mutex</text>
<polyline fill="none" stroke="red" points="171,-322.5 335,-322.5 "/>
<text text-anchor="start" x="179" y="-310.5" font-family="Helvetica,sans-Serif" font-size="10.00">+ private_server()</text>
<text text-anchor="start" x="179" y="-299.5" font-family="Helvetica,sans-Serif" font-size="10.00">+ version()</text>
<text text-anchor="start" x="179" y="-288.5" font-family="Helvetica,sans-Serif" font-size="10.00">+ request_close_connection()</text>
<text text-anchor="start" x="179" y="-277.5" font-family="Helvetica,sans-Serif" font-size="10.00">+ yield()</text>
<text text-anchor="start" x="179" y="-266.5" font-family="Helvetica,sans-Serif" font-size="10.00">+ independent_thread</text>
<text text-anchor="start" x="179" y="-255.5" font-family="Helvetica,sans-Serif" font-size="10.00">_number_changed()</text>
<text text-anchor="start" x="179" y="-244.5" font-family="Helvetica,sans-Serif" font-size="10.00">+ default_concurrency()</text>
<text text-anchor="start" x="179" y="-233.5" font-family="Helvetica,sans-Serif" font-size="10.00">+ adjust_job_count_estimate()</text>
<text text-anchor="start" x="179" y="-222.5" font-family="Helvetica,sans-Serif" font-size="10.00">&#45; propagate_chain_reaction()</text>
<text text-anchor="start" x="179" y="-211.5" font-family="Helvetica,sans-Serif" font-size="10.00">&#45; try_insert_in_asleep_list()</text>
<text text-anchor="start" x="179" y="-200.5" font-family="Helvetica,sans-Serif" font-size="10.00">&#45; wake_some()</text>
<text text-anchor="start" x="179" y="-189.5" font-family="Helvetica,sans-Serif" font-size="10.00">&#45; ~private_server()</text>
<text text-anchor="start" x="179" y="-178.5" font-family="Helvetica,sans-Serif" font-size="10.00">&#45; remove_server_ref()</text>
</a>
</g>
</g>
<!-- Node1&#45;&gt;Node4 -->
<g id="edge6" class="edge"><title>Node1&#45;&gt;Node4</title>
<path fill="none" stroke="#404040" d="M100.792,-430.276C109.063,-420.68 118.254,-410.294 127,-401 138.21,-389.087 150.239,-376.78 162.255,-364.764"/>
<polygon fill="none" stroke="#404040" points="162.482,-364.538 163.916,-357.471 170.99,-356.076 169.557,-363.143 162.482,-364.538"/>
<text text-anchor="middle" x="171.5" y="-404" font-family="Helvetica,sans-Serif" font-size="10.00"> &#45;my_thread_array</text>
</g>
<!-- Node2 -->
<g id="node2" class="node"><title>Node2</title>
<g id="a_node2"><a xlink:href="../../d6/d0b/classtbb_1_1internal_1_1rml_1_1private__worker.html" target="_top" xlink:title="{tbb::internal::rml\l::private_worker\n|&#45; my_handle\l|# private_worker()\l&#45; run()\l&#45; wake_or_launch()\l&#45; start_shutdown()\l&#45; thread_routine()\l&#45; release_handle()\l}">
<polygon fill="white" stroke="black" points="342.5,-0.5 342.5,-123.5 449.5,-123.5 449.5,-0.5 342.5,-0.5"/>
<text text-anchor="start" x="350.5" y="-111.5" font-family="Helvetica,sans-Serif" font-size="10.00">tbb::internal::rml</text>
<text text-anchor="middle" x="396" y="-100.5" font-family="Helvetica,sans-Serif" font-size="10.00">::private_worker</text>
<polyline fill="none" stroke="black" points="342.5,-93.5 449.5,-93.5 "/>
<text text-anchor="start" x="350.5" y="-81.5" font-family="Helvetica,sans-Serif" font-size="10.00">&#45; my_handle</text>
<polyline fill="none" stroke="black" points="342.5,-74.5 449.5,-74.5 "/>
<text text-anchor="start" x="350.5" y="-62.5" font-family="Helvetica,sans-Serif" font-size="10.00"># private_worker()</text>
<text text-anchor="start" x="350.5" y="-51.5" font-family="Helvetica,sans-Serif" font-size="10.00">&#45; run()</text>
<text text-anchor="start" x="350.5" y="-40.5" font-family="Helvetica,sans-Serif" font-size="10.00">&#45; wake_or_launch()</text>
<text text-anchor="start" x="350.5" y="-29.5" font-family="Helvetica,sans-Serif" font-size="10.00">&#45; start_shutdown()</text>
<text text-anchor="start" x="350.5" y="-18.5" font-family="Helvetica,sans-Serif" font-size="10.00">&#45; thread_routine()</text>
<text text-anchor="start" x="350.5" y="-7.5" font-family="Helvetica,sans-Serif" font-size="10.00">&#45; release_handle()</text>
</a>
</g>
</g>
<!-- Node2&#45;&gt;Node1 -->
<g id="edge1" class="edge"><title>Node2&#45;&gt;Node1</title>
<path fill="none" stroke="midnightblue" d="M332.327,-64.6135C258.353,-70.292 139.051,-92.0343 81,-171 23.9805,-248.563 46.993,-371.571 62.7963,-430.243"/>
<polygon fill="none" stroke="midnightblue" points="332.718,-68.0949 342.453,-63.9145 332.236,-61.1115 332.718,-68.0949"/>
</g>
<!-- Node2&#45;&gt;Node2 -->
<g id="edge3" class="edge"><title>Node2&#45;&gt;Node2</title>
<path fill="none" stroke="#404040" d="M449.632,-77.0492C460.08,-75.3016 467.5,-70.2852 467.5,-62 467.5,-57.3396 465.152,-53.7135 461.239,-51.1216"/>
<polygon fill="none" stroke="#404040" points="460.925,-51.009 453.926,-52.7442 449.632,-46.9508 456.631,-45.2155 460.925,-51.009"/>
<text text-anchor="middle" x="492" y="-59.5" font-family="Helvetica,sans-Serif" font-size="10.00"> &#45;my_next</text>
</g>
<!-- Node3 -->
<g id="node3" class="node"><title>Node3</title>
<polygon fill="white" stroke="#bfbfbf" points="178,-436 178,-493 234,-493 234,-436 178,-436"/>
<text text-anchor="middle" x="206" y="-481" font-family="Helvetica,sans-Serif" font-size="10.00">no_copy</text>
<polyline fill="none" stroke="#bfbfbf" points="178,-474 234,-474 "/>
<text text-anchor="middle" x="206" y="-462" font-family="Helvetica,sans-Serif" font-size="10.00"> </text>
<polyline fill="none" stroke="#bfbfbf" points="178,-455 234,-455 "/>
<text text-anchor="middle" x="206" y="-443" font-family="Helvetica,sans-Serif" font-size="10.00"> </text>
</g>
<!-- Node3&#45;&gt;Node2 -->
<g id="edge2" class="edge"><title>Node3&#45;&gt;Node2</title>
<path fill="none" stroke="#8b1a1a" d="M169.47,-438.462C164.676,-435.487 159.771,-432.591 155,-430 137.511,-420.504 124.882,-428.662 114,-412 54.2798,-320.559 94.0024,-256.465 162,-171 206.99,-114.454 288.343,-86.2707 342.274,-73.169"/>
<polygon fill="none" stroke="#8b1a1a" points="167.612,-441.428 177.926,-443.854 171.376,-435.526 167.612,-441.428"/>
</g>
<!-- Node3&#45;&gt;Node4 -->
<g id="edge5" class="edge"><title>Node3&#45;&gt;Node4</title>
<path fill="none" stroke="#8b1a1a" d="M215.507,-425.98C218.746,-413.192 222.544,-398.203 226.457,-382.761"/>
<polygon fill="none" stroke="#8b1a1a" points="212.1,-425.175 213.036,-435.729 218.885,-426.895 212.1,-425.175"/>
</g>
<!-- Node4&#45;&gt;Node2 -->
<g id="edge4" class="edge"><title>Node4&#45;&gt;Node2</title>
<path fill="none" stroke="#404040" d="M305.134,-171.3C311.156,-161.188 317.485,-151.259 324,-142 327.297,-137.314 330.846,-132.61 334.538,-127.959"/>
<polygon fill="none" stroke="#404040" points="334.676,-127.792 335.386,-120.616 342.284,-118.512 341.573,-125.688 334.676,-127.792"/>
<text text-anchor="middle" x="353" y="-145" font-family="Helvetica,sans-Serif" font-size="10.00"> &#45;my_server</text>
</g>
<!-- Node5 -->
<g id="node5" class="node"><title>Node5</title>
<g id="a_node5"><a xlink:href="../../da/d3f/classtbb_1_1internal_1_1rml_1_1tbb__client.html" target="_top" xlink:title="{tbb::internal::rml\l::tbb_client\n||}">
<polygon fill="white" stroke="red" points="300,-430.5 300,-498.5 396,-498.5 396,-430.5 300,-430.5"/>
<text text-anchor="start" x="308" y="-486.5" font-family="Helvetica,sans-Serif" font-size="10.00">tbb::internal::rml</text>
<text text-anchor="middle" x="348" y="-475.5" font-family="Helvetica,sans-Serif" font-size="10.00">::tbb_client</text>
<polyline fill="none" stroke="red" points="300,-468.5 396,-468.5 "/>
<text text-anchor="middle" x="348" y="-456.5" font-family="Helvetica,sans-Serif" font-size="10.00"> </text>
<polyline fill="none" stroke="red" points="300,-449.5 396,-449.5 "/>
<text text-anchor="middle" x="348" y="-437.5" font-family="Helvetica,sans-Serif" font-size="10.00"> </text>
</a>
</g>
</g>
<!-- Node5&#45;&gt;Node2 -->
<g id="edge10" class="edge"><title>Node5&#45;&gt;Node2</title>
<path fill="none" stroke="#404040" d="M394.558,-430.393C399.581,-424.84 403.962,-418.684 407,-412 412.6,-399.679 405.031,-234.663 399.943,-136.02"/>
<polygon fill="none" stroke="#404040" points="399.928,-135.729 395.622,-129.944 399.305,-123.745 403.611,-129.529 399.928,-135.729"/>
<text text-anchor="middle" x="435.5" y="-274.5" font-family="Helvetica,sans-Serif" font-size="10.00"> &#45;my_client</text>
</g>
<!-- Node5&#45;&gt;Node4 -->
<g id="edge7" class="edge"><title>Node5&#45;&gt;Node4</title>
<path fill="none" stroke="#404040" d="M299.915,-448.841C282.309,-440.894 264.212,-429.093 254,-412 250.728,-406.523 248.146,-400.682 246.143,-394.618"/>
<polygon fill="none" stroke="#404040" points="246.062,-394.314 240.653,-389.545 242.976,-382.718 248.384,-387.487 246.062,-394.314"/>
<text text-anchor="middle" x="280.5" y="-404" font-family="Helvetica,sans-Serif" font-size="10.00"> &#45;my_client</text>
</g>
<!-- Node6 -->
<g id="node6" class="node"><title>Node6</title>
<polygon fill="white" stroke="#bfbfbf" points="438,-436 438,-493 482,-493 482,-436 438,-436"/>
<text text-anchor="middle" x="460" y="-481" font-family="Helvetica,sans-Serif" font-size="10.00">size_t</text>
<polyline fill="none" stroke="#bfbfbf" points="438,-474 482,-474 "/>
<text text-anchor="middle" x="460" y="-462" font-family="Helvetica,sans-Serif" font-size="10.00"> </text>
<polyline fill="none" stroke="#bfbfbf" points="438,-455 482,-455 "/>
<text text-anchor="middle" x="460" y="-443" font-family="Helvetica,sans-Serif" font-size="10.00"> </text>
</g>
<!-- Node6&#45;&gt;Node2 -->
<g id="edge11" class="edge"><title>Node6&#45;&gt;Node2</title>
<path fill="none" stroke="#404040" d="M465.408,-435.791C474.596,-383.03 489.794,-265.016 463,-171 459.435,-158.49 453.958,-146.015 447.64,-134.221"/>
<polygon fill="none" stroke="#404040" points="447.541,-134.045 441.105,-130.792 441.632,-123.6 448.068,-126.853 447.541,-134.045"/>
<text text-anchor="middle" x="504.5" y="-274.5" font-family="Helvetica,sans-Serif" font-size="10.00"> &#45;my_index</text>
</g>
<!-- Node6&#45;&gt;Node4 -->
<g id="edge8" class="edge"><title>Node6&#45;&gt;Node4</title>
<path fill="none" stroke="#404040" d="M437.873,-447.088C424.851,-437.221 408.203,-424.239 394,-412 377.596,-397.863 360.562,-382.401 344.245,-367.164"/>
<polygon fill="none" stroke="#404040" points="344.011,-366.945 336.899,-365.755 335.262,-358.732 342.374,-359.922 344.011,-366.945"/>
<text text-anchor="middle" x="432.5" y="-404" font-family="Helvetica,sans-Serif" font-size="10.00"> &#45;my_stack_size</text>
</g>
<!-- Node7 -->
<g id="node7" class="node"><title>Node7</title>
<g id="a_node7"><a xlink:href="../../d4/db4/classrml_1_1internal_1_1thread__monitor.html" target="_top" xlink:title="Monitor with limited two&#45;phase commit form of wait. ">
<polygon fill="white" stroke="red" points="556,-199 556,-355 674,-355 674,-199 556,-199"/>
<text text-anchor="start" x="564" y="-343" font-family="Helvetica,sans-Serif" font-size="10.00">rml::internal::thread</text>
<text text-anchor="middle" x="615" y="-332" font-family="Helvetica,sans-Serif" font-size="10.00">_monitor</text>
<polyline fill="none" stroke="red" points="556,-325 674,-325 "/>
<text text-anchor="start" x="564" y="-313" font-family="Helvetica,sans-Serif" font-size="10.00">&#45; skipped_wakeup</text>
<polyline fill="none" stroke="red" points="556,-306 674,-306 "/>
<text text-anchor="start" x="564" y="-294" font-family="Helvetica,sans-Serif" font-size="10.00">+ thread_monitor()</text>
<text text-anchor="start" x="564" y="-283" font-family="Helvetica,sans-Serif" font-size="10.00">+ ~thread_monitor()</text>
<text text-anchor="start" x="564" y="-272" font-family="Helvetica,sans-Serif" font-size="10.00">+ notify()</text>
<text text-anchor="start" x="564" y="-261" font-family="Helvetica,sans-Serif" font-size="10.00">+ prepare_wait()</text>
<text text-anchor="start" x="564" y="-250" font-family="Helvetica,sans-Serif" font-size="10.00">+ commit_wait()</text>
<text text-anchor="start" x="564" y="-239" font-family="Helvetica,sans-Serif" font-size="10.00">+ cancel_wait()</text>
<text text-anchor="start" x="564" y="-228" font-family="Helvetica,sans-Serif" font-size="10.00">+ yield()</text>
<text text-anchor="start" x="564" y="-217" font-family="Helvetica,sans-Serif" font-size="10.00">+ join()</text>
<text text-anchor="start" x="564" y="-206" font-family="Helvetica,sans-Serif" font-size="10.00">+ detach_thread()</text>
</a>
</g>
</g>
<!-- Node7&#45;&gt;Node2 -->
<g id="edge9" class="edge"><title>Node7&#45;&gt;Node2</title>
<path fill="none" stroke="#404040" d="M565.765,-198.836C558.279,-189.067 550.275,-179.521 542,-171 517.558,-145.829 486.777,-122.133 459.787,-103.387"/>
<polygon fill="none" stroke="#404040" points="459.553,-103.228 452.343,-103.141 449.649,-96.452 456.86,-96.5384 459.553,-103.228"/>
<text text-anchor="middle" x="571" y="-145" font-family="Helvetica,sans-Serif" font-size="10.00"> &#45;my_thread_monitor</text>
</g>
<!-- Node8 -->
<g id="node8" class="node"><title>Node8</title>
<g id="a_node8"><a xlink:href="../../d4/d32/structtbb_1_1atomic.html" target="_top" xlink:title="{tbb::atomic\&lt; state_t \&gt;\n||+ operator=()\l+ operator=()\l}">
<polygon fill="white" stroke="red" points="692,-243 692,-311 820,-311 820,-243 692,-243"/>
<text text-anchor="middle" x="756" y="-299" font-family="Helvetica,sans-Serif" font-size="10.00">tbb::atomic&lt; state_t &gt;</text>
<polyline fill="none" stroke="red" points="692,-292 820,-292 "/>
<text text-anchor="middle" x="756" y="-280" font-family="Helvetica,sans-Serif" font-size="10.00"> </text>
<polyline fill="none" stroke="red" points="692,-273 820,-273 "/>
<text text-anchor="start" x="700" y="-261" font-family="Helvetica,sans-Serif" font-size="10.00">+ operator=()</text>
<text text-anchor="start" x="700" y="-250" font-family="Helvetica,sans-Serif" font-size="10.00">+ operator=()</text>
</a>
</g>
</g>
<!-- Node8&#45;&gt;Node2 -->
<g id="edge12" class="edge"><title>Node8&#45;&gt;Node2</title>
<path fill="none" stroke="#404040" d="M738.771,-242.958C725.785,-220.491 706.263,-191.278 683,-171 619.379,-115.542 524.493,-87.3535 461.462,-73.928"/>
<polygon fill="none" stroke="#404040" points="461.444,-73.9244 454.763,-76.637 449.689,-71.5128 456.371,-68.8002 461.444,-73.9244"/>
<text text-anchor="middle" x="682" y="-145" font-family="Helvetica,sans-Serif" font-size="10.00"> &#45;my_state</text>
</g>
</g>
</svg>
        <g id="navigator" transform="translate(0 0)" fill="#404254">
                <rect fill="#f2f5e9" fill-opacity="0.5" stroke="#606060" stroke-width=".5" x="0" y="0" width="60" height="60"/>
                <use id="zoomplus" xlink:href="#zoomPlus" x="17" y="9" onmousedown="handleZoom(evt,'in')"/>
                <use id="zoomminus" xlink:href="#zoomMin" x="42" y="9" onmousedown="handleZoom(evt,'out')"/>
                <use id="reset" xlink:href="#resetDef" x="30" y="36" onmousedown="handleReset()"/>
                <g id="arrowUp" xlink:href="#dirArrow" transform="translate(30 24)" onmousedown="handlePan(0,-1)">
                  <use xlink:href="#rim" fill="#404040">
                        <set attributeName="fill" to="#808080" begin="arrowUp.mouseover" end="arrowUp.mouseout"/>
                  </use>
                  <path fill="none" stroke="white" stroke-width="1.5" d="M0,-3.0v7 M-2.5,-0.5L0,-3.0L2.5,-0.5"/>
                </g>
                <g id="arrowRight" xlink:href="#dirArrow" transform="rotate(90) translate(36 -43)" onmousedown="handlePan(1,0)">
                  <use xlink:href="#rim" fill="#404040">
                        <set attributeName="fill" to="#808080" begin="arrowRight.mouseover" end="arrowRight.mouseout"/>
                  </use>
                  <path fill="none" stroke="white" stroke-width="1.5" d="M0,-3.0v7 M-2.5,-0.5L0,-3.0L2.5,-0.5"/>
                </g>
                <g id="arrowDown" xlink:href="#dirArrow" transform="rotate(180) translate(-30 -48)" onmousedown="handlePan(0,1)">
                  <use xlink:href="#rim" fill="#404040">
                        <set attributeName="fill" to="#808080" begin="arrowDown.mouseover" end="arrowDown.mouseout"/>
                  </use>
                  <path fill="none" stroke="white" stroke-width="1.5" d="M0,-3.0v7 M-2.5,-0.5L0,-3.0L2.5,-0.5"/>
                </g>
                <g id="arrowLeft" xlink:href="#dirArrow" transform="rotate(270) translate(-36 17)" onmousedown="handlePan(-1,0)">
                  <use xlink:href="#rim" fill="#404040">
                        <set attributeName="fill" to="#808080" begin="arrowLeft.mouseover" end="arrowLeft.mouseout"/>
                  </use>
                  <path fill="none" stroke="white" stroke-width="1.5" d="M0,-3.0v7 M-2.5,-0.5L0,-3.0L2.5,-0.5"/>
                </g>
        </g>
        <svg viewBox="0 0 15 15" width="100%" height="30px" preserveAspectRatio="xMaxYMin meet">
         <g id="arrow_out" transform="scale(0.3 0.3)">
          <a xlink:href="classtbb_1_1internal_1_1rml_1_1padded__private__worker__coll__graph_org.svg" target="_base">
           <rect id="button" ry="5" rx="5" y="6" x="6" height="38" width="38"
                fill="#f2f5e9" fill-opacity="0.5" stroke="#606060" stroke-width="1.0"/>
           <path id="arrow"
             d="M 11.500037,31.436501 C 11.940474,20.09759 22.043105,11.32322 32.158766,21.979434 L 37.068811,17.246167 C 37.068811,17.246167 37.088388,32 37.088388,32 L 22.160133,31.978069 C 22.160133,31.978069 26.997745,27.140456 26.997745,27.140456 C 18.528582,18.264221 13.291696,25.230495 11.500037,31.436501 z"
             style="fill:#404040;"/>
          </a>
         </g>
        </svg>
</svg>
