<?xml version="1.0" encoding="UTF-8" standalone="no"?>
<!DOCTYPE svg PUBLIC "-//W3C//DTD SVG 1.1//EN"
 "http://www.w3.org/Graphics/SVG/1.1/DTD/svg11.dtd">
<!-- Generated by graphviz version 2.38.0 (20140413.2041)
 -->
<!-- Title: /home/travis/build/ComPWA/ComPWA/Optimizer/Minuit2/MinuitIF.cpp Pages: 1 -->
<svg width="2596pt" height="307pt"
 viewBox="0.00 0.00 2595.96 307.00" xmlns="http://www.w3.org/2000/svg" xmlns:xlink="http://www.w3.org/1999/xlink">
<g id="graph0" class="graph" transform="scale(1 1) rotate(0) translate(4 303)">
<title>/home/travis/build/ComPWA/ComPWA/Optimizer/Minuit2/MinuitIF.cpp</title>
<polygon fill="white" stroke="none" points="-4,4 -4,-303 2591.96,-303 2591.96,4 -4,4"/>
<!-- Node1 -->
<g id="node1" class="node"><title>Node1</title>
<polygon fill="#bfbfbf" stroke="black" points="1360.46,-257.5 1360.46,-298.5 1518.46,-298.5 1518.46,-257.5 1360.46,-257.5"/>
<text text-anchor="start" x="1368.46" y="-286.5" font-family="Helvetica,sans-Serif" font-size="10.00">/home/travis/build</text>
<text text-anchor="start" x="1368.46" y="-275.5" font-family="Helvetica,sans-Serif" font-size="10.00">/ComPWA/ComPWA/Optimizer</text>
<text text-anchor="middle" x="1439.46" y="-264.5" font-family="Helvetica,sans-Serif" font-size="10.00">/Minuit2/MinuitIF.cpp</text>
</g>
<!-- Node2 -->
<g id="node2" class="node"><title>Node2</title>
<g id="a_node2"><a xlink:href="../../da/d15/MinuitIF_8hpp.html" target="_top" xlink:title="MinuitIF.hpp">
<polygon fill="white" stroke="black" points="311.463,-201.5 311.463,-220.5 383.463,-220.5 383.463,-201.5 311.463,-201.5"/>
<text text-anchor="middle" x="347.463" y="-208.5" font-family="Helvetica,sans-Serif" font-size="10.00">MinuitIF.hpp</text>
</a>
</g>
</g>
<!-- Node1&#45;&gt;Node2 -->
<g id="edge1" class="edge"><title>Node1&#45;&gt;Node2</title>
<path fill="none" stroke="midnightblue" d="M1360.05,-272.273C1146,-259.532 561.918,-224.765 393.49,-214.74"/>
<polygon fill="midnightblue" stroke="midnightblue" points="393.655,-211.243 383.465,-214.143 393.239,-218.231 393.655,-211.243"/>
</g>
<!-- Node3 -->
<g id="node3" class="node"><title>Node3</title>
<g id="a_node3"><a xlink:href="../../da/dee/FitParameter_8hpp.html" target="_top" xlink:title="Core/FitParameter.hpp">
<polygon fill="white" stroke="red" points="35.9633,-73 35.9633,-92 158.963,-92 158.963,-73 35.9633,-73"/>
<text text-anchor="middle" x="97.4633" y="-80" font-family="Helvetica,sans-Serif" font-size="10.00">Core/FitParameter.hpp</text>
</a>
</g>
</g>
<!-- Node1&#45;&gt;Node3 -->
<g id="edge15" class="edge"><title>Node1&#45;&gt;Node3</title>
<path fill="none" stroke="midnightblue" d="M1360.41,-273.131C1171.16,-262.898 697.232,-231.242 554.463,-165 534.692,-155.826 536.592,-142.361 516.463,-134 372.866,-74.3537 322.156,-121.585 168.463,-98 161.027,-96.8589 153.191,-95.4598 145.548,-93.9854"/>
<polygon fill="midnightblue" stroke="midnightblue" points="146.152,-90.5369 135.661,-92.0192 144.786,-97.4025 146.152,-90.5369"/>
</g>
<!-- Node4 -->
<g id="node4" class="node"><title>Node4</title>
<g id="a_node4"><a xlink:href="../../da/db4/Logging_8hpp.html" target="_top" xlink:title="Core/Logging.hpp">
<polygon fill="white" stroke="red" points="0.96327,-6 0.96327,-25 101.963,-25 101.963,-6 0.96327,-6"/>
<text text-anchor="middle" x="51.4633" y="-13" font-family="Helvetica,sans-Serif" font-size="10.00">Core/Logging.hpp</text>
</a>
</g>
</g>
<!-- Node1&#45;&gt;Node4 -->
<g id="edge16" class="edge"><title>Node1&#45;&gt;Node4</title>
<path fill="none" stroke="midnightblue" d="M1360.08,-275.73C1091.92,-271.155 229.667,-254.01 109.463,-221 58.8403,-207.098 32.3831,-210.07 5.46327,-165 -0.941086,-154.278 -3.30681,-94.4996 7.46327,-67 12.764,-53.4655 23.3786,-41.1082 32.854,-32.0053"/>
<polygon fill="midnightblue" stroke="midnightblue" points="35.3398,-34.4762 40.4038,-25.1699 30.6416,-29.287 35.3398,-34.4762"/>
</g>
<!-- Node5 -->
<g id="node5" class="node"><title>Node5</title>
<polygon fill="white" stroke="#bfbfbf" points="1013.46,-6 1013.46,-25 1057.46,-25 1057.46,-6 1013.46,-6"/>
<text text-anchor="middle" x="1035.46" y="-13" font-family="Helvetica,sans-Serif" font-size="10.00">string</text>
</g>
<!-- Node1&#45;&gt;Node5 -->
<g id="edge39" class="edge"><title>Node1&#45;&gt;Node5</title>
<path fill="none" stroke="midnightblue" d="M1360.15,-268.305C1292.73,-259.489 1202.53,-243.869 1174.46,-221 1141.75,-194.35 1158.91,-169.729 1136.46,-134 1111.47,-94.2108 1073.56,-54.0131 1051.99,-32.4907"/>
<polygon fill="midnightblue" stroke="midnightblue" points="1054.17,-29.7224 1044.59,-25.1963 1049.26,-34.7083 1054.17,-29.7224"/>
</g>
<!-- Node6 -->
<g id="node6" class="node"><title>Node6</title>
<polygon fill="white" stroke="#bfbfbf" points="119.963,-6 119.963,-25 166.963,-25 166.963,-6 119.963,-6"/>
<text text-anchor="middle" x="143.463" y="-13" font-family="Helvetica,sans-Serif" font-size="10.00">vector</text>
</g>
<!-- Node1&#45;&gt;Node6 -->
<g id="edge40" class="edge"><title>Node1&#45;&gt;Node6</title>
<path fill="none" stroke="midnightblue" d="M1360.43,-277.193C1075.21,-277.034 111.297,-268.775 26.4633,-165 -1.10353,-131.278 2.48633,-103.362 26.4633,-67 48.8228,-33.0909 73.2032,-47.1698 110.463,-31 111.827,-30.4083 113.221,-29.8016 114.629,-29.1878"/>
<polygon fill="midnightblue" stroke="midnightblue" points="116.174,-32.3321 123.932,-25.1168 113.368,-25.9192 116.174,-32.3321"/>
</g>
<!-- Node7 -->
<g id="node7" class="node"><title>Node7</title>
<polygon fill="white" stroke="#bfbfbf" points="515.463,-0.5 515.463,-30.5 619.463,-30.5 619.463,-0.5 515.463,-0.5"/>
<text text-anchor="start" x="523.463" y="-18.5" font-family="Helvetica,sans-Serif" font-size="10.00">boost/serialization</text>
<text text-anchor="middle" x="567.463" y="-7.5" font-family="Helvetica,sans-Serif" font-size="10.00">/nvp.hpp</text>
</g>
<!-- Node1&#45;&gt;Node7 -->
<g id="edge28" class="edge"><title>Node1&#45;&gt;Node7</title>
<path fill="none" stroke="midnightblue" d="M1360.05,-277.75C1248.33,-277.04 1052.83,-268.755 1003.46,-221 953.625,-172.789 1028.43,-115.074 978.463,-67 953.808,-43.2803 738.566,-26.9132 629.807,-20.0794"/>
<polygon fill="midnightblue" stroke="midnightblue" points="629.822,-16.5737 619.625,-19.4479 629.389,-23.5603 629.822,-16.5737"/>
</g>
<!-- Node12 -->
<g id="node12" class="node"><title>Node12</title>
<g id="a_node12"><a xlink:href="../../d2/de9/Exceptions_8hpp.html" target="_top" xlink:title="ComPWA exceptions. ">
<polygon fill="white" stroke="black" points="1011.96,-201.5 1011.96,-220.5 1126.96,-220.5 1126.96,-201.5 1011.96,-201.5"/>
<text text-anchor="middle" x="1069.46" y="-208.5" font-family="Helvetica,sans-Serif" font-size="10.00">Core/Exceptions.hpp</text>
</a>
</g>
</g>
<!-- Node1&#45;&gt;Node12 -->
<g id="edge12" class="edge"><title>Node1&#45;&gt;Node12</title>
<path fill="none" stroke="midnightblue" d="M1360.09,-263.056C1290.39,-250.812 1190.62,-233.284 1127.97,-222.279"/>
<polygon fill="midnightblue" stroke="midnightblue" points="1128.32,-218.787 1117.87,-220.503 1127.11,-225.681 1128.32,-218.787"/>
</g>
<!-- Node14 -->
<g id="node14" class="node"><title>Node14</title>
<g id="a_node14"><a xlink:href="../../d7/d09/Utils_8hpp.html" target="_top" xlink:title="Core/Utils.hpp">
<polygon fill="white" stroke="black" points="563.463,-140 563.463,-159 647.463,-159 647.463,-140 563.463,-140"/>
<text text-anchor="middle" x="605.463" y="-147" font-family="Helvetica,sans-Serif" font-size="10.00">Core/Utils.hpp</text>
</a>
</g>
</g>
<!-- Node1&#45;&gt;Node14 -->
<g id="edge17" class="edge"><title>Node1&#45;&gt;Node14</title>
<path fill="none" stroke="midnightblue" d="M1360.22,-269.335C1266.6,-259.869 1106.27,-242.369 969.463,-221 856.11,-203.294 724.153,-176.069 654.444,-161.163"/>
<polygon fill="midnightblue" stroke="midnightblue" points="655.132,-157.731 644.62,-159.055 653.663,-164.575 655.132,-157.731"/>
</g>
<!-- Node21 -->
<g id="node21" class="node"><title>Node21</title>
<polygon fill="white" stroke="#bfbfbf" points="1183.46,-201.5 1183.46,-220.5 1347.46,-220.5 1347.46,-201.5 1183.46,-201.5"/>
<text text-anchor="middle" x="1265.46" y="-208.5" font-family="Helvetica,sans-Serif" font-size="10.00">boost/archive/xml_iarchive.hpp</text>
</g>
<!-- Node1&#45;&gt;Node21 -->
<g id="edge27" class="edge"><title>Node1&#45;&gt;Node21</title>
<path fill="none" stroke="midnightblue" d="M1387.26,-257.498C1358.27,-246.67 1323.12,-233.537 1298.04,-224.17"/>
<polygon fill="midnightblue" stroke="midnightblue" points="1299.22,-220.873 1288.63,-220.652 1296.77,-227.431 1299.22,-220.873"/>
</g>
<!-- Node22 -->
<g id="node22" class="node"><title>Node22</title>
<polygon fill="white" stroke="#bfbfbf" points="1365.96,-201.5 1365.96,-220.5 1512.96,-220.5 1512.96,-201.5 1365.96,-201.5"/>
<text text-anchor="middle" x="1439.46" y="-208.5" font-family="Helvetica,sans-Serif" font-size="10.00">Minuit2/FunctionMinimum.h</text>
</g>
<!-- Node1&#45;&gt;Node22 -->
<g id="edge29" class="edge"><title>Node1&#45;&gt;Node22</title>
<path fill="none" stroke="midnightblue" d="M1439.46,-257.498C1439.46,-249.065 1439.46,-239.235 1439.46,-230.874"/>
<polygon fill="midnightblue" stroke="midnightblue" points="1442.96,-230.652 1439.46,-220.652 1435.96,-230.653 1442.96,-230.652"/>
</g>
<!-- Node23 -->
<g id="node23" class="node"><title>Node23</title>
<polygon fill="white" stroke="#bfbfbf" points="1530.96,-201.5 1530.96,-220.5 1643.96,-220.5 1643.96,-201.5 1530.96,-201.5"/>
<text text-anchor="middle" x="1587.46" y="-208.5" font-family="Helvetica,sans-Serif" font-size="10.00">Minuit2/MinosError.h</text>
</g>
<!-- Node1&#45;&gt;Node23 -->
<g id="edge30" class="edge"><title>Node1&#45;&gt;Node23</title>
<path fill="none" stroke="midnightblue" d="M1483.87,-257.498C1507.98,-246.909 1537.1,-234.117 1558.33,-224.797"/>
<polygon fill="midnightblue" stroke="midnightblue" points="1560.01,-227.878 1567.76,-220.652 1557.2,-221.469 1560.01,-227.878"/>
</g>
<!-- Node24 -->
<g id="node24" class="node"><title>Node24</title>
<polygon fill="white" stroke="#bfbfbf" points="1661.96,-201.5 1661.96,-220.5 1768.96,-220.5 1768.96,-201.5 1661.96,-201.5"/>
<text text-anchor="middle" x="1715.46" y="-208.5" font-family="Helvetica,sans-Serif" font-size="10.00">Minuit2/MnHesse.h</text>
</g>
<!-- Node1&#45;&gt;Node24 -->
<g id="edge31" class="edge"><title>Node1&#45;&gt;Node24</title>
<path fill="none" stroke="midnightblue" d="M1518.55,-258.374C1567.31,-246.892 1628.14,-232.566 1669.18,-222.899"/>
<polygon fill="midnightblue" stroke="midnightblue" points="1670.24,-226.246 1679.17,-220.547 1668.64,-219.432 1670.24,-226.246"/>
</g>
<!-- Node25 -->
<g id="node25" class="node"><title>Node25</title>
<polygon fill="white" stroke="#bfbfbf" points="1787.46,-201.5 1787.46,-220.5 1897.46,-220.5 1897.46,-201.5 1787.46,-201.5"/>
<text text-anchor="middle" x="1842.46" y="-208.5" font-family="Helvetica,sans-Serif" font-size="10.00">Minuit2/MnMigrad.h</text>
</g>
<!-- Node1&#45;&gt;Node25 -->
<g id="edge32" class="edge"><title>Node1&#45;&gt;Node25</title>
<path fill="none" stroke="midnightblue" d="M1518.6,-264.236C1594.96,-251.92 1709.05,-233.518 1779.45,-222.163"/>
<polygon fill="midnightblue" stroke="midnightblue" points="1780.2,-225.588 1789.51,-220.54 1779.08,-218.678 1780.2,-225.588"/>
</g>
<!-- Node26 -->
<g id="node26" class="node"><title>Node26</title>
<polygon fill="white" stroke="#bfbfbf" points="1915.96,-201.5 1915.96,-220.5 2020.96,-220.5 2020.96,-201.5 1915.96,-201.5"/>
<text text-anchor="middle" x="1968.46" y="-208.5" font-family="Helvetica,sans-Serif" font-size="10.00">Minuit2/MnMinos.h</text>
</g>
<!-- Node1&#45;&gt;Node26 -->
<g id="edge33" class="edge"><title>Node1&#45;&gt;Node26</title>
<path fill="none" stroke="midnightblue" d="M1518.86,-268.086C1609.67,-257.755 1763.07,-239.884 1905.48,-221.102"/>
<polygon fill="midnightblue" stroke="midnightblue" points="1906.26,-224.53 1915.71,-219.749 1905.34,-217.59 1906.26,-224.53"/>
</g>
<!-- Node27 -->
<g id="node27" class="node"><title>Node27</title>
<polygon fill="white" stroke="#bfbfbf" points="2038.96,-201.5 2038.96,-220.5 2137.96,-220.5 2137.96,-201.5 2038.96,-201.5"/>
<text text-anchor="middle" x="2088.46" y="-208.5" font-family="Helvetica,sans-Serif" font-size="10.00">Minuit2/MnPrint.h</text>
</g>
<!-- Node1&#45;&gt;Node27 -->
<g id="edge34" class="edge"><title>Node1&#45;&gt;Node27</title>
<path fill="none" stroke="midnightblue" d="M1518.49,-271.015C1630,-262.234 1840.11,-244.463 2028.71,-221.159"/>
<polygon fill="midnightblue" stroke="midnightblue" points="2029.32,-224.61 2038.82,-219.903 2028.46,-217.663 2029.32,-224.61"/>
</g>
<!-- Node28 -->
<g id="node28" class="node"><title>Node28</title>
<polygon fill="white" stroke="#bfbfbf" points="2155.96,-201.5 2155.96,-220.5 2272.96,-220.5 2272.96,-201.5 2155.96,-201.5"/>
<text text-anchor="middle" x="2214.46" y="-208.5" font-family="Helvetica,sans-Serif" font-size="10.00">Minuit2/MnStrategy.h</text>
</g>
<!-- Node1&#45;&gt;Node28 -->
<g id="edge35" class="edge"><title>Node1&#45;&gt;Node28</title>
<path fill="none" stroke="midnightblue" d="M1518.7,-272.15C1647.87,-263.929 1912.11,-245.807 2145.62,-221.15"/>
<polygon fill="midnightblue" stroke="midnightblue" points="2146.08,-224.62 2155.66,-220.084 2145.35,-217.66 2146.08,-224.62"/>
</g>
<!-- Node29 -->
<g id="node29" class="node"><title>Node29</title>
<polygon fill="white" stroke="#bfbfbf" points="2290.96,-201.5 2290.96,-220.5 2445.96,-220.5 2445.96,-201.5 2290.96,-201.5"/>
<text text-anchor="middle" x="2368.46" y="-208.5" font-family="Helvetica,sans-Serif" font-size="10.00">Minuit2/MnUserParameters.h</text>
</g>
<!-- Node1&#45;&gt;Node29 -->
<g id="edge36" class="edge"><title>Node1&#45;&gt;Node29</title>
<path fill="none" stroke="midnightblue" d="M1518.57,-272.749C1666.23,-264.593 1994.07,-245.449 2280.49,-221.143"/>
<polygon fill="midnightblue" stroke="midnightblue" points="2280.99,-224.612 2290.66,-220.276 2280.4,-217.638 2280.99,-224.612"/>
</g>
<!-- Node30 -->
<g id="node30" class="node"><title>Node30</title>
<polygon fill="white" stroke="#bfbfbf" points="2464.46,-201.5 2464.46,-220.5 2514.46,-220.5 2514.46,-201.5 2464.46,-201.5"/>
<text text-anchor="middle" x="2489.46" y="-208.5" font-family="Helvetica,sans-Serif" font-size="10.00">chrono</text>
</g>
<!-- Node1&#45;&gt;Node30 -->
<g id="edge37" class="edge"><title>Node1&#45;&gt;Node30</title>
<path fill="none" stroke="midnightblue" d="M1518.52,-274.726C1721.19,-268.568 2256.59,-250.148 2454.33,-220.803"/>
<polygon fill="midnightblue" stroke="midnightblue" points="2454.98,-224.244 2464.33,-219.262 2453.92,-217.325 2454.98,-224.244"/>
</g>
<!-- Node31 -->
<g id="node31" class="node"><title>Node31</title>
<polygon fill="white" stroke="#bfbfbf" points="2532.96,-201.5 2532.96,-220.5 2587.96,-220.5 2587.96,-201.5 2532.96,-201.5"/>
<text text-anchor="middle" x="2560.46" y="-208.5" font-family="Helvetica,sans-Serif" font-size="10.00">iomanip</text>
</g>
<!-- Node1&#45;&gt;Node31 -->
<g id="edge38" class="edge"><title>Node1&#45;&gt;Node31</title>
<path fill="none" stroke="midnightblue" d="M1518.66,-274.832C1730.94,-268.719 2310.35,-249.974 2522.56,-220.787"/>
<polygon fill="midnightblue" stroke="midnightblue" points="2523.29,-224.22 2532.69,-219.345 2522.3,-217.29 2523.29,-224.22"/>
</g>
<!-- Node2&#45;&gt;Node3 -->
<g id="edge2" class="edge"><title>Node2&#45;&gt;Node3</title>
<path fill="none" stroke="midnightblue" d="M347.886,-201.279C348.144,-185.469 346.266,-152.043 327.463,-134 324.202,-130.87 215.6,-107.947 148.814,-94.0839"/>
<polygon fill="midnightblue" stroke="midnightblue" points="149.382,-90.6272 138.88,-92.0244 147.961,-97.4815 149.382,-90.6272"/>
</g>
<!-- Node8 -->
<g id="node8" class="node"><title>Node8</title>
<g id="a_node8"><a xlink:href="../../de/d83/MinuitFcn_8hpp.html" target="_top" xlink:title="Optimizer/Minuit2/Minuit\lFcn.hpp">
<polygon fill="white" stroke="red" points="375.463,-134.5 375.463,-164.5 507.463,-164.5 507.463,-134.5 375.463,-134.5"/>
<text text-anchor="start" x="383.463" y="-152.5" font-family="Helvetica,sans-Serif" font-size="10.00">Optimizer/Minuit2/Minuit</text>
<text text-anchor="middle" x="441.463" y="-141.5" font-family="Helvetica,sans-Serif" font-size="10.00">Fcn.hpp</text>
</a>
</g>
</g>
<!-- Node2&#45;&gt;Node8 -->
<g id="edge7" class="edge"><title>Node2&#45;&gt;Node8</title>
<path fill="none" stroke="midnightblue" d="M360.931,-201.475C373.9,-193.266 393.977,-180.558 410.839,-169.885"/>
<polygon fill="midnightblue" stroke="midnightblue" points="412.732,-172.829 419.309,-164.523 408.988,-166.914 412.732,-172.829"/>
</g>
<!-- Node10 -->
<g id="node10" class="node"><title>Node10</title>
<g id="a_node10"><a xlink:href="../../d3/d89/MinuitResult_8hpp.html" target="_top" xlink:title="Optimizer/Minuit2/Minuit\lResult.hpp">
<polygon fill="white" stroke="red" points="35.4633,-134.5 35.4633,-164.5 167.463,-164.5 167.463,-134.5 35.4633,-134.5"/>
<text text-anchor="start" x="43.4633" y="-152.5" font-family="Helvetica,sans-Serif" font-size="10.00">Optimizer/Minuit2/Minuit</text>
<text text-anchor="middle" x="101.463" y="-141.5" font-family="Helvetica,sans-Serif" font-size="10.00">Result.hpp</text>
</a>
</g>
</g>
<!-- Node2&#45;&gt;Node10 -->
<g id="edge9" class="edge"><title>Node2&#45;&gt;Node10</title>
<path fill="none" stroke="midnightblue" d="M312.217,-201.475C275.086,-192.494 215.691,-178.128 169.404,-166.933"/>
<polygon fill="midnightblue" stroke="midnightblue" points="169.983,-163.472 159.441,-164.523 168.337,-170.276 169.983,-163.472"/>
</g>
<!-- Node11 -->
<g id="node11" class="node"><title>Node11</title>
<g id="a_node11"><a xlink:href="../../db/d93/Optimizer_8hpp.html" target="_top" xlink:title="Optimizer/Optimizer.hpp">
<polygon fill="white" stroke="red" points="185.963,-140 185.963,-159 318.963,-159 318.963,-140 185.963,-140"/>
<text text-anchor="middle" x="252.463" y="-147" font-family="Helvetica,sans-Serif" font-size="10.00">Optimizer/Optimizer.hpp</text>
</a>
</g>
</g>
<!-- Node2&#45;&gt;Node11 -->
<g id="edge10" class="edge"><title>Node2&#45;&gt;Node11</title>
<path fill="none" stroke="midnightblue" d="M333.852,-201.475C318.403,-191.799 292.973,-175.872 274.647,-164.394"/>
<polygon fill="midnightblue" stroke="midnightblue" points="276.382,-161.351 266.049,-159.009 272.666,-167.283 276.382,-161.351"/>
</g>
<!-- Node3&#45;&gt;Node4 -->
<g id="edge3" class="edge"><title>Node3&#45;&gt;Node4</title>
<path fill="none" stroke="midnightblue" d="M91.2595,-72.7338C84.1554,-62.6953 72.3504,-46.0145 63.4383,-33.4213"/>
<polygon fill="midnightblue" stroke="midnightblue" points="66.2024,-31.2682 57.5687,-25.1273 60.4885,-35.3119 66.2024,-31.2682"/>
</g>
<!-- Node3&#45;&gt;Node5 -->
<g id="edge4" class="edge"><title>Node3&#45;&gt;Node5</title>
<path fill="none" stroke="midnightblue" d="M134.145,-72.9653C145.127,-70.6931 157.236,-68.4658 168.463,-67 334.59,-45.3118 865.648,-23.2223 1002.86,-17.7721"/>
<polygon fill="midnightblue" stroke="midnightblue" points="1003.27,-21.2587 1013.12,-17.3663 1002.99,-14.2641 1003.27,-21.2587"/>
</g>
<!-- Node3&#45;&gt;Node6 -->
<g id="edge5" class="edge"><title>Node3&#45;&gt;Node6</title>
<path fill="none" stroke="midnightblue" d="M103.667,-72.7338C110.771,-62.6953 122.576,-46.0145 131.488,-33.4213"/>
<polygon fill="midnightblue" stroke="midnightblue" points="134.438,-35.3119 137.358,-25.1273 128.724,-31.2682 134.438,-35.3119"/>
</g>
<!-- Node3&#45;&gt;Node7 -->
<g id="edge6" class="edge"><title>Node3&#45;&gt;Node7</title>
<path fill="none" stroke="midnightblue" d="M136.427,-72.991C146.808,-70.8751 158.037,-68.722 168.463,-67 286.973,-47.4278 426.381,-31.3562 505.087,-22.9186"/>
<polygon fill="midnightblue" stroke="midnightblue" points="505.741,-26.3688 515.314,-21.8286 505,-19.4082 505.741,-26.3688"/>
</g>
<!-- Node9 -->
<g id="node9" class="node"><title>Node9</title>
<polygon fill="white" stroke="#bfbfbf" points="177.463,-73 177.463,-92 233.463,-92 233.463,-73 177.463,-73"/>
<text text-anchor="middle" x="205.463" y="-80" font-family="Helvetica,sans-Serif" font-size="10.00">sstream</text>
</g>
<!-- Node8&#45;&gt;Node9 -->
<g id="edge8" class="edge"><title>Node8&#45;&gt;Node9</title>
<path fill="none" stroke="midnightblue" d="M377.705,-134.463C338.374,-125.276 287.086,-112.344 242.463,-98 240.191,-97.2696 237.857,-96.4719 235.52,-95.6383"/>
<polygon fill="midnightblue" stroke="midnightblue" points="236.634,-92.3182 226.042,-92.0905 234.18,-98.874 236.634,-92.3182"/>
</g>
<!-- Node11&#45;&gt;Node3 -->
<g id="edge11" class="edge"><title>Node11&#45;&gt;Node3</title>
<path fill="none" stroke="midnightblue" d="M231.88,-139.869C205.13,-128.65 158.215,-108.977 127.491,-96.0925"/>
<polygon fill="midnightblue" stroke="midnightblue" points="128.707,-92.8068 118.131,-92.1672 126,-99.2622 128.707,-92.8068"/>
</g>
<!-- Node12&#45;&gt;Node5 -->
<g id="edge14" class="edge"><title>Node12&#45;&gt;Node5</title>
<path fill="none" stroke="midnightblue" d="M1066.34,-201.489C1063.17,-192.524 1058.33,-177.942 1055.46,-165 1045.29,-119.013 1039.5,-63.7949 1036.99,-35.4057"/>
<polygon fill="midnightblue" stroke="midnightblue" points="1040.46,-34.9625 1036.13,-25.2937 1033.49,-35.5535 1040.46,-34.9625"/>
</g>
<!-- Node13 -->
<g id="node13" class="node"><title>Node13</title>
<polygon fill="white" stroke="#bfbfbf" points="1063.96,-140 1063.96,-159 1126.96,-159 1126.96,-140 1063.96,-140"/>
<text text-anchor="middle" x="1095.46" y="-147" font-family="Helvetica,sans-Serif" font-size="10.00">exception</text>
</g>
<!-- Node12&#45;&gt;Node13 -->
<g id="edge13" class="edge"><title>Node12&#45;&gt;Node13</title>
<path fill="none" stroke="midnightblue" d="M1073.19,-201.475C1076.93,-192.904 1082.82,-179.427 1087.61,-168.483"/>
<polygon fill="midnightblue" stroke="midnightblue" points="1090.95,-169.574 1091.75,-159.009 1084.53,-166.771 1090.95,-169.574"/>
</g>
<!-- Node14&#45;&gt;Node4 -->
<g id="edge18" class="edge"><title>Node14&#45;&gt;Node4</title>
<path fill="none" stroke="midnightblue" d="M572.915,-139.968C565.231,-137.983 557.064,-135.896 549.463,-134 482.942,-117.407 459.799,-130.559 399.463,-98 381.754,-88.4435 384.61,-75.6972 366.463,-67 262.852,-17.3411 223.285,-52.7386 110.463,-31 105.026,-29.9523 99.337,-28.7245 93.7288,-27.4345"/>
<polygon fill="midnightblue" stroke="midnightblue" points="94.3314,-23.9802 83.7929,-25.0708 92.7114,-30.7902 94.3314,-23.9802"/>
</g>
<!-- Node14&#45;&gt;Node6 -->
<g id="edge26" class="edge"><title>Node14&#45;&gt;Node6</title>
<path fill="none" stroke="midnightblue" d="M573.454,-139.911C532.927,-128.808 465.596,-109.534 442.463,-98 421.379,-87.4872 421.073,-76.3847 399.463,-67 324.206,-34.3175 227.298,-22.6027 177.043,-18.5457"/>
<polygon fill="midnightblue" stroke="midnightblue" points="177.288,-15.0543 167.052,-17.7914 176.76,-22.0344 177.288,-15.0543"/>
</g>
<!-- Node14&#45;&gt;Node9 -->
<g id="edge25" class="edge"><title>Node14&#45;&gt;Node9</title>
<path fill="none" stroke="midnightblue" d="M575.698,-139.988C567.27,-137.797 558.051,-135.608 549.463,-134 414.429,-108.723 375.736,-131.337 242.463,-98 239.794,-97.3324 237.059,-96.521 234.343,-95.6267"/>
<polygon fill="midnightblue" stroke="midnightblue" points="235.337,-92.264 224.743,-92.1343 232.944,-98.8422 235.337,-92.264"/>
</g>
<!-- Node15 -->
<g id="node15" class="node"><title>Node15</title>
<polygon fill="white" stroke="#bfbfbf" points="707.463,-67.5 707.463,-97.5 829.463,-97.5 829.463,-67.5 707.463,-67.5"/>
<text text-anchor="start" x="715.463" y="-85.5" font-family="Helvetica,sans-Serif" font-size="10.00">boost/algorithm/string</text>
<text text-anchor="middle" x="768.463" y="-74.5" font-family="Helvetica,sans-Serif" font-size="10.00">/predicate.hpp</text>
</g>
<!-- Node14&#45;&gt;Node15 -->
<g id="edge19" class="edge"><title>Node14&#45;&gt;Node15</title>
<path fill="none" stroke="midnightblue" d="M627.108,-139.869C651.673,-130.073 692.406,-113.83 723.852,-101.29"/>
<polygon fill="midnightblue" stroke="midnightblue" points="725.293,-104.483 733.285,-97.5281 722.7,-97.9812 725.293,-104.483"/>
</g>
<!-- Node16 -->
<g id="node16" class="node"><title>Node16</title>
<polygon fill="white" stroke="#bfbfbf" points="847.463,-67.5 847.463,-97.5 969.463,-97.5 969.463,-67.5 847.463,-67.5"/>
<text text-anchor="start" x="855.463" y="-85.5" font-family="Helvetica,sans-Serif" font-size="10.00">boost/algorithm/string</text>
<text text-anchor="middle" x="908.463" y="-74.5" font-family="Helvetica,sans-Serif" font-size="10.00">/trim.hpp</text>
</g>
<!-- Node14&#45;&gt;Node16 -->
<g id="edge20" class="edge"><title>Node14&#45;&gt;Node16</title>
<path fill="none" stroke="midnightblue" d="M645.387,-139.936C694.074,-129.491 777.26,-111.646 837.067,-98.8161"/>
<polygon fill="midnightblue" stroke="midnightblue" points="838.157,-102.162 847.2,-96.6422 836.689,-95.3176 838.157,-102.162"/>
</g>
<!-- Node17 -->
<g id="node17" class="node"><title>Node17</title>
<polygon fill="white" stroke="#bfbfbf" points="251.463,-73 251.463,-92 357.463,-92 357.463,-73 251.463,-73"/>
<text text-anchor="middle" x="304.463" y="-80" font-family="Helvetica,sans-Serif" font-size="10.00">boost/optional.hpp</text>
</g>
<!-- Node14&#45;&gt;Node17 -->
<g id="edge21" class="edge"><title>Node14&#45;&gt;Node17</title>
<path fill="none" stroke="midnightblue" d="M573.847,-139.997C565.907,-137.949 557.39,-135.826 549.463,-134 470.811,-115.878 450.464,-114.537 371.463,-98 365.643,-96.7816 359.541,-95.4864 353.491,-94.1908"/>
<polygon fill="midnightblue" stroke="midnightblue" points="353.928,-90.7048 343.416,-92.0235 352.456,-97.5482 353.928,-90.7048"/>
</g>
<!-- Node18 -->
<g id="node18" class="node"><title>Node18</title>
<polygon fill="white" stroke="#bfbfbf" points="451.463,-67.5 451.463,-97.5 563.463,-97.5 563.463,-67.5 451.463,-67.5"/>
<text text-anchor="start" x="459.463" y="-85.5" font-family="Helvetica,sans-Serif" font-size="10.00">boost/property_tree</text>
<text text-anchor="middle" x="507.463" y="-74.5" font-family="Helvetica,sans-Serif" font-size="10.00">/ptree.hpp</text>
</g>
<!-- Node14&#45;&gt;Node18 -->
<g id="edge22" class="edge"><title>Node14&#45;&gt;Node18</title>
<path fill="none" stroke="midnightblue" d="M592.247,-139.734C578.238,-130.443 555.65,-115.461 537.311,-103.297"/>
<polygon fill="midnightblue" stroke="midnightblue" points="538.973,-100.2 528.705,-97.589 535.104,-106.033 538.973,-100.2"/>
</g>
<!-- Node19 -->
<g id="node19" class="node"><title>Node19</title>
<polygon fill="white" stroke="#bfbfbf" points="581.963,-73 581.963,-92 628.963,-92 628.963,-73 581.963,-73"/>
<text text-anchor="middle" x="605.463" y="-80" font-family="Helvetica,sans-Serif" font-size="10.00">cmath</text>
</g>
<!-- Node14&#45;&gt;Node19 -->
<g id="edge23" class="edge"><title>Node14&#45;&gt;Node19</title>
<path fill="none" stroke="midnightblue" d="M605.463,-139.734C605.463,-130.183 605.463,-114.618 605.463,-102.283"/>
<polygon fill="midnightblue" stroke="midnightblue" points="608.963,-102.127 605.463,-92.1273 601.963,-102.127 608.963,-102.127"/>
</g>
<!-- Node20 -->
<g id="node20" class="node"><title>Node20</title>
<polygon fill="white" stroke="#bfbfbf" points="647.463,-73 647.463,-92 689.463,-92 689.463,-73 647.463,-73"/>
<text text-anchor="middle" x="668.463" y="-80" font-family="Helvetica,sans-Serif" font-size="10.00">limits</text>
</g>
<!-- Node14&#45;&gt;Node20 -->
<g id="edge24" class="edge"><title>Node14&#45;&gt;Node20</title>
<path fill="none" stroke="midnightblue" d="M613.96,-139.734C623.973,-129.403 640.804,-112.037 653.119,-99.3315"/>
<polygon fill="midnightblue" stroke="midnightblue" points="655.655,-101.744 660.101,-92.1273 650.628,-96.8721 655.655,-101.744"/>
</g>
</g>
</svg>
