<?xml version="1.0" encoding="UTF-8" standalone="no"?>
<!DOCTYPE svg PUBLIC "-//W3C//DTD SVG 1.1//EN"
 "http://www.w3.org/Graphics/SVG/1.1/DTD/svg11.dtd">
<!-- Generated by graphviz version 2.38.0 (20140413.2041)
 -->
<!-- Title: Foo&lt; T, N &gt; Pages: 1 -->
<svg width="274pt" height="629pt"
 viewBox="0.00 0.00 273.50 629.00" xmlns="http://www.w3.org/2000/svg" xmlns:xlink="http://www.w3.org/1999/xlink">
<g id="graph0" class="graph" transform="scale(1 1) rotate(0) translate(4 625)">
<title>Foo&lt; T, N &gt;</title>
<polygon fill="white" stroke="none" points="-4,4 -4,-625 269.5,-625 269.5,4 -4,4"/>
<!-- Node1 -->
<g id="node1" class="node"><title>Node1</title>
<polygon fill="#bfbfbf" stroke="black" points="12.5,-0.5 12.5,-299.5 137.5,-299.5 137.5,-0.5 12.5,-0.5"/>
<text text-anchor="middle" x="75" y="-287.5" font-family="Helvetica,sans-Serif" font-size="10.00">Foo&lt; T, N &gt;</text>
<polyline fill="none" stroke="black" points="12.5,-280.5 137.5,-280.5 "/>
<text text-anchor="start" x="20.5" y="-268.5" font-family="Helvetica,sans-Serif" font-size="10.00">+ thread_id</text>
<text text-anchor="start" x="20.5" y="-257.5" font-family="Helvetica,sans-Serif" font-size="10.00">+ serial</text>
<text text-anchor="start" x="20.5" y="-246.5" font-family="Helvetica,sans-Serif" font-size="10.00">+ my_bar</text>
<text text-anchor="start" x="20.5" y="-235.5" font-family="Helvetica,sans-Serif" font-size="10.00">+ state</text>
<text text-anchor="start" x="20.5" y="-224.5" font-family="Helvetica,sans-Serif" font-size="10.00">+ foo_array</text>
<text text-anchor="start" x="20.5" y="-213.5" font-family="Helvetica,sans-Serif" font-size="10.00">+ my_bar</text>
<text text-anchor="start" x="20.5" y="-202.5" font-family="Helvetica,sans-Serif" font-size="10.00">+ initial_value_of_bar</text>
<text text-anchor="start" x="20.5" y="-191.5" font-family="Helvetica,sans-Serif" font-size="10.00"># reserve</text>
<text text-anchor="start" x="20.5" y="-180.5" font-family="Helvetica,sans-Serif" font-size="10.00">&#45; state</text>
<polyline fill="none" stroke="black" points="12.5,-173.5 137.5,-173.5 "/>
<text text-anchor="start" x="20.5" y="-161.5" font-family="Helvetica,sans-Serif" font-size="10.00">+ Foo()</text>
<text text-anchor="start" x="20.5" y="-150.5" font-family="Helvetica,sans-Serif" font-size="10.00">+ Foo()</text>
<text text-anchor="start" x="20.5" y="-139.5" font-family="Helvetica,sans-Serif" font-size="10.00">+ ~Foo()</text>
<text text-anchor="start" x="20.5" y="-128.5" font-family="Helvetica,sans-Serif" font-size="10.00">+ operator=()</text>
<text text-anchor="start" x="20.5" y="-117.5" font-family="Helvetica,sans-Serif" font-size="10.00">+ is_const()</text>
<text text-anchor="start" x="20.5" y="-106.5" font-family="Helvetica,sans-Serif" font-size="10.00">+ is_const()</text>
<text text-anchor="start" x="20.5" y="-95.5" font-family="Helvetica,sans-Serif" font-size="10.00">+ bar()</text>
<text text-anchor="start" x="20.5" y="-84.5" font-family="Helvetica,sans-Serif" font-size="10.00">+ bar()</text>
<text text-anchor="start" x="20.5" y="-73.5" font-family="Helvetica,sans-Serif" font-size="10.00">+ Foo()</text>
<text text-anchor="start" x="20.5" y="-62.5" font-family="Helvetica,sans-Serif" font-size="10.00">+ Foo()</text>
<text text-anchor="start" x="20.5" y="-51.5" font-family="Helvetica,sans-Serif" font-size="10.00">and 24 more...</text>
<text text-anchor="start" x="20.5" y="-40.5" font-family="Helvetica,sans-Serif" font-size="10.00">+ clear_counters()</text>
<text text-anchor="start" x="20.5" y="-29.5" font-family="Helvetica,sans-Serif" font-size="10.00">+ get_n_constructed()</text>
<text text-anchor="start" x="20.5" y="-18.5" font-family="Helvetica,sans-Serif" font-size="10.00">+ get_n_destroyed()</text>
<text text-anchor="start" x="20.5" y="-7.5" font-family="Helvetica,sans-Serif" font-size="10.00"># operator=()</text>
</g>
<!-- Node2 -->
<g id="node2" class="node"><title>Node2</title>
<g id="a_node2"><a xlink:href="../../d4/d74/structFooLimit.html" target="_top" xlink:title="{FooLimit\n||+ FooLimit()\l}">
<polygon fill="white" stroke="black" points="0,-376 0,-433 76,-433 76,-376 0,-376"/>
<text text-anchor="middle" x="38" y="-421" font-family="Helvetica,sans-Serif" font-size="10.00">FooLimit</text>
<polyline fill="none" stroke="black" points="0,-414 76,-414 "/>
<text text-anchor="middle" x="38" y="-402" font-family="Helvetica,sans-Serif" font-size="10.00"> </text>
<polyline fill="none" stroke="black" points="0,-395 76,-395 "/>
<text text-anchor="start" x="8" y="-383" font-family="Helvetica,sans-Serif" font-size="10.00">+ FooLimit()</text>
</a>
</g>
</g>
<!-- Node2&#45;&gt;Node1 -->
<g id="edge1" class="edge"><title>Node2&#45;&gt;Node1</title>
<path fill="none" stroke="midnightblue" d="M43.4824,-366.086C46.1696,-347.748 49.5996,-324.34 53.2021,-299.756"/>
<polygon fill="none" stroke="midnightblue" points="40.017,-365.596 42.0301,-375.997 46.943,-366.611 40.017,-365.596"/>
</g>
<!-- Node3 -->
<g id="node3" class="node"><title>Node3</title>
<g id="a_node3"><a xlink:href="../../d3/d99/structHarness_1_1StateTrackable.html" target="_top" xlink:title="{Harness::StateTrackable\l\&lt; true \&gt;\n|+ is_zero_initialized\l_state_allowed\l|+ is_valid()\l+ StateTrackable()\l+ StateTrackable()\l+ StateTrackable()\l+ operator=()\l+ ~StateTrackable()\l}">
<polygon fill="white" stroke="black" points="94.5,-337.5 94.5,-471.5 227.5,-471.5 227.5,-337.5 94.5,-337.5"/>
<text text-anchor="start" x="102.5" y="-459.5" font-family="Helvetica,sans-Serif" font-size="10.00">Harness::StateTrackable</text>
<text text-anchor="middle" x="161" y="-448.5" font-family="Helvetica,sans-Serif" font-size="10.00">&lt; true &gt;</text>
<polyline fill="none" stroke="black" points="94.5,-441.5 227.5,-441.5 "/>
<text text-anchor="start" x="102.5" y="-429.5" font-family="Helvetica,sans-Serif" font-size="10.00">+ is_zero_initialized</text>
<text text-anchor="start" x="102.5" y="-418.5" font-family="Helvetica,sans-Serif" font-size="10.00">_state_allowed</text>
<polyline fill="none" stroke="black" points="94.5,-411.5 227.5,-411.5 "/>
<text text-anchor="start" x="102.5" y="-399.5" font-family="Helvetica,sans-Serif" font-size="10.00">+ is_valid()</text>
<text text-anchor="start" x="102.5" y="-388.5" font-family="Helvetica,sans-Serif" font-size="10.00">+ StateTrackable()</text>
<text text-anchor="start" x="102.5" y="-377.5" font-family="Helvetica,sans-Serif" font-size="10.00">+ StateTrackable()</text>
<text text-anchor="start" x="102.5" y="-366.5" font-family="Helvetica,sans-Serif" font-size="10.00">+ StateTrackable()</text>
<text text-anchor="start" x="102.5" y="-355.5" font-family="Helvetica,sans-Serif" font-size="10.00">+ operator=()</text>
<text text-anchor="start" x="102.5" y="-344.5" font-family="Helvetica,sans-Serif" font-size="10.00">+ ~StateTrackable()</text>
</a>
</g>
</g>
<!-- Node3&#45;&gt;Node1 -->
<g id="edge2" class="edge"><title>Node3&#45;&gt;Node1</title>
<path fill="none" stroke="midnightblue" d="M135.242,-327.873C132.169,-318.851 128.956,-309.417 125.681,-299.802"/>
<polygon fill="none" stroke="midnightblue" points="131.98,-329.151 138.517,-337.488 138.606,-326.894 131.98,-329.151"/>
</g>
<!-- Node4 -->
<g id="node4" class="node"><title>Node4</title>
<g id="a_node4"><a xlink:href="../../d1/d8e/structHarness_1_1StateTrackableBase.html" target="_top" xlink:title="{Harness::StateTrackableBase\n||}">
<polygon fill="white" stroke="black" points="15.5,-541.5 15.5,-598.5 172.5,-598.5 172.5,-541.5 15.5,-541.5"/>
<text text-anchor="middle" x="94" y="-586.5" font-family="Helvetica,sans-Serif" font-size="10.00">Harness::StateTrackableBase</text>
<polyline fill="none" stroke="black" points="15.5,-579.5 172.5,-579.5 "/>
<text text-anchor="middle" x="94" y="-567.5" font-family="Helvetica,sans-Serif" font-size="10.00"> </text>
<polyline fill="none" stroke="black" points="15.5,-560.5 172.5,-560.5 "/>
<text text-anchor="middle" x="94" y="-548.5" font-family="Helvetica,sans-Serif" font-size="10.00"> </text>
</a>
</g>
</g>
<!-- Node4&#45;&gt;Node3 -->
<g id="edge3" class="edge"><title>Node4&#45;&gt;Node3</title>
<path fill="none" stroke="midnightblue" d="M109.241,-531.807C116.552,-513.967 125.533,-492.051 133.949,-471.512"/>
<polygon fill="none" stroke="midnightblue" points="105.919,-530.684 105.366,-541.264 112.396,-533.338 105.919,-530.684"/>
</g>
<!-- Node5 -->
<g id="node5" class="node"><title>Node5</title>
<g id="a_node5"><a xlink:href="../../de/def/structState.html" target="_top" xlink:title="{State\n|+ MyFlags\l+ IsMaster\l|+ State()\l+ State()\l+ exercise()\l+ ~State()\l}">
<polygon fill="white" stroke="red" points="190.5,-519.5 190.5,-620.5 265.5,-620.5 265.5,-519.5 190.5,-519.5"/>
<text text-anchor="middle" x="228" y="-608.5" font-family="Helvetica,sans-Serif" font-size="10.00">State</text>
<polyline fill="none" stroke="red" points="190.5,-601.5 265.5,-601.5 "/>
<text text-anchor="start" x="198.5" y="-589.5" font-family="Helvetica,sans-Serif" font-size="10.00">+ MyFlags</text>
<text text-anchor="start" x="198.5" y="-578.5" font-family="Helvetica,sans-Serif" font-size="10.00">+ IsMaster</text>
<polyline fill="none" stroke="red" points="190.5,-571.5 265.5,-571.5 "/>
<text text-anchor="start" x="198.5" y="-559.5" font-family="Helvetica,sans-Serif" font-size="10.00">+ State()</text>
<text text-anchor="start" x="198.5" y="-548.5" font-family="Helvetica,sans-Serif" font-size="10.00">+ State()</text>
<text text-anchor="start" x="198.5" y="-537.5" font-family="Helvetica,sans-Serif" font-size="10.00">+ exercise()</text>
<text text-anchor="start" x="198.5" y="-526.5" font-family="Helvetica,sans-Serif" font-size="10.00">+ ~State()</text>
</a>
</g>
</g>
<!-- Node5&#45;&gt;Node3 -->
<g id="edge4" class="edge"><title>Node5&#45;&gt;Node3</title>
<path fill="none" stroke="#404040" d="M207.534,-519.056C202.849,-507.624 197.761,-495.209 192.727,-482.924"/>
<polygon fill="none" stroke="#404040" points="192.683,-482.815 186.706,-478.779 188.132,-471.711 194.109,-475.746 192.683,-482.815"/>
<text text-anchor="middle" x="216.5" y="-493" font-family="Helvetica,sans-Serif" font-size="10.00"> +state</text>
</g>
</g>
</svg>
