<?xml version="1.0" encoding="UTF-8" standalone="no"?>
<!DOCTYPE svg PUBLIC "-//W3C//DTD SVG 1.1//EN"
 "http://www.w3.org/Graphics/SVG/1.1/DTD/svg11.dtd">
<!-- Generated by graphviz version 2.38.0 (20140413.2041)
 -->
<!-- Title: tbb::internal::memptr_intrusive_list&lt; T, U, NodePtr &gt; Pages: 1 -->
<svg width="301pt" height="464pt"
 viewBox="0.00 0.00 300.50 464.00" xmlns="http://www.w3.org/2000/svg" xmlns:xlink="http://www.w3.org/1999/xlink">
<g id="graph0" class="graph" transform="scale(1 1) rotate(0) translate(4 460)">
<title>tbb::internal::memptr_intrusive_list&lt; T, U, NodePtr &gt;</title>
<polygon fill="white" stroke="none" points="-4,4 -4,-460 296.5,-460 296.5,4 -4,4"/>
<!-- Node1 -->
<g id="node1" class="node"><title>Node1</title>
<polygon fill="#bfbfbf" stroke="black" points="151,-0.5 151,-90.5 270,-90.5 270,-0.5 151,-0.5"/>
<text text-anchor="start" x="159" y="-78.5" font-family="Helvetica,sans-Serif" font-size="10.00">tbb::internal::memptr</text>
<text text-anchor="start" x="159" y="-67.5" font-family="Helvetica,sans-Serif" font-size="10.00">_intrusive_list&lt; T, U,</text>
<text text-anchor="middle" x="210.5" y="-56.5" font-family="Helvetica,sans-Serif" font-size="10.00"> NodePtr &gt;</text>
<polyline fill="none" stroke="black" points="151,-49.5 270,-49.5 "/>
<text text-anchor="middle" x="210.5" y="-37.5" font-family="Helvetica,sans-Serif" font-size="10.00"> </text>
<polyline fill="none" stroke="black" points="151,-30.5 270,-30.5 "/>
<text text-anchor="start" x="159" y="-18.5" font-family="Helvetica,sans-Serif" font-size="10.00">&#45; node()</text>
<text text-anchor="start" x="159" y="-7.5" font-family="Helvetica,sans-Serif" font-size="10.00">&#45; item()</text>
</g>
<!-- Node2 -->
<g id="node2" class="node"><title>Node2</title>
<g id="a_node2"><a xlink:href="../../da/dab/classtbb_1_1internal_1_1intrusive__list__base.html" target="_top" xlink:title="{tbb::internal::intrusive\l_list_base\&lt; memptr_intrusive\l_list\&lt; T, U, NodePtr \&gt;, T \&gt;\n||+ intrusive_list_base()\l+ empty()\l+ size()\l+ begin()\l+ begin()\l+ end()\l+ end()\l+ push_front()\l+ remove()\l+ erase()\l&#45; assert_ok()\l&#45; node()\l&#45; item()\l}">
<polygon fill="white" stroke="black" points="130.5,-128.5 130.5,-339.5 290.5,-339.5 290.5,-128.5 130.5,-128.5"/>
<text text-anchor="start" x="138.5" y="-327.5" font-family="Helvetica,sans-Serif" font-size="10.00">tbb::internal::intrusive</text>
<text text-anchor="start" x="138.5" y="-316.5" font-family="Helvetica,sans-Serif" font-size="10.00">_list_base&lt; memptr_intrusive</text>
<text text-anchor="middle" x="210.5" y="-305.5" font-family="Helvetica,sans-Serif" font-size="10.00">_list&lt; T, U, NodePtr &gt;, T &gt;</text>
<polyline fill="none" stroke="black" points="130.5,-298.5 290.5,-298.5 "/>
<text text-anchor="middle" x="210.5" y="-286.5" font-family="Helvetica,sans-Serif" font-size="10.00"> </text>
<polyline fill="none" stroke="black" points="130.5,-279.5 290.5,-279.5 "/>
<text text-anchor="start" x="138.5" y="-267.5" font-family="Helvetica,sans-Serif" font-size="10.00">+ intrusive_list_base()</text>
<text text-anchor="start" x="138.5" y="-256.5" font-family="Helvetica,sans-Serif" font-size="10.00">+ empty()</text>
<text text-anchor="start" x="138.5" y="-245.5" font-family="Helvetica,sans-Serif" font-size="10.00">+ size()</text>
<text text-anchor="start" x="138.5" y="-234.5" font-family="Helvetica,sans-Serif" font-size="10.00">+ begin()</text>
<text text-anchor="start" x="138.5" y="-223.5" font-family="Helvetica,sans-Serif" font-size="10.00">+ begin()</text>
<text text-anchor="start" x="138.5" y="-212.5" font-family="Helvetica,sans-Serif" font-size="10.00">+ end()</text>
<text text-anchor="start" x="138.5" y="-201.5" font-family="Helvetica,sans-Serif" font-size="10.00">+ end()</text>
<text text-anchor="start" x="138.5" y="-190.5" font-family="Helvetica,sans-Serif" font-size="10.00">+ push_front()</text>
<text text-anchor="start" x="138.5" y="-179.5" font-family="Helvetica,sans-Serif" font-size="10.00">+ remove()</text>
<text text-anchor="start" x="138.5" y="-168.5" font-family="Helvetica,sans-Serif" font-size="10.00">+ erase()</text>
<text text-anchor="start" x="138.5" y="-157.5" font-family="Helvetica,sans-Serif" font-size="10.00">&#45; assert_ok()</text>
<text text-anchor="start" x="138.5" y="-146.5" font-family="Helvetica,sans-Serif" font-size="10.00">&#45; node()</text>
<text text-anchor="start" x="138.5" y="-135.5" font-family="Helvetica,sans-Serif" font-size="10.00">&#45; item()</text>
</a>
</g>
</g>
<!-- Node2&#45;&gt;Node1 -->
<g id="edge1" class="edge"><title>Node2&#45;&gt;Node1</title>
<path fill="none" stroke="midnightblue" d="M210.5,-118.234C210.5,-108.667 210.5,-99.4198 210.5,-90.9252"/>
<polygon fill="none" stroke="midnightblue" points="207,-118.302 210.5,-128.302 214,-118.302 207,-118.302"/>
</g>
<!-- Node3 -->
<g id="node3" class="node"><title>Node3</title>
<g id="a_node3"><a xlink:href="../../d8/dce/structtbb_1_1internal_1_1intrusive__list__node.html" target="_top" xlink:title="Data structure to be inherited by the types that can form intrusive lists. ">
<polygon fill="white" stroke="black" points="0,-387.5 0,-455.5 121,-455.5 121,-387.5 0,-387.5"/>
<text text-anchor="start" x="8" y="-443.5" font-family="Helvetica,sans-Serif" font-size="10.00">tbb::internal::intrusive</text>
<text text-anchor="middle" x="60.5" y="-432.5" font-family="Helvetica,sans-Serif" font-size="10.00">_list_node</text>
<polyline fill="none" stroke="black" points="0,-425.5 121,-425.5 "/>
<text text-anchor="middle" x="60.5" y="-413.5" font-family="Helvetica,sans-Serif" font-size="10.00"> </text>
<polyline fill="none" stroke="black" points="0,-406.5 121,-406.5 "/>
<text text-anchor="middle" x="60.5" y="-394.5" font-family="Helvetica,sans-Serif" font-size="10.00"> </text>
</a>
</g>
</g>
<!-- Node3&#45;&gt;Node2 -->
<g id="edge2" class="edge"><title>Node3&#45;&gt;Node2</title>
<path fill="none" stroke="#404040" d="M87.317,-387.336C97.5312,-374.705 109.813,-359.516 122.611,-343.689"/>
<polygon fill="none" stroke="#404040" points="122.649,-343.642 123.311,-336.462 130.194,-334.311 129.532,-341.492 122.649,-343.642"/>
<text text-anchor="middle" x="135.5" y="-361" font-family="Helvetica,sans-Serif" font-size="10.00"> &#45;my_head</text>
</g>
<!-- Node3&#45;&gt;Node3 -->
<g id="edge3" class="edge"><title>Node3&#45;&gt;Node3</title>
<path fill="none" stroke="#404040" d="M121.062,-431.695C131.641,-430.336 139,-426.938 139,-421.5 139,-418.441 136.671,-416.028 132.751,-414.26"/>
<polygon fill="none" stroke="#404040" points="132.696,-414.246 125.898,-416.653 121.062,-411.305 127.859,-408.897 132.696,-414.246"/>
<text text-anchor="middle" x="180" y="-424.5" font-family="Helvetica,sans-Serif" font-size="10.00"> +my_next_node</text>
<text text-anchor="middle" x="180" y="-413.5" font-family="Helvetica,sans-Serif" font-size="10.00">+my_prev_node</text>
</g>
<!-- Node4 -->
<g id="node4" class="node"><title>Node4</title>
<polygon fill="white" stroke="#bfbfbf" points="239.5,-393 239.5,-450 283.5,-450 283.5,-393 239.5,-393"/>
<text text-anchor="middle" x="261.5" y="-438" font-family="Helvetica,sans-Serif" font-size="10.00">size_t</text>
<polyline fill="none" stroke="#bfbfbf" points="239.5,-431 283.5,-431 "/>
<text text-anchor="middle" x="261.5" y="-419" font-family="Helvetica,sans-Serif" font-size="10.00"> </text>
<polyline fill="none" stroke="#bfbfbf" points="239.5,-412 283.5,-412 "/>
<text text-anchor="middle" x="261.5" y="-400" font-family="Helvetica,sans-Serif" font-size="10.00"> </text>
</g>
<!-- Node4&#45;&gt;Node2 -->
<g id="edge4" class="edge"><title>Node4&#45;&gt;Node2</title>
<path fill="none" stroke="#404040" d="M253.865,-392.729C250.676,-381.131 246.739,-366.809 242.548,-351.566"/>
<polygon fill="none" stroke="#404040" points="242.483,-351.332 237.036,-346.607 239.302,-339.761 244.75,-344.486 242.483,-351.332"/>
<text text-anchor="middle" x="269.5" y="-361" font-family="Helvetica,sans-Serif" font-size="10.00"> &#45;my_size</text>
</g>
</g>
</svg>
