<?xml version="1.0" encoding="UTF-8" standalone="no"?>
<!DOCTYPE svg PUBLIC "-//W3C//DTD SVG 1.1//EN"
 "http://www.w3.org/Graphics/SVG/1.1/DTD/svg11.dtd">
<!-- Generated by graphviz version 2.38.0 (20140413.2041)
 -->
<!-- Title: /home/travis/build/ComPWA/ComPWA/Estimator/Estimator.hpp Pages: 1 -->
<svg width="166pt" height="162pt"
 viewBox="0.00 0.00 166.00 162.00" xmlns="http://www.w3.org/2000/svg" xmlns:xlink="http://www.w3.org/1999/xlink">
<g id="graph0" class="graph" transform="scale(1 1) rotate(0) translate(4 158)">
<title>/home/travis/build/ComPWA/ComPWA/Estimator/Estimator.hpp</title>
<polygon fill="white" stroke="none" points="-4,4 -4,-158 162,-158 162,4 -4,4"/>
<!-- Node1 -->
<g id="node1" class="node"><title>Node1</title>
<polygon fill="#bfbfbf" stroke="black" points="-1.42109e-14,-112.5 -1.42109e-14,-153.5 158,-153.5 158,-112.5 -1.42109e-14,-112.5"/>
<text text-anchor="start" x="8" y="-141.5" font-family="Helvetica,sans-Serif" font-size="10.00">/home/travis/build</text>
<text text-anchor="start" x="8" y="-130.5" font-family="Helvetica,sans-Serif" font-size="10.00">/ComPWA/ComPWA/Estimator</text>
<text text-anchor="middle" x="79" y="-119.5" font-family="Helvetica,sans-Serif" font-size="10.00">/Estimator.hpp</text>
</g>
<!-- Node2 -->
<g id="node2" class="node"><title>Node2</title>
<g id="a_node2"><a xlink:href="../../d4/d59/Function_8hpp.html" target="_top" xlink:title="Core/Function.hpp">
<polygon fill="white" stroke="black" points="27.5,-56.5 27.5,-75.5 130.5,-75.5 130.5,-56.5 27.5,-56.5"/>
<text text-anchor="middle" x="79" y="-63.5" font-family="Helvetica,sans-Serif" font-size="10.00">Core/Function.hpp</text>
</a>
</g>
</g>
<!-- Node1&#45;&gt;Node2 -->
<g id="edge1" class="edge"><title>Node1&#45;&gt;Node2</title>
<path fill="none" stroke="midnightblue" d="M79,-112.498C79,-104.065 79,-94.2351 79,-85.874"/>
<polygon fill="midnightblue" stroke="midnightblue" points="82.5001,-85.6525 79,-75.6525 75.5001,-85.6525 82.5001,-85.6525"/>
</g>
<!-- Node3 -->
<g id="node3" class="node"><title>Node3</title>
<polygon fill="white" stroke="#bfbfbf" points="25,-0.5 25,-19.5 69,-19.5 69,-0.5 25,-0.5"/>
<text text-anchor="middle" x="47" y="-7.5" font-family="Helvetica,sans-Serif" font-size="10.00">string</text>
</g>
<!-- Node2&#45;&gt;Node3 -->
<g id="edge2" class="edge"><title>Node2&#45;&gt;Node3</title>
<path fill="none" stroke="midnightblue" d="M73.7159,-56.083C69.289,-48.6127 62.8367,-37.7244 57.3821,-28.5199"/>
<polygon fill="midnightblue" stroke="midnightblue" points="60.2949,-26.5697 52.1858,-19.7511 54.2729,-30.1383 60.2949,-26.5697"/>
</g>
<!-- Node4 -->
<g id="node4" class="node"><title>Node4</title>
<polygon fill="white" stroke="#bfbfbf" points="87.5,-0.5 87.5,-19.5 134.5,-19.5 134.5,-0.5 87.5,-0.5"/>
<text text-anchor="middle" x="111" y="-7.5" font-family="Helvetica,sans-Serif" font-size="10.00">vector</text>
</g>
<!-- Node2&#45;&gt;Node4 -->
<g id="edge3" class="edge"><title>Node2&#45;&gt;Node4</title>
<path fill="none" stroke="midnightblue" d="M84.2841,-56.083C88.711,-48.6127 95.1633,-37.7244 100.618,-28.5199"/>
<polygon fill="midnightblue" stroke="midnightblue" points="103.727,-30.1383 105.814,-19.7511 97.7051,-26.5697 103.727,-30.1383"/>
</g>
</g>
</svg>
