<?xml version="1.0" encoding="UTF-8" standalone="no"?>
<!DOCTYPE svg PUBLIC "-//W3C//DTD SVG 1.1//EN"
 "http://www.w3.org/Graphics/SVG/1.1/DTD/svg11.dtd">
<!-- Generated by graphviz version 2.38.0 (20140413.2041)
 -->
<!-- Title: /home/travis/build/ComPWA/ComPWA/Physics/Dynamics/Voigtian.hpp Pages: 1 -->
<svg width="655pt" height="576pt"
 viewBox="0.00 0.00 654.50 576.00" xmlns="http://www.w3.org/2000/svg" xmlns:xlink="http://www.w3.org/1999/xlink">
<g id="graph0" class="graph" transform="scale(1 1) rotate(0) translate(4 572)">
<title>/home/travis/build/ComPWA/ComPWA/Physics/Dynamics/Voigtian.hpp</title>
<polygon fill="white" stroke="none" points="-4,4 -4,-572 650.5,-572 650.5,4 -4,4"/>
<!-- Node1 -->
<g id="node1" class="node"><title>Node1</title>
<polygon fill="#bfbfbf" stroke="black" points="380,-526.5 380,-567.5 526,-567.5 526,-526.5 380,-526.5"/>
<text text-anchor="start" x="388" y="-555.5" font-family="Helvetica,sans-Serif" font-size="10.00">/home/travis/build</text>
<text text-anchor="start" x="388" y="-544.5" font-family="Helvetica,sans-Serif" font-size="10.00">/ComPWA/ComPWA/Physics</text>
<text text-anchor="middle" x="453" y="-533.5" font-family="Helvetica,sans-Serif" font-size="10.00">/Dynamics/Voigtian.hpp</text>
</g>
<!-- Node2 -->
<g id="node2" class="node"><title>Node2</title>
<g id="a_node2"><a xlink:href="../../dc/d66/Functions_8hpp.html" target="_top" xlink:title="This file contains Functions implementing the Strategy interface so they can be used inside a node of...">
<polygon fill="white" stroke="black" points="350,-235.5 350,-254.5 520,-254.5 520,-235.5 350,-235.5"/>
<text text-anchor="middle" x="435" y="-242.5" font-family="Helvetica,sans-Serif" font-size="10.00">Core/FunctionTree/Functions.hpp</text>
</a>
</g>
</g>
<!-- Node1&#45;&gt;Node2 -->
<g id="edge1" class="edge"><title>Node1&#45;&gt;Node2</title>
<path fill="none" stroke="midnightblue" d="M457.992,-526.447C463.621,-502.646 472,-461.149 472,-425 472,-425 472,-425 472,-367 472,-328.901 455.017,-286.887 444.063,-263.75"/>
<polygon fill="midnightblue" stroke="midnightblue" points="447.085,-261.964 439.537,-254.53 440.802,-265.049 447.085,-261.964"/>
</g>
<!-- Node10 -->
<g id="node10" class="node"><title>Node10</title>
<g id="a_node10"><a xlink:href="../../de/dc9/FormFactor_8hpp.html" target="_top" xlink:title="FormFactor.hpp">
<polygon fill="white" stroke="black" points="320.5,-358.5 320.5,-377.5 411.5,-377.5 411.5,-358.5 320.5,-358.5"/>
<text text-anchor="middle" x="366" y="-365.5" font-family="Helvetica,sans-Serif" font-size="10.00">FormFactor.hpp</text>
</a>
</g>
</g>
<!-- Node1&#45;&gt;Node10 -->
<g id="edge14" class="edge"><title>Node1&#45;&gt;Node10</title>
<path fill="none" stroke="midnightblue" d="M450.492,-526.333C446.343,-499.323 436.196,-450.004 414,-414 406.86,-402.418 395.973,-391.873 386.372,-383.906"/>
<polygon fill="midnightblue" stroke="midnightblue" points="388.41,-381.055 378.391,-377.607 384.073,-386.55 388.41,-381.055"/>
</g>
<!-- Node12 -->
<g id="node12" class="node"><title>Node12</title>
<g id="a_node12"><a xlink:href="../../d6/da5/RelativisticBreitWigner_8hpp.html" target="_top" xlink:title="RelativisticBreitWigner.hpp">
<polygon fill="white" stroke="black" points="227.5,-470.5 227.5,-489.5 368.5,-489.5 368.5,-470.5 227.5,-470.5"/>
<text text-anchor="middle" x="298" y="-477.5" font-family="Helvetica,sans-Serif" font-size="10.00">RelativisticBreitWigner.hpp</text>
</a>
</g>
</g>
<!-- Node1&#45;&gt;Node12 -->
<g id="edge22" class="edge"><title>Node1&#45;&gt;Node12</title>
<path fill="none" stroke="midnightblue" d="M406.495,-526.498C381.017,-515.813 350.188,-502.885 327.914,-493.545"/>
<polygon fill="midnightblue" stroke="midnightblue" points="329.208,-490.292 318.633,-489.652 326.501,-496.748 329.208,-490.292"/>
</g>
<!-- Node14 -->
<g id="node14" class="node"><title>Node14</title>
<g id="a_node14"><a xlink:href="../../d2/d7d/Faddeeva_8hh.html" target="_top" xlink:title="This file contains the declaration of the Faddeeva package, which is used only in the Voigtian class ...">
<polygon fill="white" stroke="black" points="545.5,-414.5 545.5,-433.5 646.5,-433.5 646.5,-414.5 545.5,-414.5"/>
<text text-anchor="middle" x="596" y="-421.5" font-family="Helvetica,sans-Serif" font-size="10.00">Utils/Faddeeva.hh</text>
</a>
</g>
</g>
<!-- Node1&#45;&gt;Node14 -->
<g id="edge29" class="edge"><title>Node1&#45;&gt;Node14</title>
<path fill="none" stroke="midnightblue" d="M476.294,-526.29C504.735,-502.224 552.226,-462.04 578.012,-440.22"/>
<polygon fill="midnightblue" stroke="midnightblue" points="580.493,-442.706 585.866,-433.575 575.971,-437.362 580.493,-442.706"/>
</g>
<!-- Node3 -->
<g id="node3" class="node"><title>Node3</title>
<polygon fill="white" stroke="#bfbfbf" points="528.5,-56.5 528.5,-75.5 585.5,-75.5 585.5,-56.5 528.5,-56.5"/>
<text text-anchor="middle" x="557" y="-63.5" font-family="Helvetica,sans-Serif" font-size="10.00">complex</text>
</g>
<!-- Node2&#45;&gt;Node3 -->
<g id="edge2" class="edge"><title>Node2&#45;&gt;Node3</title>
<path fill="none" stroke="midnightblue" d="M440.884,-235.463C459.84,-207.962 519.56,-121.319 545.16,-84.1783"/>
<polygon fill="midnightblue" stroke="midnightblue" points="548.094,-86.0883 550.887,-75.8684 542.33,-82.1157 548.094,-86.0883"/>
</g>
<!-- Node4 -->
<g id="node4" class="node"><title>Node4</title>
<polygon fill="white" stroke="#bfbfbf" points="354.5,-174 354.5,-193 405.5,-193 405.5,-174 354.5,-174"/>
<text text-anchor="middle" x="380" y="-181" font-family="Helvetica,sans-Serif" font-size="10.00">math.h</text>
</g>
<!-- Node2&#45;&gt;Node4 -->
<g id="edge3" class="edge"><title>Node2&#45;&gt;Node4</title>
<path fill="none" stroke="midnightblue" d="M427.12,-235.475C418.706,-226.373 405.181,-211.741 394.774,-200.483"/>
<polygon fill="midnightblue" stroke="midnightblue" points="397.224,-197.977 387.866,-193.009 392.083,-202.728 397.224,-197.977"/>
</g>
<!-- Node5 -->
<g id="node5" class="node"><title>Node5</title>
<polygon fill="white" stroke="#bfbfbf" points="71.5,-112.5 71.5,-131.5 118.5,-131.5 118.5,-112.5 71.5,-112.5"/>
<text text-anchor="middle" x="95" y="-119.5" font-family="Helvetica,sans-Serif" font-size="10.00">vector</text>
</g>
<!-- Node2&#45;&gt;Node5 -->
<g id="edge4" class="edge"><title>Node2&#45;&gt;Node5</title>
<path fill="none" stroke="midnightblue" d="M349.918,-240.002C272.977,-234.859 166.738,-223.472 133,-199 114.013,-185.228 103.953,-159.246 99.0549,-141.534"/>
<polygon fill="midnightblue" stroke="midnightblue" points="102.436,-140.625 96.6386,-131.757 95.6402,-142.305 102.436,-140.625"/>
</g>
<!-- Node6 -->
<g id="node6" class="node"><title>Node6</title>
<g id="a_node6"><a xlink:href="../../d2/de9/Exceptions_8hpp.html" target="_top" xlink:title="ComPWA exceptions. ">
<polygon fill="white" stroke="red" points="204.5,-56.5 204.5,-75.5 319.5,-75.5 319.5,-56.5 204.5,-56.5"/>
<text text-anchor="middle" x="262" y="-63.5" font-family="Helvetica,sans-Serif" font-size="10.00">Core/Exceptions.hpp</text>
</a>
</g>
</g>
<!-- Node2&#45;&gt;Node6 -->
<g id="edge5" class="edge"><title>Node2&#45;&gt;Node6</title>
<path fill="none" stroke="midnightblue" d="M435.097,-235.217C434.786,-219.604 431.879,-186.889 414,-168 379.509,-131.559 347.098,-162.161 307,-132 290.602,-119.666 278.01,-99.5699 270.37,-84.9844"/>
<polygon fill="midnightblue" stroke="midnightblue" points="273.461,-83.3386 265.887,-75.9302 267.188,-86.4448 273.461,-83.3386"/>
</g>
<!-- Node8 -->
<g id="node8" class="node"><title>Node8</title>
<g id="a_node8"><a xlink:href="../../df/d5e/FunctionTree_2FitParameter_8hpp.html" target="_top" xlink:title="Implementations of Parameter for various data types. ">
<polygon fill="white" stroke="red" points="316.5,-112.5 316.5,-131.5 501.5,-131.5 501.5,-112.5 316.5,-112.5"/>
<text text-anchor="middle" x="409" y="-119.5" font-family="Helvetica,sans-Serif" font-size="10.00">Core/FunctionTree/FitParameter.hpp</text>
</a>
</g>
</g>
<!-- Node2&#45;&gt;Node8 -->
<g id="edge7" class="edge"><title>Node2&#45;&gt;Node8</title>
<path fill="none" stroke="midnightblue" d="M439.336,-235.293C445.896,-220.877 456.702,-191.328 448,-168 443.827,-156.812 435.48,-146.56 427.576,-138.676"/>
<polygon fill="midnightblue" stroke="midnightblue" points="429.701,-135.872 419.99,-131.635 424.938,-141.003 429.701,-135.872"/>
</g>
<!-- Node9 -->
<g id="node9" class="node"><title>Node9</title>
<g id="a_node9"><a xlink:href="../../df/d9f/ParameterList_8hpp.html" target="_top" xlink:title="ParameterList class. ">
<polygon fill="white" stroke="red" points="142.5,-168.5 142.5,-198.5 297.5,-198.5 297.5,-168.5 142.5,-168.5"/>
<text text-anchor="start" x="150.5" y="-186.5" font-family="Helvetica,sans-Serif" font-size="10.00">Core/FunctionTree/Parameter</text>
<text text-anchor="middle" x="220" y="-175.5" font-family="Helvetica,sans-Serif" font-size="10.00">List.hpp</text>
</a>
</g>
</g>
<!-- Node2&#45;&gt;Node9 -->
<g id="edge10" class="edge"><title>Node2&#45;&gt;Node9</title>
<path fill="none" stroke="midnightblue" d="M404.196,-235.475C372.015,-226.569 320.702,-212.369 280.399,-201.215"/>
<polygon fill="midnightblue" stroke="midnightblue" points="281.243,-197.817 270.671,-198.523 279.375,-204.563 281.243,-197.817"/>
</g>
<!-- Node7 -->
<g id="node7" class="node"><title>Node7</title>
<polygon fill="white" stroke="#bfbfbf" points="99.5,-0.5 99.5,-19.5 162.5,-19.5 162.5,-0.5 99.5,-0.5"/>
<text text-anchor="middle" x="131" y="-7.5" font-family="Helvetica,sans-Serif" font-size="10.00">exception</text>
</g>
<!-- Node6&#45;&gt;Node7 -->
<g id="edge6" class="edge"><title>Node6&#45;&gt;Node7</title>
<path fill="none" stroke="midnightblue" d="M241.243,-56.4435C219.684,-47.5566 185.737,-33.5632 161.206,-23.4514"/>
<polygon fill="midnightblue" stroke="midnightblue" points="162.239,-20.0917 151.66,-19.5164 159.572,-26.5634 162.239,-20.0917"/>
</g>
<!-- Node8&#45;&gt;Node3 -->
<g id="edge8" class="edge"><title>Node8&#45;&gt;Node3</title>
<path fill="none" stroke="midnightblue" d="M432.451,-112.444C457.133,-103.438 496.185,-89.1891 523.977,-79.049"/>
<polygon fill="midnightblue" stroke="midnightblue" points="525.464,-82.2321 533.659,-75.5164 523.065,-75.6561 525.464,-82.2321"/>
</g>
<!-- Node8&#45;&gt;Node6 -->
<g id="edge9" class="edge"><title>Node8&#45;&gt;Node6</title>
<path fill="none" stroke="midnightblue" d="M385.707,-112.444C361.193,-103.438 322.404,-89.1891 294.8,-79.049"/>
<polygon fill="midnightblue" stroke="midnightblue" points="295.777,-75.6793 285.184,-75.5164 293.363,-82.25 295.777,-75.6793"/>
</g>
<!-- Node9&#45;&gt;Node5 -->
<g id="edge11" class="edge"><title>Node9&#45;&gt;Node5</title>
<path fill="none" stroke="midnightblue" d="M190.377,-168.399C169.778,-158.595 142.52,-145.619 122.42,-136.052"/>
<polygon fill="midnightblue" stroke="midnightblue" points="123.722,-132.796 113.189,-131.658 120.714,-139.116 123.722,-132.796"/>
</g>
<!-- Node9&#45;&gt;Node6 -->
<g id="edge12" class="edge"><title>Node9&#45;&gt;Node6</title>
<path fill="none" stroke="midnightblue" d="M225.15,-168.337C232.752,-147.433 246.978,-108.31 255.356,-85.2696"/>
<polygon fill="midnightblue" stroke="midnightblue" points="258.719,-86.2635 258.847,-75.6695 252.141,-83.8713 258.719,-86.2635"/>
</g>
<!-- Node9&#45;&gt;Node8 -->
<g id="edge13" class="edge"><title>Node9&#45;&gt;Node8</title>
<path fill="none" stroke="midnightblue" d="M264.79,-168.399C297.449,-158.118 341.18,-144.351 371.893,-134.682"/>
<polygon fill="midnightblue" stroke="midnightblue" points="373.287,-137.912 381.775,-131.571 371.185,-131.235 373.287,-137.912"/>
</g>
<!-- Node10&#45;&gt;Node2 -->
<g id="edge21" class="edge"><title>Node10&#45;&gt;Node2</title>
<path fill="none" stroke="midnightblue" d="M374.483,-358.279C382.581,-349.615 394.738,-335.679 403,-322 414.185,-303.48 423.316,-280.341 428.92,-264.49"/>
<polygon fill="midnightblue" stroke="midnightblue" points="432.301,-265.421 432.219,-254.827 425.676,-263.16 432.301,-265.421"/>
</g>
<!-- Node10&#45;&gt;Node3 -->
<g id="edge15" class="edge"><title>Node10&#45;&gt;Node3</title>
<path fill="none" stroke="midnightblue" d="M388.6,-358.487C424.832,-343.56 495.259,-309.02 529,-255 562.757,-200.955 561.519,-121.475 558.873,-85.6825"/>
<polygon fill="midnightblue" stroke="midnightblue" points="562.357,-85.3447 558.007,-75.684 555.383,-85.9488 562.357,-85.3447"/>
</g>
<!-- Node10&#45;&gt;Node7 -->
<g id="edge16" class="edge"><title>Node10&#45;&gt;Node7</title>
<path fill="none" stroke="midnightblue" d="M320.386,-364.955C222.273,-357.859 0,-326.151 0,-184.5 0,-184.5 0,-184.5 0,-121 0,-71.036 56.5798,-39.2346 95.3713,-23.3027"/>
<polygon fill="midnightblue" stroke="midnightblue" points="96.7798,-26.5098 104.805,-19.5928 94.2179,-19.9955 96.7798,-26.5098"/>
</g>
<!-- Node11 -->
<g id="node11" class="node"><title>Node11</title>
<g id="a_node11"><a xlink:href="../../da/db2/FunctionTree_8hpp.html" target="_top" xlink:title="FunctionTree class. ">
<polygon fill="white" stroke="red" points="250,-291.5 250,-321.5 394,-321.5 394,-291.5 250,-291.5"/>
<text text-anchor="start" x="258" y="-309.5" font-family="Helvetica,sans-Serif" font-size="10.00">Core/FunctionTree/Function</text>
<text text-anchor="middle" x="322" y="-298.5" font-family="Helvetica,sans-Serif" font-size="10.00">Tree.hpp</text>
</a>
</g>
</g>
<!-- Node10&#45;&gt;Node11 -->
<g id="edge17" class="edge"><title>Node10&#45;&gt;Node11</title>
<path fill="none" stroke="midnightblue" d="M359.696,-358.475C354.127,-350.944 345.757,-339.626 338.318,-329.566"/>
<polygon fill="midnightblue" stroke="midnightblue" points="341.13,-327.482 332.37,-321.523 335.502,-331.644 341.13,-327.482"/>
</g>
<!-- Node11&#45;&gt;Node2 -->
<g id="edge20" class="edge"><title>Node11&#45;&gt;Node2</title>
<path fill="none" stroke="midnightblue" d="M348.779,-291.399C367.062,-281.773 391.148,-269.09 409.215,-259.577"/>
<polygon fill="midnightblue" stroke="midnightblue" points="411.34,-262.414 418.557,-254.658 408.078,-256.22 411.34,-262.414"/>
</g>
<!-- Node11&#45;&gt;Node5 -->
<g id="edge18" class="edge"><title>Node11&#45;&gt;Node5</title>
<path fill="none" stroke="midnightblue" d="M258.776,-291.434C209.103,-276.931 142.429,-249.149 106,-199 94.0315,-182.524 92.4294,-158.652 93.084,-142.075"/>
<polygon fill="midnightblue" stroke="midnightblue" points="96.5861,-142.167 93.7981,-131.946 89.6035,-141.675 96.5861,-142.167"/>
</g>
<!-- Node11&#45;&gt;Node8 -->
<g id="edge19" class="edge"><title>Node11&#45;&gt;Node8</title>
<path fill="none" stroke="midnightblue" d="M320.952,-291.389C319.684,-265.007 320.243,-207.326 345,-168 353.443,-154.588 367.485,-144.054 380.268,-136.56"/>
<polygon fill="midnightblue" stroke="midnightblue" points="382.162,-139.513 389.256,-131.643 378.803,-133.372 382.162,-139.513"/>
</g>
<!-- Node12&#45;&gt;Node5 -->
<g id="edge28" class="edge"><title>Node12&#45;&gt;Node5</title>
<path fill="none" stroke="midnightblue" d="M227.297,-478.154C150.306,-473.047 38,-451.463 38,-369 38,-369 38,-369 38,-244 38,-203.59 64.3397,-162.206 81.2087,-139.845"/>
<polygon fill="midnightblue" stroke="midnightblue" points="84.1451,-141.772 87.5482,-131.738 78.631,-137.46 84.1451,-141.772"/>
</g>
<!-- Node12&#45;&gt;Node10 -->
<g id="edge27" class="edge"><title>Node12&#45;&gt;Node10</title>
<path fill="none" stroke="midnightblue" d="M299.013,-470.402C300.866,-457.359 305.704,-432.173 317,-414 324.263,-402.316 335.375,-391.763 345.182,-383.818"/>
<polygon fill="midnightblue" stroke="midnightblue" points="347.544,-386.417 353.334,-377.544 343.275,-380.869 347.544,-386.417"/>
</g>
<!-- Node12&#45;&gt;Node11 -->
<g id="edge23" class="edge"><title>Node12&#45;&gt;Node11</title>
<path fill="none" stroke="midnightblue" d="M298.601,-470.449C300.065,-450.605 304.203,-399.919 311,-358 312.414,-349.281 314.367,-339.801 316.235,-331.433"/>
<polygon fill="midnightblue" stroke="midnightblue" points="319.673,-332.102 318.51,-321.572 312.852,-330.529 319.673,-332.102"/>
</g>
<!-- Node13 -->
<g id="node13" class="node"><title>Node13</title>
<g id="a_node13"><a xlink:href="../../d1/dba/Coupling_8hpp.html" target="_top" xlink:title="Coupling.hpp">
<polygon fill="white" stroke="red" points="326.5,-414.5 326.5,-433.5 405.5,-433.5 405.5,-414.5 326.5,-414.5"/>
<text text-anchor="middle" x="366" y="-421.5" font-family="Helvetica,sans-Serif" font-size="10.00">Coupling.hpp</text>
</a>
</g>
</g>
<!-- Node12&#45;&gt;Node13 -->
<g id="edge24" class="edge"><title>Node12&#45;&gt;Node13</title>
<path fill="none" stroke="midnightblue" d="M308.925,-470.324C319.175,-462.185 334.721,-449.839 347.001,-440.087"/>
<polygon fill="midnightblue" stroke="midnightblue" points="349.221,-442.794 354.876,-433.834 344.868,-437.312 349.221,-442.794"/>
</g>
<!-- Node13&#45;&gt;Node8 -->
<g id="edge25" class="edge"><title>Node13&#45;&gt;Node8</title>
<path fill="none" stroke="midnightblue" d="M405.941,-416.019C459.515,-404.099 548,-374.3 548,-307.5 548,-307.5 548,-307.5 548,-244 548,-188.611 484.433,-152.8 443.273,-135.419"/>
<polygon fill="midnightblue" stroke="midnightblue" points="444.433,-132.112 433.85,-131.593 441.799,-138.598 444.433,-132.112"/>
</g>
<!-- Node13&#45;&gt;Node10 -->
<g id="edge26" class="edge"><title>Node13&#45;&gt;Node10</title>
<path fill="none" stroke="midnightblue" d="M366,-414.083C366,-407.006 366,-396.861 366,-387.986"/>
<polygon fill="midnightblue" stroke="midnightblue" points="369.5,-387.751 366,-377.751 362.5,-387.751 369.5,-387.751"/>
</g>
<!-- Node14&#45;&gt;Node3 -->
<g id="edge30" class="edge"><title>Node14&#45;&gt;Node3</title>
<path fill="none" stroke="midnightblue" d="M599.546,-414.479C607.081,-395.577 624,-348.559 624,-307.5 624,-307.5 624,-307.5 624,-182.5 624,-142.389 593.391,-103.734 573.551,-82.8923"/>
<polygon fill="midnightblue" stroke="midnightblue" points="575.835,-80.2241 566.316,-75.5722 570.856,-85.1449 575.835,-80.2241"/>
</g>
</g>
</svg>
