<?xml version="1.0" encoding="UTF-8" standalone="no"?>
<!DOCTYPE svg PUBLIC "-//W3C//DTD SVG 1.1//EN"
 "http://www.w3.org/Graphics/SVG/1.1/DTD/svg11.dtd">
<!-- Generated by graphviz version 2.38.0 (20140413.2041)
 -->
<!-- Title: rml::internal::CacheBinOperationData Pages: 1 -->
<svg width="691pt" height="472pt"
 viewBox="0.00 0.00 690.50 472.00" xmlns="http://www.w3.org/2000/svg" xmlns:xlink="http://www.w3.org/1999/xlink">
<g id="graph0" class="graph" transform="scale(1 1) rotate(0) translate(4 468)">
<title>rml::internal::CacheBinOperationData</title>
<polygon fill="white" stroke="none" points="-4,4 -4,-468 686.5,-468 686.5,4 -4,4"/>
<!-- Node1 -->
<g id="node1" class="node"><title>Node1</title>
<polygon fill="#bfbfbf" stroke="black" points="247.5,-0.5 247.5,-57.5 443.5,-57.5 443.5,-0.5 247.5,-0.5"/>
<text text-anchor="middle" x="345.5" y="-45.5" font-family="Helvetica,sans-Serif" font-size="10.00">rml::internal::CacheBinOperationData</text>
<polyline fill="none" stroke="black" points="247.5,-38.5 443.5,-38.5 "/>
<text text-anchor="middle" x="345.5" y="-26.5" font-family="Helvetica,sans-Serif" font-size="10.00"> </text>
<polyline fill="none" stroke="black" points="247.5,-19.5 443.5,-19.5 "/>
<text text-anchor="middle" x="345.5" y="-7.5" font-family="Helvetica,sans-Serif" font-size="10.00"> </text>
</g>
<!-- Node2 -->
<g id="node2" class="node"><title>Node2</title>
<g id="a_node2"><a xlink:href="../../de/d4f/structrml_1_1internal_1_1OpGet.html" target="_top" xlink:title="{rml::internal::OpGet\n|+ currTime\l+ type\l|}">
<polygon fill="white" stroke="black" points="0,-111 0,-179 111,-179 111,-111 0,-111"/>
<text text-anchor="middle" x="55.5" y="-167" font-family="Helvetica,sans-Serif" font-size="10.00">rml::internal::OpGet</text>
<polyline fill="none" stroke="black" points="0,-160 111,-160 "/>
<text text-anchor="start" x="8" y="-148" font-family="Helvetica,sans-Serif" font-size="10.00">+ currTime</text>
<text text-anchor="start" x="8" y="-137" font-family="Helvetica,sans-Serif" font-size="10.00">+ type</text>
<polyline fill="none" stroke="black" points="0,-130 111,-130 "/>
<text text-anchor="middle" x="55.5" y="-118" font-family="Helvetica,sans-Serif" font-size="10.00"> </text>
</a>
</g>
</g>
<!-- Node2&#45;&gt;Node1 -->
<g id="edge1" class="edge"><title>Node2&#45;&gt;Node1</title>
<path fill="none" stroke="#404040" d="M108.557,-110.908C112.546,-108.81 116.554,-106.815 120.5,-105 156.956,-88.2327 198.262,-73.3627 235.442,-61.3752"/>
<polygon fill="none" stroke="#404040" points="235.921,-61.2228 240.427,-55.5924 247.357,-57.5857 242.852,-63.2161 235.921,-61.2228"/>
<text text-anchor="middle" x="206" y="-79" font-family="Helvetica,sans-Serif" font-size="10.00"> &#45;opGet</text>
</g>
<!-- Node3 -->
<g id="node3" class="node"><title>Node3</title>
<polygon fill="white" stroke="#bfbfbf" points="243.5,-406.5 243.5,-463.5 287.5,-463.5 287.5,-406.5 243.5,-406.5"/>
<text text-anchor="middle" x="265.5" y="-451.5" font-family="Helvetica,sans-Serif" font-size="10.00">size_t</text>
<polyline fill="none" stroke="#bfbfbf" points="243.5,-444.5 287.5,-444.5 "/>
<text text-anchor="middle" x="265.5" y="-432.5" font-family="Helvetica,sans-Serif" font-size="10.00"> </text>
<polyline fill="none" stroke="#bfbfbf" points="243.5,-425.5 287.5,-425.5 "/>
<text text-anchor="middle" x="265.5" y="-413.5" font-family="Helvetica,sans-Serif" font-size="10.00"> </text>
</g>
<!-- Node3&#45;&gt;Node2 -->
<g id="edge2" class="edge"><title>Node3&#45;&gt;Node2</title>
<path fill="none" stroke="#404040" d="M243.456,-421.615C218.676,-406.785 178.515,-379.911 152.5,-348 113.516,-300.181 85.6066,-234.087 70.0117,-190.713"/>
<polygon fill="none" stroke="#404040" points="69.9154,-190.438 64.1538,-186.101 65.9407,-179.115 71.7023,-183.452 69.9154,-190.438"/>
<text text-anchor="middle" x="168" y="-311" font-family="Helvetica,sans-Serif" font-size="10.00"> +size</text>
</g>
<!-- Node4 -->
<g id="node4" class="node"><title>Node4</title>
<g id="a_node4"><a xlink:href="../../dd/def/structrml_1_1internal_1_1LargeMemoryBlock.html" target="_top" xlink:title="{rml::internal::LargeMemory\lBlock\n|+ age\l|}">
<polygon fill="white" stroke="red" points="192.5,-279.5 192.5,-347.5 338.5,-347.5 338.5,-279.5 192.5,-279.5"/>
<text text-anchor="start" x="200.5" y="-335.5" font-family="Helvetica,sans-Serif" font-size="10.00">rml::internal::LargeMemory</text>
<text text-anchor="middle" x="265.5" y="-324.5" font-family="Helvetica,sans-Serif" font-size="10.00">Block</text>
<polyline fill="none" stroke="red" points="192.5,-317.5 338.5,-317.5 "/>
<text text-anchor="start" x="200.5" y="-305.5" font-family="Helvetica,sans-Serif" font-size="10.00">+ age</text>
<polyline fill="none" stroke="red" points="192.5,-298.5 338.5,-298.5 "/>
<text text-anchor="middle" x="265.5" y="-286.5" font-family="Helvetica,sans-Serif" font-size="10.00"> </text>
</a>
</g>
</g>
<!-- Node3&#45;&gt;Node4 -->
<g id="edge4" class="edge"><title>Node3&#45;&gt;Node4</title>
<path fill="none" stroke="#404040" d="M265.5,-406.284C265.5,-392.465 265.5,-375.401 265.5,-359.749"/>
<polygon fill="none" stroke="#404040" points="265.5,-359.589 261.5,-353.589 265.5,-347.589 269.5,-353.589 265.5,-359.589"/>
<text text-anchor="middle" x="305" y="-380" font-family="Helvetica,sans-Serif" font-size="10.00"> +unalignedSize</text>
<text text-anchor="middle" x="305" y="-369" font-family="Helvetica,sans-Serif" font-size="10.00">+objectSize</text>
</g>
<!-- Node7 -->
<g id="node7" class="node"><title>Node7</title>
<g id="a_node7"><a xlink:href="../../d0/dda/structrml_1_1internal_1_1OpUpdateUsedSize.html" target="_top" xlink:title="{rml::internal::OpUpdateUsedSize\n|+ type\l|}">
<polygon fill="white" stroke="black" points="489.5,-203.5 489.5,-260.5 663.5,-260.5 663.5,-203.5 489.5,-203.5"/>
<text text-anchor="middle" x="576.5" y="-248.5" font-family="Helvetica,sans-Serif" font-size="10.00">rml::internal::OpUpdateUsedSize</text>
<polyline fill="none" stroke="black" points="489.5,-241.5 663.5,-241.5 "/>
<text text-anchor="start" x="497.5" y="-229.5" font-family="Helvetica,sans-Serif" font-size="10.00">+ type</text>
<polyline fill="none" stroke="black" points="489.5,-222.5 663.5,-222.5 "/>
<text text-anchor="middle" x="576.5" y="-210.5" font-family="Helvetica,sans-Serif" font-size="10.00"> </text>
</a>
</g>
</g>
<!-- Node3&#45;&gt;Node7 -->
<g id="edge11" class="edge"><title>Node3&#45;&gt;Node7</title>
<path fill="none" stroke="#404040" d="M287.657,-422.429C304.558,-413.432 328.294,-400.432 348.5,-388 411.982,-348.942 482.597,-300.048 528.178,-267.737"/>
<polygon fill="none" stroke="#404040" points="528.295,-267.654 530.868,-260.918 538.076,-260.702 535.503,-267.438 528.295,-267.654"/>
<text text-anchor="middle" x="396" y="-374.5" font-family="Helvetica,sans-Serif" font-size="10.00"> +size</text>
</g>
<!-- Node4&#45;&gt;Node2 -->
<g id="edge3" class="edge"><title>Node4&#45;&gt;Node2</title>
<path fill="none" stroke="#404040" d="M215.053,-279.497C206.409,-273.508 197.606,-267.193 189.5,-261 159.017,-237.711 126.318,-209.713 100.853,-187.174"/>
<polygon fill="none" stroke="#404040" points="100.782,-187.111 93.6404,-186.112 91.8156,-179.136 98.9573,-180.134 100.782,-187.111"/>
<text text-anchor="middle" x="203" y="-229.5" font-family="Helvetica,sans-Serif" font-size="10.00"> +res</text>
</g>
<!-- Node4&#45;&gt;Node4 -->
<g id="edge5" class="edge"><title>Node4&#45;&gt;Node4</title>
<path fill="none" stroke="#404040" d="M338.69,-323.99C349.331,-322.325 356.5,-318.828 356.5,-313.5 356.5,-310.503 354.232,-308.085 350.353,-306.247"/>
<polygon fill="none" stroke="#404040" points="350.253,-306.22 343.402,-308.469 338.69,-303.01 345.542,-300.761 350.253,-306.22"/>
<text text-anchor="middle" x="376" y="-327.5" font-family="Helvetica,sans-Serif" font-size="10.00"> +gPrev</text>
<text text-anchor="middle" x="376" y="-316.5" font-family="Helvetica,sans-Serif" font-size="10.00">+gNext</text>
<text text-anchor="middle" x="376" y="-305.5" font-family="Helvetica,sans-Serif" font-size="10.00">+prev</text>
<text text-anchor="middle" x="376" y="-294.5" font-family="Helvetica,sans-Serif" font-size="10.00">+next</text>
</g>
<!-- Node5 -->
<g id="node5" class="node"><title>Node5</title>
<g id="a_node5"><a xlink:href="../../d9/db2/structrml_1_1internal_1_1OpCleanAll.html" target="_top" xlink:title="{rml::internal::OpCleanAll\n|+ type\l|}">
<polygon fill="white" stroke="black" points="129.5,-116.5 129.5,-173.5 261.5,-173.5 261.5,-116.5 129.5,-116.5"/>
<text text-anchor="middle" x="195.5" y="-161.5" font-family="Helvetica,sans-Serif" font-size="10.00">rml::internal::OpCleanAll</text>
<polyline fill="none" stroke="black" points="129.5,-154.5 261.5,-154.5 "/>
<text text-anchor="start" x="137.5" y="-142.5" font-family="Helvetica,sans-Serif" font-size="10.00">+ type</text>
<polyline fill="none" stroke="black" points="129.5,-135.5 261.5,-135.5 "/>
<text text-anchor="middle" x="195.5" y="-123.5" font-family="Helvetica,sans-Serif" font-size="10.00"> </text>
</a>
</g>
</g>
<!-- Node4&#45;&gt;Node5 -->
<g id="edge7" class="edge"><title>Node4&#45;&gt;Node5</title>
<path fill="none" stroke="#404040" d="M251.503,-279.206C240.071,-252.015 223.896,-213.541 211.866,-184.928"/>
<polygon fill="none" stroke="#404040" points="211.804,-184.78 205.791,-180.799 207.153,-173.718 213.166,-177.698 211.804,-184.78"/>
<text text-anchor="middle" x="257" y="-229.5" font-family="Helvetica,sans-Serif" font-size="10.00"> +res</text>
</g>
<!-- Node6 -->
<g id="node6" class="node"><title>Node6</title>
<g id="a_node6"><a xlink:href="../../de/d41/structrml_1_1internal_1_1OpCleanToThreshold.html" target="_top" xlink:title="{rml::internal::OpCleanTo\lThreshold\n|+ currTime\l+ type\l|}">
<polygon fill="white" stroke="black" points="280,-105.5 280,-184.5 411,-184.5 411,-105.5 280,-105.5"/>
<text text-anchor="start" x="288" y="-172.5" font-family="Helvetica,sans-Serif" font-size="10.00">rml::internal::OpCleanTo</text>
<text text-anchor="middle" x="345.5" y="-161.5" font-family="Helvetica,sans-Serif" font-size="10.00">Threshold</text>
<polyline fill="none" stroke="black" points="280,-154.5 411,-154.5 "/>
<text text-anchor="start" x="288" y="-142.5" font-family="Helvetica,sans-Serif" font-size="10.00">+ currTime</text>
<text text-anchor="start" x="288" y="-131.5" font-family="Helvetica,sans-Serif" font-size="10.00">+ type</text>
<polyline fill="none" stroke="black" points="280,-124.5 411,-124.5 "/>
<text text-anchor="middle" x="345.5" y="-112.5" font-family="Helvetica,sans-Serif" font-size="10.00"> </text>
</a>
</g>
</g>
<!-- Node4&#45;&gt;Node6 -->
<g id="edge9" class="edge"><title>Node4&#45;&gt;Node6</title>
<path fill="none" stroke="#404040" d="M281.497,-279.206C292.948,-255.375 308.563,-222.875 321.503,-195.944"/>
<polygon fill="none" stroke="#404040" points="321.668,-195.601 320.661,-188.461 326.865,-184.785 327.872,-191.925 321.668,-195.601"/>
<text text-anchor="middle" x="331" y="-229.5" font-family="Helvetica,sans-Serif" font-size="10.00"> +res</text>
</g>
<!-- Node8 -->
<g id="node8" class="node"><title>Node8</title>
<g id="a_node8"><a xlink:href="../../df/dbb/structrml_1_1internal_1_1OpPutList.html" target="_top" xlink:title="{rml::internal::OpPutList\n|+ type\l|}">
<polygon fill="white" stroke="black" points="429.5,-116.5 429.5,-173.5 555.5,-173.5 555.5,-116.5 429.5,-116.5"/>
<text text-anchor="middle" x="492.5" y="-161.5" font-family="Helvetica,sans-Serif" font-size="10.00">rml::internal::OpPutList</text>
<polyline fill="none" stroke="black" points="429.5,-154.5 555.5,-154.5 "/>
<text text-anchor="start" x="437.5" y="-142.5" font-family="Helvetica,sans-Serif" font-size="10.00">+ type</text>
<polyline fill="none" stroke="black" points="429.5,-135.5 555.5,-135.5 "/>
<text text-anchor="middle" x="492.5" y="-123.5" font-family="Helvetica,sans-Serif" font-size="10.00"> </text>
</a>
</g>
</g>
<!-- Node4&#45;&gt;Node8 -->
<g id="edge13" class="edge"><title>Node4&#45;&gt;Node8</title>
<path fill="none" stroke="#404040" d="M321.011,-279.327C330.312,-273.408 339.772,-267.161 348.5,-261 384.041,-235.915 422.45,-205.035 450.655,-181.593"/>
<polygon fill="none" stroke="#404040" points="450.974,-181.326 453.015,-174.41 460.184,-173.633 458.144,-180.55 450.974,-181.326"/>
<text text-anchor="middle" x="442.5" y="-229.5" font-family="Helvetica,sans-Serif" font-size="10.00"> +head</text>
</g>
<!-- Node5&#45;&gt;Node1 -->
<g id="edge6" class="edge"><title>Node5&#45;&gt;Node1</title>
<path fill="none" stroke="#404040" d="M230.917,-116.38C246.922,-103.963 266.106,-89.1707 283.5,-76 288.318,-72.3514 293.363,-68.561 298.405,-64.7918"/>
<polygon fill="none" stroke="#404040" points="298.415,-64.7842 300.835,-57.9913 308.036,-57.6126 305.616,-64.4055 298.415,-64.7842"/>
<text text-anchor="middle" x="312.5" y="-79" font-family="Helvetica,sans-Serif" font-size="10.00"> &#45;opCleanAll</text>
</g>
<!-- Node6&#45;&gt;Node1 -->
<g id="edge8" class="edge"><title>Node6&#45;&gt;Node1</title>
<path fill="none" stroke="#404040" d="M345.5,-105.405C345.5,-93.9252 345.5,-81.3299 345.5,-69.7765"/>
<polygon fill="none" stroke="#404040" points="345.5,-69.7509 341.5,-63.7509 345.5,-57.7509 349.5,-63.7508 345.5,-69.7509"/>
<text text-anchor="middle" x="397" y="-79" font-family="Helvetica,sans-Serif" font-size="10.00"> &#45;opCleanToThreshold</text>
</g>
<!-- Node7&#45;&gt;Node1 -->
<g id="edge10" class="edge"><title>Node7&#45;&gt;Node1</title>
<path fill="none" stroke="#404040" d="M580.46,-203.295C582.892,-176.224 582.662,-134.847 564.5,-105 541.537,-67.2635 497.921,-48.1059 455.619,-38.5297"/>
<polygon fill="none" stroke="#404040" points="455.493,-38.5037 448.807,-41.2068 443.741,-36.0754 450.426,-33.3723 455.493,-38.5037"/>
<text text-anchor="middle" x="632.5" y="-142.5" font-family="Helvetica,sans-Serif" font-size="10.00"> &#45;opUpdateUsedSize</text>
</g>
<!-- Node8&#45;&gt;Node1 -->
<g id="edge12" class="edge"><title>Node8&#45;&gt;Node1</title>
<path fill="none" stroke="#404040" d="M481.232,-116.357C474.548,-102.75 464.932,-86.9596 452.5,-76 447.476,-71.5707 441.96,-67.5174 436.165,-63.8171"/>
<polygon fill="none" stroke="#404040" points="435.82,-63.6147 428.621,-64.0218 425.476,-57.5326 432.675,-57.1255 435.82,-63.6147"/>
<text text-anchor="middle" x="489.5" y="-79" font-family="Helvetica,sans-Serif" font-size="10.00"> &#45;opPutList</text>
</g>
</g>
</svg>
