<?xml version="1.0" encoding="UTF-8" standalone="no"?>
<!DOCTYPE svg PUBLIC "-//W3C//DTD SVG 1.1//EN"
 "http://www.w3.org/Graphics/SVG/1.1/DTD/svg11.dtd">
<!-- Generated by graphviz version 2.38.0 (20140413.2041)
 -->
<!-- Title: Form1 Pages: 1 -->
<svg width="584pt" height="859pt"
 viewBox="0.00 0.00 583.50 859.00" xmlns="http://www.w3.org/2000/svg" xmlns:xlink="http://www.w3.org/1999/xlink">
<g id="graph0" class="graph" transform="scale(1 1) rotate(0) translate(4 855)">
<title>Form1</title>
<polygon fill="white" stroke="none" points="-4,4 -4,-855 579.5,-855 579.5,4 -4,4"/>
<!-- Node1 -->
<g id="node1" class="node"><title>Node1</title>
<polygon fill="#bfbfbf" stroke="black" points="216,-0.5 216,-343.5 364,-343.5 364,-0.5 216,-0.5"/>
<text text-anchor="middle" x="290" y="-331.5" font-family="Helvetica,sans-Serif" font-size="10.00">Form1</text>
<polyline fill="none" stroke="black" points="216,-324.5 364,-324.5 "/>
<text text-anchor="start" x="224" y="-312.5" font-family="Helvetica,sans-Serif" font-size="10.00">&#45; menuStrip1</text>
<text text-anchor="start" x="224" y="-301.5" font-family="Helvetica,sans-Serif" font-size="10.00">&#45; fileToolStripMenuItem</text>
<text text-anchor="start" x="224" y="-290.5" font-family="Helvetica,sans-Serif" font-size="10.00">&#45; exitToolStripMenuItem</text>
<text text-anchor="start" x="224" y="-279.5" font-family="Helvetica,sans-Serif" font-size="10.00">&#45; gameToolStripMenuItem</text>
<text text-anchor="start" x="224" y="-268.5" font-family="Helvetica,sans-Serif" font-size="10.00">&#45; seedToolStripMenuItem</text>
<text text-anchor="start" x="224" y="-257.5" font-family="Helvetica,sans-Serif" font-size="10.00">&#45; runToolStripMenuItem</text>
<text text-anchor="start" x="224" y="-246.5" font-family="Helvetica,sans-Serif" font-size="10.00">&#45; pauseToolStripMenuItem</text>
<text text-anchor="start" x="224" y="-235.5" font-family="Helvetica,sans-Serif" font-size="10.00">&#45; Sequential</text>
<text text-anchor="start" x="224" y="-224.5" font-family="Helvetica,sans-Serif" font-size="10.00">&#45; label1</text>
<text text-anchor="start" x="224" y="-213.5" font-family="Helvetica,sans-Serif" font-size="10.00">&#45; m_seqThread</text>
<text text-anchor="start" x="224" y="-202.5" font-family="Helvetica,sans-Serif" font-size="10.00">&#45; m_parThread</text>
<text text-anchor="start" x="224" y="-191.5" font-family="Helvetica,sans-Serif" font-size="10.00">&#45; seqGen</text>
<text text-anchor="start" x="224" y="-180.5" font-family="Helvetica,sans-Serif" font-size="10.00">&#45; parGen</text>
<text text-anchor="start" x="224" y="-169.5" font-family="Helvetica,sans-Serif" font-size="10.00">&#45; m_suspend</text>
<text text-anchor="start" x="224" y="-158.5" font-family="Helvetica,sans-Serif" font-size="10.00">&#45; components</text>
<text text-anchor="start" x="224" y="-147.5" font-family="Helvetica,sans-Serif" font-size="10.00">&#45; m_sepWidth</text>
<text text-anchor="start" x="224" y="-136.5" font-family="Helvetica,sans-Serif" font-size="10.00">&#45; m_ribbonHeight</text>
<polyline fill="none" stroke="black" points="216,-129.5 364,-129.5 "/>
<text text-anchor="start" x="224" y="-117.5" font-family="Helvetica,sans-Serif" font-size="10.00">+ Form1()</text>
<text text-anchor="start" x="224" y="-106.5" font-family="Helvetica,sans-Serif" font-size="10.00"># ~Form1()</text>
<text text-anchor="start" x="224" y="-95.5" font-family="Helvetica,sans-Serif" font-size="10.00"># CloseApp()</text>
<text text-anchor="start" x="224" y="-84.5" font-family="Helvetica,sans-Serif" font-size="10.00"># OnPaint()</text>
<text text-anchor="start" x="224" y="-73.5" font-family="Helvetica,sans-Serif" font-size="10.00"># OnFormClosing()</text>
<text text-anchor="start" x="224" y="-62.5" font-family="Helvetica,sans-Serif" font-size="10.00"># OnExit()</text>
<text text-anchor="start" x="224" y="-51.5" font-family="Helvetica,sans-Serif" font-size="10.00"># OnSeed()</text>
<text text-anchor="start" x="224" y="-40.5" font-family="Helvetica,sans-Serif" font-size="10.00"># OnRun()</text>
<text text-anchor="start" x="224" y="-29.5" font-family="Helvetica,sans-Serif" font-size="10.00"># OnPauseResume()</text>
<text text-anchor="start" x="224" y="-18.5" font-family="Helvetica,sans-Serif" font-size="10.00">&#45; InitializeComponent()</text>
<text text-anchor="start" x="224" y="-7.5" font-family="Helvetica,sans-Serif" font-size="10.00">&#45; menuStrip1_ItemClicked()</text>
</g>
<!-- Node2 -->
<g id="node2" class="node"><title>Node2</title>
<polygon fill="white" stroke="#bfbfbf" points="0,-490.5 0,-558.5 136,-558.5 136,-490.5 0,-490.5"/>
<text text-anchor="start" x="8" y="-546.5" font-family="Helvetica,sans-Serif" font-size="10.00">System::Windows::Forms</text>
<text text-anchor="middle" x="68" y="-535.5" font-family="Helvetica,sans-Serif" font-size="10.00">::Form</text>
<polyline fill="none" stroke="#bfbfbf" points="0,-528.5 136,-528.5 "/>
<text text-anchor="middle" x="68" y="-516.5" font-family="Helvetica,sans-Serif" font-size="10.00"> </text>
<polyline fill="none" stroke="#bfbfbf" points="0,-509.5 136,-509.5 "/>
<text text-anchor="middle" x="68" y="-497.5" font-family="Helvetica,sans-Serif" font-size="10.00"> </text>
</g>
<!-- Node2&#45;&gt;Node1 -->
<g id="edge1" class="edge"><title>Node2&#45;&gt;Node1</title>
<path fill="none" stroke="midnightblue" d="M94.5964,-481.509C124.417,-434.428 174.073,-356.029 215.864,-290.047"/>
<polygon fill="none" stroke="midnightblue" points="91.4794,-479.889 89.0854,-490.21 97.393,-483.635 91.4794,-479.889"/>
</g>
<!-- Node3 -->
<g id="node3" class="node"><title>Node3</title>
<g id="a_node3"><a xlink:href="../../de/d23/classBoard.html" target="_top" xlink:title="{Board\n|&#45; components\l&#45; m_occupiedBrush\l&#45; m_freeBrush\l&#45; m_graphics\l&#45; m_mem_dc\l&#45; m_bmp\l&#45; m_width\l&#45; m_height\l&#45; m_squareSize\l&#45; m_counter\l|+ Board()\l+ ~Board()\l+ seed()\l+ seed()\l+ draw()\l# OnPaint()\l# draw()\l&#45; InitializeComponent()\l&#45; drawDelegate()\l}">
<polygon fill="white" stroke="black" points="154.5,-402.5 154.5,-646.5 279.5,-646.5 279.5,-402.5 154.5,-402.5"/>
<text text-anchor="middle" x="217" y="-634.5" font-family="Helvetica,sans-Serif" font-size="10.00">Board</text>
<polyline fill="none" stroke="black" points="154.5,-627.5 279.5,-627.5 "/>
<text text-anchor="start" x="162.5" y="-615.5" font-family="Helvetica,sans-Serif" font-size="10.00">&#45; components</text>
<text text-anchor="start" x="162.5" y="-604.5" font-family="Helvetica,sans-Serif" font-size="10.00">&#45; m_occupiedBrush</text>
<text text-anchor="start" x="162.5" y="-593.5" font-family="Helvetica,sans-Serif" font-size="10.00">&#45; m_freeBrush</text>
<text text-anchor="start" x="162.5" y="-582.5" font-family="Helvetica,sans-Serif" font-size="10.00">&#45; m_graphics</text>
<text text-anchor="start" x="162.5" y="-571.5" font-family="Helvetica,sans-Serif" font-size="10.00">&#45; m_mem_dc</text>
<text text-anchor="start" x="162.5" y="-560.5" font-family="Helvetica,sans-Serif" font-size="10.00">&#45; m_bmp</text>
<text text-anchor="start" x="162.5" y="-549.5" font-family="Helvetica,sans-Serif" font-size="10.00">&#45; m_width</text>
<text text-anchor="start" x="162.5" y="-538.5" font-family="Helvetica,sans-Serif" font-size="10.00">&#45; m_height</text>
<text text-anchor="start" x="162.5" y="-527.5" font-family="Helvetica,sans-Serif" font-size="10.00">&#45; m_squareSize</text>
<text text-anchor="start" x="162.5" y="-516.5" font-family="Helvetica,sans-Serif" font-size="10.00">&#45; m_counter</text>
<polyline fill="none" stroke="black" points="154.5,-509.5 279.5,-509.5 "/>
<text text-anchor="start" x="162.5" y="-497.5" font-family="Helvetica,sans-Serif" font-size="10.00">+ Board()</text>
<text text-anchor="start" x="162.5" y="-486.5" font-family="Helvetica,sans-Serif" font-size="10.00">+ ~Board()</text>
<text text-anchor="start" x="162.5" y="-475.5" font-family="Helvetica,sans-Serif" font-size="10.00">+ seed()</text>
<text text-anchor="start" x="162.5" y="-464.5" font-family="Helvetica,sans-Serif" font-size="10.00">+ seed()</text>
<text text-anchor="start" x="162.5" y="-453.5" font-family="Helvetica,sans-Serif" font-size="10.00">+ draw()</text>
<text text-anchor="start" x="162.5" y="-442.5" font-family="Helvetica,sans-Serif" font-size="10.00"># OnPaint()</text>
<text text-anchor="start" x="162.5" y="-431.5" font-family="Helvetica,sans-Serif" font-size="10.00"># draw()</text>
<text text-anchor="start" x="162.5" y="-420.5" font-family="Helvetica,sans-Serif" font-size="10.00">&#45; InitializeComponent()</text>
<text text-anchor="start" x="162.5" y="-409.5" font-family="Helvetica,sans-Serif" font-size="10.00">&#45; drawDelegate()</text>
</a>
</g>
</g>
<!-- Node3&#45;&gt;Node1 -->
<g id="edge2" class="edge"><title>Node3&#45;&gt;Node1</title>
<path fill="none" stroke="#404040" d="M242.225,-402.387C245.377,-387.25 248.655,-371.515 251.949,-355.699"/>
<polygon fill="none" stroke="#404040" points="252.022,-355.345 249.33,-348.656 254.469,-343.598 257.162,-350.287 252.022,-355.345"/>
<text text-anchor="middle" x="278" y="-376" font-family="Helvetica,sans-Serif" font-size="10.00"> &#45;m_board2</text>
<text text-anchor="middle" x="278" y="-365" font-family="Helvetica,sans-Serif" font-size="10.00">&#45;m_board1</text>
</g>
<!-- Node4 -->
<g id="node4" class="node"><title>Node4</title>
<polygon fill="white" stroke="#bfbfbf" points="105,-738.5 105,-806.5 241,-806.5 241,-738.5 105,-738.5"/>
<text text-anchor="start" x="113" y="-794.5" font-family="Helvetica,sans-Serif" font-size="10.00">System::Windows::Forms</text>
<text text-anchor="middle" x="173" y="-783.5" font-family="Helvetica,sans-Serif" font-size="10.00">::UserControl</text>
<polyline fill="none" stroke="#bfbfbf" points="105,-776.5 241,-776.5 "/>
<text text-anchor="middle" x="173" y="-764.5" font-family="Helvetica,sans-Serif" font-size="10.00"> </text>
<polyline fill="none" stroke="#bfbfbf" points="105,-757.5 241,-757.5 "/>
<text text-anchor="middle" x="173" y="-745.5" font-family="Helvetica,sans-Serif" font-size="10.00"> </text>
</g>
<!-- Node4&#45;&gt;Node3 -->
<g id="edge3" class="edge"><title>Node4&#45;&gt;Node3</title>
<path fill="none" stroke="midnightblue" d="M180.73,-728.283C184.826,-705.384 190.082,-675.997 195.314,-646.742"/>
<polygon fill="none" stroke="midnightblue" points="177.249,-727.863 178.934,-738.323 184.14,-729.096 177.249,-727.863"/>
</g>
<!-- Node5 -->
<g id="node5" class="node"><title>Node5</title>
<g id="a_node5"><a xlink:href="../../d3/d3f/classMatrix.html" target="_top" xlink:title="{Matrix\n|+ width\l+ height\l+ data\l&#45; array\l&#45; n\l|+ Matrix()\l+ Matrix()\l}">
<polygon fill="white" stroke="black" points="259.5,-716.5 259.5,-828.5 324.5,-828.5 324.5,-716.5 259.5,-716.5"/>
<text text-anchor="middle" x="292" y="-816.5" font-family="Helvetica,sans-Serif" font-size="10.00">Matrix</text>
<polyline fill="none" stroke="black" points="259.5,-809.5 324.5,-809.5 "/>
<text text-anchor="start" x="267.5" y="-797.5" font-family="Helvetica,sans-Serif" font-size="10.00">+ width</text>
<text text-anchor="start" x="267.5" y="-786.5" font-family="Helvetica,sans-Serif" font-size="10.00">+ height</text>
<text text-anchor="start" x="267.5" y="-775.5" font-family="Helvetica,sans-Serif" font-size="10.00">+ data</text>
<text text-anchor="start" x="267.5" y="-764.5" font-family="Helvetica,sans-Serif" font-size="10.00">&#45; array</text>
<text text-anchor="start" x="267.5" y="-753.5" font-family="Helvetica,sans-Serif" font-size="10.00">&#45; n</text>
<polyline fill="none" stroke="black" points="259.5,-746.5 324.5,-746.5 "/>
<text text-anchor="start" x="267.5" y="-734.5" font-family="Helvetica,sans-Serif" font-size="10.00">+ Matrix()</text>
<text text-anchor="start" x="267.5" y="-723.5" font-family="Helvetica,sans-Serif" font-size="10.00">+ Matrix()</text>
</a>
</g>
</g>
<!-- Node5&#45;&gt;Node3 -->
<g id="edge4" class="edge"><title>Node5&#45;&gt;Node3</title>
<path fill="none" stroke="#404040" d="M275.169,-716.293C269.873,-698.923 263.778,-678.93 257.569,-658.567"/>
<polygon fill="none" stroke="#404040" points="257.509,-658.371 251.934,-653.798 254.01,-646.893 259.586,-651.465 257.509,-658.371"/>
<text text-anchor="middle" x="291" y="-668" font-family="Helvetica,sans-Serif" font-size="10.00"> +m_matrix</text>
</g>
<!-- Node6 -->
<g id="node6" class="node"><title>Node6</title>
<g id="a_node6"><a xlink:href="../../df/d53/classParallelEvolution.html" target="_top" xlink:title="class ParallelEvolution &#45; derived from Evolution &#45; calculate life generations in parallel using Intel...">
<polygon fill="white" stroke="black" points="446.5,-479.5 446.5,-569.5 567.5,-569.5 567.5,-479.5 446.5,-479.5"/>
<text text-anchor="middle" x="507" y="-557.5" font-family="Helvetica,sans-Serif" font-size="10.00">ParallelEvolution</text>
<polyline fill="none" stroke="black" points="446.5,-550.5 567.5,-550.5 "/>
<text text-anchor="start" x="454.5" y="-538.5" font-family="Helvetica,sans-Serif" font-size="10.00">&#45; m_parallel_time</text>
<polyline fill="none" stroke="black" points="446.5,-531.5 567.5,-531.5 "/>
<text text-anchor="start" x="454.5" y="-519.5" font-family="Helvetica,sans-Serif" font-size="10.00">+ ParallelEvolution()</text>
<text text-anchor="start" x="454.5" y="-508.5" font-family="Helvetica,sans-Serif" font-size="10.00">+ ~ParallelEvolution()</text>
<text text-anchor="start" x="454.5" y="-497.5" font-family="Helvetica,sans-Serif" font-size="10.00">+ Run()</text>
<text text-anchor="start" x="454.5" y="-486.5" font-family="Helvetica,sans-Serif" font-size="10.00">+ Step()</text>
</a>
</g>
</g>
<!-- Node6&#45;&gt;Node1 -->
<g id="edge5" class="edge"><title>Node6&#45;&gt;Node1</title>
<path fill="none" stroke="#404040" d="M482.232,-479.336C469.061,-456.155 452.44,-427.371 437,-402 416.023,-367.529 392.679,-330.567 370.884,-296.615"/>
<polygon fill="none" stroke="#404040" points="370.664,-296.274 364.055,-293.391 364.174,-286.181 370.783,-289.064 370.664,-296.274"/>
<text text-anchor="middle" x="445" y="-370.5" font-family="Helvetica,sans-Serif" font-size="10.00"> &#45;m_par</text>
</g>
<!-- Node7 -->
<g id="node7" class="node"><title>Node7</title>
<polygon fill="white" stroke="#bfbfbf" points="354,-744 354,-801 414,-801 414,-744 354,-744"/>
<text text-anchor="middle" x="384" y="-789" font-family="Helvetica,sans-Serif" font-size="10.00">Evolution</text>
<polyline fill="none" stroke="#bfbfbf" points="354,-782 414,-782 "/>
<text text-anchor="middle" x="384" y="-770" font-family="Helvetica,sans-Serif" font-size="10.00"> </text>
<polyline fill="none" stroke="#bfbfbf" points="354,-763 414,-763 "/>
<text text-anchor="middle" x="384" y="-751" font-family="Helvetica,sans-Serif" font-size="10.00"> </text>
</g>
<!-- Node7&#45;&gt;Node6 -->
<g id="edge6" class="edge"><title>Node7&#45;&gt;Node6</title>
<path fill="none" stroke="midnightblue" d="M402.474,-734.553C424.52,-690.46 461.35,-616.801 484.889,-569.723"/>
<polygon fill="none" stroke="midnightblue" points="399.212,-733.249 397.871,-743.759 405.473,-736.38 399.212,-733.249"/>
</g>
<!-- Node9 -->
<g id="node9" class="node"><title>Node9</title>
<g id="a_node9"><a xlink:href="../../dc/d9d/classSequentialEvolution.html" target="_top" xlink:title="class SequentialEvolution &#45; derived from Evolution &#45; calculate life generations serially ...">
<polygon fill="white" stroke="black" points="298,-485 298,-564 428,-564 428,-485 298,-485"/>
<text text-anchor="middle" x="363" y="-552" font-family="Helvetica,sans-Serif" font-size="10.00">SequentialEvolution</text>
<polyline fill="none" stroke="black" points="298,-545 428,-545 "/>
<text text-anchor="middle" x="363" y="-533" font-family="Helvetica,sans-Serif" font-size="10.00"> </text>
<polyline fill="none" stroke="black" points="298,-526 428,-526 "/>
<text text-anchor="start" x="306" y="-514" font-family="Helvetica,sans-Serif" font-size="10.00">+ SequentialEvolution()</text>
<text text-anchor="start" x="306" y="-503" font-family="Helvetica,sans-Serif" font-size="10.00">+ Run()</text>
<text text-anchor="start" x="306" y="-492" font-family="Helvetica,sans-Serif" font-size="10.00">+ Step()</text>
</a>
</g>
</g>
<!-- Node7&#45;&gt;Node9 -->
<g id="edge9" class="edge"><title>Node7&#45;&gt;Node9</title>
<path fill="none" stroke="midnightblue" d="M380.764,-733.598C376.834,-687.56 370.241,-610.328 366.288,-564.016"/>
<polygon fill="none" stroke="midnightblue" points="377.294,-734.093 381.632,-743.759 384.269,-733.497 377.294,-734.093"/>
</g>
<!-- Node8 -->
<g id="node8" class="node"><title>Node8</title>
<g id="a_node8"><a xlink:href="../../d1/d8a/classtbb_1_1task__scheduler__init.html" target="_top" xlink:title="Class delimiting the scope of task scheduler activity. ">
<polygon fill="white" stroke="red" points="438.5,-694.5 438.5,-850.5 575.5,-850.5 575.5,-694.5 438.5,-694.5"/>
<text text-anchor="middle" x="507" y="-838.5" font-family="Helvetica,sans-Serif" font-size="10.00">tbb::task_scheduler_init</text>
<polyline fill="none" stroke="red" points="438.5,-831.5 575.5,-831.5 "/>
<text text-anchor="start" x="446.5" y="-819.5" font-family="Helvetica,sans-Serif" font-size="10.00">+ automatic</text>
<text text-anchor="start" x="446.5" y="-808.5" font-family="Helvetica,sans-Serif" font-size="10.00">+ deferred</text>
<text text-anchor="start" x="446.5" y="-797.5" font-family="Helvetica,sans-Serif" font-size="10.00">&#45; my_scheduler</text>
<polyline fill="none" stroke="red" points="438.5,-790.5 575.5,-790.5 "/>
<text text-anchor="start" x="446.5" y="-778.5" font-family="Helvetica,sans-Serif" font-size="10.00">+ initialize()</text>
<text text-anchor="start" x="446.5" y="-767.5" font-family="Helvetica,sans-Serif" font-size="10.00">+ initialize()</text>
<text text-anchor="start" x="446.5" y="-756.5" font-family="Helvetica,sans-Serif" font-size="10.00">+ terminate()</text>
<text text-anchor="start" x="446.5" y="-745.5" font-family="Helvetica,sans-Serif" font-size="10.00">+ task_scheduler_init()</text>
<text text-anchor="start" x="446.5" y="-734.5" font-family="Helvetica,sans-Serif" font-size="10.00">+ ~task_scheduler_init()</text>
<text text-anchor="start" x="446.5" y="-723.5" font-family="Helvetica,sans-Serif" font-size="10.00">+ is_active()</text>
<text text-anchor="start" x="446.5" y="-712.5" font-family="Helvetica,sans-Serif" font-size="10.00">+ default_num_threads()</text>
<text text-anchor="start" x="446.5" y="-701.5" font-family="Helvetica,sans-Serif" font-size="10.00">&#45; internal_terminate()</text>
</a>
</g>
</g>
<!-- Node8&#45;&gt;Node6 -->
<g id="edge7" class="edge"><title>Node8&#45;&gt;Node6</title>
<path fill="none" stroke="#404040" d="M507,-694.339C507,-657.98 507,-615.386 507,-582.076"/>
<polygon fill="none" stroke="#404040" points="507,-581.796 503,-575.796 507,-569.796 511,-575.796 507,-581.796"/>
<text text-anchor="middle" x="528.5" y="-668" font-family="Helvetica,sans-Serif" font-size="10.00"> &#45;m_pInit</text>
</g>
<!-- Node9&#45;&gt;Node1 -->
<g id="edge8" class="edge"><title>Node9&#45;&gt;Node1</title>
<path fill="none" stroke="#404040" d="M354.979,-484.988C348.293,-452.884 338.243,-404.633 328.033,-355.612"/>
<polygon fill="none" stroke="#404040" points="328.023,-355.563 322.884,-350.505 325.576,-343.815 330.716,-348.873 328.023,-355.563"/>
<text text-anchor="middle" x="354" y="-370.5" font-family="Helvetica,sans-Serif" font-size="10.00"> &#45;m_seq</text>
</g>
</g>
</svg>
