<?xml version="1.0" encoding="UTF-8" standalone="no"?>
<!DOCTYPE svg PUBLIC "-//W3C//DTD SVG 1.1//EN"
 "http://www.w3.org/Graphics/SVG/1.1/DTD/svg11.dtd">
<!-- Generated by graphviz version 2.38.0 (20140413.2041)
 -->
<!-- Title: TestArenaConcurrencyBody Pages: 1 -->
<svg width="364pt" height="452pt"
 viewBox="0.00 0.00 364.00 452.00" xmlns="http://www.w3.org/2000/svg" xmlns:xlink="http://www.w3.org/1999/xlink">
<g id="graph0" class="graph" transform="scale(1 1) rotate(0) translate(4 448)">
<title>TestArenaConcurrencyBody</title>
<polygon fill="white" stroke="none" points="-4,4 -4,-448 360,-448 360,4 -4,4"/>
<!-- Node1 -->
<g id="node1" class="node"><title>Node1</title>
<polygon fill="#bfbfbf" stroke="black" points="49.5,-0.5 49.5,-90.5 216.5,-90.5 216.5,-0.5 49.5,-0.5"/>
<text text-anchor="middle" x="133" y="-78.5" font-family="Helvetica,sans-Serif" font-size="10.00">TestArenaConcurrencyBody</text>
<polyline fill="none" stroke="black" points="49.5,-71.5 216.5,-71.5 "/>
<text text-anchor="start" x="57.5" y="-59.5" font-family="Helvetica,sans-Serif" font-size="10.00">&#45; my_max_concurrency</text>
<text text-anchor="start" x="57.5" y="-48.5" font-family="Helvetica,sans-Serif" font-size="10.00">&#45; my_reserved_slots</text>
<polyline fill="none" stroke="black" points="49.5,-41.5 216.5,-41.5 "/>
<text text-anchor="start" x="57.5" y="-29.5" font-family="Helvetica,sans-Serif" font-size="10.00">+ TestArenaConcurrencyBody()</text>
<text text-anchor="start" x="57.5" y="-18.5" font-family="Helvetica,sans-Serif" font-size="10.00">+ operator()()</text>
<text text-anchor="start" x="57.5" y="-7.5" font-family="Helvetica,sans-Serif" font-size="10.00">+ operator()()</text>
</g>
<!-- Node2 -->
<g id="node2" class="node"><title>Node2</title>
<g id="a_node2"><a xlink:href="../../d8/dab/classNoAssign.html" target="_top" xlink:title="Base class for prohibiting compiler&#45;generated operator=. ">
<polygon fill="white" stroke="black" points="0,-199 0,-267 80,-267 80,-199 0,-199"/>
<text text-anchor="middle" x="40" y="-255" font-family="Helvetica,sans-Serif" font-size="10.00">NoAssign</text>
<polyline fill="none" stroke="black" points="0,-248 80,-248 "/>
<text text-anchor="middle" x="40" y="-236" font-family="Helvetica,sans-Serif" font-size="10.00"> </text>
<polyline fill="none" stroke="black" points="0,-229 80,-229 "/>
<text text-anchor="start" x="8" y="-217" font-family="Helvetica,sans-Serif" font-size="10.00">+ NoAssign()</text>
<text text-anchor="start" x="8" y="-206" font-family="Helvetica,sans-Serif" font-size="10.00">&#45; operator=()</text>
</a>
</g>
</g>
<!-- Node2&#45;&gt;Node1 -->
<g id="edge1" class="edge"><title>Node2&#45;&gt;Node1</title>
<path fill="none" stroke="#8b1a1a" d="M61.2631,-189.588C76.1148,-159.965 95.8939,-120.513 110.922,-90.5381"/>
<polygon fill="none" stroke="#8b1a1a" points="57.9796,-188.328 56.6265,-198.836 64.2372,-191.465 57.9796,-188.328"/>
</g>
<!-- Node3 -->
<g id="node3" class="node"><title>Node3</title>
<polygon fill="white" stroke="#bfbfbf" points="98,-204.5 98,-261.5 168,-261.5 168,-204.5 98,-204.5"/>
<text text-anchor="middle" x="133" y="-249.5" font-family="Helvetica,sans-Serif" font-size="10.00">task_arena</text>
<polyline fill="none" stroke="#bfbfbf" points="98,-242.5 168,-242.5 "/>
<text text-anchor="middle" x="133" y="-230.5" font-family="Helvetica,sans-Serif" font-size="10.00"> </text>
<polyline fill="none" stroke="#bfbfbf" points="98,-223.5 168,-223.5 "/>
<text text-anchor="middle" x="133" y="-211.5" font-family="Helvetica,sans-Serif" font-size="10.00"> </text>
</g>
<!-- Node3&#45;&gt;Node1 -->
<g id="edge2" class="edge"><title>Node3&#45;&gt;Node1</title>
<path fill="none" stroke="#404040" d="M133,-204.229C133,-177.611 133,-136.645 133,-103.134"/>
<polygon fill="none" stroke="#404040" points="133,-102.701 129,-96.7008 133,-90.7008 137,-96.7008 133,-102.701"/>
<text text-anchor="middle" x="150" y="-117.5" font-family="Helvetica,sans-Serif" font-size="10.00"> &#45;my_a</text>
</g>
<!-- Node4 -->
<g id="node4" class="node"><title>Node4</title>
<g id="a_node4"><a xlink:href="../../d0/d34/classHarness_1_1SpinBarrier.html" target="_top" xlink:title="{Harness::SpinBarrier\n|&#45; numThreads\l&#45; throwaway\l|+ SpinBarrier()\l+ initialize()\l+ custom_wait()\l+ timed_wait_noerror()\l+ timed_wait()\l+ wait()\l+ wait()\l+ signal_nowait()\l&#45; SpinBarrier()\l&#45; operator=()\l}">
<polygon fill="white" stroke="black" points="186,-149.5 186,-316.5 314,-316.5 314,-149.5 186,-149.5"/>
<text text-anchor="middle" x="250" y="-304.5" font-family="Helvetica,sans-Serif" font-size="10.00">Harness::SpinBarrier</text>
<polyline fill="none" stroke="black" points="186,-297.5 314,-297.5 "/>
<text text-anchor="start" x="194" y="-285.5" font-family="Helvetica,sans-Serif" font-size="10.00">&#45; numThreads</text>
<text text-anchor="start" x="194" y="-274.5" font-family="Helvetica,sans-Serif" font-size="10.00">&#45; throwaway</text>
<polyline fill="none" stroke="black" points="186,-267.5 314,-267.5 "/>
<text text-anchor="start" x="194" y="-255.5" font-family="Helvetica,sans-Serif" font-size="10.00">+ SpinBarrier()</text>
<text text-anchor="start" x="194" y="-244.5" font-family="Helvetica,sans-Serif" font-size="10.00">+ initialize()</text>
<text text-anchor="start" x="194" y="-233.5" font-family="Helvetica,sans-Serif" font-size="10.00">+ custom_wait()</text>
<text text-anchor="start" x="194" y="-222.5" font-family="Helvetica,sans-Serif" font-size="10.00">+ timed_wait_noerror()</text>
<text text-anchor="start" x="194" y="-211.5" font-family="Helvetica,sans-Serif" font-size="10.00">+ timed_wait()</text>
<text text-anchor="start" x="194" y="-200.5" font-family="Helvetica,sans-Serif" font-size="10.00">+ wait()</text>
<text text-anchor="start" x="194" y="-189.5" font-family="Helvetica,sans-Serif" font-size="10.00">+ wait()</text>
<text text-anchor="start" x="194" y="-178.5" font-family="Helvetica,sans-Serif" font-size="10.00">+ signal_nowait()</text>
<text text-anchor="start" x="194" y="-167.5" font-family="Helvetica,sans-Serif" font-size="10.00">&#45; SpinBarrier()</text>
<text text-anchor="start" x="194" y="-156.5" font-family="Helvetica,sans-Serif" font-size="10.00">&#45; operator=()</text>
</a>
</g>
</g>
<!-- Node4&#45;&gt;Node1 -->
<g id="edge3" class="edge"><title>Node4&#45;&gt;Node1</title>
<path fill="none" stroke="#404040" d="M197.83,-149.286C187.482,-132.88 176.867,-116.05 167.3,-100.882"/>
<polygon fill="none" stroke="#404040" points="167.262,-100.822 160.678,-97.8806 160.86,-90.6718 167.445,-93.6128 167.262,-100.822"/>
<text text-anchor="middle" x="232" y="-123" font-family="Helvetica,sans-Serif" font-size="10.00"> &#45;my_worker_barrier</text>
<text text-anchor="middle" x="232" y="-112" font-family="Helvetica,sans-Serif" font-size="10.00">&#45;my_barrier</text>
</g>
<!-- Node5 -->
<g id="node5" class="node"><title>Node5</title>
<g id="a_node5"><a xlink:href="../../d4/d32/structtbb_1_1atomic.html" target="_top" xlink:title="{tbb::atomic\&lt; unsigned \&gt;\n||+ operator=()\l+ operator=()\l}">
<polygon fill="white" stroke="red" points="181.5,-375.5 181.5,-443.5 318.5,-443.5 318.5,-375.5 181.5,-375.5"/>
<text text-anchor="middle" x="250" y="-431.5" font-family="Helvetica,sans-Serif" font-size="10.00">tbb::atomic&lt; unsigned &gt;</text>
<polyline fill="none" stroke="red" points="181.5,-424.5 318.5,-424.5 "/>
<text text-anchor="middle" x="250" y="-412.5" font-family="Helvetica,sans-Serif" font-size="10.00"> </text>
<polyline fill="none" stroke="red" points="181.5,-405.5 318.5,-405.5 "/>
<text text-anchor="start" x="189.5" y="-393.5" font-family="Helvetica,sans-Serif" font-size="10.00">+ operator=()</text>
<text text-anchor="start" x="189.5" y="-382.5" font-family="Helvetica,sans-Serif" font-size="10.00">+ operator=()</text>
</a>
</g>
</g>
<!-- Node5&#45;&gt;Node4 -->
<g id="edge4" class="edge"><title>Node5&#45;&gt;Node4</title>
<path fill="none" stroke="#404040" d="M250,-375.267C250,-361.819 250,-345.549 250,-328.905"/>
<polygon fill="none" stroke="#404040" points="250,-328.754 246,-322.754 250,-316.754 254,-322.754 250,-328.754"/>
<text text-anchor="middle" x="303" y="-349" font-family="Helvetica,sans-Serif" font-size="10.00"> &#45;numThreadsFinished</text>
<text text-anchor="middle" x="303" y="-338" font-family="Helvetica,sans-Serif" font-size="10.00">&#45;epoch</text>
</g>
</g>
</svg>
