<?xml version="1.0" encoding="UTF-8" standalone="no"?>
<!DOCTYPE svg PUBLIC "-//W3C//DTD SVG 1.1//EN"
 "http://www.w3.org/Graphics/SVG/1.1/DTD/svg11.dtd">
<!-- Generated by graphviz version 2.38.0 (20140413.2041)
 -->
<!-- Title: /home/travis/build/ComPWA/ComPWA/Tools/UpdatePTreeParameter.hpp Pages: 1 -->
<svg width="571pt" height="128pt"
 viewBox="0.00 0.00 570.50 128.00" xmlns="http://www.w3.org/2000/svg" xmlns:xlink="http://www.w3.org/1999/xlink">
<g id="graph0" class="graph" transform="scale(1 1) rotate(0) translate(4 124)">
<title>/home/travis/build/ComPWA/ComPWA/Tools/UpdatePTreeParameter.hpp</title>
<polygon fill="white" stroke="none" points="-4,4 -4,-124 566.5,-124 566.5,4 -4,4"/>
<!-- Node1 -->
<g id="node1" class="node"><title>Node1</title>
<polygon fill="#bfbfbf" stroke="black" points="223,-78.5 223,-119.5 374,-119.5 374,-78.5 223,-78.5"/>
<text text-anchor="start" x="231" y="-107.5" font-family="Helvetica,sans-Serif" font-size="10.00">/home/travis/build</text>
<text text-anchor="start" x="231" y="-96.5" font-family="Helvetica,sans-Serif" font-size="10.00">/ComPWA/ComPWA/Tools</text>
<text text-anchor="middle" x="298.5" y="-85.5" font-family="Helvetica,sans-Serif" font-size="10.00">/UpdatePTreeParameter.hpp</text>
</g>
<!-- Node2 -->
<g id="node2" class="node"><title>Node2</title>
<g id="a_node2"><a xlink:href="../../df/d51/SaveAndLoadFitResultTest_8cpp.html" target="_top" xlink:title="/home/travis/build\l/ComPWA/ComPWA/Tools\l/test/SaveAndLoadFitResultTest.cpp">
<polygon fill="white" stroke="black" points="0,-0.5 0,-41.5 185,-41.5 185,-0.5 0,-0.5"/>
<text text-anchor="start" x="8" y="-29.5" font-family="Helvetica,sans-Serif" font-size="10.00">/home/travis/build</text>
<text text-anchor="start" x="8" y="-18.5" font-family="Helvetica,sans-Serif" font-size="10.00">/ComPWA/ComPWA/Tools</text>
<text text-anchor="middle" x="92.5" y="-7.5" font-family="Helvetica,sans-Serif" font-size="10.00">/test/SaveAndLoadFitResultTest.cpp</text>
</a>
</g>
</g>
<!-- Node1&#45;&gt;Node2 -->
<g id="edge1" class="edge"><title>Node1&#45;&gt;Node2</title>
<path fill="none" stroke="midnightblue" d="M235.853,-74.8874C206.934,-64.2185 172.976,-51.6901 145.37,-41.5056"/>
<polygon fill="midnightblue" stroke="midnightblue" points="234.857,-78.2504 245.45,-78.4281 237.279,-71.6831 234.857,-78.2504"/>
</g>
<!-- Node3 -->
<g id="node3" class="node"><title>Node3</title>
<g id="a_node3"><a xlink:href="../../d0/dc1/UpdatePTreeParameterTest_8cpp.html" target="_top" xlink:title="/home/travis/build\l/ComPWA/ComPWA/Tools\l/test/UpdatePTreeParameterTest.cpp">
<polygon fill="white" stroke="black" points="203,-0.5 203,-41.5 394,-41.5 394,-0.5 203,-0.5"/>
<text text-anchor="start" x="211" y="-29.5" font-family="Helvetica,sans-Serif" font-size="10.00">/home/travis/build</text>
<text text-anchor="start" x="211" y="-18.5" font-family="Helvetica,sans-Serif" font-size="10.00">/ComPWA/ComPWA/Tools</text>
<text text-anchor="middle" x="298.5" y="-7.5" font-family="Helvetica,sans-Serif" font-size="10.00">/test/UpdatePTreeParameterTest.cpp</text>
</a>
</g>
</g>
<!-- Node1&#45;&gt;Node3 -->
<g id="edge2" class="edge"><title>Node1&#45;&gt;Node3</title>
<path fill="none" stroke="midnightblue" d="M298.5,-68.2965C298.5,-59.3009 298.5,-49.6532 298.5,-41.5056"/>
<polygon fill="midnightblue" stroke="midnightblue" points="295,-68.4281 298.5,-78.4281 302,-68.4281 295,-68.4281"/>
</g>
<!-- Node4 -->
<g id="node4" class="node"><title>Node4</title>
<g id="a_node4"><a xlink:href="../../d9/d3e/UpdatePTreeParameter_8cpp.html" target="_top" xlink:title="/home/travis/build\l/ComPWA/ComPWA/Tools\l/UpdatePTreeParameter.cpp">
<polygon fill="white" stroke="black" points="412.5,-0.5 412.5,-41.5 562.5,-41.5 562.5,-0.5 412.5,-0.5"/>
<text text-anchor="start" x="420.5" y="-29.5" font-family="Helvetica,sans-Serif" font-size="10.00">/home/travis/build</text>
<text text-anchor="start" x="420.5" y="-18.5" font-family="Helvetica,sans-Serif" font-size="10.00">/ComPWA/ComPWA/Tools</text>
<text text-anchor="middle" x="487.5" y="-7.5" font-family="Helvetica,sans-Serif" font-size="10.00">/UpdatePTreeParameter.cpp</text>
</a>
</g>
</g>
<!-- Node1&#45;&gt;Node4 -->
<g id="edge3" class="edge"><title>Node1&#45;&gt;Node4</title>
<path fill="none" stroke="midnightblue" d="M356.671,-74.6086C383.051,-64.0008 413.886,-51.6015 438.993,-41.5056"/>
<polygon fill="midnightblue" stroke="midnightblue" points="355.144,-71.4499 347.172,-78.4281 357.756,-77.9445 355.144,-71.4499"/>
</g>
</g>
</svg>
