<?xml version="1.0" encoding="UTF-8" standalone="no"?>
<!DOCTYPE svg PUBLIC "-//W3C//DTD SVG 1.1//EN"
 "http://www.w3.org/Graphics/SVG/1.1/DTD/svg11.dtd">
<!-- Generated by graphviz version 2.38.0 (20140413.2041)
 -->
<!-- Title: CacheBinModel&lt; Props &gt; Pages: 1 -->
<!--zoomable 678 -->
<svg id="main" version="1.1" xmlns="http://www.w3.org/2000/svg" xmlns:xlink="http://www.w3.org/1999/xlink" xml:space="preserve" onload="init(evt)">
<style type="text/css"><![CDATA[
.edge:hover path { stroke: red; }
.edge:hover polygon { stroke: red; fill: red; }
]]></style>
<script type="text/javascript"><![CDATA[
var edges = document.getElementsByTagName('g');
if (edges && edges.length) {
  for (var i=0;i<edges.length;i++) {
    if (edges[i].id.substr(0,4)=='edge') {
      edges[i].setAttribute('class','edge');
    }
  }
}
]]></script>
        <defs>
                <circle id="rim" cx="0" cy="0" r="7"/>
                <circle id="rim2" cx="0" cy="0" r="3.5"/>
                <g id="zoomPlus">
                        <use xlink:href="#rim" fill="#404040">
                                <set attributeName="fill" to="#808080" begin="zoomplus.mouseover" end="zoomplus.mouseout"/>
                        </use>
                        <path d="M-4,0h8M0,-4v8" fill="none" stroke="white" stroke-width="1.5" pointer-events="none"/>
                </g>
                <g id="zoomMin">
                        <use xlink:href="#rim" fill="#404040">
                                <set attributeName="fill" to="#808080" begin="zoomminus.mouseover" end="zoomminus.mouseout"/>
                        </use>
                        <path d="M-4,0h8" fill="none" stroke="white" stroke-width="1.5" pointer-events="none"/>
                </g>
                <g id="dirArrow">
                        <path fill="none" stroke="white" stroke-width="1.5" d="M0,-3.0v7 M-2.5,-0.5L0,-3.0L2.5,-0.5"/>
                </g>
               <g id="resetDef">
                       <use xlink:href="#rim2" fill="#404040">
                               <set attributeName="fill" to="#808080" begin="reset.mouseover" end="reset.mouseout"/>
                       </use>
               </g>
        </defs>

<script type="text/javascript">
var viewWidth = 552;
var viewHeight = 678;
var sectionId = 'dynsection-0';
</script>
<script xlink:href="../../svgpan.js"/>
<svg id="graph" class="graph">
<g id="viewport">
<title>CacheBinModel&lt; Props &gt;</title>
<polygon fill="white" stroke="none" points="-4,4 -4,-674 548,-674 548,4 -4,4"/>
<!-- Node1 -->
<g id="node1" class="node"><title>Node1</title>
<polygon fill="#bfbfbf" stroke="black" points="0,-0.5 0,-134.5 140,-134.5 140,-0.5 0,-0.5"/>
<text text-anchor="middle" x="70" y="-122.5" font-family="Helvetica,sans-Serif" font-size="10.00">CacheBinModel&lt; Props &gt;</text>
<polyline fill="none" stroke="black" points="0,-115.5 140,-115.5 "/>
<text text-anchor="start" x="8" y="-103.5" font-family="Helvetica,sans-Serif" font-size="10.00">+ cacheCurrTime</text>
<text text-anchor="start" x="8" y="-92.5" font-family="Helvetica,sans-Serif" font-size="10.00">+ tooLargeLOC</text>
<text text-anchor="start" x="8" y="-81.5" font-family="Helvetica,sans-Serif" font-size="10.00">&#45; cacheBinModel</text>
<text text-anchor="start" x="8" y="-70.5" font-family="Helvetica,sans-Serif" font-size="10.00">&#45; objects</text>
<polyline fill="none" stroke="black" points="0,-63.5 140,-63.5 "/>
<text text-anchor="start" x="8" y="-51.5" font-family="Helvetica,sans-Serif" font-size="10.00">+ CacheBinModel()</text>
<text text-anchor="start" x="8" y="-40.5" font-family="Helvetica,sans-Serif" font-size="10.00">+ get()</text>
<text text-anchor="start" x="8" y="-29.5" font-family="Helvetica,sans-Serif" font-size="10.00">+ putList()</text>
<text text-anchor="start" x="8" y="-18.5" font-family="Helvetica,sans-Serif" font-size="10.00">+ check()</text>
<text text-anchor="start" x="8" y="-7.5" font-family="Helvetica,sans-Serif" font-size="10.00">&#45; doCleanup()</text>
</g>
<!-- Node2 -->
<g id="node2" class="node"><title>Node2</title>
<g id="a_node2"><a xlink:href="../../d9/d9d/classrml_1_1internal_1_1LargeObjectCacheImpl_1_1CacheBin.html" target="_top" xlink:title="{rml::internal::LargeObject\lCacheImpl\&lt; Props \&gt;::CacheBin\n|&#45; oldest\l&#45; lastCleanedAge\l&#45; ageThreshold\l&#45; meanHitRange\l&#45; lastGet\l|+ init()\l+ putList()\l+ get()\l+ cleanToThreshold()\l+ releaseAllToBackend()\l+ updateUsedSize()\l+ decreaseThreshold()\l+ updateBinsSummary()\l+ getSize()\l+ getUsedSize()\land 11 more...\l&#45; ExecuteOperation()\l&#45; CacheBin()\l}">
<polygon fill="white" stroke="black" points="78.5,-182.5 78.5,-426.5 245.5,-426.5 245.5,-182.5 78.5,-182.5"/>
<text text-anchor="start" x="86.5" y="-414.5" font-family="Helvetica,sans-Serif" font-size="10.00">rml::internal::LargeObject</text>
<text text-anchor="middle" x="162" y="-403.5" font-family="Helvetica,sans-Serif" font-size="10.00">CacheImpl&lt; Props &gt;::CacheBin</text>
<polyline fill="none" stroke="black" points="78.5,-396.5 245.5,-396.5 "/>
<text text-anchor="start" x="86.5" y="-384.5" font-family="Helvetica,sans-Serif" font-size="10.00">&#45; oldest</text>
<text text-anchor="start" x="86.5" y="-373.5" font-family="Helvetica,sans-Serif" font-size="10.00">&#45; lastCleanedAge</text>
<text text-anchor="start" x="86.5" y="-362.5" font-family="Helvetica,sans-Serif" font-size="10.00">&#45; ageThreshold</text>
<text text-anchor="start" x="86.5" y="-351.5" font-family="Helvetica,sans-Serif" font-size="10.00">&#45; meanHitRange</text>
<text text-anchor="start" x="86.5" y="-340.5" font-family="Helvetica,sans-Serif" font-size="10.00">&#45; lastGet</text>
<polyline fill="none" stroke="black" points="78.5,-333.5 245.5,-333.5 "/>
<text text-anchor="start" x="86.5" y="-321.5" font-family="Helvetica,sans-Serif" font-size="10.00">+ init()</text>
<text text-anchor="start" x="86.5" y="-310.5" font-family="Helvetica,sans-Serif" font-size="10.00">+ putList()</text>
<text text-anchor="start" x="86.5" y="-299.5" font-family="Helvetica,sans-Serif" font-size="10.00">+ get()</text>
<text text-anchor="start" x="86.5" y="-288.5" font-family="Helvetica,sans-Serif" font-size="10.00">+ cleanToThreshold()</text>
<text text-anchor="start" x="86.5" y="-277.5" font-family="Helvetica,sans-Serif" font-size="10.00">+ releaseAllToBackend()</text>
<text text-anchor="start" x="86.5" y="-266.5" font-family="Helvetica,sans-Serif" font-size="10.00">+ updateUsedSize()</text>
<text text-anchor="start" x="86.5" y="-255.5" font-family="Helvetica,sans-Serif" font-size="10.00">+ decreaseThreshold()</text>
<text text-anchor="start" x="86.5" y="-244.5" font-family="Helvetica,sans-Serif" font-size="10.00">+ updateBinsSummary()</text>
<text text-anchor="start" x="86.5" y="-233.5" font-family="Helvetica,sans-Serif" font-size="10.00">+ getSize()</text>
<text text-anchor="start" x="86.5" y="-222.5" font-family="Helvetica,sans-Serif" font-size="10.00">+ getUsedSize()</text>
<text text-anchor="start" x="86.5" y="-211.5" font-family="Helvetica,sans-Serif" font-size="10.00">and 11 more...</text>
<text text-anchor="start" x="86.5" y="-200.5" font-family="Helvetica,sans-Serif" font-size="10.00">&#45; ExecuteOperation()</text>
<text text-anchor="start" x="86.5" y="-189.5" font-family="Helvetica,sans-Serif" font-size="10.00">&#45; CacheBin()</text>
</a>
</g>
</g>
<!-- Node2&#45;&gt;Node1 -->
<g id="edge1" class="edge"><title>Node2&#45;&gt;Node1</title>
<path fill="none" stroke="#404040" d="M114.518,-182.214C109.707,-169.925 104.917,-157.691 100.36,-146.051"/>
<polygon fill="none" stroke="#404040" points="100.263,-145.803 94.3513,-141.674 95.8887,-134.629 101.801,-138.758 100.263,-145.803"/>
<text text-anchor="middle" x="130.5" y="-156" font-family="Helvetica,sans-Serif" font-size="10.00"> &#45;cacheBin</text>
</g>
<!-- Node3 -->
<g id="node3" class="node"><title>Node3</title>
<g id="a_node3"><a xlink:href="../../df/d55/structMallocAggregator.html" target="_top" xlink:title="{MallocAggregator\&lt; rml\l::internal::CacheBinOperation \&gt;\n||}">
<polygon fill="white" stroke="black" points="376,-485.5 376,-553.5 544,-553.5 544,-485.5 376,-485.5"/>
<text text-anchor="start" x="384" y="-541.5" font-family="Helvetica,sans-Serif" font-size="10.00">MallocAggregator&lt; rml</text>
<text text-anchor="middle" x="460" y="-530.5" font-family="Helvetica,sans-Serif" font-size="10.00">::internal::CacheBinOperation &gt;</text>
<polyline fill="none" stroke="black" points="376,-523.5 544,-523.5 "/>
<text text-anchor="middle" x="460" y="-511.5" font-family="Helvetica,sans-Serif" font-size="10.00"> </text>
<polyline fill="none" stroke="black" points="376,-504.5 544,-504.5 "/>
<text text-anchor="middle" x="460" y="-492.5" font-family="Helvetica,sans-Serif" font-size="10.00"> </text>
</a>
</g>
</g>
<!-- Node3&#45;&gt;Node2 -->
<g id="edge2" class="edge"><title>Node3&#45;&gt;Node2</title>
<path fill="none" stroke="#404040" d="M413.764,-485.452C371.683,-455.374 308.278,-410.054 255.627,-372.422"/>
<polygon fill="none" stroke="#404040" points="255.353,-372.225 248.146,-371.991 245.59,-365.247 252.798,-365.482 255.353,-372.225"/>
<text text-anchor="middle" x="410.5" y="-453.5" font-family="Helvetica,sans-Serif" font-size="10.00"> &#45;aggregator</text>
</g>
<!-- Node4 -->
<g id="node4" class="node"><title>Node4</title>
<polygon fill="white" stroke="#bfbfbf" points="53,-612.5 53,-669.5 97,-669.5 97,-612.5 53,-612.5"/>
<text text-anchor="middle" x="75" y="-657.5" font-family="Helvetica,sans-Serif" font-size="10.00">size_t</text>
<polyline fill="none" stroke="#bfbfbf" points="53,-650.5 97,-650.5 "/>
<text text-anchor="middle" x="75" y="-638.5" font-family="Helvetica,sans-Serif" font-size="10.00"> </text>
<polyline fill="none" stroke="#bfbfbf" points="53,-631.5 97,-631.5 "/>
<text text-anchor="middle" x="75" y="-619.5" font-family="Helvetica,sans-Serif" font-size="10.00"> </text>
</g>
<!-- Node4&#45;&gt;Node1 -->
<g id="edge7" class="edge"><title>Node4&#45;&gt;Node1</title>
<path fill="none" stroke="#404040" d="M71.6163,-612.491C67.6181,-578.409 61.2275,-518.53 59,-467 54.1954,-355.849 59.7618,-227.164 64.5692,-146.789"/>
<polygon fill="none" stroke="#404040" points="64.5697,-146.78 60.9433,-140.547 65.302,-134.802 68.9284,-141.035 64.5697,-146.78"/>
<text text-anchor="middle" x="72" y="-453.5" font-family="Helvetica,sans-Serif" font-size="10.00"> &#45;size</text>
</g>
<!-- Node4&#45;&gt;Node2 -->
<g id="edge3" class="edge"><title>Node4&#45;&gt;Node2</title>
<path fill="none" stroke="#404040" d="M73.7158,-612.42C72.9178,-581.092 73.5953,-528.657 84,-485 87.7082,-469.441 92.69,-453.534 98.3518,-437.934"/>
<polygon fill="none" stroke="#404040" points="98.3739,-437.875 96.7345,-430.853 102.586,-426.639 104.225,-433.661 98.3739,-437.875"/>
<text text-anchor="middle" x="115" y="-522.5" font-family="Helvetica,sans-Serif" font-size="10.00"> &#45;cachedSize</text>
<text text-anchor="middle" x="115" y="-511.5" font-family="Helvetica,sans-Serif" font-size="10.00">&#45;usedSize</text>
</g>
<!-- Node5 -->
<g id="node5" class="node"><title>Node5</title>
<g id="a_node5"><a xlink:href="../../dd/def/structrml_1_1internal_1_1LargeMemoryBlock.html" target="_top" xlink:title="{rml::internal::LargeMemory\lBlock\n|+ age\l|}">
<polygon fill="white" stroke="red" points="155,-485.5 155,-553.5 301,-553.5 301,-485.5 155,-485.5"/>
<text text-anchor="start" x="163" y="-541.5" font-family="Helvetica,sans-Serif" font-size="10.00">rml::internal::LargeMemory</text>
<text text-anchor="middle" x="228" y="-530.5" font-family="Helvetica,sans-Serif" font-size="10.00">Block</text>
<polyline fill="none" stroke="red" points="155,-523.5 301,-523.5 "/>
<text text-anchor="start" x="163" y="-511.5" font-family="Helvetica,sans-Serif" font-size="10.00">+ age</text>
<polyline fill="none" stroke="red" points="155,-504.5 301,-504.5 "/>
<text text-anchor="middle" x="228" y="-492.5" font-family="Helvetica,sans-Serif" font-size="10.00"> </text>
</a>
</g>
</g>
<!-- Node4&#45;&gt;Node5 -->
<g id="edge5" class="edge"><title>Node4&#45;&gt;Node5</title>
<path fill="none" stroke="#404040" d="M97.2475,-622.624C117.768,-606.596 149.018,-582.188 175.822,-561.253"/>
<polygon fill="none" stroke="#404040" points="176.011,-561.106 178.277,-554.26 185.468,-553.719 183.202,-560.565 176.011,-561.106"/>
<text text-anchor="middle" x="199.5" y="-586" font-family="Helvetica,sans-Serif" font-size="10.00"> +unalignedSize</text>
<text text-anchor="middle" x="199.5" y="-575" font-family="Helvetica,sans-Serif" font-size="10.00">+objectSize</text>
</g>
<!-- Node5&#45;&gt;Node2 -->
<g id="edge4" class="edge"><title>Node5&#45;&gt;Node2</title>
<path fill="none" stroke="#404040" d="M217.688,-485.219C213.554,-471.878 208.499,-455.565 203.139,-438.267"/>
<polygon fill="none" stroke="#404040" points="203.131,-438.24 197.534,-433.693 199.579,-426.778 205.176,-431.325 203.131,-438.24"/>
<text text-anchor="middle" x="222.5" y="-459" font-family="Helvetica,sans-Serif" font-size="10.00"> &#45;last</text>
<text text-anchor="middle" x="222.5" y="-448" font-family="Helvetica,sans-Serif" font-size="10.00">&#45;first</text>
</g>
<!-- Node5&#45;&gt;Node5 -->
<g id="edge6" class="edge"><title>Node5&#45;&gt;Node5</title>
<path fill="none" stroke="#404040" d="M301.19,-529.99C311.831,-528.325 319,-524.828 319,-519.5 319,-516.503 316.732,-514.085 312.853,-512.247"/>
<polygon fill="none" stroke="#404040" points="312.753,-512.22 305.902,-514.469 301.19,-509.01 308.042,-506.761 312.753,-512.22"/>
<text text-anchor="middle" x="338.5" y="-533.5" font-family="Helvetica,sans-Serif" font-size="10.00"> +gPrev</text>
<text text-anchor="middle" x="338.5" y="-522.5" font-family="Helvetica,sans-Serif" font-size="10.00">+gNext</text>
<text text-anchor="middle" x="338.5" y="-511.5" font-family="Helvetica,sans-Serif" font-size="10.00">+prev</text>
<text text-anchor="middle" x="338.5" y="-500.5" font-family="Helvetica,sans-Serif" font-size="10.00">+next</text>
</g>
</g>
</svg>
        <g id="navigator" transform="translate(0 0)" fill="#404254">
                <rect fill="#f2f5e9" fill-opacity="0.5" stroke="#606060" stroke-width=".5" x="0" y="0" width="60" height="60"/>
                <use id="zoomplus" xlink:href="#zoomPlus" x="17" y="9" onmousedown="handleZoom(evt,'in')"/>
                <use id="zoomminus" xlink:href="#zoomMin" x="42" y="9" onmousedown="handleZoom(evt,'out')"/>
                <use id="reset" xlink:href="#resetDef" x="30" y="36" onmousedown="handleReset()"/>
                <g id="arrowUp" xlink:href="#dirArrow" transform="translate(30 24)" onmousedown="handlePan(0,-1)">
                  <use xlink:href="#rim" fill="#404040">
                        <set attributeName="fill" to="#808080" begin="arrowUp.mouseover" end="arrowUp.mouseout"/>
                  </use>
                  <path fill="none" stroke="white" stroke-width="1.5" d="M0,-3.0v7 M-2.5,-0.5L0,-3.0L2.5,-0.5"/>
                </g>
                <g id="arrowRight" xlink:href="#dirArrow" transform="rotate(90) translate(36 -43)" onmousedown="handlePan(1,0)">
                  <use xlink:href="#rim" fill="#404040">
                        <set attributeName="fill" to="#808080" begin="arrowRight.mouseover" end="arrowRight.mouseout"/>
                  </use>
                  <path fill="none" stroke="white" stroke-width="1.5" d="M0,-3.0v7 M-2.5,-0.5L0,-3.0L2.5,-0.5"/>
                </g>
                <g id="arrowDown" xlink:href="#dirArrow" transform="rotate(180) translate(-30 -48)" onmousedown="handlePan(0,1)">
                  <use xlink:href="#rim" fill="#404040">
                        <set attributeName="fill" to="#808080" begin="arrowDown.mouseover" end="arrowDown.mouseout"/>
                  </use>
                  <path fill="none" stroke="white" stroke-width="1.5" d="M0,-3.0v7 M-2.5,-0.5L0,-3.0L2.5,-0.5"/>
                </g>
                <g id="arrowLeft" xlink:href="#dirArrow" transform="rotate(270) translate(-36 17)" onmousedown="handlePan(-1,0)">
                  <use xlink:href="#rim" fill="#404040">
                        <set attributeName="fill" to="#808080" begin="arrowLeft.mouseover" end="arrowLeft.mouseout"/>
                  </use>
                  <path fill="none" stroke="white" stroke-width="1.5" d="M0,-3.0v7 M-2.5,-0.5L0,-3.0L2.5,-0.5"/>
                </g>
        </g>
        <svg viewBox="0 0 15 15" width="100%" height="30px" preserveAspectRatio="xMaxYMin meet">
         <g id="arrow_out" transform="scale(0.3 0.3)">
          <a xlink:href="classCacheBinModel__coll__graph_org.svg" target="_base">
           <rect id="button" ry="5" rx="5" y="6" x="6" height="38" width="38"
                fill="#f2f5e9" fill-opacity="0.5" stroke="#606060" stroke-width="1.0"/>
           <path id="arrow"
             d="M 11.500037,31.436501 C 11.940474,20.09759 22.043105,11.32322 32.158766,21.979434 L 37.068811,17.246167 C 37.068811,17.246167 37.088388,32 37.088388,32 L 22.160133,31.978069 C 22.160133,31.978069 26.997745,27.140456 26.997745,27.140456 C 18.528582,18.264221 13.291696,25.230495 11.500037,31.436501 z"
             style="fill:#404040;"/>
          </a>
         </g>
        </svg>
</svg>
