<?xml version="1.0" encoding="UTF-8" standalone="no"?>
<!DOCTYPE svg PUBLIC "-//W3C//DTD SVG 1.1//EN"
 "http://www.w3.org/Graphics/SVG/1.1/DTD/svg11.dtd">
<!-- Generated by graphviz version 2.38.0 (20140413.2041)
 -->
<!-- Title: /home/travis/build/ComPWA/ComPWA/ThirdParty/tbb/src/rml/include/rml_tbb.h Pages: 1 -->
<svg width="1665pt" height="562pt"
 viewBox="0.00 0.00 1665.00 562.00" xmlns="http://www.w3.org/2000/svg" xmlns:xlink="http://www.w3.org/1999/xlink">
<g id="graph0" class="graph" transform="scale(1 1) rotate(0) translate(4 558)">
<title>/home/travis/build/ComPWA/ComPWA/ThirdParty/tbb/src/rml/include/rml_tbb.h</title>
<polygon fill="white" stroke="none" points="-4,4 -4,-558 1661,-558 1661,4 -4,4"/>
<!-- Node1 -->
<g id="node1" class="node"><title>Node1</title>
<polygon fill="#bfbfbf" stroke="black" points="845,-512.5 845,-553.5 1003,-553.5 1003,-512.5 845,-512.5"/>
<text text-anchor="start" x="853" y="-541.5" font-family="Helvetica,sans-Serif" font-size="10.00">/home/travis/build</text>
<text text-anchor="start" x="853" y="-530.5" font-family="Helvetica,sans-Serif" font-size="10.00">/ComPWA/ComPWA/ThirdParty</text>
<text text-anchor="middle" x="924" y="-519.5" font-family="Helvetica,sans-Serif" font-size="10.00">/tbb/src/rml/include/rml_tbb.h</text>
</g>
<!-- Node2 -->
<g id="node2" class="node"><title>Node2</title>
<g id="a_node2"><a xlink:href="../../d6/dae/ipc__server_8cpp.html" target="_top" xlink:title="/home/travis/build\l/ComPWA/ComPWA/ThirdParty\l/tbb/python/rml/ipc_server.cpp">
<polygon fill="white" stroke="black" points="337.5,-345.5 337.5,-386.5 498.5,-386.5 498.5,-345.5 337.5,-345.5"/>
<text text-anchor="start" x="345.5" y="-374.5" font-family="Helvetica,sans-Serif" font-size="10.00">/home/travis/build</text>
<text text-anchor="start" x="345.5" y="-363.5" font-family="Helvetica,sans-Serif" font-size="10.00">/ComPWA/ComPWA/ThirdParty</text>
<text text-anchor="middle" x="418" y="-352.5" font-family="Helvetica,sans-Serif" font-size="10.00">/tbb/python/rml/ipc_server.cpp</text>
</a>
</g>
</g>
<!-- Node1&#45;&gt;Node2 -->
<g id="edge1" class="edge"><title>Node1&#45;&gt;Node2</title>
<path fill="none" stroke="midnightblue" d="M835.113,-512.605C793.441,-502.819 743.317,-490.049 699,-476 614.204,-449.119 518.112,-409.873 463.121,-386.538"/>
<polygon fill="midnightblue" stroke="midnightblue" points="834.431,-516.04 844.965,-514.9 836.02,-509.222 834.431,-516.04"/>
</g>
<!-- Node3 -->
<g id="node3" class="node"><title>Node3</title>
<g id="a_node3"><a xlink:href="../../d1/d62/rml__tbb_8cpp.html" target="_top" xlink:title="/home/travis/build\l/ComPWA/ComPWA/ThirdParty\l/tbb/src/rml/client/rml\l_tbb.cpp">
<polygon fill="white" stroke="black" points="0,-256.5 0,-308.5 158,-308.5 158,-256.5 0,-256.5"/>
<text text-anchor="start" x="8" y="-296.5" font-family="Helvetica,sans-Serif" font-size="10.00">/home/travis/build</text>
<text text-anchor="start" x="8" y="-285.5" font-family="Helvetica,sans-Serif" font-size="10.00">/ComPWA/ComPWA/ThirdParty</text>
<text text-anchor="start" x="8" y="-274.5" font-family="Helvetica,sans-Serif" font-size="10.00">/tbb/src/rml/client/rml</text>
<text text-anchor="middle" x="79" y="-263.5" font-family="Helvetica,sans-Serif" font-size="10.00">_tbb.cpp</text>
</a>
</g>
</g>
<!-- Node1&#45;&gt;Node3 -->
<g id="edge2" class="edge"><title>Node1&#45;&gt;Node3</title>
<path fill="none" stroke="midnightblue" d="M834.699,-528.034C701.247,-521.243 456.626,-505.211 374,-476 265.315,-437.577 156.743,-351.368 107.044,-308.578"/>
<polygon fill="midnightblue" stroke="midnightblue" points="834.735,-531.54 844.898,-528.546 835.086,-524.549 834.735,-531.54"/>
</g>
<!-- Node5 -->
<g id="node5" class="node"><title>Node5</title>
<g id="a_node5"><a xlink:href="../../da/d2f/rml__server_8cpp.html" target="_top" xlink:title="/home/travis/build\l/ComPWA/ComPWA/ThirdParty\l/tbb/src/rml/server/rml\l_server.cpp">
<polygon fill="white" stroke="black" points="1147,-423.5 1147,-475.5 1305,-475.5 1305,-423.5 1147,-423.5"/>
<text text-anchor="start" x="1155" y="-463.5" font-family="Helvetica,sans-Serif" font-size="10.00">/home/travis/build</text>
<text text-anchor="start" x="1155" y="-452.5" font-family="Helvetica,sans-Serif" font-size="10.00">/ComPWA/ComPWA/ThirdParty</text>
<text text-anchor="start" x="1155" y="-441.5" font-family="Helvetica,sans-Serif" font-size="10.00">/tbb/src/rml/server/rml</text>
<text text-anchor="middle" x="1226" y="-430.5" font-family="Helvetica,sans-Serif" font-size="10.00">_server.cpp</text>
</a>
</g>
</g>
<!-- Node1&#45;&gt;Node5 -->
<g id="edge4" class="edge"><title>Node1&#45;&gt;Node5</title>
<path fill="none" stroke="midnightblue" d="M1007.6,-509.72C1045.84,-499.497 1091.73,-487.187 1133,-476 1137.52,-474.774 1142.17,-473.51 1146.86,-472.233"/>
<polygon fill="midnightblue" stroke="midnightblue" points="1006.3,-506.445 997.538,-512.408 1008.1,-513.208 1006.3,-506.445"/>
</g>
<!-- Node6 -->
<g id="node6" class="node"><title>Node6</title>
<g id="a_node6"><a xlink:href="../../d4/dfd/test__rml__mixed_8cpp.html" target="_top" xlink:title="/home/travis/build\l/ComPWA/ComPWA/ThirdParty\l/tbb/src/rml/test/test_rml\l_mixed.cpp">
<polygon fill="white" stroke="black" points="1323,-423.5 1323,-475.5 1481,-475.5 1481,-423.5 1323,-423.5"/>
<text text-anchor="start" x="1331" y="-463.5" font-family="Helvetica,sans-Serif" font-size="10.00">/home/travis/build</text>
<text text-anchor="start" x="1331" y="-452.5" font-family="Helvetica,sans-Serif" font-size="10.00">/ComPWA/ComPWA/ThirdParty</text>
<text text-anchor="start" x="1331" y="-441.5" font-family="Helvetica,sans-Serif" font-size="10.00">/tbb/src/rml/test/test_rml</text>
<text text-anchor="middle" x="1402" y="-430.5" font-family="Helvetica,sans-Serif" font-size="10.00">_mixed.cpp</text>
</a>
</g>
</g>
<!-- Node1&#45;&gt;Node6 -->
<g id="edge5" class="edge"><title>Node1&#45;&gt;Node6</title>
<path fill="none" stroke="midnightblue" d="M1012.98,-522.802C1092.44,-513.742 1211.72,-498.049 1314,-476 1316.95,-475.363 1319.95,-474.68 1322.98,-473.962"/>
<polygon fill="midnightblue" stroke="midnightblue" points="1012.55,-519.328 1003.01,-523.928 1013.34,-526.284 1012.55,-519.328"/>
</g>
<!-- Node7 -->
<g id="node7" class="node"><title>Node7</title>
<g id="a_node7"><a xlink:href="../../d7/d95/test__rml__tbb_8cpp.html" target="_top" xlink:title="/home/travis/build\l/ComPWA/ComPWA/ThirdParty\l/tbb/src/rml/test/test_rml\l_tbb.cpp">
<polygon fill="white" stroke="black" points="1499,-423.5 1499,-475.5 1657,-475.5 1657,-423.5 1499,-423.5"/>
<text text-anchor="start" x="1507" y="-463.5" font-family="Helvetica,sans-Serif" font-size="10.00">/home/travis/build</text>
<text text-anchor="start" x="1507" y="-452.5" font-family="Helvetica,sans-Serif" font-size="10.00">/ComPWA/ComPWA/ThirdParty</text>
<text text-anchor="start" x="1507" y="-441.5" font-family="Helvetica,sans-Serif" font-size="10.00">/tbb/src/rml/test/test_rml</text>
<text text-anchor="middle" x="1578" y="-430.5" font-family="Helvetica,sans-Serif" font-size="10.00">_tbb.cpp</text>
</a>
</g>
</g>
<!-- Node1&#45;&gt;Node7 -->
<g id="edge6" class="edge"><title>Node1&#45;&gt;Node7</title>
<path fill="none" stroke="midnightblue" d="M1013.66,-528.21C1125.88,-522.306 1323.58,-508.064 1490,-476 1492.81,-475.458 1495.66,-474.867 1498.53,-474.235"/>
<polygon fill="midnightblue" stroke="midnightblue" points="1013.21,-524.729 1003.4,-528.739 1013.57,-531.719 1013.21,-524.729"/>
</g>
<!-- Node8 -->
<g id="node8" class="node"><title>Node8</title>
<g id="a_node8"><a xlink:href="../../d2/dd8/scheduler_8h.html" target="_top" xlink:title="/home/travis/build\l/ComPWA/ComPWA/ThirdParty\l/tbb/src/tbb/scheduler.h">
<polygon fill="white" stroke="black" points="498,-262 498,-303 656,-303 656,-262 498,-262"/>
<text text-anchor="start" x="506" y="-291" font-family="Helvetica,sans-Serif" font-size="10.00">/home/travis/build</text>
<text text-anchor="start" x="506" y="-280" font-family="Helvetica,sans-Serif" font-size="10.00">/ComPWA/ComPWA/ThirdParty</text>
<text text-anchor="middle" x="577" y="-269" font-family="Helvetica,sans-Serif" font-size="10.00">/tbb/src/tbb/scheduler.h</text>
</a>
</g>
</g>
<!-- Node1&#45;&gt;Node8 -->
<g id="edge7" class="edge"><title>Node1&#45;&gt;Node8</title>
<path fill="none" stroke="midnightblue" d="M834.546,-524.547C682.435,-509.7 384.33,-470.411 328,-387 283.263,-320.755 408.979,-296.835 497.669,-288.25"/>
<polygon fill="midnightblue" stroke="midnightblue" points="834.507,-528.06 844.796,-525.532 835.176,-521.092 834.507,-528.06"/>
</g>
<!-- Node17 -->
<g id="node17" class="node"><title>Node17</title>
<g id="a_node17"><a xlink:href="../../da/d0c/arena_8h.html" target="_top" xlink:title="/home/travis/build\l/ComPWA/ComPWA/ThirdParty\l/tbb/src/tbb/arena.h">
<polygon fill="white" stroke="black" points="593,-345.5 593,-386.5 751,-386.5 751,-345.5 593,-345.5"/>
<text text-anchor="start" x="601" y="-374.5" font-family="Helvetica,sans-Serif" font-size="10.00">/home/travis/build</text>
<text text-anchor="start" x="601" y="-363.5" font-family="Helvetica,sans-Serif" font-size="10.00">/ComPWA/ComPWA/ThirdParty</text>
<text text-anchor="middle" x="672" y="-352.5" font-family="Helvetica,sans-Serif" font-size="10.00">/tbb/src/tbb/arena.h</text>
</a>
</g>
</g>
<!-- Node1&#45;&gt;Node17 -->
<g id="edge24" class="edge"><title>Node1&#45;&gt;Node17</title>
<path fill="none" stroke="midnightblue" d="M834.882,-515.734C805.265,-507.312 773.396,-494.712 748,-476 716.055,-452.464 692.728,-411.35 680.86,-386.903"/>
<polygon fill="midnightblue" stroke="midnightblue" points="834.259,-519.192 844.826,-518.434 836.092,-512.436 834.259,-519.192"/>
</g>
<!-- Node18 -->
<g id="node18" class="node"><title>Node18</title>
<g id="a_node18"><a xlink:href="../../d7/dbe/market_8h.html" target="_top" xlink:title="/home/travis/build\l/ComPWA/ComPWA/ThirdParty\l/tbb/src/tbb/market.h">
<polygon fill="white" stroke="black" points="933,-429 933,-470 1091,-470 1091,-429 933,-429"/>
<text text-anchor="start" x="941" y="-458" font-family="Helvetica,sans-Serif" font-size="10.00">/home/travis/build</text>
<text text-anchor="start" x="941" y="-447" font-family="Helvetica,sans-Serif" font-size="10.00">/ComPWA/ComPWA/ThirdParty</text>
<text text-anchor="middle" x="1012" y="-436" font-family="Helvetica,sans-Serif" font-size="10.00">/tbb/src/tbb/market.h</text>
</a>
</g>
</g>
<!-- Node1&#45;&gt;Node18 -->
<g id="edge29" class="edge"><title>Node1&#45;&gt;Node18</title>
<path fill="none" stroke="midnightblue" d="M952.76,-505.365C965.189,-493.854 979.469,-480.629 990.894,-470.047"/>
<polygon fill="midnightblue" stroke="midnightblue" points="950.261,-502.908 945.302,-512.271 955.017,-508.044 950.261,-502.908"/>
</g>
<!-- Node20 -->
<g id="node20" class="node"><title>Node20</title>
<g id="a_node20"><a xlink:href="../../dc/d9e/governor_8h.html" target="_top" xlink:title="/home/travis/build\l/ComPWA/ComPWA/ThirdParty\l/tbb/src/tbb/governor.h">
<polygon fill="white" stroke="black" points="757,-429 757,-470 915,-470 915,-429 757,-429"/>
<text text-anchor="start" x="765" y="-458" font-family="Helvetica,sans-Serif" font-size="10.00">/home/travis/build</text>
<text text-anchor="start" x="765" y="-447" font-family="Helvetica,sans-Serif" font-size="10.00">/ComPWA/ComPWA/ThirdParty</text>
<text text-anchor="middle" x="836" y="-436" font-family="Helvetica,sans-Serif" font-size="10.00">/tbb/src/tbb/governor.h</text>
</a>
</g>
</g>
<!-- Node1&#45;&gt;Node20 -->
<g id="edge36" class="edge"><title>Node1&#45;&gt;Node20</title>
<path fill="none" stroke="midnightblue" d="M895.24,-505.365C882.811,-493.854 868.531,-480.629 857.106,-470.047"/>
<polygon fill="midnightblue" stroke="midnightblue" points="892.983,-508.044 902.698,-512.271 897.739,-502.908 892.983,-508.044"/>
</g>
<!-- Node22 -->
<g id="node22" class="node"><title>Node22</title>
<g id="a_node22"><a xlink:href="../../d7/dcb/private__server_8cpp.html" target="_top" xlink:title="/home/travis/build\l/ComPWA/ComPWA/ThirdParty\l/tbb/src/tbb/private_server.cpp">
<polygon fill="white" stroke="black" points="1463,-345.5 1463,-386.5 1625,-386.5 1625,-345.5 1463,-345.5"/>
<text text-anchor="start" x="1471" y="-374.5" font-family="Helvetica,sans-Serif" font-size="10.00">/home/travis/build</text>
<text text-anchor="start" x="1471" y="-363.5" font-family="Helvetica,sans-Serif" font-size="10.00">/ComPWA/ComPWA/ThirdParty</text>
<text text-anchor="middle" x="1544" y="-352.5" font-family="Helvetica,sans-Serif" font-size="10.00">/tbb/src/tbb/private_server.cpp</text>
</a>
</g>
</g>
<!-- Node1&#45;&gt;Node22 -->
<g id="edge54" class="edge"><title>Node1&#45;&gt;Node22</title>
<path fill="none" stroke="midnightblue" d="M1012.98,-515.544C1042.58,-507.106 1074.48,-494.544 1100,-476 1123.45,-458.961 1113.02,-437.703 1138,-423 1197.96,-387.709 1380.33,-398.178 1449,-387 1453.57,-386.255 1458.26,-385.44 1462.99,-384.577"/>
<polygon fill="midnightblue" stroke="midnightblue" points="1011.77,-512.246 1003.04,-518.25 1013.61,-519 1011.77,-512.246"/>
</g>
<!-- Node4 -->
<g id="node4" class="node"><title>Node4</title>
<g id="a_node4"><a xlink:href="../../d8/d0e/harness__inject__scheduler_8h.html" target="_top" xlink:title="/home/travis/build\l/ComPWA/ComPWA/ThirdParty\l/tbb/src/test/harness_inject\l_scheduler.h">
<polygon fill="white" stroke="red" points="822,-0.5 822,-52.5 980,-52.5 980,-0.5 822,-0.5"/>
<text text-anchor="start" x="830" y="-40.5" font-family="Helvetica,sans-Serif" font-size="10.00">/home/travis/build</text>
<text text-anchor="start" x="830" y="-29.5" font-family="Helvetica,sans-Serif" font-size="10.00">/ComPWA/ComPWA/ThirdParty</text>
<text text-anchor="start" x="830" y="-18.5" font-family="Helvetica,sans-Serif" font-size="10.00">/tbb/src/test/harness_inject</text>
<text text-anchor="middle" x="901" y="-7.5" font-family="Helvetica,sans-Serif" font-size="10.00">_scheduler.h</text>
</a>
</g>
</g>
<!-- Node3&#45;&gt;Node4 -->
<g id="edge3" class="edge"><title>Node3&#45;&gt;Node4</title>
<path fill="none" stroke="midnightblue" d="M85.4318,-246.464C95.6707,-201.692 120.293,-125.615 174,-89 226.558,-53.1684 644.252,-35.7028 821.7,-29.8425"/>
<polygon fill="midnightblue" stroke="midnightblue" points="81.9926,-245.808 83.294,-256.323 88.8337,-247.292 81.9926,-245.808"/>
</g>
<!-- Node9 -->
<g id="node9" class="node"><title>Node9</title>
<g id="a_node9"><a xlink:href="../../dd/dc1/arena_8cpp.html" target="_top" xlink:title="/home/travis/build\l/ComPWA/ComPWA/ThirdParty\l/tbb/src/tbb/arena.cpp">
<polygon fill="white" stroke="black" points="183,-95 183,-136 341,-136 341,-95 183,-95"/>
<text text-anchor="start" x="191" y="-124" font-family="Helvetica,sans-Serif" font-size="10.00">/home/travis/build</text>
<text text-anchor="start" x="191" y="-113" font-family="Helvetica,sans-Serif" font-size="10.00">/ComPWA/ComPWA/ThirdParty</text>
<text text-anchor="middle" x="262" y="-102" font-family="Helvetica,sans-Serif" font-size="10.00">/tbb/src/tbb/arena.cpp</text>
</a>
</g>
</g>
<!-- Node8&#45;&gt;Node9 -->
<g id="edge8" class="edge"><title>Node8&#45;&gt;Node9</title>
<path fill="none" stroke="midnightblue" d="M487.5,-270.101C419.585,-259.847 333.381,-242.875 306,-220 280.378,-198.593 269.353,-159.605 264.857,-136.074"/>
<polygon fill="midnightblue" stroke="midnightblue" points="487.4,-273.624 497.805,-271.627 488.425,-266.699 487.4,-273.624"/>
</g>
<!-- Node10 -->
<g id="node10" class="node"><title>Node10</title>
<g id="a_node10"><a xlink:href="../../d8/df1/scheduler__utility_8h.html" target="_top" xlink:title="/home/travis/build\l/ComPWA/ComPWA/ThirdParty\l/tbb/src/tbb/scheduler_utility.h">
<polygon fill="white" stroke="black" points="327.5,-178.5 327.5,-219.5 486.5,-219.5 486.5,-178.5 327.5,-178.5"/>
<text text-anchor="start" x="335.5" y="-207.5" font-family="Helvetica,sans-Serif" font-size="10.00">/home/travis/build</text>
<text text-anchor="start" x="335.5" y="-196.5" font-family="Helvetica,sans-Serif" font-size="10.00">/ComPWA/ComPWA/ThirdParty</text>
<text text-anchor="middle" x="407" y="-185.5" font-family="Helvetica,sans-Serif" font-size="10.00">/tbb/src/tbb/scheduler_utility.h</text>
</a>
</g>
</g>
<!-- Node8&#45;&gt;Node10 -->
<g id="edge10" class="edge"><title>Node8&#45;&gt;Node10</title>
<path fill="none" stroke="midnightblue" d="M527.21,-257.63C501.911,-245.502 471.558,-230.95 447.681,-219.503"/>
<polygon fill="midnightblue" stroke="midnightblue" points="525.75,-260.812 536.281,-261.979 528.777,-254.5 525.75,-260.812"/>
</g>
<!-- Node12 -->
<g id="node12" class="node"><title>Node12</title>
<g id="a_node12"><a xlink:href="../../db/de9/custom__scheduler_8h.html" target="_top" xlink:title="/home/travis/build\l/ComPWA/ComPWA/ThirdParty\l/tbb/src/tbb/custom_scheduler.h">
<polygon fill="white" stroke="black" points="505,-178.5 505,-219.5 675,-219.5 675,-178.5 505,-178.5"/>
<text text-anchor="start" x="513" y="-207.5" font-family="Helvetica,sans-Serif" font-size="10.00">/home/travis/build</text>
<text text-anchor="start" x="513" y="-196.5" font-family="Helvetica,sans-Serif" font-size="10.00">/ComPWA/ComPWA/ThirdParty</text>
<text text-anchor="middle" x="590" y="-185.5" font-family="Helvetica,sans-Serif" font-size="10.00">/tbb/src/tbb/custom_scheduler.h</text>
</a>
</g>
</g>
<!-- Node8&#45;&gt;Node12 -->
<g id="edge14" class="edge"><title>Node8&#45;&gt;Node12</title>
<path fill="none" stroke="midnightblue" d="M581.775,-251.565C583.479,-240.882 585.353,-229.13 586.882,-219.547"/>
<polygon fill="midnightblue" stroke="midnightblue" points="578.266,-251.345 580.147,-261.771 585.179,-252.447 578.266,-251.345"/>
</g>
<!-- Node13 -->
<g id="node13" class="node"><title>Node13</title>
<g id="a_node13"><a xlink:href="../../d1/dc0/governor_8cpp.html" target="_top" xlink:title="/home/travis/build\l/ComPWA/ComPWA/ThirdParty\l/tbb/src/tbb/governor.cpp">
<polygon fill="white" stroke="black" points="945,-178.5 945,-219.5 1103,-219.5 1103,-178.5 945,-178.5"/>
<text text-anchor="start" x="953" y="-207.5" font-family="Helvetica,sans-Serif" font-size="10.00">/home/travis/build</text>
<text text-anchor="start" x="953" y="-196.5" font-family="Helvetica,sans-Serif" font-size="10.00">/ComPWA/ComPWA/ThirdParty</text>
<text text-anchor="middle" x="1024" y="-185.5" font-family="Helvetica,sans-Serif" font-size="10.00">/tbb/src/tbb/governor.cpp</text>
</a>
</g>
</g>
<!-- Node8&#45;&gt;Node13 -->
<g id="edge16" class="edge"><title>Node8&#45;&gt;Node13</title>
<path fill="none" stroke="midnightblue" d="M666.063,-267.61C738.857,-255.929 844.341,-238.253 936,-220 938.919,-219.419 941.89,-218.813 944.889,-218.191"/>
<polygon fill="midnightblue" stroke="midnightblue" points="665.335,-264.182 656.013,-269.218 666.44,-271.094 665.335,-264.182"/>
</g>
<!-- Node14 -->
<g id="node14" class="node"><title>Node14</title>
<g id="a_node14"><a xlink:href="../../d3/db8/market_8cpp.html" target="_top" xlink:title="/home/travis/build\l/ComPWA/ComPWA/ThirdParty\l/tbb/src/tbb/market.cpp">
<polygon fill="white" stroke="black" points="1159,-178.5 1159,-219.5 1317,-219.5 1317,-178.5 1159,-178.5"/>
<text text-anchor="start" x="1167" y="-207.5" font-family="Helvetica,sans-Serif" font-size="10.00">/home/travis/build</text>
<text text-anchor="start" x="1167" y="-196.5" font-family="Helvetica,sans-Serif" font-size="10.00">/ComPWA/ComPWA/ThirdParty</text>
<text text-anchor="middle" x="1238" y="-185.5" font-family="Helvetica,sans-Serif" font-size="10.00">/tbb/src/tbb/market.cpp</text>
</a>
</g>
</g>
<!-- Node8&#45;&gt;Node14 -->
<g id="edge18" class="edge"><title>Node8&#45;&gt;Node14</title>
<path fill="none" stroke="midnightblue" d="M666.499,-272.4C772.864,-261.309 955.634,-241.387 1112,-220 1127.14,-217.929 1143.27,-215.521 1158.76,-213.109"/>
<polygon fill="midnightblue" stroke="midnightblue" points="666.031,-268.929 656.447,-273.445 666.756,-275.892 666.031,-268.929"/>
</g>
<!-- Node15 -->
<g id="node15" class="node"><title>Node15</title>
<g id="a_node15"><a xlink:href="../../d9/d9c/task_8cpp.html" target="_top" xlink:title="/home/travis/build\l/ComPWA/ComPWA/ThirdParty\l/tbb/src/tbb/task.cpp">
<polygon fill="white" stroke="black" points="769,-178.5 769,-219.5 927,-219.5 927,-178.5 769,-178.5"/>
<text text-anchor="start" x="777" y="-207.5" font-family="Helvetica,sans-Serif" font-size="10.00">/home/travis/build</text>
<text text-anchor="start" x="777" y="-196.5" font-family="Helvetica,sans-Serif" font-size="10.00">/ComPWA/ComPWA/ThirdParty</text>
<text text-anchor="middle" x="848" y="-185.5" font-family="Helvetica,sans-Serif" font-size="10.00">/tbb/src/tbb/task.cpp</text>
</a>
</g>
</g>
<!-- Node8&#45;&gt;Node15 -->
<g id="edge20" class="edge"><title>Node8&#45;&gt;Node15</title>
<path fill="none" stroke="midnightblue" d="M651.634,-259.055C692.864,-246.655 743.585,-231.402 783.149,-219.503"/>
<polygon fill="midnightblue" stroke="midnightblue" points="650.48,-255.747 641.911,-261.979 652.496,-262.45 650.48,-255.747"/>
</g>
<!-- Node16 -->
<g id="node16" class="node"><title>Node16</title>
<g id="a_node16"><a xlink:href="../../d3/de6/task__group__context_8cpp.html" target="_top" xlink:title="/home/travis/build\l/ComPWA/ComPWA/ThirdParty\l/tbb/src/tbb/task_group\l_context.cpp">
<polygon fill="white" stroke="black" points="404,-89.5 404,-141.5 562,-141.5 562,-89.5 404,-89.5"/>
<text text-anchor="start" x="412" y="-129.5" font-family="Helvetica,sans-Serif" font-size="10.00">/home/travis/build</text>
<text text-anchor="start" x="412" y="-118.5" font-family="Helvetica,sans-Serif" font-size="10.00">/ComPWA/ComPWA/ThirdParty</text>
<text text-anchor="start" x="412" y="-107.5" font-family="Helvetica,sans-Serif" font-size="10.00">/tbb/src/tbb/task_group</text>
<text text-anchor="middle" x="483" y="-96.5" font-family="Helvetica,sans-Serif" font-size="10.00">_context.cpp</text>
</a>
</g>
</g>
<!-- Node8&#45;&gt;Node16 -->
<g id="edge22" class="edge"><title>Node8&#45;&gt;Node16</title>
<path fill="none" stroke="midnightblue" d="M487.84,-272.076C421.553,-263.015 339.091,-246.685 318,-220 306.425,-205.355 307.352,-193.332 318,-178 337.531,-149.877 371.554,-134.59 403.651,-126.291"/>
<polygon fill="midnightblue" stroke="midnightblue" points="487.536,-275.567 497.91,-273.415 488.458,-268.628 487.536,-275.567"/>
</g>
<!-- Node9&#45;&gt;Node4 -->
<g id="edge9" class="edge"><title>Node9&#45;&gt;Node4</title>
<path fill="none" stroke="midnightblue" d="M351.325,-96.5038C365.893,-93.8196 380.845,-91.2145 395,-89 545.38,-65.4735 722.103,-45.7986 821.887,-35.42"/>
<polygon fill="midnightblue" stroke="midnightblue" points="350.505,-93.0965 341.316,-98.371 351.788,-99.9778 350.505,-93.0965"/>
</g>
<!-- Node10&#45;&gt;Node9 -->
<g id="edge11" class="edge"><title>Node10&#45;&gt;Node9</title>
<path fill="none" stroke="midnightblue" d="M363.393,-173.49C342.047,-161.492 316.707,-147.249 296.699,-136.003"/>
<polygon fill="midnightblue" stroke="midnightblue" points="361.837,-176.63 372.269,-178.479 365.266,-170.528 361.837,-176.63"/>
</g>
<!-- Node11 -->
<g id="node11" class="node"><title>Node11</title>
<g id="a_node11"><a xlink:href="../../db/d8b/scheduler_8cpp.html" target="_top" xlink:title="/home/travis/build\l/ComPWA/ComPWA/ThirdParty\l/tbb/src/tbb/scheduler.cpp">
<polygon fill="white" stroke="black" points="643,-95 643,-136 801,-136 801,-95 643,-95"/>
<text text-anchor="start" x="651" y="-124" font-family="Helvetica,sans-Serif" font-size="10.00">/home/travis/build</text>
<text text-anchor="start" x="651" y="-113" font-family="Helvetica,sans-Serif" font-size="10.00">/ComPWA/ComPWA/ThirdParty</text>
<text text-anchor="middle" x="722" y="-102" font-family="Helvetica,sans-Serif" font-size="10.00">/tbb/src/tbb/scheduler.cpp</text>
</a>
</g>
</g>
<!-- Node10&#45;&gt;Node11 -->
<g id="edge12" class="edge"><title>Node10&#45;&gt;Node11</title>
<path fill="none" stroke="midnightblue" d="M492.239,-175.946C540.431,-163.478 600.147,-148.027 646.62,-136.003"/>
<polygon fill="midnightblue" stroke="midnightblue" points="491.255,-172.585 482.45,-178.479 493.008,-179.362 491.255,-172.585"/>
</g>
<!-- Node11&#45;&gt;Node4 -->
<g id="edge13" class="edge"><title>Node11&#45;&gt;Node4</title>
<path fill="none" stroke="midnightblue" d="M771.214,-90.5804C795.5,-78.7767 824.787,-64.5423 849.389,-52.5847"/>
<polygon fill="midnightblue" stroke="midnightblue" points="769.635,-87.4562 762.171,-94.9755 772.695,-93.752 769.635,-87.4562"/>
</g>
<!-- Node12&#45;&gt;Node11 -->
<g id="edge15" class="edge"><title>Node12&#45;&gt;Node11</title>
<path fill="none" stroke="midnightblue" d="M630.187,-173.188C649.434,-161.304 672.158,-147.274 690.183,-136.144"/>
<polygon fill="midnightblue" stroke="midnightblue" points="628.287,-170.247 621.617,-178.479 631.965,-176.203 628.287,-170.247"/>
</g>
<!-- Node13&#45;&gt;Node4 -->
<g id="edge17" class="edge"><title>Node13&#45;&gt;Node4</title>
<path fill="none" stroke="midnightblue" d="M1003.97,-170.235C980.45,-137.632 941.778,-84.0262 919.118,-52.6149"/>
<polygon fill="midnightblue" stroke="midnightblue" points="1001.2,-172.379 1009.89,-178.441 1006.88,-168.284 1001.2,-172.379"/>
</g>
<!-- Node14&#45;&gt;Node4 -->
<g id="edge19" class="edge"><title>Node14&#45;&gt;Node4</title>
<path fill="none" stroke="midnightblue" d="M1221,-169.539C1204.62,-144.584 1177.56,-109.218 1145,-89 1095.18,-58.062 1030.51,-42.6596 980.263,-35.0068"/>
<polygon fill="midnightblue" stroke="midnightblue" points="1218.21,-171.673 1226.54,-178.215 1224.11,-167.904 1218.21,-171.673"/>
</g>
<!-- Node15&#45;&gt;Node4 -->
<g id="edge21" class="edge"><title>Node15&#45;&gt;Node4</title>
<path fill="none" stroke="midnightblue" d="M857.154,-168.552C867.331,-135.813 883.595,-83.4916 893.193,-52.6149"/>
<polygon fill="midnightblue" stroke="midnightblue" points="853.706,-167.853 854.08,-178.441 860.39,-169.931 853.706,-167.853"/>
</g>
<!-- Node16&#45;&gt;Node4 -->
<g id="edge23" class="edge"><title>Node16&#45;&gt;Node4</title>
<path fill="none" stroke="midnightblue" d="M571.905,-95.9958C646.011,-80.5719 750.606,-58.8021 821.855,-43.9728"/>
<polygon fill="midnightblue" stroke="midnightblue" points="571.191,-92.5694 562.114,-98.0337 572.617,-99.4225 571.191,-92.5694"/>
</g>
<!-- Node17&#45;&gt;Node8 -->
<g id="edge25" class="edge"><title>Node17&#45;&gt;Node8</title>
<path fill="none" stroke="midnightblue" d="M641.332,-338.69C627.826,-327.103 612.236,-313.728 599.785,-303.047"/>
<polygon fill="midnightblue" stroke="midnightblue" points="639.134,-341.416 649.003,-345.271 643.692,-336.103 639.134,-341.416"/>
</g>
<!-- Node17&#45;&gt;Node9 -->
<g id="edge26" class="edge"><title>Node17&#45;&gt;Node9</title>
<path fill="none" stroke="midnightblue" d="M582.903,-344.468C477.65,-318.277 311.999,-270.311 274,-220 255.684,-195.75 256.24,-158.754 258.786,-136.185"/>
<polygon fill="midnightblue" stroke="midnightblue" points="582.346,-347.936 592.894,-346.934 584.024,-341.14 582.346,-347.936"/>
</g>
<!-- Node17&#45;&gt;Node11 -->
<g id="edge28" class="edge"><title>Node17&#45;&gt;Node11</title>
<path fill="none" stroke="midnightblue" d="M677.988,-335.239C688.34,-283.791 709.31,-179.571 718.043,-136.166"/>
<polygon fill="midnightblue" stroke="midnightblue" points="674.549,-334.59 676.007,-345.084 681.411,-335.971 674.549,-334.59"/>
</g>
<!-- Node17&#45;&gt;Node13 -->
<g id="edge27" class="edge"><title>Node17&#45;&gt;Node13</title>
<path fill="none" stroke="midnightblue" d="M705.699,-339.265C738.7,-315.055 791.152,-279.158 841,-256 873.844,-240.742 911.896,-228.325 944.765,-219.096"/>
<polygon fill="midnightblue" stroke="midnightblue" points="703.289,-336.695 697.334,-345.458 707.454,-342.321 703.289,-336.695"/>
</g>
<!-- Node18&#45;&gt;Node11 -->
<g id="edge33" class="edge"><title>Node18&#45;&gt;Node11</title>
<path fill="none" stroke="midnightblue" d="M1082.62,-426.249C1087.13,-425.081 1091.62,-423.985 1096,-423 1202.53,-399.078 1245.31,-443.062 1339,-387 1393.64,-354.304 1419.98,-315.382 1397,-256 1380.08,-212.281 1367.86,-199.101 1326,-178 1236,-132.631 943.37,-120.726 801.1,-117.606"/>
<polygon fill="midnightblue" stroke="midnightblue" points="1081.48,-422.93 1072.74,-428.909 1083.3,-429.689 1081.48,-422.93"/>
</g>
<!-- Node18&#45;&gt;Node13 -->
<g id="edge31" class="edge"><title>Node18&#45;&gt;Node13</title>
<path fill="none" stroke="midnightblue" d="M1084.65,-424.197C1101.05,-415.159 1116.42,-403.049 1126,-387 1135.57,-370.971 1137.8,-359.462 1126,-345 1075.52,-283.145 1000.48,-370.855 950,-309 935.106,-290.751 939.511,-277.091 950,-256 957.533,-240.853 971.335,-228.71 984.997,-219.656"/>
<polygon fill="midnightblue" stroke="midnightblue" points="1082.77,-421.229 1075.47,-428.907 1085.96,-427.458 1082.77,-421.229"/>
</g>
<!-- Node18&#45;&gt;Node14 -->
<g id="edge32" class="edge"><title>Node18&#45;&gt;Node14</title>
<path fill="none" stroke="midnightblue" d="M1084.45,-426.191C1088.35,-425.089 1092.22,-424.018 1096,-423 1226.54,-387.866 1311.59,-426.753 1378,-309 1389.57,-288.482 1391.21,-275.506 1378,-256 1363.91,-235.19 1340.7,-222.113 1317.19,-213.895"/>
<polygon fill="midnightblue" stroke="midnightblue" points="1083.36,-422.861 1074.71,-428.985 1085.29,-429.59 1083.36,-422.861"/>
</g>
<!-- Node18&#45;&gt;Node17 -->
<g id="edge30" class="edge"><title>Node18&#45;&gt;Node17</title>
<path fill="none" stroke="midnightblue" d="M936.45,-426.273C932.245,-425.14 928.074,-424.042 924,-423 866.469,-408.288 800.984,-393.803 751.19,-383.252"/>
<polygon fill="midnightblue" stroke="midnightblue" points="935.723,-429.703 946.292,-428.966 937.571,-422.951 935.723,-429.703"/>
</g>
<!-- Node19 -->
<g id="node19" class="node"><title>Node19</title>
<g id="a_node19"><a xlink:href="../../dd/d27/tbb__main_8cpp.html" target="_top" xlink:title="/home/travis/build\l/ComPWA/ComPWA/ThirdParty\l/tbb/src/tbb/tbb_main.cpp">
<polygon fill="white" stroke="black" points="1211,-262 1211,-303 1369,-303 1369,-262 1211,-262"/>
<text text-anchor="start" x="1219" y="-291" font-family="Helvetica,sans-Serif" font-size="10.00">/home/travis/build</text>
<text text-anchor="start" x="1219" y="-280" font-family="Helvetica,sans-Serif" font-size="10.00">/ComPWA/ComPWA/ThirdParty</text>
<text text-anchor="middle" x="1290" y="-269" font-family="Helvetica,sans-Serif" font-size="10.00">/tbb/src/tbb/tbb_main.cpp</text>
</a>
</g>
</g>
<!-- Node18&#45;&gt;Node19 -->
<g id="edge34" class="edge"><title>Node18&#45;&gt;Node19</title>
<path fill="none" stroke="midnightblue" d="M1090.02,-426.115C1144.91,-410.162 1209.55,-390.88 1215,-387 1245.73,-365.113 1268.72,-326.654 1280.7,-303.283"/>
<polygon fill="midnightblue" stroke="midnightblue" points="1088.88,-422.801 1080.25,-428.949 1090.83,-429.524 1088.88,-422.801"/>
</g>
<!-- Node19&#45;&gt;Node4 -->
<g id="edge35" class="edge"><title>Node19&#45;&gt;Node4</title>
<path fill="none" stroke="midnightblue" d="M1312.13,-253.278C1326.06,-231.854 1339.12,-202.078 1326,-178 1291.07,-113.917 1255.45,-116.878 1188,-89 1120.66,-61.1648 1039,-45.2371 980.027,-36.5993"/>
<polygon fill="midnightblue" stroke="midnightblue" points="1309.17,-251.398 1306.39,-261.621 1314.94,-255.365 1309.17,-251.398"/>
</g>
<!-- Node20&#45;&gt;Node2 -->
<g id="edge37" class="edge"><title>Node20&#45;&gt;Node2</title>
<path fill="none" stroke="midnightblue" d="M746.739,-431.984C681.836,-419.859 591.895,-402.814 513,-387 508.29,-386.056 503.452,-385.074 498.571,-384.075"/>
<polygon fill="midnightblue" stroke="midnightblue" points="746.462,-435.493 756.935,-433.887 747.747,-428.612 746.462,-435.493"/>
</g>
<!-- Node20&#45;&gt;Node8 -->
<g id="edge39" class="edge"><title>Node20&#45;&gt;Node8</title>
<path fill="none" stroke="midnightblue" d="M746.801,-437.929C683.067,-428.393 605.019,-411.982 584,-387 564.404,-363.711 567.63,-326.065 572.086,-303.167"/>
<polygon fill="midnightblue" stroke="midnightblue" points="746.495,-441.422 756.896,-439.401 747.505,-434.495 746.495,-441.422"/>
</g>
<!-- Node20&#45;&gt;Node9 -->
<g id="edge40" class="edge"><title>Node20&#45;&gt;Node9</title>
<path fill="none" stroke="midnightblue" d="M746.965,-437.271C692.922,-428.277 623.512,-412.773 566,-387 536.627,-373.837 536.579,-357.695 507,-345 430.026,-311.963 393.021,-353.413 322,-309 280.021,-282.749 270.699,-266.956 255,-220 245.635,-191.988 251.142,-157.39 256.309,-136.14"/>
<polygon fill="midnightblue" stroke="midnightblue" points="746.439,-440.732 756.871,-438.876 747.559,-433.822 746.439,-440.732"/>
</g>
<!-- Node20&#45;&gt;Node11 -->
<g id="edge49" class="edge"><title>Node20&#45;&gt;Node11</title>
<path fill="none" stroke="midnightblue" d="M825.825,-418.867C802.948,-352.243 747.956,-192.092 728.754,-136.17"/>
<polygon fill="midnightblue" stroke="midnightblue" points="822.652,-420.405 829.21,-428.726 829.273,-418.131 822.652,-420.405"/>
</g>
<!-- Node20&#45;&gt;Node13 -->
<g id="edge41" class="edge"><title>Node20&#45;&gt;Node13</title>
<path fill="none" stroke="midnightblue" d="M839.284,-418.794C845.29,-377.542 861.604,-302.725 904,-256 918.599,-239.91 938.772,-228.069 958.414,-219.531"/>
<polygon fill="midnightblue" stroke="midnightblue" points="835.807,-418.385 837.939,-428.763 842.745,-419.321 835.807,-418.385"/>
</g>
<!-- Node20&#45;&gt;Node14 -->
<g id="edge46" class="edge"><title>Node20&#45;&gt;Node14</title>
<path fill="none" stroke="midnightblue" d="M870.241,-422.638C883.656,-412.036 898.932,-399.367 912,-387 930.284,-369.697 928.136,-357.476 950,-345 1019.35,-305.428 1060.46,-354.597 1126,-309 1148.78,-293.153 1139.97,-276.198 1159,-256 1172.14,-242.049 1189.24,-229.419 1204.18,-219.699"/>
<polygon fill="midnightblue" stroke="midnightblue" points="867.888,-420.034 862.165,-428.95 872.199,-425.549 867.888,-420.034"/>
</g>
<!-- Node20&#45;&gt;Node15 -->
<g id="edge50" class="edge"><title>Node20&#45;&gt;Node15</title>
<path fill="none" stroke="midnightblue" d="M835.867,-418.458C835.909,-380.542 836.682,-313.346 841,-256 841.912,-243.885 843.583,-230.368 845.064,-219.649"/>
<polygon fill="midnightblue" stroke="midnightblue" points="832.367,-418.794 835.873,-428.792 839.367,-418.79 832.367,-418.794"/>
</g>
<!-- Node20&#45;&gt;Node17 -->
<g id="edge38" class="edge"><title>Node20&#45;&gt;Node17</title>
<path fill="none" stroke="midnightblue" d="M787.646,-424.47C763.305,-412.374 734.178,-397.9 711.245,-386.503"/>
<polygon fill="midnightblue" stroke="midnightblue" points="786.205,-427.663 796.718,-428.979 789.32,-421.394 786.205,-427.663"/>
</g>
<!-- Node20&#45;&gt;Node19 -->
<g id="edge51" class="edge"><title>Node20&#45;&gt;Node19</title>
<path fill="none" stroke="midnightblue" d="M910.594,-426.297C915.117,-425.133 919.612,-424.024 924,-423 1012.81,-402.281 1040.97,-419.948 1126,-387 1179.84,-366.138 1235.15,-326.777 1265.79,-303.066"/>
<polygon fill="midnightblue" stroke="midnightblue" points="909.448,-422.979 900.674,-428.919 911.237,-429.747 909.448,-422.979"/>
</g>
<!-- Node21 -->
<g id="node21" class="node"><title>Node21</title>
<g id="a_node21"><a xlink:href="../../de/d07/tbb__main_8h.html" target="_top" xlink:title="/home/travis/build\l/ComPWA/ComPWA/ThirdParty\l/tbb/src/tbb/tbb_main.h">
<polygon fill="white" stroke="black" points="959,-345.5 959,-386.5 1117,-386.5 1117,-345.5 959,-345.5"/>
<text text-anchor="start" x="967" y="-374.5" font-family="Helvetica,sans-Serif" font-size="10.00">/home/travis/build</text>
<text text-anchor="start" x="967" y="-363.5" font-family="Helvetica,sans-Serif" font-size="10.00">/ComPWA/ComPWA/ThirdParty</text>
<text text-anchor="middle" x="1038" y="-352.5" font-family="Helvetica,sans-Serif" font-size="10.00">/tbb/src/tbb/tbb_main.h</text>
</a>
</g>
</g>
<!-- Node20&#45;&gt;Node21 -->
<g id="edge42" class="edge"><title>Node20&#45;&gt;Node21</title>
<path fill="none" stroke="midnightblue" d="M893.979,-425.108C924.272,-412.885 960.917,-398.1 989.661,-386.503"/>
<polygon fill="midnightblue" stroke="midnightblue" points="892.348,-421.991 884.384,-428.979 894.967,-428.483 892.348,-421.991"/>
</g>
<!-- Node20&#45;&gt;Node22 -->
<g id="edge47" class="edge"><title>Node20&#45;&gt;Node22</title>
<path fill="none" stroke="midnightblue" d="M907.886,-426.458C913.31,-425.168 918.724,-423.993 924,-423 1025.17,-403.956 1319.09,-382.245 1462.87,-372.382"/>
<polygon fill="midnightblue" stroke="midnightblue" points="906.992,-423.074 898.138,-428.893 908.689,-429.865 906.992,-423.074"/>
</g>
<!-- Node23 -->
<g id="node23" class="node"><title>Node23</title>
<g id="a_node23"><a xlink:href="../../d2/d0e/tbb__thread_8cpp.html" target="_top" xlink:title="/home/travis/build\l/ComPWA/ComPWA/ThirdParty\l/tbb/src/tbb/tbb_thread.cpp">
<polygon fill="white" stroke="black" points="959,-262 959,-303 1117,-303 1117,-262 959,-262"/>
<text text-anchor="start" x="967" y="-291" font-family="Helvetica,sans-Serif" font-size="10.00">/home/travis/build</text>
<text text-anchor="start" x="967" y="-280" font-family="Helvetica,sans-Serif" font-size="10.00">/ComPWA/ComPWA/ThirdParty</text>
<text text-anchor="middle" x="1038" y="-269" font-family="Helvetica,sans-Serif" font-size="10.00">/tbb/src/tbb/tbb_thread.cpp</text>
</a>
</g>
</g>
<!-- Node20&#45;&gt;Node23 -->
<g id="edge52" class="edge"><title>Node20&#45;&gt;Node23</title>
<path fill="none" stroke="midnightblue" d="M853.068,-420.379C867.828,-397.828 890.868,-366.502 917,-345 938.017,-327.707 964.7,-313.499 987.658,-303.113"/>
<polygon fill="midnightblue" stroke="midnightblue" points="850.087,-418.544 847.64,-428.852 855.982,-422.32 850.087,-418.544"/>
</g>
<!-- Node21&#45;&gt;Node13 -->
<g id="edge43" class="edge"><title>Node21&#45;&gt;Node13</title>
<path fill="none" stroke="midnightblue" d="M952.998,-340.886C938.718,-333.02 925.723,-322.649 917,-309 904.315,-289.152 904.802,-276.151 917,-256 926.826,-239.767 943.077,-228.013 959.982,-219.6"/>
<polygon fill="midnightblue" stroke="midnightblue" points="951.527,-344.064 962.028,-345.466 954.693,-337.821 951.527,-344.064"/>
</g>
<!-- Node21&#45;&gt;Node14 -->
<g id="edge44" class="edge"><title>Node21&#45;&gt;Node14</title>
<path fill="none" stroke="midnightblue" d="M1105.01,-341.302C1123.63,-332.84 1143.1,-322.086 1159,-309 1175.24,-295.635 1207.7,-247.176 1225.54,-219.582"/>
<polygon fill="midnightblue" stroke="midnightblue" points="1103.41,-338.179 1095.66,-345.395 1106.22,-344.591 1103.41,-338.179"/>
</g>
<!-- Node21&#45;&gt;Node19 -->
<g id="edge45" class="edge"><title>Node21&#45;&gt;Node19</title>
<path fill="none" stroke="midnightblue" d="M1107.89,-342.398C1146.14,-330.027 1193.06,-314.851 1229.7,-303.003"/>
<polygon fill="midnightblue" stroke="midnightblue" points="1106.8,-339.071 1098.36,-345.479 1108.95,-345.732 1106.8,-339.071"/>
</g>
<!-- Node22&#45;&gt;Node4 -->
<g id="edge48" class="edge"><title>Node22&#45;&gt;Node4</title>
<path fill="none" stroke="midnightblue" d="M1524.38,-337.064C1482.64,-279.997 1378.89,-150.273 1258,-89 1169.79,-44.2899 1055.24,-31.3021 980.002,-27.935"/>
<polygon fill="midnightblue" stroke="midnightblue" points="1521.61,-339.211 1530.31,-345.259 1527.28,-335.106 1521.61,-339.211"/>
</g>
<!-- Node23&#45;&gt;Node4 -->
<g id="edge53" class="edge"><title>Node23&#45;&gt;Node4</title>
<path fill="none" stroke="midnightblue" d="M1081.25,-255.967C1093.5,-246.37 1105.31,-234.266 1112,-220 1119.93,-203.101 1120.55,-194.595 1112,-178 1081.04,-117.898 1013.74,-76.5026 963.422,-52.5591"/>
<polygon fill="midnightblue" stroke="midnightblue" points="1079.16,-253.158 1073.19,-261.909 1083.32,-258.792 1079.16,-253.158"/>
</g>
</g>
</svg>
