<?xml version="1.0" encoding="UTF-8" standalone="no"?>
<!DOCTYPE svg PUBLIC "-//W3C//DTD SVG 1.1//EN"
 "http://www.w3.org/Graphics/SVG/1.1/DTD/svg11.dtd">
<!-- Generated by graphviz version 2.38.0 (20140413.2041)
 -->
<!-- Title: rml::internal::LargeObjectCache Pages: 1 -->
<!--zoomable 1234 -->
<svg id="main" version="1.1" xmlns="http://www.w3.org/2000/svg" xmlns:xlink="http://www.w3.org/1999/xlink" xml:space="preserve" onload="init(evt)">
<style type="text/css"><![CDATA[
.edge:hover path { stroke: red; }
.edge:hover polygon { stroke: red; fill: red; }
]]></style>
<script type="text/javascript"><![CDATA[
var edges = document.getElementsByTagName('g');
if (edges && edges.length) {
  for (var i=0;i<edges.length;i++) {
    if (edges[i].id.substr(0,4)=='edge') {
      edges[i].setAttribute('class','edge');
    }
  }
}
]]></script>
        <defs>
                <circle id="rim" cx="0" cy="0" r="7"/>
                <circle id="rim2" cx="0" cy="0" r="3.5"/>
                <g id="zoomPlus">
                        <use xlink:href="#rim" fill="#404040">
                                <set attributeName="fill" to="#808080" begin="zoomplus.mouseover" end="zoomplus.mouseout"/>
                        </use>
                        <path d="M-4,0h8M0,-4v8" fill="none" stroke="white" stroke-width="1.5" pointer-events="none"/>
                </g>
                <g id="zoomMin">
                        <use xlink:href="#rim" fill="#404040">
                                <set attributeName="fill" to="#808080" begin="zoomminus.mouseover" end="zoomminus.mouseout"/>
                        </use>
                        <path d="M-4,0h8" fill="none" stroke="white" stroke-width="1.5" pointer-events="none"/>
                </g>
                <g id="dirArrow">
                        <path fill="none" stroke="white" stroke-width="1.5" d="M0,-3.0v7 M-2.5,-0.5L0,-3.0L2.5,-0.5"/>
                </g>
               <g id="resetDef">
                       <use xlink:href="#rim2" fill="#404040">
                               <set attributeName="fill" to="#808080" begin="reset.mouseover" end="reset.mouseout"/>
                       </use>
               </g>
        </defs>

<script type="text/javascript">
var viewWidth = 594;
var viewHeight = 1234;
var sectionId = 'dynsection-0';
</script>
<script xlink:href="../../svgpan.js"/>
<svg id="graph" class="graph">
<g id="viewport">
<title>rml::internal::LargeObjectCache</title>
<polygon fill="white" stroke="none" points="-4,4 -4,-1230 589.5,-1230 589.5,4 -4,4"/>
<!-- Node1 -->
<g id="node1" class="node"><title>Node1</title>
<polygon fill="#bfbfbf" stroke="black" points="281,-314.5 281,-580.5 444,-580.5 444,-314.5 281,-314.5"/>
<text text-anchor="start" x="289" y="-568.5" font-family="Helvetica,sans-Serif" font-size="10.00">rml::internal::LargeObject</text>
<text text-anchor="middle" x="362.5" y="-557.5" font-family="Helvetica,sans-Serif" font-size="10.00">Cache</text>
<polyline fill="none" stroke="black" points="281,-550.5 444,-550.5 "/>
<text text-anchor="start" x="289" y="-538.5" font-family="Helvetica,sans-Serif" font-size="10.00">+ largeBlockCacheStep</text>
<text text-anchor="start" x="289" y="-527.5" font-family="Helvetica,sans-Serif" font-size="10.00">+ hugeBlockCacheStep</text>
<text text-anchor="start" x="289" y="-516.5" font-family="Helvetica,sans-Serif" font-size="10.00">&#45; cacheCurrTime</text>
<polyline fill="none" stroke="black" points="281,-509.5 444,-509.5 "/>
<text text-anchor="start" x="289" y="-497.5" font-family="Helvetica,sans-Serif" font-size="10.00">+ init()</text>
<text text-anchor="start" x="289" y="-486.5" font-family="Helvetica,sans-Serif" font-size="10.00">+ put()</text>
<text text-anchor="start" x="289" y="-475.5" font-family="Helvetica,sans-Serif" font-size="10.00">+ putList()</text>
<text text-anchor="start" x="289" y="-464.5" font-family="Helvetica,sans-Serif" font-size="10.00">+ get()</text>
<text text-anchor="start" x="289" y="-453.5" font-family="Helvetica,sans-Serif" font-size="10.00">+ updateCacheState()</text>
<text text-anchor="start" x="289" y="-442.5" font-family="Helvetica,sans-Serif" font-size="10.00">+ isCleanupNeededOnRange()</text>
<text text-anchor="start" x="289" y="-431.5" font-family="Helvetica,sans-Serif" font-size="10.00">+ doCleanup()</text>
<text text-anchor="start" x="289" y="-420.5" font-family="Helvetica,sans-Serif" font-size="10.00">+ decreasingCleanup()</text>
<text text-anchor="start" x="289" y="-409.5" font-family="Helvetica,sans-Serif" font-size="10.00">+ regularCleanup()</text>
<text text-anchor="start" x="289" y="-398.5" font-family="Helvetica,sans-Serif" font-size="10.00">+ cleanAll()</text>
<text text-anchor="start" x="289" y="-387.5" font-family="Helvetica,sans-Serif" font-size="10.00">+ reset()</text>
<text text-anchor="start" x="289" y="-376.5" font-family="Helvetica,sans-Serif" font-size="10.00">+ reportStat()</text>
<text text-anchor="start" x="289" y="-365.5" font-family="Helvetica,sans-Serif" font-size="10.00">+ getCurrTime()</text>
<text text-anchor="start" x="289" y="-354.5" font-family="Helvetica,sans-Serif" font-size="10.00">+ getCurrTimeRange()</text>
<text text-anchor="start" x="289" y="-343.5" font-family="Helvetica,sans-Serif" font-size="10.00">+ registerRealloc()</text>
<text text-anchor="start" x="289" y="-332.5" font-family="Helvetica,sans-Serif" font-size="10.00">+ alignToBin()</text>
<text text-anchor="start" x="289" y="-321.5" font-family="Helvetica,sans-Serif" font-size="10.00">&#45; sizeToIdx()</text>
</g>
<!-- Node6 -->
<g id="node6" class="node"><title>Node6</title>
<g id="a_node6"><a xlink:href="../../dd/d62/structrml_1_1internal_1_1ExtMemoryPool.html" target="_top" xlink:title="{rml::internal::ExtMemoryPool\n|+ poolId\l+ rawAlloc\l+ rawFree\l+ keepAllMemory\l+ delayRegsReleasing\l+ fixedPool\l|+ init()\l+ initTLS()\l+ userPool()\l+ softCachesCleanup()\l+ releaseAllLocalCaches()\l+ hardCachesCleanup()\l+ remap()\l+ reset()\l+ destroy()\l+ delayRegionsReleasing()\l+ regionsAreReleaseable()\l+ mallocLargeObject()\l+ freeLargeObject()\l+ freeLargeObjectList()\l+ isPoolValid()\l}">
<polygon fill="white" stroke="red" points="375,-0.5 375,-266.5 530,-266.5 530,-0.5 375,-0.5"/>
<text text-anchor="middle" x="452.5" y="-254.5" font-family="Helvetica,sans-Serif" font-size="10.00">rml::internal::ExtMemoryPool</text>
<polyline fill="none" stroke="red" points="375,-247.5 530,-247.5 "/>
<text text-anchor="start" x="383" y="-235.5" font-family="Helvetica,sans-Serif" font-size="10.00">+ poolId</text>
<text text-anchor="start" x="383" y="-224.5" font-family="Helvetica,sans-Serif" font-size="10.00">+ rawAlloc</text>
<text text-anchor="start" x="383" y="-213.5" font-family="Helvetica,sans-Serif" font-size="10.00">+ rawFree</text>
<text text-anchor="start" x="383" y="-202.5" font-family="Helvetica,sans-Serif" font-size="10.00">+ keepAllMemory</text>
<text text-anchor="start" x="383" y="-191.5" font-family="Helvetica,sans-Serif" font-size="10.00">+ delayRegsReleasing</text>
<text text-anchor="start" x="383" y="-180.5" font-family="Helvetica,sans-Serif" font-size="10.00">+ fixedPool</text>
<polyline fill="none" stroke="red" points="375,-173.5 530,-173.5 "/>
<text text-anchor="start" x="383" y="-161.5" font-family="Helvetica,sans-Serif" font-size="10.00">+ init()</text>
<text text-anchor="start" x="383" y="-150.5" font-family="Helvetica,sans-Serif" font-size="10.00">+ initTLS()</text>
<text text-anchor="start" x="383" y="-139.5" font-family="Helvetica,sans-Serif" font-size="10.00">+ userPool()</text>
<text text-anchor="start" x="383" y="-128.5" font-family="Helvetica,sans-Serif" font-size="10.00">+ softCachesCleanup()</text>
<text text-anchor="start" x="383" y="-117.5" font-family="Helvetica,sans-Serif" font-size="10.00">+ releaseAllLocalCaches()</text>
<text text-anchor="start" x="383" y="-106.5" font-family="Helvetica,sans-Serif" font-size="10.00">+ hardCachesCleanup()</text>
<text text-anchor="start" x="383" y="-95.5" font-family="Helvetica,sans-Serif" font-size="10.00">+ remap()</text>
<text text-anchor="start" x="383" y="-84.5" font-family="Helvetica,sans-Serif" font-size="10.00">+ reset()</text>
<text text-anchor="start" x="383" y="-73.5" font-family="Helvetica,sans-Serif" font-size="10.00">+ destroy()</text>
<text text-anchor="start" x="383" y="-62.5" font-family="Helvetica,sans-Serif" font-size="10.00">+ delayRegionsReleasing()</text>
<text text-anchor="start" x="383" y="-51.5" font-family="Helvetica,sans-Serif" font-size="10.00">+ regionsAreReleaseable()</text>
<text text-anchor="start" x="383" y="-40.5" font-family="Helvetica,sans-Serif" font-size="10.00">+ mallocLargeObject()</text>
<text text-anchor="start" x="383" y="-29.5" font-family="Helvetica,sans-Serif" font-size="10.00">+ freeLargeObject()</text>
<text text-anchor="start" x="383" y="-18.5" font-family="Helvetica,sans-Serif" font-size="10.00">+ freeLargeObjectList()</text>
<text text-anchor="start" x="383" y="-7.5" font-family="Helvetica,sans-Serif" font-size="10.00">+ isPoolValid()</text>
</a>
</g>
</g>
<!-- Node1&#45;&gt;Node6 -->
<g id="edge7" class="edge"><title>Node1&#45;&gt;Node6</title>
<path fill="none" stroke="#404040" d="M424.712,-314.339C426.812,-308.194 428.758,-302.062 430.5,-296 432.101,-290.429 433.587,-284.716 434.966,-278.918"/>
<polygon fill="none" stroke="#404040" points="435.03,-278.63 432.435,-271.902 437.648,-266.919 440.243,-273.647 435.03,-278.63"/>
<text text-anchor="middle" x="446" y="-288" font-family="Helvetica,sans-Serif" font-size="10.00"> +loc</text>
</g>
<!-- Node2 -->
<g id="node2" class="node"><title>Node2</title>
<g id="a_node2"><a xlink:href="../../d0/d99/classrml_1_1internal_1_1LargeObjectCacheImpl.html" target="_top" xlink:title="{rml::internal::LargeObject\lCacheImpl\&lt; HugeCacheTypeProps \&gt;\n|&#45; tooLargeLOC\l&#45; numBins\l|+ putList()\l+ get()\l+ updateCacheState()\l+ regularCleanup()\l+ cleanAll()\l+ reset()\l+ reportStat()\l+ sizeToIdx()\l+ getNumBins()\l}">
<polygon fill="white" stroke="black" points="0,-628.5 0,-795.5 193,-795.5 193,-628.5 0,-628.5"/>
<text text-anchor="start" x="8" y="-783.5" font-family="Helvetica,sans-Serif" font-size="10.00">rml::internal::LargeObject</text>
<text text-anchor="middle" x="96.5" y="-772.5" font-family="Helvetica,sans-Serif" font-size="10.00">CacheImpl&lt; HugeCacheTypeProps &gt;</text>
<polyline fill="none" stroke="black" points="0,-765.5 193,-765.5 "/>
<text text-anchor="start" x="8" y="-753.5" font-family="Helvetica,sans-Serif" font-size="10.00">&#45; tooLargeLOC</text>
<text text-anchor="start" x="8" y="-742.5" font-family="Helvetica,sans-Serif" font-size="10.00">&#45; numBins</text>
<polyline fill="none" stroke="black" points="0,-735.5 193,-735.5 "/>
<text text-anchor="start" x="8" y="-723.5" font-family="Helvetica,sans-Serif" font-size="10.00">+ putList()</text>
<text text-anchor="start" x="8" y="-712.5" font-family="Helvetica,sans-Serif" font-size="10.00">+ get()</text>
<text text-anchor="start" x="8" y="-701.5" font-family="Helvetica,sans-Serif" font-size="10.00">+ updateCacheState()</text>
<text text-anchor="start" x="8" y="-690.5" font-family="Helvetica,sans-Serif" font-size="10.00">+ regularCleanup()</text>
<text text-anchor="start" x="8" y="-679.5" font-family="Helvetica,sans-Serif" font-size="10.00">+ cleanAll()</text>
<text text-anchor="start" x="8" y="-668.5" font-family="Helvetica,sans-Serif" font-size="10.00">+ reset()</text>
<text text-anchor="start" x="8" y="-657.5" font-family="Helvetica,sans-Serif" font-size="10.00">+ reportStat()</text>
<text text-anchor="start" x="8" y="-646.5" font-family="Helvetica,sans-Serif" font-size="10.00">+ sizeToIdx()</text>
<text text-anchor="start" x="8" y="-635.5" font-family="Helvetica,sans-Serif" font-size="10.00">+ getNumBins()</text>
</a>
</g>
</g>
<!-- Node2&#45;&gt;Node1 -->
<g id="edge1" class="edge"><title>Node2&#45;&gt;Node1</title>
<path fill="none" stroke="#404040" d="M180.299,-628.304C209.544,-599.443 242.484,-566.937 272.233,-537.58"/>
<polygon fill="none" stroke="#404040" points="272.401,-537.414 273.862,-530.352 280.942,-528.985 279.481,-536.046 272.401,-537.414"/>
<text text-anchor="middle" x="237" y="-602" font-family="Helvetica,sans-Serif" font-size="10.00"> &#45;hugeCache</text>
</g>
<!-- Node3 -->
<g id="node3" class="node"><title>Node3</title>
<g id="a_node3"><a xlink:href="../../d9/d9d/classrml_1_1internal_1_1LargeObjectCacheImpl_1_1CacheBin.html" target="_top" xlink:title="{rml::internal::LargeObject\lCacheImpl\&lt; Props \&gt;::CacheBin\n|&#45; oldest\l&#45; lastCleanedAge\l&#45; ageThreshold\l&#45; meanHitRange\l&#45; lastGet\l|+ init()\l+ putList()\l+ get()\l+ cleanToThreshold()\l+ releaseAllToBackend()\l+ updateUsedSize()\l+ decreaseThreshold()\l+ updateBinsSummary()\l+ getSize()\l+ getUsedSize()\land 11 more...\l&#45; ExecuteOperation()\l&#45; CacheBin()\l}">
<polygon fill="white" stroke="red" points="55,-865.5 55,-1109.5 222,-1109.5 222,-865.5 55,-865.5"/>
<text text-anchor="start" x="63" y="-1097.5" font-family="Helvetica,sans-Serif" font-size="10.00">rml::internal::LargeObject</text>
<text text-anchor="middle" x="138.5" y="-1086.5" font-family="Helvetica,sans-Serif" font-size="10.00">CacheImpl&lt; Props &gt;::CacheBin</text>
<polyline fill="none" stroke="red" points="55,-1079.5 222,-1079.5 "/>
<text text-anchor="start" x="63" y="-1067.5" font-family="Helvetica,sans-Serif" font-size="10.00">&#45; oldest</text>
<text text-anchor="start" x="63" y="-1056.5" font-family="Helvetica,sans-Serif" font-size="10.00">&#45; lastCleanedAge</text>
<text text-anchor="start" x="63" y="-1045.5" font-family="Helvetica,sans-Serif" font-size="10.00">&#45; ageThreshold</text>
<text text-anchor="start" x="63" y="-1034.5" font-family="Helvetica,sans-Serif" font-size="10.00">&#45; meanHitRange</text>
<text text-anchor="start" x="63" y="-1023.5" font-family="Helvetica,sans-Serif" font-size="10.00">&#45; lastGet</text>
<polyline fill="none" stroke="red" points="55,-1016.5 222,-1016.5 "/>
<text text-anchor="start" x="63" y="-1004.5" font-family="Helvetica,sans-Serif" font-size="10.00">+ init()</text>
<text text-anchor="start" x="63" y="-993.5" font-family="Helvetica,sans-Serif" font-size="10.00">+ putList()</text>
<text text-anchor="start" x="63" y="-982.5" font-family="Helvetica,sans-Serif" font-size="10.00">+ get()</text>
<text text-anchor="start" x="63" y="-971.5" font-family="Helvetica,sans-Serif" font-size="10.00">+ cleanToThreshold()</text>
<text text-anchor="start" x="63" y="-960.5" font-family="Helvetica,sans-Serif" font-size="10.00">+ releaseAllToBackend()</text>
<text text-anchor="start" x="63" y="-949.5" font-family="Helvetica,sans-Serif" font-size="10.00">+ updateUsedSize()</text>
<text text-anchor="start" x="63" y="-938.5" font-family="Helvetica,sans-Serif" font-size="10.00">+ decreaseThreshold()</text>
<text text-anchor="start" x="63" y="-927.5" font-family="Helvetica,sans-Serif" font-size="10.00">+ updateBinsSummary()</text>
<text text-anchor="start" x="63" y="-916.5" font-family="Helvetica,sans-Serif" font-size="10.00">+ getSize()</text>
<text text-anchor="start" x="63" y="-905.5" font-family="Helvetica,sans-Serif" font-size="10.00">+ getUsedSize()</text>
<text text-anchor="start" x="63" y="-894.5" font-family="Helvetica,sans-Serif" font-size="10.00">and 11 more...</text>
<text text-anchor="start" x="63" y="-883.5" font-family="Helvetica,sans-Serif" font-size="10.00">&#45; ExecuteOperation()</text>
<text text-anchor="start" x="63" y="-872.5" font-family="Helvetica,sans-Serif" font-size="10.00">&#45; CacheBin()</text>
</a>
</g>
</g>
<!-- Node3&#45;&gt;Node2 -->
<g id="edge2" class="edge"><title>Node3&#45;&gt;Node2</title>
<path fill="none" stroke="#404040" d="M119.895,-865.345C116.925,-846.005 113.89,-826.244 111.033,-807.636"/>
<polygon fill="none" stroke="#404040" points="111.004,-807.451 106.14,-802.128 109.183,-795.59 114.047,-800.913 111.004,-807.451"/>
<text text-anchor="middle" x="127.5" y="-828" font-family="Helvetica,sans-Serif" font-size="10.00"> &#45;bin</text>
</g>
<!-- Node7 -->
<g id="node7" class="node"><title>Node7</title>
<g id="a_node7"><a xlink:href="../../d0/d99/classrml_1_1internal_1_1LargeObjectCacheImpl.html" target="_top" xlink:title="{rml::internal::LargeObject\lCacheImpl\&lt; LargeCacheTypeProps \&gt;\n|&#45; tooLargeLOC\l&#45; numBins\l|+ putList()\l+ get()\l+ updateCacheState()\l+ regularCleanup()\l+ cleanAll()\l+ reset()\l+ reportStat()\l+ sizeToIdx()\l+ getNumBins()\l}">
<polygon fill="white" stroke="black" points="211.5,-628.5 211.5,-795.5 405.5,-795.5 405.5,-628.5 211.5,-628.5"/>
<text text-anchor="start" x="219.5" y="-783.5" font-family="Helvetica,sans-Serif" font-size="10.00">rml::internal::LargeObject</text>
<text text-anchor="middle" x="308.5" y="-772.5" font-family="Helvetica,sans-Serif" font-size="10.00">CacheImpl&lt; LargeCacheTypeProps &gt;</text>
<polyline fill="none" stroke="black" points="211.5,-765.5 405.5,-765.5 "/>
<text text-anchor="start" x="219.5" y="-753.5" font-family="Helvetica,sans-Serif" font-size="10.00">&#45; tooLargeLOC</text>
<text text-anchor="start" x="219.5" y="-742.5" font-family="Helvetica,sans-Serif" font-size="10.00">&#45; numBins</text>
<polyline fill="none" stroke="black" points="211.5,-735.5 405.5,-735.5 "/>
<text text-anchor="start" x="219.5" y="-723.5" font-family="Helvetica,sans-Serif" font-size="10.00">+ putList()</text>
<text text-anchor="start" x="219.5" y="-712.5" font-family="Helvetica,sans-Serif" font-size="10.00">+ get()</text>
<text text-anchor="start" x="219.5" y="-701.5" font-family="Helvetica,sans-Serif" font-size="10.00">+ updateCacheState()</text>
<text text-anchor="start" x="219.5" y="-690.5" font-family="Helvetica,sans-Serif" font-size="10.00">+ regularCleanup()</text>
<text text-anchor="start" x="219.5" y="-679.5" font-family="Helvetica,sans-Serif" font-size="10.00">+ cleanAll()</text>
<text text-anchor="start" x="219.5" y="-668.5" font-family="Helvetica,sans-Serif" font-size="10.00">+ reset()</text>
<text text-anchor="start" x="219.5" y="-657.5" font-family="Helvetica,sans-Serif" font-size="10.00">+ reportStat()</text>
<text text-anchor="start" x="219.5" y="-646.5" font-family="Helvetica,sans-Serif" font-size="10.00">+ sizeToIdx()</text>
<text text-anchor="start" x="219.5" y="-635.5" font-family="Helvetica,sans-Serif" font-size="10.00">+ getNumBins()</text>
</a>
</g>
</g>
<!-- Node3&#45;&gt;Node7 -->
<g id="edge9" class="edge"><title>Node3&#45;&gt;Node7</title>
<path fill="none" stroke="#404040" d="M168.688,-865.325C175.717,-847.378 184.235,-829.672 194.5,-814 197.311,-809.707 200.352,-805.485 203.57,-801.347"/>
<polygon fill="none" stroke="#404040" points="203.757,-801.121 204.478,-793.946 211.379,-791.852 210.657,-799.027 203.757,-801.121"/>
<text text-anchor="middle" x="205.5" y="-828" font-family="Helvetica,sans-Serif" font-size="10.00"> &#45;bin</text>
</g>
<!-- Node4 -->
<g id="node4" class="node"><title>Node4</title>
<polygon fill="white" stroke="#bfbfbf" points="411.5,-1168.5 411.5,-1225.5 455.5,-1225.5 455.5,-1168.5 411.5,-1168.5"/>
<text text-anchor="middle" x="433.5" y="-1213.5" font-family="Helvetica,sans-Serif" font-size="10.00">size_t</text>
<polyline fill="none" stroke="#bfbfbf" points="411.5,-1206.5 455.5,-1206.5 "/>
<text text-anchor="middle" x="433.5" y="-1194.5" font-family="Helvetica,sans-Serif" font-size="10.00"> </text>
<polyline fill="none" stroke="#bfbfbf" points="411.5,-1187.5 455.5,-1187.5 "/>
<text text-anchor="middle" x="433.5" y="-1175.5" font-family="Helvetica,sans-Serif" font-size="10.00"> </text>
</g>
<!-- Node4&#45;&gt;Node1 -->
<g id="edge11" class="edge"><title>Node4&#45;&gt;Node1</title>
<path fill="none" stroke="#404040" d="M433.483,-1168.17C433.279,-1069.1 431.332,-733.846 414.5,-628 412.666,-616.465 410.319,-604.624 407.64,-592.792"/>
<polygon fill="none" stroke="#404040" points="407.608,-592.656 402.339,-587.732 404.857,-580.975 410.126,-585.898 407.608,-592.656"/>
<text text-anchor="middle" x="466.5" y="-839" font-family="Helvetica,sans-Serif" font-size="10.00"> &#45;maxHugeSize</text>
<text text-anchor="middle" x="466.5" y="-828" font-family="Helvetica,sans-Serif" font-size="10.00">&#45;maxLargeSize</text>
<text text-anchor="middle" x="466.5" y="-817" font-family="Helvetica,sans-Serif" font-size="10.00">&#45;minLargeSize</text>
</g>
<!-- Node4&#45;&gt;Node3 -->
<g id="edge3" class="edge"><title>Node4&#45;&gt;Node3</title>
<path fill="none" stroke="#404040" d="M411.419,-1190.71C373.834,-1180.92 295.974,-1157.16 231.921,-1110.48"/>
<polygon fill="none" stroke="#404040" points="231.745,-1110.35 224.547,-1109.92 222.173,-1103.11 229.372,-1103.54 231.745,-1110.35"/>
<text text-anchor="middle" x="323.5" y="-1142" font-family="Helvetica,sans-Serif" font-size="10.00"> &#45;cachedSize</text>
<text text-anchor="middle" x="323.5" y="-1131" font-family="Helvetica,sans-Serif" font-size="10.00">&#45;usedSize</text>
</g>
<!-- Node4&#45;&gt;Node6 -->
<g id="edge6" class="edge"><title>Node4&#45;&gt;Node6</title>
<path fill="none" stroke="#404040" d="M453.918,-1168.41C480.194,-1130.1 522.5,-1057.68 522.5,-988.5 522.5,-988.5 522.5,-988.5 522.5,-446.5 522.5,-390.761 511.732,-330.75 498.642,-278.393"/>
<polygon fill="none" stroke="#404040" points="498.612,-278.275 493.249,-273.454 495.636,-266.65 500.999,-271.47 498.612,-278.275"/>
<text text-anchor="middle" x="554" y="-709.5" font-family="Helvetica,sans-Serif" font-size="10.00"> +granularity</text>
</g>
<!-- Node5 -->
<g id="node5" class="node"><title>Node5</title>
<g id="a_node5"><a xlink:href="../../d1/d3a/classrml_1_1internal_1_1BitMaskMax.html" target="_top" xlink:title="{rml::internal::BitMaskMax\l\&lt; numBins \&gt;\n||+ set()\l+ getMaxTrue()\l}">
<polygon fill="white" stroke="red" points="240,-948 240,-1027 377,-1027 377,-948 240,-948"/>
<text text-anchor="start" x="248" y="-1015" font-family="Helvetica,sans-Serif" font-size="10.00">rml::internal::BitMaskMax</text>
<text text-anchor="middle" x="308.5" y="-1004" font-family="Helvetica,sans-Serif" font-size="10.00">&lt; numBins &gt;</text>
<polyline fill="none" stroke="red" points="240,-997 377,-997 "/>
<text text-anchor="middle" x="308.5" y="-985" font-family="Helvetica,sans-Serif" font-size="10.00"> </text>
<polyline fill="none" stroke="red" points="240,-978 377,-978 "/>
<text text-anchor="start" x="248" y="-966" font-family="Helvetica,sans-Serif" font-size="10.00">+ set()</text>
<text text-anchor="start" x="248" y="-955" font-family="Helvetica,sans-Serif" font-size="10.00">+ getMaxTrue()</text>
</a>
</g>
</g>
<!-- Node5&#45;&gt;Node2 -->
<g id="edge4" class="edge"><title>Node5&#45;&gt;Node2</title>
<path fill="none" stroke="#404040" d="M293.06,-947.992C277.208,-911.266 250.137,-855.548 216.5,-814 211.834,-808.236 206.802,-802.556 201.536,-797.006"/>
<polygon fill="none" stroke="#404040" points="201.493,-796.962 194.435,-795.483 193.085,-788.399 200.143,-789.878 201.493,-796.962"/>
<text text-anchor="middle" x="260.5" y="-828" font-family="Helvetica,sans-Serif" font-size="10.00"> &#45;bitMask</text>
</g>
<!-- Node5&#45;&gt;Node7 -->
<g id="edge10" class="edge"><title>Node5&#45;&gt;Node7</title>
<path fill="none" stroke="#404040" d="M308.5,-947.894C308.5,-911.583 308.5,-855.759 308.5,-807.642"/>
<polygon fill="none" stroke="#404040" points="308.5,-807.592 304.5,-801.592 308.5,-795.592 312.5,-801.592 308.5,-807.592"/>
<text text-anchor="middle" x="330.5" y="-828" font-family="Helvetica,sans-Serif" font-size="10.00"> &#45;bitMask</text>
</g>
<!-- Node6&#45;&gt;Node1 -->
<g id="edge5" class="edge"><title>Node6&#45;&gt;Node1</title>
<path fill="none" stroke="#404040" d="M374.933,-253.144C370.379,-263.63 366.457,-274.322 363.5,-285 361.945,-290.616 360.636,-296.384 359.543,-302.242"/>
<polygon fill="none" stroke="#404040" points="359.498,-302.528 362.495,-309.086 357.594,-314.376 354.597,-307.818 359.498,-302.528"/>
<text text-anchor="middle" x="397" y="-288" font-family="Helvetica,sans-Serif" font-size="10.00"> &#45;extMemPool</text>
</g>
<!-- Node7&#45;&gt;Node1 -->
<g id="edge8" class="edge"><title>Node7&#45;&gt;Node1</title>
<path fill="none" stroke="#404040" d="M325.512,-628.304C327.878,-616.801 330.363,-604.72 332.879,-592.489"/>
<polygon fill="none" stroke="#404040" points="332.88,-592.485 330.171,-585.803 335.298,-580.732 338.007,-587.415 332.88,-592.485"/>
<text text-anchor="middle" x="362" y="-602" font-family="Helvetica,sans-Serif" font-size="10.00"> &#45;largeCache</text>
</g>
</g>
</svg>
        <g id="navigator" transform="translate(0 0)" fill="#404254">
                <rect fill="#f2f5e9" fill-opacity="0.5" stroke="#606060" stroke-width=".5" x="0" y="0" width="60" height="60"/>
                <use id="zoomplus" xlink:href="#zoomPlus" x="17" y="9" onmousedown="handleZoom(evt,'in')"/>
                <use id="zoomminus" xlink:href="#zoomMin" x="42" y="9" onmousedown="handleZoom(evt,'out')"/>
                <use id="reset" xlink:href="#resetDef" x="30" y="36" onmousedown="handleReset()"/>
                <g id="arrowUp" xlink:href="#dirArrow" transform="translate(30 24)" onmousedown="handlePan(0,-1)">
                  <use xlink:href="#rim" fill="#404040">
                        <set attributeName="fill" to="#808080" begin="arrowUp.mouseover" end="arrowUp.mouseout"/>
                  </use>
                  <path fill="none" stroke="white" stroke-width="1.5" d="M0,-3.0v7 M-2.5,-0.5L0,-3.0L2.5,-0.5"/>
                </g>
                <g id="arrowRight" xlink:href="#dirArrow" transform="rotate(90) translate(36 -43)" onmousedown="handlePan(1,0)">
                  <use xlink:href="#rim" fill="#404040">
                        <set attributeName="fill" to="#808080" begin="arrowRight.mouseover" end="arrowRight.mouseout"/>
                  </use>
                  <path fill="none" stroke="white" stroke-width="1.5" d="M0,-3.0v7 M-2.5,-0.5L0,-3.0L2.5,-0.5"/>
                </g>
                <g id="arrowDown" xlink:href="#dirArrow" transform="rotate(180) translate(-30 -48)" onmousedown="handlePan(0,1)">
                  <use xlink:href="#rim" fill="#404040">
                        <set attributeName="fill" to="#808080" begin="arrowDown.mouseover" end="arrowDown.mouseout"/>
                  </use>
                  <path fill="none" stroke="white" stroke-width="1.5" d="M0,-3.0v7 M-2.5,-0.5L0,-3.0L2.5,-0.5"/>
                </g>
                <g id="arrowLeft" xlink:href="#dirArrow" transform="rotate(270) translate(-36 17)" onmousedown="handlePan(-1,0)">
                  <use xlink:href="#rim" fill="#404040">
                        <set attributeName="fill" to="#808080" begin="arrowLeft.mouseover" end="arrowLeft.mouseout"/>
                  </use>
                  <path fill="none" stroke="white" stroke-width="1.5" d="M0,-3.0v7 M-2.5,-0.5L0,-3.0L2.5,-0.5"/>
                </g>
        </g>
        <svg viewBox="0 0 15 15" width="100%" height="30px" preserveAspectRatio="xMaxYMin meet">
         <g id="arrow_out" transform="scale(0.3 0.3)">
          <a xlink:href="classrml_1_1internal_1_1LargeObjectCache__coll__graph_org.svg" target="_base">
           <rect id="button" ry="5" rx="5" y="6" x="6" height="38" width="38"
                fill="#f2f5e9" fill-opacity="0.5" stroke="#606060" stroke-width="1.0"/>
           <path id="arrow"
             d="M 11.500037,31.436501 C 11.940474,20.09759 22.043105,11.32322 32.158766,21.979434 L 37.068811,17.246167 C 37.068811,17.246167 37.088388,32 37.088388,32 L 22.160133,31.978069 C 22.160133,31.978069 26.997745,27.140456 26.997745,27.140456 C 18.528582,18.264221 13.291696,25.230495 11.500037,31.436501 z"
             style="fill:#404040;"/>
          </a>
         </g>
        </svg>
</svg>
