<?xml version="1.0" encoding="UTF-8" standalone="no"?>
<!DOCTYPE svg PUBLIC "-//W3C//DTD SVG 1.1//EN"
 "http://www.w3.org/Graphics/SVG/1.1/DTD/svg11.dtd">
<!-- Generated by graphviz version 2.38.0 (20140413.2041)
 -->
<!-- Title: tbb::internal::stage_task Pages: 1 -->
<!--zoomable 766 -->
<svg id="main" version="1.1" xmlns="http://www.w3.org/2000/svg" xmlns:xlink="http://www.w3.org/1999/xlink" xml:space="preserve" onload="init(evt)">
<style type="text/css"><![CDATA[
.edge:hover path { stroke: red; }
.edge:hover polygon { stroke: red; fill: red; }
]]></style>
<script type="text/javascript"><![CDATA[
var edges = document.getElementsByTagName('g');
if (edges && edges.length) {
  for (var i=0;i<edges.length;i++) {
    if (edges[i].id.substr(0,4)=='edge') {
      edges[i].setAttribute('class','edge');
    }
  }
}
]]></script>
        <defs>
                <circle id="rim" cx="0" cy="0" r="7"/>
                <circle id="rim2" cx="0" cy="0" r="3.5"/>
                <g id="zoomPlus">
                        <use xlink:href="#rim" fill="#404040">
                                <set attributeName="fill" to="#808080" begin="zoomplus.mouseover" end="zoomplus.mouseout"/>
                        </use>
                        <path d="M-4,0h8M0,-4v8" fill="none" stroke="white" stroke-width="1.5" pointer-events="none"/>
                </g>
                <g id="zoomMin">
                        <use xlink:href="#rim" fill="#404040">
                                <set attributeName="fill" to="#808080" begin="zoomminus.mouseover" end="zoomminus.mouseout"/>
                        </use>
                        <path d="M-4,0h8" fill="none" stroke="white" stroke-width="1.5" pointer-events="none"/>
                </g>
                <g id="dirArrow">
                        <path fill="none" stroke="white" stroke-width="1.5" d="M0,-3.0v7 M-2.5,-0.5L0,-3.0L2.5,-0.5"/>
                </g>
               <g id="resetDef">
                       <use xlink:href="#rim2" fill="#404040">
                               <set attributeName="fill" to="#808080" begin="reset.mouseover" end="reset.mouseout"/>
                       </use>
               </g>
        </defs>

<script type="text/javascript">
var viewWidth = 581;
var viewHeight = 766;
var sectionId = 'dynsection-1';
</script>
<script xlink:href="../../svgpan.js"/>
<svg id="graph" class="graph">
<g id="viewport">
<title>tbb::internal::stage_task</title>
<polygon fill="white" stroke="none" points="-4,4 -4,-762 576.992,-762 576.992,4 -4,4"/>
<!-- Node1 -->
<g id="node1" class="node"><title>Node1</title>
<polygon fill="#bfbfbf" stroke="black" points="35.9917,-0.5 35.9917,-101.5 168.992,-101.5 168.992,-0.5 35.9917,-0.5"/>
<text text-anchor="middle" x="102.492" y="-89.5" font-family="Helvetica,sans-Serif" font-size="10.00">tbb::internal::stage_task</text>
<polyline fill="none" stroke="black" points="35.9917,-82.5 168.992,-82.5 "/>
<text text-anchor="start" x="43.9917" y="-70.5" font-family="Helvetica,sans-Serif" font-size="10.00">&#45; my_at_start</text>
<polyline fill="none" stroke="black" points="35.9917,-63.5 168.992,-63.5 "/>
<text text-anchor="start" x="43.9917" y="-51.5" font-family="Helvetica,sans-Serif" font-size="10.00">+ stage_task()</text>
<text text-anchor="start" x="43.9917" y="-40.5" font-family="Helvetica,sans-Serif" font-size="10.00">+ stage_task()</text>
<text text-anchor="start" x="43.9917" y="-29.5" font-family="Helvetica,sans-Serif" font-size="10.00">+ reset()</text>
<text text-anchor="start" x="43.9917" y="-18.5" font-family="Helvetica,sans-Serif" font-size="10.00">+ execute()</text>
<text text-anchor="start" x="43.9917" y="-7.5" font-family="Helvetica,sans-Serif" font-size="10.00">+ spawn_stage_task()</text>
</g>
<!-- Node2 -->
<g id="node2" class="node"><title>Node2</title>
<polygon fill="white" stroke="#bfbfbf" points="1.99175,-689.5 1.99175,-746.5 38.9917,-746.5 38.9917,-689.5 1.99175,-689.5"/>
<text text-anchor="middle" x="20.4917" y="-734.5" font-family="Helvetica,sans-Serif" font-size="10.00">task</text>
<polyline fill="none" stroke="#bfbfbf" points="1.99175,-727.5 38.9917,-727.5 "/>
<text text-anchor="middle" x="20.4917" y="-715.5" font-family="Helvetica,sans-Serif" font-size="10.00"> </text>
<polyline fill="none" stroke="#bfbfbf" points="1.99175,-708.5 38.9917,-708.5 "/>
<text text-anchor="middle" x="20.4917" y="-696.5" font-family="Helvetica,sans-Serif" font-size="10.00"> </text>
</g>
<!-- Node2&#45;&gt;Node1 -->
<g id="edge1" class="edge"><title>Node2&#45;&gt;Node1</title>
<path fill="none" stroke="midnightblue" d="M14.9444,-679.177C2.75633,-586.263 -20.7238,-340.451 39.4917,-149 44.673,-132.526 53.483,-116.174 62.8988,-101.721"/>
<polygon fill="none" stroke="midnightblue" points="11.4943,-679.783 16.2978,-689.226 18.4317,-678.848 11.4943,-679.783"/>
</g>
<!-- Node4 -->
<g id="node4" class="node"><title>Node4</title>
<g id="a_node4"><a xlink:href="../../df/d13/classtbb_1_1pipeline.html" target="_top" xlink:title="A processing pipeline that applies filters to items. ">
<polygon fill="white" stroke="black" points="57.4917,-463.5 57.4917,-619.5 201.492,-619.5 201.492,-463.5 57.4917,-463.5"/>
<text text-anchor="middle" x="129.492" y="-607.5" font-family="Helvetica,sans-Serif" font-size="10.00">tbb::pipeline</text>
<polyline fill="none" stroke="black" points="57.4917,-600.5 201.492,-600.5 "/>
<text text-anchor="start" x="65.4917" y="-588.5" font-family="Helvetica,sans-Serif" font-size="10.00">&#45; end_of_input</text>
<text text-anchor="start" x="65.4917" y="-577.5" font-family="Helvetica,sans-Serif" font-size="10.00">&#45; has_thread_bound_filters</text>
<polyline fill="none" stroke="black" points="57.4917,-570.5 201.492,-570.5 "/>
<text text-anchor="start" x="65.4917" y="-558.5" font-family="Helvetica,sans-Serif" font-size="10.00">+ pipeline()</text>
<text text-anchor="start" x="65.4917" y="-547.5" font-family="Helvetica,sans-Serif" font-size="10.00">+ ~pipeline()</text>
<text text-anchor="start" x="65.4917" y="-536.5" font-family="Helvetica,sans-Serif" font-size="10.00">+ add_filter()</text>
<text text-anchor="start" x="65.4917" y="-525.5" font-family="Helvetica,sans-Serif" font-size="10.00">+ run()</text>
<text text-anchor="start" x="65.4917" y="-514.5" font-family="Helvetica,sans-Serif" font-size="10.00">+ run()</text>
<text text-anchor="start" x="65.4917" y="-503.5" font-family="Helvetica,sans-Serif" font-size="10.00">+ clear()</text>
<text text-anchor="start" x="65.4917" y="-492.5" font-family="Helvetica,sans-Serif" font-size="10.00">&#45; remove_filter()</text>
<text text-anchor="start" x="65.4917" y="-481.5" font-family="Helvetica,sans-Serif" font-size="10.00">&#45; inject_token()</text>
<text text-anchor="start" x="65.4917" y="-470.5" font-family="Helvetica,sans-Serif" font-size="10.00">&#45; clear_filters()</text>
</a>
</g>
</g>
<!-- Node2&#45;&gt;Node4 -->
<g id="edge5" class="edge"><title>Node2&#45;&gt;Node4</title>
<path fill="none" stroke="#404040" d="M32.2611,-689.269C39.2091,-673.804 48.5696,-654.41 58.4917,-638 60.1628,-635.236 61.8946,-632.454 63.6734,-629.665"/>
<polygon fill="none" stroke="#404040" points="63.7157,-629.601 63.6604,-622.39 70.2953,-619.566 70.3506,-626.776 63.7157,-629.601"/>
<text text-anchor="middle" x="91.9917" y="-646.5" font-family="Helvetica,sans-Serif" font-size="10.00"> &#45;end_counter</text>
</g>
<!-- Node3 -->
<g id="node3" class="node"><title>Node3</title>
<g id="a_node3"><a xlink:href="../../dd/d8e/structtbb_1_1internal_1_1task__info.html" target="_top" xlink:title="This structure is used to store task information in a input buffer. ">
<polygon fill="white" stroke="black" points="449.992,-232 449.992,-322 572.992,-322 572.992,-232 449.992,-232"/>
<text text-anchor="middle" x="511.492" y="-310" font-family="Helvetica,sans-Serif" font-size="10.00">tbb::internal::task_info</text>
<polyline fill="none" stroke="black" points="449.992,-303 572.992,-303 "/>
<text text-anchor="start" x="457.992" y="-291" font-family="Helvetica,sans-Serif" font-size="10.00">+ my_object</text>
<text text-anchor="start" x="457.992" y="-280" font-family="Helvetica,sans-Serif" font-size="10.00">+ my_token</text>
<text text-anchor="start" x="457.992" y="-269" font-family="Helvetica,sans-Serif" font-size="10.00">+ my_token_ready</text>
<text text-anchor="start" x="457.992" y="-258" font-family="Helvetica,sans-Serif" font-size="10.00">+ is_valid</text>
<polyline fill="none" stroke="black" points="449.992,-251 572.992,-251 "/>
<text text-anchor="start" x="457.992" y="-239" font-family="Helvetica,sans-Serif" font-size="10.00">+ reset()</text>
</a>
</g>
</g>
<!-- Node3&#45;&gt;Node1 -->
<g id="edge2" class="edge"><title>Node3&#45;&gt;Node1</title>
<path fill="none" stroke="midnightblue" d="M492.848,-222.647C481.398,-197.025 464.293,-167.866 440.492,-149 361.074,-86.0484 242.532,-63.9515 168.998,-56.1951"/>
<polygon fill="none" stroke="midnightblue" points="489.657,-224.087 496.812,-231.901 496.091,-221.331 489.657,-224.087"/>
</g>
<!-- Node4&#45;&gt;Node1 -->
<g id="edge3" class="edge"><title>Node4&#45;&gt;Node1</title>
<path fill="none" stroke="#404040" d="M83.0976,-463.327C74.1756,-444.837 66.1626,-424.721 61.4917,-405 35.2693,-294.285 38.8929,-260.511 61.4917,-149 63.9157,-137.039 67.863,-124.721 72.3745,-113.045"/>
<polygon fill="none" stroke="#404040" points="72.5031,-112.73 71.0675,-105.664 77.0386,-101.621 78.4741,-108.687 72.5031,-112.73"/>
<text text-anchor="middle" x="93.4917" y="-274.5" font-family="Helvetica,sans-Serif" font-size="10.00"> &#45;my_pipeline</text>
</g>
<!-- Node6 -->
<g id="node6" class="node"><title>Node6</title>
<g id="a_node6"><a xlink:href="../../d9/db1/classtbb_1_1filter.html" target="_top" xlink:title="A stage in a pipeline. ">
<polygon fill="white" stroke="red" points="134.992,-149.5 134.992,-404.5 303.992,-404.5 303.992,-149.5 134.992,-149.5"/>
<text text-anchor="middle" x="219.492" y="-392.5" font-family="Helvetica,sans-Serif" font-size="10.00">tbb::filter</text>
<polyline fill="none" stroke="red" points="134.992,-385.5 303.992,-385.5 "/>
<text text-anchor="start" x="142.992" y="-373.5" font-family="Helvetica,sans-Serif" font-size="10.00"># filter_is_serial</text>
<text text-anchor="start" x="142.992" y="-362.5" font-family="Helvetica,sans-Serif" font-size="10.00"># filter_is_out_of_order</text>
<text text-anchor="start" x="142.992" y="-351.5" font-family="Helvetica,sans-Serif" font-size="10.00"># filter_is_bound</text>
<text text-anchor="start" x="142.992" y="-340.5" font-family="Helvetica,sans-Serif" font-size="10.00"># filter_may_emit_null</text>
<text text-anchor="start" x="142.992" y="-329.5" font-family="Helvetica,sans-Serif" font-size="10.00"># exact_exception_propagation</text>
<text text-anchor="start" x="142.992" y="-318.5" font-family="Helvetica,sans-Serif" font-size="10.00"># current_version</text>
<text text-anchor="start" x="142.992" y="-307.5" font-family="Helvetica,sans-Serif" font-size="10.00"># version_mask</text>
<text text-anchor="start" x="142.992" y="-296.5" font-family="Helvetica,sans-Serif" font-size="10.00">&#45; my_filter_mode</text>
<polyline fill="none" stroke="red" points="134.992,-289.5 303.992,-289.5 "/>
<text text-anchor="start" x="142.992" y="-277.5" font-family="Helvetica,sans-Serif" font-size="10.00">+ is_serial()</text>
<text text-anchor="start" x="142.992" y="-266.5" font-family="Helvetica,sans-Serif" font-size="10.00">+ is_ordered()</text>
<text text-anchor="start" x="142.992" y="-255.5" font-family="Helvetica,sans-Serif" font-size="10.00">+ is_bound()</text>
<text text-anchor="start" x="142.992" y="-244.5" font-family="Helvetica,sans-Serif" font-size="10.00">+ object_may_be_null()</text>
<text text-anchor="start" x="142.992" y="-233.5" font-family="Helvetica,sans-Serif" font-size="10.00">+ operator()()</text>
<text text-anchor="start" x="142.992" y="-222.5" font-family="Helvetica,sans-Serif" font-size="10.00">+ ~filter()</text>
<text text-anchor="start" x="142.992" y="-211.5" font-family="Helvetica,sans-Serif" font-size="10.00">+ finalize()</text>
<text text-anchor="start" x="142.992" y="-200.5" font-family="Helvetica,sans-Serif" font-size="10.00"># filter()</text>
<text text-anchor="start" x="142.992" y="-189.5" font-family="Helvetica,sans-Serif" font-size="10.00"># filter()</text>
<text text-anchor="start" x="142.992" y="-178.5" font-family="Helvetica,sans-Serif" font-size="10.00"># set_end_of_input()</text>
<text text-anchor="start" x="142.992" y="-167.5" font-family="Helvetica,sans-Serif" font-size="10.00">&#45; has_more_work()</text>
<text text-anchor="start" x="142.992" y="-156.5" font-family="Helvetica,sans-Serif" font-size="10.00">&#45; not_in_pipeline()</text>
</a>
</g>
</g>
<!-- Node4&#45;&gt;Node6 -->
<g id="edge7" class="edge"><title>Node4&#45;&gt;Node6</title>
<path fill="none" stroke="#404040" d="M122.515,-463.472C123.057,-449.803 124.796,-435.841 128.492,-423 129.198,-420.546 129.96,-418.092 130.772,-415.643"/>
<polygon fill="none" stroke="#404040" points="130.824,-415.499 129.116,-408.494 134.925,-404.222 136.634,-411.228 130.824,-415.499"/>
<text text-anchor="middle" x="160.492" y="-431.5" font-family="Helvetica,sans-Serif" font-size="10.00"> &#45;my_pipeline</text>
</g>
<!-- Node5 -->
<g id="node5" class="node"><title>Node5</title>
<g id="a_node5"><a xlink:href="../../d4/d32/structtbb_1_1atomic.html" target="_top" xlink:title="{tbb::atomic\&lt; internal\l::Token \&gt;\n||+ operator=()\l+ operator=()\l}">
<polygon fill="white" stroke="red" points="69.9917,-678.5 69.9917,-757.5 188.992,-757.5 188.992,-678.5 69.9917,-678.5"/>
<text text-anchor="start" x="77.9917" y="-745.5" font-family="Helvetica,sans-Serif" font-size="10.00">tbb::atomic&lt; internal</text>
<text text-anchor="middle" x="129.492" y="-734.5" font-family="Helvetica,sans-Serif" font-size="10.00">::Token &gt;</text>
<polyline fill="none" stroke="red" points="69.9917,-727.5 188.992,-727.5 "/>
<text text-anchor="middle" x="129.492" y="-715.5" font-family="Helvetica,sans-Serif" font-size="10.00"> </text>
<polyline fill="none" stroke="red" points="69.9917,-708.5 188.992,-708.5 "/>
<text text-anchor="start" x="77.9917" y="-696.5" font-family="Helvetica,sans-Serif" font-size="10.00">+ operator=()</text>
<text text-anchor="start" x="77.9917" y="-685.5" font-family="Helvetica,sans-Serif" font-size="10.00">+ operator=()</text>
</a>
</g>
</g>
<!-- Node5&#45;&gt;Node4 -->
<g id="edge4" class="edge"><title>Node5&#45;&gt;Node4</title>
<path fill="none" stroke="#404040" d="M129.492,-678.273C129.492,-664.511 129.492,-648.387 129.492,-632.152"/>
<polygon fill="none" stroke="#404040" points="129.492,-631.753 125.492,-625.753 129.492,-619.753 133.492,-625.753 129.492,-631.753"/>
<text text-anchor="middle" x="165.992" y="-652" font-family="Helvetica,sans-Serif" font-size="10.00"> &#45;input_tokens</text>
<text text-anchor="middle" x="165.992" y="-641" font-family="Helvetica,sans-Serif" font-size="10.00">&#45;token_counter</text>
</g>
<!-- Node6&#45;&gt;Node1 -->
<g id="edge9" class="edge"><title>Node6&#45;&gt;Node1</title>
<path fill="none" stroke="#404040" d="M153.299,-149.272C146.638,-136.52 140.112,-124.026 134.076,-112.468"/>
<polygon fill="none" stroke="#404040" points="134.005,-112.333 127.682,-108.867 128.449,-101.697 134.773,-105.163 134.005,-112.333"/>
<text text-anchor="middle" x="168.992" y="-123" font-family="Helvetica,sans-Serif" font-size="10.00"> &#45;my_filter</text>
</g>
<!-- Node6&#45;&gt;Node4 -->
<g id="edge6" class="edge"><title>Node6&#45;&gt;Node4</title>
<path fill="none" stroke="#404040" d="M208.59,-404.58C205.479,-418.466 201.521,-432.197 196.492,-445 195.514,-447.489 194.459,-449.975 193.337,-452.452"/>
<polygon fill="none" stroke="#404040" points="193.327,-452.472 194.263,-459.622 188.023,-463.236 187.087,-456.086 193.327,-452.472"/>
<text text-anchor="middle" x="230.492" y="-437" font-family="Helvetica,sans-Serif" font-size="10.00"> &#45;filter_end</text>
<text text-anchor="middle" x="230.492" y="-426" font-family="Helvetica,sans-Serif" font-size="10.00">&#45;filter_list</text>
</g>
<!-- Node6&#45;&gt;Node6 -->
<g id="edge8" class="edge"><title>Node6&#45;&gt;Node6</title>
<path fill="none" stroke="#404040" d="M304.327,-301.493C314.981,-297.176 321.992,-289.012 321.992,-277 321.992,-269.493 319.253,-263.488 314.598,-258.987"/>
<polygon fill="none" stroke="#404040" points="314.476,-258.91 307.268,-259.092 304.327,-252.507 311.536,-252.326 314.476,-258.91"/>
<text text-anchor="middle" x="376.992" y="-285.5" font-family="Helvetica,sans-Serif" font-size="10.00"> &#45;next_filter_in_pipeline</text>
<text text-anchor="middle" x="376.992" y="-274.5" font-family="Helvetica,sans-Serif" font-size="10.00">&#45;next_segment</text>
<text text-anchor="middle" x="376.992" y="-263.5" font-family="Helvetica,sans-Serif" font-size="10.00">&#45;prev_filter_in_pipeline</text>
</g>
</g>
</svg>
        <g id="navigator" transform="translate(0 0)" fill="#404254">
                <rect fill="#f2f5e9" fill-opacity="0.5" stroke="#606060" stroke-width=".5" x="0" y="0" width="60" height="60"/>
                <use id="zoomplus" xlink:href="#zoomPlus" x="17" y="9" onmousedown="handleZoom(evt,'in')"/>
                <use id="zoomminus" xlink:href="#zoomMin" x="42" y="9" onmousedown="handleZoom(evt,'out')"/>
                <use id="reset" xlink:href="#resetDef" x="30" y="36" onmousedown="handleReset()"/>
                <g id="arrowUp" xlink:href="#dirArrow" transform="translate(30 24)" onmousedown="handlePan(0,-1)">
                  <use xlink:href="#rim" fill="#404040">
                        <set attributeName="fill" to="#808080" begin="arrowUp.mouseover" end="arrowUp.mouseout"/>
                  </use>
                  <path fill="none" stroke="white" stroke-width="1.5" d="M0,-3.0v7 M-2.5,-0.5L0,-3.0L2.5,-0.5"/>
                </g>
                <g id="arrowRight" xlink:href="#dirArrow" transform="rotate(90) translate(36 -43)" onmousedown="handlePan(1,0)">
                  <use xlink:href="#rim" fill="#404040">
                        <set attributeName="fill" to="#808080" begin="arrowRight.mouseover" end="arrowRight.mouseout"/>
                  </use>
                  <path fill="none" stroke="white" stroke-width="1.5" d="M0,-3.0v7 M-2.5,-0.5L0,-3.0L2.5,-0.5"/>
                </g>
                <g id="arrowDown" xlink:href="#dirArrow" transform="rotate(180) translate(-30 -48)" onmousedown="handlePan(0,1)">
                  <use xlink:href="#rim" fill="#404040">
                        <set attributeName="fill" to="#808080" begin="arrowDown.mouseover" end="arrowDown.mouseout"/>
                  </use>
                  <path fill="none" stroke="white" stroke-width="1.5" d="M0,-3.0v7 M-2.5,-0.5L0,-3.0L2.5,-0.5"/>
                </g>
                <g id="arrowLeft" xlink:href="#dirArrow" transform="rotate(270) translate(-36 17)" onmousedown="handlePan(-1,0)">
                  <use xlink:href="#rim" fill="#404040">
                        <set attributeName="fill" to="#808080" begin="arrowLeft.mouseover" end="arrowLeft.mouseout"/>
                  </use>
                  <path fill="none" stroke="white" stroke-width="1.5" d="M0,-3.0v7 M-2.5,-0.5L0,-3.0L2.5,-0.5"/>
                </g>
        </g>
        <svg viewBox="0 0 15 15" width="100%" height="30px" preserveAspectRatio="xMaxYMin meet">
         <g id="arrow_out" transform="scale(0.3 0.3)">
          <a xlink:href="classtbb_1_1internal_1_1stage__task__coll__graph_org.svg" target="_base">
           <rect id="button" ry="5" rx="5" y="6" x="6" height="38" width="38"
                fill="#f2f5e9" fill-opacity="0.5" stroke="#606060" stroke-width="1.0"/>
           <path id="arrow"
             d="M 11.500037,31.436501 C 11.940474,20.09759 22.043105,11.32322 32.158766,21.979434 L 37.068811,17.246167 C 37.068811,17.246167 37.088388,32 37.088388,32 L 22.160133,31.978069 C 22.160133,31.978069 26.997745,27.140456 26.997745,27.140456 C 18.528582,18.264221 13.291696,25.230495 11.500037,31.436501 z"
             style="fill:#404040;"/>
          </a>
         </g>
        </svg>
</svg>
