<?xml version="1.0" encoding="UTF-8" standalone="no"?>
<!DOCTYPE svg PUBLIC "-//W3C//DTD SVG 1.1//EN"
 "http://www.w3.org/Graphics/SVG/1.1/DTD/svg11.dtd">
<!-- Generated by graphviz version 2.38.0 (20140413.2041)
 -->
<!-- Title: tbb::internal::critical_section_v4 Pages: 1 -->
<svg width="178pt" height="292pt"
 viewBox="0.00 0.00 178.00 292.00" xmlns="http://www.w3.org/2000/svg" xmlns:xlink="http://www.w3.org/1999/xlink">
<g id="graph0" class="graph" transform="scale(1 1) rotate(0) translate(4 288)">
<title>tbb::internal::critical_section_v4</title>
<polygon fill="white" stroke="none" points="-4,4 -4,-288 174,-288 174,4 -4,4"/>
<!-- Node1 -->
<g id="node1" class="node"><title>Node1</title>
<polygon fill="#bfbfbf" stroke="black" points="9.5,-0.5 9.5,-156.5 140.5,-156.5 140.5,-0.5 9.5,-0.5"/>
<text text-anchor="start" x="17.5" y="-144.5" font-family="Helvetica,sans-Serif" font-size="10.00">tbb::internal::critical</text>
<text text-anchor="middle" x="75" y="-133.5" font-family="Helvetica,sans-Serif" font-size="10.00">_section_v4</text>
<polyline fill="none" stroke="black" points="9.5,-126.5 140.5,-126.5 "/>
<text text-anchor="start" x="17.5" y="-114.5" font-family="Helvetica,sans-Serif" font-size="10.00">+ is_rw_mutex</text>
<text text-anchor="start" x="17.5" y="-103.5" font-family="Helvetica,sans-Serif" font-size="10.00">+ is_recursive_mutex</text>
<text text-anchor="start" x="17.5" y="-92.5" font-family="Helvetica,sans-Serif" font-size="10.00">+ is_fair_mutex</text>
<text text-anchor="start" x="17.5" y="-81.5" font-family="Helvetica,sans-Serif" font-size="10.00">&#45; my_impl</text>
<polyline fill="none" stroke="black" points="9.5,-74.5 140.5,-74.5 "/>
<text text-anchor="start" x="17.5" y="-62.5" font-family="Helvetica,sans-Serif" font-size="10.00">+ internal_construct()</text>
<text text-anchor="start" x="17.5" y="-51.5" font-family="Helvetica,sans-Serif" font-size="10.00">+ critical_section_v4()</text>
<text text-anchor="start" x="17.5" y="-40.5" font-family="Helvetica,sans-Serif" font-size="10.00">+ ~critical_section_v4()</text>
<text text-anchor="start" x="17.5" y="-29.5" font-family="Helvetica,sans-Serif" font-size="10.00">+ lock()</text>
<text text-anchor="start" x="17.5" y="-18.5" font-family="Helvetica,sans-Serif" font-size="10.00">+ try_lock()</text>
<text text-anchor="start" x="17.5" y="-7.5" font-family="Helvetica,sans-Serif" font-size="10.00">+ unlock()</text>
</g>
<!-- Node2 -->
<g id="node2" class="node"><title>Node2</title>
<polygon fill="white" stroke="#bfbfbf" points="0,-215.5 0,-272.5 56,-272.5 56,-215.5 0,-215.5"/>
<text text-anchor="middle" x="28" y="-260.5" font-family="Helvetica,sans-Serif" font-size="10.00">no_copy</text>
<polyline fill="none" stroke="#bfbfbf" points="0,-253.5 56,-253.5 "/>
<text text-anchor="middle" x="28" y="-241.5" font-family="Helvetica,sans-Serif" font-size="10.00"> </text>
<polyline fill="none" stroke="#bfbfbf" points="0,-234.5 56,-234.5 "/>
<text text-anchor="middle" x="28" y="-222.5" font-family="Helvetica,sans-Serif" font-size="10.00"> </text>
</g>
<!-- Node2&#45;&gt;Node1 -->
<g id="edge1" class="edge"><title>Node2&#45;&gt;Node1</title>
<path fill="none" stroke="#8b1a1a" d="M38.7403,-205.637C42.9323,-191.055 47.9016,-173.768 52.7957,-156.743"/>
<polygon fill="none" stroke="#8b1a1a" points="35.3719,-204.687 35.9729,-215.264 42.0995,-206.621 35.3719,-204.687"/>
</g>
<!-- Node3 -->
<g id="node3" class="node"><title>Node3</title>
<g id="a_node3"><a xlink:href="../../d7/d79/classtbb_1_1internal_1_1tbb__thread__v3_1_1id.html" target="_top" xlink:title="{tbb::internal::tbb\l_thread_v3::id\n|&#45; my_id\l|+ id()\l&#45; id()\l}">
<polygon fill="white" stroke="black" points="74,-204.5 74,-283.5 170,-283.5 170,-204.5 74,-204.5"/>
<text text-anchor="start" x="82" y="-271.5" font-family="Helvetica,sans-Serif" font-size="10.00">tbb::internal::tbb</text>
<text text-anchor="middle" x="122" y="-260.5" font-family="Helvetica,sans-Serif" font-size="10.00">_thread_v3::id</text>
<polyline fill="none" stroke="black" points="74,-253.5 170,-253.5 "/>
<text text-anchor="start" x="82" y="-241.5" font-family="Helvetica,sans-Serif" font-size="10.00">&#45; my_id</text>
<polyline fill="none" stroke="black" points="74,-234.5 170,-234.5 "/>
<text text-anchor="start" x="82" y="-222.5" font-family="Helvetica,sans-Serif" font-size="10.00">+ id()</text>
<text text-anchor="start" x="82" y="-211.5" font-family="Helvetica,sans-Serif" font-size="10.00">&#45; id()</text>
</a>
</g>
</g>
<!-- Node3&#45;&gt;Node1 -->
<g id="edge2" class="edge"><title>Node3&#45;&gt;Node1</title>
<path fill="none" stroke="#404040" d="M110.862,-204.253C107.703,-193.263 104.127,-180.824 100.487,-168.163"/>
<polygon fill="none" stroke="#404040" points="100.452,-168.04 94.95,-163.379 97.1366,-156.507 102.639,-161.169 100.452,-168.04"/>
<text text-anchor="middle" x="125" y="-178" font-family="Helvetica,sans-Serif" font-size="10.00"> &#45;my_tid</text>
</g>
</g>
</svg>
