<?xml version="1.0" encoding="UTF-8" standalone="no"?>
<!DOCTYPE svg PUBLIC "-//W3C//DTD SVG 1.1//EN"
 "http://www.w3.org/Graphics/SVG/1.1/DTD/svg11.dtd">
<!-- Generated by graphviz version 2.38.0 (20140413.2041)
 -->
<!-- Title: /home/travis/build/ComPWA/ComPWA/ThirdParty/EvtGen/EvtVector3C.cpp Pages: 1 -->
<svg width="440pt" height="218pt"
 viewBox="0.00 0.00 439.50 218.00" xmlns="http://www.w3.org/2000/svg" xmlns:xlink="http://www.w3.org/1999/xlink">
<g id="graph0" class="graph" transform="scale(1 1) rotate(0) translate(4 214)">
<title>/home/travis/build/ComPWA/ComPWA/ThirdParty/EvtGen/EvtVector3C.cpp</title>
<polygon fill="white" stroke="none" points="-4,4 -4,-214 435.5,-214 435.5,4 -4,4"/>
<!-- Node1 -->
<g id="node1" class="node"><title>Node1</title>
<polygon fill="#bfbfbf" stroke="black" points="106,-168.5 106,-209.5 264,-209.5 264,-168.5 106,-168.5"/>
<text text-anchor="start" x="114" y="-197.5" font-family="Helvetica,sans-Serif" font-size="10.00">/home/travis/build</text>
<text text-anchor="start" x="114" y="-186.5" font-family="Helvetica,sans-Serif" font-size="10.00">/ComPWA/ComPWA/ThirdParty</text>
<text text-anchor="middle" x="185" y="-175.5" font-family="Helvetica,sans-Serif" font-size="10.00">/EvtGen/EvtVector3C.cpp</text>
</g>
<!-- Node2 -->
<g id="node2" class="node"><title>Node2</title>
<g id="a_node2"><a xlink:href="../../df/ddd/EvtPatches_8hh.html" target="_top" xlink:title="EvtPatches.hh">
<polygon fill="white" stroke="black" points="0,-112.5 0,-131.5 84,-131.5 84,-112.5 0,-112.5"/>
<text text-anchor="middle" x="42" y="-119.5" font-family="Helvetica,sans-Serif" font-size="10.00">EvtPatches.hh</text>
</a>
</g>
</g>
<!-- Node1&#45;&gt;Node2 -->
<g id="edge1" class="edge"><title>Node1&#45;&gt;Node2</title>
<path fill="none" stroke="midnightblue" d="M142.095,-168.498C118.8,-157.909 90.6571,-145.117 70.1529,-135.797"/>
<polygon fill="midnightblue" stroke="midnightblue" points="71.5875,-132.604 61.0355,-131.652 68.6908,-138.977 71.5875,-132.604"/>
</g>
<!-- Node3 -->
<g id="node3" class="node"><title>Node3</title>
<polygon fill="white" stroke="#bfbfbf" points="70.5,-0.5 70.5,-19.5 129.5,-19.5 129.5,-0.5 70.5,-0.5"/>
<text text-anchor="middle" x="100" y="-7.5" font-family="Helvetica,sans-Serif" font-size="10.00">iostream</text>
</g>
<!-- Node1&#45;&gt;Node3 -->
<g id="edge2" class="edge"><title>Node1&#45;&gt;Node3</title>
<path fill="none" stroke="midnightblue" d="M175.415,-168.185C164.6,-145.811 146.494,-108.311 131,-76 123.407,-60.1663 114.815,-42.1411 108.605,-29.0951"/>
<polygon fill="midnightblue" stroke="midnightblue" points="111.657,-27.3634 104.2,-19.837 105.336,-30.3708 111.657,-27.3634"/>
</g>
<!-- Node4 -->
<g id="node4" class="node"><title>Node4</title>
<polygon fill="white" stroke="#bfbfbf" points="240.5,-0.5 240.5,-19.5 291.5,-19.5 291.5,-0.5 240.5,-0.5"/>
<text text-anchor="middle" x="266" y="-7.5" font-family="Helvetica,sans-Serif" font-size="10.00">math.h</text>
</g>
<!-- Node1&#45;&gt;Node4 -->
<g id="edge3" class="edge"><title>Node1&#45;&gt;Node4</title>
<path fill="none" stroke="midnightblue" d="M194.594,-168.271C205.377,-145.974 223.297,-108.542 238,-76 245.106,-60.273 252.843,-42.2374 258.379,-29.1603"/>
<polygon fill="midnightblue" stroke="midnightblue" points="261.634,-30.449 262.294,-19.8747 255.184,-27.7298 261.634,-30.449"/>
</g>
<!-- Node5 -->
<g id="node5" class="node"><title>Node5</title>
<g id="a_node5"><a xlink:href="../../d9/d51/EvtComplex_8hh.html" target="_top" xlink:title="EvtComplex.hh">
<polygon fill="white" stroke="black" points="140.5,-56.5 140.5,-75.5 229.5,-75.5 229.5,-56.5 140.5,-56.5"/>
<text text-anchor="middle" x="185" y="-63.5" font-family="Helvetica,sans-Serif" font-size="10.00">EvtComplex.hh</text>
</a>
</g>
</g>
<!-- Node1&#45;&gt;Node5 -->
<g id="edge4" class="edge"><title>Node1&#45;&gt;Node5</title>
<path fill="none" stroke="midnightblue" d="M185,-168.29C185,-145.48 185,-108.189 185,-85.7807"/>
<polygon fill="midnightblue" stroke="midnightblue" points="188.5,-85.5748 185,-75.5748 181.5,-85.5748 188.5,-85.5748"/>
</g>
<!-- Node7 -->
<g id="node7" class="node"><title>Node7</title>
<g id="a_node7"><a xlink:href="../../de/df0/EvtVector3C_8hh.html" target="_top" xlink:title="EvtVector3C.hh">
<polygon fill="white" stroke="black" points="286,-112.5 286,-131.5 376,-131.5 376,-112.5 286,-112.5"/>
<text text-anchor="middle" x="331" y="-119.5" font-family="Helvetica,sans-Serif" font-size="10.00">EvtVector3C.hh</text>
</a>
</g>
</g>
<!-- Node1&#45;&gt;Node7 -->
<g id="edge8" class="edge"><title>Node1&#45;&gt;Node7</title>
<path fill="none" stroke="midnightblue" d="M228.805,-168.498C252.588,-157.909 281.322,-145.117 302.256,-135.797"/>
<polygon fill="midnightblue" stroke="midnightblue" points="303.853,-138.917 311.565,-131.652 301.006,-132.522 303.853,-138.917"/>
</g>
<!-- Node5&#45;&gt;Node3 -->
<g id="edge5" class="edge"><title>Node5&#45;&gt;Node3</title>
<path fill="none" stroke="midnightblue" d="M171.343,-56.324C158.084,-47.9002 137.732,-34.9709 122.154,-25.0741"/>
<polygon fill="midnightblue" stroke="midnightblue" points="123.94,-22.0626 113.623,-19.6545 120.187,-27.9711 123.94,-22.0626"/>
</g>
<!-- Node5&#45;&gt;Node4 -->
<g id="edge6" class="edge"><title>Node5&#45;&gt;Node4</title>
<path fill="none" stroke="midnightblue" d="M198.014,-56.324C210.532,-47.979 229.682,-35.2122 244.471,-25.3524"/>
<polygon fill="midnightblue" stroke="midnightblue" points="246.639,-28.1137 253.018,-19.6545 242.756,-22.2894 246.639,-28.1137"/>
</g>
<!-- Node6 -->
<g id="node6" class="node"><title>Node6</title>
<g id="a_node6"><a xlink:href="../../dc/d78/EvtConst_8hh.html" target="_top" xlink:title="EvtConst.hh">
<polygon fill="white" stroke="black" points="148,-0.5 148,-19.5 222,-19.5 222,-0.5 148,-0.5"/>
<text text-anchor="middle" x="185" y="-7.5" font-family="Helvetica,sans-Serif" font-size="10.00">EvtConst.hh</text>
</a>
</g>
</g>
<!-- Node5&#45;&gt;Node6 -->
<g id="edge7" class="edge"><title>Node5&#45;&gt;Node6</title>
<path fill="none" stroke="midnightblue" d="M185,-56.083C185,-49.0059 185,-38.8611 185,-29.9865"/>
<polygon fill="midnightblue" stroke="midnightblue" points="188.5,-29.751 185,-19.7511 181.5,-29.7511 188.5,-29.751"/>
</g>
<!-- Node7&#45;&gt;Node5 -->
<g id="edge9" class="edge"><title>Node7&#45;&gt;Node5</title>
<path fill="none" stroke="midnightblue" d="M307.866,-112.444C283.518,-103.438 244.993,-89.1891 217.577,-79.049"/>
<polygon fill="midnightblue" stroke="midnightblue" points="218.619,-75.7028 208.026,-75.5164 216.191,-82.2681 218.619,-75.7028"/>
</g>
<!-- Node8 -->
<g id="node8" class="node"><title>Node8</title>
<g id="a_node8"><a xlink:href="../../dc/d30/EvtVector3R_8hh.html" target="_top" xlink:title="EvtVector3R.hh">
<polygon fill="white" stroke="black" points="342.5,-56.5 342.5,-75.5 431.5,-75.5 431.5,-56.5 342.5,-56.5"/>
<text text-anchor="middle" x="387" y="-63.5" font-family="Helvetica,sans-Serif" font-size="10.00">EvtVector3R.hh</text>
</a>
</g>
</g>
<!-- Node7&#45;&gt;Node8 -->
<g id="edge10" class="edge"><title>Node7&#45;&gt;Node8</title>
<path fill="none" stroke="midnightblue" d="M339.997,-112.324C348.194,-104.42 360.506,-92.5482 370.472,-82.9377"/>
<polygon fill="midnightblue" stroke="midnightblue" points="373.07,-85.2947 377.839,-75.8339 368.211,-80.2558 373.07,-85.2947"/>
</g>
<!-- Node9 -->
<g id="node9" class="node"><title>Node9</title>
<polygon fill="white" stroke="#bfbfbf" points="337,-0.5 337,-19.5 383,-19.5 383,-0.5 337,-0.5"/>
<text text-anchor="middle" x="360" y="-7.5" font-family="Helvetica,sans-Serif" font-size="10.00">iosfwd</text>
</g>
<!-- Node7&#45;&gt;Node9 -->
<g id="edge12" class="edge"><title>Node7&#45;&gt;Node9</title>
<path fill="none" stroke="midnightblue" d="M330.124,-112.375C329.122,-99.7213 328.283,-75.5138 334,-56 336.881,-46.1669 342.322,-36.2025 347.486,-28.1583"/>
<polygon fill="midnightblue" stroke="midnightblue" points="350.499,-29.9519 353.249,-19.7201 344.719,-26.0038 350.499,-29.9519"/>
</g>
<!-- Node8&#45;&gt;Node9 -->
<g id="edge11" class="edge"><title>Node8&#45;&gt;Node9</title>
<path fill="none" stroke="midnightblue" d="M382.541,-56.083C378.846,-48.6913 373.477,-37.9533 368.906,-28.8111"/>
<polygon fill="midnightblue" stroke="midnightblue" points="371.978,-27.1301 364.376,-19.7511 365.717,-30.2606 371.978,-27.1301"/>
</g>
</g>
</svg>
