<?xml version="1.0" encoding="UTF-8" standalone="no"?>
<!DOCTYPE svg PUBLIC "-//W3C//DTD SVG 1.1//EN"
 "http://www.w3.org/Graphics/SVG/1.1/DTD/svg11.dtd">
<!-- Generated by graphviz version 2.38.0 (20140413.2041)
 -->
<!-- Title: /home/travis/build/ComPWA/ComPWA/ThirdParty/tbb/src/tbb/tbb_main.cpp Pages: 1 -->
<svg width="879pt" height="397pt"
 viewBox="0.00 0.00 878.50 397.00" xmlns="http://www.w3.org/2000/svg" xmlns:xlink="http://www.w3.org/1999/xlink">
<g id="graph0" class="graph" transform="scale(1 1) rotate(0) translate(4 393)">
<title>/home/travis/build/ComPWA/ComPWA/ThirdParty/tbb/src/tbb/tbb_main.cpp</title>
<polygon fill="white" stroke="none" points="-4,4 -4,-393 874.5,-393 874.5,4 -4,4"/>
<!-- Node1 -->
<g id="node1" class="node"><title>Node1</title>
<polygon fill="#bfbfbf" stroke="black" points="168,-347.5 168,-388.5 326,-388.5 326,-347.5 168,-347.5"/>
<text text-anchor="start" x="176" y="-376.5" font-family="Helvetica,sans-Serif" font-size="10.00">/home/travis/build</text>
<text text-anchor="start" x="176" y="-365.5" font-family="Helvetica,sans-Serif" font-size="10.00">/ComPWA/ComPWA/ThirdParty</text>
<text text-anchor="middle" x="247" y="-354.5" font-family="Helvetica,sans-Serif" font-size="10.00">/tbb/src/tbb/tbb_main.cpp</text>
</g>
<!-- Node2 -->
<g id="node2" class="node"><title>Node2</title>
<g id="a_node2"><a xlink:href="../../d6/da0/tbb__config_8h.html" target="_top" xlink:title="tbb/tbb_config.h">
<polygon fill="white" stroke="black" points="155,-56.5 155,-75.5 249,-75.5 249,-56.5 155,-56.5"/>
<text text-anchor="middle" x="202" y="-63.5" font-family="Helvetica,sans-Serif" font-size="10.00">tbb/tbb_config.h</text>
</a>
</g>
</g>
<!-- Node1&#45;&gt;Node2 -->
<g id="edge1" class="edge"><title>Node1&#45;&gt;Node2</title>
<path fill="none" stroke="midnightblue" d="M167.828,-360.8C95.582,-350.302 0,-322.043 0,-246 0,-246 0,-246 0,-182.5 0,-115.384 85.0771,-86.7364 144.805,-74.894"/>
<polygon fill="midnightblue" stroke="midnightblue" points="145.711,-78.2853 154.895,-73.0033 144.421,-71.4051 145.711,-78.2853"/>
</g>
<!-- Node4 -->
<g id="node4" class="node"><title>Node4</title>
<g id="a_node4"><a xlink:href="../../d1/d67/global__control_8h.html" target="_top" xlink:title="tbb/global_control.h">
<polygon fill="white" stroke="black" points="759.5,-235.5 759.5,-254.5 870.5,-254.5 870.5,-235.5 759.5,-235.5"/>
<text text-anchor="middle" x="815" y="-242.5" font-family="Helvetica,sans-Serif" font-size="10.00">tbb/global_control.h</text>
</a>
</g>
</g>
<!-- Node1&#45;&gt;Node4 -->
<g id="edge3" class="edge"><title>Node1&#45;&gt;Node4</title>
<path fill="none" stroke="midnightblue" d="M326.205,-350.887C380.27,-339.826 453.505,-324.721 518,-311 605.666,-292.35 707.704,-269.843 766.479,-256.801"/>
<polygon fill="midnightblue" stroke="midnightblue" points="767.581,-260.142 776.585,-254.558 766.064,-253.308 767.581,-260.142"/>
</g>
<!-- Node6 -->
<g id="node6" class="node"><title>Node6</title>
<g id="a_node6"><a xlink:href="../../de/d07/tbb__main_8h.html" target="_top" xlink:title="tbb_main.h">
<polygon fill="white" stroke="black" points="147.5,-291.5 147.5,-310.5 218.5,-310.5 218.5,-291.5 147.5,-291.5"/>
<text text-anchor="middle" x="183" y="-298.5" font-family="Helvetica,sans-Serif" font-size="10.00">tbb_main.h</text>
</a>
</g>
</g>
<!-- Node1&#45;&gt;Node6 -->
<g id="edge7" class="edge"><title>Node1&#45;&gt;Node6</title>
<path fill="none" stroke="midnightblue" d="M227.798,-347.498C218.457,-338.011 207.375,-326.756 198.57,-317.813"/>
<polygon fill="midnightblue" stroke="midnightblue" points="201.029,-315.323 191.519,-310.652 196.041,-320.234 201.029,-315.323"/>
</g>
<!-- Node8 -->
<g id="node8" class="node"><title>Node8</title>
<g id="a_node8"><a xlink:href="../../dc/d9e/governor_8h.html" target="_top" xlink:title="governor.h">
<polygon fill="white" stroke="red" points="156,-235.5 156,-254.5 224,-254.5 224,-235.5 156,-235.5"/>
<text text-anchor="middle" x="190" y="-242.5" font-family="Helvetica,sans-Serif" font-size="10.00">governor.h</text>
</a>
</g>
</g>
<!-- Node1&#45;&gt;Node8 -->
<g id="edge16" class="edge"><title>Node1&#45;&gt;Node8</title>
<path fill="none" stroke="midnightblue" d="M244.234,-347.433C241.442,-331.57 236.194,-308.978 227,-291 221.612,-280.464 213.42,-270.159 206.113,-262.075"/>
<polygon fill="midnightblue" stroke="midnightblue" points="208.652,-259.665 199.238,-254.804 203.566,-264.475 208.652,-259.665"/>
</g>
<!-- Node10 -->
<g id="node10" class="node"><title>Node10</title>
<g id="a_node10"><a xlink:href="../../d0/d77/tbb__misc_8h.html" target="_top" xlink:title="tbb_misc.h">
<polygon fill="white" stroke="red" points="66.5,-174 66.5,-193 135.5,-193 135.5,-174 66.5,-174"/>
<text text-anchor="middle" x="101" y="-181" font-family="Helvetica,sans-Serif" font-size="10.00">tbb_misc.h</text>
</a>
</g>
</g>
<!-- Node1&#45;&gt;Node10 -->
<g id="edge26" class="edge"><title>Node1&#45;&gt;Node10</title>
<path fill="none" stroke="midnightblue" d="M188.297,-347.44C169.974,-338.804 151.142,-326.911 138,-311 111.978,-279.496 104.256,-230.391 101.965,-203.569"/>
<polygon fill="midnightblue" stroke="midnightblue" points="105.435,-202.994 101.264,-193.255 98.4507,-203.47 105.435,-202.994"/>
</g>
<!-- Node11 -->
<g id="node11" class="node"><title>Node11</title>
<g id="a_node11"><a xlink:href="../../d7/dbe/market_8h.html" target="_top" xlink:title="market.h">
<polygon fill="white" stroke="black" points="287,-235.5 287,-254.5 347,-254.5 347,-235.5 287,-235.5"/>
<text text-anchor="middle" x="317" y="-242.5" font-family="Helvetica,sans-Serif" font-size="10.00">market.h</text>
</a>
</g>
</g>
<!-- Node1&#45;&gt;Node11 -->
<g id="edge17" class="edge"><title>Node1&#45;&gt;Node11</title>
<path fill="none" stroke="midnightblue" d="M258.403,-347.29C271.901,-323.956 294.166,-285.471 307.013,-263.263"/>
<polygon fill="midnightblue" stroke="midnightblue" points="310.061,-264.983 312.039,-254.575 304.002,-261.478 310.061,-264.983"/>
</g>
<!-- Node15 -->
<g id="node15" class="node"><title>Node15</title>
<g id="a_node15"><a xlink:href="../../d0/d58/itt__notify_8h.html" target="_top" xlink:title="itt_notify.h">
<polygon fill="white" stroke="black" points="444.5,-291.5 444.5,-310.5 509.5,-310.5 509.5,-291.5 444.5,-291.5"/>
<text text-anchor="middle" x="477" y="-298.5" font-family="Helvetica,sans-Serif" font-size="10.00">itt_notify.h</text>
</a>
</g>
</g>
<!-- Node1&#45;&gt;Node15 -->
<g id="edge27" class="edge"><title>Node1&#45;&gt;Node15</title>
<path fill="none" stroke="midnightblue" d="M316.008,-347.498C355.46,-336.348 403.558,-322.755 436.854,-313.346"/>
<polygon fill="midnightblue" stroke="midnightblue" points="438.015,-316.655 446.686,-310.567 436.111,-309.919 438.015,-316.655"/>
</g>
<!-- Node3 -->
<g id="node3" class="node"><title>Node3</title>
<polygon fill="white" stroke="#bfbfbf" points="176,-0.5 176,-19.5 228,-19.5 228,-0.5 176,-0.5"/>
<text text-anchor="middle" x="202" y="-7.5" font-family="Helvetica,sans-Serif" font-size="10.00">cstddef</text>
</g>
<!-- Node2&#45;&gt;Node3 -->
<g id="edge2" class="edge"><title>Node2&#45;&gt;Node3</title>
<path fill="none" stroke="midnightblue" d="M202,-56.083C202,-49.0059 202,-38.8611 202,-29.9865"/>
<polygon fill="midnightblue" stroke="midnightblue" points="205.5,-29.751 202,-19.7511 198.5,-29.7511 205.5,-29.751"/>
</g>
<!-- Node5 -->
<g id="node5" class="node"><title>Node5</title>
<g id="a_node5"><a xlink:href="../../d2/d98/tbb__stddef_8h.html" target="_top" xlink:title="tbb_stddef.h">
<polygon fill="white" stroke="red" points="391,-112.5 391,-131.5 467,-131.5 467,-112.5 391,-112.5"/>
<text text-anchor="middle" x="429" y="-119.5" font-family="Helvetica,sans-Serif" font-size="10.00">tbb_stddef.h</text>
</a>
</g>
</g>
<!-- Node4&#45;&gt;Node5 -->
<g id="edge4" class="edge"><title>Node4&#45;&gt;Node5</title>
<path fill="none" stroke="midnightblue" d="M809.779,-235.13C799.618,-218.763 775.486,-184.025 745,-168 699.558,-144.113 554.361,-131.231 477.612,-125.936"/>
<polygon fill="midnightblue" stroke="midnightblue" points="477.467,-122.418 467.255,-125.239 476.997,-129.403 477.467,-122.418"/>
</g>
<!-- Node5&#45;&gt;Node2 -->
<g id="edge5" class="edge"><title>Node5&#45;&gt;Node2</title>
<path fill="none" stroke="midnightblue" d="M393.031,-112.444C353.681,-103.083 290.513,-88.0561 247.686,-77.868"/>
<polygon fill="midnightblue" stroke="midnightblue" points="248.339,-74.4258 237.801,-75.5164 246.719,-81.2358 248.339,-74.4258"/>
</g>
<!-- Node5&#45;&gt;Node3 -->
<g id="edge6" class="edge"><title>Node5&#45;&gt;Node3</title>
<path fill="none" stroke="midnightblue" d="M411.188,-112.368C371.571,-93.1711 275.964,-46.8418 228.98,-24.074"/>
<polygon fill="midnightblue" stroke="midnightblue" points="230.255,-20.8026 219.73,-19.5914 227.202,-27.1019 230.255,-20.8026"/>
</g>
<!-- Node7 -->
<g id="node7" class="node"><title>Node7</title>
<g id="a_node7"><a xlink:href="../../dd/d02/atomic_8h.html" target="_top" xlink:title="tbb/atomic.h">
<polygon fill="white" stroke="red" points="69.5,-112.5 69.5,-131.5 146.5,-131.5 146.5,-112.5 69.5,-112.5"/>
<text text-anchor="middle" x="108" y="-119.5" font-family="Helvetica,sans-Serif" font-size="10.00">tbb/atomic.h</text>
</a>
</g>
</g>
<!-- Node6&#45;&gt;Node7 -->
<g id="edge8" class="edge"><title>Node6&#45;&gt;Node7</title>
<path fill="none" stroke="midnightblue" d="M163.523,-291.328C134.048,-276.989 79.2023,-245.252 57,-199 51.0376,-186.579 51.3328,-180.558 57,-168 62.6159,-155.555 73.5627,-145.172 83.8792,-137.527"/>
<polygon fill="midnightblue" stroke="midnightblue" points="86.0064,-140.312 92.266,-131.764 82.0421,-134.543 86.0064,-140.312"/>
</g>
<!-- Node6&#45;&gt;Node8 -->
<g id="edge10" class="edge"><title>Node6&#45;&gt;Node8</title>
<path fill="none" stroke="midnightblue" d="M184.156,-291.083C185.084,-283.927 186.418,-273.635 187.577,-264.691"/>
<polygon fill="midnightblue" stroke="midnightblue" points="191.051,-265.118 188.866,-254.751 184.109,-264.218 191.051,-265.118"/>
</g>
<!-- Node7&#45;&gt;Node3 -->
<g id="edge9" class="edge"><title>Node7&#45;&gt;Node3</title>
<path fill="none" stroke="midnightblue" d="M111.796,-112.363C117.813,-99.2704 130.466,-74.0192 146,-56 155.896,-44.5209 169.015,-33.8003 180.067,-25.7046"/>
<polygon fill="midnightblue" stroke="midnightblue" points="182.25,-28.4472 188.387,-19.8103 178.204,-22.7353 182.25,-28.4472"/>
</g>
<!-- Node9 -->
<g id="node9" class="node"><title>Node9</title>
<g id="a_node9"><a xlink:href="../../d9/d91/rml__tbb_8h.html" target="_top" xlink:title="../rml/include/rml\l_tbb.h">
<polygon fill="white" stroke="red" points="153.5,-168.5 153.5,-198.5 250.5,-198.5 250.5,-168.5 153.5,-168.5"/>
<text text-anchor="start" x="161.5" y="-186.5" font-family="Helvetica,sans-Serif" font-size="10.00">../rml/include/rml</text>
<text text-anchor="middle" x="202" y="-175.5" font-family="Helvetica,sans-Serif" font-size="10.00">_tbb.h</text>
</a>
</g>
</g>
<!-- Node8&#45;&gt;Node9 -->
<g id="edge11" class="edge"><title>Node8&#45;&gt;Node9</title>
<path fill="none" stroke="midnightblue" d="M191.719,-235.475C193.147,-228.396 195.25,-217.97 197.182,-208.39"/>
<polygon fill="midnightblue" stroke="midnightblue" points="200.626,-209.018 199.172,-198.523 193.764,-207.634 200.626,-209.018"/>
</g>
<!-- Node8&#45;&gt;Node10 -->
<g id="edge13" class="edge"><title>Node8&#45;&gt;Node10</title>
<path fill="none" stroke="midnightblue" d="M177.248,-235.475C162.973,-225.931 139.603,-210.307 122.492,-198.868"/>
<polygon fill="midnightblue" stroke="midnightblue" points="123.986,-195.657 113.728,-193.009 120.096,-201.477 123.986,-195.657"/>
</g>
<!-- Node9&#45;&gt;Node2 -->
<g id="edge12" class="edge"><title>Node9&#45;&gt;Node2</title>
<path fill="none" stroke="midnightblue" d="M202,-168.337C202,-147.622 202,-109.016 202,-85.8991"/>
<polygon fill="midnightblue" stroke="midnightblue" points="205.5,-85.6694 202,-75.6695 198.5,-85.6695 205.5,-85.6694"/>
</g>
<!-- Node10&#45;&gt;Node5 -->
<g id="edge14" class="edge"><title>Node10&#45;&gt;Node5</title>
<path fill="none" stroke="midnightblue" d="M123.998,-173.948C130.409,-171.783 137.42,-169.617 144,-168 225.973,-147.86 323.517,-134.736 380.614,-128.118"/>
<polygon fill="midnightblue" stroke="midnightblue" points="381.253,-131.568 390.792,-126.958 380.46,-124.613 381.253,-131.568"/>
</g>
<!-- Node10&#45;&gt;Node7 -->
<g id="edge15" class="edge"><title>Node10&#45;&gt;Node7</title>
<path fill="none" stroke="midnightblue" d="M102.003,-173.975C102.991,-165.58 104.532,-152.481 105.804,-141.663"/>
<polygon fill="midnightblue" stroke="midnightblue" points="109.306,-141.85 106.999,-131.509 102.354,-141.032 109.306,-141.85"/>
</g>
<!-- Node11&#45;&gt;Node5 -->
<g id="edge18" class="edge"><title>Node11&#45;&gt;Node5</title>
<path fill="none" stroke="midnightblue" d="M316.887,-235.448C317.129,-220.203 319.7,-188.052 336,-168 348.601,-152.499 367.84,-141.968 385.557,-135.017"/>
<polygon fill="midnightblue" stroke="midnightblue" points="386.988,-138.22 395.191,-131.514 384.597,-131.642 386.988,-138.22"/>
</g>
<!-- Node11&#45;&gt;Node7 -->
<g id="edge20" class="edge"><title>Node11&#45;&gt;Node7</title>
<path fill="none" stroke="midnightblue" d="M312.727,-235.273C304.534,-219.453 285.088,-186.012 259,-168 228.43,-146.893 187.801,-135.517 156.388,-129.486"/>
<polygon fill="midnightblue" stroke="midnightblue" points="156.999,-126.04 146.537,-127.711 155.757,-132.929 156.999,-126.04"/>
</g>
<!-- Node11&#45;&gt;Node9 -->
<g id="edge23" class="edge"><title>Node11&#45;&gt;Node9</title>
<path fill="none" stroke="midnightblue" d="M300.523,-235.475C284.293,-227.078 258.964,-213.973 238.053,-203.153"/>
<polygon fill="midnightblue" stroke="midnightblue" points="239.593,-200.01 229.103,-198.523 236.377,-206.227 239.593,-200.01"/>
</g>
<!-- Node12 -->
<g id="node12" class="node"><title>Node12</title>
<g id="a_node12"><a xlink:href="../../d5/d3e/scheduler__common_8h.html" target="_top" xlink:title="scheduler_common.h">
<polygon fill="white" stroke="red" points="345,-174 345,-193 465,-193 465,-174 345,-174"/>
<text text-anchor="middle" x="405" y="-181" font-family="Helvetica,sans-Serif" font-size="10.00">scheduler_common.h</text>
</a>
</g>
</g>
<!-- Node11&#45;&gt;Node12 -->
<g id="edge19" class="edge"><title>Node11&#45;&gt;Node12</title>
<path fill="none" stroke="midnightblue" d="M329.608,-235.475C343.723,-225.931 366.831,-210.307 383.749,-198.868"/>
<polygon fill="midnightblue" stroke="midnightblue" points="386.091,-201.51 392.415,-193.009 382.171,-195.711 386.091,-201.51"/>
</g>
<!-- Node13 -->
<g id="node13" class="node"><title>Node13</title>
<g id="a_node13"><a xlink:href="../../db/d5b/spin__rw__mutex_8h.html" target="_top" xlink:title="tbb/spin_rw_mutex.h">
<polygon fill="white" stroke="red" points="483,-174 483,-193 599,-193 599,-174 483,-174"/>
<text text-anchor="middle" x="541" y="-181" font-family="Helvetica,sans-Serif" font-size="10.00">tbb/spin_rw_mutex.h</text>
</a>
</g>
</g>
<!-- Node11&#45;&gt;Node13 -->
<g id="edge21" class="edge"><title>Node11&#45;&gt;Node13</title>
<path fill="none" stroke="midnightblue" d="M347.21,-235.976C386.318,-225.587 454.681,-207.428 498.875,-195.69"/>
<polygon fill="midnightblue" stroke="midnightblue" points="499.97,-199.02 508.737,-193.07 498.173,-192.255 499.97,-199.02"/>
</g>
<!-- Node14 -->
<g id="node14" class="node"><title>Node14</title>
<g id="a_node14"><a xlink:href="../../da/d77/intrusive__list_8h.html" target="_top" xlink:title="intrusive_list.h">
<polygon fill="white" stroke="black" points="617.5,-174 617.5,-193 702.5,-193 702.5,-174 617.5,-174"/>
<text text-anchor="middle" x="660" y="-181" font-family="Helvetica,sans-Serif" font-size="10.00">intrusive_list.h</text>
</a>
</g>
</g>
<!-- Node11&#45;&gt;Node14 -->
<g id="edge24" class="edge"><title>Node11&#45;&gt;Node14</title>
<path fill="none" stroke="midnightblue" d="M347.379,-240.507C400.554,-234.125 513.808,-219.341 608,-199 612.502,-198.028 617.191,-196.895 621.831,-195.698"/>
<polygon fill="midnightblue" stroke="midnightblue" points="623.065,-198.99 631.814,-193.015 621.249,-192.23 623.065,-198.99"/>
</g>
<!-- Node13&#45;&gt;Node5 -->
<g id="edge22" class="edge"><title>Node13&#45;&gt;Node5</title>
<path fill="none" stroke="midnightblue" d="M524.953,-173.975C506.407,-164.122 475.66,-147.788 453.978,-136.27"/>
<polygon fill="midnightblue" stroke="midnightblue" points="455.49,-133.11 445.017,-131.509 452.206,-139.292 455.49,-133.11"/>
</g>
<!-- Node14&#45;&gt;Node5 -->
<g id="edge25" class="edge"><title>Node14&#45;&gt;Node5</title>
<path fill="none" stroke="midnightblue" d="M629.789,-173.935C622.654,-171.951 615.066,-169.873 608,-168 562.418,-155.917 510.089,-142.855 473.834,-133.933"/>
<polygon fill="midnightblue" stroke="midnightblue" points="474.6,-130.517 464.054,-131.531 472.93,-137.315 474.6,-130.517"/>
</g>
<!-- Node15&#45;&gt;Node5 -->
<g id="edge28" class="edge"><title>Node15&#45;&gt;Node5</title>
<path fill="none" stroke="midnightblue" d="M507.506,-291.427C565.568,-274.427 688.306,-234.973 712,-199 719.579,-187.494 720.945,-178.479 712,-168 682.409,-133.332 550.189,-125.238 477.418,-123.437"/>
<polygon fill="midnightblue" stroke="midnightblue" points="477.206,-119.932 467.132,-123.215 477.054,-126.931 477.206,-119.932"/>
</g>
</g>
</svg>
