<?xml version="1.0" encoding="UTF-8" standalone="no"?>
<!DOCTYPE svg PUBLIC "-//W3C//DTD SVG 1.1//EN"
 "http://www.w3.org/Graphics/SVG/1.1/DTD/svg11.dtd">
<!-- Generated by graphviz version 2.38.0 (20140413.2041)
 -->
<!-- Title: /home/travis/build/ComPWA/ComPWA/ThirdParty/tbb/src/tbbproxy/tbbproxy.cpp Pages: 1 -->
<!--zoomable 274 -->
<svg id="main" version="1.1" xmlns="http://www.w3.org/2000/svg" xmlns:xlink="http://www.w3.org/1999/xlink" xml:space="preserve" onload="init(evt)">
<style type="text/css"><![CDATA[
.edge:hover path { stroke: red; }
.edge:hover polygon { stroke: red; fill: red; }
]]></style>
<script type="text/javascript"><![CDATA[
var edges = document.getElementsByTagName('g');
if (edges && edges.length) {
  for (var i=0;i<edges.length;i++) {
    if (edges[i].id.substr(0,4)=='edge') {
      edges[i].setAttribute('class','edge');
    }
  }
}
]]></script>
        <defs>
                <circle id="rim" cx="0" cy="0" r="7"/>
                <circle id="rim2" cx="0" cy="0" r="3.5"/>
                <g id="zoomPlus">
                        <use xlink:href="#rim" fill="#404040">
                                <set attributeName="fill" to="#808080" begin="zoomplus.mouseover" end="zoomplus.mouseout"/>
                        </use>
                        <path d="M-4,0h8M0,-4v8" fill="none" stroke="white" stroke-width="1.5" pointer-events="none"/>
                </g>
                <g id="zoomMin">
                        <use xlink:href="#rim" fill="#404040">
                                <set attributeName="fill" to="#808080" begin="zoomminus.mouseover" end="zoomminus.mouseout"/>
                        </use>
                        <path d="M-4,0h8" fill="none" stroke="white" stroke-width="1.5" pointer-events="none"/>
                </g>
                <g id="dirArrow">
                        <path fill="none" stroke="white" stroke-width="1.5" d="M0,-3.0v7 M-2.5,-0.5L0,-3.0L2.5,-0.5"/>
                </g>
               <g id="resetDef">
                       <use xlink:href="#rim2" fill="#404040">
                               <set attributeName="fill" to="#808080" begin="reset.mouseover" end="reset.mouseout"/>
                       </use>
               </g>
        </defs>

<script type="text/javascript">
var viewWidth = 720;
var viewHeight = 274;
var sectionId = 'dynsection-0';
</script>
<script xlink:href="../../svgpan.js"/>
<svg id="graph" class="graph">
<g id="viewport">
<title>/home/travis/build/ComPWA/ComPWA/ThirdParty/tbb/src/tbbproxy/tbbproxy.cpp</title>
<polygon fill="white" stroke="none" points="-4,4 -4,-270 716,-270 716,4 -4,4"/>
<!-- Node1 -->
<g id="node1" class="node"><title>Node1</title>
<polygon fill="#bfbfbf" stroke="black" points="303.5,-224.5 303.5,-265.5 464.5,-265.5 464.5,-224.5 303.5,-224.5"/>
<text text-anchor="start" x="311.5" y="-253.5" font-family="Helvetica,sans-Serif" font-size="10.00">/home/travis/build</text>
<text text-anchor="start" x="311.5" y="-242.5" font-family="Helvetica,sans-Serif" font-size="10.00">/ComPWA/ComPWA/ThirdParty</text>
<text text-anchor="middle" x="384" y="-231.5" font-family="Helvetica,sans-Serif" font-size="10.00">/tbb/src/tbbproxy/tbbproxy.cpp</text>
</g>
<!-- Node2 -->
<g id="node2" class="node"><title>Node2</title>
<g id="a_node2"><a xlink:href="../../d6/da0/tbb__config_8h.html" target="_top" xlink:title="tbb/tbb_config.h">
<polygon fill="white" stroke="black" points="0,-56.5 0,-75.5 94,-75.5 94,-56.5 0,-56.5"/>
<text text-anchor="middle" x="47" y="-63.5" font-family="Helvetica,sans-Serif" font-size="10.00">tbb/tbb_config.h</text>
</a>
</g>
</g>
<!-- Node1&#45;&gt;Node2 -->
<g id="edge1" class="edge"><title>Node1&#45;&gt;Node2</title>
<path fill="none" stroke="midnightblue" d="M303.265,-234.905C232.192,-225.654 135.15,-209.611 103,-188 68.049,-164.506 54.4923,-113.293 49.5734,-85.6251"/>
<polygon fill="midnightblue" stroke="midnightblue" points="53.0173,-84.9949 47.9988,-75.664 46.1032,-86.0879 53.0173,-84.9949"/>
</g>
<!-- Node4 -->
<g id="node4" class="node"><title>Node4</title>
<g id="a_node4"><a xlink:href="../../da/d07/runtime__loader_8h.html" target="_top" xlink:title="tbb/runtime_loader.h">
<polygon fill="white" stroke="black" points="124,-168.5 124,-187.5 240,-187.5 240,-168.5 124,-168.5"/>
<text text-anchor="middle" x="182" y="-175.5" font-family="Helvetica,sans-Serif" font-size="10.00">tbb/runtime_loader.h</text>
</a>
</g>
</g>
<!-- Node1&#45;&gt;Node4 -->
<g id="edge3" class="edge"><title>Node1&#45;&gt;Node4</title>
<path fill="none" stroke="midnightblue" d="M323.393,-224.498C289.192,-213.493 247.592,-200.106 218.4,-190.713"/>
<polygon fill="midnightblue" stroke="midnightblue" points="219.215,-187.299 208.624,-187.567 217.071,-193.962 219.215,-187.299"/>
</g>
<!-- Node5 -->
<g id="node5" class="node"><title>Node5</title>
<g id="a_node5"><a xlink:href="../../d2/d98/tbb__stddef_8h.html" target="_top" xlink:title="tbb_stddef.h">
<polygon fill="white" stroke="red" points="75,-112.5 75,-131.5 151,-131.5 151,-112.5 75,-112.5"/>
<text text-anchor="middle" x="113" y="-119.5" font-family="Helvetica,sans-Serif" font-size="10.00">tbb_stddef.h</text>
</a>
</g>
</g>
<!-- Node1&#45;&gt;Node5 -->
<g id="edge8" class="edge"><title>Node1&#45;&gt;Node5</title>
<path fill="none" stroke="midnightblue" d="M303.201,-238.021C232.969,-230.969 138.841,-216.411 115,-188 104.359,-175.319 105.251,-155.841 107.956,-141.512"/>
<polygon fill="midnightblue" stroke="midnightblue" points="111.369,-142.288 110.217,-131.756 104.55,-140.708 111.369,-142.288"/>
</g>
<!-- Node7 -->
<g id="node7" class="node"><title>Node7</title>
<polygon fill="white" stroke="#bfbfbf" points="258,-168.5 258,-187.5 306,-187.5 306,-168.5 258,-168.5"/>
<text text-anchor="middle" x="282" y="-175.5" font-family="Helvetica,sans-Serif" font-size="10.00">cctype</text>
</g>
<!-- Node1&#45;&gt;Node7 -->
<g id="edge9" class="edge"><title>Node1&#45;&gt;Node7</title>
<path fill="none" stroke="midnightblue" d="M353.397,-224.498C337.608,-214.436 318.696,-202.385 304.304,-193.214"/>
<polygon fill="midnightblue" stroke="midnightblue" points="305.892,-190.075 295.578,-187.652 302.13,-195.978 305.892,-190.075"/>
</g>
<!-- Node8 -->
<g id="node8" class="node"><title>Node8</title>
<polygon fill="white" stroke="#bfbfbf" points="324.5,-168.5 324.5,-187.5 377.5,-187.5 377.5,-168.5 324.5,-168.5"/>
<text text-anchor="middle" x="351" y="-175.5" font-family="Helvetica,sans-Serif" font-size="10.00">cstdarg</text>
</g>
<!-- Node1&#45;&gt;Node8 -->
<g id="edge10" class="edge"><title>Node1&#45;&gt;Node8</title>
<path fill="none" stroke="midnightblue" d="M374.099,-224.498C369.623,-215.682 364.372,-205.339 360.008,-196.743"/>
<polygon fill="midnightblue" stroke="midnightblue" points="363.041,-194.985 355.393,-187.652 356.799,-198.154 363.041,-194.985"/>
</g>
<!-- Node9 -->
<g id="node9" class="node"><title>Node9</title>
<polygon fill="white" stroke="#bfbfbf" points="395.5,-168.5 395.5,-187.5 440.5,-187.5 440.5,-168.5 395.5,-168.5"/>
<text text-anchor="middle" x="418" y="-175.5" font-family="Helvetica,sans-Serif" font-size="10.00">cstdio</text>
</g>
<!-- Node1&#45;&gt;Node9 -->
<g id="edge11" class="edge"><title>Node1&#45;&gt;Node9</title>
<path fill="none" stroke="midnightblue" d="M394.201,-224.498C398.812,-215.682 404.223,-205.339 408.719,-196.743"/>
<polygon fill="midnightblue" stroke="midnightblue" points="411.94,-198.136 413.474,-187.652 405.738,-194.891 411.94,-198.136"/>
</g>
<!-- Node10 -->
<g id="node10" class="node"><title>Node10</title>
<polygon fill="white" stroke="#bfbfbf" points="458.5,-168.5 458.5,-187.5 505.5,-187.5 505.5,-168.5 458.5,-168.5"/>
<text text-anchor="middle" x="482" y="-175.5" font-family="Helvetica,sans-Serif" font-size="10.00">cstdlib</text>
</g>
<!-- Node1&#45;&gt;Node10 -->
<g id="edge12" class="edge"><title>Node1&#45;&gt;Node10</title>
<path fill="none" stroke="midnightblue" d="M413.403,-224.498C428.573,-214.436 446.743,-202.385 460.57,-193.214"/>
<polygon fill="midnightblue" stroke="midnightblue" points="462.556,-196.097 468.955,-187.652 458.687,-190.263 462.556,-196.097"/>
</g>
<!-- Node11 -->
<g id="node11" class="node"><title>Node11</title>
<polygon fill="white" stroke="#bfbfbf" points="523.5,-168.5 523.5,-187.5 572.5,-187.5 572.5,-168.5 523.5,-168.5"/>
<text text-anchor="middle" x="548" y="-175.5" font-family="Helvetica,sans-Serif" font-size="10.00">cstring</text>
</g>
<!-- Node1&#45;&gt;Node11 -->
<g id="edge13" class="edge"><title>Node1&#45;&gt;Node11</title>
<path fill="none" stroke="midnightblue" d="M433.205,-224.498C460.284,-213.766 493.075,-200.769 516.666,-191.419"/>
<polygon fill="midnightblue" stroke="midnightblue" points="518.162,-194.591 526.169,-187.652 515.583,-188.083 518.162,-194.591"/>
</g>
<!-- Node12 -->
<g id="node12" class="node"><title>Node12</title>
<polygon fill="white" stroke="#bfbfbf" points="590.5,-168.5 590.5,-187.5 645.5,-187.5 645.5,-168.5 590.5,-168.5"/>
<text text-anchor="middle" x="618" y="-175.5" font-family="Helvetica,sans-Serif" font-size="10.00">typeinfo</text>
</g>
<!-- Node1&#45;&gt;Node12 -->
<g id="edge14" class="edge"><title>Node1&#45;&gt;Node12</title>
<path fill="none" stroke="midnightblue" d="M454.208,-224.498C495.688,-212.976 546.563,-198.844 580.502,-189.416"/>
<polygon fill="midnightblue" stroke="midnightblue" points="581.764,-192.698 590.462,-186.649 579.89,-185.954 581.764,-192.698"/>
</g>
<!-- Node13 -->
<g id="node13" class="node"><title>Node13</title>
<polygon fill="white" stroke="#bfbfbf" points="664,-168.5 664,-187.5 712,-187.5 712,-168.5 664,-168.5"/>
<text text-anchor="middle" x="688" y="-175.5" font-family="Helvetica,sans-Serif" font-size="10.00">dlfcn.h</text>
</g>
<!-- Node1&#45;&gt;Node13 -->
<g id="edge15" class="edge"><title>Node1&#45;&gt;Node13</title>
<path fill="none" stroke="midnightblue" d="M464.63,-228.709C516.251,-218.598 584.851,-204.571 654.118,-188.101"/>
<polygon fill="midnightblue" stroke="midnightblue" points="654.984,-191.493 663.894,-185.761 653.354,-184.685 654.984,-191.493"/>
</g>
<!-- Node3 -->
<g id="node3" class="node"><title>Node3</title>
<polygon fill="white" stroke="#bfbfbf" points="58,-0.5 58,-19.5 110,-19.5 110,-0.5 58,-0.5"/>
<text text-anchor="middle" x="84" y="-7.5" font-family="Helvetica,sans-Serif" font-size="10.00">cstddef</text>
</g>
<!-- Node2&#45;&gt;Node3 -->
<g id="edge2" class="edge"><title>Node2&#45;&gt;Node3</title>
<path fill="none" stroke="midnightblue" d="M53.1098,-56.083C58.2822,-48.5341 65.8461,-37.4948 72.1944,-28.2298"/>
<polygon fill="midnightblue" stroke="midnightblue" points="75.2388,-29.9787 78.0039,-19.7511 69.4643,-26.0221 75.2388,-29.9787"/>
</g>
<!-- Node4&#45;&gt;Node5 -->
<g id="edge4" class="edge"><title>Node4&#45;&gt;Node5</title>
<path fill="none" stroke="midnightblue" d="M170.914,-168.324C160.514,-160.185 144.739,-147.839 132.278,-138.087"/>
<polygon fill="midnightblue" stroke="midnightblue" points="134.32,-135.241 124.288,-131.834 130.006,-140.753 134.32,-135.241"/>
</g>
<!-- Node6 -->
<g id="node6" class="node"><title>Node6</title>
<polygon fill="white" stroke="#bfbfbf" points="169.5,-112.5 169.5,-131.5 216.5,-131.5 216.5,-112.5 169.5,-112.5"/>
<text text-anchor="middle" x="193" y="-119.5" font-family="Helvetica,sans-Serif" font-size="10.00">climits</text>
</g>
<!-- Node4&#45;&gt;Node6 -->
<g id="edge7" class="edge"><title>Node4&#45;&gt;Node6</title>
<path fill="none" stroke="midnightblue" d="M183.816,-168.083C185.274,-160.927 187.371,-150.635 189.193,-141.691"/>
<polygon fill="midnightblue" stroke="midnightblue" points="192.651,-142.248 191.217,-131.751 185.792,-140.851 192.651,-142.248"/>
</g>
<!-- Node5&#45;&gt;Node2 -->
<g id="edge5" class="edge"><title>Node5&#45;&gt;Node2</title>
<path fill="none" stroke="midnightblue" d="M102.396,-112.324C92.5438,-104.263 77.6491,-92.0765 65.7849,-82.3695"/>
<polygon fill="midnightblue" stroke="midnightblue" points="67.7529,-79.4575 57.797,-75.8339 63.3202,-84.8752 67.7529,-79.4575"/>
</g>
<!-- Node5&#45;&gt;Node3 -->
<g id="edge6" class="edge"><title>Node5&#45;&gt;Node3</title>
<path fill="none" stroke="midnightblue" d="M112.36,-112.443C111.27,-99.8754 108.602,-75.7732 103,-56 100.399,-46.8209 96.4152,-37.019 92.7657,-28.9144"/>
<polygon fill="midnightblue" stroke="midnightblue" points="95.8713,-27.2936 88.4514,-19.7308 89.5357,-30.27 95.8713,-27.2936"/>
</g>
</g>
</svg>
        <g id="navigator" transform="translate(0 0)" fill="#404254">
                <rect fill="#f2f5e9" fill-opacity="0.5" stroke="#606060" stroke-width=".5" x="0" y="0" width="60" height="60"/>
                <use id="zoomplus" xlink:href="#zoomPlus" x="17" y="9" onmousedown="handleZoom(evt,'in')"/>
                <use id="zoomminus" xlink:href="#zoomMin" x="42" y="9" onmousedown="handleZoom(evt,'out')"/>
                <use id="reset" xlink:href="#resetDef" x="30" y="36" onmousedown="handleReset()"/>
                <g id="arrowUp" xlink:href="#dirArrow" transform="translate(30 24)" onmousedown="handlePan(0,-1)">
                  <use xlink:href="#rim" fill="#404040">
                        <set attributeName="fill" to="#808080" begin="arrowUp.mouseover" end="arrowUp.mouseout"/>
                  </use>
                  <path fill="none" stroke="white" stroke-width="1.5" d="M0,-3.0v7 M-2.5,-0.5L0,-3.0L2.5,-0.5"/>
                </g>
                <g id="arrowRight" xlink:href="#dirArrow" transform="rotate(90) translate(36 -43)" onmousedown="handlePan(1,0)">
                  <use xlink:href="#rim" fill="#404040">
                        <set attributeName="fill" to="#808080" begin="arrowRight.mouseover" end="arrowRight.mouseout"/>
                  </use>
                  <path fill="none" stroke="white" stroke-width="1.5" d="M0,-3.0v7 M-2.5,-0.5L0,-3.0L2.5,-0.5"/>
                </g>
                <g id="arrowDown" xlink:href="#dirArrow" transform="rotate(180) translate(-30 -48)" onmousedown="handlePan(0,1)">
                  <use xlink:href="#rim" fill="#404040">
                        <set attributeName="fill" to="#808080" begin="arrowDown.mouseover" end="arrowDown.mouseout"/>
                  </use>
                  <path fill="none" stroke="white" stroke-width="1.5" d="M0,-3.0v7 M-2.5,-0.5L0,-3.0L2.5,-0.5"/>
                </g>
                <g id="arrowLeft" xlink:href="#dirArrow" transform="rotate(270) translate(-36 17)" onmousedown="handlePan(-1,0)">
                  <use xlink:href="#rim" fill="#404040">
                        <set attributeName="fill" to="#808080" begin="arrowLeft.mouseover" end="arrowLeft.mouseout"/>
                  </use>
                  <path fill="none" stroke="white" stroke-width="1.5" d="M0,-3.0v7 M-2.5,-0.5L0,-3.0L2.5,-0.5"/>
                </g>
        </g>
        <svg viewBox="0 0 15 15" width="100%" height="30px" preserveAspectRatio="xMaxYMin meet">
         <g id="arrow_out" transform="scale(0.3 0.3)">
          <a xlink:href="tbbproxy_8cpp__incl_org.svg" target="_base">
           <rect id="button" ry="5" rx="5" y="6" x="6" height="38" width="38"
                fill="#f2f5e9" fill-opacity="0.5" stroke="#606060" stroke-width="1.0"/>
           <path id="arrow"
             d="M 11.500037,31.436501 C 11.940474,20.09759 22.043105,11.32322 32.158766,21.979434 L 37.068811,17.246167 C 37.068811,17.246167 37.088388,32 37.088388,32 L 22.160133,31.978069 C 22.160133,31.978069 26.997745,27.140456 26.997745,27.140456 C 18.528582,18.264221 13.291696,25.230495 11.500037,31.436501 z"
             style="fill:#404040;"/>
          </a>
         </g>
        </svg>
</svg>
