<?xml version="1.0" encoding="UTF-8" standalone="no"?>
<!DOCTYPE svg PUBLIC "-//W3C//DTD SVG 1.1//EN"
 "http://www.w3.org/Graphics/SVG/1.1/DTD/svg11.dtd">
<!-- Generated by graphviz version 2.38.0 (20140413.2041)
 -->
<!-- Title: /home/travis/build/ComPWA/ComPWA/Data/Root/test/RootDataIOTest.cpp Pages: 1 -->
<svg width="1143pt" height="285pt"
 viewBox="0.00 0.00 1142.50 285.00" xmlns="http://www.w3.org/2000/svg" xmlns:xlink="http://www.w3.org/1999/xlink">
<g id="graph0" class="graph" transform="scale(1 1) rotate(0) translate(4 281)">
<title>/home/travis/build/ComPWA/ComPWA/Data/Root/test/RootDataIOTest.cpp</title>
<polygon fill="white" stroke="none" points="-4,4 -4,-281 1138.5,-281 1138.5,4 -4,4"/>
<!-- Node1 -->
<g id="node1" class="node"><title>Node1</title>
<polygon fill="#bfbfbf" stroke="black" points="263.5,-235.5 263.5,-276.5 421.5,-276.5 421.5,-235.5 263.5,-235.5"/>
<text text-anchor="start" x="271.5" y="-264.5" font-family="Helvetica,sans-Serif" font-size="10.00">/home/travis/build</text>
<text text-anchor="start" x="271.5" y="-253.5" font-family="Helvetica,sans-Serif" font-size="10.00">/ComPWA/ComPWA/Data</text>
<text text-anchor="middle" x="342.5" y="-242.5" font-family="Helvetica,sans-Serif" font-size="10.00">/Root/test/RootDataIOTest.cpp</text>
</g>
<!-- Node2 -->
<g id="node2" class="node"><title>Node2</title>
<g id="a_node2"><a xlink:href="../../da/d7f/RootDataIO_8hpp.html" target="_top" xlink:title="Data/Root/RootDataIO.hpp">
<polygon fill="white" stroke="black" points="371,-118 371,-137 512,-137 512,-118 371,-118"/>
<text text-anchor="middle" x="441.5" y="-125" font-family="Helvetica,sans-Serif" font-size="10.00">Data/Root/RootDataIO.hpp</text>
</a>
</g>
</g>
<!-- Node1&#45;&gt;Node2 -->
<g id="edge1" class="edge"><title>Node1&#45;&gt;Node2</title>
<path fill="none" stroke="midnightblue" d="M357.969,-235.234C377.354,-210.464 410.235,-168.449 428.424,-145.208"/>
<polygon fill="midnightblue" stroke="midnightblue" points="431.21,-147.327 434.617,-137.295 425.698,-143.013 431.21,-147.327"/>
</g>
<!-- Node3 -->
<g id="node3" class="node"><title>Node3</title>
<polygon fill="white" stroke="#bfbfbf" points="0,-56.5 0,-75.5 57,-75.5 57,-56.5 0,-56.5"/>
<text text-anchor="middle" x="28.5" y="-63.5" font-family="Helvetica,sans-Serif" font-size="10.00">memory</text>
</g>
<!-- Node1&#45;&gt;Node3 -->
<g id="edge30" class="edge"><title>Node1&#45;&gt;Node3</title>
<path fill="none" stroke="midnightblue" d="M263.313,-249.032C207.208,-242.384 131.398,-228.389 70.5,-199 35.5478,-182.132 19.9355,-178.157 3.5,-143 -5.64603,-123.436 5.54,-99.601 15.7341,-83.9005"/>
<polygon fill="midnightblue" stroke="midnightblue" points="18.6107,-85.8943 21.4605,-75.6899 12.8692,-81.8899 18.6107,-85.8943"/>
</g>
<!-- Node4 -->
<g id="node4" class="node"><title>Node4</title>
<polygon fill="white" stroke="#bfbfbf" points="320.5,-56.5 320.5,-75.5 364.5,-75.5 364.5,-56.5 320.5,-56.5"/>
<text text-anchor="middle" x="342.5" y="-63.5" font-family="Helvetica,sans-Serif" font-size="10.00">string</text>
</g>
<!-- Node1&#45;&gt;Node4 -->
<g id="edge31" class="edge"><title>Node1&#45;&gt;Node4</title>
<path fill="none" stroke="midnightblue" d="M342.5,-235.236C342.5,-198.827 342.5,-121.623 342.5,-85.8835"/>
<polygon fill="midnightblue" stroke="midnightblue" points="346,-85.8409 342.5,-75.8409 339,-85.841 346,-85.8409"/>
</g>
<!-- Node7 -->
<g id="node7" class="node"><title>Node7</title>
<g id="a_node7"><a xlink:href="../../da/db4/Logging_8hpp.html" target="_top" xlink:title="Core/Logging.hpp">
<polygon fill="white" stroke="black" points="80,-179.5 80,-198.5 181,-198.5 181,-179.5 80,-179.5"/>
<text text-anchor="middle" x="130.5" y="-186.5" font-family="Helvetica,sans-Serif" font-size="10.00">Core/Logging.hpp</text>
</a>
</g>
</g>
<!-- Node1&#45;&gt;Node7 -->
<g id="edge6" class="edge"><title>Node1&#45;&gt;Node7</title>
<path fill="none" stroke="midnightblue" d="M278.893,-235.498C242.842,-224.444 198.958,-210.99 168.301,-201.59"/>
<polygon fill="midnightblue" stroke="midnightblue" points="169.029,-198.152 158.442,-198.567 166.977,-204.845 169.029,-198.152"/>
</g>
<!-- Node10 -->
<g id="node10" class="node"><title>Node10</title>
<g id="a_node10"><a xlink:href="../../d1/dd5/Generate_8hpp.html" target="_top" xlink:title="Some useful functions for Monte&#45;Carlo event generation. ">
<polygon fill="white" stroke="black" points="205,-179.5 205,-198.5 314,-198.5 314,-179.5 205,-179.5"/>
<text text-anchor="middle" x="259.5" y="-186.5" font-family="Helvetica,sans-Serif" font-size="10.00">Data/Generate.hpp</text>
</a>
</g>
</g>
<!-- Node1&#45;&gt;Node10 -->
<g id="edge12" class="edge"><title>Node1&#45;&gt;Node10</title>
<path fill="none" stroke="midnightblue" d="M317.597,-235.498C305.117,-225.724 290.238,-214.072 278.662,-205.007"/>
<polygon fill="midnightblue" stroke="midnightblue" points="280.58,-202.063 270.549,-198.652 276.264,-207.574 280.58,-202.063"/>
</g>
<!-- Node12 -->
<g id="node12" class="node"><title>Node12</title>
<g id="a_node12"><a xlink:href="../../d7/ded/RootGenerator_8hpp.html" target="_top" xlink:title="Data/Root/RootGenerator.hpp">
<polygon fill="white" stroke="black" points="576,-179.5 576,-198.5 733,-198.5 733,-179.5 576,-179.5"/>
<text text-anchor="middle" x="654.5" y="-186.5" font-family="Helvetica,sans-Serif" font-size="10.00">Data/Root/RootGenerator.hpp</text>
</a>
</g>
</g>
<!-- Node1&#45;&gt;Node12 -->
<g id="edge18" class="edge"><title>Node1&#45;&gt;Node12</title>
<path fill="none" stroke="midnightblue" d="M421.634,-238.514C478.89,-226.585 554.564,-210.82 603.869,-200.548"/>
<polygon fill="midnightblue" stroke="midnightblue" points="604.594,-203.972 613.67,-198.506 603.166,-197.12 604.594,-203.972"/>
</g>
<!-- Node17 -->
<g id="node17" class="node"><title>Node17</title>
<polygon fill="white" stroke="#bfbfbf" points="751,-179.5 751,-198.5 882,-198.5 882,-179.5 751,-179.5"/>
<text text-anchor="middle" x="816.5" y="-186.5" font-family="Helvetica,sans-Serif" font-size="10.00">boost/test/unit_test.hpp</text>
</g>
<!-- Node1&#45;&gt;Node17 -->
<g id="edge29" class="edge"><title>Node1&#45;&gt;Node17</title>
<path fill="none" stroke="midnightblue" d="M421.57,-244.157C511.515,-231.823 657.157,-211.851 744.192,-199.916"/>
<polygon fill="midnightblue" stroke="midnightblue" points="744.815,-203.363 754.247,-198.537 743.864,-196.428 744.815,-203.363"/>
</g>
<!-- Node2&#45;&gt;Node3 -->
<g id="edge2" class="edge"><title>Node2&#45;&gt;Node3</title>
<path fill="none" stroke="midnightblue" d="M382.327,-117.975C296.442,-105.602 139.61,-83.0074 67.1244,-72.5645"/>
<polygon fill="midnightblue" stroke="midnightblue" points="67.4572,-69.0764 57.0603,-71.1146 66.459,-76.0049 67.4572,-69.0764"/>
</g>
<!-- Node2&#45;&gt;Node4 -->
<g id="edge3" class="edge"><title>Node2&#45;&gt;Node4</title>
<path fill="none" stroke="midnightblue" d="M427.316,-117.975C411.142,-108.255 384.474,-92.2266 365.357,-80.7372"/>
<polygon fill="midnightblue" stroke="midnightblue" points="367.032,-77.6606 356.658,-75.5091 363.426,-83.6603 367.032,-77.6606"/>
</g>
<!-- Node5 -->
<g id="node5" class="node"><title>Node5</title>
<g id="a_node5"><a xlink:href="../../df/d7d/Event_8hpp.html" target="_top" xlink:title="Core/Event.hpp">
<polygon fill="white" stroke="red" points="666.5,-56.5 666.5,-75.5 756.5,-75.5 756.5,-56.5 666.5,-56.5"/>
<text text-anchor="middle" x="711.5" y="-63.5" font-family="Helvetica,sans-Serif" font-size="10.00">Core/Event.hpp</text>
</a>
</g>
</g>
<!-- Node2&#45;&gt;Node5 -->
<g id="edge4" class="edge"><title>Node2&#45;&gt;Node5</title>
<path fill="none" stroke="midnightblue" d="M480.184,-117.975C528.303,-107.371 610.487,-89.2602 662.835,-77.7244"/>
<polygon fill="midnightblue" stroke="midnightblue" points="663.875,-81.0792 672.887,-75.5091 662.368,-74.2432 663.875,-81.0792"/>
</g>
<!-- Node6 -->
<g id="node6" class="node"><title>Node6</title>
<polygon fill="white" stroke="#bfbfbf" points="688,-0.5 688,-19.5 735,-19.5 735,-0.5 688,-0.5"/>
<text text-anchor="middle" x="711.5" y="-7.5" font-family="Helvetica,sans-Serif" font-size="10.00">vector</text>
</g>
<!-- Node5&#45;&gt;Node6 -->
<g id="edge5" class="edge"><title>Node5&#45;&gt;Node6</title>
<path fill="none" stroke="midnightblue" d="M711.5,-56.083C711.5,-49.0059 711.5,-38.8611 711.5,-29.9865"/>
<polygon fill="midnightblue" stroke="midnightblue" points="715,-29.751 711.5,-19.7511 708,-29.7511 715,-29.751"/>
</g>
<!-- Node8 -->
<g id="node8" class="node"><title>Node8</title>
<g id="a_node8"><a xlink:href="../../d8/d1b/easylogging_09_09_8h.html" target="_top" xlink:title="ThirdParty/easyloggingpp\l/easylogging++.h">
<polygon fill="white" stroke="red" points="56.5,-112.5 56.5,-142.5 192.5,-142.5 192.5,-112.5 56.5,-112.5"/>
<text text-anchor="start" x="64.5" y="-130.5" font-family="Helvetica,sans-Serif" font-size="10.00">ThirdParty/easyloggingpp</text>
<text text-anchor="middle" x="124.5" y="-119.5" font-family="Helvetica,sans-Serif" font-size="10.00">/easylogging++.h</text>
</a>
</g>
</g>
<!-- Node7&#45;&gt;Node8 -->
<g id="edge7" class="edge"><title>Node7&#45;&gt;Node8</title>
<path fill="none" stroke="midnightblue" d="M129.64,-179.475C128.934,-172.471 127.898,-162.192 126.94,-152.696"/>
<polygon fill="midnightblue" stroke="midnightblue" points="130.4,-152.121 125.914,-142.523 123.435,-152.824 130.4,-152.121"/>
</g>
<!-- Node8&#45;&gt;Node3 -->
<g id="edge11" class="edge"><title>Node8&#45;&gt;Node3</title>
<path fill="none" stroke="midnightblue" d="M101.749,-112.399C86.5051,-102.951 66.5109,-90.5589 51.2639,-81.1089"/>
<polygon fill="midnightblue" stroke="midnightblue" points="52.8125,-77.951 42.4689,-75.6578 49.1248,-83.9009 52.8125,-77.951"/>
</g>
<!-- Node8&#45;&gt;Node4 -->
<g id="edge8" class="edge"><title>Node8&#45;&gt;Node4</title>
<path fill="none" stroke="midnightblue" d="M175.887,-112.475C217.59,-101.092 275.084,-85.4003 310.472,-75.7416"/>
<polygon fill="midnightblue" stroke="midnightblue" points="311.544,-79.0772 320.269,-73.0676 309.7,-72.3242 311.544,-79.0772"/>
</g>
<!-- Node8&#45;&gt;Node6 -->
<g id="edge9" class="edge"><title>Node8&#45;&gt;Node6</title>
<path fill="none" stroke="midnightblue" d="M150.163,-112.487C181.561,-96.0395 236.807,-69.3216 287.5,-56 428.803,-18.8672 604.249,-12.2432 677.201,-11.1568"/>
<polygon fill="midnightblue" stroke="midnightblue" points="677.651,-14.6517 687.607,-11.0299 677.565,-7.65217 677.651,-14.6517"/>
</g>
<!-- Node9 -->
<g id="node9" class="node"><title>Node9</title>
<polygon fill="white" stroke="#bfbfbf" points="487.5,-56.5 487.5,-75.5 543.5,-75.5 543.5,-56.5 487.5,-56.5"/>
<text text-anchor="middle" x="515.5" y="-63.5" font-family="Helvetica,sans-Serif" font-size="10.00">sstream</text>
</g>
<!-- Node8&#45;&gt;Node9 -->
<g id="edge10" class="edge"><title>Node8&#45;&gt;Node9</title>
<path fill="none" stroke="midnightblue" d="M192.906,-113.457C195.808,-112.955 198.682,-112.467 201.5,-112 300.674,-95.5639 418.065,-79.6876 477.271,-71.9295"/>
<polygon fill="midnightblue" stroke="midnightblue" points="477.827,-75.3867 487.289,-70.6215 476.92,-68.4456 477.827,-75.3867"/>
</g>
<!-- Node10&#45;&gt;Node3 -->
<g id="edge13" class="edge"><title>Node10&#45;&gt;Node3</title>
<path fill="none" stroke="midnightblue" d="M204.76,-179.751C134.43,-168.891 20.5983,-150.32 14.5,-143 0.860949,-126.628 9.53478,-101.317 18.0847,-84.4606"/>
<polygon fill="midnightblue" stroke="midnightblue" points="21.1812,-86.0932 22.9348,-75.6444 15.048,-82.719 21.1812,-86.0932"/>
</g>
<!-- Node10&#45;&gt;Node5 -->
<g id="edge14" class="edge"><title>Node10&#45;&gt;Node5</title>
<path fill="none" stroke="midnightblue" d="M314.019,-184.752C400.102,-179.021 563.207,-165.536 616.5,-143 648.89,-129.303 679.334,-101.274 696.661,-83.3501"/>
<polygon fill="midnightblue" stroke="midnightblue" points="699.355,-85.5946 703.66,-75.9135 694.257,-80.7973 699.355,-85.5946"/>
</g>
<!-- Node11 -->
<g id="node11" class="node"><title>Node11</title>
<g id="a_node11"><a xlink:href="../../d4/d59/Function_8hpp.html" target="_top" xlink:title="Core/Function.hpp">
<polygon fill="white" stroke="black" points="211,-118 211,-137 314,-137 314,-118 211,-118"/>
<text text-anchor="middle" x="262.5" y="-125" font-family="Helvetica,sans-Serif" font-size="10.00">Core/Function.hpp</text>
</a>
</g>
</g>
<!-- Node10&#45;&gt;Node11 -->
<g id="edge15" class="edge"><title>Node10&#45;&gt;Node11</title>
<path fill="none" stroke="midnightblue" d="M259.93,-179.475C260.353,-171.08 261.014,-157.981 261.559,-147.163"/>
<polygon fill="midnightblue" stroke="midnightblue" points="265.063,-147.173 262.071,-137.009 258.072,-146.82 265.063,-147.173"/>
</g>
<!-- Node11&#45;&gt;Node4 -->
<g id="edge16" class="edge"><title>Node11&#45;&gt;Node4</title>
<path fill="none" stroke="midnightblue" d="M273.962,-117.975C286.675,-108.52 307.413,-93.0961 322.753,-81.6871"/>
<polygon fill="midnightblue" stroke="midnightblue" points="325.124,-84.2854 331.059,-75.5091 320.946,-78.6686 325.124,-84.2854"/>
</g>
<!-- Node11&#45;&gt;Node6 -->
<g id="edge17" class="edge"><title>Node11&#45;&gt;Node6</title>
<path fill="none" stroke="midnightblue" d="M265.741,-117.751C271.967,-102.314 287.176,-70.5052 311.5,-56 373.088,-19.273 592.99,-12.5115 677.801,-11.2741"/>
<polygon fill="midnightblue" stroke="midnightblue" points="677.965,-14.7724 687.919,-11.1438 677.875,-7.77298 677.965,-14.7724"/>
</g>
<!-- Node12&#45;&gt;Node3 -->
<g id="edge19" class="edge"><title>Node12&#45;&gt;Node3</title>
<path fill="none" stroke="midnightblue" d="M575.809,-184.602C416.127,-177.374 67.4039,-159.762 47.5,-143 31.1152,-129.202 27.6996,-103.615 27.4969,-85.9676"/>
<polygon fill="midnightblue" stroke="midnightblue" points="31.0015,-85.7961 27.7237,-75.7211 24.0032,-85.6412 31.0015,-85.7961"/>
</g>
<!-- Node12&#45;&gt;Node4 -->
<g id="edge21" class="edge"><title>Node12&#45;&gt;Node4</title>
<path fill="none" stroke="midnightblue" d="M652.838,-179.275C649.277,-163.15 639.303,-128.8 616.5,-112 578.619,-84.0915 439.192,-72.5798 375.108,-68.6863"/>
<polygon fill="midnightblue" stroke="midnightblue" points="374.963,-65.172 364.777,-68.0853 374.556,-72.1602 374.963,-65.172"/>
</g>
<!-- Node12&#45;&gt;Node6 -->
<g id="edge22" class="edge"><title>Node12&#45;&gt;Node6</title>
<path fill="none" stroke="midnightblue" d="M733.341,-179.549C825.798,-169.255 967.572,-152.117 975.5,-143 1044.9,-63.1927 830.801,-26.2712 745.217,-14.9587"/>
<polygon fill="midnightblue" stroke="midnightblue" points="745.573,-11.4757 735.209,-13.6756 744.683,-18.4189 745.573,-11.4757"/>
</g>
<!-- Node12&#45;&gt;Node9 -->
<g id="edge20" class="edge"><title>Node12&#45;&gt;Node9</title>
<path fill="none" stroke="midnightblue" d="M656.731,-179.419C660.158,-164.128 664.829,-131.905 649.5,-112 627.034,-82.8276 584.873,-72.393 553.82,-68.7528"/>
<polygon fill="midnightblue" stroke="midnightblue" points="554.055,-65.259 543.76,-67.7615 553.368,-72.2253 554.055,-65.259"/>
</g>
<!-- Node13 -->
<g id="node13" class="node"><title>Node13</title>
<polygon fill="white" stroke="#bfbfbf" points="740,-118 740,-137 837,-137 837,-118 740,-118"/>
<text text-anchor="middle" x="788.5" y="-125" font-family="Helvetica,sans-Serif" font-size="10.00">TLorentzVector.h</text>
</g>
<!-- Node12&#45;&gt;Node13 -->
<g id="edge23" class="edge"><title>Node12&#45;&gt;Node13</title>
<path fill="none" stroke="midnightblue" d="M673.699,-179.475C696.287,-169.445 733.999,-152.7 760.001,-141.155"/>
<polygon fill="midnightblue" stroke="midnightblue" points="761.618,-144.266 769.337,-137.009 758.777,-137.869 761.618,-144.266"/>
</g>
<!-- Node14 -->
<g id="node14" class="node"><title>Node14</title>
<polygon fill="white" stroke="#bfbfbf" points="530,-118 530,-137 607,-137 607,-118 530,-118"/>
<text text-anchor="middle" x="568.5" y="-125" font-family="Helvetica,sans-Serif" font-size="10.00">TRandom3.h</text>
</g>
<!-- Node12&#45;&gt;Node14 -->
<g id="edge24" class="edge"><title>Node12&#45;&gt;Node14</title>
<path fill="none" stroke="midnightblue" d="M642.178,-179.475C628.384,-169.931 605.801,-154.307 589.268,-142.868"/>
<polygon fill="midnightblue" stroke="midnightblue" points="591.014,-139.82 580.799,-137.009 587.031,-145.577 591.014,-139.82"/>
</g>
<!-- Node15 -->
<g id="node15" class="node"><title>Node15</title>
<g id="a_node15"><a xlink:href="../../df/d33/Generator_8hpp.html" target="_top" xlink:title="Core/Generator.hpp">
<polygon fill="white" stroke="red" points="855,-118 855,-137 966,-137 966,-118 855,-118"/>
<text text-anchor="middle" x="910.5" y="-125" font-family="Helvetica,sans-Serif" font-size="10.00">Core/Generator.hpp</text>
</a>
</g>
</g>
<!-- Node12&#45;&gt;Node15 -->
<g id="edge25" class="edge"><title>Node12&#45;&gt;Node15</title>
<path fill="none" stroke="midnightblue" d="M691.179,-179.475C736.707,-168.893 814.4,-150.836 864.047,-139.297"/>
<polygon fill="midnightblue" stroke="midnightblue" points="864.941,-142.682 873.889,-137.009 863.357,-135.864 864.941,-142.682"/>
</g>
<!-- Node16 -->
<g id="node16" class="node"><title>Node16</title>
<g id="a_node16"><a xlink:href="../../dc/ded/Properties_8hpp.html" target="_top" xlink:title="Core/Properties.hpp">
<polygon fill="white" stroke="red" points="1022.5,-56.5 1022.5,-75.5 1134.5,-75.5 1134.5,-56.5 1022.5,-56.5"/>
<text text-anchor="middle" x="1078.5" y="-63.5" font-family="Helvetica,sans-Serif" font-size="10.00">Core/Properties.hpp</text>
</a>
</g>
</g>
<!-- Node12&#45;&gt;Node16 -->
<g id="edge27" class="edge"><title>Node12&#45;&gt;Node16</title>
<path fill="none" stroke="midnightblue" d="M732.201,-179.49C832.684,-168.284 996.354,-149.269 1008.5,-143 1034.56,-129.549 1055.89,-102.279 1067.9,-84.3282"/>
<polygon fill="midnightblue" stroke="midnightblue" points="1070.84,-86.2185 1073.3,-75.9132 1064.95,-82.4351 1070.84,-86.2185"/>
</g>
<!-- Node15&#45;&gt;Node5 -->
<g id="edge26" class="edge"><title>Node15&#45;&gt;Node5</title>
<path fill="none" stroke="midnightblue" d="M881.988,-117.975C847.262,-107.592 788.463,-90.0116 749.808,-78.4538"/>
<polygon fill="midnightblue" stroke="midnightblue" points="750.543,-75.0205 739.959,-75.5091 748.537,-81.7271 750.543,-75.0205"/>
</g>
<!-- Node16&#45;&gt;Node6 -->
<g id="edge28" class="edge"><title>Node16&#45;&gt;Node6</title>
<path fill="none" stroke="midnightblue" d="M1022.36,-56.7398C945.106,-45.3726 808.422,-25.261 745.248,-15.9657"/>
<polygon fill="midnightblue" stroke="midnightblue" points="745.451,-12.4579 735.048,-14.4648 744.432,-19.3834 745.451,-12.4579"/>
</g>
</g>
</svg>
