<?xml version="1.0" encoding="UTF-8" standalone="no"?>
<!DOCTYPE svg PUBLIC "-//W3C//DTD SVG 1.1//EN"
 "http://www.w3.org/Graphics/SVG/1.1/DTD/svg11.dtd">
<!-- Generated by graphviz version 2.38.0 (20140413.2041)
 -->
<!-- Title: arena_body Pages: 1 -->
<svg width="326pt" height="474pt"
 viewBox="0.00 0.00 326.00 474.00" xmlns="http://www.w3.org/2000/svg" xmlns:xlink="http://www.w3.org/1999/xlink">
<g id="graph0" class="graph" transform="scale(1 1) rotate(0) translate(4 470)">
<title>arena_body</title>
<polygon fill="white" stroke="none" points="-4,4 -4,-470 322,-470 322,4 -4,4"/>
<!-- Node1 -->
<g id="node1" class="node"><title>Node1</title>
<polygon fill="#bfbfbf" stroke="black" points="128,-0.5 128,-68.5 220,-68.5 220,-0.5 128,-0.5"/>
<text text-anchor="middle" x="174" y="-56.5" font-family="Helvetica,sans-Serif" font-size="10.00">arena_body</text>
<polyline fill="none" stroke="black" points="128,-49.5 220,-49.5 "/>
<text text-anchor="middle" x="174" y="-37.5" font-family="Helvetica,sans-Serif" font-size="10.00"> </text>
<polyline fill="none" stroke="black" points="128,-30.5 220,-30.5 "/>
<text text-anchor="start" x="136" y="-18.5" font-family="Helvetica,sans-Serif" font-size="10.00">+ arena_body()</text>
<text text-anchor="start" x="136" y="-7.5" font-family="Helvetica,sans-Serif" font-size="10.00">+ operator()()</text>
</g>
<!-- Node2 -->
<g id="node2" class="node"><title>Node2</title>
<g id="a_node2"><a xlink:href="../../da/de8/classtask__group__body.html" target="_top" xlink:title="{task_group_body\n||+ task_group_body()\l+ operator()()\l}">
<polygon fill="white" stroke="black" points="32.5,-127.5 32.5,-195.5 149.5,-195.5 149.5,-127.5 32.5,-127.5"/>
<text text-anchor="middle" x="91" y="-183.5" font-family="Helvetica,sans-Serif" font-size="10.00">task_group_body</text>
<polyline fill="none" stroke="black" points="32.5,-176.5 149.5,-176.5 "/>
<text text-anchor="middle" x="91" y="-164.5" font-family="Helvetica,sans-Serif" font-size="10.00"> </text>
<polyline fill="none" stroke="black" points="32.5,-157.5 149.5,-157.5 "/>
<text text-anchor="start" x="40.5" y="-145.5" font-family="Helvetica,sans-Serif" font-size="10.00">+ task_group_body()</text>
<text text-anchor="start" x="40.5" y="-134.5" font-family="Helvetica,sans-Serif" font-size="10.00">+ operator()()</text>
</a>
</g>
</g>
<!-- Node2&#45;&gt;Node1 -->
<g id="edge1" class="edge"><title>Node2&#45;&gt;Node1</title>
<path fill="none" stroke="#404040" d="M113.025,-127.33C122.874,-112.498 134.615,-94.8143 145.153,-78.9438"/>
<polygon fill="none" stroke="#404040" points="145.235,-78.8214 145.221,-71.6103 151.873,-68.8245 151.886,-76.0356 145.235,-78.8214"/>
<text text-anchor="middle" x="161" y="-90" font-family="Helvetica,sans-Serif" font-size="10.00"> &#45;tg_body</text>
</g>
<!-- Node3 -->
<g id="node3" class="node"><title>Node3</title>
<g id="a_node3"><a xlink:href="../../d7/d60/classfractal__group.html" target="_top" xlink:title="The group of fractals. ">
<polygon fill="white" stroke="red" points="0,-254.5 0,-465.5 160,-465.5 160,-254.5 0,-254.5"/>
<text text-anchor="middle" x="80" y="-453.5" font-family="Helvetica,sans-Serif" font-size="10.00">fractal_group</text>
<polyline fill="none" stroke="red" points="0,-446.5 160,-446.5 "/>
<text text-anchor="start" x="8" y="-434.5" font-family="Helvetica,sans-Serif" font-size="10.00">&#45; context</text>
<text text-anchor="start" x="8" y="-423.5" font-family="Helvetica,sans-Serif" font-size="10.00">&#45; num_threads</text>
<text text-anchor="start" x="8" y="-412.5" font-family="Helvetica,sans-Serif" font-size="10.00">&#45; active</text>
<polyline fill="none" stroke="red" points="0,-405.5 160,-405.5 "/>
<text text-anchor="start" x="8" y="-393.5" font-family="Helvetica,sans-Serif" font-size="10.00">+ fractal_group()</text>
<text text-anchor="start" x="8" y="-382.5" font-family="Helvetica,sans-Serif" font-size="10.00">+ run()</text>
<text text-anchor="start" x="8" y="-371.5" font-family="Helvetica,sans-Serif" font-size="10.00">+ mouse_click()</text>
<text text-anchor="start" x="8" y="-360.5" font-family="Helvetica,sans-Serif" font-size="10.00">+ calc_fractal()</text>
<text text-anchor="start" x="8" y="-349.5" font-family="Helvetica,sans-Serif" font-size="10.00">+ get_num_threads()</text>
<text text-anchor="start" x="8" y="-338.5" font-family="Helvetica,sans-Serif" font-size="10.00">+ set_num_frames_at_least()</text>
<text text-anchor="start" x="8" y="-327.5" font-family="Helvetica,sans-Serif" font-size="10.00">+ switch_priorities()</text>
<text text-anchor="start" x="8" y="-316.5" font-family="Helvetica,sans-Serif" font-size="10.00">+ get_active_fractal()</text>
<text text-anchor="start" x="8" y="-305.5" font-family="Helvetica,sans-Serif" font-size="10.00">+ active_fractal_zoom_in()</text>
<text text-anchor="start" x="8" y="-294.5" font-family="Helvetica,sans-Serif" font-size="10.00">+ active_fractal_zoom_out()</text>
<text text-anchor="start" x="8" y="-283.5" font-family="Helvetica,sans-Serif" font-size="10.00">and 6 more...</text>
<text text-anchor="start" x="8" y="-272.5" font-family="Helvetica,sans-Serif" font-size="10.00">&#45; draw_borders()</text>
<text text-anchor="start" x="8" y="-261.5" font-family="Helvetica,sans-Serif" font-size="10.00">&#45; set_priorities()</text>
</a>
</g>
</g>
<!-- Node3&#45;&gt;Node2 -->
<g id="edge2" class="edge"><title>Node3&#45;&gt;Node2</title>
<path fill="none" stroke="#404040" d="M85.8543,-254.421C86.7656,-238.141 87.664,-222.094 88.4486,-208.077"/>
<polygon fill="none" stroke="#404040" points="88.4636,-207.808 84.8052,-201.594 89.1344,-195.827 92.7927,-202.041 88.4636,-207.808"/>
<text text-anchor="middle" x="96" y="-228" font-family="Helvetica,sans-Serif" font-size="10.00"> &#45;fg</text>
</g>
<!-- Node4 -->
<g id="node4" class="node"><title>Node4</title>
<g id="a_node4"><a xlink:href="../../d3/d3b/classtbb_1_1task__group.html" target="_top" xlink:title="{tbb::task_group\n||+ task_group()\l+ run()\l+ run_and_wait()\l+ run_and_wait()\l}">
<polygon fill="white" stroke="black" points="189,-116.5 189,-206.5 287,-206.5 287,-116.5 189,-116.5"/>
<text text-anchor="middle" x="238" y="-194.5" font-family="Helvetica,sans-Serif" font-size="10.00">tbb::task_group</text>
<polyline fill="none" stroke="black" points="189,-187.5 287,-187.5 "/>
<text text-anchor="middle" x="238" y="-175.5" font-family="Helvetica,sans-Serif" font-size="10.00"> </text>
<polyline fill="none" stroke="black" points="189,-168.5 287,-168.5 "/>
<text text-anchor="start" x="197" y="-156.5" font-family="Helvetica,sans-Serif" font-size="10.00">+ task_group()</text>
<text text-anchor="start" x="197" y="-145.5" font-family="Helvetica,sans-Serif" font-size="10.00">+ run()</text>
<text text-anchor="start" x="197" y="-134.5" font-family="Helvetica,sans-Serif" font-size="10.00">+ run_and_wait()</text>
<text text-anchor="start" x="197" y="-123.5" font-family="Helvetica,sans-Serif" font-size="10.00">+ run_and_wait()</text>
</a>
</g>
</g>
<!-- Node4&#45;&gt;Node1 -->
<g id="edge3" class="edge"><title>Node4&#45;&gt;Node1</title>
<path fill="none" stroke="#404040" d="M215.436,-116.43C209.264,-104.375 202.578,-91.3158 196.414,-79.2776"/>
<polygon fill="none" stroke="#404040" points="196.399,-79.2485 190.104,-75.7308 190.93,-68.5672 197.225,-72.0849 196.399,-79.2485"/>
<text text-anchor="middle" x="236.5" y="-90" font-family="Helvetica,sans-Serif" font-size="10.00"> &#45;task_group</text>
</g>
<!-- Node5 -->
<g id="node5" class="node"><title>Node5</title>
<g id="a_node5"><a xlink:href="../../dc/de6/classtbb_1_1internal_1_1task__group__base.html" target="_top" xlink:title="{tbb::internal::task\l_group_base\n|# my_root\l# my_context\l|+ task_group_base()\l+ ~task_group_base()\l+ run()\l+ wait()\l+ is_canceling()\l+ cancel()\l# owner()\l# internal_run_and_wait()\l# internal_run()\l}">
<polygon fill="white" stroke="red" points="178,-276.5 178,-443.5 318,-443.5 318,-276.5 178,-276.5"/>
<text text-anchor="start" x="186" y="-431.5" font-family="Helvetica,sans-Serif" font-size="10.00">tbb::internal::task</text>
<text text-anchor="middle" x="248" y="-420.5" font-family="Helvetica,sans-Serif" font-size="10.00">_group_base</text>
<polyline fill="none" stroke="red" points="178,-413.5 318,-413.5 "/>
<text text-anchor="start" x="186" y="-401.5" font-family="Helvetica,sans-Serif" font-size="10.00"># my_root</text>
<text text-anchor="start" x="186" y="-390.5" font-family="Helvetica,sans-Serif" font-size="10.00"># my_context</text>
<polyline fill="none" stroke="red" points="178,-383.5 318,-383.5 "/>
<text text-anchor="start" x="186" y="-371.5" font-family="Helvetica,sans-Serif" font-size="10.00">+ task_group_base()</text>
<text text-anchor="start" x="186" y="-360.5" font-family="Helvetica,sans-Serif" font-size="10.00">+ ~task_group_base()</text>
<text text-anchor="start" x="186" y="-349.5" font-family="Helvetica,sans-Serif" font-size="10.00">+ run()</text>
<text text-anchor="start" x="186" y="-338.5" font-family="Helvetica,sans-Serif" font-size="10.00">+ wait()</text>
<text text-anchor="start" x="186" y="-327.5" font-family="Helvetica,sans-Serif" font-size="10.00">+ is_canceling()</text>
<text text-anchor="start" x="186" y="-316.5" font-family="Helvetica,sans-Serif" font-size="10.00">+ cancel()</text>
<text text-anchor="start" x="186" y="-305.5" font-family="Helvetica,sans-Serif" font-size="10.00"># owner()</text>
<text text-anchor="start" x="186" y="-294.5" font-family="Helvetica,sans-Serif" font-size="10.00"># internal_run_and_wait()</text>
<text text-anchor="start" x="186" y="-283.5" font-family="Helvetica,sans-Serif" font-size="10.00"># internal_run()</text>
</a>
</g>
</g>
<!-- Node5&#45;&gt;Node4 -->
<g id="edge4" class="edge"><title>Node5&#45;&gt;Node4</title>
<path fill="none" stroke="midnightblue" d="M243.272,-266.089C242.215,-245.334 241.143,-224.26 240.244,-206.587"/>
<polygon fill="none" stroke="midnightblue" points="239.784,-266.427 243.788,-276.236 246.775,-266.071 239.784,-266.427"/>
</g>
</g>
</svg>
