<?xml version="1.0" encoding="UTF-8" standalone="no"?>
<!DOCTYPE svg PUBLIC "-//W3C//DTD SVG 1.1//EN"
 "http://www.w3.org/Graphics/SVG/1.1/DTD/svg11.dtd">
<!-- Generated by graphviz version 2.38.0 (20140413.2041)
 -->
<!-- Title: /home/travis/build/ComPWA/ComPWA/ThirdParty/tbb/examples/parallel_for/tachyon/src/util.cpp Pages: 1 -->
<svg width="749pt" height="229pt"
 viewBox="0.00 0.00 748.50 229.00" xmlns="http://www.w3.org/2000/svg" xmlns:xlink="http://www.w3.org/1999/xlink">
<g id="graph0" class="graph" transform="scale(1 1) rotate(0) translate(4 225)">
<title>/home/travis/build/ComPWA/ComPWA/ThirdParty/tbb/examples/parallel_for/tachyon/src/util.cpp</title>
<polygon fill="white" stroke="none" points="-4,4 -4,-225 744.5,-225 744.5,4 -4,4"/>
<!-- Node1 -->
<g id="node1" class="node"><title>Node1</title>
<polygon fill="#bfbfbf" stroke="black" points="367.5,-168.5 367.5,-220.5 525.5,-220.5 525.5,-168.5 367.5,-168.5"/>
<text text-anchor="start" x="375.5" y="-208.5" font-family="Helvetica,sans-Serif" font-size="10.00">/home/travis/build</text>
<text text-anchor="start" x="375.5" y="-197.5" font-family="Helvetica,sans-Serif" font-size="10.00">/ComPWA/ComPWA/ThirdParty</text>
<text text-anchor="start" x="375.5" y="-186.5" font-family="Helvetica,sans-Serif" font-size="10.00">/tbb/examples/parallel_for</text>
<text text-anchor="middle" x="446.5" y="-175.5" font-family="Helvetica,sans-Serif" font-size="10.00">/tachyon/src/util.cpp</text>
</g>
<!-- Node2 -->
<g id="node2" class="node"><title>Node2</title>
<g id="a_node2"><a xlink:href="../../da/d8f/machine_8h.html" target="_top" xlink:title="machine.h">
<polygon fill="white" stroke="black" points="195,-56.5 195,-75.5 262,-75.5 262,-56.5 195,-56.5"/>
<text text-anchor="middle" x="228.5" y="-63.5" font-family="Helvetica,sans-Serif" font-size="10.00">machine.h</text>
</a>
</g>
</g>
<!-- Node1&#45;&gt;Node2 -->
<g id="edge1" class="edge"><title>Node1&#45;&gt;Node2</title>
<path fill="none" stroke="midnightblue" d="M378.145,-168.379C354.393,-158.444 328.068,-146.029 305.5,-132 282.685,-117.817 259.535,-97.2606 244.661,-83.0807"/>
<polygon fill="midnightblue" stroke="midnightblue" points="246.917,-80.3933 237.304,-75.94 242.042,-85.4163 246.917,-80.3933"/>
</g>
<!-- Node10 -->
<g id="node10" class="node"><title>Node10</title>
<g id="a_node10"><a xlink:href="../../d9/d49/types_8h.html" target="_top" xlink:title="types.h">
<polygon fill="white" stroke="black" points="420.5,-112.5 420.5,-131.5 472.5,-131.5 472.5,-112.5 420.5,-112.5"/>
<text text-anchor="middle" x="446.5" y="-119.5" font-family="Helvetica,sans-Serif" font-size="10.00">types.h</text>
</a>
</g>
</g>
<!-- Node1&#45;&gt;Node10 -->
<g id="edge9" class="edge"><title>Node1&#45;&gt;Node10</title>
<path fill="none" stroke="midnightblue" d="M446.5,-168.446C446.5,-159.73 446.5,-150.104 446.5,-141.964"/>
<polygon fill="midnightblue" stroke="midnightblue" points="450,-141.695 446.5,-131.695 443,-141.696 450,-141.695"/>
</g>
<!-- Node12 -->
<g id="node12" class="node"><title>Node12</title>
<g id="a_node12"><a xlink:href="../../de/d3c/macros_8h.html" target="_top" xlink:title="macros.h">
<polygon fill="white" stroke="black" points="490.5,-112.5 490.5,-131.5 552.5,-131.5 552.5,-112.5 490.5,-112.5"/>
<text text-anchor="middle" x="521.5" y="-119.5" font-family="Helvetica,sans-Serif" font-size="10.00">macros.h</text>
</a>
</g>
</g>
<!-- Node1&#45;&gt;Node12 -->
<g id="edge11" class="edge"><title>Node1&#45;&gt;Node12</title>
<path fill="none" stroke="midnightblue" d="M473.153,-168.446C483.704,-158.528 495.509,-147.432 504.812,-138.687"/>
<polygon fill="midnightblue" stroke="midnightblue" points="507.36,-141.095 512.249,-131.695 502.566,-135.994 507.36,-141.095"/>
</g>
<!-- Node13 -->
<g id="node13" class="node"><title>Node13</title>
<g id="a_node13"><a xlink:href="../../d8/d3c/util_8h.html" target="_top" xlink:title="util.h">
<polygon fill="white" stroke="black" points="324.5,-112.5 324.5,-131.5 364.5,-131.5 364.5,-112.5 324.5,-112.5"/>
<text text-anchor="middle" x="344.5" y="-119.5" font-family="Helvetica,sans-Serif" font-size="10.00">util.h</text>
</a>
</g>
</g>
<!-- Node1&#45;&gt;Node13 -->
<g id="edge12" class="edge"><title>Node1&#45;&gt;Node13</title>
<path fill="none" stroke="midnightblue" d="M410.251,-168.446C395.322,-158.127 378.548,-146.533 365.679,-137.638"/>
<polygon fill="midnightblue" stroke="midnightblue" points="367.297,-134.502 357.081,-131.695 363.317,-140.261 367.297,-134.502"/>
</g>
<!-- Node14 -->
<g id="node14" class="node"><title>Node14</title>
<polygon fill="white" stroke="#bfbfbf" points="280.5,-56.5 280.5,-75.5 346.5,-75.5 346.5,-56.5 280.5,-56.5"/>
<text text-anchor="middle" x="313.5" y="-63.5" font-family="Helvetica,sans-Serif" font-size="10.00">sys/time.h</text>
</g>
<!-- Node1&#45;&gt;Node14 -->
<g id="edge19" class="edge"><title>Node1&#45;&gt;Node14</title>
<path fill="none" stroke="midnightblue" d="M367.324,-172.834C347.134,-163.667 327.71,-150.583 315.5,-132 306.597,-118.45 307.053,-99.6471 309.17,-85.7493"/>
<polygon fill="midnightblue" stroke="midnightblue" points="312.622,-86.3305 311.076,-75.849 305.748,-85.0067 312.622,-86.3305"/>
</g>
<!-- Node15 -->
<g id="node15" class="node"><title>Node15</title>
<polygon fill="white" stroke="#bfbfbf" points="365,-56.5 365,-75.5 420,-75.5 420,-56.5 365,-56.5"/>
<text text-anchor="middle" x="392.5" y="-63.5" font-family="Helvetica,sans-Serif" font-size="10.00">unistd.h</text>
</g>
<!-- Node1&#45;&gt;Node15 -->
<g id="edge20" class="edge"><title>Node1&#45;&gt;Node15</title>
<path fill="none" stroke="midnightblue" d="M430.479,-168.447C423.977,-157.547 416.773,-144.442 411.5,-132 405.048,-116.778 399.951,-98.6654 396.668,-85.4315"/>
<polygon fill="midnightblue" stroke="midnightblue" points="400.057,-84.5566 394.346,-75.633 393.246,-86.1706 400.057,-84.5566"/>
</g>
<!-- Node16 -->
<g id="node16" class="node"><title>Node16</title>
<g id="a_node16"><a xlink:href="../../dd/dd3/light_8h.html" target="_top" xlink:title="light.h">
<polygon fill="white" stroke="black" points="570.5,-112.5 570.5,-131.5 616.5,-131.5 616.5,-112.5 570.5,-112.5"/>
<text text-anchor="middle" x="593.5" y="-119.5" font-family="Helvetica,sans-Serif" font-size="10.00">light.h</text>
</a>
</g>
</g>
<!-- Node1&#45;&gt;Node16 -->
<g id="edge16" class="edge"><title>Node1&#45;&gt;Node16</title>
<path fill="none" stroke="midnightblue" d="M498.741,-168.446C521.65,-157.459 547.574,-145.026 566.509,-135.945"/>
<polygon fill="midnightblue" stroke="midnightblue" points="568.217,-139.007 575.72,-131.527 565.19,-132.696 568.217,-139.007"/>
</g>
<!-- Node17 -->
<g id="node17" class="node"><title>Node17</title>
<g id="a_node17"><a xlink:href="../../d2/d49/global_8h.html" target="_top" xlink:title="global.h">
<polygon fill="white" stroke="black" points="634.5,-112.5 634.5,-131.5 688.5,-131.5 688.5,-112.5 634.5,-112.5"/>
<text text-anchor="middle" x="661.5" y="-119.5" font-family="Helvetica,sans-Serif" font-size="10.00">global.h</text>
</a>
</g>
</g>
<!-- Node1&#45;&gt;Node17 -->
<g id="edge17" class="edge"><title>Node1&#45;&gt;Node17</title>
<path fill="none" stroke="midnightblue" d="M522.906,-168.446C557.95,-156.955 597.817,-143.882 625.768,-134.717"/>
<polygon fill="midnightblue" stroke="midnightblue" points="627.084,-137.969 635.496,-131.527 624.903,-131.317 627.084,-137.969"/>
</g>
<!-- Node18 -->
<g id="node18" class="node"><title>Node18</title>
<g id="a_node18"><a xlink:href="../../d9/d3b/ui_8h.html" target="_top" xlink:title="ui.h">
<polygon fill="white" stroke="black" points="706.5,-112.5 706.5,-131.5 740.5,-131.5 740.5,-112.5 706.5,-112.5"/>
<text text-anchor="middle" x="723.5" y="-119.5" font-family="Helvetica,sans-Serif" font-size="10.00">ui.h</text>
</a>
</g>
</g>
<!-- Node1&#45;&gt;Node18 -->
<g id="edge18" class="edge"><title>Node1&#45;&gt;Node18</title>
<path fill="none" stroke="midnightblue" d="M525.574,-176.111C572.82,-165.256 634.147,-150.355 696.604,-132.071"/>
<polygon fill="midnightblue" stroke="midnightblue" points="697.631,-135.418 706.23,-129.229 695.648,-128.704 697.631,-135.418"/>
</g>
<!-- Node3 -->
<g id="node3" class="node"><title>Node3</title>
<polygon fill="white" stroke="#bfbfbf" points="0,-0.5 0,-19.5 49,-19.5 49,-0.5 0,-0.5"/>
<text text-anchor="middle" x="24.5" y="-7.5" font-family="Helvetica,sans-Serif" font-size="10.00">stdio.h</text>
</g>
<!-- Node2&#45;&gt;Node3 -->
<g id="edge2" class="edge"><title>Node2&#45;&gt;Node3</title>
<path fill="none" stroke="midnightblue" d="M195.695,-56.46C163.272,-47.999 111.993,-34.5627 58.927,-20.3669"/>
<polygon fill="midnightblue" stroke="midnightblue" points="59.5668,-16.9149 49.0017,-17.7084 57.7557,-23.6766 59.5668,-16.9149"/>
</g>
<!-- Node4 -->
<g id="node4" class="node"><title>Node4</title>
<polygon fill="white" stroke="#bfbfbf" points="67,-0.5 67,-19.5 114,-19.5 114,-0.5 67,-0.5"/>
<text text-anchor="middle" x="90.5" y="-7.5" font-family="Helvetica,sans-Serif" font-size="10.00">cstdlib</text>
</g>
<!-- Node2&#45;&gt;Node4 -->
<g id="edge3" class="edge"><title>Node2&#45;&gt;Node4</title>
<path fill="none" stroke="midnightblue" d="M206.633,-56.4435C183.721,-47.4776 147.525,-33.314 121.634,-23.1827"/>
<polygon fill="midnightblue" stroke="midnightblue" points="122.852,-19.9011 112.264,-19.5164 120.301,-26.4198 122.852,-19.9011"/>
</g>
<!-- Node5 -->
<g id="node5" class="node"><title>Node5</title>
<polygon fill="white" stroke="#bfbfbf" points="132,-0.5 132,-19.5 185,-19.5 185,-0.5 132,-0.5"/>
<text text-anchor="middle" x="158.5" y="-7.5" font-family="Helvetica,sans-Serif" font-size="10.00">string.h</text>
</g>
<!-- Node2&#45;&gt;Node5 -->
<g id="edge4" class="edge"><title>Node2&#45;&gt;Node5</title>
<path fill="none" stroke="midnightblue" d="M217.253,-56.324C206.703,-48.1849 190.699,-35.8395 178.058,-26.0874"/>
<polygon fill="midnightblue" stroke="midnightblue" points="180.007,-23.1707 169.951,-19.8339 175.731,-28.7132 180.007,-23.1707"/>
</g>
<!-- Node6 -->
<g id="node6" class="node"><title>Node6</title>
<polygon fill="white" stroke="#bfbfbf" points="203,-0.5 203,-19.5 254,-19.5 254,-0.5 203,-0.5"/>
<text text-anchor="middle" x="228.5" y="-7.5" font-family="Helvetica,sans-Serif" font-size="10.00">math.h</text>
</g>
<!-- Node2&#45;&gt;Node6 -->
<g id="edge5" class="edge"><title>Node2&#45;&gt;Node6</title>
<path fill="none" stroke="midnightblue" d="M228.5,-56.083C228.5,-49.0059 228.5,-38.8611 228.5,-29.9865"/>
<polygon fill="midnightblue" stroke="midnightblue" points="232,-29.751 228.5,-19.7511 225,-29.7511 232,-29.751"/>
</g>
<!-- Node7 -->
<g id="node7" class="node"><title>Node7</title>
<polygon fill="white" stroke="#bfbfbf" points="272,-0.5 272,-19.5 343,-19.5 343,-0.5 272,-0.5"/>
<text text-anchor="middle" x="307.5" y="-7.5" font-family="Helvetica,sans-Serif" font-size="10.00">sys/types.h</text>
</g>
<!-- Node2&#45;&gt;Node7 -->
<g id="edge6" class="edge"><title>Node2&#45;&gt;Node7</title>
<path fill="none" stroke="midnightblue" d="M241.193,-56.324C253.401,-47.979 272.078,-35.2122 286.503,-25.3524"/>
<polygon fill="midnightblue" stroke="midnightblue" points="288.558,-28.1871 294.839,-19.6545 284.608,-22.4082 288.558,-28.1871"/>
</g>
<!-- Node8 -->
<g id="node8" class="node"><title>Node8</title>
<polygon fill="white" stroke="#bfbfbf" points="361,-0.5 361,-19.5 424,-19.5 424,-0.5 361,-0.5"/>
<text text-anchor="middle" x="392.5" y="-7.5" font-family="Helvetica,sans-Serif" font-size="10.00">sys/stat.h</text>
</g>
<!-- Node2&#45;&gt;Node8 -->
<g id="edge7" class="edge"><title>Node2&#45;&gt;Node8</title>
<path fill="none" stroke="midnightblue" d="M254.486,-56.4435C282.196,-47.3196 326.252,-32.8133 357.116,-22.6509"/>
<polygon fill="midnightblue" stroke="midnightblue" points="358.232,-25.9684 366.635,-19.5164 356.042,-19.3196 358.232,-25.9684"/>
</g>
<!-- Node9 -->
<g id="node9" class="node"><title>Node9</title>
<polygon fill="white" stroke="#bfbfbf" points="442.5,-0.5 442.5,-19.5 488.5,-19.5 488.5,-0.5 442.5,-0.5"/>
<text text-anchor="middle" x="465.5" y="-7.5" font-family="Helvetica,sans-Serif" font-size="10.00">fcntl.h</text>
</g>
<!-- Node2&#45;&gt;Node9 -->
<g id="edge8" class="edge"><title>Node2&#45;&gt;Node9</title>
<path fill="none" stroke="midnightblue" d="M262.155,-57.7864C311.358,-47.2045 400.543,-27.8773 432.5,-20 432.601,-19.9751 432.702,-19.9502 432.803,-19.9251"/>
<polygon fill="midnightblue" stroke="midnightblue" points="433.647,-23.3221 442.459,-17.4391 431.902,-16.5431 433.647,-23.3221"/>
</g>
<!-- Node11 -->
<g id="node11" class="node"><title>Node11</title>
<polygon fill="white" stroke="#bfbfbf" points="438,-56.5 438,-75.5 491,-75.5 491,-56.5 438,-56.5"/>
<text text-anchor="middle" x="464.5" y="-63.5" font-family="Helvetica,sans-Serif" font-size="10.00">alloca.h</text>
</g>
<!-- Node10&#45;&gt;Node11 -->
<g id="edge10" class="edge"><title>Node10&#45;&gt;Node11</title>
<path fill="none" stroke="midnightblue" d="M449.472,-112.083C451.884,-104.849 455.364,-94.4087 458.368,-85.3968"/>
<polygon fill="midnightblue" stroke="midnightblue" points="461.741,-86.3447 461.583,-75.7511 455.1,-84.1311 461.741,-86.3447"/>
</g>
<!-- Node13&#45;&gt;Node2 -->
<g id="edge13" class="edge"><title>Node13&#45;&gt;Node2</title>
<path fill="none" stroke="midnightblue" d="M326.119,-112.444C307.284,-103.675 277.769,-89.9355 256.121,-79.8579"/>
<polygon fill="midnightblue" stroke="midnightblue" points="257.338,-76.5637 246.795,-75.5164 254.383,-82.9098 257.338,-76.5637"/>
</g>
<!-- Node13&#45;&gt;Node14 -->
<g id="edge14" class="edge"><title>Node13&#45;&gt;Node14</title>
<path fill="none" stroke="midnightblue" d="M339.381,-112.083C335.092,-104.613 328.842,-93.7244 323.558,-84.5199"/>
<polygon fill="midnightblue" stroke="midnightblue" points="326.538,-82.6811 318.524,-75.7511 320.467,-86.1662 326.538,-82.6811"/>
</g>
<!-- Node13&#45;&gt;Node15 -->
<g id="edge15" class="edge"><title>Node13&#45;&gt;Node15</title>
<path fill="none" stroke="midnightblue" d="M352.426,-112.083C359.346,-104.298 369.565,-92.8015 377.952,-83.3665"/>
<polygon fill="midnightblue" stroke="midnightblue" points="380.694,-85.5505 384.721,-75.7511 375.462,-80.8999 380.694,-85.5505"/>
</g>
</g>
</svg>
