<?xml version="1.0" encoding="UTF-8" standalone="no"?>
<!DOCTYPE svg PUBLIC "-//W3C//DTD SVG 1.1//EN"
 "http://www.w3.org/Graphics/SVG/1.1/DTD/svg11.dtd">
<!-- Generated by graphviz version 2.38.0 (20140413.2041)
 -->
<!-- Title: LodePNGState Pages: 1 -->
<svg width="695pt" height="579pt"
 viewBox="0.00 0.00 694.50 579.00" xmlns="http://www.w3.org/2000/svg" xmlns:xlink="http://www.w3.org/1999/xlink">
<g id="graph0" class="graph" transform="scale(1 1) rotate(0) translate(4 575)">
<title>LodePNGState</title>
<polygon fill="white" stroke="none" points="-4,4 -4,-575 690.5,-575 690.5,4 -4,4"/>
<!-- Node1 -->
<g id="node1" class="node"><title>Node1</title>
<polygon fill="#bfbfbf" stroke="black" points="287.5,-0.5 287.5,-57.5 374.5,-57.5 374.5,-0.5 287.5,-0.5"/>
<text text-anchor="middle" x="331" y="-45.5" font-family="Helvetica,sans-Serif" font-size="10.00">LodePNGState</text>
<polyline fill="none" stroke="black" points="287.5,-38.5 374.5,-38.5 "/>
<text text-anchor="start" x="295.5" y="-26.5" font-family="Helvetica,sans-Serif" font-size="10.00">+ error</text>
<polyline fill="none" stroke="black" points="287.5,-19.5 374.5,-19.5 "/>
<text text-anchor="middle" x="331" y="-7.5" font-family="Helvetica,sans-Serif" font-size="10.00"> </text>
</g>
<!-- Node2 -->
<g id="node2" class="node"><title>Node2</title>
<g id="a_node2"><a xlink:href="../../d0/dd6/structLodePNGInfo.html" target="_top" xlink:title="{LodePNGInfo\n|+ compression_method\l+ filter_method\l+ interlace_method\l+ background_defined\l+ background_r\l+ background_g\l+ background_b\l+ text_keys\l+ text_strings\l+ itext_keys\land 9 more...\l|}">
<polygon fill="white" stroke="black" points="78,-105.5 78,-272.5 210,-272.5 210,-105.5 78,-105.5"/>
<text text-anchor="middle" x="144" y="-260.5" font-family="Helvetica,sans-Serif" font-size="10.00">LodePNGInfo</text>
<polyline fill="none" stroke="black" points="78,-253.5 210,-253.5 "/>
<text text-anchor="start" x="86" y="-241.5" font-family="Helvetica,sans-Serif" font-size="10.00">+ compression_method</text>
<text text-anchor="start" x="86" y="-230.5" font-family="Helvetica,sans-Serif" font-size="10.00">+ filter_method</text>
<text text-anchor="start" x="86" y="-219.5" font-family="Helvetica,sans-Serif" font-size="10.00">+ interlace_method</text>
<text text-anchor="start" x="86" y="-208.5" font-family="Helvetica,sans-Serif" font-size="10.00">+ background_defined</text>
<text text-anchor="start" x="86" y="-197.5" font-family="Helvetica,sans-Serif" font-size="10.00">+ background_r</text>
<text text-anchor="start" x="86" y="-186.5" font-family="Helvetica,sans-Serif" font-size="10.00">+ background_g</text>
<text text-anchor="start" x="86" y="-175.5" font-family="Helvetica,sans-Serif" font-size="10.00">+ background_b</text>
<text text-anchor="start" x="86" y="-164.5" font-family="Helvetica,sans-Serif" font-size="10.00">+ text_keys</text>
<text text-anchor="start" x="86" y="-153.5" font-family="Helvetica,sans-Serif" font-size="10.00">+ text_strings</text>
<text text-anchor="start" x="86" y="-142.5" font-family="Helvetica,sans-Serif" font-size="10.00">+ itext_keys</text>
<text text-anchor="start" x="86" y="-131.5" font-family="Helvetica,sans-Serif" font-size="10.00">and 9 more...</text>
<polyline fill="none" stroke="black" points="78,-124.5 210,-124.5 "/>
<text text-anchor="middle" x="144" y="-112.5" font-family="Helvetica,sans-Serif" font-size="10.00"> </text>
</a>
</g>
</g>
<!-- Node2&#45;&gt;Node1 -->
<g id="edge1" class="edge"><title>Node2&#45;&gt;Node1</title>
<path fill="none" stroke="#404040" d="M190.779,-105.487C199.225,-94.6763 208.672,-84.4414 219,-76 235.521,-62.4967 256.55,-52.4696 275.914,-45.285"/>
<polygon fill="none" stroke="#404040" points="276.058,-45.2345 280.403,-39.4792 287.387,-41.2761 283.042,-47.0314 276.058,-45.2345"/>
<text text-anchor="middle" x="245" y="-79" font-family="Helvetica,sans-Serif" font-size="10.00"> +info_png</text>
</g>
<!-- Node3 -->
<g id="node3" class="node"><title>Node3</title>
<g id="a_node3"><a xlink:href="../../d9/da9/structLodePNGTime.html" target="_top" xlink:title="{LodePNGTime\n|+ year\l+ month\l+ day\l+ hour\l+ minute\l+ second\l|}">
<polygon fill="white" stroke="black" points="0,-337 0,-449 84,-449 84,-337 0,-337"/>
<text text-anchor="middle" x="42" y="-437" font-family="Helvetica,sans-Serif" font-size="10.00">LodePNGTime</text>
<polyline fill="none" stroke="black" points="0,-430 84,-430 "/>
<text text-anchor="start" x="8" y="-418" font-family="Helvetica,sans-Serif" font-size="10.00">+ year</text>
<text text-anchor="start" x="8" y="-407" font-family="Helvetica,sans-Serif" font-size="10.00">+ month</text>
<text text-anchor="start" x="8" y="-396" font-family="Helvetica,sans-Serif" font-size="10.00">+ day</text>
<text text-anchor="start" x="8" y="-385" font-family="Helvetica,sans-Serif" font-size="10.00">+ hour</text>
<text text-anchor="start" x="8" y="-374" font-family="Helvetica,sans-Serif" font-size="10.00">+ minute</text>
<text text-anchor="start" x="8" y="-363" font-family="Helvetica,sans-Serif" font-size="10.00">+ second</text>
<polyline fill="none" stroke="black" points="0,-356 84,-356 "/>
<text text-anchor="middle" x="42" y="-344" font-family="Helvetica,sans-Serif" font-size="10.00"> </text>
</a>
</g>
</g>
<!-- Node3&#45;&gt;Node2 -->
<g id="edge2" class="edge"><title>Node3&#45;&gt;Node2</title>
<path fill="none" stroke="#404040" d="M54.8353,-336.764C59.32,-321.548 65.0204,-305.302 72,-291 73.2551,-288.428 74.5739,-285.851 75.9464,-283.277"/>
<polygon fill="none" stroke="#404040" points="75.9949,-283.19 75.4418,-276 81.8658,-272.724 82.419,-279.914 75.9949,-283.19"/>
<text text-anchor="middle" x="89" y="-294" font-family="Helvetica,sans-Serif" font-size="10.00"> +time</text>
</g>
<!-- Node4 -->
<g id="node4" class="node"><title>Node4</title>
<g id="a_node4"><a xlink:href="../../d3/df7/structLodePNGColorMode.html" target="_top" xlink:title="{LodePNGColorMode\n|+ colortype\l+ bitdepth\l+ palette\l+ key_defined\l+ key_r\l+ key_g\l+ key_b\l|}">
<polygon fill="white" stroke="black" points="228,-331.5 228,-454.5 340,-454.5 340,-331.5 228,-331.5"/>
<text text-anchor="middle" x="284" y="-442.5" font-family="Helvetica,sans-Serif" font-size="10.00">LodePNGColorMode</text>
<polyline fill="none" stroke="black" points="228,-435.5 340,-435.5 "/>
<text text-anchor="start" x="236" y="-423.5" font-family="Helvetica,sans-Serif" font-size="10.00">+ colortype</text>
<text text-anchor="start" x="236" y="-412.5" font-family="Helvetica,sans-Serif" font-size="10.00">+ bitdepth</text>
<text text-anchor="start" x="236" y="-401.5" font-family="Helvetica,sans-Serif" font-size="10.00">+ palette</text>
<text text-anchor="start" x="236" y="-390.5" font-family="Helvetica,sans-Serif" font-size="10.00">+ key_defined</text>
<text text-anchor="start" x="236" y="-379.5" font-family="Helvetica,sans-Serif" font-size="10.00">+ key_r</text>
<text text-anchor="start" x="236" y="-368.5" font-family="Helvetica,sans-Serif" font-size="10.00">+ key_g</text>
<text text-anchor="start" x="236" y="-357.5" font-family="Helvetica,sans-Serif" font-size="10.00">+ key_b</text>
<polyline fill="none" stroke="black" points="228,-350.5 340,-350.5 "/>
<text text-anchor="middle" x="284" y="-338.5" font-family="Helvetica,sans-Serif" font-size="10.00"> </text>
</a>
</g>
</g>
<!-- Node4&#45;&gt;Node1 -->
<g id="edge8" class="edge"><title>Node4&#45;&gt;Node1</title>
<path fill="none" stroke="#404040" d="M279.257,-331.365C276.301,-272.583 276.08,-181.35 295,-105 298.048,-92.6982 303.237,-80.0179 308.74,-68.6639"/>
<polygon fill="none" stroke="#404040" points="308.822,-68.5021 307.989,-61.3393 314.28,-57.8151 315.114,-64.9779 308.822,-68.5021"/>
<text text-anchor="middle" x="320.5" y="-186.5" font-family="Helvetica,sans-Serif" font-size="10.00"> +info_raw</text>
</g>
<!-- Node4&#45;&gt;Node2 -->
<g id="edge3" class="edge"><title>Node4&#45;&gt;Node2</title>
<path fill="none" stroke="#404040" d="M241.995,-331.393C231.39,-316.092 219.759,-299.309 208.33,-282.819"/>
<polygon fill="none" stroke="#404040" points="208.087,-282.468 201.381,-279.815 201.251,-272.605 207.956,-275.258 208.087,-282.468"/>
<text text-anchor="middle" x="236.5" y="-294" font-family="Helvetica,sans-Serif" font-size="10.00"> +color</text>
</g>
<!-- Node5 -->
<g id="node5" class="node"><title>Node5</title>
<polygon fill="white" stroke="#bfbfbf" points="147,-513.5 147,-570.5 191,-570.5 191,-513.5 147,-513.5"/>
<text text-anchor="middle" x="169" y="-558.5" font-family="Helvetica,sans-Serif" font-size="10.00">size_t</text>
<polyline fill="none" stroke="#bfbfbf" points="147,-551.5 191,-551.5 "/>
<text text-anchor="middle" x="169" y="-539.5" font-family="Helvetica,sans-Serif" font-size="10.00"> </text>
<polyline fill="none" stroke="#bfbfbf" points="147,-532.5 191,-532.5 "/>
<text text-anchor="middle" x="169" y="-520.5" font-family="Helvetica,sans-Serif" font-size="10.00"> </text>
</g>
<!-- Node5&#45;&gt;Node2 -->
<g id="edge5" class="edge"><title>Node5&#45;&gt;Node2</title>
<path fill="none" stroke="#404040" d="M150.132,-513.492C141.902,-499.855 133.188,-482.75 129,-466 114.23,-406.921 117.79,-338.593 125.135,-284.703"/>
<polygon fill="none" stroke="#404040" points="125.149,-284.611 122.046,-278.101 126.861,-272.734 129.964,-279.243 125.149,-284.611"/>
<text text-anchor="middle" x="174" y="-407" font-family="Helvetica,sans-Serif" font-size="10.00"> +itext_num</text>
<text text-anchor="middle" x="174" y="-396" font-family="Helvetica,sans-Serif" font-size="10.00">+text_num</text>
<text text-anchor="start" x="129" y="-385" font-family="Helvetica,sans-Serif" font-size="10.00">+unknown_chunks</text>
<text text-anchor="middle" x="174" y="-374" font-family="Helvetica,sans-Serif" font-size="10.00">_size</text>
</g>
<!-- Node5&#45;&gt;Node4 -->
<g id="edge4" class="edge"><title>Node5&#45;&gt;Node4</title>
<path fill="none" stroke="#404040" d="M190.631,-513.35C201.555,-499.386 215.356,-481.745 228.972,-464.34"/>
<polygon fill="none" stroke="#404040" points="229.104,-464.172 229.65,-456.982 236.498,-454.721 235.951,-461.911 229.104,-464.172"/>
<text text-anchor="middle" x="245" y="-487" font-family="Helvetica,sans-Serif" font-size="10.00"> +palettesize</text>
</g>
<!-- Node6 -->
<g id="node6" class="node"><title>Node6</title>
<g id="a_node6"><a xlink:href="../../d6/dd8/structLodePNGDecoderSettings.html" target="_top" xlink:title="{LodePNGDecoderSettings\n|+ ignore_crc\l+ color_convert\l+ read_text_chunks\l+ remember_unknown_chunks\l|}">
<polygon fill="white" stroke="black" points="355.5,-144 355.5,-234 520.5,-234 520.5,-144 355.5,-144"/>
<text text-anchor="middle" x="438" y="-222" font-family="Helvetica,sans-Serif" font-size="10.00">LodePNGDecoderSettings</text>
<polyline fill="none" stroke="black" points="355.5,-215 520.5,-215 "/>
<text text-anchor="start" x="363.5" y="-203" font-family="Helvetica,sans-Serif" font-size="10.00">+ ignore_crc</text>
<text text-anchor="start" x="363.5" y="-192" font-family="Helvetica,sans-Serif" font-size="10.00">+ color_convert</text>
<text text-anchor="start" x="363.5" y="-181" font-family="Helvetica,sans-Serif" font-size="10.00">+ read_text_chunks</text>
<text text-anchor="start" x="363.5" y="-170" font-family="Helvetica,sans-Serif" font-size="10.00">+ remember_unknown_chunks</text>
<polyline fill="none" stroke="black" points="355.5,-163 520.5,-163 "/>
<text text-anchor="middle" x="438" y="-151" font-family="Helvetica,sans-Serif" font-size="10.00"> </text>
</a>
</g>
</g>
<!-- Node6&#45;&gt;Node1 -->
<g id="edge6" class="edge"><title>Node6&#45;&gt;Node1</title>
<path fill="none" stroke="#404040" d="M408.195,-143.988C392,-120.075 372.176,-90.8015 356.672,-67.9082"/>
<polygon fill="none" stroke="#404040" points="356.61,-67.8167 349.934,-65.0916 349.881,-57.8807 356.558,-60.6057 356.61,-67.8167"/>
<text text-anchor="middle" x="394.5" y="-79" font-family="Helvetica,sans-Serif" font-size="10.00"> +decoder</text>
</g>
<!-- Node7 -->
<g id="node7" class="node"><title>Node7</title>
<g id="a_node7"><a xlink:href="../../d0/d79/structLodePNGDecompressSettings.html" target="_top" xlink:title="{LodePNGDecompressSettings\n|+ ignore_adler32\l+ custom_zlib\l+ custom_inflate\l+ custom_context\l|}">
<polygon fill="white" stroke="black" points="358.5,-348 358.5,-438 519.5,-438 519.5,-348 358.5,-348"/>
<text text-anchor="middle" x="439" y="-426" font-family="Helvetica,sans-Serif" font-size="10.00">LodePNGDecompressSettings</text>
<polyline fill="none" stroke="black" points="358.5,-419 519.5,-419 "/>
<text text-anchor="start" x="366.5" y="-407" font-family="Helvetica,sans-Serif" font-size="10.00">+ ignore_adler32</text>
<text text-anchor="start" x="366.5" y="-396" font-family="Helvetica,sans-Serif" font-size="10.00">+ custom_zlib</text>
<text text-anchor="start" x="366.5" y="-385" font-family="Helvetica,sans-Serif" font-size="10.00">+ custom_inflate</text>
<text text-anchor="start" x="366.5" y="-374" font-family="Helvetica,sans-Serif" font-size="10.00">+ custom_context</text>
<polyline fill="none" stroke="black" points="358.5,-367 519.5,-367 "/>
<text text-anchor="middle" x="439" y="-355" font-family="Helvetica,sans-Serif" font-size="10.00"> </text>
</a>
</g>
</g>
<!-- Node7&#45;&gt;Node6 -->
<g id="edge7" class="edge"><title>Node7&#45;&gt;Node6</title>
<path fill="none" stroke="#404040" d="M438.781,-347.67C438.633,-317.937 438.438,-278.517 438.28,-246.531"/>
<polygon fill="none" stroke="#404040" points="438.278,-246.226 434.249,-240.246 438.219,-234.226 442.249,-240.206 438.278,-246.226"/>
<text text-anchor="middle" x="472" y="-294" font-family="Helvetica,sans-Serif" font-size="10.00"> +zlibsettings</text>
</g>
<!-- Node8 -->
<g id="node8" class="node"><title>Node8</title>
<g id="a_node8"><a xlink:href="../../dc/d15/structLodePNGEncoderSettings.html" target="_top" xlink:title="{LodePNGEncoderSettings\n|+ auto_convert\l+ filter_palette_zero\l+ filter_strategy\l+ predefined_filters\l+ force_palette\l+ add_id\l+ text_compression\l|}">
<polygon fill="white" stroke="black" points="541,-127.5 541,-250.5 681,-250.5 681,-127.5 541,-127.5"/>
<text text-anchor="middle" x="611" y="-238.5" font-family="Helvetica,sans-Serif" font-size="10.00">LodePNGEncoderSettings</text>
<polyline fill="none" stroke="black" points="541,-231.5 681,-231.5 "/>
<text text-anchor="start" x="549" y="-219.5" font-family="Helvetica,sans-Serif" font-size="10.00">+ auto_convert</text>
<text text-anchor="start" x="549" y="-208.5" font-family="Helvetica,sans-Serif" font-size="10.00">+ filter_palette_zero</text>
<text text-anchor="start" x="549" y="-197.5" font-family="Helvetica,sans-Serif" font-size="10.00">+ filter_strategy</text>
<text text-anchor="start" x="549" y="-186.5" font-family="Helvetica,sans-Serif" font-size="10.00">+ predefined_filters</text>
<text text-anchor="start" x="549" y="-175.5" font-family="Helvetica,sans-Serif" font-size="10.00">+ force_palette</text>
<text text-anchor="start" x="549" y="-164.5" font-family="Helvetica,sans-Serif" font-size="10.00">+ add_id</text>
<text text-anchor="start" x="549" y="-153.5" font-family="Helvetica,sans-Serif" font-size="10.00">+ text_compression</text>
<polyline fill="none" stroke="black" points="541,-146.5 681,-146.5 "/>
<text text-anchor="middle" x="611" y="-134.5" font-family="Helvetica,sans-Serif" font-size="10.00"> </text>
</a>
</g>
</g>
<!-- Node8&#45;&gt;Node1 -->
<g id="edge9" class="edge"><title>Node8&#45;&gt;Node1</title>
<path fill="none" stroke="#404040" d="M557.393,-127.348C548.443,-119.171 538.848,-111.407 529,-105 484.831,-76.2653 428.044,-56.1946 386.619,-44.0947"/>
<polygon fill="none" stroke="#404040" points="386.371,-44.0242 379.506,-46.2317 374.828,-40.7438 381.693,-38.5364 386.371,-44.0242"/>
<text text-anchor="middle" x="519.5" y="-79" font-family="Helvetica,sans-Serif" font-size="10.00"> +encoder</text>
</g>
<!-- Node9 -->
<g id="node9" class="node"><title>Node9</title>
<g id="a_node9"><a xlink:href="../../d7/df2/structLodePNGCompressSettings.html" target="_top" xlink:title="{LodePNGCompressSettings\n|+ btype\l+ use_lz77\l+ windowsize\l+ minmatch\l+ nicematch\l+ lazymatching\l+ custom_zlib\l+ custom_deflate\l+ custom_context\l|}">
<polygon fill="white" stroke="black" points="537.5,-320.5 537.5,-465.5 686.5,-465.5 686.5,-320.5 537.5,-320.5"/>
<text text-anchor="middle" x="612" y="-453.5" font-family="Helvetica,sans-Serif" font-size="10.00">LodePNGCompressSettings</text>
<polyline fill="none" stroke="black" points="537.5,-446.5 686.5,-446.5 "/>
<text text-anchor="start" x="545.5" y="-434.5" font-family="Helvetica,sans-Serif" font-size="10.00">+ btype</text>
<text text-anchor="start" x="545.5" y="-423.5" font-family="Helvetica,sans-Serif" font-size="10.00">+ use_lz77</text>
<text text-anchor="start" x="545.5" y="-412.5" font-family="Helvetica,sans-Serif" font-size="10.00">+ windowsize</text>
<text text-anchor="start" x="545.5" y="-401.5" font-family="Helvetica,sans-Serif" font-size="10.00">+ minmatch</text>
<text text-anchor="start" x="545.5" y="-390.5" font-family="Helvetica,sans-Serif" font-size="10.00">+ nicematch</text>
<text text-anchor="start" x="545.5" y="-379.5" font-family="Helvetica,sans-Serif" font-size="10.00">+ lazymatching</text>
<text text-anchor="start" x="545.5" y="-368.5" font-family="Helvetica,sans-Serif" font-size="10.00">+ custom_zlib</text>
<text text-anchor="start" x="545.5" y="-357.5" font-family="Helvetica,sans-Serif" font-size="10.00">+ custom_deflate</text>
<text text-anchor="start" x="545.5" y="-346.5" font-family="Helvetica,sans-Serif" font-size="10.00">+ custom_context</text>
<polyline fill="none" stroke="black" points="537.5,-339.5 686.5,-339.5 "/>
<text text-anchor="middle" x="612" y="-327.5" font-family="Helvetica,sans-Serif" font-size="10.00"> </text>
</a>
</g>
</g>
<!-- Node9&#45;&gt;Node8 -->
<g id="edge10" class="edge"><title>Node9&#45;&gt;Node8</title>
<path fill="none" stroke="#404040" d="M611.646,-320.498C611.553,-301.785 611.453,-281.591 611.36,-262.81"/>
<polygon fill="none" stroke="#404040" points="611.36,-262.702 607.33,-256.722 611.301,-250.702 615.33,-256.682 611.36,-262.702"/>
<text text-anchor="middle" x="644" y="-294" font-family="Helvetica,sans-Serif" font-size="10.00"> +zlibsettings</text>
</g>
</g>
</svg>
