<?xml version="1.0" encoding="UTF-8" standalone="no"?>
<!DOCTYPE svg PUBLIC "-//W3C//DTD SVG 1.1//EN"
 "http://www.w3.org/Graphics/SVG/1.1/DTD/svg11.dtd">
<!-- Generated by graphviz version 2.38.0 (20140413.2041)
 -->
<!-- Title: /home/travis/build/ComPWA/ComPWA/ThirdParty/tbb/include/tbb/concurrent_unordered_map.h Pages: 1 -->
<!--zoomable 239 -->
<svg id="main" version="1.1" xmlns="http://www.w3.org/2000/svg" xmlns:xlink="http://www.w3.org/1999/xlink" xml:space="preserve" onload="init(evt)">
<style type="text/css"><![CDATA[
.edge:hover path { stroke: red; }
.edge:hover polygon { stroke: red; fill: red; }
]]></style>
<script type="text/javascript"><![CDATA[
var edges = document.getElementsByTagName('g');
if (edges && edges.length) {
  for (var i=0;i<edges.length;i++) {
    if (edges[i].id.substr(0,4)=='edge') {
      edges[i].setAttribute('class','edge');
    }
  }
}
]]></script>
        <defs>
                <circle id="rim" cx="0" cy="0" r="7"/>
                <circle id="rim2" cx="0" cy="0" r="3.5"/>
                <g id="zoomPlus">
                        <use xlink:href="#rim" fill="#404040">
                                <set attributeName="fill" to="#808080" begin="zoomplus.mouseover" end="zoomplus.mouseout"/>
                        </use>
                        <path d="M-4,0h8M0,-4v8" fill="none" stroke="white" stroke-width="1.5" pointer-events="none"/>
                </g>
                <g id="zoomMin">
                        <use xlink:href="#rim" fill="#404040">
                                <set attributeName="fill" to="#808080" begin="zoomminus.mouseover" end="zoomminus.mouseout"/>
                        </use>
                        <path d="M-4,0h8" fill="none" stroke="white" stroke-width="1.5" pointer-events="none"/>
                </g>
                <g id="dirArrow">
                        <path fill="none" stroke="white" stroke-width="1.5" d="M0,-3.0v7 M-2.5,-0.5L0,-3.0L2.5,-0.5"/>
                </g>
               <g id="resetDef">
                       <use xlink:href="#rim2" fill="#404040">
                               <set attributeName="fill" to="#808080" begin="reset.mouseover" end="reset.mouseout"/>
                       </use>
               </g>
        </defs>

<script type="text/javascript">
var viewWidth = 3506;
var viewHeight = 239;
var sectionId = 'dynsection-1';
</script>
<script xlink:href="../../svgpan.js"/>
<svg id="graph" class="graph">
<g id="viewport">
<title>/home/travis/build/ComPWA/ComPWA/ThirdParty/tbb/include/tbb/concurrent_unordered_map.h</title>
<polygon fill="white" stroke="none" points="-4,4 -4,-235 3502,-235 3502,4 -4,4"/>
<!-- Node1 -->
<g id="node1" class="node"><title>Node1</title>
<polygon fill="#bfbfbf" stroke="black" points="2014,-178.5 2014,-230.5 2172,-230.5 2172,-178.5 2014,-178.5"/>
<text text-anchor="start" x="2022" y="-218.5" font-family="Helvetica,sans-Serif" font-size="10.00">/home/travis/build</text>
<text text-anchor="start" x="2022" y="-207.5" font-family="Helvetica,sans-Serif" font-size="10.00">/ComPWA/ComPWA/ThirdParty</text>
<text text-anchor="start" x="2022" y="-196.5" font-family="Helvetica,sans-Serif" font-size="10.00">/tbb/include/tbb/concurrent</text>
<text text-anchor="middle" x="2093" y="-185.5" font-family="Helvetica,sans-Serif" font-size="10.00">_unordered_map.h</text>
</g>
<!-- Node2 -->
<g id="node2" class="node"><title>Node2</title>
<g id="a_node2"><a xlink:href="../../d8/dc1/tbb_8h.html" target="_top" xlink:title="/home/travis/build\l/ComPWA/ComPWA/ThirdParty\l/tbb/include/tbb/tbb.h">
<polygon fill="white" stroke="black" points="500,-95 500,-136 658,-136 658,-95 500,-95"/>
<text text-anchor="start" x="508" y="-124" font-family="Helvetica,sans-Serif" font-size="10.00">/home/travis/build</text>
<text text-anchor="start" x="508" y="-113" font-family="Helvetica,sans-Serif" font-size="10.00">/ComPWA/ComPWA/ThirdParty</text>
<text text-anchor="middle" x="579" y="-102" font-family="Helvetica,sans-Serif" font-size="10.00">/tbb/include/tbb/tbb.h</text>
</a>
</g>
</g>
<!-- Node1&#45;&gt;Node2 -->
<g id="edge1" class="edge"><title>Node1&#45;&gt;Node2</title>
<path fill="none" stroke="midnightblue" d="M2003.78,-198.373C1731.93,-182.752 916.756,-135.909 658.437,-121.065"/>
<polygon fill="midnightblue" stroke="midnightblue" points="2003.81,-201.881 2014,-198.96 2004.21,-194.892 2003.81,-201.881"/>
</g>
<!-- Node7 -->
<g id="node7" class="node"><title>Node7</title>
<g id="a_node7"><a xlink:href="../../dc/dcb/harness__graph_8h.html" target="_top" xlink:title="/home/travis/build\l/ComPWA/ComPWA/ThirdParty\l/tbb/src/test/harness_graph.h">
<polygon fill="white" stroke="black" points="2014,-95 2014,-136 2172,-136 2172,-95 2014,-95"/>
<text text-anchor="start" x="2022" y="-124" font-family="Helvetica,sans-Serif" font-size="10.00">/home/travis/build</text>
<text text-anchor="start" x="2022" y="-113" font-family="Helvetica,sans-Serif" font-size="10.00">/ComPWA/ComPWA/ThirdParty</text>
<text text-anchor="middle" x="2093" y="-102" font-family="Helvetica,sans-Serif" font-size="10.00">/tbb/src/test/harness_graph.h</text>
</a>
</g>
</g>
<!-- Node1&#45;&gt;Node7 -->
<g id="edge6" class="edge"><title>Node1&#45;&gt;Node7</title>
<path fill="none" stroke="midnightblue" d="M2093,-168.155C2093,-157.21 2093,-145.549 2093,-136.082"/>
<polygon fill="midnightblue" stroke="midnightblue" points="2089.5,-168.336 2093,-178.336 2096.5,-168.336 2089.5,-168.336"/>
</g>
<!-- Node23 -->
<g id="node23" class="node"><title>Node23</title>
<g id="a_node23"><a xlink:href="../../d9/d8f/test__concurrent__unordered__map_8cpp.html" target="_top" xlink:title="/home/travis/build\l/ComPWA/ComPWA/ThirdParty\l/tbb/src/test/test_concurrent\l_unordered_map.cpp">
<polygon fill="white" stroke="black" points="2190,-89.5 2190,-141.5 2348,-141.5 2348,-89.5 2190,-89.5"/>
<text text-anchor="start" x="2198" y="-129.5" font-family="Helvetica,sans-Serif" font-size="10.00">/home/travis/build</text>
<text text-anchor="start" x="2198" y="-118.5" font-family="Helvetica,sans-Serif" font-size="10.00">/ComPWA/ComPWA/ThirdParty</text>
<text text-anchor="start" x="2198" y="-107.5" font-family="Helvetica,sans-Serif" font-size="10.00">/tbb/src/test/test_concurrent</text>
<text text-anchor="middle" x="2269" y="-96.5" font-family="Helvetica,sans-Serif" font-size="10.00">_unordered_map.cpp</text>
</a>
</g>
</g>
<!-- Node1&#45;&gt;Node23 -->
<g id="edge22" class="edge"><title>Node1&#45;&gt;Node23</title>
<path fill="none" stroke="midnightblue" d="M2153.13,-173.776C2174.31,-163.309 2197.88,-151.656 2218.21,-141.607"/>
<polygon fill="midnightblue" stroke="midnightblue" points="2151.32,-170.767 2143.91,-178.336 2154.42,-177.042 2151.32,-170.767"/>
</g>
<!-- Node3 -->
<g id="node3" class="node"><title>Node3</title>
<g id="a_node3"><a xlink:href="../../d0/d75/DirectXPage_8xaml_8cpp.html" target="_top" xlink:title="/home/travis/build\l/ComPWA/ComPWA/ThirdParty\l/tbb/examples/parallel_for\l/tachyon/msvs/win8ui/DirectXPage.xaml.cpp">
<polygon fill="white" stroke="black" points="0,-0.5 0,-52.5 226,-52.5 226,-0.5 0,-0.5"/>
<text text-anchor="start" x="8" y="-40.5" font-family="Helvetica,sans-Serif" font-size="10.00">/home/travis/build</text>
<text text-anchor="start" x="8" y="-29.5" font-family="Helvetica,sans-Serif" font-size="10.00">/ComPWA/ComPWA/ThirdParty</text>
<text text-anchor="start" x="8" y="-18.5" font-family="Helvetica,sans-Serif" font-size="10.00">/tbb/examples/parallel_for</text>
<text text-anchor="middle" x="113" y="-7.5" font-family="Helvetica,sans-Serif" font-size="10.00">/tachyon/msvs/win8ui/DirectXPage.xaml.cpp</text>
</a>
</g>
</g>
<!-- Node2&#45;&gt;Node3 -->
<g id="edge2" class="edge"><title>Node2&#45;&gt;Node3</title>
<path fill="none" stroke="midnightblue" d="M489.936,-99.3107C420.408,-87.2758 321.43,-69.7549 235,-53 232.132,-52.4441 229.228,-51.8759 226.298,-51.2982"/>
<polygon fill="midnightblue" stroke="midnightblue" points="489.526,-102.792 499.976,-101.046 490.718,-95.8938 489.526,-102.792"/>
</g>
<!-- Node4 -->
<g id="node4" class="node"><title>Node4</title>
<g id="a_node4"><a xlink:href="../../dd/dc5/tbbTachyonRenderer_8cpp.html" target="_top" xlink:title="/home/travis/build\l/ComPWA/ComPWA/ThirdParty\l/tbb/examples/parallel_for\l/tachyon/msvs/win8ui/tbbTachyonRenderer.cpp">
<polygon fill="white" stroke="black" points="244,-0.5 244,-52.5 482,-52.5 482,-0.5 244,-0.5"/>
<text text-anchor="start" x="252" y="-40.5" font-family="Helvetica,sans-Serif" font-size="10.00">/home/travis/build</text>
<text text-anchor="start" x="252" y="-29.5" font-family="Helvetica,sans-Serif" font-size="10.00">/ComPWA/ComPWA/ThirdParty</text>
<text text-anchor="start" x="252" y="-18.5" font-family="Helvetica,sans-Serif" font-size="10.00">/tbb/examples/parallel_for</text>
<text text-anchor="middle" x="363" y="-7.5" font-family="Helvetica,sans-Serif" font-size="10.00">/tachyon/msvs/win8ui/tbbTachyonRenderer.cpp</text>
</a>
</g>
</g>
<!-- Node2&#45;&gt;Node4 -->
<g id="edge3" class="edge"><title>Node2&#45;&gt;Node4</title>
<path fill="none" stroke="midnightblue" d="M521.157,-91.2021C491.555,-79.2791 455.49,-64.753 425.279,-52.5847"/>
<polygon fill="midnightblue" stroke="midnightblue" points="519.942,-94.4859 530.525,-94.9755 522.557,-87.9928 519.942,-94.4859"/>
</g>
<!-- Node5 -->
<g id="node5" class="node"><title>Node5</title>
<g id="a_node5"><a xlink:href="../../dd/d29/trace_8simple_8cpp.html" target="_top" xlink:title="/home/travis/build\l/ComPWA/ComPWA/ThirdParty\l/tbb/examples/parallel_for\l/tachyon/src/trace.simple.cpp">
<polygon fill="white" stroke="black" points="500,-0.5 500,-52.5 658,-52.5 658,-0.5 500,-0.5"/>
<text text-anchor="start" x="508" y="-40.5" font-family="Helvetica,sans-Serif" font-size="10.00">/home/travis/build</text>
<text text-anchor="start" x="508" y="-29.5" font-family="Helvetica,sans-Serif" font-size="10.00">/ComPWA/ComPWA/ThirdParty</text>
<text text-anchor="start" x="508" y="-18.5" font-family="Helvetica,sans-Serif" font-size="10.00">/tbb/examples/parallel_for</text>
<text text-anchor="middle" x="579" y="-7.5" font-family="Helvetica,sans-Serif" font-size="10.00">/tachyon/src/trace.simple.cpp</text>
</a>
</g>
</g>
<!-- Node2&#45;&gt;Node5 -->
<g id="edge4" class="edge"><title>Node2&#45;&gt;Node5</title>
<path fill="none" stroke="midnightblue" d="M579,-84.5092C579,-74.1743 579,-62.71 579,-52.7882"/>
<polygon fill="midnightblue" stroke="midnightblue" points="575.5,-84.7583 579,-94.7584 582.5,-84.7584 575.5,-84.7583"/>
</g>
<!-- Node6 -->
<g id="node6" class="node"><title>Node6</title>
<g id="a_node6"><a xlink:href="../../db/d56/test__tbb__header_8cpp.html" target="_top" xlink:title="/home/travis/build\l/ComPWA/ComPWA/ThirdParty\l/tbb/src/test/test_tbb_header.cpp">
<polygon fill="white" stroke="black" points="676,-6 676,-47 852,-47 852,-6 676,-6"/>
<text text-anchor="start" x="684" y="-35" font-family="Helvetica,sans-Serif" font-size="10.00">/home/travis/build</text>
<text text-anchor="start" x="684" y="-24" font-family="Helvetica,sans-Serif" font-size="10.00">/ComPWA/ComPWA/ThirdParty</text>
<text text-anchor="middle" x="764" y="-13" font-family="Helvetica,sans-Serif" font-size="10.00">/tbb/src/test/test_tbb_header.cpp</text>
</a>
</g>
</g>
<!-- Node2&#45;&gt;Node6 -->
<g id="edge5" class="edge"><title>Node2&#45;&gt;Node6</title>
<path fill="none" stroke="midnightblue" d="M629.698,-90.6584C658.789,-76.9775 694.867,-60.0113 722.301,-47.1097"/>
<polygon fill="midnightblue" stroke="midnightblue" points="628.077,-87.5526 620.518,-94.9755 631.056,-93.8871 628.077,-87.5526"/>
</g>
<!-- Node8 -->
<g id="node8" class="node"><title>Node8</title>
<g id="a_node8"><a xlink:href="../../d0/d7f/test__async__node_8cpp.html" target="_top" xlink:title="/home/travis/build\l/ComPWA/ComPWA/ThirdParty\l/tbb/src/test/test_async\l_node.cpp">
<polygon fill="white" stroke="black" points="870,-0.5 870,-52.5 1028,-52.5 1028,-0.5 870,-0.5"/>
<text text-anchor="start" x="878" y="-40.5" font-family="Helvetica,sans-Serif" font-size="10.00">/home/travis/build</text>
<text text-anchor="start" x="878" y="-29.5" font-family="Helvetica,sans-Serif" font-size="10.00">/ComPWA/ComPWA/ThirdParty</text>
<text text-anchor="start" x="878" y="-18.5" font-family="Helvetica,sans-Serif" font-size="10.00">/tbb/src/test/test_async</text>
<text text-anchor="middle" x="949" y="-7.5" font-family="Helvetica,sans-Serif" font-size="10.00">_node.cpp</text>
</a>
</g>
</g>
<!-- Node7&#45;&gt;Node8 -->
<g id="edge7" class="edge"><title>Node7&#45;&gt;Node8</title>
<path fill="none" stroke="midnightblue" d="M2003.67,-111.87C1783.99,-104.987 1221.85,-84.7512 1037,-53 1034.18,-52.5153 1031.32,-51.9727 1028.44,-51.3827"/>
<polygon fill="midnightblue" stroke="midnightblue" points="2003.77,-115.374 2013.87,-112.187 2003.99,-108.378 2003.77,-115.374"/>
</g>
<!-- Node9 -->
<g id="node9" class="node"><title>Node9</title>
<g id="a_node9"><a xlink:href="../../d4/dc4/test__buffer__node_8cpp.html" target="_top" xlink:title="/home/travis/build\l/ComPWA/ComPWA/ThirdParty\l/tbb/src/test/test_buffer\l_node.cpp">
<polygon fill="white" stroke="black" points="1046,-0.5 1046,-52.5 1204,-52.5 1204,-0.5 1046,-0.5"/>
<text text-anchor="start" x="1054" y="-40.5" font-family="Helvetica,sans-Serif" font-size="10.00">/home/travis/build</text>
<text text-anchor="start" x="1054" y="-29.5" font-family="Helvetica,sans-Serif" font-size="10.00">/ComPWA/ComPWA/ThirdParty</text>
<text text-anchor="start" x="1054" y="-18.5" font-family="Helvetica,sans-Serif" font-size="10.00">/tbb/src/test/test_buffer</text>
<text text-anchor="middle" x="1125" y="-7.5" font-family="Helvetica,sans-Serif" font-size="10.00">_node.cpp</text>
</a>
</g>
</g>
<!-- Node7&#45;&gt;Node9 -->
<g id="edge8" class="edge"><title>Node7&#45;&gt;Node9</title>
<path fill="none" stroke="midnightblue" d="M2003.46,-114.487C1843.52,-113.082 1498.69,-103.78 1213,-53 1210.18,-52.4989 1207.32,-51.9423 1204.45,-51.3403"/>
<polygon fill="midnightblue" stroke="midnightblue" points="2003.7,-117.989 2013.73,-114.569 2003.76,-110.989 2003.7,-117.989"/>
</g>
<!-- Node10 -->
<g id="node10" class="node"><title>Node10</title>
<g id="a_node10"><a xlink:href="../../df/d0c/test__continue__node_8cpp.html" target="_top" xlink:title="/home/travis/build\l/ComPWA/ComPWA/ThirdParty\l/tbb/src/test/test_continue\l_node.cpp">
<polygon fill="white" stroke="black" points="1222,-0.5 1222,-52.5 1380,-52.5 1380,-0.5 1222,-0.5"/>
<text text-anchor="start" x="1230" y="-40.5" font-family="Helvetica,sans-Serif" font-size="10.00">/home/travis/build</text>
<text text-anchor="start" x="1230" y="-29.5" font-family="Helvetica,sans-Serif" font-size="10.00">/ComPWA/ComPWA/ThirdParty</text>
<text text-anchor="start" x="1230" y="-18.5" font-family="Helvetica,sans-Serif" font-size="10.00">/tbb/src/test/test_continue</text>
<text text-anchor="middle" x="1301" y="-7.5" font-family="Helvetica,sans-Serif" font-size="10.00">_node.cpp</text>
</a>
</g>
</g>
<!-- Node7&#45;&gt;Node10 -->
<g id="edge9" class="edge"><title>Node7&#45;&gt;Node10</title>
<path fill="none" stroke="midnightblue" d="M2003.69,-112.264C1869.28,-107.649 1607.48,-93.7941 1389,-53 1386.19,-52.4745 1383.33,-51.8968 1380.46,-51.2769"/>
<polygon fill="midnightblue" stroke="midnightblue" points="2003.82,-115.77 2013.93,-112.606 2004.05,-108.774 2003.82,-115.77"/>
</g>
<!-- Node11 -->
<g id="node11" class="node"><title>Node11</title>
<g id="a_node11"><a xlink:href="../../d8/d51/test__flow__graph_8cpp.html" target="_top" xlink:title="/home/travis/build\l/ComPWA/ComPWA/ThirdParty\l/tbb/src/test/test_flow\l_graph.cpp">
<polygon fill="white" stroke="black" points="1398,-0.5 1398,-52.5 1556,-52.5 1556,-0.5 1398,-0.5"/>
<text text-anchor="start" x="1406" y="-40.5" font-family="Helvetica,sans-Serif" font-size="10.00">/home/travis/build</text>
<text text-anchor="start" x="1406" y="-29.5" font-family="Helvetica,sans-Serif" font-size="10.00">/ComPWA/ComPWA/ThirdParty</text>
<text text-anchor="start" x="1406" y="-18.5" font-family="Helvetica,sans-Serif" font-size="10.00">/tbb/src/test/test_flow</text>
<text text-anchor="middle" x="1477" y="-7.5" font-family="Helvetica,sans-Serif" font-size="10.00">_graph.cpp</text>
</a>
</g>
</g>
<!-- Node7&#45;&gt;Node11 -->
<g id="edge10" class="edge"><title>Node7&#45;&gt;Node11</title>
<path fill="none" stroke="midnightblue" d="M2003.66,-108.64C1898.08,-100.671 1717.49,-83.7528 1565,-53 1562.04,-52.4025 1559.03,-51.7533 1556,-51.0633"/>
<polygon fill="midnightblue" stroke="midnightblue" points="2003.4,-112.131 2013.64,-109.384 2003.92,-105.15 2003.4,-112.131"/>
</g>
<!-- Node12 -->
<g id="node12" class="node"><title>Node12</title>
<g id="a_node12"><a xlink:href="../../d1/d9d/test__flow__graph__whitebox_8cpp.html" target="_top" xlink:title="/home/travis/build\l/ComPWA/ComPWA/ThirdParty\l/tbb/src/test/test_flow\l_graph_whitebox.cpp">
<polygon fill="white" stroke="black" points="1574,-0.5 1574,-52.5 1732,-52.5 1732,-0.5 1574,-0.5"/>
<text text-anchor="start" x="1582" y="-40.5" font-family="Helvetica,sans-Serif" font-size="10.00">/home/travis/build</text>
<text text-anchor="start" x="1582" y="-29.5" font-family="Helvetica,sans-Serif" font-size="10.00">/ComPWA/ComPWA/ThirdParty</text>
<text text-anchor="start" x="1582" y="-18.5" font-family="Helvetica,sans-Serif" font-size="10.00">/tbb/src/test/test_flow</text>
<text text-anchor="middle" x="1653" y="-7.5" font-family="Helvetica,sans-Serif" font-size="10.00">_graph_whitebox.cpp</text>
</a>
</g>
</g>
<!-- Node7&#45;&gt;Node12 -->
<g id="edge11" class="edge"><title>Node7&#45;&gt;Node12</title>
<path fill="none" stroke="midnightblue" d="M2003.55,-101.631C1932.08,-90.6868 1829.57,-73.505 1741,-53 1738.06,-52.3183 1735.06,-51.5974 1732.05,-50.8468"/>
<polygon fill="midnightblue" stroke="midnightblue" points="2003.45,-105.156 2013.87,-103.2 2004.51,-98.2358 2003.45,-105.156"/>
</g>
<!-- Node13 -->
<g id="node13" class="node"><title>Node13</title>
<g id="a_node13"><a xlink:href="../../d5/d9d/test__function__node_8cpp.html" target="_top" xlink:title="/home/travis/build\l/ComPWA/ComPWA/ThirdParty\l/tbb/src/test/test_function\l_node.cpp">
<polygon fill="white" stroke="black" points="1750,-0.5 1750,-52.5 1908,-52.5 1908,-0.5 1750,-0.5"/>
<text text-anchor="start" x="1758" y="-40.5" font-family="Helvetica,sans-Serif" font-size="10.00">/home/travis/build</text>
<text text-anchor="start" x="1758" y="-29.5" font-family="Helvetica,sans-Serif" font-size="10.00">/ComPWA/ComPWA/ThirdParty</text>
<text text-anchor="start" x="1758" y="-18.5" font-family="Helvetica,sans-Serif" font-size="10.00">/tbb/src/test/test_function</text>
<text text-anchor="middle" x="1829" y="-7.5" font-family="Helvetica,sans-Serif" font-size="10.00">_node.cpp</text>
</a>
</g>
</g>
<!-- Node7&#45;&gt;Node13 -->
<g id="edge12" class="edge"><title>Node7&#45;&gt;Node13</title>
<path fill="none" stroke="midnightblue" d="M2024.18,-91.8191C1987.65,-79.7828 1942.68,-64.9637 1905.12,-52.5847"/>
<polygon fill="midnightblue" stroke="midnightblue" points="2023.16,-95.1697 2033.75,-94.9755 2025.35,-88.5214 2023.16,-95.1697"/>
</g>
<!-- Node14 -->
<g id="node14" class="node"><title>Node14</title>
<g id="a_node14"><a xlink:href="../../d6/de8/test__indexer__node_8cpp.html" target="_top" xlink:title="/home/travis/build\l/ComPWA/ComPWA/ThirdParty\l/tbb/src/test/test_indexer\l_node.cpp">
<polygon fill="white" stroke="black" points="1926,-0.5 1926,-52.5 2084,-52.5 2084,-0.5 1926,-0.5"/>
<text text-anchor="start" x="1934" y="-40.5" font-family="Helvetica,sans-Serif" font-size="10.00">/home/travis/build</text>
<text text-anchor="start" x="1934" y="-29.5" font-family="Helvetica,sans-Serif" font-size="10.00">/ComPWA/ComPWA/ThirdParty</text>
<text text-anchor="start" x="1934" y="-18.5" font-family="Helvetica,sans-Serif" font-size="10.00">/tbb/src/test/test_indexer</text>
<text text-anchor="middle" x="2005" y="-7.5" font-family="Helvetica,sans-Serif" font-size="10.00">_node.cpp</text>
</a>
</g>
</g>
<!-- Node7&#45;&gt;Node14 -->
<g id="edge13" class="edge"><title>Node7&#45;&gt;Node14</title>
<path fill="none" stroke="midnightblue" d="M2065.6,-87.4138C2054.42,-76.3603 2041.57,-63.6499 2030.58,-52.7882"/>
<polygon fill="midnightblue" stroke="midnightblue" points="2063.46,-90.2168 2073.03,-94.7584 2068.38,-85.2388 2063.46,-90.2168"/>
</g>
<!-- Node15 -->
<g id="node15" class="node"><title>Node15</title>
<g id="a_node15"><a xlink:href="../../df/d35/test__join__node_8h.html" target="_top" xlink:title="/home/travis/build\l/ComPWA/ComPWA/ThirdParty\l/tbb/src/test/test_join_node.h">
<polygon fill="white" stroke="red" points="2102,-6 2102,-47 2260,-47 2260,-6 2102,-6"/>
<text text-anchor="start" x="2110" y="-35" font-family="Helvetica,sans-Serif" font-size="10.00">/home/travis/build</text>
<text text-anchor="start" x="2110" y="-24" font-family="Helvetica,sans-Serif" font-size="10.00">/ComPWA/ComPWA/ThirdParty</text>
<text text-anchor="middle" x="2181" y="-13" font-family="Helvetica,sans-Serif" font-size="10.00">/tbb/src/test/test_join_node.h</text>
</a>
</g>
</g>
<!-- Node7&#45;&gt;Node15 -->
<g id="edge14" class="edge"><title>Node7&#45;&gt;Node15</title>
<path fill="none" stroke="midnightblue" d="M2120.41,-87.3983C2133.59,-74.3734 2149.09,-59.0506 2161.11,-47.1635"/>
<polygon fill="midnightblue" stroke="midnightblue" points="2117.62,-85.2388 2112.97,-94.7584 2122.54,-90.2168 2117.62,-85.2388"/>
</g>
<!-- Node16 -->
<g id="node16" class="node"><title>Node16</title>
<g id="a_node16"><a xlink:href="../../d6/de9/test__multifunction__node_8cpp.html" target="_top" xlink:title="/home/travis/build\l/ComPWA/ComPWA/ThirdParty\l/tbb/src/test/test_multifunction\l_node.cpp">
<polygon fill="white" stroke="black" points="2278,-0.5 2278,-52.5 2442,-52.5 2442,-0.5 2278,-0.5"/>
<text text-anchor="start" x="2286" y="-40.5" font-family="Helvetica,sans-Serif" font-size="10.00">/home/travis/build</text>
<text text-anchor="start" x="2286" y="-29.5" font-family="Helvetica,sans-Serif" font-size="10.00">/ComPWA/ComPWA/ThirdParty</text>
<text text-anchor="start" x="2286" y="-18.5" font-family="Helvetica,sans-Serif" font-size="10.00">/tbb/src/test/test_multifunction</text>
<text text-anchor="middle" x="2360" y="-7.5" font-family="Helvetica,sans-Serif" font-size="10.00">_node.cpp</text>
</a>
</g>
</g>
<!-- Node7&#45;&gt;Node16 -->
<g id="edge15" class="edge"><title>Node7&#45;&gt;Node16</title>
<path fill="none" stroke="midnightblue" d="M2162.61,-91.8191C2199.55,-79.7828 2245.03,-64.9637 2283.02,-52.5847"/>
<polygon fill="midnightblue" stroke="midnightblue" points="2161.34,-88.5495 2152.92,-94.9755 2163.51,-95.2051 2161.34,-88.5495"/>
</g>
<!-- Node17 -->
<g id="node17" class="node"><title>Node17</title>
<g id="a_node17"><a xlink:href="../../d9/de1/test__overwrite__node_8cpp.html" target="_top" xlink:title="/home/travis/build\l/ComPWA/ComPWA/ThirdParty\l/tbb/src/test/test_overwrite\l_node.cpp">
<polygon fill="white" stroke="black" points="2460,-0.5 2460,-52.5 2618,-52.5 2618,-0.5 2460,-0.5"/>
<text text-anchor="start" x="2468" y="-40.5" font-family="Helvetica,sans-Serif" font-size="10.00">/home/travis/build</text>
<text text-anchor="start" x="2468" y="-29.5" font-family="Helvetica,sans-Serif" font-size="10.00">/ComPWA/ComPWA/ThirdParty</text>
<text text-anchor="start" x="2468" y="-18.5" font-family="Helvetica,sans-Serif" font-size="10.00">/tbb/src/test/test_overwrite</text>
<text text-anchor="middle" x="2539" y="-7.5" font-family="Helvetica,sans-Serif" font-size="10.00">_node.cpp</text>
</a>
</g>
</g>
<!-- Node7&#45;&gt;Node17 -->
<g id="edge16" class="edge"><title>Node7&#45;&gt;Node17</title>
<path fill="none" stroke="midnightblue" d="M2165.93,-92.4648C2171.01,-91.2087 2176.07,-90.0374 2181,-89 2299.47,-64.0833 2332.53,-77.9167 2451,-53 2453.96,-52.378 2456.96,-51.7078 2459.99,-51.0001"/>
<polygon fill="midnightblue" stroke="midnightblue" points="2164.98,-89.0951 2156.16,-94.972 2166.72,-95.8752 2164.98,-89.0951"/>
</g>
<!-- Node18 -->
<g id="node18" class="node"><title>Node18</title>
<g id="a_node18"><a xlink:href="../../db/d82/test__priority__queue__node_8cpp.html" target="_top" xlink:title="/home/travis/build\l/ComPWA/ComPWA/ThirdParty\l/tbb/src/test/test_priority\l_queue_node.cpp">
<polygon fill="white" stroke="black" points="2636,-0.5 2636,-52.5 2794,-52.5 2794,-0.5 2636,-0.5"/>
<text text-anchor="start" x="2644" y="-40.5" font-family="Helvetica,sans-Serif" font-size="10.00">/home/travis/build</text>
<text text-anchor="start" x="2644" y="-29.5" font-family="Helvetica,sans-Serif" font-size="10.00">/ComPWA/ComPWA/ThirdParty</text>
<text text-anchor="start" x="2644" y="-18.5" font-family="Helvetica,sans-Serif" font-size="10.00">/tbb/src/test/test_priority</text>
<text text-anchor="middle" x="2715" y="-7.5" font-family="Helvetica,sans-Serif" font-size="10.00">_queue_node.cpp</text>
</a>
</g>
</g>
<!-- Node7&#45;&gt;Node18 -->
<g id="edge17" class="edge"><title>Node7&#45;&gt;Node18</title>
<path fill="none" stroke="midnightblue" d="M2164.57,-92.4725C2170.1,-91.1667 2175.62,-89.9859 2181,-89 2376.61,-53.1435 2431.39,-88.8565 2627,-53 2629.82,-52.4838 2632.67,-51.9141 2635.55,-51.301"/>
<polygon fill="midnightblue" stroke="midnightblue" points="2163.5,-89.1317 2154.65,-94.9425 2165.19,-95.9246 2163.5,-89.1317"/>
</g>
<!-- Node19 -->
<g id="node19" class="node"><title>Node19</title>
<g id="a_node19"><a xlink:href="../../df/dcc/test__queue__node_8cpp.html" target="_top" xlink:title="/home/travis/build\l/ComPWA/ComPWA/ThirdParty\l/tbb/src/test/test_queue\l_node.cpp">
<polygon fill="white" stroke="black" points="2812,-0.5 2812,-52.5 2970,-52.5 2970,-0.5 2812,-0.5"/>
<text text-anchor="start" x="2820" y="-40.5" font-family="Helvetica,sans-Serif" font-size="10.00">/home/travis/build</text>
<text text-anchor="start" x="2820" y="-29.5" font-family="Helvetica,sans-Serif" font-size="10.00">/ComPWA/ComPWA/ThirdParty</text>
<text text-anchor="start" x="2820" y="-18.5" font-family="Helvetica,sans-Serif" font-size="10.00">/tbb/src/test/test_queue</text>
<text text-anchor="middle" x="2891" y="-7.5" font-family="Helvetica,sans-Serif" font-size="10.00">_node.cpp</text>
</a>
</g>
</g>
<!-- Node7&#45;&gt;Node19 -->
<g id="edge18" class="edge"><title>Node7&#45;&gt;Node19</title>
<path fill="none" stroke="midnightblue" d="M2164.25,-92.4046C2169.88,-91.1022 2175.51,-89.9415 2181,-89 2453.92,-42.1712 2530.08,-99.8288 2803,-53 2805.82,-52.5158 2808.68,-51.9736 2811.56,-51.384"/>
<polygon fill="midnightblue" stroke="midnightblue" points="2163.01,-89.1036 2154.13,-94.8851 2164.68,-95.9021 2163.01,-89.1036"/>
</g>
<!-- Node20 -->
<g id="node20" class="node"><title>Node20</title>
<g id="a_node20"><a xlink:href="../../da/dcd/test__source__node_8cpp.html" target="_top" xlink:title="/home/travis/build\l/ComPWA/ComPWA/ThirdParty\l/tbb/src/test/test_source\l_node.cpp">
<polygon fill="white" stroke="black" points="2988,-0.5 2988,-52.5 3146,-52.5 3146,-0.5 2988,-0.5"/>
<text text-anchor="start" x="2996" y="-40.5" font-family="Helvetica,sans-Serif" font-size="10.00">/home/travis/build</text>
<text text-anchor="start" x="2996" y="-29.5" font-family="Helvetica,sans-Serif" font-size="10.00">/ComPWA/ComPWA/ThirdParty</text>
<text text-anchor="start" x="2996" y="-18.5" font-family="Helvetica,sans-Serif" font-size="10.00">/tbb/src/test/test_source</text>
<text text-anchor="middle" x="3067" y="-7.5" font-family="Helvetica,sans-Serif" font-size="10.00">_node.cpp</text>
</a>
</g>
</g>
<!-- Node7&#45;&gt;Node20 -->
<g id="edge19" class="edge"><title>Node7&#45;&gt;Node20</title>
<path fill="none" stroke="midnightblue" d="M2163.5,-92.4941C2169.38,-91.1406 2175.27,-89.9458 2181,-89 2531.29,-31.1885 2628.71,-110.811 2979,-53 2981.82,-52.5338 2984.69,-52.007 2987.57,-51.4306"/>
<polygon fill="midnightblue" stroke="midnightblue" points="2162.52,-89.1309 2153.64,-94.9059 2164.18,-95.9305 2162.52,-89.1309"/>
</g>
<!-- Node21 -->
<g id="node21" class="node"><title>Node21</title>
<g id="a_node21"><a xlink:href="../../d5/d6a/test__split__node_8cpp.html" target="_top" xlink:title="/home/travis/build\l/ComPWA/ComPWA/ThirdParty\l/tbb/src/test/test_split\l_node.cpp">
<polygon fill="white" stroke="black" points="3164,-0.5 3164,-52.5 3322,-52.5 3322,-0.5 3164,-0.5"/>
<text text-anchor="start" x="3172" y="-40.5" font-family="Helvetica,sans-Serif" font-size="10.00">/home/travis/build</text>
<text text-anchor="start" x="3172" y="-29.5" font-family="Helvetica,sans-Serif" font-size="10.00">/ComPWA/ComPWA/ThirdParty</text>
<text text-anchor="start" x="3172" y="-18.5" font-family="Helvetica,sans-Serif" font-size="10.00">/tbb/src/test/test_split</text>
<text text-anchor="middle" x="3243" y="-7.5" font-family="Helvetica,sans-Serif" font-size="10.00">_node.cpp</text>
</a>
</g>
</g>
<!-- Node7&#45;&gt;Node21 -->
<g id="edge20" class="edge"><title>Node7&#45;&gt;Node21</title>
<path fill="none" stroke="midnightblue" d="M2163.18,-92.5135C2169.17,-91.142 2175.16,-89.9387 2181,-89 2608.69,-20.2014 2727.31,-121.799 3155,-53 3157.83,-52.5453 3160.69,-52.0284 3163.57,-51.4604"/>
<polygon fill="midnightblue" stroke="midnightblue" points="2162.03,-89.1914 2153.15,-94.9632 2163.69,-95.9917 2162.03,-89.1914"/>
</g>
<!-- Node22 -->
<g id="node22" class="node"><title>Node22</title>
<g id="a_node22"><a xlink:href="../../d9/dc9/test__write__once__node_8cpp.html" target="_top" xlink:title="/home/travis/build\l/ComPWA/ComPWA/ThirdParty\l/tbb/src/test/test_write\l_once_node.cpp">
<polygon fill="white" stroke="black" points="3340,-0.5 3340,-52.5 3498,-52.5 3498,-0.5 3340,-0.5"/>
<text text-anchor="start" x="3348" y="-40.5" font-family="Helvetica,sans-Serif" font-size="10.00">/home/travis/build</text>
<text text-anchor="start" x="3348" y="-29.5" font-family="Helvetica,sans-Serif" font-size="10.00">/ComPWA/ComPWA/ThirdParty</text>
<text text-anchor="start" x="3348" y="-18.5" font-family="Helvetica,sans-Serif" font-size="10.00">/tbb/src/test/test_write</text>
<text text-anchor="middle" x="3419" y="-7.5" font-family="Helvetica,sans-Serif" font-size="10.00">_once_node.cpp</text>
</a>
</g>
</g>
<!-- Node7&#45;&gt;Node22 -->
<g id="edge21" class="edge"><title>Node7&#45;&gt;Node22</title>
<path fill="none" stroke="midnightblue" d="M2163.18,-92.4773C2169.17,-91.1138 2175.16,-89.9222 2181,-89 2686.1,-9.21186 2825.9,-132.788 3331,-53 3333.83,-52.5533 3336.69,-52.0433 3339.58,-51.4812"/>
<polygon fill="midnightblue" stroke="midnightblue" points="2162.03,-89.1539 2153.14,-94.917 2163.69,-95.9559 2162.03,-89.1539"/>
</g>
</g>
</svg>
        <g id="navigator" transform="translate(0 0)" fill="#404254">
                <rect fill="#f2f5e9" fill-opacity="0.5" stroke="#606060" stroke-width=".5" x="0" y="0" width="60" height="60"/>
                <use id="zoomplus" xlink:href="#zoomPlus" x="17" y="9" onmousedown="handleZoom(evt,'in')"/>
                <use id="zoomminus" xlink:href="#zoomMin" x="42" y="9" onmousedown="handleZoom(evt,'out')"/>
                <use id="reset" xlink:href="#resetDef" x="30" y="36" onmousedown="handleReset()"/>
                <g id="arrowUp" xlink:href="#dirArrow" transform="translate(30 24)" onmousedown="handlePan(0,-1)">
                  <use xlink:href="#rim" fill="#404040">
                        <set attributeName="fill" to="#808080" begin="arrowUp.mouseover" end="arrowUp.mouseout"/>
                  </use>
                  <path fill="none" stroke="white" stroke-width="1.5" d="M0,-3.0v7 M-2.5,-0.5L0,-3.0L2.5,-0.5"/>
                </g>
                <g id="arrowRight" xlink:href="#dirArrow" transform="rotate(90) translate(36 -43)" onmousedown="handlePan(1,0)">
                  <use xlink:href="#rim" fill="#404040">
                        <set attributeName="fill" to="#808080" begin="arrowRight.mouseover" end="arrowRight.mouseout"/>
                  </use>
                  <path fill="none" stroke="white" stroke-width="1.5" d="M0,-3.0v7 M-2.5,-0.5L0,-3.0L2.5,-0.5"/>
                </g>
                <g id="arrowDown" xlink:href="#dirArrow" transform="rotate(180) translate(-30 -48)" onmousedown="handlePan(0,1)">
                  <use xlink:href="#rim" fill="#404040">
                        <set attributeName="fill" to="#808080" begin="arrowDown.mouseover" end="arrowDown.mouseout"/>
                  </use>
                  <path fill="none" stroke="white" stroke-width="1.5" d="M0,-3.0v7 M-2.5,-0.5L0,-3.0L2.5,-0.5"/>
                </g>
                <g id="arrowLeft" xlink:href="#dirArrow" transform="rotate(270) translate(-36 17)" onmousedown="handlePan(-1,0)">
                  <use xlink:href="#rim" fill="#404040">
                        <set attributeName="fill" to="#808080" begin="arrowLeft.mouseover" end="arrowLeft.mouseout"/>
                  </use>
                  <path fill="none" stroke="white" stroke-width="1.5" d="M0,-3.0v7 M-2.5,-0.5L0,-3.0L2.5,-0.5"/>
                </g>
        </g>
        <svg viewBox="0 0 15 15" width="100%" height="30px" preserveAspectRatio="xMaxYMin meet">
         <g id="arrow_out" transform="scale(0.3 0.3)">
          <a xlink:href="concurrent__unordered__map_8h__dep__incl_org.svg" target="_base">
           <rect id="button" ry="5" rx="5" y="6" x="6" height="38" width="38"
                fill="#f2f5e9" fill-opacity="0.5" stroke="#606060" stroke-width="1.0"/>
           <path id="arrow"
             d="M 11.500037,31.436501 C 11.940474,20.09759 22.043105,11.32322 32.158766,21.979434 L 37.068811,17.246167 C 37.068811,17.246167 37.088388,32 37.088388,32 L 22.160133,31.978069 C 22.160133,31.978069 26.997745,27.140456 26.997745,27.140456 C 18.528582,18.264221 13.291696,25.230495 11.500037,31.436501 z"
             style="fill:#404040;"/>
          </a>
         </g>
        </svg>
</svg>
