<?xml version="1.0" encoding="UTF-8" standalone="no"?>
<!DOCTYPE svg PUBLIC "-//W3C//DTD SVG 1.1//EN"
 "http://www.w3.org/Graphics/SVG/1.1/DTD/svg11.dtd">
<!-- Generated by graphviz version 2.38.0 (20140413.2041)
 -->
<!-- Title: ThreadFunc Pages: 1 -->
<svg width="280pt" height="452pt"
 viewBox="0.00 0.00 279.50 452.00" xmlns="http://www.w3.org/2000/svg" xmlns:xlink="http://www.w3.org/1999/xlink">
<g id="graph0" class="graph" transform="scale(1 1) rotate(0) translate(4 448)">
<title>ThreadFunc</title>
<polygon fill="white" stroke="none" points="-4,4 -4,-448 275.5,-448 275.5,4 -4,4"/>
<!-- Node1 -->
<g id="node1" class="node"><title>Node1</title>
<polygon fill="#bfbfbf" stroke="black" points="37.5,-0.5 37.5,-101.5 123.5,-101.5 123.5,-0.5 37.5,-0.5"/>
<text text-anchor="middle" x="80.5" y="-89.5" font-family="Helvetica,sans-Serif" font-size="10.00">ThreadFunc</text>
<polyline fill="none" stroke="black" points="37.5,-82.5 123.5,-82.5 "/>
<text text-anchor="middle" x="80.5" y="-70.5" font-family="Helvetica,sans-Serif" font-size="10.00"> </text>
<polyline fill="none" stroke="black" points="37.5,-63.5 123.5,-63.5 "/>
<text text-anchor="start" x="45.5" y="-51.5" font-family="Helvetica,sans-Serif" font-size="10.00">+ operator()()</text>
<text text-anchor="start" x="45.5" y="-40.5" font-family="Helvetica,sans-Serif" font-size="10.00">+ operator()()</text>
<text text-anchor="start" x="45.5" y="-29.5" font-family="Helvetica,sans-Serif" font-size="10.00">+ operator()()</text>
<text text-anchor="start" x="45.5" y="-18.5" font-family="Helvetica,sans-Serif" font-size="10.00">+ operator()()</text>
<text text-anchor="start" x="45.5" y="-7.5" font-family="Helvetica,sans-Serif" font-size="10.00">&#45; ThreadFunc()</text>
</g>
<!-- Node2 -->
<g id="node2" class="node"><title>Node2</title>
<g id="a_node2"><a xlink:href="../../d9/de5/classBase.html" target="_top" xlink:title="{Base\n|# i\l&#45; copy_throws\l|+ Base()\l+ ~Base()\l+ GetInt()\l+ SetInt()\l# Base()\l# Base()\l# ~Base()\l&#45; operator=()\l}">
<polygon fill="white" stroke="black" points="0,-160.5 0,-305.5 83,-305.5 83,-160.5 0,-160.5"/>
<text text-anchor="middle" x="41.5" y="-293.5" font-family="Helvetica,sans-Serif" font-size="10.00">Base</text>
<polyline fill="none" stroke="black" points="0,-286.5 83,-286.5 "/>
<text text-anchor="start" x="8" y="-274.5" font-family="Helvetica,sans-Serif" font-size="10.00"># i</text>
<text text-anchor="start" x="8" y="-263.5" font-family="Helvetica,sans-Serif" font-size="10.00">&#45; copy_throws</text>
<polyline fill="none" stroke="black" points="0,-256.5 83,-256.5 "/>
<text text-anchor="start" x="8" y="-244.5" font-family="Helvetica,sans-Serif" font-size="10.00">+ Base()</text>
<text text-anchor="start" x="8" y="-233.5" font-family="Helvetica,sans-Serif" font-size="10.00">+ ~Base()</text>
<text text-anchor="start" x="8" y="-222.5" font-family="Helvetica,sans-Serif" font-size="10.00">+ GetInt()</text>
<text text-anchor="start" x="8" y="-211.5" font-family="Helvetica,sans-Serif" font-size="10.00">+ SetInt()</text>
<text text-anchor="start" x="8" y="-200.5" font-family="Helvetica,sans-Serif" font-size="10.00"># Base()</text>
<text text-anchor="start" x="8" y="-189.5" font-family="Helvetica,sans-Serif" font-size="10.00"># Base()</text>
<text text-anchor="start" x="8" y="-178.5" font-family="Helvetica,sans-Serif" font-size="10.00"># ~Base()</text>
<text text-anchor="start" x="8" y="-167.5" font-family="Helvetica,sans-Serif" font-size="10.00">&#45; operator=()</text>
</a>
</g>
</g>
<!-- Node2&#45;&gt;Node1 -->
<g id="edge1" class="edge"><title>Node2&#45;&gt;Node1</title>
<path fill="none" stroke="#8b1a1a" d="M59.145,-150.562C62.7674,-133.843 66.476,-116.726 69.7647,-101.548"/>
<polygon fill="none" stroke="#8b1a1a" points="55.7229,-149.828 57.0259,-160.342 62.5641,-151.31 55.7229,-149.828"/>
</g>
<!-- Node3 -->
<g id="node3" class="node"><title>Node3</title>
<g id="a_node3"><a xlink:href="../../d0/d34/classHarness_1_1SpinBarrier.html" target="_top" xlink:title="{Harness::SpinBarrier\n|&#45; numThreads\l&#45; throwaway\l|+ SpinBarrier()\l+ initialize()\l+ custom_wait()\l+ timed_wait_noerror()\l+ timed_wait()\l+ wait()\l+ wait()\l+ signal_nowait()\l&#45; SpinBarrier()\l&#45; operator=()\l}">
<polygon fill="white" stroke="black" points="101.5,-149.5 101.5,-316.5 229.5,-316.5 229.5,-149.5 101.5,-149.5"/>
<text text-anchor="middle" x="165.5" y="-304.5" font-family="Helvetica,sans-Serif" font-size="10.00">Harness::SpinBarrier</text>
<polyline fill="none" stroke="black" points="101.5,-297.5 229.5,-297.5 "/>
<text text-anchor="start" x="109.5" y="-285.5" font-family="Helvetica,sans-Serif" font-size="10.00">&#45; numThreads</text>
<text text-anchor="start" x="109.5" y="-274.5" font-family="Helvetica,sans-Serif" font-size="10.00">&#45; throwaway</text>
<polyline fill="none" stroke="black" points="101.5,-267.5 229.5,-267.5 "/>
<text text-anchor="start" x="109.5" y="-255.5" font-family="Helvetica,sans-Serif" font-size="10.00">+ SpinBarrier()</text>
<text text-anchor="start" x="109.5" y="-244.5" font-family="Helvetica,sans-Serif" font-size="10.00">+ initialize()</text>
<text text-anchor="start" x="109.5" y="-233.5" font-family="Helvetica,sans-Serif" font-size="10.00">+ custom_wait()</text>
<text text-anchor="start" x="109.5" y="-222.5" font-family="Helvetica,sans-Serif" font-size="10.00">+ timed_wait_noerror()</text>
<text text-anchor="start" x="109.5" y="-211.5" font-family="Helvetica,sans-Serif" font-size="10.00">+ timed_wait()</text>
<text text-anchor="start" x="109.5" y="-200.5" font-family="Helvetica,sans-Serif" font-size="10.00">+ wait()</text>
<text text-anchor="start" x="109.5" y="-189.5" font-family="Helvetica,sans-Serif" font-size="10.00">+ wait()</text>
<text text-anchor="start" x="109.5" y="-178.5" font-family="Helvetica,sans-Serif" font-size="10.00">+ signal_nowait()</text>
<text text-anchor="start" x="109.5" y="-167.5" font-family="Helvetica,sans-Serif" font-size="10.00">&#45; SpinBarrier()</text>
<text text-anchor="start" x="109.5" y="-156.5" font-family="Helvetica,sans-Serif" font-size="10.00">&#45; operator=()</text>
</a>
</g>
</g>
<!-- Node3&#45;&gt;Node1 -->
<g id="edge2" class="edge"><title>Node3&#45;&gt;Node1</title>
<path fill="none" stroke="#404040" d="M126.483,-149.375C120.629,-136.979 114.686,-124.394 109.103,-112.571"/>
<polygon fill="none" stroke="#404040" points="108.999,-112.351 102.82,-108.634 103.875,-101.5 110.054,-105.218 108.999,-112.351"/>
<text text-anchor="middle" x="143.5" y="-123" font-family="Helvetica,sans-Serif" font-size="10.00"> &#45;init_barrier</text>
</g>
<!-- Node4 -->
<g id="node4" class="node"><title>Node4</title>
<g id="a_node4"><a xlink:href="../../d4/d32/structtbb_1_1atomic.html" target="_top" xlink:title="{tbb::atomic\&lt; unsigned \&gt;\n||+ operator=()\l+ operator=()\l}">
<polygon fill="white" stroke="red" points="97,-375.5 97,-443.5 234,-443.5 234,-375.5 97,-375.5"/>
<text text-anchor="middle" x="165.5" y="-431.5" font-family="Helvetica,sans-Serif" font-size="10.00">tbb::atomic&lt; unsigned &gt;</text>
<polyline fill="none" stroke="red" points="97,-424.5 234,-424.5 "/>
<text text-anchor="middle" x="165.5" y="-412.5" font-family="Helvetica,sans-Serif" font-size="10.00"> </text>
<polyline fill="none" stroke="red" points="97,-405.5 234,-405.5 "/>
<text text-anchor="start" x="105" y="-393.5" font-family="Helvetica,sans-Serif" font-size="10.00">+ operator=()</text>
<text text-anchor="start" x="105" y="-382.5" font-family="Helvetica,sans-Serif" font-size="10.00">+ operator=()</text>
</a>
</g>
</g>
<!-- Node4&#45;&gt;Node3 -->
<g id="edge3" class="edge"><title>Node4&#45;&gt;Node3</title>
<path fill="none" stroke="#404040" d="M165.5,-375.267C165.5,-361.819 165.5,-345.549 165.5,-328.905"/>
<polygon fill="none" stroke="#404040" points="165.5,-328.754 161.5,-322.754 165.5,-316.754 169.5,-322.754 165.5,-328.754"/>
<text text-anchor="middle" x="218.5" y="-349" font-family="Helvetica,sans-Serif" font-size="10.00"> &#45;numThreadsFinished</text>
<text text-anchor="middle" x="218.5" y="-338" font-family="Helvetica,sans-Serif" font-size="10.00">&#45;epoch</text>
</g>
</g>
</svg>
