<?xml version="1.0" encoding="UTF-8" standalone="no"?>
<!DOCTYPE svg PUBLIC "-//W3C//DTD SVG 1.1//EN"
 "http://www.w3.org/Graphics/SVG/1.1/DTD/svg11.dtd">
<!-- Generated by graphviz version 2.38.0 (20140413.2041)
 -->
<!-- Title: MyInputFilter Pages: 1 -->
<!--zoomable 910 -->
<svg id="main" version="1.1" xmlns="http://www.w3.org/2000/svg" xmlns:xlink="http://www.w3.org/1999/xlink" xml:space="preserve" onload="init(evt)">
<style type="text/css"><![CDATA[
.edge:hover path { stroke: red; }
.edge:hover polygon { stroke: red; fill: red; }
]]></style>
<script type="text/javascript"><![CDATA[
var edges = document.getElementsByTagName('g');
if (edges && edges.length) {
  for (var i=0;i<edges.length;i++) {
    if (edges[i].id.substr(0,4)=='edge') {
      edges[i].setAttribute('class','edge');
    }
  }
}
]]></script>
        <defs>
                <circle id="rim" cx="0" cy="0" r="7"/>
                <circle id="rim2" cx="0" cy="0" r="3.5"/>
                <g id="zoomPlus">
                        <use xlink:href="#rim" fill="#404040">
                                <set attributeName="fill" to="#808080" begin="zoomplus.mouseover" end="zoomplus.mouseout"/>
                        </use>
                        <path d="M-4,0h8M0,-4v8" fill="none" stroke="white" stroke-width="1.5" pointer-events="none"/>
                </g>
                <g id="zoomMin">
                        <use xlink:href="#rim" fill="#404040">
                                <set attributeName="fill" to="#808080" begin="zoomminus.mouseover" end="zoomminus.mouseout"/>
                        </use>
                        <path d="M-4,0h8" fill="none" stroke="white" stroke-width="1.5" pointer-events="none"/>
                </g>
                <g id="dirArrow">
                        <path fill="none" stroke="white" stroke-width="1.5" d="M0,-3.0v7 M-2.5,-0.5L0,-3.0L2.5,-0.5"/>
                </g>
               <g id="resetDef">
                       <use xlink:href="#rim2" fill="#404040">
                               <set attributeName="fill" to="#808080" begin="reset.mouseover" end="reset.mouseout"/>
                       </use>
               </g>
        </defs>

<script type="text/javascript">
var viewWidth = 408;
var viewHeight = 910;
var sectionId = 'dynsection-1';
</script>
<script xlink:href="../../svgpan.js"/>
<svg id="graph" class="graph">
<g id="viewport">
<title>MyInputFilter</title>
<polygon fill="white" stroke="none" points="-4,4 -4,-906 404,-906 404,4 -4,4"/>
<!-- Node1 -->
<g id="node1" class="node"><title>Node1</title>
<polygon fill="#bfbfbf" stroke="black" points="206.5,-39 206.5,-118 310.5,-118 310.5,-39 206.5,-39"/>
<text text-anchor="middle" x="258.5" y="-106" font-family="Helvetica,sans-Serif" font-size="10.00">MyInputFilter</text>
<polyline fill="none" stroke="black" points="206.5,-99 310.5,-99 "/>
<text text-anchor="start" x="214.5" y="-87" font-family="Helvetica,sans-Serif" font-size="10.00">&#45; input_file</text>
<polyline fill="none" stroke="black" points="206.5,-80 310.5,-80 "/>
<text text-anchor="start" x="214.5" y="-68" font-family="Helvetica,sans-Serif" font-size="10.00">+ MyInputFilter()</text>
<text text-anchor="start" x="214.5" y="-57" font-family="Helvetica,sans-Serif" font-size="10.00">+ ~MyInputFilter()</text>
<text text-anchor="start" x="214.5" y="-46" font-family="Helvetica,sans-Serif" font-size="10.00">&#45; operator()()</text>
</g>
<!-- Node2 -->
<g id="node2" class="node"><title>Node2</title>
<g id="a_node2"><a xlink:href="../../d9/db1/classtbb_1_1filter.html" target="_top" xlink:title="A stage in a pipeline. ">
<polygon fill="white" stroke="black" points="0,-215.5 0,-470.5 169,-470.5 169,-215.5 0,-215.5"/>
<text text-anchor="middle" x="84.5" y="-458.5" font-family="Helvetica,sans-Serif" font-size="10.00">tbb::filter</text>
<polyline fill="none" stroke="black" points="0,-451.5 169,-451.5 "/>
<text text-anchor="start" x="8" y="-439.5" font-family="Helvetica,sans-Serif" font-size="10.00"># filter_is_serial</text>
<text text-anchor="start" x="8" y="-428.5" font-family="Helvetica,sans-Serif" font-size="10.00"># filter_is_out_of_order</text>
<text text-anchor="start" x="8" y="-417.5" font-family="Helvetica,sans-Serif" font-size="10.00"># filter_is_bound</text>
<text text-anchor="start" x="8" y="-406.5" font-family="Helvetica,sans-Serif" font-size="10.00"># filter_may_emit_null</text>
<text text-anchor="start" x="8" y="-395.5" font-family="Helvetica,sans-Serif" font-size="10.00"># exact_exception_propagation</text>
<text text-anchor="start" x="8" y="-384.5" font-family="Helvetica,sans-Serif" font-size="10.00"># current_version</text>
<text text-anchor="start" x="8" y="-373.5" font-family="Helvetica,sans-Serif" font-size="10.00"># version_mask</text>
<text text-anchor="start" x="8" y="-362.5" font-family="Helvetica,sans-Serif" font-size="10.00">&#45; my_filter_mode</text>
<polyline fill="none" stroke="black" points="0,-355.5 169,-355.5 "/>
<text text-anchor="start" x="8" y="-343.5" font-family="Helvetica,sans-Serif" font-size="10.00">+ is_serial()</text>
<text text-anchor="start" x="8" y="-332.5" font-family="Helvetica,sans-Serif" font-size="10.00">+ is_ordered()</text>
<text text-anchor="start" x="8" y="-321.5" font-family="Helvetica,sans-Serif" font-size="10.00">+ is_bound()</text>
<text text-anchor="start" x="8" y="-310.5" font-family="Helvetica,sans-Serif" font-size="10.00">+ object_may_be_null()</text>
<text text-anchor="start" x="8" y="-299.5" font-family="Helvetica,sans-Serif" font-size="10.00">+ operator()()</text>
<text text-anchor="start" x="8" y="-288.5" font-family="Helvetica,sans-Serif" font-size="10.00">+ ~filter()</text>
<text text-anchor="start" x="8" y="-277.5" font-family="Helvetica,sans-Serif" font-size="10.00">+ finalize()</text>
<text text-anchor="start" x="8" y="-266.5" font-family="Helvetica,sans-Serif" font-size="10.00"># filter()</text>
<text text-anchor="start" x="8" y="-255.5" font-family="Helvetica,sans-Serif" font-size="10.00"># filter()</text>
<text text-anchor="start" x="8" y="-244.5" font-family="Helvetica,sans-Serif" font-size="10.00"># set_end_of_input()</text>
<text text-anchor="start" x="8" y="-233.5" font-family="Helvetica,sans-Serif" font-size="10.00">&#45; has_more_work()</text>
<text text-anchor="start" x="8" y="-222.5" font-family="Helvetica,sans-Serif" font-size="10.00">&#45; not_in_pipeline()</text>
</a>
</g>
</g>
<!-- Node2&#45;&gt;Node1 -->
<g id="edge1" class="edge"><title>Node2&#45;&gt;Node1</title>
<path fill="none" stroke="midnightblue" d="M174.219,-206.649C195.76,-174.15 217.08,-141.987 232.887,-118.14"/>
<polygon fill="none" stroke="midnightblue" points="171.05,-205.095 168.442,-215.363 176.884,-208.962 171.05,-205.095"/>
</g>
<!-- Node2&#45;&gt;Node2 -->
<g id="edge7" class="edge"><title>Node2&#45;&gt;Node2</title>
<path fill="none" stroke="#404040" d="M169.336,-367.493C179.989,-363.176 187,-355.012 187,-343 187,-335.493 184.261,-329.488 179.606,-324.987"/>
<polygon fill="none" stroke="#404040" points="179.485,-324.91 172.276,-325.092 169.336,-318.507 176.544,-318.326 179.485,-324.91"/>
<text text-anchor="middle" x="242" y="-351.5" font-family="Helvetica,sans-Serif" font-size="10.00"> &#45;next_filter_in_pipeline</text>
<text text-anchor="middle" x="242" y="-340.5" font-family="Helvetica,sans-Serif" font-size="10.00">&#45;next_segment</text>
<text text-anchor="middle" x="242" y="-329.5" font-family="Helvetica,sans-Serif" font-size="10.00">&#45;prev_filter_in_pipeline</text>
</g>
<!-- Node4 -->
<g id="node4" class="node"><title>Node4</title>
<g id="a_node4"><a xlink:href="../../df/d13/classtbb_1_1pipeline.html" target="_top" xlink:title="A processing pipeline that applies filters to items. ">
<polygon fill="white" stroke="red" points="23.5,-0.5 23.5,-156.5 167.5,-156.5 167.5,-0.5 23.5,-0.5"/>
<text text-anchor="middle" x="95.5" y="-144.5" font-family="Helvetica,sans-Serif" font-size="10.00">tbb::pipeline</text>
<polyline fill="none" stroke="red" points="23.5,-137.5 167.5,-137.5 "/>
<text text-anchor="start" x="31.5" y="-125.5" font-family="Helvetica,sans-Serif" font-size="10.00">&#45; end_of_input</text>
<text text-anchor="start" x="31.5" y="-114.5" font-family="Helvetica,sans-Serif" font-size="10.00">&#45; has_thread_bound_filters</text>
<polyline fill="none" stroke="red" points="23.5,-107.5 167.5,-107.5 "/>
<text text-anchor="start" x="31.5" y="-95.5" font-family="Helvetica,sans-Serif" font-size="10.00">+ pipeline()</text>
<text text-anchor="start" x="31.5" y="-84.5" font-family="Helvetica,sans-Serif" font-size="10.00">+ ~pipeline()</text>
<text text-anchor="start" x="31.5" y="-73.5" font-family="Helvetica,sans-Serif" font-size="10.00">+ add_filter()</text>
<text text-anchor="start" x="31.5" y="-62.5" font-family="Helvetica,sans-Serif" font-size="10.00">+ run()</text>
<text text-anchor="start" x="31.5" y="-51.5" font-family="Helvetica,sans-Serif" font-size="10.00">+ run()</text>
<text text-anchor="start" x="31.5" y="-40.5" font-family="Helvetica,sans-Serif" font-size="10.00">+ clear()</text>
<text text-anchor="start" x="31.5" y="-29.5" font-family="Helvetica,sans-Serif" font-size="10.00">&#45; remove_filter()</text>
<text text-anchor="start" x="31.5" y="-18.5" font-family="Helvetica,sans-Serif" font-size="10.00">&#45; inject_token()</text>
<text text-anchor="start" x="31.5" y="-7.5" font-family="Helvetica,sans-Serif" font-size="10.00">&#45; clear_filters()</text>
</a>
</g>
</g>
<!-- Node2&#45;&gt;Node4 -->
<g id="edge4" class="edge"><title>Node2&#45;&gt;Node4</title>
<path fill="none" stroke="#404040" d="M41.1348,-215.19C40.3664,-201.614 41.2426,-188.014 44.5,-175 45.0733,-172.709 45.7132,-170.414 46.4116,-168.119"/>
<polygon fill="none" stroke="#404040" points="46.4443,-168.024 44.6187,-161.048 50.3561,-156.679 52.1817,-163.656 46.4443,-168.024"/>
<text text-anchor="middle" x="70.5" y="-189" font-family="Helvetica,sans-Serif" font-size="10.00"> &#45;filter_end</text>
<text text-anchor="middle" x="70.5" y="-178" font-family="Helvetica,sans-Serif" font-size="10.00">&#45;filter_list</text>
</g>
<!-- Node3 -->
<g id="node3" class="node"><title>Node3</title>
<polygon fill="white" stroke="#bfbfbf" points="72.5,-844.5 72.5,-901.5 128.5,-901.5 128.5,-844.5 72.5,-844.5"/>
<text text-anchor="middle" x="100.5" y="-889.5" font-family="Helvetica,sans-Serif" font-size="10.00">no_copy</text>
<polyline fill="none" stroke="#bfbfbf" points="72.5,-882.5 128.5,-882.5 "/>
<text text-anchor="middle" x="100.5" y="-870.5" font-family="Helvetica,sans-Serif" font-size="10.00"> </text>
<polyline fill="none" stroke="#bfbfbf" points="72.5,-863.5 128.5,-863.5 "/>
<text text-anchor="middle" x="100.5" y="-851.5" font-family="Helvetica,sans-Serif" font-size="10.00"> </text>
</g>
<!-- Node3&#45;&gt;Node2 -->
<g id="edge2" class="edge"><title>Node3&#45;&gt;Node2</title>
<path fill="none" stroke="#8b1a1a" d="M91.7412,-834.538C89.9959,-825.567 88.4189,-815.983 87.5,-807 75.905,-693.648 76.2307,-563.87 78.8309,-470.611"/>
<polygon fill="none" stroke="#8b1a1a" points="88.3148,-835.252 93.7571,-844.342 95.1713,-833.842 88.3148,-835.252"/>
</g>
<!-- Node5 -->
<g id="node5" class="node"><title>Node5</title>
<g id="a_node5"><a xlink:href="../../d9/ddd/classtbb_1_1internal_1_1input__buffer.html" target="_top" xlink:title="A buffer of input items for a filter. ">
<polygon fill="white" stroke="red" points="96.5,-518.5 96.5,-806.5 250.5,-806.5 250.5,-518.5 96.5,-518.5"/>
<text text-anchor="start" x="104.5" y="-794.5" font-family="Helvetica,sans-Serif" font-size="10.00">tbb::internal::input</text>
<text text-anchor="middle" x="173.5" y="-783.5" font-family="Helvetica,sans-Serif" font-size="10.00">_buffer</text>
<polyline fill="none" stroke="red" points="96.5,-776.5 250.5,-776.5 "/>
<text text-anchor="start" x="104.5" y="-764.5" font-family="Helvetica,sans-Serif" font-size="10.00">&#45; array_size</text>
<text text-anchor="start" x="104.5" y="-753.5" font-family="Helvetica,sans-Serif" font-size="10.00">&#45; low_token</text>
<text text-anchor="start" x="104.5" y="-742.5" font-family="Helvetica,sans-Serif" font-size="10.00">&#45; high_token</text>
<text text-anchor="start" x="104.5" y="-731.5" font-family="Helvetica,sans-Serif" font-size="10.00">&#45; is_ordered</text>
<text text-anchor="start" x="104.5" y="-720.5" font-family="Helvetica,sans-Serif" font-size="10.00">&#45; is_bound</text>
<text text-anchor="start" x="104.5" y="-709.5" font-family="Helvetica,sans-Serif" font-size="10.00">&#45; end_of_input_tls_allocated</text>
<text text-anchor="start" x="104.5" y="-698.5" font-family="Helvetica,sans-Serif" font-size="10.00">&#45; initial_buffer_size</text>
<polyline fill="none" stroke="red" points="96.5,-691.5 250.5,-691.5 "/>
<text text-anchor="start" x="104.5" y="-679.5" font-family="Helvetica,sans-Serif" font-size="10.00">+ input_buffer()</text>
<text text-anchor="start" x="104.5" y="-668.5" font-family="Helvetica,sans-Serif" font-size="10.00">+ ~input_buffer()</text>
<text text-anchor="start" x="104.5" y="-657.5" font-family="Helvetica,sans-Serif" font-size="10.00">+ put_token()</text>
<text text-anchor="start" x="104.5" y="-646.5" font-family="Helvetica,sans-Serif" font-size="10.00">+ note_done()</text>
<text text-anchor="start" x="104.5" y="-635.5" font-family="Helvetica,sans-Serif" font-size="10.00">+ return_item()</text>
<text text-anchor="start" x="104.5" y="-624.5" font-family="Helvetica,sans-Serif" font-size="10.00">+ has_item()</text>
<text text-anchor="start" x="104.5" y="-613.5" font-family="Helvetica,sans-Serif" font-size="10.00">+ create_my_tls()</text>
<text text-anchor="start" x="104.5" y="-602.5" font-family="Helvetica,sans-Serif" font-size="10.00">+ destroy_my_tls()</text>
<text text-anchor="start" x="104.5" y="-591.5" font-family="Helvetica,sans-Serif" font-size="10.00">+ my_tls_end_of_input()</text>
<text text-anchor="start" x="104.5" y="-580.5" font-family="Helvetica,sans-Serif" font-size="10.00">+ set_my_tls_end_of_input()</text>
<text text-anchor="start" x="104.5" y="-569.5" font-family="Helvetica,sans-Serif" font-size="10.00">&#45; grow()</text>
<text text-anchor="start" x="104.5" y="-558.5" font-family="Helvetica,sans-Serif" font-size="10.00">&#45; create_sema()</text>
<text text-anchor="start" x="104.5" y="-547.5" font-family="Helvetica,sans-Serif" font-size="10.00">&#45; free_sema()</text>
<text text-anchor="start" x="104.5" y="-536.5" font-family="Helvetica,sans-Serif" font-size="10.00">&#45; sema_P()</text>
<text text-anchor="start" x="104.5" y="-525.5" font-family="Helvetica,sans-Serif" font-size="10.00">&#45; sema_V()</text>
</a>
</g>
</g>
<!-- Node3&#45;&gt;Node5 -->
<g id="edge6" class="edge"><title>Node3&#45;&gt;Node5</title>
<path fill="none" stroke="#8b1a1a" d="M113.522,-834.806C116.509,-826.277 119.859,-816.707 123.41,-806.566"/>
<polygon fill="none" stroke="#8b1a1a" points="110.195,-833.718 110.194,-844.313 116.802,-836.031 110.195,-833.718"/>
</g>
<!-- Node4&#45;&gt;Node2 -->
<g id="edge3" class="edge"><title>Node4&#45;&gt;Node2</title>
<path fill="none" stroke="#404040" d="M99.8849,-156.628C100.132,-162.842 100.344,-169.025 100.5,-175 100.741,-184.212 100.678,-193.699 100.382,-203.25"/>
<polygon fill="none" stroke="#404040" points="100.377,-203.379 104.13,-209.536 99.8892,-215.369 96.1366,-209.211 100.377,-203.379"/>
<text text-anchor="middle" x="133.5" y="-183.5" font-family="Helvetica,sans-Serif" font-size="10.00"> &#45;my_pipeline</text>
</g>
<!-- Node5&#45;&gt;Node2 -->
<g id="edge5" class="edge"><title>Node5&#45;&gt;Node2</title>
<path fill="none" stroke="#404040" d="M133.296,-518.077C129.98,-506.244 126.631,-494.298 123.324,-482.502"/>
<polygon fill="none" stroke="#404040" points="123.274,-482.322 117.803,-477.625 120.035,-470.768 125.506,-475.465 123.274,-482.322"/>
<text text-anchor="middle" x="169" y="-492" font-family="Helvetica,sans-Serif" font-size="10.00"> &#45;my_input_buffer</text>
</g>
<!-- Node6 -->
<g id="node6" class="node"><title>Node6</title>
<g id="a_node6"><a xlink:href="../../de/d0e/classTextSlice.html" target="_top" xlink:title="Holds a slice of text. ">
<polygon fill="white" stroke="black" points="315,-270.5 315,-415.5 400,-415.5 400,-270.5 315,-270.5"/>
<text text-anchor="middle" x="357.5" y="-403.5" font-family="Helvetica,sans-Serif" font-size="10.00">TextSlice</text>
<polyline fill="none" stroke="black" points="315,-396.5 400,-396.5 "/>
<text text-anchor="start" x="323" y="-384.5" font-family="Helvetica,sans-Serif" font-size="10.00">&#45; logical_end</text>
<text text-anchor="start" x="323" y="-373.5" font-family="Helvetica,sans-Serif" font-size="10.00">&#45; physical_end</text>
<polyline fill="none" stroke="black" points="315,-366.5 400,-366.5 "/>
<text text-anchor="start" x="323" y="-354.5" font-family="Helvetica,sans-Serif" font-size="10.00">+ free()</text>
<text text-anchor="start" x="323" y="-343.5" font-family="Helvetica,sans-Serif" font-size="10.00">+ begin()</text>
<text text-anchor="start" x="323" y="-332.5" font-family="Helvetica,sans-Serif" font-size="10.00">+ end()</text>
<text text-anchor="start" x="323" y="-321.5" font-family="Helvetica,sans-Serif" font-size="10.00">+ size()</text>
<text text-anchor="start" x="323" y="-310.5" font-family="Helvetica,sans-Serif" font-size="10.00">+ avail()</text>
<text text-anchor="start" x="323" y="-299.5" font-family="Helvetica,sans-Serif" font-size="10.00">+ append()</text>
<text text-anchor="start" x="323" y="-288.5" font-family="Helvetica,sans-Serif" font-size="10.00">+ set_end()</text>
<text text-anchor="start" x="323" y="-277.5" font-family="Helvetica,sans-Serif" font-size="10.00">+ allocate()</text>
</a>
</g>
</g>
<!-- Node6&#45;&gt;Node1 -->
<g id="edge8" class="edge"><title>Node6&#45;&gt;Node1</title>
<path fill="none" stroke="#404040" d="M330.448,-270.271C313.617,-225.645 292.394,-169.371 277.372,-129.539"/>
<polygon fill="none" stroke="#404040" points="277.349,-129.478 271.489,-125.276 273.114,-118.25 278.974,-122.453 277.349,-129.478"/>
<text text-anchor="middle" x="329" y="-183.5" font-family="Helvetica,sans-Serif" font-size="10.00"> &#45;next_slice</text>
</g>
</g>
</svg>
        <g id="navigator" transform="translate(0 0)" fill="#404254">
                <rect fill="#f2f5e9" fill-opacity="0.5" stroke="#606060" stroke-width=".5" x="0" y="0" width="60" height="60"/>
                <use id="zoomplus" xlink:href="#zoomPlus" x="17" y="9" onmousedown="handleZoom(evt,'in')"/>
                <use id="zoomminus" xlink:href="#zoomMin" x="42" y="9" onmousedown="handleZoom(evt,'out')"/>
                <use id="reset" xlink:href="#resetDef" x="30" y="36" onmousedown="handleReset()"/>
                <g id="arrowUp" xlink:href="#dirArrow" transform="translate(30 24)" onmousedown="handlePan(0,-1)">
                  <use xlink:href="#rim" fill="#404040">
                        <set attributeName="fill" to="#808080" begin="arrowUp.mouseover" end="arrowUp.mouseout"/>
                  </use>
                  <path fill="none" stroke="white" stroke-width="1.5" d="M0,-3.0v7 M-2.5,-0.5L0,-3.0L2.5,-0.5"/>
                </g>
                <g id="arrowRight" xlink:href="#dirArrow" transform="rotate(90) translate(36 -43)" onmousedown="handlePan(1,0)">
                  <use xlink:href="#rim" fill="#404040">
                        <set attributeName="fill" to="#808080" begin="arrowRight.mouseover" end="arrowRight.mouseout"/>
                  </use>
                  <path fill="none" stroke="white" stroke-width="1.5" d="M0,-3.0v7 M-2.5,-0.5L0,-3.0L2.5,-0.5"/>
                </g>
                <g id="arrowDown" xlink:href="#dirArrow" transform="rotate(180) translate(-30 -48)" onmousedown="handlePan(0,1)">
                  <use xlink:href="#rim" fill="#404040">
                        <set attributeName="fill" to="#808080" begin="arrowDown.mouseover" end="arrowDown.mouseout"/>
                  </use>
                  <path fill="none" stroke="white" stroke-width="1.5" d="M0,-3.0v7 M-2.5,-0.5L0,-3.0L2.5,-0.5"/>
                </g>
                <g id="arrowLeft" xlink:href="#dirArrow" transform="rotate(270) translate(-36 17)" onmousedown="handlePan(-1,0)">
                  <use xlink:href="#rim" fill="#404040">
                        <set attributeName="fill" to="#808080" begin="arrowLeft.mouseover" end="arrowLeft.mouseout"/>
                  </use>
                  <path fill="none" stroke="white" stroke-width="1.5" d="M0,-3.0v7 M-2.5,-0.5L0,-3.0L2.5,-0.5"/>
                </g>
        </g>
        <svg viewBox="0 0 15 15" width="100%" height="30px" preserveAspectRatio="xMaxYMin meet">
         <g id="arrow_out" transform="scale(0.3 0.3)">
          <a xlink:href="classMyInputFilter__coll__graph_org.svg" target="_base">
           <rect id="button" ry="5" rx="5" y="6" x="6" height="38" width="38"
                fill="#f2f5e9" fill-opacity="0.5" stroke="#606060" stroke-width="1.0"/>
           <path id="arrow"
             d="M 11.500037,31.436501 C 11.940474,20.09759 22.043105,11.32322 32.158766,21.979434 L 37.068811,17.246167 C 37.068811,17.246167 37.088388,32 37.088388,32 L 22.160133,31.978069 C 22.160133,31.978069 26.997745,27.140456 26.997745,27.140456 C 18.528582,18.264221 13.291696,25.230495 11.500037,31.436501 z"
             style="fill:#404040;"/>
          </a>
         </g>
        </svg>
</svg>
