<?xml version="1.0" encoding="UTF-8" standalone="no"?>
<!DOCTYPE svg PUBLIC "-//W3C//DTD SVG 1.1//EN"
 "http://www.w3.org/Graphics/SVG/1.1/DTD/svg11.dtd">
<!-- Generated by graphviz version 2.38.0 (20140413.2041)
 -->
<!-- Title: tbb::internal::unpadded_mail_outbox Pages: 1 -->
<svg width="230pt" height="430pt"
 viewBox="0.00 0.00 230.00 430.00" xmlns="http://www.w3.org/2000/svg" xmlns:xlink="http://www.w3.org/1999/xlink">
<g id="graph0" class="graph" transform="scale(1 1) rotate(0) translate(4 426)">
<title>tbb::internal::unpadded_mail_outbox</title>
<polygon fill="white" stroke="none" points="-4,4 -4,-426 226,-426 226,4 -4,4"/>
<!-- Node1 -->
<g id="node1" class="node"><title>Node1</title>
<polygon fill="#bfbfbf" stroke="black" points="0.5,-0.5 0.5,-79.5 128.5,-79.5 128.5,-0.5 0.5,-0.5"/>
<text text-anchor="start" x="8.5" y="-67.5" font-family="Helvetica,sans-Serif" font-size="10.00">tbb::internal::unpadded</text>
<text text-anchor="middle" x="64.5" y="-56.5" font-family="Helvetica,sans-Serif" font-size="10.00">_mail_outbox</text>
<polyline fill="none" stroke="black" points="0.5,-49.5 128.5,-49.5 "/>
<text text-anchor="start" x="8.5" y="-37.5" font-family="Helvetica,sans-Serif" font-size="10.00"># my_last</text>
<text text-anchor="start" x="8.5" y="-26.5" font-family="Helvetica,sans-Serif" font-size="10.00"># my_is_idle</text>
<polyline fill="none" stroke="black" points="0.5,-19.5 128.5,-19.5 "/>
<text text-anchor="middle" x="64.5" y="-7.5" font-family="Helvetica,sans-Serif" font-size="10.00"> </text>
</g>
<!-- Node2 -->
<g id="node2" class="node"><title>Node2</title>
<g id="a_node2"><a xlink:href="../../dc/db1/structtbb_1_1internal_1_1task__proxy.html" target="_top" xlink:title="{tbb::internal::task\l_proxy\n|+ task_and_tag\l+ pool_bit\l+ mailbox_bit\l+ location_mask\l|+ extract_task()\l+ is_shared()\l+ task_ptr()\l}">
<polygon fill="white" stroke="black" points="14,-127.5 14,-250.5 115,-250.5 115,-127.5 14,-127.5"/>
<text text-anchor="start" x="22" y="-238.5" font-family="Helvetica,sans-Serif" font-size="10.00">tbb::internal::task</text>
<text text-anchor="middle" x="64.5" y="-227.5" font-family="Helvetica,sans-Serif" font-size="10.00">_proxy</text>
<polyline fill="none" stroke="black" points="14,-220.5 115,-220.5 "/>
<text text-anchor="start" x="22" y="-208.5" font-family="Helvetica,sans-Serif" font-size="10.00">+ task_and_tag</text>
<text text-anchor="start" x="22" y="-197.5" font-family="Helvetica,sans-Serif" font-size="10.00">+ pool_bit</text>
<text text-anchor="start" x="22" y="-186.5" font-family="Helvetica,sans-Serif" font-size="10.00">+ mailbox_bit</text>
<text text-anchor="start" x="22" y="-175.5" font-family="Helvetica,sans-Serif" font-size="10.00">+ location_mask</text>
<polyline fill="none" stroke="black" points="14,-168.5 115,-168.5 "/>
<text text-anchor="start" x="22" y="-156.5" font-family="Helvetica,sans-Serif" font-size="10.00">+ extract_task()</text>
<text text-anchor="start" x="22" y="-145.5" font-family="Helvetica,sans-Serif" font-size="10.00">+ is_shared()</text>
<text text-anchor="start" x="22" y="-134.5" font-family="Helvetica,sans-Serif" font-size="10.00">+ task_ptr()</text>
</a>
</g>
</g>
<!-- Node2&#45;&gt;Node1 -->
<g id="edge1" class="edge"><title>Node2&#45;&gt;Node1</title>
<path fill="none" stroke="#404040" d="M64.5,-127.361C64.5,-115.512 64.5,-103.204 64.5,-91.719"/>
<polygon fill="none" stroke="#404040" points="64.5001,-91.6405 60.5,-85.6406 64.5,-79.6405 68.5,-85.6405 64.5001,-91.6405"/>
<text text-anchor="middle" x="89.5" y="-101" font-family="Helvetica,sans-Serif" font-size="10.00"> #my_first</text>
</g>
<!-- Node2&#45;&gt;Node2 -->
<g id="edge3" class="edge"><title>Node2&#45;&gt;Node2</title>
<path fill="none" stroke="#404040" d="M115.284,-204.149C125.607,-202.499 133,-197.449 133,-189 133,-184.247 130.661,-180.57 126.777,-177.969"/>
<polygon fill="none" stroke="#404040" points="126.581,-177.899 119.583,-179.64 115.284,-173.851 122.282,-172.109 126.581,-177.899"/>
<text text-anchor="middle" x="177.5" y="-186.5" font-family="Helvetica,sans-Serif" font-size="10.00"> +next_in_mailbox</text>
</g>
<!-- Node3 -->
<g id="node3" class="node"><title>Node3</title>
<polygon fill="white" stroke="#bfbfbf" points="0,-331.5 0,-388.5 37,-388.5 37,-331.5 0,-331.5"/>
<text text-anchor="middle" x="18.5" y="-376.5" font-family="Helvetica,sans-Serif" font-size="10.00">task</text>
<polyline fill="none" stroke="#bfbfbf" points="0,-369.5 37,-369.5 "/>
<text text-anchor="middle" x="18.5" y="-357.5" font-family="Helvetica,sans-Serif" font-size="10.00"> </text>
<polyline fill="none" stroke="#bfbfbf" points="0,-350.5 37,-350.5 "/>
<text text-anchor="middle" x="18.5" y="-338.5" font-family="Helvetica,sans-Serif" font-size="10.00"> </text>
</g>
<!-- Node3&#45;&gt;Node2 -->
<g id="edge2" class="edge"><title>Node3&#45;&gt;Node2</title>
<path fill="none" stroke="midnightblue" d="M28.6384,-321.752C34.2979,-300.96 41.4886,-274.542 47.943,-250.829"/>
<polygon fill="none" stroke="midnightblue" points="25.2424,-320.903 25.9931,-331.471 31.9966,-322.741 25.2424,-320.903"/>
</g>
<!-- Node4 -->
<g id="node4" class="node"><title>Node4</title>
<g id="a_node4"><a xlink:href="../../df/d5b/classtbb_1_1internal_1_1mail__outbox.html" target="_top" xlink:title="Class representing where mail is put. ">
<polygon fill="white" stroke="red" points="55,-298.5 55,-421.5 166,-421.5 166,-298.5 55,-298.5"/>
<text text-anchor="start" x="63" y="-409.5" font-family="Helvetica,sans-Serif" font-size="10.00">tbb::internal::mail</text>
<text text-anchor="middle" x="110.5" y="-398.5" font-family="Helvetica,sans-Serif" font-size="10.00">_outbox</text>
<polyline fill="none" stroke="red" points="55,-391.5 166,-391.5 "/>
<text text-anchor="middle" x="110.5" y="-379.5" font-family="Helvetica,sans-Serif" font-size="10.00"> </text>
<polyline fill="none" stroke="red" points="55,-372.5 166,-372.5 "/>
<text text-anchor="start" x="63" y="-360.5" font-family="Helvetica,sans-Serif" font-size="10.00">+ push()</text>
<text text-anchor="start" x="63" y="-349.5" font-family="Helvetica,sans-Serif" font-size="10.00">+ empty()</text>
<text text-anchor="start" x="63" y="-338.5" font-family="Helvetica,sans-Serif" font-size="10.00">+ construct()</text>
<text text-anchor="start" x="63" y="-327.5" font-family="Helvetica,sans-Serif" font-size="10.00">+ drain()</text>
<text text-anchor="start" x="63" y="-316.5" font-family="Helvetica,sans-Serif" font-size="10.00">+ recipient_is_idle()</text>
<text text-anchor="start" x="63" y="-305.5" font-family="Helvetica,sans-Serif" font-size="10.00">&#45; internal_pop()</text>
</a>
</g>
</g>
<!-- Node4&#45;&gt;Node2 -->
<g id="edge4" class="edge"><title>Node4&#45;&gt;Node2</title>
<path fill="none" stroke="#404040" d="M94.0229,-298.464C90.852,-286.815 87.5007,-274.503 84.2388,-262.519"/>
<polygon fill="none" stroke="#404040" points="84.1684,-262.26 78.733,-257.521 81.0167,-250.681 86.4521,-255.42 84.1684,-262.26"/>
<text text-anchor="middle" x="111" y="-272" font-family="Helvetica,sans-Serif" font-size="10.00"> +outbox</text>
</g>
</g>
</svg>
