<?xml version="1.0" encoding="UTF-8" standalone="no"?>
<!DOCTYPE svg PUBLIC "-//W3C//DTD SVG 1.1//EN"
 "http://www.w3.org/Graphics/SVG/1.1/DTD/svg11.dtd">
<!-- Generated by graphviz version 2.38.0 (20140413.2041)
 -->
<!-- Title: /home/travis/build/ComPWA/ComPWA/ThirdParty/EvtGen/EvtdFunctionSingle.cpp Pages: 1 -->
<svg width="521pt" height="106pt"
 viewBox="0.00 0.00 521.00 106.00" xmlns="http://www.w3.org/2000/svg" xmlns:xlink="http://www.w3.org/1999/xlink">
<g id="graph0" class="graph" transform="scale(1 1) rotate(0) translate(4 102)">
<title>/home/travis/build/ComPWA/ComPWA/ThirdParty/EvtGen/EvtdFunctionSingle.cpp</title>
<polygon fill="white" stroke="none" points="-4,4 -4,-102 517,-102 517,4 -4,4"/>
<!-- Node1 -->
<g id="node1" class="node"><title>Node1</title>
<polygon fill="#bfbfbf" stroke="black" points="148.5,-56.5 148.5,-97.5 315.5,-97.5 315.5,-56.5 148.5,-56.5"/>
<text text-anchor="start" x="156.5" y="-85.5" font-family="Helvetica,sans-Serif" font-size="10.00">/home/travis/build</text>
<text text-anchor="start" x="156.5" y="-74.5" font-family="Helvetica,sans-Serif" font-size="10.00">/ComPWA/ComPWA/ThirdParty</text>
<text text-anchor="middle" x="232" y="-63.5" font-family="Helvetica,sans-Serif" font-size="10.00">/EvtGen/EvtdFunctionSingle.cpp</text>
</g>
<!-- Node2 -->
<g id="node2" class="node"><title>Node2</title>
<g id="a_node2"><a xlink:href="../../df/ddd/EvtPatches_8hh.html" target="_top" xlink:title="EvtPatches.hh">
<polygon fill="white" stroke="black" points="0,-0.5 0,-19.5 84,-19.5 84,-0.5 0,-0.5"/>
<text text-anchor="middle" x="42" y="-7.5" font-family="Helvetica,sans-Serif" font-size="10.00">EvtPatches.hh</text>
</a>
</g>
</g>
<!-- Node1&#45;&gt;Node2 -->
<g id="edge1" class="edge"><title>Node1&#45;&gt;Node2</title>
<path fill="none" stroke="midnightblue" d="M174.994,-56.4979C143.062,-45.5739 104.274,-32.3043 76.8483,-22.9218"/>
<polygon fill="midnightblue" stroke="midnightblue" points="77.8865,-19.5779 67.2919,-19.6525 75.6206,-26.201 77.8865,-19.5779"/>
</g>
<!-- Node3 -->
<g id="node3" class="node"><title>Node3</title>
<polygon fill="white" stroke="#bfbfbf" points="101.5,-0.5 101.5,-19.5 152.5,-19.5 152.5,-0.5 101.5,-0.5"/>
<text text-anchor="middle" x="127" y="-7.5" font-family="Helvetica,sans-Serif" font-size="10.00">stdlib.h</text>
</g>
<!-- Node1&#45;&gt;Node3 -->
<g id="edge2" class="edge"><title>Node1&#45;&gt;Node3</title>
<path fill="none" stroke="midnightblue" d="M200.497,-56.4979C184.088,-46.3405 164.404,-34.1551 149.538,-24.9523"/>
<polygon fill="midnightblue" stroke="midnightblue" points="151.322,-21.9402 140.977,-19.6525 147.638,-27.892 151.322,-21.9402"/>
</g>
<!-- Node4 -->
<g id="node4" class="node"><title>Node4</title>
<polygon fill="white" stroke="#bfbfbf" points="170.5,-0.5 170.5,-19.5 221.5,-19.5 221.5,-0.5 170.5,-0.5"/>
<text text-anchor="middle" x="196" y="-7.5" font-family="Helvetica,sans-Serif" font-size="10.00">math.h</text>
</g>
<!-- Node1&#45;&gt;Node4 -->
<g id="edge3" class="edge"><title>Node1&#45;&gt;Node4</title>
<path fill="none" stroke="midnightblue" d="M221.199,-56.4979C216.263,-47.5862 210.463,-37.1135 205.672,-28.4636"/>
<polygon fill="midnightblue" stroke="midnightblue" points="208.699,-26.7046 200.792,-19.6525 202.575,-30.0962 208.699,-26.7046"/>
</g>
<!-- Node5 -->
<g id="node5" class="node"><title>Node5</title>
<polygon fill="white" stroke="#bfbfbf" points="239.5,-0.5 239.5,-19.5 298.5,-19.5 298.5,-0.5 239.5,-0.5"/>
<text text-anchor="middle" x="269" y="-7.5" font-family="Helvetica,sans-Serif" font-size="10.00">iostream</text>
</g>
<!-- Node1&#45;&gt;Node5 -->
<g id="edge4" class="edge"><title>Node1&#45;&gt;Node5</title>
<path fill="none" stroke="midnightblue" d="M243.101,-56.4979C248.174,-47.5862 254.135,-37.1135 259.059,-28.4636"/>
<polygon fill="midnightblue" stroke="midnightblue" points="262.169,-30.0746 264.075,-19.6525 256.086,-26.6117 262.169,-30.0746"/>
</g>
<!-- Node6 -->
<g id="node6" class="node"><title>Node6</title>
<polygon fill="white" stroke="#bfbfbf" points="317,-0.5 317,-19.5 373,-19.5 373,-0.5 317,-0.5"/>
<text text-anchor="middle" x="345" y="-7.5" font-family="Helvetica,sans-Serif" font-size="10.00">assert.h</text>
</g>
<!-- Node1&#45;&gt;Node6 -->
<g id="edge5" class="edge"><title>Node1&#45;&gt;Node6</title>
<path fill="none" stroke="midnightblue" d="M265.904,-56.4979C283.729,-46.2447 305.146,-33.925 321.196,-24.6927"/>
<polygon fill="midnightblue" stroke="midnightblue" points="323.035,-27.6726 329.958,-19.6525 319.545,-21.6048 323.035,-27.6726"/>
</g>
<!-- Node7 -->
<g id="node7" class="node"><title>Node7</title>
<g id="a_node7"><a xlink:href="../../d2/dad/EvtdFunctionSingle_8hh.html" target="_top" xlink:title="EvtdFunctionSingle.hh">
<polygon fill="white" stroke="black" points="391,-0.5 391,-19.5 513,-19.5 513,-0.5 391,-0.5"/>
<text text-anchor="middle" x="452" y="-7.5" font-family="Helvetica,sans-Serif" font-size="10.00">EvtdFunctionSingle.hh</text>
</a>
</g>
</g>
<!-- Node1&#45;&gt;Node7 -->
<g id="edge6" class="edge"><title>Node1&#45;&gt;Node7</title>
<path fill="none" stroke="midnightblue" d="M298.007,-56.4979C335.581,-45.3964 381.355,-31.8725 413.187,-22.4676"/>
<polygon fill="midnightblue" stroke="midnightblue" points="414.405,-25.7572 423.004,-19.5671 412.422,-19.044 414.405,-25.7572"/>
</g>
</g>
</svg>
