<?xml version="1.0" encoding="UTF-8" standalone="no"?>
<!DOCTYPE svg PUBLIC "-//W3C//DTD SVG 1.1//EN"
 "http://www.w3.org/Graphics/SVG/1.1/DTD/svg11.dtd">
<!-- Generated by graphviz version 2.38.0 (20140413.2041)
 -->
<!-- Title: ProduceConsumeBody Pages: 1 -->
<svg width="397pt" height="430pt"
 viewBox="0.00 0.00 396.50 430.00" xmlns="http://www.w3.org/2000/svg" xmlns:xlink="http://www.w3.org/1999/xlink">
<g id="graph0" class="graph" transform="scale(1 1) rotate(0) translate(4 426)">
<title>ProduceConsumeBody</title>
<polygon fill="white" stroke="none" points="-4,4 -4,-426 392.5,-426 392.5,4 -4,4"/>
<!-- Node1 -->
<g id="node1" class="node"><title>Node1</title>
<polygon fill="#bfbfbf" stroke="black" points="94,-0.5 94,-68.5 238,-68.5 238,-0.5 94,-0.5"/>
<text text-anchor="middle" x="166" y="-56.5" font-family="Helvetica,sans-Serif" font-size="10.00">ProduceConsumeBody</text>
<polyline fill="none" stroke="black" points="94,-49.5 238,-49.5 "/>
<text text-anchor="middle" x="166" y="-37.5" font-family="Helvetica,sans-Serif" font-size="10.00"> </text>
<polyline fill="none" stroke="black" points="94,-30.5 238,-30.5 "/>
<text text-anchor="start" x="102" y="-18.5" font-family="Helvetica,sans-Serif" font-size="10.00">+ ProduceConsumeBody()</text>
<text text-anchor="start" x="102" y="-7.5" font-family="Helvetica,sans-Serif" font-size="10.00">+ operator()()</text>
</g>
<!-- Node2 -->
<g id="node2" class="node"><title>Node2</title>
<g id="a_node2"><a xlink:href="../../d0/d26/classFilterBase.html" target="_top" xlink:title="{FilterBase\n|# ima\l# totTokens\l# myWait\l# myBuffer\l# nextBuffer\l# curToken\l|+ FilterBase()\l+ Produce()\l+ Consume()\l+ operator()()\l}">
<polygon fill="white" stroke="black" points="124,-116.5 124,-261.5 208,-261.5 208,-116.5 124,-116.5"/>
<text text-anchor="middle" x="166" y="-249.5" font-family="Helvetica,sans-Serif" font-size="10.00">FilterBase</text>
<polyline fill="none" stroke="black" points="124,-242.5 208,-242.5 "/>
<text text-anchor="start" x="132" y="-230.5" font-family="Helvetica,sans-Serif" font-size="10.00"># ima</text>
<text text-anchor="start" x="132" y="-219.5" font-family="Helvetica,sans-Serif" font-size="10.00"># totTokens</text>
<text text-anchor="start" x="132" y="-208.5" font-family="Helvetica,sans-Serif" font-size="10.00"># myWait</text>
<text text-anchor="start" x="132" y="-197.5" font-family="Helvetica,sans-Serif" font-size="10.00"># myBuffer</text>
<text text-anchor="start" x="132" y="-186.5" font-family="Helvetica,sans-Serif" font-size="10.00"># nextBuffer</text>
<text text-anchor="start" x="132" y="-175.5" font-family="Helvetica,sans-Serif" font-size="10.00"># curToken</text>
<polyline fill="none" stroke="black" points="124,-168.5 208,-168.5 "/>
<text text-anchor="start" x="132" y="-156.5" font-family="Helvetica,sans-Serif" font-size="10.00">+ FilterBase()</text>
<text text-anchor="start" x="132" y="-145.5" font-family="Helvetica,sans-Serif" font-size="10.00">+ Produce()</text>
<text text-anchor="start" x="132" y="-134.5" font-family="Helvetica,sans-Serif" font-size="10.00">+ Consume()</text>
<text text-anchor="start" x="132" y="-123.5" font-family="Helvetica,sans-Serif" font-size="10.00">+ operator()()</text>
</a>
</g>
</g>
<!-- Node2&#45;&gt;Node1 -->
<g id="edge1" class="edge"><title>Node2&#45;&gt;Node1</title>
<path fill="none" stroke="#404040" d="M166,-116.216C166,-104.092 166,-91.8165 166,-80.6221"/>
<polygon fill="none" stroke="#404040" points="166,-80.508 162,-74.5081 166,-68.508 170,-74.508 166,-80.508"/>
<text text-anchor="middle" x="191" y="-90" font-family="Helvetica,sans-Serif" font-size="10.00"> &#45;myFilters</text>
</g>
<!-- Node3 -->
<g id="node3" class="node"><title>Node3</title>
<g id="a_node3"><a xlink:href="../../d8/dab/classNoAssign.html" target="_top" xlink:title="Base class for prohibiting compiler&#45;generated operator=. ">
<polygon fill="white" stroke="black" points="0,-337 0,-405 80,-405 80,-337 0,-337"/>
<text text-anchor="middle" x="40" y="-393" font-family="Helvetica,sans-Serif" font-size="10.00">NoAssign</text>
<polyline fill="none" stroke="black" points="0,-386 80,-386 "/>
<text text-anchor="middle" x="40" y="-374" font-family="Helvetica,sans-Serif" font-size="10.00"> </text>
<polyline fill="none" stroke="black" points="0,-367 80,-367 "/>
<text text-anchor="start" x="8" y="-355" font-family="Helvetica,sans-Serif" font-size="10.00">+ NoAssign()</text>
<text text-anchor="start" x="8" y="-344" font-family="Helvetica,sans-Serif" font-size="10.00">&#45; operator=()</text>
</a>
</g>
</g>
<!-- Node3&#45;&gt;Node2 -->
<g id="edge2" class="edge"><title>Node3&#45;&gt;Node2</title>
<path fill="none" stroke="#8b1a1a" d="M68.9047,-328.708C85.202,-305.426 105.856,-275.92 123.921,-250.113"/>
<polygon fill="none" stroke="#8b1a1a" points="65.9777,-326.786 63.1103,-336.985 71.7123,-330.8 65.9777,-326.786"/>
</g>
<!-- Node4 -->
<g id="node4" class="node"><title>Node4</title>
<g id="a_node4"><a xlink:href="../../de/dc7/classtbb_1_1internal_1_1semaphore.html" target="_top" xlink:title="Edsger Dijkstra&#39;s counting semaphore. ">
<polygon fill="white" stroke="red" points="98.5,-320.5 98.5,-421.5 233.5,-421.5 233.5,-320.5 98.5,-320.5"/>
<text text-anchor="middle" x="166" y="-409.5" font-family="Helvetica,sans-Serif" font-size="10.00">tbb::internal::semaphore</text>
<polyline fill="none" stroke="red" points="98.5,-402.5 233.5,-402.5 "/>
<text text-anchor="start" x="106.5" y="-390.5" font-family="Helvetica,sans-Serif" font-size="10.00">&#45; sem</text>
<polyline fill="none" stroke="red" points="98.5,-383.5 233.5,-383.5 "/>
<text text-anchor="start" x="106.5" y="-371.5" font-family="Helvetica,sans-Serif" font-size="10.00">+ semaphore()</text>
<text text-anchor="start" x="106.5" y="-360.5" font-family="Helvetica,sans-Serif" font-size="10.00">+ ~semaphore()</text>
<text text-anchor="start" x="106.5" y="-349.5" font-family="Helvetica,sans-Serif" font-size="10.00">+ P()</text>
<text text-anchor="start" x="106.5" y="-338.5" font-family="Helvetica,sans-Serif" font-size="10.00">+ V()</text>
<text text-anchor="start" x="106.5" y="-327.5" font-family="Helvetica,sans-Serif" font-size="10.00">&#45; init_semaphore()</text>
</a>
</g>
</g>
<!-- Node4&#45;&gt;Node2 -->
<g id="edge3" class="edge"><title>Node4&#45;&gt;Node2</title>
<path fill="none" stroke="#404040" d="M166,-320.338C166,-305.909 166,-289.736 166,-273.823"/>
<polygon fill="none" stroke="#404040" points="166,-273.737 162,-267.737 166,-261.737 170,-267.737 166,-273.737"/>
<text text-anchor="middle" x="193.5" y="-294" font-family="Helvetica,sans-Serif" font-size="10.00"> #nextSem</text>
<text text-anchor="middle" x="193.5" y="-283" font-family="Helvetica,sans-Serif" font-size="10.00">#mySem</text>
</g>
<!-- Node5 -->
<g id="node5" class="node"><title>Node5</title>
<g id="a_node5"><a xlink:href="../../d4/d32/structtbb_1_1atomic.html" target="_top" xlink:title="{tbb::atomic\&lt; unsigned \&gt;\n||+ operator=()\l+ operator=()\l}">
<polygon fill="white" stroke="red" points="251.5,-337 251.5,-405 388.5,-405 388.5,-337 251.5,-337"/>
<text text-anchor="middle" x="320" y="-393" font-family="Helvetica,sans-Serif" font-size="10.00">tbb::atomic&lt; unsigned &gt;</text>
<polyline fill="none" stroke="red" points="251.5,-386 388.5,-386 "/>
<text text-anchor="middle" x="320" y="-374" font-family="Helvetica,sans-Serif" font-size="10.00"> </text>
<polyline fill="none" stroke="red" points="251.5,-367 388.5,-367 "/>
<text text-anchor="start" x="259.5" y="-355" font-family="Helvetica,sans-Serif" font-size="10.00">+ operator=()</text>
<text text-anchor="start" x="259.5" y="-344" font-family="Helvetica,sans-Serif" font-size="10.00">+ operator=()</text>
</a>
</g>
</g>
<!-- Node5&#45;&gt;Node2 -->
<g id="edge4" class="edge"><title>Node5&#45;&gt;Node2</title>
<path fill="none" stroke="#404040" d="M291.754,-336.985C270.599,-312.258 241.102,-277.782 215.993,-248.434"/>
<polygon fill="none" stroke="#404040" points="215.812,-248.222 208.872,-246.264 208.011,-239.104 214.951,-241.063 215.812,-248.222"/>
<text text-anchor="middle" x="295.5" y="-294" font-family="Helvetica,sans-Serif" font-size="10.00"> #myTokens</text>
<text text-anchor="middle" x="295.5" y="-283" font-family="Helvetica,sans-Serif" font-size="10.00">#otherTokens</text>
</g>
</g>
</svg>
