<?xml version="1.0" encoding="UTF-8" standalone="no"?>
<!DOCTYPE svg PUBLIC "-//W3C//DTD SVG 1.1//EN"
 "http://www.w3.org/Graphics/SVG/1.1/DTD/svg11.dtd">
<!-- Generated by graphviz version 2.38.0 (20140413.2041)
 -->
<!-- Title: harness_counting_receiver&lt; T &gt; Pages: 1 -->
<svg width="250pt" height="259pt"
 viewBox="0.00 0.00 249.50 259.00" xmlns="http://www.w3.org/2000/svg" xmlns:xlink="http://www.w3.org/1999/xlink">
<g id="graph0" class="graph" transform="scale(1 1) rotate(0) translate(4 255)">
<title>harness_counting_receiver&lt; T &gt;</title>
<polygon fill="white" stroke="none" points="-4,4 -4,-255 245.5,-255 245.5,4 -4,4"/>
<!-- Node1 -->
<g id="node1" class="node"><title>Node1</title>
<polygon fill="#bfbfbf" stroke="black" points="50,-0.5 50,-145.5 223,-145.5 223,-0.5 50,-0.5"/>
<text text-anchor="middle" x="136.5" y="-133.5" font-family="Helvetica,sans-Serif" font-size="10.00">harness_counting_receiver&lt; T &gt;</text>
<polyline fill="none" stroke="black" points="50,-126.5 223,-126.5 "/>
<text text-anchor="start" x="58" y="-114.5" font-family="Helvetica,sans-Serif" font-size="10.00">+ my_count</text>
<text text-anchor="start" x="58" y="-103.5" font-family="Helvetica,sans-Serif" font-size="10.00">+ max_value</text>
<text text-anchor="start" x="58" y="-92.5" font-family="Helvetica,sans-Serif" font-size="10.00">+ num_copies</text>
<text text-anchor="start" x="58" y="-81.5" font-family="Helvetica,sans-Serif" font-size="10.00">+ my_graph</text>
<polyline fill="none" stroke="black" points="50,-74.5 223,-74.5 "/>
<text text-anchor="start" x="58" y="-62.5" font-family="Helvetica,sans-Serif" font-size="10.00">+ harness_counting_receiver()</text>
<text text-anchor="start" x="58" y="-51.5" font-family="Helvetica,sans-Serif" font-size="10.00">+ initialize_map()</text>
<text text-anchor="start" x="58" y="-40.5" font-family="Helvetica,sans-Serif" font-size="10.00">+ graph_reference()</text>
<text text-anchor="start" x="58" y="-29.5" font-family="Helvetica,sans-Serif" font-size="10.00">+ try_put_task()</text>
<text text-anchor="start" x="58" y="-18.5" font-family="Helvetica,sans-Serif" font-size="10.00">+ validate()</text>
<text text-anchor="start" x="58" y="-7.5" font-family="Helvetica,sans-Serif" font-size="10.00">+ reset_receiver()</text>
</g>
<!-- Node2 -->
<g id="node2" class="node"><title>Node2</title>
<polygon fill="white" stroke="#bfbfbf" points="0,-188 0,-245 143,-245 143,-188 0,-188"/>
<text text-anchor="middle" x="71.5" y="-233" font-family="Helvetica,sans-Serif" font-size="10.00">interface10::receiver&lt; T &gt;</text>
<polyline fill="none" stroke="#bfbfbf" points="0,-226 143,-226 "/>
<text text-anchor="middle" x="71.5" y="-214" font-family="Helvetica,sans-Serif" font-size="10.00"> </text>
<polyline fill="none" stroke="#bfbfbf" points="0,-207 143,-207 "/>
<text text-anchor="middle" x="71.5" y="-195" font-family="Helvetica,sans-Serif" font-size="10.00"> </text>
</g>
<!-- Node2&#45;&gt;Node1 -->
<g id="edge1" class="edge"><title>Node2&#45;&gt;Node1</title>
<path fill="none" stroke="midnightblue" d="M88.4739,-178.549C93.1424,-168.386 98.3695,-157.007 103.61,-145.599"/>
<polygon fill="none" stroke="midnightblue" points="85.1808,-177.333 84.187,-187.881 91.5418,-180.255 85.1808,-177.333"/>
</g>
<!-- Node3 -->
<g id="node3" class="node"><title>Node3</title>
<g id="a_node3"><a xlink:href="../../d8/dab/classNoAssign.html" target="_top" xlink:title="Base class for prohibiting compiler&#45;generated operator=. ">
<polygon fill="white" stroke="black" points="161.5,-182.5 161.5,-250.5 241.5,-250.5 241.5,-182.5 161.5,-182.5"/>
<text text-anchor="middle" x="201.5" y="-238.5" font-family="Helvetica,sans-Serif" font-size="10.00">NoAssign</text>
<polyline fill="none" stroke="black" points="161.5,-231.5 241.5,-231.5 "/>
<text text-anchor="middle" x="201.5" y="-219.5" font-family="Helvetica,sans-Serif" font-size="10.00"> </text>
<polyline fill="none" stroke="black" points="161.5,-212.5 241.5,-212.5 "/>
<text text-anchor="start" x="169.5" y="-200.5" font-family="Helvetica,sans-Serif" font-size="10.00">+ NoAssign()</text>
<text text-anchor="start" x="169.5" y="-189.5" font-family="Helvetica,sans-Serif" font-size="10.00">&#45; operator=()</text>
</a>
</g>
</g>
<!-- Node3&#45;&gt;Node1 -->
<g id="edge2" class="edge"><title>Node3&#45;&gt;Node1</title>
<path fill="none" stroke="midnightblue" d="M182.071,-173.205C178.083,-164.524 173.781,-155.157 169.467,-145.766"/>
<polygon fill="none" stroke="midnightblue" points="178.906,-174.698 186.26,-182.325 185.267,-171.776 178.906,-174.698"/>
</g>
</g>
</svg>
