<?xml version="1.0" encoding="UTF-8" standalone="no"?>
<!DOCTYPE svg PUBLIC "-//W3C//DTD SVG 1.1//EN"
 "http://www.w3.org/Graphics/SVG/1.1/DTD/svg11.dtd">
<!-- Generated by graphviz version 2.38.0 (20140413.2041)
 -->
<!-- Title: /home/travis/build/ComPWA/ComPWA/ThirdParty/tbb/include/tbb/concurrent_priority_queue.h Pages: 1 -->
<svg width="1108pt" height="250pt"
 viewBox="0.00 0.00 1108.00 250.00" xmlns="http://www.w3.org/2000/svg" xmlns:xlink="http://www.w3.org/1999/xlink">
<g id="graph0" class="graph" transform="scale(1 1) rotate(0) translate(4 246)">
<title>/home/travis/build/ComPWA/ComPWA/ThirdParty/tbb/include/tbb/concurrent_priority_queue.h</title>
<polygon fill="white" stroke="none" points="-4,4 -4,-246 1104,-246 1104,4 -4,4"/>
<!-- Node1 -->
<g id="node1" class="node"><title>Node1</title>
<polygon fill="#bfbfbf" stroke="black" points="568,-189.5 568,-241.5 726,-241.5 726,-189.5 568,-189.5"/>
<text text-anchor="start" x="576" y="-229.5" font-family="Helvetica,sans-Serif" font-size="10.00">/home/travis/build</text>
<text text-anchor="start" x="576" y="-218.5" font-family="Helvetica,sans-Serif" font-size="10.00">/ComPWA/ComPWA/ThirdParty</text>
<text text-anchor="start" x="576" y="-207.5" font-family="Helvetica,sans-Serif" font-size="10.00">/tbb/include/tbb/concurrent</text>
<text text-anchor="middle" x="647" y="-196.5" font-family="Helvetica,sans-Serif" font-size="10.00">_priority_queue.h</text>
</g>
<!-- Node2 -->
<g id="node2" class="node"><title>Node2</title>
<g id="a_node2"><a xlink:href="../../d1/d1a/shortpath_8cpp.html" target="_top" xlink:title="/home/travis/build\l/ComPWA/ComPWA/ThirdParty\l/tbb/examples/concurrent\l_priority_queue/shortpath\l/shortpath.cpp">
<polygon fill="white" stroke="black" points="216,-89.5 216,-152.5 374,-152.5 374,-89.5 216,-89.5"/>
<text text-anchor="start" x="224" y="-140.5" font-family="Helvetica,sans-Serif" font-size="10.00">/home/travis/build</text>
<text text-anchor="start" x="224" y="-129.5" font-family="Helvetica,sans-Serif" font-size="10.00">/ComPWA/ComPWA/ThirdParty</text>
<text text-anchor="start" x="224" y="-118.5" font-family="Helvetica,sans-Serif" font-size="10.00">/tbb/examples/concurrent</text>
<text text-anchor="start" x="224" y="-107.5" font-family="Helvetica,sans-Serif" font-size="10.00">_priority_queue/shortpath</text>
<text text-anchor="middle" x="295" y="-96.5" font-family="Helvetica,sans-Serif" font-size="10.00">/shortpath.cpp</text>
</a>
</g>
</g>
<!-- Node1&#45;&gt;Node2 -->
<g id="edge1" class="edge"><title>Node1&#45;&gt;Node2</title>
<path fill="none" stroke="midnightblue" d="M557.766,-196.269C506.313,-185.121 440.602,-169.8 383,-153 380.045,-152.138 377.045,-151.234 374.021,-150.297"/>
<polygon fill="midnightblue" stroke="midnightblue" points="557.348,-199.759 567.86,-198.442 558.821,-192.915 557.348,-199.759"/>
</g>
<!-- Node3 -->
<g id="node3" class="node"><title>Node3</title>
<g id="a_node3"><a xlink:href="../../d8/dc1/tbb_8h.html" target="_top" xlink:title="/home/travis/build\l/ComPWA/ComPWA/ThirdParty\l/tbb/include/tbb/tbb.h">
<polygon fill="white" stroke="black" points="392,-100.5 392,-141.5 550,-141.5 550,-100.5 392,-100.5"/>
<text text-anchor="start" x="400" y="-129.5" font-family="Helvetica,sans-Serif" font-size="10.00">/home/travis/build</text>
<text text-anchor="start" x="400" y="-118.5" font-family="Helvetica,sans-Serif" font-size="10.00">/ComPWA/ComPWA/ThirdParty</text>
<text text-anchor="middle" x="471" y="-107.5" font-family="Helvetica,sans-Serif" font-size="10.00">/tbb/include/tbb/tbb.h</text>
</a>
</g>
</g>
<!-- Node1&#45;&gt;Node3 -->
<g id="edge2" class="edge"><title>Node1&#45;&gt;Node3</title>
<path fill="none" stroke="midnightblue" d="M590.448,-184.778C563.575,-170.654 532.195,-154.162 508.344,-141.627"/>
<polygon fill="midnightblue" stroke="midnightblue" points="588.892,-187.914 599.372,-189.468 592.148,-181.718 588.892,-187.914"/>
</g>
<!-- Node8 -->
<g id="node8" class="node"><title>Node8</title>
<g id="a_node8"><a xlink:href="../../df/da3/cpq__pdes_8cpp.html" target="_top" xlink:title="/home/travis/build\l/ComPWA/ComPWA/ThirdParty\l/tbb/src/perf/cpq_pdes.cpp">
<polygon fill="white" stroke="black" points="568,-100.5 568,-141.5 726,-141.5 726,-100.5 568,-100.5"/>
<text text-anchor="start" x="576" y="-129.5" font-family="Helvetica,sans-Serif" font-size="10.00">/home/travis/build</text>
<text text-anchor="start" x="576" y="-118.5" font-family="Helvetica,sans-Serif" font-size="10.00">/ComPWA/ComPWA/ThirdParty</text>
<text text-anchor="middle" x="647" y="-107.5" font-family="Helvetica,sans-Serif" font-size="10.00">/tbb/src/perf/cpq_pdes.cpp</text>
</a>
</g>
</g>
<!-- Node1&#45;&gt;Node8 -->
<g id="edge7" class="edge"><title>Node1&#45;&gt;Node8</title>
<path fill="none" stroke="midnightblue" d="M647,-178.95C647,-166.296 647,-152.511 647,-141.673"/>
<polygon fill="midnightblue" stroke="midnightblue" points="643.5,-179.224 647,-189.224 650.5,-179.224 643.5,-179.224"/>
</g>
<!-- Node9 -->
<g id="node9" class="node"><title>Node9</title>
<g id="a_node9"><a xlink:href="../../d1/d98/time__cpq__throughput__test_8cpp.html" target="_top" xlink:title="/home/travis/build\l/ComPWA/ComPWA/ThirdParty\l/tbb/src/perf/time_cpq_throughput\l_test.cpp">
<polygon fill="white" stroke="black" points="744,-95 744,-147 924,-147 924,-95 744,-95"/>
<text text-anchor="start" x="752" y="-135" font-family="Helvetica,sans-Serif" font-size="10.00">/home/travis/build</text>
<text text-anchor="start" x="752" y="-124" font-family="Helvetica,sans-Serif" font-size="10.00">/ComPWA/ComPWA/ThirdParty</text>
<text text-anchor="start" x="752" y="-113" font-family="Helvetica,sans-Serif" font-size="10.00">/tbb/src/perf/time_cpq_throughput</text>
<text text-anchor="middle" x="834" y="-102" font-family="Helvetica,sans-Serif" font-size="10.00">_test.cpp</text>
</a>
</g>
</g>
<!-- Node1&#45;&gt;Node9 -->
<g id="edge8" class="edge"><title>Node1&#45;&gt;Node9</title>
<path fill="none" stroke="midnightblue" d="M706.858,-184.891C731.507,-172.698 759.755,-158.726 783.355,-147.052"/>
<polygon fill="midnightblue" stroke="midnightblue" points="705.016,-181.897 697.605,-189.468 708.12,-188.172 705.016,-181.897"/>
</g>
<!-- Node10 -->
<g id="node10" class="node"><title>Node10</title>
<g id="a_node10"><a xlink:href="../../d8/dd3/test__concurrent__priority__queue_8cpp.html" target="_top" xlink:title="/home/travis/build\l/ComPWA/ComPWA/ThirdParty\l/tbb/src/test/test_concurrent\l_priority_queue.cpp">
<polygon fill="white" stroke="black" points="942,-95 942,-147 1100,-147 1100,-95 942,-95"/>
<text text-anchor="start" x="950" y="-135" font-family="Helvetica,sans-Serif" font-size="10.00">/home/travis/build</text>
<text text-anchor="start" x="950" y="-124" font-family="Helvetica,sans-Serif" font-size="10.00">/ComPWA/ComPWA/ThirdParty</text>
<text text-anchor="start" x="950" y="-113" font-family="Helvetica,sans-Serif" font-size="10.00">/tbb/src/test/test_concurrent</text>
<text text-anchor="middle" x="1021" y="-102" font-family="Helvetica,sans-Serif" font-size="10.00">_priority_queue.cpp</text>
</a>
</g>
</g>
<!-- Node1&#45;&gt;Node10 -->
<g id="edge9" class="edge"><title>Node1&#45;&gt;Node10</title>
<path fill="none" stroke="midnightblue" d="M736.287,-198.327C793.059,-187.301 867.873,-171.393 933,-153 939.391,-151.195 945.992,-149.173 952.572,-147.05"/>
<polygon fill="midnightblue" stroke="midnightblue" points="735.419,-194.93 726.262,-200.26 736.744,-201.804 735.419,-194.93"/>
</g>
<!-- Node4 -->
<g id="node4" class="node"><title>Node4</title>
<g id="a_node4"><a xlink:href="../../d0/d75/DirectXPage_8xaml_8cpp.html" target="_top" xlink:title="/home/travis/build\l/ComPWA/ComPWA/ThirdParty\l/tbb/examples/parallel_for\l/tachyon/msvs/win8ui/DirectXPage.xaml.cpp">
<polygon fill="white" stroke="black" points="0,-0.5 0,-52.5 226,-52.5 226,-0.5 0,-0.5"/>
<text text-anchor="start" x="8" y="-40.5" font-family="Helvetica,sans-Serif" font-size="10.00">/home/travis/build</text>
<text text-anchor="start" x="8" y="-29.5" font-family="Helvetica,sans-Serif" font-size="10.00">/ComPWA/ComPWA/ThirdParty</text>
<text text-anchor="start" x="8" y="-18.5" font-family="Helvetica,sans-Serif" font-size="10.00">/tbb/examples/parallel_for</text>
<text text-anchor="middle" x="113" y="-7.5" font-family="Helvetica,sans-Serif" font-size="10.00">/tachyon/msvs/win8ui/DirectXPage.xaml.cpp</text>
</a>
</g>
</g>
<!-- Node3&#45;&gt;Node4 -->
<g id="edge3" class="edge"><title>Node3&#45;&gt;Node4</title>
<path fill="none" stroke="midnightblue" d="M409.026,-97.1708C400.337,-94.2625 391.48,-91.4506 383,-89 353.499,-80.4744 286.205,-65.1428 226.183,-51.9209"/>
<polygon fill="midnightblue" stroke="midnightblue" points="408.142,-100.567 418.736,-100.481 410.401,-93.9416 408.142,-100.567"/>
</g>
<!-- Node5 -->
<g id="node5" class="node"><title>Node5</title>
<g id="a_node5"><a xlink:href="../../dd/dc5/tbbTachyonRenderer_8cpp.html" target="_top" xlink:title="/home/travis/build\l/ComPWA/ComPWA/ThirdParty\l/tbb/examples/parallel_for\l/tachyon/msvs/win8ui/tbbTachyonRenderer.cpp">
<polygon fill="white" stroke="black" points="244,-0.5 244,-52.5 482,-52.5 482,-0.5 244,-0.5"/>
<text text-anchor="start" x="252" y="-40.5" font-family="Helvetica,sans-Serif" font-size="10.00">/home/travis/build</text>
<text text-anchor="start" x="252" y="-29.5" font-family="Helvetica,sans-Serif" font-size="10.00">/ComPWA/ComPWA/ThirdParty</text>
<text text-anchor="start" x="252" y="-18.5" font-family="Helvetica,sans-Serif" font-size="10.00">/tbb/examples/parallel_for</text>
<text text-anchor="middle" x="363" y="-7.5" font-family="Helvetica,sans-Serif" font-size="10.00">/tachyon/msvs/win8ui/tbbTachyonRenderer.cpp</text>
</a>
</g>
</g>
<!-- Node3&#45;&gt;Node5 -->
<g id="edge4" class="edge"><title>Node3&#45;&gt;Node5</title>
<path fill="none" stroke="midnightblue" d="M440.114,-93.5467C425.136,-80.718 407.233,-65.3846 392.449,-52.7226"/>
<polygon fill="midnightblue" stroke="midnightblue" points="438.224,-96.5364 448.096,-100.383 442.778,-91.2198 438.224,-96.5364"/>
</g>
<!-- Node6 -->
<g id="node6" class="node"><title>Node6</title>
<g id="a_node6"><a xlink:href="../../dd/d29/trace_8simple_8cpp.html" target="_top" xlink:title="/home/travis/build\l/ComPWA/ComPWA/ThirdParty\l/tbb/examples/parallel_for\l/tachyon/src/trace.simple.cpp">
<polygon fill="white" stroke="black" points="500,-0.5 500,-52.5 658,-52.5 658,-0.5 500,-0.5"/>
<text text-anchor="start" x="508" y="-40.5" font-family="Helvetica,sans-Serif" font-size="10.00">/home/travis/build</text>
<text text-anchor="start" x="508" y="-29.5" font-family="Helvetica,sans-Serif" font-size="10.00">/ComPWA/ComPWA/ThirdParty</text>
<text text-anchor="start" x="508" y="-18.5" font-family="Helvetica,sans-Serif" font-size="10.00">/tbb/examples/parallel_for</text>
<text text-anchor="middle" x="579" y="-7.5" font-family="Helvetica,sans-Serif" font-size="10.00">/tachyon/src/trace.simple.cpp</text>
</a>
</g>
</g>
<!-- Node3&#45;&gt;Node6 -->
<g id="edge5" class="edge"><title>Node3&#45;&gt;Node6</title>
<path fill="none" stroke="midnightblue" d="M501.886,-93.5467C516.864,-80.718 534.767,-65.3846 549.551,-52.7226"/>
<polygon fill="midnightblue" stroke="midnightblue" points="499.222,-91.2198 493.904,-100.383 503.776,-96.5364 499.222,-91.2198"/>
</g>
<!-- Node7 -->
<g id="node7" class="node"><title>Node7</title>
<g id="a_node7"><a xlink:href="../../db/d56/test__tbb__header_8cpp.html" target="_top" xlink:title="/home/travis/build\l/ComPWA/ComPWA/ThirdParty\l/tbb/src/test/test_tbb_header.cpp">
<polygon fill="white" stroke="black" points="676,-6 676,-47 852,-47 852,-6 676,-6"/>
<text text-anchor="start" x="684" y="-35" font-family="Helvetica,sans-Serif" font-size="10.00">/home/travis/build</text>
<text text-anchor="start" x="684" y="-24" font-family="Helvetica,sans-Serif" font-size="10.00">/ComPWA/ComPWA/ThirdParty</text>
<text text-anchor="middle" x="764" y="-13" font-family="Helvetica,sans-Serif" font-size="10.00">/tbb/src/test/test_tbb_header.cpp</text>
</a>
</g>
</g>
<!-- Node3&#45;&gt;Node7 -->
<g id="edge6" class="edge"><title>Node3&#45;&gt;Node7</title>
<path fill="none" stroke="midnightblue" d="M534.789,-97.1307C542.918,-94.3337 551.141,-91.5616 559,-89 604.397,-74.2036 655.871,-58.7661 695.883,-47.0591"/>
<polygon fill="midnightblue" stroke="midnightblue" points="533.619,-93.832 525.317,-100.414 535.912,-100.446 533.619,-93.832"/>
</g>
</g>
</svg>
