<?xml version="1.0" encoding="UTF-8" standalone="no"?>
<!DOCTYPE svg PUBLIC "-//W3C//DTD SVG 1.1//EN"
 "http://www.w3.org/Graphics/SVG/1.1/DTD/svg11.dtd">
<!-- Generated by graphviz version 2.38.0 (20140413.2041)
 -->
<!-- Title: parallel_receiver&lt; T &gt; Pages: 1 -->
<svg width="250pt" height="215pt"
 viewBox="0.00 0.00 249.50 215.00" xmlns="http://www.w3.org/2000/svg" xmlns:xlink="http://www.w3.org/1999/xlink">
<g id="graph0" class="graph" transform="scale(1 1) rotate(0) translate(4 211)">
<title>parallel_receiver&lt; T &gt;</title>
<polygon fill="white" stroke="none" points="-4,4 -4,-211 245.5,-211 245.5,4 -4,4"/>
<!-- Node1 -->
<g id="node1" class="node"><title>Node1</title>
<polygon fill="#bfbfbf" stroke="black" points="75.5,-0.5 75.5,-101.5 197.5,-101.5 197.5,-0.5 75.5,-0.5"/>
<text text-anchor="middle" x="136.5" y="-89.5" font-family="Helvetica,sans-Serif" font-size="10.00">parallel_receiver&lt; T &gt;</text>
<polyline fill="none" stroke="black" points="75.5,-82.5 197.5,-82.5 "/>
<text text-anchor="start" x="83.5" y="-70.5" font-family="Helvetica,sans-Serif" font-size="10.00">+ my_count</text>
<text text-anchor="start" x="83.5" y="-59.5" font-family="Helvetica,sans-Serif" font-size="10.00">+ my_graph</text>
<polyline fill="none" stroke="black" points="75.5,-52.5 197.5,-52.5 "/>
<text text-anchor="start" x="83.5" y="-40.5" font-family="Helvetica,sans-Serif" font-size="10.00">+ parallel_receiver()</text>
<text text-anchor="start" x="83.5" y="-29.5" font-family="Helvetica,sans-Serif" font-size="10.00">+ try_put_task()</text>
<text text-anchor="start" x="83.5" y="-18.5" font-family="Helvetica,sans-Serif" font-size="10.00">+ graph_reference()</text>
<text text-anchor="start" x="83.5" y="-7.5" font-family="Helvetica,sans-Serif" font-size="10.00">+ reset_receiver()</text>
</g>
<!-- Node2 -->
<g id="node2" class="node"><title>Node2</title>
<polygon fill="white" stroke="#bfbfbf" points="0,-144 0,-201 143,-201 143,-144 0,-144"/>
<text text-anchor="middle" x="71.5" y="-189" font-family="Helvetica,sans-Serif" font-size="10.00">interface10::receiver&lt; T &gt;</text>
<polyline fill="none" stroke="#bfbfbf" points="0,-182 143,-182 "/>
<text text-anchor="middle" x="71.5" y="-170" font-family="Helvetica,sans-Serif" font-size="10.00"> </text>
<polyline fill="none" stroke="#bfbfbf" points="0,-163 143,-163 "/>
<text text-anchor="middle" x="71.5" y="-151" font-family="Helvetica,sans-Serif" font-size="10.00"> </text>
</g>
<!-- Node2&#45;&gt;Node1 -->
<g id="edge1" class="edge"><title>Node2&#45;&gt;Node1</title>
<path fill="none" stroke="midnightblue" d="M91.4171,-134.883C97.1311,-124.378 103.459,-112.745 109.522,-101.597"/>
<polygon fill="none" stroke="midnightblue" points="88.2793,-133.327 86.5757,-143.784 94.4286,-136.672 88.2793,-133.327"/>
</g>
<!-- Node3 -->
<g id="node3" class="node"><title>Node3</title>
<g id="a_node3"><a xlink:href="../../d8/dab/classNoAssign.html" target="_top" xlink:title="Base class for prohibiting compiler&#45;generated operator=. ">
<polygon fill="white" stroke="black" points="161.5,-138.5 161.5,-206.5 241.5,-206.5 241.5,-138.5 161.5,-138.5"/>
<text text-anchor="middle" x="201.5" y="-194.5" font-family="Helvetica,sans-Serif" font-size="10.00">NoAssign</text>
<polyline fill="none" stroke="black" points="161.5,-187.5 241.5,-187.5 "/>
<text text-anchor="middle" x="201.5" y="-175.5" font-family="Helvetica,sans-Serif" font-size="10.00"> </text>
<polyline fill="none" stroke="black" points="161.5,-168.5 241.5,-168.5 "/>
<text text-anchor="start" x="169.5" y="-156.5" font-family="Helvetica,sans-Serif" font-size="10.00">+ NoAssign()</text>
<text text-anchor="start" x="169.5" y="-145.5" font-family="Helvetica,sans-Serif" font-size="10.00">&#45; operator=()</text>
</a>
</g>
</g>
<!-- Node3&#45;&gt;Node1 -->
<g id="edge2" class="edge"><title>Node3&#45;&gt;Node1</title>
<path fill="none" stroke="midnightblue" d="M178.477,-129.173C173.632,-120.266 168.48,-110.793 163.504,-101.646"/>
<polygon fill="none" stroke="midnightblue" points="175.541,-131.1 183.394,-138.213 181.69,-127.756 175.541,-131.1"/>
</g>
</g>
</svg>
