<?xml version="1.0" encoding="UTF-8" standalone="no"?>
<!DOCTYPE svg PUBLIC "-//W3C//DTD SVG 1.1//EN"
 "http://www.w3.org/Graphics/SVG/1.1/DTD/svg11.dtd">
<!-- Generated by graphviz version 2.38.0 (20140413.2041)
 -->
<!-- Title: internal::indexer_node_base&lt; InputTuple, OutputType, StructTypes &gt; Pages: 1 -->
<svg width="750pt" height="508pt"
 viewBox="0.00 0.00 750.00 508.00" xmlns="http://www.w3.org/2000/svg" xmlns:xlink="http://www.w3.org/1999/xlink">
<g id="graph0" class="graph" transform="scale(1 1) rotate(0) translate(4 504)">
<title>internal::indexer_node_base&lt; InputTuple, OutputType, StructTypes &gt;</title>
<polygon fill="white" stroke="none" points="-4,4 -4,-504 746,-504 746,4 -4,4"/>
<!-- Node1 -->
<g id="node1" class="node"><title>Node1</title>
<polygon fill="#bfbfbf" stroke="black" points="310.5,-0.5 310.5,-145.5 477.5,-145.5 477.5,-0.5 310.5,-0.5"/>
<text text-anchor="start" x="318.5" y="-133.5" font-family="Helvetica,sans-Serif" font-size="10.00">internal::indexer_node</text>
<text text-anchor="start" x="318.5" y="-122.5" font-family="Helvetica,sans-Serif" font-size="10.00">_base&lt; InputTuple, OutputType,</text>
<text text-anchor="middle" x="394" y="-111.5" font-family="Helvetica,sans-Serif" font-size="10.00"> StructTypes &gt;</text>
<polyline fill="none" stroke="black" points="310.5,-104.5 477.5,-104.5 "/>
<text text-anchor="middle" x="394" y="-92.5" font-family="Helvetica,sans-Serif" font-size="10.00"> </text>
<polyline fill="none" stroke="black" points="310.5,-85.5 477.5,-85.5 "/>
<text text-anchor="start" x="318.5" y="-73.5" font-family="Helvetica,sans-Serif" font-size="10.00">+ indexer_node_base()</text>
<text text-anchor="start" x="318.5" y="-62.5" font-family="Helvetica,sans-Serif" font-size="10.00">+ indexer_node_base()</text>
<text text-anchor="start" x="318.5" y="-51.5" font-family="Helvetica,sans-Serif" font-size="10.00">+ register_successor()</text>
<text text-anchor="start" x="318.5" y="-40.5" font-family="Helvetica,sans-Serif" font-size="10.00">+ remove_successor()</text>
<text text-anchor="start" x="318.5" y="-29.5" font-family="Helvetica,sans-Serif" font-size="10.00">+ try_put_task()</text>
<text text-anchor="start" x="318.5" y="-18.5" font-family="Helvetica,sans-Serif" font-size="10.00"># reset_node()</text>
<text text-anchor="start" x="318.5" y="-7.5" font-family="Helvetica,sans-Serif" font-size="10.00">&#45; handle_operations()</text>
</g>
<!-- Node2 -->
<g id="node2" class="node"><title>Node2</title>
<polygon fill="white" stroke="#bfbfbf" points="0,-215.5 0,-272.5 74,-272.5 74,-215.5 0,-215.5"/>
<text text-anchor="middle" x="37" y="-260.5" font-family="Helvetica,sans-Serif" font-size="10.00">graph_node</text>
<polyline fill="none" stroke="#bfbfbf" points="0,-253.5 74,-253.5 "/>
<text text-anchor="middle" x="37" y="-241.5" font-family="Helvetica,sans-Serif" font-size="10.00"> </text>
<polyline fill="none" stroke="#bfbfbf" points="0,-234.5 74,-234.5 "/>
<text text-anchor="middle" x="37" y="-222.5" font-family="Helvetica,sans-Serif" font-size="10.00"> </text>
</g>
<!-- Node2&#45;&gt;Node1 -->
<g id="edge1" class="edge"><title>Node2&#45;&gt;Node1</title>
<path fill="none" stroke="midnightblue" d="M65.2877,-207.95C70.7671,-202.473 76.7597,-197.235 83,-193 153.079,-145.442 244.799,-113.344 310.441,-94.5871"/>
<polygon fill="none" stroke="midnightblue" points="62.4835,-205.821 58.1589,-215.494 67.5712,-210.629 62.4835,-205.821"/>
</g>
<!-- Node3 -->
<g id="node3" class="node"><title>Node3</title>
<g id="a_node3"><a xlink:href="../../d8/d6a/classinternal_1_1indexer__node__FE.html" target="_top" xlink:title="{internal::indexer_node\l_FE\&lt; InputTuple, OutputType,\l StructTypes \&gt;\n|+ N\l# my_inputs\l|+ indexer_node_FE()\l+ input_ports()\l}">
<polygon fill="white" stroke="black" points="92.5,-193.5 92.5,-294.5 247.5,-294.5 247.5,-193.5 92.5,-193.5"/>
<text text-anchor="start" x="100.5" y="-282.5" font-family="Helvetica,sans-Serif" font-size="10.00">internal::indexer_node</text>
<text text-anchor="start" x="100.5" y="-271.5" font-family="Helvetica,sans-Serif" font-size="10.00">_FE&lt; InputTuple, OutputType,</text>
<text text-anchor="middle" x="170" y="-260.5" font-family="Helvetica,sans-Serif" font-size="10.00"> StructTypes &gt;</text>
<polyline fill="none" stroke="black" points="92.5,-253.5 247.5,-253.5 "/>
<text text-anchor="start" x="100.5" y="-241.5" font-family="Helvetica,sans-Serif" font-size="10.00">+ N</text>
<text text-anchor="start" x="100.5" y="-230.5" font-family="Helvetica,sans-Serif" font-size="10.00"># my_inputs</text>
<polyline fill="none" stroke="black" points="92.5,-223.5 247.5,-223.5 "/>
<text text-anchor="start" x="100.5" y="-211.5" font-family="Helvetica,sans-Serif" font-size="10.00">+ indexer_node_FE()</text>
<text text-anchor="start" x="100.5" y="-200.5" font-family="Helvetica,sans-Serif" font-size="10.00">+ input_ports()</text>
</a>
</g>
</g>
<!-- Node3&#45;&gt;Node1 -->
<g id="edge2" class="edge"><title>Node3&#45;&gt;Node1</title>
<path fill="none" stroke="midnightblue" d="M243.753,-187.356C265.068,-171.275 288.483,-153.608 310.355,-137.107"/>
<polygon fill="none" stroke="midnightblue" points="241.569,-184.619 235.694,-193.436 245.785,-190.208 241.569,-184.619"/>
</g>
<!-- Node4 -->
<g id="node4" class="node"><title>Node4</title>
<polygon fill="white" stroke="#bfbfbf" points="266,-210 266,-278 376,-278 376,-210 266,-210"/>
<text text-anchor="start" x="274" y="-266" font-family="Helvetica,sans-Serif" font-size="10.00">interface10::sender</text>
<text text-anchor="middle" x="321" y="-255" font-family="Helvetica,sans-Serif" font-size="10.00">&lt; OutputType &gt;</text>
<polyline fill="none" stroke="#bfbfbf" points="266,-248 376,-248 "/>
<text text-anchor="middle" x="321" y="-236" font-family="Helvetica,sans-Serif" font-size="10.00"> </text>
<polyline fill="none" stroke="#bfbfbf" points="266,-229 376,-229 "/>
<text text-anchor="middle" x="321" y="-217" font-family="Helvetica,sans-Serif" font-size="10.00"> </text>
</g>
<!-- Node4&#45;&gt;Node1 -->
<g id="edge3" class="edge"><title>Node4&#45;&gt;Node1</title>
<path fill="none" stroke="midnightblue" d="M339.474,-200.231C346.618,-183.692 354.992,-164.307 363.003,-145.759"/>
<polygon fill="none" stroke="midnightblue" points="336.175,-199.043 335.422,-209.611 342.601,-201.819 336.175,-199.043"/>
</g>
<!-- Node5 -->
<g id="node5" class="node"><title>Node5</title>
<polygon fill="white" stroke="#bfbfbf" points="394.5,-199 394.5,-289 539.5,-289 539.5,-199 394.5,-199"/>
<text text-anchor="start" x="402.5" y="-277" font-family="Helvetica,sans-Serif" font-size="10.00">aggregator&lt; handler</text>
<text text-anchor="start" x="402.5" y="-266" font-family="Helvetica,sans-Serif" font-size="10.00">_type, internal::indexer</text>
<text text-anchor="start" x="402.5" y="-255" font-family="Helvetica,sans-Serif" font-size="10.00">_node_base::indexer_node</text>
<text text-anchor="middle" x="467" y="-244" font-family="Helvetica,sans-Serif" font-size="10.00">_base_operation &gt;</text>
<polyline fill="none" stroke="#bfbfbf" points="394.5,-237 539.5,-237 "/>
<text text-anchor="middle" x="467" y="-225" font-family="Helvetica,sans-Serif" font-size="10.00"> </text>
<polyline fill="none" stroke="#bfbfbf" points="394.5,-218 539.5,-218 "/>
<text text-anchor="middle" x="467" y="-206" font-family="Helvetica,sans-Serif" font-size="10.00"> </text>
</g>
<!-- Node5&#45;&gt;Node1 -->
<g id="edge4" class="edge"><title>Node5&#45;&gt;Node1</title>
<path fill="none" stroke="#404040" d="M447.82,-198.597C442.232,-185.661 435.939,-171.092 429.678,-156.597"/>
<polygon fill="none" stroke="#404040" points="429.668,-156.573 423.616,-152.651 424.909,-145.556 430.96,-149.478 429.668,-156.573"/>
<text text-anchor="middle" x="478.5" y="-167" font-family="Helvetica,sans-Serif" font-size="10.00"> &#45;my_aggregator</text>
</g>
<!-- Node6 -->
<g id="node6" class="node"><title>Node6</title>
<g id="a_node6"><a xlink:href="../../d0/d5d/classinternal_1_1broadcast__cache.html" target="_top" xlink:title="{internal::broadcast\l_cache\&lt; output_type,\l null_rw_mutex \&gt;\n||+ broadcast_cache()\l+ try_put_task()\l}">
<polygon fill="white" stroke="black" points="558,-199 558,-289 680,-289 680,-199 558,-199"/>
<text text-anchor="start" x="566" y="-277" font-family="Helvetica,sans-Serif" font-size="10.00">internal::broadcast</text>
<text text-anchor="start" x="566" y="-266" font-family="Helvetica,sans-Serif" font-size="10.00">_cache&lt; output_type,</text>
<text text-anchor="middle" x="619" y="-255" font-family="Helvetica,sans-Serif" font-size="10.00"> null_rw_mutex &gt;</text>
<polyline fill="none" stroke="black" points="558,-248 680,-248 "/>
<text text-anchor="middle" x="619" y="-236" font-family="Helvetica,sans-Serif" font-size="10.00"> </text>
<polyline fill="none" stroke="black" points="558,-229 680,-229 "/>
<text text-anchor="start" x="566" y="-217" font-family="Helvetica,sans-Serif" font-size="10.00">+ broadcast_cache()</text>
<text text-anchor="start" x="566" y="-206" font-family="Helvetica,sans-Serif" font-size="10.00">+ try_put_task()</text>
</a>
</g>
</g>
<!-- Node6&#45;&gt;Node1 -->
<g id="edge5" class="edge"><title>Node6&#45;&gt;Node1</title>
<path fill="none" stroke="#404040" d="M566.789,-198.772C552.748,-187.228 537.446,-174.956 523,-164 511.696,-155.427 499.667,-146.627 487.673,-138.045"/>
<polygon fill="none" stroke="#404040" points="487.402,-137.852 480.195,-137.634 477.623,-130.897 484.831,-131.115 487.402,-137.852"/>
<text text-anchor="middle" x="577.5" y="-167" font-family="Helvetica,sans-Serif" font-size="10.00"> &#45;my_successors</text>
</g>
<!-- Node7 -->
<g id="node7" class="node"><title>Node7</title>
<g id="a_node7"><a xlink:href="../../d9/d30/classinternal_1_1successor__cache.html" target="_top" xlink:title="{internal::successor\l_cache\&lt; output_type,\l null_rw_mutex \&gt;\n|# my_mutex\l# my_successors\l|+ successor_cache()\l+ set_owner()\l+ ~successor_cache()\l+ register_successor()\l+ remove_successor()\l+ empty()\l+ clear()\l+ try_put_task()\l}">
<polygon fill="white" stroke="red" points="556.5,-332.5 556.5,-499.5 681.5,-499.5 681.5,-332.5 556.5,-332.5"/>
<text text-anchor="start" x="564.5" y="-487.5" font-family="Helvetica,sans-Serif" font-size="10.00">internal::successor</text>
<text text-anchor="start" x="564.5" y="-476.5" font-family="Helvetica,sans-Serif" font-size="10.00">_cache&lt; output_type,</text>
<text text-anchor="middle" x="619" y="-465.5" font-family="Helvetica,sans-Serif" font-size="10.00"> null_rw_mutex &gt;</text>
<polyline fill="none" stroke="red" points="556.5,-458.5 681.5,-458.5 "/>
<text text-anchor="start" x="564.5" y="-446.5" font-family="Helvetica,sans-Serif" font-size="10.00"># my_mutex</text>
<text text-anchor="start" x="564.5" y="-435.5" font-family="Helvetica,sans-Serif" font-size="10.00"># my_successors</text>
<polyline fill="none" stroke="red" points="556.5,-428.5 681.5,-428.5 "/>
<text text-anchor="start" x="564.5" y="-416.5" font-family="Helvetica,sans-Serif" font-size="10.00">+ successor_cache()</text>
<text text-anchor="start" x="564.5" y="-405.5" font-family="Helvetica,sans-Serif" font-size="10.00">+ set_owner()</text>
<text text-anchor="start" x="564.5" y="-394.5" font-family="Helvetica,sans-Serif" font-size="10.00">+ ~successor_cache()</text>
<text text-anchor="start" x="564.5" y="-383.5" font-family="Helvetica,sans-Serif" font-size="10.00">+ register_successor()</text>
<text text-anchor="start" x="564.5" y="-372.5" font-family="Helvetica,sans-Serif" font-size="10.00">+ remove_successor()</text>
<text text-anchor="start" x="564.5" y="-361.5" font-family="Helvetica,sans-Serif" font-size="10.00">+ empty()</text>
<text text-anchor="start" x="564.5" y="-350.5" font-family="Helvetica,sans-Serif" font-size="10.00">+ clear()</text>
<text text-anchor="start" x="564.5" y="-339.5" font-family="Helvetica,sans-Serif" font-size="10.00">+ try_put_task()</text>
</a>
</g>
</g>
<!-- Node7&#45;&gt;Node6 -->
<g id="edge6" class="edge"><title>Node7&#45;&gt;Node6</title>
<path fill="none" stroke="midnightblue" d="M619,-322.376C619,-310.897 619,-299.605 619,-289.346"/>
<polygon fill="none" stroke="midnightblue" points="615.5,-322.49 619,-332.49 622.5,-322.49 615.5,-322.49"/>
</g>
<!-- Node8 -->
<g id="node8" class="node"><title>Node8</title>
<polygon fill="white" stroke="#bfbfbf" points="698,-215.5 698,-272.5 742,-272.5 742,-215.5 698,-215.5"/>
<text text-anchor="middle" x="720" y="-260.5" font-family="Helvetica,sans-Serif" font-size="10.00">size_t</text>
<polyline fill="none" stroke="#bfbfbf" points="698,-253.5 742,-253.5 "/>
<text text-anchor="middle" x="720" y="-241.5" font-family="Helvetica,sans-Serif" font-size="10.00"> </text>
<polyline fill="none" stroke="#bfbfbf" points="698,-234.5 742,-234.5 "/>
<text text-anchor="middle" x="720" y="-222.5" font-family="Helvetica,sans-Serif" font-size="10.00"> </text>
</g>
<!-- Node8&#45;&gt;Node1 -->
<g id="edge7" class="edge"><title>Node8&#45;&gt;Node1</title>
<path fill="none" stroke="#404040" d="M706.891,-215.291C702.117,-207.325 696.113,-199.14 689,-193 631.957,-143.757 551.91,-113.199 489.589,-95.3986"/>
<polygon fill="none" stroke="#404040" points="489.333,-95.3276 482.481,-97.5748 477.771,-92.1143 484.623,-89.867 489.333,-95.3276"/>
<text text-anchor="middle" x="671.5" y="-167" font-family="Helvetica,sans-Serif" font-size="10.00"> +N</text>
</g>
</g>
</svg>
