<?xml version="1.0" encoding="UTF-8" standalone="no"?>
<!DOCTYPE svg PUBLIC "-//W3C//DTD SVG 1.1//EN"
 "http://www.w3.org/Graphics/SVG/1.1/DTD/svg11.dtd">
<!-- Generated by graphviz version 2.38.0 (20140413.2041)
 -->
<!-- Title: pulse Pages: 1 -->
<svg width="93pt" height="281pt"
 viewBox="0.00 0.00 93.00 281.00" xmlns="http://www.w3.org/2000/svg" xmlns:xlink="http://www.w3.org/1999/xlink">
<g id="graph0" class="graph" transform="scale(1 1) rotate(0) translate(4 277)">
<title>pulse</title>
<polygon fill="white" stroke="none" points="-4,4 -4,-277 89,-277 89,4 -4,4"/>
<!-- Node1 -->
<g id="node1" class="node"><title>Node1</title>
<polygon fill="#bfbfbf" stroke="black" points="0,-0.5 0,-156.5 85,-156.5 85,-0.5 0,-0.5"/>
<text text-anchor="middle" x="42.5" y="-144.5" font-family="Helvetica,sans-Serif" font-size="10.00">pulse</text>
<polyline fill="none" stroke="black" points="0,-137.5 85,-137.5 "/>
<text text-anchor="start" x="8" y="-125.5" font-family="Helvetica,sans-Serif" font-size="10.00">&#45; my_graph</text>
<text text-anchor="start" x="8" y="-114.5" font-family="Helvetica,sans-Serif" font-size="10.00">&#45; reps</text>
<text text-anchor="start" x="8" y="-103.5" font-family="Helvetica,sans-Serif" font-size="10.00">&#45; init_reps</text>
<text text-anchor="start" x="8" y="-92.5" font-family="Helvetica,sans-Serif" font-size="10.00">&#45; clock_node</text>
<polyline fill="none" stroke="black" points="0,-85.5 85,-85.5 "/>
<text text-anchor="start" x="8" y="-73.5" font-family="Helvetica,sans-Serif" font-size="10.00">+ pulse()</text>
<text text-anchor="start" x="8" y="-62.5" font-family="Helvetica,sans-Serif" font-size="10.00">+ pulse()</text>
<text text-anchor="start" x="8" y="-51.5" font-family="Helvetica,sans-Serif" font-size="10.00">+ ~pulse()</text>
<text text-anchor="start" x="8" y="-40.5" font-family="Helvetica,sans-Serif" font-size="10.00">+ operator=()</text>
<text text-anchor="start" x="8" y="-29.5" font-family="Helvetica,sans-Serif" font-size="10.00">+ get_out()</text>
<text text-anchor="start" x="8" y="-18.5" font-family="Helvetica,sans-Serif" font-size="10.00">+ activate()</text>
<text text-anchor="start" x="8" y="-7.5" font-family="Helvetica,sans-Serif" font-size="10.00">+ reset()</text>
</g>
<!-- Node2 -->
<g id="node2" class="node"><title>Node2</title>
<polygon fill="white" stroke="#bfbfbf" points="20.5,-215.5 20.5,-272.5 64.5,-272.5 64.5,-215.5 20.5,-215.5"/>
<text text-anchor="middle" x="42.5" y="-260.5" font-family="Helvetica,sans-Serif" font-size="10.00">size_t</text>
<polyline fill="none" stroke="#bfbfbf" points="20.5,-253.5 64.5,-253.5 "/>
<text text-anchor="middle" x="42.5" y="-241.5" font-family="Helvetica,sans-Serif" font-size="10.00"> </text>
<polyline fill="none" stroke="#bfbfbf" points="20.5,-234.5 64.5,-234.5 "/>
<text text-anchor="middle" x="42.5" y="-222.5" font-family="Helvetica,sans-Serif" font-size="10.00"> </text>
</g>
<!-- Node2&#45;&gt;Node1 -->
<g id="edge1" class="edge"><title>Node2&#45;&gt;Node1</title>
<path fill="none" stroke="#404040" d="M42.5,-215.264C42.5,-202.215 42.5,-185.841 42.5,-169.025"/>
<polygon fill="none" stroke="#404040" points="42.5001,-168.743 38.5,-162.743 42.5,-156.743 46.5,-162.743 42.5001,-168.743"/>
<text text-anchor="middle" x="62" y="-189" font-family="Helvetica,sans-Serif" font-size="10.00"> &#45;ms</text>
<text text-anchor="middle" x="62" y="-178" font-family="Helvetica,sans-Serif" font-size="10.00">&#45;init_ms</text>
</g>
</g>
</svg>
