<?xml version="1.0" encoding="UTF-8" standalone="no"?>
<!DOCTYPE svg PUBLIC "-//W3C//DTD SVG 1.1//EN"
 "http://www.w3.org/Graphics/SVG/1.1/DTD/svg11.dtd">
<!-- Generated by graphviz version 2.38.0 (20140413.2041)
 -->
<!-- Title: tbb::internal::hash_map_segment_base Pages: 1 -->
<svg width="354pt" height="365pt"
 viewBox="0.00 0.00 354.00 365.00" xmlns="http://www.w3.org/2000/svg" xmlns:xlink="http://www.w3.org/1999/xlink">
<g id="graph0" class="graph" transform="scale(1 1) rotate(0) translate(4 361)">
<title>tbb::internal::hash_map_segment_base</title>
<polygon fill="white" stroke="none" points="-4,4 -4,-361 350,-361 350,4 -4,4"/>
<!-- Node1 -->
<g id="node1" class="node"><title>Node1</title>
<polygon fill="#bfbfbf" stroke="black" points="95.5,-0.5 95.5,-68.5 244.5,-68.5 244.5,-0.5 95.5,-0.5"/>
<text text-anchor="start" x="103.5" y="-56.5" font-family="Helvetica,sans-Serif" font-size="10.00">tbb::internal::hash</text>
<text text-anchor="middle" x="170" y="-45.5" font-family="Helvetica,sans-Serif" font-size="10.00">_map_segment_base</text>
<polyline fill="none" stroke="black" points="95.5,-38.5 244.5,-38.5 "/>
<text text-anchor="middle" x="170" y="-26.5" font-family="Helvetica,sans-Serif" font-size="10.00"> </text>
<polyline fill="none" stroke="black" points="95.5,-19.5 244.5,-19.5 "/>
<text text-anchor="start" x="103.5" y="-7.5" font-family="Helvetica,sans-Serif" font-size="10.00">+ internal_grow_predicate()</text>
</g>
<!-- Node2 -->
<g id="node2" class="node"><title>Node2</title>
<g id="a_node2"><a xlink:href="../../d4/d32/structtbb_1_1atomic.html" target="_top" xlink:title="{tbb::atomic\&lt; size_t \&gt;\n||+ operator=()\l+ operator=()\l}">
<polygon fill="white" stroke="black" points="0,-160.5 0,-228.5 122,-228.5 122,-160.5 0,-160.5"/>
<text text-anchor="middle" x="61" y="-216.5" font-family="Helvetica,sans-Serif" font-size="10.00">tbb::atomic&lt; size_t &gt;</text>
<polyline fill="none" stroke="black" points="0,-209.5 122,-209.5 "/>
<text text-anchor="middle" x="61" y="-197.5" font-family="Helvetica,sans-Serif" font-size="10.00"> </text>
<polyline fill="none" stroke="black" points="0,-190.5 122,-190.5 "/>
<text text-anchor="start" x="8" y="-178.5" font-family="Helvetica,sans-Serif" font-size="10.00">+ operator=()</text>
<text text-anchor="start" x="8" y="-167.5" font-family="Helvetica,sans-Serif" font-size="10.00">+ operator=()</text>
</a>
</g>
</g>
<!-- Node2&#45;&gt;Node1 -->
<g id="edge1" class="edge"><title>Node2&#45;&gt;Node1</title>
<path fill="none" stroke="#404040" d="M59.856,-160.47C60.6541,-137.905 64.9634,-108.341 80,-87 82.589,-83.3255 85.5291,-79.8779 88.7272,-76.6479"/>
<polygon fill="none" stroke="#404040" points="88.7846,-76.5966 90.5923,-69.6158 97.7315,-68.5995 95.9238,-75.5804 88.7846,-76.5966"/>
<text text-anchor="middle" x="123" y="-101" font-family="Helvetica,sans-Serif" font-size="10.00"> +my_logical_size</text>
</g>
<!-- Node3 -->
<g id="node3" class="node"><title>Node3</title>
<polygon fill="white" stroke="#bfbfbf" points="2.5,-288.5 2.5,-356.5 119.5,-356.5 119.5,-288.5 2.5,-288.5"/>
<text text-anchor="start" x="10.5" y="-344.5" font-family="Helvetica,sans-Serif" font-size="10.00">internal::atomic_impl</text>
<text text-anchor="middle" x="61" y="-333.5" font-family="Helvetica,sans-Serif" font-size="10.00">&lt; size_t &gt;</text>
<polyline fill="none" stroke="#bfbfbf" points="2.5,-326.5 119.5,-326.5 "/>
<text text-anchor="middle" x="61" y="-314.5" font-family="Helvetica,sans-Serif" font-size="10.00"> </text>
<polyline fill="none" stroke="#bfbfbf" points="2.5,-307.5 119.5,-307.5 "/>
<text text-anchor="middle" x="61" y="-295.5" font-family="Helvetica,sans-Serif" font-size="10.00"> </text>
</g>
<!-- Node3&#45;&gt;Node2 -->
<g id="edge2" class="edge"><title>Node3&#45;&gt;Node2</title>
<path fill="none" stroke="midnightblue" d="M61,-278.113C61,-261.972 61,-243.922 61,-228.821"/>
<polygon fill="none" stroke="midnightblue" points="57.5001,-278.395 61,-288.395 64.5001,-278.395 57.5001,-278.395"/>
</g>
<!-- Node4 -->
<g id="node4" class="node"><title>Node4</title>
<polygon fill="white" stroke="#bfbfbf" points="148,-166 148,-223 192,-223 192,-166 148,-166"/>
<text text-anchor="middle" x="170" y="-211" font-family="Helvetica,sans-Serif" font-size="10.00">size_t</text>
<polyline fill="none" stroke="#bfbfbf" points="148,-204 192,-204 "/>
<text text-anchor="middle" x="170" y="-192" font-family="Helvetica,sans-Serif" font-size="10.00"> </text>
<polyline fill="none" stroke="#bfbfbf" points="148,-185 192,-185 "/>
<text text-anchor="middle" x="170" y="-173" font-family="Helvetica,sans-Serif" font-size="10.00"> </text>
</g>
<!-- Node4&#45;&gt;Node1 -->
<g id="edge3" class="edge"><title>Node4&#45;&gt;Node1</title>
<path fill="none" stroke="#404040" d="M170,-165.979C170,-142.517 170,-108.326 170,-80.8301"/>
<polygon fill="none" stroke="#404040" points="170,-80.7303 166,-74.7304 170,-68.7303 174,-74.7303 170,-80.7303"/>
<text text-anchor="middle" x="218.5" y="-112" font-family="Helvetica,sans-Serif" font-size="10.00"> +n_segment_bits</text>
<text text-anchor="middle" x="218.5" y="-101" font-family="Helvetica,sans-Serif" font-size="10.00">+max_physical_size</text>
<text text-anchor="middle" x="218.5" y="-90" font-family="Helvetica,sans-Serif" font-size="10.00">+my_physical_size</text>
</g>
<!-- Node5 -->
<g id="node5" class="node"><title>Node5</title>
<g id="a_node5"><a xlink:href="../../d8/d27/classtbb_1_1spin__rw__mutex.html" target="_top" xlink:title="Fast, unfair, spinning reader&#45;writer lock with backoff and writer&#45;preference. ">
<polygon fill="white" stroke="black" points="235,-138.5 235,-250.5 345,-250.5 345,-138.5 235,-138.5"/>
<text text-anchor="middle" x="290" y="-238.5" font-family="Helvetica,sans-Serif" font-size="10.00">tbb::spin_rw_mutex</text>
<polyline fill="none" stroke="black" points="235,-231.5 345,-231.5 "/>
<text text-anchor="start" x="243" y="-219.5" font-family="Helvetica,sans-Serif" font-size="10.00">&#45; state</text>
<text text-anchor="start" x="243" y="-208.5" font-family="Helvetica,sans-Serif" font-size="10.00">&#45; WRITER</text>
<text text-anchor="start" x="243" y="-197.5" font-family="Helvetica,sans-Serif" font-size="10.00">&#45; WRITER_PENDING</text>
<text text-anchor="start" x="243" y="-186.5" font-family="Helvetica,sans-Serif" font-size="10.00">&#45; READERS</text>
<text text-anchor="start" x="243" y="-175.5" font-family="Helvetica,sans-Serif" font-size="10.00">&#45; ONE_READER</text>
<text text-anchor="start" x="243" y="-164.5" font-family="Helvetica,sans-Serif" font-size="10.00">&#45; BUSY</text>
<polyline fill="none" stroke="black" points="235,-157.5 345,-157.5 "/>
<text text-anchor="start" x="243" y="-145.5" font-family="Helvetica,sans-Serif" font-size="10.00">+ spin_rw_mutex()</text>
</a>
</g>
</g>
<!-- Node5&#45;&gt;Node1 -->
<g id="edge4" class="edge"><title>Node5&#45;&gt;Node1</title>
<path fill="none" stroke="#404040" d="M287.875,-138.49C284.901,-120.659 279.072,-101.706 268,-87 264.026,-81.7217 259.353,-76.9324 254.239,-72.5958"/>
<polygon fill="none" stroke="#404040" points="254.164,-72.5387 246.967,-72.088 244.615,-65.2713 251.812,-65.722 254.164,-72.5387"/>
<text text-anchor="middle" x="314.5" y="-101" font-family="Helvetica,sans-Serif" font-size="10.00"> +my_mutex</text>
</g>
</g>
</svg>
