<?xml version="1.0" encoding="UTF-8" standalone="no"?>
<!DOCTYPE svg PUBLIC "-//W3C//DTD SVG 1.1//EN"
 "http://www.w3.org/Graphics/SVG/1.1/DTD/svg11.dtd">
<!-- Generated by graphviz version 2.38.0 (20140413.2041)
 -->
<!-- Title: Derived Pages: 1 -->
<svg width="91pt" height="270pt"
 viewBox="0.00 0.00 91.00 270.00" xmlns="http://www.w3.org/2000/svg" xmlns:xlink="http://www.w3.org/1999/xlink">
<g id="graph0" class="graph" transform="scale(1 1) rotate(0) translate(4 266)">
<title>Derived</title>
<polygon fill="white" stroke="none" points="-4,4 -4,-266 87,-266 87,4 -4,4"/>
<!-- Node1 -->
<g id="node1" class="node"><title>Node1</title>
<polygon fill="#bfbfbf" stroke="black" points="1.5,-0.5 1.5,-79.5 81.5,-79.5 81.5,-0.5 1.5,-0.5"/>
<text text-anchor="middle" x="41.5" y="-67.5" font-family="Helvetica,sans-Serif" font-size="10.00">Derived</text>
<polyline fill="none" stroke="black" points="1.5,-60.5 81.5,-60.5 "/>
<text text-anchor="middle" x="41.5" y="-48.5" font-family="Helvetica,sans-Serif" font-size="10.00"> </text>
<polyline fill="none" stroke="black" points="1.5,-41.5 81.5,-41.5 "/>
<text text-anchor="start" x="9.5" y="-29.5" font-family="Helvetica,sans-Serif" font-size="10.00">+ Derived()</text>
<text text-anchor="start" x="9.5" y="-18.5" font-family="Helvetica,sans-Serif" font-size="10.00">+ ~Derived()</text>
<text text-anchor="start" x="9.5" y="-7.5" font-family="Helvetica,sans-Serif" font-size="10.00">+ SetInt()</text>
</g>
<!-- Node2 -->
<g id="node2" class="node"><title>Node2</title>
<g id="a_node2"><a xlink:href="../../d9/de5/classBase.html" target="_top" xlink:title="{Base\n|# i\l&#45; copy_throws\l|+ Base()\l+ ~Base()\l+ GetInt()\l+ SetInt()\l# Base()\l# Base()\l# ~Base()\l&#45; operator=()\l}">
<polygon fill="white" stroke="black" points="0,-116.5 0,-261.5 83,-261.5 83,-116.5 0,-116.5"/>
<text text-anchor="middle" x="41.5" y="-249.5" font-family="Helvetica,sans-Serif" font-size="10.00">Base</text>
<polyline fill="none" stroke="black" points="0,-242.5 83,-242.5 "/>
<text text-anchor="start" x="8" y="-230.5" font-family="Helvetica,sans-Serif" font-size="10.00"># i</text>
<text text-anchor="start" x="8" y="-219.5" font-family="Helvetica,sans-Serif" font-size="10.00">&#45; copy_throws</text>
<polyline fill="none" stroke="black" points="0,-212.5 83,-212.5 "/>
<text text-anchor="start" x="8" y="-200.5" font-family="Helvetica,sans-Serif" font-size="10.00">+ Base()</text>
<text text-anchor="start" x="8" y="-189.5" font-family="Helvetica,sans-Serif" font-size="10.00">+ ~Base()</text>
<text text-anchor="start" x="8" y="-178.5" font-family="Helvetica,sans-Serif" font-size="10.00">+ GetInt()</text>
<text text-anchor="start" x="8" y="-167.5" font-family="Helvetica,sans-Serif" font-size="10.00">+ SetInt()</text>
<text text-anchor="start" x="8" y="-156.5" font-family="Helvetica,sans-Serif" font-size="10.00"># Base()</text>
<text text-anchor="start" x="8" y="-145.5" font-family="Helvetica,sans-Serif" font-size="10.00"># Base()</text>
<text text-anchor="start" x="8" y="-134.5" font-family="Helvetica,sans-Serif" font-size="10.00"># ~Base()</text>
<text text-anchor="start" x="8" y="-123.5" font-family="Helvetica,sans-Serif" font-size="10.00">&#45; operator=()</text>
</a>
</g>
</g>
<!-- Node2&#45;&gt;Node1 -->
<g id="edge1" class="edge"><title>Node2&#45;&gt;Node1</title>
<path fill="none" stroke="midnightblue" d="M41.5,-105.954C41.5,-96.8992 41.5,-88.0195 41.5,-79.875"/>
<polygon fill="none" stroke="midnightblue" points="38.0001,-106.222 41.5,-116.223 45.0001,-106.223 38.0001,-106.222"/>
</g>
</g>
</svg>
