<?xml version="1.0" encoding="UTF-8" standalone="no"?>
<!DOCTYPE svg PUBLIC "-//W3C//DTD SVG 1.1//EN"
 "http://www.w3.org/Graphics/SVG/1.1/DTD/svg11.dtd">
<!-- Generated by graphviz version 2.38.0 (20140413.2041)
 -->
<!-- Title: rml::internal::job_automaton Pages: 1 -->
<svg width="124pt" height="270pt"
 viewBox="0.00 0.00 124.00 270.00" xmlns="http://www.w3.org/2000/svg" xmlns:xlink="http://www.w3.org/1999/xlink">
<g id="graph0" class="graph" transform="scale(1 1) rotate(0) translate(4 266)">
<title>rml::internal::job_automaton</title>
<polygon fill="white" stroke="none" points="-4,4 -4,-266 120,-266 120,4 -4,4"/>
<!-- Node1 -->
<g id="node1" class="node"><title>Node1</title>
<polygon fill="#bfbfbf" stroke="black" points="-7.10543e-15,-0.5 -7.10543e-15,-145.5 116,-145.5 116,-0.5 -7.10543e-15,-0.5"/>
<text text-anchor="start" x="8" y="-133.5" font-family="Helvetica,sans-Serif" font-size="10.00">rml::internal::job</text>
<text text-anchor="middle" x="58" y="-122.5" font-family="Helvetica,sans-Serif" font-size="10.00">_automaton</text>
<polyline fill="none" stroke="black" points="-7.10543e-15,-115.5 116,-115.5 "/>
<text text-anchor="start" x="8" y="-103.5" font-family="Helvetica,sans-Serif" font-size="10.00">&#45; my_job</text>
<polyline fill="none" stroke="black" points="-7.10543e-15,-96.5 116,-96.5 "/>
<text text-anchor="start" x="8" y="-84.5" font-family="Helvetica,sans-Serif" font-size="10.00">+ job_automaton()</text>
<text text-anchor="start" x="8" y="-73.5" font-family="Helvetica,sans-Serif" font-size="10.00">+ ~job_automaton()</text>
<text text-anchor="start" x="8" y="-62.5" font-family="Helvetica,sans-Serif" font-size="10.00">+ try_acquire()</text>
<text text-anchor="start" x="8" y="-51.5" font-family="Helvetica,sans-Serif" font-size="10.00">+ release()</text>
<text text-anchor="start" x="8" y="-40.5" font-family="Helvetica,sans-Serif" font-size="10.00">+ set_and_release()</text>
<text text-anchor="start" x="8" y="-29.5" font-family="Helvetica,sans-Serif" font-size="10.00">+ try_plug_null()</text>
<text text-anchor="start" x="8" y="-18.5" font-family="Helvetica,sans-Serif" font-size="10.00">+ try_plug()</text>
<text text-anchor="start" x="8" y="-7.5" font-family="Helvetica,sans-Serif" font-size="10.00">+ wait_for_job()</text>
</g>
<!-- Node2 -->
<g id="node2" class="node"><title>Node2</title>
<g id="a_node2"><a xlink:href="../../d2/ddc/classrml_1_1no__copy.html" target="_top" xlink:title="Base class for denying assignment and copy constructor. ">
<polygon fill="white" stroke="black" points="18,-182.5 18,-261.5 98,-261.5 98,-182.5 18,-182.5"/>
<text text-anchor="middle" x="58" y="-249.5" font-family="Helvetica,sans-Serif" font-size="10.00">rml::no_copy</text>
<polyline fill="none" stroke="black" points="18,-242.5 98,-242.5 "/>
<text text-anchor="middle" x="58" y="-230.5" font-family="Helvetica,sans-Serif" font-size="10.00"> </text>
<polyline fill="none" stroke="black" points="18,-223.5 98,-223.5 "/>
<text text-anchor="start" x="26" y="-211.5" font-family="Helvetica,sans-Serif" font-size="10.00">+ no_copy()</text>
<text text-anchor="start" x="26" y="-200.5" font-family="Helvetica,sans-Serif" font-size="10.00">&#45; operator=()</text>
<text text-anchor="start" x="26" y="-189.5" font-family="Helvetica,sans-Serif" font-size="10.00">&#45; no_copy()</text>
</a>
</g>
</g>
<!-- Node2&#45;&gt;Node1 -->
<g id="edge1" class="edge"><title>Node2&#45;&gt;Node1</title>
<path fill="none" stroke="#8b1a1a" d="M58,-172.243C58,-163.699 58,-154.651 58,-145.64"/>
<polygon fill="none" stroke="#8b1a1a" points="54.5001,-172.377 58,-182.377 61.5001,-172.378 54.5001,-172.377"/>
</g>
</g>
</svg>
