<?xml version="1.0" encoding="UTF-8" standalone="no"?>
<!DOCTYPE svg PUBLIC "-//W3C//DTD SVG 1.1//EN"
 "http://www.w3.org/Graphics/SVG/1.1/DTD/svg11.dtd">
<!-- Generated by graphviz version 2.38.0 (20140413.2041)
 -->
<!-- Title: tbb::internal::arena_slot_line1 Pages: 1 -->
<svg width="1429pt" height="1052pt"
 viewBox="0.00 0.00 1429.30 1052.00" xmlns="http://www.w3.org/2000/svg" xmlns:xlink="http://www.w3.org/1999/xlink">
<g id="graph0" class="graph" transform="scale(1 1) rotate(0) translate(4 1048)">
<title>tbb::internal::arena_slot_line1</title>
<polygon fill="white" stroke="none" points="-4,4 -4,-1048 1425.3,-1048 1425.3,4 -4,4"/>
<!-- Node1 -->
<g id="node1" class="node"><title>Node1</title>
<polygon fill="#bfbfbf" stroke="black" points="551.665,-0.5 551.665,-68.5 659.665,-68.5 659.665,-0.5 551.665,-0.5"/>
<text text-anchor="start" x="559.665" y="-56.5" font-family="Helvetica,sans-Serif" font-size="10.00">tbb::internal::arena</text>
<text text-anchor="middle" x="605.665" y="-45.5" font-family="Helvetica,sans-Serif" font-size="10.00">_slot_line1</text>
<polyline fill="none" stroke="black" points="551.665,-38.5 659.665,-38.5 "/>
<text text-anchor="middle" x="605.665" y="-26.5" font-family="Helvetica,sans-Serif" font-size="10.00"> </text>
<polyline fill="none" stroke="black" points="551.665,-19.5 659.665,-19.5 "/>
<text text-anchor="middle" x="605.665" y="-7.5" font-family="Helvetica,sans-Serif" font-size="10.00"> </text>
</g>
<!-- Node2 -->
<g id="node2" class="node"><title>Node2</title>
<g id="a_node2"><a xlink:href="../../d9/dd0/classtbb_1_1internal_1_1generic__scheduler.html" target="_top" xlink:title="Work stealing task scheduler. ">
<polygon fill="white" stroke="black" points="533.165,-116.5 533.165,-448.5 678.165,-448.5 678.165,-116.5 533.165,-116.5"/>
<text text-anchor="start" x="541.165" y="-436.5" font-family="Helvetica,sans-Serif" font-size="10.00">tbb::internal::generic</text>
<text text-anchor="middle" x="605.665" y="-425.5" font-family="Helvetica,sans-Serif" font-size="10.00">_scheduler</text>
<polyline fill="none" stroke="black" points="533.165,-418.5 678.165,-418.5 "/>
<text text-anchor="start" x="541.165" y="-406.5" font-family="Helvetica,sans-Serif" font-size="10.00">+ my_stealing_threshold</text>
<text text-anchor="start" x="541.165" y="-395.5" font-family="Helvetica,sans-Serif" font-size="10.00">+ my_ref_count</text>
<text text-anchor="start" x="541.165" y="-384.5" font-family="Helvetica,sans-Serif" font-size="10.00">+ my_auto_initialized</text>
<text text-anchor="start" x="541.165" y="-373.5" font-family="Helvetica,sans-Serif" font-size="10.00">+ my_small_task_count</text>
<polyline fill="none" stroke="black" points="533.165,-366.5 678.165,-366.5 "/>
<text text-anchor="start" x="541.165" y="-354.5" font-family="Helvetica,sans-Serif" font-size="10.00">+ is_task_pool_published()</text>
<text text-anchor="start" x="541.165" y="-343.5" font-family="Helvetica,sans-Serif" font-size="10.00">+ is_local_task_pool</text>
<text text-anchor="start" x="541.165" y="-332.5" font-family="Helvetica,sans-Serif" font-size="10.00">_quiescent()</text>
<text text-anchor="start" x="541.165" y="-321.5" font-family="Helvetica,sans-Serif" font-size="10.00">+ is_quiescent_local</text>
<text text-anchor="start" x="541.165" y="-310.5" font-family="Helvetica,sans-Serif" font-size="10.00">_task_pool_empty()</text>
<text text-anchor="start" x="541.165" y="-299.5" font-family="Helvetica,sans-Serif" font-size="10.00">+ is_quiescent_local</text>
<text text-anchor="start" x="541.165" y="-288.5" font-family="Helvetica,sans-Serif" font-size="10.00">_task_pool_reset()</text>
<text text-anchor="start" x="541.165" y="-277.5" font-family="Helvetica,sans-Serif" font-size="10.00">+ attach_mailbox()</text>
<text text-anchor="start" x="541.165" y="-266.5" font-family="Helvetica,sans-Serif" font-size="10.00">+ init_stack_info()</text>
<text text-anchor="start" x="541.165" y="-255.5" font-family="Helvetica,sans-Serif" font-size="10.00">+ can_steal()</text>
<text text-anchor="start" x="541.165" y="-244.5" font-family="Helvetica,sans-Serif" font-size="10.00">+ publish_task_pool()</text>
<text text-anchor="start" x="541.165" y="-233.5" font-family="Helvetica,sans-Serif" font-size="10.00">+ leave_task_pool()</text>
<text text-anchor="start" x="541.165" y="-222.5" font-family="Helvetica,sans-Serif" font-size="10.00">+ reset_task_pool_and</text>
<text text-anchor="start" x="541.165" y="-211.5" font-family="Helvetica,sans-Serif" font-size="10.00">_leave()</text>
<text text-anchor="start" x="541.165" y="-200.5" font-family="Helvetica,sans-Serif" font-size="10.00">and 35 more...</text>
<text text-anchor="start" x="541.165" y="-189.5" font-family="Helvetica,sans-Serif" font-size="10.00">+ is_version_3_task()</text>
<text text-anchor="start" x="541.165" y="-178.5" font-family="Helvetica,sans-Serif" font-size="10.00">+ is_proxy()</text>
<text text-anchor="start" x="541.165" y="-167.5" font-family="Helvetica,sans-Serif" font-size="10.00">+ create_master()</text>
<text text-anchor="start" x="541.165" y="-156.5" font-family="Helvetica,sans-Serif" font-size="10.00">+ create_worker()</text>
<text text-anchor="start" x="541.165" y="-145.5" font-family="Helvetica,sans-Serif" font-size="10.00">+ cleanup_worker()</text>
<text text-anchor="start" x="541.165" y="-134.5" font-family="Helvetica,sans-Serif" font-size="10.00">+ plugged_return_list()</text>
<text text-anchor="start" x="541.165" y="-123.5" font-family="Helvetica,sans-Serif" font-size="10.00"># generic_scheduler()</text>
</a>
</g>
</g>
<!-- Node2&#45;&gt;Node1 -->
<g id="edge1" class="edge"><title>Node2&#45;&gt;Node1</title>
<path fill="none" stroke="#404040" d="M605.665,-116.39C605.665,-103.741 605.665,-91.7672 605.665,-81.1014"/>
<polygon fill="none" stroke="#404040" points="605.665,-80.7826 601.665,-74.7826 605.665,-68.7826 609.665,-74.7825 605.665,-80.7826"/>
<text text-anchor="middle" x="645.165" y="-90" font-family="Helvetica,sans-Serif" font-size="10.00"> +my_scheduler</text>
</g>
<!-- Node3 -->
<g id="node3" class="node"><title>Node3</title>
<polygon fill="white" stroke="#bfbfbf" points="1265.16,-689 1265.16,-746 1328.16,-746 1328.16,-689 1265.16,-689"/>
<text text-anchor="middle" x="1296.66" y="-734" font-family="Helvetica,sans-Serif" font-size="10.00">scheduler</text>
<polyline fill="none" stroke="#bfbfbf" points="1265.16,-727 1328.16,-727 "/>
<text text-anchor="middle" x="1296.66" y="-715" font-family="Helvetica,sans-Serif" font-size="10.00"> </text>
<polyline fill="none" stroke="#bfbfbf" points="1265.16,-708 1328.16,-708 "/>
<text text-anchor="middle" x="1296.66" y="-696" font-family="Helvetica,sans-Serif" font-size="10.00"> </text>
</g>
<!-- Node3&#45;&gt;Node2 -->
<g id="edge2" class="edge"><title>Node3&#45;&gt;Node2</title>
<path fill="none" stroke="midnightblue" d="M1300.69,-678.617C1303.65,-630.306 1301.11,-546.939 1256.66,-496 1106.21,-323.543 813.928,-290.291 678.186,-284.405"/>
<polygon fill="none" stroke="midnightblue" points="1297.2,-678.433 1299.97,-688.659 1304.18,-678.937 1297.2,-678.433"/>
</g>
<!-- Node4 -->
<g id="node4" class="node"><title>Node4</title>
<g id="a_node4"><a xlink:href="../../d3/db2/classrml_1_1job.html" target="_top" xlink:title="Represents a client&#39;s job for an execution context. ">
<polygon fill="white" stroke="black" points="232.165,-689 232.165,-746 309.165,-746 309.165,-689 232.165,-689"/>
<text text-anchor="middle" x="270.665" y="-734" font-family="Helvetica,sans-Serif" font-size="10.00">rml::job</text>
<polyline fill="none" stroke="black" points="232.165,-727 309.165,-727 "/>
<text text-anchor="start" x="240.165" y="-715" font-family="Helvetica,sans-Serif" font-size="10.00">&#45; scratch_ptr</text>
<polyline fill="none" stroke="black" points="232.165,-708 309.165,-708 "/>
<text text-anchor="middle" x="270.665" y="-696" font-family="Helvetica,sans-Serif" font-size="10.00"> </text>
</a>
</g>
</g>
<!-- Node4&#45;&gt;Node2 -->
<g id="edge3" class="edge"><title>Node4&#45;&gt;Node2</title>
<path fill="none" stroke="midnightblue" d="M270.991,-678.46C273.077,-631.899 282.258,-552.316 318.665,-496 371.257,-414.648 466.566,-353.44 532.855,-318.093"/>
<polygon fill="none" stroke="midnightblue" points="267.484,-678.593 270.623,-688.712 274.479,-678.844 267.484,-678.593"/>
</g>
<!-- Node5 -->
<g id="node5" class="node"><title>Node5</title>
<g id="a_node5"><a xlink:href="../../d8/dce/structtbb_1_1internal_1_1intrusive__list__node.html" target="_top" xlink:title="Data structure to be inherited by the types that can form intrusive lists. ">
<polygon fill="white" stroke="black" points="631.165,-683.5 631.165,-751.5 752.165,-751.5 752.165,-683.5 631.165,-683.5"/>
<text text-anchor="start" x="639.165" y="-739.5" font-family="Helvetica,sans-Serif" font-size="10.00">tbb::internal::intrusive</text>
<text text-anchor="middle" x="691.665" y="-728.5" font-family="Helvetica,sans-Serif" font-size="10.00">_list_node</text>
<polyline fill="none" stroke="black" points="631.165,-721.5 752.165,-721.5 "/>
<text text-anchor="middle" x="691.665" y="-709.5" font-family="Helvetica,sans-Serif" font-size="10.00"> </text>
<polyline fill="none" stroke="black" points="631.165,-702.5 752.165,-702.5 "/>
<text text-anchor="middle" x="691.665" y="-690.5" font-family="Helvetica,sans-Serif" font-size="10.00"> </text>
</a>
</g>
</g>
<!-- Node5&#45;&gt;Node2 -->
<g id="edge4" class="edge"><title>Node5&#45;&gt;Node2</title>
<path fill="none" stroke="midnightblue" d="M683.087,-673.309C672.693,-620.979 654.571,-529.736 638.472,-448.678"/>
<polygon fill="none" stroke="midnightblue" points="679.678,-674.116 685.059,-683.242 686.544,-672.752 679.678,-674.116"/>
</g>
<!-- Node5&#45;&gt;Node5 -->
<g id="edge5" class="edge"><title>Node5&#45;&gt;Node5</title>
<path fill="none" stroke="#404040" d="M714.97,-751.812C740.727,-774.688 770.165,-763.25 770.165,-717.5 770.165,-677.647 747.828,-663.831 725.043,-676.052"/>
<polygon fill="none" stroke="#404040" points="724.762,-676.251 722.178,-682.983 714.97,-683.188 717.553,-676.455 724.762,-676.251"/>
<text text-anchor="middle" x="811.165" y="-720.5" font-family="Helvetica,sans-Serif" font-size="10.00"> +my_next_node</text>
<text text-anchor="middle" x="811.165" y="-709.5" font-family="Helvetica,sans-Serif" font-size="10.00">+my_prev_node</text>
</g>
<!-- Node6 -->
<g id="node6" class="node"><title>Node6</title>
<g id="a_node6"><a xlink:href="../../d6/de4/structtbb_1_1internal_1_1scheduler__state.html" target="_top" xlink:title="{tbb::internal::scheduler\l_state\n|+ my_affinity_id\l|}">
<polygon fill="white" stroke="red" points="486.165,-683.5 486.165,-751.5 613.165,-751.5 613.165,-683.5 486.165,-683.5"/>
<text text-anchor="start" x="494.165" y="-739.5" font-family="Helvetica,sans-Serif" font-size="10.00">tbb::internal::scheduler</text>
<text text-anchor="middle" x="549.665" y="-728.5" font-family="Helvetica,sans-Serif" font-size="10.00">_state</text>
<polyline fill="none" stroke="red" points="486.165,-721.5 613.165,-721.5 "/>
<text text-anchor="start" x="494.165" y="-709.5" font-family="Helvetica,sans-Serif" font-size="10.00">+ my_affinity_id</text>
<polyline fill="none" stroke="red" points="486.165,-702.5 613.165,-702.5 "/>
<text text-anchor="middle" x="549.665" y="-690.5" font-family="Helvetica,sans-Serif" font-size="10.00"> </text>
</a>
</g>
</g>
<!-- Node6&#45;&gt;Node2 -->
<g id="edge6" class="edge"><title>Node6&#45;&gt;Node2</title>
<path fill="none" stroke="midnightblue" d="M555.251,-673.309C562.019,-620.979 573.819,-529.736 584.302,-448.678"/>
<polygon fill="none" stroke="midnightblue" points="551.778,-672.876 553.966,-683.242 558.72,-673.774 551.778,-672.876"/>
</g>
<!-- Node7 -->
<g id="node7" class="node"><title>Node7</title>
<polygon fill="white" stroke="#bfbfbf" points="101.165,-986.5 101.165,-1043.5 138.165,-1043.5 138.165,-986.5 101.165,-986.5"/>
<text text-anchor="middle" x="119.665" y="-1031.5" font-family="Helvetica,sans-Serif" font-size="10.00">task</text>
<polyline fill="none" stroke="#bfbfbf" points="101.165,-1024.5 138.165,-1024.5 "/>
<text text-anchor="middle" x="119.665" y="-1012.5" font-family="Helvetica,sans-Serif" font-size="10.00"> </text>
<polyline fill="none" stroke="#bfbfbf" points="101.165,-1005.5 138.165,-1005.5 "/>
<text text-anchor="middle" x="119.665" y="-993.5" font-family="Helvetica,sans-Serif" font-size="10.00"> </text>
</g>
<!-- Node7&#45;&gt;Node1 -->
<g id="edge15" class="edge"><title>Node7&#45;&gt;Node1</title>
<path fill="none" stroke="#404040" d="M101.043,-994.862C88.6403,-980.71 73.423,-960.274 66.6648,-939 3.12341,-738.98 -49.052,-631.982 80.6648,-467 216.869,-293.768 433.795,-143.619 541.146,-75.0862"/>
<polygon fill="none" stroke="#404040" points="541.368,-74.9453 544.29,-68.3525 551.499,-68.5135 548.578,-75.1063 541.368,-74.9453"/>
<text text-anchor="middle" x="109.665" y="-470" font-family="Helvetica,sans-Serif" font-size="10.00"> +task_pool</text>
</g>
<!-- Node7&#45;&gt;Node2 -->
<g id="edge13" class="edge"><title>Node7&#45;&gt;Node2</title>
<path fill="none" stroke="#404040" d="M110.694,-986.281C85.7338,-903.539 23.9409,-654.272 128.665,-496 216.753,-362.869 409.335,-312.345 520.987,-293.775"/>
<polygon fill="none" stroke="#404040" points="521.012,-293.771 526.303,-288.871 532.861,-291.87 527.57,-296.77 521.012,-293.771"/>
<text text-anchor="middle" x="175.665" y="-726" font-family="Helvetica,sans-Serif" font-size="10.00"> +my_dummy_task</text>
<text text-anchor="middle" x="175.665" y="-715" font-family="Helvetica,sans-Serif" font-size="10.00">+my_return_list</text>
<text text-anchor="middle" x="175.665" y="-704" font-family="Helvetica,sans-Serif" font-size="10.00">+my_free_list</text>
</g>
<!-- Node7&#45;&gt;Node6 -->
<g id="edge7" class="edge"><title>Node7&#45;&gt;Node6</title>
<path fill="none" stroke="#404040" d="M138.429,-1012.5C204.538,-1006.84 425.418,-984.777 476.665,-939 526.845,-894.176 542.624,-814.107 547.528,-763.782"/>
<polygon fill="none" stroke="#404040" points="547.542,-763.625 544.063,-757.308 548.555,-751.668 552.034,-757.984 547.542,-763.625"/>
<text text-anchor="middle" x="519.665" y="-960" font-family="Helvetica,sans-Serif" font-size="10.00"> +my_innermost_running_task</text>
</g>
<!-- Node8 -->
<g id="node8" class="node"><title>Node8</title>
<polygon fill="white" stroke="#bfbfbf" points="925.665,-986.5 925.665,-1043.5 969.665,-1043.5 969.665,-986.5 925.665,-986.5"/>
<text text-anchor="middle" x="947.665" y="-1031.5" font-family="Helvetica,sans-Serif" font-size="10.00">size_t</text>
<polyline fill="none" stroke="#bfbfbf" points="925.665,-1024.5 969.665,-1024.5 "/>
<text text-anchor="middle" x="947.665" y="-1012.5" font-family="Helvetica,sans-Serif" font-size="10.00"> </text>
<polyline fill="none" stroke="#bfbfbf" points="925.665,-1005.5 969.665,-1005.5 "/>
<text text-anchor="middle" x="947.665" y="-993.5" font-family="Helvetica,sans-Serif" font-size="10.00"> </text>
</g>
<!-- Node8&#45;&gt;Node1 -->
<g id="edge16" class="edge"><title>Node8&#45;&gt;Node1</title>
<path fill="none" stroke="#404040" d="M969.78,-1013.28C1045.2,-1010.33 1290.24,-996.412 1337.66,-939 1463.05,-787.201 1432.79,-668.385 1337.66,-496 1191.65,-231.385 822.666,-98.187 671.646,-53.3458"/>
<polygon fill="none" stroke="#404040" points="671.382,-53.2685 664.499,-55.4212 659.865,-49.8963 666.748,-47.7436 671.382,-53.2685"/>
<text text-anchor="middle" x="1341.66" y="-470" font-family="Helvetica,sans-Serif" font-size="10.00"> +head</text>
</g>
<!-- Node8&#45;&gt;Node2 -->
<g id="edge14" class="edge"><title>Node8&#45;&gt;Node2</title>
<path fill="none" stroke="#404040" d="M925.5,-987.245C915.506,-973.647 904.63,-956.357 898.665,-939 834.451,-752.152 953.015,-671.188 861.665,-496 823.433,-422.681 747.908,-364.913 688.753,-328.23"/>
<polygon fill="none" stroke="#404040" points="688.534,-328.096 681.329,-328.39 678.286,-321.852 685.492,-321.558 688.534,-328.096"/>
<text text-anchor="middle" x="951.165" y="-726" font-family="Helvetica,sans-Serif" font-size="10.00"> +min_task_pool_size</text>
<text text-anchor="middle" x="951.165" y="-715" font-family="Helvetica,sans-Serif" font-size="10.00">+quick_task_size</text>
<text text-anchor="middle" x="951.165" y="-704" font-family="Helvetica,sans-Serif" font-size="10.00">+null_arena_index</text>
</g>
<!-- Node8&#45;&gt;Node6 -->
<g id="edge8" class="edge"><title>Node8&#45;&gt;Node6</title>
<path fill="none" stroke="#404040" d="M925.647,-1011.75C859.937,-1004.6 666.991,-980.441 621.665,-939 572.073,-893.659 556.54,-813.748 551.736,-763.594"/>
<polygon fill="none" stroke="#404040" points="551.727,-763.482 547.243,-757.834 550.732,-751.523 555.215,-757.171 551.727,-763.482"/>
<text text-anchor="middle" x="722.165" y="-960" font-family="Helvetica,sans-Serif" font-size="10.00"> +my_arena_index</text>
</g>
<!-- Node9 -->
<g id="node9" class="node"><title>Node9</title>
<g id="a_node9"><a xlink:href="../../d6/dab/classtbb_1_1internal_1_1market.html" target="_top" xlink:title="{tbb::internal::market\n|&#45; my_num_workers_hard\l_limit\l&#45; my_num_workers_soft\l_limit\l&#45; my_num_workers_requested\l&#45; my_total_demand\l&#45; my_arenas_aba_epoch\l&#45; my_ref_count\l&#45; my_public_ref_count\l&#45; my_join_workers\l&#45; my_workers_soft_limit\l_to_report\l&#45; theMarketMutex\l&#45; skip_soft_limit_warning\l|+ try_destroy_arena()\l+ detach_arena()\l+ release()\l+ adjust_demand()\l+ must_join_workers()\l+ worker_stack_size()\l+ create_arena()\l+ set_active_num_workers()\l+ app_parallelism_limit()\l+ max_num_workers()\l&#45; market()\l&#45; destroy()\l&#45; update_allotment()\l&#45; arena_in_need()\l&#45; assert_market_valid()\l&#45; insert_arena_into_list()\l&#45; remove_arena_from_list()\l&#45; arena_in_need()\l&#45; is_arena_in_list()\l&#45; version()\land 7 more...\l&#45; global_market()\l&#45; update_allotment()\l}">
<polygon fill="white" stroke="red" points="1012.16,-496.5 1012.16,-938.5 1173.16,-938.5 1173.16,-496.5 1012.16,-496.5"/>
<text text-anchor="middle" x="1092.66" y="-926.5" font-family="Helvetica,sans-Serif" font-size="10.00">tbb::internal::market</text>
<polyline fill="none" stroke="red" points="1012.16,-919.5 1173.16,-919.5 "/>
<text text-anchor="start" x="1020.16" y="-907.5" font-family="Helvetica,sans-Serif" font-size="10.00">&#45; my_num_workers_hard</text>
<text text-anchor="start" x="1020.16" y="-896.5" font-family="Helvetica,sans-Serif" font-size="10.00">_limit</text>
<text text-anchor="start" x="1020.16" y="-885.5" font-family="Helvetica,sans-Serif" font-size="10.00">&#45; my_num_workers_soft</text>
<text text-anchor="start" x="1020.16" y="-874.5" font-family="Helvetica,sans-Serif" font-size="10.00">_limit</text>
<text text-anchor="start" x="1020.16" y="-863.5" font-family="Helvetica,sans-Serif" font-size="10.00">&#45; my_num_workers_requested</text>
<text text-anchor="start" x="1020.16" y="-852.5" font-family="Helvetica,sans-Serif" font-size="10.00">&#45; my_total_demand</text>
<text text-anchor="start" x="1020.16" y="-841.5" font-family="Helvetica,sans-Serif" font-size="10.00">&#45; my_arenas_aba_epoch</text>
<text text-anchor="start" x="1020.16" y="-830.5" font-family="Helvetica,sans-Serif" font-size="10.00">&#45; my_ref_count</text>
<text text-anchor="start" x="1020.16" y="-819.5" font-family="Helvetica,sans-Serif" font-size="10.00">&#45; my_public_ref_count</text>
<text text-anchor="start" x="1020.16" y="-808.5" font-family="Helvetica,sans-Serif" font-size="10.00">&#45; my_join_workers</text>
<text text-anchor="start" x="1020.16" y="-797.5" font-family="Helvetica,sans-Serif" font-size="10.00">&#45; my_workers_soft_limit</text>
<text text-anchor="start" x="1020.16" y="-786.5" font-family="Helvetica,sans-Serif" font-size="10.00">_to_report</text>
<text text-anchor="start" x="1020.16" y="-775.5" font-family="Helvetica,sans-Serif" font-size="10.00">&#45; theMarketMutex</text>
<text text-anchor="start" x="1020.16" y="-764.5" font-family="Helvetica,sans-Serif" font-size="10.00">&#45; skip_soft_limit_warning</text>
<polyline fill="none" stroke="red" points="1012.16,-757.5 1173.16,-757.5 "/>
<text text-anchor="start" x="1020.16" y="-745.5" font-family="Helvetica,sans-Serif" font-size="10.00">+ try_destroy_arena()</text>
<text text-anchor="start" x="1020.16" y="-734.5" font-family="Helvetica,sans-Serif" font-size="10.00">+ detach_arena()</text>
<text text-anchor="start" x="1020.16" y="-723.5" font-family="Helvetica,sans-Serif" font-size="10.00">+ release()</text>
<text text-anchor="start" x="1020.16" y="-712.5" font-family="Helvetica,sans-Serif" font-size="10.00">+ adjust_demand()</text>
<text text-anchor="start" x="1020.16" y="-701.5" font-family="Helvetica,sans-Serif" font-size="10.00">+ must_join_workers()</text>
<text text-anchor="start" x="1020.16" y="-690.5" font-family="Helvetica,sans-Serif" font-size="10.00">+ worker_stack_size()</text>
<text text-anchor="start" x="1020.16" y="-679.5" font-family="Helvetica,sans-Serif" font-size="10.00">+ create_arena()</text>
<text text-anchor="start" x="1020.16" y="-668.5" font-family="Helvetica,sans-Serif" font-size="10.00">+ set_active_num_workers()</text>
<text text-anchor="start" x="1020.16" y="-657.5" font-family="Helvetica,sans-Serif" font-size="10.00">+ app_parallelism_limit()</text>
<text text-anchor="start" x="1020.16" y="-646.5" font-family="Helvetica,sans-Serif" font-size="10.00">+ max_num_workers()</text>
<text text-anchor="start" x="1020.16" y="-635.5" font-family="Helvetica,sans-Serif" font-size="10.00">&#45; market()</text>
<text text-anchor="start" x="1020.16" y="-624.5" font-family="Helvetica,sans-Serif" font-size="10.00">&#45; destroy()</text>
<text text-anchor="start" x="1020.16" y="-613.5" font-family="Helvetica,sans-Serif" font-size="10.00">&#45; update_allotment()</text>
<text text-anchor="start" x="1020.16" y="-602.5" font-family="Helvetica,sans-Serif" font-size="10.00">&#45; arena_in_need()</text>
<text text-anchor="start" x="1020.16" y="-591.5" font-family="Helvetica,sans-Serif" font-size="10.00">&#45; assert_market_valid()</text>
<text text-anchor="start" x="1020.16" y="-580.5" font-family="Helvetica,sans-Serif" font-size="10.00">&#45; insert_arena_into_list()</text>
<text text-anchor="start" x="1020.16" y="-569.5" font-family="Helvetica,sans-Serif" font-size="10.00">&#45; remove_arena_from_list()</text>
<text text-anchor="start" x="1020.16" y="-558.5" font-family="Helvetica,sans-Serif" font-size="10.00">&#45; arena_in_need()</text>
<text text-anchor="start" x="1020.16" y="-547.5" font-family="Helvetica,sans-Serif" font-size="10.00">&#45; is_arena_in_list()</text>
<text text-anchor="start" x="1020.16" y="-536.5" font-family="Helvetica,sans-Serif" font-size="10.00">&#45; version()</text>
<text text-anchor="start" x="1020.16" y="-525.5" font-family="Helvetica,sans-Serif" font-size="10.00">and 7 more...</text>
<text text-anchor="start" x="1020.16" y="-514.5" font-family="Helvetica,sans-Serif" font-size="10.00">&#45; global_market()</text>
<text text-anchor="start" x="1020.16" y="-503.5" font-family="Helvetica,sans-Serif" font-size="10.00">&#45; update_allotment()</text>
</a>
</g>
</g>
<!-- Node8&#45;&gt;Node9 -->
<g id="edge11" class="edge"><title>Node8&#45;&gt;Node9</title>
<path fill="none" stroke="#404040" d="M967.907,-986.262C977.542,-972.431 988.854,-955.228 997.665,-939 1000.63,-933.531 1003.58,-927.95 1006.5,-922.288"/>
<polygon fill="none" stroke="#404040" points="1006.64,-922.013 1005.78,-914.852 1012.06,-911.31 1012.92,-918.471 1006.64,-922.013"/>
<text text-anchor="middle" x="1024.16" y="-960" font-family="Helvetica,sans-Serif" font-size="10.00"> &#45;my_stack_size</text>
</g>
<!-- Node9&#45;&gt;Node2 -->
<g id="edge9" class="edge"><title>Node9&#45;&gt;Node2</title>
<path fill="none" stroke="#404040" d="M1012.13,-513.478C1007.55,-507.388 1002.73,-501.539 997.665,-496 912.577,-402.893 777.006,-342.223 689.681,-310.417"/>
<polygon fill="none" stroke="#404040" points="689.516,-310.358 682.518,-312.098 678.22,-306.308 685.218,-304.568 689.516,-310.358"/>
<text text-anchor="middle" x="1005.16" y="-470" font-family="Helvetica,sans-Serif" font-size="10.00"> +my_market</text>
</g>
<!-- Node9&#45;&gt;Node9 -->
<g id="edge10" class="edge"><title>Node9&#45;&gt;Node9</title>
<path fill="none" stroke="#404040" d="M1173.43,-757.844C1184.09,-750.964 1191.16,-737.516 1191.16,-717.5 1191.16,-703.739 1187.82,-693.083 1182.27,-685.53"/>
<polygon fill="none" stroke="#404040" points="1182.14,-685.411 1175.04,-684.187 1173.43,-677.156 1180.54,-678.38 1182.14,-685.411"/>
<text text-anchor="middle" x="1219.16" y="-715" font-family="Helvetica,sans-Serif" font-size="10.00"> &#45;theMarket</text>
</g>
<!-- Node10 -->
<g id="node10" class="node"><title>Node10</title>
<g id="a_node10"><a xlink:href="../../d7/d31/classtbb_1_1internal_1_1FastRandom.html" target="_top" xlink:title="A fast random number generator. ">
<polygon fill="white" stroke="black" points="327.665,-639.5 327.665,-795.5 467.665,-795.5 467.665,-639.5 327.665,-639.5"/>
<text text-anchor="middle" x="397.665" y="-783.5" font-family="Helvetica,sans-Serif" font-size="10.00">tbb::internal::FastRandom</text>
<polyline fill="none" stroke="black" points="327.665,-776.5 467.665,-776.5 "/>
<text text-anchor="start" x="335.665" y="-764.5" font-family="Helvetica,sans-Serif" font-size="10.00">&#45; x</text>
<text text-anchor="start" x="335.665" y="-753.5" font-family="Helvetica,sans-Serif" font-size="10.00">&#45; c</text>
<text text-anchor="start" x="335.665" y="-742.5" font-family="Helvetica,sans-Serif" font-size="10.00">&#45; a</text>
<polyline fill="none" stroke="black" points="327.665,-735.5 467.665,-735.5 "/>
<text text-anchor="start" x="335.665" y="-723.5" font-family="Helvetica,sans-Serif" font-size="10.00">+ get()</text>
<text text-anchor="start" x="335.665" y="-712.5" font-family="Helvetica,sans-Serif" font-size="10.00">+ get()</text>
<text text-anchor="start" x="335.665" y="-701.5" font-family="Helvetica,sans-Serif" font-size="10.00">+ FastRandom()</text>
<text text-anchor="start" x="335.665" y="-690.5" font-family="Helvetica,sans-Serif" font-size="10.00">+ FastRandom()</text>
<text text-anchor="start" x="335.665" y="-679.5" font-family="Helvetica,sans-Serif" font-size="10.00">+ FastRandom()</text>
<text text-anchor="start" x="335.665" y="-668.5" font-family="Helvetica,sans-Serif" font-size="10.00">+ init()</text>
<text text-anchor="start" x="335.665" y="-657.5" font-family="Helvetica,sans-Serif" font-size="10.00">+ init()</text>
<text text-anchor="start" x="335.665" y="-646.5" font-family="Helvetica,sans-Serif" font-size="10.00">+ init()</text>
</a>
</g>
</g>
<!-- Node10&#45;&gt;Node2 -->
<g id="edge12" class="edge"><title>Node10&#45;&gt;Node2</title>
<path fill="none" stroke="#404040" d="M421.035,-639.447C435.136,-596.389 454.618,-542.251 476.665,-496 491.283,-465.332 509.109,-433.433 526.787,-403.958"/>
<polygon fill="none" stroke="#404040" points="526.818,-403.907 526.5,-396.703 533.028,-393.64 533.346,-400.844 526.818,-403.907"/>
<text text-anchor="middle" x="524.665" y="-470" font-family="Helvetica,sans-Serif" font-size="10.00"> +my_random</text>
</g>
</g>
</svg>
