<?xml version="1.0" encoding="UTF-8" standalone="no"?>
<!DOCTYPE svg PUBLIC "-//W3C//DTD SVG 1.1//EN"
 "http://www.w3.org/Graphics/SVG/1.1/DTD/svg11.dtd">
<!-- Generated by graphviz version 2.38.0 (20140413.2041)
 -->
<!-- Title: /home/travis/build/ComPWA/ComPWA/ThirdParty/tbb/src/tbb/scheduler.h Pages: 1 -->
<svg width="877pt" height="306pt"
 viewBox="0.00 0.00 877.00 306.00" xmlns="http://www.w3.org/2000/svg" xmlns:xlink="http://www.w3.org/1999/xlink">
<g id="graph0" class="graph" transform="scale(1 1) rotate(0) translate(4 302)">
<title>/home/travis/build/ComPWA/ComPWA/ThirdParty/tbb/src/tbb/scheduler.h</title>
<polygon fill="white" stroke="none" points="-4,4 -4,-302 873,-302 873,4 -4,4"/>
<!-- Node1 -->
<g id="node1" class="node"><title>Node1</title>
<polygon fill="#bfbfbf" stroke="black" points="390,-256.5 390,-297.5 548,-297.5 548,-256.5 390,-256.5"/>
<text text-anchor="start" x="398" y="-285.5" font-family="Helvetica,sans-Serif" font-size="10.00">/home/travis/build</text>
<text text-anchor="start" x="398" y="-274.5" font-family="Helvetica,sans-Serif" font-size="10.00">/ComPWA/ComPWA/ThirdParty</text>
<text text-anchor="middle" x="469" y="-263.5" font-family="Helvetica,sans-Serif" font-size="10.00">/tbb/src/tbb/scheduler.h</text>
</g>
<!-- Node2 -->
<g id="node2" class="node"><title>Node2</title>
<g id="a_node2"><a xlink:href="../../dd/dc1/arena_8cpp.html" target="_top" xlink:title="/home/travis/build\l/ComPWA/ComPWA/ThirdParty\l/tbb/src/tbb/arena.cpp">
<polygon fill="white" stroke="black" points="0,-89.5 0,-130.5 158,-130.5 158,-89.5 0,-89.5"/>
<text text-anchor="start" x="8" y="-118.5" font-family="Helvetica,sans-Serif" font-size="10.00">/home/travis/build</text>
<text text-anchor="start" x="8" y="-107.5" font-family="Helvetica,sans-Serif" font-size="10.00">/ComPWA/ComPWA/ThirdParty</text>
<text text-anchor="middle" x="79" y="-96.5" font-family="Helvetica,sans-Serif" font-size="10.00">/tbb/src/tbb/arena.cpp</text>
</a>
</g>
</g>
<!-- Node1&#45;&gt;Node2 -->
<g id="edge1" class="edge"><title>Node1&#45;&gt;Node2</title>
<path fill="none" stroke="midnightblue" d="M379.445,-275.657C278.18,-273.179 122.363,-262.345 84,-220 62.1239,-195.853 67.3867,-154.949 73.1958,-130.706"/>
<polygon fill="midnightblue" stroke="midnightblue" points="379.603,-279.161 389.678,-275.883 379.758,-272.163 379.603,-279.161"/>
</g>
<!-- Node4 -->
<g id="node4" class="node"><title>Node4</title>
<g id="a_node4"><a xlink:href="../../d8/df1/scheduler__utility_8h.html" target="_top" xlink:title="/home/travis/build\l/ComPWA/ComPWA/ThirdParty\l/tbb/src/tbb/scheduler_utility.h">
<polygon fill="white" stroke="black" points="93.5,-173 93.5,-214 252.5,-214 252.5,-173 93.5,-173"/>
<text text-anchor="start" x="101.5" y="-202" font-family="Helvetica,sans-Serif" font-size="10.00">/home/travis/build</text>
<text text-anchor="start" x="101.5" y="-191" font-family="Helvetica,sans-Serif" font-size="10.00">/ComPWA/ComPWA/ThirdParty</text>
<text text-anchor="middle" x="173" y="-180" font-family="Helvetica,sans-Serif" font-size="10.00">/tbb/src/tbb/scheduler_utility.h</text>
</a>
</g>
</g>
<!-- Node1&#45;&gt;Node4 -->
<g id="edge3" class="edge"><title>Node1&#45;&gt;Node4</title>
<path fill="none" stroke="midnightblue" d="M385.696,-253.766C347.902,-243.601 302.659,-231.324 262,-220 255.187,-218.103 248.087,-216.104 241,-214.095"/>
<polygon fill="midnightblue" stroke="midnightblue" points="385.075,-257.223 395.64,-256.438 386.891,-250.463 385.075,-257.223"/>
</g>
<!-- Node6 -->
<g id="node6" class="node"><title>Node6</title>
<g id="a_node6"><a xlink:href="../../db/de9/custom__scheduler_8h.html" target="_top" xlink:title="/home/travis/build\l/ComPWA/ComPWA/ThirdParty\l/tbb/src/tbb/custom_scheduler.h">
<polygon fill="white" stroke="black" points="271,-173 271,-214 441,-214 441,-173 271,-173"/>
<text text-anchor="start" x="279" y="-202" font-family="Helvetica,sans-Serif" font-size="10.00">/home/travis/build</text>
<text text-anchor="start" x="279" y="-191" font-family="Helvetica,sans-Serif" font-size="10.00">/ComPWA/ComPWA/ThirdParty</text>
<text text-anchor="middle" x="356" y="-180" font-family="Helvetica,sans-Serif" font-size="10.00">/tbb/src/tbb/custom_scheduler.h</text>
</a>
</g>
</g>
<!-- Node1&#45;&gt;Node6 -->
<g id="edge7" class="edge"><title>Node1&#45;&gt;Node6</title>
<path fill="none" stroke="midnightblue" d="M433.704,-250.543C417.421,-238.799 398.39,-225.073 383.237,-214.144"/>
<polygon fill="midnightblue" stroke="midnightblue" points="431.776,-253.468 441.934,-256.479 435.87,-247.79 431.776,-253.468"/>
</g>
<!-- Node7 -->
<g id="node7" class="node"><title>Node7</title>
<g id="a_node7"><a xlink:href="../../d1/dc0/governor_8cpp.html" target="_top" xlink:title="/home/travis/build\l/ComPWA/ComPWA/ThirdParty\l/tbb/src/tbb/governor.cpp">
<polygon fill="white" stroke="black" points="352,-89.5 352,-130.5 510,-130.5 510,-89.5 352,-89.5"/>
<text text-anchor="start" x="360" y="-118.5" font-family="Helvetica,sans-Serif" font-size="10.00">/home/travis/build</text>
<text text-anchor="start" x="360" y="-107.5" font-family="Helvetica,sans-Serif" font-size="10.00">/ComPWA/ComPWA/ThirdParty</text>
<text text-anchor="middle" x="431" y="-96.5" font-family="Helvetica,sans-Serif" font-size="10.00">/tbb/src/tbb/governor.cpp</text>
</a>
</g>
</g>
<!-- Node1&#45;&gt;Node7 -->
<g id="edge9" class="edge"><title>Node1&#45;&gt;Node7</title>
<path fill="none" stroke="midnightblue" d="M465.051,-246.034C461.838,-223.988 456.734,-193.392 450,-167 446.878,-154.764 442.37,-141.359 438.528,-130.732"/>
<polygon fill="midnightblue" stroke="midnightblue" points="461.61,-246.702 466.475,-256.114 468.541,-245.723 461.61,-246.702"/>
</g>
<!-- Node8 -->
<g id="node8" class="node"><title>Node8</title>
<g id="a_node8"><a xlink:href="../../d3/db8/market_8cpp.html" target="_top" xlink:title="/home/travis/build\l/ComPWA/ComPWA/ThirdParty\l/tbb/src/tbb/market.cpp">
<polygon fill="white" stroke="black" points="528,-89.5 528,-130.5 686,-130.5 686,-89.5 528,-89.5"/>
<text text-anchor="start" x="536" y="-118.5" font-family="Helvetica,sans-Serif" font-size="10.00">/home/travis/build</text>
<text text-anchor="start" x="536" y="-107.5" font-family="Helvetica,sans-Serif" font-size="10.00">/ComPWA/ComPWA/ThirdParty</text>
<text text-anchor="middle" x="607" y="-96.5" font-family="Helvetica,sans-Serif" font-size="10.00">/tbb/src/tbb/market.cpp</text>
</a>
</g>
</g>
<!-- Node1&#45;&gt;Node8 -->
<g id="edge11" class="edge"><title>Node1&#45;&gt;Node8</title>
<path fill="none" stroke="midnightblue" d="M479.723,-246.754C489.315,-223.356 505.086,-190.66 526,-167 538.681,-152.654 555.77,-140.142 570.983,-130.605"/>
<polygon fill="midnightblue" stroke="midnightblue" points="476.426,-245.573 475.993,-256.159 482.933,-248.153 476.426,-245.573"/>
</g>
<!-- Node9 -->
<g id="node9" class="node"><title>Node9</title>
<g id="a_node9"><a xlink:href="../../d9/d9c/task_8cpp.html" target="_top" xlink:title="/home/travis/build\l/ComPWA/ComPWA/ThirdParty\l/tbb/src/tbb/task.cpp">
<polygon fill="white" stroke="black" points="535,-173 535,-214 693,-214 693,-173 535,-173"/>
<text text-anchor="start" x="543" y="-202" font-family="Helvetica,sans-Serif" font-size="10.00">/home/travis/build</text>
<text text-anchor="start" x="543" y="-191" font-family="Helvetica,sans-Serif" font-size="10.00">/ComPWA/ComPWA/ThirdParty</text>
<text text-anchor="middle" x="614" y="-180" font-family="Helvetica,sans-Serif" font-size="10.00">/tbb/src/tbb/task.cpp</text>
</a>
</g>
</g>
<!-- Node1&#45;&gt;Node9 -->
<g id="edge13" class="edge"><title>Node1&#45;&gt;Node9</title>
<path fill="none" stroke="midnightblue" d="M512.607,-251.49C533.953,-239.492 559.293,-225.249 579.301,-214.003"/>
<polygon fill="midnightblue" stroke="midnightblue" points="510.734,-248.528 503.731,-256.479 514.163,-254.63 510.734,-248.528"/>
</g>
<!-- Node10 -->
<g id="node10" class="node"><title>Node10</title>
<g id="a_node10"><a xlink:href="../../d3/de6/task__group__context_8cpp.html" target="_top" xlink:title="/home/travis/build\l/ComPWA/ComPWA/ThirdParty\l/tbb/src/tbb/task_group\l_context.cpp">
<polygon fill="white" stroke="black" points="711,-167.5 711,-219.5 869,-219.5 869,-167.5 711,-167.5"/>
<text text-anchor="start" x="719" y="-207.5" font-family="Helvetica,sans-Serif" font-size="10.00">/home/travis/build</text>
<text text-anchor="start" x="719" y="-196.5" font-family="Helvetica,sans-Serif" font-size="10.00">/ComPWA/ComPWA/ThirdParty</text>
<text text-anchor="start" x="719" y="-185.5" font-family="Helvetica,sans-Serif" font-size="10.00">/tbb/src/tbb/task_group</text>
<text text-anchor="middle" x="790" y="-174.5" font-family="Helvetica,sans-Serif" font-size="10.00">_context.cpp</text>
</a>
</g>
</g>
<!-- Node1&#45;&gt;Node10 -->
<g id="edge15" class="edge"><title>Node1&#45;&gt;Node10</title>
<path fill="none" stroke="midnightblue" d="M558.209,-255.578C601.703,-245.362 654.71,-232.528 702,-220 704.921,-219.226 707.894,-218.427 710.894,-217.61"/>
<polygon fill="midnightblue" stroke="midnightblue" points="557.164,-252.228 548.226,-257.916 558.76,-259.043 557.164,-252.228"/>
</g>
<!-- Node3 -->
<g id="node3" class="node"><title>Node3</title>
<g id="a_node3"><a xlink:href="../../d8/d0e/harness__inject__scheduler_8h.html" target="_top" xlink:title="/home/travis/build\l/ComPWA/ComPWA/ThirdParty\l/tbb/src/test/harness_inject\l_scheduler.h">
<polygon fill="white" stroke="red" points="440,-0.5 440,-52.5 598,-52.5 598,-0.5 440,-0.5"/>
<text text-anchor="start" x="448" y="-40.5" font-family="Helvetica,sans-Serif" font-size="10.00">/home/travis/build</text>
<text text-anchor="start" x="448" y="-29.5" font-family="Helvetica,sans-Serif" font-size="10.00">/ComPWA/ComPWA/ThirdParty</text>
<text text-anchor="start" x="448" y="-18.5" font-family="Helvetica,sans-Serif" font-size="10.00">/tbb/src/test/harness_inject</text>
<text text-anchor="middle" x="519" y="-7.5" font-family="Helvetica,sans-Serif" font-size="10.00">_scheduler.h</text>
</a>
</g>
</g>
<!-- Node2&#45;&gt;Node3 -->
<g id="edge2" class="edge"><title>Node2&#45;&gt;Node3</title>
<path fill="none" stroke="midnightblue" d="M168.015,-88.8393C267.282,-69.0698 370.621,-51.4947 439.799,-40.1637"/>
<polygon fill="midnightblue" stroke="midnightblue" points="167.232,-85.4266 158.114,-90.8214 168.606,-92.2904 167.232,-85.4266"/>
</g>
<!-- Node4&#45;&gt;Node2 -->
<g id="edge4" class="edge"><title>Node4&#45;&gt;Node2</title>
<path fill="none" stroke="midnightblue" d="M142.655,-166.19C129.291,-154.603 113.865,-141.228 101.545,-130.547"/>
<polygon fill="midnightblue" stroke="midnightblue" points="140.397,-168.865 150.245,-172.771 144.982,-163.576 140.397,-168.865"/>
</g>
<!-- Node5 -->
<g id="node5" class="node"><title>Node5</title>
<g id="a_node5"><a xlink:href="../../db/d8b/scheduler_8cpp.html" target="_top" xlink:title="/home/travis/build\l/ComPWA/ComPWA/ThirdParty\l/tbb/src/tbb/scheduler.cpp">
<polygon fill="white" stroke="black" points="176,-89.5 176,-130.5 334,-130.5 334,-89.5 176,-89.5"/>
<text text-anchor="start" x="184" y="-118.5" font-family="Helvetica,sans-Serif" font-size="10.00">/home/travis/build</text>
<text text-anchor="start" x="184" y="-107.5" font-family="Helvetica,sans-Serif" font-size="10.00">/ComPWA/ComPWA/ThirdParty</text>
<text text-anchor="middle" x="255" y="-96.5" font-family="Helvetica,sans-Serif" font-size="10.00">/tbb/src/tbb/scheduler.cpp</text>
</a>
</g>
</g>
<!-- Node4&#45;&gt;Node5 -->
<g id="edge5" class="edge"><title>Node4&#45;&gt;Node5</title>
<path fill="none" stroke="midnightblue" d="M200.127,-165.538C211.631,-154.104 224.787,-141.029 235.333,-130.547"/>
<polygon fill="midnightblue" stroke="midnightblue" points="197.475,-163.239 192.85,-172.771 202.41,-168.204 197.475,-163.239"/>
</g>
<!-- Node5&#45;&gt;Node3 -->
<g id="edge6" class="edge"><title>Node5&#45;&gt;Node3</title>
<path fill="none" stroke="midnightblue" d="M327.838,-86.514C362.574,-75.7907 404.2,-62.9401 439.728,-51.9721"/>
<polygon fill="midnightblue" stroke="midnightblue" points="326.757,-83.1846 318.235,-89.4787 328.822,-89.8732 326.757,-83.1846"/>
</g>
<!-- Node6&#45;&gt;Node5 -->
<g id="edge8" class="edge"><title>Node6&#45;&gt;Node5</title>
<path fill="none" stroke="midnightblue" d="M323.649,-166.395C309.276,-154.797 292.64,-141.373 279.345,-130.644"/>
<polygon fill="midnightblue" stroke="midnightblue" points="321.828,-169.423 331.808,-172.979 326.224,-163.975 321.828,-169.423"/>
</g>
<!-- Node7&#45;&gt;Node3 -->
<g id="edge10" class="edge"><title>Node7&#45;&gt;Node3</title>
<path fill="none" stroke="midnightblue" d="M459.889,-82.2447C470.189,-72.7059 481.746,-62.0026 491.89,-52.6073"/>
<polygon fill="midnightblue" stroke="midnightblue" points="457.261,-79.9083 452.302,-89.2711 462.017,-85.0441 457.261,-79.9083"/>
</g>
<!-- Node8&#45;&gt;Node3 -->
<g id="edge12" class="edge"><title>Node8&#45;&gt;Node3</title>
<path fill="none" stroke="midnightblue" d="M578.111,-82.2447C567.811,-72.7059 556.254,-62.0026 546.11,-52.6073"/>
<polygon fill="midnightblue" stroke="midnightblue" points="575.983,-85.0441 585.698,-89.2711 580.739,-79.9083 575.983,-85.0441"/>
</g>
<!-- Node9&#45;&gt;Node3 -->
<g id="edge14" class="edge"><title>Node9&#45;&gt;Node3</title>
<path fill="none" stroke="midnightblue" d="M662.297,-166.995C675.32,-157.553 687.788,-145.531 695,-131 703.299,-114.279 705.805,-104.221 695,-89 672.892,-57.8557 633.771,-42.3561 598.018,-34.6957"/>
<polygon fill="midnightblue" stroke="midnightblue" points="660.015,-164.315 653.709,-172.829 663.948,-170.105 660.015,-164.315"/>
</g>
<!-- Node10&#45;&gt;Node3 -->
<g id="edge16" class="edge"><title>Node10&#45;&gt;Node3</title>
<path fill="none" stroke="midnightblue" d="M772.043,-158.228C758.576,-135.604 738.168,-106.933 713,-89 679.189,-64.9091 635.546,-49.9769 598.22,-40.8711"/>
<polygon fill="midnightblue" stroke="midnightblue" points="769.182,-160.274 777.208,-167.19 775.247,-156.778 769.182,-160.274"/>
</g>
</g>
</svg>
