<?xml version="1.0" encoding="UTF-8" standalone="no"?>
<!DOCTYPE svg PUBLIC "-//W3C//DTD SVG 1.1//EN"
 "http://www.w3.org/Graphics/SVG/1.1/DTD/svg11.dtd">
<!-- Generated by graphviz version 2.38.0 (20140413.2041)
 -->
<!-- Title: /home/travis/build/ComPWA/ComPWA/ThirdParty/tbb/src/test/harness_eh.h Pages: 1 -->
<!--zoomable 453 -->
<svg id="main" version="1.1" xmlns="http://www.w3.org/2000/svg" xmlns:xlink="http://www.w3.org/1999/xlink" xml:space="preserve" onload="init(evt)">
<style type="text/css"><![CDATA[
.edge:hover path { stroke: red; }
.edge:hover polygon { stroke: red; fill: red; }
]]></style>
<script type="text/javascript"><![CDATA[
var edges = document.getElementsByTagName('g');
if (edges && edges.length) {
  for (var i=0;i<edges.length;i++) {
    if (edges[i].id.substr(0,4)=='edge') {
      edges[i].setAttribute('class','edge');
    }
  }
}
]]></script>
        <defs>
                <circle id="rim" cx="0" cy="0" r="7"/>
                <circle id="rim2" cx="0" cy="0" r="3.5"/>
                <g id="zoomPlus">
                        <use xlink:href="#rim" fill="#404040">
                                <set attributeName="fill" to="#808080" begin="zoomplus.mouseover" end="zoomplus.mouseout"/>
                        </use>
                        <path d="M-4,0h8M0,-4v8" fill="none" stroke="white" stroke-width="1.5" pointer-events="none"/>
                </g>
                <g id="zoomMin">
                        <use xlink:href="#rim" fill="#404040">
                                <set attributeName="fill" to="#808080" begin="zoomminus.mouseover" end="zoomminus.mouseout"/>
                        </use>
                        <path d="M-4,0h8" fill="none" stroke="white" stroke-width="1.5" pointer-events="none"/>
                </g>
                <g id="dirArrow">
                        <path fill="none" stroke="white" stroke-width="1.5" d="M0,-3.0v7 M-2.5,-0.5L0,-3.0L2.5,-0.5"/>
                </g>
               <g id="resetDef">
                       <use xlink:href="#rim2" fill="#404040">
                               <set attributeName="fill" to="#808080" begin="reset.mouseover" end="reset.mouseout"/>
                       </use>
               </g>
        </defs>

<script type="text/javascript">
var viewWidth = 1234;
var viewHeight = 453;
var sectionId = 'dynsection-0';
</script>
<script xlink:href="../../svgpan.js"/>
<svg id="graph" class="graph">
<g id="viewport">
<title>/home/travis/build/ComPWA/ComPWA/ThirdParty/tbb/src/test/harness_eh.h</title>
<polygon fill="white" stroke="none" points="-4,4 -4,-449 1229.59,-449 1229.59,4 -4,4"/>
<!-- Node1 -->
<g id="node1" class="node"><title>Node1</title>
<polygon fill="#bfbfbf" stroke="black" points="374.5,-403.5 374.5,-444.5 532.5,-444.5 532.5,-403.5 374.5,-403.5"/>
<text text-anchor="start" x="382.5" y="-432.5" font-family="Helvetica,sans-Serif" font-size="10.00">/home/travis/build</text>
<text text-anchor="start" x="382.5" y="-421.5" font-family="Helvetica,sans-Serif" font-size="10.00">/ComPWA/ComPWA/ThirdParty</text>
<text text-anchor="middle" x="453.5" y="-410.5" font-family="Helvetica,sans-Serif" font-size="10.00">/tbb/src/test/harness_eh.h</text>
</g>
<!-- Node2 -->
<g id="node2" class="node"><title>Node2</title>
<polygon fill="white" stroke="#bfbfbf" points="23,-280.5 23,-299.5 78,-299.5 78,-280.5 23,-280.5"/>
<text text-anchor="middle" x="50.5" y="-287.5" font-family="Helvetica,sans-Serif" font-size="10.00">typeinfo</text>
</g>
<!-- Node1&#45;&gt;Node2 -->
<g id="edge1" class="edge"><title>Node1&#45;&gt;Node2</title>
<path fill="none" stroke="midnightblue" d="M374.488,-420.005C309.305,-414.962 215.802,-401.682 141.5,-367 110.724,-352.635 81.8172,-325.215 65.1547,-307.537"/>
<polygon fill="midnightblue" stroke="midnightblue" points="67.3428,-304.745 58.0041,-299.741 62.1841,-309.476 67.3428,-304.745"/>
</g>
<!-- Node3 -->
<g id="node3" class="node"><title>Node3</title>
<g id="a_node3"><a xlink:href="../../d8/dfc/tbb__exception_8h.html" target="_top" xlink:title="tbb/tbb_exception.h">
<polygon fill="white" stroke="black" points="150.5,-342 150.5,-361 262.5,-361 262.5,-342 150.5,-342"/>
<text text-anchor="middle" x="206.5" y="-349" font-family="Helvetica,sans-Serif" font-size="10.00">tbb/tbb_exception.h</text>
</a>
</g>
</g>
<!-- Node1&#45;&gt;Node3 -->
<g id="edge2" class="edge"><title>Node1&#45;&gt;Node3</title>
<path fill="none" stroke="midnightblue" d="M385.025,-403.455C340.393,-390.717 283.711,-374.538 246.331,-363.869"/>
<polygon fill="midnightblue" stroke="midnightblue" points="246.902,-360.392 236.326,-361.013 244.981,-367.123 246.902,-360.392"/>
</g>
<!-- Node12 -->
<g id="node12" class="node"><title>Node12</title>
<g id="a_node12"><a xlink:href="../../dd/d02/atomic_8h.html" target="_top" xlink:title="tbb/atomic.h">
<polygon fill="white" stroke="black" points="1045,-224.5 1045,-243.5 1122,-243.5 1122,-224.5 1045,-224.5"/>
<text text-anchor="middle" x="1083.5" y="-231.5" font-family="Helvetica,sans-Serif" font-size="10.00">tbb/atomic.h</text>
</a>
</g>
</g>
<!-- Node1&#45;&gt;Node12 -->
<g id="edge15" class="edge"><title>Node1&#45;&gt;Node12</title>
<path fill="none" stroke="midnightblue" d="M532.523,-422.714C709.978,-420.214 1131.41,-403.288 1218.5,-300 1246.35,-266.977 1181.26,-249.446 1132.09,-241.203"/>
<polygon fill="midnightblue" stroke="midnightblue" points="1132.62,-237.743 1122.19,-239.63 1131.52,-244.656 1132.62,-237.743"/>
</g>
<!-- Node14 -->
<g id="node14" class="node"><title>Node14</title>
<g id="a_node14"><a xlink:href="../../d1/d90/harness_8h.html" target="_top" xlink:title="harness.h">
<polygon fill="white" stroke="black" points="421.5,-280.5 421.5,-299.5 485.5,-299.5 485.5,-280.5 421.5,-280.5"/>
<text text-anchor="middle" x="453.5" y="-287.5" font-family="Helvetica,sans-Serif" font-size="10.00">harness.h</text>
</a>
</g>
</g>
<!-- Node1&#45;&gt;Node14 -->
<g id="edge19" class="edge"><title>Node1&#45;&gt;Node14</title>
<path fill="none" stroke="midnightblue" d="M453.5,-403.238C453.5,-378.03 453.5,-334.738 453.5,-309.934"/>
<polygon fill="midnightblue" stroke="midnightblue" points="457,-309.686 453.5,-299.686 450,-309.686 457,-309.686"/>
</g>
<!-- Node21 -->
<g id="node21" class="node"><title>Node21</title>
<g id="a_node21"><a xlink:href="../../d6/d4b/harness__concurrency__tracker_8h.html" target="_top" xlink:title="harness_concurrency\l_tracker.h">
<polygon fill="white" stroke="black" points="700,-336.5 700,-366.5 819,-366.5 819,-336.5 700,-336.5"/>
<text text-anchor="start" x="708" y="-354.5" font-family="Helvetica,sans-Serif" font-size="10.00">harness_concurrency</text>
<text text-anchor="middle" x="759.5" y="-343.5" font-family="Helvetica,sans-Serif" font-size="10.00">_tracker.h</text>
</a>
</g>
</g>
<!-- Node1&#45;&gt;Node21 -->
<g id="edge32" class="edge"><title>Node1&#45;&gt;Node21</title>
<path fill="none" stroke="midnightblue" d="M532.701,-404.753C581.471,-393.516 643.397,-379.249 690.214,-368.463"/>
<polygon fill="midnightblue" stroke="midnightblue" points="691.006,-371.872 699.965,-366.216 689.434,-365.051 691.006,-371.872"/>
</g>
<!-- Node3&#45;&gt;Node2 -->
<g id="edge14" class="edge"><title>Node3&#45;&gt;Node2</title>
<path fill="none" stroke="midnightblue" d="M184.149,-341.975C157.505,-331.813 112.786,-314.756 82.4855,-303.2"/>
<polygon fill="midnightblue" stroke="midnightblue" points="83.4003,-299.803 72.8095,-299.509 80.9057,-306.343 83.4003,-299.803"/>
</g>
<!-- Node4 -->
<g id="node4" class="node"><title>Node4</title>
<g id="a_node4"><a xlink:href="../../d2/d98/tbb__stddef_8h.html" target="_top" xlink:title="tbb_stddef.h">
<polygon fill="white" stroke="red" points="639.5,-112.5 639.5,-131.5 715.5,-131.5 715.5,-112.5 639.5,-112.5"/>
<text text-anchor="middle" x="677.5" y="-119.5" font-family="Helvetica,sans-Serif" font-size="10.00">tbb_stddef.h</text>
</a>
</g>
</g>
<!-- Node3&#45;&gt;Node4 -->
<g id="edge3" class="edge"><title>Node3&#45;&gt;Node4</title>
<path fill="none" stroke="midnightblue" d="M206.043,-341.905C204.913,-327.787 201.001,-299.33 187.5,-280 168.224,-252.402 116.608,-251.158 136.5,-224 194.446,-144.889 507.289,-127.709 629.008,-124.007"/>
<polygon fill="midnightblue" stroke="midnightblue" points="629.257,-127.501 639.153,-123.716 629.057,-120.504 629.257,-127.501"/>
</g>
<!-- Node7 -->
<g id="node7" class="node"><title>Node7</title>
<polygon fill="white" stroke="#bfbfbf" points="146,-224.5 146,-243.5 209,-243.5 209,-224.5 146,-224.5"/>
<text text-anchor="middle" x="177.5" y="-231.5" font-family="Helvetica,sans-Serif" font-size="10.00">exception</text>
</g>
<!-- Node3&#45;&gt;Node7 -->
<g id="edge7" class="edge"><title>Node3&#45;&gt;Node7</title>
<path fill="none" stroke="midnightblue" d="M180.203,-341.941C161.261,-334.236 137.08,-320.865 125.5,-300 114.893,-280.888 134.972,-261.67 153.179,-249.143"/>
<polygon fill="midnightblue" stroke="midnightblue" points="155.322,-251.925 161.824,-243.56 151.524,-246.045 155.322,-251.925"/>
</g>
<!-- Node8 -->
<g id="node8" class="node"><title>Node8</title>
<polygon fill="white" stroke="#bfbfbf" points="333,-224.5 333,-243.5 368,-243.5 368,-224.5 333,-224.5"/>
<text text-anchor="middle" x="350.5" y="-231.5" font-family="Helvetica,sans-Serif" font-size="10.00">new</text>
</g>
<!-- Node3&#45;&gt;Node8 -->
<g id="edge8" class="edge"><title>Node3&#45;&gt;Node8</title>
<path fill="none" stroke="midnightblue" d="M252.521,-341.958C278.682,-334.866 310.174,-322.203 330.5,-300 342.075,-287.356 346.953,-268.147 349.008,-253.886"/>
<polygon fill="midnightblue" stroke="midnightblue" points="352.511,-254.053 350.125,-243.73 345.553,-253.288 352.511,-254.053"/>
</g>
<!-- Node9 -->
<g id="node9" class="node"><title>Node9</title>
<polygon fill="white" stroke="#bfbfbf" points="134.5,-280.5 134.5,-299.5 178.5,-299.5 178.5,-280.5 134.5,-280.5"/>
<text text-anchor="middle" x="156.5" y="-287.5" font-family="Helvetica,sans-Serif" font-size="10.00">string</text>
</g>
<!-- Node3&#45;&gt;Node9 -->
<g id="edge9" class="edge"><title>Node3&#45;&gt;Node9</title>
<path fill="none" stroke="midnightblue" d="M199.336,-341.975C191.762,-332.962 179.63,-318.525 170.207,-307.312"/>
<polygon fill="midnightblue" stroke="midnightblue" points="172.763,-304.913 163.65,-299.509 167.404,-309.417 172.763,-304.913"/>
</g>
<!-- Node10 -->
<g id="node10" class="node"><title>Node10</title>
<g id="a_node10"><a xlink:href="../../dc/d39/tbb__allocator_8h.html" target="_top" xlink:title="tbb_allocator.h">
<polygon fill="white" stroke="black" points="235,-280.5 235,-299.5 322,-299.5 322,-280.5 235,-280.5"/>
<text text-anchor="middle" x="278.5" y="-287.5" font-family="Helvetica,sans-Serif" font-size="10.00">tbb_allocator.h</text>
</a>
</g>
</g>
<!-- Node3&#45;&gt;Node10 -->
<g id="edge10" class="edge"><title>Node3&#45;&gt;Node10</title>
<path fill="none" stroke="midnightblue" d="M216.816,-341.975C228.151,-332.608 246.573,-317.384 260.339,-306.008"/>
<polygon fill="midnightblue" stroke="midnightblue" points="262.724,-308.577 268.203,-299.509 258.265,-303.181 262.724,-308.577"/>
</g>
<!-- Node5 -->
<g id="node5" class="node"><title>Node5</title>
<g id="a_node5"><a xlink:href="../../d6/da0/tbb__config_8h.html" target="_top" xlink:title="tbb_config.h">
<polygon fill="white" stroke="black" points="435,-56.5 435,-75.5 510,-75.5 510,-56.5 435,-56.5"/>
<text text-anchor="middle" x="472.5" y="-63.5" font-family="Helvetica,sans-Serif" font-size="10.00">tbb_config.h</text>
</a>
</g>
</g>
<!-- Node4&#45;&gt;Node5 -->
<g id="edge4" class="edge"><title>Node4&#45;&gt;Node5</title>
<path fill="none" stroke="midnightblue" d="M645.017,-112.444C609.78,-103.162 553.396,-88.3093 514.741,-78.127"/>
<polygon fill="midnightblue" stroke="midnightblue" points="515.393,-74.6792 504.831,-75.5164 513.609,-81.4483 515.393,-74.6792"/>
</g>
<!-- Node6 -->
<g id="node6" class="node"><title>Node6</title>
<polygon fill="white" stroke="#bfbfbf" points="651.5,-0.5 651.5,-19.5 703.5,-19.5 703.5,-0.5 651.5,-0.5"/>
<text text-anchor="middle" x="677.5" y="-7.5" font-family="Helvetica,sans-Serif" font-size="10.00">cstddef</text>
</g>
<!-- Node4&#45;&gt;Node6 -->
<g id="edge6" class="edge"><title>Node4&#45;&gt;Node6</title>
<path fill="none" stroke="midnightblue" d="M677.5,-112.368C677.5,-94.617 677.5,-53.6664 677.5,-29.5974"/>
<polygon fill="midnightblue" stroke="midnightblue" points="681,-29.5914 677.5,-19.5914 674,-29.5915 681,-29.5914"/>
</g>
<!-- Node5&#45;&gt;Node6 -->
<g id="edge5" class="edge"><title>Node5&#45;&gt;Node6</title>
<path fill="none" stroke="midnightblue" d="M504.983,-56.4435C542.189,-46.6429 602.972,-30.6319 641.566,-20.4655"/>
<polygon fill="midnightblue" stroke="midnightblue" points="642.57,-23.8205 651.349,-17.8886 640.787,-17.0514 642.57,-23.8205"/>
</g>
<!-- Node10&#45;&gt;Node4 -->
<g id="edge11" class="edge"><title>Node10&#45;&gt;Node4</title>
<path fill="none" stroke="midnightblue" d="M270.683,-280.114C259.858,-266.697 243.075,-241.027 256.5,-224 302.515,-165.64 528.653,-137.175 629.178,-127.243"/>
<polygon fill="midnightblue" stroke="midnightblue" points="629.749,-130.704 639.365,-126.258 629.075,-123.737 629.749,-130.704"/>
</g>
<!-- Node10&#45;&gt;Node8 -->
<g id="edge12" class="edge"><title>Node10&#45;&gt;Node8</title>
<path fill="none" stroke="midnightblue" d="M290.068,-280.324C300.92,-272.185 317.381,-259.839 330.383,-250.087"/>
<polygon fill="midnightblue" stroke="midnightblue" points="332.821,-252.634 338.721,-243.834 328.621,-247.034 332.821,-252.634"/>
</g>
<!-- Node11 -->
<g id="node11" class="node"><title>Node11</title>
<polygon fill="white" stroke="#bfbfbf" points="266,-224.5 266,-243.5 315,-243.5 315,-224.5 266,-224.5"/>
<text text-anchor="middle" x="290.5" y="-231.5" font-family="Helvetica,sans-Serif" font-size="10.00">cstring</text>
</g>
<!-- Node10&#45;&gt;Node11 -->
<g id="edge13" class="edge"><title>Node10&#45;&gt;Node11</title>
<path fill="none" stroke="midnightblue" d="M280.482,-280.083C282.072,-272.927 284.359,-262.635 286.346,-253.691"/>
<polygon fill="midnightblue" stroke="midnightblue" points="289.803,-254.272 288.555,-243.751 282.969,-252.754 289.803,-254.272"/>
</g>
<!-- Node12&#45;&gt;Node6 -->
<g id="edge16" class="edge"><title>Node12&#45;&gt;Node6</title>
<path fill="none" stroke="midnightblue" d="M1080.74,-224.237C1076.02,-210.514 1065.14,-183.884 1047.5,-168 946.435,-76.9797 784.778,-33.5485 713.384,-18.0041"/>
<polygon fill="midnightblue" stroke="midnightblue" points="714.032,-14.5638 703.523,-15.9107 712.578,-21.4112 714.032,-14.5638"/>
</g>
<!-- Node13 -->
<g id="node13" class="node"><title>Node13</title>
<g id="a_node13"><a xlink:href="../../d1/d09/tbb__machine_8h.html" target="_top" xlink:title="tbb_machine.h">
<polygon fill="white" stroke="black" points="950.5,-168.5 950.5,-187.5 1038.5,-187.5 1038.5,-168.5 950.5,-168.5"/>
<text text-anchor="middle" x="994.5" y="-175.5" font-family="Helvetica,sans-Serif" font-size="10.00">tbb_machine.h</text>
</a>
</g>
</g>
<!-- Node12&#45;&gt;Node13 -->
<g id="edge17" class="edge"><title>Node12&#45;&gt;Node13</title>
<path fill="none" stroke="midnightblue" d="M1069.2,-224.324C1055.32,-215.9 1034.01,-202.971 1017.7,-193.074"/>
<polygon fill="midnightblue" stroke="midnightblue" points="1019.13,-189.85 1008.76,-187.655 1015.5,-195.834 1019.13,-189.85"/>
</g>
<!-- Node13&#45;&gt;Node4 -->
<g id="edge18" class="edge"><title>Node13&#45;&gt;Node4</title>
<path fill="none" stroke="midnightblue" d="M950.423,-169.492C891.402,-159.438 787.057,-141.663 725.909,-131.246"/>
<polygon fill="midnightblue" stroke="midnightblue" points="726.193,-127.744 715.747,-129.515 725.018,-134.645 726.193,-127.744"/>
</g>
<!-- Node14&#45;&gt;Node5 -->
<g id="edge20" class="edge"><title>Node14&#45;&gt;Node5</title>
<path fill="none" stroke="midnightblue" d="M454.245,-280.297C457.04,-247.633 466.948,-131.866 470.878,-85.9573"/>
<polygon fill="midnightblue" stroke="midnightblue" points="474.374,-86.1458 471.74,-75.8837 467.4,-85.5488 474.374,-86.1458"/>
</g>
<!-- Node14&#45;&gt;Node7 -->
<g id="edge30" class="edge"><title>Node14&#45;&gt;Node7</title>
<path fill="none" stroke="midnightblue" d="M421.299,-282.7C371.099,-272.878 274.219,-253.923 218.897,-243.099"/>
<polygon fill="midnightblue" stroke="midnightblue" points="219.557,-239.662 209.071,-241.177 218.213,-246.532 219.557,-239.662"/>
</g>
<!-- Node14&#45;&gt;Node8 -->
<g id="edge25" class="edge"><title>Node14&#45;&gt;Node8</title>
<path fill="none" stroke="midnightblue" d="M436.951,-280.324C420.508,-271.703 395.065,-258.364 376.032,-248.386"/>
<polygon fill="midnightblue" stroke="midnightblue" points="377.489,-245.198 367.008,-243.655 374.239,-251.398 377.489,-245.198"/>
</g>
<!-- Node14&#45;&gt;Node11 -->
<g id="edge24" class="edge"><title>Node14&#45;&gt;Node11</title>
<path fill="none" stroke="midnightblue" d="M427.672,-280.444C399.928,-271.252 355.696,-256.599 324.991,-246.426"/>
<polygon fill="midnightblue" stroke="midnightblue" points="325.733,-242.985 315.14,-243.163 323.532,-249.63 325.733,-242.985"/>
</g>
<!-- Node15 -->
<g id="node15" class="node"><title>Node15</title>
<g id="a_node15"><a xlink:href="../../d0/d53/harness__defs_8h.html" target="_top" xlink:title="harness_defs.h">
<polygon fill="white" stroke="black" points="0,-168.5 0,-187.5 89,-187.5 89,-168.5 0,-168.5"/>
<text text-anchor="middle" x="44.5" y="-175.5" font-family="Helvetica,sans-Serif" font-size="10.00">harness_defs.h</text>
</a>
</g>
</g>
<!-- Node14&#45;&gt;Node15 -->
<g id="edge21" class="edge"><title>Node14&#45;&gt;Node15</title>
<path fill="none" stroke="midnightblue" d="M446.048,-280.04C433.411,-265.535 406.239,-237.206 376.5,-224 328.069,-202.494 180.394,-188.805 99.282,-182.701"/>
<polygon fill="midnightblue" stroke="midnightblue" points="99.4837,-179.206 89.2528,-181.959 98.9674,-186.187 99.4837,-179.206"/>
</g>
<!-- Node16 -->
<g id="node16" class="node"><title>Node16</title>
<polygon fill="white" stroke="#bfbfbf" points="501,-224.5 501,-243.5 548,-243.5 548,-224.5 501,-224.5"/>
<text text-anchor="middle" x="524.5" y="-231.5" font-family="Helvetica,sans-Serif" font-size="10.00">cstdlib</text>
</g>
<!-- Node14&#45;&gt;Node16 -->
<g id="edge23" class="edge"><title>Node14&#45;&gt;Node16</title>
<path fill="none" stroke="midnightblue" d="M464.907,-280.324C475.609,-272.185 491.841,-259.839 504.663,-250.087"/>
<polygon fill="midnightblue" stroke="midnightblue" points="507.044,-252.673 512.885,-243.834 502.807,-247.102 507.044,-252.673"/>
</g>
<!-- Node17 -->
<g id="node17" class="node"><title>Node17</title>
<polygon fill="white" stroke="#bfbfbf" points="725,-224.5 725,-243.5 788,-243.5 788,-224.5 725,-224.5"/>
<text text-anchor="middle" x="756.5" y="-231.5" font-family="Helvetica,sans-Serif" font-size="10.00">pthread.h</text>
</g>
<!-- Node14&#45;&gt;Node17 -->
<g id="edge26" class="edge"><title>Node14&#45;&gt;Node17</title>
<path fill="none" stroke="midnightblue" d="M485.695,-281.759C488.667,-281.143 491.637,-280.547 494.5,-280 589.099,-261.926 616.032,-262.609 714.655,-244.066"/>
<polygon fill="midnightblue" stroke="midnightblue" points="715.58,-247.453 724.751,-242.149 714.274,-240.576 715.58,-247.453"/>
</g>
<!-- Node18 -->
<g id="node18" class="node"><title>Node18</title>
<g id="a_node18"><a xlink:href="../../da/d2e/harness__runtime__loader_8h.html" target="_top" xlink:title="harness_runtime_loader.h">
<polygon fill="white" stroke="black" points="566,-224.5 566,-243.5 707,-243.5 707,-224.5 566,-224.5"/>
<text text-anchor="middle" x="636.5" y="-231.5" font-family="Helvetica,sans-Serif" font-size="10.00">harness_runtime_loader.h</text>
</a>
</g>
</g>
<!-- Node14&#45;&gt;Node18 -->
<g id="edge27" class="edge"><title>Node14&#45;&gt;Node18</title>
<path fill="none" stroke="midnightblue" d="M482.497,-280.444C513.685,-271.241 563.43,-256.562 597.908,-246.388"/>
<polygon fill="midnightblue" stroke="midnightblue" points="599.038,-249.704 607.639,-243.516 597.057,-242.99 599.038,-249.704"/>
</g>
<!-- Node19 -->
<g id="node19" class="node"><title>Node19</title>
<g id="a_node19"><a xlink:href="../../dc/db6/harness__report_8h.html" target="_top" xlink:title="harness_report.h">
<polygon fill="white" stroke="red" points="346.5,-112.5 346.5,-131.5 444.5,-131.5 444.5,-112.5 346.5,-112.5"/>
<text text-anchor="middle" x="395.5" y="-119.5" font-family="Helvetica,sans-Serif" font-size="10.00">harness_report.h</text>
</a>
</g>
</g>
<!-- Node14&#45;&gt;Node19 -->
<g id="edge28" class="edge"><title>Node14&#45;&gt;Node19</title>
<path fill="none" stroke="midnightblue" d="M450.382,-280.075C441.212,-253.832 414.209,-176.545 401.83,-141.117"/>
<polygon fill="midnightblue" stroke="midnightblue" points="405.096,-139.854 398.494,-131.568 398.488,-142.163 405.096,-139.854"/>
</g>
<!-- Node20 -->
<g id="node20" class="node"><title>Node20</title>
<g id="a_node20"><a xlink:href="../../d3/df7/harness__assert_8h.html" target="_top" xlink:title="harness_assert.h">
<polygon fill="white" stroke="black" points="845,-224.5 845,-243.5 944,-243.5 944,-224.5 845,-224.5"/>
<text text-anchor="middle" x="894.5" y="-231.5" font-family="Helvetica,sans-Serif" font-size="10.00">harness_assert.h</text>
</a>
</g>
</g>
<!-- Node14&#45;&gt;Node20 -->
<g id="edge31" class="edge"><title>Node14&#45;&gt;Node20</title>
<path fill="none" stroke="midnightblue" d="M485.668,-281.607C488.646,-281.023 491.624,-280.476 494.5,-280 558.443,-269.415 739.726,-250.544 834.736,-240.952"/>
<polygon fill="midnightblue" stroke="midnightblue" points="835.169,-244.426 844.768,-239.941 834.468,-237.461 835.169,-244.426"/>
</g>
<!-- Node15&#45;&gt;Node5 -->
<g id="edge22" class="edge"><title>Node15&#45;&gt;Node5</title>
<path fill="none" stroke="midnightblue" d="M77.7283,-168.46C154.449,-148.742 343.887,-100.055 429.395,-78.0784"/>
<polygon fill="midnightblue" stroke="midnightblue" points="430.479,-81.4137 439.293,-75.5345 428.736,-74.634 430.479,-81.4137"/>
</g>
<!-- Node19&#45;&gt;Node5 -->
<g id="edge29" class="edge"><title>Node19&#45;&gt;Node5</title>
<path fill="none" stroke="midnightblue" d="M407.871,-112.324C419.658,-104.058 437.632,-91.4527 451.636,-81.6322"/>
<polygon fill="midnightblue" stroke="midnightblue" points="453.982,-84.2619 460.159,-75.6545 449.962,-78.5307 453.982,-84.2619"/>
</g>
<!-- Node21&#45;&gt;Node12 -->
<g id="edge36" class="edge"><title>Node21&#45;&gt;Node12</title>
<path fill="none" stroke="midnightblue" d="M787.541,-336.397C807.601,-326.295 835.233,-312.35 859.5,-300 876.861,-291.165 880.243,-286.793 898.5,-280 923.177,-270.818 988.785,-255.637 1034.82,-245.479"/>
<polygon fill="midnightblue" stroke="midnightblue" points="1035.6,-248.892 1044.62,-243.329 1034.1,-242.055 1035.6,-248.892"/>
</g>
<!-- Node21&#45;&gt;Node14 -->
<g id="edge48" class="edge"><title>Node21&#45;&gt;Node14</title>
<path fill="none" stroke="midnightblue" d="M699.942,-339.639C648.483,-330.144 571.858,-315.741 495.931,-300.252"/>
<polygon fill="midnightblue" stroke="midnightblue" points="496.21,-296.736 485.711,-298.159 494.806,-303.594 496.21,-296.736"/>
</g>
<!-- Node21&#45;&gt;Node20 -->
<g id="edge33" class="edge"><title>Node21&#45;&gt;Node20</title>
<path fill="none" stroke="midnightblue" d="M750.797,-336.375C742.589,-321.039 733.225,-296.53 745.5,-280 756.508,-265.177 798.22,-253.357 834.72,-245.557"/>
<polygon fill="midnightblue" stroke="midnightblue" points="835.762,-248.916 844.846,-243.465 834.345,-242.061 835.762,-248.916"/>
</g>
<!-- Node22 -->
<g id="node22" class="node"><title>Node22</title>
<g id="a_node22"><a xlink:href="../../d4/de6/harness__barrier_8h.html" target="_top" xlink:title="harness_barrier.h">
<polygon fill="white" stroke="red" points="1109.5,-280.5 1109.5,-299.5 1209.5,-299.5 1209.5,-280.5 1109.5,-280.5"/>
<text text-anchor="middle" x="1159.5" y="-287.5" font-family="Helvetica,sans-Serif" font-size="10.00">harness_barrier.h</text>
</a>
</g>
</g>
<!-- Node21&#45;&gt;Node22 -->
<g id="edge34" class="edge"><title>Node21&#45;&gt;Node22</title>
<path fill="none" stroke="midnightblue" d="M819.263,-341.73C885.227,-332.032 994.844,-315.862 1099.21,-300.189"/>
<polygon fill="midnightblue" stroke="midnightblue" points="1099.92,-303.622 1109.29,-298.674 1098.88,-296.699 1099.92,-303.622"/>
</g>
<!-- Node23 -->
<g id="node23" class="node"><title>Node23</title>
<g id="a_node23"><a xlink:href="../../df/d79/tls_8h.html" target="_top" xlink:title="../tbb/tls.h">
<polygon fill="white" stroke="red" points="908,-280.5 908,-299.5 973,-299.5 973,-280.5 908,-280.5"/>
<text text-anchor="middle" x="940.5" y="-287.5" font-family="Helvetica,sans-Serif" font-size="10.00">../tbb/tls.h</text>
</a>
</g>
</g>
<!-- Node21&#45;&gt;Node23 -->
<g id="edge37" class="edge"><title>Node21&#45;&gt;Node23</title>
<path fill="none" stroke="midnightblue" d="M802.394,-336.399C833.535,-326.163 875.187,-312.47 904.579,-302.808"/>
<polygon fill="midnightblue" stroke="midnightblue" points="906.02,-306.019 914.427,-299.571 903.834,-299.369 906.02,-306.019"/>
</g>
<!-- Node24 -->
<g id="node24" class="node"><title>Node24</title>
<g id="a_node24"><a xlink:href="../../d0/df8/mutex_8h.html" target="_top" xlink:title="tbb/mutex.h">
<polygon fill="white" stroke="red" points="504,-280.5 504,-299.5 579,-299.5 579,-280.5 504,-280.5"/>
<text text-anchor="middle" x="541.5" y="-287.5" font-family="Helvetica,sans-Serif" font-size="10.00">tbb/mutex.h</text>
</a>
</g>
</g>
<!-- Node21&#45;&gt;Node24 -->
<g id="edge38" class="edge"><title>Node21&#45;&gt;Node24</title>
<path fill="none" stroke="midnightblue" d="M708.113,-336.475C669.847,-326.03 618.286,-311.958 582.707,-302.247"/>
<polygon fill="midnightblue" stroke="midnightblue" points="583.235,-298.763 572.666,-299.506 581.392,-305.516 583.235,-298.763"/>
</g>
<!-- Node25 -->
<g id="node25" class="node"><title>Node25</title>
<g id="a_node25"><a xlink:href="../../db/da4/task_8h.html" target="_top" xlink:title="tbb/task.h">
<polygon fill="white" stroke="red" points="962,-224.5 962,-243.5 1027,-243.5 1027,-224.5 962,-224.5"/>
<text text-anchor="middle" x="994.5" y="-231.5" font-family="Helvetica,sans-Serif" font-size="10.00">tbb/task.h</text>
</a>
</g>
</g>
<!-- Node21&#45;&gt;Node25 -->
<g id="edge42" class="edge"><title>Node21&#45;&gt;Node25</title>
<path fill="none" stroke="midnightblue" d="M759.198,-336.413C759.663,-320.404 763.002,-294.606 778.5,-280 833.725,-227.953 872.129,-257.718 951.996,-243.908"/>
<polygon fill="midnightblue" stroke="midnightblue" points="952.784,-247.321 961.946,-242 951.465,-240.446 952.784,-247.321"/>
</g>
<!-- Node26 -->
<g id="node26" class="node"><title>Node26</title>
<g id="a_node26"><a xlink:href="../../dc/d2e/combinable_8h.html" target="_top" xlink:title="tbb/combinable.h">
<polygon fill="white" stroke="red" points="991.5,-280.5 991.5,-299.5 1091.5,-299.5 1091.5,-280.5 991.5,-280.5"/>
<text text-anchor="middle" x="1041.5" y="-287.5" font-family="Helvetica,sans-Serif" font-size="10.00">tbb/combinable.h</text>
</a>
</g>
</g>
<!-- Node21&#45;&gt;Node26 -->
<g id="edge45" class="edge"><title>Node21&#45;&gt;Node26</title>
<path fill="none" stroke="midnightblue" d="M819.305,-337.882C870.323,-327.117 942.855,-311.813 991.002,-301.655"/>
<polygon fill="midnightblue" stroke="midnightblue" points="991.828,-305.058 1000.89,-299.568 990.383,-298.208 991.828,-305.058"/>
</g>
<!-- Node27 -->
<g id="node27" class="node"><title>Node27</title>
<polygon fill="white" stroke="#bfbfbf" points="597.5,-280.5 597.5,-299.5 693.5,-299.5 693.5,-280.5 597.5,-280.5"/>
<text text-anchor="middle" x="645.5" y="-287.5" font-family="Helvetica,sans-Serif" font-size="10.00">tbb/parallel_for.h</text>
</g>
<!-- Node21&#45;&gt;Node27 -->
<g id="edge46" class="edge"><title>Node21&#45;&gt;Node27</title>
<path fill="none" stroke="midnightblue" d="M732.484,-336.399C713.869,-326.684 689.29,-313.855 671.009,-304.314"/>
<polygon fill="midnightblue" stroke="midnightblue" points="672.573,-301.182 662.088,-299.658 669.334,-307.388 672.573,-301.182"/>
</g>
<!-- Node28 -->
<g id="node28" class="node"><title>Node28</title>
<polygon fill="white" stroke="#bfbfbf" points="788,-280.5 788,-299.5 851,-299.5 851,-280.5 788,-280.5"/>
<text text-anchor="middle" x="819.5" y="-287.5" font-family="Helvetica,sans-Serif" font-size="10.00">functional</text>
</g>
<!-- Node21&#45;&gt;Node28 -->
<g id="edge47" class="edge"><title>Node21&#45;&gt;Node28</title>
<path fill="none" stroke="midnightblue" d="M773.719,-336.399C782.708,-327.486 794.338,-315.952 803.627,-306.741"/>
<polygon fill="midnightblue" stroke="midnightblue" points="806.133,-309.184 810.769,-299.658 801.204,-304.214 806.133,-309.184"/>
</g>
<!-- Node22&#45;&gt;Node12 -->
<g id="edge35" class="edge"><title>Node22&#45;&gt;Node12</title>
<path fill="none" stroke="midnightblue" d="M1147.29,-280.324C1135.72,-272.107 1118.12,-259.602 1104.34,-249.807"/>
<polygon fill="midnightblue" stroke="midnightblue" points="1106.11,-246.773 1095.93,-243.834 1102.06,-252.479 1106.11,-246.773"/>
</g>
<!-- Node24&#45;&gt;Node4 -->
<g id="edge41" class="edge"><title>Node24&#45;&gt;Node4</title>
<path fill="none" stroke="midnightblue" d="M579.199,-281.72C582.344,-281.131 585.476,-280.551 588.5,-280 634.649,-271.588 766.291,-279.887 796.5,-244 831.84,-202.018 752.768,-157.075 707.057,-135.702"/>
<polygon fill="midnightblue" stroke="midnightblue" points="708.413,-132.474 697.862,-131.509 705.508,-138.843 708.413,-132.474"/>
</g>
<!-- Node24&#45;&gt;Node8 -->
<g id="edge40" class="edge"><title>Node24&#45;&gt;Node8</title>
<path fill="none" stroke="midnightblue" d="M511.235,-280.444C474.472,-270.05 413.002,-252.671 377.686,-242.686"/>
<polygon fill="midnightblue" stroke="midnightblue" points="378.616,-239.312 368.041,-239.959 376.712,-246.048 378.616,-239.312"/>
</g>
<!-- Node24&#45;&gt;Node17 -->
<g id="edge39" class="edge"><title>Node24&#45;&gt;Node17</title>
<path fill="none" stroke="midnightblue" d="M575.567,-280.444C613.335,-270.958 674.268,-255.654 714.844,-245.462"/>
<polygon fill="midnightblue" stroke="midnightblue" points="715.849,-248.819 724.695,-242.988 714.143,-242.03 715.849,-248.819"/>
</g>
<!-- Node25&#45;&gt;Node4 -->
<g id="edge43" class="edge"><title>Node25&#45;&gt;Node4</title>
<path fill="none" stroke="midnightblue" d="M974.523,-224.397C943.86,-211.347 883.203,-186.152 830.5,-168 793.457,-155.241 750.618,-142.838 719.709,-134.296"/>
<polygon fill="midnightblue" stroke="midnightblue" points="720.28,-130.823 709.71,-131.552 718.427,-137.574 720.28,-130.823"/>
</g>
<!-- Node25&#45;&gt;Node13 -->
<g id="edge44" class="edge"><title>Node25&#45;&gt;Node13</title>
<path fill="none" stroke="midnightblue" d="M994.5,-224.083C994.5,-217.006 994.5,-206.861 994.5,-197.986"/>
<polygon fill="midnightblue" stroke="midnightblue" points="998,-197.751 994.5,-187.751 991,-197.751 998,-197.751"/>
</g>
</g>
</svg>
        <g id="navigator" transform="translate(0 0)" fill="#404254">
                <rect fill="#f2f5e9" fill-opacity="0.5" stroke="#606060" stroke-width=".5" x="0" y="0" width="60" height="60"/>
                <use id="zoomplus" xlink:href="#zoomPlus" x="17" y="9" onmousedown="handleZoom(evt,'in')"/>
                <use id="zoomminus" xlink:href="#zoomMin" x="42" y="9" onmousedown="handleZoom(evt,'out')"/>
                <use id="reset" xlink:href="#resetDef" x="30" y="36" onmousedown="handleReset()"/>
                <g id="arrowUp" xlink:href="#dirArrow" transform="translate(30 24)" onmousedown="handlePan(0,-1)">
                  <use xlink:href="#rim" fill="#404040">
                        <set attributeName="fill" to="#808080" begin="arrowUp.mouseover" end="arrowUp.mouseout"/>
                  </use>
                  <path fill="none" stroke="white" stroke-width="1.5" d="M0,-3.0v7 M-2.5,-0.5L0,-3.0L2.5,-0.5"/>
                </g>
                <g id="arrowRight" xlink:href="#dirArrow" transform="rotate(90) translate(36 -43)" onmousedown="handlePan(1,0)">
                  <use xlink:href="#rim" fill="#404040">
                        <set attributeName="fill" to="#808080" begin="arrowRight.mouseover" end="arrowRight.mouseout"/>
                  </use>
                  <path fill="none" stroke="white" stroke-width="1.5" d="M0,-3.0v7 M-2.5,-0.5L0,-3.0L2.5,-0.5"/>
                </g>
                <g id="arrowDown" xlink:href="#dirArrow" transform="rotate(180) translate(-30 -48)" onmousedown="handlePan(0,1)">
                  <use xlink:href="#rim" fill="#404040">
                        <set attributeName="fill" to="#808080" begin="arrowDown.mouseover" end="arrowDown.mouseout"/>
                  </use>
                  <path fill="none" stroke="white" stroke-width="1.5" d="M0,-3.0v7 M-2.5,-0.5L0,-3.0L2.5,-0.5"/>
                </g>
                <g id="arrowLeft" xlink:href="#dirArrow" transform="rotate(270) translate(-36 17)" onmousedown="handlePan(-1,0)">
                  <use xlink:href="#rim" fill="#404040">
                        <set attributeName="fill" to="#808080" begin="arrowLeft.mouseover" end="arrowLeft.mouseout"/>
                  </use>
                  <path fill="none" stroke="white" stroke-width="1.5" d="M0,-3.0v7 M-2.5,-0.5L0,-3.0L2.5,-0.5"/>
                </g>
        </g>
        <svg viewBox="0 0 15 15" width="100%" height="30px" preserveAspectRatio="xMaxYMin meet">
         <g id="arrow_out" transform="scale(0.3 0.3)">
          <a xlink:href="harness__eh_8h__incl_org.svg" target="_base">
           <rect id="button" ry="5" rx="5" y="6" x="6" height="38" width="38"
                fill="#f2f5e9" fill-opacity="0.5" stroke="#606060" stroke-width="1.0"/>
           <path id="arrow"
             d="M 11.500037,31.436501 C 11.940474,20.09759 22.043105,11.32322 32.158766,21.979434 L 37.068811,17.246167 C 37.068811,17.246167 37.088388,32 37.088388,32 L 22.160133,31.978069 C 22.160133,31.978069 26.997745,27.140456 26.997745,27.140456 C 18.528582,18.264221 13.291696,25.230495 11.500037,31.436501 z"
             style="fill:#404040;"/>
          </a>
         </g>
        </svg>
</svg>
