<?xml version="1.0" encoding="UTF-8" standalone="no"?>
<!DOCTYPE svg PUBLIC "-//W3C//DTD SVG 1.1//EN"
 "http://www.w3.org/Graphics/SVG/1.1/DTD/svg11.dtd">
<!-- Generated by graphviz version 2.38.0 (20140413.2041)
 -->
<!-- Title: coarse_grained_raii_lru_cache&lt; key_type, value_type, value_functor_type &gt;::handle_move_t Pages: 1 -->
<svg width="223pt" height="496pt"
 viewBox="0.00 0.00 223.00 496.00" xmlns="http://www.w3.org/2000/svg" xmlns:xlink="http://www.w3.org/1999/xlink">
<g id="graph0" class="graph" transform="scale(1 1) rotate(0) translate(4 492)">
<title>coarse_grained_raii_lru_cache&lt; key_type, value_type, value_functor_type &gt;::handle_move_t</title>
<polygon fill="white" stroke="none" points="-4,4 -4,-492 219,-492 219,4 -4,4"/>
<!-- Node1 -->
<g id="node1" class="node"><title>Node1</title>
<polygon fill="#bfbfbf" stroke="black" points="0,-0.5 0,-90.5 142,-90.5 142,-0.5 0,-0.5"/>
<text text-anchor="start" x="8" y="-78.5" font-family="Helvetica,sans-Serif" font-size="10.00">coarse_grained_raii</text>
<text text-anchor="start" x="8" y="-67.5" font-family="Helvetica,sans-Serif" font-size="10.00">_lru_cache&lt; key_type,</text>
<text text-anchor="start" x="8" y="-56.5" font-family="Helvetica,sans-Serif" font-size="10.00"> value_type, value_functor</text>
<text text-anchor="middle" x="71" y="-45.5" font-family="Helvetica,sans-Serif" font-size="10.00">_type &gt;::handle_move_t</text>
<polyline fill="none" stroke="black" points="0,-38.5 142,-38.5 "/>
<text text-anchor="start" x="8" y="-26.5" font-family="Helvetica,sans-Serif" font-size="10.00">+ my_value_ref</text>
<polyline fill="none" stroke="black" points="0,-19.5 142,-19.5 "/>
<text text-anchor="start" x="8" y="-7.5" font-family="Helvetica,sans-Serif" font-size="10.00">+ handle_move_t()</text>
</g>
<!-- Node2 -->
<g id="node2" class="node"><title>Node2</title>
<polygon fill="white" stroke="#bfbfbf" points="4.5,-392 4.5,-449 69.5,-449 69.5,-392 4.5,-392"/>
<text text-anchor="middle" x="37" y="-437" font-family="Helvetica,sans-Serif" font-size="10.00">no_assign</text>
<polyline fill="none" stroke="#bfbfbf" points="4.5,-430 69.5,-430 "/>
<text text-anchor="middle" x="37" y="-418" font-family="Helvetica,sans-Serif" font-size="10.00"> </text>
<polyline fill="none" stroke="#bfbfbf" points="4.5,-411 69.5,-411 "/>
<text text-anchor="middle" x="37" y="-399" font-family="Helvetica,sans-Serif" font-size="10.00"> </text>
</g>
<!-- Node2&#45;&gt;Node1 -->
<g id="edge1" class="edge"><title>Node2&#45;&gt;Node1</title>
<path fill="none" stroke="midnightblue" d="M38.409,-381.69C40.6856,-327.557 45.9671,-224.903 56,-138 57.7908,-122.488 60.3781,-105.595 62.9011,-90.5941"/>
<polygon fill="none" stroke="midnightblue" points="34.9051,-381.716 37.9932,-391.85 41.8992,-382.002 34.9051,-381.716"/>
</g>
<!-- Node3 -->
<g id="node3" class="node"><title>Node3</title>
<g id="a_node3"><a xlink:href="../../d6/d1b/classcoarse__grained__raii__lru__cache.html" target="_top" xlink:title="{coarse_grained_raii\l_lru_cache\&lt; key_type,\l value_type, value_functor\l_type \&gt;\n|&#45; my_value_function\l&#45; my_number_of_lru_history\l_items\l&#45; my_map_storage\l&#45; my_lru_list\l|+ coarse_grained_raii\l_lru_cache()\l+ operator[]()\l&#45; signal_end_of_usage()\l}">
<polygon fill="white" stroke="black" points="65,-138.5 65,-305.5 215,-305.5 215,-138.5 65,-138.5"/>
<text text-anchor="start" x="73" y="-293.5" font-family="Helvetica,sans-Serif" font-size="10.00">coarse_grained_raii</text>
<text text-anchor="start" x="73" y="-282.5" font-family="Helvetica,sans-Serif" font-size="10.00">_lru_cache&lt; key_type,</text>
<text text-anchor="start" x="73" y="-271.5" font-family="Helvetica,sans-Serif" font-size="10.00"> value_type, value_functor</text>
<text text-anchor="middle" x="140" y="-260.5" font-family="Helvetica,sans-Serif" font-size="10.00">_type &gt;</text>
<polyline fill="none" stroke="black" points="65,-253.5 215,-253.5 "/>
<text text-anchor="start" x="73" y="-241.5" font-family="Helvetica,sans-Serif" font-size="10.00">&#45; my_value_function</text>
<text text-anchor="start" x="73" y="-230.5" font-family="Helvetica,sans-Serif" font-size="10.00">&#45; my_number_of_lru_history</text>
<text text-anchor="start" x="73" y="-219.5" font-family="Helvetica,sans-Serif" font-size="10.00">_items</text>
<text text-anchor="start" x="73" y="-208.5" font-family="Helvetica,sans-Serif" font-size="10.00">&#45; my_map_storage</text>
<text text-anchor="start" x="73" y="-197.5" font-family="Helvetica,sans-Serif" font-size="10.00">&#45; my_lru_list</text>
<polyline fill="none" stroke="black" points="65,-190.5 215,-190.5 "/>
<text text-anchor="start" x="73" y="-178.5" font-family="Helvetica,sans-Serif" font-size="10.00">+ coarse_grained_raii</text>
<text text-anchor="start" x="73" y="-167.5" font-family="Helvetica,sans-Serif" font-size="10.00">_lru_cache()</text>
<text text-anchor="start" x="73" y="-156.5" font-family="Helvetica,sans-Serif" font-size="10.00">+ operator[]()</text>
<text text-anchor="start" x="73" y="-145.5" font-family="Helvetica,sans-Serif" font-size="10.00">&#45; signal_end_of_usage()</text>
</a>
</g>
</g>
<!-- Node2&#45;&gt;Node3 -->
<g id="edge3" class="edge"><title>Node2&#45;&gt;Node3</title>
<path fill="none" stroke="#8b1a1a" d="M56.1893,-382.891C67.5748,-361.17 82.4951,-332.706 96.5869,-305.822"/>
<polygon fill="none" stroke="#8b1a1a" points="53.0816,-381.281 51.5389,-391.763 59.2815,-384.531 53.0816,-381.281"/>
</g>
<!-- Node3&#45;&gt;Node1 -->
<g id="edge2" class="edge"><title>Node3&#45;&gt;Node1</title>
<path fill="none" stroke="#404040" d="M107.319,-138.349C102.459,-126.06 97.552,-113.65 92.9834,-102.096"/>
<polygon fill="none" stroke="#404040" points="92.9546,-102.023 87.0285,-97.9139 88.542,-90.8634 94.468,-94.9722 92.9546,-102.023"/>
<text text-anchor="middle" x="139.5" y="-112" font-family="Helvetica,sans-Serif" font-size="10.00"> +my_cache_ref</text>
</g>
<!-- Node4 -->
<g id="node4" class="node"><title>Node4</title>
<g id="a_node4"><a xlink:href="../../d2/d5e/classtbb_1_1spin__mutex.html" target="_top" xlink:title="A lock that occupies a single byte. ">
<polygon fill="white" stroke="red" points="88,-353.5 88,-487.5 210,-487.5 210,-353.5 88,-353.5"/>
<text text-anchor="middle" x="149" y="-475.5" font-family="Helvetica,sans-Serif" font-size="10.00">tbb::spin_mutex</text>
<polyline fill="none" stroke="red" points="88,-468.5 210,-468.5 "/>
<text text-anchor="start" x="96" y="-456.5" font-family="Helvetica,sans-Serif" font-size="10.00">+ is_rw_mutex</text>
<text text-anchor="start" x="96" y="-445.5" font-family="Helvetica,sans-Serif" font-size="10.00">+ is_recursive_mutex</text>
<text text-anchor="start" x="96" y="-434.5" font-family="Helvetica,sans-Serif" font-size="10.00">+ is_fair_mutex</text>
<text text-anchor="start" x="96" y="-423.5" font-family="Helvetica,sans-Serif" font-size="10.00">&#45; flag</text>
<polyline fill="none" stroke="red" points="88,-416.5 210,-416.5 "/>
<text text-anchor="start" x="96" y="-404.5" font-family="Helvetica,sans-Serif" font-size="10.00">+ spin_mutex()</text>
<text text-anchor="start" x="96" y="-393.5" font-family="Helvetica,sans-Serif" font-size="10.00">+ internal_construct()</text>
<text text-anchor="start" x="96" y="-382.5" font-family="Helvetica,sans-Serif" font-size="10.00">+ lock()</text>
<text text-anchor="start" x="96" y="-371.5" font-family="Helvetica,sans-Serif" font-size="10.00">+ try_lock()</text>
<text text-anchor="start" x="96" y="-360.5" font-family="Helvetica,sans-Serif" font-size="10.00">+ unlock()</text>
</a>
</g>
</g>
<!-- Node4&#45;&gt;Node3 -->
<g id="edge4" class="edge"><title>Node4&#45;&gt;Node3</title>
<path fill="none" stroke="#404040" d="M145.966,-353.248C145.447,-341.919 144.899,-329.953 144.353,-318.049"/>
<polygon fill="none" stroke="#404040" points="144.337,-317.684 140.066,-311.874 143.788,-305.697 148.058,-311.508 144.337,-317.684"/>
<text text-anchor="middle" x="175" y="-327" font-family="Helvetica,sans-Serif" font-size="10.00"> &#45;my_mutex</text>
</g>
</g>
</svg>
