<?xml version="1.0" encoding="UTF-8" standalone="no"?>
<!DOCTYPE svg PUBLIC "-//W3C//DTD SVG 1.1//EN"
 "http://www.w3.org/Graphics/SVG/1.1/DTD/svg11.dtd">
<!-- Generated by graphviz version 2.38.0 (20140413.2041)
 -->
<!-- Title: tbb::internal::arena_slot_line2 Pages: 1 -->
<svg width="211pt" height="193pt"
 viewBox="0.00 0.00 210.50 193.00" xmlns="http://www.w3.org/2000/svg" xmlns:xlink="http://www.w3.org/1999/xlink">
<g id="graph0" class="graph" transform="scale(1 1) rotate(0) translate(4 189)">
<title>tbb::internal::arena_slot_line2</title>
<polygon fill="white" stroke="none" points="-4,4 -4,-189 206.5,-189 206.5,4 -4,4"/>
<!-- Node1 -->
<g id="node1" class="node"><title>Node1</title>
<polygon fill="#bfbfbf" stroke="black" points="13.5,-0.5 13.5,-68.5 121.5,-68.5 121.5,-0.5 13.5,-0.5"/>
<text text-anchor="start" x="21.5" y="-56.5" font-family="Helvetica,sans-Serif" font-size="10.00">tbb::internal::arena</text>
<text text-anchor="middle" x="67.5" y="-45.5" font-family="Helvetica,sans-Serif" font-size="10.00">_slot_line2</text>
<polyline fill="none" stroke="black" points="13.5,-38.5 121.5,-38.5 "/>
<text text-anchor="start" x="21.5" y="-26.5" font-family="Helvetica,sans-Serif" font-size="10.00">+ hint_for_pop</text>
<polyline fill="none" stroke="black" points="13.5,-19.5 121.5,-19.5 "/>
<text text-anchor="middle" x="67.5" y="-7.5" font-family="Helvetica,sans-Serif" font-size="10.00"> </text>
</g>
<!-- Node2 -->
<g id="node2" class="node"><title>Node2</title>
<polygon fill="white" stroke="#bfbfbf" points="0,-127.5 0,-184.5 37,-184.5 37,-127.5 0,-127.5"/>
<text text-anchor="middle" x="18.5" y="-172.5" font-family="Helvetica,sans-Serif" font-size="10.00">task</text>
<polyline fill="none" stroke="#bfbfbf" points="0,-165.5 37,-165.5 "/>
<text text-anchor="middle" x="18.5" y="-153.5" font-family="Helvetica,sans-Serif" font-size="10.00"> </text>
<polyline fill="none" stroke="#bfbfbf" points="0,-146.5 37,-146.5 "/>
<text text-anchor="middle" x="18.5" y="-134.5" font-family="Helvetica,sans-Serif" font-size="10.00"> </text>
</g>
<!-- Node2&#45;&gt;Node1 -->
<g id="edge1" class="edge"><title>Node2&#45;&gt;Node1</title>
<path fill="none" stroke="#404040" d="M14.4641,-127.302C13.7161,-114.598 14.4326,-99.5968 19.5,-87 20.6375,-84.1723 22.0089,-81.4068 23.5578,-78.7182"/>
<polygon fill="none" stroke="#404040" points="23.5696,-78.7007 23.6178,-71.4898 30.2926,-68.7608 30.2444,-75.9718 23.5696,-78.7007"/>
<text text-anchor="middle" x="57.5" y="-95.5" font-family="Helvetica,sans-Serif" font-size="10.00"> +task_pool_ptr</text>
</g>
<!-- Node3 -->
<g id="node3" class="node"><title>Node3</title>
<polygon fill="white" stroke="#bfbfbf" points="95.5,-127.5 95.5,-184.5 139.5,-184.5 139.5,-127.5 95.5,-127.5"/>
<text text-anchor="middle" x="117.5" y="-172.5" font-family="Helvetica,sans-Serif" font-size="10.00">size_t</text>
<polyline fill="none" stroke="#bfbfbf" points="95.5,-165.5 139.5,-165.5 "/>
<text text-anchor="middle" x="117.5" y="-153.5" font-family="Helvetica,sans-Serif" font-size="10.00"> </text>
<polyline fill="none" stroke="#bfbfbf" points="95.5,-146.5 139.5,-146.5 "/>
<text text-anchor="middle" x="117.5" y="-134.5" font-family="Helvetica,sans-Serif" font-size="10.00"> </text>
</g>
<!-- Node3&#45;&gt;Node1 -->
<g id="edge2" class="edge"><title>Node3&#45;&gt;Node1</title>
<path fill="none" stroke="#404040" d="M109.852,-127.442C106.052,-114.905 101.079,-99.9984 95.5,-87 94.44,-84.5305 93.3008,-82.0225 92.11,-79.5102"/>
<polygon fill="none" stroke="#404040" points="92.0091,-79.3083 85.7486,-75.7296 86.6441,-68.5743 92.9046,-72.153 92.0091,-79.3083"/>
<text text-anchor="middle" x="153" y="-101" font-family="Helvetica,sans-Serif" font-size="10.00"> +tail</text>
<text text-anchor="middle" x="153" y="-90" font-family="Helvetica,sans-Serif" font-size="10.00">+my_task_pool_size</text>
</g>
</g>
</svg>
