<?xml version="1.0" encoding="UTF-8" standalone="no"?>
<!DOCTYPE svg PUBLIC "-//W3C//DTD SVG 1.1//EN"
 "http://www.w3.org/Graphics/SVG/1.1/DTD/svg11.dtd">
<!-- Generated by graphviz version 2.38.0 (20140413.2041)
 -->
<!-- Title: /home/travis/build/ComPWA/ComPWA/Tools/test/UpdatePTreeParameterTest.cpp Pages: 1 -->
<svg width="910pt" height="363pt"
 viewBox="0.00 0.00 910.00 363.00" xmlns="http://www.w3.org/2000/svg" xmlns:xlink="http://www.w3.org/1999/xlink">
<g id="graph0" class="graph" transform="scale(1 1) rotate(0) translate(4 359)">
<title>/home/travis/build/ComPWA/ComPWA/Tools/test/UpdatePTreeParameterTest.cpp</title>
<polygon fill="white" stroke="none" points="-4,4 -4,-359 906,-359 906,4 -4,4"/>
<!-- Node1 -->
<g id="node1" class="node"><title>Node1</title>
<polygon fill="#bfbfbf" stroke="black" points="267,-313.5 267,-354.5 458,-354.5 458,-313.5 267,-313.5"/>
<text text-anchor="start" x="275" y="-342.5" font-family="Helvetica,sans-Serif" font-size="10.00">/home/travis/build</text>
<text text-anchor="start" x="275" y="-331.5" font-family="Helvetica,sans-Serif" font-size="10.00">/ComPWA/ComPWA/Tools</text>
<text text-anchor="middle" x="362.5" y="-320.5" font-family="Helvetica,sans-Serif" font-size="10.00">/test/UpdatePTreeParameterTest.cpp</text>
</g>
<!-- Node2 -->
<g id="node2" class="node"><title>Node2</title>
<polygon fill="white" stroke="#bfbfbf" points="0,-252 0,-271 47,-271 47,-252 0,-252"/>
<text text-anchor="middle" x="23.5" y="-259" font-family="Helvetica,sans-Serif" font-size="10.00">cmath</text>
</g>
<!-- Node1&#45;&gt;Node2 -->
<g id="edge1" class="edge"><title>Node1&#45;&gt;Node2</title>
<path fill="none" stroke="midnightblue" d="M266.93,-319.739C207.252,-310.35 129.169,-296.037 61.5,-277 58.8512,-276.255 56.1282,-275.401 53.4151,-274.488"/>
<polygon fill="midnightblue" stroke="midnightblue" points="54.3768,-271.114 43.7824,-271.015 52.0026,-277.699 54.3768,-271.114"/>
</g>
<!-- Node3 -->
<g id="node3" class="node"><title>Node3</title>
<polygon fill="white" stroke="#bfbfbf" points="138,-0.5 138,-19.5 185,-19.5 185,-0.5 138,-0.5"/>
<text text-anchor="middle" x="161.5" y="-7.5" font-family="Helvetica,sans-Serif" font-size="10.00">vector</text>
</g>
<!-- Node1&#45;&gt;Node3 -->
<g id="edge2" class="edge"><title>Node1&#45;&gt;Node3</title>
<path fill="none" stroke="midnightblue" d="M266.933,-326.132C183.445,-314.305 75.5,-282.242 75.5,-195.5 75.5,-195.5 75.5,-195.5 75.5,-132 75.5,-86.6165 116.192,-46.4162 141.594,-25.7421"/>
<polygon fill="midnightblue" stroke="midnightblue" points="143.839,-28.4293 149.542,-19.5001 139.516,-22.9241 143.839,-28.4293"/>
</g>
<!-- Node4 -->
<g id="node4" class="node"><title>Node4</title>
<g id="a_node4"><a xlink:href="../../da/db4/Logging_8hpp.html" target="_top" xlink:title="Core/Logging.hpp">
<polygon fill="white" stroke="black" points="159,-123.5 159,-142.5 260,-142.5 260,-123.5 159,-123.5"/>
<text text-anchor="middle" x="209.5" y="-130.5" font-family="Helvetica,sans-Serif" font-size="10.00">Core/Logging.hpp</text>
</a>
</g>
</g>
<!-- Node1&#45;&gt;Node4 -->
<g id="edge3" class="edge"><title>Node1&#45;&gt;Node4</title>
<path fill="none" stroke="midnightblue" d="M266.941,-319.203C218.217,-310.007 166.173,-296.076 151.5,-277 120.577,-236.799 167.107,-177.854 193.448,-149.872"/>
<polygon fill="midnightblue" stroke="midnightblue" points="196.112,-152.152 200.564,-142.538 191.088,-147.278 196.112,-152.152"/>
</g>
<!-- Node7 -->
<g id="node7" class="node"><title>Node7</title>
<polygon fill="white" stroke="#bfbfbf" points="390.5,-252 390.5,-271 494.5,-271 494.5,-252 390.5,-252"/>
<text text-anchor="middle" x="442.5" y="-259" font-family="Helvetica,sans-Serif" font-size="10.00">boost/foreach.hpp</text>
</g>
<!-- Node1&#45;&gt;Node7 -->
<g id="edge7" class="edge"><title>Node1&#45;&gt;Node7</title>
<path fill="none" stroke="midnightblue" d="M384.784,-313.362C397.434,-302.215 413.045,-288.458 424.84,-278.063"/>
<polygon fill="midnightblue" stroke="midnightblue" points="427.469,-280.411 432.658,-271.173 422.841,-275.159 427.469,-280.411"/>
</g>
<!-- Node8 -->
<g id="node8" class="node"><title>Node8</title>
<polygon fill="white" stroke="#bfbfbf" points="512.5,-252 512.5,-271 622.5,-271 622.5,-252 512.5,-252"/>
<text text-anchor="middle" x="567.5" y="-259" font-family="Helvetica,sans-Serif" font-size="10.00">boost/locale/utf.hpp</text>
</g>
<!-- Node1&#45;&gt;Node8 -->
<g id="edge8" class="edge"><title>Node1&#45;&gt;Node8</title>
<path fill="none" stroke="midnightblue" d="M419.332,-313.455C455.899,-300.88 502.214,-284.952 533.241,-274.282"/>
<polygon fill="midnightblue" stroke="midnightblue" points="534.428,-277.575 542.746,-271.013 532.151,-270.955 534.428,-277.575"/>
</g>
<!-- Node9 -->
<g id="node9" class="node"><title>Node9</title>
<polygon fill="white" stroke="#bfbfbf" points="409.5,-179.5 409.5,-209.5 521.5,-209.5 521.5,-179.5 409.5,-179.5"/>
<text text-anchor="start" x="417.5" y="-197.5" font-family="Helvetica,sans-Serif" font-size="10.00">boost/property_tree</text>
<text text-anchor="middle" x="465.5" y="-186.5" font-family="Helvetica,sans-Serif" font-size="10.00">/ptree.hpp</text>
</g>
<!-- Node1&#45;&gt;Node9 -->
<g id="edge9" class="edge"><title>Node1&#45;&gt;Node9</title>
<path fill="none" stroke="midnightblue" d="M362.462,-313.239C363.362,-294.337 367.262,-265.849 381.5,-246 391.019,-232.73 405.207,-222.312 419.226,-214.472"/>
<polygon fill="midnightblue" stroke="midnightblue" points="421.126,-217.428 428.363,-209.689 417.88,-211.226 421.126,-217.428"/>
</g>
<!-- Node10 -->
<g id="node10" class="node"><title>Node10</title>
<polygon fill="white" stroke="#bfbfbf" points="640.5,-246.5 640.5,-276.5 752.5,-276.5 752.5,-246.5 640.5,-246.5"/>
<text text-anchor="start" x="648.5" y="-264.5" font-family="Helvetica,sans-Serif" font-size="10.00">boost/property_tree</text>
<text text-anchor="middle" x="696.5" y="-253.5" font-family="Helvetica,sans-Serif" font-size="10.00">/xml_parser.hpp</text>
</g>
<!-- Node1&#45;&gt;Node10 -->
<g id="edge10" class="edge"><title>Node1&#45;&gt;Node10</title>
<path fill="none" stroke="midnightblue" d="M458.12,-313.439C506.932,-303.371 567.512,-290.75 630.383,-277.225"/>
<polygon fill="midnightblue" stroke="midnightblue" points="631.453,-280.575 640.491,-275.047 629.978,-273.732 631.453,-280.575"/>
</g>
<!-- Node11 -->
<g id="node11" class="node"><title>Node11</title>
<polygon fill="white" stroke="#bfbfbf" points="771,-252 771,-271 902,-271 902,-252 771,-252"/>
<text text-anchor="middle" x="836.5" y="-259" font-family="Helvetica,sans-Serif" font-size="10.00">boost/test/unit_test.hpp</text>
</g>
<!-- Node1&#45;&gt;Node11 -->
<g id="edge11" class="edge"><title>Node1&#45;&gt;Node11</title>
<path fill="none" stroke="midnightblue" d="M458.246,-320.97C539.204,-310.462 658.176,-294.227 761.5,-277 768.958,-275.756 776.815,-274.348 784.522,-272.909"/>
<polygon fill="midnightblue" stroke="midnightblue" points="785.35,-276.314 794.522,-271.011 784.045,-269.437 785.35,-276.314"/>
</g>
<!-- Node12 -->
<g id="node12" class="node"><title>Node12</title>
<g id="a_node12"><a xlink:href="../../d9/dbc/UpdatePTreeParameter_8hpp.html" target="_top" xlink:title="This file contains functions which will update parameters&#39; value, range etc. ">
<polygon fill="white" stroke="black" points="160.5,-252 160.5,-271 334.5,-271 334.5,-252 160.5,-252"/>
<text text-anchor="middle" x="247.5" y="-259" font-family="Helvetica,sans-Serif" font-size="10.00">Tools/UpdatePTreeParameter.hpp</text>
</a>
</g>
</g>
<!-- Node1&#45;&gt;Node12 -->
<g id="edge12" class="edge"><title>Node1&#45;&gt;Node12</title>
<path fill="none" stroke="midnightblue" d="M330.466,-313.362C311.4,-301.674 287.653,-287.116 270.457,-276.573"/>
<polygon fill="midnightblue" stroke="midnightblue" points="272.003,-273.416 261.648,-271.173 268.344,-279.384 272.003,-273.416"/>
</g>
<!-- Node5 -->
<g id="node5" class="node"><title>Node5</title>
<g id="a_node5"><a xlink:href="../../d8/d1b/easylogging_09_09_8h.html" target="_top" xlink:title="ThirdParty/easyloggingpp\l/easylogging++.h">
<polygon fill="white" stroke="red" points="141.5,-56.5 141.5,-86.5 277.5,-86.5 277.5,-56.5 141.5,-56.5"/>
<text text-anchor="start" x="149.5" y="-74.5" font-family="Helvetica,sans-Serif" font-size="10.00">ThirdParty/easyloggingpp</text>
<text text-anchor="middle" x="209.5" y="-63.5" font-family="Helvetica,sans-Serif" font-size="10.00">/easylogging++.h</text>
</a>
</g>
</g>
<!-- Node4&#45;&gt;Node5 -->
<g id="edge4" class="edge"><title>Node4&#45;&gt;Node5</title>
<path fill="none" stroke="midnightblue" d="M209.5,-123.475C209.5,-116.471 209.5,-106.192 209.5,-96.6956"/>
<polygon fill="midnightblue" stroke="midnightblue" points="213,-96.5229 209.5,-86.523 206,-96.523 213,-96.5229"/>
</g>
<!-- Node5&#45;&gt;Node3 -->
<g id="edge6" class="edge"><title>Node5&#45;&gt;Node3</title>
<path fill="none" stroke="midnightblue" d="M198.125,-56.3993C191.15,-47.7533 182.186,-36.642 174.872,-27.576"/>
<polygon fill="midnightblue" stroke="midnightblue" points="177.487,-25.2433 168.484,-19.6578 172.039,-29.6385 177.487,-25.2433"/>
</g>
<!-- Node6 -->
<g id="node6" class="node"><title>Node6</title>
<polygon fill="white" stroke="#bfbfbf" points="321.5,-0.5 321.5,-19.5 365.5,-19.5 365.5,-0.5 321.5,-0.5"/>
<text text-anchor="middle" x="343.5" y="-7.5" font-family="Helvetica,sans-Serif" font-size="10.00">string</text>
</g>
<!-- Node5&#45;&gt;Node6 -->
<g id="edge5" class="edge"><title>Node5&#45;&gt;Node6</title>
<path fill="none" stroke="midnightblue" d="M241.256,-56.3993C263.538,-46.5054 293.091,-33.3832 314.691,-23.7919"/>
<polygon fill="midnightblue" stroke="midnightblue" points="316.283,-26.9149 324.002,-19.6578 313.442,-20.5172 316.283,-26.9149"/>
</g>
<!-- Node12&#45;&gt;Node3 -->
<g id="edge19" class="edge"><title>Node12&#45;&gt;Node3</title>
<path fill="none" stroke="midnightblue" d="M237.336,-251.733C226.407,-242.063 208.809,-225.774 195.5,-210 172.207,-182.393 165.152,-175.553 149.5,-143 132.427,-107.493 121.376,-93.795 132.5,-56 135.512,-45.7645 141.655,-35.6599 147.514,-27.627"/>
<polygon fill="midnightblue" stroke="midnightblue" points="150.432,-29.5773 153.827,-19.5413 144.914,-25.2694 150.432,-29.5773"/>
</g>
<!-- Node12&#45;&gt;Node6 -->
<g id="edge18" class="edge"><title>Node12&#45;&gt;Node6</title>
<path fill="none" stroke="midnightblue" d="M275.829,-251.924C296.066,-244.268 322.156,-230.967 336.5,-210 374.71,-154.149 358.578,-67.3579 348.869,-29.5988"/>
<polygon fill="midnightblue" stroke="midnightblue" points="352.135,-28.2713 346.129,-19.5431 345.381,-30.1115 352.135,-28.2713"/>
</g>
<!-- Node12&#45;&gt;Node9 -->
<g id="edge17" class="edge"><title>Node12&#45;&gt;Node9</title>
<path fill="none" stroke="midnightblue" d="M276.449,-251.869C310.081,-241.841 366.374,-225.056 408.806,-212.404"/>
<polygon fill="midnightblue" stroke="midnightblue" points="409.869,-215.74 418.452,-209.528 407.869,-209.031 409.869,-215.74"/>
</g>
<!-- Node13 -->
<g id="node13" class="node"><title>Node13</title>
<g id="a_node13"><a xlink:href="../../da/dee/FitParameter_8hpp.html" target="_top" xlink:title="Core/FitParameter.hpp">
<polygon fill="white" stroke="red" points="205,-185 205,-204 328,-204 328,-185 205,-185"/>
<text text-anchor="middle" x="266.5" y="-192" font-family="Helvetica,sans-Serif" font-size="10.00">Core/FitParameter.hpp</text>
</a>
</g>
</g>
<!-- Node12&#45;&gt;Node13 -->
<g id="edge13" class="edge"><title>Node12&#45;&gt;Node13</title>
<path fill="none" stroke="midnightblue" d="M250.062,-251.734C252.883,-242.085 257.497,-226.3 261.12,-213.906"/>
<polygon fill="midnightblue" stroke="midnightblue" points="264.532,-214.708 263.978,-204.127 257.813,-212.744 264.532,-214.708"/>
</g>
<!-- Node13&#45;&gt;Node3 -->
<g id="edge16" class="edge"><title>Node13&#45;&gt;Node3</title>
<path fill="none" stroke="midnightblue" d="M271.573,-184.806C284.415,-161.54 315.213,-96.8533 286.5,-56 266.065,-26.9249 224.948,-16.5475 195.447,-12.8931"/>
<polygon fill="midnightblue" stroke="midnightblue" points="195.471,-9.37691 185.163,-11.8287 194.75,-16.3397 195.471,-9.37691"/>
</g>
<!-- Node13&#45;&gt;Node4 -->
<g id="edge14" class="edge"><title>Node13&#45;&gt;Node4</title>
<path fill="none" stroke="midnightblue" d="M258.333,-184.975C249.614,-175.873 235.596,-161.241 224.811,-149.983"/>
<polygon fill="midnightblue" stroke="midnightblue" points="227.097,-147.309 217.652,-142.509 222.042,-152.151 227.097,-147.309"/>
</g>
<!-- Node13&#45;&gt;Node6 -->
<g id="edge15" class="edge"><title>Node13&#45;&gt;Node6</title>
<path fill="none" stroke="midnightblue" d="M279.663,-184.734C292.012,-175.768 309.966,-160.674 319.5,-143 339.248,-106.393 343.123,-56.6275 343.661,-29.8738"/>
<polygon fill="midnightblue" stroke="midnightblue" points="347.162,-29.6459 343.721,-19.6255 340.162,-29.6048 347.162,-29.6459"/>
</g>
</g>
</svg>
