<?xml version="1.0" encoding="UTF-8" standalone="no"?>
<!DOCTYPE svg PUBLIC "-//W3C//DTD SVG 1.1//EN"
 "http://www.w3.org/Graphics/SVG/1.1/DTD/svg11.dtd">
<!-- Generated by graphviz version 2.38.0 (20140413.2041)
 -->
<!-- Title: DataItemWithMemberNodes Pages: 1 -->
<svg width="329pt" height="331pt"
 viewBox="0.00 0.00 328.50 331.00" xmlns="http://www.w3.org/2000/svg" xmlns:xlink="http://www.w3.org/1999/xlink">
<g id="graph0" class="graph" transform="scale(1 1) rotate(0) translate(4 327)">
<title>DataItemWithMemberNodes</title>
<polygon fill="white" stroke="none" points="-4,4 -4,-327 324.5,-327 324.5,4 -4,4"/>
<!-- Node1 -->
<g id="node1" class="node"><title>Node1</title>
<polygon fill="#bfbfbf" stroke="black" points="55,-0.5 55,-57.5 226,-57.5 226,-0.5 55,-0.5"/>
<text text-anchor="middle" x="140.5" y="-45.5" font-family="Helvetica,sans-Serif" font-size="10.00">DataItemWithMemberNodes</text>
<polyline fill="none" stroke="black" points="55,-38.5 226,-38.5 "/>
<text text-anchor="start" x="63" y="-26.5" font-family="Helvetica,sans-Serif" font-size="10.00">+ m_Node</text>
<polyline fill="none" stroke="black" points="55,-19.5 226,-19.5 "/>
<text text-anchor="start" x="63" y="-7.5" font-family="Helvetica,sans-Serif" font-size="10.00">+ DataItemWithMemberNodes()</text>
</g>
<!-- Node2 -->
<g id="node2" class="node"><title>Node2</title>
<g id="a_node2"><a xlink:href="../../d1/d92/structVerificationBase.html" target="_top" xlink:title="{VerificationBase\n|+ m_Canary\l|+ VerificationBase()\l}">
<polygon fill="white" stroke="black" points="0.5,-105.5 0.5,-162.5 112.5,-162.5 112.5,-105.5 0.5,-105.5"/>
<text text-anchor="middle" x="56.5" y="-150.5" font-family="Helvetica,sans-Serif" font-size="10.00">VerificationBase</text>
<polyline fill="none" stroke="black" points="0.5,-143.5 112.5,-143.5 "/>
<text text-anchor="start" x="8.5" y="-131.5" font-family="Helvetica,sans-Serif" font-size="10.00">+ m_Canary</text>
<polyline fill="none" stroke="black" points="0.5,-124.5 112.5,-124.5 "/>
<text text-anchor="start" x="8.5" y="-112.5" font-family="Helvetica,sans-Serif" font-size="10.00">+ VerificationBase()</text>
</a>
</g>
</g>
<!-- Node2&#45;&gt;Node1 -->
<g id="edge1" class="edge"><title>Node2&#45;&gt;Node1</title>
<path fill="none" stroke="midnightblue" d="M85.4408,-97.5131C96.0702,-84.4794 107.939,-69.9261 117.927,-57.6783"/>
<polygon fill="none" stroke="midnightblue" points="82.6182,-95.4362 79.0105,-105.398 88.0429,-99.8603 82.6182,-95.4362"/>
</g>
<!-- Node3 -->
<g id="node3" class="node"><title>Node3</title>
<g id="a_node3"><a xlink:href="../../de/d9a/classHarness_1_1NoAfterlife.html" target="_top" xlink:title="Base class that asserts that no operations are made with the object after its destruction. ">
<polygon fill="white" stroke="black" points="0,-210.5 0,-322.5 113,-322.5 113,-210.5 0,-210.5"/>
<text text-anchor="middle" x="56.5" y="-310.5" font-family="Helvetica,sans-Serif" font-size="10.00">Harness::NoAfterlife</text>
<polyline fill="none" stroke="black" points="0,-303.5 113,-303.5 "/>
<text text-anchor="start" x="8" y="-291.5" font-family="Helvetica,sans-Serif" font-size="10.00"># m_state</text>
<polyline fill="none" stroke="black" points="0,-284.5 113,-284.5 "/>
<text text-anchor="start" x="8" y="-272.5" font-family="Helvetica,sans-Serif" font-size="10.00">+ NoAfterlife()</text>
<text text-anchor="start" x="8" y="-261.5" font-family="Helvetica,sans-Serif" font-size="10.00">+ NoAfterlife()</text>
<text text-anchor="start" x="8" y="-250.5" font-family="Helvetica,sans-Serif" font-size="10.00">+ ~NoAfterlife()</text>
<text text-anchor="start" x="8" y="-239.5" font-family="Helvetica,sans-Serif" font-size="10.00">+ operator=()</text>
<text text-anchor="start" x="8" y="-228.5" font-family="Helvetica,sans-Serif" font-size="10.00">+ AssertLive()</text>
<text text-anchor="start" x="8" y="-217.5" font-family="Helvetica,sans-Serif" font-size="10.00">+ IsLive()</text>
</a>
</g>
</g>
<!-- Node3&#45;&gt;Node2 -->
<g id="edge2" class="edge"><title>Node3&#45;&gt;Node2</title>
<path fill="none" stroke="midnightblue" d="M56.5,-200.096C56.5,-186.895 56.5,-173.703 56.5,-162.681"/>
<polygon fill="none" stroke="midnightblue" points="53.0001,-200.156 56.5,-210.156 60.0001,-200.156 53.0001,-200.156"/>
</g>
<!-- Node4 -->
<g id="node4" class="node"><title>Node4</title>
<g id="a_node4"><a xlink:href="../../de/d08/structDataItemWithMemberNodeBase.html" target="_top" xlink:title="{DataItemWithMemberNodeBase\n|+ m_Data\l+ m_BaseNode\l|+ DataItemWithMemberNodeBase()\l+ Data()\l}">
<polygon fill="white" stroke="black" points="130.5,-94.5 130.5,-173.5 320.5,-173.5 320.5,-94.5 130.5,-94.5"/>
<text text-anchor="middle" x="225.5" y="-161.5" font-family="Helvetica,sans-Serif" font-size="10.00">DataItemWithMemberNodeBase</text>
<polyline fill="none" stroke="black" points="130.5,-154.5 320.5,-154.5 "/>
<text text-anchor="start" x="138.5" y="-142.5" font-family="Helvetica,sans-Serif" font-size="10.00">+ m_Data</text>
<text text-anchor="start" x="138.5" y="-131.5" font-family="Helvetica,sans-Serif" font-size="10.00">+ m_BaseNode</text>
<polyline fill="none" stroke="black" points="130.5,-124.5 320.5,-124.5 "/>
<text text-anchor="start" x="138.5" y="-112.5" font-family="Helvetica,sans-Serif" font-size="10.00">+ DataItemWithMemberNodeBase()</text>
<text text-anchor="start" x="138.5" y="-101.5" font-family="Helvetica,sans-Serif" font-size="10.00">+ Data()</text>
</a>
</g>
</g>
<!-- Node4&#45;&gt;Node1 -->
<g id="edge3" class="edge"><title>Node4&#45;&gt;Node1</title>
<path fill="none" stroke="midnightblue" d="M187.138,-86.5138C178.987,-76.6367 170.631,-66.5114 163.285,-57.6095"/>
<polygon fill="none" stroke="midnightblue" points="184.543,-88.8685 193.607,-94.3536 189.942,-84.413 184.543,-88.8685"/>
</g>
</g>
</svg>
