<?xml version="1.0" encoding="UTF-8" standalone="no"?>
<!DOCTYPE svg PUBLIC "-//W3C//DTD SVG 1.1//EN"
 "http://www.w3.org/Graphics/SVG/1.1/DTD/svg11.dtd">
<!-- Generated by graphviz version 2.38.0 (20140413.2041)
 -->
<!-- Title: /home/travis/build/ComPWA/ComPWA/ThirdParty/parallelstl/include/pstl/internal/glue_numeric_impl.h Pages: 1 -->
<!--zoomable 285 -->
<svg id="main" version="1.1" xmlns="http://www.w3.org/2000/svg" xmlns:xlink="http://www.w3.org/1999/xlink" xml:space="preserve" onload="init(evt)">
<style type="text/css"><![CDATA[
.edge:hover path { stroke: red; }
.edge:hover polygon { stroke: red; fill: red; }
]]></style>
<script type="text/javascript"><![CDATA[
var edges = document.getElementsByTagName('g');
if (edges && edges.length) {
  for (var i=0;i<edges.length;i++) {
    if (edges[i].id.substr(0,4)=='edge') {
      edges[i].setAttribute('class','edge');
    }
  }
}
]]></script>
        <defs>
                <circle id="rim" cx="0" cy="0" r="7"/>
                <circle id="rim2" cx="0" cy="0" r="3.5"/>
                <g id="zoomPlus">
                        <use xlink:href="#rim" fill="#404040">
                                <set attributeName="fill" to="#808080" begin="zoomplus.mouseover" end="zoomplus.mouseout"/>
                        </use>
                        <path d="M-4,0h8M0,-4v8" fill="none" stroke="white" stroke-width="1.5" pointer-events="none"/>
                </g>
                <g id="zoomMin">
                        <use xlink:href="#rim" fill="#404040">
                                <set attributeName="fill" to="#808080" begin="zoomminus.mouseover" end="zoomminus.mouseout"/>
                        </use>
                        <path d="M-4,0h8" fill="none" stroke="white" stroke-width="1.5" pointer-events="none"/>
                </g>
                <g id="dirArrow">
                        <path fill="none" stroke="white" stroke-width="1.5" d="M0,-3.0v7 M-2.5,-0.5L0,-3.0L2.5,-0.5"/>
                </g>
               <g id="resetDef">
                       <use xlink:href="#rim2" fill="#404040">
                               <set attributeName="fill" to="#808080" begin="reset.mouseover" end="reset.mouseout"/>
                       </use>
               </g>
        </defs>

<script type="text/javascript">
var viewWidth = 736;
var viewHeight = 285;
var sectionId = 'dynsection-0';
</script>
<script xlink:href="../../svgpan.js"/>
<svg id="graph" class="graph">
<g id="viewport">
<title>/home/travis/build/ComPWA/ComPWA/ThirdParty/parallelstl/include/pstl/internal/glue_numeric_impl.h</title>
<polygon fill="white" stroke="none" points="-4,4 -4,-281 732.003,-281 732.003,4 -4,4"/>
<!-- Node1 -->
<g id="node1" class="node"><title>Node1</title>
<polygon fill="#bfbfbf" stroke="black" points="12.5,-224.5 12.5,-276.5 170.5,-276.5 170.5,-224.5 12.5,-224.5"/>
<text text-anchor="start" x="20.5" y="-264.5" font-family="Helvetica,sans-Serif" font-size="10.00">/home/travis/build</text>
<text text-anchor="start" x="20.5" y="-253.5" font-family="Helvetica,sans-Serif" font-size="10.00">/ComPWA/ComPWA/ThirdParty</text>
<text text-anchor="start" x="20.5" y="-242.5" font-family="Helvetica,sans-Serif" font-size="10.00">/parallelstl/include/pstl</text>
<text text-anchor="middle" x="91.5" y="-231.5" font-family="Helvetica,sans-Serif" font-size="10.00">/internal/glue_numeric_impl.h</text>
</g>
<!-- Node2 -->
<g id="node2" class="node"><title>Node2</title>
<polygon fill="white" stroke="#bfbfbf" points="0,-168.5 0,-187.5 63,-187.5 63,-168.5 0,-168.5"/>
<text text-anchor="middle" x="31.5" y="-175.5" font-family="Helvetica,sans-Serif" font-size="10.00">functional</text>
</g>
<!-- Node1&#45;&gt;Node2 -->
<g id="edge1" class="edge"><title>Node1&#45;&gt;Node2</title>
<path fill="none" stroke="midnightblue" d="M70.1773,-224.446C61.9923,-214.828 52.8645,-204.103 45.5324,-195.488"/>
<polygon fill="midnightblue" stroke="midnightblue" points="48.047,-193.042 38.9004,-187.695 42.7162,-197.579 48.047,-193.042"/>
</g>
<!-- Node3 -->
<g id="node3" class="node"><title>Node3</title>
<g id="a_node3"><a xlink:href="../../d7/d9f/parallelstl_2include_2pstl_2internal_2utils_8h.html" target="_top" xlink:title="utils.h">
<polygon fill="white" stroke="black" points="191,-56.5 191,-75.5 236,-75.5 236,-56.5 191,-56.5"/>
<text text-anchor="middle" x="213.5" y="-63.5" font-family="Helvetica,sans-Serif" font-size="10.00">utils.h</text>
</a>
</g>
</g>
<!-- Node1&#45;&gt;Node3 -->
<g id="edge2" class="edge"><title>Node1&#45;&gt;Node3</title>
<path fill="none" stroke="midnightblue" d="M95.2473,-224.45C100.758,-194.843 113.479,-145.391 140.5,-112 151.64,-98.2342 168.187,-87.5457 182.712,-80.0467"/>
<polygon fill="midnightblue" stroke="midnightblue" points="184.429,-83.1036 191.888,-75.5791 181.365,-76.81 184.429,-83.1036"/>
</g>
<!-- Node6 -->
<g id="node6" class="node"><title>Node6</title>
<g id="a_node6"><a xlink:href="../../dd/d2a/numeric__impl_8h.html" target="_top" xlink:title="numeric_impl.h">
<polygon fill="white" stroke="black" points="340.5,-168.5 340.5,-187.5 430.5,-187.5 430.5,-168.5 340.5,-168.5"/>
<text text-anchor="middle" x="385.5" y="-175.5" font-family="Helvetica,sans-Serif" font-size="10.00">numeric_impl.h</text>
</a>
</g>
</g>
<!-- Node1&#45;&gt;Node6 -->
<g id="edge5" class="edge"><title>Node1&#45;&gt;Node6</title>
<path fill="none" stroke="midnightblue" d="M170.673,-230.515C224.907,-217.509 294.917,-200.721 340.015,-189.907"/>
<polygon fill="midnightblue" stroke="midnightblue" points="340.893,-193.296 349.802,-187.56 339.261,-186.489 340.893,-193.296"/>
</g>
<!-- Node4 -->
<g id="node4" class="node"><title>Node4</title>
<polygon fill="white" stroke="#bfbfbf" points="196,-0.5 196,-19.5 231,-19.5 231,-0.5 196,-0.5"/>
<text text-anchor="middle" x="213.5" y="-7.5" font-family="Helvetica,sans-Serif" font-size="10.00">new</text>
</g>
<!-- Node3&#45;&gt;Node4 -->
<g id="edge3" class="edge"><title>Node3&#45;&gt;Node4</title>
<path fill="none" stroke="midnightblue" d="M213.5,-56.083C213.5,-49.0059 213.5,-38.8611 213.5,-29.9865"/>
<polygon fill="midnightblue" stroke="midnightblue" points="217,-29.751 213.5,-19.7511 210,-29.7511 217,-29.751"/>
</g>
<!-- Node5 -->
<g id="node5" class="node"><title>Node5</title>
<polygon fill="white" stroke="#bfbfbf" points="634.5,-0.5 634.5,-19.5 686.5,-19.5 686.5,-0.5 634.5,-0.5"/>
<text text-anchor="middle" x="660.5" y="-7.5" font-family="Helvetica,sans-Serif" font-size="10.00">iterator</text>
</g>
<!-- Node3&#45;&gt;Node5 -->
<g id="edge4" class="edge"><title>Node3&#45;&gt;Node5</title>
<path fill="none" stroke="midnightblue" d="M236.074,-57.9514C238.893,-57.2178 241.751,-56.5434 244.5,-56 383.405,-28.5427 551.947,-16.8097 624.472,-12.7738"/>
<polygon fill="midnightblue" stroke="midnightblue" points="624.665,-16.2686 634.461,-12.2332 624.286,-9.27878 624.665,-16.2686"/>
</g>
<!-- Node6&#45;&gt;Node5 -->
<g id="edge7" class="edge"><title>Node6&#45;&gt;Node5</title>
<path fill="none" stroke="midnightblue" d="M430.621,-177.876C512.76,-178.397 681.646,-174.17 718.5,-132 746.841,-99.5714 704,-50.8759 678.006,-26.3207"/>
<polygon fill="midnightblue" stroke="midnightblue" points="680.317,-23.691 670.578,-19.5199 675.59,-28.8541 680.317,-23.691"/>
</g>
<!-- Node7 -->
<g id="node7" class="node"><title>Node7</title>
<polygon fill="white" stroke="#bfbfbf" points="157.5,-112.5 157.5,-131.5 209.5,-131.5 209.5,-112.5 157.5,-112.5"/>
<text text-anchor="middle" x="183.5" y="-119.5" font-family="Helvetica,sans-Serif" font-size="10.00">cassert</text>
</g>
<!-- Node6&#45;&gt;Node7 -->
<g id="edge6" class="edge"><title>Node6&#45;&gt;Node7</title>
<path fill="none" stroke="midnightblue" d="M353.492,-168.444C317.089,-158.712 257.779,-142.857 219.713,-132.681"/>
<polygon fill="midnightblue" stroke="midnightblue" points="220.141,-129.172 209.577,-129.971 218.333,-135.935 220.141,-129.172"/>
</g>
<!-- Node8 -->
<g id="node8" class="node"><title>Node8</title>
<polygon fill="white" stroke="#bfbfbf" points="351.5,-56.5 351.5,-75.5 419.5,-75.5 419.5,-56.5 351.5,-56.5"/>
<text text-anchor="middle" x="385.5" y="-63.5" font-family="Helvetica,sans-Serif" font-size="10.00">type_traits</text>
</g>
<!-- Node6&#45;&gt;Node8 -->
<g id="edge8" class="edge"><title>Node6&#45;&gt;Node8</title>
<path fill="none" stroke="midnightblue" d="M385.5,-168.368C385.5,-150.617 385.5,-109.666 385.5,-85.5974"/>
<polygon fill="midnightblue" stroke="midnightblue" points="389,-85.5914 385.5,-75.5914 382,-85.5915 389,-85.5914"/>
</g>
<!-- Node9 -->
<g id="node9" class="node"><title>Node9</title>
<polygon fill="white" stroke="#bfbfbf" points="413.5,-112.5 413.5,-131.5 469.5,-131.5 469.5,-112.5 413.5,-112.5"/>
<text text-anchor="middle" x="441.5" y="-119.5" font-family="Helvetica,sans-Serif" font-size="10.00">numeric</text>
</g>
<!-- Node6&#45;&gt;Node9 -->
<g id="edge9" class="edge"><title>Node6&#45;&gt;Node9</title>
<path fill="none" stroke="midnightblue" d="M394.497,-168.324C402.694,-160.42 415.006,-148.548 424.972,-138.938"/>
<polygon fill="midnightblue" stroke="midnightblue" points="427.57,-141.295 432.339,-131.834 422.711,-136.256 427.57,-141.295"/>
</g>
<!-- Node10 -->
<g id="node10" class="node"><title>Node10</title>
<g id="a_node10"><a xlink:href="../../d5/d97/pstl__config_8h.html" target="_top" xlink:title="pstl_config.h">
<polygon fill="white" stroke="black" points="254,-56.5 254,-75.5 331,-75.5 331,-56.5 254,-56.5"/>
<text text-anchor="middle" x="292.5" y="-63.5" font-family="Helvetica,sans-Serif" font-size="10.00">pstl_config.h</text>
</a>
</g>
</g>
<!-- Node6&#45;&gt;Node10 -->
<g id="edge10" class="edge"><title>Node6&#45;&gt;Node10</title>
<path fill="none" stroke="midnightblue" d="M340.303,-175.056C278.455,-171.339 172.372,-160.831 148.5,-132 142.831,-125.153 143.235,-119.162 148.5,-112 154.632,-103.659 208.113,-88.4571 248.12,-78.05"/>
<polygon fill="midnightblue" stroke="midnightblue" points="249.153,-81.3982 257.964,-75.5145 247.407,-74.6194 249.153,-81.3982"/>
</g>
<!-- Node11 -->
<g id="node11" class="node"><title>Node11</title>
<g id="a_node11"><a xlink:href="../../d9/d3c/execution__impl_8h.html" target="_top" xlink:title="execution_impl.h">
<polygon fill="white" stroke="red" points="611.5,-112.5 611.5,-131.5 709.5,-131.5 709.5,-112.5 611.5,-112.5"/>
<text text-anchor="middle" x="660.5" y="-119.5" font-family="Helvetica,sans-Serif" font-size="10.00">execution_impl.h</text>
</a>
</g>
</g>
<!-- Node6&#45;&gt;Node11 -->
<g id="edge11" class="edge"><title>Node6&#45;&gt;Node11</title>
<path fill="none" stroke="midnightblue" d="M429.075,-168.444C477.349,-158.964 555.212,-143.675 607.112,-133.483"/>
<polygon fill="midnightblue" stroke="midnightblue" points="607.991,-136.878 617.129,-131.516 606.642,-130.009 607.991,-136.878"/>
</g>
<!-- Node12 -->
<g id="node12" class="node"><title>Node12</title>
<g id="a_node12"><a xlink:href="../../d1/dc3/unseq__backend__simd_8h.html" target="_top" xlink:title="unseq_backend_simd.h">
<polygon fill="white" stroke="black" points="228,-112.5 228,-131.5 357,-131.5 357,-112.5 228,-112.5"/>
<text text-anchor="middle" x="292.5" y="-119.5" font-family="Helvetica,sans-Serif" font-size="10.00">unseq_backend_simd.h</text>
</a>
</g>
</g>
<!-- Node6&#45;&gt;Node12 -->
<g id="edge14" class="edge"><title>Node6&#45;&gt;Node12</title>
<path fill="none" stroke="midnightblue" d="M370.558,-168.324C355.915,-159.822 333.366,-146.729 316.262,-136.797"/>
<polygon fill="midnightblue" stroke="midnightblue" points="317.81,-133.649 307.405,-131.655 314.295,-139.703 317.81,-133.649"/>
</g>
<!-- Node13 -->
<g id="node13" class="node"><title>Node13</title>
<g id="a_node13"><a xlink:href="../../db/d64/parallel__backend_8h.html" target="_top" xlink:title="parallel_backend.h">
<polygon fill="white" stroke="red" points="487.5,-112.5 487.5,-131.5 593.5,-131.5 593.5,-112.5 487.5,-112.5"/>
<text text-anchor="middle" x="540.5" y="-119.5" font-family="Helvetica,sans-Serif" font-size="10.00">parallel_backend.h</text>
</a>
</g>
</g>
<!-- Node6&#45;&gt;Node13 -->
<g id="edge18" class="edge"><title>Node6&#45;&gt;Node13</title>
<path fill="none" stroke="midnightblue" d="M410.06,-168.444C436.023,-159.399 477.168,-145.064 506.297,-134.916"/>
<polygon fill="midnightblue" stroke="midnightblue" points="507.763,-138.112 516.055,-131.516 505.46,-131.501 507.763,-138.112"/>
</g>
<!-- Node11&#45;&gt;Node5 -->
<g id="edge12" class="edge"><title>Node11&#45;&gt;Node5</title>
<path fill="none" stroke="midnightblue" d="M660.5,-112.368C660.5,-94.617 660.5,-53.6664 660.5,-29.5974"/>
<polygon fill="midnightblue" stroke="midnightblue" points="664,-29.5914 660.5,-19.5914 657,-29.5915 664,-29.5914"/>
</g>
<!-- Node11&#45;&gt;Node8 -->
<g id="edge13" class="edge"><title>Node11&#45;&gt;Node8</title>
<path fill="none" stroke="midnightblue" d="M616.925,-112.444C565.669,-102.379 481.057,-85.7639 429.582,-75.656"/>
<polygon fill="midnightblue" stroke="midnightblue" points="430.235,-72.2176 419.748,-73.7251 428.886,-79.0864 430.235,-72.2176"/>
</g>
<!-- Node12&#45;&gt;Node3 -->
<g id="edge17" class="edge"><title>Node12&#45;&gt;Node3</title>
<path fill="none" stroke="midnightblue" d="M279.807,-112.324C267.599,-103.979 248.922,-91.2122 234.497,-81.3524"/>
<polygon fill="midnightblue" stroke="midnightblue" points="236.392,-78.4082 226.161,-75.6545 232.442,-84.1871 236.392,-78.4082"/>
</g>
<!-- Node12&#45;&gt;Node8 -->
<g id="edge15" class="edge"><title>Node12&#45;&gt;Node8</title>
<path fill="none" stroke="midnightblue" d="M307.442,-112.324C322.085,-103.822 344.634,-90.7288 361.738,-80.7975"/>
<polygon fill="midnightblue" stroke="midnightblue" points="363.705,-83.7027 370.595,-75.6545 360.19,-77.6491 363.705,-83.7027"/>
</g>
<!-- Node12&#45;&gt;Node10 -->
<g id="edge16" class="edge"><title>Node12&#45;&gt;Node10</title>
<path fill="none" stroke="midnightblue" d="M292.5,-112.083C292.5,-105.006 292.5,-94.8611 292.5,-85.9865"/>
<polygon fill="midnightblue" stroke="midnightblue" points="296,-85.751 292.5,-75.7511 289,-85.7511 296,-85.751"/>
</g>
</g>
</svg>
        <g id="navigator" transform="translate(0 0)" fill="#404254">
                <rect fill="#f2f5e9" fill-opacity="0.5" stroke="#606060" stroke-width=".5" x="0" y="0" width="60" height="60"/>
                <use id="zoomplus" xlink:href="#zoomPlus" x="17" y="9" onmousedown="handleZoom(evt,'in')"/>
                <use id="zoomminus" xlink:href="#zoomMin" x="42" y="9" onmousedown="handleZoom(evt,'out')"/>
                <use id="reset" xlink:href="#resetDef" x="30" y="36" onmousedown="handleReset()"/>
                <g id="arrowUp" xlink:href="#dirArrow" transform="translate(30 24)" onmousedown="handlePan(0,-1)">
                  <use xlink:href="#rim" fill="#404040">
                        <set attributeName="fill" to="#808080" begin="arrowUp.mouseover" end="arrowUp.mouseout"/>
                  </use>
                  <path fill="none" stroke="white" stroke-width="1.5" d="M0,-3.0v7 M-2.5,-0.5L0,-3.0L2.5,-0.5"/>
                </g>
                <g id="arrowRight" xlink:href="#dirArrow" transform="rotate(90) translate(36 -43)" onmousedown="handlePan(1,0)">
                  <use xlink:href="#rim" fill="#404040">
                        <set attributeName="fill" to="#808080" begin="arrowRight.mouseover" end="arrowRight.mouseout"/>
                  </use>
                  <path fill="none" stroke="white" stroke-width="1.5" d="M0,-3.0v7 M-2.5,-0.5L0,-3.0L2.5,-0.5"/>
                </g>
                <g id="arrowDown" xlink:href="#dirArrow" transform="rotate(180) translate(-30 -48)" onmousedown="handlePan(0,1)">
                  <use xlink:href="#rim" fill="#404040">
                        <set attributeName="fill" to="#808080" begin="arrowDown.mouseover" end="arrowDown.mouseout"/>
                  </use>
                  <path fill="none" stroke="white" stroke-width="1.5" d="M0,-3.0v7 M-2.5,-0.5L0,-3.0L2.5,-0.5"/>
                </g>
                <g id="arrowLeft" xlink:href="#dirArrow" transform="rotate(270) translate(-36 17)" onmousedown="handlePan(-1,0)">
                  <use xlink:href="#rim" fill="#404040">
                        <set attributeName="fill" to="#808080" begin="arrowLeft.mouseover" end="arrowLeft.mouseout"/>
                  </use>
                  <path fill="none" stroke="white" stroke-width="1.5" d="M0,-3.0v7 M-2.5,-0.5L0,-3.0L2.5,-0.5"/>
                </g>
        </g>
        <svg viewBox="0 0 15 15" width="100%" height="30px" preserveAspectRatio="xMaxYMin meet">
         <g id="arrow_out" transform="scale(0.3 0.3)">
          <a xlink:href="glue__numeric__impl_8h__incl_org.svg" target="_base">
           <rect id="button" ry="5" rx="5" y="6" x="6" height="38" width="38"
                fill="#f2f5e9" fill-opacity="0.5" stroke="#606060" stroke-width="1.0"/>
           <path id="arrow"
             d="M 11.500037,31.436501 C 11.940474,20.09759 22.043105,11.32322 32.158766,21.979434 L 37.068811,17.246167 C 37.068811,17.246167 37.088388,32 37.088388,32 L 22.160133,31.978069 C 22.160133,31.978069 26.997745,27.140456 26.997745,27.140456 C 18.528582,18.264221 13.291696,25.230495 11.500037,31.436501 z"
             style="fill:#404040;"/>
          </a>
         </g>
        </svg>
</svg>
