<?xml version="1.0" encoding="UTF-8" standalone="no"?>
<!DOCTYPE svg PUBLIC "-//W3C//DTD SVG 1.1//EN"
 "http://www.w3.org/Graphics/SVG/1.1/DTD/svg11.dtd">
<!-- Generated by graphviz version 2.38.0 (20140413.2041)
 -->
<!-- Title: /home/travis/build/ComPWA/ComPWA/ThirdParty/tbb/src/rml/server/thread_monitor.h Pages: 1 -->
<svg width="560pt" height="239pt"
 viewBox="0.00 0.00 560.00 239.00" xmlns="http://www.w3.org/2000/svg" xmlns:xlink="http://www.w3.org/1999/xlink">
<g id="graph0" class="graph" transform="scale(1 1) rotate(0) translate(4 235)">
<title>/home/travis/build/ComPWA/ComPWA/ThirdParty/tbb/src/rml/server/thread_monitor.h</title>
<polygon fill="white" stroke="none" points="-4,4 -4,-235 556,-235 556,4 -4,4"/>
<!-- Node1 -->
<g id="node1" class="node"><title>Node1</title>
<polygon fill="#bfbfbf" stroke="black" points="160,-178.5 160,-230.5 318,-230.5 318,-178.5 160,-178.5"/>
<text text-anchor="start" x="168" y="-218.5" font-family="Helvetica,sans-Serif" font-size="10.00">/home/travis/build</text>
<text text-anchor="start" x="168" y="-207.5" font-family="Helvetica,sans-Serif" font-size="10.00">/ComPWA/ComPWA/ThirdParty</text>
<text text-anchor="start" x="168" y="-196.5" font-family="Helvetica,sans-Serif" font-size="10.00">/tbb/src/rml/server/thread</text>
<text text-anchor="middle" x="239" y="-185.5" font-family="Helvetica,sans-Serif" font-size="10.00">_monitor.h</text>
</g>
<!-- Node2 -->
<g id="node2" class="node"><title>Node2</title>
<g id="a_node2"><a xlink:href="../../df/ded/wait__counter_8h.html" target="_top" xlink:title="/home/travis/build\l/ComPWA/ComPWA/ThirdParty\l/tbb/src/rml/server/wait\l_counter.h">
<polygon fill="white" stroke="black" points="0,-89.5 0,-141.5 158,-141.5 158,-89.5 0,-89.5"/>
<text text-anchor="start" x="8" y="-129.5" font-family="Helvetica,sans-Serif" font-size="10.00">/home/travis/build</text>
<text text-anchor="start" x="8" y="-118.5" font-family="Helvetica,sans-Serif" font-size="10.00">/ComPWA/ComPWA/ThirdParty</text>
<text text-anchor="start" x="8" y="-107.5" font-family="Helvetica,sans-Serif" font-size="10.00">/tbb/src/rml/server/wait</text>
<text text-anchor="middle" x="79" y="-96.5" font-family="Helvetica,sans-Serif" font-size="10.00">_counter.h</text>
</a>
</g>
</g>
<!-- Node1&#45;&gt;Node2 -->
<g id="edge1" class="edge"><title>Node1&#45;&gt;Node2</title>
<path fill="none" stroke="midnightblue" d="M183.817,-173.494C164.702,-163.101 143.489,-151.566 125.175,-141.607"/>
<polygon fill="midnightblue" stroke="midnightblue" points="182.264,-176.634 192.721,-178.336 185.608,-170.484 182.264,-176.634"/>
</g>
<!-- Node3 -->
<g id="node3" class="node"><title>Node3</title>
<g id="a_node3"><a xlink:href="../../da/d2f/rml__server_8cpp.html" target="_top" xlink:title="/home/travis/build\l/ComPWA/ComPWA/ThirdParty\l/tbb/src/rml/server/rml\l_server.cpp">
<polygon fill="white" stroke="black" points="53,-0.5 53,-52.5 211,-52.5 211,-0.5 53,-0.5"/>
<text text-anchor="start" x="61" y="-40.5" font-family="Helvetica,sans-Serif" font-size="10.00">/home/travis/build</text>
<text text-anchor="start" x="61" y="-29.5" font-family="Helvetica,sans-Serif" font-size="10.00">/ComPWA/ComPWA/ThirdParty</text>
<text text-anchor="start" x="61" y="-18.5" font-family="Helvetica,sans-Serif" font-size="10.00">/tbb/src/rml/server/rml</text>
<text text-anchor="middle" x="132" y="-7.5" font-family="Helvetica,sans-Serif" font-size="10.00">_server.cpp</text>
</a>
</g>
</g>
<!-- Node1&#45;&gt;Node3 -->
<g id="edge3" class="edge"><title>Node1&#45;&gt;Node3</title>
<path fill="none" stroke="midnightblue" d="M218.371,-169.568C197.575,-135.362 165.961,-83.3611 147.302,-52.6697"/>
<polygon fill="midnightblue" stroke="midnightblue" points="215.484,-171.557 223.67,-178.283 221.465,-167.92 215.484,-171.557"/>
</g>
<!-- Node4 -->
<g id="node4" class="node"><title>Node4</title>
<g id="a_node4"><a xlink:href="../../d5/dab/test__thread__monitor_8cpp.html" target="_top" xlink:title="/home/travis/build\l/ComPWA/ComPWA/ThirdParty\l/tbb/src/rml/test/test_thread\l_monitor.cpp">
<polygon fill="white" stroke="black" points="214,-89.5 214,-141.5 372,-141.5 372,-89.5 214,-89.5"/>
<text text-anchor="start" x="222" y="-129.5" font-family="Helvetica,sans-Serif" font-size="10.00">/home/travis/build</text>
<text text-anchor="start" x="222" y="-118.5" font-family="Helvetica,sans-Serif" font-size="10.00">/ComPWA/ComPWA/ThirdParty</text>
<text text-anchor="start" x="222" y="-107.5" font-family="Helvetica,sans-Serif" font-size="10.00">/tbb/src/rml/test/test_thread</text>
<text text-anchor="middle" x="293" y="-96.5" font-family="Helvetica,sans-Serif" font-size="10.00">_monitor.cpp</text>
</a>
</g>
</g>
<!-- Node1&#45;&gt;Node4 -->
<g id="edge4" class="edge"><title>Node1&#45;&gt;Node4</title>
<path fill="none" stroke="midnightblue" d="M260.017,-169.639C265.81,-160.306 271.99,-150.349 277.416,-141.607"/>
<polygon fill="midnightblue" stroke="midnightblue" points="256.919,-167.994 254.619,-178.336 262.866,-171.685 256.919,-167.994"/>
</g>
<!-- Node5 -->
<g id="node5" class="node"><title>Node5</title>
<g id="a_node5"><a xlink:href="../../d7/dcb/private__server_8cpp.html" target="_top" xlink:title="/home/travis/build\l/ComPWA/ComPWA/ThirdParty\l/tbb/src/tbb/private_server.cpp">
<polygon fill="white" stroke="black" points="390,-95 390,-136 552,-136 552,-95 390,-95"/>
<text text-anchor="start" x="398" y="-124" font-family="Helvetica,sans-Serif" font-size="10.00">/home/travis/build</text>
<text text-anchor="start" x="398" y="-113" font-family="Helvetica,sans-Serif" font-size="10.00">/ComPWA/ComPWA/ThirdParty</text>
<text text-anchor="middle" x="471" y="-102" font-family="Helvetica,sans-Serif" font-size="10.00">/tbb/src/tbb/private_server.cpp</text>
</a>
</g>
</g>
<!-- Node1&#45;&gt;Node5 -->
<g id="edge5" class="edge"><title>Node1&#45;&gt;Node5</title>
<path fill="none" stroke="midnightblue" d="M315.201,-174.925C349.083,-162.219 388.12,-147.58 418.643,-136.134"/>
<polygon fill="midnightblue" stroke="midnightblue" points="313.927,-171.664 305.793,-178.453 316.385,-178.219 313.927,-171.664"/>
</g>
<!-- Node2&#45;&gt;Node3 -->
<g id="edge2" class="edge"><title>Node2&#45;&gt;Node3</title>
<path fill="none" stroke="midnightblue" d="M99.6281,-80.6387C105.314,-71.3056 111.379,-61.3492 116.705,-52.6075"/>
<polygon fill="midnightblue" stroke="midnightblue" points="96.5434,-78.975 94.3298,-89.336 102.521,-82.6168 96.5434,-78.975"/>
</g>
<!-- Node6 -->
<g id="node6" class="node"><title>Node6</title>
<g id="a_node6"><a xlink:href="../../d8/d0e/harness__inject__scheduler_8h.html" target="_top" xlink:title="/home/travis/build\l/ComPWA/ComPWA/ThirdParty\l/tbb/src/test/harness_inject\l_scheduler.h">
<polygon fill="white" stroke="red" points="392,-0.5 392,-52.5 550,-52.5 550,-0.5 392,-0.5"/>
<text text-anchor="start" x="400" y="-40.5" font-family="Helvetica,sans-Serif" font-size="10.00">/home/travis/build</text>
<text text-anchor="start" x="400" y="-29.5" font-family="Helvetica,sans-Serif" font-size="10.00">/ComPWA/ComPWA/ThirdParty</text>
<text text-anchor="start" x="400" y="-18.5" font-family="Helvetica,sans-Serif" font-size="10.00">/tbb/src/test/harness_inject</text>
<text text-anchor="middle" x="471" y="-7.5" font-family="Helvetica,sans-Serif" font-size="10.00">_scheduler.h</text>
</a>
</g>
</g>
<!-- Node5&#45;&gt;Node6 -->
<g id="edge6" class="edge"><title>Node5&#45;&gt;Node6</title>
<path fill="none" stroke="midnightblue" d="M471,-84.5092C471,-74.1743 471,-62.71 471,-52.7882"/>
<polygon fill="midnightblue" stroke="midnightblue" points="467.5,-84.7583 471,-94.7584 474.5,-84.7584 467.5,-84.7583"/>
</g>
</g>
</svg>
