<?xml version="1.0" encoding="UTF-8" standalone="no"?>
<!DOCTYPE svg PUBLIC "-//W3C//DTD SVG 1.1//EN"
 "http://www.w3.org/Graphics/SVG/1.1/DTD/svg11.dtd">
<!-- Generated by graphviz version 2.38.0 (20140413.2041)
 -->
<!-- Title: tbb::queuing_rw_mutex Pages: 1 -->
<svg width="314pt" height="354pt"
 viewBox="0.00 0.00 313.50 354.00" xmlns="http://www.w3.org/2000/svg" xmlns:xlink="http://www.w3.org/1999/xlink">
<g id="graph0" class="graph" transform="scale(1 1) rotate(0) translate(4 350)">
<title>tbb::queuing_rw_mutex</title>
<polygon fill="white" stroke="none" points="-4,4 -4,-350 309.5,-350 309.5,4 -4,4"/>
<!-- Node1 -->
<g id="node1" class="node"><title>Node1</title>
<polygon fill="#bfbfbf" stroke="black" points="48.5,-0.5 48.5,-101.5 182.5,-101.5 182.5,-0.5 48.5,-0.5"/>
<text text-anchor="middle" x="115.5" y="-89.5" font-family="Helvetica,sans-Serif" font-size="10.00">tbb::queuing_rw_mutex</text>
<polyline fill="none" stroke="black" points="48.5,-82.5 182.5,-82.5 "/>
<text text-anchor="start" x="56.5" y="-70.5" font-family="Helvetica,sans-Serif" font-size="10.00">+ is_rw_mutex</text>
<text text-anchor="start" x="56.5" y="-59.5" font-family="Helvetica,sans-Serif" font-size="10.00">+ is_recursive_mutex</text>
<text text-anchor="start" x="56.5" y="-48.5" font-family="Helvetica,sans-Serif" font-size="10.00">+ is_fair_mutex</text>
<polyline fill="none" stroke="black" points="48.5,-41.5 182.5,-41.5 "/>
<text text-anchor="start" x="56.5" y="-29.5" font-family="Helvetica,sans-Serif" font-size="10.00">+ queuing_rw_mutex()</text>
<text text-anchor="start" x="56.5" y="-18.5" font-family="Helvetica,sans-Serif" font-size="10.00">+ ~queuing_rw_mutex()</text>
<text text-anchor="start" x="56.5" y="-7.5" font-family="Helvetica,sans-Serif" font-size="10.00">+ internal_construct()</text>
</g>
<!-- Node2 -->
<g id="node2" class="node"><title>Node2</title>
<polygon fill="white" stroke="#bfbfbf" points="0,-155 0,-223 135,-223 135,-155 0,-155"/>
<text text-anchor="start" x="8" y="-211" font-family="Helvetica,sans-Serif" font-size="10.00">mutex_copy_deprecated</text>
<text text-anchor="middle" x="67.5" y="-200" font-family="Helvetica,sans-Serif" font-size="10.00">_and_disabled</text>
<polyline fill="none" stroke="#bfbfbf" points="0,-193 135,-193 "/>
<text text-anchor="middle" x="67.5" y="-181" font-family="Helvetica,sans-Serif" font-size="10.00"> </text>
<polyline fill="none" stroke="#bfbfbf" points="0,-174 135,-174 "/>
<text text-anchor="middle" x="67.5" y="-162" font-family="Helvetica,sans-Serif" font-size="10.00"> </text>
</g>
<!-- Node2&#45;&gt;Node1 -->
<g id="edge1" class="edge"><title>Node2&#45;&gt;Node1</title>
<path fill="none" stroke="#8b1a1a" d="M82.6705,-145.017C87.5343,-131.236 92.9604,-115.862 97.978,-101.646"/>
<polygon fill="none" stroke="#8b1a1a" points="79.2699,-144.136 79.2421,-154.731 85.8709,-146.466 79.2699,-144.136"/>
</g>
<!-- Node3 -->
<g id="node3" class="node"><title>Node3</title>
<g id="a_node3"><a xlink:href="../../d4/d32/structtbb_1_1atomic.html" target="_top" xlink:title="{tbb::atomic\&lt; tbb::queuing\l_rw_mutex::scoped_lock * \&gt;\n||+ operator=()\l+ operator=()\l}">
<polygon fill="white" stroke="black" points="153.5,-149.5 153.5,-228.5 305.5,-228.5 305.5,-149.5 153.5,-149.5"/>
<text text-anchor="start" x="161.5" y="-216.5" font-family="Helvetica,sans-Serif" font-size="10.00">tbb::atomic&lt; tbb::queuing</text>
<text text-anchor="middle" x="229.5" y="-205.5" font-family="Helvetica,sans-Serif" font-size="10.00">_rw_mutex::scoped_lock * &gt;</text>
<polyline fill="none" stroke="black" points="153.5,-198.5 305.5,-198.5 "/>
<text text-anchor="middle" x="229.5" y="-186.5" font-family="Helvetica,sans-Serif" font-size="10.00"> </text>
<polyline fill="none" stroke="black" points="153.5,-179.5 305.5,-179.5 "/>
<text text-anchor="start" x="161.5" y="-167.5" font-family="Helvetica,sans-Serif" font-size="10.00">+ operator=()</text>
<text text-anchor="start" x="161.5" y="-156.5" font-family="Helvetica,sans-Serif" font-size="10.00">+ operator=()</text>
</a>
</g>
</g>
<!-- Node3&#45;&gt;Node1 -->
<g id="edge2" class="edge"><title>Node3&#45;&gt;Node1</title>
<path fill="none" stroke="#404040" d="M197.137,-149.392C187.179,-137.511 175.978,-124.149 165.138,-111.218"/>
<polygon fill="none" stroke="#404040" points="165.041,-111.102 158.121,-109.073 157.332,-101.905 164.252,-103.934 165.041,-111.102"/>
<text text-anchor="middle" x="195" y="-123" font-family="Helvetica,sans-Serif" font-size="10.00"> &#45;q_tail</text>
</g>
<!-- Node4 -->
<g id="node4" class="node"><title>Node4</title>
<polygon fill="white" stroke="#bfbfbf" points="159.5,-266.5 159.5,-345.5 299.5,-345.5 299.5,-266.5 159.5,-266.5"/>
<text text-anchor="start" x="167.5" y="-333.5" font-family="Helvetica,sans-Serif" font-size="10.00">internal::atomic_impl</text>
<text text-anchor="start" x="167.5" y="-322.5" font-family="Helvetica,sans-Serif" font-size="10.00">&lt; tbb::queuing_rw_mutex</text>
<text text-anchor="middle" x="229.5" y="-311.5" font-family="Helvetica,sans-Serif" font-size="10.00">::scoped_lock * &gt;</text>
<polyline fill="none" stroke="#bfbfbf" points="159.5,-304.5 299.5,-304.5 "/>
<text text-anchor="middle" x="229.5" y="-292.5" font-family="Helvetica,sans-Serif" font-size="10.00"> </text>
<polyline fill="none" stroke="#bfbfbf" points="159.5,-285.5 299.5,-285.5 "/>
<text text-anchor="middle" x="229.5" y="-273.5" font-family="Helvetica,sans-Serif" font-size="10.00"> </text>
</g>
<!-- Node4&#45;&gt;Node3 -->
<g id="edge3" class="edge"><title>Node4&#45;&gt;Node3</title>
<path fill="none" stroke="midnightblue" d="M229.5,-256.199C229.5,-247.016 229.5,-237.53 229.5,-228.707"/>
<polygon fill="none" stroke="midnightblue" points="226,-256.387 229.5,-266.387 233,-256.387 226,-256.387"/>
</g>
</g>
</svg>
