<?xml version="1.0" encoding="UTF-8" standalone="no"?>
<!DOCTYPE svg PUBLIC "-//W3C//DTD SVG 1.1//EN"
 "http://www.w3.org/Graphics/SVG/1.1/DTD/svg11.dtd">
<!-- Generated by graphviz version 2.38.0 (20140413.2041)
 -->
<!-- Title: rml::internal::Backend::IndexedBins Pages: 1 -->
<svg width="468pt" height="595pt"
 viewBox="0.00 0.00 467.50 595.00" xmlns="http://www.w3.org/2000/svg" xmlns:xlink="http://www.w3.org/1999/xlink">
<g id="graph0" class="graph" transform="scale(1 1) rotate(0) translate(4 591)">
<title>rml::internal::Backend::IndexedBins</title>
<polygon fill="white" stroke="none" points="-4,4 -4,-591 463.5,-591 463.5,4 -4,4"/>
<!-- Node1 -->
<g id="node1" class="node"><title>Node1</title>
<polygon fill="#bfbfbf" stroke="black" points="225.5,-0.5 225.5,-167.5 358.5,-167.5 358.5,-0.5 225.5,-0.5"/>
<text text-anchor="start" x="233.5" y="-155.5" font-family="Helvetica,sans-Serif" font-size="10.00">rml::internal::Backend</text>
<text text-anchor="middle" x="292" y="-144.5" font-family="Helvetica,sans-Serif" font-size="10.00">::IndexedBins</text>
<polyline fill="none" stroke="black" points="225.5,-137.5 358.5,-137.5 "/>
<text text-anchor="middle" x="292" y="-125.5" font-family="Helvetica,sans-Serif" font-size="10.00"> </text>
<polyline fill="none" stroke="black" points="225.5,-118.5 358.5,-118.5 "/>
<text text-anchor="start" x="233.5" y="-106.5" font-family="Helvetica,sans-Serif" font-size="10.00">+ findBlock()</text>
<text text-anchor="start" x="233.5" y="-95.5" font-family="Helvetica,sans-Serif" font-size="10.00">+ tryReleaseRegions()</text>
<text text-anchor="start" x="233.5" y="-84.5" font-family="Helvetica,sans-Serif" font-size="10.00">+ lockRemoveBlock()</text>
<text text-anchor="start" x="233.5" y="-73.5" font-family="Helvetica,sans-Serif" font-size="10.00">+ addBlock()</text>
<text text-anchor="start" x="233.5" y="-62.5" font-family="Helvetica,sans-Serif" font-size="10.00">+ tryAddBlock()</text>
<text text-anchor="start" x="233.5" y="-51.5" font-family="Helvetica,sans-Serif" font-size="10.00">+ getMinNonemptyBin()</text>
<text text-anchor="start" x="233.5" y="-40.5" font-family="Helvetica,sans-Serif" font-size="10.00">+ verify()</text>
<text text-anchor="start" x="233.5" y="-29.5" font-family="Helvetica,sans-Serif" font-size="10.00">+ reset()</text>
<text text-anchor="start" x="233.5" y="-18.5" font-family="Helvetica,sans-Serif" font-size="10.00">+ reportStat()</text>
<text text-anchor="start" x="233.5" y="-7.5" font-family="Helvetica,sans-Serif" font-size="10.00">&#45; getFromBin()</text>
</g>
<!-- Node2 -->
<g id="node2" class="node"><title>Node2</title>
<g id="a_node2"><a xlink:href="../../d5/de7/structrml_1_1internal_1_1Backend_1_1Bin.html" target="_top" xlink:title="{rml::internal::Backend::Bin\n||+ removeBlock()\l+ reset()\l+ empty()\l+ countFreeBlocks()\l+ reportFreeBlocks()\l+ reportStat()\l}">
<polygon fill="white" stroke="black" points="85.5,-215.5 85.5,-327.5 228.5,-327.5 228.5,-215.5 85.5,-215.5"/>
<text text-anchor="middle" x="157" y="-315.5" font-family="Helvetica,sans-Serif" font-size="10.00">rml::internal::Backend::Bin</text>
<polyline fill="none" stroke="black" points="85.5,-308.5 228.5,-308.5 "/>
<text text-anchor="middle" x="157" y="-296.5" font-family="Helvetica,sans-Serif" font-size="10.00"> </text>
<polyline fill="none" stroke="black" points="85.5,-289.5 228.5,-289.5 "/>
<text text-anchor="start" x="93.5" y="-277.5" font-family="Helvetica,sans-Serif" font-size="10.00">+ removeBlock()</text>
<text text-anchor="start" x="93.5" y="-266.5" font-family="Helvetica,sans-Serif" font-size="10.00">+ reset()</text>
<text text-anchor="start" x="93.5" y="-255.5" font-family="Helvetica,sans-Serif" font-size="10.00">+ empty()</text>
<text text-anchor="start" x="93.5" y="-244.5" font-family="Helvetica,sans-Serif" font-size="10.00">+ countFreeBlocks()</text>
<text text-anchor="start" x="93.5" y="-233.5" font-family="Helvetica,sans-Serif" font-size="10.00">+ reportFreeBlocks()</text>
<text text-anchor="start" x="93.5" y="-222.5" font-family="Helvetica,sans-Serif" font-size="10.00">+ reportStat()</text>
</a>
</g>
</g>
<!-- Node2&#45;&gt;Node1 -->
<g id="edge1" class="edge"><title>Node2&#45;&gt;Node1</title>
<path fill="none" stroke="#404040" d="M197.139,-215.346C205.81,-203.432 215.206,-190.521 224.6,-177.613"/>
<polygon fill="none" stroke="#404040" points="224.709,-177.463 225.006,-170.258 231.77,-167.76 231.474,-174.965 224.709,-177.463"/>
<text text-anchor="middle" x="240" y="-189" font-family="Helvetica,sans-Serif" font-size="10.00"> &#45;freeBins</text>
</g>
<!-- Node3 -->
<g id="node3" class="node"><title>Node3</title>
<g id="a_node3"><a xlink:href="../../dd/d4f/classMallocMutex.html" target="_top" xlink:title="Stripped down version of spin_mutex. ">
<polygon fill="white" stroke="red" points="0,-458 0,-515 76,-515 76,-458 0,-458"/>
<text text-anchor="middle" x="38" y="-503" font-family="Helvetica,sans-Serif" font-size="10.00">MallocMutex</text>
<polyline fill="none" stroke="red" points="0,-496 76,-496 "/>
<text text-anchor="start" x="8" y="-484" font-family="Helvetica,sans-Serif" font-size="10.00">&#45; flag</text>
<polyline fill="none" stroke="red" points="0,-477 76,-477 "/>
<text text-anchor="middle" x="38" y="-465" font-family="Helvetica,sans-Serif" font-size="10.00"> </text>
</a>
</g>
</g>
<!-- Node3&#45;&gt;Node2 -->
<g id="edge2" class="edge"><title>Node3&#45;&gt;Node2</title>
<path fill="none" stroke="#404040" d="M50.0668,-457.589C59.0693,-437.385 72.0076,-409.597 85,-386 93.6874,-370.222 103.682,-353.64 113.405,-338.173"/>
<polygon fill="none" stroke="#404040" points="113.643,-337.799 113.481,-330.589 120.074,-327.667 120.235,-334.877 113.643,-337.799"/>
<text text-anchor="middle" x="126.5" y="-354.5" font-family="Helvetica,sans-Serif" font-size="10.00"> +tLock</text>
</g>
<!-- Node4 -->
<g id="node4" class="node"><title>Node4</title>
<g id="a_node4"><a xlink:href="../../d9/d01/classrml_1_1internal_1_1FreeBlock.html" target="_top" xlink:title="{rml::internal::FreeBlock\n|+ myBin\l+ aligned\l+ blockInBin\l|+ rightNeig()\l+ leftNeig()\l+ initHeader()\l+ setMeFree()\l+ trySetMeUsed()\l+ isLastRegionBlock()\l+ setLeftFree()\l+ trySetLeftUsed()\l+ tryLockBlock()\l+ markCoalescing()\l+ markUsed()\l+ markBlocks()\l}">
<polygon fill="white" stroke="red" points="94,-386.5 94,-586.5 220,-586.5 220,-386.5 94,-386.5"/>
<text text-anchor="middle" x="157" y="-574.5" font-family="Helvetica,sans-Serif" font-size="10.00">rml::internal::FreeBlock</text>
<polyline fill="none" stroke="red" points="94,-567.5 220,-567.5 "/>
<text text-anchor="start" x="102" y="-555.5" font-family="Helvetica,sans-Serif" font-size="10.00">+ myBin</text>
<text text-anchor="start" x="102" y="-544.5" font-family="Helvetica,sans-Serif" font-size="10.00">+ aligned</text>
<text text-anchor="start" x="102" y="-533.5" font-family="Helvetica,sans-Serif" font-size="10.00">+ blockInBin</text>
<polyline fill="none" stroke="red" points="94,-526.5 220,-526.5 "/>
<text text-anchor="start" x="102" y="-514.5" font-family="Helvetica,sans-Serif" font-size="10.00">+ rightNeig()</text>
<text text-anchor="start" x="102" y="-503.5" font-family="Helvetica,sans-Serif" font-size="10.00">+ leftNeig()</text>
<text text-anchor="start" x="102" y="-492.5" font-family="Helvetica,sans-Serif" font-size="10.00">+ initHeader()</text>
<text text-anchor="start" x="102" y="-481.5" font-family="Helvetica,sans-Serif" font-size="10.00">+ setMeFree()</text>
<text text-anchor="start" x="102" y="-470.5" font-family="Helvetica,sans-Serif" font-size="10.00">+ trySetMeUsed()</text>
<text text-anchor="start" x="102" y="-459.5" font-family="Helvetica,sans-Serif" font-size="10.00">+ isLastRegionBlock()</text>
<text text-anchor="start" x="102" y="-448.5" font-family="Helvetica,sans-Serif" font-size="10.00">+ setLeftFree()</text>
<text text-anchor="start" x="102" y="-437.5" font-family="Helvetica,sans-Serif" font-size="10.00">+ trySetLeftUsed()</text>
<text text-anchor="start" x="102" y="-426.5" font-family="Helvetica,sans-Serif" font-size="10.00">+ tryLockBlock()</text>
<text text-anchor="start" x="102" y="-415.5" font-family="Helvetica,sans-Serif" font-size="10.00">+ markCoalescing()</text>
<text text-anchor="start" x="102" y="-404.5" font-family="Helvetica,sans-Serif" font-size="10.00">+ markUsed()</text>
<text text-anchor="start" x="102" y="-393.5" font-family="Helvetica,sans-Serif" font-size="10.00">+ markBlocks()</text>
</a>
</g>
</g>
<!-- Node4&#45;&gt;Node2 -->
<g id="edge3" class="edge"><title>Node4&#45;&gt;Node2</title>
<path fill="none" stroke="#404040" d="M157,-386.483C157,-370.696 157,-354.689 157,-339.858"/>
<polygon fill="none" stroke="#404040" points="157,-339.708 153,-333.708 157,-327.708 161,-333.708 157,-339.708"/>
<text text-anchor="middle" x="175" y="-360" font-family="Helvetica,sans-Serif" font-size="10.00"> +head</text>
<text text-anchor="middle" x="175" y="-349" font-family="Helvetica,sans-Serif" font-size="10.00">+tail</text>
</g>
<!-- Node4&#45;&gt;Node4 -->
<g id="edge4" class="edge"><title>Node4&#45;&gt;Node4</title>
<path fill="none" stroke="#404040" d="M220.168,-508.807C230.719,-505.686 238,-498.25 238,-486.5 238,-479.34 235.296,-473.782 230.797,-469.826"/>
<polygon fill="none" stroke="#404040" points="230.771,-469.812 223.597,-470.537 220.168,-464.193 227.343,-463.469 230.771,-469.812"/>
<text text-anchor="middle" x="268" y="-495" font-family="Helvetica,sans-Serif" font-size="10.00"> +prev</text>
<text text-anchor="middle" x="268" y="-484" font-family="Helvetica,sans-Serif" font-size="10.00">+nextToFree</text>
<text text-anchor="middle" x="268" y="-473" font-family="Helvetica,sans-Serif" font-size="10.00">+next</text>
</g>
<!-- Node5 -->
<g id="node5" class="node"><title>Node5</title>
<g id="a_node5"><a xlink:href="../../dd/df2/classrml_1_1internal_1_1BitMaskMin.html" target="_top" xlink:title="{rml::internal::BitMaskMin\l\&lt; Backend::freeBinsNum \&gt;\n||+ set()\l+ getMinTrue()\l}">
<polygon fill="white" stroke="black" points="293.5,-232 293.5,-311 442.5,-311 442.5,-232 293.5,-232"/>
<text text-anchor="start" x="301.5" y="-299" font-family="Helvetica,sans-Serif" font-size="10.00">rml::internal::BitMaskMin</text>
<text text-anchor="middle" x="368" y="-288" font-family="Helvetica,sans-Serif" font-size="10.00">&lt; Backend::freeBinsNum &gt;</text>
<polyline fill="none" stroke="black" points="293.5,-281 442.5,-281 "/>
<text text-anchor="middle" x="368" y="-269" font-family="Helvetica,sans-Serif" font-size="10.00"> </text>
<polyline fill="none" stroke="black" points="293.5,-262 442.5,-262 "/>
<text text-anchor="start" x="301.5" y="-250" font-family="Helvetica,sans-Serif" font-size="10.00">+ set()</text>
<text text-anchor="start" x="301.5" y="-239" font-family="Helvetica,sans-Serif" font-size="10.00">+ getMinTrue()</text>
</a>
</g>
</g>
<!-- Node5&#45;&gt;Node1 -->
<g id="edge5" class="edge"><title>Node5&#45;&gt;Node1</title>
<path fill="none" stroke="#404040" d="M352.068,-231.613C345.73,-216.144 338.139,-197.616 330.52,-179.02"/>
<polygon fill="none" stroke="#404040" points="330.462,-178.878 324.486,-174.842 325.913,-167.774 331.889,-171.809 330.462,-178.878"/>
<text text-anchor="middle" x="359" y="-189" font-family="Helvetica,sans-Serif" font-size="10.00"> &#45;bitMask</text>
</g>
<!-- Node6 -->
<g id="node6" class="node"><title>Node6</title>
<g id="a_node6"><a xlink:href="../../d9/d3a/classrml_1_1internal_1_1BitMaskBasic.html" target="_top" xlink:title="{rml::internal::BitMaskBasic\l\&lt; NUM \&gt;\n|&#45; mask\l&#45; SZ\l&#45; WORD_LEN\l|+ reset()\l# set()\l# getMinTrue()\l}">
<polygon fill="white" stroke="black" points="316.5,-430.5 316.5,-542.5 459.5,-542.5 459.5,-430.5 316.5,-430.5"/>
<text text-anchor="start" x="324.5" y="-530.5" font-family="Helvetica,sans-Serif" font-size="10.00">rml::internal::BitMaskBasic</text>
<text text-anchor="middle" x="388" y="-519.5" font-family="Helvetica,sans-Serif" font-size="10.00">&lt; NUM &gt;</text>
<polyline fill="none" stroke="black" points="316.5,-512.5 459.5,-512.5 "/>
<text text-anchor="start" x="324.5" y="-500.5" font-family="Helvetica,sans-Serif" font-size="10.00">&#45; mask</text>
<text text-anchor="start" x="324.5" y="-489.5" font-family="Helvetica,sans-Serif" font-size="10.00">&#45; SZ</text>
<text text-anchor="start" x="324.5" y="-478.5" font-family="Helvetica,sans-Serif" font-size="10.00">&#45; WORD_LEN</text>
<polyline fill="none" stroke="black" points="316.5,-471.5 459.5,-471.5 "/>
<text text-anchor="start" x="324.5" y="-459.5" font-family="Helvetica,sans-Serif" font-size="10.00">+ reset()</text>
<text text-anchor="start" x="324.5" y="-448.5" font-family="Helvetica,sans-Serif" font-size="10.00"># set()</text>
<text text-anchor="start" x="324.5" y="-437.5" font-family="Helvetica,sans-Serif" font-size="10.00"># getMinTrue()</text>
</a>
</g>
</g>
<!-- Node6&#45;&gt;Node5 -->
<g id="edge6" class="edge"><title>Node6&#45;&gt;Node5</title>
<path fill="none" stroke="midnightblue" d="M381.855,-420.054C378.511,-384.441 374.488,-341.595 371.64,-311.271"/>
<polygon fill="none" stroke="midnightblue" points="378.404,-420.741 382.823,-430.37 385.373,-420.087 378.404,-420.741"/>
</g>
</g>
</svg>
