<?xml version="1.0" encoding="UTF-8" standalone="no"?>
<!DOCTYPE svg PUBLIC "-//W3C//DTD SVG 1.1//EN"
 "http://www.w3.org/Graphics/SVG/1.1/DTD/svg11.dtd">
<!-- Generated by graphviz version 2.38.0 (20140413.2041)
 -->
<!-- Title: rml::internal::CacheBinFunctor&lt; Props &gt; Pages: 1 -->
<svg width="1011pt" height="1036pt"
 viewBox="0.00 0.00 1010.77 1036.00" xmlns="http://www.w3.org/2000/svg" xmlns:xlink="http://www.w3.org/1999/xlink">
<g id="graph0" class="graph" transform="scale(1 1) rotate(0) translate(4 1032)">
<title>rml::internal::CacheBinFunctor&lt; Props &gt;</title>
<polygon fill="white" stroke="none" points="-4,4 -4,-1032 1006.77,-1032 1006.77,4 -4,4"/>
<!-- Node1 -->
<g id="node1" class="node"><title>Node1</title>
<polygon fill="#bfbfbf" stroke="black" points="50.2656,-88.5 50.2656,-244.5 211.266,-244.5 211.266,-88.5 50.2656,-88.5"/>
<text text-anchor="start" x="58.2656" y="-232.5" font-family="Helvetica,sans-Serif" font-size="10.00">rml::internal::CacheBinFunctor</text>
<text text-anchor="middle" x="130.766" y="-221.5" font-family="Helvetica,sans-Serif" font-size="10.00">&lt; Props &gt;</text>
<polyline fill="none" stroke="black" points="50.2656,-214.5 211.266,-214.5 "/>
<text text-anchor="start" x="58.2656" y="-202.5" font-family="Helvetica,sans-Serif" font-size="10.00">&#45; bin</text>
<text text-anchor="start" x="58.2656" y="-191.5" font-family="Helvetica,sans-Serif" font-size="10.00">&#45; bitMask</text>
<text text-anchor="start" x="58.2656" y="-180.5" font-family="Helvetica,sans-Serif" font-size="10.00">&#45; idx</text>
<text text-anchor="start" x="58.2656" y="-169.5" font-family="Helvetica,sans-Serif" font-size="10.00">&#45; needCleanup</text>
<text text-anchor="start" x="58.2656" y="-158.5" font-family="Helvetica,sans-Serif" font-size="10.00">&#45; currTime</text>
<polyline fill="none" stroke="black" points="50.2656,-151.5 211.266,-151.5 "/>
<text text-anchor="start" x="58.2656" y="-139.5" font-family="Helvetica,sans-Serif" font-size="10.00">+ CacheBinFunctor()</text>
<text text-anchor="start" x="58.2656" y="-128.5" font-family="Helvetica,sans-Serif" font-size="10.00">+ operator()()</text>
<text text-anchor="start" x="58.2656" y="-117.5" font-family="Helvetica,sans-Serif" font-size="10.00">+ isCleanupNeeded()</text>
<text text-anchor="start" x="58.2656" y="-106.5" font-family="Helvetica,sans-Serif" font-size="10.00">+ getToRelease()</text>
<text text-anchor="start" x="58.2656" y="-95.5" font-family="Helvetica,sans-Serif" font-size="10.00">+ getCurrTime()</text>
</g>
<!-- Node2 -->
<g id="node2" class="node"><title>Node2</title>
<g id="a_node2"><a xlink:href="../../dd/d62/structrml_1_1internal_1_1ExtMemoryPool.html" target="_top" xlink:title="{rml::internal::ExtMemoryPool\n|+ poolId\l+ rawAlloc\l+ rawFree\l+ keepAllMemory\l+ delayRegsReleasing\l+ fixedPool\l|+ init()\l+ initTLS()\l+ userPool()\l+ softCachesCleanup()\l+ releaseAllLocalCaches()\l+ hardCachesCleanup()\l+ remap()\l+ reset()\l+ destroy()\l+ delayRegionsReleasing()\l+ regionsAreReleaseable()\l+ mallocLargeObject()\l+ freeLargeObject()\l+ freeLargeObjectList()\l+ isPoolValid()\l}">
<polygon fill="white" stroke="black" points="349.266,-380.5 349.266,-646.5 504.266,-646.5 504.266,-380.5 349.266,-380.5"/>
<text text-anchor="middle" x="426.766" y="-634.5" font-family="Helvetica,sans-Serif" font-size="10.00">rml::internal::ExtMemoryPool</text>
<polyline fill="none" stroke="black" points="349.266,-627.5 504.266,-627.5 "/>
<text text-anchor="start" x="357.266" y="-615.5" font-family="Helvetica,sans-Serif" font-size="10.00">+ poolId</text>
<text text-anchor="start" x="357.266" y="-604.5" font-family="Helvetica,sans-Serif" font-size="10.00">+ rawAlloc</text>
<text text-anchor="start" x="357.266" y="-593.5" font-family="Helvetica,sans-Serif" font-size="10.00">+ rawFree</text>
<text text-anchor="start" x="357.266" y="-582.5" font-family="Helvetica,sans-Serif" font-size="10.00">+ keepAllMemory</text>
<text text-anchor="start" x="357.266" y="-571.5" font-family="Helvetica,sans-Serif" font-size="10.00">+ delayRegsReleasing</text>
<text text-anchor="start" x="357.266" y="-560.5" font-family="Helvetica,sans-Serif" font-size="10.00">+ fixedPool</text>
<polyline fill="none" stroke="black" points="349.266,-553.5 504.266,-553.5 "/>
<text text-anchor="start" x="357.266" y="-541.5" font-family="Helvetica,sans-Serif" font-size="10.00">+ init()</text>
<text text-anchor="start" x="357.266" y="-530.5" font-family="Helvetica,sans-Serif" font-size="10.00">+ initTLS()</text>
<text text-anchor="start" x="357.266" y="-519.5" font-family="Helvetica,sans-Serif" font-size="10.00">+ userPool()</text>
<text text-anchor="start" x="357.266" y="-508.5" font-family="Helvetica,sans-Serif" font-size="10.00">+ softCachesCleanup()</text>
<text text-anchor="start" x="357.266" y="-497.5" font-family="Helvetica,sans-Serif" font-size="10.00">+ releaseAllLocalCaches()</text>
<text text-anchor="start" x="357.266" y="-486.5" font-family="Helvetica,sans-Serif" font-size="10.00">+ hardCachesCleanup()</text>
<text text-anchor="start" x="357.266" y="-475.5" font-family="Helvetica,sans-Serif" font-size="10.00">+ remap()</text>
<text text-anchor="start" x="357.266" y="-464.5" font-family="Helvetica,sans-Serif" font-size="10.00">+ reset()</text>
<text text-anchor="start" x="357.266" y="-453.5" font-family="Helvetica,sans-Serif" font-size="10.00">+ destroy()</text>
<text text-anchor="start" x="357.266" y="-442.5" font-family="Helvetica,sans-Serif" font-size="10.00">+ delayRegionsReleasing()</text>
<text text-anchor="start" x="357.266" y="-431.5" font-family="Helvetica,sans-Serif" font-size="10.00">+ regionsAreReleaseable()</text>
<text text-anchor="start" x="357.266" y="-420.5" font-family="Helvetica,sans-Serif" font-size="10.00">+ mallocLargeObject()</text>
<text text-anchor="start" x="357.266" y="-409.5" font-family="Helvetica,sans-Serif" font-size="10.00">+ freeLargeObject()</text>
<text text-anchor="start" x="357.266" y="-398.5" font-family="Helvetica,sans-Serif" font-size="10.00">+ freeLargeObjectList()</text>
<text text-anchor="start" x="357.266" y="-387.5" font-family="Helvetica,sans-Serif" font-size="10.00">+ isPoolValid()</text>
</a>
</g>
</g>
<!-- Node2&#45;&gt;Node1 -->
<g id="edge1" class="edge"><title>Node2&#45;&gt;Node1</title>
<path fill="none" stroke="#404040" d="M349.198,-448.619C320.283,-423.088 288.112,-392.526 261.766,-362 233.318,-329.039 205.778,-289.674 183.35,-255.008"/>
<polygon fill="none" stroke="#404040" points="183.34,-254.992 176.734,-252.1 176.862,-244.89 183.468,-247.782 183.34,-254.992"/>
<text text-anchor="middle" x="295.266" y="-354" font-family="Helvetica,sans-Serif" font-size="10.00"> &#45;extMemPool</text>
</g>
<!-- Node9 -->
<g id="node9" class="node"><title>Node9</title>
<g id="a_node9"><a xlink:href="../../d1/d3a/classrml_1_1internal_1_1Backend.html" target="_top" xlink:title="{rml::internal::Backend\n|+ freeBinsNum\l+ numOfSlabAllocOnMiss\l&#45; bootsrapMemStatus\l|+ scanCoalescQ()\l+ blocksInCoalescing()\l+ verify()\l+ init()\l+ reset()\l+ destroy()\l+ clean()\l+ reportStat()\l+ getSlabBlock()\l+ putSlabBlock()\land 9 more...\l&#45; addNewRegion()\l&#45; findBlockInRegion()\l&#45; startUseBlock()\l&#45; releaseRegion()\l&#45; releaseMemInCaches()\l&#45; requestBootstrapMem()\l&#45; askMemFromOS()\l&#45; genericGetBlock()\l&#45; genericPutBlock()\l&#45; splitUnalignedBlock()\land 9 more...\l&#45; sizeToBin()\l&#45; toAlignedBin()\l}">
<polygon fill="white" stroke="red" points="477.266,-0.5 477.266,-332.5 616.266,-332.5 616.266,-0.5 477.266,-0.5"/>
<text text-anchor="middle" x="546.766" y="-320.5" font-family="Helvetica,sans-Serif" font-size="10.00">rml::internal::Backend</text>
<polyline fill="none" stroke="red" points="477.266,-313.5 616.266,-313.5 "/>
<text text-anchor="start" x="485.266" y="-301.5" font-family="Helvetica,sans-Serif" font-size="10.00">+ freeBinsNum</text>
<text text-anchor="start" x="485.266" y="-290.5" font-family="Helvetica,sans-Serif" font-size="10.00">+ numOfSlabAllocOnMiss</text>
<text text-anchor="start" x="485.266" y="-279.5" font-family="Helvetica,sans-Serif" font-size="10.00">&#45; bootsrapMemStatus</text>
<polyline fill="none" stroke="red" points="477.266,-272.5 616.266,-272.5 "/>
<text text-anchor="start" x="485.266" y="-260.5" font-family="Helvetica,sans-Serif" font-size="10.00">+ scanCoalescQ()</text>
<text text-anchor="start" x="485.266" y="-249.5" font-family="Helvetica,sans-Serif" font-size="10.00">+ blocksInCoalescing()</text>
<text text-anchor="start" x="485.266" y="-238.5" font-family="Helvetica,sans-Serif" font-size="10.00">+ verify()</text>
<text text-anchor="start" x="485.266" y="-227.5" font-family="Helvetica,sans-Serif" font-size="10.00">+ init()</text>
<text text-anchor="start" x="485.266" y="-216.5" font-family="Helvetica,sans-Serif" font-size="10.00">+ reset()</text>
<text text-anchor="start" x="485.266" y="-205.5" font-family="Helvetica,sans-Serif" font-size="10.00">+ destroy()</text>
<text text-anchor="start" x="485.266" y="-194.5" font-family="Helvetica,sans-Serif" font-size="10.00">+ clean()</text>
<text text-anchor="start" x="485.266" y="-183.5" font-family="Helvetica,sans-Serif" font-size="10.00">+ reportStat()</text>
<text text-anchor="start" x="485.266" y="-172.5" font-family="Helvetica,sans-Serif" font-size="10.00">+ getSlabBlock()</text>
<text text-anchor="start" x="485.266" y="-161.5" font-family="Helvetica,sans-Serif" font-size="10.00">+ putSlabBlock()</text>
<text text-anchor="start" x="485.266" y="-150.5" font-family="Helvetica,sans-Serif" font-size="10.00">and 9 more...</text>
<text text-anchor="start" x="485.266" y="-139.5" font-family="Helvetica,sans-Serif" font-size="10.00">&#45; addNewRegion()</text>
<text text-anchor="start" x="485.266" y="-128.5" font-family="Helvetica,sans-Serif" font-size="10.00">&#45; findBlockInRegion()</text>
<text text-anchor="start" x="485.266" y="-117.5" font-family="Helvetica,sans-Serif" font-size="10.00">&#45; startUseBlock()</text>
<text text-anchor="start" x="485.266" y="-106.5" font-family="Helvetica,sans-Serif" font-size="10.00">&#45; releaseRegion()</text>
<text text-anchor="start" x="485.266" y="-95.5" font-family="Helvetica,sans-Serif" font-size="10.00">&#45; releaseMemInCaches()</text>
<text text-anchor="start" x="485.266" y="-84.5" font-family="Helvetica,sans-Serif" font-size="10.00">&#45; requestBootstrapMem()</text>
<text text-anchor="start" x="485.266" y="-73.5" font-family="Helvetica,sans-Serif" font-size="10.00">&#45; askMemFromOS()</text>
<text text-anchor="start" x="485.266" y="-62.5" font-family="Helvetica,sans-Serif" font-size="10.00">&#45; genericGetBlock()</text>
<text text-anchor="start" x="485.266" y="-51.5" font-family="Helvetica,sans-Serif" font-size="10.00">&#45; genericPutBlock()</text>
<text text-anchor="start" x="485.266" y="-40.5" font-family="Helvetica,sans-Serif" font-size="10.00">&#45; splitUnalignedBlock()</text>
<text text-anchor="start" x="485.266" y="-29.5" font-family="Helvetica,sans-Serif" font-size="10.00">and 9 more...</text>
<text text-anchor="start" x="485.266" y="-18.5" font-family="Helvetica,sans-Serif" font-size="10.00">&#45; sizeToBin()</text>
<text text-anchor="start" x="485.266" y="-7.5" font-family="Helvetica,sans-Serif" font-size="10.00">&#45; toAlignedBin()</text>
</a>
</g>
</g>
<!-- Node2&#45;&gt;Node9 -->
<g id="edge10" class="edge"><title>Node2&#45;&gt;Node9</title>
<path fill="none" stroke="#404040" d="M504.304,-406.328C512.265,-391.941 519.389,-376.965 524.766,-362 526.831,-356.251 528.715,-350.35 530.433,-344.347"/>
<polygon fill="none" stroke="#404040" points="530.449,-344.287 528.126,-337.46 533.535,-332.691 535.857,-339.518 530.449,-344.287"/>
<text text-anchor="middle" x="562.266" y="-354" font-family="Helvetica,sans-Serif" font-size="10.00"> &#45;extMemPool</text>
</g>
<!-- Node10 -->
<g id="node10" class="node"><title>Node10</title>
<g id="a_node10"><a xlink:href="../../db/dff/classrml_1_1internal_1_1LargeObjectCache.html" target="_top" xlink:title="{rml::internal::LargeObject\lCache\n|+ largeBlockCacheStep\l+ hugeBlockCacheStep\l&#45; cacheCurrTime\l|+ init()\l+ put()\l+ putList()\l+ get()\l+ updateCacheState()\l+ isCleanupNeededOnRange()\l+ doCleanup()\l+ decreasingCleanup()\l+ regularCleanup()\l+ cleanAll()\l+ reset()\l+ reportStat()\l+ getCurrTime()\l+ getCurrTimeRange()\l+ registerRealloc()\l+ alignToBin()\l&#45; sizeToIdx()\l}">
<polygon fill="white" stroke="red" points="252.266,-33.5 252.266,-299.5 415.266,-299.5 415.266,-33.5 252.266,-33.5"/>
<text text-anchor="start" x="260.266" y="-287.5" font-family="Helvetica,sans-Serif" font-size="10.00">rml::internal::LargeObject</text>
<text text-anchor="middle" x="333.766" y="-276.5" font-family="Helvetica,sans-Serif" font-size="10.00">Cache</text>
<polyline fill="none" stroke="red" points="252.266,-269.5 415.266,-269.5 "/>
<text text-anchor="start" x="260.266" y="-257.5" font-family="Helvetica,sans-Serif" font-size="10.00">+ largeBlockCacheStep</text>
<text text-anchor="start" x="260.266" y="-246.5" font-family="Helvetica,sans-Serif" font-size="10.00">+ hugeBlockCacheStep</text>
<text text-anchor="start" x="260.266" y="-235.5" font-family="Helvetica,sans-Serif" font-size="10.00">&#45; cacheCurrTime</text>
<polyline fill="none" stroke="red" points="252.266,-228.5 415.266,-228.5 "/>
<text text-anchor="start" x="260.266" y="-216.5" font-family="Helvetica,sans-Serif" font-size="10.00">+ init()</text>
<text text-anchor="start" x="260.266" y="-205.5" font-family="Helvetica,sans-Serif" font-size="10.00">+ put()</text>
<text text-anchor="start" x="260.266" y="-194.5" font-family="Helvetica,sans-Serif" font-size="10.00">+ putList()</text>
<text text-anchor="start" x="260.266" y="-183.5" font-family="Helvetica,sans-Serif" font-size="10.00">+ get()</text>
<text text-anchor="start" x="260.266" y="-172.5" font-family="Helvetica,sans-Serif" font-size="10.00">+ updateCacheState()</text>
<text text-anchor="start" x="260.266" y="-161.5" font-family="Helvetica,sans-Serif" font-size="10.00">+ isCleanupNeededOnRange()</text>
<text text-anchor="start" x="260.266" y="-150.5" font-family="Helvetica,sans-Serif" font-size="10.00">+ doCleanup()</text>
<text text-anchor="start" x="260.266" y="-139.5" font-family="Helvetica,sans-Serif" font-size="10.00">+ decreasingCleanup()</text>
<text text-anchor="start" x="260.266" y="-128.5" font-family="Helvetica,sans-Serif" font-size="10.00">+ regularCleanup()</text>
<text text-anchor="start" x="260.266" y="-117.5" font-family="Helvetica,sans-Serif" font-size="10.00">+ cleanAll()</text>
<text text-anchor="start" x="260.266" y="-106.5" font-family="Helvetica,sans-Serif" font-size="10.00">+ reset()</text>
<text text-anchor="start" x="260.266" y="-95.5" font-family="Helvetica,sans-Serif" font-size="10.00">+ reportStat()</text>
<text text-anchor="start" x="260.266" y="-84.5" font-family="Helvetica,sans-Serif" font-size="10.00">+ getCurrTime()</text>
<text text-anchor="start" x="260.266" y="-73.5" font-family="Helvetica,sans-Serif" font-size="10.00">+ getCurrTimeRange()</text>
<text text-anchor="start" x="260.266" y="-62.5" font-family="Helvetica,sans-Serif" font-size="10.00">+ registerRealloc()</text>
<text text-anchor="start" x="260.266" y="-51.5" font-family="Helvetica,sans-Serif" font-size="10.00">+ alignToBin()</text>
<text text-anchor="start" x="260.266" y="-40.5" font-family="Helvetica,sans-Serif" font-size="10.00">&#45; sizeToIdx()</text>
</a>
</g>
</g>
<!-- Node2&#45;&gt;Node10 -->
<g id="edge14" class="edge"><title>Node2&#45;&gt;Node10</title>
<path fill="none" stroke="#404040" d="M387.852,-380.44C386.113,-374.212 384.409,-368.042 382.766,-362 378.309,-345.619 373.773,-328.424 369.35,-311.319"/>
<polygon fill="none" stroke="#404040" points="369.299,-311.123 363.93,-306.31 366.308,-299.502 371.677,-304.315 369.299,-311.123"/>
<text text-anchor="middle" x="416.266" y="-354" font-family="Helvetica,sans-Serif" font-size="10.00"> &#45;extMemPool</text>
</g>
<!-- Node3 -->
<g id="node3" class="node"><title>Node3</title>
<g id="a_node3"><a xlink:href="../../dd/d23/classrml_1_1internal_1_1AllLocalCaches.html" target="_top" xlink:title="{rml::internal::AllLocalCaches\n||+ registerThread()\l+ unregisterThread()\l+ cleanup()\l+ markUnused()\l+ reset()\l}">
<polygon fill="white" stroke="red" points="285.766,-694.5 285.766,-795.5 437.766,-795.5 437.766,-694.5 285.766,-694.5"/>
<text text-anchor="middle" x="361.766" y="-783.5" font-family="Helvetica,sans-Serif" font-size="10.00">rml::internal::AllLocalCaches</text>
<polyline fill="none" stroke="red" points="285.766,-776.5 437.766,-776.5 "/>
<text text-anchor="middle" x="361.766" y="-764.5" font-family="Helvetica,sans-Serif" font-size="10.00"> </text>
<polyline fill="none" stroke="red" points="285.766,-757.5 437.766,-757.5 "/>
<text text-anchor="start" x="293.766" y="-745.5" font-family="Helvetica,sans-Serif" font-size="10.00">+ registerThread()</text>
<text text-anchor="start" x="293.766" y="-734.5" font-family="Helvetica,sans-Serif" font-size="10.00">+ unregisterThread()</text>
<text text-anchor="start" x="293.766" y="-723.5" font-family="Helvetica,sans-Serif" font-size="10.00">+ cleanup()</text>
<text text-anchor="start" x="293.766" y="-712.5" font-family="Helvetica,sans-Serif" font-size="10.00">+ markUnused()</text>
<text text-anchor="start" x="293.766" y="-701.5" font-family="Helvetica,sans-Serif" font-size="10.00">+ reset()</text>
</a>
</g>
</g>
<!-- Node3&#45;&gt;Node2 -->
<g id="edge2" class="edge"><title>Node3&#45;&gt;Node2</title>
<path fill="none" stroke="#404040" d="M375.79,-694.484C378.904,-683.488 382.358,-671.294 385.957,-658.586"/>
<polygon fill="none" stroke="#404040" points="386.028,-658.336 383.814,-651.473 389.298,-646.79 391.511,-653.653 386.028,-658.336"/>
<text text-anchor="middle" x="424.766" y="-668" font-family="Helvetica,sans-Serif" font-size="10.00"> +allLocalCaches</text>
</g>
<!-- Node4 -->
<g id="node4" class="node"><title>Node4</title>
<g id="a_node4"><a xlink:href="../../d4/df7/classrml_1_1internal_1_1OrphanedBlocks.html" target="_top" xlink:title="{rml::internal::OrphanedBlocks\n||+ get()\l+ put()\l+ reset()\l+ cleanup()\l}">
<polygon fill="white" stroke="red" points="639.766,-700 639.766,-790 797.766,-790 797.766,-700 639.766,-700"/>
<text text-anchor="middle" x="718.766" y="-778" font-family="Helvetica,sans-Serif" font-size="10.00">rml::internal::OrphanedBlocks</text>
<polyline fill="none" stroke="red" points="639.766,-771 797.766,-771 "/>
<text text-anchor="middle" x="718.766" y="-759" font-family="Helvetica,sans-Serif" font-size="10.00"> </text>
<polyline fill="none" stroke="red" points="639.766,-752 797.766,-752 "/>
<text text-anchor="start" x="647.766" y="-740" font-family="Helvetica,sans-Serif" font-size="10.00">+ get()</text>
<text text-anchor="start" x="647.766" y="-729" font-family="Helvetica,sans-Serif" font-size="10.00">+ put()</text>
<text text-anchor="start" x="647.766" y="-718" font-family="Helvetica,sans-Serif" font-size="10.00">+ reset()</text>
<text text-anchor="start" x="647.766" y="-707" font-family="Helvetica,sans-Serif" font-size="10.00">+ cleanup()</text>
</a>
</g>
</g>
<!-- Node4&#45;&gt;Node2 -->
<g id="edge3" class="edge"><title>Node4&#45;&gt;Node2</title>
<path fill="none" stroke="#404040" d="M662.465,-699.75C620.36,-666.657 562.005,-620.793 513.895,-582.98"/>
<polygon fill="none" stroke="#404040" points="513.852,-582.946 506.663,-582.383 504.417,-575.531 511.606,-576.094 513.852,-582.946"/>
<text text-anchor="middle" x="667.766" y="-668" font-family="Helvetica,sans-Serif" font-size="10.00"> +orphanedBlocks</text>
</g>
<!-- Node5 -->
<g id="node5" class="node"><title>Node5</title>
<g id="a_node5"><a xlink:href="../../db/d9c/classrml_1_1internal_1_1AllLargeBlocksList.html" target="_top" xlink:title="{rml::internal::AllLargeBlocksList\n||+ add()\l+ remove()\l+ releaseAll()\l}">
<polygon fill="white" stroke="red" points="455.766,-705.5 455.766,-784.5 621.766,-784.5 621.766,-705.5 455.766,-705.5"/>
<text text-anchor="middle" x="538.766" y="-772.5" font-family="Helvetica,sans-Serif" font-size="10.00">rml::internal::AllLargeBlocksList</text>
<polyline fill="none" stroke="red" points="455.766,-765.5 621.766,-765.5 "/>
<text text-anchor="middle" x="538.766" y="-753.5" font-family="Helvetica,sans-Serif" font-size="10.00"> </text>
<polyline fill="none" stroke="red" points="455.766,-746.5 621.766,-746.5 "/>
<text text-anchor="start" x="463.766" y="-734.5" font-family="Helvetica,sans-Serif" font-size="10.00">+ add()</text>
<text text-anchor="start" x="463.766" y="-723.5" font-family="Helvetica,sans-Serif" font-size="10.00">+ remove()</text>
<text text-anchor="start" x="463.766" y="-712.5" font-family="Helvetica,sans-Serif" font-size="10.00">+ releaseAll()</text>
</a>
</g>
</g>
<!-- Node5&#45;&gt;Node2 -->
<g id="edge4" class="edge"><title>Node5&#45;&gt;Node2</title>
<path fill="none" stroke="#404040" d="M519.893,-705.328C513.181,-691.575 505.175,-675.169 496.715,-657.834"/>
<polygon fill="none" stroke="#404040" points="496.659,-657.719 490.433,-654.082 491.396,-646.935 497.623,-650.573 496.659,-657.719"/>
<text text-anchor="middle" x="525.766" y="-668" font-family="Helvetica,sans-Serif" font-size="10.00"> +lmbList</text>
</g>
<!-- Node6 -->
<g id="node6" class="node"><title>Node6</title>
<g id="a_node6"><a xlink:href="../../dd/def/structrml_1_1internal_1_1LargeMemoryBlock.html" target="_top" xlink:title="{rml::internal::LargeMemory\lBlock\n|+ age\l|}">
<polygon fill="white" stroke="red" points="465.766,-843.5 465.766,-911.5 611.766,-911.5 611.766,-843.5 465.766,-843.5"/>
<text text-anchor="start" x="473.766" y="-899.5" font-family="Helvetica,sans-Serif" font-size="10.00">rml::internal::LargeMemory</text>
<text text-anchor="middle" x="538.766" y="-888.5" font-family="Helvetica,sans-Serif" font-size="10.00">Block</text>
<polyline fill="none" stroke="red" points="465.766,-881.5 611.766,-881.5 "/>
<text text-anchor="start" x="473.766" y="-869.5" font-family="Helvetica,sans-Serif" font-size="10.00">+ age</text>
<polyline fill="none" stroke="red" points="465.766,-862.5 611.766,-862.5 "/>
<text text-anchor="middle" x="538.766" y="-850.5" font-family="Helvetica,sans-Serif" font-size="10.00"> </text>
</a>
</g>
</g>
<!-- Node6&#45;&gt;Node1 -->
<g id="edge16" class="edge"><title>Node6&#45;&gt;Node1</title>
<path fill="none" stroke="#404040" d="M465.52,-873.015C358.855,-866.232 168.868,-847.125 126.766,-796 61.0859,-716.245 94.7659,-410.567 116.747,-256.853"/>
<polygon fill="none" stroke="#404040" points="116.786,-256.583 113.686,-250.072 118.504,-244.707 121.604,-251.218 116.786,-256.583"/>
<text text-anchor="middle" x="118.766" y="-668" font-family="Helvetica,sans-Serif" font-size="10.00"> &#45;toRelease</text>
</g>
<!-- Node6&#45;&gt;Node5 -->
<g id="edge5" class="edge"><title>Node6&#45;&gt;Node5</title>
<path fill="none" stroke="#404040" d="M538.766,-843.232C538.766,-829.169 538.766,-812.474 538.766,-796.921"/>
<polygon fill="none" stroke="#404040" points="538.766,-796.765 534.766,-790.765 538.766,-784.765 542.766,-790.765 538.766,-796.765"/>
<text text-anchor="middle" x="559.266" y="-817" font-family="Helvetica,sans-Serif" font-size="10.00"> &#45;loHead</text>
</g>
<!-- Node6&#45;&gt;Node6 -->
<g id="edge7" class="edge"><title>Node6&#45;&gt;Node6</title>
<path fill="none" stroke="#404040" d="M611.956,-887.313C622.597,-885.755 629.766,-882.484 629.766,-877.5 629.766,-874.696 627.497,-872.435 623.619,-870.715"/>
<polygon fill="none" stroke="#404040" points="623.571,-870.703 616.758,-873.067 611.956,-867.687 618.769,-865.323 623.571,-870.703"/>
<text text-anchor="middle" x="649.266" y="-891.5" font-family="Helvetica,sans-Serif" font-size="10.00"> +gPrev</text>
<text text-anchor="middle" x="649.266" y="-880.5" font-family="Helvetica,sans-Serif" font-size="10.00">+gNext</text>
<text text-anchor="middle" x="649.266" y="-869.5" font-family="Helvetica,sans-Serif" font-size="10.00">+prev</text>
<text text-anchor="middle" x="649.266" y="-858.5" font-family="Helvetica,sans-Serif" font-size="10.00">+next</text>
</g>
<!-- Node7 -->
<g id="node7" class="node"><title>Node7</title>
<polygon fill="white" stroke="#bfbfbf" points="707.766,-970.5 707.766,-1027.5 751.766,-1027.5 751.766,-970.5 707.766,-970.5"/>
<text text-anchor="middle" x="729.766" y="-1015.5" font-family="Helvetica,sans-Serif" font-size="10.00">size_t</text>
<polyline fill="none" stroke="#bfbfbf" points="707.766,-1008.5 751.766,-1008.5 "/>
<text text-anchor="middle" x="729.766" y="-996.5" font-family="Helvetica,sans-Serif" font-size="10.00"> </text>
<polyline fill="none" stroke="#bfbfbf" points="707.766,-989.5 751.766,-989.5 "/>
<text text-anchor="middle" x="729.766" y="-977.5" font-family="Helvetica,sans-Serif" font-size="10.00"> </text>
</g>
<!-- Node7&#45;&gt;Node2 -->
<g id="edge12" class="edge"><title>Node7&#45;&gt;Node2</title>
<path fill="none" stroke="#404040" d="M750.179,-970.154C788.785,-913.788 863.732,-783.911 806.766,-694 743.327,-593.874 607.374,-548.54 516.489,-528.779"/>
<polygon fill="none" stroke="#404040" points="516.275,-528.734 509.581,-531.416 504.53,-526.269 511.224,-523.587 516.275,-528.734"/>
<text text-anchor="middle" x="853.266" y="-817" font-family="Helvetica,sans-Serif" font-size="10.00"> +granularity</text>
</g>
<!-- Node7&#45;&gt;Node6 -->
<g id="edge6" class="edge"><title>Node7&#45;&gt;Node6</title>
<path fill="none" stroke="#404040" d="M707.482,-984.058C681.777,-967.975 638.385,-940.828 602.045,-918.091"/>
<polygon fill="none" stroke="#404040" points="601.686,-917.867 594.478,-918.075 591.513,-911.502 598.721,-911.293 601.686,-917.867"/>
<text text-anchor="middle" x="690.266" y="-944" font-family="Helvetica,sans-Serif" font-size="10.00"> +unalignedSize</text>
<text text-anchor="middle" x="690.266" y="-933" font-family="Helvetica,sans-Serif" font-size="10.00">+objectSize</text>
</g>
<!-- Node7&#45;&gt;Node9 -->
<g id="edge11" class="edge"><title>Node7&#45;&gt;Node9</title>
<path fill="none" stroke="#404040" d="M751.803,-993.711C798.624,-983.185 903.766,-951.426 903.766,-878.5 903.766,-878.5 903.766,-878.5 903.766,-512.5 903.766,-359.745 732.664,-253.144 627.368,-202.004"/>
<polygon fill="none" stroke="#404040" points="627.273,-201.958 620.134,-202.98 616.446,-196.783 623.585,-195.762 627.273,-201.958"/>
<text text-anchor="middle" x="953.266" y="-753.5" font-family="Helvetica,sans-Serif" font-size="10.00"> &#45;maxRequestedSize</text>
<text text-anchor="middle" x="953.266" y="-742.5" font-family="Helvetica,sans-Serif" font-size="10.00">&#45;memSoftLimit</text>
<text text-anchor="middle" x="953.266" y="-731.5" font-family="Helvetica,sans-Serif" font-size="10.00">&#45;totalMemSize</text>
</g>
<!-- Node7&#45;&gt;Node10 -->
<g id="edge15" class="edge"><title>Node7&#45;&gt;Node10</title>
<path fill="none" stroke="#404040" d="M707.75,-995.3C597.146,-981.247 103.967,-912.616 15.7656,-796 -11.5808,-759.844 3.60066,-737.671 15.7656,-694 38.9048,-610.933 159.409,-423.132 245.222,-295.803"/>
<polygon fill="none" stroke="#404040" points="245.399,-295.54 245.442,-288.329 252.114,-285.595 252.072,-292.806 245.399,-295.54"/>
<text text-anchor="middle" x="52.7656" y="-753.5" font-family="Helvetica,sans-Serif" font-size="10.00"> &#45;maxHugeSize</text>
<text text-anchor="middle" x="52.7656" y="-742.5" font-family="Helvetica,sans-Serif" font-size="10.00">&#45;maxLargeSize</text>
<text text-anchor="middle" x="52.7656" y="-731.5" font-family="Helvetica,sans-Serif" font-size="10.00">&#45;minLargeSize</text>
</g>
<!-- Node8 -->
<g id="node8" class="node"><title>Node8</title>
<g id="a_node8"><a xlink:href="../../d7/dcd/classrml_1_1internal_1_1TLSKey.html" target="_top" xlink:title="{rml::internal::TLSKey\n|&#45; TLS_pointer_key\l|+ init()\l+ destroy()\l+ getThreadMallocTLS()\l+ setThreadMallocTLS()\l+ createTLS()\l}">
<polygon fill="white" stroke="black" points="136.266,-694.5 136.266,-795.5 267.266,-795.5 267.266,-694.5 136.266,-694.5"/>
<text text-anchor="middle" x="201.766" y="-783.5" font-family="Helvetica,sans-Serif" font-size="10.00">rml::internal::TLSKey</text>
<polyline fill="none" stroke="black" points="136.266,-776.5 267.266,-776.5 "/>
<text text-anchor="start" x="144.266" y="-764.5" font-family="Helvetica,sans-Serif" font-size="10.00">&#45; TLS_pointer_key</text>
<polyline fill="none" stroke="black" points="136.266,-757.5 267.266,-757.5 "/>
<text text-anchor="start" x="144.266" y="-745.5" font-family="Helvetica,sans-Serif" font-size="10.00">+ init()</text>
<text text-anchor="start" x="144.266" y="-734.5" font-family="Helvetica,sans-Serif" font-size="10.00">+ destroy()</text>
<text text-anchor="start" x="144.266" y="-723.5" font-family="Helvetica,sans-Serif" font-size="10.00">+ getThreadMallocTLS()</text>
<text text-anchor="start" x="144.266" y="-712.5" font-family="Helvetica,sans-Serif" font-size="10.00">+ setThreadMallocTLS()</text>
<text text-anchor="start" x="144.266" y="-701.5" font-family="Helvetica,sans-Serif" font-size="10.00">+ createTLS()</text>
</a>
</g>
</g>
<!-- Node8&#45;&gt;Node2 -->
<g id="edge8" class="edge"><title>Node8&#45;&gt;Node2</title>
<path fill="none" stroke="#404040" d="M250.31,-694.484C276.643,-667.625 309.977,-633.625 340.563,-602.427"/>
<polygon fill="none" stroke="#404040" points="340.708,-602.279 342.052,-595.194 349.109,-593.71 347.765,-600.795 340.708,-602.279"/>
<text text-anchor="middle" x="311.266" y="-668" font-family="Helvetica,sans-Serif" font-size="10.00"> +tlsPointerKey</text>
</g>
<!-- Node9&#45;&gt;Node2 -->
<g id="edge9" class="edge"><title>Node9&#45;&gt;Node2</title>
<path fill="none" stroke="#404040" d="M479.192,-332.742C476.977,-338.888 474.827,-344.989 472.766,-351 470.777,-356.798 468.805,-362.732 466.86,-368.742"/>
<polygon fill="none" stroke="#404040" points="466.797,-368.942 468.788,-375.872 463.156,-380.376 461.165,-373.445 466.797,-368.942"/>
<text text-anchor="middle" x="498.766" y="-354" font-family="Helvetica,sans-Serif" font-size="10.00"> +backend</text>
</g>
<!-- Node10&#45;&gt;Node2 -->
<g id="edge13" class="edge"><title>Node10&#45;&gt;Node2</title>
<path fill="none" stroke="#404040" d="M324.82,-299.644C326.13,-320.772 329.134,-342.186 334.766,-362 337.297,-370.906 340.513,-379.808 344.218,-388.582"/>
<polygon fill="none" stroke="#404040" points="344.255,-388.665 350.357,-392.508 349.157,-399.618 343.055,-395.775 344.255,-388.665"/>
<text text-anchor="middle" x="347.266" y="-354" font-family="Helvetica,sans-Serif" font-size="10.00"> +loc</text>
</g>
</g>
</svg>
