<?xml version="1.0" encoding="UTF-8" standalone="no"?>
<!DOCTYPE svg PUBLIC "-//W3C//DTD SVG 1.1//EN"
 "http://www.w3.org/Graphics/SVG/1.1/DTD/svg11.dtd">
<!-- Generated by graphviz version 2.38.0 (20140413.2041)
 -->
<!-- Title: RoundRobin Pages: 1 -->
<svg width="130pt" height="226pt"
 viewBox="0.00 0.00 130.00 226.00" xmlns="http://www.w3.org/2000/svg" xmlns:xlink="http://www.w3.org/1999/xlink">
<g id="graph0" class="graph" transform="scale(1 1) rotate(0) translate(4 222)">
<title>RoundRobin</title>
<polygon fill="white" stroke="none" points="-4,4 -4,-222 126,-222 126,4 -4,4"/>
<!-- Node1 -->
<g id="node1" class="node"><title>Node1</title>
<polygon fill="#bfbfbf" stroke="black" points="0,-0.5 0,-112.5 122,-112.5 122,-0.5 0,-0.5"/>
<text text-anchor="middle" x="61" y="-100.5" font-family="Helvetica,sans-Serif" font-size="10.00">RoundRobin</text>
<polyline fill="none" stroke="black" points="0,-93.5 122,-93.5 "/>
<text text-anchor="start" x="8" y="-81.5" font-family="Helvetica,sans-Serif" font-size="10.00">+ number_of_threads</text>
<text text-anchor="start" x="8" y="-70.5" font-family="Helvetica,sans-Serif" font-size="10.00">+ test</text>
<text text-anchor="start" x="8" y="-59.5" font-family="Helvetica,sans-Serif" font-size="10.00">+ number_of_threads</text>
<polyline fill="none" stroke="black" points="0,-52.5 122,-52.5 "/>
<text text-anchor="start" x="8" y="-40.5" font-family="Helvetica,sans-Serif" font-size="10.00">+ RoundRobin()</text>
<text text-anchor="start" x="8" y="-29.5" font-family="Helvetica,sans-Serif" font-size="10.00">+ operator()()</text>
<text text-anchor="start" x="8" y="-18.5" font-family="Helvetica,sans-Serif" font-size="10.00">+ RoundRobin()</text>
<text text-anchor="start" x="8" y="-7.5" font-family="Helvetica,sans-Serif" font-size="10.00">+ operator()()</text>
</g>
<!-- Node2 -->
<g id="node2" class="node"><title>Node2</title>
<g id="a_node2"><a xlink:href="../../d8/dab/classNoAssign.html" target="_top" xlink:title="Base class for prohibiting compiler&#45;generated operator=. ">
<polygon fill="white" stroke="black" points="21,-149.5 21,-217.5 101,-217.5 101,-149.5 21,-149.5"/>
<text text-anchor="middle" x="61" y="-205.5" font-family="Helvetica,sans-Serif" font-size="10.00">NoAssign</text>
<polyline fill="none" stroke="black" points="21,-198.5 101,-198.5 "/>
<text text-anchor="middle" x="61" y="-186.5" font-family="Helvetica,sans-Serif" font-size="10.00"> </text>
<polyline fill="none" stroke="black" points="21,-179.5 101,-179.5 "/>
<text text-anchor="start" x="29" y="-167.5" font-family="Helvetica,sans-Serif" font-size="10.00">+ NoAssign()</text>
<text text-anchor="start" x="29" y="-156.5" font-family="Helvetica,sans-Serif" font-size="10.00">&#45; operator=()</text>
</a>
</g>
</g>
<!-- Node2&#45;&gt;Node1 -->
<g id="edge1" class="edge"><title>Node2&#45;&gt;Node1</title>
<path fill="none" stroke="midnightblue" d="M54.5409,-139.182C54.2729,-130.604 54.1901,-121.493 54.2924,-112.585"/>
<polygon fill="none" stroke="midnightblue" points="51.0502,-139.483 54.9595,-149.33 58.0443,-139.195 51.0502,-139.483"/>
</g>
<!-- Node2&#45;&gt;Node1 -->
<g id="edge2" class="edge"><title>Node2&#45;&gt;Node1</title>
<path fill="none" stroke="midnightblue" d="M67.4591,-139.182C67.7271,-130.604 67.8099,-121.493 67.7076,-112.585"/>
<polygon fill="none" stroke="midnightblue" points="63.9557,-139.195 67.0405,-149.33 70.9498,-139.483 63.9557,-139.195"/>
</g>
</g>
</svg>
