<?xml version="1.0" encoding="UTF-8" standalone="no"?>
<!DOCTYPE svg PUBLIC "-//W3C//DTD SVG 1.1//EN"
 "http://www.w3.org/Graphics/SVG/1.1/DTD/svg11.dtd">
<!-- Generated by graphviz version 2.38.0 (20140413.2041)
 -->
<!-- Title: tbb::null_mutex Pages: 1 -->
<svg width="143pt" height="193pt"
 viewBox="0.00 0.00 143.00 193.00" xmlns="http://www.w3.org/2000/svg" xmlns:xlink="http://www.w3.org/1999/xlink">
<g id="graph0" class="graph" transform="scale(1 1) rotate(0) translate(4 189)">
<title>tbb::null_mutex</title>
<polygon fill="white" stroke="none" points="-4,4 -4,-189 139,-189 139,4 -4,4"/>
<!-- Node1 -->
<g id="node1" class="node"><title>Node1</title>
<polygon fill="#bfbfbf" stroke="black" points="7.5,-0.5 7.5,-79.5 127.5,-79.5 127.5,-0.5 7.5,-0.5"/>
<text text-anchor="middle" x="67.5" y="-67.5" font-family="Helvetica,sans-Serif" font-size="10.00">tbb::null_mutex</text>
<polyline fill="none" stroke="black" points="7.5,-60.5 127.5,-60.5 "/>
<text text-anchor="start" x="15.5" y="-48.5" font-family="Helvetica,sans-Serif" font-size="10.00">+ is_rw_mutex</text>
<text text-anchor="start" x="15.5" y="-37.5" font-family="Helvetica,sans-Serif" font-size="10.00">+ is_recursive_mutex</text>
<text text-anchor="start" x="15.5" y="-26.5" font-family="Helvetica,sans-Serif" font-size="10.00">+ is_fair_mutex</text>
<polyline fill="none" stroke="black" points="7.5,-19.5 127.5,-19.5 "/>
<text text-anchor="start" x="15.5" y="-7.5" font-family="Helvetica,sans-Serif" font-size="10.00">+ null_mutex()</text>
</g>
<!-- Node2 -->
<g id="node2" class="node"><title>Node2</title>
<polygon fill="white" stroke="#bfbfbf" points="0,-116.5 0,-184.5 135,-184.5 135,-116.5 0,-116.5"/>
<text text-anchor="start" x="8" y="-172.5" font-family="Helvetica,sans-Serif" font-size="10.00">mutex_copy_deprecated</text>
<text text-anchor="middle" x="67.5" y="-161.5" font-family="Helvetica,sans-Serif" font-size="10.00">_and_disabled</text>
<polyline fill="none" stroke="#bfbfbf" points="0,-154.5 135,-154.5 "/>
<text text-anchor="middle" x="67.5" y="-142.5" font-family="Helvetica,sans-Serif" font-size="10.00"> </text>
<polyline fill="none" stroke="#bfbfbf" points="0,-135.5 135,-135.5 "/>
<text text-anchor="middle" x="67.5" y="-123.5" font-family="Helvetica,sans-Serif" font-size="10.00"> </text>
</g>
<!-- Node2&#45;&gt;Node1 -->
<g id="edge1" class="edge"><title>Node2&#45;&gt;Node1</title>
<path fill="none" stroke="#8b1a1a" d="M67.5,-106.274C67.5,-97.4764 67.5,-88.2753 67.5,-79.6493"/>
<polygon fill="none" stroke="#8b1a1a" points="64.0001,-106.357 67.5,-116.357 71.0001,-106.357 64.0001,-106.357"/>
</g>
</g>
</svg>
