<?xml version="1.0" encoding="UTF-8" standalone="no"?>
<!DOCTYPE svg PUBLIC "-//W3C//DTD SVG 1.1//EN"
 "http://www.w3.org/Graphics/SVG/1.1/DTD/svg11.dtd">
<!-- Generated by graphviz version 2.38.0 (20140413.2041)
 -->
<!-- Title: MyTeam Pages: 1 -->
<svg width="313pt" height="331pt"
 viewBox="0.00 0.00 312.50 331.00" xmlns="http://www.w3.org/2000/svg" xmlns:xlink="http://www.w3.org/1999/xlink">
<g id="graph0" class="graph" transform="scale(1 1) rotate(0) translate(4 327)">
<title>MyTeam</title>
<polygon fill="white" stroke="none" points="-4,4 -4,-327 308.5,-327 308.5,4 -4,4"/>
<!-- Node1 -->
<g id="node1" class="node"><title>Node1</title>
<polygon fill="#bfbfbf" stroke="black" points="141,-0.5 141,-79.5 224,-79.5 224,-0.5 141,-0.5"/>
<text text-anchor="middle" x="182.5" y="-67.5" font-family="Helvetica,sans-Serif" font-size="10.00">MyTeam</text>
<polyline fill="none" stroke="black" points="141,-60.5 224,-60.5 "/>
<text text-anchor="start" x="149" y="-48.5" font-family="Helvetica,sans-Serif" font-size="10.00">+ iteration</text>
<polyline fill="none" stroke="black" points="141,-41.5 224,-41.5 "/>
<text text-anchor="start" x="149" y="-29.5" font-family="Helvetica,sans-Serif" font-size="10.00">+ MyTeam()</text>
<text text-anchor="start" x="149" y="-18.5" font-family="Helvetica,sans-Serif" font-size="10.00">+ ~MyTeam()</text>
<text text-anchor="start" x="149" y="-7.5" font-family="Helvetica,sans-Serif" font-size="10.00">&#45; operator=()</text>
</g>
<!-- Node1&#45;&gt;Node1 -->
<g id="edge3" class="edge"><title>Node1&#45;&gt;Node1</title>
<path fill="none" stroke="#404040" d="M224.205,-52.5508C234.408,-51.6211 242,-47.4375 242,-40 242,-35.9326 239.729,-32.8384 236.003,-30.7173"/>
<polygon fill="none" stroke="#404040" points="235.77,-30.6528 228.92,-32.9058 224.205,-27.4492 231.055,-25.1962 235.77,-30.6528"/>
<text text-anchor="middle" x="265.5" y="-37.5" font-family="Helvetica,sans-Serif" font-size="10.00"> +self_ptr</text>
</g>
<!-- Node2 -->
<g id="node2" class="node"><title>Node2</title>
<g id="a_node2"><a xlink:href="../../d4/d32/structtbb_1_1atomic.html" target="_top" xlink:title="{tbb::atomic\&lt; int \&gt;\n||+ operator=()\l+ operator=()\l}">
<polygon fill="white" stroke="black" points="5.5,-138.5 5.5,-206.5 111.5,-206.5 111.5,-138.5 5.5,-138.5"/>
<text text-anchor="middle" x="58.5" y="-194.5" font-family="Helvetica,sans-Serif" font-size="10.00">tbb::atomic&lt; int &gt;</text>
<polyline fill="none" stroke="black" points="5.5,-187.5 111.5,-187.5 "/>
<text text-anchor="middle" x="58.5" y="-175.5" font-family="Helvetica,sans-Serif" font-size="10.00"> </text>
<polyline fill="none" stroke="black" points="5.5,-168.5 111.5,-168.5 "/>
<text text-anchor="start" x="13.5" y="-156.5" font-family="Helvetica,sans-Serif" font-size="10.00">+ operator=()</text>
<text text-anchor="start" x="13.5" y="-145.5" font-family="Helvetica,sans-Serif" font-size="10.00">+ operator=()</text>
</a>
</g>
</g>
<!-- Node2&#45;&gt;Node1 -->
<g id="edge1" class="edge"><title>Node2&#45;&gt;Node1</title>
<path fill="none" stroke="#404040" d="M90.1113,-138.232C104.399,-123.195 121.548,-105.147 137.171,-88.7051"/>
<polygon fill="none" stroke="#404040" points="137.4,-88.4643 138.633,-81.3594 145.666,-79.7651 144.432,-86.87 137.4,-88.4643"/>
<text text-anchor="middle" x="150" y="-106.5" font-family="Helvetica,sans-Serif" font-size="10.00"> +barrier</text>
</g>
<!-- Node3 -->
<g id="node3" class="node"><title>Node3</title>
<polygon fill="white" stroke="#bfbfbf" points="0,-254.5 0,-322.5 117,-322.5 117,-254.5 0,-254.5"/>
<text text-anchor="start" x="8" y="-310.5" font-family="Helvetica,sans-Serif" font-size="10.00">internal::atomic_impl</text>
<text text-anchor="middle" x="58.5" y="-299.5" font-family="Helvetica,sans-Serif" font-size="10.00">&lt; int &gt;</text>
<polyline fill="none" stroke="#bfbfbf" points="0,-292.5 117,-292.5 "/>
<text text-anchor="middle" x="58.5" y="-280.5" font-family="Helvetica,sans-Serif" font-size="10.00"> </text>
<polyline fill="none" stroke="#bfbfbf" points="0,-273.5 117,-273.5 "/>
<text text-anchor="middle" x="58.5" y="-261.5" font-family="Helvetica,sans-Serif" font-size="10.00"> </text>
</g>
<!-- Node3&#45;&gt;Node2 -->
<g id="edge2" class="edge"><title>Node3&#45;&gt;Node2</title>
<path fill="none" stroke="midnightblue" d="M58.5,-244.06C58.5,-231.644 58.5,-218.316 58.5,-206.624"/>
<polygon fill="none" stroke="midnightblue" points="55.0001,-244.22 58.5,-254.22 62.0001,-244.22 55.0001,-244.22"/>
</g>
<!-- Node4 -->
<g id="node4" class="node"><title>Node4</title>
<g id="a_node4"><a xlink:href="../../d7/d20/structMyTeam_1_1info__type.html" target="_top" xlink:title="{MyTeam::info_type\n|+ ran\l|+ info_type()\l}">
<polygon fill="white" stroke="black" points="130,-144 130,-201 235,-201 235,-144 130,-144"/>
<text text-anchor="middle" x="182.5" y="-189" font-family="Helvetica,sans-Serif" font-size="10.00">MyTeam::info_type</text>
<polyline fill="none" stroke="black" points="130,-182 235,-182 "/>
<text text-anchor="start" x="138" y="-170" font-family="Helvetica,sans-Serif" font-size="10.00">+ ran</text>
<polyline fill="none" stroke="black" points="130,-163 235,-163 "/>
<text text-anchor="start" x="138" y="-151" font-family="Helvetica,sans-Serif" font-size="10.00">+ info_type()</text>
</a>
</g>
</g>
<!-- Node4&#45;&gt;Node1 -->
<g id="edge4" class="edge"><title>Node4&#45;&gt;Node1</title>
<path fill="none" stroke="#404040" d="M182.5,-143.824C182.5,-128.7 182.5,-109.49 182.5,-91.7777"/>
<polygon fill="none" stroke="#404040" points="182.5,-91.5255 178.5,-85.5255 182.5,-79.5255 186.5,-85.5255 182.5,-91.5255"/>
<text text-anchor="middle" x="197" y="-106.5" font-family="Helvetica,sans-Serif" font-size="10.00"> +info</text>
</g>
<!-- Node5 -->
<g id="node5" class="node"><title>Node5</title>
<g id="a_node5"><a xlink:href="../../d3/db2/classrml_1_1job.html" target="_top" xlink:title="Represents a client&#39;s job for an execution context. ">
<polygon fill="white" stroke="black" points="144,-260 144,-317 221,-317 221,-260 144,-260"/>
<text text-anchor="middle" x="182.5" y="-305" font-family="Helvetica,sans-Serif" font-size="10.00">rml::job</text>
<polyline fill="none" stroke="black" points="144,-298 221,-298 "/>
<text text-anchor="start" x="152" y="-286" font-family="Helvetica,sans-Serif" font-size="10.00">&#45; scratch_ptr</text>
<polyline fill="none" stroke="black" points="144,-279 221,-279 "/>
<text text-anchor="middle" x="182.5" y="-267" font-family="Helvetica,sans-Serif" font-size="10.00"> </text>
</a>
</g>
</g>
<!-- Node5&#45;&gt;Node4 -->
<g id="edge5" class="edge"><title>Node5&#45;&gt;Node4</title>
<path fill="none" stroke="#404040" d="M182.5,-259.904C182.5,-246.004 182.5,-228.892 182.5,-213.573"/>
<polygon fill="none" stroke="#404040" points="182.5,-213.237 178.5,-207.237 182.5,-201.237 186.5,-207.237 182.5,-213.237"/>
<text text-anchor="middle" x="195.5" y="-228" font-family="Helvetica,sans-Serif" font-size="10.00"> +job</text>
</g>
<!-- Node6 -->
<g id="node6" class="node"><title>Node6</title>
<polygon fill="white" stroke="#bfbfbf" points="253.5,-144 253.5,-201 297.5,-201 297.5,-144 253.5,-144"/>
<text text-anchor="middle" x="275.5" y="-189" font-family="Helvetica,sans-Serif" font-size="10.00">size_t</text>
<polyline fill="none" stroke="#bfbfbf" points="253.5,-182 297.5,-182 "/>
<text text-anchor="middle" x="275.5" y="-170" font-family="Helvetica,sans-Serif" font-size="10.00"> </text>
<polyline fill="none" stroke="#bfbfbf" points="253.5,-163 297.5,-163 "/>
<text text-anchor="middle" x="275.5" y="-151" font-family="Helvetica,sans-Serif" font-size="10.00"> </text>
</g>
<!-- Node6&#45;&gt;Node1 -->
<g id="edge6" class="edge"><title>Node6&#45;&gt;Node1</title>
<path fill="none" stroke="#404040" d="M255.777,-143.824C244.53,-128.042 230.113,-107.811 217.046,-89.4764"/>
<polygon fill="none" stroke="#404040" points="216.919,-89.2979 210.18,-86.7331 209.955,-79.5255 216.695,-82.0903 216.919,-89.2979"/>
<text text-anchor="middle" x="271" y="-112" font-family="Helvetica,sans-Serif" font-size="10.00"> +n_thread</text>
<text text-anchor="middle" x="271" y="-101" font-family="Helvetica,sans-Serif" font-size="10.00">+max_thread</text>
</g>
</g>
</svg>
