<?xml version="1.0" encoding="UTF-8" standalone="no"?>
<!DOCTYPE svg PUBLIC "-//W3C//DTD SVG 1.1//EN"
 "http://www.w3.org/Graphics/SVG/1.1/DTD/svg11.dtd">
<!-- Generated by graphviz version 2.38.0 (20140413.2041)
 -->
<!-- Title: /home/travis/build/ComPWA/ComPWA/Physics/HelicityFormalism/HelicityKinematics.hpp Pages: 1 -->
<svg width="3023pt" height="217pt"
 viewBox="0.00 0.00 3022.50 217.00" xmlns="http://www.w3.org/2000/svg" xmlns:xlink="http://www.w3.org/1999/xlink">
<g id="graph0" class="graph" transform="scale(1 1) rotate(0) translate(4 213)">
<title>/home/travis/build/ComPWA/ComPWA/Physics/HelicityFormalism/HelicityKinematics.hpp</title>
<polygon fill="white" stroke="none" points="-4,4 -4,-213 3018.5,-213 3018.5,4 -4,4"/>
<!-- Node1 -->
<g id="node1" class="node"><title>Node1</title>
<polygon fill="#bfbfbf" stroke="black" points="1451.5,-167.5 1451.5,-208.5 1666.5,-208.5 1666.5,-167.5 1451.5,-167.5"/>
<text text-anchor="start" x="1459.5" y="-196.5" font-family="Helvetica,sans-Serif" font-size="10.00">/home/travis/build</text>
<text text-anchor="start" x="1459.5" y="-185.5" font-family="Helvetica,sans-Serif" font-size="10.00">/ComPWA/ComPWA/Physics</text>
<text text-anchor="middle" x="1559" y="-174.5" font-family="Helvetica,sans-Serif" font-size="10.00">/HelicityFormalism/HelicityKinematics.hpp</text>
</g>
<!-- Node2 -->
<g id="node2" class="node"><title>Node2</title>
<g id="a_node2"><a xlink:href="../../db/d7b/DalitzFitD03K_8cpp.html" target="_top" xlink:title="Executable for Dalitz plot analysis of the decay D0 &#45;&gt; K_S K+ K&#45;. ">
<polygon fill="white" stroke="black" points="-1.42109e-14,-78.5 -1.42109e-14,-130.5 158,-130.5 158,-78.5 -1.42109e-14,-78.5"/>
<text text-anchor="start" x="8" y="-118.5" font-family="Helvetica,sans-Serif" font-size="10.00">/home/travis/build</text>
<text text-anchor="start" x="8" y="-107.5" font-family="Helvetica,sans-Serif" font-size="10.00">/ComPWA/ComPWA/Examples</text>
<text text-anchor="start" x="8" y="-96.5" font-family="Helvetica,sans-Serif" font-size="10.00">/DalitzAnalysis_D0KsKK</text>
<text text-anchor="middle" x="79" y="-85.5" font-family="Helvetica,sans-Serif" font-size="10.00">/DalitzFitD03K.cpp</text>
</a>
</g>
</g>
<!-- Node1&#45;&gt;Node2 -->
<g id="edge1" class="edge"><title>Node1&#45;&gt;Node2</title>
<path fill="none" stroke="midnightblue" d="M1441.3,-185.919C1151.78,-182.671 410.821,-170.63 167,-131 164.174,-130.541 161.31,-130.02 158.428,-129.448"/>
<polygon fill="midnightblue" stroke="midnightblue" points="1441.37,-189.42 1451.41,-186.031 1441.45,-182.42 1441.37,-189.42"/>
</g>
<!-- Node3 -->
<g id="node3" class="node"><title>Node3</title>
<g id="a_node3"><a xlink:href="../../da/d2a/DalitzFitApp_8cpp.html" target="_top" xlink:title="Simple Dalitz plot analysis with ComPWA. ">
<polygon fill="white" stroke="black" points="176,-84 176,-125 334,-125 334,-84 176,-84"/>
<text text-anchor="start" x="184" y="-113" font-family="Helvetica,sans-Serif" font-size="10.00">/home/travis/build</text>
<text text-anchor="start" x="184" y="-102" font-family="Helvetica,sans-Serif" font-size="10.00">/ComPWA/ComPWA/Examples</text>
<text text-anchor="middle" x="255" y="-91" font-family="Helvetica,sans-Serif" font-size="10.00">/DalitzFit/DalitzFitApp.cpp</text>
</a>
</g>
</g>
<!-- Node1&#45;&gt;Node3 -->
<g id="edge2" class="edge"><title>Node1&#45;&gt;Node3</title>
<path fill="none" stroke="midnightblue" d="M1441.1,-185.111C1178.43,-180.326 551.836,-165.567 343,-131 334.055,-129.519 324.731,-127.434 315.64,-125.086"/>
<polygon fill="midnightblue" stroke="midnightblue" points="1441.37,-188.616 1451.43,-185.297 1441.5,-181.617 1441.37,-188.616"/>
</g>
<!-- Node4 -->
<g id="node4" class="node"><title>Node4</title>
<g id="a_node4"><a xlink:href="../../dd/d39/EvtGenFit_8cpp.html" target="_top" xlink:title="/home/travis/build\l/ComPWA/ComPWA/Examples\l/EvtGen/EvtGenFit.cpp">
<polygon fill="white" stroke="black" points="352,-84 352,-125 510,-125 510,-84 352,-84"/>
<text text-anchor="start" x="360" y="-113" font-family="Helvetica,sans-Serif" font-size="10.00">/home/travis/build</text>
<text text-anchor="start" x="360" y="-102" font-family="Helvetica,sans-Serif" font-size="10.00">/ComPWA/ComPWA/Examples</text>
<text text-anchor="middle" x="431" y="-91" font-family="Helvetica,sans-Serif" font-size="10.00">/EvtGen/EvtGenFit.cpp</text>
</a>
</g>
</g>
<!-- Node1&#45;&gt;Node4 -->
<g id="edge3" class="edge"><title>Node1&#45;&gt;Node4</title>
<path fill="none" stroke="midnightblue" d="M1440.84,-184.03C1207.08,-177.594 693.125,-160.517 519,-131 510.061,-129.485 500.74,-127.38 491.65,-125.023"/>
<polygon fill="midnightblue" stroke="midnightblue" points="1440.99,-187.535 1451.08,-184.31 1441.18,-180.538 1440.99,-187.535"/>
</g>
<!-- Node5 -->
<g id="node5" class="node"><title>Node5</title>
<g id="a_node5"><a xlink:href="../../db/d0e/SimFit_8cpp.html" target="_top" xlink:title="/home/travis/build\l/ComPWA/ComPWA/Examples\l/SimFit/SimFit.cpp">
<polygon fill="white" stroke="black" points="528,-84 528,-125 686,-125 686,-84 528,-84"/>
<text text-anchor="start" x="536" y="-113" font-family="Helvetica,sans-Serif" font-size="10.00">/home/travis/build</text>
<text text-anchor="start" x="536" y="-102" font-family="Helvetica,sans-Serif" font-size="10.00">/ComPWA/ComPWA/Examples</text>
<text text-anchor="middle" x="607" y="-91" font-family="Helvetica,sans-Serif" font-size="10.00">/SimFit/SimFit.cpp</text>
</a>
</g>
</g>
<!-- Node1&#45;&gt;Node5 -->
<g id="edge4" class="edge"><title>Node1&#45;&gt;Node5</title>
<path fill="none" stroke="midnightblue" d="M1441.31,-187.432C1274.14,-186.226 958.895,-177.22 695,-131 686.226,-129.463 677.08,-127.379 668.144,-125.059"/>
<polygon fill="midnightblue" stroke="midnightblue" points="1441.34,-190.932 1451.37,-187.496 1441.39,-183.932 1441.34,-190.932"/>
</g>
<!-- Node6 -->
<g id="node6" class="node"><title>Node6</title>
<g id="a_node6"><a xlink:href="../../d1/d1d/FitTest_8cpp.html" target="_top" xlink:title="/home/travis/build\l/ComPWA/ComPWA/Examples\l/test/FitTest/FitTest.cpp">
<polygon fill="white" stroke="black" points="704,-84 704,-125 862,-125 862,-84 704,-84"/>
<text text-anchor="start" x="712" y="-113" font-family="Helvetica,sans-Serif" font-size="10.00">/home/travis/build</text>
<text text-anchor="start" x="712" y="-102" font-family="Helvetica,sans-Serif" font-size="10.00">/ComPWA/ComPWA/Examples</text>
<text text-anchor="middle" x="783" y="-91" font-family="Helvetica,sans-Serif" font-size="10.00">/test/FitTest/FitTest.cpp</text>
</a>
</g>
</g>
<!-- Node1&#45;&gt;Node6 -->
<g id="edge5" class="edge"><title>Node1&#45;&gt;Node6</title>
<path fill="none" stroke="midnightblue" d="M1441.31,-184.593C1303.56,-180.126 1069.07,-167.377 871,-131 862.395,-129.42 853.426,-127.341 844.646,-125.052"/>
<polygon fill="midnightblue" stroke="midnightblue" points="1441.36,-188.097 1451.46,-184.913 1441.58,-181.1 1441.36,-188.097"/>
</g>
<!-- Node7 -->
<g id="node7" class="node"><title>Node7</title>
<g id="a_node7"><a xlink:href="../../d0/df9/BuilderXML_8cpp.html" target="_top" xlink:title="/home/travis/build\l/ComPWA/ComPWA/Physics\l/BuilderXML.cpp">
<polygon fill="white" stroke="black" points="880,-84 880,-125 1026,-125 1026,-84 880,-84"/>
<text text-anchor="start" x="888" y="-113" font-family="Helvetica,sans-Serif" font-size="10.00">/home/travis/build</text>
<text text-anchor="start" x="888" y="-102" font-family="Helvetica,sans-Serif" font-size="10.00">/ComPWA/ComPWA/Physics</text>
<text text-anchor="middle" x="953" y="-91" font-family="Helvetica,sans-Serif" font-size="10.00">/BuilderXML.cpp</text>
</a>
</g>
</g>
<!-- Node1&#45;&gt;Node7 -->
<g id="edge6" class="edge"><title>Node1&#45;&gt;Node7</title>
<path fill="none" stroke="midnightblue" d="M1441.25,-180.995C1334.38,-173.992 1172.89,-159.524 1035,-131 1027.12,-129.369 1018.91,-127.292 1010.87,-125.029"/>
<polygon fill="midnightblue" stroke="midnightblue" points="1441.22,-184.499 1451.42,-181.649 1441.67,-177.514 1441.22,-184.499"/>
</g>
<!-- Node8 -->
<g id="node8" class="node"><title>Node8</title>
<g id="a_node8"><a xlink:href="../../d9/d34/FormFactorTests_8cpp.html" target="_top" xlink:title="/home/travis/build\l/ComPWA/ComPWA/Physics\l/Dynamics/test/FormFactorTests.cpp">
<polygon fill="white" stroke="black" points="1044,-84 1044,-125 1234,-125 1234,-84 1044,-84"/>
<text text-anchor="start" x="1052" y="-113" font-family="Helvetica,sans-Serif" font-size="10.00">/home/travis/build</text>
<text text-anchor="start" x="1052" y="-102" font-family="Helvetica,sans-Serif" font-size="10.00">/ComPWA/ComPWA/Physics</text>
<text text-anchor="middle" x="1139" y="-91" font-family="Helvetica,sans-Serif" font-size="10.00">/Dynamics/test/FormFactorTests.cpp</text>
</a>
</g>
</g>
<!-- Node1&#45;&gt;Node8 -->
<g id="edge7" class="edge"><title>Node1&#45;&gt;Node8</title>
<path fill="none" stroke="midnightblue" d="M1441.01,-167.816C1381.72,-157.723 1308.87,-144.63 1244,-131 1235.28,-129.168 1226.18,-127.138 1217.14,-125.046"/>
<polygon fill="midnightblue" stroke="midnightblue" points="1440.71,-171.316 1451.16,-169.538 1441.88,-164.415 1440.71,-171.316"/>
</g>
<!-- Node9 -->
<g id="node9" class="node"><title>Node9</title>
<g id="a_node9"><a xlink:href="../../d2/d8f/HelicityKinematics_8cpp.html" target="_top" xlink:title="/home/travis/build\l/ComPWA/ComPWA/Physics\l/HelicityFormalism/HelicityKinematics.cpp">
<polygon fill="white" stroke="black" points="1252.5,-84 1252.5,-125 1467.5,-125 1467.5,-84 1252.5,-84"/>
<text text-anchor="start" x="1260.5" y="-113" font-family="Helvetica,sans-Serif" font-size="10.00">/home/travis/build</text>
<text text-anchor="start" x="1260.5" y="-102" font-family="Helvetica,sans-Serif" font-size="10.00">/ComPWA/ComPWA/Physics</text>
<text text-anchor="middle" x="1360" y="-91" font-family="Helvetica,sans-Serif" font-size="10.00">/HelicityFormalism/HelicityKinematics.cpp</text>
</a>
</g>
</g>
<!-- Node1&#45;&gt;Node9 -->
<g id="edge8" class="edge"><title>Node1&#45;&gt;Node9</title>
<path fill="none" stroke="midnightblue" d="M1501.88,-163.608C1472.04,-151.385 1435.94,-136.6 1407.62,-125.003"/>
<polygon fill="midnightblue" stroke="midnightblue" points="1500.75,-166.928 1511.33,-167.479 1503.41,-160.45 1500.75,-166.928"/>
</g>
<!-- Node10 -->
<g id="node10" class="node"><title>Node10</title>
<g id="a_node10"><a xlink:href="../../d7/d56/HelicityAngle_8cpp.html" target="_top" xlink:title="/home/travis/build\l/ComPWA/ComPWA/Physics\l/HelicityFormalism/test\l/HelicityAngle.cpp">
<polygon fill="white" stroke="black" points="1486,-78.5 1486,-130.5 1632,-130.5 1632,-78.5 1486,-78.5"/>
<text text-anchor="start" x="1494" y="-118.5" font-family="Helvetica,sans-Serif" font-size="10.00">/home/travis/build</text>
<text text-anchor="start" x="1494" y="-107.5" font-family="Helvetica,sans-Serif" font-size="10.00">/ComPWA/ComPWA/Physics</text>
<text text-anchor="start" x="1494" y="-96.5" font-family="Helvetica,sans-Serif" font-size="10.00">/HelicityFormalism/test</text>
<text text-anchor="middle" x="1559" y="-85.5" font-family="Helvetica,sans-Serif" font-size="10.00">/HelicityAngle.cpp</text>
</a>
</g>
</g>
<!-- Node1&#45;&gt;Node10 -->
<g id="edge9" class="edge"><title>Node1&#45;&gt;Node10</title>
<path fill="none" stroke="midnightblue" d="M1559,-157.121C1559,-148.413 1559,-138.989 1559,-130.607"/>
<polygon fill="midnightblue" stroke="midnightblue" points="1555.5,-157.271 1559,-167.271 1562.5,-157.271 1555.5,-157.271"/>
</g>
<!-- Node11 -->
<g id="node11" class="node"><title>Node11</title>
<g id="a_node11"><a xlink:href="../../d8/d81/HelicityAnglesCorrectnessTest_8cpp.html" target="_top" xlink:title="/home/travis/build\l/ComPWA/ComPWA/Physics\l/HelicityFormalism/test\l/HelicityAnglesCorrectnessTest.cpp">
<polygon fill="white" stroke="black" points="1650.5,-78.5 1650.5,-130.5 1833.5,-130.5 1833.5,-78.5 1650.5,-78.5"/>
<text text-anchor="start" x="1658.5" y="-118.5" font-family="Helvetica,sans-Serif" font-size="10.00">/home/travis/build</text>
<text text-anchor="start" x="1658.5" y="-107.5" font-family="Helvetica,sans-Serif" font-size="10.00">/ComPWA/ComPWA/Physics</text>
<text text-anchor="start" x="1658.5" y="-96.5" font-family="Helvetica,sans-Serif" font-size="10.00">/HelicityFormalism/test</text>
<text text-anchor="middle" x="1742" y="-85.5" font-family="Helvetica,sans-Serif" font-size="10.00">/HelicityAnglesCorrectnessTest.cpp</text>
</a>
</g>
</g>
<!-- Node1&#45;&gt;Node11 -->
<g id="edge10" class="edge"><title>Node1&#45;&gt;Node11</title>
<path fill="none" stroke="midnightblue" d="M1612.13,-163.34C1635.21,-153.061 1662.27,-141.01 1685.69,-130.576"/>
<polygon fill="midnightblue" stroke="midnightblue" points="1610.54,-160.213 1602.83,-167.479 1613.39,-166.608 1610.54,-160.213"/>
</g>
<!-- Node12 -->
<g id="node12" class="node"><title>Node12</title>
<g id="a_node12"><a xlink:href="../../d0/dc6/HelicityKinematicsTests_8cpp.html" target="_top" xlink:title="/home/travis/build\l/ComPWA/ComPWA/Physics\l/HelicityFormalism/test\l/HelicityKinematicsTests.cpp">
<polygon fill="white" stroke="black" points="1851.5,-78.5 1851.5,-130.5 2002.5,-130.5 2002.5,-78.5 1851.5,-78.5"/>
<text text-anchor="start" x="1859.5" y="-118.5" font-family="Helvetica,sans-Serif" font-size="10.00">/home/travis/build</text>
<text text-anchor="start" x="1859.5" y="-107.5" font-family="Helvetica,sans-Serif" font-size="10.00">/ComPWA/ComPWA/Physics</text>
<text text-anchor="start" x="1859.5" y="-96.5" font-family="Helvetica,sans-Serif" font-size="10.00">/HelicityFormalism/test</text>
<text text-anchor="middle" x="1927" y="-85.5" font-family="Helvetica,sans-Serif" font-size="10.00">/HelicityKinematicsTests.cpp</text>
</a>
</g>
</g>
<!-- Node1&#45;&gt;Node12 -->
<g id="edge11" class="edge"><title>Node1&#45;&gt;Node12</title>
<path fill="none" stroke="midnightblue" d="M1676.9,-166.486C1728.2,-156.859 1788.83,-144.526 1843,-131 1845.66,-130.335 1848.36,-129.638 1851.09,-128.916"/>
<polygon fill="midnightblue" stroke="midnightblue" points="1675.96,-163.101 1666.78,-168.375 1677.25,-169.983 1675.96,-163.101"/>
</g>
<!-- Node13 -->
<g id="node13" class="node"><title>Node13</title>
<g id="a_node13"><a xlink:href="../../d7/dd4/ModelFunctionTreeTests_8cpp.html" target="_top" xlink:title="/home/travis/build\l/ComPWA/ComPWA/Physics\l/HelicityFormalism/test\l/ModelFunctionTreeTests.cpp">
<polygon fill="white" stroke="black" points="2021,-78.5 2021,-130.5 2173,-130.5 2173,-78.5 2021,-78.5"/>
<text text-anchor="start" x="2029" y="-118.5" font-family="Helvetica,sans-Serif" font-size="10.00">/home/travis/build</text>
<text text-anchor="start" x="2029" y="-107.5" font-family="Helvetica,sans-Serif" font-size="10.00">/ComPWA/ComPWA/Physics</text>
<text text-anchor="start" x="2029" y="-96.5" font-family="Helvetica,sans-Serif" font-size="10.00">/HelicityFormalism/test</text>
<text text-anchor="middle" x="2097" y="-85.5" font-family="Helvetica,sans-Serif" font-size="10.00">/ModelFunctionTreeTests.cpp</text>
</a>
</g>
</g>
<!-- Node1&#45;&gt;Node13 -->
<g id="edge12" class="edge"><title>Node1&#45;&gt;Node13</title>
<path fill="none" stroke="midnightblue" d="M1677.1,-177.89C1769.05,-169.48 1899.51,-154.651 2012,-131 2014.86,-130.398 2017.77,-129.744 2020.7,-129.051"/>
<polygon fill="midnightblue" stroke="midnightblue" points="1676.57,-174.424 1666.93,-178.809 1677.2,-181.395 1676.57,-174.424"/>
</g>
<!-- Node14 -->
<g id="node14" class="node"><title>Node14</title>
<g id="a_node14"><a xlink:href="../../d3/d1f/HelicityFormalism_8hpp.html" target="_top" xlink:title="/home/travis/build\l/ComPWA/ComPWA/Physics\l/HelicityFormalism.hpp">
<polygon fill="white" stroke="black" points="2191,-84 2191,-125 2337,-125 2337,-84 2191,-84"/>
<text text-anchor="start" x="2199" y="-113" font-family="Helvetica,sans-Serif" font-size="10.00">/home/travis/build</text>
<text text-anchor="start" x="2199" y="-102" font-family="Helvetica,sans-Serif" font-size="10.00">/ComPWA/ComPWA/Physics</text>
<text text-anchor="middle" x="2264" y="-91" font-family="Helvetica,sans-Serif" font-size="10.00">/HelicityFormalism.hpp</text>
</a>
</g>
</g>
<!-- Node1&#45;&gt;Node14 -->
<g id="edge13" class="edge"><title>Node1&#45;&gt;Node14</title>
<path fill="none" stroke="midnightblue" d="M1676.7,-183.836C1802.75,-178.729 2008.14,-165.441 2182,-131 2190.04,-129.407 2198.42,-127.321 2206.6,-125.028"/>
<polygon fill="midnightblue" stroke="midnightblue" points="1676.49,-180.342 1666.63,-184.234 1676.76,-187.336 1676.49,-180.342"/>
</g>
<!-- Node15 -->
<g id="node15" class="node"><title>Node15</title>
<g id="a_node15"><a xlink:href="../../de/dbc/BOSSAdapter_8hpp.html" target="_top" xlink:title="/home/travis/build\l/ComPWA/ComPWA/Tools\l/Adapters/BOSSAdapter.hpp">
<polygon fill="white" stroke="black" points="2355,-84 2355,-125 2507,-125 2507,-84 2355,-84"/>
<text text-anchor="start" x="2363" y="-113" font-family="Helvetica,sans-Serif" font-size="10.00">/home/travis/build</text>
<text text-anchor="start" x="2363" y="-102" font-family="Helvetica,sans-Serif" font-size="10.00">/ComPWA/ComPWA/Tools</text>
<text text-anchor="middle" x="2431" y="-91" font-family="Helvetica,sans-Serif" font-size="10.00">/Adapters/BOSSAdapter.hpp</text>
</a>
</g>
</g>
<!-- Node1&#45;&gt;Node15 -->
<g id="edge14" class="edge"><title>Node1&#45;&gt;Node15</title>
<path fill="none" stroke="midnightblue" d="M1676.56,-186.679C1831.28,-184.429 2111.16,-174.036 2346,-131 2354.49,-129.445 2363.33,-127.35 2371.96,-125.026"/>
<polygon fill="midnightblue" stroke="midnightblue" points="1676.5,-183.18 1666.55,-186.816 1676.59,-190.179 1676.5,-183.18"/>
</g>
<!-- Node17 -->
<g id="node17" class="node"><title>Node17</title>
<g id="a_node17"><a xlink:href="../../db/d2b/DalitzPlot_8cpp.html" target="_top" xlink:title="/home/travis/build\l/ComPWA/ComPWA/Tools\l/Plotting/DalitzPlot.cpp">
<polygon fill="white" stroke="black" points="2525,-84 2525,-125 2659,-125 2659,-84 2525,-84"/>
<text text-anchor="start" x="2533" y="-113" font-family="Helvetica,sans-Serif" font-size="10.00">/home/travis/build</text>
<text text-anchor="start" x="2533" y="-102" font-family="Helvetica,sans-Serif" font-size="10.00">/ComPWA/ComPWA/Tools</text>
<text text-anchor="middle" x="2592" y="-91" font-family="Helvetica,sans-Serif" font-size="10.00">/Plotting/DalitzPlot.cpp</text>
</a>
</g>
</g>
<!-- Node1&#45;&gt;Node17 -->
<g id="edge16" class="edge"><title>Node1&#45;&gt;Node17</title>
<path fill="none" stroke="midnightblue" d="M1677.17,-183.995C1896.53,-177.769 2358.67,-161.435 2516,-131 2523.79,-129.493 2531.88,-127.393 2539.74,-125.039"/>
<polygon fill="midnightblue" stroke="midnightblue" points="1676.81,-180.504 1666.91,-184.284 1677.01,-187.501 1676.81,-180.504"/>
</g>
<!-- Node18 -->
<g id="node18" class="node"><title>Node18</title>
<g id="a_node18"><a xlink:href="../../d7/dd0/IntegrationTest_8cpp.html" target="_top" xlink:title="/home/travis/build\l/ComPWA/ComPWA/Tools\l/test/IntegrationTest.cpp">
<polygon fill="white" stroke="black" points="2677,-84 2677,-125 2811,-125 2811,-84 2677,-84"/>
<text text-anchor="start" x="2685" y="-113" font-family="Helvetica,sans-Serif" font-size="10.00">/home/travis/build</text>
<text text-anchor="start" x="2685" y="-102" font-family="Helvetica,sans-Serif" font-size="10.00">/ComPWA/ComPWA/Tools</text>
<text text-anchor="middle" x="2744" y="-91" font-family="Helvetica,sans-Serif" font-size="10.00">/test/IntegrationTest.cpp</text>
</a>
</g>
</g>
<!-- Node1&#45;&gt;Node18 -->
<g id="edge17" class="edge"><title>Node1&#45;&gt;Node18</title>
<path fill="none" stroke="midnightblue" d="M1676.92,-185.112C1922.38,-180.515 2480.94,-166.411 2668,-131 2675.79,-129.524 2683.89,-127.442 2691.76,-125.096"/>
<polygon fill="midnightblue" stroke="midnightblue" points="1676.83,-181.613 1666.89,-185.297 1676.96,-188.611 1676.83,-181.613"/>
</g>
<!-- Node19 -->
<g id="node19" class="node"><title>Node19</title>
<g id="a_node19"><a xlink:href="../../df/d51/SaveAndLoadFitResultTest_8cpp.html" target="_top" xlink:title="/home/travis/build\l/ComPWA/ComPWA/Tools\l/test/SaveAndLoadFitResultTest.cpp">
<polygon fill="white" stroke="black" points="2829.5,-84 2829.5,-125 3014.5,-125 3014.5,-84 2829.5,-84"/>
<text text-anchor="start" x="2837.5" y="-113" font-family="Helvetica,sans-Serif" font-size="10.00">/home/travis/build</text>
<text text-anchor="start" x="2837.5" y="-102" font-family="Helvetica,sans-Serif" font-size="10.00">/ComPWA/ComPWA/Tools</text>
<text text-anchor="middle" x="2922" y="-91" font-family="Helvetica,sans-Serif" font-size="10.00">/test/SaveAndLoadFitResultTest.cpp</text>
</a>
</g>
</g>
<!-- Node1&#45;&gt;Node19 -->
<g id="edge18" class="edge"><title>Node1&#45;&gt;Node19</title>
<path fill="none" stroke="midnightblue" d="M1676.78,-184.787C1946.32,-179.233 2601.62,-162.817 2820,-131 2830.3,-129.5 2841.06,-127.404 2851.58,-125.051"/>
<polygon fill="midnightblue" stroke="midnightblue" points="1676.5,-181.292 1666.57,-184.996 1676.64,-188.29 1676.5,-181.292"/>
</g>
<!-- Node16 -->
<g id="node16" class="node"><title>Node16</title>
<g id="a_node16"><a xlink:href="../../d7/d96/BOSSAdapter_8cpp.html" target="_top" xlink:title="/home/travis/build\l/ComPWA/ComPWA/Tools\l/Adapters/BOSSAdapter.cpp">
<polygon fill="white" stroke="black" points="2355,-0.5 2355,-41.5 2507,-41.5 2507,-0.5 2355,-0.5"/>
<text text-anchor="start" x="2363" y="-29.5" font-family="Helvetica,sans-Serif" font-size="10.00">/home/travis/build</text>
<text text-anchor="start" x="2363" y="-18.5" font-family="Helvetica,sans-Serif" font-size="10.00">/ComPWA/ComPWA/Tools</text>
<text text-anchor="middle" x="2431" y="-7.5" font-family="Helvetica,sans-Serif" font-size="10.00">/Adapters/BOSSAdapter.cpp</text>
</a>
</g>
</g>
<!-- Node15&#45;&gt;Node16 -->
<g id="edge15" class="edge"><title>Node15&#45;&gt;Node16</title>
<path fill="none" stroke="midnightblue" d="M2431,-73.5646C2431,-62.8819 2431,-51.1303 2431,-41.5472"/>
<polygon fill="midnightblue" stroke="midnightblue" points="2427.5,-73.7711 2431,-83.7711 2434.5,-73.7712 2427.5,-73.7711"/>
</g>
</g>
</svg>
