<?xml version="1.0" encoding="UTF-8" standalone="no"?>
<!DOCTYPE svg PUBLIC "-//W3C//DTD SVG 1.1//EN"
 "http://www.w3.org/Graphics/SVG/1.1/DTD/svg11.dtd">
<!-- Generated by graphviz version 2.38.0 (20140413.2041)
 -->
<!-- Title: DataItemWithInheritedNode Pages: 1 -->
<svg width="395pt" height="322pt"
 viewBox="0.00 0.00 395.00 322.00" xmlns="http://www.w3.org/2000/svg" xmlns:xlink="http://www.w3.org/1999/xlink">
<g id="graph0" class="graph" transform="scale(1 1) rotate(0) translate(4 318)">
<title>DataItemWithInheritedNode</title>
<polygon fill="white" stroke="none" points="-4,4 -4,-318 391,-318 391,4 -4,4"/>
<!-- Node1 -->
<g id="node1" class="node"><title>Node1</title>
<polygon fill="#bfbfbf" stroke="black" points="74.5,-0.5 74.5,-57.5 242.5,-57.5 242.5,-0.5 74.5,-0.5"/>
<text text-anchor="middle" x="158.5" y="-45.5" font-family="Helvetica,sans-Serif" font-size="10.00">DataItemWithInheritedNode</text>
<polyline fill="none" stroke="black" points="74.5,-38.5 242.5,-38.5 "/>
<text text-anchor="middle" x="158.5" y="-26.5" font-family="Helvetica,sans-Serif" font-size="10.00"> </text>
<polyline fill="none" stroke="black" points="74.5,-19.5 242.5,-19.5 "/>
<text text-anchor="start" x="82.5" y="-7.5" font-family="Helvetica,sans-Serif" font-size="10.00">+ DataItemWithInheritedNode()</text>
</g>
<!-- Node2 -->
<g id="node2" class="node"><title>Node2</title>
<g id="a_node2"><a xlink:href="../../d1/d92/structVerificationBase.html" target="_top" xlink:title="{VerificationBase\n|+ m_Canary\l|+ VerificationBase()\l}">
<polygon fill="white" stroke="black" points="0.5,-101 0.5,-158 112.5,-158 112.5,-101 0.5,-101"/>
<text text-anchor="middle" x="56.5" y="-146" font-family="Helvetica,sans-Serif" font-size="10.00">VerificationBase</text>
<polyline fill="none" stroke="black" points="0.5,-139 112.5,-139 "/>
<text text-anchor="start" x="8.5" y="-127" font-family="Helvetica,sans-Serif" font-size="10.00">+ m_Canary</text>
<polyline fill="none" stroke="black" points="0.5,-120 112.5,-120 "/>
<text text-anchor="start" x="8.5" y="-108" font-family="Helvetica,sans-Serif" font-size="10.00">+ VerificationBase()</text>
</a>
</g>
</g>
<!-- Node2&#45;&gt;Node1 -->
<g id="edge1" class="edge"><title>Node2&#45;&gt;Node1</title>
<path fill="none" stroke="midnightblue" d="M92.5709,-93.6668C104.737,-81.9179 118.147,-68.9686 129.678,-57.8332"/>
<polygon fill="none" stroke="midnightblue" points="89.9463,-91.3358 85.1841,-100.8 94.8089,-96.3712 89.9463,-91.3358"/>
</g>
<!-- Node3 -->
<g id="node3" class="node"><title>Node3</title>
<g id="a_node3"><a xlink:href="../../de/d9a/classHarness_1_1NoAfterlife.html" target="_top" xlink:title="Base class that asserts that no operations are made with the object after its destruction. ">
<polygon fill="white" stroke="black" points="0,-201.5 0,-313.5 113,-313.5 113,-201.5 0,-201.5"/>
<text text-anchor="middle" x="56.5" y="-301.5" font-family="Helvetica,sans-Serif" font-size="10.00">Harness::NoAfterlife</text>
<polyline fill="none" stroke="black" points="0,-294.5 113,-294.5 "/>
<text text-anchor="start" x="8" y="-282.5" font-family="Helvetica,sans-Serif" font-size="10.00"># m_state</text>
<polyline fill="none" stroke="black" points="0,-275.5 113,-275.5 "/>
<text text-anchor="start" x="8" y="-263.5" font-family="Helvetica,sans-Serif" font-size="10.00">+ NoAfterlife()</text>
<text text-anchor="start" x="8" y="-252.5" font-family="Helvetica,sans-Serif" font-size="10.00">+ NoAfterlife()</text>
<text text-anchor="start" x="8" y="-241.5" font-family="Helvetica,sans-Serif" font-size="10.00">+ ~NoAfterlife()</text>
<text text-anchor="start" x="8" y="-230.5" font-family="Helvetica,sans-Serif" font-size="10.00">+ operator=()</text>
<text text-anchor="start" x="8" y="-219.5" font-family="Helvetica,sans-Serif" font-size="10.00">+ AssertLive()</text>
<text text-anchor="start" x="8" y="-208.5" font-family="Helvetica,sans-Serif" font-size="10.00">+ IsLive()</text>
</a>
</g>
</g>
<!-- Node3&#45;&gt;Node2 -->
<g id="edge2" class="edge"><title>Node3&#45;&gt;Node2</title>
<path fill="none" stroke="midnightblue" d="M56.5,-191.027C56.5,-179.398 56.5,-167.883 56.5,-158.067"/>
<polygon fill="none" stroke="midnightblue" points="53.0001,-191.235 56.5,-201.235 60.0001,-191.235 53.0001,-191.235"/>
</g>
<!-- Node4 -->
<g id="node4" class="node"><title>Node4</title>
<g id="a_node4"><a xlink:href="../../d4/d7e/structDataItemWithInheritedNodeBase.html" target="_top" xlink:title="{DataItemWithInheritedNodeBase\n|+ m_Data\l|+ DataItemWithInheritedNodeBase()\l+ Data()\l}">
<polygon fill="white" stroke="black" points="130.5,-95.5 130.5,-163.5 322.5,-163.5 322.5,-95.5 130.5,-95.5"/>
<text text-anchor="middle" x="226.5" y="-151.5" font-family="Helvetica,sans-Serif" font-size="10.00">DataItemWithInheritedNodeBase</text>
<polyline fill="none" stroke="black" points="130.5,-144.5 322.5,-144.5 "/>
<text text-anchor="start" x="138.5" y="-132.5" font-family="Helvetica,sans-Serif" font-size="10.00">+ m_Data</text>
<polyline fill="none" stroke="black" points="130.5,-125.5 322.5,-125.5 "/>
<text text-anchor="start" x="138.5" y="-113.5" font-family="Helvetica,sans-Serif" font-size="10.00">+ DataItemWithInheritedNodeBase()</text>
<text text-anchor="start" x="138.5" y="-102.5" font-family="Helvetica,sans-Serif" font-size="10.00">+ Data()</text>
</a>
</g>
</g>
<!-- Node4&#45;&gt;Node1 -->
<g id="edge3" class="edge"><title>Node4&#45;&gt;Node1</title>
<path fill="none" stroke="midnightblue" d="M197.973,-87.178C191.077,-77.1883 183.872,-66.7517 177.534,-57.5708"/>
<polygon fill="none" stroke="midnightblue" points="195.106,-89.1859 203.668,-95.4269 200.867,-85.209 195.106,-89.1859"/>
</g>
<!-- Node5 -->
<g id="node5" class="node"><title>Node5</title>
<g id="a_node5"><a xlink:href="../../d8/dce/structtbb_1_1internal_1_1intrusive__list__node.html" target="_top" xlink:title="Data structure to be inherited by the types that can form intrusive lists. ">
<polygon fill="white" stroke="black" points="166,-223.5 166,-291.5 287,-291.5 287,-223.5 166,-223.5"/>
<text text-anchor="start" x="174" y="-279.5" font-family="Helvetica,sans-Serif" font-size="10.00">tbb::internal::intrusive</text>
<text text-anchor="middle" x="226.5" y="-268.5" font-family="Helvetica,sans-Serif" font-size="10.00">_list_node</text>
<polyline fill="none" stroke="black" points="166,-261.5 287,-261.5 "/>
<text text-anchor="middle" x="226.5" y="-249.5" font-family="Helvetica,sans-Serif" font-size="10.00"> </text>
<polyline fill="none" stroke="black" points="166,-242.5 287,-242.5 "/>
<text text-anchor="middle" x="226.5" y="-230.5" font-family="Helvetica,sans-Serif" font-size="10.00"> </text>
</a>
</g>
</g>
<!-- Node5&#45;&gt;Node4 -->
<g id="edge4" class="edge"><title>Node5&#45;&gt;Node4</title>
<path fill="none" stroke="midnightblue" d="M226.5,-213.113C226.5,-196.972 226.5,-178.922 226.5,-163.821"/>
<polygon fill="none" stroke="midnightblue" points="223,-213.395 226.5,-223.395 230,-213.395 223,-213.395"/>
</g>
<!-- Node5&#45;&gt;Node5 -->
<g id="edge5" class="edge"><title>Node5&#45;&gt;Node5</title>
<path fill="none" stroke="#404040" d="M287.062,-270.508C297.641,-268.773 305,-264.438 305,-257.5 305,-253.598 302.671,-250.518 298.751,-248.262"/>
<polygon fill="none" stroke="#404040" points="298.482,-248.176 291.544,-250.141 287.062,-244.492 294,-242.527 298.482,-248.176"/>
<text text-anchor="middle" x="346" y="-260.5" font-family="Helvetica,sans-Serif" font-size="10.00"> +my_next_node</text>
<text text-anchor="middle" x="346" y="-249.5" font-family="Helvetica,sans-Serif" font-size="10.00">+my_prev_node</text>
</g>
</g>
</svg>
