<?xml version="1.0" encoding="UTF-8" standalone="no"?>
<!DOCTYPE svg PUBLIC "-//W3C//DTD SVG 1.1//EN"
 "http://www.w3.org/Graphics/SVG/1.1/DTD/svg11.dtd">
<!-- Generated by graphviz version 2.38.0 (20140413.2041)
 -->
<!-- Title: tbb::interface6::internal::aggregated_operation&lt; Derived &gt; Pages: 1 -->
<svg width="150pt" height="398pt"
 viewBox="0.00 0.00 150.00 398.00" xmlns="http://www.w3.org/2000/svg" xmlns:xlink="http://www.w3.org/1999/xlink">
<g id="graph0" class="graph" transform="scale(1 1) rotate(0) translate(4 394)">
<title>tbb::interface6::internal::aggregated_operation&lt; Derived &gt;</title>
<polygon fill="white" stroke="none" points="-4,4 -4,-394 146,-394 146,4 -4,4"/>
<!-- Node1 -->
<g id="node1" class="node"><title>Node1</title>
<polygon fill="#bfbfbf" stroke="black" points="0,-0.5 0,-79.5 142,-79.5 142,-0.5 0,-0.5"/>
<text text-anchor="start" x="8" y="-67.5" font-family="Helvetica,sans-Serif" font-size="10.00">tbb::interface6::internal</text>
<text text-anchor="start" x="8" y="-56.5" font-family="Helvetica,sans-Serif" font-size="10.00">::aggregated_operation</text>
<text text-anchor="middle" x="71" y="-45.5" font-family="Helvetica,sans-Serif" font-size="10.00">&lt; Derived &gt;</text>
<polyline fill="none" stroke="black" points="0,-38.5 142,-38.5 "/>
<text text-anchor="start" x="8" y="-26.5" font-family="Helvetica,sans-Serif" font-size="10.00">+ status</text>
<polyline fill="none" stroke="black" points="0,-19.5 142,-19.5 "/>
<text text-anchor="start" x="8" y="-7.5" font-family="Helvetica,sans-Serif" font-size="10.00">+ aggregated_operation()</text>
</g>
<!-- Node2 -->
<g id="node2" class="node"><title>Node2</title>
<g id="a_node2"><a xlink:href="../../d1/da6/classDerived.html" target="_top" xlink:title="{Derived\n||+ Derived()\l+ ~Derived()\l+ SetInt()\l}">
<polygon fill="white" stroke="black" points="31,-127.5 31,-206.5 111,-206.5 111,-127.5 31,-127.5"/>
<text text-anchor="middle" x="71" y="-194.5" font-family="Helvetica,sans-Serif" font-size="10.00">Derived</text>
<polyline fill="none" stroke="black" points="31,-187.5 111,-187.5 "/>
<text text-anchor="middle" x="71" y="-175.5" font-family="Helvetica,sans-Serif" font-size="10.00"> </text>
<polyline fill="none" stroke="black" points="31,-168.5 111,-168.5 "/>
<text text-anchor="start" x="39" y="-156.5" font-family="Helvetica,sans-Serif" font-size="10.00">+ Derived()</text>
<text text-anchor="start" x="39" y="-145.5" font-family="Helvetica,sans-Serif" font-size="10.00">+ ~Derived()</text>
<text text-anchor="start" x="39" y="-134.5" font-family="Helvetica,sans-Serif" font-size="10.00">+ SetInt()</text>
</a>
</g>
</g>
<!-- Node2&#45;&gt;Node1 -->
<g id="edge1" class="edge"><title>Node2&#45;&gt;Node1</title>
<path fill="none" stroke="#404040" d="M71,-127.476C71,-116.189 71,-103.672 71,-91.7479"/>
<polygon fill="none" stroke="#404040" points="71.0001,-91.6121 67,-85.6121 71,-79.6121 75,-85.612 71.0001,-91.6121"/>
<text text-anchor="middle" x="87.5" y="-101" font-family="Helvetica,sans-Serif" font-size="10.00"> +next</text>
</g>
<!-- Node3 -->
<g id="node3" class="node"><title>Node3</title>
<g id="a_node3"><a xlink:href="../../d9/de5/classBase.html" target="_top" xlink:title="{Base\n|# i\l&#45; copy_throws\l|+ Base()\l+ ~Base()\l+ GetInt()\l+ SetInt()\l# Base()\l# Base()\l# ~Base()\l&#45; operator=()\l}">
<polygon fill="white" stroke="black" points="29.5,-244.5 29.5,-389.5 112.5,-389.5 112.5,-244.5 29.5,-244.5"/>
<text text-anchor="middle" x="71" y="-377.5" font-family="Helvetica,sans-Serif" font-size="10.00">Base</text>
<polyline fill="none" stroke="black" points="29.5,-370.5 112.5,-370.5 "/>
<text text-anchor="start" x="37.5" y="-358.5" font-family="Helvetica,sans-Serif" font-size="10.00"># i</text>
<text text-anchor="start" x="37.5" y="-347.5" font-family="Helvetica,sans-Serif" font-size="10.00">&#45; copy_throws</text>
<polyline fill="none" stroke="black" points="29.5,-340.5 112.5,-340.5 "/>
<text text-anchor="start" x="37.5" y="-328.5" font-family="Helvetica,sans-Serif" font-size="10.00">+ Base()</text>
<text text-anchor="start" x="37.5" y="-317.5" font-family="Helvetica,sans-Serif" font-size="10.00">+ ~Base()</text>
<text text-anchor="start" x="37.5" y="-306.5" font-family="Helvetica,sans-Serif" font-size="10.00">+ GetInt()</text>
<text text-anchor="start" x="37.5" y="-295.5" font-family="Helvetica,sans-Serif" font-size="10.00">+ SetInt()</text>
<text text-anchor="start" x="37.5" y="-284.5" font-family="Helvetica,sans-Serif" font-size="10.00"># Base()</text>
<text text-anchor="start" x="37.5" y="-273.5" font-family="Helvetica,sans-Serif" font-size="10.00"># Base()</text>
<text text-anchor="start" x="37.5" y="-262.5" font-family="Helvetica,sans-Serif" font-size="10.00"># ~Base()</text>
<text text-anchor="start" x="37.5" y="-251.5" font-family="Helvetica,sans-Serif" font-size="10.00">&#45; operator=()</text>
</a>
</g>
</g>
<!-- Node3&#45;&gt;Node2 -->
<g id="edge2" class="edge"><title>Node3&#45;&gt;Node2</title>
<path fill="none" stroke="midnightblue" d="M71,-234.152C71,-224.576 71,-215.178 71,-206.607"/>
<polygon fill="none" stroke="midnightblue" points="67.5001,-234.168 71,-244.168 74.5001,-234.168 67.5001,-234.168"/>
</g>
</g>
</svg>
