<?xml version="1.0" encoding="UTF-8" standalone="no"?>
<!DOCTYPE svg PUBLIC "-//W3C//DTD SVG 1.1//EN"
 "http://www.w3.org/Graphics/SVG/1.1/DTD/svg11.dtd">
<!-- Generated by graphviz version 2.38.0 (20140413.2041)
 -->
<!-- Title: internal::hash_buffer&lt; Key, ValueType, ValueToKey, HashCompare, Allocator &gt;::DoCleanup Pages: 1 -->
<svg width="205pt" height="259pt"
 viewBox="0.00 0.00 205.00 259.00" xmlns="http://www.w3.org/2000/svg" xmlns:xlink="http://www.w3.org/1999/xlink">
<g id="graph0" class="graph" transform="scale(1 1) rotate(0) translate(4 255)">
<title>internal::hash_buffer&lt; Key, ValueType, ValueToKey, HashCompare, Allocator &gt;::DoCleanup</title>
<polygon fill="white" stroke="none" points="-4,4 -4,-255 201,-255 201,4 -4,4"/>
<!-- Node1 -->
<g id="node1" class="node"><title>Node1</title>
<polygon fill="#bfbfbf" stroke="black" points="31.5,-0.5 31.5,-101.5 190.5,-101.5 190.5,-0.5 31.5,-0.5"/>
<text text-anchor="start" x="39.5" y="-89.5" font-family="Helvetica,sans-Serif" font-size="10.00">internal::hash_buffer</text>
<text text-anchor="start" x="39.5" y="-78.5" font-family="Helvetica,sans-Serif" font-size="10.00">&lt; Key, ValueType, ValueToKey,</text>
<text text-anchor="start" x="39.5" y="-67.5" font-family="Helvetica,sans-Serif" font-size="10.00"> HashCompare, Allocator &gt;</text>
<text text-anchor="middle" x="111" y="-56.5" font-family="Helvetica,sans-Serif" font-size="10.00">::DoCleanup</text>
<polyline fill="none" stroke="black" points="31.5,-49.5 190.5,-49.5 "/>
<text text-anchor="middle" x="111" y="-37.5" font-family="Helvetica,sans-Serif" font-size="10.00"> </text>
<polyline fill="none" stroke="black" points="31.5,-30.5 190.5,-30.5 "/>
<text text-anchor="start" x="39.5" y="-18.5" font-family="Helvetica,sans-Serif" font-size="10.00">+ DoCleanup()</text>
<text text-anchor="start" x="39.5" y="-7.5" font-family="Helvetica,sans-Serif" font-size="10.00">+ ~DoCleanup()</text>
</g>
<!-- Node2 -->
<g id="node2" class="node"><title>Node2</title>
<g id="a_node2"><a xlink:href="../../d7/d17/structinternal_1_1type__plus__align.html" target="_top" xlink:title="type mimicking std::pair but with trailing fill to ensure each element of an array ...">
<polygon fill="white" stroke="black" points="0,-160.5 0,-250.5 122,-250.5 122,-160.5 0,-160.5"/>
<text text-anchor="start" x="8" y="-238.5" font-family="Helvetica,sans-Serif" font-size="10.00">internal::type_plus</text>
<text text-anchor="middle" x="61" y="-227.5" font-family="Helvetica,sans-Serif" font-size="10.00">_align&lt; T1, T2, REM &gt;</text>
<polyline fill="none" stroke="black" points="0,-220.5 122,-220.5 "/>
<text text-anchor="start" x="8" y="-208.5" font-family="Helvetica,sans-Serif" font-size="10.00">+ first</text>
<text text-anchor="start" x="8" y="-197.5" font-family="Helvetica,sans-Serif" font-size="10.00">+ second</text>
<text text-anchor="start" x="8" y="-186.5" font-family="Helvetica,sans-Serif" font-size="10.00">+ fill1</text>
<polyline fill="none" stroke="black" points="0,-179.5 122,-179.5 "/>
<text text-anchor="middle" x="61" y="-167.5" font-family="Helvetica,sans-Serif" font-size="10.00"> </text>
</a>
</g>
</g>
<!-- Node2&#45;&gt;Node1 -->
<g id="edge1" class="edge"><title>Node2&#45;&gt;Node1</title>
<path fill="none" stroke="#404040" d="M57.1997,-160.242C57.3461,-147.022 58.81,-132.679 63,-120 63.797,-117.588 64.7109,-115.187 65.7218,-112.806"/>
<polygon fill="none" stroke="#404040" points="65.8085,-112.629 64.8551,-105.481 71.0863,-101.852 72.0398,-109 65.8085,-112.629"/>
<text text-anchor="middle" x="101.5" y="-134" font-family="Helvetica,sans-Serif" font-size="10.00"> +my_elements</text>
<text text-anchor="middle" x="101.5" y="-123" font-family="Helvetica,sans-Serif" font-size="10.00">+my_pa</text>
</g>
<!-- Node3 -->
<g id="node3" class="node"><title>Node3</title>
<polygon fill="white" stroke="#bfbfbf" points="140,-177 140,-234 184,-234 184,-177 140,-177"/>
<text text-anchor="middle" x="162" y="-222" font-family="Helvetica,sans-Serif" font-size="10.00">size_t</text>
<polyline fill="none" stroke="#bfbfbf" points="140,-215 184,-215 "/>
<text text-anchor="middle" x="162" y="-203" font-family="Helvetica,sans-Serif" font-size="10.00"> </text>
<polyline fill="none" stroke="#bfbfbf" points="140,-196 184,-196 "/>
<text text-anchor="middle" x="162" y="-184" font-family="Helvetica,sans-Serif" font-size="10.00"> </text>
</g>
<!-- Node3&#45;&gt;Node1 -->
<g id="edge2" class="edge"><title>Node3&#45;&gt;Node1</title>
<path fill="none" stroke="#404040" d="M155.884,-176.794C151.939,-160.149 146.366,-138.651 140,-120 139.238,-117.768 138.436,-115.506 137.604,-113.23"/>
<polygon fill="none" stroke="#404040" points="137.522,-113.014 131.642,-108.839 133.235,-101.806 139.114,-105.981 137.522,-113.014"/>
<text text-anchor="middle" x="171.5" y="-128.5" font-family="Helvetica,sans-Serif" font-size="10.00"> +my_size</text>
</g>
</g>
</svg>
