<?xml version="1.0" encoding="UTF-8" standalone="no"?>
<!DOCTYPE svg PUBLIC "-//W3C//DTD SVG 1.1//EN"
 "http://www.w3.org/Graphics/SVG/1.1/DTD/svg11.dtd">
<!-- Generated by graphviz version 2.38.0 (20140413.2041)
 -->
<!-- Title: middle_filter&lt; T *, U * &gt; Pages: 1 -->
<svg width="121pt" height="226pt"
 viewBox="0.00 0.00 121.00 226.00" xmlns="http://www.w3.org/2000/svg" xmlns:xlink="http://www.w3.org/1999/xlink">
<g id="graph0" class="graph" transform="scale(1 1) rotate(0) translate(4 222)">
<title>middle_filter&lt; T *, U * &gt;</title>
<polygon fill="white" stroke="none" points="-4,4 -4,-222 117,-222 117,4 -4,4"/>
<!-- Node1 -->
<g id="node1" class="node"><title>Node1</title>
<polygon fill="#bfbfbf" stroke="black" points="5,-0.5 5,-68.5 108,-68.5 108,-0.5 5,-0.5"/>
<text text-anchor="start" x="13" y="-56.5" font-family="Helvetica,sans-Serif" font-size="10.00">middle_filter&lt; T *,</text>
<text text-anchor="middle" x="56.5" y="-45.5" font-family="Helvetica,sans-Serif" font-size="10.00"> U * &gt;</text>
<polyline fill="none" stroke="black" points="5,-38.5 108,-38.5 "/>
<text text-anchor="middle" x="56.5" y="-26.5" font-family="Helvetica,sans-Serif" font-size="10.00"> </text>
<polyline fill="none" stroke="black" points="5,-19.5 108,-19.5 "/>
<text text-anchor="start" x="13" y="-7.5" font-family="Helvetica,sans-Serif" font-size="10.00">+ operator()()</text>
</g>
<!-- Node2 -->
<g id="node2" class="node"><title>Node2</title>
<g id="a_node2"><a xlink:href="../../de/d9a/classHarness_1_1NoAfterlife.html" target="_top" xlink:title="Base class that asserts that no operations are made with the object after its destruction. ">
<polygon fill="white" stroke="black" points="0,-105.5 0,-217.5 113,-217.5 113,-105.5 0,-105.5"/>
<text text-anchor="middle" x="56.5" y="-205.5" font-family="Helvetica,sans-Serif" font-size="10.00">Harness::NoAfterlife</text>
<polyline fill="none" stroke="black" points="0,-198.5 113,-198.5 "/>
<text text-anchor="start" x="8" y="-186.5" font-family="Helvetica,sans-Serif" font-size="10.00"># m_state</text>
<polyline fill="none" stroke="black" points="0,-179.5 113,-179.5 "/>
<text text-anchor="start" x="8" y="-167.5" font-family="Helvetica,sans-Serif" font-size="10.00">+ NoAfterlife()</text>
<text text-anchor="start" x="8" y="-156.5" font-family="Helvetica,sans-Serif" font-size="10.00">+ NoAfterlife()</text>
<text text-anchor="start" x="8" y="-145.5" font-family="Helvetica,sans-Serif" font-size="10.00">+ ~NoAfterlife()</text>
<text text-anchor="start" x="8" y="-134.5" font-family="Helvetica,sans-Serif" font-size="10.00">+ operator=()</text>
<text text-anchor="start" x="8" y="-123.5" font-family="Helvetica,sans-Serif" font-size="10.00">+ AssertLive()</text>
<text text-anchor="start" x="8" y="-112.5" font-family="Helvetica,sans-Serif" font-size="10.00">+ IsLive()</text>
</a>
</g>
</g>
<!-- Node2&#45;&gt;Node1 -->
<g id="edge1" class="edge"><title>Node2&#45;&gt;Node1</title>
<path fill="none" stroke="#8b1a1a" d="M56.5,-95.2571C56.5,-85.9867 56.5,-76.797 56.5,-68.5058"/>
<polygon fill="none" stroke="#8b1a1a" points="53.0001,-95.3093 56.5,-105.309 60.0001,-95.3094 53.0001,-95.3093"/>
</g>
</g>
</svg>
