<?xml version="1.0" encoding="UTF-8" standalone="no"?>
<!DOCTYPE svg PUBLIC "-//W3C//DTD SVG 1.1//EN"
 "http://www.w3.org/Graphics/SVG/1.1/DTD/svg11.dtd">
<!-- Generated by graphviz version 2.38.0 (20140413.2041)
 -->
<!-- Title: /home/travis/build/ComPWA/ComPWA/ThirdParty/EvtGen/EvtDalitzPoint.hh Pages: 1 -->
<svg width="369pt" height="218pt"
 viewBox="0.00 0.00 369.00 218.00" xmlns="http://www.w3.org/2000/svg" xmlns:xlink="http://www.w3.org/1999/xlink">
<g id="graph0" class="graph" transform="scale(1 1) rotate(0) translate(4 214)">
<title>/home/travis/build/ComPWA/ComPWA/ThirdParty/EvtGen/EvtDalitzPoint.hh</title>
<polygon fill="white" stroke="none" points="-4,4 -4,-214 365,-214 365,4 -4,4"/>
<!-- Node1 -->
<g id="node1" class="node"><title>Node1</title>
<polygon fill="#bfbfbf" stroke="black" points="51,-168.5 51,-209.5 209,-209.5 209,-168.5 51,-168.5"/>
<text text-anchor="start" x="59" y="-197.5" font-family="Helvetica,sans-Serif" font-size="10.00">/home/travis/build</text>
<text text-anchor="start" x="59" y="-186.5" font-family="Helvetica,sans-Serif" font-size="10.00">/ComPWA/ComPWA/ThirdParty</text>
<text text-anchor="middle" x="130" y="-175.5" font-family="Helvetica,sans-Serif" font-size="10.00">/EvtGen/EvtDalitzPoint.hh</text>
</g>
<!-- Node2 -->
<g id="node2" class="node"><title>Node2</title>
<g id="a_node2"><a xlink:href="../../db/d17/EvtCyclic3_8hh.html" target="_top" xlink:title="EvtCyclic3.hh">
<polygon fill="white" stroke="black" points="71,-56.5 71,-75.5 151,-75.5 151,-56.5 71,-56.5"/>
<text text-anchor="middle" x="111" y="-63.5" font-family="Helvetica,sans-Serif" font-size="10.00">EvtCyclic3.hh</text>
</a>
</g>
</g>
<!-- Node1&#45;&gt;Node2 -->
<g id="edge1" class="edge"><title>Node1&#45;&gt;Node2</title>
<path fill="none" stroke="midnightblue" d="M126.905,-168.29C123.307,-145.375 117.414,-107.846 113.901,-85.4732"/>
<polygon fill="midnightblue" stroke="midnightblue" points="117.355,-84.9108 112.346,-75.5748 110.44,-85.9967 117.355,-84.9108"/>
</g>
<!-- Node4 -->
<g id="node4" class="node"><title>Node4</title>
<g id="a_node4"><a xlink:href="../../d9/dc3/EvtDalitzCoord_8hh.html" target="_top" xlink:title="EvtDalitzCoord.hh">
<polygon fill="white" stroke="black" points="0,-112.5 0,-131.5 102,-131.5 102,-112.5 0,-112.5"/>
<text text-anchor="middle" x="51" y="-119.5" font-family="Helvetica,sans-Serif" font-size="10.00">EvtDalitzCoord.hh</text>
</a>
</g>
</g>
<!-- Node1&#45;&gt;Node4 -->
<g id="edge3" class="edge"><title>Node1&#45;&gt;Node4</title>
<path fill="none" stroke="midnightblue" d="M106.297,-168.498C94.4181,-158.724 80.2566,-147.072 69.2388,-138.007"/>
<polygon fill="midnightblue" stroke="midnightblue" points="71.462,-135.303 61.5161,-131.652 67.0145,-140.709 71.462,-135.303"/>
</g>
<!-- Node6 -->
<g id="node6" class="node"><title>Node6</title>
<g id="a_node6"><a xlink:href="../../d8/d51/EvtDalitzPlot_8hh.html" target="_top" xlink:title="EvtDalitzPlot.hh">
<polygon fill="white" stroke="black" points="174,-112.5 174,-131.5 266,-131.5 266,-112.5 174,-112.5"/>
<text text-anchor="middle" x="220" y="-119.5" font-family="Helvetica,sans-Serif" font-size="10.00">EvtDalitzPlot.hh</text>
</a>
</g>
</g>
<!-- Node1&#45;&gt;Node6 -->
<g id="edge6" class="edge"><title>Node1&#45;&gt;Node6</title>
<path fill="none" stroke="midnightblue" d="M157.003,-168.498C170.669,-158.628 186.986,-146.843 199.59,-137.741"/>
<polygon fill="midnightblue" stroke="midnightblue" points="201.962,-140.345 208.02,-131.652 197.864,-134.67 201.962,-140.345"/>
</g>
<!-- Node3 -->
<g id="node3" class="node"><title>Node3</title>
<polygon fill="white" stroke="#bfbfbf" points="176,-0.5 176,-19.5 222,-19.5 222,-0.5 176,-0.5"/>
<text text-anchor="middle" x="199" y="-7.5" font-family="Helvetica,sans-Serif" font-size="10.00">iosfwd</text>
</g>
<!-- Node2&#45;&gt;Node3 -->
<g id="edge2" class="edge"><title>Node2&#45;&gt;Node3</title>
<path fill="none" stroke="midnightblue" d="M125.139,-56.324C138.866,-47.9002 159.936,-34.9709 176.064,-25.0741"/>
<polygon fill="midnightblue" stroke="midnightblue" points="178.204,-27.8678 184.896,-19.6545 174.543,-21.9016 178.204,-27.8678"/>
</g>
<!-- Node4&#45;&gt;Node2 -->
<g id="edge4" class="edge"><title>Node4&#45;&gt;Node2</title>
<path fill="none" stroke="midnightblue" d="M60.64,-112.324C69.5096,-104.341 82.8747,-92.3128 93.6079,-82.6529"/>
<polygon fill="midnightblue" stroke="midnightblue" points="96.093,-85.1251 101.185,-75.8339 91.4102,-79.922 96.093,-85.1251"/>
</g>
<!-- Node5 -->
<g id="node5" class="node"><title>Node5</title>
<polygon fill="white" stroke="#bfbfbf" points="70.5,-0.5 70.5,-19.5 129.5,-19.5 129.5,-0.5 70.5,-0.5"/>
<text text-anchor="middle" x="100" y="-7.5" font-family="Helvetica,sans-Serif" font-size="10.00">iostream</text>
</g>
<!-- Node4&#45;&gt;Node5 -->
<g id="edge5" class="edge"><title>Node4&#45;&gt;Node5</title>
<path fill="none" stroke="midnightblue" d="M51.0401,-112.156C51.4132,-99.2307 53.3286,-74.6875 62,-56 67.0357,-45.1477 75.4058,-34.8156 83.0106,-26.795"/>
<polygon fill="midnightblue" stroke="midnightblue" points="85.6029,-29.1527 90.2085,-19.6112 80.658,-24.1981 85.6029,-29.1527"/>
</g>
<!-- Node6&#45;&gt;Node2 -->
<g id="edge8" class="edge"><title>Node6&#45;&gt;Node2</title>
<path fill="none" stroke="midnightblue" d="M202.487,-112.324C184.928,-103.625 157.669,-90.1202 137.469,-80.113"/>
<polygon fill="midnightblue" stroke="midnightblue" points="138.984,-76.9575 128.469,-75.6545 135.876,-83.23 138.984,-76.9575"/>
</g>
<!-- Node7 -->
<g id="node7" class="node"><title>Node7</title>
<polygon fill="white" stroke="#bfbfbf" points="305,-56.5 305,-75.5 361,-75.5 361,-56.5 305,-56.5"/>
<text text-anchor="middle" x="333" y="-63.5" font-family="Helvetica,sans-Serif" font-size="10.00">assert.h</text>
</g>
<!-- Node6&#45;&gt;Node7 -->
<g id="edge7" class="edge"><title>Node6&#45;&gt;Node7</title>
<path fill="none" stroke="midnightblue" d="M237.905,-112.444C256.254,-103.675 285.005,-89.9355 306.094,-79.8579"/>
<polygon fill="midnightblue" stroke="midnightblue" points="307.665,-82.9862 315.179,-75.5164 304.647,-76.6703 307.665,-82.9862"/>
</g>
<!-- Node8 -->
<g id="node8" class="node"><title>Node8</title>
<g id="a_node8"><a xlink:href="../../d9/d53/EvtTwoBodyVertex_8hh.html" target="_top" xlink:title="EvtTwoBodyVertex.hh">
<polygon fill="white" stroke="red" points="169,-56.5 169,-75.5 287,-75.5 287,-56.5 169,-56.5"/>
<text text-anchor="middle" x="228" y="-63.5" font-family="Helvetica,sans-Serif" font-size="10.00">EvtTwoBodyVertex.hh</text>
</a>
</g>
</g>
<!-- Node6&#45;&gt;Node8 -->
<g id="edge9" class="edge"><title>Node6&#45;&gt;Node8</title>
<path fill="none" stroke="midnightblue" d="M221.321,-112.083C222.381,-104.927 223.906,-94.6353 225.231,-85.6911"/>
<polygon fill="midnightblue" stroke="midnightblue" points="228.7,-86.1561 226.704,-75.7511 221.776,-85.1302 228.7,-86.1561"/>
</g>
<!-- Node8&#45;&gt;Node3 -->
<g id="edge11" class="edge"><title>Node8&#45;&gt;Node3</title>
<path fill="none" stroke="midnightblue" d="M223.211,-56.083C219.242,-48.6913 213.475,-37.9533 208.565,-28.8111"/>
<polygon fill="midnightblue" stroke="midnightblue" points="211.514,-26.9051 203.7,-19.7511 205.347,-30.217 211.514,-26.9051"/>
</g>
<!-- Node8&#45;&gt;Node5 -->
<g id="edge10" class="edge"><title>Node8&#45;&gt;Node5</title>
<path fill="none" stroke="midnightblue" d="M207.718,-56.4435C186.653,-47.5566 153.483,-33.5632 129.514,-23.4514"/>
<polygon fill="midnightblue" stroke="midnightblue" points="130.761,-20.1787 120.187,-19.5164 128.04,-26.6283 130.761,-20.1787"/>
</g>
</g>
</svg>
