<?xml version="1.0" encoding="UTF-8" standalone="no"?>
<!DOCTYPE svg PUBLIC "-//W3C//DTD SVG 1.1//EN"
 "http://www.w3.org/Graphics/SVG/1.1/DTD/svg11.dtd">
<!-- Generated by graphviz version 2.38.0 (20140413.2041)
 -->
<!-- Title: source_body&lt; TT &gt; Pages: 1 -->
<svg width="208pt" height="464pt"
 viewBox="0.00 0.00 207.50 464.00" xmlns="http://www.w3.org/2000/svg" xmlns:xlink="http://www.w3.org/1999/xlink">
<g id="graph0" class="graph" transform="scale(1 1) rotate(0) translate(4 460)">
<title>source_body&lt; TT &gt;</title>
<polygon fill="white" stroke="none" points="-4,4 -4,-460 203.5,-460 203.5,4 -4,4"/>
<!-- Node1 -->
<g id="node1" class="node"><title>Node1</title>
<polygon fill="#bfbfbf" stroke="black" points="70.5,-0.5 70.5,-233.5 180.5,-233.5 180.5,-0.5 70.5,-0.5"/>
<text text-anchor="middle" x="125.5" y="-221.5" font-family="Helvetica,sans-Serif" font-size="10.00">source_body&lt; TT &gt;</text>
<polyline fill="none" stroke="black" points="70.5,-214.5 180.5,-214.5 "/>
<text text-anchor="start" x="78.5" y="-202.5" font-family="Helvetica,sans-Serif" font-size="10.00">+ counter</text>
<text text-anchor="start" x="78.5" y="-191.5" font-family="Helvetica,sans-Serif" font-size="10.00">&#45; my_mult</text>
<text text-anchor="start" x="78.5" y="-180.5" font-family="Helvetica,sans-Serif" font-size="10.00">&#45; addend</text>
<text text-anchor="start" x="78.5" y="-169.5" font-family="Helvetica,sans-Serif" font-size="10.00">&#45; ninvocations</text>
<text text-anchor="start" x="78.5" y="-158.5" font-family="Helvetica,sans-Serif" font-size="10.00">&#45; N</text>
<polyline fill="none" stroke="black" points="70.5,-151.5 180.5,-151.5 "/>
<text text-anchor="start" x="78.5" y="-139.5" font-family="Helvetica,sans-Serif" font-size="10.00">+ source_body()</text>
<text text-anchor="start" x="78.5" y="-128.5" font-family="Helvetica,sans-Serif" font-size="10.00">+ operator()()</text>
<text text-anchor="start" x="78.5" y="-117.5" font-family="Helvetica,sans-Serif" font-size="10.00">+ source_body()</text>
<text text-anchor="start" x="78.5" y="-106.5" font-family="Helvetica,sans-Serif" font-size="10.00">+ operator()()</text>
<text text-anchor="start" x="78.5" y="-95.5" font-family="Helvetica,sans-Serif" font-size="10.00">+ source_body()</text>
<text text-anchor="start" x="78.5" y="-84.5" font-family="Helvetica,sans-Serif" font-size="10.00">+ operator=()</text>
<text text-anchor="start" x="78.5" y="-73.5" font-family="Helvetica,sans-Serif" font-size="10.00">+ operator()()</text>
<text text-anchor="start" x="78.5" y="-62.5" font-family="Helvetica,sans-Serif" font-size="10.00">+ source_body()</text>
<text text-anchor="start" x="78.5" y="-51.5" font-family="Helvetica,sans-Serif" font-size="10.00">+ source_body()</text>
<text text-anchor="start" x="78.5" y="-40.5" font-family="Helvetica,sans-Serif" font-size="10.00">+ operator()()</text>
<text text-anchor="start" x="78.5" y="-29.5" font-family="Helvetica,sans-Serif" font-size="10.00">+ source_body()</text>
<text text-anchor="start" x="78.5" y="-18.5" font-family="Helvetica,sans-Serif" font-size="10.00">+ operator=()</text>
<text text-anchor="start" x="78.5" y="-7.5" font-family="Helvetica,sans-Serif" font-size="10.00">+ operator()()</text>
</g>
<!-- Node2 -->
<g id="node2" class="node"><title>Node2</title>
<g id="a_node2"><a xlink:href="../../d4/d32/structtbb_1_1atomic.html" target="_top" xlink:title="{tbb::atomic\&lt; int \&gt;\n||+ operator=()\l+ operator=()\l}">
<polygon fill="white" stroke="black" points="5.5,-281.5 5.5,-349.5 111.5,-349.5 111.5,-281.5 5.5,-281.5"/>
<text text-anchor="middle" x="58.5" y="-337.5" font-family="Helvetica,sans-Serif" font-size="10.00">tbb::atomic&lt; int &gt;</text>
<polyline fill="none" stroke="black" points="5.5,-330.5 111.5,-330.5 "/>
<text text-anchor="middle" x="58.5" y="-318.5" font-family="Helvetica,sans-Serif" font-size="10.00"> </text>
<polyline fill="none" stroke="black" points="5.5,-311.5 111.5,-311.5 "/>
<text text-anchor="start" x="13.5" y="-299.5" font-family="Helvetica,sans-Serif" font-size="10.00">+ operator=()</text>
<text text-anchor="start" x="13.5" y="-288.5" font-family="Helvetica,sans-Serif" font-size="10.00">+ operator=()</text>
</a>
</g>
</g>
<!-- Node2&#45;&gt;Node1 -->
<g id="edge1" class="edge"><title>Node2&#45;&gt;Node1</title>
<path fill="none" stroke="#404040" d="M69.8656,-281.166C73.4463,-270.665 77.6376,-258.373 82.0851,-245.329"/>
<polygon fill="none" stroke="#404040" points="82.1778,-245.057 80.3282,-238.087 86.0506,-233.699 87.9002,-240.669 82.1778,-245.057"/>
<text text-anchor="middle" x="106" y="-255" font-family="Helvetica,sans-Serif" font-size="10.00"> &#45;my_count</text>
</g>
<!-- Node3 -->
<g id="node3" class="node"><title>Node3</title>
<polygon fill="white" stroke="#bfbfbf" points="0,-387.5 0,-455.5 117,-455.5 117,-387.5 0,-387.5"/>
<text text-anchor="start" x="8" y="-443.5" font-family="Helvetica,sans-Serif" font-size="10.00">internal::atomic_impl</text>
<text text-anchor="middle" x="58.5" y="-432.5" font-family="Helvetica,sans-Serif" font-size="10.00">&lt; int &gt;</text>
<polyline fill="none" stroke="#bfbfbf" points="0,-425.5 117,-425.5 "/>
<text text-anchor="middle" x="58.5" y="-413.5" font-family="Helvetica,sans-Serif" font-size="10.00"> </text>
<polyline fill="none" stroke="#bfbfbf" points="0,-406.5 117,-406.5 "/>
<text text-anchor="middle" x="58.5" y="-394.5" font-family="Helvetica,sans-Serif" font-size="10.00"> </text>
</g>
<!-- Node3&#45;&gt;Node2 -->
<g id="edge2" class="edge"><title>Node3&#45;&gt;Node2</title>
<path fill="none" stroke="midnightblue" d="M58.5,-377.174C58.5,-368.002 58.5,-358.461 58.5,-349.734"/>
<polygon fill="none" stroke="midnightblue" points="55.0001,-377.308 58.5,-387.308 62.0001,-377.308 55.0001,-377.308"/>
</g>
<!-- Node4 -->
<g id="node4" class="node"><title>Node4</title>
<polygon fill="white" stroke="#bfbfbf" points="129.5,-287 129.5,-344 199.5,-344 199.5,-287 129.5,-287"/>
<text text-anchor="middle" x="164.5" y="-332" font-family="Helvetica,sans-Serif" font-size="10.00">task_arena</text>
<polyline fill="none" stroke="#bfbfbf" points="129.5,-325 199.5,-325 "/>
<text text-anchor="middle" x="164.5" y="-313" font-family="Helvetica,sans-Serif" font-size="10.00"> </text>
<polyline fill="none" stroke="#bfbfbf" points="129.5,-306 199.5,-306 "/>
<text text-anchor="middle" x="164.5" y="-294" font-family="Helvetica,sans-Serif" font-size="10.00"> </text>
</g>
<!-- Node4&#45;&gt;Node1 -->
<g id="edge3" class="edge"><title>Node4&#45;&gt;Node1</title>
<path fill="none" stroke="#404040" d="M158.995,-286.763C156.703,-275.214 153.865,-260.917 150.819,-245.569"/>
<polygon fill="none" stroke="#404040" points="150.791,-245.426 145.699,-240.319 148.455,-233.655 153.546,-238.762 150.791,-245.426"/>
<text text-anchor="middle" x="172.5" y="-255" font-family="Helvetica,sans-Serif" font-size="10.00"> +my_a</text>
</g>
</g>
</svg>
