<?xml version="1.0" encoding="UTF-8" standalone="no"?>
<!DOCTYPE svg PUBLIC "-//W3C//DTD SVG 1.1//EN"
 "http://www.w3.org/Graphics/SVG/1.1/DTD/svg11.dtd">
<!-- Generated by graphviz version 2.38.0 (20140413.2041)
 -->
<!-- Title: QueuingMutex_Context Pages: 1 -->
<!--zoomable 536 -->
<svg id="main" version="1.1" xmlns="http://www.w3.org/2000/svg" xmlns:xlink="http://www.w3.org/1999/xlink" xml:space="preserve" onload="init(evt)">
<style type="text/css"><![CDATA[
.edge:hover path { stroke: red; }
.edge:hover polygon { stroke: red; fill: red; }
]]></style>
<script type="text/javascript"><![CDATA[
var edges = document.getElementsByTagName('g');
if (edges && edges.length) {
  for (var i=0;i<edges.length;i++) {
    if (edges[i].id.substr(0,4)=='edge') {
      edges[i].setAttribute('class','edge');
    }
  }
}
]]></script>
        <defs>
                <circle id="rim" cx="0" cy="0" r="7"/>
                <circle id="rim2" cx="0" cy="0" r="3.5"/>
                <g id="zoomPlus">
                        <use xlink:href="#rim" fill="#404040">
                                <set attributeName="fill" to="#808080" begin="zoomplus.mouseover" end="zoomplus.mouseout"/>
                        </use>
                        <path d="M-4,0h8M0,-4v8" fill="none" stroke="white" stroke-width="1.5" pointer-events="none"/>
                </g>
                <g id="zoomMin">
                        <use xlink:href="#rim" fill="#404040">
                                <set attributeName="fill" to="#808080" begin="zoomminus.mouseover" end="zoomminus.mouseout"/>
                        </use>
                        <path d="M-4,0h8" fill="none" stroke="white" stroke-width="1.5" pointer-events="none"/>
                </g>
                <g id="dirArrow">
                        <path fill="none" stroke="white" stroke-width="1.5" d="M0,-3.0v7 M-2.5,-0.5L0,-3.0L2.5,-0.5"/>
                </g>
               <g id="resetDef">
                       <use xlink:href="#rim2" fill="#404040">
                               <set attributeName="fill" to="#808080" begin="reset.mouseover" end="reset.mouseout"/>
                       </use>
               </g>
        </defs>

<script type="text/javascript">
var viewWidth = 294;
var viewHeight = 536;
var sectionId = 'dynsection-0';
</script>
<script xlink:href="../../svgpan.js"/>
<svg id="graph" class="graph">
<g id="viewport">
<title>QueuingMutex_Context</title>
<polygon fill="white" stroke="none" points="-4,4 -4,-532 290,-532 290,4 -4,4"/>
<!-- Node1 -->
<g id="node1" class="node"><title>Node1</title>
<polygon fill="#bfbfbf" stroke="black" points="21.5,-0.5 21.5,-68.5 168.5,-68.5 168.5,-0.5 21.5,-0.5"/>
<text text-anchor="middle" x="95" y="-56.5" font-family="Helvetica,sans-Serif" font-size="10.00">QueuingMutex_Context</text>
<polyline fill="none" stroke="black" points="21.5,-49.5 168.5,-49.5 "/>
<text text-anchor="middle" x="95" y="-37.5" font-family="Helvetica,sans-Serif" font-size="10.00"> </text>
<polyline fill="none" stroke="black" points="21.5,-30.5 168.5,-30.5 "/>
<text text-anchor="start" x="29.5" y="-18.5" font-family="Helvetica,sans-Serif" font-size="10.00">+ QueuingMutex_Context()</text>
<text text-anchor="start" x="29.5" y="-7.5" font-family="Helvetica,sans-Serif" font-size="10.00">+ operator()()</text>
</g>
<!-- Node2 -->
<g id="node2" class="node"><title>Node2</title>
<g id="a_node2"><a xlink:href="../../df/d53/classQueuingMutex_1_1ScopedLock.html" target="_top" xlink:title="The scoped locking pattern. ">
<polygon fill="white" stroke="black" points="20.5,-116.5 20.5,-239.5 169.5,-239.5 169.5,-116.5 20.5,-116.5"/>
<text text-anchor="middle" x="95" y="-227.5" font-family="Helvetica,sans-Serif" font-size="10.00">QueuingMutex::ScopedLock</text>
<polyline fill="none" stroke="black" points="20.5,-220.5 169.5,-220.5 "/>
<text text-anchor="start" x="28.5" y="-208.5" font-family="Helvetica,sans-Serif" font-size="10.00">&#45; going</text>
<polyline fill="none" stroke="black" points="20.5,-201.5 169.5,-201.5 "/>
<text text-anchor="start" x="28.5" y="-189.5" font-family="Helvetica,sans-Serif" font-size="10.00">+ ScopedLock()</text>
<text text-anchor="start" x="28.5" y="-178.5" font-family="Helvetica,sans-Serif" font-size="10.00">+ ScopedLock()</text>
<text text-anchor="start" x="28.5" y="-167.5" font-family="Helvetica,sans-Serif" font-size="10.00">+ ~ScopedLock()</text>
<text text-anchor="start" x="28.5" y="-156.5" font-family="Helvetica,sans-Serif" font-size="10.00">+ Acquire()</text>
<text text-anchor="start" x="28.5" y="-145.5" font-family="Helvetica,sans-Serif" font-size="10.00">+ Release()</text>
<text text-anchor="start" x="28.5" y="-134.5" font-family="Helvetica,sans-Serif" font-size="10.00">+ SleepPerhaps()</text>
<text text-anchor="start" x="28.5" y="-123.5" font-family="Helvetica,sans-Serif" font-size="10.00">&#45; Initialize()</text>
</a>
</g>
</g>
<!-- Node2&#45;&gt;Node1 -->
<g id="edge1" class="edge"><title>Node2&#45;&gt;Node1</title>
<path fill="none" stroke="#404040" d="M95,-116.17C95,-104.306 95,-92.0619 95,-80.8086"/>
<polygon fill="none" stroke="#404040" points="95.0001,-80.5973 91,-74.5973 95,-68.5973 99,-74.5973 95.0001,-80.5973"/>
<text text-anchor="middle" x="107.5" y="-90" font-family="Helvetica,sans-Serif" font-size="10.00"> +lck</text>
</g>
<!-- Node2&#45;&gt;Node2 -->
<g id="edge5" class="edge"><title>Node2&#45;&gt;Node2</title>
<path fill="none" stroke="#404040" d="M169.764,-192.134C180.378,-189.848 187.5,-185.137 187.5,-178 187.5,-173.874 185.12,-170.559 181.06,-168.054"/>
<polygon fill="none" stroke="#404040" points="181.016,-168.038 173.999,-169.702 169.764,-163.866 176.781,-162.201 181.016,-168.038"/>
<text text-anchor="middle" x="201.5" y="-175.5" font-family="Helvetica,sans-Serif" font-size="10.00"> &#45;next</text>
</g>
<!-- Node3 -->
<g id="node3" class="node"><title>Node3</title>
<polygon fill="white" stroke="#bfbfbf" points="0,-470.5 0,-527.5 56,-527.5 56,-470.5 0,-470.5"/>
<text text-anchor="middle" x="28" y="-515.5" font-family="Helvetica,sans-Serif" font-size="10.00">no_copy</text>
<polyline fill="none" stroke="#bfbfbf" points="0,-508.5 56,-508.5 "/>
<text text-anchor="middle" x="28" y="-496.5" font-family="Helvetica,sans-Serif" font-size="10.00"> </text>
<polyline fill="none" stroke="#bfbfbf" points="0,-489.5 56,-489.5 "/>
<text text-anchor="middle" x="28" y="-477.5" font-family="Helvetica,sans-Serif" font-size="10.00"> </text>
</g>
<!-- Node3&#45;&gt;Node2 -->
<g id="edge2" class="edge"><title>Node3&#45;&gt;Node2</title>
<path fill="none" stroke="#8b1a1a" d="M18.1197,-460.439C8.58922,-417.409 -1.85902,-345.323 17,-287 22.3726,-270.385 31.3605,-254.176 41.3641,-239.58"/>
<polygon fill="none" stroke="#8b1a1a" points="14.7152,-461.252 20.3785,-470.206 21.5351,-459.675 14.7152,-461.252"/>
</g>
<!-- Node4 -->
<g id="node4" class="node"><title>Node4</title>
<g id="a_node4"><a xlink:href="../../d6/d1b/classtbb_1_1internal_1_1concurrent__monitor_1_1thread__context.html" target="_top" xlink:title="per&#45;thread descriptor for concurrent_monitor ">
<polygon fill="white" stroke="red" points="26,-287.5 26,-432.5 164,-432.5 164,-287.5 26,-287.5"/>
<text text-anchor="start" x="34" y="-420.5" font-family="Helvetica,sans-Serif" font-size="10.00">tbb::internal::concurrent</text>
<text text-anchor="middle" x="95" y="-409.5" font-family="Helvetica,sans-Serif" font-size="10.00">_monitor::thread_context</text>
<polyline fill="none" stroke="red" points="26,-402.5 164,-402.5 "/>
<text text-anchor="start" x="34" y="-390.5" font-family="Helvetica,sans-Serif" font-size="10.00">&#45; epoch</text>
<text text-anchor="start" x="34" y="-379.5" font-family="Helvetica,sans-Serif" font-size="10.00">&#45; skipped_wakeup</text>
<text text-anchor="start" x="34" y="-368.5" font-family="Helvetica,sans-Serif" font-size="10.00">&#45; aborted</text>
<text text-anchor="start" x="34" y="-357.5" font-family="Helvetica,sans-Serif" font-size="10.00">&#45; ready</text>
<text text-anchor="start" x="34" y="-346.5" font-family="Helvetica,sans-Serif" font-size="10.00">&#45; context</text>
<polyline fill="none" stroke="red" points="26,-339.5 164,-339.5 "/>
<text text-anchor="start" x="34" y="-327.5" font-family="Helvetica,sans-Serif" font-size="10.00">+ thread_context()</text>
<text text-anchor="start" x="34" y="-316.5" font-family="Helvetica,sans-Serif" font-size="10.00">+ ~thread_context()</text>
<text text-anchor="start" x="34" y="-305.5" font-family="Helvetica,sans-Serif" font-size="10.00">+ semaphore()</text>
<text text-anchor="start" x="34" y="-294.5" font-family="Helvetica,sans-Serif" font-size="10.00">&#45; __TBB_NOINLINE()</text>
</a>
</g>
</g>
<!-- Node3&#45;&gt;Node4 -->
<g id="edge4" class="edge"><title>Node3&#45;&gt;Node4</title>
<path fill="none" stroke="#8b1a1a" d="M46.0653,-461.061C50.3953,-452.207 55.1655,-442.453 59.9777,-432.613"/>
<polygon fill="none" stroke="#8b1a1a" points="42.8076,-459.755 41.5584,-470.276 49.0959,-462.83 42.8076,-459.755"/>
</g>
<!-- Node4&#45;&gt;Node2 -->
<g id="edge3" class="edge"><title>Node4&#45;&gt;Node2</title>
<path fill="none" stroke="#404040" d="M95,-287.342C95,-275.627 95,-263.479 95,-251.738"/>
<polygon fill="none" stroke="#404040" points="95.0001,-251.686 91,-245.686 95,-239.686 99,-245.686 95.0001,-251.686"/>
<text text-anchor="middle" x="115" y="-261" font-family="Helvetica,sans-Serif" font-size="10.00"> &#45;thr_ctx</text>
</g>
<!-- Node5 -->
<g id="node5" class="node"><title>Node5</title>
<g id="a_node5"><a xlink:href="../../df/dd9/classQueuingMutex.html" target="_top" xlink:title="Queuing lock with concurrent_monitor; to test concurrent_monitor::notify( Predicate p ) ...">
<polygon fill="white" stroke="red" points="182,-331.5 182,-388.5 286,-388.5 286,-331.5 182,-331.5"/>
<text text-anchor="middle" x="234" y="-376.5" font-family="Helvetica,sans-Serif" font-size="10.00">QueuingMutex</text>
<polyline fill="none" stroke="red" points="182,-369.5 286,-369.5 "/>
<text text-anchor="start" x="190" y="-357.5" font-family="Helvetica,sans-Serif" font-size="10.00">&#45; waitq</text>
<polyline fill="none" stroke="red" points="182,-350.5 286,-350.5 "/>
<text text-anchor="start" x="190" y="-338.5" font-family="Helvetica,sans-Serif" font-size="10.00">+ QueuingMutex()</text>
</a>
</g>
</g>
<!-- Node5&#45;&gt;Node2 -->
<g id="edge6" class="edge"><title>Node5&#45;&gt;Node2</title>
<path fill="none" stroke="#404040" d="M212.586,-331.269C195.686,-309.385 171.347,-277.866 149.191,-249.176"/>
<polygon fill="none" stroke="#404040" points="149.11,-249.07 142.277,-246.766 141.775,-239.572 148.608,-241.876 149.11,-249.07"/>
<text text-anchor="middle" x="183" y="-261" font-family="Helvetica,sans-Serif" font-size="10.00"> &#45;mutex</text>
</g>
</g>
</svg>
        <g id="navigator" transform="translate(0 0)" fill="#404254">
                <rect fill="#f2f5e9" fill-opacity="0.5" stroke="#606060" stroke-width=".5" x="0" y="0" width="60" height="60"/>
                <use id="zoomplus" xlink:href="#zoomPlus" x="17" y="9" onmousedown="handleZoom(evt,'in')"/>
                <use id="zoomminus" xlink:href="#zoomMin" x="42" y="9" onmousedown="handleZoom(evt,'out')"/>
                <use id="reset" xlink:href="#resetDef" x="30" y="36" onmousedown="handleReset()"/>
                <g id="arrowUp" xlink:href="#dirArrow" transform="translate(30 24)" onmousedown="handlePan(0,-1)">
                  <use xlink:href="#rim" fill="#404040">
                        <set attributeName="fill" to="#808080" begin="arrowUp.mouseover" end="arrowUp.mouseout"/>
                  </use>
                  <path fill="none" stroke="white" stroke-width="1.5" d="M0,-3.0v7 M-2.5,-0.5L0,-3.0L2.5,-0.5"/>
                </g>
                <g id="arrowRight" xlink:href="#dirArrow" transform="rotate(90) translate(36 -43)" onmousedown="handlePan(1,0)">
                  <use xlink:href="#rim" fill="#404040">
                        <set attributeName="fill" to="#808080" begin="arrowRight.mouseover" end="arrowRight.mouseout"/>
                  </use>
                  <path fill="none" stroke="white" stroke-width="1.5" d="M0,-3.0v7 M-2.5,-0.5L0,-3.0L2.5,-0.5"/>
                </g>
                <g id="arrowDown" xlink:href="#dirArrow" transform="rotate(180) translate(-30 -48)" onmousedown="handlePan(0,1)">
                  <use xlink:href="#rim" fill="#404040">
                        <set attributeName="fill" to="#808080" begin="arrowDown.mouseover" end="arrowDown.mouseout"/>
                  </use>
                  <path fill="none" stroke="white" stroke-width="1.5" d="M0,-3.0v7 M-2.5,-0.5L0,-3.0L2.5,-0.5"/>
                </g>
                <g id="arrowLeft" xlink:href="#dirArrow" transform="rotate(270) translate(-36 17)" onmousedown="handlePan(-1,0)">
                  <use xlink:href="#rim" fill="#404040">
                        <set attributeName="fill" to="#808080" begin="arrowLeft.mouseover" end="arrowLeft.mouseout"/>
                  </use>
                  <path fill="none" stroke="white" stroke-width="1.5" d="M0,-3.0v7 M-2.5,-0.5L0,-3.0L2.5,-0.5"/>
                </g>
        </g>
        <svg viewBox="0 0 15 15" width="100%" height="30px" preserveAspectRatio="xMaxYMin meet">
         <g id="arrow_out" transform="scale(0.3 0.3)">
          <a xlink:href="structQueuingMutex__Context__coll__graph_org.svg" target="_base">
           <rect id="button" ry="5" rx="5" y="6" x="6" height="38" width="38"
                fill="#f2f5e9" fill-opacity="0.5" stroke="#606060" stroke-width="1.0"/>
           <path id="arrow"
             d="M 11.500037,31.436501 C 11.940474,20.09759 22.043105,11.32322 32.158766,21.979434 L 37.068811,17.246167 C 37.068811,17.246167 37.088388,32 37.088388,32 L 22.160133,31.978069 C 22.160133,31.978069 26.997745,27.140456 26.997745,27.140456 C 18.528582,18.264221 13.291696,25.230495 11.500037,31.436501 z"
             style="fill:#404040;"/>
          </a>
         </g>
        </svg>
</svg>
