<?xml version="1.0" encoding="UTF-8" standalone="no"?>
<!DOCTYPE svg PUBLIC "-//W3C//DTD SVG 1.1//EN"
 "http://www.w3.org/Graphics/SVG/1.1/DTD/svg11.dtd">
<!-- Generated by graphviz version 2.38.0 (20140413.2041)
 -->
<!-- Title: limit_allocated_items_in_scope&lt; static_counter_allocator_type &gt; Pages: 1 -->
<svg width="200pt" height="343pt"
 viewBox="0.00 0.00 200.00 343.00" xmlns="http://www.w3.org/2000/svg" xmlns:xlink="http://www.w3.org/1999/xlink">
<g id="graph0" class="graph" transform="scale(1 1) rotate(0) translate(4 339)">
<title>limit_allocated_items_in_scope&lt; static_counter_allocator_type &gt;</title>
<polygon fill="white" stroke="none" points="-4,4 -4,-339 196,-339 196,4 -4,4"/>
<!-- Node1 -->
<g id="node1" class="node"><title>Node1</title>
<polygon fill="#bfbfbf" stroke="black" points="25.5,-0.5 25.5,-112.5 168.5,-112.5 168.5,-0.5 25.5,-0.5"/>
<text text-anchor="start" x="33.5" y="-100.5" font-family="Helvetica,sans-Serif" font-size="10.00">limit_allocated_items</text>
<text text-anchor="start" x="33.5" y="-89.5" font-family="Helvetica,sans-Serif" font-size="10.00">_in_scope&lt; static_counter</text>
<text text-anchor="middle" x="97" y="-78.5" font-family="Helvetica,sans-Serif" font-size="10.00">_allocator_type &gt;</text>
<polyline fill="none" stroke="black" points="25.5,-71.5 168.5,-71.5 "/>
<text text-anchor="start" x="33.5" y="-59.5" font-family="Helvetica,sans-Serif" font-size="10.00">+ active</text>
<polyline fill="none" stroke="black" points="25.5,-52.5 168.5,-52.5 "/>
<text text-anchor="start" x="33.5" y="-40.5" font-family="Helvetica,sans-Serif" font-size="10.00">+ limit_allocated_items</text>
<text text-anchor="start" x="33.5" y="-29.5" font-family="Helvetica,sans-Serif" font-size="10.00">_in_scope()</text>
<text text-anchor="start" x="33.5" y="-18.5" font-family="Helvetica,sans-Serif" font-size="10.00">+ ~limit_allocated_items</text>
<text text-anchor="start" x="33.5" y="-7.5" font-family="Helvetica,sans-Serif" font-size="10.00">_in_scope()</text>
</g>
<!-- Node2 -->
<g id="node2" class="node"><title>Node2</title>
<g id="a_node2"><a xlink:href="../../d3/d51/classNoCopy.html" target="_top" xlink:title="Base class for prohibiting compiler&#45;generated copy constructor or operator=. ">
<polygon fill="white" stroke="black" points="3.5,-160.5 3.5,-228.5 76.5,-228.5 76.5,-160.5 3.5,-160.5"/>
<text text-anchor="middle" x="40" y="-216.5" font-family="Helvetica,sans-Serif" font-size="10.00">NoCopy</text>
<polyline fill="none" stroke="black" points="3.5,-209.5 76.5,-209.5 "/>
<text text-anchor="middle" x="40" y="-197.5" font-family="Helvetica,sans-Serif" font-size="10.00"> </text>
<polyline fill="none" stroke="black" points="3.5,-190.5 76.5,-190.5 "/>
<text text-anchor="start" x="11.5" y="-178.5" font-family="Helvetica,sans-Serif" font-size="10.00">+ NoCopy()</text>
<text text-anchor="start" x="11.5" y="-167.5" font-family="Helvetica,sans-Serif" font-size="10.00">&#45; NoCopy()</text>
</a>
</g>
</g>
<!-- Node2&#45;&gt;Node1 -->
<g id="edge1" class="edge"><title>Node2&#45;&gt;Node1</title>
<path fill="none" stroke="midnightblue" d="M57.8817,-150.835C62.9503,-138.741 68.5418,-125.4 73.8731,-112.68"/>
<polygon fill="none" stroke="midnightblue" points="54.5813,-149.655 53.9438,-160.231 61.0372,-152.361 54.5813,-149.655"/>
</g>
<!-- Node3 -->
<g id="node3" class="node"><title>Node3</title>
<g id="a_node3"><a xlink:href="../../d8/dab/classNoAssign.html" target="_top" xlink:title="Base class for prohibiting compiler&#45;generated operator=. ">
<polygon fill="white" stroke="black" points="0,-266.5 0,-334.5 80,-334.5 80,-266.5 0,-266.5"/>
<text text-anchor="middle" x="40" y="-322.5" font-family="Helvetica,sans-Serif" font-size="10.00">NoAssign</text>
<polyline fill="none" stroke="black" points="0,-315.5 80,-315.5 "/>
<text text-anchor="middle" x="40" y="-303.5" font-family="Helvetica,sans-Serif" font-size="10.00"> </text>
<polyline fill="none" stroke="black" points="0,-296.5 80,-296.5 "/>
<text text-anchor="start" x="8" y="-284.5" font-family="Helvetica,sans-Serif" font-size="10.00">+ NoAssign()</text>
<text text-anchor="start" x="8" y="-273.5" font-family="Helvetica,sans-Serif" font-size="10.00">&#45; operator=()</text>
</a>
</g>
</g>
<!-- Node3&#45;&gt;Node2 -->
<g id="edge2" class="edge"><title>Node3&#45;&gt;Node2</title>
<path fill="none" stroke="#8b1a1a" d="M40,-256.174C40,-247.002 40,-237.461 40,-228.734"/>
<polygon fill="none" stroke="#8b1a1a" points="36.5001,-256.308 40,-266.308 43.5001,-256.308 36.5001,-256.308"/>
</g>
<!-- Node4 -->
<g id="node4" class="node"><title>Node4</title>
<polygon fill="white" stroke="#bfbfbf" points="95,-166 95,-223 139,-223 139,-166 95,-166"/>
<text text-anchor="middle" x="117" y="-211" font-family="Helvetica,sans-Serif" font-size="10.00">size_t</text>
<polyline fill="none" stroke="#bfbfbf" points="95,-204 139,-204 "/>
<text text-anchor="middle" x="117" y="-192" font-family="Helvetica,sans-Serif" font-size="10.00"> </text>
<polyline fill="none" stroke="#bfbfbf" points="95,-185 139,-185 "/>
<text text-anchor="middle" x="117" y="-173" font-family="Helvetica,sans-Serif" font-size="10.00"> </text>
</g>
<!-- Node4&#45;&gt;Node1 -->
<g id="edge3" class="edge"><title>Node4&#45;&gt;Node1</title>
<path fill="none" stroke="#404040" d="M112.953,-165.978C111.187,-153.972 109.032,-139.319 106.884,-124.714"/>
<polygon fill="none" stroke="#404040" points="106.837,-124.389 102.006,-119.034 105.091,-112.516 109.921,-117.87 106.837,-124.389"/>
<text text-anchor="middle" x="151" y="-134" font-family="Helvetica,sans-Serif" font-size="10.00"> +previous_state</text>
</g>
</g>
</svg>
