<?xml version="1.0" encoding="UTF-8" standalone="no"?>
<!DOCTYPE svg PUBLIC "-//W3C//DTD SVG 1.1//EN"
 "http://www.w3.org/Graphics/SVG/1.1/DTD/svg11.dtd">
<!-- Generated by graphviz version 2.38.0 (20140413.2041)
 -->
<!-- Title: WorkForCondVarWaitPredAndNotifyAll&lt; M &gt; Pages: 1 -->
<svg width="210pt" height="237pt"
 viewBox="0.00 0.00 209.50 237.00" xmlns="http://www.w3.org/2000/svg" xmlns:xlink="http://www.w3.org/1999/xlink">
<g id="graph0" class="graph" transform="scale(1 1) rotate(0) translate(4 233)">
<title>WorkForCondVarWaitPredAndNotifyAll&lt; M &gt;</title>
<polygon fill="white" stroke="none" points="-4,4 -4,-233 205.5,-233 205.5,4 -4,4"/>
<!-- Node1 -->
<g id="node1" class="node"><title>Node1</title>
<polygon fill="#bfbfbf" stroke="black" points="12,-0.5 12,-112.5 178,-112.5 178,-0.5 12,-0.5"/>
<text text-anchor="start" x="20" y="-100.5" font-family="Helvetica,sans-Serif" font-size="10.00">WorkForCondVarWaitPredAnd</text>
<text text-anchor="middle" x="95" y="-89.5" font-family="Helvetica,sans-Serif" font-size="10.00">NotifyAll&lt; M &gt;</text>
<polyline fill="none" stroke="black" points="12,-82.5 178,-82.5 "/>
<text text-anchor="start" x="20" y="-70.5" font-family="Helvetica,sans-Serif" font-size="10.00">+ nthread</text>
<text text-anchor="start" x="20" y="-59.5" font-family="Helvetica,sans-Serif" font-size="10.00">+ my_mtx</text>
<text text-anchor="start" x="20" y="-48.5" font-family="Helvetica,sans-Serif" font-size="10.00">+ multiple</text>
<polyline fill="none" stroke="black" points="12,-41.5 178,-41.5 "/>
<text text-anchor="start" x="20" y="-29.5" font-family="Helvetica,sans-Serif" font-size="10.00">+ WorkForCondVarWaitPredAnd</text>
<text text-anchor="start" x="20" y="-18.5" font-family="Helvetica,sans-Serif" font-size="10.00">NotifyAll()</text>
<text text-anchor="start" x="20" y="-7.5" font-family="Helvetica,sans-Serif" font-size="10.00">+ operator()()</text>
</g>
<!-- Node2 -->
<g id="node2" class="node"><title>Node2</title>
<g id="a_node2"><a xlink:href="../../d8/dab/classNoAssign.html" target="_top" xlink:title="Base class for prohibiting compiler&#45;generated operator=. ">
<polygon fill="white" stroke="black" points="0,-160.5 0,-228.5 80,-228.5 80,-160.5 0,-160.5"/>
<text text-anchor="middle" x="40" y="-216.5" font-family="Helvetica,sans-Serif" font-size="10.00">NoAssign</text>
<polyline fill="none" stroke="black" points="0,-209.5 80,-209.5 "/>
<text text-anchor="middle" x="40" y="-197.5" font-family="Helvetica,sans-Serif" font-size="10.00"> </text>
<polyline fill="none" stroke="black" points="0,-190.5 80,-190.5 "/>
<text text-anchor="start" x="8" y="-178.5" font-family="Helvetica,sans-Serif" font-size="10.00">+ NoAssign()</text>
<text text-anchor="start" x="8" y="-167.5" font-family="Helvetica,sans-Serif" font-size="10.00">&#45; operator=()</text>
</a>
</g>
</g>
<!-- Node2&#45;&gt;Node1 -->
<g id="edge1" class="edge"><title>Node2&#45;&gt;Node1</title>
<path fill="none" stroke="midnightblue" d="M57.2543,-150.835C62.1451,-138.741 67.5404,-125.4 72.6845,-112.68"/>
<polygon fill="none" stroke="midnightblue" points="53.959,-149.648 53.4545,-160.231 60.4484,-152.272 53.959,-149.648"/>
</g>
<!-- Node3 -->
<g id="node3" class="node"><title>Node3</title>
<polygon fill="white" stroke="#bfbfbf" points="98.5,-166 98.5,-223 201.5,-223 201.5,-166 98.5,-166"/>
<text text-anchor="middle" x="150" y="-211" font-family="Helvetica,sans-Serif" font-size="10.00">condition_variable</text>
<polyline fill="none" stroke="#bfbfbf" points="98.5,-204 201.5,-204 "/>
<text text-anchor="middle" x="150" y="-192" font-family="Helvetica,sans-Serif" font-size="10.00"> </text>
<polyline fill="none" stroke="#bfbfbf" points="98.5,-185 201.5,-185 "/>
<text text-anchor="middle" x="150" y="-173" font-family="Helvetica,sans-Serif" font-size="10.00"> </text>
</g>
<!-- Node3&#45;&gt;Node1 -->
<g id="edge2" class="edge"><title>Node3&#45;&gt;Node1</title>
<path fill="none" stroke="#404040" d="M138.87,-165.978C133.917,-153.732 127.851,-138.732 121.828,-123.838"/>
<polygon fill="none" stroke="#404040" points="121.748,-123.641 115.79,-119.578 117.249,-112.516 123.207,-116.579 121.748,-123.641"/>
<text text-anchor="middle" x="153" y="-134" font-family="Helvetica,sans-Serif" font-size="10.00"> +test_cv</text>
</g>
</g>
</svg>
