<?xml version="1.0" encoding="UTF-8" standalone="no"?>
<!DOCTYPE svg PUBLIC "-//W3C//DTD SVG 1.1//EN"
 "http://www.w3.org/Graphics/SVG/1.1/DTD/svg11.dtd">
<!-- Generated by graphviz version 2.38.0 (20140413.2041)
 -->
<!-- Title: /home/travis/build/ComPWA/ComPWA/ThirdParty/tbb/include/tbb/concurrent_hash_map.h Pages: 1 -->
<svg width="1086pt" height="250pt"
 viewBox="0.00 0.00 1086.00 250.00" xmlns="http://www.w3.org/2000/svg" xmlns:xlink="http://www.w3.org/1999/xlink">
<g id="graph0" class="graph" transform="scale(1 1) rotate(0) translate(4 246)">
<title>/home/travis/build/ComPWA/ComPWA/ThirdParty/tbb/include/tbb/concurrent_hash_map.h</title>
<polygon fill="white" stroke="none" points="-4,4 -4,-246 1082,-246 1082,4 -4,4"/>
<!-- Node1 -->
<g id="node1" class="node"><title>Node1</title>
<polygon fill="#bfbfbf" stroke="black" points="480,-189.5 480,-241.5 638,-241.5 638,-189.5 480,-189.5"/>
<text text-anchor="start" x="488" y="-229.5" font-family="Helvetica,sans-Serif" font-size="10.00">/home/travis/build</text>
<text text-anchor="start" x="488" y="-218.5" font-family="Helvetica,sans-Serif" font-size="10.00">/ComPWA/ComPWA/ThirdParty</text>
<text text-anchor="start" x="488" y="-207.5" font-family="Helvetica,sans-Serif" font-size="10.00">/tbb/include/tbb/concurrent</text>
<text text-anchor="middle" x="559" y="-196.5" font-family="Helvetica,sans-Serif" font-size="10.00">_hash_map.h</text>
</g>
<!-- Node2 -->
<g id="node2" class="node"><title>Node2</title>
<g id="a_node2"><a xlink:href="../../d2/d6f/count__strings_8cpp.html" target="_top" xlink:title="/home/travis/build\l/ComPWA/ComPWA/ThirdParty\l/tbb/examples/concurrent\l_hash_map/count_strings/count\l_strings.cpp">
<polygon fill="white" stroke="black" points="19,-89.5 19,-152.5 189,-152.5 189,-89.5 19,-89.5"/>
<text text-anchor="start" x="27" y="-140.5" font-family="Helvetica,sans-Serif" font-size="10.00">/home/travis/build</text>
<text text-anchor="start" x="27" y="-129.5" font-family="Helvetica,sans-Serif" font-size="10.00">/ComPWA/ComPWA/ThirdParty</text>
<text text-anchor="start" x="27" y="-118.5" font-family="Helvetica,sans-Serif" font-size="10.00">/tbb/examples/concurrent</text>
<text text-anchor="start" x="27" y="-107.5" font-family="Helvetica,sans-Serif" font-size="10.00">_hash_map/count_strings/count</text>
<text text-anchor="middle" x="104" y="-96.5" font-family="Helvetica,sans-Serif" font-size="10.00">_strings.cpp</text>
</a>
</g>
</g>
<!-- Node1&#45;&gt;Node2 -->
<g id="edge1" class="edge"><title>Node1&#45;&gt;Node2</title>
<path fill="none" stroke="midnightblue" d="M469.54,-202.929C396.24,-192.562 290.121,-175.522 199,-153 195.716,-152.188 192.381,-151.32 189.022,-150.409"/>
<polygon fill="midnightblue" stroke="midnightblue" points="469.271,-206.425 479.66,-204.347 470.243,-199.493 469.271,-206.425"/>
</g>
<!-- Node3 -->
<g id="node3" class="node"><title>Node3</title>
<g id="a_node3"><a xlink:href="../../d7/ddb/Fibonacci_8cpp.html" target="_top" xlink:title="/home/travis/build\l/ComPWA/ComPWA/ThirdParty\l/tbb/examples/test_all/fibonacci\l/Fibonacci.cpp">
<polygon fill="white" stroke="black" points="207.5,-95 207.5,-147 374.5,-147 374.5,-95 207.5,-95"/>
<text text-anchor="start" x="215.5" y="-135" font-family="Helvetica,sans-Serif" font-size="10.00">/home/travis/build</text>
<text text-anchor="start" x="215.5" y="-124" font-family="Helvetica,sans-Serif" font-size="10.00">/ComPWA/ComPWA/ThirdParty</text>
<text text-anchor="start" x="215.5" y="-113" font-family="Helvetica,sans-Serif" font-size="10.00">/tbb/examples/test_all/fibonacci</text>
<text text-anchor="middle" x="291" y="-102" font-family="Helvetica,sans-Serif" font-size="10.00">/Fibonacci.cpp</text>
</a>
</g>
</g>
<!-- Node1&#45;&gt;Node3 -->
<g id="edge2" class="edge"><title>Node1&#45;&gt;Node3</title>
<path fill="none" stroke="midnightblue" d="M476.929,-186.173C440.75,-173.686 398.597,-159.137 363.583,-147.052"/>
<polygon fill="midnightblue" stroke="midnightblue" points="475.881,-189.514 486.475,-189.468 478.164,-182.897 475.881,-189.514"/>
</g>
<!-- Node4 -->
<g id="node4" class="node"><title>Node4</title>
<g id="a_node4"><a xlink:href="../../d8/dc1/tbb_8h.html" target="_top" xlink:title="/home/travis/build\l/ComPWA/ComPWA/ThirdParty\l/tbb/include/tbb/tbb.h">
<polygon fill="white" stroke="black" points="392,-100.5 392,-141.5 550,-141.5 550,-100.5 392,-100.5"/>
<text text-anchor="start" x="400" y="-129.5" font-family="Helvetica,sans-Serif" font-size="10.00">/home/travis/build</text>
<text text-anchor="start" x="400" y="-118.5" font-family="Helvetica,sans-Serif" font-size="10.00">/ComPWA/ComPWA/ThirdParty</text>
<text text-anchor="middle" x="471" y="-107.5" font-family="Helvetica,sans-Serif" font-size="10.00">/tbb/include/tbb/tbb.h</text>
</a>
</g>
</g>
<!-- Node1&#45;&gt;Node4 -->
<g id="edge3" class="edge"><title>Node1&#45;&gt;Node4</title>
<path fill="none" stroke="midnightblue" d="M528.046,-181.963C515.257,-168.52 500.852,-153.378 489.716,-141.673"/>
<polygon fill="midnightblue" stroke="midnightblue" points="525.525,-184.391 534.954,-189.224 530.597,-179.566 525.525,-184.391"/>
</g>
<!-- Node9 -->
<g id="node9" class="node"><title>Node9</title>
<g id="a_node9"><a xlink:href="../../dd/d23/time__hash__map_8cpp.html" target="_top" xlink:title="/home/travis/build\l/ComPWA/ComPWA/ThirdParty\l/tbb/src/perf/time_hash\l_map.cpp">
<polygon fill="white" stroke="black" points="568,-95 568,-147 726,-147 726,-95 568,-95"/>
<text text-anchor="start" x="576" y="-135" font-family="Helvetica,sans-Serif" font-size="10.00">/home/travis/build</text>
<text text-anchor="start" x="576" y="-124" font-family="Helvetica,sans-Serif" font-size="10.00">/ComPWA/ComPWA/ThirdParty</text>
<text text-anchor="start" x="576" y="-113" font-family="Helvetica,sans-Serif" font-size="10.00">/tbb/src/perf/time_hash</text>
<text text-anchor="middle" x="647" y="-102" font-family="Helvetica,sans-Serif" font-size="10.00">_map.cpp</text>
</a>
</g>
</g>
<!-- Node1&#45;&gt;Node9 -->
<g id="edge8" class="edge"><title>Node1&#45;&gt;Node9</title>
<path fill="none" stroke="midnightblue" d="M589.969,-181.947C600.805,-170.557 612.8,-157.948 622.983,-147.245"/>
<polygon fill="midnightblue" stroke="midnightblue" points="587.403,-179.566 583.046,-189.224 592.475,-184.391 587.403,-179.566"/>
</g>
<!-- Node10 -->
<g id="node10" class="node"><title>Node10</title>
<g id="a_node10"><a xlink:href="../../db/dbd/concurrent__hash__map_8cpp.html" target="_top" xlink:title="/home/travis/build\l/ComPWA/ComPWA/ThirdParty\l/tbb/src/tbb/concurrent\l_hash_map.cpp">
<polygon fill="white" stroke="black" points="744,-95 744,-147 902,-147 902,-95 744,-95"/>
<text text-anchor="start" x="752" y="-135" font-family="Helvetica,sans-Serif" font-size="10.00">/home/travis/build</text>
<text text-anchor="start" x="752" y="-124" font-family="Helvetica,sans-Serif" font-size="10.00">/ComPWA/ComPWA/ThirdParty</text>
<text text-anchor="start" x="752" y="-113" font-family="Helvetica,sans-Serif" font-size="10.00">/tbb/src/tbb/concurrent</text>
<text text-anchor="middle" x="823" y="-102" font-family="Helvetica,sans-Serif" font-size="10.00">_hash_map.cpp</text>
</a>
</g>
</g>
<!-- Node1&#45;&gt;Node10 -->
<g id="edge9" class="edge"><title>Node1&#45;&gt;Node10</title>
<path fill="none" stroke="midnightblue" d="M640.45,-186.087C670.208,-175.693 704.133,-163.83 735,-153 740.502,-151.069 746.198,-149.069 751.922,-147.056"/>
<polygon fill="midnightblue" stroke="midnightblue" points="639.231,-182.805 630.944,-189.407 641.539,-189.414 639.231,-182.805"/>
</g>
<!-- Node11 -->
<g id="node11" class="node"><title>Node11</title>
<g id="a_node11"><a xlink:href="../../d5/d98/test__concurrent__hash__map_8cpp.html" target="_top" xlink:title="/home/travis/build\l/ComPWA/ComPWA/ThirdParty\l/tbb/src/test/test_concurrent\l_hash_map.cpp">
<polygon fill="white" stroke="black" points="920,-95 920,-147 1078,-147 1078,-95 920,-95"/>
<text text-anchor="start" x="928" y="-135" font-family="Helvetica,sans-Serif" font-size="10.00">/home/travis/build</text>
<text text-anchor="start" x="928" y="-124" font-family="Helvetica,sans-Serif" font-size="10.00">/ComPWA/ComPWA/ThirdParty</text>
<text text-anchor="start" x="928" y="-113" font-family="Helvetica,sans-Serif" font-size="10.00">/tbb/src/test/test_concurrent</text>
<text text-anchor="middle" x="999" y="-102" font-family="Helvetica,sans-Serif" font-size="10.00">_hash_map.cpp</text>
</a>
</g>
</g>
<!-- Node1&#45;&gt;Node11 -->
<g id="edge10" class="edge"><title>Node1&#45;&gt;Node11</title>
<path fill="none" stroke="midnightblue" d="M647.997,-203.114C719.691,-192.948 822.725,-176.09 911,-153 917.738,-151.237 924.696,-149.192 931.609,-147.009"/>
<polygon fill="midnightblue" stroke="midnightblue" points="647.51,-199.648 638.093,-204.504 648.483,-206.58 647.51,-199.648"/>
</g>
<!-- Node5 -->
<g id="node5" class="node"><title>Node5</title>
<g id="a_node5"><a xlink:href="../../d0/d75/DirectXPage_8xaml_8cpp.html" target="_top" xlink:title="/home/travis/build\l/ComPWA/ComPWA/ThirdParty\l/tbb/examples/parallel_for\l/tachyon/msvs/win8ui/DirectXPage.xaml.cpp">
<polygon fill="white" stroke="black" points="0,-0.5 0,-52.5 226,-52.5 226,-0.5 0,-0.5"/>
<text text-anchor="start" x="8" y="-40.5" font-family="Helvetica,sans-Serif" font-size="10.00">/home/travis/build</text>
<text text-anchor="start" x="8" y="-29.5" font-family="Helvetica,sans-Serif" font-size="10.00">/ComPWA/ComPWA/ThirdParty</text>
<text text-anchor="start" x="8" y="-18.5" font-family="Helvetica,sans-Serif" font-size="10.00">/tbb/examples/parallel_for</text>
<text text-anchor="middle" x="113" y="-7.5" font-family="Helvetica,sans-Serif" font-size="10.00">/tachyon/msvs/win8ui/DirectXPage.xaml.cpp</text>
</a>
</g>
</g>
<!-- Node4&#45;&gt;Node5 -->
<g id="edge4" class="edge"><title>Node4&#45;&gt;Node5</title>
<path fill="none" stroke="midnightblue" d="M409.744,-97.1466C401.151,-94.242 392.391,-91.4375 384,-89 354.349,-80.3862 286.599,-65.0112 226.262,-51.7896"/>
<polygon fill="midnightblue" stroke="midnightblue" points="408.751,-100.506 419.345,-100.454 411.031,-93.888 408.751,-100.506"/>
</g>
<!-- Node6 -->
<g id="node6" class="node"><title>Node6</title>
<g id="a_node6"><a xlink:href="../../dd/dc5/tbbTachyonRenderer_8cpp.html" target="_top" xlink:title="/home/travis/build\l/ComPWA/ComPWA/ThirdParty\l/tbb/examples/parallel_for\l/tachyon/msvs/win8ui/tbbTachyonRenderer.cpp">
<polygon fill="white" stroke="black" points="244,-0.5 244,-52.5 482,-52.5 482,-0.5 244,-0.5"/>
<text text-anchor="start" x="252" y="-40.5" font-family="Helvetica,sans-Serif" font-size="10.00">/home/travis/build</text>
<text text-anchor="start" x="252" y="-29.5" font-family="Helvetica,sans-Serif" font-size="10.00">/ComPWA/ComPWA/ThirdParty</text>
<text text-anchor="start" x="252" y="-18.5" font-family="Helvetica,sans-Serif" font-size="10.00">/tbb/examples/parallel_for</text>
<text text-anchor="middle" x="363" y="-7.5" font-family="Helvetica,sans-Serif" font-size="10.00">/tachyon/msvs/win8ui/tbbTachyonRenderer.cpp</text>
</a>
</g>
</g>
<!-- Node4&#45;&gt;Node6 -->
<g id="edge5" class="edge"><title>Node4&#45;&gt;Node6</title>
<path fill="none" stroke="midnightblue" d="M440.114,-93.5467C425.136,-80.718 407.233,-65.3846 392.449,-52.7226"/>
<polygon fill="midnightblue" stroke="midnightblue" points="438.224,-96.5364 448.096,-100.383 442.778,-91.2198 438.224,-96.5364"/>
</g>
<!-- Node7 -->
<g id="node7" class="node"><title>Node7</title>
<g id="a_node7"><a xlink:href="../../dd/d29/trace_8simple_8cpp.html" target="_top" xlink:title="/home/travis/build\l/ComPWA/ComPWA/ThirdParty\l/tbb/examples/parallel_for\l/tachyon/src/trace.simple.cpp">
<polygon fill="white" stroke="black" points="500,-0.5 500,-52.5 658,-52.5 658,-0.5 500,-0.5"/>
<text text-anchor="start" x="508" y="-40.5" font-family="Helvetica,sans-Serif" font-size="10.00">/home/travis/build</text>
<text text-anchor="start" x="508" y="-29.5" font-family="Helvetica,sans-Serif" font-size="10.00">/ComPWA/ComPWA/ThirdParty</text>
<text text-anchor="start" x="508" y="-18.5" font-family="Helvetica,sans-Serif" font-size="10.00">/tbb/examples/parallel_for</text>
<text text-anchor="middle" x="579" y="-7.5" font-family="Helvetica,sans-Serif" font-size="10.00">/tachyon/src/trace.simple.cpp</text>
</a>
</g>
</g>
<!-- Node4&#45;&gt;Node7 -->
<g id="edge6" class="edge"><title>Node4&#45;&gt;Node7</title>
<path fill="none" stroke="midnightblue" d="M501.886,-93.5467C516.864,-80.718 534.767,-65.3846 549.551,-52.7226"/>
<polygon fill="midnightblue" stroke="midnightblue" points="499.222,-91.2198 493.904,-100.383 503.776,-96.5364 499.222,-91.2198"/>
</g>
<!-- Node8 -->
<g id="node8" class="node"><title>Node8</title>
<g id="a_node8"><a xlink:href="../../db/d56/test__tbb__header_8cpp.html" target="_top" xlink:title="/home/travis/build\l/ComPWA/ComPWA/ThirdParty\l/tbb/src/test/test_tbb_header.cpp">
<polygon fill="white" stroke="black" points="676,-6 676,-47 852,-47 852,-6 676,-6"/>
<text text-anchor="start" x="684" y="-35" font-family="Helvetica,sans-Serif" font-size="10.00">/home/travis/build</text>
<text text-anchor="start" x="684" y="-24" font-family="Helvetica,sans-Serif" font-size="10.00">/ComPWA/ComPWA/ThirdParty</text>
<text text-anchor="middle" x="764" y="-13" font-family="Helvetica,sans-Serif" font-size="10.00">/tbb/src/test/test_tbb_header.cpp</text>
</a>
</g>
</g>
<!-- Node4&#45;&gt;Node8 -->
<g id="edge7" class="edge"><title>Node4&#45;&gt;Node8</title>
<path fill="none" stroke="midnightblue" d="M534.789,-97.1307C542.918,-94.3337 551.141,-91.5616 559,-89 604.397,-74.2036 655.871,-58.7661 695.883,-47.0591"/>
<polygon fill="midnightblue" stroke="midnightblue" points="533.619,-93.832 525.317,-100.414 535.912,-100.446 533.619,-93.832"/>
</g>
</g>
</svg>
