<?xml version="1.0" encoding="UTF-8" standalone="no"?>
<!DOCTYPE svg PUBLIC "-//W3C//DTD SVG 1.1//EN"
 "http://www.w3.org/Graphics/SVG/1.1/DTD/svg11.dtd">
<!-- Generated by graphviz version 2.38.0 (20140413.2041)
 -->
<!-- Title: TestRunner Pages: 1 -->
<svg width="868pt" height="711pt"
 viewBox="0.00 0.00 867.50 711.00" xmlns="http://www.w3.org/2000/svg" xmlns:xlink="http://www.w3.org/1999/xlink">
<g id="graph0" class="graph" transform="scale(1 1) rotate(0) translate(4 707)">
<title>TestRunner</title>
<polygon fill="white" stroke="none" points="-4,4 -4,-707 863.5,-707 863.5,4 -4,4"/>
<!-- Node1 -->
<g id="node1" class="node"><title>Node1</title>
<polygon fill="#bfbfbf" stroke="black" points="321.5,-0.5 321.5,-123.5 420.5,-123.5 420.5,-0.5 321.5,-0.5"/>
<text text-anchor="middle" x="371" y="-111.5" font-family="Helvetica,sans-Serif" font-size="10.00">TestRunner</text>
<polyline fill="none" stroke="black" points="321.5,-104.5 420.5,-104.5 "/>
<text text-anchor="start" x="329.5" y="-92.5" font-family="Helvetica,sans-Serif" font-size="10.00">&#45; tester_name</text>
<text text-anchor="start" x="329.5" y="-81.5" font-family="Helvetica,sans-Serif" font-size="10.00">&#45; keys</text>
<polyline fill="none" stroke="black" points="321.5,-74.5 420.5,-74.5 "/>
<text text-anchor="start" x="329.5" y="-62.5" font-family="Helvetica,sans-Serif" font-size="10.00">+ TestRunner()</text>
<text text-anchor="start" x="329.5" y="-51.5" font-family="Helvetica,sans-Serif" font-size="10.00">+ ~TestRunner()</text>
<text text-anchor="start" x="329.5" y="-40.5" font-family="Helvetica,sans-Serif" font-size="10.00">+ init()</text>
<text text-anchor="start" x="329.5" y="-29.5" font-family="Helvetica,sans-Serif" font-size="10.00">+ run_test()</text>
<text text-anchor="start" x="329.5" y="-18.5" font-family="Helvetica,sans-Serif" font-size="10.00">+ post_process()</text>
<text text-anchor="start" x="329.5" y="-7.5" font-family="Helvetica,sans-Serif" font-size="10.00">&#45; TestRunner()</text>
</g>
<!-- Node2 -->
<g id="node2" class="node"><title>Node2</title>
<g id="a_node2"><a xlink:href="../../dc/d20/classTesterBase.html" target="_top" xlink:title="{TesterBase\n|# tests_count\l# threads_count\l# value\l# tester_name\l# pad\l|+ TesterBase()\l+ ~TesterBase()\l+ base_init()\l+ init()\l+ get_name()\l+ test_prefix()\l+ test()\l+ get_result_type()\l}">
<polygon fill="white" stroke="black" points="150,-182.5 150,-360.5 260,-360.5 260,-182.5 150,-182.5"/>
<text text-anchor="middle" x="205" y="-348.5" font-family="Helvetica,sans-Serif" font-size="10.00">TesterBase</text>
<polyline fill="none" stroke="black" points="150,-341.5 260,-341.5 "/>
<text text-anchor="start" x="158" y="-329.5" font-family="Helvetica,sans-Serif" font-size="10.00"># tests_count</text>
<text text-anchor="start" x="158" y="-318.5" font-family="Helvetica,sans-Serif" font-size="10.00"># threads_count</text>
<text text-anchor="start" x="158" y="-307.5" font-family="Helvetica,sans-Serif" font-size="10.00"># value</text>
<text text-anchor="start" x="158" y="-296.5" font-family="Helvetica,sans-Serif" font-size="10.00"># tester_name</text>
<text text-anchor="start" x="158" y="-285.5" font-family="Helvetica,sans-Serif" font-size="10.00"># pad</text>
<polyline fill="none" stroke="black" points="150,-278.5 260,-278.5 "/>
<text text-anchor="start" x="158" y="-266.5" font-family="Helvetica,sans-Serif" font-size="10.00">+ TesterBase()</text>
<text text-anchor="start" x="158" y="-255.5" font-family="Helvetica,sans-Serif" font-size="10.00">+ ~TesterBase()</text>
<text text-anchor="start" x="158" y="-244.5" font-family="Helvetica,sans-Serif" font-size="10.00">+ base_init()</text>
<text text-anchor="start" x="158" y="-233.5" font-family="Helvetica,sans-Serif" font-size="10.00">+ init()</text>
<text text-anchor="start" x="158" y="-222.5" font-family="Helvetica,sans-Serif" font-size="10.00">+ get_name()</text>
<text text-anchor="start" x="158" y="-211.5" font-family="Helvetica,sans-Serif" font-size="10.00">+ test_prefix()</text>
<text text-anchor="start" x="158" y="-200.5" font-family="Helvetica,sans-Serif" font-size="10.00">+ test()</text>
<text text-anchor="start" x="158" y="-189.5" font-family="Helvetica,sans-Serif" font-size="10.00">+ get_result_type()</text>
</a>
</g>
</g>
<!-- Node2&#45;&gt;Node1 -->
<g id="edge1" class="edge"><title>Node2&#45;&gt;Node1</title>
<path fill="none" stroke="#404040" d="M260.045,-201.694C277.638,-179.702 297.129,-155.339 314.803,-133.246"/>
<polygon fill="none" stroke="#404040" points="315.021,-132.973 315.646,-125.789 322.518,-123.603 321.893,-130.787 315.021,-132.973"/>
<text text-anchor="middle" x="328" y="-145" font-family="Helvetica,sans-Serif" font-size="10.00"> +tester</text>
</g>
<!-- Node3 -->
<g id="node3" class="node"><title>Node3</title>
<g id="a_node3"><a xlink:href="../../d0/d34/classHarness_1_1SpinBarrier.html" target="_top" xlink:title="{Harness::SpinBarrier\n|&#45; numThreads\l&#45; throwaway\l|+ SpinBarrier()\l+ initialize()\l+ custom_wait()\l+ timed_wait_noerror()\l+ timed_wait()\l+ wait()\l+ wait()\l+ signal_nowait()\l&#45; SpinBarrier()\l&#45; operator=()\l}">
<polygon fill="white" stroke="red" points="0,-419.5 0,-586.5 128,-586.5 128,-419.5 0,-419.5"/>
<text text-anchor="middle" x="64" y="-574.5" font-family="Helvetica,sans-Serif" font-size="10.00">Harness::SpinBarrier</text>
<polyline fill="none" stroke="red" points="0,-567.5 128,-567.5 "/>
<text text-anchor="start" x="8" y="-555.5" font-family="Helvetica,sans-Serif" font-size="10.00">&#45; numThreads</text>
<text text-anchor="start" x="8" y="-544.5" font-family="Helvetica,sans-Serif" font-size="10.00">&#45; throwaway</text>
<polyline fill="none" stroke="red" points="0,-537.5 128,-537.5 "/>
<text text-anchor="start" x="8" y="-525.5" font-family="Helvetica,sans-Serif" font-size="10.00">+ SpinBarrier()</text>
<text text-anchor="start" x="8" y="-514.5" font-family="Helvetica,sans-Serif" font-size="10.00">+ initialize()</text>
<text text-anchor="start" x="8" y="-503.5" font-family="Helvetica,sans-Serif" font-size="10.00">+ custom_wait()</text>
<text text-anchor="start" x="8" y="-492.5" font-family="Helvetica,sans-Serif" font-size="10.00">+ timed_wait_noerror()</text>
<text text-anchor="start" x="8" y="-481.5" font-family="Helvetica,sans-Serif" font-size="10.00">+ timed_wait()</text>
<text text-anchor="start" x="8" y="-470.5" font-family="Helvetica,sans-Serif" font-size="10.00">+ wait()</text>
<text text-anchor="start" x="8" y="-459.5" font-family="Helvetica,sans-Serif" font-size="10.00">+ wait()</text>
<text text-anchor="start" x="8" y="-448.5" font-family="Helvetica,sans-Serif" font-size="10.00">+ signal_nowait()</text>
<text text-anchor="start" x="8" y="-437.5" font-family="Helvetica,sans-Serif" font-size="10.00">&#45; SpinBarrier()</text>
<text text-anchor="start" x="8" y="-426.5" font-family="Helvetica,sans-Serif" font-size="10.00">&#45; operator=()</text>
</a>
</g>
</g>
<!-- Node3&#45;&gt;Node2 -->
<g id="edge2" class="edge"><title>Node3&#45;&gt;Node2</title>
<path fill="none" stroke="#404040" d="M114.705,-419.469C124.29,-403.868 134.407,-387.402 144.264,-371.358"/>
<polygon fill="none" stroke="#404040" points="144.414,-371.114 144.146,-363.908 150.695,-360.89 150.963,-368.096 144.414,-371.114"/>
<text text-anchor="middle" x="152.5" y="-393" font-family="Helvetica,sans-Serif" font-size="10.00"> #barrier</text>
</g>
<!-- Node4 -->
<g id="node4" class="node"><title>Node4</title>
<g id="a_node4"><a xlink:href="../../d7/da2/classStatisticsCollector.html" target="_top" xlink:title="{StatisticsCollector\n|# ResultsFmt\l# AnalysisTitles\l&#45; SortMode\l|+ StatisticsCollector()\l+ ~StatisticsCollector()\l+ SetTitle()\l+ SetTestCase()\l+ SetTestCase()\l+ ReserveRounds()\l+ AddRoundResult()\l+ AddRoundResult()\l+ SetRoundTitle()\l+ SetRoundTitle()\land 7 more...\l# StatisticsCollector()\l}">
<polygon fill="white" stroke="black" points="419,-171.5 419,-371.5 549,-371.5 549,-171.5 419,-171.5"/>
<text text-anchor="middle" x="484" y="-359.5" font-family="Helvetica,sans-Serif" font-size="10.00">StatisticsCollector</text>
<polyline fill="none" stroke="black" points="419,-352.5 549,-352.5 "/>
<text text-anchor="start" x="427" y="-340.5" font-family="Helvetica,sans-Serif" font-size="10.00"># ResultsFmt</text>
<text text-anchor="start" x="427" y="-329.5" font-family="Helvetica,sans-Serif" font-size="10.00"># AnalysisTitles</text>
<text text-anchor="start" x="427" y="-318.5" font-family="Helvetica,sans-Serif" font-size="10.00">&#45; SortMode</text>
<polyline fill="none" stroke="black" points="419,-311.5 549,-311.5 "/>
<text text-anchor="start" x="427" y="-299.5" font-family="Helvetica,sans-Serif" font-size="10.00">+ StatisticsCollector()</text>
<text text-anchor="start" x="427" y="-288.5" font-family="Helvetica,sans-Serif" font-size="10.00">+ ~StatisticsCollector()</text>
<text text-anchor="start" x="427" y="-277.5" font-family="Helvetica,sans-Serif" font-size="10.00">+ SetTitle()</text>
<text text-anchor="start" x="427" y="-266.5" font-family="Helvetica,sans-Serif" font-size="10.00">+ SetTestCase()</text>
<text text-anchor="start" x="427" y="-255.5" font-family="Helvetica,sans-Serif" font-size="10.00">+ SetTestCase()</text>
<text text-anchor="start" x="427" y="-244.5" font-family="Helvetica,sans-Serif" font-size="10.00">+ ReserveRounds()</text>
<text text-anchor="start" x="427" y="-233.5" font-family="Helvetica,sans-Serif" font-size="10.00">+ AddRoundResult()</text>
<text text-anchor="start" x="427" y="-222.5" font-family="Helvetica,sans-Serif" font-size="10.00">+ AddRoundResult()</text>
<text text-anchor="start" x="427" y="-211.5" font-family="Helvetica,sans-Serif" font-size="10.00">+ SetRoundTitle()</text>
<text text-anchor="start" x="427" y="-200.5" font-family="Helvetica,sans-Serif" font-size="10.00">+ SetRoundTitle()</text>
<text text-anchor="start" x="427" y="-189.5" font-family="Helvetica,sans-Serif" font-size="10.00">and 7 more...</text>
<text text-anchor="start" x="427" y="-178.5" font-family="Helvetica,sans-Serif" font-size="10.00"># StatisticsCollector()</text>
</a>
</g>
</g>
<!-- Node4&#45;&gt;Node1 -->
<g id="edge3" class="edge"><title>Node4&#45;&gt;Node1</title>
<path fill="none" stroke="#404040" d="M429.982,-171.308C423.205,-158.863 416.38,-146.33 409.898,-134.428"/>
<polygon fill="none" stroke="#404040" points="409.793,-134.234 403.41,-130.878 404.053,-123.695 410.436,-127.052 409.793,-134.234"/>
<text text-anchor="middle" x="431" y="-145" font-family="Helvetica,sans-Serif" font-size="10.00"> &#45;stat</text>
</g>
<!-- Node5 -->
<g id="node5" class="node"><title>Node5</title>
<polygon fill="white" stroke="#bfbfbf" points="146.5,-474.5 146.5,-531.5 321.5,-531.5 321.5,-474.5 146.5,-474.5"/>
<text text-anchor="middle" x="234" y="-519.5" font-family="Helvetica,sans-Serif" font-size="10.00">map&lt; string, StatisticResults * &gt;</text>
<polyline fill="none" stroke="#bfbfbf" points="146.5,-512.5 321.5,-512.5 "/>
<text text-anchor="middle" x="234" y="-500.5" font-family="Helvetica,sans-Serif" font-size="10.00"> </text>
<polyline fill="none" stroke="#bfbfbf" points="146.5,-493.5 321.5,-493.5 "/>
<text text-anchor="middle" x="234" y="-481.5" font-family="Helvetica,sans-Serif" font-size="10.00"> </text>
</g>
<!-- Node5&#45;&gt;Node4 -->
<g id="edge4" class="edge"><title>Node5&#45;&gt;Node4</title>
<path fill="none" stroke="#404040" d="M242.375,-474.042C250.791,-449.632 265.73,-414.39 288,-390 321.134,-353.713 368.085,-325.035 407.727,-305.096"/>
<polygon fill="none" stroke="#404040" points="407.928,-304.998 411.548,-298.762 418.697,-299.705 415.077,-305.942 407.928,-304.998"/>
<text text-anchor="middle" x="316" y="-393" font-family="Helvetica,sans-Serif" font-size="10.00"> #Statistics</text>
</g>
<!-- Node6 -->
<g id="node6" class="node"><title>Node6</title>
<polygon fill="white" stroke="#bfbfbf" points="337.5,-645.5 337.5,-702.5 458.5,-702.5 458.5,-645.5 337.5,-645.5"/>
<text text-anchor="middle" x="398" y="-690.5" font-family="Helvetica,sans-Serif" font-size="10.00">map&lt; string, string &gt;</text>
<polyline fill="none" stroke="#bfbfbf" points="337.5,-683.5 458.5,-683.5 "/>
<text text-anchor="middle" x="398" y="-671.5" font-family="Helvetica,sans-Serif" font-size="10.00"> </text>
<polyline fill="none" stroke="#bfbfbf" points="337.5,-664.5 458.5,-664.5 "/>
<text text-anchor="middle" x="398" y="-652.5" font-family="Helvetica,sans-Serif" font-size="10.00"> </text>
</g>
<!-- Node6&#45;&gt;Node4 -->
<g id="edge5" class="edge"><title>Node6&#45;&gt;Node4</title>
<path fill="none" stroke="#404040" d="M385.283,-645.394C378.368,-628.848 370.524,-607.168 367,-587 354.148,-513.448 342.314,-489.468 367,-419 376.463,-391.986 393.231,-366.245 411.168,-344.089"/>
<polygon fill="none" stroke="#404040" points="411.217,-344.03 411.993,-336.861 418.909,-334.82 418.133,-341.989 411.217,-344.03"/>
<text text-anchor="middle" x="395" y="-500.5" font-family="Helvetica,sans-Serif" font-size="10.00"> #Formulas</text>
</g>
<!-- Node9 -->
<g id="node9" class="node"><title>Node9</title>
<g id="a_node9"><a xlink:href="../../db/d86/structStatisticsCollector_1_1StatisticResults.html" target="_top" xlink:title="{StatisticsCollector\l::StatisticResults\n|+ Threads\l|}">
<polygon fill="white" stroke="red" points="432.5,-469 432.5,-537 535.5,-537 535.5,-469 432.5,-469"/>
<text text-anchor="start" x="440.5" y="-525" font-family="Helvetica,sans-Serif" font-size="10.00">StatisticsCollector</text>
<text text-anchor="middle" x="484" y="-514" font-family="Helvetica,sans-Serif" font-size="10.00">::StatisticResults</text>
<polyline fill="none" stroke="red" points="432.5,-507 535.5,-507 "/>
<text text-anchor="start" x="440.5" y="-495" font-family="Helvetica,sans-Serif" font-size="10.00">+ Threads</text>
<polyline fill="none" stroke="red" points="432.5,-488 535.5,-488 "/>
<text text-anchor="middle" x="484" y="-476" font-family="Helvetica,sans-Serif" font-size="10.00"> </text>
</a>
</g>
</g>
<!-- Node6&#45;&gt;Node9 -->
<g id="edge9" class="edge"><title>Node6&#45;&gt;Node9</title>
<path fill="none" stroke="#404040" d="M412.009,-645.471C425.446,-619.065 445.955,-578.764 461.65,-547.921"/>
<polygon fill="none" stroke="#404040" points="461.75,-547.724 460.906,-540.563 467.192,-537.029 468.036,-544.191 461.75,-547.724"/>
<text text-anchor="middle" x="456.5" y="-613.5" font-family="Helvetica,sans-Serif" font-size="10.00"> +Analysis</text>
</g>
<!-- Node7 -->
<g id="node7" class="node"><title>Node7</title>
<polygon fill="white" stroke="#bfbfbf" points="628,-474.5 628,-531.5 724,-531.5 724,-474.5 628,-474.5"/>
<text text-anchor="middle" x="676" y="-519.5" font-family="Helvetica,sans-Serif" font-size="10.00">vector&lt; string &gt;</text>
<polyline fill="none" stroke="#bfbfbf" points="628,-512.5 724,-512.5 "/>
<text text-anchor="middle" x="676" y="-500.5" font-family="Helvetica,sans-Serif" font-size="10.00"> </text>
<polyline fill="none" stroke="#bfbfbf" points="628,-493.5 724,-493.5 "/>
<text text-anchor="middle" x="676" y="-481.5" font-family="Helvetica,sans-Serif" font-size="10.00"> </text>
</g>
<!-- Node7&#45;&gt;Node4 -->
<g id="edge6" class="edge"><title>Node7&#45;&gt;Node4</title>
<path fill="none" stroke="#404040" d="M656.184,-474.267C644.284,-457.922 628.656,-436.987 614,-419 596.052,-396.972 575.97,-373.715 557.059,-352.379"/>
<polygon fill="none" stroke="#404040" points="557.013,-352.326 550.036,-350.503 549.036,-343.361 556.012,-345.185 557.013,-352.326"/>
<text text-anchor="middle" x="630" y="-393" font-family="Helvetica,sans-Serif" font-size="10.00"> #RoundTitles</text>
</g>
<!-- Node8 -->
<g id="node8" class="node"><title>Node8</title>
<polygon fill="white" stroke="#bfbfbf" points="497,-645.5 497,-702.5 541,-702.5 541,-645.5 497,-645.5"/>
<text text-anchor="middle" x="519" y="-690.5" font-family="Helvetica,sans-Serif" font-size="10.00">string</text>
<polyline fill="none" stroke="#bfbfbf" points="497,-683.5 541,-683.5 "/>
<text text-anchor="middle" x="519" y="-671.5" font-family="Helvetica,sans-Serif" font-size="10.00"> </text>
<polyline fill="none" stroke="#bfbfbf" points="497,-664.5 541,-664.5 "/>
<text text-anchor="middle" x="519" y="-652.5" font-family="Helvetica,sans-Serif" font-size="10.00"> </text>
</g>
<!-- Node8&#45;&gt;Node4 -->
<g id="edge7" class="edge"><title>Node8&#45;&gt;Node4</title>
<path fill="none" stroke="#404040" d="M541.156,-649.905C546.388,-643.052 551.243,-635.178 554,-627 557.609,-616.297 586.58,-516.438 552,-390 551.37,-387.698 550.684,-385.395 549.947,-383.093"/>
<polygon fill="none" stroke="#404040" points="549.887,-382.924 544.106,-378.614 545.86,-371.619 551.642,-375.929 549.887,-382.924"/>
<text text-anchor="middle" x="588" y="-506" font-family="Helvetica,sans-Serif" font-size="10.00"> #Title</text>
<text text-anchor="middle" x="588" y="-495" font-family="Helvetica,sans-Serif" font-size="10.00">#Name</text>
</g>
<!-- Node8&#45;&gt;Node9 -->
<g id="edge10" class="edge"><title>Node8&#45;&gt;Node9</title>
<path fill="none" stroke="#404040" d="M513.299,-645.471C507.902,-619.412 499.703,-579.822 493.349,-549.143"/>
<polygon fill="none" stroke="#404040" points="493.274,-548.78 488.14,-543.716 490.84,-537.029 495.974,-542.093 493.274,-548.78"/>
<text text-anchor="middle" x="529.5" y="-619" font-family="Helvetica,sans-Serif" font-size="10.00"> +Name</text>
<text text-anchor="middle" x="529.5" y="-608" font-family="Helvetica,sans-Serif" font-size="10.00">+Mode</text>
</g>
<!-- Node9&#45;&gt;Node4 -->
<g id="edge8" class="edge"><title>Node9&#45;&gt;Node4</title>
<path fill="none" stroke="#404040" d="M484,-468.629C484,-446.075 484,-414.88 484,-383.999"/>
<polygon fill="none" stroke="#404040" points="484,-383.739 480,-377.739 484,-371.739 488,-377.739 484,-383.739"/>
<text text-anchor="middle" x="516" y="-393" font-family="Helvetica,sans-Serif" font-size="10.00"> #CurrentKey</text>
</g>
<!-- Node10 -->
<g id="node10" class="node"><title>Node10</title>
<polygon fill="white" stroke="#bfbfbf" points="742.5,-469 742.5,-537 859.5,-537 859.5,-469 742.5,-469"/>
<text text-anchor="start" x="750.5" y="-525" font-family="Helvetica,sans-Serif" font-size="10.00">vector&lt; pair&lt; string,</text>
<text text-anchor="middle" x="801" y="-514" font-family="Helvetica,sans-Serif" font-size="10.00"> string &gt; &gt;</text>
<polyline fill="none" stroke="#bfbfbf" points="742.5,-507 859.5,-507 "/>
<text text-anchor="middle" x="801" y="-495" font-family="Helvetica,sans-Serif" font-size="10.00"> </text>
<polyline fill="none" stroke="#bfbfbf" points="742.5,-488 859.5,-488 "/>
<text text-anchor="middle" x="801" y="-476" font-family="Helvetica,sans-Serif" font-size="10.00"> </text>
</g>
<!-- Node10&#45;&gt;Node4 -->
<g id="edge11" class="edge"><title>Node10&#45;&gt;Node4</title>
<path fill="none" stroke="#404040" d="M778.193,-468.924C765.982,-452.685 749.98,-433.539 733,-419 680.27,-373.85 611.774,-334.699 559.973,-308.257"/>
<polygon fill="none" stroke="#404040" points="559.897,-308.218 552.738,-309.085 549.184,-302.81 556.343,-301.943 559.897,-308.218"/>
<text text-anchor="middle" x="732" y="-393" font-family="Helvetica,sans-Serif" font-size="10.00"> #RunInfo</text>
</g>
</g>
</svg>
