<?xml version="1.0" encoding="UTF-8" standalone="no"?>
<!DOCTYPE svg PUBLIC "-//W3C//DTD SVG 1.1//EN"
 "http://www.w3.org/Graphics/SVG/1.1/DTD/svg11.dtd">
<!-- Generated by graphviz version 2.38.0 (20140413.2041)
 -->
<!-- Title: /home/travis/build/ComPWA/ComPWA/Data/Root/RootDataIO.hpp Pages: 1 -->
<svg width="494pt" height="139pt"
 viewBox="0.00 0.00 494.00 139.00" xmlns="http://www.w3.org/2000/svg" xmlns:xlink="http://www.w3.org/1999/xlink">
<g id="graph0" class="graph" transform="scale(1 1) rotate(0) translate(4 135)">
<title>/home/travis/build/ComPWA/ComPWA/Data/Root/RootDataIO.hpp</title>
<polygon fill="white" stroke="none" points="-4,4 -4,-135 490,-135 490,4 -4,4"/>
<!-- Node1 -->
<g id="node1" class="node"><title>Node1</title>
<polygon fill="#bfbfbf" stroke="black" points="164,-89.5 164,-130.5 298,-130.5 298,-89.5 164,-89.5"/>
<text text-anchor="start" x="172" y="-118.5" font-family="Helvetica,sans-Serif" font-size="10.00">/home/travis/build</text>
<text text-anchor="start" x="172" y="-107.5" font-family="Helvetica,sans-Serif" font-size="10.00">/ComPWA/ComPWA/Data</text>
<text text-anchor="middle" x="231" y="-96.5" font-family="Helvetica,sans-Serif" font-size="10.00">/Root/RootDataIO.hpp</text>
</g>
<!-- Node2 -->
<g id="node2" class="node"><title>Node2</title>
<g id="a_node2"><a xlink:href="../../d3/d31/RootDataIO_8cpp.html" target="_top" xlink:title="/home/travis/build\l/ComPWA/ComPWA/Data\l/Root/RootDataIO.cpp">
<polygon fill="white" stroke="black" points="0,-6 0,-47 134,-47 134,-6 0,-6"/>
<text text-anchor="start" x="8" y="-35" font-family="Helvetica,sans-Serif" font-size="10.00">/home/travis/build</text>
<text text-anchor="start" x="8" y="-24" font-family="Helvetica,sans-Serif" font-size="10.00">/ComPWA/ComPWA/Data</text>
<text text-anchor="middle" x="67" y="-13" font-family="Helvetica,sans-Serif" font-size="10.00">/Root/RootDataIO.cpp</text>
</a>
</g>
</g>
<!-- Node1&#45;&gt;Node2 -->
<g id="edge1" class="edge"><title>Node1&#45;&gt;Node2</title>
<path fill="none" stroke="midnightblue" d="M182.646,-84.9705C158.305,-72.8741 129.178,-58.3995 106.245,-47.0031"/>
<polygon fill="midnightblue" stroke="midnightblue" points="181.205,-88.1627 191.718,-89.4787 184.32,-81.8941 181.205,-88.1627"/>
</g>
<!-- Node3 -->
<g id="node3" class="node"><title>Node3</title>
<g id="a_node3"><a xlink:href="../../de/dda/RootDataIOTest_8cpp.html" target="_top" xlink:title="/home/travis/build\l/ComPWA/ComPWA/Data\l/Root/test/RootDataIOTest.cpp">
<polygon fill="white" stroke="black" points="152,-6 152,-47 310,-47 310,-6 152,-6"/>
<text text-anchor="start" x="160" y="-35" font-family="Helvetica,sans-Serif" font-size="10.00">/home/travis/build</text>
<text text-anchor="start" x="160" y="-24" font-family="Helvetica,sans-Serif" font-size="10.00">/ComPWA/ComPWA/Data</text>
<text text-anchor="middle" x="231" y="-13" font-family="Helvetica,sans-Serif" font-size="10.00">/Root/test/RootDataIOTest.cpp</text>
</a>
</g>
</g>
<!-- Node1&#45;&gt;Node3 -->
<g id="edge2" class="edge"><title>Node1&#45;&gt;Node3</title>
<path fill="none" stroke="midnightblue" d="M231,-79.0646C231,-68.3819 231,-56.6303 231,-47.0472"/>
<polygon fill="midnightblue" stroke="midnightblue" points="227.5,-79.2711 231,-89.2711 234.5,-79.2712 227.5,-79.2711"/>
</g>
<!-- Node4 -->
<g id="node4" class="node"><title>Node4</title>
<g id="a_node4"><a xlink:href="../../db/d7b/DalitzFitD03K_8cpp.html" target="_top" xlink:title="Executable for Dalitz plot analysis of the decay D0 &#45;&gt; K_S K+ K&#45;. ">
<polygon fill="white" stroke="black" points="328,-0.5 328,-52.5 486,-52.5 486,-0.5 328,-0.5"/>
<text text-anchor="start" x="336" y="-40.5" font-family="Helvetica,sans-Serif" font-size="10.00">/home/travis/build</text>
<text text-anchor="start" x="336" y="-29.5" font-family="Helvetica,sans-Serif" font-size="10.00">/ComPWA/ComPWA/Examples</text>
<text text-anchor="start" x="336" y="-18.5" font-family="Helvetica,sans-Serif" font-size="10.00">/DalitzAnalysis_D0KsKK</text>
<text text-anchor="middle" x="407" y="-7.5" font-family="Helvetica,sans-Serif" font-size="10.00">/DalitzFitD03K.cpp</text>
</a>
</g>
</g>
<!-- Node1&#45;&gt;Node4 -->
<g id="edge3" class="edge"><title>Node1&#45;&gt;Node4</title>
<path fill="none" stroke="midnightblue" d="M282.391,-85.2026C304.523,-74.9537 330.416,-62.9636 352.847,-52.5764"/>
<polygon fill="midnightblue" stroke="midnightblue" points="280.76,-82.1006 273.156,-89.4787 283.701,-88.4527 280.76,-82.1006"/>
</g>
</g>
</svg>
