<?xml version="1.0" encoding="UTF-8" standalone="no"?>
<!DOCTYPE svg PUBLIC "-//W3C//DTD SVG 1.1//EN"
 "http://www.w3.org/Graphics/SVG/1.1/DTD/svg11.dtd">
<!-- Generated by graphviz version 2.38.0 (20140413.2041)
 -->
<!-- Title: /home/travis/build/ComPWA/ComPWA/Optimizer/Minuit2/MinuitIF.hpp Pages: 1 -->
<svg width="1624pt" height="139pt"
 viewBox="0.00 0.00 1624.00 139.00" xmlns="http://www.w3.org/2000/svg" xmlns:xlink="http://www.w3.org/1999/xlink">
<g id="graph0" class="graph" transform="scale(1 1) rotate(0) translate(4 135)">
<title>/home/travis/build/ComPWA/ComPWA/Optimizer/Minuit2/MinuitIF.hpp</title>
<polygon fill="white" stroke="none" points="-4,4 -4,-135 1620,-135 1620,4 -4,4"/>
<!-- Node1 -->
<g id="node1" class="node"><title>Node1</title>
<polygon fill="#bfbfbf" stroke="black" points="719.5,-89.5 719.5,-130.5 877.5,-130.5 877.5,-89.5 719.5,-89.5"/>
<text text-anchor="start" x="727.5" y="-118.5" font-family="Helvetica,sans-Serif" font-size="10.00">/home/travis/build</text>
<text text-anchor="start" x="727.5" y="-107.5" font-family="Helvetica,sans-Serif" font-size="10.00">/ComPWA/ComPWA/Optimizer</text>
<text text-anchor="middle" x="798.5" y="-96.5" font-family="Helvetica,sans-Serif" font-size="10.00">/Minuit2/MinuitIF.hpp</text>
</g>
<!-- Node2 -->
<g id="node2" class="node"><title>Node2</title>
<g id="a_node2"><a xlink:href="../../df/d8e/MinLogLHEstimatorTest_8cpp.html" target="_top" xlink:title="/home/travis/build\l/ComPWA/ComPWA/Estimator\l/test/MinLogLHEstimatorTest.cpp">
<polygon fill="white" stroke="black" points="0,-6 0,-47 173,-47 173,-6 0,-6"/>
<text text-anchor="start" x="8" y="-35" font-family="Helvetica,sans-Serif" font-size="10.00">/home/travis/build</text>
<text text-anchor="start" x="8" y="-24" font-family="Helvetica,sans-Serif" font-size="10.00">/ComPWA/ComPWA/Estimator</text>
<text text-anchor="middle" x="86.5" y="-13" font-family="Helvetica,sans-Serif" font-size="10.00">/test/MinLogLHEstimatorTest.cpp</text>
</a>
</g>
</g>
<!-- Node1&#45;&gt;Node2 -->
<g id="edge1" class="edge"><title>Node1&#45;&gt;Node2</title>
<path fill="none" stroke="midnightblue" d="M708.895,-105.601C588.434,-99.9535 367.96,-85.8186 182.5,-53 173.33,-51.3774 163.758,-49.3047 154.36,-47.044"/>
<polygon fill="midnightblue" stroke="midnightblue" points="709.02,-109.111 719.17,-106.074 709.341,-102.118 709.02,-109.111"/>
</g>
<!-- Node3 -->
<g id="node3" class="node"><title>Node3</title>
<g id="a_node3"><a xlink:href="../../db/d7b/DalitzFitD03K_8cpp.html" target="_top" xlink:title="Executable for Dalitz plot analysis of the decay D0 &#45;&gt; K_S K+ K&#45;. ">
<polygon fill="white" stroke="black" points="191.5,-0.5 191.5,-52.5 349.5,-52.5 349.5,-0.5 191.5,-0.5"/>
<text text-anchor="start" x="199.5" y="-40.5" font-family="Helvetica,sans-Serif" font-size="10.00">/home/travis/build</text>
<text text-anchor="start" x="199.5" y="-29.5" font-family="Helvetica,sans-Serif" font-size="10.00">/ComPWA/ComPWA/Examples</text>
<text text-anchor="start" x="199.5" y="-18.5" font-family="Helvetica,sans-Serif" font-size="10.00">/DalitzAnalysis_D0KsKK</text>
<text text-anchor="middle" x="270.5" y="-7.5" font-family="Helvetica,sans-Serif" font-size="10.00">/DalitzFitD03K.cpp</text>
</a>
</g>
</g>
<!-- Node1&#45;&gt;Node3 -->
<g id="edge2" class="edge"><title>Node1&#45;&gt;Node3</title>
<path fill="none" stroke="midnightblue" d="M709.101,-101.729C619.723,-93.4989 478.662,-77.8988 358.5,-53 355.541,-52.3868 352.536,-51.7241 349.509,-51.0228"/>
<polygon fill="midnightblue" stroke="midnightblue" points="708.925,-105.227 719.201,-102.647 709.559,-98.2558 708.925,-105.227"/>
</g>
<!-- Node4 -->
<g id="node4" class="node"><title>Node4</title>
<g id="a_node4"><a xlink:href="../../da/d2a/DalitzFitApp_8cpp.html" target="_top" xlink:title="Simple Dalitz plot analysis with ComPWA. ">
<polygon fill="white" stroke="black" points="367.5,-6 367.5,-47 525.5,-47 525.5,-6 367.5,-6"/>
<text text-anchor="start" x="375.5" y="-35" font-family="Helvetica,sans-Serif" font-size="10.00">/home/travis/build</text>
<text text-anchor="start" x="375.5" y="-24" font-family="Helvetica,sans-Serif" font-size="10.00">/ComPWA/ComPWA/Examples</text>
<text text-anchor="middle" x="446.5" y="-13" font-family="Helvetica,sans-Serif" font-size="10.00">/DalitzFit/DalitzFitApp.cpp</text>
</a>
</g>
</g>
<!-- Node1&#45;&gt;Node4 -->
<g id="edge3" class="edge"><title>Node1&#45;&gt;Node4</title>
<path fill="none" stroke="midnightblue" d="M709.243,-91.7547C657.916,-81.4171 592.34,-67.4941 534.5,-53 527.248,-51.1828 519.693,-49.1733 512.19,-47.1034"/>
<polygon fill="midnightblue" stroke="midnightblue" points="708.819,-95.2392 719.312,-93.7735 710.195,-88.3758 708.819,-95.2392"/>
</g>
<!-- Node5 -->
<g id="node5" class="node"><title>Node5</title>
<g id="a_node5"><a xlink:href="../../dd/d39/EvtGenFit_8cpp.html" target="_top" xlink:title="/home/travis/build\l/ComPWA/ComPWA/Examples\l/EvtGen/EvtGenFit.cpp">
<polygon fill="white" stroke="black" points="543.5,-6 543.5,-47 701.5,-47 701.5,-6 543.5,-6"/>
<text text-anchor="start" x="551.5" y="-35" font-family="Helvetica,sans-Serif" font-size="10.00">/home/travis/build</text>
<text text-anchor="start" x="551.5" y="-24" font-family="Helvetica,sans-Serif" font-size="10.00">/ComPWA/ComPWA/Examples</text>
<text text-anchor="middle" x="622.5" y="-13" font-family="Helvetica,sans-Serif" font-size="10.00">/EvtGen/EvtGenFit.cpp</text>
</a>
</g>
</g>
<!-- Node1&#45;&gt;Node5 -->
<g id="edge4" class="edge"><title>Node1&#45;&gt;Node5</title>
<path fill="none" stroke="midnightblue" d="M746.953,-85.1302C720.761,-73.0016 689.336,-58.4497 664.617,-47.0031"/>
<polygon fill="midnightblue" stroke="midnightblue" points="745.799,-88.4527 756.344,-89.4787 748.74,-82.1006 745.799,-88.4527"/>
</g>
<!-- Node6 -->
<g id="node6" class="node"><title>Node6</title>
<g id="a_node6"><a xlink:href="../../db/d0e/SimFit_8cpp.html" target="_top" xlink:title="/home/travis/build\l/ComPWA/ComPWA/Examples\l/SimFit/SimFit.cpp">
<polygon fill="white" stroke="black" points="719.5,-6 719.5,-47 877.5,-47 877.5,-6 719.5,-6"/>
<text text-anchor="start" x="727.5" y="-35" font-family="Helvetica,sans-Serif" font-size="10.00">/home/travis/build</text>
<text text-anchor="start" x="727.5" y="-24" font-family="Helvetica,sans-Serif" font-size="10.00">/ComPWA/ComPWA/Examples</text>
<text text-anchor="middle" x="798.5" y="-13" font-family="Helvetica,sans-Serif" font-size="10.00">/SimFit/SimFit.cpp</text>
</a>
</g>
</g>
<!-- Node1&#45;&gt;Node6 -->
<g id="edge5" class="edge"><title>Node1&#45;&gt;Node6</title>
<path fill="none" stroke="midnightblue" d="M798.5,-79.0646C798.5,-68.3819 798.5,-56.6303 798.5,-47.0472"/>
<polygon fill="midnightblue" stroke="midnightblue" points="795,-79.2711 798.5,-89.2711 802,-79.2712 795,-79.2711"/>
</g>
<!-- Node7 -->
<g id="node7" class="node"><title>Node7</title>
<g id="a_node7"><a xlink:href="../../d1/d1d/FitTest_8cpp.html" target="_top" xlink:title="/home/travis/build\l/ComPWA/ComPWA/Examples\l/test/FitTest/FitTest.cpp">
<polygon fill="white" stroke="black" points="895.5,-6 895.5,-47 1053.5,-47 1053.5,-6 895.5,-6"/>
<text text-anchor="start" x="903.5" y="-35" font-family="Helvetica,sans-Serif" font-size="10.00">/home/travis/build</text>
<text text-anchor="start" x="903.5" y="-24" font-family="Helvetica,sans-Serif" font-size="10.00">/ComPWA/ComPWA/Examples</text>
<text text-anchor="middle" x="974.5" y="-13" font-family="Helvetica,sans-Serif" font-size="10.00">/test/FitTest/FitTest.cpp</text>
</a>
</g>
</g>
<!-- Node1&#45;&gt;Node7 -->
<g id="edge6" class="edge"><title>Node1&#45;&gt;Node7</title>
<path fill="none" stroke="midnightblue" d="M850.047,-85.1302C876.239,-73.0016 907.664,-58.4497 932.383,-47.0031"/>
<polygon fill="midnightblue" stroke="midnightblue" points="848.26,-82.1006 840.656,-89.4787 851.201,-88.4527 848.26,-82.1006"/>
</g>
<!-- Node8 -->
<g id="node8" class="node"><title>Node8</title>
<g id="a_node8"><a xlink:href="../../d0/d33/MinuitIF_8cpp.html" target="_top" xlink:title="/home/travis/build\l/ComPWA/ComPWA/Optimizer\l/Minuit2/MinuitIF.cpp">
<polygon fill="white" stroke="black" points="1071.5,-6 1071.5,-47 1229.5,-47 1229.5,-6 1071.5,-6"/>
<text text-anchor="start" x="1079.5" y="-35" font-family="Helvetica,sans-Serif" font-size="10.00">/home/travis/build</text>
<text text-anchor="start" x="1079.5" y="-24" font-family="Helvetica,sans-Serif" font-size="10.00">/ComPWA/ComPWA/Optimizer</text>
<text text-anchor="middle" x="1150.5" y="-13" font-family="Helvetica,sans-Serif" font-size="10.00">/Minuit2/MinuitIF.cpp</text>
</a>
</g>
</g>
<!-- Node1&#45;&gt;Node8 -->
<g id="edge7" class="edge"><title>Node1&#45;&gt;Node8</title>
<path fill="none" stroke="midnightblue" d="M887.757,-91.7547C939.084,-81.4171 1004.66,-67.4941 1062.5,-53 1069.75,-51.1828 1077.31,-49.1733 1084.81,-47.1034"/>
<polygon fill="midnightblue" stroke="midnightblue" points="886.805,-88.3758 877.688,-93.7735 888.181,-95.2392 886.805,-88.3758"/>
</g>
<!-- Node9 -->
<g id="node9" class="node"><title>Node9</title>
<g id="a_node9"><a xlink:href="../../da/d21/MinuitTestApp_8cpp.html" target="_top" xlink:title="/home/travis/build\l/ComPWA/ComPWA/Optimizer\l/Minuit2/test/MinuitTestApp.cpp">
<polygon fill="white" stroke="black" points="1248,-6 1248,-47 1413,-47 1413,-6 1248,-6"/>
<text text-anchor="start" x="1256" y="-35" font-family="Helvetica,sans-Serif" font-size="10.00">/home/travis/build</text>
<text text-anchor="start" x="1256" y="-24" font-family="Helvetica,sans-Serif" font-size="10.00">/ComPWA/ComPWA/Optimizer</text>
<text text-anchor="middle" x="1330.5" y="-13" font-family="Helvetica,sans-Serif" font-size="10.00">/Minuit2/test/MinuitTestApp.cpp</text>
</a>
</g>
</g>
<!-- Node1&#45;&gt;Node9 -->
<g id="edge8" class="edge"><title>Node1&#45;&gt;Node9</title>
<path fill="none" stroke="midnightblue" d="M887.837,-101.429C977.169,-92.9695 1118.2,-77.1978 1238.5,-53 1246.95,-51.3005 1255.76,-49.2393 1264.44,-47.0334"/>
<polygon fill="midnightblue" stroke="midnightblue" points="887.373,-97.957 877.743,-102.375 888.026,-104.927 887.373,-97.957"/>
</g>
<!-- Node10 -->
<g id="node10" class="node"><title>Node10</title>
<g id="a_node10"><a xlink:href="../../df/d51/SaveAndLoadFitResultTest_8cpp.html" target="_top" xlink:title="/home/travis/build\l/ComPWA/ComPWA/Tools\l/test/SaveAndLoadFitResultTest.cpp">
<polygon fill="white" stroke="black" points="1431,-6 1431,-47 1616,-47 1616,-6 1431,-6"/>
<text text-anchor="start" x="1439" y="-35" font-family="Helvetica,sans-Serif" font-size="10.00">/home/travis/build</text>
<text text-anchor="start" x="1439" y="-24" font-family="Helvetica,sans-Serif" font-size="10.00">/ComPWA/ComPWA/Tools</text>
<text text-anchor="middle" x="1523.5" y="-13" font-family="Helvetica,sans-Serif" font-size="10.00">/test/SaveAndLoadFitResultTest.cpp</text>
</a>
</g>
</g>
<!-- Node1&#45;&gt;Node10 -->
<g id="edge9" class="edge"><title>Node1&#45;&gt;Node10</title>
<path fill="none" stroke="midnightblue" d="M887.831,-105.417C1009.48,-99.5309 1233.72,-85.0954 1422.5,-53 1432.13,-51.3631 1442.19,-49.2822 1452.07,-47.0174"/>
<polygon fill="midnightblue" stroke="midnightblue" points="887.64,-101.922 877.818,-105.893 887.973,-108.914 887.64,-101.922"/>
</g>
</g>
</svg>
