<?xml version="1.0" encoding="UTF-8" standalone="no"?>
<!DOCTYPE svg PUBLIC "-//W3C//DTD SVG 1.1//EN"
 "http://www.w3.org/Graphics/SVG/1.1/DTD/svg11.dtd">
<!-- Generated by graphviz version 2.38.0 (20140413.2041)
 -->
<!-- Title: TestBackendWork::TestBlock Pages: 1 -->
<svg width="157pt" height="171pt"
 viewBox="0.00 0.00 157.00 171.00" xmlns="http://www.w3.org/2000/svg" xmlns:xlink="http://www.w3.org/1999/xlink">
<g id="graph0" class="graph" transform="scale(1 1) rotate(0) translate(4 167)">
<title>TestBackendWork::TestBlock</title>
<polygon fill="white" stroke="none" points="-4,4 -4,-167 153,-167 153,4 -4,4"/>
<!-- Node1 -->
<g id="node1" class="node"><title>Node1</title>
<polygon fill="#bfbfbf" stroke="black" points="-1.42109e-14,-0.5 -1.42109e-14,-57.5 149,-57.5 149,-0.5 -1.42109e-14,-0.5"/>
<text text-anchor="middle" x="74.5" y="-45.5" font-family="Helvetica,sans-Serif" font-size="10.00">TestBackendWork::TestBlock</text>
<polyline fill="none" stroke="black" points="-1.42109e-14,-38.5 149,-38.5 "/>
<text text-anchor="start" x="8" y="-26.5" font-family="Helvetica,sans-Serif" font-size="10.00">+ data</text>
<polyline fill="none" stroke="black" points="-1.42109e-14,-19.5 149,-19.5 "/>
<text text-anchor="middle" x="74.5" y="-7.5" font-family="Helvetica,sans-Serif" font-size="10.00"> </text>
</g>
<!-- Node2 -->
<g id="node2" class="node"><title>Node2</title>
<g id="a_node2"><a xlink:href="../../d6/dcf/classrml_1_1internal_1_1BackRefIdx.html" target="_top" xlink:title="{rml::internal::BackRefIdx\n||}">
<polygon fill="white" stroke="black" points="9,-105.5 9,-162.5 140,-162.5 140,-105.5 9,-105.5"/>
<text text-anchor="middle" x="74.5" y="-150.5" font-family="Helvetica,sans-Serif" font-size="10.00">rml::internal::BackRefIdx</text>
<polyline fill="none" stroke="black" points="9,-143.5 140,-143.5 "/>
<text text-anchor="middle" x="74.5" y="-131.5" font-family="Helvetica,sans-Serif" font-size="10.00"> </text>
<polyline fill="none" stroke="black" points="9,-124.5 140,-124.5 "/>
<text text-anchor="middle" x="74.5" y="-112.5" font-family="Helvetica,sans-Serif" font-size="10.00"> </text>
</a>
</g>
</g>
<!-- Node2&#45;&gt;Node1 -->
<g id="edge1" class="edge"><title>Node2&#45;&gt;Node1</title>
<path fill="none" stroke="#404040" d="M74.5,-105.398C74.5,-94.5451 74.5,-81.8731 74.5,-70.0493"/>
<polygon fill="none" stroke="#404040" points="74.5001,-69.6783 70.5,-63.6783 74.5,-57.6783 78.5,-63.6783 74.5001,-69.6783"/>
<text text-anchor="middle" x="87" y="-79" font-family="Helvetica,sans-Serif" font-size="10.00"> +idx</text>
</g>
</g>
</svg>
