<?xml version="1.0" encoding="UTF-8" standalone="no"?>
<!DOCTYPE svg PUBLIC "-//W3C//DTD SVG 1.1//EN"
 "http://www.w3.org/Graphics/SVG/1.1/DTD/svg11.dtd">
<!-- Generated by graphviz version 2.38.0 (20140413.2041)
 -->
<!-- Title: tbb::internal::pipeline_root_task Pages: 1 -->
<svg width="139pt" height="193pt"
 viewBox="0.00 0.00 139.00 193.00" xmlns="http://www.w3.org/2000/svg" xmlns:xlink="http://www.w3.org/1999/xlink">
<g id="graph0" class="graph" transform="scale(1 1) rotate(0) translate(4 189)">
<title>tbb::internal::pipeline_root_task</title>
<polygon fill="white" stroke="none" points="-4,4 -4,-189 135,-189 135,4 -4,4"/>
<!-- Node1 -->
<g id="node1" class="node"><title>Node1</title>
<polygon fill="#bfbfbf" stroke="black" points="0,-0.5 0,-90.5 131,-90.5 131,-0.5 0,-0.5"/>
<text text-anchor="start" x="8" y="-78.5" font-family="Helvetica,sans-Serif" font-size="10.00">tbb::internal::pipeline</text>
<text text-anchor="middle" x="65.5" y="-67.5" font-family="Helvetica,sans-Serif" font-size="10.00">_root_task</text>
<polyline fill="none" stroke="black" points="0,-60.5 131,-60.5 "/>
<text text-anchor="start" x="8" y="-48.5" font-family="Helvetica,sans-Serif" font-size="10.00">&#45; my_pipeline</text>
<text text-anchor="start" x="8" y="-37.5" font-family="Helvetica,sans-Serif" font-size="10.00">&#45; do_segment_scanning</text>
<polyline fill="none" stroke="black" points="0,-30.5 131,-30.5 "/>
<text text-anchor="start" x="8" y="-18.5" font-family="Helvetica,sans-Serif" font-size="10.00">+ pipeline_root_task()</text>
<text text-anchor="start" x="8" y="-7.5" font-family="Helvetica,sans-Serif" font-size="10.00">&#45; execute()</text>
</g>
<!-- Node2 -->
<g id="node2" class="node"><title>Node2</title>
<polygon fill="white" stroke="#bfbfbf" points="47,-127.5 47,-184.5 84,-184.5 84,-127.5 47,-127.5"/>
<text text-anchor="middle" x="65.5" y="-172.5" font-family="Helvetica,sans-Serif" font-size="10.00">task</text>
<polyline fill="none" stroke="#bfbfbf" points="47,-165.5 84,-165.5 "/>
<text text-anchor="middle" x="65.5" y="-153.5" font-family="Helvetica,sans-Serif" font-size="10.00"> </text>
<polyline fill="none" stroke="#bfbfbf" points="47,-146.5 84,-146.5 "/>
<text text-anchor="middle" x="65.5" y="-134.5" font-family="Helvetica,sans-Serif" font-size="10.00"> </text>
</g>
<!-- Node2&#45;&gt;Node1 -->
<g id="edge1" class="edge"><title>Node2&#45;&gt;Node1</title>
<path fill="none" stroke="midnightblue" d="M65.5,-117.214C65.5,-108.609 65.5,-99.3943 65.5,-90.5541"/>
<polygon fill="none" stroke="midnightblue" points="62.0001,-117.34 65.5,-127.34 69.0001,-117.34 62.0001,-117.34"/>
</g>
</g>
</svg>
