<?xml version="1.0" encoding="UTF-8" standalone="no"?>
<!DOCTYPE svg PUBLIC "-//W3C//DTD SVG 1.1//EN"
 "http://www.w3.org/Graphics/SVG/1.1/DTD/svg11.dtd">
<!-- Generated by graphviz version 2.38.0 (20140413.2041)
 -->
<!-- Title: /home/travis/build/ComPWA/ComPWA/ThirdParty/tbb/src/tbb/dynamic_link.cpp Pages: 1 -->
<svg width="870pt" height="228pt"
 viewBox="0.00 0.00 870.00 228.00" xmlns="http://www.w3.org/2000/svg" xmlns:xlink="http://www.w3.org/1999/xlink">
<g id="graph0" class="graph" transform="scale(1 1) rotate(0) translate(4 224)">
<title>/home/travis/build/ComPWA/ComPWA/ThirdParty/tbb/src/tbb/dynamic_link.cpp</title>
<polygon fill="white" stroke="none" points="-4,4 -4,-224 866,-224 866,4 -4,4"/>
<!-- Node1 -->
<g id="node1" class="node"><title>Node1</title>
<polygon fill="#bfbfbf" stroke="black" points="352,-178.5 352,-219.5 510,-219.5 510,-178.5 352,-178.5"/>
<text text-anchor="start" x="360" y="-207.5" font-family="Helvetica,sans-Serif" font-size="10.00">/home/travis/build</text>
<text text-anchor="start" x="360" y="-196.5" font-family="Helvetica,sans-Serif" font-size="10.00">/ComPWA/ComPWA/ThirdParty</text>
<text text-anchor="middle" x="431" y="-185.5" font-family="Helvetica,sans-Serif" font-size="10.00">/tbb/src/tbb/dynamic_link.cpp</text>
</g>
<!-- Node2 -->
<g id="node2" class="node"><title>Node2</title>
<g id="a_node2"><a xlink:href="../../d6/d6d/omp__dynamic__link_8cpp.html" target="_top" xlink:title="/home/travis/build\l/ComPWA/ComPWA/ThirdParty\l/tbb/src/rml/client/omp\l_dynamic_link.cpp">
<polygon fill="white" stroke="black" points="176,-89.5 176,-141.5 334,-141.5 334,-89.5 176,-89.5"/>
<text text-anchor="start" x="184" y="-129.5" font-family="Helvetica,sans-Serif" font-size="10.00">/home/travis/build</text>
<text text-anchor="start" x="184" y="-118.5" font-family="Helvetica,sans-Serif" font-size="10.00">/ComPWA/ComPWA/ThirdParty</text>
<text text-anchor="start" x="184" y="-107.5" font-family="Helvetica,sans-Serif" font-size="10.00">/tbb/src/rml/client/omp</text>
<text text-anchor="middle" x="255" y="-96.5" font-family="Helvetica,sans-Serif" font-size="10.00">_dynamic_link.cpp</text>
</a>
</g>
</g>
<!-- Node1&#45;&gt;Node2 -->
<g id="edge1" class="edge"><title>Node1&#45;&gt;Node2</title>
<path fill="none" stroke="midnightblue" d="M379.609,-174.203C357.477,-163.954 331.584,-151.964 309.153,-141.576"/>
<polygon fill="midnightblue" stroke="midnightblue" points="378.299,-177.453 388.844,-178.479 381.24,-171.101 378.299,-177.453"/>
</g>
<!-- Node3 -->
<g id="node3" class="node"><title>Node3</title>
<g id="a_node3"><a xlink:href="../../d8/d0e/harness__inject__scheduler_8h.html" target="_top" xlink:title="/home/travis/build\l/ComPWA/ComPWA/ThirdParty\l/tbb/src/test/harness_inject\l_scheduler.h">
<polygon fill="white" stroke="black" points="352,-89.5 352,-141.5 510,-141.5 510,-89.5 352,-89.5"/>
<text text-anchor="start" x="360" y="-129.5" font-family="Helvetica,sans-Serif" font-size="10.00">/home/travis/build</text>
<text text-anchor="start" x="360" y="-118.5" font-family="Helvetica,sans-Serif" font-size="10.00">/ComPWA/ComPWA/ThirdParty</text>
<text text-anchor="start" x="360" y="-107.5" font-family="Helvetica,sans-Serif" font-size="10.00">/tbb/src/test/harness_inject</text>
<text text-anchor="middle" x="431" y="-96.5" font-family="Helvetica,sans-Serif" font-size="10.00">_scheduler.h</text>
</a>
</g>
</g>
<!-- Node1&#45;&gt;Node3 -->
<g id="edge2" class="edge"><title>Node1&#45;&gt;Node3</title>
<path fill="none" stroke="midnightblue" d="M431,-168.121C431,-159.413 431,-149.989 431,-141.607"/>
<polygon fill="midnightblue" stroke="midnightblue" points="427.5,-168.271 431,-178.271 434.5,-168.271 427.5,-168.271"/>
</g>
<!-- Node9 -->
<g id="node9" class="node"><title>Node9</title>
<g id="a_node9"><a xlink:href="../../de/dc7/test__dynamic__link_8cpp.html" target="_top" xlink:title="/home/travis/build\l/ComPWA/ComPWA/ThirdParty\l/tbb/src/test/test_dynamic\l_link.cpp">
<polygon fill="white" stroke="black" points="528,-89.5 528,-141.5 686,-141.5 686,-89.5 528,-89.5"/>
<text text-anchor="start" x="536" y="-129.5" font-family="Helvetica,sans-Serif" font-size="10.00">/home/travis/build</text>
<text text-anchor="start" x="536" y="-118.5" font-family="Helvetica,sans-Serif" font-size="10.00">/ComPWA/ComPWA/ThirdParty</text>
<text text-anchor="start" x="536" y="-107.5" font-family="Helvetica,sans-Serif" font-size="10.00">/tbb/src/test/test_dynamic</text>
<text text-anchor="middle" x="607" y="-96.5" font-family="Helvetica,sans-Serif" font-size="10.00">_link.cpp</text>
</a>
</g>
</g>
<!-- Node1&#45;&gt;Node9 -->
<g id="edge8" class="edge"><title>Node1&#45;&gt;Node9</title>
<path fill="none" stroke="midnightblue" d="M482.391,-174.203C504.523,-163.954 530.416,-151.964 552.847,-141.576"/>
<polygon fill="midnightblue" stroke="midnightblue" points="480.76,-171.101 473.156,-178.479 483.701,-177.453 480.76,-171.101"/>
</g>
<!-- Node4 -->
<g id="node4" class="node"><title>Node4</title>
<g id="a_node4"><a xlink:href="../../d2/d86/test__concurrent__queue__whitebox_8cpp.html" target="_top" xlink:title="/home/travis/build\l/ComPWA/ComPWA/ThirdParty\l/tbb/src/test/test_concurrent\l_queue_whitebox.cpp">
<polygon fill="white" stroke="black" points="0,-0.5 0,-52.5 158,-52.5 158,-0.5 0,-0.5"/>
<text text-anchor="start" x="8" y="-40.5" font-family="Helvetica,sans-Serif" font-size="10.00">/home/travis/build</text>
<text text-anchor="start" x="8" y="-29.5" font-family="Helvetica,sans-Serif" font-size="10.00">/ComPWA/ComPWA/ThirdParty</text>
<text text-anchor="start" x="8" y="-18.5" font-family="Helvetica,sans-Serif" font-size="10.00">/tbb/src/test/test_concurrent</text>
<text text-anchor="middle" x="79" y="-7.5" font-family="Helvetica,sans-Serif" font-size="10.00">_queue_whitebox.cpp</text>
</a>
</g>
</g>
<!-- Node3&#45;&gt;Node4 -->
<g id="edge3" class="edge"><title>Node3&#45;&gt;Node4</title>
<path fill="none" stroke="midnightblue" d="M342.089,-88.8611C263.759,-70.017 241.489,-71.3792 167,-53 164.066,-52.276 161.082,-51.5191 158.073,-50.738"/>
<polygon fill="midnightblue" stroke="midnightblue" points="341.382,-92.2912 351.927,-91.262 343.042,-85.4908 341.382,-92.2912"/>
</g>
<!-- Node5 -->
<g id="node5" class="node"><title>Node5</title>
<g id="a_node5"><a xlink:href="../../d3/d92/test__fast__random_8cpp.html" target="_top" xlink:title="/home/travis/build\l/ComPWA/ComPWA/ThirdParty\l/tbb/src/test/test_fast\l_random.cpp">
<polygon fill="white" stroke="black" points="176,-0.5 176,-52.5 334,-52.5 334,-0.5 176,-0.5"/>
<text text-anchor="start" x="184" y="-40.5" font-family="Helvetica,sans-Serif" font-size="10.00">/home/travis/build</text>
<text text-anchor="start" x="184" y="-29.5" font-family="Helvetica,sans-Serif" font-size="10.00">/ComPWA/ComPWA/ThirdParty</text>
<text text-anchor="start" x="184" y="-18.5" font-family="Helvetica,sans-Serif" font-size="10.00">/tbb/src/test/test_fast</text>
<text text-anchor="middle" x="255" y="-7.5" font-family="Helvetica,sans-Serif" font-size="10.00">_random.cpp</text>
</a>
</g>
</g>
<!-- Node3&#45;&gt;Node5 -->
<g id="edge4" class="edge"><title>Node3&#45;&gt;Node5</title>
<path fill="none" stroke="midnightblue" d="M370.869,-84.7763C349.695,-74.3094 326.12,-62.656 305.792,-52.6075"/>
<polygon fill="midnightblue" stroke="midnightblue" points="369.578,-88.0422 380.094,-89.336 372.68,-81.767 369.578,-88.0422"/>
</g>
<!-- Node6 -->
<g id="node6" class="node"><title>Node6</title>
<g id="a_node6"><a xlink:href="../../db/dbe/test__global__control__whitebox_8cpp.html" target="_top" xlink:title="/home/travis/build\l/ComPWA/ComPWA/ThirdParty\l/tbb/src/test/test_global\l_control_whitebox.cpp">
<polygon fill="white" stroke="black" points="352,-0.5 352,-52.5 510,-52.5 510,-0.5 352,-0.5"/>
<text text-anchor="start" x="360" y="-40.5" font-family="Helvetica,sans-Serif" font-size="10.00">/home/travis/build</text>
<text text-anchor="start" x="360" y="-29.5" font-family="Helvetica,sans-Serif" font-size="10.00">/ComPWA/ComPWA/ThirdParty</text>
<text text-anchor="start" x="360" y="-18.5" font-family="Helvetica,sans-Serif" font-size="10.00">/tbb/src/test/test_global</text>
<text text-anchor="middle" x="431" y="-7.5" font-family="Helvetica,sans-Serif" font-size="10.00">_control_whitebox.cpp</text>
</a>
</g>
</g>
<!-- Node3&#45;&gt;Node6 -->
<g id="edge5" class="edge"><title>Node3&#45;&gt;Node6</title>
<path fill="none" stroke="midnightblue" d="M431,-79.1908C431,-70.2824 431,-60.8986 431,-52.6075"/>
<polygon fill="midnightblue" stroke="midnightblue" points="427.5,-79.336 431,-89.336 434.5,-79.336 427.5,-79.336"/>
</g>
<!-- Node7 -->
<g id="node7" class="node"><title>Node7</title>
<g id="a_node7"><a xlink:href="../../d3/d61/test__task__assertions_8cpp.html" target="_top" xlink:title="/home/travis/build\l/ComPWA/ComPWA/ThirdParty\l/tbb/src/test/test_task\l_assertions.cpp">
<polygon fill="white" stroke="black" points="528,-0.5 528,-52.5 686,-52.5 686,-0.5 528,-0.5"/>
<text text-anchor="start" x="536" y="-40.5" font-family="Helvetica,sans-Serif" font-size="10.00">/home/travis/build</text>
<text text-anchor="start" x="536" y="-29.5" font-family="Helvetica,sans-Serif" font-size="10.00">/ComPWA/ComPWA/ThirdParty</text>
<text text-anchor="start" x="536" y="-18.5" font-family="Helvetica,sans-Serif" font-size="10.00">/tbb/src/test/test_task</text>
<text text-anchor="middle" x="607" y="-7.5" font-family="Helvetica,sans-Serif" font-size="10.00">_assertions.cpp</text>
</a>
</g>
</g>
<!-- Node3&#45;&gt;Node7 -->
<g id="edge6" class="edge"><title>Node3&#45;&gt;Node7</title>
<path fill="none" stroke="midnightblue" d="M491.131,-84.7763C512.305,-74.3094 535.88,-62.656 556.208,-52.6075"/>
<polygon fill="midnightblue" stroke="midnightblue" points="489.32,-81.767 481.906,-89.336 492.422,-88.0422 489.32,-81.767"/>
</g>
<!-- Node8 -->
<g id="node8" class="node"><title>Node8</title>
<g id="a_node8"><a xlink:href="../../d3/d72/test__task__leaks_8cpp.html" target="_top" xlink:title="/home/travis/build\l/ComPWA/ComPWA/ThirdParty\l/tbb/src/test/test_task\l_leaks.cpp">
<polygon fill="white" stroke="black" points="704,-0.5 704,-52.5 862,-52.5 862,-0.5 704,-0.5"/>
<text text-anchor="start" x="712" y="-40.5" font-family="Helvetica,sans-Serif" font-size="10.00">/home/travis/build</text>
<text text-anchor="start" x="712" y="-29.5" font-family="Helvetica,sans-Serif" font-size="10.00">/ComPWA/ComPWA/ThirdParty</text>
<text text-anchor="start" x="712" y="-18.5" font-family="Helvetica,sans-Serif" font-size="10.00">/tbb/src/test/test_task</text>
<text text-anchor="middle" x="783" y="-7.5" font-family="Helvetica,sans-Serif" font-size="10.00">_leaks.cpp</text>
</a>
</g>
</g>
<!-- Node3&#45;&gt;Node8 -->
<g id="edge7" class="edge"><title>Node3&#45;&gt;Node8</title>
<path fill="none" stroke="midnightblue" d="M519.911,-88.8611C598.241,-70.017 620.511,-71.3792 695,-53 697.934,-52.276 700.918,-51.5191 703.927,-50.738"/>
<polygon fill="midnightblue" stroke="midnightblue" points="518.958,-85.4908 510.073,-91.262 520.618,-92.2912 518.958,-85.4908"/>
</g>
</g>
</svg>
