<?xml version="1.0" encoding="UTF-8" standalone="no"?>
<!DOCTYPE svg PUBLIC "-//W3C//DTD SVG 1.1//EN"
 "http://www.w3.org/Graphics/SVG/1.1/DTD/svg11.dtd">
<!-- Generated by graphviz version 2.38.0 (20140413.2041)
 -->
<!-- Title: /home/travis/build/ComPWA/ComPWA/ThirdParty/tbb/examples/parallel_for/polygon_overlay/pover_video.cpp Pages: 1 -->
<!--zoomable 352 -->
<svg id="main" version="1.1" xmlns="http://www.w3.org/2000/svg" xmlns:xlink="http://www.w3.org/1999/xlink" xml:space="preserve" onload="init(evt)">
<style type="text/css"><![CDATA[
.edge:hover path { stroke: red; }
.edge:hover polygon { stroke: red; fill: red; }
]]></style>
<script type="text/javascript"><![CDATA[
var edges = document.getElementsByTagName('g');
if (edges && edges.length) {
  for (var i=0;i<edges.length;i++) {
    if (edges[i].id.substr(0,4)=='edge') {
      edges[i].setAttribute('class','edge');
    }
  }
}
]]></script>
        <defs>
                <circle id="rim" cx="0" cy="0" r="7"/>
                <circle id="rim2" cx="0" cy="0" r="3.5"/>
                <g id="zoomPlus">
                        <use xlink:href="#rim" fill="#404040">
                                <set attributeName="fill" to="#808080" begin="zoomplus.mouseover" end="zoomplus.mouseout"/>
                        </use>
                        <path d="M-4,0h8M0,-4v8" fill="none" stroke="white" stroke-width="1.5" pointer-events="none"/>
                </g>
                <g id="zoomMin">
                        <use xlink:href="#rim" fill="#404040">
                                <set attributeName="fill" to="#808080" begin="zoomminus.mouseover" end="zoomminus.mouseout"/>
                        </use>
                        <path d="M-4,0h8" fill="none" stroke="white" stroke-width="1.5" pointer-events="none"/>
                </g>
                <g id="dirArrow">
                        <path fill="none" stroke="white" stroke-width="1.5" d="M0,-3.0v7 M-2.5,-0.5L0,-3.0L2.5,-0.5"/>
                </g>
               <g id="resetDef">
                       <use xlink:href="#rim2" fill="#404040">
                               <set attributeName="fill" to="#808080" begin="reset.mouseover" end="reset.mouseout"/>
                       </use>
               </g>
        </defs>

<script type="text/javascript">
var viewWidth = 693;
var viewHeight = 352;
var sectionId = 'dynsection-0';
</script>
<script xlink:href="../../svgpan.js"/>
<svg id="graph" class="graph">
<g id="viewport">
<title>/home/travis/build/ComPWA/ComPWA/ThirdParty/tbb/examples/parallel_for/polygon_overlay/pover_video.cpp</title>
<polygon fill="white" stroke="none" points="-4,4 -4,-348 688.5,-348 688.5,4 -4,4"/>
<!-- Node1 -->
<g id="node1" class="node"><title>Node1</title>
<polygon fill="#bfbfbf" stroke="black" points="277,-291.5 277,-343.5 455,-343.5 455,-291.5 277,-291.5"/>
<text text-anchor="start" x="285" y="-331.5" font-family="Helvetica,sans-Serif" font-size="10.00">/home/travis/build</text>
<text text-anchor="start" x="285" y="-320.5" font-family="Helvetica,sans-Serif" font-size="10.00">/ComPWA/ComPWA/ThirdParty</text>
<text text-anchor="start" x="285" y="-309.5" font-family="Helvetica,sans-Serif" font-size="10.00">/tbb/examples/parallel_for</text>
<text text-anchor="middle" x="366" y="-298.5" font-family="Helvetica,sans-Serif" font-size="10.00">/polygon_overlay/pover_video.cpp</text>
</g>
<!-- Node2 -->
<g id="node2" class="node"><title>Node2</title>
<polygon fill="white" stroke="#bfbfbf" points="83.5,-0.5 83.5,-19.5 142.5,-19.5 142.5,-0.5 83.5,-0.5"/>
<text text-anchor="middle" x="113" y="-7.5" font-family="Helvetica,sans-Serif" font-size="10.00">iostream</text>
</g>
<!-- Node1&#45;&gt;Node2 -->
<g id="edge1" class="edge"><title>Node1&#45;&gt;Node2</title>
<path fill="none" stroke="midnightblue" d="M276.934,-301.301C168.597,-280.231 0,-237.969 0,-179 0,-179 0,-179 0,-121 0,-74.4023 49.9475,-41.1433 83.4282,-24.0835"/>
<polygon fill="midnightblue" stroke="midnightblue" points="85.348,-27.0411 92.7979,-19.5078 82.2762,-20.7511 85.348,-27.0411"/>
</g>
<!-- Node3 -->
<g id="node3" class="node"><title>Node3</title>
<g id="a_node3"><a xlink:href="../../de/d55/polyover_8h.html" target="_top" xlink:title="polyover.h">
<polygon fill="white" stroke="black" points="254.5,-230 254.5,-249 319.5,-249 319.5,-230 254.5,-230"/>
<text text-anchor="middle" x="287" y="-237" font-family="Helvetica,sans-Serif" font-size="10.00">polyover.h</text>
</a>
</g>
</g>
<!-- Node1&#45;&gt;Node3 -->
<g id="edge2" class="edge"><title>Node1&#45;&gt;Node3</title>
<path fill="none" stroke="midnightblue" d="M339.694,-291.193C327.676,-279.632 313.817,-266.299 303.329,-256.209"/>
<polygon fill="midnightblue" stroke="midnightblue" points="305.686,-253.62 296.053,-249.209 300.833,-258.664 305.686,-253.62"/>
</g>
<!-- Node5 -->
<g id="node5" class="node"><title>Node5</title>
<g id="a_node5"><a xlink:href="../../dd/df9/pover__video_8h.html" target="_top" xlink:title="pover_video.h">
<polygon fill="white" stroke="red" points="115.5,-112.5 115.5,-131.5 198.5,-131.5 198.5,-112.5 115.5,-112.5"/>
<text text-anchor="middle" x="157" y="-119.5" font-family="Helvetica,sans-Serif" font-size="10.00">pover_video.h</text>
</a>
</g>
</g>
<!-- Node1&#45;&gt;Node5 -->
<g id="edge14" class="edge"><title>Node1&#45;&gt;Node5</title>
<path fill="none" stroke="midnightblue" d="M276.702,-295.329C220.981,-276.979 153.657,-244.227 120,-188 110.077,-171.422 124.189,-152.156 137.748,-138.928"/>
<polygon fill="midnightblue" stroke="midnightblue" points="140.434,-141.217 145.482,-131.902 135.727,-136.035 140.434,-141.217"/>
</g>
<!-- Node10 -->
<g id="node10" class="node"><title>Node10</title>
<g id="a_node10"><a xlink:href="../../db/d96/polymain_8h.html" target="_top" xlink:title="polymain.h">
<polygon fill="white" stroke="black" points="28.5,-112.5 28.5,-131.5 97.5,-131.5 97.5,-112.5 28.5,-112.5"/>
<text text-anchor="middle" x="63" y="-119.5" font-family="Helvetica,sans-Serif" font-size="10.00">polymain.h</text>
</a>
</g>
</g>
<!-- Node1&#45;&gt;Node10 -->
<g id="edge12" class="edge"><title>Node1&#45;&gt;Node10</title>
<path fill="none" stroke="midnightblue" d="M276.916,-306.761C234.022,-298.496 183.825,-283.223 146,-255 105.984,-225.142 80.5455,-169.791 69.4505,-141.178"/>
<polygon fill="midnightblue" stroke="midnightblue" points="72.666,-139.783 65.9,-131.63 66.1049,-142.223 72.666,-139.783"/>
</g>
<!-- Node11 -->
<g id="node11" class="node"><title>Node11</title>
<g id="a_node11"><a xlink:href="../../d1/d7e/tick__count_8h.html" target="_top" xlink:title="tick_count.h">
<polygon fill="white" stroke="black" points="374,-230 374,-249 448,-249 448,-230 374,-230"/>
<text text-anchor="middle" x="411" y="-237" font-family="Helvetica,sans-Serif" font-size="10.00">tick_count.h</text>
</a>
</g>
</g>
<!-- Node1&#45;&gt;Node11 -->
<g id="edge15" class="edge"><title>Node1&#45;&gt;Node11</title>
<path fill="none" stroke="midnightblue" d="M380.984,-291.193C387.427,-280.312 394.799,-267.861 400.625,-258.022"/>
<polygon fill="midnightblue" stroke="midnightblue" points="403.76,-259.597 405.843,-249.209 397.737,-256.03 403.76,-259.597"/>
</g>
<!-- Node12 -->
<g id="node12" class="node"><title>Node12</title>
<polygon fill="white" stroke="#bfbfbf" points="464,-168.5 464,-187.5 530,-187.5 530,-168.5 464,-168.5"/>
<text text-anchor="middle" x="497" y="-175.5" font-family="Helvetica,sans-Serif" font-size="10.00">sys/time.h</text>
</g>
<!-- Node1&#45;&gt;Node12 -->
<g id="edge21" class="edge"><title>Node1&#45;&gt;Node12</title>
<path fill="none" stroke="midnightblue" d="M412.486,-291.344C427.942,-281.444 444.404,-269.061 457,-255 472.343,-237.872 483.716,-213.8 490.335,-197.366"/>
<polygon fill="midnightblue" stroke="midnightblue" points="493.683,-198.409 493.991,-187.819 487.146,-195.905 493.683,-198.409"/>
</g>
<!-- Node13 -->
<g id="node13" class="node"><title>Node13</title>
<g id="a_node13"><a xlink:href="../../da/d68/task__scheduler__init_8h.html" target="_top" xlink:title="tbb/task_scheduler\l_init.h">
<polygon fill="white" stroke="black" points="504.5,-224.5 504.5,-254.5 611.5,-254.5 611.5,-224.5 504.5,-224.5"/>
<text text-anchor="start" x="512.5" y="-242.5" font-family="Helvetica,sans-Serif" font-size="10.00">tbb/task_scheduler</text>
<text text-anchor="middle" x="558" y="-231.5" font-family="Helvetica,sans-Serif" font-size="10.00">_init.h</text>
</a>
</g>
</g>
<!-- Node1&#45;&gt;Node13 -->
<g id="edge18" class="edge"><title>Node1&#45;&gt;Node13</title>
<path fill="none" stroke="midnightblue" d="M429.4,-291.404C456.689,-280.602 487.967,-268.221 512.843,-258.375"/>
<polygon fill="midnightblue" stroke="midnightblue" points="514.376,-261.532 522.386,-254.597 511.8,-255.023 514.376,-261.532"/>
</g>
<!-- Node15 -->
<g id="node15" class="node"><title>Node15</title>
<polygon fill="white" stroke="#bfbfbf" points="629.5,-230 629.5,-249 684.5,-249 684.5,-230 629.5,-230"/>
<text text-anchor="middle" x="657" y="-237" font-family="Helvetica,sans-Serif" font-size="10.00">unistd.h</text>
</g>
<!-- Node1&#45;&gt;Node15 -->
<g id="edge22" class="edge"><title>Node1&#45;&gt;Node15</title>
<path fill="none" stroke="midnightblue" d="M455.269,-298.005C504.334,-287.062 566.02,-272.025 620,-255 622.276,-254.282 624.613,-253.493 626.952,-252.666"/>
<polygon fill="midnightblue" stroke="midnightblue" points="628.287,-255.904 636.434,-249.132 625.842,-249.345 628.287,-255.904"/>
</g>
<!-- Node4 -->
<g id="node4" class="node"><title>Node4</title>
<g id="a_node4"><a xlink:href="../../db/d20/rpolygon_8h.html" target="_top" xlink:title="rpolygon.h">
<polygon fill="white" stroke="red" points="129.5,-168.5 129.5,-187.5 196.5,-187.5 196.5,-168.5 129.5,-168.5"/>
<text text-anchor="middle" x="163" y="-175.5" font-family="Helvetica,sans-Serif" font-size="10.00">rpolygon.h</text>
</a>
</g>
</g>
<!-- Node3&#45;&gt;Node4 -->
<g id="edge3" class="edge"><title>Node3&#45;&gt;Node4</title>
<path fill="none" stroke="midnightblue" d="M269.234,-229.975C248.516,-220.034 214.048,-203.495 190.011,-191.961"/>
<polygon fill="midnightblue" stroke="midnightblue" points="191.263,-188.68 180.733,-187.509 188.235,-194.991 191.263,-188.68"/>
</g>
<!-- Node7 -->
<g id="node7" class="node"><title>Node7</title>
<g id="a_node7"><a xlink:href="../../d0/df8/mutex_8h.html" target="_top" xlink:title="tbb/mutex.h">
<polygon fill="white" stroke="red" points="214.5,-168.5 214.5,-187.5 289.5,-187.5 289.5,-168.5 214.5,-168.5"/>
<text text-anchor="middle" x="252" y="-175.5" font-family="Helvetica,sans-Serif" font-size="10.00">tbb/mutex.h</text>
</a>
</g>
</g>
<!-- Node3&#45;&gt;Node7 -->
<g id="edge8" class="edge"><title>Node3&#45;&gt;Node7</title>
<path fill="none" stroke="midnightblue" d="M281.985,-229.975C276.839,-221.227 268.688,-207.369 262.182,-196.309"/>
<polygon fill="midnightblue" stroke="midnightblue" points="265.092,-194.354 257.005,-187.509 259.059,-197.903 265.092,-194.354"/>
</g>
<!-- Node9 -->
<g id="node9" class="node"><title>Node9</title>
<g id="a_node9"><a xlink:href="../../df/d4b/spin__mutex_8h.html" target="_top" xlink:title="tbb/spin_mutex.h">
<polygon fill="white" stroke="red" points="308,-168.5 308,-187.5 408,-187.5 408,-168.5 308,-168.5"/>
<text text-anchor="middle" x="358" y="-175.5" font-family="Helvetica,sans-Serif" font-size="10.00">tbb/spin_mutex.h</text>
</a>
</g>
</g>
<!-- Node3&#45;&gt;Node9 -->
<g id="edge10" class="edge"><title>Node3&#45;&gt;Node9</title>
<path fill="none" stroke="midnightblue" d="M297.173,-229.975C308.35,-220.608 326.517,-205.384 340.091,-194.008"/>
<polygon fill="midnightblue" stroke="midnightblue" points="342.43,-196.615 347.846,-187.509 337.934,-191.25 342.43,-196.615"/>
</g>
<!-- Node4&#45;&gt;Node2 -->
<g id="edge4" class="edge"><title>Node4&#45;&gt;Node2</title>
<path fill="none" stroke="midnightblue" d="M175.781,-168.369C186.394,-160.36 200.731,-147.379 207,-132 210.355,-123.769 209.811,-120.433 207,-112 194.372,-74.1172 158.331,-42.7437 134.723,-25.4658"/>
<polygon fill="midnightblue" stroke="midnightblue" points="136.545,-22.4669 126.359,-19.5498 132.502,-28.1819 136.545,-22.4669"/>
</g>
<!-- Node4&#45;&gt;Node5 -->
<g id="edge5" class="edge"><title>Node4&#45;&gt;Node5</title>
<path fill="none" stroke="midnightblue" d="M162.009,-168.083C161.214,-160.927 160.071,-150.635 159.077,-141.691"/>
<polygon fill="midnightblue" stroke="midnightblue" points="162.555,-141.303 157.972,-131.751 155.598,-142.076 162.555,-141.303"/>
</g>
<!-- Node6 -->
<g id="node6" class="node"><title>Node6</title>
<g id="a_node6"><a xlink:href="../../d0/df5/pover__global_8h.html" target="_top" xlink:title="pover_global.h">
<polygon fill="white" stroke="red" points="70,-56.5 70,-75.5 156,-75.5 156,-56.5 70,-56.5"/>
<text text-anchor="middle" x="113" y="-63.5" font-family="Helvetica,sans-Serif" font-size="10.00">pover_global.h</text>
</a>
</g>
</g>
<!-- Node5&#45;&gt;Node6 -->
<g id="edge6" class="edge"><title>Node5&#45;&gt;Node6</title>
<path fill="none" stroke="midnightblue" d="M149.734,-112.083C143.455,-104.377 134.212,-93.0333 126.569,-83.6531"/>
<polygon fill="midnightblue" stroke="midnightblue" points="129.161,-81.2926 120.131,-75.7511 123.734,-85.7143 129.161,-81.2926"/>
</g>
<!-- Node6&#45;&gt;Node2 -->
<g id="edge7" class="edge"><title>Node6&#45;&gt;Node2</title>
<path fill="none" stroke="midnightblue" d="M113,-56.083C113,-49.0059 113,-38.8611 113,-29.9865"/>
<polygon fill="midnightblue" stroke="midnightblue" points="116.5,-29.751 113,-19.7511 109.5,-29.7511 116.5,-29.751"/>
</g>
<!-- Node8 -->
<g id="node8" class="node"><title>Node8</title>
<g id="a_node8"><a xlink:href="../../d2/d98/tbb__stddef_8h.html" target="_top" xlink:title="tbb_stddef.h">
<polygon fill="white" stroke="red" points="359,-112.5 359,-131.5 435,-131.5 435,-112.5 359,-112.5"/>
<text text-anchor="middle" x="397" y="-119.5" font-family="Helvetica,sans-Serif" font-size="10.00">tbb_stddef.h</text>
</a>
</g>
</g>
<!-- Node7&#45;&gt;Node8 -->
<g id="edge9" class="edge"><title>Node7&#45;&gt;Node8</title>
<path fill="none" stroke="midnightblue" d="M274.976,-168.444C299.157,-159.438 337.418,-145.189 364.646,-135.049"/>
<polygon fill="midnightblue" stroke="midnightblue" points="365.982,-138.286 374.132,-131.516 363.539,-131.727 365.982,-138.286"/>
</g>
<!-- Node9&#45;&gt;Node8 -->
<g id="edge11" class="edge"><title>Node9&#45;&gt;Node8</title>
<path fill="none" stroke="midnightblue" d="M364.44,-168.083C369.949,-160.455 378.031,-149.264 384.765,-139.941"/>
<polygon fill="midnightblue" stroke="midnightblue" points="387.662,-141.907 390.68,-131.751 381.987,-137.809 387.662,-141.907"/>
</g>
<!-- Node10&#45;&gt;Node6 -->
<g id="edge13" class="edge"><title>Node10&#45;&gt;Node6</title>
<path fill="none" stroke="midnightblue" d="M71.2565,-112.083C78.4647,-104.298 89.1098,-92.8015 97.8458,-83.3665"/>
<polygon fill="midnightblue" stroke="midnightblue" points="100.671,-85.4666 104.897,-75.7511 95.5349,-80.7108 100.671,-85.4666"/>
</g>
<!-- Node11&#45;&gt;Node8 -->
<g id="edge16" class="edge"><title>Node11&#45;&gt;Node8</title>
<path fill="none" stroke="midnightblue" d="M413.378,-229.715C416.651,-216.276 421.641,-189.87 417,-168 415.003,-158.591 410.899,-148.762 406.925,-140.698"/>
<polygon fill="midnightblue" stroke="midnightblue" points="409.887,-138.81 402.13,-131.593 403.693,-142.072 409.887,-138.81"/>
</g>
<!-- Node11&#45;&gt;Node12 -->
<g id="edge17" class="edge"><title>Node11&#45;&gt;Node12</title>
<path fill="none" stroke="midnightblue" d="M423.322,-229.975C437.116,-220.431 459.699,-204.807 476.232,-193.368"/>
<polygon fill="midnightblue" stroke="midnightblue" points="478.469,-196.077 484.701,-187.509 474.486,-190.32 478.469,-196.077"/>
</g>
<!-- Node13&#45;&gt;Node8 -->
<g id="edge19" class="edge"><title>Node13&#45;&gt;Node8</title>
<path fill="none" stroke="midnightblue" d="M558.015,-224.407C557.264,-208.634 553.639,-183.292 539,-168 514.659,-142.572 476.059,-131.463 445.243,-126.634"/>
<polygon fill="midnightblue" stroke="midnightblue" points="445.51,-123.137 435.123,-125.225 444.545,-130.071 445.51,-123.137"/>
</g>
<!-- Node14 -->
<g id="node14" class="node"><title>Node14</title>
<polygon fill="white" stroke="#bfbfbf" points="586.5,-168.5 586.5,-187.5 637.5,-187.5 637.5,-168.5 586.5,-168.5"/>
<text text-anchor="middle" x="612" y="-175.5" font-family="Helvetica,sans-Serif" font-size="10.00">limits.h</text>
</g>
<!-- Node13&#45;&gt;Node14 -->
<g id="edge20" class="edge"><title>Node13&#45;&gt;Node14</title>
<path fill="none" stroke="midnightblue" d="M570.797,-224.399C578.725,-215.664 588.936,-204.413 597.21,-195.296"/>
<polygon fill="midnightblue" stroke="midnightblue" points="600.014,-197.415 604.143,-187.658 594.83,-192.711 600.014,-197.415"/>
</g>
</g>
</svg>
        <g id="navigator" transform="translate(0 0)" fill="#404254">
                <rect fill="#f2f5e9" fill-opacity="0.5" stroke="#606060" stroke-width=".5" x="0" y="0" width="60" height="60"/>
                <use id="zoomplus" xlink:href="#zoomPlus" x="17" y="9" onmousedown="handleZoom(evt,'in')"/>
                <use id="zoomminus" xlink:href="#zoomMin" x="42" y="9" onmousedown="handleZoom(evt,'out')"/>
                <use id="reset" xlink:href="#resetDef" x="30" y="36" onmousedown="handleReset()"/>
                <g id="arrowUp" xlink:href="#dirArrow" transform="translate(30 24)" onmousedown="handlePan(0,-1)">
                  <use xlink:href="#rim" fill="#404040">
                        <set attributeName="fill" to="#808080" begin="arrowUp.mouseover" end="arrowUp.mouseout"/>
                  </use>
                  <path fill="none" stroke="white" stroke-width="1.5" d="M0,-3.0v7 M-2.5,-0.5L0,-3.0L2.5,-0.5"/>
                </g>
                <g id="arrowRight" xlink:href="#dirArrow" transform="rotate(90) translate(36 -43)" onmousedown="handlePan(1,0)">
                  <use xlink:href="#rim" fill="#404040">
                        <set attributeName="fill" to="#808080" begin="arrowRight.mouseover" end="arrowRight.mouseout"/>
                  </use>
                  <path fill="none" stroke="white" stroke-width="1.5" d="M0,-3.0v7 M-2.5,-0.5L0,-3.0L2.5,-0.5"/>
                </g>
                <g id="arrowDown" xlink:href="#dirArrow" transform="rotate(180) translate(-30 -48)" onmousedown="handlePan(0,1)">
                  <use xlink:href="#rim" fill="#404040">
                        <set attributeName="fill" to="#808080" begin="arrowDown.mouseover" end="arrowDown.mouseout"/>
                  </use>
                  <path fill="none" stroke="white" stroke-width="1.5" d="M0,-3.0v7 M-2.5,-0.5L0,-3.0L2.5,-0.5"/>
                </g>
                <g id="arrowLeft" xlink:href="#dirArrow" transform="rotate(270) translate(-36 17)" onmousedown="handlePan(-1,0)">
                  <use xlink:href="#rim" fill="#404040">
                        <set attributeName="fill" to="#808080" begin="arrowLeft.mouseover" end="arrowLeft.mouseout"/>
                  </use>
                  <path fill="none" stroke="white" stroke-width="1.5" d="M0,-3.0v7 M-2.5,-0.5L0,-3.0L2.5,-0.5"/>
                </g>
        </g>
        <svg viewBox="0 0 15 15" width="100%" height="30px" preserveAspectRatio="xMaxYMin meet">
         <g id="arrow_out" transform="scale(0.3 0.3)">
          <a xlink:href="pover__video_8cpp__incl_org.svg" target="_base">
           <rect id="button" ry="5" rx="5" y="6" x="6" height="38" width="38"
                fill="#f2f5e9" fill-opacity="0.5" stroke="#606060" stroke-width="1.0"/>
           <path id="arrow"
             d="M 11.500037,31.436501 C 11.940474,20.09759 22.043105,11.32322 32.158766,21.979434 L 37.068811,17.246167 C 37.068811,17.246167 37.088388,32 37.088388,32 L 22.160133,31.978069 C 22.160133,31.978069 26.997745,27.140456 26.997745,27.140456 C 18.528582,18.264221 13.291696,25.230495 11.500037,31.436501 z"
             style="fill:#404040;"/>
          </a>
         </g>
        </svg>
</svg>
