<?xml version="1.0" encoding="UTF-8" standalone="no"?>
<!DOCTYPE svg PUBLIC "-//W3C//DTD SVG 1.1//EN"
 "http://www.w3.org/Graphics/SVG/1.1/DTD/svg11.dtd">
<!-- Generated by graphviz version 2.38.0 (20140413.2041)
 -->
<!-- Title: sealed Pages: 1 -->
<svg width="217pt" height="303pt"
 viewBox="0.00 0.00 217.00 303.00" xmlns="http://www.w3.org/2000/svg" xmlns:xlink="http://www.w3.org/1999/xlink">
<g id="graph0" class="graph" transform="scale(1 1) rotate(0) translate(4 299)">
<title>sealed</title>
<polygon fill="white" stroke="none" points="-4,4 -4,-299 213,-299 213,4 -4,4"/>
<!-- Node1 -->
<g id="node1" class="node"><title>Node1</title>
<polygon fill="#bfbfbf" stroke="black" points="0,-0.5 0,-200.5 209,-200.5 209,-0.5 0,-0.5"/>
<text text-anchor="middle" x="104.5" y="-188.5" font-family="Helvetica,sans-Serif" font-size="10.00">sealed</text>
<polyline fill="none" stroke="black" points="0,-181.5 209,-181.5 "/>
<text text-anchor="start" x="8" y="-169.5" font-family="Helvetica,sans-Serif" font-size="10.00">&#45; m_Brush</text>
<text text-anchor="start" x="8" y="-158.5" font-family="Helvetica,sans-Serif" font-size="10.00">&#45; m_textFormat</text>
<text text-anchor="start" x="8" y="-147.5" font-family="Helvetica,sans-Serif" font-size="10.00">&#45; m_opacityBitmap</text>
<text text-anchor="start" x="8" y="-136.5" font-family="Helvetica,sans-Serif" font-size="10.00">&#45; m_textLayout</text>
<text text-anchor="start" x="8" y="-125.5" font-family="Helvetica,sans-Serif" font-size="10.00">&#45; m_textMetrics</text>
<text text-anchor="start" x="8" y="-114.5" font-family="Helvetica,sans-Serif" font-size="10.00">&#45; m_renderNeeded</text>
<polyline fill="none" stroke="black" points="0,-107.5 209,-107.5 "/>
<text text-anchor="start" x="8" y="-95.5" font-family="Helvetica,sans-Serif" font-size="10.00">+ tbbTachyonRenderer()</text>
<text text-anchor="start" x="8" y="-84.5" font-family="Helvetica,sans-Serif" font-size="10.00">+ CreateDeviceIndependentResources()</text>
<text text-anchor="start" x="8" y="-73.5" font-family="Helvetica,sans-Serif" font-size="10.00">+ CreateDeviceResources()</text>
<text text-anchor="start" x="8" y="-62.5" font-family="Helvetica,sans-Serif" font-size="10.00">+ CreateWindowSizeDependent</text>
<text text-anchor="start" x="8" y="-51.5" font-family="Helvetica,sans-Serif" font-size="10.00">Resources()</text>
<text text-anchor="start" x="8" y="-40.5" font-family="Helvetica,sans-Serif" font-size="10.00">+ Render()</text>
<text text-anchor="start" x="8" y="-29.5" font-family="Helvetica,sans-Serif" font-size="10.00">+ Update()</text>
<text text-anchor="start" x="8" y="-18.5" font-family="Helvetica,sans-Serif" font-size="10.00">+ UpdateView()</text>
<text text-anchor="start" x="8" y="-7.5" font-family="Helvetica,sans-Serif" font-size="10.00">&#45; ~tbbTachyonRenderer()</text>
</g>
<!-- Node2 -->
<g id="node2" class="node"><title>Node2</title>
<polygon fill="white" stroke="#bfbfbf" points="67,-237.5 67,-294.5 142,-294.5 142,-237.5 67,-237.5"/>
<text text-anchor="middle" x="104.5" y="-282.5" font-family="Helvetica,sans-Serif" font-size="10.00">DirectXBase</text>
<polyline fill="none" stroke="#bfbfbf" points="67,-275.5 142,-275.5 "/>
<text text-anchor="middle" x="104.5" y="-263.5" font-family="Helvetica,sans-Serif" font-size="10.00"> </text>
<polyline fill="none" stroke="#bfbfbf" points="67,-256.5 142,-256.5 "/>
<text text-anchor="middle" x="104.5" y="-244.5" font-family="Helvetica,sans-Serif" font-size="10.00"> </text>
</g>
<!-- Node2&#45;&gt;Node1 -->
<g id="edge1" class="edge"><title>Node2&#45;&gt;Node1</title>
<path fill="none" stroke="midnightblue" d="M104.5,-227.04C104.5,-218.867 104.5,-209.865 104.5,-200.549"/>
<polygon fill="none" stroke="midnightblue" points="101,-227.264 104.5,-237.264 108,-227.264 101,-227.264"/>
</g>
</g>
</svg>
