<?xml version="1.0" encoding="UTF-8" standalone="no"?>
<!DOCTYPE svg PUBLIC "-//W3C//DTD SVG 1.1//EN"
 "http://www.w3.org/Graphics/SVG/1.1/DTD/svg11.dtd">
<!-- Generated by graphviz version 2.38.0 (20140413.2041)
 -->
<!-- Title: /home/travis/build/ComPWA/ComPWA/ThirdParty/EvtGen/EvtTensor3C.cpp Pages: 1 -->
<!--zoomable 218 -->
<svg id="main" version="1.1" xmlns="http://www.w3.org/2000/svg" xmlns:xlink="http://www.w3.org/1999/xlink" xml:space="preserve" onload="init(evt)">
<style type="text/css"><![CDATA[
.edge:hover path { stroke: red; }
.edge:hover polygon { stroke: red; fill: red; }
]]></style>
<script type="text/javascript"><![CDATA[
var edges = document.getElementsByTagName('g');
if (edges && edges.length) {
  for (var i=0;i<edges.length;i++) {
    if (edges[i].id.substr(0,4)=='edge') {
      edges[i].setAttribute('class','edge');
    }
  }
}
]]></script>
        <defs>
                <circle id="rim" cx="0" cy="0" r="7"/>
                <circle id="rim2" cx="0" cy="0" r="3.5"/>
                <g id="zoomPlus">
                        <use xlink:href="#rim" fill="#404040">
                                <set attributeName="fill" to="#808080" begin="zoomplus.mouseover" end="zoomplus.mouseout"/>
                        </use>
                        <path d="M-4,0h8M0,-4v8" fill="none" stroke="white" stroke-width="1.5" pointer-events="none"/>
                </g>
                <g id="zoomMin">
                        <use xlink:href="#rim" fill="#404040">
                                <set attributeName="fill" to="#808080" begin="zoomminus.mouseover" end="zoomminus.mouseout"/>
                        </use>
                        <path d="M-4,0h8" fill="none" stroke="white" stroke-width="1.5" pointer-events="none"/>
                </g>
                <g id="dirArrow">
                        <path fill="none" stroke="white" stroke-width="1.5" d="M0,-3.0v7 M-2.5,-0.5L0,-3.0L2.5,-0.5"/>
                </g>
               <g id="resetDef">
                       <use xlink:href="#rim2" fill="#404040">
                               <set attributeName="fill" to="#808080" begin="reset.mouseover" end="reset.mouseout"/>
                       </use>
               </g>
        </defs>

<script type="text/javascript">
var viewWidth = 514;
var viewHeight = 218;
var sectionId = 'dynsection-0';
</script>
<script xlink:href="../../svgpan.js"/>
<svg id="graph" class="graph">
<g id="viewport">
<title>/home/travis/build/ComPWA/ComPWA/ThirdParty/EvtGen/EvtTensor3C.cpp</title>
<polygon fill="white" stroke="none" points="-4,4 -4,-214 509.5,-214 509.5,4 -4,4"/>
<!-- Node1 -->
<g id="node1" class="node"><title>Node1</title>
<polygon fill="#bfbfbf" stroke="black" points="144,-168.5 144,-209.5 302,-209.5 302,-168.5 144,-168.5"/>
<text text-anchor="start" x="152" y="-197.5" font-family="Helvetica,sans-Serif" font-size="10.00">/home/travis/build</text>
<text text-anchor="start" x="152" y="-186.5" font-family="Helvetica,sans-Serif" font-size="10.00">/ComPWA/ComPWA/ThirdParty</text>
<text text-anchor="middle" x="223" y="-175.5" font-family="Helvetica,sans-Serif" font-size="10.00">/EvtGen/EvtTensor3C.cpp</text>
</g>
<!-- Node2 -->
<g id="node2" class="node"><title>Node2</title>
<g id="a_node2"><a xlink:href="../../df/ddd/EvtPatches_8hh.html" target="_top" xlink:title="EvtPatches.hh">
<polygon fill="white" stroke="black" points="0,-112.5 0,-131.5 84,-131.5 84,-112.5 0,-112.5"/>
<text text-anchor="middle" x="42" y="-119.5" font-family="Helvetica,sans-Serif" font-size="10.00">EvtPatches.hh</text>
</a>
</g>
</g>
<!-- Node1&#45;&gt;Node2 -->
<g id="edge1" class="edge"><title>Node1&#45;&gt;Node2</title>
<path fill="none" stroke="midnightblue" d="M168.694,-168.498C138.408,-157.622 101.648,-144.421 75.542,-135.045"/>
<polygon fill="midnightblue" stroke="midnightblue" points="76.6883,-131.738 66.0939,-131.652 74.3224,-138.326 76.6883,-131.738"/>
</g>
<!-- Node3 -->
<g id="node3" class="node"><title>Node3</title>
<polygon fill="white" stroke="#bfbfbf" points="129.5,-0.5 129.5,-19.5 188.5,-19.5 188.5,-0.5 129.5,-0.5"/>
<text text-anchor="middle" x="159" y="-7.5" font-family="Helvetica,sans-Serif" font-size="10.00">iostream</text>
</g>
<!-- Node1&#45;&gt;Node3 -->
<g id="edge2" class="edge"><title>Node1&#45;&gt;Node3</title>
<path fill="none" stroke="midnightblue" d="M197.446,-168.373C186.749,-158.667 175.346,-146.028 169,-132 153.85,-98.5101 154.699,-54.5005 156.781,-29.8425"/>
<polygon fill="midnightblue" stroke="midnightblue" points="160.283,-30.0028 157.805,-19.7019 153.318,-29.3 160.283,-30.0028"/>
</g>
<!-- Node4 -->
<g id="node4" class="node"><title>Node4</title>
<polygon fill="white" stroke="#bfbfbf" points="308.5,-0.5 308.5,-19.5 359.5,-19.5 359.5,-0.5 308.5,-0.5"/>
<text text-anchor="middle" x="334" y="-7.5" font-family="Helvetica,sans-Serif" font-size="10.00">math.h</text>
</g>
<!-- Node1&#45;&gt;Node4 -->
<g id="edge3" class="edge"><title>Node1&#45;&gt;Node4</title>
<path fill="none" stroke="midnightblue" d="M253.451,-168.452C266.675,-158.762 281.506,-146.114 292,-132 315.357,-100.587 326.452,-55.1598 331.103,-29.8462"/>
<polygon fill="midnightblue" stroke="midnightblue" points="334.594,-30.1969 332.808,-19.7536 327.691,-29.0309 334.594,-30.1969"/>
</g>
<!-- Node5 -->
<g id="node5" class="node"><title>Node5</title>
<g id="a_node5"><a xlink:href="../../d9/d51/EvtComplex_8hh.html" target="_top" xlink:title="EvtComplex.hh">
<polygon fill="white" stroke="black" points="216.5,-56.5 216.5,-75.5 305.5,-75.5 305.5,-56.5 216.5,-56.5"/>
<text text-anchor="middle" x="261" y="-63.5" font-family="Helvetica,sans-Serif" font-size="10.00">EvtComplex.hh</text>
</a>
</g>
</g>
<!-- Node1&#45;&gt;Node5 -->
<g id="edge4" class="edge"><title>Node1&#45;&gt;Node5</title>
<path fill="none" stroke="midnightblue" d="M249.377,-168.349C260.097,-158.722 271.288,-146.153 277,-132 283.239,-116.542 277.463,-98.0002 271.178,-84.6833"/>
<polygon fill="midnightblue" stroke="midnightblue" points="274.195,-82.8992 266.463,-75.6558 267.991,-86.14 274.195,-82.8992"/>
</g>
<!-- Node7 -->
<g id="node7" class="node"><title>Node7</title>
<g id="a_node7"><a xlink:href="../../de/df0/EvtVector3C_8hh.html" target="_top" xlink:title="EvtVector3C.hh">
<polygon fill="white" stroke="black" points="362,-112.5 362,-131.5 452,-131.5 452,-112.5 362,-112.5"/>
<text text-anchor="middle" x="407" y="-119.5" font-family="Helvetica,sans-Serif" font-size="10.00">EvtVector3C.hh</text>
</a>
</g>
</g>
<!-- Node1&#45;&gt;Node7 -->
<g id="edge8" class="edge"><title>Node1&#45;&gt;Node7</title>
<path fill="none" stroke="midnightblue" d="M278.206,-168.498C308.994,-157.622 346.363,-144.421 372.902,-135.045"/>
<polygon fill="midnightblue" stroke="midnightblue" points="374.244,-138.284 382.507,-131.652 371.912,-131.683 374.244,-138.284"/>
</g>
<!-- Node10 -->
<g id="node10" class="node"><title>Node10</title>
<g id="a_node10"><a xlink:href="../../d6/d20/EvtTensor3C_8hh.html" target="_top" xlink:title="EvtTensor3C.hh">
<polygon fill="white" stroke="black" points="178,-112.5 178,-131.5 268,-131.5 268,-112.5 178,-112.5"/>
<text text-anchor="middle" x="223" y="-119.5" font-family="Helvetica,sans-Serif" font-size="10.00">EvtTensor3C.hh</text>
</a>
</g>
</g>
<!-- Node1&#45;&gt;Node10 -->
<g id="edge13" class="edge"><title>Node1&#45;&gt;Node10</title>
<path fill="none" stroke="midnightblue" d="M223,-168.498C223,-160.065 223,-150.235 223,-141.874"/>
<polygon fill="midnightblue" stroke="midnightblue" points="226.5,-141.652 223,-131.652 219.5,-141.653 226.5,-141.652"/>
</g>
<!-- Node11 -->
<g id="node11" class="node"><title>Node11</title>
<g id="a_node11"><a xlink:href="../../de/dbc/EvtReport_8hh.html" target="_top" xlink:title="EvtReport.hh">
<polygon fill="white" stroke="black" points="44.5,-56.5 44.5,-75.5 121.5,-75.5 121.5,-56.5 44.5,-56.5"/>
<text text-anchor="middle" x="83" y="-63.5" font-family="Helvetica,sans-Serif" font-size="10.00">EvtReport.hh</text>
</a>
</g>
</g>
<!-- Node1&#45;&gt;Node11 -->
<g id="edge16" class="edge"><title>Node1&#45;&gt;Node11</title>
<path fill="none" stroke="midnightblue" d="M186.913,-168.277C170.523,-158.464 151.402,-145.765 136,-132 119.946,-117.652 104.754,-98.1917 94.7857,-84.3126"/>
<polygon fill="midnightblue" stroke="midnightblue" points="97.376,-81.91 88.7723,-75.7271 91.6424,-85.9258 97.376,-81.91"/>
</g>
<!-- Node5&#45;&gt;Node3 -->
<g id="edge5" class="edge"><title>Node5&#45;&gt;Node3</title>
<path fill="none" stroke="midnightblue" d="M244.612,-56.324C228.329,-47.7034 203.133,-34.3643 184.284,-24.3855"/>
<polygon fill="midnightblue" stroke="midnightblue" points="185.823,-21.2402 175.347,-19.6545 182.548,-27.4267 185.823,-21.2402"/>
</g>
<!-- Node5&#45;&gt;Node4 -->
<g id="edge6" class="edge"><title>Node5&#45;&gt;Node4</title>
<path fill="none" stroke="midnightblue" d="M272.729,-56.324C283.837,-48.1066 300.742,-35.6017 313.983,-25.8069"/>
<polygon fill="midnightblue" stroke="midnightblue" points="316.1,-28.5948 322.058,-19.8339 311.937,-22.9671 316.1,-28.5948"/>
</g>
<!-- Node6 -->
<g id="node6" class="node"><title>Node6</title>
<g id="a_node6"><a xlink:href="../../dc/d78/EvtConst_8hh.html" target="_top" xlink:title="EvtConst.hh">
<polygon fill="white" stroke="black" points="216,-0.5 216,-19.5 290,-19.5 290,-0.5 216,-0.5"/>
<text text-anchor="middle" x="253" y="-7.5" font-family="Helvetica,sans-Serif" font-size="10.00">EvtConst.hh</text>
</a>
</g>
</g>
<!-- Node5&#45;&gt;Node6 -->
<g id="edge7" class="edge"><title>Node5&#45;&gt;Node6</title>
<path fill="none" stroke="midnightblue" d="M259.679,-56.083C258.619,-48.9272 257.094,-38.6353 255.769,-29.6911"/>
<polygon fill="midnightblue" stroke="midnightblue" points="259.224,-29.1302 254.296,-19.7511 252.3,-30.1561 259.224,-29.1302"/>
</g>
<!-- Node7&#45;&gt;Node5 -->
<g id="edge9" class="edge"><title>Node7&#45;&gt;Node5</title>
<path fill="none" stroke="midnightblue" d="M383.866,-112.444C359.518,-103.438 320.993,-89.1891 293.577,-79.049"/>
<polygon fill="midnightblue" stroke="midnightblue" points="294.619,-75.7028 284.026,-75.5164 292.191,-82.2681 294.619,-75.7028"/>
</g>
<!-- Node8 -->
<g id="node8" class="node"><title>Node8</title>
<g id="a_node8"><a xlink:href="../../dc/d30/EvtVector3R_8hh.html" target="_top" xlink:title="EvtVector3R.hh">
<polygon fill="white" stroke="black" points="416.5,-56.5 416.5,-75.5 505.5,-75.5 505.5,-56.5 416.5,-56.5"/>
<text text-anchor="middle" x="461" y="-63.5" font-family="Helvetica,sans-Serif" font-size="10.00">EvtVector3R.hh</text>
</a>
</g>
</g>
<!-- Node7&#45;&gt;Node8 -->
<g id="edge10" class="edge"><title>Node7&#45;&gt;Node8</title>
<path fill="none" stroke="midnightblue" d="M415.917,-112.083C423.78,-104.22 435.431,-92.5688 444.919,-83.0813"/>
<polygon fill="midnightblue" stroke="midnightblue" points="447.653,-85.2971 452.249,-75.7511 442.703,-80.3473 447.653,-85.2971"/>
</g>
<!-- Node9 -->
<g id="node9" class="node"><title>Node9</title>
<polygon fill="white" stroke="#bfbfbf" points="381,-0.5 381,-19.5 427,-19.5 427,-0.5 381,-0.5"/>
<text text-anchor="middle" x="404" y="-7.5" font-family="Helvetica,sans-Serif" font-size="10.00">iosfwd</text>
</g>
<!-- Node7&#45;&gt;Node9 -->
<g id="edge12" class="edge"><title>Node7&#45;&gt;Node9</title>
<path fill="none" stroke="midnightblue" d="M406.765,-112.368C406.28,-94.617 405.164,-53.6664 404.507,-29.5974"/>
<polygon fill="midnightblue" stroke="midnightblue" points="408.006,-29.4922 404.234,-19.5914 401.008,-29.6832 408.006,-29.4922"/>
</g>
<!-- Node8&#45;&gt;Node9 -->
<g id="edge11" class="edge"><title>Node8&#45;&gt;Node9</title>
<path fill="none" stroke="midnightblue" d="M451.842,-56.324C443.499,-48.4196 430.968,-36.5482 420.823,-26.9377"/>
<polygon fill="midnightblue" stroke="midnightblue" points="422.991,-24.1705 413.325,-19.8339 418.177,-29.2522 422.991,-24.1705"/>
</g>
<!-- Node10&#45;&gt;Node3 -->
<g id="edge14" class="edge"><title>Node10&#45;&gt;Node3</title>
<path fill="none" stroke="midnightblue" d="M217.978,-112.368C207.463,-94.2957 182.957,-52.1764 169.07,-28.3074"/>
<polygon fill="midnightblue" stroke="midnightblue" points="172.053,-26.4748 163.999,-19.5914 166.002,-29.9951 172.053,-26.4748"/>
</g>
<!-- Node10&#45;&gt;Node5 -->
<g id="edge15" class="edge"><title>Node10&#45;&gt;Node5</title>
<path fill="none" stroke="midnightblue" d="M229.275,-112.083C234.642,-104.455 242.518,-93.2645 249.079,-83.9408"/>
<polygon fill="midnightblue" stroke="midnightblue" points="251.949,-85.9434 254.842,-75.7511 246.225,-81.9149 251.949,-85.9434"/>
</g>
<!-- Node11&#45;&gt;Node3 -->
<g id="edge17" class="edge"><title>Node11&#45;&gt;Node3</title>
<path fill="none" stroke="midnightblue" d="M95.2107,-56.324C106.776,-48.1066 124.375,-35.6017 138.161,-25.8069"/>
<polygon fill="midnightblue" stroke="midnightblue" points="140.443,-28.4791 146.567,-19.8339 136.388,-22.7729 140.443,-28.4791"/>
</g>
</g>
</svg>
        <g id="navigator" transform="translate(0 0)" fill="#404254">
                <rect fill="#f2f5e9" fill-opacity="0.5" stroke="#606060" stroke-width=".5" x="0" y="0" width="60" height="60"/>
                <use id="zoomplus" xlink:href="#zoomPlus" x="17" y="9" onmousedown="handleZoom(evt,'in')"/>
                <use id="zoomminus" xlink:href="#zoomMin" x="42" y="9" onmousedown="handleZoom(evt,'out')"/>
                <use id="reset" xlink:href="#resetDef" x="30" y="36" onmousedown="handleReset()"/>
                <g id="arrowUp" xlink:href="#dirArrow" transform="translate(30 24)" onmousedown="handlePan(0,-1)">
                  <use xlink:href="#rim" fill="#404040">
                        <set attributeName="fill" to="#808080" begin="arrowUp.mouseover" end="arrowUp.mouseout"/>
                  </use>
                  <path fill="none" stroke="white" stroke-width="1.5" d="M0,-3.0v7 M-2.5,-0.5L0,-3.0L2.5,-0.5"/>
                </g>
                <g id="arrowRight" xlink:href="#dirArrow" transform="rotate(90) translate(36 -43)" onmousedown="handlePan(1,0)">
                  <use xlink:href="#rim" fill="#404040">
                        <set attributeName="fill" to="#808080" begin="arrowRight.mouseover" end="arrowRight.mouseout"/>
                  </use>
                  <path fill="none" stroke="white" stroke-width="1.5" d="M0,-3.0v7 M-2.5,-0.5L0,-3.0L2.5,-0.5"/>
                </g>
                <g id="arrowDown" xlink:href="#dirArrow" transform="rotate(180) translate(-30 -48)" onmousedown="handlePan(0,1)">
                  <use xlink:href="#rim" fill="#404040">
                        <set attributeName="fill" to="#808080" begin="arrowDown.mouseover" end="arrowDown.mouseout"/>
                  </use>
                  <path fill="none" stroke="white" stroke-width="1.5" d="M0,-3.0v7 M-2.5,-0.5L0,-3.0L2.5,-0.5"/>
                </g>
                <g id="arrowLeft" xlink:href="#dirArrow" transform="rotate(270) translate(-36 17)" onmousedown="handlePan(-1,0)">
                  <use xlink:href="#rim" fill="#404040">
                        <set attributeName="fill" to="#808080" begin="arrowLeft.mouseover" end="arrowLeft.mouseout"/>
                  </use>
                  <path fill="none" stroke="white" stroke-width="1.5" d="M0,-3.0v7 M-2.5,-0.5L0,-3.0L2.5,-0.5"/>
                </g>
        </g>
        <svg viewBox="0 0 15 15" width="100%" height="30px" preserveAspectRatio="xMaxYMin meet">
         <g id="arrow_out" transform="scale(0.3 0.3)">
          <a xlink:href="EvtTensor3C_8cpp__incl_org.svg" target="_base">
           <rect id="button" ry="5" rx="5" y="6" x="6" height="38" width="38"
                fill="#f2f5e9" fill-opacity="0.5" stroke="#606060" stroke-width="1.0"/>
           <path id="arrow"
             d="M 11.500037,31.436501 C 11.940474,20.09759 22.043105,11.32322 32.158766,21.979434 L 37.068811,17.246167 C 37.068811,17.246167 37.088388,32 37.088388,32 L 22.160133,31.978069 C 22.160133,31.978069 26.997745,27.140456 26.997745,27.140456 C 18.528582,18.264221 13.291696,25.230495 11.500037,31.436501 z"
             style="fill:#404040;"/>
          </a>
         </g>
        </svg>
</svg>
