<?xml version="1.0" encoding="UTF-8" standalone="no"?>
<!DOCTYPE svg PUBLIC "-//W3C//DTD SVG 1.1//EN"
 "http://www.w3.org/Graphics/SVG/1.1/DTD/svg11.dtd">
<!-- Generated by graphviz version 2.38.0 (20140413.2041)
 -->
<!-- Title: /home/travis/build/ComPWA/ComPWA/ThirdParty/parallelstl/include/pstl/internal/glue_algorithm_impl.h Pages: 1 -->
<!--zoomable 341 -->
<svg id="main" version="1.1" xmlns="http://www.w3.org/2000/svg" xmlns:xlink="http://www.w3.org/1999/xlink" xml:space="preserve" onload="init(evt)">
<style type="text/css"><![CDATA[
.edge:hover path { stroke: red; }
.edge:hover polygon { stroke: red; fill: red; }
]]></style>
<script type="text/javascript"><![CDATA[
var edges = document.getElementsByTagName('g');
if (edges && edges.length) {
  for (var i=0;i<edges.length;i++) {
    if (edges[i].id.substr(0,4)=='edge') {
      edges[i].setAttribute('class','edge');
    }
  }
}
]]></script>
        <defs>
                <circle id="rim" cx="0" cy="0" r="7"/>
                <circle id="rim2" cx="0" cy="0" r="3.5"/>
                <g id="zoomPlus">
                        <use xlink:href="#rim" fill="#404040">
                                <set attributeName="fill" to="#808080" begin="zoomplus.mouseover" end="zoomplus.mouseout"/>
                        </use>
                        <path d="M-4,0h8M0,-4v8" fill="none" stroke="white" stroke-width="1.5" pointer-events="none"/>
                </g>
                <g id="zoomMin">
                        <use xlink:href="#rim" fill="#404040">
                                <set attributeName="fill" to="#808080" begin="zoomminus.mouseover" end="zoomminus.mouseout"/>
                        </use>
                        <path d="M-4,0h8" fill="none" stroke="white" stroke-width="1.5" pointer-events="none"/>
                </g>
                <g id="dirArrow">
                        <path fill="none" stroke="white" stroke-width="1.5" d="M0,-3.0v7 M-2.5,-0.5L0,-3.0L2.5,-0.5"/>
                </g>
               <g id="resetDef">
                       <use xlink:href="#rim2" fill="#404040">
                               <set attributeName="fill" to="#808080" begin="reset.mouseover" end="reset.mouseout"/>
                       </use>
               </g>
        </defs>

<script type="text/javascript">
var viewWidth = 800;
var viewHeight = 341;
var sectionId = 'dynsection-0';
</script>
<script xlink:href="../../svgpan.js"/>
<svg id="graph" class="graph">
<g id="viewport">
<title>/home/travis/build/ComPWA/ComPWA/ThirdParty/parallelstl/include/pstl/internal/glue_algorithm_impl.h</title>
<polygon fill="white" stroke="none" points="-4,4 -4,-337 796.151,-337 796.151,4 -4,4"/>
<!-- Node1 -->
<g id="node1" class="node"><title>Node1</title>
<polygon fill="#bfbfbf" stroke="black" points="228.483,-280.5 228.483,-332.5 392.483,-332.5 392.483,-280.5 228.483,-280.5"/>
<text text-anchor="start" x="236.483" y="-320.5" font-family="Helvetica,sans-Serif" font-size="10.00">/home/travis/build</text>
<text text-anchor="start" x="236.483" y="-309.5" font-family="Helvetica,sans-Serif" font-size="10.00">/ComPWA/ComPWA/ThirdParty</text>
<text text-anchor="start" x="236.483" y="-298.5" font-family="Helvetica,sans-Serif" font-size="10.00">/parallelstl/include/pstl</text>
<text text-anchor="middle" x="310.483" y="-287.5" font-family="Helvetica,sans-Serif" font-size="10.00">/internal/glue_algorithm_impl.h</text>
</g>
<!-- Node2 -->
<g id="node2" class="node"><title>Node2</title>
<polygon fill="white" stroke="#bfbfbf" points="24.9825,-168.5 24.9825,-187.5 87.9825,-187.5 87.9825,-168.5 24.9825,-168.5"/>
<text text-anchor="middle" x="56.4825" y="-175.5" font-family="Helvetica,sans-Serif" font-size="10.00">functional</text>
</g>
<!-- Node1&#45;&gt;Node2 -->
<g id="edge1" class="edge"><title>Node1&#45;&gt;Node2</title>
<path fill="none" stroke="midnightblue" d="M259.997,-280.356C206.577,-253.752 124.362,-212.806 82.667,-192.041"/>
<polygon fill="midnightblue" stroke="midnightblue" points="84.2055,-188.897 73.6939,-187.572 81.0849,-195.163 84.2055,-188.897"/>
</g>
<!-- Node3 -->
<g id="node3" class="node"><title>Node3</title>
<g id="a_node3"><a xlink:href="../../d2/d01/execution__defs_8h.html" target="_top" xlink:title="execution_defs.h">
<polygon fill="white" stroke="black" points="371.483,-112.5 371.483,-131.5 469.483,-131.5 469.483,-112.5 371.483,-112.5"/>
<text text-anchor="middle" x="420.483" y="-119.5" font-family="Helvetica,sans-Serif" font-size="10.00">execution_defs.h</text>
</a>
</g>
</g>
<!-- Node1&#45;&gt;Node3 -->
<g id="edge2" class="edge"><title>Node1&#45;&gt;Node3</title>
<path fill="none" stroke="midnightblue" d="M228.164,-296.119C119.131,-280.562 -51.9729,-243.366 15.4825,-168 38.1075,-142.722 254.196,-130.061 361.134,-125.301"/>
<polygon fill="midnightblue" stroke="midnightblue" points="361.294,-128.797 371.132,-124.865 360.989,-121.804 361.294,-128.797"/>
</g>
<!-- Node5 -->
<g id="node5" class="node"><title>Node5</title>
<g id="a_node5"><a xlink:href="../../d7/d9f/parallelstl_2include_2pstl_2internal_2utils_8h.html" target="_top" xlink:title="utils.h">
<polygon fill="white" stroke="black" points="643.983,-56.5 643.983,-75.5 688.983,-75.5 688.983,-56.5 643.983,-56.5"/>
<text text-anchor="middle" x="666.483" y="-63.5" font-family="Helvetica,sans-Serif" font-size="10.00">utils.h</text>
</a>
</g>
</g>
<!-- Node1&#45;&gt;Node5 -->
<g id="edge4" class="edge"><title>Node1&#45;&gt;Node5</title>
<path fill="none" stroke="midnightblue" d="M392.549,-297.134C514.882,-282.779 735.823,-248.947 783.483,-188 816.855,-145.324 740.527,-100.999 695.887,-79.7959"/>
<polygon fill="midnightblue" stroke="midnightblue" points="697.174,-76.5348 686.628,-75.5118 694.234,-82.8877 697.174,-76.5348"/>
</g>
<!-- Node8 -->
<g id="node8" class="node"><title>Node8</title>
<g id="a_node8"><a xlink:href="../../db/de0/algorithm__impl_8h.html" target="_top" xlink:title="algorithm_impl.h">
<polygon fill="white" stroke="black" points="372.983,-224.5 372.983,-243.5 469.983,-243.5 469.983,-224.5 372.983,-224.5"/>
<text text-anchor="middle" x="421.483" y="-231.5" font-family="Helvetica,sans-Serif" font-size="10.00">algorithm_impl.h</text>
</a>
</g>
</g>
<!-- Node1&#45;&gt;Node8 -->
<g id="edge7" class="edge"><title>Node1&#45;&gt;Node8</title>
<path fill="none" stroke="midnightblue" d="M349.93,-280.446C366.594,-269.862 385.37,-257.936 399.506,-248.958"/>
<polygon fill="midnightblue" stroke="midnightblue" points="401.492,-251.843 408.057,-243.527 397.739,-245.934 401.492,-251.843"/>
</g>
<!-- Node4 -->
<g id="node4" class="node"><title>Node4</title>
<polygon fill="white" stroke="#bfbfbf" points="470.483,-56.5 470.483,-75.5 538.483,-75.5 538.483,-56.5 470.483,-56.5"/>
<text text-anchor="middle" x="504.483" y="-63.5" font-family="Helvetica,sans-Serif" font-size="10.00">type_traits</text>
</g>
<!-- Node3&#45;&gt;Node4 -->
<g id="edge3" class="edge"><title>Node3&#45;&gt;Node4</title>
<path fill="none" stroke="midnightblue" d="M433.979,-112.324C447.082,-103.9 467.194,-90.9709 482.589,-81.0741"/>
<polygon fill="midnightblue" stroke="midnightblue" points="484.501,-84.0063 491.02,-75.6545 480.716,-78.118 484.501,-84.0063"/>
</g>
<!-- Node6 -->
<g id="node6" class="node"><title>Node6</title>
<polygon fill="white" stroke="#bfbfbf" points="648.983,-0.5 648.983,-19.5 683.983,-19.5 683.983,-0.5 648.983,-0.5"/>
<text text-anchor="middle" x="666.483" y="-7.5" font-family="Helvetica,sans-Serif" font-size="10.00">new</text>
</g>
<!-- Node5&#45;&gt;Node6 -->
<g id="edge5" class="edge"><title>Node5&#45;&gt;Node6</title>
<path fill="none" stroke="midnightblue" d="M666.483,-56.083C666.483,-49.0059 666.483,-38.8611 666.483,-29.9865"/>
<polygon fill="midnightblue" stroke="midnightblue" points="669.983,-29.751 666.483,-19.7511 662.983,-29.7511 669.983,-29.751"/>
</g>
<!-- Node7 -->
<g id="node7" class="node"><title>Node7</title>
<polygon fill="white" stroke="#bfbfbf" points="432.483,-0.5 432.483,-19.5 484.483,-19.5 484.483,-0.5 432.483,-0.5"/>
<text text-anchor="middle" x="458.483" y="-7.5" font-family="Helvetica,sans-Serif" font-size="10.00">iterator</text>
</g>
<!-- Node5&#45;&gt;Node7 -->
<g id="edge6" class="edge"><title>Node5&#45;&gt;Node7</title>
<path fill="none" stroke="midnightblue" d="M643.827,-59.1183C607.858,-49.7802 537.377,-31.4821 494.449,-20.3376"/>
<polygon fill="midnightblue" stroke="midnightblue" points="495.247,-16.9287 484.688,-17.8034 493.488,-23.7041 495.247,-16.9287"/>
</g>
<!-- Node8&#45;&gt;Node2 -->
<g id="edge11" class="edge"><title>Node8&#45;&gt;Node2</title>
<path fill="none" stroke="midnightblue" d="M372.717,-227.431C311.133,-220.132 201.721,-206.279 98.2143,-188.005"/>
<polygon fill="midnightblue" stroke="midnightblue" points="98.6768,-184.532 88.2177,-186.223 97.4482,-191.424 98.6768,-184.532"/>
</g>
<!-- Node8&#45;&gt;Node4 -->
<g id="edge9" class="edge"><title>Node8&#45;&gt;Node4</title>
<path fill="none" stroke="midnightblue" d="M437.115,-224.409C450.143,-216.514 468.316,-203.674 479.483,-188 501.501,-157.094 505.027,-111.121 505.103,-85.663"/>
<polygon fill="midnightblue" stroke="midnightblue" points="508.601,-85.4835 504.95,-75.5377 501.602,-85.5896 508.601,-85.4835"/>
</g>
<!-- Node8&#45;&gt;Node7 -->
<g id="edge8" class="edge"><title>Node8&#45;&gt;Node7</title>
<path fill="none" stroke="midnightblue" d="M404.208,-224.482C390.743,-216.87 372.816,-204.391 363.483,-188 346.697,-158.523 349.413,-145.176 356.483,-112 362.163,-85.342 363.288,-76.2945 381.483,-56 393.894,-42.1566 411.603,-31.3993 426.909,-23.8786"/>
<polygon fill="midnightblue" stroke="midnightblue" points="428.474,-27.0111 436.06,-19.6156 425.518,-20.6658 428.474,-27.0111"/>
</g>
<!-- Node9 -->
<g id="node9" class="node"><title>Node9</title>
<polygon fill="white" stroke="#bfbfbf" points="636.483,-168.5 636.483,-187.5 678.483,-187.5 678.483,-168.5 636.483,-168.5"/>
<text text-anchor="middle" x="657.483" y="-175.5" font-family="Helvetica,sans-Serif" font-size="10.00">utility</text>
</g>
<!-- Node8&#45;&gt;Node9 -->
<g id="edge10" class="edge"><title>Node8&#45;&gt;Node9</title>
<path fill="none" stroke="midnightblue" d="M465.114,-224.477C504.844,-216.49 565.313,-203.775 626.423,-188.129"/>
<polygon fill="midnightblue" stroke="midnightblue" points="627.428,-191.485 636.234,-185.593 625.676,-184.707 627.428,-191.485"/>
</g>
<!-- Node10 -->
<g id="node10" class="node"><title>Node10</title>
<polygon fill="white" stroke="#bfbfbf" points="696.483,-168.5 696.483,-187.5 758.483,-187.5 758.483,-168.5 696.483,-168.5"/>
<text text-anchor="middle" x="727.483" y="-175.5" font-family="Helvetica,sans-Serif" font-size="10.00">algorithm</text>
</g>
<!-- Node8&#45;&gt;Node10 -->
<g id="edge12" class="edge"><title>Node8&#45;&gt;Node10</title>
<path fill="none" stroke="midnightblue" d="M470.164,-225.569C521.523,-217.549 605.045,-203.998 686.192,-188.175"/>
<polygon fill="midnightblue" stroke="midnightblue" points="686.935,-191.596 696.073,-186.234 685.586,-184.727 686.935,-191.596"/>
</g>
<!-- Node11 -->
<g id="node11" class="node"><title>Node11</title>
<g id="a_node11"><a xlink:href="../../d9/d3c/execution__impl_8h.html" target="_top" xlink:title="execution_impl.h">
<polygon fill="white" stroke="black" points="372.483,-168.5 372.483,-187.5 470.483,-187.5 470.483,-168.5 372.483,-168.5"/>
<text text-anchor="middle" x="421.483" y="-175.5" font-family="Helvetica,sans-Serif" font-size="10.00">execution_impl.h</text>
</a>
</g>
</g>
<!-- Node8&#45;&gt;Node11 -->
<g id="edge13" class="edge"><title>Node8&#45;&gt;Node11</title>
<path fill="none" stroke="midnightblue" d="M421.483,-224.083C421.483,-217.006 421.483,-206.861 421.483,-197.986"/>
<polygon fill="midnightblue" stroke="midnightblue" points="424.983,-197.751 421.483,-187.751 417.983,-197.751 424.983,-197.751"/>
</g>
<!-- Node12 -->
<g id="node12" class="node"><title>Node12</title>
<g id="a_node12"><a xlink:href="../../de/ddc/memory__impl_8h.html" target="_top" xlink:title="memory_impl.h">
<polygon fill="white" stroke="black" points="526.483,-168.5 526.483,-187.5 618.483,-187.5 618.483,-168.5 526.483,-168.5"/>
<text text-anchor="middle" x="572.483" y="-175.5" font-family="Helvetica,sans-Serif" font-size="10.00">memory_impl.h</text>
</a>
</g>
</g>
<!-- Node8&#45;&gt;Node12 -->
<g id="edge17" class="edge"><title>Node8&#45;&gt;Node12</title>
<path fill="none" stroke="midnightblue" d="M445.409,-224.444C470.701,-215.399 510.785,-201.064 539.162,-190.916"/>
<polygon fill="midnightblue" stroke="midnightblue" points="540.431,-194.179 548.668,-187.516 538.073,-187.588 540.431,-194.179"/>
</g>
<!-- Node13 -->
<g id="node13" class="node"><title>Node13</title>
<g id="a_node13"><a xlink:href="../../d1/dc3/unseq__backend__simd_8h.html" target="_top" xlink:title="unseq_backend_simd.h">
<polygon fill="white" stroke="red" points="601.983,-112.5 601.983,-131.5 730.983,-131.5 730.983,-112.5 601.983,-112.5"/>
<text text-anchor="middle" x="666.483" y="-119.5" font-family="Helvetica,sans-Serif" font-size="10.00">unseq_backend_simd.h</text>
</a>
</g>
</g>
<!-- Node8&#45;&gt;Node13 -->
<g id="edge22" class="edge"><title>Node8&#45;&gt;Node13</title>
<path fill="none" stroke="midnightblue" d="M470.176,-230.178C560.847,-224.422 748.169,-209.988 767.483,-188 788.551,-164.013 748.293,-145.469 712.527,-134.436"/>
<polygon fill="midnightblue" stroke="midnightblue" points="713.194,-130.984 702.613,-131.525 711.222,-137.701 713.194,-130.984"/>
</g>
<!-- Node14 -->
<g id="node14" class="node"><title>Node14</title>
<g id="a_node14"><a xlink:href="../../db/d64/parallel__backend_8h.html" target="_top" xlink:title="parallel_backend.h">
<polygon fill="white" stroke="red" points="106.483,-168.5 106.483,-187.5 212.483,-187.5 212.483,-168.5 106.483,-168.5"/>
<text text-anchor="middle" x="159.483" y="-175.5" font-family="Helvetica,sans-Serif" font-size="10.00">parallel_backend.h</text>
</a>
</g>
</g>
<!-- Node8&#45;&gt;Node14 -->
<g id="edge23" class="edge"><title>Node8&#45;&gt;Node14</title>
<path fill="none" stroke="midnightblue" d="M379.968,-224.444C334.071,-214.984 260.102,-199.738 210.656,-189.547"/>
<polygon fill="midnightblue" stroke="midnightblue" points="211.304,-186.107 200.803,-187.516 209.891,-192.963 211.304,-186.107"/>
</g>
<!-- Node15 -->
<g id="node15" class="node"><title>Node15</title>
<g id="a_node15"><a xlink:href="../../dc/d18/parallel__impl_8h.html" target="_top" xlink:title="parallel_impl.h">
<polygon fill="white" stroke="red" points="230.483,-168.5 230.483,-187.5 316.483,-187.5 316.483,-168.5 230.483,-168.5"/>
<text text-anchor="middle" x="273.483" y="-175.5" font-family="Helvetica,sans-Serif" font-size="10.00">parallel_impl.h</text>
</a>
</g>
</g>
<!-- Node8&#45;&gt;Node15 -->
<g id="edge24" class="edge"><title>Node8&#45;&gt;Node15</title>
<path fill="none" stroke="midnightblue" d="M398.032,-224.444C373.35,-215.438 334.297,-201.189 306.506,-191.049"/>
<polygon fill="midnightblue" stroke="midnightblue" points="307.418,-187.656 296.824,-187.516 305.018,-194.232 307.418,-187.656"/>
</g>
<!-- Node11&#45;&gt;Node3 -->
<g id="edge16" class="edge"><title>Node11&#45;&gt;Node3</title>
<path fill="none" stroke="midnightblue" d="M421.317,-168.083C421.186,-161.006 420.998,-150.861 420.834,-141.986"/>
<polygon fill="midnightblue" stroke="midnightblue" points="424.329,-141.685 420.645,-131.751 417.33,-141.814 424.329,-141.685"/>
</g>
<!-- Node11&#45;&gt;Node4 -->
<g id="edge15" class="edge"><title>Node11&#45;&gt;Node4</title>
<path fill="none" stroke="midnightblue" d="M436.383,-168.356C449.07,-160.34 467.015,-147.354 478.483,-132 488.927,-118.016 495.836,-99.2661 499.888,-85.4983"/>
<polygon fill="midnightblue" stroke="midnightblue" points="503.303,-86.2784 502.539,-75.7111 496.546,-84.4483 503.303,-86.2784"/>
</g>
<!-- Node11&#45;&gt;Node7 -->
<g id="edge14" class="edge"><title>Node11&#45;&gt;Node7</title>
<path fill="none" stroke="midnightblue" d="M402.498,-168.398C388.596,-160.954 370.769,-148.741 362.483,-132 358.539,-124.034 359.185,-120.255 362.483,-112 377.442,-74.5485 413.626,-43.0445 437.05,-25.6232"/>
<polygon fill="midnightblue" stroke="midnightblue" points="439.267,-28.3399 445.332,-19.6528 435.173,-22.6617 439.267,-28.3399"/>
</g>
<!-- Node12&#45;&gt;Node7 -->
<g id="edge18" class="edge"><title>Node12&#45;&gt;Node7</title>
<path fill="none" stroke="midnightblue" d="M573.099,-168.352C574.162,-146.954 574.077,-90.751 547.483,-56 534.371,-38.8669 512.938,-27.7513 494.39,-20.8544"/>
<polygon fill="midnightblue" stroke="midnightblue" points="495.329,-17.4762 484.735,-17.5342 493.053,-24.0958 495.329,-17.4762"/>
</g>
<!-- Node12&#45;&gt;Node13 -->
<g id="edge19" class="edge"><title>Node12&#45;&gt;Node13</title>
<path fill="none" stroke="midnightblue" d="M587.585,-168.324C602.386,-159.822 625.177,-146.729 642.465,-136.797"/>
<polygon fill="midnightblue" stroke="midnightblue" points="644.49,-139.671 651.417,-131.655 641.003,-133.601 644.49,-139.671"/>
</g>
<!-- Node13&#45;&gt;Node4 -->
<g id="edge20" class="edge"><title>Node13&#45;&gt;Node4</title>
<path fill="none" stroke="midnightblue" d="M640.813,-112.444C613.56,-103.359 570.299,-88.9388 539.832,-78.7831"/>
<polygon fill="midnightblue" stroke="midnightblue" points="540.625,-75.3584 530.032,-75.5164 538.412,-81.9992 540.625,-75.3584"/>
</g>
<!-- Node13&#45;&gt;Node5 -->
<g id="edge21" class="edge"><title>Node13&#45;&gt;Node5</title>
<path fill="none" stroke="midnightblue" d="M666.483,-112.083C666.483,-105.006 666.483,-94.8611 666.483,-85.9865"/>
<polygon fill="midnightblue" stroke="midnightblue" points="669.983,-85.751 666.483,-75.7511 662.983,-85.7511 669.983,-85.751"/>
</g>
</g>
</svg>
        <g id="navigator" transform="translate(0 0)" fill="#404254">
                <rect fill="#f2f5e9" fill-opacity="0.5" stroke="#606060" stroke-width=".5" x="0" y="0" width="60" height="60"/>
                <use id="zoomplus" xlink:href="#zoomPlus" x="17" y="9" onmousedown="handleZoom(evt,'in')"/>
                <use id="zoomminus" xlink:href="#zoomMin" x="42" y="9" onmousedown="handleZoom(evt,'out')"/>
                <use id="reset" xlink:href="#resetDef" x="30" y="36" onmousedown="handleReset()"/>
                <g id="arrowUp" xlink:href="#dirArrow" transform="translate(30 24)" onmousedown="handlePan(0,-1)">
                  <use xlink:href="#rim" fill="#404040">
                        <set attributeName="fill" to="#808080" begin="arrowUp.mouseover" end="arrowUp.mouseout"/>
                  </use>
                  <path fill="none" stroke="white" stroke-width="1.5" d="M0,-3.0v7 M-2.5,-0.5L0,-3.0L2.5,-0.5"/>
                </g>
                <g id="arrowRight" xlink:href="#dirArrow" transform="rotate(90) translate(36 -43)" onmousedown="handlePan(1,0)">
                  <use xlink:href="#rim" fill="#404040">
                        <set attributeName="fill" to="#808080" begin="arrowRight.mouseover" end="arrowRight.mouseout"/>
                  </use>
                  <path fill="none" stroke="white" stroke-width="1.5" d="M0,-3.0v7 M-2.5,-0.5L0,-3.0L2.5,-0.5"/>
                </g>
                <g id="arrowDown" xlink:href="#dirArrow" transform="rotate(180) translate(-30 -48)" onmousedown="handlePan(0,1)">
                  <use xlink:href="#rim" fill="#404040">
                        <set attributeName="fill" to="#808080" begin="arrowDown.mouseover" end="arrowDown.mouseout"/>
                  </use>
                  <path fill="none" stroke="white" stroke-width="1.5" d="M0,-3.0v7 M-2.5,-0.5L0,-3.0L2.5,-0.5"/>
                </g>
                <g id="arrowLeft" xlink:href="#dirArrow" transform="rotate(270) translate(-36 17)" onmousedown="handlePan(-1,0)">
                  <use xlink:href="#rim" fill="#404040">
                        <set attributeName="fill" to="#808080" begin="arrowLeft.mouseover" end="arrowLeft.mouseout"/>
                  </use>
                  <path fill="none" stroke="white" stroke-width="1.5" d="M0,-3.0v7 M-2.5,-0.5L0,-3.0L2.5,-0.5"/>
                </g>
        </g>
        <svg viewBox="0 0 15 15" width="100%" height="30px" preserveAspectRatio="xMaxYMin meet">
         <g id="arrow_out" transform="scale(0.3 0.3)">
          <a xlink:href="glue__algorithm__impl_8h__incl_org.svg" target="_base">
           <rect id="button" ry="5" rx="5" y="6" x="6" height="38" width="38"
                fill="#f2f5e9" fill-opacity="0.5" stroke="#606060" stroke-width="1.0"/>
           <path id="arrow"
             d="M 11.500037,31.436501 C 11.940474,20.09759 22.043105,11.32322 32.158766,21.979434 L 37.068811,17.246167 C 37.068811,17.246167 37.088388,32 37.088388,32 L 22.160133,31.978069 C 22.160133,31.978069 26.997745,27.140456 26.997745,27.140456 C 18.528582,18.264221 13.291696,25.230495 11.500037,31.436501 z"
             style="fill:#404040;"/>
          </a>
         </g>
        </svg>
</svg>
