<?xml version="1.0" encoding="UTF-8" standalone="no"?>
<!DOCTYPE svg PUBLIC "-//W3C//DTD SVG 1.1//EN"
 "http://www.w3.org/Graphics/SVG/1.1/DTD/svg11.dtd">
<!-- Generated by graphviz version 2.38.0 (20140413.2041)
 -->
<!-- Title: /home/travis/build/ComPWA/ComPWA/ThirdParty/tbb/include/tbb/internal/_concurrent_queue_impl.h Pages: 1 -->
<!--zoomable 239 -->
<svg id="main" version="1.1" xmlns="http://www.w3.org/2000/svg" xmlns:xlink="http://www.w3.org/1999/xlink" xml:space="preserve" onload="init(evt)">
<style type="text/css"><![CDATA[
.edge:hover path { stroke: red; }
.edge:hover polygon { stroke: red; fill: red; }
]]></style>
<script type="text/javascript"><![CDATA[
var edges = document.getElementsByTagName('g');
if (edges && edges.length) {
  for (var i=0;i<edges.length;i++) {
    if (edges[i].id.substr(0,4)=='edge') {
      edges[i].setAttribute('class','edge');
    }
  }
}
]]></script>
        <defs>
                <circle id="rim" cx="0" cy="0" r="7"/>
                <circle id="rim2" cx="0" cy="0" r="3.5"/>
                <g id="zoomPlus">
                        <use xlink:href="#rim" fill="#404040">
                                <set attributeName="fill" to="#808080" begin="zoomplus.mouseover" end="zoomplus.mouseout"/>
                        </use>
                        <path d="M-4,0h8M0,-4v8" fill="none" stroke="white" stroke-width="1.5" pointer-events="none"/>
                </g>
                <g id="zoomMin">
                        <use xlink:href="#rim" fill="#404040">
                                <set attributeName="fill" to="#808080" begin="zoomminus.mouseover" end="zoomminus.mouseout"/>
                        </use>
                        <path d="M-4,0h8" fill="none" stroke="white" stroke-width="1.5" pointer-events="none"/>
                </g>
                <g id="dirArrow">
                        <path fill="none" stroke="white" stroke-width="1.5" d="M0,-3.0v7 M-2.5,-0.5L0,-3.0L2.5,-0.5"/>
                </g>
               <g id="resetDef">
                       <use xlink:href="#rim2" fill="#404040">
                               <set attributeName="fill" to="#808080" begin="reset.mouseover" end="reset.mouseout"/>
                       </use>
               </g>
        </defs>

<script type="text/javascript">
var viewWidth = 879;
var viewHeight = 239;
var sectionId = 'dynsection-1';
</script>
<script xlink:href="../../svgpan.js"/>
<svg id="graph" class="graph">
<g id="viewport">
<title>/home/travis/build/ComPWA/ComPWA/ThirdParty/tbb/include/tbb/internal/_concurrent_queue_impl.h</title>
<polygon fill="white" stroke="none" points="-4,4 -4,-235 874.5,-235 874.5,4 -4,4"/>
<!-- Node1 -->
<g id="node1" class="node"><title>Node1</title>
<polygon fill="#bfbfbf" stroke="black" points="536.5,-178.5 536.5,-230.5 694.5,-230.5 694.5,-178.5 536.5,-178.5"/>
<text text-anchor="start" x="544.5" y="-218.5" font-family="Helvetica,sans-Serif" font-size="10.00">/home/travis/build</text>
<text text-anchor="start" x="544.5" y="-207.5" font-family="Helvetica,sans-Serif" font-size="10.00">/ComPWA/ComPWA/ThirdParty</text>
<text text-anchor="start" x="544.5" y="-196.5" font-family="Helvetica,sans-Serif" font-size="10.00">/tbb/include/tbb/internal</text>
<text text-anchor="middle" x="615.5" y="-185.5" font-family="Helvetica,sans-Serif" font-size="10.00">/_concurrent_queue_impl.h</text>
</g>
<!-- Node2 -->
<g id="node2" class="node"><title>Node2</title>
<g id="a_node2"><a xlink:href="../../d0/d21/concurrent__queue_8h.html" target="_top" xlink:title="/home/travis/build\l/ComPWA/ComPWA/ThirdParty\l/tbb/include/tbb/concurrent\l_queue.h">
<polygon fill="white" stroke="black" points="404.5,-89.5 404.5,-141.5 562.5,-141.5 562.5,-89.5 404.5,-89.5"/>
<text text-anchor="start" x="412.5" y="-129.5" font-family="Helvetica,sans-Serif" font-size="10.00">/home/travis/build</text>
<text text-anchor="start" x="412.5" y="-118.5" font-family="Helvetica,sans-Serif" font-size="10.00">/ComPWA/ComPWA/ThirdParty</text>
<text text-anchor="start" x="412.5" y="-107.5" font-family="Helvetica,sans-Serif" font-size="10.00">/tbb/include/tbb/concurrent</text>
<text text-anchor="middle" x="483.5" y="-96.5" font-family="Helvetica,sans-Serif" font-size="10.00">_queue.h</text>
</a>
</g>
</g>
<!-- Node1&#45;&gt;Node2 -->
<g id="edge1" class="edge"><title>Node1&#45;&gt;Node2</title>
<path fill="none" stroke="midnightblue" d="M568.901,-172.787C553.414,-162.579 536.362,-151.341 521.594,-141.607"/>
<polygon fill="midnightblue" stroke="midnightblue" points="567.044,-175.755 577.32,-178.336 570.897,-169.91 567.044,-175.755"/>
</g>
<!-- Node8 -->
<g id="node8" class="node"><title>Node8</title>
<g id="a_node8"><a xlink:href="../../d6/dae/concurrent__queue_8cpp.html" target="_top" xlink:title="/home/travis/build\l/ComPWA/ComPWA/ThirdParty\l/tbb/src/tbb/concurrent\l_queue.cpp">
<polygon fill="white" stroke="black" points="668.5,-89.5 668.5,-141.5 826.5,-141.5 826.5,-89.5 668.5,-89.5"/>
<text text-anchor="start" x="676.5" y="-129.5" font-family="Helvetica,sans-Serif" font-size="10.00">/home/travis/build</text>
<text text-anchor="start" x="676.5" y="-118.5" font-family="Helvetica,sans-Serif" font-size="10.00">/ComPWA/ComPWA/ThirdParty</text>
<text text-anchor="start" x="676.5" y="-107.5" font-family="Helvetica,sans-Serif" font-size="10.00">/tbb/src/tbb/concurrent</text>
<text text-anchor="middle" x="747.5" y="-96.5" font-family="Helvetica,sans-Serif" font-size="10.00">_queue.cpp</text>
</a>
</g>
</g>
<!-- Node1&#45;&gt;Node8 -->
<g id="edge7" class="edge"><title>Node1&#45;&gt;Node8</title>
<path fill="none" stroke="midnightblue" d="M662.099,-172.787C677.586,-162.579 694.638,-151.341 709.406,-141.607"/>
<polygon fill="midnightblue" stroke="midnightblue" points="660.103,-169.91 653.68,-178.336 663.956,-175.755 660.103,-169.91"/>
</g>
<!-- Node3 -->
<g id="node3" class="node"><title>Node3</title>
<g id="a_node3"><a xlink:href="../../d7/ddb/Fibonacci_8cpp.html" target="_top" xlink:title="/home/travis/build\l/ComPWA/ComPWA/ThirdParty\l/tbb/examples/test_all/fibonacci\l/Fibonacci.cpp">
<polygon fill="white" stroke="black" points="0,-0.5 0,-52.5 167,-52.5 167,-0.5 0,-0.5"/>
<text text-anchor="start" x="8" y="-40.5" font-family="Helvetica,sans-Serif" font-size="10.00">/home/travis/build</text>
<text text-anchor="start" x="8" y="-29.5" font-family="Helvetica,sans-Serif" font-size="10.00">/ComPWA/ComPWA/ThirdParty</text>
<text text-anchor="start" x="8" y="-18.5" font-family="Helvetica,sans-Serif" font-size="10.00">/tbb/examples/test_all/fibonacci</text>
<text text-anchor="middle" x="83.5" y="-7.5" font-family="Helvetica,sans-Serif" font-size="10.00">/Fibonacci.cpp</text>
</a>
</g>
</g>
<!-- Node2&#45;&gt;Node3 -->
<g id="edge2" class="edge"><title>Node2&#45;&gt;Node3</title>
<path fill="none" stroke="midnightblue" d="M394.254,-98.4709C332.562,-86.9533 248.736,-70.4365 175.5,-53 172.759,-52.3474 169.976,-51.669 167.17,-50.9712"/>
<polygon fill="midnightblue" stroke="midnightblue" points="393.875,-101.96 404.346,-100.347 395.154,-95.0782 393.875,-101.96"/>
</g>
<!-- Node4 -->
<g id="node4" class="node"><title>Node4</title>
<g id="a_node4"><a xlink:href="../../d8/dc1/tbb_8h.html" target="_top" xlink:title="/home/travis/build\l/ComPWA/ComPWA/ThirdParty\l/tbb/include/tbb/tbb.h">
<polygon fill="white" stroke="red" points="184.5,-6 184.5,-47 342.5,-47 342.5,-6 184.5,-6"/>
<text text-anchor="start" x="192.5" y="-35" font-family="Helvetica,sans-Serif" font-size="10.00">/home/travis/build</text>
<text text-anchor="start" x="192.5" y="-24" font-family="Helvetica,sans-Serif" font-size="10.00">/ComPWA/ComPWA/ThirdParty</text>
<text text-anchor="middle" x="263.5" y="-13" font-family="Helvetica,sans-Serif" font-size="10.00">/tbb/include/tbb/tbb.h</text>
</a>
</g>
</g>
<!-- Node2&#45;&gt;Node4 -->
<g id="edge3" class="edge"><title>Node2&#45;&gt;Node4</title>
<path fill="none" stroke="midnightblue" d="M410.828,-85.7615C378.794,-73.0937 341.969,-58.5309 313.149,-47.1338"/>
<polygon fill="midnightblue" stroke="midnightblue" points="409.576,-89.03 420.162,-89.4527 412.15,-82.5205 409.576,-89.03"/>
</g>
<!-- Node5 -->
<g id="node5" class="node"><title>Node5</title>
<g id="a_node5"><a xlink:href="../../d0/d7f/test__async__node_8cpp.html" target="_top" xlink:title="/home/travis/build\l/ComPWA/ComPWA/ThirdParty\l/tbb/src/test/test_async\l_node.cpp">
<polygon fill="white" stroke="black" points="360.5,-0.5 360.5,-52.5 518.5,-52.5 518.5,-0.5 360.5,-0.5"/>
<text text-anchor="start" x="368.5" y="-40.5" font-family="Helvetica,sans-Serif" font-size="10.00">/home/travis/build</text>
<text text-anchor="start" x="368.5" y="-29.5" font-family="Helvetica,sans-Serif" font-size="10.00">/ComPWA/ComPWA/ThirdParty</text>
<text text-anchor="start" x="368.5" y="-18.5" font-family="Helvetica,sans-Serif" font-size="10.00">/tbb/src/test/test_async</text>
<text text-anchor="middle" x="439.5" y="-7.5" font-family="Helvetica,sans-Serif" font-size="10.00">_node.cpp</text>
</a>
</g>
</g>
<!-- Node2&#45;&gt;Node5 -->
<g id="edge4" class="edge"><title>Node2&#45;&gt;Node5</title>
<path fill="none" stroke="midnightblue" d="M466.229,-80.3499C461.551,-71.1005 456.574,-61.2591 452.198,-52.6075"/>
<polygon fill="midnightblue" stroke="midnightblue" points="463.137,-81.9919 470.773,-89.336 469.383,-78.8327 463.137,-81.9919"/>
</g>
<!-- Node6 -->
<g id="node6" class="node"><title>Node6</title>
<g id="a_node6"><a xlink:href="../../dc/d1d/test__concurrent__queue_8cpp.html" target="_top" xlink:title="/home/travis/build\l/ComPWA/ComPWA/ThirdParty\l/tbb/src/test/test_concurrent\l_queue.cpp">
<polygon fill="white" stroke="black" points="536.5,-0.5 536.5,-52.5 694.5,-52.5 694.5,-0.5 536.5,-0.5"/>
<text text-anchor="start" x="544.5" y="-40.5" font-family="Helvetica,sans-Serif" font-size="10.00">/home/travis/build</text>
<text text-anchor="start" x="544.5" y="-29.5" font-family="Helvetica,sans-Serif" font-size="10.00">/ComPWA/ComPWA/ThirdParty</text>
<text text-anchor="start" x="544.5" y="-18.5" font-family="Helvetica,sans-Serif" font-size="10.00">/tbb/src/test/test_concurrent</text>
<text text-anchor="middle" x="615.5" y="-7.5" font-family="Helvetica,sans-Serif" font-size="10.00">_queue.cpp</text>
</a>
</g>
</g>
<!-- Node2&#45;&gt;Node6 -->
<g id="edge5" class="edge"><title>Node2&#45;&gt;Node6</title>
<path fill="none" stroke="midnightblue" d="M530.099,-83.7872C545.586,-73.5794 562.638,-62.3405 577.406,-52.6075"/>
<polygon fill="midnightblue" stroke="midnightblue" points="528.103,-80.9105 521.68,-89.336 531.956,-86.7552 528.103,-80.9105"/>
</g>
<!-- Node7 -->
<g id="node7" class="node"><title>Node7</title>
<g id="a_node7"><a xlink:href="../../d2/d86/test__concurrent__queue__whitebox_8cpp.html" target="_top" xlink:title="/home/travis/build\l/ComPWA/ComPWA/ThirdParty\l/tbb/src/test/test_concurrent\l_queue_whitebox.cpp">
<polygon fill="white" stroke="black" points="712.5,-0.5 712.5,-52.5 870.5,-52.5 870.5,-0.5 712.5,-0.5"/>
<text text-anchor="start" x="720.5" y="-40.5" font-family="Helvetica,sans-Serif" font-size="10.00">/home/travis/build</text>
<text text-anchor="start" x="720.5" y="-29.5" font-family="Helvetica,sans-Serif" font-size="10.00">/ComPWA/ComPWA/ThirdParty</text>
<text text-anchor="start" x="720.5" y="-18.5" font-family="Helvetica,sans-Serif" font-size="10.00">/tbb/src/test/test_concurrent</text>
<text text-anchor="middle" x="791.5" y="-7.5" font-family="Helvetica,sans-Serif" font-size="10.00">_queue_whitebox.cpp</text>
</a>
</g>
</g>
<!-- Node2&#45;&gt;Node7 -->
<g id="edge6" class="edge"><title>Node2&#45;&gt;Node7</title>
<path fill="none" stroke="midnightblue" d="M572.466,-89.836C612.535,-78.6748 660.421,-65.2624 703.5,-53 706.407,-52.1726 709.367,-51.3275 712.356,-50.472"/>
<polygon fill="midnightblue" stroke="midnightblue" points="571.417,-86.4951 562.722,-92.549 573.294,-93.2386 571.417,-86.4951"/>
</g>
<!-- Node8&#45;&gt;Node7 -->
<g id="edge8" class="edge"><title>Node8&#45;&gt;Node7</title>
<path fill="none" stroke="midnightblue" d="M764.771,-80.3499C769.449,-71.1005 774.426,-61.2591 778.802,-52.6075"/>
<polygon fill="midnightblue" stroke="midnightblue" points="761.617,-78.8327 760.227,-89.336 767.863,-81.9919 761.617,-78.8327"/>
</g>
</g>
</svg>
        <g id="navigator" transform="translate(0 0)" fill="#404254">
                <rect fill="#f2f5e9" fill-opacity="0.5" stroke="#606060" stroke-width=".5" x="0" y="0" width="60" height="60"/>
                <use id="zoomplus" xlink:href="#zoomPlus" x="17" y="9" onmousedown="handleZoom(evt,'in')"/>
                <use id="zoomminus" xlink:href="#zoomMin" x="42" y="9" onmousedown="handleZoom(evt,'out')"/>
                <use id="reset" xlink:href="#resetDef" x="30" y="36" onmousedown="handleReset()"/>
                <g id="arrowUp" xlink:href="#dirArrow" transform="translate(30 24)" onmousedown="handlePan(0,-1)">
                  <use xlink:href="#rim" fill="#404040">
                        <set attributeName="fill" to="#808080" begin="arrowUp.mouseover" end="arrowUp.mouseout"/>
                  </use>
                  <path fill="none" stroke="white" stroke-width="1.5" d="M0,-3.0v7 M-2.5,-0.5L0,-3.0L2.5,-0.5"/>
                </g>
                <g id="arrowRight" xlink:href="#dirArrow" transform="rotate(90) translate(36 -43)" onmousedown="handlePan(1,0)">
                  <use xlink:href="#rim" fill="#404040">
                        <set attributeName="fill" to="#808080" begin="arrowRight.mouseover" end="arrowRight.mouseout"/>
                  </use>
                  <path fill="none" stroke="white" stroke-width="1.5" d="M0,-3.0v7 M-2.5,-0.5L0,-3.0L2.5,-0.5"/>
                </g>
                <g id="arrowDown" xlink:href="#dirArrow" transform="rotate(180) translate(-30 -48)" onmousedown="handlePan(0,1)">
                  <use xlink:href="#rim" fill="#404040">
                        <set attributeName="fill" to="#808080" begin="arrowDown.mouseover" end="arrowDown.mouseout"/>
                  </use>
                  <path fill="none" stroke="white" stroke-width="1.5" d="M0,-3.0v7 M-2.5,-0.5L0,-3.0L2.5,-0.5"/>
                </g>
                <g id="arrowLeft" xlink:href="#dirArrow" transform="rotate(270) translate(-36 17)" onmousedown="handlePan(-1,0)">
                  <use xlink:href="#rim" fill="#404040">
                        <set attributeName="fill" to="#808080" begin="arrowLeft.mouseover" end="arrowLeft.mouseout"/>
                  </use>
                  <path fill="none" stroke="white" stroke-width="1.5" d="M0,-3.0v7 M-2.5,-0.5L0,-3.0L2.5,-0.5"/>
                </g>
        </g>
        <svg viewBox="0 0 15 15" width="100%" height="30px" preserveAspectRatio="xMaxYMin meet">
         <g id="arrow_out" transform="scale(0.3 0.3)">
          <a xlink:href="__concurrent__queue__impl_8h__dep__incl_org.svg" target="_base">
           <rect id="button" ry="5" rx="5" y="6" x="6" height="38" width="38"
                fill="#f2f5e9" fill-opacity="0.5" stroke="#606060" stroke-width="1.0"/>
           <path id="arrow"
             d="M 11.500037,31.436501 C 11.940474,20.09759 22.043105,11.32322 32.158766,21.979434 L 37.068811,17.246167 C 37.068811,17.246167 37.088388,32 37.088388,32 L 22.160133,31.978069 C 22.160133,31.978069 26.997745,27.140456 26.997745,27.140456 C 18.528582,18.264221 13.291696,25.230495 11.500037,31.436501 z"
             style="fill:#404040;"/>
          </a>
         </g>
        </svg>
</svg>
