<?xml version="1.0" encoding="UTF-8" standalone="no"?>
<!DOCTYPE svg PUBLIC "-//W3C//DTD SVG 1.1//EN"
 "http://www.w3.org/Graphics/SVG/1.1/DTD/svg11.dtd">
<!-- Generated by graphviz version 2.38.0 (20140413.2041)
 -->
<!-- Title: /home/travis/build/ComPWA/ComPWA/ThirdParty/tbb/include/tbb/task_arena.h Pages: 1 -->
<!--zoomable 285 -->
<svg id="main" version="1.1" xmlns="http://www.w3.org/2000/svg" xmlns:xlink="http://www.w3.org/1999/xlink" xml:space="preserve" onload="init(evt)">
<style type="text/css"><![CDATA[
.edge:hover path { stroke: red; }
.edge:hover polygon { stroke: red; fill: red; }
]]></style>
<script type="text/javascript"><![CDATA[
var edges = document.getElementsByTagName('g');
if (edges && edges.length) {
  for (var i=0;i<edges.length;i++) {
    if (edges[i].id.substr(0,4)=='edge') {
      edges[i].setAttribute('class','edge');
    }
  }
}
]]></script>
        <defs>
                <circle id="rim" cx="0" cy="0" r="7"/>
                <circle id="rim2" cx="0" cy="0" r="3.5"/>
                <g id="zoomPlus">
                        <use xlink:href="#rim" fill="#404040">
                                <set attributeName="fill" to="#808080" begin="zoomplus.mouseover" end="zoomplus.mouseout"/>
                        </use>
                        <path d="M-4,0h8M0,-4v8" fill="none" stroke="white" stroke-width="1.5" pointer-events="none"/>
                </g>
                <g id="zoomMin">
                        <use xlink:href="#rim" fill="#404040">
                                <set attributeName="fill" to="#808080" begin="zoomminus.mouseover" end="zoomminus.mouseout"/>
                        </use>
                        <path d="M-4,0h8" fill="none" stroke="white" stroke-width="1.5" pointer-events="none"/>
                </g>
                <g id="dirArrow">
                        <path fill="none" stroke="white" stroke-width="1.5" d="M0,-3.0v7 M-2.5,-0.5L0,-3.0L2.5,-0.5"/>
                </g>
               <g id="resetDef">
                       <use xlink:href="#rim2" fill="#404040">
                               <set attributeName="fill" to="#808080" begin="reset.mouseover" end="reset.mouseout"/>
                       </use>
               </g>
        </defs>

<script type="text/javascript">
var viewWidth = 806;
var viewHeight = 285;
var sectionId = 'dynsection-0';
</script>
<script xlink:href="../../svgpan.js"/>
<svg id="graph" class="graph">
<g id="viewport">
<title>/home/travis/build/ComPWA/ComPWA/ThirdParty/tbb/include/tbb/task_arena.h</title>
<polygon fill="white" stroke="none" points="-4,4 -4,-281 801.995,-281 801.995,4 -4,4"/>
<!-- Node1 -->
<g id="node1" class="node"><title>Node1</title>
<polygon fill="#bfbfbf" stroke="black" points="226,-235.5 226,-276.5 384,-276.5 384,-235.5 226,-235.5"/>
<text text-anchor="start" x="234" y="-264.5" font-family="Helvetica,sans-Serif" font-size="10.00">/home/travis/build</text>
<text text-anchor="start" x="234" y="-253.5" font-family="Helvetica,sans-Serif" font-size="10.00">/ComPWA/ComPWA/ThirdParty</text>
<text text-anchor="middle" x="305" y="-242.5" font-family="Helvetica,sans-Serif" font-size="10.00">/tbb/include/tbb/task_arena.h</text>
</g>
<!-- Node2 -->
<g id="node2" class="node"><title>Node2</title>
<g id="a_node2"><a xlink:href="../../db/da4/task_8h.html" target="_top" xlink:title="task.h">
<polygon fill="white" stroke="black" points="238,-174 238,-193 284,-193 284,-174 238,-174"/>
<text text-anchor="middle" x="261" y="-181" font-family="Helvetica,sans-Serif" font-size="10.00">task.h</text>
</a>
</g>
</g>
<!-- Node1&#45;&gt;Node2 -->
<g id="edge1" class="edge"><title>Node1&#45;&gt;Node2</title>
<path fill="none" stroke="midnightblue" d="M292.744,-235.362C286.192,-224.864 278.195,-212.052 271.867,-201.912"/>
<polygon fill="midnightblue" stroke="midnightblue" points="274.677,-199.804 266.413,-193.173 268.739,-203.51 274.677,-199.804"/>
</g>
<!-- Node8 -->
<g id="node8" class="node"><title>Node8</title>
<g id="a_node8"><a xlink:href="../../d8/dfc/tbb__exception_8h.html" target="_top" xlink:title="tbb_exception.h">
<polygon fill="white" stroke="black" points="557.5,-174 557.5,-193 650.5,-193 650.5,-174 557.5,-174"/>
<text text-anchor="middle" x="604" y="-181" font-family="Helvetica,sans-Serif" font-size="10.00">tbb_exception.h</text>
</a>
</g>
</g>
<!-- Node1&#45;&gt;Node8 -->
<g id="edge8" class="edge"><title>Node1&#45;&gt;Node8</title>
<path fill="none" stroke="midnightblue" d="M384.342,-236.292C439.672,-223.246 511.583,-206.291 557.774,-195.4"/>
<polygon fill="midnightblue" stroke="midnightblue" points="558.864,-198.738 567.794,-193.037 557.258,-191.925 558.864,-198.738"/>
</g>
<!-- Node14 -->
<g id="node14" class="node"><title>Node14</title>
<g id="a_node14"><a xlink:href="../../d5/df2/__template__helpers_8h.html" target="_top" xlink:title="internal/_template\l_helpers.h">
<polygon fill="white" stroke="black" points="0,-168.5 0,-198.5 104,-198.5 104,-168.5 0,-168.5"/>
<text text-anchor="start" x="8" y="-186.5" font-family="Helvetica,sans-Serif" font-size="10.00">internal/_template</text>
<text text-anchor="middle" x="52" y="-175.5" font-family="Helvetica,sans-Serif" font-size="10.00">_helpers.h</text>
</a>
</g>
</g>
<!-- Node1&#45;&gt;Node14 -->
<g id="edge17" class="edge"><title>Node1&#45;&gt;Node14</title>
<path fill="none" stroke="midnightblue" d="M234.861,-235.455C196.498,-224.765 149.441,-211.653 112.671,-201.406"/>
<polygon fill="midnightblue" stroke="midnightblue" points="113.161,-197.91 102.588,-198.597 111.282,-204.653 113.161,-197.91"/>
</g>
<!-- Node16 -->
<g id="node16" class="node"><title>Node16</title>
<g id="a_node16"><a xlink:href="../../dd/d69/aligned__space_8h.html" target="_top" xlink:title="aligned_space.h">
<polygon fill="white" stroke="black" points="302,-174 302,-193 396,-193 396,-174 302,-174"/>
<text text-anchor="middle" x="349" y="-181" font-family="Helvetica,sans-Serif" font-size="10.00">aligned_space.h</text>
</a>
</g>
</g>
<!-- Node1&#45;&gt;Node16 -->
<g id="edge20" class="edge"><title>Node1&#45;&gt;Node16</title>
<path fill="none" stroke="midnightblue" d="M317.256,-235.362C323.808,-224.864 331.805,-212.052 338.133,-201.912"/>
<polygon fill="midnightblue" stroke="midnightblue" points="341.261,-203.51 343.587,-193.173 335.323,-199.804 341.261,-203.51"/>
</g>
<!-- Node3 -->
<g id="node3" class="node"><title>Node3</title>
<g id="a_node3"><a xlink:href="../../d2/d98/tbb__stddef_8h.html" target="_top" xlink:title="tbb_stddef.h">
<polygon fill="white" stroke="red" points="339,-56.5 339,-75.5 415,-75.5 415,-56.5 339,-56.5"/>
<text text-anchor="middle" x="377" y="-63.5" font-family="Helvetica,sans-Serif" font-size="10.00">tbb_stddef.h</text>
</a>
</g>
</g>
<!-- Node2&#45;&gt;Node3 -->
<g id="edge2" class="edge"><title>Node2&#45;&gt;Node3</title>
<path fill="none" stroke="midnightblue" d="M262.289,-173.629C264.815,-159.113 271.667,-130.097 288,-112 301.507,-97.0338 321.139,-86.3726 338.53,-79.1963"/>
<polygon fill="midnightblue" stroke="midnightblue" points="339.848,-82.4393 347.908,-75.5628 337.319,-75.9121 339.848,-82.4393"/>
</g>
<!-- Node5 -->
<g id="node5" class="node"><title>Node5</title>
<g id="a_node5"><a xlink:href="../../d1/d09/tbb__machine_8h.html" target="_top" xlink:title="tbb_machine.h">
<polygon fill="white" stroke="black" points="297,-112.5 297,-131.5 385,-131.5 385,-112.5 297,-112.5"/>
<text text-anchor="middle" x="341" y="-119.5" font-family="Helvetica,sans-Serif" font-size="10.00">tbb_machine.h</text>
</a>
</g>
</g>
<!-- Node2&#45;&gt;Node5 -->
<g id="edge4" class="edge"><title>Node2&#45;&gt;Node5</title>
<path fill="none" stroke="midnightblue" d="M272.462,-173.975C285.175,-164.52 305.913,-149.096 321.253,-137.687"/>
<polygon fill="midnightblue" stroke="midnightblue" points="323.624,-140.285 329.559,-131.509 319.446,-134.669 323.624,-140.285"/>
</g>
<!-- Node6 -->
<g id="node6" class="node"><title>Node6</title>
<g id="a_node6"><a xlink:href="../../d0/dc3/tbb__profiling_8h.html" target="_top" xlink:title="tbb_profiling.h">
<polygon fill="white" stroke="red" points="91,-112.5 91,-131.5 175,-131.5 175,-112.5 91,-112.5"/>
<text text-anchor="middle" x="133" y="-119.5" font-family="Helvetica,sans-Serif" font-size="10.00">tbb_profiling.h</text>
</a>
</g>
</g>
<!-- Node2&#45;&gt;Node6 -->
<g id="edge6" class="edge"><title>Node2&#45;&gt;Node6</title>
<path fill="none" stroke="midnightblue" d="M242.661,-173.975C221.179,-163.99 185.378,-147.348 160.552,-135.807"/>
<polygon fill="midnightblue" stroke="midnightblue" points="161.849,-132.551 151.305,-131.509 158.898,-138.898 161.849,-132.551"/>
</g>
<!-- Node7 -->
<g id="node7" class="node"><title>Node7</title>
<polygon fill="white" stroke="#bfbfbf" points="193.5,-112.5 193.5,-131.5 240.5,-131.5 240.5,-112.5 193.5,-112.5"/>
<text text-anchor="middle" x="217" y="-119.5" font-family="Helvetica,sans-Serif" font-size="10.00">climits</text>
</g>
<!-- Node2&#45;&gt;Node7 -->
<g id="edge7" class="edge"><title>Node2&#45;&gt;Node7</title>
<path fill="none" stroke="midnightblue" d="M254.696,-173.975C248.096,-165.05 237.563,-150.807 229.307,-139.643"/>
<polygon fill="midnightblue" stroke="midnightblue" points="232.052,-137.468 223.292,-131.509 226.424,-141.631 232.052,-137.468"/>
</g>
<!-- Node4 -->
<g id="node4" class="node"><title>Node4</title>
<polygon fill="white" stroke="#bfbfbf" points="146,-0.5 146,-19.5 198,-19.5 198,-0.5 146,-0.5"/>
<text text-anchor="middle" x="172" y="-7.5" font-family="Helvetica,sans-Serif" font-size="10.00">cstddef</text>
</g>
<!-- Node3&#45;&gt;Node4 -->
<g id="edge3" class="edge"><title>Node3&#45;&gt;Node4</title>
<path fill="none" stroke="midnightblue" d="M344.517,-56.4435C307.311,-46.6429 246.528,-30.6319 207.934,-20.4655"/>
<polygon fill="midnightblue" stroke="midnightblue" points="208.713,-17.0514 198.151,-17.8886 206.93,-23.8205 208.713,-17.0514"/>
</g>
<!-- Node5&#45;&gt;Node3 -->
<g id="edge5" class="edge"><title>Node5&#45;&gt;Node3</title>
<path fill="none" stroke="midnightblue" d="M346.945,-112.083C351.977,-104.534 359.337,-93.4948 365.513,-84.2298"/>
<polygon fill="midnightblue" stroke="midnightblue" points="368.531,-86.0131 371.166,-75.7511 362.707,-82.1301 368.531,-86.0131"/>
</g>
<!-- Node8&#45;&gt;Node3 -->
<g id="edge9" class="edge"><title>Node8&#45;&gt;Node3</title>
<path fill="none" stroke="midnightblue" d="M575.135,-173.935C547.375,-165.168 504.637,-150.262 470,-132 442.447,-117.473 413.45,-96.0927 395.305,-81.868"/>
<polygon fill="midnightblue" stroke="midnightblue" points="397.328,-79.0055 387.323,-75.5212 392.972,-84.4845 397.328,-79.0055"/>
</g>
<!-- Node9 -->
<g id="node9" class="node"><title>Node9</title>
<polygon fill="white" stroke="#bfbfbf" points="479.5,-112.5 479.5,-131.5 542.5,-131.5 542.5,-112.5 479.5,-112.5"/>
<text text-anchor="middle" x="511" y="-119.5" font-family="Helvetica,sans-Serif" font-size="10.00">exception</text>
</g>
<!-- Node8&#45;&gt;Node9 -->
<g id="edge10" class="edge"><title>Node8&#45;&gt;Node9</title>
<path fill="none" stroke="midnightblue" d="M590.675,-173.975C575.62,-164.343 550.884,-148.517 532.963,-137.052"/>
<polygon fill="midnightblue" stroke="midnightblue" points="534.61,-133.95 524.3,-131.509 530.837,-139.847 534.61,-133.95"/>
</g>
<!-- Node10 -->
<g id="node10" class="node"><title>Node10</title>
<polygon fill="white" stroke="#bfbfbf" points="690.5,-56.5 690.5,-75.5 725.5,-75.5 725.5,-56.5 690.5,-56.5"/>
<text text-anchor="middle" x="708" y="-63.5" font-family="Helvetica,sans-Serif" font-size="10.00">new</text>
</g>
<!-- Node8&#45;&gt;Node10 -->
<g id="edge11" class="edge"><title>Node8&#45;&gt;Node10</title>
<path fill="none" stroke="midnightblue" d="M650.836,-176.522C701.011,-169.042 775.78,-154.426 793,-132 812.5,-106.606 767.218,-85.9432 735.543,-75.1511"/>
<polygon fill="midnightblue" stroke="midnightblue" points="736.428,-71.7588 725.836,-72.0005 734.267,-78.4168 736.428,-71.7588"/>
</g>
<!-- Node11 -->
<g id="node11" class="node"><title>Node11</title>
<polygon fill="white" stroke="#bfbfbf" points="666,-112.5 666,-131.5 710,-131.5 710,-112.5 666,-112.5"/>
<text text-anchor="middle" x="688" y="-119.5" font-family="Helvetica,sans-Serif" font-size="10.00">string</text>
</g>
<!-- Node8&#45;&gt;Node11 -->
<g id="edge12" class="edge"><title>Node8&#45;&gt;Node11</title>
<path fill="none" stroke="midnightblue" d="M616.035,-173.975C629.508,-164.431 651.566,-148.807 667.715,-137.368"/>
<polygon fill="midnightblue" stroke="midnightblue" points="669.85,-140.145 675.987,-131.509 665.804,-134.433 669.85,-140.145"/>
</g>
<!-- Node12 -->
<g id="node12" class="node"><title>Node12</title>
<g id="a_node12"><a xlink:href="../../dc/d39/tbb__allocator_8h.html" target="_top" xlink:title="tbb_allocator.h">
<polygon fill="white" stroke="red" points="560.5,-112.5 560.5,-131.5 647.5,-131.5 647.5,-112.5 560.5,-112.5"/>
<text text-anchor="middle" x="604" y="-119.5" font-family="Helvetica,sans-Serif" font-size="10.00">tbb_allocator.h</text>
</a>
</g>
</g>
<!-- Node8&#45;&gt;Node12 -->
<g id="edge13" class="edge"><title>Node8&#45;&gt;Node12</title>
<path fill="none" stroke="midnightblue" d="M604,-173.975C604,-165.58 604,-152.481 604,-141.663"/>
<polygon fill="midnightblue" stroke="midnightblue" points="607.5,-141.509 604,-131.509 600.5,-141.509 607.5,-141.509"/>
</g>
<!-- Node13 -->
<g id="node13" class="node"><title>Node13</title>
<polygon fill="white" stroke="#bfbfbf" points="728.5,-112.5 728.5,-131.5 783.5,-131.5 783.5,-112.5 728.5,-112.5"/>
<text text-anchor="middle" x="756" y="-119.5" font-family="Helvetica,sans-Serif" font-size="10.00">typeinfo</text>
</g>
<!-- Node8&#45;&gt;Node13 -->
<g id="edge16" class="edge"><title>Node8&#45;&gt;Node13</title>
<path fill="none" stroke="midnightblue" d="M625.778,-173.975C651.738,-163.813 695.311,-146.756 724.835,-135.2"/>
<polygon fill="midnightblue" stroke="midnightblue" points="726.226,-138.413 734.263,-131.509 723.675,-131.895 726.226,-138.413"/>
</g>
<!-- Node12&#45;&gt;Node3 -->
<g id="edge14" class="edge"><title>Node12&#45;&gt;Node3</title>
<path fill="none" stroke="midnightblue" d="M568.031,-112.444C528.681,-103.083 465.513,-88.0561 422.686,-77.868"/>
<polygon fill="midnightblue" stroke="midnightblue" points="423.339,-74.4258 412.801,-75.5164 421.719,-81.2358 423.339,-74.4258"/>
</g>
<!-- Node12&#45;&gt;Node10 -->
<g id="edge15" class="edge"><title>Node12&#45;&gt;Node10</title>
<path fill="none" stroke="midnightblue" d="M620.709,-112.324C637.312,-103.703 663.002,-90.3643 682.22,-80.3855"/>
<polygon fill="midnightblue" stroke="midnightblue" points="684.07,-83.3689 691.332,-75.6545 680.844,-77.1565 684.07,-83.3689"/>
</g>
<!-- Node14&#45;&gt;Node4 -->
<g id="edge19" class="edge"><title>Node14&#45;&gt;Node4</title>
<path fill="none" stroke="midnightblue" d="M38.5155,-168.39C26.398,-153.915 11.9383,-130.905 22,-112 46.0664,-66.7818 100.387,-38.1757 136.621,-23.3745"/>
<polygon fill="midnightblue" stroke="midnightblue" points="138.293,-26.4779 146.321,-19.5635 135.734,-19.9627 138.293,-26.4779"/>
</g>
<!-- Node15 -->
<g id="node15" class="node"><title>Node15</title>
<polygon fill="white" stroke="#bfbfbf" points="31,-112.5 31,-131.5 73,-131.5 73,-112.5 31,-112.5"/>
<text text-anchor="middle" x="52" y="-119.5" font-family="Helvetica,sans-Serif" font-size="10.00">utility</text>
</g>
<!-- Node14&#45;&gt;Node15 -->
<g id="edge18" class="edge"><title>Node14&#45;&gt;Node15</title>
<path fill="none" stroke="midnightblue" d="M52,-168.399C52,-160.466 52,-150.458 52,-141.858"/>
<polygon fill="midnightblue" stroke="midnightblue" points="55.5001,-141.658 52,-131.658 48.5001,-141.658 55.5001,-141.658"/>
</g>
<!-- Node16&#45;&gt;Node3 -->
<g id="edge21" class="edge"><title>Node16&#45;&gt;Node3</title>
<path fill="none" stroke="midnightblue" d="M360.417,-173.929C371.406,-164.895 387.312,-149.558 394,-132 399.955,-116.365 393.9,-97.8445 387.424,-84.5806"/>
<polygon fill="midnightblue" stroke="midnightblue" points="390.407,-82.7388 382.581,-75.5971 384.246,-86.0604 390.407,-82.7388"/>
</g>
<!-- Node16&#45;&gt;Node5 -->
<g id="edge22" class="edge"><title>Node16&#45;&gt;Node5</title>
<path fill="none" stroke="midnightblue" d="M347.854,-173.975C346.725,-165.58 344.964,-152.481 343.509,-141.663"/>
<polygon fill="midnightblue" stroke="midnightblue" points="346.945,-140.953 342.144,-131.509 340.008,-141.886 346.945,-140.953"/>
</g>
</g>
</svg>
        <g id="navigator" transform="translate(0 0)" fill="#404254">
                <rect fill="#f2f5e9" fill-opacity="0.5" stroke="#606060" stroke-width=".5" x="0" y="0" width="60" height="60"/>
                <use id="zoomplus" xlink:href="#zoomPlus" x="17" y="9" onmousedown="handleZoom(evt,'in')"/>
                <use id="zoomminus" xlink:href="#zoomMin" x="42" y="9" onmousedown="handleZoom(evt,'out')"/>
                <use id="reset" xlink:href="#resetDef" x="30" y="36" onmousedown="handleReset()"/>
                <g id="arrowUp" xlink:href="#dirArrow" transform="translate(30 24)" onmousedown="handlePan(0,-1)">
                  <use xlink:href="#rim" fill="#404040">
                        <set attributeName="fill" to="#808080" begin="arrowUp.mouseover" end="arrowUp.mouseout"/>
                  </use>
                  <path fill="none" stroke="white" stroke-width="1.5" d="M0,-3.0v7 M-2.5,-0.5L0,-3.0L2.5,-0.5"/>
                </g>
                <g id="arrowRight" xlink:href="#dirArrow" transform="rotate(90) translate(36 -43)" onmousedown="handlePan(1,0)">
                  <use xlink:href="#rim" fill="#404040">
                        <set attributeName="fill" to="#808080" begin="arrowRight.mouseover" end="arrowRight.mouseout"/>
                  </use>
                  <path fill="none" stroke="white" stroke-width="1.5" d="M0,-3.0v7 M-2.5,-0.5L0,-3.0L2.5,-0.5"/>
                </g>
                <g id="arrowDown" xlink:href="#dirArrow" transform="rotate(180) translate(-30 -48)" onmousedown="handlePan(0,1)">
                  <use xlink:href="#rim" fill="#404040">
                        <set attributeName="fill" to="#808080" begin="arrowDown.mouseover" end="arrowDown.mouseout"/>
                  </use>
                  <path fill="none" stroke="white" stroke-width="1.5" d="M0,-3.0v7 M-2.5,-0.5L0,-3.0L2.5,-0.5"/>
                </g>
                <g id="arrowLeft" xlink:href="#dirArrow" transform="rotate(270) translate(-36 17)" onmousedown="handlePan(-1,0)">
                  <use xlink:href="#rim" fill="#404040">
                        <set attributeName="fill" to="#808080" begin="arrowLeft.mouseover" end="arrowLeft.mouseout"/>
                  </use>
                  <path fill="none" stroke="white" stroke-width="1.5" d="M0,-3.0v7 M-2.5,-0.5L0,-3.0L2.5,-0.5"/>
                </g>
        </g>
        <svg viewBox="0 0 15 15" width="100%" height="30px" preserveAspectRatio="xMaxYMin meet">
         <g id="arrow_out" transform="scale(0.3 0.3)">
          <a xlink:href="task__arena_8h__incl_org.svg" target="_base">
           <rect id="button" ry="5" rx="5" y="6" x="6" height="38" width="38"
                fill="#f2f5e9" fill-opacity="0.5" stroke="#606060" stroke-width="1.0"/>
           <path id="arrow"
             d="M 11.500037,31.436501 C 11.940474,20.09759 22.043105,11.32322 32.158766,21.979434 L 37.068811,17.246167 C 37.068811,17.246167 37.088388,32 37.088388,32 L 22.160133,31.978069 C 22.160133,31.978069 26.997745,27.140456 26.997745,27.140456 C 18.528582,18.264221 13.291696,25.230495 11.500037,31.436501 z"
             style="fill:#404040;"/>
          </a>
         </g>
        </svg>
</svg>
