<?xml version="1.0" encoding="UTF-8" standalone="no"?>
<!DOCTYPE svg PUBLIC "-//W3C//DTD SVG 1.1//EN"
 "http://www.w3.org/Graphics/SVG/1.1/DTD/svg11.dtd">
<!-- Generated by graphviz version 2.38.0 (20140413.2041)
 -->
<!-- Title: /home/travis/build/ComPWA/ComPWA/ThirdParty/tbb/examples/parallel_for/tachyon/src/ui.cpp Pages: 1 -->
<svg width="497pt" height="229pt"
 viewBox="0.00 0.00 496.50 229.00" xmlns="http://www.w3.org/2000/svg" xmlns:xlink="http://www.w3.org/1999/xlink">
<g id="graph0" class="graph" transform="scale(1 1) rotate(0) translate(4 225)">
<title>/home/travis/build/ComPWA/ComPWA/ThirdParty/tbb/examples/parallel_for/tachyon/src/ui.cpp</title>
<polygon fill="white" stroke="none" points="-4,4 -4,-225 492.5,-225 492.5,4 -4,4"/>
<!-- Node1 -->
<g id="node1" class="node"><title>Node1</title>
<polygon fill="#bfbfbf" stroke="black" points="175.5,-168.5 175.5,-220.5 333.5,-220.5 333.5,-168.5 175.5,-168.5"/>
<text text-anchor="start" x="183.5" y="-208.5" font-family="Helvetica,sans-Serif" font-size="10.00">/home/travis/build</text>
<text text-anchor="start" x="183.5" y="-197.5" font-family="Helvetica,sans-Serif" font-size="10.00">/ComPWA/ComPWA/ThirdParty</text>
<text text-anchor="start" x="183.5" y="-186.5" font-family="Helvetica,sans-Serif" font-size="10.00">/tbb/examples/parallel_for</text>
<text text-anchor="middle" x="254.5" y="-175.5" font-family="Helvetica,sans-Serif" font-size="10.00">/tachyon/src/ui.cpp</text>
</g>
<!-- Node2 -->
<g id="node2" class="node"><title>Node2</title>
<g id="a_node2"><a xlink:href="../../da/d8f/machine_8h.html" target="_top" xlink:title="machine.h">
<polygon fill="white" stroke="black" points="195,-56.5 195,-75.5 262,-75.5 262,-56.5 195,-56.5"/>
<text text-anchor="middle" x="228.5" y="-63.5" font-family="Helvetica,sans-Serif" font-size="10.00">machine.h</text>
</a>
</g>
</g>
<!-- Node1&#45;&gt;Node2 -->
<g id="edge1" class="edge"><title>Node1&#45;&gt;Node2</title>
<path fill="none" stroke="midnightblue" d="M233.349,-168.232C225.857,-157.712 218.339,-144.944 214.5,-132 209.838,-116.281 214.658,-97.9966 219.874,-84.8315"/>
<polygon fill="midnightblue" stroke="midnightblue" points="223.148,-86.0808 223.969,-75.5177 216.74,-83.2637 223.148,-86.0808"/>
</g>
<!-- Node10 -->
<g id="node10" class="node"><title>Node10</title>
<g id="a_node10"><a xlink:href="../../d9/d49/types_8h.html" target="_top" xlink:title="types.h">
<polygon fill="white" stroke="black" points="115.5,-112.5 115.5,-131.5 167.5,-131.5 167.5,-112.5 115.5,-112.5"/>
<text text-anchor="middle" x="141.5" y="-119.5" font-family="Helvetica,sans-Serif" font-size="10.00">types.h</text>
</a>
</g>
</g>
<!-- Node1&#45;&gt;Node10 -->
<g id="edge9" class="edge"><title>Node1&#45;&gt;Node10</title>
<path fill="none" stroke="midnightblue" d="M214.342,-168.446C197.378,-157.862 178.263,-145.936 163.872,-136.958"/>
<polygon fill="midnightblue" stroke="midnightblue" points="165.504,-133.851 155.167,-131.527 161.799,-139.79 165.504,-133.851"/>
</g>
<!-- Node12 -->
<g id="node12" class="node"><title>Node12</title>
<g id="a_node12"><a xlink:href="../../de/d3c/macros_8h.html" target="_top" xlink:title="macros.h">
<polygon fill="white" stroke="black" points="223.5,-112.5 223.5,-131.5 285.5,-131.5 285.5,-112.5 223.5,-112.5"/>
<text text-anchor="middle" x="254.5" y="-119.5" font-family="Helvetica,sans-Serif" font-size="10.00">macros.h</text>
</a>
</g>
</g>
<!-- Node1&#45;&gt;Node12 -->
<g id="edge11" class="edge"><title>Node1&#45;&gt;Node12</title>
<path fill="none" stroke="midnightblue" d="M254.5,-168.446C254.5,-159.73 254.5,-150.104 254.5,-141.964"/>
<polygon fill="midnightblue" stroke="midnightblue" points="258,-141.695 254.5,-131.695 251,-141.696 258,-141.695"/>
</g>
<!-- Node13 -->
<g id="node13" class="node"><title>Node13</title>
<g id="a_node13"><a xlink:href="../../d8/d3c/util_8h.html" target="_top" xlink:title="util.h">
<polygon fill="white" stroke="black" points="303.5,-112.5 303.5,-131.5 343.5,-131.5 343.5,-112.5 303.5,-112.5"/>
<text text-anchor="middle" x="323.5" y="-119.5" font-family="Helvetica,sans-Serif" font-size="10.00">util.h</text>
</a>
</g>
</g>
<!-- Node1&#45;&gt;Node13 -->
<g id="edge12" class="edge"><title>Node1&#45;&gt;Node13</title>
<path fill="none" stroke="midnightblue" d="M279.021,-168.446C288.63,-158.628 299.369,-147.656 307.887,-138.952"/>
<polygon fill="midnightblue" stroke="midnightblue" points="310.496,-141.29 314.99,-131.695 305.494,-136.394 310.496,-141.29"/>
</g>
<!-- Node16 -->
<g id="node16" class="node"><title>Node16</title>
<g id="a_node16"><a xlink:href="../../d9/d3b/ui_8h.html" target="_top" xlink:title="ui.h">
<polygon fill="white" stroke="black" points="361.5,-112.5 361.5,-131.5 395.5,-131.5 395.5,-112.5 361.5,-112.5"/>
<text text-anchor="middle" x="378.5" y="-119.5" font-family="Helvetica,sans-Serif" font-size="10.00">ui.h</text>
</a>
</g>
</g>
<!-- Node1&#45;&gt;Node16 -->
<g id="edge16" class="edge"><title>Node1&#45;&gt;Node16</title>
<path fill="none" stroke="midnightblue" d="M298.567,-168.446C317.36,-157.761 338.558,-145.709 354.4,-136.702"/>
<polygon fill="midnightblue" stroke="midnightblue" points="356.539,-139.512 363.502,-131.527 353.079,-133.427 356.539,-139.512"/>
</g>
<!-- Node3 -->
<g id="node3" class="node"><title>Node3</title>
<polygon fill="white" stroke="#bfbfbf" points="0,-0.5 0,-19.5 49,-19.5 49,-0.5 0,-0.5"/>
<text text-anchor="middle" x="24.5" y="-7.5" font-family="Helvetica,sans-Serif" font-size="10.00">stdio.h</text>
</g>
<!-- Node2&#45;&gt;Node3 -->
<g id="edge2" class="edge"><title>Node2&#45;&gt;Node3</title>
<path fill="none" stroke="midnightblue" d="M195.695,-56.46C163.272,-47.999 111.993,-34.5627 58.927,-20.3669"/>
<polygon fill="midnightblue" stroke="midnightblue" points="59.5668,-16.9149 49.0017,-17.7084 57.7557,-23.6766 59.5668,-16.9149"/>
</g>
<!-- Node4 -->
<g id="node4" class="node"><title>Node4</title>
<polygon fill="white" stroke="#bfbfbf" points="67,-0.5 67,-19.5 114,-19.5 114,-0.5 67,-0.5"/>
<text text-anchor="middle" x="90.5" y="-7.5" font-family="Helvetica,sans-Serif" font-size="10.00">cstdlib</text>
</g>
<!-- Node2&#45;&gt;Node4 -->
<g id="edge3" class="edge"><title>Node2&#45;&gt;Node4</title>
<path fill="none" stroke="midnightblue" d="M206.633,-56.4435C183.721,-47.4776 147.525,-33.314 121.634,-23.1827"/>
<polygon fill="midnightblue" stroke="midnightblue" points="122.852,-19.9011 112.264,-19.5164 120.301,-26.4198 122.852,-19.9011"/>
</g>
<!-- Node5 -->
<g id="node5" class="node"><title>Node5</title>
<polygon fill="white" stroke="#bfbfbf" points="132,-0.5 132,-19.5 185,-19.5 185,-0.5 132,-0.5"/>
<text text-anchor="middle" x="158.5" y="-7.5" font-family="Helvetica,sans-Serif" font-size="10.00">string.h</text>
</g>
<!-- Node2&#45;&gt;Node5 -->
<g id="edge4" class="edge"><title>Node2&#45;&gt;Node5</title>
<path fill="none" stroke="midnightblue" d="M217.253,-56.324C206.703,-48.1849 190.699,-35.8395 178.058,-26.0874"/>
<polygon fill="midnightblue" stroke="midnightblue" points="180.007,-23.1707 169.951,-19.8339 175.731,-28.7132 180.007,-23.1707"/>
</g>
<!-- Node6 -->
<g id="node6" class="node"><title>Node6</title>
<polygon fill="white" stroke="#bfbfbf" points="203,-0.5 203,-19.5 254,-19.5 254,-0.5 203,-0.5"/>
<text text-anchor="middle" x="228.5" y="-7.5" font-family="Helvetica,sans-Serif" font-size="10.00">math.h</text>
</g>
<!-- Node2&#45;&gt;Node6 -->
<g id="edge5" class="edge"><title>Node2&#45;&gt;Node6</title>
<path fill="none" stroke="midnightblue" d="M228.5,-56.083C228.5,-49.0059 228.5,-38.8611 228.5,-29.9865"/>
<polygon fill="midnightblue" stroke="midnightblue" points="232,-29.751 228.5,-19.7511 225,-29.7511 232,-29.751"/>
</g>
<!-- Node7 -->
<g id="node7" class="node"><title>Node7</title>
<polygon fill="white" stroke="#bfbfbf" points="272,-0.5 272,-19.5 343,-19.5 343,-0.5 272,-0.5"/>
<text text-anchor="middle" x="307.5" y="-7.5" font-family="Helvetica,sans-Serif" font-size="10.00">sys/types.h</text>
</g>
<!-- Node2&#45;&gt;Node7 -->
<g id="edge6" class="edge"><title>Node2&#45;&gt;Node7</title>
<path fill="none" stroke="midnightblue" d="M241.193,-56.324C253.401,-47.979 272.078,-35.2122 286.503,-25.3524"/>
<polygon fill="midnightblue" stroke="midnightblue" points="288.558,-28.1871 294.839,-19.6545 284.608,-22.4082 288.558,-28.1871"/>
</g>
<!-- Node8 -->
<g id="node8" class="node"><title>Node8</title>
<polygon fill="white" stroke="#bfbfbf" points="361,-0.5 361,-19.5 424,-19.5 424,-0.5 361,-0.5"/>
<text text-anchor="middle" x="392.5" y="-7.5" font-family="Helvetica,sans-Serif" font-size="10.00">sys/stat.h</text>
</g>
<!-- Node2&#45;&gt;Node8 -->
<g id="edge7" class="edge"><title>Node2&#45;&gt;Node8</title>
<path fill="none" stroke="midnightblue" d="M254.486,-56.4435C282.196,-47.3196 326.252,-32.8133 357.116,-22.6509"/>
<polygon fill="midnightblue" stroke="midnightblue" points="358.232,-25.9684 366.635,-19.5164 356.042,-19.3196 358.232,-25.9684"/>
</g>
<!-- Node9 -->
<g id="node9" class="node"><title>Node9</title>
<polygon fill="white" stroke="#bfbfbf" points="442.5,-0.5 442.5,-19.5 488.5,-19.5 488.5,-0.5 442.5,-0.5"/>
<text text-anchor="middle" x="465.5" y="-7.5" font-family="Helvetica,sans-Serif" font-size="10.00">fcntl.h</text>
</g>
<!-- Node2&#45;&gt;Node9 -->
<g id="edge8" class="edge"><title>Node2&#45;&gt;Node9</title>
<path fill="none" stroke="midnightblue" d="M262.016,-58.2662C300.817,-50.3341 366.847,-36.416 432.751,-20.0772"/>
<polygon fill="midnightblue" stroke="midnightblue" points="433.617,-23.4686 442.471,-17.6495 431.92,-16.6773 433.617,-23.4686"/>
</g>
<!-- Node11 -->
<g id="node11" class="node"><title>Node11</title>
<polygon fill="white" stroke="#bfbfbf" points="115,-56.5 115,-75.5 168,-75.5 168,-56.5 115,-56.5"/>
<text text-anchor="middle" x="141.5" y="-63.5" font-family="Helvetica,sans-Serif" font-size="10.00">alloca.h</text>
</g>
<!-- Node10&#45;&gt;Node11 -->
<g id="edge10" class="edge"><title>Node10&#45;&gt;Node11</title>
<path fill="none" stroke="midnightblue" d="M141.5,-112.083C141.5,-105.006 141.5,-94.8611 141.5,-85.9865"/>
<polygon fill="midnightblue" stroke="midnightblue" points="145,-85.751 141.5,-75.7511 138,-85.7511 145,-85.751"/>
</g>
<!-- Node13&#45;&gt;Node2 -->
<g id="edge13" class="edge"><title>Node13&#45;&gt;Node2</title>
<path fill="none" stroke="midnightblue" d="M308.237,-112.324C293.279,-103.822 270.245,-90.7288 252.773,-80.7975"/>
<polygon fill="midnightblue" stroke="midnightblue" points="254.149,-77.5534 243.726,-75.6545 250.69,-83.639 254.149,-77.5534"/>
</g>
<!-- Node14 -->
<g id="node14" class="node"><title>Node14</title>
<polygon fill="white" stroke="#bfbfbf" points="285.5,-56.5 285.5,-75.5 351.5,-75.5 351.5,-56.5 285.5,-56.5"/>
<text text-anchor="middle" x="318.5" y="-63.5" font-family="Helvetica,sans-Serif" font-size="10.00">sys/time.h</text>
</g>
<!-- Node13&#45;&gt;Node14 -->
<g id="edge14" class="edge"><title>Node13&#45;&gt;Node14</title>
<path fill="none" stroke="midnightblue" d="M322.674,-112.083C322.019,-105.006 321.08,-94.8611 320.258,-85.9865"/>
<polygon fill="midnightblue" stroke="midnightblue" points="323.717,-85.3858 319.31,-75.7511 316.747,-86.0312 323.717,-85.3858"/>
</g>
<!-- Node15 -->
<g id="node15" class="node"><title>Node15</title>
<polygon fill="white" stroke="#bfbfbf" points="370,-56.5 370,-75.5 425,-75.5 425,-56.5 370,-56.5"/>
<text text-anchor="middle" x="397.5" y="-63.5" font-family="Helvetica,sans-Serif" font-size="10.00">unistd.h</text>
</g>
<!-- Node13&#45;&gt;Node15 -->
<g id="edge15" class="edge"><title>Node13&#45;&gt;Node15</title>
<path fill="none" stroke="midnightblue" d="M335.389,-112.324C346.65,-104.107 363.787,-91.6017 377.209,-81.8069"/>
<polygon fill="midnightblue" stroke="midnightblue" points="379.38,-84.5559 385.394,-75.8339 375.253,-78.9014 379.38,-84.5559"/>
</g>
</g>
</svg>
