<?xml version="1.0" encoding="UTF-8" standalone="no"?>
<!DOCTYPE svg PUBLIC "-//W3C//DTD SVG 1.1//EN"
 "http://www.w3.org/Graphics/SVG/1.1/DTD/svg11.dtd">
<!-- Generated by graphviz version 2.38.0 (20140413.2041)
 -->
<!-- Title: /home/travis/build/ComPWA/ComPWA/ThirdParty/tbb/src/tbb/scheduler_utility.h Pages: 1 -->
<svg width="342pt" height="217pt"
 viewBox="0.00 0.00 342.00 217.00" xmlns="http://www.w3.org/2000/svg" xmlns:xlink="http://www.w3.org/1999/xlink">
<g id="graph0" class="graph" transform="scale(1 1) rotate(0) translate(4 213)">
<title>/home/travis/build/ComPWA/ComPWA/ThirdParty/tbb/src/tbb/scheduler_utility.h</title>
<polygon fill="white" stroke="none" points="-4,4 -4,-213 338,-213 338,4 -4,4"/>
<!-- Node1 -->
<g id="node1" class="node"><title>Node1</title>
<polygon fill="#bfbfbf" stroke="black" points="87.5,-167.5 87.5,-208.5 246.5,-208.5 246.5,-167.5 87.5,-167.5"/>
<text text-anchor="start" x="95.5" y="-196.5" font-family="Helvetica,sans-Serif" font-size="10.00">/home/travis/build</text>
<text text-anchor="start" x="95.5" y="-185.5" font-family="Helvetica,sans-Serif" font-size="10.00">/ComPWA/ComPWA/ThirdParty</text>
<text text-anchor="middle" x="167" y="-174.5" font-family="Helvetica,sans-Serif" font-size="10.00">/tbb/src/tbb/scheduler_utility.h</text>
</g>
<!-- Node2 -->
<g id="node2" class="node"><title>Node2</title>
<g id="a_node2"><a xlink:href="../../dd/dc1/arena_8cpp.html" target="_top" xlink:title="/home/travis/build\l/ComPWA/ComPWA/ThirdParty\l/tbb/src/tbb/arena.cpp">
<polygon fill="white" stroke="black" points="0,-89.5 0,-130.5 158,-130.5 158,-89.5 0,-89.5"/>
<text text-anchor="start" x="8" y="-118.5" font-family="Helvetica,sans-Serif" font-size="10.00">/home/travis/build</text>
<text text-anchor="start" x="8" y="-107.5" font-family="Helvetica,sans-Serif" font-size="10.00">/ComPWA/ComPWA/ThirdParty</text>
<text text-anchor="middle" x="79" y="-96.5" font-family="Helvetica,sans-Serif" font-size="10.00">/tbb/src/tbb/arena.cpp</text>
</a>
</g>
</g>
<!-- Node1&#45;&gt;Node2 -->
<g id="edge1" class="edge"><title>Node1&#45;&gt;Node2</title>
<path fill="none" stroke="midnightblue" d="M136.638,-160.779C125.134,-150.843 112.25,-139.716 101.585,-130.506"/>
<polygon fill="midnightblue" stroke="midnightblue" points="134.482,-163.541 144.338,-167.428 139.057,-158.243 134.482,-163.541"/>
</g>
<!-- Node4 -->
<g id="node4" class="node"><title>Node4</title>
<g id="a_node4"><a xlink:href="../../db/d8b/scheduler_8cpp.html" target="_top" xlink:title="/home/travis/build\l/ComPWA/ComPWA/ThirdParty\l/tbb/src/tbb/scheduler.cpp">
<polygon fill="white" stroke="black" points="176,-89.5 176,-130.5 334,-130.5 334,-89.5 176,-89.5"/>
<text text-anchor="start" x="184" y="-118.5" font-family="Helvetica,sans-Serif" font-size="10.00">/home/travis/build</text>
<text text-anchor="start" x="184" y="-107.5" font-family="Helvetica,sans-Serif" font-size="10.00">/ComPWA/ComPWA/ThirdParty</text>
<text text-anchor="middle" x="255" y="-96.5" font-family="Helvetica,sans-Serif" font-size="10.00">/tbb/src/tbb/scheduler.cpp</text>
</a>
</g>
</g>
<!-- Node1&#45;&gt;Node4 -->
<g id="edge3" class="edge"><title>Node1&#45;&gt;Node4</title>
<path fill="none" stroke="midnightblue" d="M197.362,-160.779C208.866,-150.843 221.75,-139.716 232.415,-130.506"/>
<polygon fill="midnightblue" stroke="midnightblue" points="194.943,-158.243 189.662,-167.428 199.518,-163.541 194.943,-158.243"/>
</g>
<!-- Node3 -->
<g id="node3" class="node"><title>Node3</title>
<g id="a_node3"><a xlink:href="../../d8/d0e/harness__inject__scheduler_8h.html" target="_top" xlink:title="/home/travis/build\l/ComPWA/ComPWA/ThirdParty\l/tbb/src/test/harness_inject\l_scheduler.h">
<polygon fill="white" stroke="red" points="88,-0.5 88,-52.5 246,-52.5 246,-0.5 88,-0.5"/>
<text text-anchor="start" x="96" y="-40.5" font-family="Helvetica,sans-Serif" font-size="10.00">/home/travis/build</text>
<text text-anchor="start" x="96" y="-29.5" font-family="Helvetica,sans-Serif" font-size="10.00">/ComPWA/ComPWA/ThirdParty</text>
<text text-anchor="start" x="96" y="-18.5" font-family="Helvetica,sans-Serif" font-size="10.00">/tbb/src/test/harness_inject</text>
<text text-anchor="middle" x="167" y="-7.5" font-family="Helvetica,sans-Serif" font-size="10.00">_scheduler.h</text>
</a>
</g>
</g>
<!-- Node2&#45;&gt;Node3 -->
<g id="edge2" class="edge"><title>Node2&#45;&gt;Node3</title>
<path fill="none" stroke="midnightblue" d="M107.889,-82.2447C118.189,-72.7059 129.746,-62.0026 139.89,-52.6073"/>
<polygon fill="midnightblue" stroke="midnightblue" points="105.261,-79.9083 100.302,-89.2711 110.017,-85.0441 105.261,-79.9083"/>
</g>
<!-- Node4&#45;&gt;Node3 -->
<g id="edge4" class="edge"><title>Node4&#45;&gt;Node3</title>
<path fill="none" stroke="midnightblue" d="M226.111,-82.2447C215.811,-72.7059 204.254,-62.0026 194.11,-52.6073"/>
<polygon fill="midnightblue" stroke="midnightblue" points="223.983,-85.0441 233.698,-89.2711 228.739,-79.9083 223.983,-85.0441"/>
</g>
</g>
</svg>
