<?xml version="1.0" encoding="UTF-8" standalone="no"?>
<!DOCTYPE svg PUBLIC "-//W3C//DTD SVG 1.1//EN"
 "http://www.w3.org/Graphics/SVG/1.1/DTD/svg11.dtd">
<!-- Generated by graphviz version 2.38.0 (20140413.2041)
 -->
<!-- Title: internal::aligned_pair&lt; T1, T2 &gt; Pages: 1 -->
<svg width="131pt" height="226pt"
 viewBox="0.00 0.00 131.00 226.00" xmlns="http://www.w3.org/2000/svg" xmlns:xlink="http://www.w3.org/1999/xlink">
<g id="graph0" class="graph" transform="scale(1 1) rotate(0) translate(4 222)">
<title>internal::aligned_pair&lt; T1, T2 &gt;</title>
<polygon fill="white" stroke="none" points="-4,4 -4,-222 127,-222 127,4 -4,4"/>
<!-- Node1 -->
<g id="node1" class="node"><title>Node1</title>
<polygon fill="#bfbfbf" stroke="black" points="-7.10543e-15,-0.5 -7.10543e-15,-68.5 116,-68.5 116,-0.5 -7.10543e-15,-0.5"/>
<text text-anchor="start" x="8" y="-56.5" font-family="Helvetica,sans-Serif" font-size="10.00">internal::aligned_pair</text>
<text text-anchor="middle" x="58" y="-45.5" font-family="Helvetica,sans-Serif" font-size="10.00">&lt; T1, T2 &gt;</text>
<polyline fill="none" stroke="black" points="-7.10543e-15,-38.5 116,-38.5 "/>
<text text-anchor="middle" x="58" y="-26.5" font-family="Helvetica,sans-Serif" font-size="10.00"> </text>
<polyline fill="none" stroke="black" points="-7.10543e-15,-19.5 116,-19.5 "/>
<text text-anchor="middle" x="58" y="-7.5" font-family="Helvetica,sans-Serif" font-size="10.00"> </text>
</g>
<!-- Node2 -->
<g id="node2" class="node"><title>Node2</title>
<polygon fill="white" stroke="#bfbfbf" points="36,-160.5 36,-217.5 80,-217.5 80,-160.5 36,-160.5"/>
<text text-anchor="middle" x="58" y="-205.5" font-family="Helvetica,sans-Serif" font-size="10.00">size_t</text>
<polyline fill="none" stroke="#bfbfbf" points="36,-198.5 80,-198.5 "/>
<text text-anchor="middle" x="58" y="-186.5" font-family="Helvetica,sans-Serif" font-size="10.00"> </text>
<polyline fill="none" stroke="#bfbfbf" points="36,-179.5 80,-179.5 "/>
<text text-anchor="middle" x="58" y="-167.5" font-family="Helvetica,sans-Serif" font-size="10.00"> </text>
</g>
<!-- Node2&#45;&gt;Node1 -->
<g id="edge1" class="edge"><title>Node2&#45;&gt;Node1</title>
<path fill="none" stroke="#404040" d="M58,-160.383C58,-138.255 58,-106.747 58,-80.9162"/>
<polygon fill="none" stroke="#404040" points="58.0001,-80.7577 54,-74.7578 58,-68.7577 62,-74.7577 58.0001,-80.7577"/>
<text text-anchor="middle" x="90.5" y="-134" font-family="Helvetica,sans-Serif" font-size="10.00"> +max_align</text>
<text text-anchor="middle" x="90.5" y="-123" font-family="Helvetica,sans-Serif" font-size="10.00">+remainder</text>
<text text-anchor="middle" x="90.5" y="-112" font-family="Helvetica,sans-Serif" font-size="10.00">+t1_align</text>
<text text-anchor="middle" x="90.5" y="-101" font-family="Helvetica,sans-Serif" font-size="10.00">+extra_bytes</text>
<text text-anchor="middle" x="90.5" y="-90" font-family="Helvetica,sans-Serif" font-size="10.00">+t2_align</text>
</g>
</g>
</svg>
