<?xml version="1.0" encoding="UTF-8" standalone="no"?>
<!DOCTYPE svg PUBLIC "-//W3C//DTD SVG 1.1//EN"
 "http://www.w3.org/Graphics/SVG/1.1/DTD/svg11.dtd">
<!-- Generated by graphviz version 2.38.0 (20140413.2041)
 -->
<!-- Title: HammerAssignment&lt; T, aligned &gt; Pages: 1 -->
<svg width="162pt" height="309pt"
 viewBox="0.00 0.00 162.00 309.00" xmlns="http://www.w3.org/2000/svg" xmlns:xlink="http://www.w3.org/1999/xlink">
<g id="graph0" class="graph" transform="scale(1 1) rotate(0) translate(4 305)">
<title>HammerAssignment&lt; T, aligned &gt;</title>
<polygon fill="white" stroke="none" points="-4,4 -4,-305 158,-305 158,4 -4,4"/>
<!-- Node1 -->
<g id="node1" class="node"><title>Node1</title>
<polygon fill="#bfbfbf" stroke="black" points="9,-0.5 9,-101.5 145,-101.5 145,-0.5 9,-0.5"/>
<text text-anchor="start" x="17" y="-89.5" font-family="Helvetica,sans-Serif" font-size="10.00">HammerAssignment&lt; T,</text>
<text text-anchor="middle" x="77" y="-78.5" font-family="Helvetica,sans-Serif" font-size="10.00"> aligned &gt;</text>
<polyline fill="none" stroke="black" points="9,-71.5 145,-71.5 "/>
<text text-anchor="start" x="17" y="-59.5" font-family="Helvetica,sans-Serif" font-size="10.00">&#45; x</text>
<text text-anchor="start" x="17" y="-48.5" font-family="Helvetica,sans-Serif" font-size="10.00">&#45; name</text>
<text text-anchor="start" x="17" y="-37.5" font-family="Helvetica,sans-Serif" font-size="10.00">&#45; set</text>
<polyline fill="none" stroke="black" points="9,-30.5 145,-30.5 "/>
<text text-anchor="start" x="17" y="-18.5" font-family="Helvetica,sans-Serif" font-size="10.00">+ HammerAssignment()</text>
<text text-anchor="start" x="17" y="-7.5" font-family="Helvetica,sans-Serif" font-size="10.00">+ operator()()</text>
</g>
<!-- Node2 -->
<g id="node2" class="node"><title>Node2</title>
<g id="a_node2"><a xlink:href="../../d3/d58/classAlignedAtomic.html" target="_top" xlink:title="{AlignedAtomic\&lt; T, aligned \&gt;\n|&#45; raw_space\l|+ construct_atomic()\l}">
<polygon fill="white" stroke="black" points="0,-138.5 0,-195.5 154,-195.5 154,-138.5 0,-138.5"/>
<text text-anchor="middle" x="77" y="-183.5" font-family="Helvetica,sans-Serif" font-size="10.00">AlignedAtomic&lt; T, aligned &gt;</text>
<polyline fill="none" stroke="black" points="0,-176.5 154,-176.5 "/>
<text text-anchor="start" x="8" y="-164.5" font-family="Helvetica,sans-Serif" font-size="10.00">&#45; raw_space</text>
<polyline fill="none" stroke="black" points="0,-157.5 154,-157.5 "/>
<text text-anchor="start" x="8" y="-145.5" font-family="Helvetica,sans-Serif" font-size="10.00">+ construct_atomic()</text>
</a>
</g>
</g>
<!-- Node2&#45;&gt;Node1 -->
<g id="edge1" class="edge"><title>Node2&#45;&gt;Node1</title>
<path fill="none" stroke="#8b1a1a" d="M77,-128.354C77,-119.796 77,-110.578 77,-101.608"/>
<polygon fill="none" stroke="#8b1a1a" points="73.5001,-128.404 77,-138.404 80.5001,-128.404 73.5001,-128.404"/>
</g>
<!-- Node3 -->
<g id="node3" class="node"><title>Node3</title>
<g id="a_node3"><a xlink:href="../../d8/dab/classNoAssign.html" target="_top" xlink:title="Base class for prohibiting compiler&#45;generated operator=. ">
<polygon fill="white" stroke="black" points="37,-232.5 37,-300.5 117,-300.5 117,-232.5 37,-232.5"/>
<text text-anchor="middle" x="77" y="-288.5" font-family="Helvetica,sans-Serif" font-size="10.00">NoAssign</text>
<polyline fill="none" stroke="black" points="37,-281.5 117,-281.5 "/>
<text text-anchor="middle" x="77" y="-269.5" font-family="Helvetica,sans-Serif" font-size="10.00"> </text>
<polyline fill="none" stroke="black" points="37,-262.5 117,-262.5 "/>
<text text-anchor="start" x="45" y="-250.5" font-family="Helvetica,sans-Serif" font-size="10.00">+ NoAssign()</text>
<text text-anchor="start" x="45" y="-239.5" font-family="Helvetica,sans-Serif" font-size="10.00">&#45; operator=()</text>
</a>
</g>
</g>
<!-- Node3&#45;&gt;Node2 -->
<g id="edge2" class="edge"><title>Node3&#45;&gt;Node2</title>
<path fill="none" stroke="#8b1a1a" d="M77,-222.454C77,-213.404 77,-204.088 77,-195.777"/>
<polygon fill="none" stroke="#8b1a1a" points="73.5001,-222.491 77,-232.491 80.5001,-222.491 73.5001,-222.491"/>
</g>
</g>
</svg>
