<?xml version="1.0" encoding="UTF-8" standalone="no"?>
<!DOCTYPE svg PUBLIC "-//W3C//DTD SVG 1.1//EN"
 "http://www.w3.org/Graphics/SVG/1.1/DTD/svg11.dtd">
<!-- Generated by graphviz version 2.38.0 (20140413.2041)
 -->
<!-- Title: /home/travis/build/ComPWA/ComPWA/Physics/Dynamics/FormFactor.cpp Pages: 1 -->
<svg width="266pt" height="285pt"
 viewBox="0.00 0.00 265.58 285.00" xmlns="http://www.w3.org/2000/svg" xmlns:xlink="http://www.w3.org/1999/xlink">
<g id="graph0" class="graph" transform="scale(1 1) rotate(0) translate(4 281)">
<title>/home/travis/build/ComPWA/ComPWA/Physics/Dynamics/FormFactor.cpp</title>
<polygon fill="white" stroke="none" points="-4,4 -4,-281 261.58,-281 261.58,4 -4,4"/>
<!-- Node1 -->
<g id="node1" class="node"><title>Node1</title>
<polygon fill="#bfbfbf" stroke="black" points="36.7638,-235.5 36.7638,-276.5 182.764,-276.5 182.764,-235.5 36.7638,-235.5"/>
<text text-anchor="start" x="44.7638" y="-264.5" font-family="Helvetica,sans-Serif" font-size="10.00">/home/travis/build</text>
<text text-anchor="start" x="44.7638" y="-253.5" font-family="Helvetica,sans-Serif" font-size="10.00">/ComPWA/ComPWA/Physics</text>
<text text-anchor="middle" x="109.764" y="-242.5" font-family="Helvetica,sans-Serif" font-size="10.00">/Dynamics/FormFactor.cpp</text>
</g>
<!-- Node2 -->
<g id="node2" class="node"><title>Node2</title>
<g id="a_node2"><a xlink:href="../../de/dc9/FormFactor_8hpp.html" target="_top" xlink:title="FormFactor.hpp">
<polygon fill="white" stroke="black" points="64.2638,-179.5 64.2638,-198.5 155.264,-198.5 155.264,-179.5 64.2638,-179.5"/>
<text text-anchor="middle" x="109.764" y="-186.5" font-family="Helvetica,sans-Serif" font-size="10.00">FormFactor.hpp</text>
</a>
</g>
</g>
<!-- Node1&#45;&gt;Node2 -->
<g id="edge1" class="edge"><title>Node1&#45;&gt;Node2</title>
<path fill="none" stroke="midnightblue" d="M109.764,-235.498C109.764,-227.065 109.764,-217.235 109.764,-208.874"/>
<polygon fill="midnightblue" stroke="midnightblue" points="113.264,-208.652 109.764,-198.652 106.264,-208.653 113.264,-208.652"/>
</g>
<!-- Node3 -->
<g id="node3" class="node"><title>Node3</title>
<polygon fill="white" stroke="#bfbfbf" points="51.2638,-0.5 51.2638,-19.5 108.264,-19.5 108.264,-0.5 51.2638,-0.5"/>
<text text-anchor="middle" x="79.7638" y="-7.5" font-family="Helvetica,sans-Serif" font-size="10.00">complex</text>
</g>
<!-- Node2&#45;&gt;Node3 -->
<g id="edge2" class="edge"><title>Node2&#45;&gt;Node3</title>
<path fill="none" stroke="midnightblue" d="M64.1997,-179.709C43.2654,-173.376 20.3409,-162.295 7.7638,-143 -18.7025,-102.396 31.0965,-51.2544 60.4554,-26.2196"/>
<polygon fill="midnightblue" stroke="midnightblue" points="62.981,-28.6729 68.4592,-19.6043 58.5214,-23.2774 62.981,-28.6729"/>
</g>
<!-- Node4 -->
<g id="node4" class="node"><title>Node4</title>
<polygon fill="white" stroke="#bfbfbf" points="17.2638,-118 17.2638,-137 80.2638,-137 80.2638,-118 17.2638,-118"/>
<text text-anchor="middle" x="48.7638" y="-125" font-family="Helvetica,sans-Serif" font-size="10.00">exception</text>
</g>
<!-- Node2&#45;&gt;Node4 -->
<g id="edge3" class="edge"><title>Node2&#45;&gt;Node4</title>
<path fill="none" stroke="midnightblue" d="M101.024,-179.475C91.6022,-170.285 76.3997,-155.456 64.8145,-144.156"/>
<polygon fill="midnightblue" stroke="midnightblue" points="67.0899,-141.486 57.4874,-137.009 62.2021,-146.497 67.0899,-141.486"/>
</g>
<!-- Node5 -->
<g id="node5" class="node"><title>Node5</title>
<g id="a_node5"><a xlink:href="../../da/db2/FunctionTree_8hpp.html" target="_top" xlink:title="FunctionTree class. ">
<polygon fill="white" stroke="red" points="98.7638,-112.5 98.7638,-142.5 242.764,-142.5 242.764,-112.5 98.7638,-112.5"/>
<text text-anchor="start" x="106.764" y="-130.5" font-family="Helvetica,sans-Serif" font-size="10.00">Core/FunctionTree/Function</text>
<text text-anchor="middle" x="170.764" y="-119.5" font-family="Helvetica,sans-Serif" font-size="10.00">Tree.hpp</text>
</a>
</g>
</g>
<!-- Node2&#45;&gt;Node5 -->
<g id="edge4" class="edge"><title>Node2&#45;&gt;Node5</title>
<path fill="none" stroke="midnightblue" d="M118.504,-179.475C126.456,-171.718 138.528,-159.943 149.066,-149.665"/>
<polygon fill="midnightblue" stroke="midnightblue" points="151.673,-152.011 156.387,-142.523 146.785,-147 151.673,-152.011"/>
</g>
<!-- Node6 -->
<g id="node6" class="node"><title>Node6</title>
<g id="a_node6"><a xlink:href="../../dc/d66/Functions_8hpp.html" target="_top" xlink:title="This file contains Functions implementing the Strategy interface so they can be used inside a node of...">
<polygon fill="white" stroke="red" points="85.7638,-56.5 85.7638,-75.5 255.764,-75.5 255.764,-56.5 85.7638,-56.5"/>
<text text-anchor="middle" x="170.764" y="-63.5" font-family="Helvetica,sans-Serif" font-size="10.00">Core/FunctionTree/Functions.hpp</text>
</a>
</g>
</g>
<!-- Node2&#45;&gt;Node6 -->
<g id="edge7" class="edge"><title>Node2&#45;&gt;Node6</title>
<path fill="none" stroke="midnightblue" d="M155.571,-186.879C188.17,-183.384 229.918,-172.839 251.764,-143 259.903,-131.883 258.751,-123.875 251.764,-112 242.846,-96.844 226.775,-86.4264 211.286,-79.464"/>
<polygon fill="midnightblue" stroke="midnightblue" points="212.366,-76.124 201.786,-75.5639 209.708,-82.5996 212.366,-76.124"/>
</g>
<!-- Node5&#45;&gt;Node6 -->
<g id="edge5" class="edge"><title>Node5&#45;&gt;Node6</title>
<path fill="none" stroke="midnightblue" d="M170.764,-112.399C170.764,-104.466 170.764,-94.458 170.764,-85.8583"/>
<polygon fill="midnightblue" stroke="midnightblue" points="174.264,-85.6577 170.764,-75.6578 167.264,-85.6578 174.264,-85.6577"/>
</g>
<!-- Node6&#45;&gt;Node3 -->
<g id="edge6" class="edge"><title>Node6&#45;&gt;Node3</title>
<path fill="none" stroke="midnightblue" d="M156.143,-56.324C141.815,-47.8215 119.751,-34.7288 103.015,-24.7975"/>
<polygon fill="midnightblue" stroke="midnightblue" points="104.734,-21.7478 94.3482,-19.6545 101.162,-27.7677 104.734,-21.7478"/>
</g>
</g>
</svg>
