<?xml version="1.0" encoding="UTF-8" standalone="no"?>
<!DOCTYPE svg PUBLIC "-//W3C//DTD SVG 1.1//EN"
 "http://www.w3.org/Graphics/SVG/1.1/DTD/svg11.dtd">
<!-- Generated by graphviz version 2.38.0 (20140413.2041)
 -->
<!-- Title: BaseFilter&lt; T &gt; Pages: 1 -->
<svg width="224pt" height="788pt"
 viewBox="0.00 0.00 224.00 788.00" xmlns="http://www.w3.org/2000/svg" xmlns:xlink="http://www.w3.org/1999/xlink">
<g id="graph0" class="graph" transform="scale(1 1) rotate(0) translate(4 784)">
<title>BaseFilter&lt; T &gt;</title>
<polygon fill="white" stroke="none" points="-4,4 -4,-784 220,-784 220,4 -4,4"/>
<!-- Node1 -->
<g id="node1" class="node"><title>Node1</title>
<polygon fill="#bfbfbf" stroke="black" points="25,-193.5 25,-338.5 120,-338.5 120,-193.5 25,-193.5"/>
<text text-anchor="middle" x="72.5" y="-326.5" font-family="Helvetica,sans-Serif" font-size="10.00">BaseFilter&lt; T &gt;</text>
<polyline fill="none" stroke="black" points="25,-319.5 120,-319.5 "/>
<text text-anchor="start" x="33" y="-307.5" font-family="Helvetica,sans-Serif" font-size="10.00">+ current_token</text>
<text text-anchor="start" x="33" y="-296.5" font-family="Helvetica,sans-Serif" font-size="10.00">&#45; my_done</text>
<text text-anchor="start" x="33" y="-285.5" font-family="Helvetica,sans-Serif" font-size="10.00">&#45; my_is_last</text>
<text text-anchor="start" x="33" y="-274.5" font-family="Helvetica,sans-Serif" font-size="10.00">&#45; my_is_running</text>
<polyline fill="none" stroke="black" points="25,-267.5 120,-267.5 "/>
<text text-anchor="start" x="33" y="-255.5" font-family="Helvetica,sans-Serif" font-size="10.00">+ BaseFilter()</text>
<text text-anchor="start" x="33" y="-244.5" font-family="Helvetica,sans-Serif" font-size="10.00">+ get_buffer()</text>
<text text-anchor="start" x="33" y="-233.5" font-family="Helvetica,sans-Serif" font-size="10.00">+ operator()()</text>
<text text-anchor="start" x="33" y="-222.5" font-family="Helvetica,sans-Serif" font-size="10.00">+ BaseFilter()</text>
<text text-anchor="start" x="33" y="-211.5" font-family="Helvetica,sans-Serif" font-size="10.00">+ get_buffer()</text>
<text text-anchor="start" x="33" y="-200.5" font-family="Helvetica,sans-Serif" font-size="10.00">+ operator()()</text>
</g>
<!-- Node5 -->
<g id="node5" class="node"><title>Node5</title>
<g id="a_node5"><a xlink:href="../../de/da2/classInputFilter.html" target="_top" xlink:title="filter to fills queue ">
<polygon fill="white" stroke="black" points="6,-0.5 6,-156.5 139,-156.5 139,-0.5 6,-0.5"/>
<text text-anchor="middle" x="72.5" y="-144.5" font-family="Helvetica,sans-Serif" font-size="10.00">InputFilter&lt; T &gt;</text>
<polyline fill="none" stroke="black" points="6,-137.5 139,-137.5 "/>
<text text-anchor="start" x="14" y="-125.5" font-family="Helvetica,sans-Serif" font-size="10.00">+ Queue</text>
<text text-anchor="start" x="14" y="-114.5" font-family="Helvetica,sans-Serif" font-size="10.00">&#45; N</text>
<text text-anchor="start" x="14" y="-103.5" font-family="Helvetica,sans-Serif" font-size="10.00">&#45; input_lock</text>
<text text-anchor="start" x="14" y="-92.5" font-family="Helvetica,sans-Serif" font-size="10.00">&#45; buffer</text>
<text text-anchor="start" x="14" y="-81.5" font-family="Helvetica,sans-Serif" font-size="10.00">&#45; my_number_of_tokens</text>
<polyline fill="none" stroke="black" points="6,-74.5 139,-74.5 "/>
<text text-anchor="start" x="14" y="-62.5" font-family="Helvetica,sans-Serif" font-size="10.00">+ InputFilter()</text>
<text text-anchor="start" x="14" y="-51.5" font-family="Helvetica,sans-Serif" font-size="10.00">+ operator()()</text>
<text text-anchor="start" x="14" y="-40.5" font-family="Helvetica,sans-Serif" font-size="10.00">+ InputFilter()</text>
<text text-anchor="start" x="14" y="-29.5" font-family="Helvetica,sans-Serif" font-size="10.00">+ get_buffer()</text>
<text text-anchor="start" x="14" y="-18.5" font-family="Helvetica,sans-Serif" font-size="10.00">+ InputFilter()</text>
<text text-anchor="start" x="14" y="-7.5" font-family="Helvetica,sans-Serif" font-size="10.00">+ get_buffer()</text>
</a>
</g>
</g>
<!-- Node1&#45;&gt;Node5 -->
<g id="edge4" class="edge"><title>Node1&#45;&gt;Node5</title>
<path fill="none" stroke="midnightblue" d="M65.7907,-183.031C65.724,-174.232 65.7393,-165.302 65.8366,-156.563"/>
<polygon fill="none" stroke="midnightblue" points="62.2937,-183.321 65.9067,-193.281 69.2932,-183.242 62.2937,-183.321"/>
</g>
<!-- Node1&#45;&gt;Node5 -->
<g id="edge5" class="edge"><title>Node1&#45;&gt;Node5</title>
<path fill="none" stroke="midnightblue" d="M79.2093,-183.031C79.276,-174.232 79.2607,-165.302 79.1634,-156.563"/>
<polygon fill="none" stroke="midnightblue" points="75.7068,-183.242 79.0933,-193.281 82.7063,-183.321 75.7068,-183.242"/>
</g>
<!-- Node2 -->
<g id="node2" class="node"><title>Node2</title>
<polygon fill="white" stroke="#bfbfbf" points="-1.77636e-15,-502 -1.77636e-15,-559 29,-559 29,-502 -1.77636e-15,-502"/>
<text text-anchor="middle" x="14.5" y="-547" font-family="Helvetica,sans-Serif" font-size="10.00">T</text>
<polyline fill="none" stroke="#bfbfbf" points="-1.77636e-15,-540 29,-540 "/>
<text text-anchor="middle" x="14.5" y="-528" font-family="Helvetica,sans-Serif" font-size="10.00"> </text>
<polyline fill="none" stroke="#bfbfbf" points="-1.77636e-15,-521 29,-521 "/>
<text text-anchor="middle" x="14.5" y="-509" font-family="Helvetica,sans-Serif" font-size="10.00"> </text>
</g>
<!-- Node2&#45;&gt;Node1 -->
<g id="edge1" class="edge"><title>Node2&#45;&gt;Node1</title>
<path fill="none" stroke="midnightblue" d="M18.7391,-491.82C22.6642,-460.348 29.2884,-414.422 38.5,-375 41.2731,-363.132 44.6973,-350.678 48.2945,-338.618"/>
<polygon fill="none" stroke="midnightblue" points="15.245,-491.56 17.5116,-501.909 22.1938,-492.405 15.245,-491.56"/>
</g>
<!-- Node3 -->
<g id="node3" class="node"><title>Node3</title>
<g id="a_node3"><a xlink:href="../../d9/db1/classtbb_1_1filter.html" target="_top" xlink:title="A stage in a pipeline. ">
<polygon fill="white" stroke="black" points="47,-375.5 47,-685.5 216,-685.5 216,-375.5 47,-375.5"/>
<text text-anchor="middle" x="131.5" y="-673.5" font-family="Helvetica,sans-Serif" font-size="10.00">tbb::filter</text>
<polyline fill="none" stroke="black" points="47,-666.5 216,-666.5 "/>
<text text-anchor="start" x="55" y="-654.5" font-family="Helvetica,sans-Serif" font-size="10.00"># filter_is_serial</text>
<text text-anchor="start" x="55" y="-643.5" font-family="Helvetica,sans-Serif" font-size="10.00"># filter_is_out_of_order</text>
<text text-anchor="start" x="55" y="-632.5" font-family="Helvetica,sans-Serif" font-size="10.00"># filter_is_bound</text>
<text text-anchor="start" x="55" y="-621.5" font-family="Helvetica,sans-Serif" font-size="10.00"># filter_may_emit_null</text>
<text text-anchor="start" x="55" y="-610.5" font-family="Helvetica,sans-Serif" font-size="10.00"># exact_exception_propagation</text>
<text text-anchor="start" x="55" y="-599.5" font-family="Helvetica,sans-Serif" font-size="10.00"># current_version</text>
<text text-anchor="start" x="55" y="-588.5" font-family="Helvetica,sans-Serif" font-size="10.00"># version_mask</text>
<text text-anchor="start" x="55" y="-577.5" font-family="Helvetica,sans-Serif" font-size="10.00">&#45; next_filter_in_pipeline</text>
<text text-anchor="start" x="55" y="-566.5" font-family="Helvetica,sans-Serif" font-size="10.00">&#45; my_input_buffer</text>
<text text-anchor="start" x="55" y="-555.5" font-family="Helvetica,sans-Serif" font-size="10.00">&#45; my_filter_mode</text>
<text text-anchor="start" x="55" y="-544.5" font-family="Helvetica,sans-Serif" font-size="10.00">&#45; prev_filter_in_pipeline</text>
<text text-anchor="start" x="55" y="-533.5" font-family="Helvetica,sans-Serif" font-size="10.00">&#45; my_pipeline</text>
<text text-anchor="start" x="55" y="-522.5" font-family="Helvetica,sans-Serif" font-size="10.00">&#45; next_segment</text>
<polyline fill="none" stroke="black" points="47,-515.5 216,-515.5 "/>
<text text-anchor="start" x="55" y="-503.5" font-family="Helvetica,sans-Serif" font-size="10.00">+ is_serial()</text>
<text text-anchor="start" x="55" y="-492.5" font-family="Helvetica,sans-Serif" font-size="10.00">+ is_ordered()</text>
<text text-anchor="start" x="55" y="-481.5" font-family="Helvetica,sans-Serif" font-size="10.00">+ is_bound()</text>
<text text-anchor="start" x="55" y="-470.5" font-family="Helvetica,sans-Serif" font-size="10.00">+ object_may_be_null()</text>
<text text-anchor="start" x="55" y="-459.5" font-family="Helvetica,sans-Serif" font-size="10.00">+ operator()()</text>
<text text-anchor="start" x="55" y="-448.5" font-family="Helvetica,sans-Serif" font-size="10.00">+ ~filter()</text>
<text text-anchor="start" x="55" y="-437.5" font-family="Helvetica,sans-Serif" font-size="10.00">+ finalize()</text>
<text text-anchor="start" x="55" y="-426.5" font-family="Helvetica,sans-Serif" font-size="10.00"># filter()</text>
<text text-anchor="start" x="55" y="-415.5" font-family="Helvetica,sans-Serif" font-size="10.00"># filter()</text>
<text text-anchor="start" x="55" y="-404.5" font-family="Helvetica,sans-Serif" font-size="10.00"># set_end_of_input()</text>
<text text-anchor="start" x="55" y="-393.5" font-family="Helvetica,sans-Serif" font-size="10.00">&#45; has_more_work()</text>
<text text-anchor="start" x="55" y="-382.5" font-family="Helvetica,sans-Serif" font-size="10.00">&#45; not_in_pipeline()</text>
</a>
</g>
</g>
<!-- Node3&#45;&gt;Node1 -->
<g id="edge2" class="edge"><title>Node3&#45;&gt;Node1</title>
<path fill="none" stroke="midnightblue" d="M94.6418,-365.512C92.5506,-356.208 90.5121,-347.138 88.5721,-338.507"/>
<polygon fill="none" stroke="midnightblue" points="91.2304,-366.295 96.8382,-375.284 98.06,-364.76 91.2304,-366.295"/>
</g>
<!-- Node4 -->
<g id="node4" class="node"><title>Node4</title>
<polygon fill="white" stroke="#bfbfbf" points="103.5,-722.5 103.5,-779.5 159.5,-779.5 159.5,-722.5 103.5,-722.5"/>
<text text-anchor="middle" x="131.5" y="-767.5" font-family="Helvetica,sans-Serif" font-size="10.00">no_copy</text>
<polyline fill="none" stroke="#bfbfbf" points="103.5,-760.5 159.5,-760.5 "/>
<text text-anchor="middle" x="131.5" y="-748.5" font-family="Helvetica,sans-Serif" font-size="10.00"> </text>
<polyline fill="none" stroke="#bfbfbf" points="103.5,-741.5 159.5,-741.5 "/>
<text text-anchor="middle" x="131.5" y="-729.5" font-family="Helvetica,sans-Serif" font-size="10.00"> </text>
</g>
<!-- Node4&#45;&gt;Node3 -->
<g id="edge3" class="edge"><title>Node4&#45;&gt;Node3</title>
<path fill="none" stroke="#8b1a1a" d="M131.5,-712.281C131.5,-704.208 131.5,-695.205 131.5,-685.648"/>
<polygon fill="none" stroke="#8b1a1a" points="128,-712.327 131.5,-722.327 135,-712.327 128,-712.327"/>
</g>
</g>
</svg>
