<?xml version="1.0" encoding="UTF-8" standalone="no"?>
<!DOCTYPE svg PUBLIC "-//W3C//DTD SVG 1.1//EN"
 "http://www.w3.org/Graphics/SVG/1.1/DTD/svg11.dtd">
<!-- Generated by graphviz version 2.38.0 (20140413.2041)
 -->
<!-- Title: warning_tracker Pages: 1 -->
<svg width="190pt" height="321pt"
 viewBox="0.00 0.00 189.50 321.00" xmlns="http://www.w3.org/2000/svg" xmlns:xlink="http://www.w3.org/1999/xlink">
<g id="graph0" class="graph" transform="scale(1 1) rotate(0) translate(4 317)">
<title>warning_tracker</title>
<polygon fill="white" stroke="none" points="-4,4 -4,-317 185.5,-317 185.5,4 -4,4"/>
<!-- Node1 -->
<g id="node1" class="node"><title>Node1</title>
<polygon fill="#bfbfbf" stroke="black" points="3,-0.5 3,-68.5 114,-68.5 114,-0.5 3,-0.5"/>
<text text-anchor="middle" x="58.5" y="-56.5" font-family="Helvetica,sans-Serif" font-size="10.00">warning_tracker</text>
<polyline fill="none" stroke="black" points="3,-49.5 114,-49.5 "/>
<text text-anchor="middle" x="58.5" y="-37.5" font-family="Helvetica,sans-Serif" font-size="10.00"> </text>
<polyline fill="none" stroke="black" points="3,-30.5 114,-30.5 "/>
<text text-anchor="start" x="11" y="-18.5" font-family="Helvetica,sans-Serif" font-size="10.00">+ warning_tracker()</text>
<text text-anchor="start" x="11" y="-7.5" font-family="Helvetica,sans-Serif" font-size="10.00">+ all_set()</text>
</g>
<!-- Node2 -->
<g id="node2" class="node"><title>Node2</title>
<g id="a_node2"><a xlink:href="../../d4/d32/structtbb_1_1atomic.html" target="_top" xlink:title="{tbb::atomic\&lt; int \&gt;\n||+ operator=()\l+ operator=()\l}">
<polygon fill="white" stroke="black" points="5.5,-138.5 5.5,-206.5 111.5,-206.5 111.5,-138.5 5.5,-138.5"/>
<text text-anchor="middle" x="58.5" y="-194.5" font-family="Helvetica,sans-Serif" font-size="10.00">tbb::atomic&lt; int &gt;</text>
<polyline fill="none" stroke="black" points="5.5,-187.5 111.5,-187.5 "/>
<text text-anchor="middle" x="58.5" y="-175.5" font-family="Helvetica,sans-Serif" font-size="10.00"> </text>
<polyline fill="none" stroke="black" points="5.5,-168.5 111.5,-168.5 "/>
<text text-anchor="start" x="13.5" y="-156.5" font-family="Helvetica,sans-Serif" font-size="10.00">+ operator=()</text>
<text text-anchor="start" x="13.5" y="-145.5" font-family="Helvetica,sans-Serif" font-size="10.00">+ operator=()</text>
</a>
</g>
</g>
<!-- Node2&#45;&gt;Node1 -->
<g id="edge1" class="edge"><title>Node2&#45;&gt;Node1</title>
<path fill="none" stroke="#404040" d="M58.5,-138.231C58.5,-121.025 58.5,-99.7641 58.5,-81.056"/>
<polygon fill="none" stroke="#404040" points="58.5001,-80.8972 54.5,-74.8973 58.5,-68.8972 62.5,-74.8972 58.5001,-80.8972"/>
<text text-anchor="middle" x="120" y="-112" font-family="Helvetica,sans-Serif" font-size="10.00"> +n_more_than_available</text>
<text text-anchor="middle" x="120" y="-101" font-family="Helvetica,sans-Serif" font-size="10.00">+n_too_many_threads</text>
<text text-anchor="middle" x="120" y="-90" font-family="Helvetica,sans-Serif" font-size="10.00">+n_system_overload</text>
</g>
<!-- Node3 -->
<g id="node3" class="node"><title>Node3</title>
<polygon fill="white" stroke="#bfbfbf" points="0,-244.5 0,-312.5 117,-312.5 117,-244.5 0,-244.5"/>
<text text-anchor="start" x="8" y="-300.5" font-family="Helvetica,sans-Serif" font-size="10.00">internal::atomic_impl</text>
<text text-anchor="middle" x="58.5" y="-289.5" font-family="Helvetica,sans-Serif" font-size="10.00">&lt; int &gt;</text>
<polyline fill="none" stroke="#bfbfbf" points="0,-282.5 117,-282.5 "/>
<text text-anchor="middle" x="58.5" y="-270.5" font-family="Helvetica,sans-Serif" font-size="10.00"> </text>
<polyline fill="none" stroke="#bfbfbf" points="0,-263.5 117,-263.5 "/>
<text text-anchor="middle" x="58.5" y="-251.5" font-family="Helvetica,sans-Serif" font-size="10.00"> </text>
</g>
<!-- Node3&#45;&gt;Node2 -->
<g id="edge2" class="edge"><title>Node3&#45;&gt;Node2</title>
<path fill="none" stroke="midnightblue" d="M58.5,-234.174C58.5,-225.002 58.5,-215.461 58.5,-206.734"/>
<polygon fill="none" stroke="midnightblue" points="55.0001,-234.308 58.5,-244.308 62.0001,-234.308 55.0001,-234.308"/>
</g>
</g>
</svg>
