<?xml version="1.0" encoding="UTF-8" standalone="no"?>
<!DOCTYPE svg PUBLIC "-//W3C//DTD SVG 1.1//EN"
 "http://www.w3.org/Graphics/SVG/1.1/DTD/svg11.dtd">
<!-- Generated by graphviz version 2.38.0 (20140413.2041)
 -->
<!-- Title: Value&lt; T &gt; Pages: 1 -->
<svg width="130pt" height="204pt"
 viewBox="0.00 0.00 130.00 204.00" xmlns="http://www.w3.org/2000/svg" xmlns:xlink="http://www.w3.org/1999/xlink">
<g id="graph0" class="graph" transform="scale(1 1) rotate(0) translate(4 200)">
<title>Value&lt; T &gt;</title>
<polygon fill="white" stroke="none" points="-4,4 -4,-200 126,-200 126,4 -4,4"/>
<!-- Node1 -->
<g id="node1" class="node"><title>Node1</title>
<polygon fill="#bfbfbf" stroke="black" points="22,-0.5 22,-57.5 100,-57.5 100,-0.5 22,-0.5"/>
<text text-anchor="middle" x="61" y="-45.5" font-family="Helvetica,sans-Serif" font-size="10.00">Value&lt; T &gt;</text>
<polyline fill="none" stroke="black" points="22,-38.5 100,-38.5 "/>
<text text-anchor="middle" x="61" y="-26.5" font-family="Helvetica,sans-Serif" font-size="10.00"> </text>
<polyline fill="none" stroke="black" points="22,-19.5 100,-19.5 "/>
<text text-anchor="start" x="30" y="-7.5" font-family="Helvetica,sans-Serif" font-size="10.00">+ compare()</text>
</g>
<!-- Node2 -->
<g id="node2" class="node"><title>Node2</title>
<g id="a_node2"><a xlink:href="../../de/de4/structValueFactory.html" target="_top" xlink:title="{ValueFactory\&lt; T::key\l_type, T::value_type \&gt;\n||+ make()\l+ key()\l+ get()\l+ convert()\l}">
<polygon fill="white" stroke="black" points="0,-94.5 0,-195.5 122,-195.5 122,-94.5 0,-94.5"/>
<text text-anchor="start" x="8" y="-183.5" font-family="Helvetica,sans-Serif" font-size="10.00">ValueFactory&lt; T::key</text>
<text text-anchor="middle" x="61" y="-172.5" font-family="Helvetica,sans-Serif" font-size="10.00">_type, T::value_type &gt;</text>
<polyline fill="none" stroke="black" points="0,-165.5 122,-165.5 "/>
<text text-anchor="middle" x="61" y="-153.5" font-family="Helvetica,sans-Serif" font-size="10.00"> </text>
<polyline fill="none" stroke="black" points="0,-146.5 122,-146.5 "/>
<text text-anchor="start" x="8" y="-134.5" font-family="Helvetica,sans-Serif" font-size="10.00">+ make()</text>
<text text-anchor="start" x="8" y="-123.5" font-family="Helvetica,sans-Serif" font-size="10.00">+ key()</text>
<text text-anchor="start" x="8" y="-112.5" font-family="Helvetica,sans-Serif" font-size="10.00">+ get()</text>
<text text-anchor="start" x="8" y="-101.5" font-family="Helvetica,sans-Serif" font-size="10.00">+ convert()</text>
</a>
</g>
</g>
<!-- Node2&#45;&gt;Node1 -->
<g id="edge1" class="edge"><title>Node2&#45;&gt;Node1</title>
<path fill="none" stroke="midnightblue" d="M61,-84.2331C61,-74.9207 61,-65.707 61,-57.5894"/>
<polygon fill="none" stroke="midnightblue" points="57.5001,-84.3295 61,-94.3296 64.5001,-84.3296 57.5001,-84.3295"/>
</g>
</g>
</svg>
